<?xml version="1.0" encoding="UTF-8" standalone="no"?>
<!DOCTYPE svg PUBLIC "-//W3C//DTD SVG 1.1//EN"
 "http://www.w3.org/Graphics/SVG/1.1/DTD/svg11.dtd">
<!-- Generated by graphviz version 2.42.4 (0)
 -->
<!-- Title: Context Pages: 1 -->
<svg width="822pt" height="468pt"
 viewBox="0.00 0.00 822.00 468.00" xmlns="http://www.w3.org/2000/svg" xmlns:xlink="http://www.w3.org/1999/xlink">
<g id="graph0" class="graph" transform="scale(1 1) rotate(0) translate(4 464)">
<title>Context</title>
<polygon fill="white" stroke="transparent" points="-4,4 -4,-464 818,-464 818,4 -4,4"/>
<g id="clust1" class="cluster">
<title>cluster_current</title>
<polygon fill="#fff3e0" stroke="#ef6c00" points="376,-8 376,-270 638,-270 638,-8 376,-8"/>
<text text-anchor="middle" x="507" y="-257.2" font-family="Arial" font-size="11.00">Phase 1 — fast path actuel</text>
</g>
<g id="clust2" class="cluster">
<title>cluster_target</title>
<polygon fill="#fffde7" stroke="#f9a825" points="8,-198 8,-452 368,-452 368,-198 8,-198"/>
<text text-anchor="middle" x="188" y="-439.2" font-family="Arial" font-size="11.00">Cible — event based</text>
</g>
<!-- Scheduler -->
<g id="node1" class="node">
<title>Scheduler</title>
<g id="a_node1"><a xlink:href="../scheduler/10_scheduler.svg" xlink:title="Scheduler">
<path fill="#ede7f6" stroke="#512da8" d="M424,-342C424,-342 388,-342 388,-342 382,-342 376,-336 376,-330 376,-330 376,-318 376,-318 376,-312 382,-306 388,-306 388,-306 424,-306 424,-306 430,-306 436,-312 436,-318 436,-318 436,-330 436,-330 436,-336 430,-342 424,-342"/>
<text text-anchor="middle" x="406" y="-321.5" font-family="Arial" font-size="10.00">Scheduler</text>
</a>
</g>
</g>
<!-- ContextEngine -->
<g id="node5" class="node">
<title>ContextEngine</title>
<path fill="#fff3e0" stroke="#ef6c00" d="M618,-242C618,-242 496,-242 496,-242 490,-242 484,-236 484,-230 484,-230 484,-218 484,-218 484,-212 490,-206 496,-206 496,-206 618,-206 618,-206 624,-206 630,-212 630,-218 630,-218 630,-230 630,-230 630,-236 624,-242 618,-242"/>
<text text-anchor="middle" x="557" y="-221.5" font-family="Arial" font-size="10.00">ContextEngine.execute_tick()</text>
</g>
<!-- Scheduler&#45;&gt;ContextEngine -->
<g id="edge1" class="edge">
<title>Scheduler&#45;&gt;ContextEngine</title>
<path fill="none" stroke="black" d="M410.25,-305.95C410.25,-291.63 410.25,-274 410.25,-274 410.25,-274 515,-274 515,-274 515,-274 515,-249.05 515,-249.05"/>
<polygon fill="black" stroke="black" points="517.45,-249.05 515,-242.05 512.55,-249.05 517.45,-249.05"/>
<text text-anchor="middle" x="432.5" y="-280.8" font-family="Arial" font-size="9.00">clock tick</text>
</g>
<!-- Registry -->
<g id="node2" class="node">
<title>Registry</title>
<path fill="#ede7f6" stroke="#512da8" d="M570,-424C570,-424 540,-424 540,-424 534,-424 528,-418 528,-412 528,-412 528,-400 528,-400 528,-394 534,-388 540,-388 540,-388 570,-388 570,-388 576,-388 582,-394 582,-400 582,-400 582,-412 582,-412 582,-418 576,-424 570,-424"/>
<text text-anchor="middle" x="555" y="-403.5" font-family="Arial" font-size="10.00">Registry</text>
</g>
<!-- Proxy -->
<g id="node3" class="node">
<title>Proxy</title>
<path fill="#ede7f6" stroke="#512da8" d="M534,-342C534,-342 466,-342 466,-342 460,-342 454,-336 454,-330 454,-330 454,-318 454,-318 454,-312 460,-306 466,-306 466,-306 534,-306 534,-306 540,-306 546,-312 546,-318 546,-318 546,-330 546,-330 546,-336 540,-342 534,-342"/>
<text text-anchor="middle" x="500" y="-321.5" font-family="Arial" font-size="10.00">ComponentProxy</text>
</g>
<!-- Registry&#45;&gt;Proxy -->
<g id="edge4" class="edge">
<title>Registry&#45;&gt;Proxy</title>
<path fill="none" stroke="black" d="M537,-387.8C537,-387.8 537,-349.15 537,-349.15"/>
<polygon fill="black" stroke="black" points="539.45,-349.15 537,-342.15 534.55,-349.15 539.45,-349.15"/>
</g>
<!-- DirectCollect -->
<g id="node6" class="node">
<title>DirectCollect</title>
<path fill="#fff3e0" stroke="#ef6c00" d="M453.5,-242C453.5,-242 396.5,-242 396.5,-242 390.5,-242 384.5,-236 384.5,-230 384.5,-230 384.5,-218 384.5,-218 384.5,-212 390.5,-206 396.5,-206 396.5,-206 453.5,-206 453.5,-206 459.5,-206 465.5,-212 465.5,-218 465.5,-218 465.5,-230 465.5,-230 465.5,-236 459.5,-242 453.5,-242"/>
<text text-anchor="middle" x="425" y="-227" font-family="Arial" font-size="10.00">Registry.all()</text>
<text text-anchor="middle" x="425" y="-216" font-family="Arial" font-size="10.00">proxy.context()</text>
</g>
<!-- Proxy&#45;&gt;DirectCollect -->
<g id="edge5" class="edge">
<title>Proxy&#45;&gt;DirectCollect</title>
<path fill="none" stroke="black" d="M459.75,-305.66C459.75,-305.66 459.75,-249.23 459.75,-249.23"/>
<polygon fill="black" stroke="black" points="462.2,-249.23 459.75,-242.23 457.3,-249.23 462.2,-249.23"/>
<text text-anchor="middle" x="501" y="-280.8" font-family="Arial" font-size="9.00">context()</text>
</g>
<!-- ContextReply -->
<g id="node10" class="node">
<title>ContextReply</title>
<path fill="#fffde7" stroke="#f9a825" d="M210,-424C210,-424 132,-424 132,-424 126,-424 120,-418 120,-412 120,-412 120,-400 120,-400 120,-394 126,-388 132,-388 132,-388 210,-388 210,-388 216,-388 222,-394 222,-400 222,-400 222,-412 222,-412 222,-418 216,-424 210,-424"/>
<text text-anchor="middle" x="171" y="-403.5" font-family="Arial" font-size="10.00">CONTEXT_REPLY</text>
</g>
<!-- Proxy&#45;&gt;ContextReply -->
<g id="edge9" class="edge">
<title>Proxy&#45;&gt;ContextReply</title>
<path fill="none" stroke="black" stroke-dasharray="5,2" d="M503.33,-342.15C503.33,-355.74 503.33,-372 503.33,-372 503.33,-372 203.67,-372 203.67,-372 203.67,-372 203.67,-380.81 203.67,-380.81"/>
<polygon fill="black" stroke="black" points="201.22,-380.81 203.67,-387.81 206.12,-380.81 201.22,-380.81"/>
<text text-anchor="middle" x="337" y="-362.8" font-family="Arial" font-size="9.00">future</text>
</g>
<!-- EventBus -->
<g id="node4" class="node">
<title>EventBus</title>
<path fill="#ede7f6" stroke="#512da8" d="M722,-160C722,-160 658,-160 658,-160 652,-160 646,-154 646,-148 646,-148 646,-136 646,-136 646,-130 652,-124 658,-124 658,-124 722,-124 722,-124 728,-124 734,-130 734,-136 734,-136 734,-148 734,-148 734,-154 728,-160 722,-160"/>
<text text-anchor="middle" x="690" y="-145" font-family="Arial" font-size="10.00">EventBus</text>
<text text-anchor="middle" x="690" y="-134" font-family="Arial" font-size="10.00">observation only</text>
</g>
<!-- ContextEngine&#45;&gt;Registry -->
<g id="edge3" class="edge">
<title>ContextEngine&#45;&gt;Registry</title>
<path fill="none" stroke="black" d="M564,-242.12C564,-242.12 564,-380.96 564,-380.96"/>
<polygon fill="black" stroke="black" points="561.55,-380.96 564,-387.96 566.45,-380.96 561.55,-380.96"/>
</g>
<!-- ContextEngine&#45;&gt;EventBus -->
<g id="edge2" class="edge">
<title>ContextEngine&#45;&gt;EventBus</title>
<path fill="none" stroke="black" d="M630.11,-224C661.02,-224 690,-224 690,-224 690,-224 690,-167.2 690,-167.2"/>
<polygon fill="black" stroke="black" points="692.45,-167.2 690,-160.2 687.55,-167.2 692.45,-167.2"/>
<text text-anchor="middle" x="752" y="-180.8" font-family="Arial" font-size="9.00">publish CONTEXT_REQUEST</text>
</g>
<!-- Snapshot -->
<g id="node7" class="node">
<title>Snapshot</title>
<path fill="#fff3e0" stroke="#ef6c00" d="M492,-160C492,-160 396,-160 396,-160 390,-160 384,-154 384,-148 384,-148 384,-136 384,-136 384,-130 390,-124 396,-124 396,-124 492,-124 492,-124 498,-124 504,-130 504,-136 504,-136 504,-148 504,-148 504,-154 498,-160 492,-160"/>
<text text-anchor="middle" x="444" y="-139.5" font-family="Arial" font-size="10.00">GlobalContextSnapshot</text>
</g>
<!-- DirectCollect&#45;&gt;Snapshot -->
<g id="edge6" class="edge">
<title>DirectCollect&#45;&gt;Snapshot</title>
<path fill="none" stroke="black" d="M425,-205.8C425,-205.8 425,-167.15 425,-167.15"/>
<polygon fill="black" stroke="black" points="427.45,-167.15 425,-160.15 422.55,-167.15 427.45,-167.15"/>
</g>
<!-- InferenceContext -->
<g id="node8" class="node">
<title>InferenceContext</title>
<path fill="#fff3e0" stroke="#ef6c00" d="M471,-52C471,-52 403,-52 403,-52 397,-52 391,-46 391,-40 391,-40 391,-28 391,-28 391,-22 397,-16 403,-16 403,-16 471,-16 471,-16 477,-16 483,-22 483,-28 483,-28 483,-40 483,-40 483,-46 477,-52 471,-52"/>
<text text-anchor="middle" x="437" y="-31.5" font-family="Arial" font-size="10.00">InferenceContext</text>
</g>
<!-- Snapshot&#45;&gt;InferenceContext -->
<g id="edge7" class="edge">
<title>Snapshot&#45;&gt;InferenceContext</title>
<path fill="none" stroke="black" d="M437,-123.68C437,-123.68 437,-59.05 437,-59.05"/>
<polygon fill="black" stroke="black" points="439.45,-59.05 437,-52.05 434.55,-59.05 439.45,-59.05"/>
</g>
<!-- DecisionEngine -->
<g id="node13" class="node">
<title>DecisionEngine</title>
<path fill="#fffde7" stroke="#f9a825" d="M89.5,-424C89.5,-424 28.5,-424 28.5,-424 22.5,-424 16.5,-418 16.5,-412 16.5,-412 16.5,-400 16.5,-400 16.5,-394 22.5,-388 28.5,-388 28.5,-388 89.5,-388 89.5,-388 95.5,-388 101.5,-394 101.5,-400 101.5,-400 101.5,-412 101.5,-412 101.5,-418 95.5,-424 89.5,-424"/>
<text text-anchor="middle" x="59" y="-403.5" font-family="Arial" font-size="10.00">DecisionEngine</text>
</g>
<!-- InferenceContext&#45;&gt;DecisionEngine -->
<g id="edge13" class="edge">
<title>InferenceContext&#45;&gt;DecisionEngine</title>
<path fill="none" stroke="black" stroke-dasharray="5,2" d="M390.86,-34C287.19,-34 44.83,-34 44.83,-34 44.83,-34 44.83,-380.81 44.83,-380.81"/>
<polygon fill="black" stroke="black" points="42.38,-380.81 44.83,-387.81 47.28,-380.81 42.38,-380.81"/>
<text text-anchor="middle" x="113" y="-221.8" font-family="Arial" font-size="9.00">future</text>
</g>
<!-- ContextRequest -->
<g id="node9" class="node">
<title>ContextRequest</title>
<path fill="#fffde7" stroke="#f9a825" d="M347.5,-424C347.5,-424 252.5,-424 252.5,-424 246.5,-424 240.5,-418 240.5,-412 240.5,-412 240.5,-400 240.5,-400 240.5,-394 246.5,-388 252.5,-388 252.5,-388 347.5,-388 347.5,-388 353.5,-388 359.5,-394 359.5,-400 359.5,-400 359.5,-412 359.5,-412 359.5,-418 353.5,-424 347.5,-424"/>
<text text-anchor="middle" x="300" y="-403.5" font-family="Arial" font-size="10.00">CONTEXT_REQUEST</text>
</g>
<!-- ContextRequest&#45;&gt;Proxy -->
<g id="edge8" class="edge">
<title>ContextRequest&#45;&gt;Proxy</title>
<path fill="none" stroke="black" stroke-dasharray="5,2" d="M359.99,-406C411.89,-406 478.67,-406 478.67,-406 478.67,-406 478.67,-349.2 478.67,-349.2"/>
<polygon fill="black" stroke="black" points="481.12,-349.2 478.67,-342.2 476.22,-349.2 481.12,-349.2"/>
<text text-anchor="middle" x="392" y="-362.8" font-family="Arial" font-size="9.00">future</text>
</g>
<!-- Collector -->
<g id="node11" class="node">
<title>Collector</title>
<path fill="#fffde7" stroke="#f9a825" d="M211,-342C211,-342 179,-342 179,-342 173,-342 167,-336 167,-330 167,-330 167,-318 167,-318 167,-312 173,-306 179,-306 179,-306 211,-306 211,-306 217,-306 223,-312 223,-318 223,-318 223,-330 223,-330 223,-336 217,-342 211,-342"/>
<text text-anchor="middle" x="195" y="-321.5" font-family="Arial" font-size="10.00">Collector</text>
</g>
<!-- ContextReply&#45;&gt;Collector -->
<g id="edge10" class="edge">
<title>ContextReply&#45;&gt;Collector</title>
<path fill="none" stroke="black" stroke-dasharray="5,2" d="M185.33,-387.8C185.33,-387.8 185.33,-349.15 185.33,-349.15"/>
<polygon fill="black" stroke="black" points="187.78,-349.15 185.33,-342.15 182.88,-349.15 187.78,-349.15"/>
</g>
<!-- Reducer -->
<g id="node12" class="node">
<title>Reducer</title>
<path fill="#fffde7" stroke="#f9a825" d="M249,-242C249,-242 219,-242 219,-242 213,-242 207,-236 207,-230 207,-230 207,-218 207,-218 207,-212 213,-206 219,-206 219,-206 249,-206 249,-206 255,-206 261,-212 261,-218 261,-218 261,-230 261,-230 261,-236 255,-242 249,-242"/>
<text text-anchor="middle" x="234" y="-221.5" font-family="Arial" font-size="10.00">Reducer</text>
</g>
<!-- Collector&#45;&gt;Reducer -->
<g id="edge11" class="edge">
<title>Collector&#45;&gt;Reducer</title>
<path fill="none" stroke="black" stroke-dasharray="5,2" d="M215,-305.66C215,-305.66 215,-249.23 215,-249.23"/>
<polygon fill="black" stroke="black" points="217.45,-249.23 215,-242.23 212.55,-249.23 217.45,-249.23"/>
</g>
<!-- Reducer&#45;&gt;Snapshot -->
<g id="edge12" class="edge">
<title>Reducer&#45;&gt;Snapshot</title>
<path fill="none" stroke="black" stroke-dasharray="5,2" d="M234,-205.8C234,-181.64 234,-142 234,-142 234,-142 376.82,-142 376.82,-142"/>
<polygon fill="black" stroke="black" points="376.82,-144.45 383.82,-142 376.82,-139.55 376.82,-144.45"/>
</g>
<!-- DecisionEngine&#45;&gt;Scheduler -->
<g id="edge14" class="edge">
<title>DecisionEngine&#45;&gt;Scheduler</title>
<path fill="none" stroke="black" stroke-dasharray="5,2" d="M73.17,-387.75C73.17,-373.82 73.17,-357 73.17,-357 73.17,-357 406,-357 406,-357 406,-357 406,-349.04 406,-349.04"/>
<polygon fill="black" stroke="black" points="408.45,-349.04 406,-342.04 403.55,-349.04 408.45,-349.04"/>
</g>
<!-- Nav_Global -->
<g id="node14" class="node">
<title>Nav_Global</title>
<g id="a_node14"><a xlink:href="../00_global.svg" xlink:title="Global">
<path fill="lightgrey" stroke="transparent" d="M688,-106C688,-106 658,-106 658,-106 652,-106 646,-100 646,-94 646,-94 646,-82 646,-82 646,-76 652,-70 658,-70 658,-70 688,-70 688,-70 694,-70 700,-76 700,-82 700,-82 700,-94 700,-94 700,-100 694,-106 688,-106"/>
<text text-anchor="middle" x="673" y="-85.5" font-family="Arial" font-size="10.00">Global</text>
</a>
</g>
</g>
<!-- Nav_Scheduler -->
<g id="node15" class="node">
<title>Nav_Scheduler</title>
<g id="a_node15"><a xlink:href="../scheduler/10_scheduler.svg" xlink:title="Scheduler">
<path fill="lightgrey" stroke="transparent" d="M753,-106C753,-106 717,-106 717,-106 711,-106 705,-100 705,-94 705,-94 705,-82 705,-82 705,-76 711,-70 717,-70 717,-70 753,-70 753,-70 759,-70 765,-76 765,-82 765,-82 765,-94 765,-94 765,-100 759,-106 753,-106"/>
<text text-anchor="middle" x="735" y="-85.5" font-family="Arial" font-size="10.00">Scheduler</text>
</a>
</g>
</g>
</g>
</svg>
