<?xml version="1.0" encoding="UTF-8" standalone="no"?>
<!DOCTYPE svg PUBLIC "-//W3C//DTD SVG 1.1//EN"
 "http://www.w3.org/Graphics/SVG/1.1/DTD/svg11.dtd">
<!-- Generated by graphviz version 14.1.3 (20260303.0454)
 -->
<!-- Title: Context Pages: 1 -->
<svg width="489pt" height="594pt"
 viewBox="0.00 0.00 489.00 594.00" xmlns="http://www.w3.org/2000/svg" xmlns:xlink="http://www.w3.org/1999/xlink">
<g id="graph0" class="graph" transform="scale(1 1) rotate(0) translate(4 589.5)">
<title>Context</title>
<polygon fill="white" stroke="none" points="-4,4 -4,-589.5 484.62,-589.5 484.62,4 -4,4"/>
<g id="clust1" class="cluster">
<title>cluster_context</title>
<polygon fill="#fff3e0" stroke="#ef6c00" points="8,-119 8,-577.5 152,-577.5 152,-119 8,-119"/>
<text xml:space="preserve" text-anchor="middle" x="80" y="-560.2" font-family="Times,serif" font-size="14.00">Context Fabric</text>
</g>
<!-- GET -->
<g id="node1" class="node">
<title>GET</title>
<g id="a_node1"><a xlink:href="collector/21_collector.svg" xlink:title="GET">
<polygon fill="#fff3e0" stroke="#ef6c00" points="144,-544.25 90,-544.25 90,-508.25 144,-508.25 144,-544.25"/>
<text xml:space="preserve" text-anchor="middle" x="117" y="-522.75" font-family="Arial" font-size="10.00">GET</text>
</a>
</g>
</g>
<!-- Proxy -->
<g id="node9" class="node">
<title>Proxy</title>
<g id="a_node9"><a xlink:href="../scheduler/component_proxy/14_component_proxy.svg" xlink:title="Proxy">
<polygon fill="#ede7f6" stroke="#512da8" points="214,-455 160,-455 160,-419 214,-419 214,-455"/>
<text xml:space="preserve" text-anchor="middle" x="187" y="-433.5" font-family="Arial" font-size="10.00">Proxy</text>
</a>
</g>
</g>
<!-- GET&#45;&gt;Proxy -->
<g id="edge2" class="edge">
<title>GET&#45;&gt;Proxy</title>
<path fill="none" stroke="black" d="M132.75,-508.05C137.73,-502.46 143.18,-496.17 148,-490.25 154.75,-481.96 161.83,-472.67 168.07,-464.25"/>
<polygon fill="black" stroke="black" points="170.71,-466.57 173.81,-456.44 165.07,-462.43 170.71,-466.57"/>
<text xml:space="preserve" text-anchor="middle" x="193.14" y="-476.95" font-family="Times,serif" font-size="14.00">context()</text>
</g>
<!-- Collector -->
<g id="node2" class="node">
<title>Collector</title>
<g id="a_node2"><a xlink:href="collector/21_collector.svg" xlink:title="Collector">
<polygon fill="#fff3e0" stroke="#ef6c00" points="71.5,-544.25 16.5,-544.25 16.5,-508.25 71.5,-508.25 71.5,-544.25"/>
<text xml:space="preserve" text-anchor="middle" x="44" y="-522.75" font-family="Arial" font-size="10.00">Collector</text>
</a>
</g>
</g>
<!-- Reducer -->
<g id="node3" class="node">
<title>Reducer</title>
<g id="a_node3"><a xlink:href="reducer/22_reducer.svg" xlink:title="Reducer">
<polygon fill="#fff3e0" stroke="#ef6c00" points="80,-455 26,-455 26,-419 80,-419 80,-455"/>
<text xml:space="preserve" text-anchor="middle" x="53" y="-433.5" font-family="Arial" font-size="10.00">Reducer</text>
</a>
</g>
</g>
<!-- Collector&#45;&gt;Reducer -->
<g id="edge4" class="edge">
<title>Collector&#45;&gt;Reducer</title>
<path fill="none" stroke="black" d="M45.78,-508.01C47,-496.18 48.65,-480.2 50.06,-466.5"/>
<polygon fill="black" stroke="black" points="53.53,-467.01 51.07,-456.71 46.56,-466.3 53.53,-467.01"/>
</g>
<!-- Snapshot -->
<g id="node4" class="node">
<title>Snapshot</title>
<g id="a_node4"><a xlink:href="snapshot/23_snapshot.svg" xlink:title="Snapshot">
<polygon fill="#fff3e0" stroke="#ef6c00" points="134.62,-382 77.38,-382 77.38,-346 134.62,-346 134.62,-382"/>
<text xml:space="preserve" text-anchor="middle" x="106" y="-360.5" font-family="Arial" font-size="10.00">Snapshot</text>
</a>
</g>
</g>
<!-- Reducer&#45;&gt;Snapshot -->
<g id="edge5" class="edge">
<title>Reducer&#45;&gt;Snapshot</title>
<path fill="none" stroke="black" d="M65.83,-418.81C72.01,-410.53 79.57,-400.41 86.45,-391.19"/>
<polygon fill="black" stroke="black" points="89.21,-393.35 92.38,-383.24 83.6,-389.16 89.21,-393.35"/>
</g>
<!-- Inference -->
<g id="node5" class="node">
<title>Inference</title>
<g id="a_node5"><a xlink:href="snapshot/23_snapshot.svg" xlink:title="Inference">
<polygon fill="#fff3e0" stroke="#ef6c00" points="143.25,-309 86.75,-309 86.75,-273 143.25,-273 143.25,-309"/>
<text xml:space="preserve" text-anchor="middle" x="115" y="-287.5" font-family="Arial" font-size="10.00">Inference</text>
</a>
</g>
</g>
<!-- Snapshot&#45;&gt;Inference -->
<g id="edge6" class="edge">
<title>Snapshot&#45;&gt;Inference</title>
<path fill="none" stroke="black" d="M108.18,-345.81C109.15,-338.14 110.32,-328.89 111.42,-320.24"/>
<polygon fill="black" stroke="black" points="114.87,-320.89 112.65,-310.53 107.92,-320.01 114.87,-320.89"/>
</g>
<!-- Adapter -->
<g id="node6" class="node">
<title>Adapter</title>
<g id="a_node6"><a xlink:href="decision_engine/24_decision_engine.svg" xlink:title="Adapter">
<polygon fill="#fff3e0" stroke="#ef6c00" points="142,-236 88,-236 88,-200 142,-200 142,-236"/>
<text xml:space="preserve" text-anchor="middle" x="115" y="-214.5" font-family="Arial" font-size="10.00">Adapter</text>
</a>
</g>
</g>
<!-- Inference&#45;&gt;Adapter -->
<g id="edge7" class="edge">
<title>Inference&#45;&gt;Adapter</title>
<path fill="none" stroke="black" d="M115,-272.81C115,-265.23 115,-256.1 115,-247.54"/>
<polygon fill="black" stroke="black" points="118.5,-247.54 115,-237.54 111.5,-247.54 118.5,-247.54"/>
</g>
<!-- Decision -->
<g id="node7" class="node">
<title>Decision</title>
<g id="a_node7"><a xlink:href="decision_engine/24_decision_engine.svg" xlink:title="Decision">
<polygon fill="#fff3e0" stroke="#ef6c00" points="142.12,-163 87.88,-163 87.88,-127 142.12,-127 142.12,-163"/>
<text xml:space="preserve" text-anchor="middle" x="115" y="-141.5" font-family="Arial" font-size="10.00">Decision</text>
</a>
</g>
</g>
<!-- Adapter&#45;&gt;Decision -->
<g id="edge8" class="edge">
<title>Adapter&#45;&gt;Decision</title>
<path fill="none" stroke="black" d="M115,-199.81C115,-192.23 115,-183.1 115,-174.54"/>
<polygon fill="black" stroke="black" points="118.5,-174.54 115,-164.54 111.5,-174.54 118.5,-174.54"/>
</g>
<!-- OpenVINO -->
<g id="node12" class="node">
<title>OpenVINO</title>
<g id="a_node12"><a xlink:href="../learning/60_learning.svg" xlink:title="OpenVINO">
<polygon fill="#fffde7" stroke="#fbc02d" points="224,-163 160,-163 160,-127 224,-127 224,-163"/>
<text xml:space="preserve" text-anchor="middle" x="192" y="-141.5" font-family="Arial" font-size="10.00">OpenVINO</text>
</a>
</g>
</g>
<!-- Adapter&#45;&gt;OpenVINO -->
<g id="edge12" class="edge">
<title>Adapter&#45;&gt;OpenVINO</title>
<path fill="none" stroke="black" d="M133.64,-199.81C143.03,-191.16 154.59,-180.5 164.93,-170.96"/>
<polygon fill="black" stroke="black" points="167.17,-173.65 172.15,-164.3 162.43,-168.51 167.17,-173.65"/>
</g>
<!-- Policy -->
<g id="node10" class="node">
<title>Policy</title>
<g id="a_node10"><a xlink:href="../scheduler/10_scheduler.svg" xlink:title="Policy">
<polygon fill="#ede7f6" stroke="#512da8" points="334,-163 280,-163 280,-127 334,-127 334,-163"/>
<text xml:space="preserve" text-anchor="middle" x="307" y="-141.5" font-family="Arial" font-size="10.00">Policy</text>
</a>
</g>
</g>
<!-- Decision&#45;&gt;Policy -->
<g id="edge9" class="edge">
<title>Decision&#45;&gt;Policy</title>
<path fill="none" stroke="black" d="M132.04,-163.47C139.8,-170.54 149.57,-177.8 160,-181.5 200.63,-195.91 216.01,-194.87 257,-181.5 264.55,-179.04 271.91,-174.95 278.56,-170.39"/>
<polygon fill="black" stroke="black" points="280.63,-173.21 286.52,-164.41 276.42,-167.62 280.63,-173.21"/>
</g>
<!-- MCTS -->
<g id="node11" class="node">
<title>MCTS</title>
<g id="a_node11"><a xlink:href="../learning/60_learning.svg" xlink:title="MCTS">
<polygon fill="#fffde7" stroke="#fbc02d" points="142,-90 88,-90 88,-54 142,-54 142,-90"/>
<text xml:space="preserve" text-anchor="middle" x="115" y="-68.5" font-family="Arial" font-size="10.00">MCTS</text>
</a>
</g>
</g>
<!-- Decision&#45;&gt;MCTS -->
<g id="edge11" class="edge">
<title>Decision&#45;&gt;MCTS</title>
<path fill="none" stroke="black" stroke-dasharray="5,2" d="M115,-126.81C115,-119.23 115,-110.1 115,-101.54"/>
<polygon fill="black" stroke="black" points="118.5,-101.54 115,-91.54 111.5,-101.54 118.5,-101.54"/>
</g>
<!-- Scheduler -->
<g id="node8" class="node">
<title>Scheduler</title>
<g id="a_node8"><a xlink:href="../scheduler/10_scheduler.svg" xlink:title="Scheduler">
<polygon fill="#ede7f6" stroke="#512da8" points="301.75,-90 242.25,-90 242.25,-54 301.75,-54 301.75,-90"/>
<text xml:space="preserve" text-anchor="middle" x="272" y="-68.5" font-family="Arial" font-size="10.00">Scheduler</text>
</a>
</g>
</g>
<!-- Scheduler&#45;&gt;GET -->
<g id="edge1" class="edge">
<title>Scheduler&#45;&gt;GET</title>
<path fill="none" stroke="black" d="M264.21,-90.42C258.59,-104.56 252,-125.18 252,-144 252,-438 252,-438 252,-438 252,-463.37 247.92,-473.34 229,-490.25 208.64,-508.45 178.89,-517.19 155.17,-521.38"/>
<polygon fill="black" stroke="black" points="154.92,-517.88 145.57,-522.87 155.99,-524.8 154.92,-517.88"/>
<text xml:space="preserve" text-anchor="middle" x="266.62" y="-286.32" font-family="Times,serif" font-size="14.00">Tick</text>
</g>
<!-- Proxy&#45;&gt;Collector -->
<g id="edge3" class="edge">
<title>Proxy&#45;&gt;Collector</title>
<path fill="none" stroke="black" d="M159.64,-454.69C137.51,-468.2 106.1,-487.36 81.6,-502.31"/>
<polygon fill="black" stroke="black" points="79.92,-499.24 73.2,-507.43 83.56,-505.21 79.92,-499.24"/>
</g>
<!-- Policy&#45;&gt;Scheduler -->
<g id="edge10" class="edge">
<title>Policy&#45;&gt;Scheduler</title>
<path fill="none" stroke="black" stroke-dasharray="5,2" d="M298.53,-126.81C294.57,-118.79 289.77,-109.05 285.34,-100.07"/>
<polygon fill="black" stroke="black" points="288.62,-98.81 281.06,-91.39 282.35,-101.9 288.62,-98.81"/>
</g>
<!-- Nav_Global -->
<g id="node13" class="node">
<title>Nav_Global</title>
<g id="a_node13"><a xlink:href="../00_global.svg" xlink:title="Global">
<polygon fill="lightgrey" stroke="none" points="142,-36 88,-36 88,0 142,0 142,-36"/>
<text xml:space="preserve" text-anchor="middle" x="115" y="-14.5" font-family="Arial" font-size="10.00">Global</text>
</a>
</g>
</g>
<!-- Nav_Scheduler -->
<g id="node14" class="node">
<title>Nav_Scheduler</title>
<g id="a_node14"><a xlink:href="../scheduler/10_scheduler.svg" xlink:title="Scheduler">
<polygon fill="lightgrey" stroke="none" points="206.75,-36 147.25,-36 147.25,0 206.75,0 206.75,-36"/>
<text xml:space="preserve" text-anchor="middle" x="177" y="-14.5" font-family="Arial" font-size="10.00">Scheduler</text>
</a>
</g>
</g>
<!-- Nav_Collector -->
<g id="node15" class="node">
<title>Nav_Collector</title>
<g id="a_node15"><a xlink:href="collector/21_collector.svg" xlink:title="Collector">
<polygon fill="lightgrey" stroke="none" points="266.5,-36 211.5,-36 211.5,0 266.5,0 266.5,-36"/>
<text xml:space="preserve" text-anchor="middle" x="239" y="-14.5" font-family="Arial" font-size="10.00">Collector</text>
</a>
</g>
</g>
<!-- Nav_Reducer -->
<g id="node16" class="node">
<title>Nav_Reducer</title>
<g id="a_node16"><a xlink:href="reducer/22_reducer.svg" xlink:title="Reducer">
<polygon fill="lightgrey" stroke="none" points="326,-36 272,-36 272,0 326,0 326,-36"/>
<text xml:space="preserve" text-anchor="middle" x="299" y="-14.5" font-family="Arial" font-size="10.00">Reducer</text>
</a>
</g>
</g>
<!-- Nav_Snapshot -->
<g id="node17" class="node">
<title>Nav_Snapshot</title>
<g id="a_node17"><a xlink:href="snapshot/23_snapshot.svg" xlink:title="Snapshot">
<polygon fill="lightgrey" stroke="none" points="388.62,-36 331.38,-36 331.38,0 388.62,0 388.62,-36"/>
<text xml:space="preserve" text-anchor="middle" x="360" y="-14.5" font-family="Arial" font-size="10.00">Snapshot</text>
</a>
</g>
</g>
<!-- Nav_Decision -->
<g id="node18" class="node">
<title>Nav_Decision</title>
<g id="a_node18"><a xlink:href="decision_engine/24_decision_engine.svg" xlink:title="Decision Engine">
<polygon fill="lightgrey" stroke="none" points="480.62,-36 393.38,-36 393.38,0 480.62,0 480.62,-36"/>
<text xml:space="preserve" text-anchor="middle" x="437" y="-14.5" font-family="Arial" font-size="10.00">Decision Engine</text>
</a>
</g>
</g>
</g>
</svg>
