<?xml version="1.0" encoding="UTF-8" standalone="no"?>
<!DOCTYPE svg PUBLIC "-//W3C//DTD SVG 1.1//EN"
 "http://www.w3.org/Graphics/SVG/1.1/DTD/svg11.dtd">
<!-- Generated by graphviz version 14.1.3 (20260303.0454)
 -->
<!-- Title: Context Pages: 1 -->
<svg width="625pt" height="761pt"
 viewBox="0.00 0.00 625.00 761.00" xmlns="http://www.w3.org/2000/svg" xmlns:xlink="http://www.w3.org/1999/xlink">
<g id="graph0" class="graph" transform="scale(1 1) rotate(0) translate(4 757.25)">
<title>Context</title>
<polygon fill="white" stroke="none" points="-4,4 -4,-757.25 620.62,-757.25 620.62,4 -4,4"/>
<g id="clust1" class="cluster">
<title>cluster_context</title>
<polygon fill="#fff3e0" stroke="#ef6c00" points="247,-119 247,-745.25 492,-745.25 492,-119 247,-119"/>
<text xml:space="preserve" text-anchor="middle" x="369.5" y="-727.95" font-family="Times,serif" font-size="14.00">Context Fabric</text>
</g>
<!-- Engine -->
<g id="node1" class="node">
<title>Engine</title>
<path fill="#fff3e0" stroke="#ef6c00" d="M395.25,-712C395.25,-712 338.75,-712 338.75,-712 332.75,-712 326.75,-706 326.75,-700 326.75,-700 326.75,-688 326.75,-688 326.75,-682 332.75,-676 338.75,-676 338.75,-676 395.25,-676 395.25,-676 401.25,-676 407.25,-682 407.25,-688 407.25,-688 407.25,-700 407.25,-700 407.25,-706 401.25,-712 395.25,-712"/>
<text xml:space="preserve" text-anchor="middle" x="367" y="-690.5" font-family="Arial" font-size="10.00">ContextEngine</text>
</g>
<!-- Collector -->
<g id="node2" class="node">
<title>Collector</title>
<g id="a_node2"><a xlink:href="21_collector.svg" xlink:title="ContextCollector">
<path fill="#fff3e0" stroke="#ef6c00" d="M471.75,-639C471.75,-639 406.25,-639 406.25,-639 400.25,-639 394.25,-633 394.25,-627 394.25,-627 394.25,-615 394.25,-615 394.25,-609 400.25,-603 406.25,-603 406.25,-603 471.75,-603 471.75,-603 477.75,-603 483.75,-609 483.75,-615 483.75,-615 483.75,-627 483.75,-627 483.75,-633 477.75,-639 471.75,-639"/>
<text xml:space="preserve" text-anchor="middle" x="439" y="-617.5" font-family="Arial" font-size="10.00">ContextCollector</text>
</a>
</g>
</g>
<!-- Engine&#45;&gt;Collector -->
<g id="edge2" class="edge">
<title>Engine&#45;&gt;Collector</title>
<path fill="none" stroke="black" d="M384.43,-675.81C393.12,-667.24 403.8,-656.71 413.4,-647.24"/>
<polygon fill="black" stroke="black" points="415.74,-649.85 420.4,-640.34 410.83,-644.87 415.74,-649.85"/>
</g>
<!-- Request -->
<g id="node3" class="node">
<title>Request</title>
<path fill="#fff3e0" stroke="#ef6c00" d="M364,-556.5C364,-556.5 270,-556.5 270,-556.5 264,-556.5 258,-550.5 258,-544.5 258,-544.5 258,-532.5 258,-532.5 258,-526.5 264,-520.5 270,-520.5 270,-520.5 364,-520.5 364,-520.5 370,-520.5 376,-526.5 376,-532.5 376,-532.5 376,-544.5 376,-544.5 376,-550.5 370,-556.5 364,-556.5"/>
<text xml:space="preserve" text-anchor="middle" x="317" y="-541" font-family="Arial" font-size="10.00">CONTEXT_REQUEST</text>
<text xml:space="preserve" text-anchor="middle" x="317" y="-529" font-family="Arial" font-size="10.00">Request.reply</text>
</g>
<!-- Collector&#45;&gt;Request -->
<g id="edge3" class="edge">
<title>Collector&#45;&gt;Request</title>
<path fill="none" stroke="black" d="M417.15,-602.7C405.72,-593.92 391.36,-583.27 378,-574.5 371.83,-570.45 365.17,-566.36 358.6,-562.47"/>
<polygon fill="black" stroke="black" points="360.81,-559.71 350.4,-557.72 357.29,-565.77 360.81,-559.71"/>
</g>
<!-- Reply -->
<g id="node5" class="node">
<title>Reply</title>
<path fill="#fff3e0" stroke="#ef6c00" d="M353.75,-474C353.75,-474 276.25,-474 276.25,-474 270.25,-474 264.25,-468 264.25,-462 264.25,-462 264.25,-450 264.25,-450 264.25,-444 270.25,-438 276.25,-438 276.25,-438 353.75,-438 353.75,-438 359.75,-438 365.75,-444 365.75,-450 365.75,-450 365.75,-462 365.75,-462 365.75,-468 359.75,-474 353.75,-474"/>
<text xml:space="preserve" text-anchor="middle" x="315" y="-458.5" font-family="Arial" font-size="10.00">CONTEXT_REPLY</text>
<text xml:space="preserve" text-anchor="middle" x="315" y="-446.5" font-family="Arial" font-size="10.00">observable</text>
</g>
<!-- Request&#45;&gt;Reply -->
<g id="edge10" class="edge">
<title>Request&#45;&gt;Reply</title>
<path fill="none" stroke="black" d="M316.57,-520.03C316.32,-510.01 316,-497.18 315.71,-485.71"/>
<polygon fill="black" stroke="black" points="319.22,-485.86 315.47,-475.95 312.22,-486.03 319.22,-485.86"/>
</g>
<!-- Scheduler -->
<g id="node10" class="node">
<title>Scheduler</title>
<g id="a_node10"><a xlink:href="../scheduler/10_scheduler.svg" xlink:title="Scheduler">
<path fill="#ede7f6" stroke="#512da8" d="M106.75,-474C106.75,-474 71.25,-474 71.25,-474 65.25,-474 59.25,-468 59.25,-462 59.25,-462 59.25,-450 59.25,-450 59.25,-444 65.25,-438 71.25,-438 71.25,-438 106.75,-438 106.75,-438 112.75,-438 118.75,-444 118.75,-450 118.75,-450 118.75,-462 118.75,-462 118.75,-468 112.75,-474 106.75,-474"/>
<text xml:space="preserve" text-anchor="middle" x="89" y="-452.5" font-family="Arial" font-size="10.00">Scheduler</text>
</a>
</g>
</g>
<!-- Request&#45;&gt;Scheduler -->
<g id="edge4" class="edge">
<title>Request&#45;&gt;Scheduler</title>
<path fill="none" stroke="black" d="M267.53,-520.03C226.4,-505.51 168.57,-485.09 129.99,-471.47"/>
<polygon fill="black" stroke="black" points="131.19,-468.18 120.6,-468.16 128.86,-474.79 131.19,-468.18"/>
<text xml:space="preserve" text-anchor="middle" x="225.28" y="-493.95" font-family="Arial" font-size="9.00">emit</text>
</g>
<!-- Handler -->
<g id="node4" class="node">
<title>Handler</title>
<path fill="#fff3e0" stroke="#ef6c00" d="M364.5,-639C364.5,-639 267.5,-639 267.5,-639 261.5,-639 255.5,-633 255.5,-627 255.5,-627 255.5,-615 255.5,-615 255.5,-609 261.5,-603 267.5,-603 267.5,-603 364.5,-603 364.5,-603 370.5,-603 376.5,-609 376.5,-615 376.5,-615 376.5,-627 376.5,-627 376.5,-633 370.5,-639 364.5,-639"/>
<text xml:space="preserve" text-anchor="middle" x="316" y="-617.5" font-family="Arial" font-size="10.00">ContextRequestHandler</text>
</g>
<!-- Handler&#45;&gt;Request -->
<g id="edge9" class="edge">
<title>Handler&#45;&gt;Request</title>
<path fill="none" stroke="black" stroke-dasharray="5,2" d="M316.22,-602.53C316.34,-592.51 316.5,-579.68 316.64,-568.21"/>
<polygon fill="black" stroke="black" points="320.14,-568.49 316.76,-558.45 313.14,-568.4 320.14,-568.49"/>
<text xml:space="preserve" text-anchor="middle" x="345.06" y="-576.45" font-family="Arial" font-size="9.00">Request.reply</text>
</g>
<!-- Proxy -->
<g id="node13" class="node">
<title>Proxy</title>
<g id="a_node13"><a xlink:href="../scheduler/component_proxy/14_component_proxy.svg" xlink:title="ComponentProxy">
<path fill="#ede7f6" stroke="#512da8" d="M189.88,-556.5C189.88,-556.5 122.12,-556.5 122.12,-556.5 116.12,-556.5 110.12,-550.5 110.12,-544.5 110.12,-544.5 110.12,-532.5 110.12,-532.5 110.12,-526.5 116.12,-520.5 122.12,-520.5 122.12,-520.5 189.88,-520.5 189.88,-520.5 195.88,-520.5 201.88,-526.5 201.88,-532.5 201.88,-532.5 201.88,-544.5 201.88,-544.5 201.88,-550.5 195.88,-556.5 189.88,-556.5"/>
<text xml:space="preserve" text-anchor="middle" x="156" y="-535" font-family="Arial" font-size="10.00">ComponentProxy</text>
</a>
</g>
</g>
<!-- Handler&#45;&gt;Proxy -->
<g id="edge8" class="edge">
<title>Handler&#45;&gt;Proxy</title>
<path fill="none" stroke="black" d="M255.27,-614.4C215.75,-609.37 169.29,-600.34 156.75,-585 152.91,-580.3 151.31,-574.33 150.94,-568.27"/>
<polygon fill="black" stroke="black" points="154.44,-568.49 151.43,-558.33 147.44,-568.15 154.44,-568.49"/>
<text xml:space="preserve" text-anchor="middle" x="186.38" y="-576.45" font-family="Arial" font-size="9.00">proxy.context()</text>
</g>
<!-- Reducer -->
<g id="node6" class="node">
<title>Reducer</title>
<g id="a_node6"><a xlink:href="22_reducer.svg" xlink:title="ContextReducer">
<path fill="#fff3e0" stroke="#ef6c00" d="M346.62,-391.5C346.62,-391.5 283.38,-391.5 283.38,-391.5 277.38,-391.5 271.38,-385.5 271.38,-379.5 271.38,-379.5 271.38,-367.5 271.38,-367.5 271.38,-361.5 277.38,-355.5 283.38,-355.5 283.38,-355.5 346.62,-355.5 346.62,-355.5 352.62,-355.5 358.62,-361.5 358.62,-367.5 358.62,-367.5 358.62,-379.5 358.62,-379.5 358.62,-385.5 352.62,-391.5 346.62,-391.5"/>
<text xml:space="preserve" text-anchor="middle" x="315" y="-370" font-family="Arial" font-size="10.00">ContextReducer</text>
</a>
</g>
</g>
<!-- Reply&#45;&gt;Reducer -->
<g id="edge12" class="edge">
<title>Reply&#45;&gt;Reducer</title>
<path fill="none" stroke="black" d="M315,-437.53C315,-427.51 315,-414.68 315,-403.21"/>
<polygon fill="black" stroke="black" points="318.5,-403.45 315,-393.45 311.5,-403.45 318.5,-403.45"/>
</g>
<!-- EventBus -->
<g id="node14" class="node">
<title>EventBus</title>
<g id="a_node14"><a xlink:href="../scheduler/event_bus/12_event_bus.svg" xlink:title="EventBus">
<path fill="#ede7f6" stroke="#512da8" d="M227.38,-391.5C227.38,-391.5 192.62,-391.5 192.62,-391.5 186.62,-391.5 180.62,-385.5 180.62,-379.5 180.62,-379.5 180.62,-367.5 180.62,-367.5 180.62,-361.5 186.62,-355.5 192.62,-355.5 192.62,-355.5 227.38,-355.5 227.38,-355.5 233.38,-355.5 239.38,-361.5 239.38,-367.5 239.38,-367.5 239.38,-379.5 239.38,-379.5 239.38,-385.5 233.38,-391.5 227.38,-391.5"/>
<text xml:space="preserve" text-anchor="middle" x="210" y="-370" font-family="Arial" font-size="10.00">EventBus</text>
</a>
</g>
</g>
<!-- Reply&#45;&gt;EventBus -->
<g id="edge11" class="edge">
<title>Reply&#45;&gt;EventBus</title>
<path fill="none" stroke="black" stroke-dasharray="5,2" d="M287.86,-437.6C279.73,-432.16 270.88,-426 263,-420 254.59,-413.59 245.76,-406.27 237.77,-399.4"/>
<polygon fill="black" stroke="black" points="240.16,-396.84 230.32,-392.91 235.56,-402.12 240.16,-396.84"/>
<text xml:space="preserve" text-anchor="middle" x="287" y="-411.45" font-family="Arial" font-size="9.00">observation</text>
</g>
<!-- Snapshot -->
<g id="node7" class="node">
<title>Snapshot</title>
<g id="a_node7"><a xlink:href="23_snapshot.svg" xlink:title="GlobalContextSnapshot">
<path fill="#fff3e0" stroke="#ef6c00" d="M362.75,-318.5C362.75,-318.5 267.25,-318.5 267.25,-318.5 261.25,-318.5 255.25,-312.5 255.25,-306.5 255.25,-306.5 255.25,-294.5 255.25,-294.5 255.25,-288.5 261.25,-282.5 267.25,-282.5 267.25,-282.5 362.75,-282.5 362.75,-282.5 368.75,-282.5 374.75,-288.5 374.75,-294.5 374.75,-294.5 374.75,-306.5 374.75,-306.5 374.75,-312.5 368.75,-318.5 362.75,-318.5"/>
<text xml:space="preserve" text-anchor="middle" x="315" y="-297" font-family="Arial" font-size="10.00">GlobalContextSnapshot</text>
</a>
</g>
</g>
<!-- Reducer&#45;&gt;Snapshot -->
<g id="edge13" class="edge">
<title>Reducer&#45;&gt;Snapshot</title>
<path fill="none" stroke="black" d="M315,-355.31C315,-347.73 315,-338.6 315,-330.04"/>
<polygon fill="black" stroke="black" points="318.5,-330.04 315,-320.04 311.5,-330.04 318.5,-330.04"/>
</g>
<!-- Inference -->
<g id="node8" class="node">
<title>Inference</title>
<g id="a_node8"><a xlink:href="23_snapshot.svg" xlink:title="InferenceContext">
<path fill="#fff3e0" stroke="#ef6c00" d="M337.5,-245.5C337.5,-245.5 270.5,-245.5 270.5,-245.5 264.5,-245.5 258.5,-239.5 258.5,-233.5 258.5,-233.5 258.5,-221.5 258.5,-221.5 258.5,-215.5 264.5,-209.5 270.5,-209.5 270.5,-209.5 337.5,-209.5 337.5,-209.5 343.5,-209.5 349.5,-215.5 349.5,-221.5 349.5,-221.5 349.5,-233.5 349.5,-233.5 349.5,-239.5 343.5,-245.5 337.5,-245.5"/>
<text xml:space="preserve" text-anchor="middle" x="304" y="-224" font-family="Arial" font-size="10.00">InferenceContext</text>
</a>
</g>
</g>
<!-- Snapshot&#45;&gt;Inference -->
<g id="edge14" class="edge">
<title>Snapshot&#45;&gt;Inference</title>
<path fill="none" stroke="black" d="M312.34,-282.31C311.15,-274.64 309.72,-265.39 308.38,-256.74"/>
<polygon fill="black" stroke="black" points="311.86,-256.37 306.87,-247.02 304.94,-257.44 311.86,-256.37"/>
</g>
<!-- Decision -->
<g id="node9" class="node">
<title>Decision</title>
<g id="a_node9"><a xlink:href="24_decision_engine.svg" xlink:title="DecisionEngine\nfuture">
<path fill="#fff3e0" stroke="#ef6c00" d="M329.12,-163C329.12,-163 268.88,-163 268.88,-163 262.88,-163 256.88,-157 256.88,-151 256.88,-151 256.88,-139 256.88,-139 256.88,-133 262.88,-127 268.88,-127 268.88,-127 329.12,-127 329.12,-127 335.12,-127 341.12,-133 341.12,-139 341.12,-139 341.12,-151 341.12,-151 341.12,-157 335.12,-163 329.12,-163"/>
<text xml:space="preserve" text-anchor="middle" x="299" y="-147.5" font-family="Arial" font-size="10.00">DecisionEngine</text>
<text xml:space="preserve" text-anchor="middle" x="299" y="-135.5" font-family="Arial" font-size="10.00">future</text>
</a>
</g>
</g>
<!-- Inference&#45;&gt;Decision -->
<g id="edge15" class="edge">
<title>Inference&#45;&gt;Decision</title>
<path fill="none" stroke="black" stroke-dasharray="5,2" d="M302.92,-209.03C302.29,-199.01 301.5,-186.18 300.78,-174.71"/>
<polygon fill="black" stroke="black" points="304.29,-174.71 300.18,-164.94 297.3,-175.14 304.29,-174.71"/>
<text xml:space="preserve" text-anchor="middle" x="313.42" y="-182.95" font-family="Arial" font-size="9.00">future</text>
</g>
<!-- Policy -->
<g id="node15" class="node">
<title>Policy</title>
<g id="a_node15"><a xlink:href="../scheduler/10_scheduler.svg" xlink:title="Policy">
<path fill="#ede7f6" stroke="#512da8" d="M42,-556.5C42,-556.5 12,-556.5 12,-556.5 6,-556.5 0,-550.5 0,-544.5 0,-544.5 0,-532.5 0,-532.5 0,-526.5 6,-520.5 12,-520.5 12,-520.5 42,-520.5 42,-520.5 48,-520.5 54,-526.5 54,-532.5 54,-532.5 54,-544.5 54,-544.5 54,-550.5 48,-556.5 42,-556.5"/>
<text xml:space="preserve" text-anchor="middle" x="27" y="-535" font-family="Arial" font-size="10.00">Policy</text>
</a>
</g>
</g>
<!-- Decision&#45;&gt;Policy -->
<g id="edge16" class="edge">
<title>Decision&#45;&gt;Policy</title>
<path fill="none" stroke="black" stroke-dasharray="5,2" d="M256.52,-149.8C180.48,-157.8 29,-179.6 29,-226.5 29,-457 29,-457 29,-457 29,-474.21 28.54,-493.48 28.06,-508.85"/>
<polygon fill="black" stroke="black" points="24.56,-508.61 27.73,-518.72 31.56,-508.84 24.56,-508.61"/>
</g>
<!-- MCTS -->
<g id="node16" class="node">
<title>MCTS</title>
<g id="a_node16"><a xlink:href="../learning/60_learning.svg" xlink:title="MCTS">
<path fill="#fffde7" stroke="#fbc02d" d="M266,-90C266,-90 236,-90 236,-90 230,-90 224,-84 224,-78 224,-78 224,-66 224,-66 224,-60 230,-54 236,-54 236,-54 266,-54 266,-54 272,-54 278,-60 278,-66 278,-66 278,-78 278,-78 278,-84 272,-90 266,-90"/>
<text xml:space="preserve" text-anchor="middle" x="251" y="-68.5" font-family="Arial" font-size="10.00">MCTS</text>
</a>
</g>
</g>
<!-- Decision&#45;&gt;MCTS -->
<g id="edge18" class="edge">
<title>Decision&#45;&gt;MCTS</title>
<path fill="none" stroke="black" stroke-dasharray="5,2" d="M287.38,-126.81C281.84,-118.62 275.08,-108.62 268.91,-99.48"/>
<polygon fill="black" stroke="black" points="271.86,-97.61 263.36,-91.28 266.06,-101.53 271.86,-97.61"/>
</g>
<!-- OpenVINO -->
<g id="node17" class="node">
<title>OpenVINO</title>
<g id="a_node17"><a xlink:href="../inference/40_inference.svg" xlink:title="OpenVINOBackend\nfuture">
<path fill="#fffde7" stroke="#fbc02d" d="M386.12,-90C386.12,-90 307.88,-90 307.88,-90 301.88,-90 295.88,-84 295.88,-78 295.88,-78 295.88,-66 295.88,-66 295.88,-60 301.88,-54 307.88,-54 307.88,-54 386.12,-54 386.12,-54 392.12,-54 398.12,-60 398.12,-66 398.12,-66 398.12,-78 398.12,-78 398.12,-84 392.12,-90 386.12,-90"/>
<text xml:space="preserve" text-anchor="middle" x="347" y="-74.5" font-family="Arial" font-size="10.00">OpenVINOBackend</text>
<text xml:space="preserve" text-anchor="middle" x="347" y="-62.5" font-family="Arial" font-size="10.00">future</text>
</a>
</g>
</g>
<!-- Decision&#45;&gt;OpenVINO -->
<g id="edge19" class="edge">
<title>Decision&#45;&gt;OpenVINO</title>
<path fill="none" stroke="black" stroke-dasharray="5,2" d="M310.62,-126.81C316.16,-118.62 322.92,-108.62 329.09,-99.48"/>
<polygon fill="black" stroke="black" points="331.94,-101.53 334.64,-91.28 326.14,-97.61 331.94,-101.53"/>
</g>
<!-- Scheduler&#45;&gt;Engine -->
<g id="edge1" class="edge">
<title>Scheduler&#45;&gt;Engine</title>
<path fill="none" stroke="black" d="M86.56,-474.08C83.71,-501.35 82.56,-554.7 111.25,-585 166.56,-643.4 258.43,-671.55 315.7,-684.08"/>
<polygon fill="black" stroke="black" points="314.68,-687.44 325.19,-686.07 316.12,-680.59 314.68,-687.44"/>
<text xml:space="preserve" text-anchor="middle" x="129.62" y="-576.45" font-family="Arial" font-size="9.00">clock tick</text>
</g>
<!-- Queue -->
<g id="node11" class="node">
<title>Queue</title>
<g id="a_node11"><a xlink:href="../scheduler/priority_queue/13_priority_queue.svg" xlink:title="Queue">
<path fill="#ede7f6" stroke="#512da8" d="M106,-391.5C106,-391.5 76,-391.5 76,-391.5 70,-391.5 64,-385.5 64,-379.5 64,-379.5 64,-367.5 64,-367.5 64,-361.5 70,-355.5 76,-355.5 76,-355.5 106,-355.5 106,-355.5 112,-355.5 118,-361.5 118,-367.5 118,-367.5 118,-379.5 118,-379.5 118,-385.5 112,-391.5 106,-391.5"/>
<text xml:space="preserve" text-anchor="middle" x="91" y="-370" font-family="Arial" font-size="10.00">Queue</text>
</a>
</g>
</g>
<!-- Scheduler&#45;&gt;Queue -->
<g id="edge5" class="edge">
<title>Scheduler&#45;&gt;Queue</title>
<path fill="none" stroke="black" d="M89.43,-437.53C89.68,-427.51 90,-414.68 90.29,-403.21"/>
<polygon fill="black" stroke="black" points="93.78,-403.53 90.53,-393.45 86.78,-403.36 93.78,-403.53"/>
</g>
<!-- Dispatcher -->
<g id="node12" class="node">
<title>Dispatcher</title>
<g id="a_node12"><a xlink:href="../scheduler/dispatcher/11_dispatcher.svg" xlink:title="Dispatcher">
<path fill="#ede7f6" stroke="#512da8" d="M151.62,-318.5C151.62,-318.5 112.38,-318.5 112.38,-318.5 106.38,-318.5 100.38,-312.5 100.38,-306.5 100.38,-306.5 100.38,-294.5 100.38,-294.5 100.38,-288.5 106.38,-282.5 112.38,-282.5 112.38,-282.5 151.62,-282.5 151.62,-282.5 157.62,-282.5 163.62,-288.5 163.62,-294.5 163.62,-294.5 163.62,-306.5 163.62,-306.5 163.62,-312.5 157.62,-318.5 151.62,-318.5"/>
<text xml:space="preserve" text-anchor="middle" x="132" y="-297" font-family="Arial" font-size="10.00">Dispatcher</text>
</a>
</g>
</g>
<!-- Queue&#45;&gt;Dispatcher -->
<g id="edge6" class="edge">
<title>Queue&#45;&gt;Dispatcher</title>
<path fill="none" stroke="black" d="M100.92,-355.31C105.61,-347.2 111.31,-337.34 116.54,-328.28"/>
<polygon fill="black" stroke="black" points="119.44,-330.25 121.41,-319.84 113.38,-326.75 119.44,-330.25"/>
</g>
<!-- Dispatcher&#45;&gt;Handler -->
<g id="edge7" class="edge">
<title>Dispatcher&#45;&gt;Handler</title>
<path fill="none" stroke="black" d="M136.89,-318.75C149.78,-362.11 187.96,-477.79 249,-556.5 259.75,-570.36 273.55,-583.97 285.83,-595.02"/>
<polygon fill="black" stroke="black" points="283.48,-597.61 293.3,-601.58 288.1,-592.35 283.48,-597.61"/>
</g>
<!-- Policy&#45;&gt;Scheduler -->
<g id="edge17" class="edge">
<title>Policy&#45;&gt;Scheduler</title>
<path fill="none" stroke="black" stroke-dasharray="5,2" d="M40.45,-520.03C48.74,-509.27 59.52,-495.27 68.82,-483.2"/>
<polygon fill="black" stroke="black" points="71.32,-485.69 74.65,-475.63 65.77,-481.42 71.32,-485.69"/>
</g>
<!-- Nav_Global -->
<g id="node18" class="node">
<title>Nav_Global</title>
<g id="a_node18"><a xlink:href="../00_global.svg" xlink:title="Global">
<path fill="lightgrey" stroke="none" d="M266,-36C266,-36 236,-36 236,-36 230,-36 224,-30 224,-24 224,-24 224,-12 224,-12 224,-6 230,0 236,0 236,0 266,0 266,0 272,0 278,-6 278,-12 278,-12 278,-24 278,-24 278,-30 272,-36 266,-36"/>
<text xml:space="preserve" text-anchor="middle" x="251" y="-14.5" font-family="Arial" font-size="10.00">Global</text>
</a>
</g>
</g>
<!-- Nav_Scheduler -->
<g id="node19" class="node">
<title>Nav_Scheduler</title>
<g id="a_node19"><a xlink:href="../scheduler/10_scheduler.svg" xlink:title="Scheduler">
<path fill="lightgrey" stroke="none" d="M330.75,-36C330.75,-36 295.25,-36 295.25,-36 289.25,-36 283.25,-30 283.25,-24 283.25,-24 283.25,-12 283.25,-12 283.25,-6 289.25,0 295.25,0 295.25,0 330.75,0 330.75,0 336.75,0 342.75,-6 342.75,-12 342.75,-12 342.75,-24 342.75,-24 342.75,-30 336.75,-36 330.75,-36"/>
<text xml:space="preserve" text-anchor="middle" x="313" y="-14.5" font-family="Arial" font-size="10.00">Scheduler</text>
</a>
</g>
</g>
<!-- Nav_Collector -->
<g id="node20" class="node">
<title>Nav_Collector</title>
<g id="a_node20"><a xlink:href="21_collector.svg" xlink:title="Collector">
<path fill="lightgrey" stroke="none" d="M390.5,-36C390.5,-36 359.5,-36 359.5,-36 353.5,-36 347.5,-30 347.5,-24 347.5,-24 347.5,-12 347.5,-12 347.5,-6 353.5,0 359.5,0 359.5,0 390.5,0 390.5,0 396.5,0 402.5,-6 402.5,-12 402.5,-12 402.5,-24 402.5,-24 402.5,-30 396.5,-36 390.5,-36"/>
<text xml:space="preserve" text-anchor="middle" x="375" y="-14.5" font-family="Arial" font-size="10.00">Collector</text>
</a>
</g>
</g>
<!-- Nav_Reducer -->
<g id="node21" class="node">
<title>Nav_Reducer</title>
<g id="a_node21"><a xlink:href="22_reducer.svg" xlink:title="Reducer">
<path fill="lightgrey" stroke="none" d="M450,-36C450,-36 420,-36 420,-36 414,-36 408,-30 408,-24 408,-24 408,-12 408,-12 408,-6 414,0 420,0 420,0 450,0 450,0 456,0 462,-6 462,-12 462,-12 462,-24 462,-24 462,-30 456,-36 450,-36"/>
<text xml:space="preserve" text-anchor="middle" x="435" y="-14.5" font-family="Arial" font-size="10.00">Reducer</text>
</a>
</g>
</g>
<!-- Nav_Snapshot -->
<g id="node22" class="node">
<title>Nav_Snapshot</title>
<g id="a_node22"><a xlink:href="23_snapshot.svg" xlink:title="Snapshot">
<path fill="lightgrey" stroke="none" d="M512.62,-36C512.62,-36 479.38,-36 479.38,-36 473.38,-36 467.38,-30 467.38,-24 467.38,-24 467.38,-12 467.38,-12 467.38,-6 473.38,0 479.38,0 479.38,0 512.62,0 512.62,0 518.62,0 524.62,-6 524.62,-12 524.62,-12 524.62,-24 524.62,-24 524.62,-30 518.62,-36 512.62,-36"/>
<text xml:space="preserve" text-anchor="middle" x="496" y="-14.5" font-family="Arial" font-size="10.00">Snapshot</text>
</a>
</g>
</g>
<!-- Nav_Decision -->
<g id="node23" class="node">
<title>Nav_Decision</title>
<g id="a_node23"><a xlink:href="24_decision_engine.svg" xlink:title="Decision Engine">
<path fill="lightgrey" stroke="none" d="M604.62,-36C604.62,-36 541.38,-36 541.38,-36 535.38,-36 529.38,-30 529.38,-24 529.38,-24 529.38,-12 529.38,-12 529.38,-6 535.38,0 541.38,0 541.38,0 604.62,0 604.62,0 610.62,0 616.62,-6 616.62,-12 616.62,-12 616.62,-24 616.62,-24 616.62,-30 610.62,-36 604.62,-36"/>
<text xml:space="preserve" text-anchor="middle" x="573" y="-14.5" font-family="Arial" font-size="10.00">Decision Engine</text>
</a>
</g>
</g>
</g>
</svg>
