<?xml version="1.0" encoding="UTF-8" standalone="no"?>
<!DOCTYPE svg PUBLIC "-//W3C//DTD SVG 1.1//EN"
 "http://www.w3.org/Graphics/SVG/1.1/DTD/svg11.dtd">
<!-- Generated by graphviz version 14.1.3 (20260303.0454)
 -->
<!-- Title: Context Pages: 1 -->
<svg width="644pt" height="788pt"
 viewBox="0.00 0.00 644.00 788.00" xmlns="http://www.w3.org/2000/svg" xmlns:xlink="http://www.w3.org/1999/xlink">
<g id="graph0" class="graph" transform="scale(1 1) rotate(0) translate(4 784.25)">
<title>Context</title>
<polygon fill="white" stroke="none" points="-4,4 -4,-784.25 639.62,-784.25 639.62,4 -4,4"/>
<g id="clust1" class="cluster">
<title>cluster_context</title>
<polygon fill="#fff3e0" stroke="#ef6c00" points="257,-119 257,-772.25 502,-772.25 502,-119 257,-119"/>
<text xml:space="preserve" text-anchor="middle" x="379.5" y="-754.95" font-family="Times,serif" font-size="14.00">Context Fabric</text>
</g>
<!-- Engine -->
<g id="node1" class="node">
<title>Engine</title>
<polygon fill="#fff3e0" stroke="#ef6c00" points="417.25,-739 336.75,-739 336.75,-703 417.25,-703 417.25,-739"/>
<text xml:space="preserve" text-anchor="middle" x="377" y="-717.5" font-family="Arial" font-size="10.00">ContextEngine</text>
</g>
<!-- Collector -->
<g id="node2" class="node">
<title>Collector</title>
<g id="a_node2"><a xlink:href="collector/21_collector.svg" xlink:title="ContextCollector">
<polygon fill="#fff3e0" stroke="#ef6c00" points="493.75,-666 404.25,-666 404.25,-630 493.75,-630 493.75,-666"/>
<text xml:space="preserve" text-anchor="middle" x="449" y="-644.5" font-family="Arial" font-size="10.00">ContextCollector</text>
</a>
</g>
</g>
<!-- Engine&#45;&gt;Collector -->
<g id="edge2" class="edge">
<title>Engine&#45;&gt;Collector</title>
<path fill="none" stroke="black" d="M394.43,-702.81C403.12,-694.24 413.8,-683.71 423.4,-674.24"/>
<polygon fill="black" stroke="black" points="425.74,-676.85 430.4,-667.34 420.83,-671.87 425.74,-676.85"/>
</g>
<!-- Request -->
<g id="node3" class="node">
<title>Request</title>
<polygon fill="#fff3e0" stroke="#ef6c00" points="386,-576.75 268,-576.75 268,-540.75 386,-540.75 386,-576.75"/>
<text xml:space="preserve" text-anchor="middle" x="327" y="-561.25" font-family="Arial" font-size="10.00">CONTEXT_REQUEST</text>
<text xml:space="preserve" text-anchor="middle" x="327" y="-549.25" font-family="Arial" font-size="10.00">Request.reply</text>
</g>
<!-- Collector&#45;&gt;Request -->
<g id="edge3" class="edge">
<title>Collector&#45;&gt;Request</title>
<path fill="none" stroke="black" d="M446.68,-629.87C444.3,-618.52 439.52,-604.07 430,-594.75 420.76,-585.71 409.1,-579 396.97,-574.02"/>
<polygon fill="black" stroke="black" points="398.26,-570.76 387.66,-570.6 395.84,-577.33 398.26,-570.76"/>
</g>
<!-- Reply -->
<g id="node5" class="node">
<title>Reply</title>
<polygon fill="#fff3e0" stroke="#ef6c00" points="375.75,-487.5 274.25,-487.5 274.25,-451.5 375.75,-451.5 375.75,-487.5"/>
<text xml:space="preserve" text-anchor="middle" x="325" y="-472" font-family="Arial" font-size="10.00">CONTEXT_REPLY</text>
<text xml:space="preserve" text-anchor="middle" x="325" y="-460" font-family="Arial" font-size="10.00">observable</text>
</g>
<!-- Request&#45;&gt;Reply -->
<g id="edge10" class="edge">
<title>Request&#45;&gt;Reply</title>
<path fill="none" stroke="black" d="M326.6,-540.51C326.33,-528.68 325.97,-512.7 325.65,-499"/>
<polygon fill="black" stroke="black" points="329.16,-499.13 325.43,-489.22 322.16,-499.29 329.16,-499.13"/>
</g>
<!-- Scheduler -->
<g id="node10" class="node">
<title>Scheduler</title>
<g id="a_node10"><a xlink:href="../scheduler/10_scheduler.svg" xlink:title="Scheduler">
<polygon fill="#ede7f6" stroke="#512da8" points="127.75,-487.5 68.25,-487.5 68.25,-451.5 127.75,-451.5 127.75,-487.5"/>
<text xml:space="preserve" text-anchor="middle" x="98" y="-466" font-family="Arial" font-size="10.00">Scheduler</text>
</a>
</g>
</g>
<!-- Request&#45;&gt;Scheduler -->
<g id="edge4" class="edge">
<title>Request&#45;&gt;Scheduler</title>
<path fill="none" stroke="black" d="M281.21,-540.3C239.57,-524.44 178.7,-501.25 138.72,-486.01"/>
<polygon fill="black" stroke="black" points="140.04,-482.77 129.45,-482.48 137.55,-489.31 140.04,-482.77"/>
<text xml:space="preserve" text-anchor="middle" x="249.14" y="-509.45" font-family="Times,serif" font-size="14.00">emit</text>
</g>
<!-- Handler -->
<g id="node4" class="node">
<title>Handler</title>
<polygon fill="#fff3e0" stroke="#ef6c00" points="386.5,-666 265.5,-666 265.5,-630 386.5,-630 386.5,-666"/>
<text xml:space="preserve" text-anchor="middle" x="326" y="-644.5" font-family="Arial" font-size="10.00">ContextRequestHandler</text>
</g>
<!-- Handler&#45;&gt;Request -->
<g id="edge9" class="edge">
<title>Handler&#45;&gt;Request</title>
<path fill="none" stroke="black" stroke-dasharray="5,2" d="M326.2,-629.76C326.33,-617.93 326.52,-601.95 326.67,-588.25"/>
<polygon fill="black" stroke="black" points="330.17,-588.5 326.79,-578.47 323.17,-588.42 330.17,-588.5"/>
<text xml:space="preserve" text-anchor="middle" x="376.46" y="-598.7" font-family="Times,serif" font-size="14.00">Request.reply</text>
</g>
<!-- Proxy -->
<g id="node13" class="node">
<title>Proxy</title>
<g id="a_node13"><a xlink:href="../scheduler/component_proxy/14_component_proxy.svg" xlink:title="Proxy">
<polygon fill="#ede7f6" stroke="#512da8" points="199,-576.75 145,-576.75 145,-540.75 199,-540.75 199,-576.75"/>
<text xml:space="preserve" text-anchor="middle" x="172" y="-555.25" font-family="Arial" font-size="10.00">Proxy</text>
</a>
</g>
</g>
<!-- Handler&#45;&gt;Proxy -->
<g id="edge8" class="edge">
<title>Handler&#45;&gt;Proxy</title>
<path fill="none" stroke="black" d="M265.02,-640.61C227.83,-635.33 185.26,-626.33 173.5,-612 168.18,-605.51 166.51,-596.9 166.54,-588.54"/>
<polygon fill="black" stroke="black" points="170.02,-588.91 167.39,-578.65 163.05,-588.31 170.02,-588.91"/>
<text xml:space="preserve" text-anchor="middle" x="226.75" y="-598.7" font-family="Times,serif" font-size="14.00">proxy.context()</text>
</g>
<!-- Reducer -->
<g id="node6" class="node">
<title>Reducer</title>
<g id="a_node6"><a xlink:href="reducer/22_reducer.svg" xlink:title="ContextReducer">
<polygon fill="#fff3e0" stroke="#ef6c00" points="368.62,-398.25 281.38,-398.25 281.38,-362.25 368.62,-362.25 368.62,-398.25"/>
<text xml:space="preserve" text-anchor="middle" x="325" y="-376.75" font-family="Arial" font-size="10.00">ContextReducer</text>
</a>
</g>
</g>
<!-- Reply&#45;&gt;Reducer -->
<g id="edge12" class="edge">
<title>Reply&#45;&gt;Reducer</title>
<path fill="none" stroke="black" d="M325,-451.26C325,-439.43 325,-423.45 325,-409.75"/>
<polygon fill="black" stroke="black" points="328.5,-409.97 325,-399.97 321.5,-409.97 328.5,-409.97"/>
</g>
<!-- EventBus -->
<g id="node14" class="node">
<title>EventBus</title>
<g id="a_node14"><a xlink:href="../scheduler/event_bus/12_event_bus.svg" xlink:title="EventBus">
<polygon fill="#ede7f6" stroke="#512da8" points="249.38,-398.25 190.62,-398.25 190.62,-362.25 249.38,-362.25 249.38,-398.25"/>
<text xml:space="preserve" text-anchor="middle" x="220" y="-376.75" font-family="Arial" font-size="10.00">EventBus</text>
</a>
</g>
</g>
<!-- Reply&#45;&gt;EventBus -->
<g id="edge11" class="edge">
<title>Reply&#45;&gt;EventBus</title>
<path fill="none" stroke="black" stroke-dasharray="5,2" d="M273.84,-456.7C260.39,-451.49 246.9,-444.05 237,-433.5 230.9,-426.99 226.99,-418.27 224.48,-409.82"/>
<polygon fill="black" stroke="black" points="227.9,-409.09 222.2,-400.16 221.09,-410.7 227.9,-409.09"/>
<text xml:space="preserve" text-anchor="middle" x="279" y="-420.2" font-family="Times,serif" font-size="14.00">observation</text>
</g>
<!-- Snapshot -->
<g id="node7" class="node">
<title>Snapshot</title>
<g id="a_node7"><a xlink:href="snapshot/23_snapshot.svg" xlink:title="GlobalContextSnapshot">
<polygon fill="#fff3e0" stroke="#ef6c00" points="384.75,-325.25 265.25,-325.25 265.25,-289.25 384.75,-289.25 384.75,-325.25"/>
<text xml:space="preserve" text-anchor="middle" x="325" y="-303.75" font-family="Arial" font-size="10.00">GlobalContextSnapshot</text>
</a>
</g>
</g>
<!-- Reducer&#45;&gt;Snapshot -->
<g id="edge13" class="edge">
<title>Reducer&#45;&gt;Snapshot</title>
<path fill="none" stroke="black" d="M325,-362.06C325,-354.48 325,-345.35 325,-336.79"/>
<polygon fill="black" stroke="black" points="328.5,-336.79 325,-326.79 321.5,-336.79 328.5,-336.79"/>
</g>
<!-- Inference -->
<g id="node8" class="node">
<title>Inference</title>
<g id="a_node8"><a xlink:href="snapshot/23_snapshot.svg" xlink:title="InferenceContext">
<polygon fill="#fff3e0" stroke="#ef6c00" points="359.5,-252.25 268.5,-252.25 268.5,-216.25 359.5,-216.25 359.5,-252.25"/>
<text xml:space="preserve" text-anchor="middle" x="314" y="-230.75" font-family="Arial" font-size="10.00">InferenceContext</text>
</a>
</g>
</g>
<!-- Snapshot&#45;&gt;Inference -->
<g id="edge14" class="edge">
<title>Snapshot&#45;&gt;Inference</title>
<path fill="none" stroke="black" d="M322.34,-289.06C321.15,-281.39 319.72,-272.14 318.38,-263.49"/>
<polygon fill="black" stroke="black" points="321.86,-263.12 316.87,-253.77 314.94,-264.19 321.86,-263.12"/>
</g>
<!-- Decision -->
<g id="node9" class="node">
<title>Decision</title>
<g id="a_node9"><a xlink:href="decision_engine/24_decision_engine.svg" xlink:title="DecisionEngine\nfuture">
<polygon fill="#fff3e0" stroke="#ef6c00" points="351.12,-163 266.88,-163 266.88,-127 351.12,-127 351.12,-163"/>
<text xml:space="preserve" text-anchor="middle" x="309" y="-147.5" font-family="Arial" font-size="10.00">DecisionEngine</text>
<text xml:space="preserve" text-anchor="middle" x="309" y="-135.5" font-family="Arial" font-size="10.00">future</text>
</a>
</g>
</g>
<!-- Inference&#45;&gt;Decision -->
<g id="edge15" class="edge">
<title>Inference&#45;&gt;Decision</title>
<path fill="none" stroke="black" stroke-dasharray="5,2" d="M313.01,-216.01C312.33,-204.18 311.42,-188.2 310.63,-174.5"/>
<polygon fill="black" stroke="black" points="314.14,-174.5 310.07,-164.71 307.15,-174.9 314.14,-174.5"/>
<text xml:space="preserve" text-anchor="middle" x="334.07" y="-184.95" font-family="Times,serif" font-size="14.00">future</text>
</g>
<!-- Policy -->
<g id="node15" class="node">
<title>Policy</title>
<g id="a_node15"><a xlink:href="../scheduler/10_scheduler.svg" xlink:title="Policy">
<polygon fill="#ede7f6" stroke="#512da8" points="54,-576.75 0,-576.75 0,-540.75 54,-540.75 54,-576.75"/>
<text xml:space="preserve" text-anchor="middle" x="27" y="-555.25" font-family="Arial" font-size="10.00">Policy</text>
</a>
</g>
</g>
<!-- Decision&#45;&gt;Policy -->
<g id="edge16" class="edge">
<title>Decision&#45;&gt;Policy</title>
<path fill="none" stroke="black" stroke-dasharray="5,2" d="M266.47,-150.32C188.14,-159.48 29,-184.12 29,-233.25 29,-470.5 29,-470.5 29,-470.5 29,-490.01 28.49,-511.96 27.99,-528.97"/>
<polygon fill="black" stroke="black" points="24.5,-528.75 27.68,-538.86 31.49,-528.97 24.5,-528.75"/>
</g>
<!-- MCTS -->
<g id="node16" class="node">
<title>MCTS</title>
<g id="a_node16"><a xlink:href="../learning/60_learning.svg" xlink:title="MCTS">
<polygon fill="#fffde7" stroke="#fbc02d" points="297,-90 243,-90 243,-54 297,-54 297,-90"/>
<text xml:space="preserve" text-anchor="middle" x="270" y="-68.5" font-family="Arial" font-size="10.00">MCTS</text>
</a>
</g>
</g>
<!-- Decision&#45;&gt;MCTS -->
<g id="edge18" class="edge">
<title>Decision&#45;&gt;MCTS</title>
<path fill="none" stroke="black" stroke-dasharray="5,2" d="M299.56,-126.81C295.15,-118.79 289.8,-109.05 284.87,-100.07"/>
<polygon fill="black" stroke="black" points="287.96,-98.44 280.08,-91.36 281.83,-101.81 287.96,-98.44"/>
</g>
<!-- OpenVINO -->
<g id="node17" class="node">
<title>OpenVINO</title>
<g id="a_node17"><a xlink:href="../services/30_services.svg" xlink:title="OpenVINO">
<polygon fill="#fffde7" stroke="#fbc02d" points="379,-90 315,-90 315,-54 379,-54 379,-90"/>
<text xml:space="preserve" text-anchor="middle" x="347" y="-68.5" font-family="Arial" font-size="10.00">OpenVINO</text>
</a>
</g>
</g>
<!-- Decision&#45;&gt;OpenVINO -->
<g id="edge19" class="edge">
<title>Decision&#45;&gt;OpenVINO</title>
<path fill="none" stroke="black" stroke-dasharray="5,2" d="M318.2,-126.81C322.49,-118.79 327.71,-109.05 332.51,-100.07"/>
<polygon fill="black" stroke="black" points="335.54,-101.83 337.17,-91.36 329.37,-98.53 335.54,-101.83"/>
</g>
<!-- Scheduler&#45;&gt;Engine -->
<g id="edge1" class="edge">
<title>Scheduler&#45;&gt;Engine</title>
<path fill="none" stroke="black" d="M92.02,-487.54C83.16,-516.08 70.24,-574.13 96.25,-612 147.71,-686.93 258.97,-709.89 324.93,-716.92"/>
<polygon fill="black" stroke="black" points="324.5,-720.39 334.79,-717.87 325.17,-713.43 324.5,-720.39"/>
<text xml:space="preserve" text-anchor="middle" x="129.62" y="-598.7" font-family="Times,serif" font-size="14.00">clock tick</text>
</g>
<!-- Queue -->
<g id="node11" class="node">
<title>Queue</title>
<g id="a_node11"><a xlink:href="../scheduler/10_scheduler.svg" xlink:title="Queue">
<polygon fill="#ede7f6" stroke="#512da8" points="133,-398.25 79,-398.25 79,-362.25 133,-362.25 133,-398.25"/>
<text xml:space="preserve" text-anchor="middle" x="106" y="-376.75" font-family="Arial" font-size="10.00">Queue</text>
</a>
</g>
</g>
<!-- Scheduler&#45;&gt;Queue -->
<g id="edge5" class="edge">
<title>Scheduler&#45;&gt;Queue</title>
<path fill="none" stroke="black" d="M99.58,-451.26C100.67,-439.43 102.13,-423.45 103.39,-409.75"/>
<polygon fill="black" stroke="black" points="106.86,-410.24 104.28,-399.96 99.89,-409.6 106.86,-410.24"/>
</g>
<!-- Dispatcher -->
<g id="node12" class="node">
<title>Dispatcher</title>
<g id="a_node12"><a xlink:href="../scheduler/10_scheduler.svg" xlink:title="Dispatcher">
<polygon fill="#ede7f6" stroke="#512da8" points="168.62,-325.25 105.38,-325.25 105.38,-289.25 168.62,-289.25 168.62,-325.25"/>
<text xml:space="preserve" text-anchor="middle" x="137" y="-303.75" font-family="Arial" font-size="10.00">Dispatcher</text>
</a>
</g>
</g>
<!-- Queue&#45;&gt;Dispatcher -->
<g id="edge6" class="edge">
<title>Queue&#45;&gt;Dispatcher</title>
<path fill="none" stroke="black" d="M113.5,-362.06C116.97,-354.13 121.17,-344.51 125.05,-335.61"/>
<polygon fill="black" stroke="black" points="128.17,-337.23 128.96,-326.67 121.75,-334.43 128.17,-337.23"/>
</g>
<!-- Dispatcher&#45;&gt;Handler -->
<g id="edge7" class="edge">
<title>Dispatcher&#45;&gt;Handler</title>
<path fill="none" stroke="black" d="M141,-325.66C152.31,-371.62 188.38,-498.06 259,-576.75 267.21,-585.9 271.25,-586.12 280,-594.75 288.3,-602.94 296.88,-612.38 304.34,-620.96"/>
<polygon fill="black" stroke="black" points="301.52,-623.04 310.68,-628.36 306.83,-618.49 301.52,-623.04"/>
</g>
<!-- Policy&#45;&gt;Scheduler -->
<g id="edge17" class="edge">
<title>Policy&#45;&gt;Scheduler</title>
<path fill="none" stroke="black" stroke-dasharray="5,2" d="M41.03,-540.51C51.24,-527.96 65.24,-510.75 76.81,-496.53"/>
<polygon fill="black" stroke="black" points="79.45,-498.84 83.05,-488.88 74.02,-494.42 79.45,-498.84"/>
</g>
<!-- Nav_Global -->
<g id="node18" class="node">
<title>Nav_Global</title>
<g id="a_node18"><a xlink:href="../00_global.svg" xlink:title="Global">
<polygon fill="lightgrey" stroke="none" points="297,-36 243,-36 243,0 297,0 297,-36"/>
<text xml:space="preserve" text-anchor="middle" x="270" y="-14.5" font-family="Arial" font-size="10.00">Global</text>
</a>
</g>
</g>
<!-- Nav_Scheduler -->
<g id="node19" class="node">
<title>Nav_Scheduler</title>
<g id="a_node19"><a xlink:href="../scheduler/10_scheduler.svg" xlink:title="Scheduler">
<polygon fill="lightgrey" stroke="none" points="361.75,-36 302.25,-36 302.25,0 361.75,0 361.75,-36"/>
<text xml:space="preserve" text-anchor="middle" x="332" y="-14.5" font-family="Arial" font-size="10.00">Scheduler</text>
</a>
</g>
</g>
<!-- Nav_Collector -->
<g id="node20" class="node">
<title>Nav_Collector</title>
<g id="a_node20"><a xlink:href="collector/21_collector.svg" xlink:title="Collector">
<polygon fill="lightgrey" stroke="none" points="421.5,-36 366.5,-36 366.5,0 421.5,0 421.5,-36"/>
<text xml:space="preserve" text-anchor="middle" x="394" y="-14.5" font-family="Arial" font-size="10.00">Collector</text>
</a>
</g>
</g>
<!-- Nav_Reducer -->
<g id="node21" class="node">
<title>Nav_Reducer</title>
<g id="a_node21"><a xlink:href="reducer/22_reducer.svg" xlink:title="Reducer">
<polygon fill="lightgrey" stroke="none" points="481,-36 427,-36 427,0 481,0 481,-36"/>
<text xml:space="preserve" text-anchor="middle" x="454" y="-14.5" font-family="Arial" font-size="10.00">Reducer</text>
</a>
</g>
</g>
<!-- Nav_Snapshot -->
<g id="node22" class="node">
<title>Nav_Snapshot</title>
<g id="a_node22"><a xlink:href="snapshot/23_snapshot.svg" xlink:title="Snapshot">
<polygon fill="lightgrey" stroke="none" points="543.62,-36 486.38,-36 486.38,0 543.62,0 543.62,-36"/>
<text xml:space="preserve" text-anchor="middle" x="515" y="-14.5" font-family="Arial" font-size="10.00">Snapshot</text>
</a>
</g>
</g>
<!-- Nav_Decision -->
<g id="node23" class="node">
<title>Nav_Decision</title>
<g id="a_node23"><a xlink:href="decision_engine/24_decision_engine.svg" xlink:title="Decision Engine">
<polygon fill="lightgrey" stroke="none" points="635.62,-36 548.38,-36 548.38,0 635.62,0 635.62,-36"/>
<text xml:space="preserve" text-anchor="middle" x="592" y="-14.5" font-family="Arial" font-size="10.00">Decision Engine</text>
</a>
</g>
</g>
</g>
</svg>
