<?xml version="1.0" encoding="UTF-8" standalone="no"?>
<!DOCTYPE svg PUBLIC "-//W3C//DTD SVG 1.1//EN"
 "http://www.w3.org/Graphics/SVG/1.1/DTD/svg11.dtd">
<!-- Generated by graphviz version 14.1.3 (20260303.0454)
 -->
<!-- Title: Context Pages: 1 -->
<svg width="813pt" height="744pt"
 viewBox="0.00 0.00 813.00 744.00" xmlns="http://www.w3.org/2000/svg" xmlns:xlink="http://www.w3.org/1999/xlink">
<g id="graph0" class="graph" transform="scale(1 1) rotate(0) translate(4 739.5)">
<title>Context</title>
<polygon fill="white" stroke="none" points="-4,4 -4,-739.5 809,-739.5 809,4 -4,4"/>
<g id="clust1" class="cluster">
<title>cluster_engine</title>
<polygon fill="#fff3e0" stroke="#ef6c00" points="156,-138.5 156,-727.5 298,-727.5 298,-138.5 156,-138.5"/>
<text xml:space="preserve" text-anchor="middle" x="227" y="-713.05" font-family="Arial" font-size="11.00">Context Engine Phase 1.3</text>
</g>
<g id="clust2" class="cluster">
<title>cluster_event_path</title>
<polygon fill="#ede7f6" stroke="#512da8" points="306,-46 306,-460 570,-460 570,-46 306,-46"/>
<text xml:space="preserve" text-anchor="middle" x="438" y="-445.55" font-family="Arial" font-size="11.00">Event path</text>
</g>
<g id="clust3" class="cluster">
<title>cluster_component</title>
<polygon fill="#e8f5e9" stroke="#388e3c" points="649,-138.5 649,-367.5 797,-367.5 797,-138.5 649,-138.5"/>
<text xml:space="preserve" text-anchor="middle" x="723" y="-353.05" font-family="Arial" font-size="11.00">Component boundary</text>
</g>
<g id="clust4" class="cluster">
<title>cluster_future</title>
<polygon fill="#eceff1" stroke="#455a64" points="8,-46 8,-119.5 298,-119.5 298,-46 8,-46"/>
<text xml:space="preserve" text-anchor="middle" x="153" y="-105.05" font-family="Arial" font-size="11.00">Future consumers</text>
</g>
<g id="clust5" class="cluster">
<title>cluster_tests</title>
<polygon fill="#e3f2fd" stroke="#1565c0" points="430,-561.5 430,-635 550,-635 550,-561.5 430,-561.5"/>
<text xml:space="preserve" text-anchor="middle" x="490" y="-620.55" font-family="Arial" font-size="11.00">Tests</text>
</g>
<!-- Clock -->
<g id="node1" class="node">
<title>Clock</title>
<path fill="#fff3e0" stroke="#ef6c00" d="M277.5,-698C277.5,-698 180.5,-698 180.5,-698 174.5,-698 168.5,-692 168.5,-686 168.5,-686 168.5,-674 168.5,-674 168.5,-668 174.5,-662 180.5,-662 180.5,-662 277.5,-662 277.5,-662 283.5,-662 289.5,-668 289.5,-674 289.5,-674 289.5,-686 289.5,-686 289.5,-692 283.5,-698 277.5,-698"/>
<text xml:space="preserve" text-anchor="middle" x="229" y="-676.5" font-family="Arial" font-size="10.00">Scheduler context clock</text>
</g>
<!-- Engine -->
<g id="node2" class="node">
<title>Engine</title>
<path fill="#fff3e0" stroke="#ef6c00" d="M265.25,-605.5C265.25,-605.5 208.75,-605.5 208.75,-605.5 202.75,-605.5 196.75,-599.5 196.75,-593.5 196.75,-593.5 196.75,-581.5 196.75,-581.5 196.75,-575.5 202.75,-569.5 208.75,-569.5 208.75,-569.5 265.25,-569.5 265.25,-569.5 271.25,-569.5 277.25,-575.5 277.25,-581.5 277.25,-581.5 277.25,-593.5 277.25,-593.5 277.25,-599.5 271.25,-605.5 265.25,-605.5"/>
<text xml:space="preserve" text-anchor="middle" x="237" y="-590" font-family="Arial" font-size="10.00">ContextEngine</text>
<text xml:space="preserve" text-anchor="middle" x="237" y="-578" font-family="Arial" font-size="10.00">engine.py</text>
</g>
<!-- Clock&#45;&gt;Engine -->
<g id="edge1" class="edge">
<title>Clock&#45;&gt;Engine</title>
<path fill="none" stroke="black" d="M237,-661.72C237,-661.72 237,-614.25 237,-614.25"/>
<polygon fill="black" stroke="black" points="239.45,-614.25 237,-607.25 234.55,-614.25 239.45,-614.25"/>
</g>
<!-- Collector -->
<g id="node3" class="node">
<title>Collector</title>
<path fill="#fff3e0" stroke="#ef6c00" d="M277.75,-532.5C277.75,-532.5 212.25,-532.5 212.25,-532.5 206.25,-532.5 200.25,-526.5 200.25,-520.5 200.25,-520.5 200.25,-508.5 200.25,-508.5 200.25,-502.5 206.25,-496.5 212.25,-496.5 212.25,-496.5 277.75,-496.5 277.75,-496.5 283.75,-496.5 289.75,-502.5 289.75,-508.5 289.75,-508.5 289.75,-520.5 289.75,-520.5 289.75,-526.5 283.75,-532.5 277.75,-532.5"/>
<text xml:space="preserve" text-anchor="middle" x="245" y="-517" font-family="Arial" font-size="10.00">ContextCollector</text>
<text xml:space="preserve" text-anchor="middle" x="245" y="-505" font-family="Arial" font-size="10.00">collector.py</text>
</g>
<!-- Engine&#45;&gt;Collector -->
<g id="edge2" class="edge">
<title>Engine&#45;&gt;Collector</title>
<path fill="none" stroke="black" d="M238.75,-569.08C238.75,-569.08 238.75,-541.43 238.75,-541.43"/>
<polygon fill="black" stroke="black" points="241.2,-541.43 238.75,-534.43 236.3,-541.43 241.2,-541.43"/>
</g>
<!-- Reducer -->
<g id="node4" class="node">
<title>Reducer</title>
<path fill="#fff3e0" stroke="#ef6c00" d="M265.62,-430.5C265.62,-430.5 202.38,-430.5 202.38,-430.5 196.38,-430.5 190.38,-424.5 190.38,-418.5 190.38,-418.5 190.38,-406.5 190.38,-406.5 190.38,-400.5 196.38,-394.5 202.38,-394.5 202.38,-394.5 265.62,-394.5 265.62,-394.5 271.62,-394.5 277.62,-400.5 277.62,-406.5 277.62,-406.5 277.62,-418.5 277.62,-418.5 277.62,-424.5 271.62,-430.5 265.62,-430.5"/>
<text xml:space="preserve" text-anchor="middle" x="234" y="-415" font-family="Arial" font-size="10.00">ContextReducer</text>
<text xml:space="preserve" text-anchor="middle" x="234" y="-403" font-family="Arial" font-size="10.00">reducer.py</text>
</g>
<!-- Collector&#45;&gt;Reducer -->
<g id="edge14" class="edge">
<title>Collector&#45;&gt;Reducer</title>
<path fill="none" stroke="black" d="M238.94,-496.26C238.94,-496.26 238.94,-439.44 238.94,-439.44"/>
<polygon fill="black" stroke="black" points="241.39,-439.44 238.94,-432.44 236.49,-439.44 241.39,-439.44"/>
</g>
<!-- Request -->
<g id="node12" class="node">
<title>Request</title>
<path fill="#ede7f6" stroke="#512da8" d="M420,-430.5C420,-430.5 326,-430.5 326,-430.5 320,-430.5 314,-424.5 314,-418.5 314,-418.5 314,-406.5 314,-406.5 314,-400.5 320,-394.5 326,-394.5 326,-394.5 420,-394.5 420,-394.5 426,-394.5 432,-400.5 432,-406.5 432,-406.5 432,-418.5 432,-418.5 432,-424.5 426,-430.5 420,-430.5"/>
<text xml:space="preserve" text-anchor="middle" x="373" y="-415" font-family="Arial" font-size="10.00">CONTEXT_REQUEST</text>
<text xml:space="preserve" text-anchor="middle" x="373" y="-403" font-family="Arial" font-size="10.00">Request.reply=Future</text>
</g>
<!-- Collector&#45;&gt;Request -->
<g id="edge3" class="edge">
<title>Collector&#45;&gt;Request</title>
<path fill="none" stroke="black" d="M282.19,-496.35C282.19,-467.16 282.19,-413 282.19,-413 282.19,-413 305.18,-413 305.18,-413"/>
<polygon fill="black" stroke="black" points="305.18,-415.45 312.18,-413 305.18,-410.55 305.18,-415.45"/>
</g>
<!-- Reply -->
<g id="node13" class="node">
<title>Reply</title>
<path fill="#ede7f6" stroke="#512da8" d="M550,-430.5C550,-430.5 462,-430.5 462,-430.5 456,-430.5 450,-424.5 450,-418.5 450,-418.5 450,-406.5 450,-406.5 450,-400.5 456,-394.5 462,-394.5 462,-394.5 550,-394.5 550,-394.5 556,-394.5 562,-400.5 562,-406.5 562,-406.5 562,-418.5 562,-418.5 562,-424.5 556,-430.5 550,-430.5"/>
<text xml:space="preserve" text-anchor="middle" x="506" y="-415" font-family="Arial" font-size="10.00">CONTEXT_REPLY</text>
<text xml:space="preserve" text-anchor="middle" x="506" y="-403" font-family="Arial" font-size="10.00">EventBus observation</text>
</g>
<!-- Collector&#45;&gt;Reply -->
<g id="edge13" class="edge">
<title>Collector&#45;&gt;Reply</title>
<path fill="none" stroke="black" d="M290.15,-515C358.57,-515 480.62,-515 480.62,-515 480.62,-515 480.62,-439.34 480.62,-439.34"/>
<polygon fill="black" stroke="black" points="483.08,-439.34 480.63,-432.34 478.18,-439.34 483.08,-439.34"/>
<text xml:space="preserve" text-anchor="middle" x="491.12" y="-469.95" font-family="Arial" font-size="9.00">publish observation</text>
</g>
<!-- Snapshot -->
<g id="node6" class="node">
<title>Snapshot</title>
<path fill="#fff3e0" stroke="#ef6c00" d="M274.75,-338C274.75,-338 179.25,-338 179.25,-338 173.25,-338 167.25,-332 167.25,-326 167.25,-326 167.25,-314 167.25,-314 167.25,-308 173.25,-302 179.25,-302 179.25,-302 274.75,-302 274.75,-302 280.75,-302 286.75,-308 286.75,-314 286.75,-314 286.75,-326 286.75,-326 286.75,-332 280.75,-338 274.75,-338"/>
<text xml:space="preserve" text-anchor="middle" x="227" y="-316.5" font-family="Arial" font-size="10.00">GlobalContextSnapshot</text>
</g>
<!-- Reducer&#45;&gt;Snapshot -->
<g id="edge15" class="edge">
<title>Reducer&#45;&gt;Snapshot</title>
<path fill="none" stroke="black" d="M234,-394.22C234,-394.22 234,-346.75 234,-346.75"/>
<polygon fill="black" stroke="black" points="236.45,-346.75 234,-339.75 231.55,-346.75 236.45,-346.75"/>
</g>
<!-- Builder -->
<g id="node5" class="node">
<title>Builder</title>
<path fill="#fff3e0" stroke="#ef6c00" d="M273.5,-255.5C273.5,-255.5 176.5,-255.5 176.5,-255.5 170.5,-255.5 164.5,-249.5 164.5,-243.5 164.5,-243.5 164.5,-231.5 164.5,-231.5 164.5,-225.5 170.5,-219.5 176.5,-219.5 176.5,-219.5 273.5,-219.5 273.5,-219.5 279.5,-219.5 285.5,-225.5 285.5,-231.5 285.5,-231.5 285.5,-243.5 285.5,-243.5 285.5,-249.5 279.5,-255.5 273.5,-255.5"/>
<text xml:space="preserve" text-anchor="middle" x="225" y="-240" font-family="Arial" font-size="10.00">InferenceContextBuilder</text>
<text xml:space="preserve" text-anchor="middle" x="225" y="-228" font-family="Arial" font-size="10.00">builder.py</text>
</g>
<!-- Inference -->
<g id="node7" class="node">
<title>Inference</title>
<path fill="#fff3e0" stroke="#ef6c00" d="M247.5,-182.5C247.5,-182.5 180.5,-182.5 180.5,-182.5 174.5,-182.5 168.5,-176.5 168.5,-170.5 168.5,-170.5 168.5,-158.5 168.5,-158.5 168.5,-152.5 174.5,-146.5 180.5,-146.5 180.5,-146.5 247.5,-146.5 247.5,-146.5 253.5,-146.5 259.5,-152.5 259.5,-158.5 259.5,-158.5 259.5,-170.5 259.5,-170.5 259.5,-176.5 253.5,-182.5 247.5,-182.5"/>
<text xml:space="preserve" text-anchor="middle" x="214" y="-161" font-family="Arial" font-size="10.00">InferenceContext</text>
</g>
<!-- Builder&#45;&gt;Inference -->
<g id="edge17" class="edge">
<title>Builder&#45;&gt;Inference</title>
<path fill="none" stroke="black" d="M214,-219.08C214,-219.08 214,-191.43 214,-191.43"/>
<polygon fill="black" stroke="black" points="216.45,-191.43 214,-184.43 211.55,-191.43 216.45,-191.43"/>
</g>
<!-- Snapshot&#45;&gt;Builder -->
<g id="edge16" class="edge">
<title>Snapshot&#45;&gt;Builder</title>
<path fill="none" stroke="black" d="M226.38,-301.69C226.38,-301.69 226.38,-264.27 226.38,-264.27"/>
<polygon fill="black" stroke="black" points="228.83,-264.27 226.38,-257.27 223.93,-264.27 228.83,-264.27"/>
</g>
<!-- Decision -->
<g id="node17" class="node">
<title>Decision</title>
<path fill="#eceff1" stroke="#455a64" d="M160.12,-90C160.12,-90 99.88,-90 99.88,-90 93.88,-90 87.88,-84 87.88,-78 87.88,-78 87.88,-66 87.88,-66 87.88,-60 93.88,-54 99.88,-54 99.88,-54 160.12,-54 160.12,-54 166.12,-54 172.12,-60 172.12,-66 172.12,-66 172.12,-78 172.12,-78 172.12,-84 166.12,-90 160.12,-90"/>
<text xml:space="preserve" text-anchor="middle" x="130" y="-74.5" font-family="Arial" font-size="10.00">DecisionEngine</text>
<text xml:space="preserve" text-anchor="middle" x="130" y="-62.5" font-family="Arial" font-size="10.00">future</text>
</g>
<!-- Inference&#45;&gt;Decision -->
<g id="edge18" class="edge">
<title>Inference&#45;&gt;Decision</title>
<path fill="none" stroke="black" stroke-dasharray="5,2" d="M181.06,-146.22C181.06,-119.27 181.06,-72 181.06,-72 181.06,-72 180.17,-72 180.17,-72"/>
<polygon fill="black" stroke="black" points="180.68,-69.55 173.68,-72 180.68,-74.45 180.68,-69.55"/>
</g>
<!-- OpenVINO -->
<g id="node18" class="node">
<title>OpenVINO</title>
<path fill="#eceff1" stroke="#455a64" d="M278,-90C278,-90 202,-90 202,-90 196,-90 190,-84 190,-78 190,-78 190,-66 190,-66 190,-60 196,-54 202,-54 202,-54 278,-54 278,-54 284,-54 290,-60 290,-66 290,-66 290,-78 290,-78 290,-84 284,-90 278,-90"/>
<text xml:space="preserve" text-anchor="middle" x="240" y="-74.5" font-family="Arial" font-size="10.00">OpenVINO Adapter</text>
<text xml:space="preserve" text-anchor="middle" x="240" y="-62.5" font-family="Arial" font-size="10.00">future</text>
</g>
<!-- Inference&#45;&gt;OpenVINO -->
<g id="edge19" class="edge">
<title>Inference&#45;&gt;OpenVINO</title>
<path fill="none" stroke="black" stroke-dasharray="5,2" d="M224.75,-146.22C224.75,-146.22 224.75,-98.75 224.75,-98.75"/>
<polygon fill="black" stroke="black" points="227.2,-98.75 224.75,-91.75 222.3,-98.75 227.2,-98.75"/>
</g>
<!-- MCTS -->
<g id="node19" class="node">
<title>MCTS</title>
<path fill="#eceff1" stroke="#455a64" d="M58,-90C58,-90 28,-90 28,-90 22,-90 16,-84 16,-78 16,-78 16,-66 16,-66 16,-60 22,-54 28,-54 28,-54 58,-54 58,-54 64,-54 70,-60 70,-66 70,-66 70,-78 70,-78 70,-84 64,-90 58,-90"/>
<text xml:space="preserve" text-anchor="middle" x="43" y="-74.5" font-family="Arial" font-size="10.00">MCTS</text>
<text xml:space="preserve" text-anchor="middle" x="43" y="-62.5" font-family="Arial" font-size="10.00">future</text>
</g>
<!-- Inference&#45;&gt;MCTS -->
<g id="edge20" class="edge">
<title>Inference&#45;&gt;MCTS</title>
<path fill="none" stroke="black" stroke-dasharray="5,2" d="M168.18,-165C117.52,-165 43,-165 43,-165 43,-165 43,-98.89 43,-98.89"/>
<polygon fill="black" stroke="black" points="45.45,-98.89 43,-91.89 40.55,-98.89 45.45,-98.89"/>
</g>
<!-- Scheduler -->
<g id="node8" class="node">
<title>Scheduler</title>
<path fill="#ede7f6" stroke="#512da8" d="M437.62,-338C437.62,-338 374.38,-338 374.38,-338 368.38,-338 362.38,-332 362.38,-326 362.38,-326 362.38,-314 362.38,-314 362.38,-308 368.38,-302 374.38,-302 374.38,-302 437.62,-302 437.62,-302 443.62,-302 449.62,-308 449.62,-314 449.62,-314 449.62,-326 449.62,-326 449.62,-332 443.62,-338 437.62,-338"/>
<text xml:space="preserve" text-anchor="middle" x="406" y="-316.5" font-family="Arial" font-size="10.00">Scheduler.emit()</text>
</g>
<!-- Queue -->
<g id="node9" class="node">
<title>Queue</title>
<path fill="#ede7f6" stroke="#512da8" d="M455.62,-255.5C455.62,-255.5 404.38,-255.5 404.38,-255.5 398.38,-255.5 392.38,-249.5 392.38,-243.5 392.38,-243.5 392.38,-231.5 392.38,-231.5 392.38,-225.5 398.38,-219.5 404.38,-219.5 404.38,-219.5 455.62,-219.5 455.62,-219.5 461.62,-219.5 467.62,-225.5 467.62,-231.5 467.62,-231.5 467.62,-243.5 467.62,-243.5 467.62,-249.5 461.62,-255.5 455.62,-255.5"/>
<text xml:space="preserve" text-anchor="middle" x="430" y="-234" font-family="Arial" font-size="10.00">PriorityQueue</text>
</g>
<!-- Scheduler&#45;&gt;Queue -->
<g id="edge5" class="edge">
<title>Scheduler&#45;&gt;Queue</title>
<path fill="none" stroke="black" d="M421,-301.69C421,-301.69 421,-264.27 421,-264.27"/>
<polygon fill="black" stroke="black" points="423.45,-264.27 421,-257.27 418.55,-264.27 423.45,-264.27"/>
</g>
<!-- Dispatcher -->
<g id="node10" class="node">
<title>Dispatcher</title>
<path fill="#ede7f6" stroke="#512da8" d="M455.62,-182.5C455.62,-182.5 416.38,-182.5 416.38,-182.5 410.38,-182.5 404.38,-176.5 404.38,-170.5 404.38,-170.5 404.38,-158.5 404.38,-158.5 404.38,-152.5 410.38,-146.5 416.38,-146.5 416.38,-146.5 455.62,-146.5 455.62,-146.5 461.62,-146.5 467.62,-152.5 467.62,-158.5 467.62,-158.5 467.62,-170.5 467.62,-170.5 467.62,-176.5 461.62,-182.5 455.62,-182.5"/>
<text xml:space="preserve" text-anchor="middle" x="436" y="-161" font-family="Arial" font-size="10.00">Dispatcher</text>
</g>
<!-- Queue&#45;&gt;Dispatcher -->
<g id="edge6" class="edge">
<title>Queue&#45;&gt;Dispatcher</title>
<path fill="none" stroke="black" d="M436,-219.08C436,-219.08 436,-191.43 436,-191.43"/>
<polygon fill="black" stroke="black" points="438.45,-191.43 436,-184.43 433.55,-191.43 438.45,-191.43"/>
</g>
<!-- Handler -->
<g id="node11" class="node">
<title>Handler</title>
<path fill="#ede7f6" stroke="#512da8" d="M549.5,-90C549.5,-90 452.5,-90 452.5,-90 446.5,-90 440.5,-84 440.5,-78 440.5,-78 440.5,-66 440.5,-66 440.5,-60 446.5,-54 452.5,-54 452.5,-54 549.5,-54 549.5,-54 555.5,-54 561.5,-60 561.5,-66 561.5,-66 561.5,-78 561.5,-78 561.5,-84 555.5,-90 549.5,-90"/>
<text xml:space="preserve" text-anchor="middle" x="501" y="-74.5" font-family="Arial" font-size="10.00">ContextRequestHandler</text>
<text xml:space="preserve" text-anchor="middle" x="501" y="-62.5" font-family="Arial" font-size="10.00">handlers.py</text>
</g>
<!-- Dispatcher&#45;&gt;Handler -->
<g id="edge7" class="edge">
<title>Dispatcher&#45;&gt;Handler</title>
<path fill="none" stroke="black" d="M454.06,-146.22C454.06,-146.22 454.06,-98.75 454.06,-98.75"/>
<polygon fill="black" stroke="black" points="456.51,-98.75 454.06,-91.75 451.61,-98.75 456.51,-98.75"/>
</g>
<!-- Handler&#45;&gt;Collector -->
<g id="edge12" class="edge">
<title>Handler&#45;&gt;Collector</title>
<path fill="none" stroke="black" stroke-dasharray="5,2" d="M440.21,-72C381.69,-72 302,-72 302,-72 302,-72 302,-506 302,-506 302,-506 298.7,-506 298.7,-506"/>
<polygon fill="black" stroke="black" points="298.7,-503.55 291.7,-506 298.7,-508.45 298.7,-503.55"/>
<text xml:space="preserve" text-anchor="middle" x="615.5" y="-275.45" font-family="Arial" font-size="9.00">Future result</text>
</g>
<!-- Registry -->
<g id="node14" class="node">
<title>Registry</title>
<path fill="#e8f5e9" stroke="#388e3c" d="M758,-338C758,-338 728,-338 728,-338 722,-338 716,-332 716,-326 716,-326 716,-314 716,-314 716,-308 722,-302 728,-302 728,-302 758,-302 758,-302 764,-302 770,-308 770,-314 770,-314 770,-326 770,-326 770,-332 764,-338 758,-338"/>
<text xml:space="preserve" text-anchor="middle" x="743" y="-316.5" font-family="Arial" font-size="10.00">Registry</text>
</g>
<!-- Handler&#45;&gt;Registry -->
<g id="edge8" class="edge">
<title>Handler&#45;&gt;Registry</title>
<path fill="none" stroke="black" d="M498.92,-90.24C498.92,-147.51 498.92,-320 498.92,-320 498.92,-320 707.43,-320 707.43,-320"/>
<polygon fill="black" stroke="black" points="707.43,-322.45 714.43,-320 707.43,-317.55 707.43,-322.45"/>
</g>
<!-- Request&#45;&gt;Scheduler -->
<g id="edge4" class="edge">
<title>Request&#45;&gt;Scheduler</title>
<path fill="none" stroke="black" d="M397.19,-394.22C397.19,-394.22 397.19,-346.75 397.19,-346.75"/>
<polygon fill="black" stroke="black" points="399.64,-346.75 397.19,-339.75 394.74,-346.75 399.64,-346.75"/>
</g>
<!-- Proxy -->
<g id="node15" class="node">
<title>Proxy</title>
<path fill="#e8f5e9" stroke="#388e3c" d="M777.12,-255.5C777.12,-255.5 668.88,-255.5 668.88,-255.5 662.88,-255.5 656.88,-249.5 656.88,-243.5 656.88,-243.5 656.88,-231.5 656.88,-231.5 656.88,-225.5 662.88,-219.5 668.88,-219.5 668.88,-219.5 777.12,-219.5 777.12,-219.5 783.12,-219.5 789.12,-225.5 789.12,-231.5 789.12,-231.5 789.12,-243.5 789.12,-243.5 789.12,-249.5 783.12,-255.5 777.12,-255.5"/>
<text xml:space="preserve" text-anchor="middle" x="723" y="-234" font-family="Arial" font-size="10.00">ComponentProxy.context()</text>
</g>
<!-- Registry&#45;&gt;Proxy -->
<g id="edge9" class="edge">
<title>Registry&#45;&gt;Proxy</title>
<path fill="none" stroke="black" d="M743,-301.69C743,-301.69 743,-264.27 743,-264.27"/>
<polygon fill="black" stroke="black" points="745.45,-264.27 743,-257.27 740.55,-264.27 745.45,-264.27"/>
</g>
<!-- Component -->
<g id="node16" class="node">
<title>Component</title>
<path fill="#e8f5e9" stroke="#388e3c" d="M755.75,-182.5C755.75,-182.5 672.25,-182.5 672.25,-182.5 666.25,-182.5 660.25,-176.5 660.25,-170.5 660.25,-170.5 660.25,-158.5 660.25,-158.5 660.25,-152.5 666.25,-146.5 672.25,-146.5 672.25,-146.5 755.75,-146.5 755.75,-146.5 761.75,-146.5 767.75,-152.5 767.75,-158.5 767.75,-158.5 767.75,-170.5 767.75,-170.5 767.75,-176.5 761.75,-182.5 755.75,-182.5"/>
<text xml:space="preserve" text-anchor="middle" x="714" y="-161" font-family="Arial" font-size="10.00">Component.context()</text>
</g>
<!-- Proxy&#45;&gt;Component -->
<g id="edge10" class="edge">
<title>Proxy&#45;&gt;Component</title>
<path fill="none" stroke="black" d="M714,-219.08C714,-219.08 714,-191.43 714,-191.43"/>
<polygon fill="black" stroke="black" points="716.45,-191.43 714,-184.43 711.55,-191.43 716.45,-191.43"/>
</g>
<!-- Component&#45;&gt;Handler -->
<g id="edge11" class="edge">
<title>Component&#45;&gt;Handler</title>
<path fill="none" stroke="black" d="M659.85,-165C605.64,-165 530.21,-165 530.21,-165 530.21,-165 530.21,-98.89 530.21,-98.89"/>
<polygon fill="black" stroke="black" points="532.66,-98.89 530.21,-91.89 527.76,-98.89 532.66,-98.89"/>
</g>
<!-- TestContext -->
<g id="node20" class="node">
<title>TestContext</title>
<path fill="#e3f2fd" stroke="#1565c0" d="M529.88,-605.5C529.88,-605.5 450.12,-605.5 450.12,-605.5 444.12,-605.5 438.12,-599.5 438.12,-593.5 438.12,-593.5 438.12,-581.5 438.12,-581.5 438.12,-575.5 444.12,-569.5 450.12,-569.5 450.12,-569.5 529.88,-569.5 529.88,-569.5 535.88,-569.5 541.88,-575.5 541.88,-581.5 541.88,-581.5 541.88,-593.5 541.88,-593.5 541.88,-599.5 535.88,-605.5 529.88,-605.5"/>
<text xml:space="preserve" text-anchor="middle" x="490" y="-590" font-family="Arial" font-size="10.00">test_context_engine</text>
<text xml:space="preserve" text-anchor="middle" x="490" y="-578" font-family="Arial" font-size="10.00">event path + reply</text>
</g>
<!-- TestContext&#45;&gt;Collector -->
<g id="edge21" class="edge">
<title>TestContext&#45;&gt;Collector</title>
<path fill="none" stroke="black" stroke-dasharray="1,5" d="M443.88,-569.13C443.88,-550.38 443.88,-524 443.88,-524 443.88,-524 298.64,-524 298.64,-524"/>
<polygon fill="black" stroke="black" points="298.64,-521.55 291.64,-524 298.64,-526.45 298.64,-521.55"/>
</g>
<!-- TestContext&#45;&gt;Reply -->
<g id="edge22" class="edge">
<title>TestContext&#45;&gt;Reply</title>
<path fill="none" stroke="black" stroke-dasharray="1,5" d="M511.25,-569.1C511.25,-569.1 511.25,-439.43 511.25,-439.43"/>
<polygon fill="black" stroke="black" points="513.7,-439.43 511.25,-432.43 508.8,-439.43 513.7,-439.43"/>
</g>
<!-- Nav_Global -->
<g id="node21" class="node">
<title>Nav_Global</title>
<g id="a_node21"><a xlink:href="../00_global.svg" xlink:title="Global">
<path fill="lightgrey" stroke="none" d="M58,-36C58,-36 28,-36 28,-36 22,-36 16,-30 16,-24 16,-24 16,-12 16,-12 16,-6 22,0 28,0 28,0 58,0 58,0 64,0 70,-6 70,-12 70,-12 70,-24 70,-24 70,-30 64,-36 58,-36"/>
<text xml:space="preserve" text-anchor="middle" x="43" y="-14.5" font-family="Arial" font-size="10.00">Global</text>
</a>
</g>
</g>
<!-- Nav_Scheduler -->
<g id="node22" class="node">
<title>Nav_Scheduler</title>
<g id="a_node22"><a xlink:href="../scheduler/10_scheduler.svg" xlink:title="Scheduler">
<path fill="lightgrey" stroke="none" d="M122.75,-36C122.75,-36 87.25,-36 87.25,-36 81.25,-36 75.25,-30 75.25,-24 75.25,-24 75.25,-12 75.25,-12 75.25,-6 81.25,0 87.25,0 87.25,0 122.75,0 122.75,0 128.75,0 134.75,-6 134.75,-12 134.75,-12 134.75,-24 134.75,-24 134.75,-30 128.75,-36 122.75,-36"/>
<text xml:space="preserve" text-anchor="middle" x="105" y="-14.5" font-family="Arial" font-size="10.00">Scheduler</text>
</a>
</g>
</g>
</g>
</svg>
