<?xml version="1.0" encoding="UTF-8" standalone="no"?>
<!DOCTYPE svg PUBLIC "-//W3C//DTD SVG 1.1//EN"
 "http://www.w3.org/Graphics/SVG/1.1/DTD/svg11.dtd">
<!-- Generated by graphviz version 14.1.3 (20260303.0454)
 -->
<!-- Title: Collector Pages: 1 -->
<svg width="862pt" height="85pt"
 viewBox="0.00 0.00 862.00 85.00" xmlns="http://www.w3.org/2000/svg" xmlns:xlink="http://www.w3.org/1999/xlink">
<g id="graph0" class="graph" transform="scale(1 1) rotate(0) translate(4 81)">
<title>Collector</title>
<polygon fill="white" stroke="none" points="-4,4 -4,-81 858,-81 858,4 -4,4"/>
<!-- GET -->
<g id="node1" class="node">
<title>GET</title>
<g id="a_node1"><a xlink:href="20_context.svg" xlink:title="GET_CONTEXT_ALL">
<path fill="#fff3e0" stroke="#ef6c00" d="M100,-36C100,-36 12,-36 12,-36 6,-36 0,-30 0,-24 0,-24 0,-12 0,-12 0,-6 6,0 12,0 12,0 100,0 100,0 106,0 112,-6 112,-12 112,-12 112,-24 112,-24 112,-30 106,-36 100,-36"/>
<text xml:space="preserve" text-anchor="middle" x="56" y="-14.5" font-family="Arial" font-size="10.00">GET_CONTEXT_ALL</text>
</a>
</g>
</g>
<!-- Proxy -->
<g id="node2" class="node">
<title>Proxy</title>
<g id="a_node2"><a xlink:href="../scheduler/component_proxy/14_component_proxy.svg" xlink:title="ComponentProxy">
<path fill="#ede7f6" stroke="#512da8" d="M362,-36C362,-36 294.25,-36 294.25,-36 288.25,-36 282.25,-30 282.25,-24 282.25,-24 282.25,-12 282.25,-12 282.25,-6 288.25,0 294.25,0 294.25,0 362,0 362,0 368,0 374,-6 374,-12 374,-12 374,-24 374,-24 374,-30 368,-36 362,-36"/>
<text xml:space="preserve" text-anchor="middle" x="328.12" y="-14.5" font-family="Arial" font-size="10.00">ComponentProxy</text>
</a>
</g>
</g>
<!-- GET&#45;&gt;Proxy -->
<g id="edge1" class="edge">
<title>GET&#45;&gt;Proxy</title>
<path fill="none" stroke="black" d="M112.32,-18C158.56,-18 224.24,-18 270.77,-18"/>
<polygon fill="black" stroke="black" points="270.65,-21.5 280.65,-18 270.65,-14.5 270.65,-21.5"/>
<text xml:space="preserve" text-anchor="middle" x="197.12" y="-19.95" font-family="Arial" font-size="9.00">broadcast CONTEXT_REQUEST</text>
</g>
<!-- Collector -->
<g id="node3" class="node">
<title>Collector</title>
<g id="a_node3"><a xlink:href="20_context.svg" xlink:title="ContextCollector">
<path fill="#fff3e0" stroke="#ef6c00" d="M564.75,-36C564.75,-36 499.25,-36 499.25,-36 493.25,-36 487.25,-30 487.25,-24 487.25,-24 487.25,-12 487.25,-12 487.25,-6 493.25,0 499.25,0 499.25,0 564.75,0 564.75,0 570.75,0 576.75,-6 576.75,-12 576.75,-12 576.75,-24 576.75,-24 576.75,-30 570.75,-36 564.75,-36"/>
<text xml:space="preserve" text-anchor="middle" x="532" y="-14.5" font-family="Arial" font-size="10.00">ContextCollector</text>
</a>
</g>
</g>
<!-- Proxy&#45;&gt;Collector -->
<g id="edge2" class="edge">
<title>Proxy&#45;&gt;Collector</title>
<path fill="none" stroke="black" d="M374.43,-18C404.35,-18 443.76,-18 475.55,-18"/>
<polygon fill="black" stroke="black" points="475.37,-21.5 485.37,-18 475.37,-14.5 475.37,-21.5"/>
<text xml:space="preserve" text-anchor="middle" x="430.62" y="-19.95" font-family="Arial" font-size="9.00">CONTEXT_REPLY</text>
</g>
<!-- Reducer -->
<g id="node4" class="node">
<title>Reducer</title>
<g id="a_node4"><a xlink:href="22_reducer.svg" xlink:title="ContextReducer">
<path fill="#fff3e0" stroke="#ef6c00" d="M754.75,-36C754.75,-36 691.5,-36 691.5,-36 685.5,-36 679.5,-30 679.5,-24 679.5,-24 679.5,-12 679.5,-12 679.5,-6 685.5,0 691.5,0 691.5,0 754.75,0 754.75,0 760.75,0 766.75,-6 766.75,-12 766.75,-12 766.75,-24 766.75,-24 766.75,-30 760.75,-36 754.75,-36"/>
<text xml:space="preserve" text-anchor="middle" x="723.12" y="-14.5" font-family="Arial" font-size="10.00">ContextReducer</text>
</a>
</g>
</g>
<!-- Collector&#45;&gt;Reducer -->
<g id="edge3" class="edge">
<title>Collector&#45;&gt;Reducer</title>
<path fill="none" stroke="black" d="M576.86,-18C604.03,-18 639.12,-18 668.01,-18"/>
<polygon fill="black" stroke="black" points="667.64,-21.5 677.64,-18 667.64,-14.5 667.64,-21.5"/>
<text xml:space="preserve" text-anchor="middle" x="628.12" y="-19.95" font-family="Arial" font-size="9.00">raw context data</text>
</g>
<!-- Nav_Context -->
<g id="node5" class="node">
<title>Nav_Context</title>
<g id="a_node5"><a xlink:href="20_context.svg" xlink:title="Up: Context">
<path fill="lightgrey" stroke="none" d="M842,-36C842,-36 796.75,-36 796.75,-36 790.75,-36 784.75,-30 784.75,-24 784.75,-24 784.75,-12 784.75,-12 784.75,-6 790.75,0 796.75,0 796.75,0 842,0 842,0 848,0 854,-6 854,-12 854,-12 854,-24 854,-24 854,-30 848,-36 842,-36"/>
<text xml:space="preserve" text-anchor="middle" x="819.38" y="-14.5" font-family="Arial" font-size="10.00">Up: Context</text>
</a>
</g>
</g>
<!-- Nav_Reducer -->
<g id="node6" class="node">
<title>Nav_Reducer</title>
<g id="a_node6"><a xlink:href="22_reducer.svg" xlink:title="Reducer">
<path fill="lightgrey" stroke="none" d="M834.38,-77C834.38,-77 804.38,-77 804.38,-77 798.38,-77 792.38,-71 792.38,-65 792.38,-65 792.38,-53 792.38,-53 792.38,-47 798.38,-41 804.38,-41 804.38,-41 834.38,-41 834.38,-41 840.38,-41 846.38,-47 846.38,-53 846.38,-53 846.38,-65 846.38,-65 846.38,-71 840.38,-77 834.38,-77"/>
<text xml:space="preserve" text-anchor="middle" x="819.38" y="-55.5" font-family="Arial" font-size="10.00">Reducer</text>
</a>
</g>
</g>
</g>
</svg>
