<?xml version="1.0" encoding="UTF-8" standalone="no"?>
<!DOCTYPE svg PUBLIC "-//W3C//DTD SVG 1.1//EN"
 "http://www.w3.org/Graphics/SVG/1.1/DTD/svg11.dtd">
<!-- Generated by graphviz version 14.1.3 (20260303.0454)
 -->
<!-- Title: Collector Pages: 1 -->
<svg width="869pt" height="85pt"
 viewBox="0.00 0.00 869.00 85.00" xmlns="http://www.w3.org/2000/svg" xmlns:xlink="http://www.w3.org/1999/xlink">
<g id="graph0" class="graph" transform="scale(1 1) rotate(0) translate(4 81)">
<title>Collector</title>
<polygon fill="white" stroke="none" points="-4,4 -4,-81 865.25,-81 865.25,4 -4,4"/>
<!-- GET -->
<g id="node1" class="node">
<title>GET</title>
<g id="a_node1"><a xlink:href="../20_context.svg" xlink:title="GET">
<polygon fill="#fff3e0" stroke="#ef6c00" points="54,-36 0,-36 0,0 54,0 54,-36"/>
<text xml:space="preserve" text-anchor="middle" x="27" y="-14.5" font-family="Arial" font-size="10.00">GET</text>
</a>
</g>
</g>
<!-- Proxy -->
<g id="node2" class="node">
<title>Proxy</title>
<g id="a_node2"><a xlink:href="../../scheduler/component_proxy/14_component_proxy.svg" xlink:title="Proxy">
<polygon fill="#ede7f6" stroke="#512da8" points="371.25,-36 317.25,-36 317.25,0 371.25,0 371.25,-36"/>
<text xml:space="preserve" text-anchor="middle" x="344.25" y="-14.5" font-family="Arial" font-size="10.00">Proxy</text>
</a>
</g>
</g>
<!-- GET&#45;&gt;Proxy -->
<g id="edge1" class="edge">
<title>GET&#45;&gt;Proxy</title>
<path fill="none" stroke="black" d="M54.34,-18C110.2,-18 240.75,-18 305.48,-18"/>
<polygon fill="black" stroke="black" points="305.25,-21.5 315.25,-18 305.25,-14.5 305.25,-21.5"/>
<text xml:space="preserve" text-anchor="middle" x="185.62" y="-21.95" font-family="Times,serif" font-size="14.00">broadcast CONTEXT_REQUEST</text>
</g>
<!-- Collector -->
<g id="node3" class="node">
<title>Collector</title>
<g id="a_node3"><a xlink:href="../20_context.svg" xlink:title="Collector">
<polygon fill="#fff3e0" stroke="#ef6c00" points="589,-36 534,-36 534,0 589,0 589,-36"/>
<text xml:space="preserve" text-anchor="middle" x="561.5" y="-14.5" font-family="Arial" font-size="10.00">Collector</text>
</a>
</g>
</g>
<!-- Proxy&#45;&gt;Collector -->
<g id="edge2" class="edge">
<title>Proxy&#45;&gt;Collector</title>
<path fill="none" stroke="black" d="M371.64,-18C409.3,-18 478.69,-18 522.06,-18"/>
<polygon fill="black" stroke="black" points="522.04,-21.5 532.04,-18 522.04,-14.5 522.04,-21.5"/>
<text xml:space="preserve" text-anchor="middle" x="452.62" y="-21.95" font-family="Times,serif" font-size="14.00">CONTEXT_REPLY</text>
</g>
<!-- Reducer -->
<g id="node4" class="node">
<title>Reducer</title>
<g id="a_node4"><a xlink:href="../reducer/22_reducer.svg" xlink:title="Reducer">
<polygon fill="#fff3e0" stroke="#ef6c00" points="789.25,-36 735.25,-36 735.25,0 789.25,0 789.25,-36"/>
<text xml:space="preserve" text-anchor="middle" x="762.25" y="-14.5" font-family="Arial" font-size="10.00">Reducer</text>
</a>
</g>
</g>
<!-- Collector&#45;&gt;Reducer -->
<g id="edge3" class="edge">
<title>Collector&#45;&gt;Reducer</title>
<path fill="none" stroke="black" d="M589.3,-18C623.87,-18 684.2,-18 723.43,-18"/>
<polygon fill="black" stroke="black" points="723.36,-21.5 733.36,-18 723.36,-14.5 723.36,-21.5"/>
<text xml:space="preserve" text-anchor="middle" x="662.12" y="-21.95" font-family="Times,serif" font-size="14.00">données brutes</text>
</g>
<!-- Nav_Context -->
<g id="node5" class="node">
<title>Nav_Context</title>
<g id="a_node5"><a xlink:href="../20_context.svg" xlink:title="Context">
<polygon fill="lightgrey" stroke="none" points="861.25,-36 807.25,-36 807.25,0 861.25,0 861.25,-36"/>
<text xml:space="preserve" text-anchor="middle" x="834.25" y="-14.5" font-family="Arial" font-size="10.00">Context</text>
</a>
</g>
</g>
<!-- Nav_Reducer -->
<g id="node6" class="node">
<title>Nav_Reducer</title>
<g id="a_node6"><a xlink:href="../reducer/22_reducer.svg" xlink:title="Reducer">
<polygon fill="lightgrey" stroke="none" points="861.25,-77 807.25,-77 807.25,-41 861.25,-41 861.25,-77"/>
<text xml:space="preserve" text-anchor="middle" x="834.25" y="-55.5" font-family="Arial" font-size="10.00">Reducer</text>
</a>
</g>
</g>
</g>
</svg>
