<?xml version="1.0" encoding="UTF-8" standalone="no"?>
<!DOCTYPE svg PUBLIC "-//W3C//DTD SVG 1.1//EN"
 "http://www.w3.org/Graphics/SVG/1.1/DTD/svg11.dtd">
<!-- Generated by graphviz version 14.1.3 (20260303.0454)
 -->
<!-- Title: Reducer Pages: 1 -->
<svg width="613pt" height="126pt"
 viewBox="0.00 0.00 613.00 126.00" xmlns="http://www.w3.org/2000/svg" xmlns:xlink="http://www.w3.org/1999/xlink">
<g id="graph0" class="graph" transform="scale(1 1) rotate(0) translate(4 122)">
<title>Reducer</title>
<polygon fill="white" stroke="none" points="-4,4 -4,-122 608.75,-122 608.75,4 -4,4"/>
<!-- Collector -->
<g id="node1" class="node">
<title>Collector</title>
<g id="a_node1"><a xlink:href="21_collector.svg" xlink:title="ContextCollector">
<path fill="#fff3e0" stroke="#ef6c00" d="M77.5,-36C77.5,-36 12,-36 12,-36 6,-36 0,-30 0,-24 0,-24 0,-12 0,-12 0,-6 6,0 12,0 12,0 77.5,0 77.5,0 83.5,0 89.5,-6 89.5,-12 89.5,-12 89.5,-24 89.5,-24 89.5,-30 83.5,-36 77.5,-36"/>
<text xml:space="preserve" text-anchor="middle" x="44.75" y="-14.5" font-family="Arial" font-size="10.00">ContextCollector</text>
</a>
</g>
</g>
<!-- Reducer -->
<g id="node2" class="node">
<title>Reducer</title>
<g id="a_node2"><a xlink:href="20_context.svg" xlink:title="ContextReducer">
<path fill="#fff3e0" stroke="#ef6c00" d="M267.5,-36C267.5,-36 204.25,-36 204.25,-36 198.25,-36 192.25,-30 192.25,-24 192.25,-24 192.25,-12 192.25,-12 192.25,-6 198.25,0 204.25,0 204.25,0 267.5,0 267.5,0 273.5,0 279.5,-6 279.5,-12 279.5,-12 279.5,-24 279.5,-24 279.5,-30 273.5,-36 267.5,-36"/>
<text xml:space="preserve" text-anchor="middle" x="235.88" y="-14.5" font-family="Arial" font-size="10.00">ContextReducer</text>
</a>
</g>
</g>
<!-- Collector&#45;&gt;Reducer -->
<g id="edge1" class="edge">
<title>Collector&#45;&gt;Reducer</title>
<path fill="none" stroke="black" d="M89.61,-18C116.78,-18 151.87,-18 180.76,-18"/>
<polygon fill="black" stroke="black" points="180.39,-21.5 190.39,-18 180.39,-14.5 180.39,-21.5"/>
<text xml:space="preserve" text-anchor="middle" x="140.88" y="-19.95" font-family="Arial" font-size="9.00">raw context data</text>
</g>
<!-- Snapshot -->
<g id="node3" class="node">
<title>Snapshot</title>
<g id="a_node3"><a xlink:href="23_snapshot.svg" xlink:title="GlobalContextSnapshot">
<path fill="#fff3e0" stroke="#ef6c00" d="M505.5,-36C505.5,-36 410,-36 410,-36 404,-36 398,-30 398,-24 398,-24 398,-12 398,-12 398,-6 404,0 410,0 410,0 505.5,0 505.5,0 511.5,0 517.5,-6 517.5,-12 517.5,-12 517.5,-24 517.5,-24 517.5,-30 511.5,-36 505.5,-36"/>
<text xml:space="preserve" text-anchor="middle" x="457.75" y="-14.5" font-family="Arial" font-size="10.00">GlobalContextSnapshot</text>
</a>
</g>
</g>
<!-- Reducer&#45;&gt;Snapshot -->
<g id="edge2" class="edge">
<title>Reducer&#45;&gt;Snapshot</title>
<path fill="none" stroke="black" d="M279.79,-18C310.13,-18 351.47,-18 386.57,-18"/>
<polygon fill="black" stroke="black" points="386.21,-21.5 396.21,-18 386.21,-14.5 386.21,-21.5"/>
<text xml:space="preserve" text-anchor="middle" x="338.75" y="-19.95" font-family="Arial" font-size="9.00">immutable snapshot</text>
</g>
<!-- Nav_Context -->
<g id="node4" class="node">
<title>Nav_Context</title>
<g id="a_node4"><a xlink:href="20_context.svg" xlink:title="Up: Context">
<path fill="lightgrey" stroke="none" d="M592.75,-36C592.75,-36 547.5,-36 547.5,-36 541.5,-36 535.5,-30 535.5,-24 535.5,-24 535.5,-12 535.5,-12 535.5,-6 541.5,0 547.5,0 547.5,0 592.75,0 592.75,0 598.75,0 604.75,-6 604.75,-12 604.75,-12 604.75,-24 604.75,-24 604.75,-30 598.75,-36 592.75,-36"/>
<text xml:space="preserve" text-anchor="middle" x="570.12" y="-14.5" font-family="Arial" font-size="10.00">Up: Context</text>
</a>
</g>
</g>
<!-- Nav_Collector -->
<g id="node5" class="node">
<title>Nav_Collector</title>
<g id="a_node5"><a xlink:href="21_collector.svg" xlink:title="Collector">
<path fill="lightgrey" stroke="none" d="M585.62,-77C585.62,-77 554.62,-77 554.62,-77 548.62,-77 542.62,-71 542.62,-65 542.62,-65 542.62,-53 542.62,-53 542.62,-47 548.62,-41 554.62,-41 554.62,-41 585.62,-41 585.62,-41 591.62,-41 597.62,-47 597.62,-53 597.62,-53 597.62,-65 597.62,-65 597.62,-71 591.62,-77 585.62,-77"/>
<text xml:space="preserve" text-anchor="middle" x="570.12" y="-55.5" font-family="Arial" font-size="10.00">Collector</text>
</a>
</g>
</g>
<!-- Nav_Snapshot -->
<g id="node6" class="node">
<title>Nav_Snapshot</title>
<g id="a_node6"><a xlink:href="23_snapshot.svg" xlink:title="Snapshot">
<path fill="lightgrey" stroke="none" d="M586.75,-118C586.75,-118 553.5,-118 553.5,-118 547.5,-118 541.5,-112 541.5,-106 541.5,-106 541.5,-94 541.5,-94 541.5,-88 547.5,-82 553.5,-82 553.5,-82 586.75,-82 586.75,-82 592.75,-82 598.75,-88 598.75,-94 598.75,-94 598.75,-106 598.75,-106 598.75,-112 592.75,-118 586.75,-118"/>
<text xml:space="preserve" text-anchor="middle" x="570.12" y="-96.5" font-family="Arial" font-size="10.00">Snapshot</text>
</a>
</g>
</g>
</g>
</svg>
