<?xml version="1.0" encoding="UTF-8" standalone="no"?>
<!DOCTYPE svg PUBLIC "-//W3C//DTD SVG 1.1//EN"
 "http://www.w3.org/Graphics/SVG/1.1/DTD/svg11.dtd">
<!-- Generated by graphviz version 14.1.3 (20260303.0454)
 -->
<!-- Title: Reducer Pages: 1 -->
<svg width="340pt" height="152pt"
 viewBox="0.00 0.00 340.00 152.00" xmlns="http://www.w3.org/2000/svg" xmlns:xlink="http://www.w3.org/1999/xlink">
<g id="graph0" class="graph" transform="scale(1 1) rotate(0) translate(4 148)">
<title>Reducer</title>
<polygon fill="white" stroke="none" points="-4,4 -4,-148 335.5,-148 335.5,4 -4,4"/>
<!-- Collector -->
<g id="node1" class="node">
<title>Collector</title>
<g id="a_node1"><a xlink:href="../collector/21_collector.svg" xlink:title="Collector">
<polygon fill="#fff3e0" stroke="#ef6c00" points="55,-36 0,-36 0,0 55,0 55,-36"/>
<text xml:space="preserve" text-anchor="middle" x="27.5" y="-14.5" font-family="Arial" font-size="10.00">Collector</text>
</a>
</g>
</g>
<!-- Reducer -->
<g id="node2" class="node">
<title>Reducer</title>
<g id="a_node2"><a xlink:href="../20_context.svg" xlink:title="Reducer">
<polygon fill="#fff3e0" stroke="#ef6c00" points="145,-36 91,-36 91,0 145,0 145,-36"/>
<text xml:space="preserve" text-anchor="middle" x="118" y="-14.5" font-family="Arial" font-size="10.00">Reducer</text>
</a>
</g>
</g>
<!-- Collector&#45;&gt;Reducer -->
<g id="edge1" class="edge">
<title>Collector&#45;&gt;Reducer</title>
<path fill="none" stroke="black" d="M55.05,-18C62.74,-18 71.27,-18 79.49,-18"/>
<polygon fill="black" stroke="black" points="79.26,-21.5 89.26,-18 79.26,-14.5 79.26,-21.5"/>
</g>
<!-- Snapshot -->
<g id="node3" class="node">
<title>Snapshot</title>
<g id="a_node3"><a xlink:href="../snapshot/23_snapshot.svg" xlink:title="Snapshot">
<polygon fill="#fff3e0" stroke="#ef6c00" points="238.25,-36 181,-36 181,0 238.25,0 238.25,-36"/>
<text xml:space="preserve" text-anchor="middle" x="209.62" y="-14.5" font-family="Arial" font-size="10.00">Snapshot</text>
</a>
</g>
</g>
<!-- Reducer&#45;&gt;Snapshot -->
<g id="edge2" class="edge">
<title>Reducer&#45;&gt;Snapshot</title>
<path fill="none" stroke="black" d="M145.41,-18C152.83,-18 161.07,-18 169.08,-18"/>
<polygon fill="black" stroke="black" points="169.02,-21.5 179.02,-18 169.02,-14.5 169.02,-21.5"/>
</g>
<!-- Nav_Context -->
<g id="node4" class="node">
<title>Nav_Context</title>
<g id="a_node4"><a xlink:href="../20_context.svg" xlink:title="Context">
<polygon fill="lightgrey" stroke="none" points="329.88,-36 275.88,-36 275.88,0 329.88,0 329.88,-36"/>
<text xml:space="preserve" text-anchor="middle" x="302.88" y="-14.5" font-family="Arial" font-size="10.00">Context</text>
</a>
</g>
</g>
<!-- Nav_Collector -->
<g id="node5" class="node">
<title>Nav_Collector</title>
<g id="a_node5"><a xlink:href="../collector/21_collector.svg" xlink:title="Collector">
<polygon fill="lightgrey" stroke="none" points="330.38,-90 275.38,-90 275.38,-54 330.38,-54 330.38,-90"/>
<text xml:space="preserve" text-anchor="middle" x="302.88" y="-68.5" font-family="Arial" font-size="10.00">Collector</text>
</a>
</g>
</g>
<!-- Nav_Snapshot -->
<g id="node6" class="node">
<title>Nav_Snapshot</title>
<g id="a_node6"><a xlink:href="../snapshot/23_snapshot.svg" xlink:title="Snapshot">
<polygon fill="lightgrey" stroke="none" points="331.5,-144 274.25,-144 274.25,-108 331.5,-108 331.5,-144"/>
<text xml:space="preserve" text-anchor="middle" x="302.88" y="-122.5" font-family="Arial" font-size="10.00">Snapshot</text>
</a>
</g>
</g>
</g>
</svg>
