<?xml version="1.0" encoding="UTF-8" standalone="no"?>
<!DOCTYPE svg PUBLIC "-//W3C//DTD SVG 1.1//EN"
 "http://www.w3.org/Graphics/SVG/1.1/DTD/svg11.dtd">
<!-- Generated by graphviz version 14.1.3 (20260303.0454)
 -->
<!-- Title: Snapshot Pages: 1 -->
<svg width="683pt" height="126pt"
 viewBox="0.00 0.00 683.00 126.00" xmlns="http://www.w3.org/2000/svg" xmlns:xlink="http://www.w3.org/1999/xlink">
<g id="graph0" class="graph" transform="scale(1 1) rotate(0) translate(4 122)">
<title>Snapshot</title>
<polygon fill="white" stroke="none" points="-4,4 -4,-122 678.75,-122 678.75,4 -4,4"/>
<!-- Reducer -->
<g id="node1" class="node">
<title>Reducer</title>
<g id="a_node1"><a xlink:href="22_reducer.svg" xlink:title="ContextReducer">
<path fill="#fff3e0" stroke="#ef6c00" d="M75.25,-36C75.25,-36 12,-36 12,-36 6,-36 0,-30 0,-24 0,-24 0,-12 0,-12 0,-6 6,0 12,0 12,0 75.25,0 75.25,0 81.25,0 87.25,-6 87.25,-12 87.25,-12 87.25,-24 87.25,-24 87.25,-30 81.25,-36 75.25,-36"/>
<text xml:space="preserve" text-anchor="middle" x="43.62" y="-14.5" font-family="Arial" font-size="10.00">ContextReducer</text>
</a>
</g>
</g>
<!-- Snapshot -->
<g id="node2" class="node">
<title>Snapshot</title>
<g id="a_node2"><a xlink:href="20_context.svg" xlink:title="GlobalContextSnapshot">
<path fill="#fff3e0" stroke="#ef6c00" d="M259.25,-36C259.25,-36 163.75,-36 163.75,-36 157.75,-36 151.75,-30 151.75,-24 151.75,-24 151.75,-12 151.75,-12 151.75,-6 157.75,0 163.75,0 163.75,0 259.25,0 259.25,0 265.25,0 271.25,-6 271.25,-12 271.25,-12 271.25,-24 271.25,-24 271.25,-30 265.25,-36 259.25,-36"/>
<text xml:space="preserve" text-anchor="middle" x="211.5" y="-14.5" font-family="Arial" font-size="10.00">GlobalContextSnapshot</text>
</a>
</g>
</g>
<!-- Reducer&#45;&gt;Snapshot -->
<g id="edge1" class="edge">
<title>Reducer&#45;&gt;Snapshot</title>
<path fill="none" stroke="black" d="M87.34,-18C103.4,-18 122.12,-18 140.04,-18"/>
<polygon fill="black" stroke="black" points="139.85,-21.5 149.85,-18 139.85,-14.5 139.85,-21.5"/>
<text xml:space="preserve" text-anchor="middle" x="119.5" y="-19.95" font-family="Arial" font-size="9.00">reduce</text>
</g>
<!-- Inference -->
<g id="node3" class="node">
<title>Inference</title>
<g id="a_node3"><a xlink:href="20_context.svg" xlink:title="InferenceContext">
<path fill="#fff3e0" stroke="#ef6c00" d="M414,-36C414,-36 347,-36 347,-36 341,-36 335,-30 335,-24 335,-24 335,-12 335,-12 335,-6 341,0 347,0 347,0 414,0 414,0 420,0 426,-6 426,-12 426,-12 426,-24 426,-24 426,-30 420,-36 414,-36"/>
<text xml:space="preserve" text-anchor="middle" x="380.5" y="-14.5" font-family="Arial" font-size="10.00">InferenceContext</text>
</a>
</g>
</g>
<!-- Snapshot&#45;&gt;Inference -->
<g id="edge2" class="edge">
<title>Snapshot&#45;&gt;Inference</title>
<path fill="none" stroke="black" d="M271.38,-18C288.24,-18 306.57,-18 323.27,-18"/>
<polygon fill="black" stroke="black" points="323.02,-21.5 333.02,-18 323.02,-14.5 323.02,-21.5"/>
<text xml:space="preserve" text-anchor="middle" x="303.12" y="-19.95" font-family="Arial" font-size="9.00">project</text>
</g>
<!-- Decision -->
<g id="node4" class="node">
<title>Decision</title>
<g id="a_node4"><a xlink:href="24_decision_engine.svg" xlink:title="DecisionEngine">
<path fill="#fff3e0" stroke="#ef6c00" d="M557.5,-36C557.5,-36 497.25,-36 497.25,-36 491.25,-36 485.25,-30 485.25,-24 485.25,-24 485.25,-12 485.25,-12 485.25,-6 491.25,0 497.25,0 497.25,0 557.5,0 557.5,0 563.5,0 569.5,-6 569.5,-12 569.5,-12 569.5,-24 569.5,-24 569.5,-30 563.5,-36 557.5,-36"/>
<text xml:space="preserve" text-anchor="middle" x="527.38" y="-14.5" font-family="Arial" font-size="10.00">DecisionEngine</text>
</a>
</g>
</g>
<!-- Inference&#45;&gt;Decision -->
<g id="edge3" class="edge">
<title>Inference&#45;&gt;Decision</title>
<path fill="none" stroke="black" stroke-dasharray="5,2" d="M426.15,-18C441.27,-18 458.29,-18 473.96,-18"/>
<polygon fill="black" stroke="black" points="473.57,-21.5 483.57,-18 473.57,-14.5 473.57,-21.5"/>
<text xml:space="preserve" text-anchor="middle" x="455.62" y="-19.95" font-family="Arial" font-size="9.00">future</text>
</g>
<!-- Nav_Context -->
<g id="node5" class="node">
<title>Nav_Context</title>
<g id="a_node5"><a xlink:href="20_context.svg" xlink:title="Up: Context">
<path fill="lightgrey" stroke="none" d="M653.75,-36C653.75,-36 608.5,-36 608.5,-36 602.5,-36 596.5,-30 596.5,-24 596.5,-24 596.5,-12 596.5,-12 596.5,-6 602.5,0 608.5,0 608.5,0 653.75,0 653.75,0 659.75,0 665.75,-6 665.75,-12 665.75,-12 665.75,-24 665.75,-24 665.75,-30 659.75,-36 653.75,-36"/>
<text xml:space="preserve" text-anchor="middle" x="631.12" y="-14.5" font-family="Arial" font-size="10.00">Up: Context</text>
</a>
</g>
</g>
<!-- Nav_Reducer -->
<g id="node6" class="node">
<title>Nav_Reducer</title>
<g id="a_node6"><a xlink:href="22_reducer.svg" xlink:title="Reducer">
<path fill="lightgrey" stroke="none" d="M646.12,-77C646.12,-77 616.12,-77 616.12,-77 610.12,-77 604.12,-71 604.12,-65 604.12,-65 604.12,-53 604.12,-53 604.12,-47 610.12,-41 616.12,-41 616.12,-41 646.12,-41 646.12,-41 652.12,-41 658.12,-47 658.12,-53 658.12,-53 658.12,-65 658.12,-65 658.12,-71 652.12,-77 646.12,-77"/>
<text xml:space="preserve" text-anchor="middle" x="631.12" y="-55.5" font-family="Arial" font-size="10.00">Reducer</text>
</a>
</g>
</g>
<!-- Nav_Decision -->
<g id="node7" class="node">
<title>Nav_Decision</title>
<g id="a_node7"><a xlink:href="24_decision_engine.svg" xlink:title="Decision Engine">
<path fill="lightgrey" stroke="none" d="M662.75,-118C662.75,-118 599.5,-118 599.5,-118 593.5,-118 587.5,-112 587.5,-106 587.5,-106 587.5,-94 587.5,-94 587.5,-88 593.5,-82 599.5,-82 599.5,-82 662.75,-82 662.75,-82 668.75,-82 674.75,-88 674.75,-94 674.75,-94 674.75,-106 674.75,-106 674.75,-112 668.75,-118 662.75,-118"/>
<text xml:space="preserve" text-anchor="middle" x="631.12" y="-96.5" font-family="Arial" font-size="10.00">Decision Engine</text>
</a>
</g>
</g>
</g>
</svg>
