<?xml version="1.0" encoding="UTF-8" standalone="no"?>
<!DOCTYPE svg PUBLIC "-//W3C//DTD SVG 1.1//EN"
 "http://www.w3.org/Graphics/SVG/1.1/DTD/svg11.dtd">
<!-- Generated by graphviz version 14.1.3 (20260303.0454)
 -->
<!-- Title: Snapshot Pages: 1 -->
<svg width="371pt" height="152pt"
 viewBox="0.00 0.00 371.00 152.00" xmlns="http://www.w3.org/2000/svg" xmlns:xlink="http://www.w3.org/1999/xlink">
<g id="graph0" class="graph" transform="scale(1 1) rotate(0) translate(4 148)">
<title>Snapshot</title>
<polygon fill="white" stroke="none" points="-4,4 -4,-148 367,-148 367,4 -4,4"/>
<!-- Reducer -->
<g id="node1" class="node">
<title>Reducer</title>
<g id="a_node1"><a xlink:href="../reducer/22_reducer.svg" xlink:title="Reducer">
<polygon fill="#fff3e0" stroke="#ef6c00" points="54,-36 0,-36 0,0 54,0 54,-36"/>
<text xml:space="preserve" text-anchor="middle" x="27" y="-14.5" font-family="Arial" font-size="10.00">Reducer</text>
</a>
</g>
</g>
<!-- Snapshot -->
<g id="node2" class="node">
<title>Snapshot</title>
<g id="a_node2"><a xlink:href="../20_context.svg" xlink:title="Snapshot">
<polygon fill="#fff3e0" stroke="#ef6c00" points="147.25,-36 90,-36 90,0 147.25,0 147.25,-36"/>
<text xml:space="preserve" text-anchor="middle" x="118.62" y="-14.5" font-family="Arial" font-size="10.00">Snapshot</text>
</a>
</g>
</g>
<!-- Reducer&#45;&gt;Snapshot -->
<g id="edge1" class="edge">
<title>Reducer&#45;&gt;Snapshot</title>
<path fill="none" stroke="black" d="M54.41,-18C61.83,-18 70.07,-18 78.08,-18"/>
<polygon fill="black" stroke="black" points="78.02,-21.5 88.02,-18 78.02,-14.5 78.02,-21.5"/>
</g>
<!-- Inference -->
<g id="node3" class="node">
<title>Inference</title>
<g id="a_node3"><a xlink:href="../20_context.svg" xlink:title="Inference">
<polygon fill="#fff3e0" stroke="#ef6c00" points="239.75,-36 183.25,-36 183.25,0 239.75,0 239.75,-36"/>
<text xml:space="preserve" text-anchor="middle" x="211.5" y="-14.5" font-family="Arial" font-size="10.00">Inference</text>
</a>
</g>
</g>
<!-- Snapshot&#45;&gt;Inference -->
<g id="edge2" class="edge">
<title>Snapshot&#45;&gt;Inference</title>
<path fill="none" stroke="black" d="M147.38,-18C155.05,-18 163.51,-18 171.67,-18"/>
<polygon fill="black" stroke="black" points="171.4,-21.5 181.4,-18 171.4,-14.5 171.4,-21.5"/>
</g>
<!-- Nav_Context -->
<g id="node4" class="node">
<title>Nav_Context</title>
<g id="a_node4"><a xlink:href="../20_context.svg" xlink:title="Context">
<polygon fill="lightgrey" stroke="none" points="346.38,-36 292.38,-36 292.38,0 346.38,0 346.38,-36"/>
<text xml:space="preserve" text-anchor="middle" x="319.38" y="-14.5" font-family="Arial" font-size="10.00">Context</text>
</a>
</g>
</g>
<!-- Nav_Reducer -->
<g id="node5" class="node">
<title>Nav_Reducer</title>
<g id="a_node5"><a xlink:href="../reducer/22_reducer.svg" xlink:title="Reducer">
<polygon fill="lightgrey" stroke="none" points="346.38,-90 292.38,-90 292.38,-54 346.38,-54 346.38,-90"/>
<text xml:space="preserve" text-anchor="middle" x="319.38" y="-68.5" font-family="Arial" font-size="10.00">Reducer</text>
</a>
</g>
</g>
<!-- Nav_Decision -->
<g id="node6" class="node">
<title>Nav_Decision</title>
<g id="a_node6"><a xlink:href="../decision_engine/24_decision_engine.svg" xlink:title="Decision Engine">
<polygon fill="lightgrey" stroke="none" points="363,-144 275.75,-144 275.75,-108 363,-108 363,-144"/>
<text xml:space="preserve" text-anchor="middle" x="319.38" y="-122.5" font-family="Arial" font-size="10.00">Decision Engine</text>
</a>
</g>
</g>
</g>
</svg>
