<?xml version="1.0" encoding="UTF-8" standalone="no"?>
<!DOCTYPE svg PUBLIC "-//W3C//DTD SVG 1.1//EN"
 "http://www.w3.org/Graphics/SVG/1.1/DTD/svg11.dtd">
<!-- Generated by graphviz version 14.1.3 (20260303.0454)
 -->
<!-- Title: DecisionEngine Pages: 1 -->
<svg width="544pt" height="260pt"
 viewBox="0.00 0.00 544.00 260.00" xmlns="http://www.w3.org/2000/svg" xmlns:xlink="http://www.w3.org/1999/xlink">
<g id="graph0" class="graph" transform="scale(1 1) rotate(0) translate(4 256)">
<title>DecisionEngine</title>
<polygon fill="white" stroke="none" points="-4,4 -4,-256 539.75,-256 539.75,4 -4,4"/>
<!-- InferenceContext -->
<g id="node1" class="node">
<title>InferenceContext</title>
<g id="a_node1"><a xlink:href="23_snapshot.svg" xlink:title="InferenceContext">
<path fill="#fff3e0" stroke="#ef6c00" d="M79,-144C79,-144 12,-144 12,-144 6,-144 0,-138 0,-132 0,-132 0,-120 0,-120 0,-114 6,-108 12,-108 12,-108 79,-108 79,-108 85,-108 91,-114 91,-120 91,-120 91,-132 91,-132 91,-138 85,-144 79,-144"/>
<text xml:space="preserve" text-anchor="middle" x="45.5" y="-122.5" font-family="Arial" font-size="10.00">InferenceContext</text>
</a>
</g>
</g>
<!-- Decision -->
<g id="node2" class="node">
<title>Decision</title>
<g id="a_node2"><a xlink:href="20_context.svg" xlink:title="DecisionEngine\nfuture">
<path fill="#fff3e0" stroke="#ef6c00" d="M232.25,-144C232.25,-144 172,-144 172,-144 166,-144 160,-138 160,-132 160,-132 160,-120 160,-120 160,-114 166,-108 172,-108 172,-108 232.25,-108 232.25,-108 238.25,-108 244.25,-114 244.25,-120 244.25,-120 244.25,-132 244.25,-132 244.25,-138 238.25,-144 232.25,-144"/>
<text xml:space="preserve" text-anchor="middle" x="202.12" y="-128.5" font-family="Arial" font-size="10.00">DecisionEngine</text>
<text xml:space="preserve" text-anchor="middle" x="202.12" y="-116.5" font-family="Arial" font-size="10.00">future</text>
</a>
</g>
</g>
<!-- InferenceContext&#45;&gt;Decision -->
<g id="edge1" class="edge">
<title>InferenceContext&#45;&gt;Decision</title>
<path fill="none" stroke="black" d="M91.22,-126C109.1,-126 129.82,-126 148.42,-126"/>
<polygon fill="black" stroke="black" points="148.17,-129.5 158.17,-126 148.17,-122.5 148.17,-129.5"/>
<text xml:space="preserve" text-anchor="middle" x="125.5" y="-127.95" font-family="Arial" font-size="9.00">features</text>
</g>
<!-- Policy -->
<g id="node3" class="node">
<title>Policy</title>
<g id="a_node3"><a xlink:href="../scheduler/10_scheduler.svg" xlink:title="Policy">
<path fill="#ede7f6" stroke="#512da8" d="M412.38,-252C412.38,-252 382.38,-252 382.38,-252 376.38,-252 370.38,-246 370.38,-240 370.38,-240 370.38,-228 370.38,-228 370.38,-222 376.38,-216 382.38,-216 382.38,-216 412.38,-216 412.38,-216 418.38,-216 424.38,-222 424.38,-228 424.38,-228 424.38,-240 424.38,-240 424.38,-246 418.38,-252 412.38,-252"/>
<text xml:space="preserve" text-anchor="middle" x="397.38" y="-230.5" font-family="Arial" font-size="10.00">Policy</text>
</a>
</g>
</g>
<!-- Decision&#45;&gt;Policy -->
<g id="edge2" class="edge">
<title>Decision&#45;&gt;Policy</title>
<path fill="none" stroke="black" stroke-dasharray="5,2" d="M222.93,-144.28C233.98,-153.88 248.28,-165.41 262.25,-174 293.42,-193.17 331.78,-209.69 359.48,-220.52"/>
<polygon fill="black" stroke="black" points="357.9,-223.66 368.49,-223.98 360.41,-217.13 357.9,-223.66"/>
<text xml:space="preserve" text-anchor="middle" x="295.25" y="-208.81" font-family="Arial" font-size="9.00">policy update</text>
</g>
<!-- Scheduler -->
<g id="node4" class="node">
<title>Scheduler</title>
<g id="a_node4"><a xlink:href="../scheduler/10_scheduler.svg" xlink:title="Scheduler">
<path fill="#ede7f6" stroke="#512da8" d="M415.12,-198C415.12,-198 379.62,-198 379.62,-198 373.62,-198 367.62,-192 367.62,-186 367.62,-186 367.62,-174 367.62,-174 367.62,-168 373.62,-162 379.62,-162 379.62,-162 415.12,-162 415.12,-162 421.12,-162 427.12,-168 427.12,-174 427.12,-174 427.12,-186 427.12,-186 427.12,-192 421.12,-198 415.12,-198"/>
<text xml:space="preserve" text-anchor="middle" x="397.38" y="-176.5" font-family="Arial" font-size="10.00">Scheduler</text>
</a>
</g>
</g>
<!-- Decision&#45;&gt;Scheduler -->
<g id="edge3" class="edge">
<title>Decision&#45;&gt;Scheduler</title>
<path fill="none" stroke="black" stroke-dasharray="5,2" d="M244.58,-137.58C277.62,-146.82 323.59,-159.66 356.27,-168.79"/>
<polygon fill="black" stroke="black" points="355.2,-172.13 365.77,-171.45 357.08,-165.39 355.2,-172.13"/>
<text xml:space="preserve" text-anchor="middle" x="295.25" y="-161.37" font-family="Arial" font-size="9.00">execution hints</text>
</g>
<!-- Queue -->
<g id="node5" class="node">
<title>Queue</title>
<g id="a_node5"><a xlink:href="../scheduler/priority_queue/13_priority_queue.svg" xlink:title="PriorityQueue">
<path fill="#ede7f6" stroke="#512da8" d="M423,-144C423,-144 371.75,-144 371.75,-144 365.75,-144 359.75,-138 359.75,-132 359.75,-132 359.75,-120 359.75,-120 359.75,-114 365.75,-108 371.75,-108 371.75,-108 423,-108 423,-108 429,-108 435,-114 435,-120 435,-120 435,-132 435,-132 435,-138 429,-144 423,-144"/>
<text xml:space="preserve" text-anchor="middle" x="397.38" y="-122.5" font-family="Arial" font-size="10.00">PriorityQueue</text>
</a>
</g>
</g>
<!-- Decision&#45;&gt;Queue -->
<g id="edge4" class="edge">
<title>Decision&#45;&gt;Queue</title>
<path fill="none" stroke="black" stroke-dasharray="5,2" d="M244.58,-126C275,-126 316.4,-126 348.28,-126"/>
<polygon fill="black" stroke="black" points="348.04,-129.5 358.04,-126 348.04,-122.5 348.04,-129.5"/>
<text xml:space="preserve" text-anchor="middle" x="295.25" y="-127.95" font-family="Arial" font-size="9.00">priority hints</text>
</g>
<!-- MCTS -->
<g id="node6" class="node">
<title>MCTS</title>
<g id="a_node6"><a xlink:href="../learning/60_learning.svg" xlink:title="MCTS">
<path fill="#fffde7" stroke="#fbc02d" d="M412.38,-90C412.38,-90 382.38,-90 382.38,-90 376.38,-90 370.38,-84 370.38,-78 370.38,-78 370.38,-66 370.38,-66 370.38,-60 376.38,-54 382.38,-54 382.38,-54 412.38,-54 412.38,-54 418.38,-54 424.38,-60 424.38,-66 424.38,-66 424.38,-78 424.38,-78 424.38,-84 418.38,-90 412.38,-90"/>
<text xml:space="preserve" text-anchor="middle" x="397.38" y="-68.5" font-family="Arial" font-size="10.00">MCTS</text>
</a>
</g>
</g>
<!-- Decision&#45;&gt;MCTS -->
<g id="edge5" class="edge">
<title>Decision&#45;&gt;MCTS</title>
<path fill="none" stroke="black" stroke-dasharray="5,2" d="M244.58,-114.42C278.61,-104.91 326.37,-91.56 359.18,-82.39"/>
<polygon fill="black" stroke="black" points="359.97,-85.81 368.65,-79.75 358.08,-79.07 359.97,-85.81"/>
<text xml:space="preserve" text-anchor="middle" x="295.25" y="-110.48" font-family="Arial" font-size="9.00">proposal search</text>
</g>
<!-- OpenVINO -->
<g id="node7" class="node">
<title>OpenVINO</title>
<g id="a_node7"><a xlink:href="../inference/40_inference.svg" xlink:title="OpenVINOBackend\nfuture">
<path fill="#fffde7" stroke="#fbc02d" d="M436.5,-36C436.5,-36 358.25,-36 358.25,-36 352.25,-36 346.25,-30 346.25,-24 346.25,-24 346.25,-12 346.25,-12 346.25,-6 352.25,0 358.25,0 358.25,0 436.5,0 436.5,0 442.5,0 448.5,-6 448.5,-12 448.5,-12 448.5,-24 448.5,-24 448.5,-30 442.5,-36 436.5,-36"/>
<text xml:space="preserve" text-anchor="middle" x="397.38" y="-20.5" font-family="Arial" font-size="10.00">OpenVINOBackend</text>
<text xml:space="preserve" text-anchor="middle" x="397.38" y="-8.5" font-family="Arial" font-size="10.00">future</text>
</a>
</g>
</g>
<!-- Decision&#45;&gt;OpenVINO -->
<g id="edge6" class="edge">
<title>Decision&#45;&gt;OpenVINO</title>
<path fill="none" stroke="black" stroke-dasharray="5,2" d="M223.24,-107.72C234.26,-98.27 248.45,-86.97 262.25,-78.5 285.77,-64.07 313.32,-51.05 337.31,-40.81"/>
<polygon fill="black" stroke="black" points="338.44,-44.13 346.31,-37.04 335.73,-37.68 338.44,-44.13"/>
<text xml:space="preserve" text-anchor="middle" x="295.25" y="-80.45" font-family="Arial" font-size="9.00">future inference</text>
</g>
<!-- Nav_Context -->
<g id="node8" class="node">
<title>Nav_Context</title>
<g id="a_node8"><a xlink:href="20_context.svg" xlink:title="Up: Context">
<path fill="lightgrey" stroke="none" d="M523.75,-36C523.75,-36 478.5,-36 478.5,-36 472.5,-36 466.5,-30 466.5,-24 466.5,-24 466.5,-12 466.5,-12 466.5,-6 472.5,0 478.5,0 478.5,0 523.75,0 523.75,0 529.75,0 535.75,-6 535.75,-12 535.75,-12 535.75,-24 535.75,-24 535.75,-30 529.75,-36 523.75,-36"/>
<text xml:space="preserve" text-anchor="middle" x="501.12" y="-14.5" font-family="Arial" font-size="10.00">Up: Context</text>
</a>
</g>
</g>
<!-- Nav_Scheduler -->
<g id="node9" class="node">
<title>Nav_Scheduler</title>
<g id="a_node9"><a xlink:href="../scheduler/10_scheduler.svg" xlink:title="Scheduler">
<path fill="lightgrey" stroke="none" d="M518.88,-77C518.88,-77 483.38,-77 483.38,-77 477.38,-77 471.38,-71 471.38,-65 471.38,-65 471.38,-53 471.38,-53 471.38,-47 477.38,-41 483.38,-41 483.38,-41 518.88,-41 518.88,-41 524.88,-41 530.88,-47 530.88,-53 530.88,-53 530.88,-65 530.88,-65 530.88,-71 524.88,-77 518.88,-77"/>
<text xml:space="preserve" text-anchor="middle" x="501.12" y="-55.5" font-family="Arial" font-size="10.00">Scheduler</text>
</a>
</g>
</g>
<!-- Nav_Inference -->
<g id="node10" class="node">
<title>Nav_Inference</title>
<g id="a_node10"><a xlink:href="../inference/40_inference.svg" xlink:title="Inference">
<path fill="lightgrey" stroke="none" d="M517.38,-118C517.38,-118 484.88,-118 484.88,-118 478.88,-118 472.88,-112 472.88,-106 472.88,-106 472.88,-94 472.88,-94 472.88,-88 478.88,-82 484.88,-82 484.88,-82 517.38,-82 517.38,-82 523.38,-82 529.38,-88 529.38,-94 529.38,-94 529.38,-106 529.38,-106 529.38,-112 523.38,-118 517.38,-118"/>
<text xml:space="preserve" text-anchor="middle" x="501.12" y="-96.5" font-family="Arial" font-size="10.00">Inference</text>
</a>
</g>
</g>
</g>
</svg>
