<?xml version="1.0" encoding="UTF-8" standalone="no"?>
<!DOCTYPE svg PUBLIC "-//W3C//DTD SVG 1.1//EN"
 "http://www.w3.org/Graphics/SVG/1.1/DTD/svg11.dtd">
<!-- Generated by graphviz version 14.1.3 (20260303.0454)
 -->
<!-- Title: DecisionEngine Pages: 1 -->
<svg width="343pt" height="206pt"
 viewBox="0.00 0.00 343.00 206.00" xmlns="http://www.w3.org/2000/svg" xmlns:xlink="http://www.w3.org/1999/xlink">
<g id="graph0" class="graph" transform="scale(1 1) rotate(0) translate(4 202)">
<title>DecisionEngine</title>
<polygon fill="white" stroke="none" points="-4,4 -4,-202 339.25,-202 339.25,4 -4,4"/>
<!-- Adapter -->
<g id="node1" class="node">
<title>Adapter</title>
<g id="a_node1"><a xlink:href="../20_context.svg" xlink:title="Adapter">
<polygon fill="#fff3e0" stroke="#ef6c00" points="54,-117 0,-117 0,-81 54,-81 54,-117"/>
<text xml:space="preserve" text-anchor="middle" x="27" y="-95.5" font-family="Arial" font-size="10.00">Adapter</text>
</a>
</g>
</g>
<!-- Decision -->
<g id="node2" class="node">
<title>Decision</title>
<g id="a_node2"><a xlink:href="../20_context.svg" xlink:title="Decision">
<polygon fill="#fff3e0" stroke="#ef6c00" points="144.25,-117 90,-117 90,-81 144.25,-81 144.25,-117"/>
<text xml:space="preserve" text-anchor="middle" x="117.12" y="-95.5" font-family="Arial" font-size="10.00">Decision</text>
</a>
</g>
</g>
<!-- Adapter&#45;&gt;Decision -->
<g id="edge1" class="edge">
<title>Adapter&#45;&gt;Decision</title>
<path fill="none" stroke="black" d="M54.44,-99C61.93,-99 70.24,-99 78.27,-99"/>
<polygon fill="black" stroke="black" points="78.19,-102.5 88.19,-99 78.19,-95.5 78.19,-102.5"/>
</g>
<!-- Policy -->
<g id="node3" class="node">
<title>Policy</title>
<g id="a_node3"><a xlink:href="../../scheduler/10_scheduler.svg" xlink:title="Policy">
<polygon fill="#ede7f6" stroke="#512da8" points="237,-198 183,-198 183,-162 237,-162 237,-198"/>
<text xml:space="preserve" text-anchor="middle" x="210" y="-176.5" font-family="Arial" font-size="10.00">Policy</text>
</a>
</g>
</g>
<!-- Decision&#45;&gt;Policy -->
<g id="edge2" class="edge">
<title>Decision&#45;&gt;Policy</title>
<path fill="none" stroke="black" d="M138.75,-117.38C150.95,-128.25 166.59,-142.2 180.02,-154.17"/>
<polygon fill="black" stroke="black" points="177.54,-156.64 187.33,-160.69 182.19,-151.42 177.54,-156.64"/>
</g>
<!-- Scheduler -->
<g id="node4" class="node">
<title>Scheduler</title>
<g id="a_node4"><a xlink:href="../../scheduler/10_scheduler.svg" xlink:title="Scheduler">
<polygon fill="#ede7f6" stroke="#512da8" points="239.75,-144 180.25,-144 180.25,-108 239.75,-108 239.75,-144"/>
<text xml:space="preserve" text-anchor="middle" x="210" y="-122.5" font-family="Arial" font-size="10.00">Scheduler</text>
</a>
</g>
</g>
<!-- Decision&#45;&gt;Scheduler -->
<g id="edge3" class="edge">
<title>Decision&#45;&gt;Scheduler</title>
<path fill="none" stroke="black" d="M144.41,-106.81C152.14,-109.11 160.77,-111.67 169.14,-114.16"/>
<polygon fill="black" stroke="black" points="167.87,-117.43 178.46,-116.93 169.87,-110.72 167.87,-117.43"/>
</g>
<!-- MCTS -->
<g id="node5" class="node">
<title>MCTS</title>
<g id="a_node5"><a xlink:href="../../learning/60_learning.svg" xlink:title="MCTS">
<polygon fill="#fffde7" stroke="#fbc02d" points="237,-90 183,-90 183,-54 237,-54 237,-90"/>
<text xml:space="preserve" text-anchor="middle" x="210" y="-68.5" font-family="Arial" font-size="10.00">MCTS</text>
</a>
</g>
</g>
<!-- Decision&#45;&gt;MCTS -->
<g id="edge5" class="edge">
<title>Decision&#45;&gt;MCTS</title>
<path fill="none" stroke="black" stroke-dasharray="5,2" d="M144.41,-91.19C152.98,-88.64 162.67,-85.77 171.88,-83.03"/>
<polygon fill="black" stroke="black" points="172.73,-86.43 181.32,-80.22 170.74,-79.72 172.73,-86.43"/>
</g>
<!-- Queue -->
<g id="node6" class="node">
<title>Queue</title>
<g id="a_node6"><a xlink:href="../../scheduler/priority_queue/13_priority_queue.svg" xlink:title="Queue">
<polygon fill="#ede7f6" stroke="#512da8" points="237,-36 183,-36 183,0 237,0 237,-36"/>
<text xml:space="preserve" text-anchor="middle" x="210" y="-14.5" font-family="Arial" font-size="10.00">Queue</text>
</a>
</g>
</g>
<!-- Decision&#45;&gt;Queue -->
<g id="edge4" class="edge">
<title>Decision&#45;&gt;Queue</title>
<path fill="none" stroke="black" stroke-dasharray="5,2" d="M138.75,-80.62C150.95,-69.75 166.59,-55.8 180.02,-43.83"/>
<polygon fill="black" stroke="black" points="182.19,-46.58 187.33,-37.31 177.54,-41.36 182.19,-46.58"/>
</g>
<!-- Nav_Context -->
<g id="node7" class="node">
<title>Nav_Context</title>
<g id="a_node7"><a xlink:href="../20_context.svg" xlink:title="Context">
<polygon fill="lightgrey" stroke="none" points="332.5,-36 278.5,-36 278.5,0 332.5,0 332.5,-36"/>
<text xml:space="preserve" text-anchor="middle" x="305.5" y="-14.5" font-family="Arial" font-size="10.00">Context</text>
</a>
</g>
</g>
<!-- Nav_Scheduler -->
<g id="node8" class="node">
<title>Nav_Scheduler</title>
<g id="a_node8"><a xlink:href="../../scheduler/10_scheduler.svg" xlink:title="Scheduler">
<polygon fill="lightgrey" stroke="none" points="335.25,-90 275.75,-90 275.75,-54 335.25,-54 335.25,-90"/>
<text xml:space="preserve" text-anchor="middle" x="305.5" y="-68.5" font-family="Arial" font-size="10.00">Scheduler</text>
</a>
</g>
</g>
</g>
</svg>
