<?xml version="1.0" encoding="UTF-8" standalone="no"?>
<!DOCTYPE svg PUBLIC "-//W3C//DTD SVG 1.1//EN"
 "http://www.w3.org/Graphics/SVG/1.1/DTD/svg11.dtd">
<!-- Generated by graphviz version 14.1.3 (20260303.0454)
 -->
<!-- Title: E5RuntimeBridge Pages: 1 -->
<svg width="1146pt" height="678pt"
 viewBox="0.00 0.00 1146.00 678.00" xmlns="http://www.w3.org/2000/svg" xmlns:xlink="http://www.w3.org/1999/xlink">
<g id="graph0" class="graph" transform="scale(1 1) rotate(0) translate(4 673.84)">
<title>E5RuntimeBridge</title>
<polygon fill="#ffffff" stroke="none" points="-4,4 -4,-673.84 1142,-673.84 1142,4 -4,4"/>
<text xml:space="preserve" text-anchor="middle" x="569" y="-648.74" font-family="Arial" font-size="18.00">Phase 5.1 — E5 runtime bridge</text>
<g id="clust1" class="cluster">
<title>cluster_inputs</title>
<path fill="#e3f2fd" stroke="#bbdefb" d="M207,-113.84C207,-113.84 447.25,-113.84 447.25,-113.84 453.25,-113.84 459.25,-119.84 459.25,-125.84 459.25,-125.84 459.25,-344.84 459.25,-344.84 459.25,-350.84 453.25,-356.84 447.25,-356.84 447.25,-356.84 207,-356.84 207,-356.84 201,-356.84 195,-350.84 195,-344.84 195,-344.84 195,-125.84 195,-125.84 195,-119.84 201,-113.84 207,-113.84"/>
<text xml:space="preserve" text-anchor="middle" x="327.12" y="-335.74" font-family="Arial" font-size="18.00">Artefacts Phase 4 déjà produits</text>
</g>
<g id="clust2" class="cluster">
<title>cluster_bridge</title>
<path fill="#fff8e1" stroke="#ffe0b2" d="M491.25,-167.84C491.25,-167.84 980.12,-167.84 980.12,-167.84 986.12,-167.84 992.12,-173.84 992.12,-179.84 992.12,-179.84 992.12,-290.84 992.12,-290.84 992.12,-296.84 986.12,-302.84 980.12,-302.84 980.12,-302.84 491.25,-302.84 491.25,-302.84 485.25,-302.84 479.25,-296.84 479.25,-290.84 479.25,-290.84 479.25,-179.84 479.25,-179.84 479.25,-173.84 485.25,-167.84 491.25,-167.84"/>
<text xml:space="preserve" text-anchor="middle" x="735.69" y="-281.74" font-family="Arial" font-size="18.00">Pont local pur</text>
</g>
<g id="clust3" class="cluster">
<title>cluster_output</title>
<path fill="#e8f5e9" stroke="#c8e6c9" d="M856.25,-24.84C856.25,-24.84 1118,-24.84 1118,-24.84 1124,-24.84 1130,-30.84 1130,-36.84 1130,-36.84 1130,-147.84 1130,-147.84 1130,-153.84 1124,-159.84 1118,-159.84 1118,-159.84 856.25,-159.84 856.25,-159.84 850.25,-159.84 844.25,-153.84 844.25,-147.84 844.25,-147.84 844.25,-36.84 844.25,-36.84 844.25,-30.84 850.25,-24.84 856.25,-24.84"/>
<text xml:space="preserve" text-anchor="middle" x="987.12" y="-138.74" font-family="Arial" font-size="18.00">Sortie Context Fabric</text>
</g>
<g id="clust4" class="cluster">
<title>cluster_boundaries</title>
<path fill="#ffffff" stroke="#b0bec5" stroke-dasharray="5,2" d="M20,-30.84C20,-30.84 163,-30.84 163,-30.84 169,-30.84 175,-36.84 175,-42.84 175,-42.84 175,-369.84 175,-369.84 175,-375.84 169,-381.84 163,-381.84 163,-381.84 20,-381.84 20,-381.84 14,-381.84 8,-375.84 8,-369.84 8,-369.84 8,-42.84 8,-42.84 8,-36.84 14,-30.84 20,-30.84"/>
<text xml:space="preserve" text-anchor="middle" x="91.5" y="-360.74" font-family="Arial" font-size="18.00">Frontières 5.1</text>
</g>
<g id="clust5" class="cluster">
<title>cluster_navigation</title>
<path fill="#ffffff" stroke="#90a4ae" stroke-dasharray="5,2" d="M25.25,-389.84C25.25,-389.84 157.75,-389.84 157.75,-389.84 163.75,-389.84 169.75,-395.84 169.75,-401.84 169.75,-401.84 169.75,-620.84 169.75,-620.84 169.75,-626.84 163.75,-632.84 157.75,-632.84 157.75,-632.84 25.25,-632.84 25.25,-632.84 19.25,-632.84 13.25,-626.84 13.25,-620.84 13.25,-620.84 13.25,-401.84 13.25,-401.84 13.25,-395.84 19.25,-389.84 25.25,-389.84"/>
<text xml:space="preserve" text-anchor="middle" x="91.5" y="-611.74" font-family="Arial" font-size="18.00">Navigation</text>
</g>
<!-- Report -->
<g id="node1" class="node">
<title>Report</title>
<path fill="#f5f5f5" stroke="#546e7a" d="M358.62,-157.84C358.62,-157.84 294.62,-157.84 294.62,-157.84 288.62,-157.84 282.62,-151.84 282.62,-145.84 282.62,-145.84 282.62,-133.84 282.62,-133.84 282.62,-127.84 288.62,-121.84 294.62,-121.84 294.62,-121.84 358.62,-121.84 358.62,-121.84 364.62,-121.84 370.62,-127.84 370.62,-133.84 370.62,-133.84 370.62,-145.84 370.62,-145.84 370.62,-151.84 364.62,-157.84 358.62,-157.84"/>
<text xml:space="preserve" text-anchor="middle" x="326.62" y="-142.34" font-family="Arial" font-size="10.00">report.json</text>
<text xml:space="preserve" text-anchor="middle" x="326.62" y="-130.34" font-family="Arial" font-size="10.00">E5SearchReport</text>
</g>
<!-- ArtifactBundle -->
<g id="node5" class="node">
<title>ArtifactBundle</title>
<path fill="#f5f5f5" stroke="#546e7a" d="M619.5,-211.84C619.5,-211.84 517.25,-211.84 517.25,-211.84 511.25,-211.84 505.25,-205.84 505.25,-199.84 505.25,-199.84 505.25,-187.84 505.25,-187.84 505.25,-181.84 511.25,-175.84 517.25,-175.84 517.25,-175.84 619.5,-175.84 619.5,-175.84 625.5,-175.84 631.5,-181.84 631.5,-187.84 631.5,-187.84 631.5,-199.84 631.5,-199.84 631.5,-205.84 625.5,-211.84 619.5,-211.84"/>
<text xml:space="preserve" text-anchor="middle" x="568.38" y="-196.34" font-family="Arial" font-size="10.00">E5RuntimeArtifactBundle</text>
<text xml:space="preserve" text-anchor="middle" x="568.38" y="-184.34" font-family="Arial" font-size="10.00">payloads déjà chargés</text>
</g>
<!-- Report&#45;&gt;ArtifactBundle -->
<g id="edge1" class="edge">
<title>Report&#45;&gt;ArtifactBundle</title>
<path fill="none" stroke="#455a64" d="M371,-148.25C396.71,-153.36 429.91,-160.17 459.25,-166.84 470.47,-169.39 482.32,-172.21 493.89,-175.04"/>
<polygon fill="#455a64" stroke="#455a64" points="492.86,-178.39 503.41,-177.39 494.54,-171.6 492.86,-178.39"/>
</g>
<!-- Bundle -->
<g id="node2" class="node">
<title>Bundle</title>
<path fill="#f5f5f5" stroke="#546e7a" d="M360.88,-211.84C360.88,-211.84 292.38,-211.84 292.38,-211.84 286.38,-211.84 280.38,-205.84 280.38,-199.84 280.38,-199.84 280.38,-187.84 280.38,-187.84 280.38,-181.84 286.38,-175.84 292.38,-175.84 292.38,-175.84 360.88,-175.84 360.88,-175.84 366.88,-175.84 372.88,-181.84 372.88,-187.84 372.88,-187.84 372.88,-199.84 372.88,-199.84 372.88,-205.84 366.88,-211.84 360.88,-211.84"/>
<text xml:space="preserve" text-anchor="middle" x="326.62" y="-196.34" font-family="Arial" font-size="10.00">context.json</text>
<text xml:space="preserve" text-anchor="middle" x="326.62" y="-184.34" font-family="Arial" font-size="10.00">E5ContextBundle</text>
</g>
<!-- Bundle&#45;&gt;ArtifactBundle -->
<g id="edge2" class="edge">
<title>Bundle&#45;&gt;ArtifactBundle</title>
<path fill="none" stroke="#455a64" d="M373.28,-193.84C407.29,-193.84 454.43,-193.84 493.74,-193.84"/>
<polygon fill="#455a64" stroke="#455a64" points="493.62,-197.34 503.62,-193.84 493.62,-190.34 493.62,-197.34"/>
</g>
<!-- Consumed -->
<g id="node3" class="node">
<title>Consumed</title>
<path fill="#f5f5f5" stroke="#546e7a" d="M374.38,-265.84C374.38,-265.84 278.88,-265.84 278.88,-265.84 272.88,-265.84 266.88,-259.84 266.88,-253.84 266.88,-253.84 266.88,-241.84 266.88,-241.84 266.88,-235.84 272.88,-229.84 278.88,-229.84 278.88,-229.84 374.38,-229.84 374.38,-229.84 380.38,-229.84 386.38,-235.84 386.38,-241.84 386.38,-241.84 386.38,-253.84 386.38,-253.84 386.38,-259.84 380.38,-265.84 374.38,-265.84"/>
<text xml:space="preserve" text-anchor="middle" x="326.62" y="-250.34" font-family="Arial" font-size="10.00">consumed_context.json</text>
<text xml:space="preserve" text-anchor="middle" x="326.62" y="-238.34" font-family="Arial" font-size="10.00">E5ConsumedContext</text>
</g>
<!-- Consumed&#45;&gt;ArtifactBundle -->
<g id="edge3" class="edge">
<title>Consumed&#45;&gt;ArtifactBundle</title>
<path fill="none" stroke="#455a64" d="M386.71,-236.27C409.43,-231.68 435.59,-226.21 459.25,-220.84 470.47,-218.29 482.32,-215.46 493.89,-212.63"/>
<polygon fill="#455a64" stroke="#455a64" points="494.54,-216.08 503.41,-210.28 492.86,-209.28 494.54,-216.08"/>
</g>
<!-- Prompt -->
<g id="node4" class="node">
<title>Prompt</title>
<path fill="#f5f5f5" stroke="#546e7a" d="M376.25,-319.84C376.25,-319.84 277,-319.84 277,-319.84 271,-319.84 265,-313.84 265,-307.84 265,-307.84 265,-295.84 265,-295.84 265,-289.84 271,-283.84 277,-283.84 277,-283.84 376.25,-283.84 376.25,-283.84 382.25,-283.84 388.25,-289.84 388.25,-295.84 388.25,-295.84 388.25,-307.84 388.25,-307.84 388.25,-313.84 382.25,-319.84 376.25,-319.84"/>
<text xml:space="preserve" text-anchor="middle" x="326.62" y="-304.34" font-family="Arial" font-size="10.00">prompt.json</text>
<text xml:space="preserve" text-anchor="middle" x="326.62" y="-292.34" font-family="Arial" font-size="10.00">E5AnswerPromptPacket</text>
</g>
<!-- Prompt&#45;&gt;ArtifactBundle -->
<g id="edge4" class="edge">
<title>Prompt&#45;&gt;ArtifactBundle</title>
<path fill="none" stroke="#455a64" d="M388.56,-301.77C412.98,-298.82 439.87,-291.47 459.25,-274.84 478.67,-258.17 460.64,-238.41 479.25,-220.84 483.95,-216.4 489.35,-212.7 495.13,-209.6"/>
<polygon fill="#455a64" stroke="#455a64" points="496.17,-212.97 503.76,-205.57 493.22,-206.63 496.17,-212.97"/>
</g>
<!-- Bridge -->
<g id="node7" class="node">
<title>Bridge</title>
<path fill="#f5f5f5" stroke="#546e7a" d="M804.25,-211.84C804.25,-211.84 697.5,-211.84 697.5,-211.84 691.5,-211.84 685.5,-205.84 685.5,-199.84 685.5,-199.84 685.5,-187.84 685.5,-187.84 685.5,-181.84 691.5,-175.84 697.5,-175.84 697.5,-175.84 804.25,-175.84 804.25,-175.84 810.25,-175.84 816.25,-181.84 816.25,-187.84 816.25,-187.84 816.25,-199.84 816.25,-199.84 816.25,-205.84 810.25,-211.84 804.25,-211.84"/>
<text xml:space="preserve" text-anchor="middle" x="750.88" y="-196.34" font-family="Arial" font-size="10.00">E5RuntimeBridge</text>
<text xml:space="preserve" text-anchor="middle" x="750.88" y="-184.34" font-family="Arial" font-size="10.00">aucun IO / aucun backend</text>
</g>
<!-- ArtifactBundle&#45;&gt;Bridge -->
<g id="edge5" class="edge">
<title>ArtifactBundle&#45;&gt;Bridge</title>
<path fill="none" stroke="#455a64" d="M632,-193.84C645.58,-193.84 660.08,-193.84 674.1,-193.84"/>
<polygon fill="#455a64" stroke="#455a64" points="673.7,-197.34 683.7,-193.84 673.7,-190.34 673.7,-197.34"/>
</g>
<!-- Policy -->
<g id="node6" class="node">
<title>Policy</title>
<path fill="#f5f5f5" stroke="#546e7a" d="M637.5,-265.84C637.5,-265.84 499.25,-265.84 499.25,-265.84 493.25,-265.84 487.25,-259.84 487.25,-253.84 487.25,-253.84 487.25,-241.84 487.25,-241.84 487.25,-235.84 493.25,-229.84 499.25,-229.84 499.25,-229.84 637.5,-229.84 637.5,-229.84 643.5,-229.84 649.5,-235.84 649.5,-241.84 649.5,-241.84 649.5,-253.84 649.5,-253.84 649.5,-259.84 643.5,-265.84 637.5,-265.84"/>
<text xml:space="preserve" text-anchor="middle" x="568.38" y="-250.34" font-family="Arial" font-size="10.00">E5RuntimeBridgePolicy</text>
<text xml:space="preserve" text-anchor="middle" x="568.38" y="-238.34" font-family="Arial" font-size="10.00">component + priority + text policy</text>
</g>
<!-- Policy&#45;&gt;Bridge -->
<g id="edge6" class="edge">
<title>Policy&#45;&gt;Bridge</title>
<path fill="none" stroke="#455a64" d="M630.99,-229.4C645.86,-224.95 661.9,-220.16 677.22,-215.57"/>
<polygon fill="#455a64" stroke="#455a64" points="678.21,-218.93 686.78,-212.71 676.2,-212.23 678.21,-218.93"/>
</g>
<!-- Result -->
<g id="node8" class="node">
<title>Result</title>
<path fill="#f5f5f5" stroke="#546e7a" d="M972.12,-211.84C972.12,-211.84 875.12,-211.84 875.12,-211.84 869.12,-211.84 863.12,-205.84 863.12,-199.84 863.12,-199.84 863.12,-187.84 863.12,-187.84 863.12,-181.84 869.12,-175.84 875.12,-175.84 875.12,-175.84 972.12,-175.84 972.12,-175.84 978.12,-175.84 984.12,-181.84 984.12,-187.84 984.12,-187.84 984.12,-199.84 984.12,-199.84 984.12,-205.84 978.12,-211.84 972.12,-211.84"/>
<text xml:space="preserve" text-anchor="middle" x="923.62" y="-196.34" font-family="Arial" font-size="10.00">E5RuntimeBridgeResult</text>
<text xml:space="preserve" text-anchor="middle" x="923.62" y="-184.34" font-family="Arial" font-size="10.00">projection audit</text>
</g>
<!-- Bridge&#45;&gt;Result -->
<g id="edge7" class="edge">
<title>Bridge&#45;&gt;Result</title>
<path fill="none" stroke="#455a64" d="M816.43,-193.84C827.83,-193.84 839.76,-193.84 851.34,-193.84"/>
<polygon fill="#455a64" stroke="#455a64" points="851.25,-197.34 861.25,-193.84 851.25,-190.34 851.25,-197.34"/>
</g>
<!-- Features -->
<g id="node9" class="node">
<title>Features</title>
<path fill="#f5f5f5" stroke="#546e7a" d="M983,-68.84C983,-68.84 864.25,-68.84 864.25,-68.84 858.25,-68.84 852.25,-62.84 852.25,-56.84 852.25,-56.84 852.25,-44.84 852.25,-44.84 852.25,-38.84 858.25,-32.84 864.25,-32.84 864.25,-32.84 983,-32.84 983,-32.84 989,-32.84 995,-38.84 995,-44.84 995,-44.84 995,-56.84 995,-56.84 995,-62.84 989,-68.84 983,-68.84"/>
<text xml:space="preserve" text-anchor="middle" x="923.62" y="-53.34" font-family="Arial" font-size="10.00">features</text>
<text xml:space="preserve" text-anchor="middle" x="923.62" y="-41.34" font-family="Arial" font-size="10.00">missipy.e5.runtime_bridge.v1</text>
</g>
<!-- Bridge&#45;&gt;Features -->
<g id="edge8" class="edge">
<title>Bridge&#45;&gt;Features</title>
<path fill="none" stroke="#455a64" d="M761.95,-175.46C776.78,-150.03 806.82,-104.28 844.25,-77.84 845.83,-76.72 847.45,-75.65 849.12,-74.62"/>
<polygon fill="#455a64" stroke="#455a64" points="850.63,-77.78 857.71,-69.9 847.26,-71.65 850.63,-77.78"/>
</g>
<!-- Priorities -->
<g id="node10" class="node">
<title>Priorities</title>
<path fill="#f5f5f5" stroke="#546e7a" d="M959.75,-122.84C959.75,-122.84 887.5,-122.84 887.5,-122.84 881.5,-122.84 875.5,-116.84 875.5,-110.84 875.5,-110.84 875.5,-98.84 875.5,-98.84 875.5,-92.84 881.5,-86.84 887.5,-86.84 887.5,-86.84 959.75,-86.84 959.75,-86.84 965.75,-86.84 971.75,-92.84 971.75,-98.84 971.75,-98.84 971.75,-110.84 971.75,-110.84 971.75,-116.84 965.75,-122.84 959.75,-122.84"/>
<text xml:space="preserve" text-anchor="middle" x="923.62" y="-107.34" font-family="Arial" font-size="10.00">priorities</text>
<text xml:space="preserve" text-anchor="middle" x="923.62" y="-95.34" font-family="Arial" font-size="10.00">component priority</text>
</g>
<!-- Bridge&#45;&gt;Priorities -->
<g id="edge9" class="edge">
<title>Bridge&#45;&gt;Priorities</title>
<path fill="none" stroke="#455a64" d="M787.25,-175.4C813.35,-161.79 849.08,-143.17 877.28,-128.47"/>
<polygon fill="#455a64" stroke="#455a64" points="878.7,-131.68 885.95,-123.95 875.46,-125.47 878.7,-131.68"/>
</g>
<!-- InferenceContext -->
<g id="node11" class="node">
<title>InferenceContext</title>
<g id="a_node11"><a xlink:href="20_context.svg" xlink:title="InferenceContext">
<path fill="#f5f5f5" stroke="#546e7a" d="M1110,-122.84C1110,-122.84 1043,-122.84 1043,-122.84 1037,-122.84 1031,-116.84 1031,-110.84 1031,-110.84 1031,-98.84 1031,-98.84 1031,-92.84 1037,-86.84 1043,-86.84 1043,-86.84 1110,-86.84 1110,-86.84 1116,-86.84 1122,-92.84 1122,-98.84 1122,-98.84 1122,-110.84 1122,-110.84 1122,-116.84 1116,-122.84 1110,-122.84"/>
<text xml:space="preserve" text-anchor="middle" x="1076.5" y="-101.34" font-family="Arial" font-size="10.00">InferenceContext</text>
</a>
</g>
</g>
<!-- Features&#45;&gt;InferenceContext -->
<g id="edge10" class="edge">
<title>Features&#45;&gt;InferenceContext</title>
<path fill="none" stroke="#455a64" d="M976.13,-69.27C990.28,-74.33 1005.68,-79.85 1020.04,-84.99"/>
<polygon fill="#455a64" stroke="#455a64" points="1018.76,-88.25 1029.36,-88.32 1021.12,-81.66 1018.76,-88.25"/>
</g>
<!-- Priorities&#45;&gt;InferenceContext -->
<g id="edge11" class="edge">
<title>Priorities&#45;&gt;InferenceContext</title>
<path fill="none" stroke="#455a64" d="M971.95,-104.84C987.04,-104.84 1003.88,-104.84 1019.52,-104.84"/>
<polygon fill="#455a64" stroke="#455a64" points="1019.15,-108.34 1029.15,-104.84 1019.15,-101.34 1019.15,-108.34"/>
</g>
<!-- NoRead -->
<g id="node12" class="node">
<title>NoRead</title>
<path fill="#f5f5f5" stroke="#546e7a" d="M132.5,-290.84C132.5,-290.84 50.5,-290.84 50.5,-290.84 44.5,-290.84 38.5,-284.84 38.5,-278.84 38.5,-278.84 38.5,-266.84 38.5,-266.84 38.5,-260.84 44.5,-254.84 50.5,-254.84 50.5,-254.84 132.5,-254.84 132.5,-254.84 138.5,-254.84 144.5,-260.84 144.5,-266.84 144.5,-266.84 144.5,-278.84 144.5,-278.84 144.5,-284.84 138.5,-290.84 132.5,-290.84"/>
<text xml:space="preserve" text-anchor="middle" x="91.5" y="-269.34" font-family="Arial" font-size="10.00">ne lit pas les fichiers</text>
</g>
<!-- NoRead&#45;&gt;ArtifactBundle -->
<g id="edge12" class="edge">
<title>NoRead&#45;&gt;ArtifactBundle</title>
<path fill="none" stroke="#455a64" stroke-dasharray="5,2" d="M144.63,-281.79C155.78,-285.77 166.69,-291.53 175,-299.84 195.18,-320.01 171.9,-344.1 195,-360.84 242.55,-395.29 414.89,-399.31 459.25,-360.84 506.73,-319.66 438.39,-268.6 479.25,-220.84 483.65,-215.7 489,-211.52 494.86,-208.12"/>
<polygon fill="#455a64" stroke="#455a64" points="496.33,-211.3 503.79,-203.78 493.26,-205.01 496.33,-211.3"/>
</g>
<!-- NoScheduler -->
<g id="node13" class="node">
<title>NoScheduler</title>
<path fill="#f5f5f5" stroke="#546e7a" d="M143.75,-344.84C143.75,-344.84 39.25,-344.84 39.25,-344.84 33.25,-344.84 27.25,-338.84 27.25,-332.84 27.25,-332.84 27.25,-320.84 27.25,-320.84 27.25,-314.84 33.25,-308.84 39.25,-308.84 39.25,-308.84 143.75,-308.84 143.75,-308.84 149.75,-308.84 155.75,-314.84 155.75,-320.84 155.75,-320.84 155.75,-332.84 155.75,-332.84 155.75,-338.84 149.75,-344.84 143.75,-344.84"/>
<text xml:space="preserve" text-anchor="middle" x="91.5" y="-323.34" font-family="Arial" font-size="10.00">ne lance pas le Scheduler</text>
</g>
<!-- NoScheduler&#45;&gt;InferenceContext -->
<g id="edge13" class="edge">
<title>NoScheduler&#45;&gt;InferenceContext</title>
<path fill="none" stroke="#455a64" stroke-dasharray="5,2" d="M115.36,-345.12C135.16,-359.81 165.24,-379.49 195,-388.84 353.23,-438.51 401.53,-412.84 567.38,-412.84 567.38,-412.84 567.38,-412.84 751.88,-412.84 869.75,-412.84 912.99,-391.51 995,-306.84 1042.42,-257.88 1062.99,-177.52 1071,-134.39"/>
<polygon fill="#455a64" stroke="#455a64" points="1074.41,-135.21 1072.68,-124.76 1067.51,-134.01 1074.41,-135.21"/>
</g>
<!-- NoQdrant -->
<g id="node14" class="node">
<title>NoQdrant</title>
<path fill="#f5f5f5" stroke="#546e7a" d="M118.25,-182.84C118.25,-182.84 64.75,-182.84 64.75,-182.84 58.75,-182.84 52.75,-176.84 52.75,-170.84 52.75,-170.84 52.75,-158.84 52.75,-158.84 52.75,-152.84 58.75,-146.84 64.75,-146.84 64.75,-146.84 118.25,-146.84 118.25,-146.84 124.25,-146.84 130.25,-152.84 130.25,-158.84 130.25,-158.84 130.25,-170.84 130.25,-170.84 130.25,-176.84 124.25,-182.84 118.25,-182.84"/>
<text xml:space="preserve" text-anchor="middle" x="91.5" y="-161.34" font-family="Arial" font-size="10.00">pas de Qdrant</text>
</g>
<!-- NoQdrant&#45;&gt;Bridge -->
<g id="edge14" class="edge">
<title>NoQdrant&#45;&gt;Bridge</title>
<path fill="none" stroke="#455a64" stroke-dasharray="5,2" d="M130.6,-157.74C145.46,-153.66 162,-147.38 175,-137.84 187.33,-128.79 181.4,-116.83 195,-109.84 299.43,-56.1 342.97,-93.37 459.25,-109.84 541.45,-121.48 632.93,-150.77 690.9,-171.47"/>
<polygon fill="#455a64" stroke="#455a64" points="689.67,-174.75 700.26,-174.85 692.04,-168.16 689.67,-174.75"/>
</g>
<!-- NoNetwork -->
<g id="node15" class="node">
<title>NoNetwork</title>
<path fill="#f5f5f5" stroke="#546e7a" d="M147.5,-128.84C147.5,-128.84 35.5,-128.84 35.5,-128.84 29.5,-128.84 23.5,-122.84 23.5,-116.84 23.5,-116.84 23.5,-104.84 23.5,-104.84 23.5,-98.84 29.5,-92.84 35.5,-92.84 35.5,-92.84 147.5,-92.84 147.5,-92.84 153.5,-92.84 159.5,-98.84 159.5,-104.84 159.5,-104.84 159.5,-116.84 159.5,-116.84 159.5,-122.84 153.5,-128.84 147.5,-128.84"/>
<text xml:space="preserve" text-anchor="middle" x="91.5" y="-107.34" font-family="Arial" font-size="10.00">pas de réseau / GitHub API</text>
</g>
<!-- NoNetwork&#45;&gt;Bridge -->
<g id="edge15" class="edge">
<title>NoNetwork&#45;&gt;Bridge</title>
<path fill="none" stroke="#455a64" stroke-dasharray="5,2" d="M148.53,-92.4C171.03,-85.07 192.32,-78.26 195,-77.84 395.05,-46.43 465.58,-25.1 649.5,-109.84 679.16,-123.5 707.16,-148.3 726.01,-167.43"/>
<polygon fill="#455a64" stroke="#455a64" points="723.25,-169.61 732.7,-174.4 728.3,-164.76 723.25,-169.61"/>
</g>
<!-- NoLLM -->
<g id="node16" class="node">
<title>NoLLM</title>
<path fill="#f5f5f5" stroke="#546e7a" d="M137,-236.84C137,-236.84 46,-236.84 46,-236.84 40,-236.84 34,-230.84 34,-224.84 34,-224.84 34,-212.84 34,-212.84 34,-206.84 40,-200.84 46,-200.84 46,-200.84 137,-200.84 137,-200.84 143,-200.84 149,-206.84 149,-212.84 149,-212.84 149,-224.84 149,-224.84 149,-230.84 143,-236.84 137,-236.84"/>
<text xml:space="preserve" text-anchor="middle" x="91.5" y="-215.34" font-family="Arial" font-size="10.00">pas de génération LLM</text>
</g>
<!-- NoLLM&#45;&gt;Prompt -->
<g id="edge16" class="edge">
<title>NoLLM&#45;&gt;Prompt</title>
<path fill="none" stroke="#455a64" stroke-dasharray="5,2" d="M149.07,-231.88C158.25,-235.49 167.27,-240.06 175,-245.84 187.54,-255.21 181.95,-266.19 195,-274.84 212.26,-286.28 233.41,-293.02 253.61,-296.95"/>
<polygon fill="#455a64" stroke="#455a64" points="252.77,-300.36 263.22,-298.6 253.96,-293.46 252.77,-300.36"/>
</g>
<!-- Stdlib -->
<g id="node17" class="node">
<title>Stdlib</title>
<path fill="#f5f5f5" stroke="#546e7a" d="M155,-74.84C155,-74.84 28,-74.84 28,-74.84 22,-74.84 16,-68.84 16,-62.84 16,-62.84 16,-50.84 16,-50.84 16,-44.84 22,-38.84 28,-38.84 28,-38.84 155,-38.84 155,-38.84 161,-38.84 167,-44.84 167,-50.84 167,-50.84 167,-62.84 167,-62.84 167,-68.84 161,-74.84 155,-74.84"/>
<text xml:space="preserve" text-anchor="middle" x="91.5" y="-53.34" font-family="Arial" font-size="10.00">aucune dépendance hors stdlib</text>
</g>
<!-- Stdlib&#45;&gt;Bridge -->
<g id="edge17" class="edge">
<title>Stdlib&#45;&gt;Bridge</title>
<path fill="none" stroke="#455a64" stroke-dasharray="5,2" d="M152.62,-38.41C259.8,-9.22 487.81,35.93 649.5,-50.84 695.2,-75.36 724.63,-130.92 739.14,-165.12"/>
<polygon fill="#455a64" stroke="#455a64" points="735.74,-166.06 742.76,-174 742.23,-163.42 735.74,-166.06"/>
</g>
<!-- Global -->
<g id="node18" class="node">
<title>Global</title>
<g id="a_node18"><a xlink:href="../00_global.svg" xlink:title="← Global architecture">
<path fill="#f5f5f5" stroke="none" d="M134.75,-433.84C134.75,-433.84 48.25,-433.84 48.25,-433.84 42.25,-433.84 36.25,-427.84 36.25,-421.84 36.25,-421.84 36.25,-409.84 36.25,-409.84 36.25,-403.84 42.25,-397.84 48.25,-397.84 48.25,-397.84 134.75,-397.84 134.75,-397.84 140.75,-397.84 146.75,-403.84 146.75,-409.84 146.75,-409.84 146.75,-421.84 146.75,-421.84 146.75,-427.84 140.75,-433.84 134.75,-433.84"/>
<text xml:space="preserve" text-anchor="middle" x="91.5" y="-412.34" font-family="Arial" font-size="10.00">← Global architecture</text>
</a>
</g>
</g>
<!-- Context -->
<g id="node19" class="node">
<title>Context</title>
<g id="a_node19"><a xlink:href="20_context.svg" xlink:title="← Context Fabric">
<path fill="#f5f5f5" stroke="none" d="M126.12,-487.84C126.12,-487.84 56.88,-487.84 56.88,-487.84 50.88,-487.84 44.88,-481.84 44.88,-475.84 44.88,-475.84 44.88,-463.84 44.88,-463.84 44.88,-457.84 50.88,-451.84 56.88,-451.84 56.88,-451.84 126.12,-451.84 126.12,-451.84 132.12,-451.84 138.12,-457.84 138.12,-463.84 138.12,-463.84 138.12,-475.84 138.12,-475.84 138.12,-481.84 132.12,-487.84 126.12,-487.84"/>
<text xml:space="preserve" text-anchor="middle" x="91.5" y="-466.34" font-family="Arial" font-size="10.00">← Context Fabric</text>
</a>
</g>
</g>
<!-- Parent -->
<g id="node20" class="node">
<title>Parent</title>
<g id="a_node20"><a xlink:href="../inference/74_e5_phase4_closure.svg" xlink:title="← Phase 4 closure">
<path fill="#f5f5f5" stroke="none" d="M129.12,-541.84C129.12,-541.84 53.88,-541.84 53.88,-541.84 47.88,-541.84 41.88,-535.84 41.88,-529.84 41.88,-529.84 41.88,-517.84 41.88,-517.84 41.88,-511.84 47.88,-505.84 53.88,-505.84 53.88,-505.84 129.12,-505.84 129.12,-505.84 135.12,-505.84 141.12,-511.84 141.12,-517.84 141.12,-517.84 141.12,-529.84 141.12,-529.84 141.12,-535.84 135.12,-541.84 129.12,-541.84"/>
<text xml:space="preserve" text-anchor="middle" x="91.5" y="-520.34" font-family="Arial" font-size="10.00">← Phase 4 closure</text>
</a>
</g>
</g>
<!-- Next -->
<g id="node21" class="node">
<title>Next</title>
<g id="a_node21"><a xlink:href="26_e5_artifact_directory_loader.svg" xlink:title="next: artifact directory loader">
<path fill="#f5f5f5" stroke="none" d="M149.75,-595.84C149.75,-595.84 33.25,-595.84 33.25,-595.84 27.25,-595.84 21.25,-589.84 21.25,-583.84 21.25,-583.84 21.25,-571.84 21.25,-571.84 21.25,-565.84 27.25,-559.84 33.25,-559.84 33.25,-559.84 149.75,-559.84 149.75,-559.84 155.75,-559.84 161.75,-565.84 161.75,-571.84 161.75,-571.84 161.75,-583.84 161.75,-583.84 161.75,-589.84 155.75,-595.84 149.75,-595.84"/>
<text xml:space="preserve" text-anchor="middle" x="91.5" y="-574.34" font-family="Arial" font-size="10.00">next: artifact directory loader</text>
</a>
</g>
</g>
</g>
</svg>
