<?xml version="1.0" encoding="UTF-8" standalone="no"?>
<!DOCTYPE svg PUBLIC "-//W3C//DTD SVG 1.1//EN"
 "http://www.w3.org/Graphics/SVG/1.1/DTD/svg11.dtd">
<!-- Generated by graphviz version 14.1.3 (20260303.0454)
 -->
<!-- Title: E5ArtifactDirectoryLoader Pages: 1 -->
<svg width="1406pt" height="906pt"
 viewBox="0.00 0.00 1406.00 906.00" xmlns="http://www.w3.org/2000/svg" xmlns:xlink="http://www.w3.org/1999/xlink">
<g id="graph0" class="graph" transform="scale(1 1) rotate(0) translate(4 902)">
<title>E5ArtifactDirectoryLoader</title>
<polygon fill="#ffffff" stroke="none" points="-4,4 -4,-902 1402.25,-902 1402.25,4 -4,4"/>
<text xml:space="preserve" text-anchor="middle" x="699.12" y="-876.9" font-family="Arial" font-size="18.00">Phase 5.2 — E5 artifact directory loader</text>
<g id="clust1" class="cluster">
<title>cluster_directory</title>
<path fill="#e3f2fd" stroke="#bbdefb" d="M52.62,-367C52.62,-367 314,-367 314,-367 320,-367 326,-373 326,-379 326,-379 326,-598 326,-598 326,-604 320,-610 314,-610 314,-610 52.62,-610 52.62,-610 46.62,-610 40.62,-604 40.62,-598 40.62,-598 40.62,-379 40.62,-379 40.62,-373 46.62,-367 52.62,-367"/>
<text xml:space="preserve" text-anchor="middle" x="183.31" y="-588.9" font-family="Arial" font-size="18.00">Artifact directory Phase 4</text>
</g>
<g id="clust2" class="cluster">
<title>cluster_loader</title>
<path fill="#fff8e1" stroke="#ffe0b2" d="M180.75,-618C180.75,-618 760.75,-618 760.75,-618 766.75,-618 772.75,-624 772.75,-630 772.75,-630 772.75,-687 772.75,-687 772.75,-693 766.75,-699 760.75,-699 760.75,-699 180.75,-699 180.75,-699 174.75,-699 168.75,-693 168.75,-687 168.75,-687 168.75,-630 168.75,-630 168.75,-624 174.75,-618 180.75,-618"/>
<text xml:space="preserve" text-anchor="middle" x="470.75" y="-677.9" font-family="Arial" font-size="18.00">Bordure IO contrôlée</text>
</g>
<g id="clust3" class="cluster">
<title>cluster_bridge</title>
<path fill="#e8f5e9" stroke="#c8e6c9" d="M804.75,-158C804.75,-158 1378.25,-158 1378.25,-158 1384.25,-158 1390.25,-164 1390.25,-170 1390.25,-170 1390.25,-227 1390.25,-227 1390.25,-233 1384.25,-239 1378.25,-239 1378.25,-239 804.75,-239 804.75,-239 798.75,-239 792.75,-233 792.75,-227 792.75,-227 792.75,-170 792.75,-170 792.75,-164 798.75,-158 804.75,-158"/>
<text xml:space="preserve" text-anchor="middle" x="1091.5" y="-217.9" font-family="Arial" font-size="18.00">Réutilisation Phase 5.1</text>
</g>
<g id="clust4" class="cluster">
<title>cluster_boundaries</title>
<path fill="#ffffff" stroke="#b0bec5" stroke-dasharray="5,2" d="M194.25,-8C194.25,-8 322.25,-8 322.25,-8 328.25,-8 334.25,-14 334.25,-20 334.25,-20 334.25,-347 334.25,-347 334.25,-353 328.25,-359 322.25,-359 322.25,-359 194.25,-359 194.25,-359 188.25,-359 182.25,-353 182.25,-347 182.25,-347 182.25,-20 182.25,-20 182.25,-14 188.25,-8 194.25,-8"/>
<text xml:space="preserve" text-anchor="middle" x="258.25" y="-337.9" font-family="Arial" font-size="18.00">Frontières 5.2</text>
</g>
<g id="clust5" class="cluster">
<title>cluster_navigation</title>
<path fill="#ffffff" stroke="#90a4ae" stroke-dasharray="5,2" d="M20,-618C20,-618 136.75,-618 136.75,-618 142.75,-618 148.75,-624 148.75,-630 148.75,-630 148.75,-849 148.75,-849 148.75,-855 142.75,-861 136.75,-861 136.75,-861 20,-861 20,-861 14,-861 8,-855 8,-849 8,-849 8,-630 8,-630 8,-624 14,-618 20,-618"/>
<text xml:space="preserve" text-anchor="middle" x="78.38" y="-839.9" font-family="Arial" font-size="18.00">Navigation</text>
</g>
<!-- Directory -->
<g id="node1" class="node">
<title>Directory</title>
<path fill="#f5f5f5" stroke="#546e7a" d="M96.12,-492C96.12,-492 60.62,-492 60.62,-492 54.62,-492 48.62,-486 48.62,-480 48.62,-480 48.62,-468 48.62,-468 48.62,-462 54.62,-456 60.62,-456 60.62,-456 96.12,-456 96.12,-456 102.12,-456 108.12,-462 108.12,-468 108.12,-468 108.12,-480 108.12,-480 108.12,-486 102.12,-492 96.12,-492"/>
<text xml:space="preserve" text-anchor="middle" x="78.38" y="-476.5" font-family="Arial" font-size="10.00">artifact&#45;dir</text>
<text xml:space="preserve" text-anchor="middle" x="78.38" y="-464.5" font-family="Arial" font-size="10.00">DIR</text>
</g>
<!-- ReportFile -->
<g id="node2" class="node">
<title>ReportFile</title>
<path fill="#f5f5f5" stroke="#546e7a" d="M277.12,-411C277.12,-411 239.38,-411 239.38,-411 233.38,-411 227.38,-405 227.38,-399 227.38,-399 227.38,-387 227.38,-387 227.38,-381 233.38,-375 239.38,-375 239.38,-375 277.12,-375 277.12,-375 283.12,-375 289.12,-381 289.12,-387 289.12,-387 289.12,-399 289.12,-399 289.12,-405 283.12,-411 277.12,-411"/>
<text xml:space="preserve" text-anchor="middle" x="258.25" y="-389.5" font-family="Arial" font-size="10.00">report.json</text>
</g>
<!-- Directory&#45;&gt;ReportFile -->
<g id="edge1" class="edge">
<title>Directory&#45;&gt;ReportFile</title>
<path fill="none" stroke="#455a64" d="M105.81,-455.64C123.12,-444.23 146.57,-429.9 168.75,-420 183.86,-413.26 201.14,-407.57 216.39,-403.18"/>
<polygon fill="#455a64" stroke="#455a64" points="216.92,-406.66 225.62,-400.62 215.05,-399.92 216.92,-406.66"/>
</g>
<!-- ContextFile -->
<g id="node3" class="node">
<title>ContextFile</title>
<path fill="#f5f5f5" stroke="#546e7a" d="M280.88,-465C280.88,-465 235.62,-465 235.62,-465 229.62,-465 223.62,-459 223.62,-453 223.62,-453 223.62,-441 223.62,-441 223.62,-435 229.62,-429 235.62,-429 235.62,-429 280.88,-429 280.88,-429 286.88,-429 292.88,-435 292.88,-441 292.88,-441 292.88,-453 292.88,-453 292.88,-459 286.88,-465 280.88,-465"/>
<text xml:space="preserve" text-anchor="middle" x="258.25" y="-443.5" font-family="Arial" font-size="10.00">context.json</text>
</g>
<!-- Directory&#45;&gt;ContextFile -->
<g id="edge2" class="edge">
<title>Directory&#45;&gt;ContextFile</title>
<path fill="none" stroke="#455a64" d="M108.35,-469.6C136.53,-465.32 179.74,-458.77 212.37,-453.81"/>
<polygon fill="#455a64" stroke="#455a64" points="212.57,-457.32 221.93,-452.36 211.52,-450.4 212.57,-457.32"/>
</g>
<!-- ConsumedFile -->
<g id="node4" class="node">
<title>ConsumedFile</title>
<path fill="#f5f5f5" stroke="#546e7a" d="M306,-519C306,-519 210.5,-519 210.5,-519 204.5,-519 198.5,-513 198.5,-507 198.5,-507 198.5,-495 198.5,-495 198.5,-489 204.5,-483 210.5,-483 210.5,-483 306,-483 306,-483 312,-483 318,-489 318,-495 318,-495 318,-507 318,-507 318,-513 312,-519 306,-519"/>
<text xml:space="preserve" text-anchor="middle" x="258.25" y="-497.5" font-family="Arial" font-size="10.00">consumed_context.json</text>
</g>
<!-- Directory&#45;&gt;ConsumedFile -->
<g id="edge3" class="edge">
<title>Directory&#45;&gt;ConsumedFile</title>
<path fill="none" stroke="#455a64" d="M108.35,-478.4C129.63,-481.63 159.5,-486.16 186.89,-490.32"/>
<polygon fill="#455a64" stroke="#455a64" points="186.14,-493.75 196.55,-491.79 187.19,-486.83 186.14,-493.75"/>
</g>
<!-- PromptFile -->
<g id="node5" class="node">
<title>PromptFile</title>
<path fill="#f5f5f5" stroke="#546e7a" d="M279.75,-573C279.75,-573 236.75,-573 236.75,-573 230.75,-573 224.75,-567 224.75,-561 224.75,-561 224.75,-549 224.75,-549 224.75,-543 230.75,-537 236.75,-537 236.75,-537 279.75,-537 279.75,-537 285.75,-537 291.75,-543 291.75,-549 291.75,-549 291.75,-561 291.75,-561 291.75,-567 285.75,-573 279.75,-573"/>
<text xml:space="preserve" text-anchor="middle" x="258.25" y="-551.5" font-family="Arial" font-size="10.00">prompt.json</text>
</g>
<!-- Directory&#45;&gt;PromptFile -->
<g id="edge4" class="edge">
<title>Directory&#45;&gt;PromptFile</title>
<path fill="none" stroke="#455a64" d="M105.81,-492.36C123.12,-503.77 146.57,-518.1 168.75,-528 183.01,-534.37 199.2,-539.79 213.8,-544.07"/>
<polygon fill="#455a64" stroke="#455a64" points="212.57,-547.36 223.14,-546.71 214.47,-540.62 212.57,-547.36"/>
</g>
<!-- Loader -->
<g id="node7" class="node">
<title>Loader</title>
<path fill="#f5f5f5" stroke="#546e7a" d="M529,-662C529,-662 387.75,-662 387.75,-662 381.75,-662 375.75,-656 375.75,-650 375.75,-650 375.75,-638 375.75,-638 375.75,-632 381.75,-626 387.75,-626 387.75,-626 529,-626 529,-626 535,-626 541,-632 541,-638 541,-638 541,-650 541,-650 541,-656 535,-662 529,-662"/>
<text xml:space="preserve" text-anchor="middle" x="458.38" y="-646.5" font-family="Arial" font-size="10.00">E5RuntimeArtifactDirectoryLoader</text>
<text xml:space="preserve" text-anchor="middle" x="458.38" y="-634.5" font-family="Arial" font-size="10.00">lecture JSON objets</text>
</g>
<!-- ReportFile&#45;&gt;Loader -->
<g id="edge5" class="edge">
<title>ReportFile&#45;&gt;Loader</title>
<path fill="none" stroke="#455a64" d="M289.5,-397.5C305.89,-401.23 325.61,-407.96 339.75,-420 401.87,-472.9 435.77,-566.97 449.7,-614.61"/>
<polygon fill="#455a64" stroke="#455a64" points="446.32,-615.54 452.4,-624.21 453.06,-613.64 446.32,-615.54"/>
</g>
<!-- ContextFile&#45;&gt;Loader -->
<g id="edge6" class="edge">
<title>ContextFile&#45;&gt;Loader</title>
<path fill="none" stroke="#455a64" d="M293.28,-453.28C308.58,-457.33 326.2,-463.81 339.75,-474 390.15,-511.88 426.76,-577.82 444.78,-615.47"/>
<polygon fill="#455a64" stroke="#455a64" points="441.53,-616.79 448.93,-624.37 447.88,-613.83 441.53,-616.79"/>
</g>
<!-- ConsumedFile&#45;&gt;Loader -->
<g id="edge7" class="edge">
<title>ConsumedFile&#45;&gt;Loader</title>
<path fill="none" stroke="#455a64" d="M318.27,-517.29C325.74,-520.36 333.09,-523.91 339.75,-528 378.66,-551.91 414.67,-590.95 436.34,-617.05"/>
<polygon fill="#455a64" stroke="#455a64" points="433.4,-618.99 442.43,-624.53 438.82,-614.56 433.4,-618.99"/>
</g>
<!-- PromptFile&#45;&gt;Loader -->
<g id="edge8" class="edge">
<title>PromptFile&#45;&gt;Loader</title>
<path fill="none" stroke="#455a64" d="M291.97,-569.7C322.98,-583.63 370.04,-604.77 406.05,-620.94"/>
<polygon fill="#455a64" stroke="#455a64" points="404.42,-624.05 414.98,-624.96 407.29,-617.67 404.42,-624.05"/>
</g>
<!-- Policy -->
<g id="node6" class="node">
<title>Policy</title>
<path fill="#f5f5f5" stroke="#546e7a" d="M327.75,-662C327.75,-662 188.75,-662 188.75,-662 182.75,-662 176.75,-656 176.75,-650 176.75,-650 176.75,-638 176.75,-638 176.75,-632 182.75,-626 188.75,-626 188.75,-626 327.75,-626 327.75,-626 333.75,-626 339.75,-632 339.75,-638 339.75,-638 339.75,-650 339.75,-650 339.75,-656 333.75,-662 327.75,-662"/>
<text xml:space="preserve" text-anchor="middle" x="258.25" y="-646.5" font-family="Arial" font-size="10.00">E5RuntimeArtifactDirectoryPolicy</text>
<text xml:space="preserve" text-anchor="middle" x="258.25" y="-634.5" font-family="Arial" font-size="10.00">filenames + encoding</text>
</g>
<!-- Policy&#45;&gt;Loader -->
<g id="edge9" class="edge">
<title>Policy&#45;&gt;Loader</title>
<path fill="none" stroke="#455a64" d="M340.12,-644C348.05,-644 356.14,-644 364.17,-644"/>
<polygon fill="#455a64" stroke="#455a64" points="363.96,-647.5 373.96,-644 363.96,-640.5 363.96,-647.5"/>
</g>
<!-- ReadResult -->
<g id="node8" class="node">
<title>ReadResult</title>
<path fill="#f5f5f5" stroke="#546e7a" d="M752.75,-662C752.75,-662 589,-662 589,-662 583,-662 577,-656 577,-650 577,-650 577,-638 577,-638 577,-632 583,-626 589,-626 589,-626 752.75,-626 752.75,-626 758.75,-626 764.75,-632 764.75,-638 764.75,-638 764.75,-650 764.75,-650 764.75,-656 758.75,-662 752.75,-662"/>
<text xml:space="preserve" text-anchor="middle" x="670.88" y="-646.5" font-family="Arial" font-size="10.00">E5RuntimeArtifactDirectoryReadResult</text>
<text xml:space="preserve" text-anchor="middle" x="670.88" y="-634.5" font-family="Arial" font-size="10.00">paths + bundle</text>
</g>
<!-- Loader&#45;&gt;ReadResult -->
<g id="edge10" class="edge">
<title>Loader&#45;&gt;ReadResult</title>
<path fill="none" stroke="#455a64" d="M541.36,-644C549.21,-644 557.24,-644 565.26,-644"/>
<polygon fill="#455a64" stroke="#455a64" points="565.07,-647.5 575.07,-644 565.07,-640.5 565.07,-647.5"/>
</g>
<!-- Bundle -->
<g id="node9" class="node">
<title>Bundle</title>
<path fill="#f5f5f5" stroke="#546e7a" d="M915,-202C915,-202 812.75,-202 812.75,-202 806.75,-202 800.75,-196 800.75,-190 800.75,-190 800.75,-178 800.75,-178 800.75,-172 806.75,-166 812.75,-166 812.75,-166 915,-166 915,-166 921,-166 927,-172 927,-178 927,-178 927,-190 927,-190 927,-196 921,-202 915,-202"/>
<text xml:space="preserve" text-anchor="middle" x="863.88" y="-186.5" font-family="Arial" font-size="10.00">E5RuntimeArtifactBundle</text>
<text xml:space="preserve" text-anchor="middle" x="863.88" y="-174.5" font-family="Arial" font-size="10.00">payloads chargés</text>
</g>
<!-- ReadResult&#45;&gt;Bundle -->
<g id="edge11" class="edge">
<title>ReadResult&#45;&gt;Bundle</title>
<path fill="none" stroke="#455a64" d="M679.48,-625.68C708.83,-555 814.87,-299.63 850.84,-212.99"/>
<polygon fill="#455a64" stroke="#455a64" points="854.07,-214.34 854.67,-203.77 847.6,-211.66 854.07,-214.34"/>
</g>
<!-- DirectoryBridge -->
<g id="node10" class="node">
<title>DirectoryBridge</title>
<path fill="#f5f5f5" stroke="#546e7a" d="M1114.75,-202C1114.75,-202 975,-202 975,-202 969,-202 963,-196 963,-190 963,-190 963,-178 963,-178 963,-172 969,-166 975,-166 975,-166 1114.75,-166 1114.75,-166 1120.75,-166 1126.75,-172 1126.75,-178 1126.75,-178 1126.75,-190 1126.75,-190 1126.75,-196 1120.75,-202 1114.75,-202"/>
<text xml:space="preserve" text-anchor="middle" x="1044.88" y="-186.5" font-family="Arial" font-size="10.00">E5RuntimeArtifactDirectoryBridge</text>
<text xml:space="preserve" text-anchor="middle" x="1044.88" y="-174.5" font-family="Arial" font-size="10.00">loader + bridge</text>
</g>
<!-- Bundle&#45;&gt;DirectoryBridge -->
<g id="edge12" class="edge">
<title>Bundle&#45;&gt;DirectoryBridge</title>
<path fill="none" stroke="#455a64" d="M927.48,-184C935.22,-184 943.26,-184 951.34,-184"/>
<polygon fill="#455a64" stroke="#455a64" points="951.23,-187.5 961.23,-184 951.23,-180.5 951.23,-187.5"/>
</g>
<!-- RuntimeBridge -->
<g id="node11" class="node">
<title>RuntimeBridge</title>
<g id="a_node11"><a xlink:href="25_e5_runtime_bridge.svg" xlink:title="E5RuntimeBridge">
<path fill="#f5f5f5" stroke="#546e7a" d="M1243.25,-202C1243.25,-202 1174.75,-202 1174.75,-202 1168.75,-202 1162.75,-196 1162.75,-190 1162.75,-190 1162.75,-178 1162.75,-178 1162.75,-172 1168.75,-166 1174.75,-166 1174.75,-166 1243.25,-166 1243.25,-166 1249.25,-166 1255.25,-172 1255.25,-178 1255.25,-178 1255.25,-190 1255.25,-190 1255.25,-196 1249.25,-202 1243.25,-202"/>
<text xml:space="preserve" text-anchor="middle" x="1209" y="-180.5" font-family="Arial" font-size="10.00">E5RuntimeBridge</text>
</a>
</g>
</g>
<!-- DirectoryBridge&#45;&gt;RuntimeBridge -->
<g id="edge13" class="edge">
<title>DirectoryBridge&#45;&gt;RuntimeBridge</title>
<path fill="none" stroke="#455a64" d="M1126.94,-184C1135.03,-184 1143.13,-184 1150.9,-184"/>
<polygon fill="#455a64" stroke="#455a64" points="1150.89,-187.5 1160.89,-184 1150.89,-180.5 1150.89,-187.5"/>
</g>
<!-- InferenceContext -->
<g id="node12" class="node">
<title>InferenceContext</title>
<g id="a_node12"><a xlink:href="20_context.svg" xlink:title="InferenceContext">
<path fill="#f5f5f5" stroke="#546e7a" d="M1370.25,-202C1370.25,-202 1303.25,-202 1303.25,-202 1297.25,-202 1291.25,-196 1291.25,-190 1291.25,-190 1291.25,-178 1291.25,-178 1291.25,-172 1297.25,-166 1303.25,-166 1303.25,-166 1370.25,-166 1370.25,-166 1376.25,-166 1382.25,-172 1382.25,-178 1382.25,-178 1382.25,-190 1382.25,-190 1382.25,-196 1376.25,-202 1370.25,-202"/>
<text xml:space="preserve" text-anchor="middle" x="1336.75" y="-180.5" font-family="Arial" font-size="10.00">InferenceContext</text>
</a>
</g>
</g>
<!-- RuntimeBridge&#45;&gt;InferenceContext -->
<g id="edge14" class="edge">
<title>RuntimeBridge&#45;&gt;InferenceContext</title>
<path fill="none" stroke="#455a64" d="M1255.4,-184C1263.24,-184 1271.48,-184 1279.56,-184"/>
<polygon fill="#455a64" stroke="#455a64" points="1279.33,-187.5 1289.33,-184 1279.33,-180.5 1279.33,-187.5"/>
</g>
<!-- NoDaemon -->
<g id="node13" class="node">
<title>NoDaemon</title>
<path fill="#f5f5f5" stroke="#546e7a" d="M287.62,-214C287.62,-214 228.88,-214 228.88,-214 222.88,-214 216.88,-208 216.88,-202 216.88,-202 216.88,-190 216.88,-190 216.88,-184 222.88,-178 228.88,-178 228.88,-178 287.62,-178 287.62,-178 293.62,-178 299.62,-184 299.62,-190 299.62,-190 299.62,-202 299.62,-202 299.62,-208 293.62,-214 287.62,-214"/>
<text xml:space="preserve" text-anchor="middle" x="258.25" y="-192.5" font-family="Arial" font-size="10.00">pas de daemon</text>
</g>
<!-- NoDaemon&#45;&gt;Loader -->
<g id="edge15" class="edge">
<title>NoDaemon&#45;&gt;Loader</title>
<path fill="none" stroke="#455a64" stroke-dasharray="5,2" d="M299.94,-201.61C314.22,-205.47 329.29,-211.99 339.75,-223 446.95,-335.83 457.88,-538.07 457.99,-614.05"/>
<polygon fill="#455a64" stroke="#455a64" points="454.49,-614 457.93,-624.02 461.49,-614.04 454.49,-614"/>
</g>
<!-- NoScheduler -->
<g id="node14" class="node">
<title>NoScheduler</title>
<path fill="#f5f5f5" stroke="#546e7a" d="M310.5,-52C310.5,-52 206,-52 206,-52 200,-52 194,-46 194,-40 194,-40 194,-28 194,-28 194,-22 200,-16 206,-16 206,-16 310.5,-16 310.5,-16 316.5,-16 322.5,-22 322.5,-28 322.5,-28 322.5,-40 322.5,-40 322.5,-46 316.5,-52 310.5,-52"/>
<text xml:space="preserve" text-anchor="middle" x="258.25" y="-30.5" font-family="Arial" font-size="10.00">ne lance pas le Scheduler</text>
</g>
<!-- NoScheduler&#45;&gt;InferenceContext -->
<g id="edge16" class="edge">
<title>NoScheduler&#45;&gt;InferenceContext</title>
<path fill="none" stroke="#455a64" stroke-dasharray="5,2" d="M322.9,-36.01C403.61,-38.38 547.06,-42 669.88,-42 669.88,-42 669.88,-42 1045.88,-42 1150.6,-42 1256.89,-117.66 1306.66,-158.53"/>
<polygon fill="#455a64" stroke="#455a64" points="1304.2,-161.03 1314.12,-164.76 1308.69,-155.66 1304.2,-161.03"/>
</g>
<!-- NoQdrant -->
<g id="node15" class="node">
<title>NoQdrant</title>
<path fill="#f5f5f5" stroke="#546e7a" d="M285,-160C285,-160 231.5,-160 231.5,-160 225.5,-160 219.5,-154 219.5,-148 219.5,-148 219.5,-136 219.5,-136 219.5,-130 225.5,-124 231.5,-124 231.5,-124 285,-124 285,-124 291,-124 297,-130 297,-136 297,-136 297,-148 297,-148 297,-154 291,-160 285,-160"/>
<text xml:space="preserve" text-anchor="middle" x="258.25" y="-138.5" font-family="Arial" font-size="10.00">pas de Qdrant</text>
</g>
<!-- NoQdrant&#45;&gt;RuntimeBridge -->
<g id="edge17" class="edge">
<title>NoQdrant&#45;&gt;RuntimeBridge</title>
<path fill="none" stroke="#455a64" stroke-dasharray="5,2" d="M297.46,-141.38C370.03,-140.26 532.82,-138 669.88,-138 669.88,-138 669.88,-138 864.88,-138 981.57,-138 1012.3,-134.2 1126.75,-157 1134.96,-158.64 1143.49,-160.86 1151.8,-163.33"/>
<polygon fill="#455a64" stroke="#455a64" points="1150.53,-166.6 1161.11,-166.24 1152.62,-159.92 1150.53,-166.6"/>
</g>
<!-- NoNetwork -->
<g id="node16" class="node">
<title>NoNetwork</title>
<path fill="#f5f5f5" stroke="#546e7a" d="M314.25,-268C314.25,-268 202.25,-268 202.25,-268 196.25,-268 190.25,-262 190.25,-256 190.25,-256 190.25,-244 190.25,-244 190.25,-238 196.25,-232 202.25,-232 202.25,-232 314.25,-232 314.25,-232 320.25,-232 326.25,-238 326.25,-244 326.25,-244 326.25,-256 326.25,-256 326.25,-262 320.25,-268 314.25,-268"/>
<text xml:space="preserve" text-anchor="middle" x="258.25" y="-246.5" font-family="Arial" font-size="10.00">pas de réseau / GitHub API</text>
</g>
<!-- NoNetwork&#45;&gt;Loader -->
<g id="edge18" class="edge">
<title>NoNetwork&#45;&gt;Loader</title>
<path fill="none" stroke="#455a64" stroke-dasharray="5,2" d="M326.4,-266.72C331.28,-269.61 335.82,-273.01 339.75,-277 434.62,-373.15 453.01,-545.88 456.55,-614.62"/>
<polygon fill="#455a64" stroke="#455a64" points="453.04,-614.49 456.97,-624.32 460.03,-614.18 453.04,-614.49"/>
</g>
<!-- NoLLM -->
<g id="node17" class="node">
<title>NoLLM</title>
<path fill="#f5f5f5" stroke="#546e7a" d="M303.75,-106C303.75,-106 212.75,-106 212.75,-106 206.75,-106 200.75,-100 200.75,-94 200.75,-94 200.75,-82 200.75,-82 200.75,-76 206.75,-70 212.75,-70 212.75,-70 303.75,-70 303.75,-70 309.75,-70 315.75,-76 315.75,-82 315.75,-82 315.75,-94 315.75,-94 315.75,-100 309.75,-106 303.75,-106"/>
<text xml:space="preserve" text-anchor="middle" x="258.25" y="-84.5" font-family="Arial" font-size="10.00">pas de génération LLM</text>
</g>
<!-- NoLLM&#45;&gt;RuntimeBridge -->
<g id="edge19" class="edge">
<title>NoLLM&#45;&gt;RuntimeBridge</title>
<path fill="none" stroke="#455a64" stroke-dasharray="5,2" d="M316.04,-88.9C395.28,-90.08 543.51,-92 669.88,-92 669.88,-92 669.88,-92 864.88,-92 982.75,-92 1016.24,-92.99 1126.75,-134 1143.4,-140.18 1160.36,-149.96 1174.45,-159.23"/>
<polygon fill="#455a64" stroke="#455a64" points="1172.22,-161.95 1182.45,-164.67 1176.15,-156.16 1172.22,-161.95"/>
</g>
<!-- Stdlib -->
<g id="node18" class="node">
<title>Stdlib</title>
<path fill="#f5f5f5" stroke="#546e7a" d="M292.5,-322C292.5,-322 224,-322 224,-322 218,-322 212,-316 212,-310 212,-310 212,-298 212,-298 212,-292 218,-286 224,-286 224,-286 292.5,-286 292.5,-286 298.5,-286 304.5,-292 304.5,-298 304.5,-298 304.5,-310 304.5,-310 304.5,-316 298.5,-322 292.5,-322"/>
<text xml:space="preserve" text-anchor="middle" x="258.25" y="-300.5" font-family="Arial" font-size="10.00">stdlib uniquement</text>
</g>
<!-- Stdlib&#45;&gt;Loader -->
<g id="edge20" class="edge">
<title>Stdlib&#45;&gt;Loader</title>
<path fill="none" stroke="#455a64" stroke-dasharray="5,2" d="M292.37,-322.43C308.39,-332.68 326.88,-346.67 339.75,-363 402.44,-442.55 437.16,-560.34 450.68,-614.64"/>
<polygon fill="#455a64" stroke="#455a64" points="447.27,-615.45 453.03,-624.35 454.08,-613.81 447.27,-615.45"/>
</g>
<!-- Global -->
<g id="node19" class="node">
<title>Global</title>
<g id="a_node19"><a xlink:href="../00_global.svg" xlink:title="← Global architecture">
<path fill="#f5f5f5" stroke="none" d="M121.62,-662C121.62,-662 35.12,-662 35.12,-662 29.13,-662 23.12,-656 23.12,-650 23.12,-650 23.12,-638 23.12,-638 23.12,-632 29.12,-626 35.12,-626 35.12,-626 121.62,-626 121.62,-626 127.62,-626 133.62,-632 133.62,-638 133.62,-638 133.62,-650 133.62,-650 133.62,-656 127.62,-662 121.62,-662"/>
<text xml:space="preserve" text-anchor="middle" x="78.38" y="-640.5" font-family="Arial" font-size="10.00">← Global architecture</text>
</a>
</g>
</g>
<!-- Parent -->
<g id="node20" class="node">
<title>Parent</title>
<g id="a_node20"><a xlink:href="25_e5_runtime_bridge.svg" xlink:title="← E5 runtime bridge">
<path fill="#f5f5f5" stroke="none" d="M119,-716C119,-716 37.75,-716 37.75,-716 31.75,-716 25.75,-710 25.75,-704 25.75,-704 25.75,-692 25.75,-692 25.75,-686 31.75,-680 37.75,-680 37.75,-680 119,-680 119,-680 125,-680 131,-686 131,-692 131,-692 131,-704 131,-704 131,-710 125,-716 119,-716"/>
<text xml:space="preserve" text-anchor="middle" x="78.38" y="-694.5" font-family="Arial" font-size="10.00">← E5 runtime bridge</text>
</a>
</g>
</g>
<!-- Phase4 -->
<g id="node21" class="node">
<title>Phase4</title>
<g id="a_node21"><a xlink:href="../inference/74_e5_phase4_closure.svg" xlink:title="← Phase 4 closure">
<path fill="#f5f5f5" stroke="none" d="M116,-770C116,-770 40.75,-770 40.75,-770 34.75,-770 28.75,-764 28.75,-758 28.75,-758 28.75,-746 28.75,-746 28.75,-740 34.75,-734 40.75,-734 40.75,-734 116,-734 116,-734 122,-734 128,-740 128,-746 128,-746 128,-758 128,-758 128,-764 122,-770 116,-770"/>
<text xml:space="preserve" text-anchor="middle" x="78.38" y="-748.5" font-family="Arial" font-size="10.00">← Phase 4 closure</text>
</a>
</g>
</g>
<!-- Next -->
<g id="node22" class="node">
<title>Next</title>
<g id="a_node22"><a xlink:href="27_e5_artifact_context_cli.svg" xlink:title="next: artifact context CLI">
<path fill="#f5f5f5" stroke="none" d="M128.75,-824C128.75,-824 28,-824 28,-824 22,-824 16,-818 16,-812 16,-812 16,-800 16,-800 16,-794 22,-788 28,-788 28,-788 128.75,-788 128.75,-788 134.75,-788 140.75,-794 140.75,-800 140.75,-800 140.75,-812 140.75,-812 140.75,-818 134.75,-824 128.75,-824"/>
<text xml:space="preserve" text-anchor="middle" x="78.38" y="-802.5" font-family="Arial" font-size="10.00">next: artifact context CLI</text>
</a>
</g>
</g>
</g>
</svg>
