<?xml version="1.0" encoding="UTF-8" standalone="no"?>
<!DOCTYPE svg PUBLIC "-//W3C//DTD SVG 1.1//EN"
 "http://www.w3.org/Graphics/SVG/1.1/DTD/svg11.dtd">
<!-- Generated by graphviz version 14.1.3 (20260303.0454)
 -->
<!-- Title: E5ArtifactContextCli Pages: 1 -->
<svg width="1569pt" height="655pt"
 viewBox="0.00 0.00 1569.00 655.00" xmlns="http://www.w3.org/2000/svg" xmlns:xlink="http://www.w3.org/1999/xlink">
<g id="graph0" class="graph" transform="scale(1 1) rotate(0) translate(4 651)">
<title>E5ArtifactContextCli</title>
<polygon fill="#ffffff" stroke="none" points="-4,4 -4,-651 1565.25,-651 1565.25,4 -4,4"/>
<text xml:space="preserve" text-anchor="middle" x="780.62" y="-625.9" font-family="Arial" font-size="18.00">Phase 5.3 — E5 artifact context CLI</text>
<g id="clust1" class="cluster">
<title>cluster_cli</title>
<path fill="#fff8e1" stroke="#ffe0b2" d="M219.75,-276C219.75,-276 929,-276 929,-276 935,-276 941,-282 941,-288 941,-288 941,-345 941,-345 941,-351 935,-357 929,-357 929,-357 219.75,-357 219.75,-357 213.75,-357 207.75,-351 207.75,-345 207.75,-345 207.75,-288 207.75,-288 207.75,-282 213.75,-276 219.75,-276"/>
<text xml:space="preserve" text-anchor="middle" x="574.38" y="-335.9" font-family="Arial" font-size="18.00">Bordure CLI locale</text>
</g>
<g id="clust2" class="cluster">
<title>cluster_runtime</title>
<path fill="#e8f5e9" stroke="#c8e6c9" d="M782.25,-187C782.25,-187 1541.25,-187 1541.25,-187 1547.25,-187 1553.25,-193 1553.25,-199 1553.25,-199 1553.25,-256 1553.25,-256 1553.25,-262 1547.25,-268 1541.25,-268 1541.25,-268 782.25,-268 782.25,-268 776.25,-268 770.25,-262 770.25,-256 770.25,-256 770.25,-199 770.25,-199 770.25,-193 776.25,-187 782.25,-187"/>
<text xml:space="preserve" text-anchor="middle" x="1161.75" y="-246.9" font-family="Arial" font-size="18.00">Réutilisation Phase 5.2 / 5.1</text>
</g>
<g id="clust3" class="cluster">
<title>cluster_boundaries</title>
<path fill="#ffffff" stroke="#b0bec5" stroke-dasharray="5,2" d="M33.88,-8C33.88,-8 161.88,-8 161.88,-8 167.88,-8 173.88,-14 173.88,-20 173.88,-20 173.88,-347 173.88,-347 173.88,-353 167.88,-359 161.88,-359 161.88,-359 33.88,-359 33.88,-359 27.88,-359 21.88,-353 21.88,-347 21.88,-347 21.88,-20 21.88,-20 21.88,-14 27.88,-8 33.88,-8"/>
<text xml:space="preserve" text-anchor="middle" x="97.88" y="-337.9" font-family="Arial" font-size="18.00">Frontières 5.3</text>
</g>
<g id="clust4" class="cluster">
<title>cluster_navigation</title>
<path fill="#ffffff" stroke="#90a4ae" stroke-dasharray="5,2" d="M20,-367C20,-367 175.75,-367 175.75,-367 181.75,-367 187.75,-373 187.75,-379 187.75,-379 187.75,-598 187.75,-598 187.75,-604 181.75,-610 175.75,-610 175.75,-610 20,-610 20,-610 14,-610 8,-604 8,-598 8,-598 8,-379 8,-379 8,-373 14,-367 20,-367"/>
<text xml:space="preserve" text-anchor="middle" x="97.88" y="-588.9" font-family="Arial" font-size="18.00">Navigation</text>
</g>
<!-- PythonModule -->
<g id="node1" class="node">
<title>PythonModule</title>
<path fill="#f5f5f5" stroke="#546e7a" d="M362.25,-320C362.25,-320 227.75,-320 227.75,-320 221.75,-320 215.75,-314 215.75,-308 215.75,-308 215.75,-296 215.75,-296 215.75,-290 221.75,-284 227.75,-284 227.75,-284 362.25,-284 362.25,-284 368.25,-284 374.25,-290 374.25,-296 374.25,-296 374.25,-308 374.25,-308 374.25,-314 368.25,-320 362.25,-320"/>
<text xml:space="preserve" text-anchor="middle" x="295" y="-298.5" font-family="Arial" font-size="10.00">python &#45;m context.e5_artifact_cli</text>
</g>
<!-- Parser -->
<g id="node2" class="node">
<title>Parser</title>
<path fill="#f5f5f5" stroke="#546e7a" d="M555.25,-320C555.25,-320 422.25,-320 422.25,-320 416.25,-320 410.25,-314 410.25,-308 410.25,-308 410.25,-296 410.25,-296 410.25,-290 416.25,-284 422.25,-284 422.25,-284 555.25,-284 555.25,-284 561.25,-284 567.25,-290 567.25,-296 567.25,-296 567.25,-308 567.25,-308 567.25,-314 561.25,-320 555.25,-320"/>
<text xml:space="preserve" text-anchor="middle" x="488.75" y="-304.5" font-family="Arial" font-size="10.00">build_e5_artifact_context_parser</text>
<text xml:space="preserve" text-anchor="middle" x="488.75" y="-292.5" font-family="Arial" font-size="10.00">argparse boundary</text>
</g>
<!-- PythonModule&#45;&gt;Parser -->
<g id="edge1" class="edge">
<title>PythonModule&#45;&gt;Parser</title>
<path fill="none" stroke="#455a64" d="M374.55,-302C382.49,-302 390.6,-302 398.64,-302"/>
<polygon fill="#455a64" stroke="#455a64" points="398.43,-305.5 408.43,-302 398.43,-298.5 398.43,-305.5"/>
</g>
<!-- Command -->
<g id="node3" class="node">
<title>Command</title>
<path fill="#f5f5f5" stroke="#546e7a" d="M730.25,-320C730.25,-320 615.25,-320 615.25,-320 609.25,-320 603.25,-314 603.25,-308 603.25,-308 603.25,-296 603.25,-296 603.25,-290 609.25,-284 615.25,-284 615.25,-284 730.25,-284 730.25,-284 736.25,-284 742.25,-290 742.25,-296 742.25,-296 742.25,-308 742.25,-308 742.25,-314 736.25,-320 730.25,-320"/>
<text xml:space="preserve" text-anchor="middle" x="672.75" y="-304.5" font-family="Arial" font-size="10.00">E5ArtifactContextCommand</text>
<text xml:space="preserve" text-anchor="middle" x="672.75" y="-292.5" font-family="Arial" font-size="10.00">artifact_dir + policies</text>
</g>
<!-- Parser&#45;&gt;Command -->
<g id="edge2" class="edge">
<title>Parser&#45;&gt;Command</title>
<path fill="none" stroke="#455a64" d="M567.73,-302C575.57,-302 583.55,-302 591.41,-302"/>
<polygon fill="#455a64" stroke="#455a64" points="591.32,-305.5 601.32,-302 591.32,-298.5 591.32,-305.5"/>
</g>
<!-- Render -->
<g id="node4" class="node">
<title>Render</title>
<path fill="#f5f5f5" stroke="#546e7a" d="M921,-320C921,-320 792.5,-320 792.5,-320 786.5,-320 780.5,-314 780.5,-308 780.5,-308 780.5,-296 780.5,-296 780.5,-290 786.5,-284 792.5,-284 792.5,-284 921,-284 921,-284 927,-284 933,-290 933,-296 933,-296 933,-308 933,-308 933,-314 927,-320 921,-320"/>
<text xml:space="preserve" text-anchor="middle" x="856.75" y="-304.5" font-family="Arial" font-size="10.00">E5ArtifactContextRenderPolicy</text>
<text xml:space="preserve" text-anchor="middle" x="856.75" y="-292.5" font-family="Arial" font-size="10.00">text/json</text>
</g>
<!-- Command&#45;&gt;Render -->
<g id="edge3" class="edge">
<title>Command&#45;&gt;Render</title>
<path fill="none" stroke="#455a64" d="M742.56,-302C751.1,-302 759.91,-302 768.68,-302"/>
<polygon fill="#455a64" stroke="#455a64" points="768.64,-305.5 778.64,-302 768.64,-298.5 768.64,-305.5"/>
</g>
<!-- ArtifactDir -->
<g id="node5" class="node">
<title>ArtifactDir</title>
<path fill="#f5f5f5" stroke="#546e7a" d="M923.25,-231C923.25,-231 790.25,-231 790.25,-231 784.25,-231 778.25,-225 778.25,-219 778.25,-219 778.25,-207 778.25,-207 778.25,-201 784.25,-195 790.25,-195 790.25,-195 923.25,-195 923.25,-195 929.25,-195 935.25,-201 935.25,-207 935.25,-207 935.25,-219 935.25,-219 935.25,-225 929.25,-231 923.25,-231"/>
<text xml:space="preserve" text-anchor="middle" x="856.75" y="-215.5" font-family="Arial" font-size="10.00">artifact&#45;dir</text>
<text xml:space="preserve" text-anchor="middle" x="856.75" y="-203.5" font-family="Arial" font-size="10.00">report/context/consumed/prompt</text>
</g>
<!-- Command&#45;&gt;ArtifactDir -->
<g id="edge4" class="edge">
<title>Command&#45;&gt;ArtifactDir</title>
<path fill="none" stroke="#455a64" d="M711.46,-283.56C739.4,-269.9 777.69,-251.17 807.81,-236.44"/>
<polygon fill="#455a64" stroke="#455a64" points="809.28,-239.62 816.73,-232.08 806.21,-233.33 809.28,-239.62"/>
</g>
<!-- Output -->
<g id="node9" class="node">
<title>Output</title>
<path fill="#f5f5f5" stroke="#546e7a" d="M1533.25,-231C1533.25,-231 1440,-231 1440,-231 1434,-231 1428,-225 1428,-219 1428,-219 1428,-207 1428,-207 1428,-201 1434,-195 1440,-195 1440,-195 1533.25,-195 1533.25,-195 1539.25,-195 1545.25,-201 1545.25,-207 1545.25,-207 1545.25,-219 1545.25,-219 1545.25,-225 1539.25,-231 1533.25,-231"/>
<text xml:space="preserve" text-anchor="middle" x="1486.62" y="-215.5" font-family="Arial" font-size="10.00">stdout</text>
<text xml:space="preserve" text-anchor="middle" x="1486.62" y="-203.5" font-family="Arial" font-size="10.00">summary text or JSON</text>
</g>
<!-- Render&#45;&gt;Output -->
<g id="edge9" class="edge">
<title>Render&#45;&gt;Output</title>
<path fill="none" stroke="#455a64" d="M933.13,-297.19C1037.14,-289.67 1230.19,-272.49 1392,-240 1399.98,-238.4 1408.27,-236.44 1416.47,-234.33"/>
<polygon fill="#455a64" stroke="#455a64" points="1417.34,-237.72 1426.1,-231.75 1415.53,-230.95 1417.34,-237.72"/>
</g>
<!-- Loader -->
<g id="node6" class="node">
<title>Loader</title>
<g id="a_node6"><a xlink:href="26_e5_artifact_directory_loader.svg" xlink:title="E5RuntimeArtifactDirectoryLoader">
<path fill="#f5f5f5" stroke="#546e7a" d="M1124.5,-231C1124.5,-231 983.25,-231 983.25,-231 977.25,-231 971.25,-225 971.25,-219 971.25,-219 971.25,-207 971.25,-207 971.25,-201 977.25,-195 983.25,-195 983.25,-195 1124.5,-195 1124.5,-195 1130.5,-195 1136.5,-201 1136.5,-207 1136.5,-207 1136.5,-219 1136.5,-219 1136.5,-225 1130.5,-231 1124.5,-231"/>
<text xml:space="preserve" text-anchor="middle" x="1053.88" y="-209.5" font-family="Arial" font-size="10.00">E5RuntimeArtifactDirectoryLoader</text>
</a>
</g>
</g>
<!-- ArtifactDir&#45;&gt;Loader -->
<g id="edge5" class="edge">
<title>ArtifactDir&#45;&gt;Loader</title>
<path fill="none" stroke="#455a64" d="M935.71,-213C943.57,-213 951.62,-213 959.62,-213"/>
<polygon fill="#455a64" stroke="#455a64" points="959.37,-216.5 969.37,-213 959.37,-209.5 959.37,-216.5"/>
</g>
<!-- Bridge -->
<g id="node7" class="node">
<title>Bridge</title>
<g id="a_node7"><a xlink:href="25_e5_runtime_bridge.svg" xlink:title="E5RuntimeBridge">
<path fill="#f5f5f5" stroke="#546e7a" d="M1253,-231C1253,-231 1184.5,-231 1184.5,-231 1178.5,-231 1172.5,-225 1172.5,-219 1172.5,-219 1172.5,-207 1172.5,-207 1172.5,-201 1178.5,-195 1184.5,-195 1184.5,-195 1253,-195 1253,-195 1259,-195 1265,-201 1265,-207 1265,-207 1265,-219 1265,-219 1265,-225 1259,-231 1253,-231"/>
<text xml:space="preserve" text-anchor="middle" x="1218.75" y="-209.5" font-family="Arial" font-size="10.00">E5RuntimeBridge</text>
</a>
</g>
</g>
<!-- Loader&#45;&gt;Bridge -->
<g id="edge6" class="edge">
<title>Loader&#45;&gt;Bridge</title>
<path fill="none" stroke="#455a64" d="M1136.79,-213C1144.89,-213 1152.99,-213 1160.75,-213"/>
<polygon fill="#455a64" stroke="#455a64" points="1160.74,-216.5 1170.74,-213 1160.74,-209.5 1160.74,-216.5"/>
</g>
<!-- InferenceContext -->
<g id="node8" class="node">
<title>InferenceContext</title>
<g id="a_node8"><a xlink:href="20_context.svg" xlink:title="InferenceContext">
<path fill="#f5f5f5" stroke="#546e7a" d="M1380,-231C1380,-231 1313,-231 1313,-231 1307,-231 1301,-225 1301,-219 1301,-219 1301,-207 1301,-207 1301,-201 1307,-195 1313,-195 1313,-195 1380,-195 1380,-195 1386,-195 1392,-201 1392,-207 1392,-207 1392,-219 1392,-219 1392,-225 1386,-231 1380,-231"/>
<text xml:space="preserve" text-anchor="middle" x="1346.5" y="-209.5" font-family="Arial" font-size="10.00">InferenceContext</text>
</a>
</g>
</g>
<!-- Bridge&#45;&gt;InferenceContext -->
<g id="edge7" class="edge">
<title>Bridge&#45;&gt;InferenceContext</title>
<path fill="none" stroke="#455a64" d="M1265.15,-213C1272.99,-213 1281.23,-213 1289.31,-213"/>
<polygon fill="#455a64" stroke="#455a64" points="1289.08,-216.5 1299.08,-213 1289.08,-209.5 1289.08,-216.5"/>
</g>
<!-- InferenceContext&#45;&gt;Output -->
<g id="edge8" class="edge">
<title>InferenceContext&#45;&gt;Output</title>
<path fill="none" stroke="#455a64" d="M1392.35,-213C1400.06,-213 1408.23,-213 1416.4,-213"/>
<polygon fill="#455a64" stroke="#455a64" points="1416.4,-216.5 1426.4,-213 1416.4,-209.5 1416.4,-216.5"/>
</g>
<!-- NoDaemon -->
<g id="node10" class="node">
<title>NoDaemon</title>
<path fill="#f5f5f5" stroke="#546e7a" d="M127.25,-322C127.25,-322 68.5,-322 68.5,-322 62.5,-322 56.5,-316 56.5,-310 56.5,-310 56.5,-298 56.5,-298 56.5,-292 62.5,-286 68.5,-286 68.5,-286 127.25,-286 127.25,-286 133.25,-286 139.25,-292 139.25,-298 139.25,-298 139.25,-310 139.25,-310 139.25,-316 133.25,-322 127.25,-322"/>
<text xml:space="preserve" text-anchor="middle" x="97.88" y="-300.5" font-family="Arial" font-size="10.00">pas de daemon</text>
</g>
<!-- NoDaemon&#45;&gt;PythonModule -->
<g id="edge10" class="edge">
<title>NoDaemon&#45;&gt;PythonModule</title>
<path fill="none" stroke="#455a64" stroke-dasharray="5,2" d="M139.31,-303.59C158.12,-303.39 181.31,-303.16 203.95,-302.92"/>
<polygon fill="#455a64" stroke="#455a64" points="203.88,-306.42 213.84,-302.82 203.81,-299.42 203.88,-306.42"/>
</g>
<!-- NoScheduler -->
<g id="node11" class="node">
<title>NoScheduler</title>
<path fill="#f5f5f5" stroke="#546e7a" d="M150.12,-52C150.12,-52 45.62,-52 45.62,-52 39.63,-52 33.62,-46 33.62,-40 33.62,-40 33.62,-28 33.62,-28 33.62,-22 39.62,-16 45.62,-16 45.62,-16 150.12,-16 150.12,-16 156.12,-16 162.12,-22 162.12,-28 162.12,-28 162.12,-40 162.12,-40 162.12,-46 156.12,-52 150.12,-52"/>
<text xml:space="preserve" text-anchor="middle" x="97.88" y="-30.5" font-family="Arial" font-size="10.00">ne lance pas le Scheduler</text>
</g>
<!-- NoScheduler&#45;&gt;InferenceContext -->
<g id="edge11" class="edge">
<title>NoScheduler&#45;&gt;InferenceContext</title>
<path fill="none" stroke="#455a64" stroke-dasharray="5,2" d="M162.52,-36.38C239.52,-39.04 373.12,-43 487.75,-43 487.75,-43 487.75,-43 1054.88,-43 1167.37,-43 1274.97,-139.07 1321.46,-186.77"/>
<polygon fill="#455a64" stroke="#455a64" points="1318.67,-188.92 1328.11,-193.71 1323.72,-184.07 1318.67,-188.92"/>
</g>
<!-- NoQdrant -->
<g id="node12" class="node">
<title>NoQdrant</title>
<path fill="#f5f5f5" stroke="#546e7a" d="M124.62,-160C124.62,-160 71.12,-160 71.12,-160 65.12,-160 59.12,-154 59.12,-148 59.12,-148 59.12,-136 59.12,-136 59.12,-130 65.12,-124 71.12,-124 71.12,-124 124.62,-124 124.62,-124 130.62,-124 136.62,-130 136.62,-136 136.62,-136 136.62,-148 136.62,-148 136.62,-154 130.62,-160 124.62,-160"/>
<text xml:space="preserve" text-anchor="middle" x="97.88" y="-138.5" font-family="Arial" font-size="10.00">pas de Qdrant</text>
</g>
<!-- NoQdrant&#45;&gt;Bridge -->
<g id="edge12" class="edge">
<title>NoQdrant&#45;&gt;Bridge</title>
<path fill="none" stroke="#455a64" stroke-dasharray="5,2" d="M136.95,-139.88C206.56,-136.2 359.07,-129 487.75,-129 487.75,-129 487.75,-129 857.75,-129 967.56,-129 1091.39,-166.52 1161.46,-191.41"/>
<polygon fill="#455a64" stroke="#455a64" points="1160.21,-194.68 1170.81,-194.78 1162.58,-188.1 1160.21,-194.68"/>
</g>
<!-- NoNetwork -->
<g id="node13" class="node">
<title>NoNetwork</title>
<path fill="#f5f5f5" stroke="#546e7a" d="M153.88,-214C153.88,-214 41.88,-214 41.88,-214 35.87,-214 29.88,-208 29.88,-202 29.88,-202 29.88,-190 29.88,-190 29.88,-184 35.88,-178 41.88,-178 41.88,-178 153.88,-178 153.88,-178 159.88,-178 165.88,-184 165.88,-190 165.88,-190 165.88,-202 165.88,-202 165.88,-208 159.88,-214 153.88,-214"/>
<text xml:space="preserve" text-anchor="middle" x="97.88" y="-192.5" font-family="Arial" font-size="10.00">pas de réseau / GitHub API</text>
</g>
<!-- NoNetwork&#45;&gt;Loader -->
<g id="edge13" class="edge">
<title>NoNetwork&#45;&gt;Loader</title>
<path fill="none" stroke="#455a64" stroke-dasharray="5,2" d="M166.2,-187.92C243.65,-179.34 374.69,-167 487.75,-167 487.75,-167 487.75,-167 673.75,-167 792.83,-167 823.33,-167.75 941,-186 951.48,-187.63 962.42,-189.74 973.18,-192.06"/>
<polygon fill="#455a64" stroke="#455a64" points="972.3,-195.45 982.83,-194.22 973.83,-188.62 972.3,-195.45"/>
</g>
<!-- NoLLM -->
<g id="node14" class="node">
<title>NoLLM</title>
<path fill="#f5f5f5" stroke="#546e7a" d="M143.38,-106C143.38,-106 52.38,-106 52.38,-106 46.38,-106 40.38,-100 40.38,-94 40.38,-94 40.38,-82 40.38,-82 40.38,-76 46.38,-70 52.38,-70 52.38,-70 143.38,-70 143.38,-70 149.38,-70 155.38,-76 155.38,-82 155.38,-82 155.38,-94 155.38,-94 155.38,-100 149.38,-106 143.38,-106"/>
<text xml:space="preserve" text-anchor="middle" x="97.88" y="-84.5" font-family="Arial" font-size="10.00">pas de génération LLM</text>
</g>
<!-- NoLLM&#45;&gt;Bridge -->
<g id="edge14" class="edge">
<title>NoLLM&#45;&gt;Bridge</title>
<path fill="none" stroke="#455a64" stroke-dasharray="5,2" d="M155.87,-88.24C231.66,-88.53 369.77,-89 487.75,-89 487.75,-89 487.75,-89 857.75,-89 983.46,-89 1023.93,-81.05 1136.5,-137 1160.07,-148.71 1181.56,-169.49 1196.52,-186.36"/>
<polygon fill="#455a64" stroke="#455a64" points="1193.57,-188.29 1202.73,-193.61 1198.88,-183.74 1193.57,-188.29"/>
</g>
<!-- Stdlib -->
<g id="node15" class="node">
<title>Stdlib</title>
<path fill="#f5f5f5" stroke="#546e7a" d="M132.12,-268C132.12,-268 63.62,-268 63.62,-268 57.62,-268 51.62,-262 51.62,-256 51.62,-256 51.62,-244 51.62,-244 51.62,-238 57.62,-232 63.62,-232 63.62,-232 132.12,-232 132.12,-232 138.12,-232 144.12,-238 144.12,-244 144.12,-244 144.12,-256 144.12,-256 144.12,-262 138.12,-268 132.12,-268"/>
<text xml:space="preserve" text-anchor="middle" x="97.88" y="-246.5" font-family="Arial" font-size="10.00">stdlib uniquement</text>
</g>
<!-- Stdlib&#45;&gt;Parser -->
<g id="edge15" class="edge">
<title>Stdlib&#45;&gt;Parser</title>
<path fill="none" stroke="#455a64" stroke-dasharray="5,2" d="M144.44,-252.14C199.26,-255.17 293.95,-261.87 374.25,-275 384.56,-276.69 395.32,-278.79 405.94,-281.07"/>
<polygon fill="#455a64" stroke="#455a64" points="404.93,-284.43 415.45,-283.18 406.44,-277.6 404.93,-284.43"/>
</g>
<!-- Global -->
<g id="node16" class="node">
<title>Global</title>
<g id="a_node16"><a xlink:href="../00_global.svg" xlink:title="← Global architecture">
<path fill="#f5f5f5" stroke="none" d="M141.12,-411C141.12,-411 54.62,-411 54.62,-411 48.62,-411 42.62,-405 42.62,-399 42.62,-399 42.62,-387 42.62,-387 42.62,-381 48.62,-375 54.62,-375 54.62,-375 141.12,-375 141.12,-375 147.12,-375 153.12,-381 153.12,-387 153.12,-387 153.12,-399 153.12,-399 153.12,-405 147.12,-411 141.12,-411"/>
<text xml:space="preserve" text-anchor="middle" x="97.88" y="-389.5" font-family="Arial" font-size="10.00">← Global architecture</text>
</a>
</g>
</g>
<!-- Parent -->
<g id="node17" class="node">
<title>Parent</title>
<g id="a_node17"><a xlink:href="26_e5_artifact_directory_loader.svg" xlink:title="← E5 artifact directory loader">
<path fill="#f5f5f5" stroke="none" d="M157.62,-465C157.62,-465 38.12,-465 38.12,-465 32.12,-465 26.12,-459 26.12,-453 26.12,-453 26.12,-441 26.12,-441 26.12,-435 32.12,-429 38.12,-429 38.12,-429 157.62,-429 157.62,-429 163.62,-429 169.62,-435 169.62,-441 169.62,-441 169.62,-453 169.62,-453 169.62,-459 163.62,-465 157.62,-465"/>
<text xml:space="preserve" text-anchor="middle" x="97.88" y="-443.5" font-family="Arial" font-size="10.00">← E5 artifact directory loader</text>
</a>
</g>
</g>
<!-- Phase4 -->
<g id="node18" class="node">
<title>Phase4</title>
<g id="a_node18"><a xlink:href="../inference/74_e5_phase4_closure.svg" xlink:title="← Phase 4 closure">
<path fill="#f5f5f5" stroke="none" d="M135.5,-519C135.5,-519 60.25,-519 60.25,-519 54.25,-519 48.25,-513 48.25,-507 48.25,-507 48.25,-495 48.25,-495 48.25,-489 54.25,-483 60.25,-483 60.25,-483 135.5,-483 135.5,-483 141.5,-483 147.5,-489 147.5,-495 147.5,-495 147.5,-507 147.5,-507 147.5,-513 141.5,-519 135.5,-519"/>
<text xml:space="preserve" text-anchor="middle" x="97.88" y="-497.5" font-family="Arial" font-size="10.00">← Phase 4 closure</text>
</a>
</g>
</g>
<!-- Next -->
<g id="node19" class="node">
<title>Next</title>
<g id="a_node19"><a xlink:href="28_e5_local_context_runtime.svg" xlink:title="next: local context runtime facade">
<path fill="#f5f5f5" stroke="none" d="M167.75,-573C167.75,-573 28,-573 28,-573 22,-573 16,-567 16,-561 16,-561 16,-549 16,-549 16,-543 22,-537 28,-537 28,-537 167.75,-537 167.75,-537 173.75,-537 179.75,-543 179.75,-549 179.75,-549 179.75,-561 179.75,-561 179.75,-567 173.75,-573 167.75,-573"/>
<text xml:space="preserve" text-anchor="middle" x="97.88" y="-551.5" font-family="Arial" font-size="10.00">next: local context runtime facade</text>
</a>
</g>
</g>
</g>
</svg>
