<?xml version="1.0" encoding="UTF-8" standalone="no"?>
<!DOCTYPE svg PUBLIC "-//W3C//DTD SVG 1.1//EN"
 "http://www.w3.org/Graphics/SVG/1.1/DTD/svg11.dtd">
<!-- Generated by graphviz version 14.1.3 (20260303.0454)
 -->
<!-- Title: E5LocalContextRuntime Pages: 1 -->
<svg width="1064pt" height="993pt"
 viewBox="0.00 0.00 1064.00 993.00" xmlns="http://www.w3.org/2000/svg" xmlns:xlink="http://www.w3.org/1999/xlink">
<g id="graph0" class="graph" transform="scale(1 1) rotate(0) translate(4 989)">
<title>E5LocalContextRuntime</title>
<polygon fill="#ffffff" stroke="none" points="-4,4 -4,-989 1060,-989 1060,4 -4,4"/>
<text xml:space="preserve" text-anchor="middle" x="528" y="-963.9" font-family="Arial" font-size="18.00">Phase 5.4 — E5 local context runtime facade</text>
<g id="clust1" class="cluster">
<title>cluster_facade</title>
<path fill="#e3f2fd" stroke="#bbdefb" d="M430.5,-205C430.5,-205 842.38,-205 842.38,-205 848.38,-205 854.38,-211 854.38,-217 854.38,-217 854.38,-382 854.38,-382 854.38,-388 848.38,-394 842.38,-394 842.38,-394 430.5,-394 430.5,-394 424.5,-394 418.5,-388 418.5,-382 418.5,-382 418.5,-217 418.5,-217 418.5,-211 424.5,-205 430.5,-205"/>
<text xml:space="preserve" text-anchor="middle" x="636.44" y="-372.9" font-family="Arial" font-size="18.00">Façade runtime locale</text>
</g>
<g id="clust2" class="cluster">
<title>cluster_reuse</title>
<path fill="#e8f5e9" stroke="#c8e6c9" d="M20,-562C20,-562 1036,-562 1036,-562 1042,-562 1048,-568 1048,-574 1048,-574 1048,-631 1048,-631 1048,-637 1042,-643 1036,-643 1036,-643 20,-643 20,-643 14,-643 8,-637 8,-631 8,-631 8,-574 8,-574 8,-568 14,-562 20,-562"/>
<text xml:space="preserve" text-anchor="middle" x="528" y="-621.9" font-family="Arial" font-size="18.00">Contrats réutilisés</text>
</g>
<g id="clust3" class="cluster">
<title>cluster_outputs</title>
<path fill="#ede7f6" stroke="#d1c4e9" d="M663.25,-8C663.25,-8 908,-8 908,-8 914,-8 920,-14 920,-20 920,-20 920,-185 920,-185 920,-191 914,-197 908,-197 908,-197 663.25,-197 663.25,-197 657.25,-197 651.25,-191 651.25,-185 651.25,-185 651.25,-20 651.25,-20 651.25,-14 657.25,-8 663.25,-8"/>
<text xml:space="preserve" text-anchor="middle" x="785.62" y="-175.9" font-family="Arial" font-size="18.00">Sorties pour futures intégrations</text>
</g>
<g id="clust4" class="cluster">
<title>cluster_boundaries</title>
<path fill="#ffffff" stroke="#b0bec5" stroke-dasharray="5,2" d="M30.5,-149C30.5,-149 158.5,-149 158.5,-149 164.5,-149 170.5,-155 170.5,-161 170.5,-161 170.5,-542 170.5,-542 170.5,-548 164.5,-554 158.5,-554 158.5,-554 30.5,-554 30.5,-554 24.5,-554 18.5,-548 18.5,-542 18.5,-542 18.5,-161 18.5,-161 18.5,-155 24.5,-149 30.5,-149"/>
<text xml:space="preserve" text-anchor="middle" x="94.5" y="-532.9" font-family="Arial" font-size="18.00">Frontières 5.4</text>
</g>
<g id="clust5" class="cluster">
<title>cluster_navigation</title>
<path fill="#ffffff" stroke="#90a4ae" stroke-dasharray="5,2" d="M34.62,-651C34.62,-651 154.38,-651 154.38,-651 160.38,-651 166.38,-657 166.38,-663 166.38,-663 166.38,-936 166.38,-936 166.38,-942 160.38,-948 154.38,-948 154.38,-948 34.62,-948 34.62,-948 28.62,-948 22.62,-942 22.62,-936 22.62,-936 22.62,-663 22.62,-663 22.62,-657 28.62,-651 34.62,-651"/>
<text xml:space="preserve" text-anchor="middle" x="94.5" y="-926.9" font-family="Arial" font-size="18.00">Navigation</text>
</g>
<!-- Request -->
<g id="node1" class="node">
<title>Request</title>
<path fill="#f5f5f5" stroke="#546e7a" d="M573.75,-303C573.75,-303 438.5,-303 438.5,-303 432.5,-303 426.5,-297 426.5,-291 426.5,-291 426.5,-279 426.5,-279 426.5,-273 432.5,-267 438.5,-267 438.5,-267 573.75,-267 573.75,-267 579.75,-267 585.75,-273 585.75,-279 585.75,-279 585.75,-291 585.75,-291 585.75,-297 579.75,-303 573.75,-303"/>
<text xml:space="preserve" text-anchor="middle" x="506.12" y="-287.5" font-family="Arial" font-size="10.00">E5LocalContextRuntimeRequest</text>
<text xml:space="preserve" text-anchor="middle" x="506.12" y="-275.5" font-family="Arial" font-size="10.00">artifact_dir</text>
</g>
<!-- Runtime -->
<g id="node3" class="node">
<title>Runtime</title>
<path fill="#f5f5f5" stroke="#546e7a" d="M834.38,-357C834.38,-357 735.88,-357 735.88,-357 729.88,-357 723.88,-351 723.88,-345 723.88,-345 723.88,-333 723.88,-333 723.88,-327 729.88,-321 735.88,-321 735.88,-321 834.38,-321 834.38,-321 840.38,-321 846.38,-327 846.38,-333 846.38,-333 846.38,-345 846.38,-345 846.38,-351 840.38,-357 834.38,-357"/>
<text xml:space="preserve" text-anchor="middle" x="785.12" y="-341.5" font-family="Arial" font-size="10.00">E5LocalContextRuntime</text>
<text xml:space="preserve" text-anchor="middle" x="785.12" y="-329.5" font-family="Arial" font-size="10.00">point d&#39;entrée stable</text>
</g>
<!-- Request&#45;&gt;Runtime -->
<g id="edge1" class="edge">
<title>Request&#45;&gt;Runtime</title>
<path fill="none" stroke="#455a64" d="M586.13,-300.4C625.86,-308.15 673.66,-317.47 712.34,-325.01"/>
<polygon fill="#455a64" stroke="#455a64" points="711.54,-328.42 722.03,-326.89 712.88,-321.55 711.54,-328.42"/>
</g>
<!-- ArtifactDir -->
<g id="node5" class="node">
<title>ArtifactDir</title>
<path fill="#f5f5f5" stroke="#546e7a" d="M161,-606C161,-606 28,-606 28,-606 22,-606 16,-600 16,-594 16,-594 16,-582 16,-582 16,-576 22,-570 28,-570 28,-570 161,-570 161,-570 167,-570 173,-576 173,-582 173,-582 173,-594 173,-594 173,-600 167,-606 161,-606"/>
<text xml:space="preserve" text-anchor="middle" x="94.5" y="-590.5" font-family="Arial" font-size="10.00">artifact&#45;dir Phase 4</text>
<text xml:space="preserve" text-anchor="middle" x="94.5" y="-578.5" font-family="Arial" font-size="10.00">report/context/consumed/prompt</text>
</g>
<!-- Request&#45;&gt;ArtifactDir -->
<g id="edge3" class="edge">
<title>Request&#45;&gt;ArtifactDir</title>
<path fill="none" stroke="#455a64" d="M429.2,-303.45C423.3,-305.96 417.58,-308.8 412.25,-312 281.52,-390.56 300.21,-473.87 173,-558 169.38,-560.39 165.54,-562.64 161.58,-564.74"/>
<polygon fill="#455a64" stroke="#455a64" points="160.36,-561.44 152.92,-568.99 163.44,-567.73 160.36,-561.44"/>
</g>
<!-- Policy -->
<g id="node2" class="node">
<title>Policy</title>
<path fill="#f5f5f5" stroke="#546e7a" d="M568.88,-357C568.88,-357 443.38,-357 443.38,-357 437.38,-357 431.38,-351 431.38,-345 431.38,-345 431.38,-333 431.38,-333 431.38,-327 437.38,-321 443.38,-321 443.38,-321 568.88,-321 568.88,-321 574.88,-321 580.88,-327 580.88,-333 580.88,-333 580.88,-345 580.88,-345 580.88,-351 574.88,-357 568.88,-357"/>
<text xml:space="preserve" text-anchor="middle" x="506.12" y="-341.5" font-family="Arial" font-size="10.00">E5LocalContextRuntimePolicy</text>
<text xml:space="preserve" text-anchor="middle" x="506.12" y="-329.5" font-family="Arial" font-size="10.00">loader + bridge policies</text>
</g>
<!-- Policy&#45;&gt;Runtime -->
<g id="edge2" class="edge">
<title>Policy&#45;&gt;Runtime</title>
<path fill="none" stroke="#455a64" d="M581.36,-339C621.99,-339 672.11,-339 712.35,-339"/>
<polygon fill="#455a64" stroke="#455a64" points="712.18,-342.5 722.18,-339 712.18,-335.5 712.18,-342.5"/>
</g>
<!-- Result -->
<g id="node4" class="node">
<title>Result</title>
<path fill="#f5f5f5" stroke="#546e7a" d="M569.62,-249C569.62,-249 442.62,-249 442.62,-249 436.62,-249 430.62,-243 430.62,-237 430.62,-237 430.62,-225 430.62,-225 430.62,-219 436.62,-213 442.62,-213 442.62,-213 569.62,-213 569.62,-213 575.62,-213 581.62,-219 581.62,-225 581.62,-225 581.62,-237 581.62,-237 581.62,-243 575.62,-249 569.62,-249"/>
<text xml:space="preserve" text-anchor="middle" x="506.12" y="-233.5" font-family="Arial" font-size="10.00">E5LocalContextRuntimeResult</text>
<text xml:space="preserve" text-anchor="middle" x="506.12" y="-221.5" font-family="Arial" font-size="10.00">status + read + bridge</text>
</g>
<!-- Json -->
<g id="node10" class="node">
<title>Json</title>
<path fill="#f5f5f5" stroke="#546e7a" d="M810.38,-106C810.38,-106 759.88,-106 759.88,-106 753.88,-106 747.88,-100 747.88,-94 747.88,-94 747.88,-82 747.88,-82 747.88,-76 753.88,-70 759.88,-70 759.88,-70 810.38,-70 810.38,-70 816.38,-70 822.38,-76 822.38,-82 822.38,-82 822.38,-94 822.38,-94 822.38,-100 816.38,-106 810.38,-106"/>
<text xml:space="preserve" text-anchor="middle" x="785.12" y="-90.5" font-family="Arial" font-size="10.00">to_json_dict()</text>
<text xml:space="preserve" text-anchor="middle" x="785.12" y="-78.5" font-family="Arial" font-size="10.00">audit stable</text>
</g>
<!-- Result&#45;&gt;Json -->
<g id="edge10" class="edge">
<title>Result&#45;&gt;Json</title>
<path fill="none" stroke="#455a64" d="M581.98,-228.43C604.02,-223.9 626.23,-214.97 641.25,-198 665.88,-170.18 626.06,-142.31 651.25,-115 672.43,-92.04 707.36,-85.63 736.1,-84.78"/>
<polygon fill="#455a64" stroke="#455a64" points="736.07,-88.28 746.05,-84.72 736.03,-81.28 736.07,-88.28"/>
</g>
<!-- Direct -->
<g id="node11" class="node">
<title>Direct</title>
<path fill="#f5f5f5" stroke="#546e7a" d="M894,-52C894,-52 676.25,-52 676.25,-52 670.25,-52 664.25,-46 664.25,-40 664.25,-40 664.25,-28 664.25,-28 664.25,-22 670.25,-16 676.25,-16 676.25,-16 894,-16 894,-16 900,-16 906,-22 906,-28 906,-28 906,-40 906,-40 906,-46 900,-52 894,-52"/>
<text xml:space="preserve" text-anchor="middle" x="785.12" y="-36.5" font-family="Arial" font-size="10.00">build_e5_local_inference_context_from_artifact_dir()</text>
<text xml:space="preserve" text-anchor="middle" x="785.12" y="-24.5" font-family="Arial" font-size="10.00">retour direct InferenceContext</text>
</g>
<!-- Result&#45;&gt;Direct -->
<g id="edge11" class="edge">
<title>Result&#45;&gt;Direct</title>
<path fill="none" stroke="#455a64" d="M517.02,-212.64C537.19,-177.13 586.64,-99.21 651.25,-61 653.47,-59.69 655.75,-58.43 658.07,-57.24"/>
<polygon fill="#455a64" stroke="#455a64" points="659.54,-60.42 667.13,-53.03 656.59,-54.07 659.54,-60.42"/>
</g>
<!-- ServerFuture -->
<g id="node12" class="node">
<title>ServerFuture</title>
<path fill="#f5f5f5" stroke="#546e7a" d="M820.12,-160C820.12,-160 750.12,-160 750.12,-160 744.12,-160 738.12,-154 738.12,-148 738.12,-148 738.12,-136 738.12,-136 738.12,-130 744.12,-124 750.12,-124 750.12,-124 820.12,-124 820.12,-124 826.12,-124 832.12,-130 832.12,-136 832.12,-136 832.12,-148 832.12,-148 832.12,-154 826.12,-160 820.12,-160"/>
<text xml:space="preserve" text-anchor="middle" x="785.12" y="-144.5" font-family="Arial" font-size="10.00">serveur local futur</text>
<text xml:space="preserve" text-anchor="middle" x="785.12" y="-132.5" font-family="Arial" font-size="10.00">intake contrôlé</text>
</g>
<!-- Result&#45;&gt;ServerFuture -->
<g id="edge13" class="edge">
<title>Result&#45;&gt;ServerFuture</title>
<path fill="none" stroke="#455a64" stroke-dasharray="5,2" d="M582.04,-240.24C602.71,-239.3 624.14,-234.75 641.25,-223 650.1,-216.92 643.62,-208.56 651.25,-201 672.03,-180.4 701.24,-166.36 726.99,-157.16"/>
<polygon fill="#455a64" stroke="#455a64" points="727.99,-160.51 736.34,-153.99 725.74,-153.88 727.99,-160.51"/>
<text xml:space="preserve" text-anchor="middle" x="629.62" y="-235.88" font-family="Arial" font-size="9.00">future</text>
</g>
<!-- Loader -->
<g id="node6" class="node">
<title>Loader</title>
<g id="a_node6"><a xlink:href="26_e5_artifact_directory_loader.svg" xlink:title="E5RuntimeArtifactDirectoryLoader">
<path fill="#f5f5f5" stroke="#546e7a" d="M363.25,-606C363.25,-606 222,-606 222,-606 216,-606 210,-600 210,-594 210,-594 210,-582 210,-582 210,-576 216,-570 222,-570 222,-570 363.25,-570 363.25,-570 369.25,-570 375.25,-576 375.25,-582 375.25,-582 375.25,-594 375.25,-594 375.25,-600 369.25,-606 363.25,-606"/>
<text xml:space="preserve" text-anchor="middle" x="292.62" y="-584.5" font-family="Arial" font-size="10.00">E5RuntimeArtifactDirectoryLoader</text>
</a>
</g>
</g>
<!-- ArtifactDir&#45;&gt;Loader -->
<g id="edge4" class="edge">
<title>ArtifactDir&#45;&gt;Loader</title>
<path fill="none" stroke="#455a64" d="M173.3,-588C181.53,-588 189.96,-588 198.35,-588"/>
<polygon fill="#455a64" stroke="#455a64" points="198.22,-591.5 208.22,-588 198.22,-584.5 198.22,-591.5"/>
</g>
<!-- ReadResult -->
<g id="node7" class="node">
<title>ReadResult</title>
<path fill="#f5f5f5" stroke="#546e7a" d="M588,-606C588,-606 424.25,-606 424.25,-606 418.25,-606 412.25,-600 412.25,-594 412.25,-594 412.25,-582 412.25,-582 412.25,-576 418.25,-570 424.25,-570 424.25,-570 588,-570 588,-570 594,-570 600,-576 600,-582 600,-582 600,-594 600,-594 600,-600 594,-606 588,-606"/>
<text xml:space="preserve" text-anchor="middle" x="506.12" y="-584.5" font-family="Arial" font-size="10.00">E5RuntimeArtifactDirectoryReadResult</text>
</g>
<!-- Loader&#45;&gt;ReadResult -->
<g id="edge5" class="edge">
<title>Loader&#45;&gt;ReadResult</title>
<path fill="none" stroke="#455a64" d="M375.7,-588C383.84,-588 392.18,-588 400.51,-588"/>
<polygon fill="#455a64" stroke="#455a64" points="400.33,-591.5 410.33,-588 400.33,-584.5 400.33,-591.5"/>
</g>
<!-- ReadResult&#45;&gt;Result -->
<g id="edge8" class="edge">
<title>ReadResult&#45;&gt;Result</title>
<path fill="none" stroke="#455a64" d="M487.61,-569.93C460.78,-542.31 412.27,-486.58 393.75,-428 382.97,-393.89 374.78,-297.33 393.75,-267 400.09,-256.87 409.38,-249.48 419.94,-244.12"/>
<polygon fill="#455a64" stroke="#455a64" points="421.24,-247.37 429.02,-240.18 418.45,-240.95 421.24,-247.37"/>
</g>
<!-- Bridge -->
<g id="node8" class="node">
<title>Bridge</title>
<g id="a_node8"><a xlink:href="25_e5_runtime_bridge.svg" xlink:title="E5RuntimeBridge">
<path fill="#f5f5f5" stroke="#546e7a" d="M819.38,-606C819.38,-606 750.88,-606 750.88,-606 744.88,-606 738.88,-600 738.88,-594 738.88,-594 738.88,-582 738.88,-582 738.88,-576 744.88,-570 750.88,-570 750.88,-570 819.38,-570 819.38,-570 825.38,-570 831.38,-576 831.38,-582 831.38,-582 831.38,-594 831.38,-594 831.38,-600 825.38,-606 819.38,-606"/>
<text xml:space="preserve" text-anchor="middle" x="785.12" y="-584.5" font-family="Arial" font-size="10.00">E5RuntimeBridge</text>
</a>
</g>
</g>
<!-- ReadResult&#45;&gt;Bridge -->
<g id="edge6" class="edge">
<title>ReadResult&#45;&gt;Bridge</title>
<path fill="none" stroke="#455a64" d="M600.13,-588C642.25,-588 690.69,-588 727.29,-588"/>
<polygon fill="#455a64" stroke="#455a64" points="727.22,-591.5 737.22,-588 727.22,-584.5 727.22,-591.5"/>
</g>
<!-- Bridge&#45;&gt;Result -->
<g id="edge9" class="edge">
<title>Bridge&#45;&gt;Result</title>
<path fill="none" stroke="#455a64" d="M768.81,-569.63C742.08,-536.87 686.42,-465.46 651.25,-398 620.62,-339.25 648.42,-303.23 600,-258 597.44,-255.61 594.69,-253.43 591.79,-251.45"/>
<polygon fill="#455a64" stroke="#455a64" points="593.76,-248.55 583.37,-246.5 590.21,-254.58 593.76,-248.55"/>
</g>
<!-- InferenceContext -->
<g id="node9" class="node">
<title>InferenceContext</title>
<g id="a_node9"><a xlink:href="20_context.svg" xlink:title="InferenceContext">
<path fill="#f5f5f5" stroke="#546e7a" d="M1028,-606C1028,-606 961,-606 961,-606 955,-606 949,-600 949,-594 949,-594 949,-582 949,-582 949,-576 955,-570 961,-570 961,-570 1028,-570 1028,-570 1034,-570 1040,-576 1040,-582 1040,-582 1040,-594 1040,-594 1040,-600 1034,-606 1028,-606"/>
<text xml:space="preserve" text-anchor="middle" x="994.5" y="-584.5" font-family="Arial" font-size="10.00">InferenceContext</text>
</a>
</g>
</g>
<!-- Bridge&#45;&gt;InferenceContext -->
<g id="edge7" class="edge">
<title>Bridge&#45;&gt;InferenceContext</title>
<path fill="none" stroke="#455a64" d="M831.63,-588C862.78,-588 904.27,-588 937.45,-588"/>
<polygon fill="#455a64" stroke="#455a64" points="937.3,-591.5 947.3,-588 937.3,-584.5 937.3,-591.5"/>
</g>
<!-- Direct&#45;&gt;InferenceContext -->
<g id="edge12" class="edge">
<title>Direct&#45;&gt;InferenceContext</title>
<path fill="none" stroke="#455a64" d="M906.49,-49.73C911.39,-52.95 915.94,-56.68 920,-61 988.3,-133.56 993.68,-458.13 993.69,-558.4"/>
<polygon fill="#455a64" stroke="#455a64" points="990.19,-558.22 993.67,-568.22 997.19,-558.23 990.19,-558.22"/>
</g>
<!-- NoCli -->
<g id="node13" class="node">
<title>NoCli</title>
<path fill="#f5f5f5" stroke="#546e7a" d="M134,-301C134,-301 55,-301 55,-301 49,-301 43,-295 43,-289 43,-289 43,-277 43,-277 43,-271 49,-265 55,-265 55,-265 134,-265 134,-265 140,-265 146,-271 146,-277 146,-277 146,-289 146,-289 146,-295 140,-301 134,-301"/>
<text xml:space="preserve" text-anchor="middle" x="94.5" y="-279.5" font-family="Arial" font-size="10.00">pas de nouvelle CLI</text>
</g>
<!-- NoCli&#45;&gt;Runtime -->
<g id="edge14" class="edge">
<title>NoCli&#45;&gt;Runtime</title>
<path fill="none" stroke="#455a64" stroke-dasharray="5,2" d="M146.4,-292.33C156.41,-296.3 165.97,-301.95 173,-310 199.54,-340.41 159.76,-373.45 191,-399 268.45,-462.35 543.16,-418.76 641.25,-399 676.21,-391.96 713.28,-376.12 740.89,-362.48"/>
<polygon fill="#455a64" stroke="#455a64" points="742.29,-365.7 749.64,-358.07 739.13,-359.45 742.29,-365.7"/>
</g>
<!-- NoDaemon -->
<g id="node14" class="node">
<title>NoDaemon</title>
<path fill="#f5f5f5" stroke="#546e7a" d="M123.88,-247C123.88,-247 65.12,-247 65.12,-247 59.13,-247 53.12,-241 53.12,-235 53.12,-235 53.12,-223 53.12,-223 53.12,-217 59.12,-211 65.12,-211 65.12,-211 123.88,-211 123.88,-211 129.88,-211 135.88,-217 135.88,-223 135.88,-223 135.88,-235 135.88,-235 135.88,-241 129.88,-247 123.88,-247"/>
<text xml:space="preserve" text-anchor="middle" x="94.5" y="-225.5" font-family="Arial" font-size="10.00">pas de daemon</text>
</g>
<!-- NoDaemon&#45;&gt;Runtime -->
<g id="edge15" class="edge">
<title>NoDaemon&#45;&gt;Runtime</title>
<path fill="none" stroke="#455a64" stroke-dasharray="5,2" d="M136,-242.29C148,-246.45 161.11,-251.21 173,-256 281.55,-299.75 297.92,-340.98 412.25,-366 514.8,-388.45 636.66,-371.62 712.21,-356.27"/>
<polygon fill="#455a64" stroke="#455a64" points="712.91,-359.7 721.99,-354.23 711.48,-352.84 712.91,-359.7"/>
</g>
<!-- NoScheduler -->
<g id="node15" class="node">
<title>NoScheduler</title>
<path fill="#f5f5f5" stroke="#546e7a" d="M146.75,-517C146.75,-517 42.25,-517 42.25,-517 36.25,-517 30.25,-511 30.25,-505 30.25,-505 30.25,-493 30.25,-493 30.25,-487 36.25,-481 42.25,-481 42.25,-481 146.75,-481 146.75,-481 152.75,-481 158.75,-487 158.75,-493 158.75,-493 158.75,-505 158.75,-505 158.75,-511 152.75,-517 146.75,-517"/>
<text xml:space="preserve" text-anchor="middle" x="94.5" y="-495.5" font-family="Arial" font-size="10.00">ne lance pas le Scheduler</text>
</g>
<!-- NoScheduler&#45;&gt;InferenceContext -->
<g id="edge16" class="edge">
<title>NoScheduler&#45;&gt;InferenceContext</title>
<path fill="none" stroke="#455a64" stroke-dasharray="5,2" d="M124.32,-517.36C139.81,-528.07 158.62,-542.5 173,-558 193.54,-580.14 185.28,-597.65 210,-615 240.49,-636.39 254.38,-634 291.62,-634 291.62,-634 291.62,-634 786.12,-634 846.22,-634 861.72,-629.66 920,-615 925.93,-613.51 932.05,-611.7 938.11,-609.75"/>
<polygon fill="#455a64" stroke="#455a64" points="939.1,-613.11 947.45,-606.58 936.85,-606.48 939.1,-613.11"/>
</g>
<!-- NoQdrant -->
<g id="node16" class="node">
<title>NoQdrant</title>
<path fill="#f5f5f5" stroke="#546e7a" d="M121.25,-409C121.25,-409 67.75,-409 67.75,-409 61.75,-409 55.75,-403 55.75,-397 55.75,-397 55.75,-385 55.75,-385 55.75,-379 61.75,-373 67.75,-373 67.75,-373 121.25,-373 121.25,-373 127.25,-373 133.25,-379 133.25,-385 133.25,-385 133.25,-397 133.25,-397 133.25,-403 127.25,-409 121.25,-409"/>
<text xml:space="preserve" text-anchor="middle" x="94.5" y="-387.5" font-family="Arial" font-size="10.00">pas de Qdrant</text>
</g>
<!-- NoQdrant&#45;&gt;Bridge -->
<g id="edge17" class="edge">
<title>NoQdrant&#45;&gt;Bridge</title>
<path fill="none" stroke="#455a64" stroke-dasharray="5,2" d="M133.7,-396.9C147.67,-400.8 162.58,-407.27 173,-418 191.51,-437.06 171.14,-457.35 191,-475 211.17,-492.93 582.67,-555.13 727.23,-578.78"/>
<polygon fill="#455a64" stroke="#455a64" points="726.54,-582.21 736.97,-580.37 727.67,-575.3 726.54,-582.21"/>
</g>
<!-- NoNetwork -->
<g id="node17" class="node">
<title>NoNetwork</title>
<path fill="#f5f5f5" stroke="#546e7a" d="M150.5,-463C150.5,-463 38.5,-463 38.5,-463 32.5,-463 26.5,-457 26.5,-451 26.5,-451 26.5,-439 26.5,-439 26.5,-433 32.5,-427 38.5,-427 38.5,-427 150.5,-427 150.5,-427 156.5,-427 162.5,-433 162.5,-439 162.5,-439 162.5,-451 162.5,-451 162.5,-457 156.5,-463 150.5,-463"/>
<text xml:space="preserve" text-anchor="middle" x="94.5" y="-441.5" font-family="Arial" font-size="10.00">pas de réseau / GitHub API</text>
</g>
<!-- NoNetwork&#45;&gt;Loader -->
<g id="edge18" class="edge">
<title>NoNetwork&#45;&gt;Loader</title>
<path fill="none" stroke="#455a64" stroke-dasharray="5,2" d="M160.59,-463.36C165.02,-465.89 169.22,-468.75 173,-472 185.97,-483.14 180.16,-492.78 191,-506 209.01,-527.96 233.68,-548.17 254.08,-563.04"/>
<polygon fill="#455a64" stroke="#455a64" points="252,-565.85 262.18,-568.8 256.07,-560.15 252,-565.85"/>
</g>
<!-- NoLLM -->
<g id="node18" class="node">
<title>NoLLM</title>
<path fill="#f5f5f5" stroke="#546e7a" d="M140,-355C140,-355 49,-355 49,-355 43,-355 37,-349 37,-343 37,-343 37,-331 37,-331 37,-325 43,-319 49,-319 49,-319 140,-319 140,-319 146,-319 152,-325 152,-331 152,-331 152,-343 152,-343 152,-349 146,-355 140,-355"/>
<text xml:space="preserve" text-anchor="middle" x="94.5" y="-333.5" font-family="Arial" font-size="10.00">pas de génération LLM</text>
</g>
<!-- NoLLM&#45;&gt;Bridge -->
<g id="edge19" class="edge">
<title>NoLLM&#45;&gt;Bridge</title>
<path fill="none" stroke="#455a64" stroke-dasharray="5,2" d="M152.29,-350.07C159.91,-353.65 167.11,-358.21 173,-364 189.54,-380.27 179.45,-392.88 191,-413 197.6,-424.5 198.68,-429.1 210,-436 247.87,-459.09 557.4,-508.67 600,-521 643.87,-533.7 692.36,-551.5 728.56,-565.57"/>
<polygon fill="#455a64" stroke="#455a64" points="726.91,-568.68 737.5,-569.06 729.46,-562.16 726.91,-568.68"/>
</g>
<!-- Stdlib -->
<g id="node19" class="node">
<title>Stdlib</title>
<path fill="#f5f5f5" stroke="#546e7a" d="M128.75,-193C128.75,-193 60.25,-193 60.25,-193 54.25,-193 48.25,-187 48.25,-181 48.25,-181 48.25,-169 48.25,-169 48.25,-163 54.25,-157 60.25,-157 60.25,-157 128.75,-157 128.75,-157 134.75,-157 140.75,-163 140.75,-169 140.75,-169 140.75,-181 140.75,-181 140.75,-187 134.75,-193 128.75,-193"/>
<text xml:space="preserve" text-anchor="middle" x="94.5" y="-171.5" font-family="Arial" font-size="10.00">stdlib uniquement</text>
</g>
<!-- Stdlib&#45;&gt;Runtime -->
<g id="edge20" class="edge">
<title>Stdlib&#45;&gt;Runtime</title>
<path fill="none" stroke="#455a64" stroke-dasharray="5,2" d="M140.95,-173.23C230.06,-170.71 433.51,-169.71 600,-204 668.54,-218.11 730.11,-276.96 761.73,-312.13"/>
<polygon fill="#455a64" stroke="#455a64" points="758.88,-314.19 768.11,-319.39 764.13,-309.57 758.88,-314.19"/>
</g>
<!-- Global -->
<g id="node20" class="node">
<title>Global</title>
<g id="a_node20"><a xlink:href="../00_global.svg" xlink:title="← Global architecture">
<path fill="#f5f5f5" stroke="none" d="M137.75,-695C137.75,-695 51.25,-695 51.25,-695 45.25,-695 39.25,-689 39.25,-683 39.25,-683 39.25,-671 39.25,-671 39.25,-665 45.25,-659 51.25,-659 51.25,-659 137.75,-659 137.75,-659 143.75,-659 149.75,-665 149.75,-671 149.75,-671 149.75,-683 149.75,-683 149.75,-689 143.75,-695 137.75,-695"/>
<text xml:space="preserve" text-anchor="middle" x="94.5" y="-673.5" font-family="Arial" font-size="10.00">← Global architecture</text>
</a>
</g>
</g>
<!-- Parent -->
<g id="node21" class="node">
<title>Parent</title>
<g id="a_node21"><a xlink:href="27_e5_artifact_context_cli.svg" xlink:title="← E5 artifact context CLI">
<path fill="#f5f5f5" stroke="none" d="M146.38,-749C146.38,-749 42.62,-749 42.62,-749 36.62,-749 30.62,-743 30.62,-737 30.62,-737 30.62,-725 30.62,-725 30.62,-719 36.62,-713 42.62,-713 42.62,-713 146.38,-713 146.38,-713 152.38,-713 158.38,-719 158.38,-725 158.38,-725 158.38,-737 158.38,-737 158.38,-743 152.38,-749 146.38,-749"/>
<text xml:space="preserve" text-anchor="middle" x="94.5" y="-727.5" font-family="Arial" font-size="10.00">← E5 artifact context CLI</text>
</a>
</g>
</g>
<!-- LoaderNav -->
<g id="node22" class="node">
<title>LoaderNav</title>
<g id="a_node22"><a xlink:href="26_e5_artifact_directory_loader.svg" xlink:title="← artifact loader">
<path fill="#f5f5f5" stroke="none" d="M126.5,-803C126.5,-803 62.5,-803 62.5,-803 56.5,-803 50.5,-797 50.5,-791 50.5,-791 50.5,-779 50.5,-779 50.5,-773 56.5,-767 62.5,-767 62.5,-767 126.5,-767 126.5,-767 132.5,-767 138.5,-773 138.5,-779 138.5,-779 138.5,-791 138.5,-791 138.5,-797 132.5,-803 126.5,-803"/>
<text xml:space="preserve" text-anchor="middle" x="94.5" y="-781.5" font-family="Arial" font-size="10.00">← artifact loader</text>
</a>
</g>
</g>
<!-- BridgeNav -->
<g id="node23" class="node">
<title>BridgeNav</title>
<g id="a_node23"><a xlink:href="25_e5_runtime_bridge.svg" xlink:title="← runtime bridge">
<path fill="#f5f5f5" stroke="none" d="M127.62,-857C127.62,-857 61.38,-857 61.38,-857 55.38,-857 49.38,-851 49.38,-845 49.38,-845 49.38,-833 49.38,-833 49.38,-827 55.38,-821 61.38,-821 61.38,-821 127.62,-821 127.62,-821 133.62,-821 139.62,-827 139.62,-833 139.62,-833 139.62,-845 139.62,-845 139.62,-851 133.62,-857 127.62,-857"/>
<text xml:space="preserve" text-anchor="middle" x="94.5" y="-835.5" font-family="Arial" font-size="10.00">← runtime bridge</text>
</a>
</g>
</g>
<!-- Next -->
<g id="node24" class="node">
<title>Next</title>
<g id="a_node24"><a xlink:href="29_e5_context_attachment.svg" xlink:title="next: context attachment">
<path fill="#f5f5f5" stroke="none" d="M144.88,-911C144.88,-911 44.12,-911 44.12,-911 38.13,-911 32.13,-905 32.13,-899 32.13,-899 32.13,-887 32.13,-887 32.13,-881 38.13,-875 44.13,-875 44.13,-875 144.88,-875 144.88,-875 150.88,-875 156.88,-881 156.88,-887 156.88,-887 156.88,-899 156.88,-899 156.88,-905 150.88,-911 144.88,-911"/>
<text xml:space="preserve" text-anchor="middle" x="94.5" y="-889.5" font-family="Arial" font-size="10.00">next: context attachment</text>
</a>
</g>
</g>
</g>
</svg>
