<?xml version="1.0" encoding="UTF-8" standalone="no"?>
<!DOCTYPE svg PUBLIC "-//W3C//DTD SVG 1.1//EN"
 "http://www.w3.org/Graphics/SVG/1.1/DTD/svg11.dtd">
<!-- Generated by graphviz version 14.1.3 (20260303.0454)
 -->
<!-- Title: E5ContextAttachment Pages: 1 -->
<svg width="1332pt" height="709pt"
 viewBox="0.00 0.00 1332.00 709.00" xmlns="http://www.w3.org/2000/svg" xmlns:xlink="http://www.w3.org/1999/xlink">
<g id="graph0" class="graph" transform="scale(1 1) rotate(0) translate(4 705)">
<title>E5ContextAttachment</title>
<polygon fill="#ffffff" stroke="none" points="-4,4 -4,-705 1328,-705 1328,4 -4,4"/>
<text xml:space="preserve" text-anchor="middle" x="662" y="-679.9" font-family="Arial" font-size="18.00">Phase 5.5 — E5 context attachment contract</text>
<g id="clust1" class="cluster">
<title>cluster_inputs</title>
<path fill="#e3f2fd" stroke="#bbdefb" d="M234.25,-187C234.25,-187 592.75,-187 592.75,-187 598.75,-187 604.75,-193 604.75,-199 604.75,-199 604.75,-310 604.75,-310 604.75,-316 598.75,-322 592.75,-322 592.75,-322 234.25,-322 234.25,-322 228.25,-322 222.25,-316 222.25,-310 222.25,-310 222.25,-199 222.25,-199 222.25,-193 228.25,-187 234.25,-187"/>
<text xml:space="preserve" text-anchor="middle" x="413.5" y="-300.9" font-family="Arial" font-size="18.00">Entrées explicites</text>
</g>
<g id="clust2" class="cluster">
<title>cluster_attach</title>
<path fill="#e8f5e9" stroke="#c8e6c9" d="M443.75,-97C443.75,-97 1079.12,-97 1079.12,-97 1085.12,-97 1091.12,-103 1091.12,-109 1091.12,-109 1091.12,-166 1091.12,-166 1091.12,-172 1085.12,-178 1079.12,-178 1079.12,-178 443.75,-178 443.75,-178 437.75,-178 431.75,-172 431.75,-166 431.75,-166 431.75,-109 431.75,-109 431.75,-103 437.75,-97 443.75,-97"/>
<text xml:space="preserve" text-anchor="middle" x="761.44" y="-156.9" font-family="Arial" font-size="18.00">Contrat d&#39;attachement 5.5</text>
</g>
<g id="clust3" class="cluster">
<title>cluster_output</title>
<path fill="#ede7f6" stroke="#d1c4e9" d="M984.5,-8C984.5,-8 1304,-8 1304,-8 1310,-8 1316,-14 1316,-20 1316,-20 1316,-77 1316,-77 1316,-83 1310,-89 1304,-89 1304,-89 984.5,-89 984.5,-89 978.5,-89 972.5,-83 972.5,-77 972.5,-77 972.5,-20 972.5,-20 972.5,-14 978.5,-8 984.5,-8"/>
<text xml:space="preserve" text-anchor="middle" x="1144.25" y="-67.9" font-family="Arial" font-size="18.00">Sortie Context Fabric</text>
</g>
<g id="clust4" class="cluster">
<title>cluster_boundaries</title>
<path fill="#ffffff" stroke="#b0bec5" stroke-dasharray="5,2" d="M20,-8C20,-8 189.25,-8 189.25,-8 195.25,-8 201.25,-14 201.25,-20 201.25,-20 201.25,-401 201.25,-401 201.25,-407 195.25,-413 189.25,-413 189.25,-413 20,-413 20,-413 14,-413 8,-407 8,-401 8,-401 8,-20 8,-20 8,-14 14,-8 20,-8"/>
<text xml:space="preserve" text-anchor="middle" x="104.62" y="-391.9" font-family="Arial" font-size="18.00">Frontières</text>
</g>
<g id="clust5" class="cluster">
<title>cluster_navigation</title>
<path fill="#ffffff" stroke="#90a4ae" stroke-dasharray="5,2" d="M33.88,-421C33.88,-421 175.38,-421 175.38,-421 181.38,-421 187.38,-427 187.38,-433 187.38,-433 187.38,-652 187.38,-652 187.38,-658 181.38,-664 175.38,-664 175.38,-664 33.88,-664 33.88,-664 27.88,-664 21.88,-658 21.88,-652 21.88,-652 21.88,-433 21.88,-433 21.88,-427 27.88,-421 33.88,-421"/>
<text xml:space="preserve" text-anchor="middle" x="104.62" y="-642.9" font-family="Arial" font-size="18.00">Navigation</text>
</g>
<!-- BaseContext -->
<g id="node1" class="node">
<title>BaseContext</title>
<g id="a_node1"><a xlink:href="20_context.svg" xlink:title="InferenceContext existant">
<path fill="#f5f5f5" stroke="#546e7a" d="M346.75,-231C346.75,-231 242.25,-231 242.25,-231 236.25,-231 230.25,-225 230.25,-219 230.25,-219 230.25,-207 230.25,-207 230.25,-201 236.25,-195 242.25,-195 242.25,-195 346.75,-195 346.75,-195 352.75,-195 358.75,-201 358.75,-207 358.75,-207 358.75,-219 358.75,-219 358.75,-225 352.75,-231 346.75,-231"/>
<text xml:space="preserve" text-anchor="middle" x="294.5" y="-209.5" font-family="Arial" font-size="10.00">InferenceContext existant</text>
</a>
</g>
</g>
<!-- Attachment -->
<g id="node5" class="node">
<title>Attachment</title>
<path fill="#f5f5f5" stroke="#546e7a" d="M740.5,-141C740.5,-141 651.75,-141 651.75,-141 645.75,-141 639.75,-135 639.75,-129 639.75,-129 639.75,-117 639.75,-117 639.75,-111 645.75,-105 651.75,-105 651.75,-105 740.5,-105 740.5,-105 746.5,-105 752.5,-111 752.5,-117 752.5,-117 752.5,-129 752.5,-129 752.5,-135 746.5,-141 740.5,-141"/>
<text xml:space="preserve" text-anchor="middle" x="696.12" y="-125.5" font-family="Arial" font-size="10.00">E5ContextAttachment</text>
<text xml:space="preserve" text-anchor="middle" x="696.12" y="-113.5" font-family="Arial" font-size="10.00">merge immuable</text>
</g>
<!-- BaseContext&#45;&gt;Attachment -->
<g id="edge1" class="edge">
<title>BaseContext&#45;&gt;Attachment</title>
<path fill="none" stroke="#455a64" d="M359.1,-217.89C426.81,-220.69 535.82,-218.18 621.75,-183 640.11,-175.48 657.46,-161.73 670.67,-149.29"/>
<polygon fill="#455a64" stroke="#455a64" points="672.96,-151.95 677.64,-142.45 668.05,-146.95 672.96,-151.95"/>
</g>
<!-- RuntimeResult -->
<g id="node2" class="node">
<title>RuntimeResult</title>
<g id="a_node2"><a xlink:href="28_e5_local_context_runtime.svg" xlink:title="E5LocalContextRuntimeResult">
<path fill="#f5f5f5" stroke="#546e7a" d="M584.75,-279C584.75,-279 457.75,-279 457.75,-279 451.75,-279 445.75,-273 445.75,-267 445.75,-267 445.75,-255 445.75,-255 445.75,-249 451.75,-243 457.75,-243 457.75,-243 584.75,-243 584.75,-243 590.75,-243 596.75,-249 596.75,-255 596.75,-255 596.75,-267 596.75,-267 596.75,-273 590.75,-279 584.75,-279"/>
<text xml:space="preserve" text-anchor="middle" x="521.25" y="-257.5" font-family="Arial" font-size="10.00">E5LocalContextRuntimeResult</text>
</a>
</g>
</g>
<!-- RuntimeResult&#45;&gt;Attachment -->
<g id="edge2" class="edge">
<title>RuntimeResult&#45;&gt;Attachment</title>
<path fill="none" stroke="#455a64" d="M588.53,-242.59C600.24,-237.65 611.84,-231.52 621.75,-224 647.38,-204.54 667.97,-173.68 680.73,-151.19"/>
<polygon fill="#455a64" stroke="#455a64" points="683.74,-152.99 685.47,-142.53 677.6,-149.62 683.74,-152.99"/>
</g>
<!-- ArtifactShortcut -->
<g id="node3" class="node">
<title>ArtifactShortcut</title>
<g id="a_node3"><a xlink:href="28_e5_local_context_runtime.svg" xlink:title="artifact&#45;dir shortcut\noptionnel via runtime 5.4">
<path fill="#f5f5f5" stroke="#546e7a" d="M343.75,-285C343.75,-285 245.25,-285 245.25,-285 239.25,-285 233.25,-279 233.25,-273 233.25,-273 233.25,-261 233.25,-261 233.25,-255 239.25,-249 245.25,-249 245.25,-249 343.75,-249 343.75,-249 349.75,-249 355.75,-255 355.75,-261 355.75,-261 355.75,-273 355.75,-273 355.75,-279 349.75,-285 343.75,-285"/>
<text xml:space="preserve" text-anchor="middle" x="294.5" y="-269.5" font-family="Arial" font-size="10.00">artifact&#45;dir shortcut</text>
<text xml:space="preserve" text-anchor="middle" x="294.5" y="-257.5" font-family="Arial" font-size="10.00">optionnel via runtime 5.4</text>
</a>
</g>
</g>
<!-- ArtifactShortcut&#45;&gt;RuntimeResult -->
<g id="edge3" class="edge">
<title>ArtifactShortcut&#45;&gt;RuntimeResult</title>
<path fill="none" stroke="#455a64" stroke-dasharray="5,2" d="M356.02,-265.38C380.03,-264.74 408.09,-263.99 434.15,-263.3"/>
<polygon fill="#455a64" stroke="#455a64" points="434.15,-266.8 444.05,-263.03 433.96,-259.8 434.15,-266.8"/>
<text xml:space="preserve" text-anchor="middle" x="399.25" y="-266.66" font-family="Arial" font-size="9.00">via runtime</text>
</g>
<!-- Policy -->
<g id="node4" class="node">
<title>Policy</title>
<path fill="#f5f5f5" stroke="#546e7a" d="M590.75,-141C590.75,-141 451.75,-141 451.75,-141 445.75,-141 439.75,-135 439.75,-129 439.75,-129 439.75,-117 439.75,-117 439.75,-111 445.75,-105 451.75,-105 451.75,-105 590.75,-105 590.75,-105 596.75,-105 602.75,-111 602.75,-117 602.75,-117 602.75,-129 602.75,-129 602.75,-135 596.75,-141 590.75,-141"/>
<text xml:space="preserve" text-anchor="middle" x="521.25" y="-125.5" font-family="Arial" font-size="10.00">E5ContextAttachmentPolicy</text>
<text xml:space="preserve" text-anchor="middle" x="521.25" y="-113.5" font-family="Arial" font-size="10.00">replace/require_ready/priority floor</text>
</g>
<!-- Policy&#45;&gt;Attachment -->
<g id="edge4" class="edge">
<title>Policy&#45;&gt;Attachment</title>
<path fill="none" stroke="#455a64" d="M603.12,-123C611.48,-123 619.91,-123 628.1,-123"/>
<polygon fill="#455a64" stroke="#455a64" points="627.96,-126.5 637.96,-123 627.96,-119.5 627.96,-126.5"/>
</g>
<!-- Result -->
<g id="node6" class="node">
<title>Result</title>
<path fill="#f5f5f5" stroke="#546e7a" d="M931.5,-141C931.5,-141 801.5,-141 801.5,-141 795.5,-141 789.5,-135 789.5,-129 789.5,-129 789.5,-117 789.5,-117 789.5,-111 795.5,-105 801.5,-105 801.5,-105 931.5,-105 931.5,-105 937.5,-105 943.5,-111 943.5,-117 943.5,-117 943.5,-129 943.5,-129 943.5,-135 937.5,-141 931.5,-141"/>
<text xml:space="preserve" text-anchor="middle" x="866.5" y="-125.5" font-family="Arial" font-size="10.00">E5ContextAttachmentResult</text>
<text xml:space="preserve" text-anchor="middle" x="866.5" y="-113.5" font-family="Arial" font-size="10.00">components + replaced + ready</text>
</g>
<!-- Attachment&#45;&gt;Result -->
<g id="edge5" class="edge">
<title>Attachment&#45;&gt;Result</title>
<path fill="none" stroke="#455a64" d="M752.72,-123C760.85,-123 769.38,-123 777.95,-123"/>
<polygon fill="#455a64" stroke="#455a64" points="777.71,-126.5 787.71,-123 777.71,-119.5 777.71,-126.5"/>
</g>
<!-- Json -->
<g id="node7" class="node">
<title>Json</title>
<path fill="#f5f5f5" stroke="#546e7a" d="M1071.12,-141C1071.12,-141 1020.62,-141 1020.62,-141 1014.62,-141 1008.62,-135 1008.62,-129 1008.62,-129 1008.62,-117 1008.62,-117 1008.62,-111 1014.62,-105 1020.62,-105 1020.62,-105 1071.12,-105 1071.12,-105 1077.12,-105 1083.12,-111 1083.12,-117 1083.12,-117 1083.12,-129 1083.12,-129 1083.12,-135 1077.12,-141 1071.12,-141"/>
<text xml:space="preserve" text-anchor="middle" x="1045.88" y="-125.5" font-family="Arial" font-size="10.00">to_json_dict()</text>
<text xml:space="preserve" text-anchor="middle" x="1045.88" y="-113.5" font-family="Arial" font-size="10.00">audit stable</text>
</g>
<!-- Result&#45;&gt;Json -->
<g id="edge7" class="edge">
<title>Result&#45;&gt;Json</title>
<path fill="none" stroke="#455a64" d="M943.75,-123C961.73,-123 980.41,-123 996.75,-123"/>
<polygon fill="#455a64" stroke="#455a64" points="996.68,-126.5 1006.68,-123 996.68,-119.5 996.68,-126.5"/>
</g>
<!-- Merged -->
<g id="node8" class="node">
<title>Merged</title>
<g id="a_node8"><a xlink:href="20_context.svg" xlink:title="InferenceContext fusionné\nfeatures + priorities">
<path fill="#f5f5f5" stroke="#546e7a" d="M1099.25,-52C1099.25,-52 992.5,-52 992.5,-52 986.5,-52 980.5,-46 980.5,-40 980.5,-40 980.5,-28 980.5,-28 980.5,-22 986.5,-16 992.5,-16 992.5,-16 1099.25,-16 1099.25,-16 1105.25,-16 1111.25,-22 1111.25,-28 1111.25,-28 1111.25,-40 1111.25,-40 1111.25,-46 1105.25,-52 1099.25,-52"/>
<text xml:space="preserve" text-anchor="middle" x="1045.88" y="-36.5" font-family="Arial" font-size="10.00">InferenceContext fusionné</text>
<text xml:space="preserve" text-anchor="middle" x="1045.88" y="-24.5" font-family="Arial" font-size="10.00">features + priorities</text>
</a>
</g>
</g>
<!-- Result&#45;&gt;Merged -->
<g id="edge6" class="edge">
<title>Result&#45;&gt;Merged</title>
<path fill="none" stroke="#455a64" d="M904.25,-104.56C931.48,-90.9 968.8,-72.17 998.15,-57.44"/>
<polygon fill="#455a64" stroke="#455a64" points="999.45,-60.71 1006.82,-53.1 996.31,-54.45 999.45,-60.71"/>
</g>
<!-- EngineFuture -->
<g id="node9" class="node">
<title>EngineFuture</title>
<path fill="#f5f5f5" stroke="#546e7a" d="M1296,-52C1296,-52 1182.5,-52 1182.5,-52 1176.5,-52 1170.5,-46 1170.5,-40 1170.5,-40 1170.5,-28 1170.5,-28 1170.5,-22 1176.5,-16 1182.5,-16 1182.5,-16 1296,-16 1296,-16 1302,-16 1308,-22 1308,-28 1308,-28 1308,-40 1308,-40 1308,-46 1302,-52 1296,-52"/>
<text xml:space="preserve" text-anchor="middle" x="1239.25" y="-36.5" font-family="Arial" font-size="10.00">ContextEngine future intake</text>
<text xml:space="preserve" text-anchor="middle" x="1239.25" y="-24.5" font-family="Arial" font-size="10.00">appel explicite</text>
</g>
<!-- Merged&#45;&gt;EngineFuture -->
<g id="edge8" class="edge">
<title>Merged&#45;&gt;EngineFuture</title>
<path fill="none" stroke="#455a64" stroke-dasharray="5,2" d="M1111.67,-34C1126.85,-34 1143.19,-34 1158.93,-34"/>
<polygon fill="#455a64" stroke="#455a64" points="1158.74,-37.5 1168.74,-34 1158.74,-30.5 1158.74,-37.5"/>
<text xml:space="preserve" text-anchor="middle" x="1140.88" y="-35.95" font-family="Arial" font-size="9.00">future</text>
</g>
<!-- NoMutation -->
<g id="node10" class="node">
<title>NoMutation</title>
<path fill="#f5f5f5" stroke="#546e7a" d="M181.25,-214C181.25,-214 28,-214 28,-214 22,-214 16,-208 16,-202 16,-202 16,-190 16,-190 16,-184 22,-178 28,-178 28,-178 181.25,-178 181.25,-178 187.25,-178 193.25,-184 193.25,-190 193.25,-190 193.25,-202 193.25,-202 193.25,-208 187.25,-214 181.25,-214"/>
<text xml:space="preserve" text-anchor="middle" x="104.62" y="-192.5" font-family="Arial" font-size="10.00">pas de mutation du contexte de base</text>
</g>
<!-- NoMutation&#45;&gt;Attachment -->
<g id="edge9" class="edge">
<title>NoMutation&#45;&gt;Attachment</title>
<path fill="none" stroke="#455a64" stroke-dasharray="5,2" d="M193.48,-185.97C203.18,-184.93 212.92,-183.92 222.25,-183 392.05,-166.21 437.13,-181.92 604.75,-150 612.71,-148.48 620.97,-146.54 629.12,-144.4"/>
<polygon fill="#455a64" stroke="#455a64" points="629.95,-147.8 638.67,-141.78 628.1,-141.05 629.95,-147.8"/>
</g>
<!-- NoScheduler -->
<g id="node11" class="node">
<title>NoScheduler</title>
<path fill="#f5f5f5" stroke="#546e7a" d="M156.88,-376C156.88,-376 52.38,-376 52.38,-376 46.38,-376 40.38,-370 40.38,-364 40.38,-364 40.38,-352 40.38,-352 40.38,-346 46.38,-340 52.38,-340 52.38,-340 156.88,-340 156.88,-340 162.88,-340 168.88,-346 168.88,-352 168.88,-352 168.88,-364 168.88,-364 168.88,-370 162.88,-376 156.88,-376"/>
<text xml:space="preserve" text-anchor="middle" x="104.62" y="-354.5" font-family="Arial" font-size="10.00">ne lance pas le Scheduler</text>
</g>
<!-- NoScheduler&#45;&gt;EngineFuture -->
<g id="edge10" class="edge">
<title>NoScheduler&#45;&gt;EngineFuture</title>
<path fill="none" stroke="#455a64" stroke-dasharray="5,2" d="M169.36,-368.18C205.65,-373.12 252.01,-378 293.5,-378 293.5,-378 293.5,-378 1046.88,-378 1190.18,-378 1227.12,-147.21 1235.8,-63.7"/>
<polygon fill="#455a64" stroke="#455a64" points="1239.26,-64.29 1236.73,-54 1232.29,-63.62 1239.26,-64.29"/>
</g>
<!-- NoDaemon -->
<g id="node12" class="node">
<title>NoDaemon</title>
<path fill="#f5f5f5" stroke="#546e7a" d="M134,-106C134,-106 75.25,-106 75.25,-106 69.25,-106 63.25,-100 63.25,-94 63.25,-94 63.25,-82 63.25,-82 63.25,-76 69.25,-70 75.25,-70 75.25,-70 134,-70 134,-70 140,-70 146,-76 146,-82 146,-82 146,-94 146,-94 146,-100 140,-106 134,-106"/>
<text xml:space="preserve" text-anchor="middle" x="104.62" y="-84.5" font-family="Arial" font-size="10.00">pas de daemon</text>
</g>
<!-- NoDaemon&#45;&gt;Attachment -->
<g id="edge11" class="edge">
<title>NoDaemon&#45;&gt;Attachment</title>
<path fill="none" stroke="#455a64" stroke-dasharray="5,2" d="M146.38,-84.91C231.92,-79.23 436.23,-69.98 604.75,-96 613.4,-97.34 622.37,-99.29 631.16,-101.55"/>
<polygon fill="#455a64" stroke="#455a64" points="630.13,-104.89 640.7,-104.14 631.97,-98.14 630.13,-104.89"/>
</g>
<!-- NoNetwork -->
<g id="node13" class="node">
<title>NoNetwork</title>
<path fill="#f5f5f5" stroke="#546e7a" d="M160.62,-268C160.62,-268 48.62,-268 48.62,-268 42.62,-268 36.62,-262 36.62,-256 36.62,-256 36.62,-244 36.62,-244 36.62,-238 42.62,-232 48.62,-232 48.62,-232 160.62,-232 160.62,-232 166.62,-232 172.62,-238 172.62,-244 172.62,-244 172.62,-256 172.62,-256 172.62,-262 166.62,-268 160.62,-268"/>
<text xml:space="preserve" text-anchor="middle" x="104.62" y="-246.5" font-family="Arial" font-size="10.00">pas de réseau / GitHub API</text>
</g>
<!-- NoNetwork&#45;&gt;ArtifactShortcut -->
<g id="edge12" class="edge">
<title>NoNetwork&#45;&gt;ArtifactShortcut</title>
<path fill="none" stroke="#455a64" stroke-dasharray="5,2" d="M172.92,-256.09C188.68,-257.52 205.53,-259.04 221.49,-260.48"/>
<polygon fill="#455a64" stroke="#455a64" points="221.14,-263.97 231.41,-261.38 221.77,-256.99 221.14,-263.97"/>
</g>
<!-- NoQdrant -->
<g id="node14" class="node">
<title>NoQdrant</title>
<path fill="#f5f5f5" stroke="#546e7a" d="M131.38,-322C131.38,-322 77.88,-322 77.88,-322 71.88,-322 65.88,-316 65.88,-310 65.88,-310 65.88,-298 65.88,-298 65.88,-292 71.88,-286 77.88,-286 77.88,-286 131.38,-286 131.38,-286 137.38,-286 143.38,-292 143.38,-298 143.38,-298 143.38,-310 143.38,-310 143.38,-316 137.38,-322 131.38,-322"/>
<text xml:space="preserve" text-anchor="middle" x="104.62" y="-300.5" font-family="Arial" font-size="10.00">pas de Qdrant</text>
</g>
<!-- NoQdrant&#45;&gt;Attachment -->
<g id="edge13" class="edge">
<title>NoQdrant&#45;&gt;Attachment</title>
<path fill="none" stroke="#455a64" stroke-dasharray="5,2" d="M143.71,-313.04C166.38,-317.96 195.79,-323.53 222.25,-326 306.88,-333.91 533.46,-372.3 604.75,-326 664.45,-287.23 685.04,-198.89 691.88,-152.58"/>
<polygon fill="#455a64" stroke="#455a64" points="695.34,-153.11 693.21,-142.74 688.41,-152.18 695.34,-153.11"/>
</g>
<!-- NoLLM -->
<g id="node15" class="node">
<title>NoLLM</title>
<path fill="#f5f5f5" stroke="#546e7a" d="M150.12,-52C150.12,-52 59.12,-52 59.12,-52 53.13,-52 47.12,-46 47.12,-40 47.12,-40 47.12,-28 47.12,-28 47.12,-22 53.12,-16 59.12,-16 59.12,-16 150.12,-16 150.12,-16 156.12,-16 162.12,-22 162.12,-28 162.12,-28 162.12,-40 162.12,-40 162.12,-46 156.12,-52 150.12,-52"/>
<text xml:space="preserve" text-anchor="middle" x="104.62" y="-30.5" font-family="Arial" font-size="10.00">pas de génération LLM</text>
</g>
<!-- NoLLM&#45;&gt;Merged -->
<g id="edge14" class="edge">
<title>NoLLM&#45;&gt;Merged</title>
<path fill="none" stroke="#455a64" stroke-dasharray="5,2" d="M162.35,-34C199.63,-34 249.47,-34 293.5,-34 293.5,-34 293.5,-34 867.5,-34 900.69,-34 937.36,-34 968.71,-34"/>
<polygon fill="#455a64" stroke="#455a64" points="968.49,-37.5 978.49,-34 968.49,-30.5 968.49,-37.5"/>
</g>
<!-- Stdlib -->
<g id="node16" class="node">
<title>Stdlib</title>
<path fill="#f5f5f5" stroke="#546e7a" d="M138.88,-160C138.88,-160 70.38,-160 70.38,-160 64.38,-160 58.38,-154 58.38,-148 58.38,-148 58.38,-136 58.38,-136 58.38,-130 64.38,-124 70.38,-124 70.38,-124 138.88,-124 138.88,-124 144.88,-124 150.88,-130 150.88,-136 150.88,-136 150.88,-148 150.88,-148 150.88,-154 144.88,-160 138.88,-160"/>
<text xml:space="preserve" text-anchor="middle" x="104.62" y="-138.5" font-family="Arial" font-size="10.00">stdlib uniquement</text>
</g>
<!-- Stdlib&#45;&gt;Policy -->
<g id="edge15" class="edge">
<title>Stdlib&#45;&gt;Policy</title>
<path fill="none" stroke="#455a64" stroke-dasharray="5,2" d="M151.18,-139.91C217.52,-136.87 342.14,-131.16 428.09,-127.22"/>
<polygon fill="#455a64" stroke="#455a64" points="428.08,-130.73 437.91,-126.77 427.76,-123.73 428.08,-130.73"/>
</g>
<!-- Global -->
<g id="node17" class="node">
<title>Global</title>
<g id="a_node17"><a xlink:href="../00_global.svg" xlink:title="← Global architecture">
<path fill="#f5f5f5" stroke="none" d="M147.88,-465C147.88,-465 61.38,-465 61.38,-465 55.38,-465 49.38,-459 49.38,-453 49.38,-453 49.38,-441 49.38,-441 49.38,-435 55.38,-429 61.38,-429 61.38,-429 147.88,-429 147.88,-429 153.88,-429 159.88,-435 159.88,-441 159.88,-441 159.88,-453 159.88,-453 159.88,-459 153.88,-465 147.88,-465"/>
<text xml:space="preserve" text-anchor="middle" x="104.62" y="-443.5" font-family="Arial" font-size="10.00">← Global architecture</text>
</a>
</g>
</g>
<!-- Parent -->
<g id="node18" class="node">
<title>Parent</title>
<g id="a_node18"><a xlink:href="28_e5_local_context_runtime.svg" xlink:title="← E5 local context runtime">
<path fill="#f5f5f5" stroke="none" d="M159.88,-519C159.88,-519 49.38,-519 49.38,-519 43.38,-519 37.38,-513 37.38,-507 37.38,-507 37.38,-495 37.38,-495 37.38,-489 43.38,-483 49.38,-483 49.38,-483 159.88,-483 159.88,-483 165.88,-483 171.88,-489 171.88,-495 171.88,-495 171.88,-507 171.88,-507 171.88,-513 165.88,-519 159.88,-519"/>
<text xml:space="preserve" text-anchor="middle" x="104.62" y="-497.5" font-family="Arial" font-size="10.00">← E5 local context runtime</text>
</a>
</g>
</g>
<!-- Context -->
<g id="node19" class="node">
<title>Context</title>
<g id="a_node19"><a xlink:href="20_context.svg" xlink:title="← Context Fabric">
<path fill="#f5f5f5" stroke="none" d="M139.25,-573C139.25,-573 70,-573 70,-573 64,-573 58,-567 58,-561 58,-561 58,-549 58,-549 58,-543 64,-537 70,-537 70,-537 139.25,-537 139.25,-537 145.25,-537 151.25,-543 151.25,-549 151.25,-549 151.25,-561 151.25,-561 151.25,-567 145.25,-573 139.25,-573"/>
<text xml:space="preserve" text-anchor="middle" x="104.62" y="-551.5" font-family="Arial" font-size="10.00">← Context Fabric</text>
</a>
</g>
</g>
<!-- Next -->
<g id="node20" class="node">
<title>Next</title>
<g id="a_node20"><a xlink:href="30_e5_context_engine_intake.svg" xlink:title="next: ContextEngine E5 intake">
<path fill="#f5f5f5" stroke="none" d="M167.38,-627C167.38,-627 41.88,-627 41.88,-627 35.87,-627 29.88,-621 29.88,-615 29.88,-615 29.88,-603 29.88,-603 29.88,-597 35.88,-591 41.88,-591 41.88,-591 167.38,-591 167.38,-591 173.38,-591 179.38,-597 179.38,-603 179.38,-603 179.38,-615 179.38,-615 179.38,-621 173.38,-627 167.38,-627"/>
<text xml:space="preserve" text-anchor="middle" x="104.62" y="-605.5" font-family="Arial" font-size="10.00">next: ContextEngine E5 intake</text>
</a>
</g>
</g>
</g>
</svg>
