<?xml version="1.0" encoding="UTF-8" standalone="no"?>
<!DOCTYPE svg PUBLIC "-//W3C//DTD SVG 1.1//EN"
 "http://www.w3.org/Graphics/SVG/1.1/DTD/svg11.dtd">
<!-- Generated by graphviz version 14.1.3 (20260303.0454)
 -->
<!-- Title: E5ContextEngineIntake Pages: 1 -->
<svg width="1117pt" height="763pt"
 viewBox="0.00 0.00 1117.00 763.00" xmlns="http://www.w3.org/2000/svg" xmlns:xlink="http://www.w3.org/1999/xlink">
<g id="graph0" class="graph" transform="scale(1 1) rotate(0) translate(4 759)">
<title>E5ContextEngineIntake</title>
<polygon fill="#ffffff" stroke="none" points="-4,4 -4,-759 1112.75,-759 1112.75,4 -4,4"/>
<text xml:space="preserve" text-anchor="middle" x="554.38" y="-733.9" font-family="Arial" font-size="18.00">Phase 5.6 — ContextEngine E5 intake facade</text>
<g id="clust1" class="cluster">
<title>cluster_inputs</title>
<path fill="#e3f2fd" stroke="#bbdefb" d="M353.25,-170C353.25,-170 527,-170 527,-170 533,-170 539,-176 539,-182 539,-182 539,-347 539,-347 539,-353 533,-359 527,-359 527,-359 353.25,-359 353.25,-359 347.25,-359 341.25,-353 341.25,-347 341.25,-347 341.25,-182 341.25,-182 341.25,-176 347.25,-170 353.25,-170"/>
<text xml:space="preserve" text-anchor="middle" x="440.12" y="-337.9" font-family="Arial" font-size="18.00">Entrées explicites</text>
</g>
<g id="clust2" class="cluster">
<title>cluster_intake</title>
<path fill="#e8f5e9" stroke="#c8e6c9" d="M358.88,-367C358.88,-367 771.25,-367 771.25,-367 777.25,-367 783.25,-373 783.25,-379 783.25,-379 783.25,-544 783.25,-544 783.25,-550 777.25,-556 771.25,-556 771.25,-556 358.88,-556 358.88,-556 352.88,-556 346.88,-550 346.88,-544 346.88,-544 346.88,-379 346.88,-379 346.88,-373 352.88,-367 358.88,-367"/>
<text xml:space="preserve" text-anchor="middle" x="565.06" y="-534.9" font-family="Arial" font-size="18.00">Façade ContextEngine 5.6</text>
</g>
<g id="clust3" class="cluster">
<title>cluster_existing</title>
<path fill="#ede7f6" stroke="#d1c4e9" d="M614.38,-278C614.38,-278 1088.75,-278 1088.75,-278 1094.75,-278 1100.75,-284 1100.75,-290 1100.75,-290 1100.75,-347 1100.75,-347 1100.75,-353 1094.75,-359 1088.75,-359 1088.75,-359 614.38,-359 614.38,-359 608.38,-359 602.38,-353 602.38,-347 602.38,-347 602.38,-290 602.38,-290 602.38,-284 608.38,-278 614.38,-278"/>
<text xml:space="preserve" text-anchor="middle" x="851.56" y="-337.9" font-family="Arial" font-size="18.00">Contrats réutilisés</text>
</g>
<g id="clust4" class="cluster">
<title>cluster_boundaries</title>
<path fill="#ffffff" stroke="#b0bec5" stroke-dasharray="5,2" d="M20,-8C20,-8 188.25,-8 188.25,-8 194.25,-8 200.25,-14 200.25,-20 200.25,-20 200.25,-455 200.25,-455 200.25,-461 194.25,-467 188.25,-467 188.25,-467 20,-467 20,-467 14,-467 8,-461 8,-455 8,-455 8,-20 8,-20 8,-14 14,-8 20,-8"/>
<text xml:space="preserve" text-anchor="middle" x="104.12" y="-445.9" font-family="Arial" font-size="18.00">Frontières conservées</text>
</g>
<g id="clust5" class="cluster">
<title>cluster_navigation</title>
<path fill="#ffffff" stroke="#90a4ae" stroke-dasharray="5,2" d="M32.5,-475C32.5,-475 174.75,-475 174.75,-475 180.75,-475 186.75,-481 186.75,-487 186.75,-487 186.75,-706 186.75,-706 186.75,-712 180.75,-718 174.75,-718 174.75,-718 32.5,-718 32.5,-718 26.5,-718 20.5,-712 20.5,-706 20.5,-706 20.5,-487 20.5,-487 20.5,-481 26.5,-475 32.5,-475"/>
<text xml:space="preserve" text-anchor="middle" x="103.62" y="-696.9" font-family="Arial" font-size="18.00">Navigation</text>
</g>
<!-- ArtifactDir -->
<g id="node1" class="node">
<title>ArtifactDir</title>
<g id="a_node1"><a xlink:href="26_e5_artifact_directory_loader.svg" xlink:title="artifact&#45;dir Phase 4\nreport/context/consumed/prompt">
<path fill="#f5f5f5" stroke="#546e7a" d="M506.62,-322C506.62,-322 373.62,-322 373.62,-322 367.62,-322 361.62,-316 361.62,-310 361.62,-310 361.62,-298 361.62,-298 361.62,-292 367.62,-286 373.62,-286 373.62,-286 506.62,-286 506.62,-286 512.62,-286 518.62,-292 518.62,-298 518.62,-298 518.62,-310 518.62,-310 518.62,-316 512.62,-322 506.62,-322"/>
<text xml:space="preserve" text-anchor="middle" x="440.12" y="-306.5" font-family="Arial" font-size="10.00">artifact&#45;dir Phase 4</text>
<text xml:space="preserve" text-anchor="middle" x="440.12" y="-294.5" font-family="Arial" font-size="10.00">report/context/consumed/prompt</text>
</a>
</g>
</g>
<!-- AttachDir -->
<g id="node5" class="node">
<title>AttachDir</title>
<path fill="#f5f5f5" stroke="#546e7a" d="M751.25,-465C751.25,-465 592,-465 592,-465 586,-465 580,-459 580,-453 580,-453 580,-441 580,-441 580,-435 586,-429 592,-429 592,-429 751.25,-429 751.25,-429 757.25,-429 763.25,-435 763.25,-441 763.25,-441 763.25,-453 763.25,-453 763.25,-459 757.25,-465 751.25,-465"/>
<text xml:space="preserve" text-anchor="middle" x="671.62" y="-443.5" font-family="Arial" font-size="10.00">ContextEngine.attach_e5_artifact_dir()</text>
</g>
<!-- ArtifactDir&#45;&gt;AttachDir -->
<g id="edge1" class="edge">
<title>ArtifactDir&#45;&gt;AttachDir</title>
<path fill="none" stroke="#455a64" d="M493.4,-322.4C513.53,-331.79 535.22,-345.09 550,-363 566.91,-383.49 548.76,-401.68 568,-420 568.9,-420.86 569.82,-421.69 570.77,-422.49"/>
<polygon fill="#455a64" stroke="#455a64" points="568.46,-425.14 578.61,-428.18 572.57,-419.48 568.46,-425.14"/>
</g>
<!-- RuntimeResult -->
<g id="node2" class="node">
<title>RuntimeResult</title>
<g id="a_node2"><a xlink:href="28_e5_local_context_runtime.svg" xlink:title="E5LocalContextRuntimeResult">
<path fill="#f5f5f5" stroke="#546e7a" d="M503.62,-214C503.62,-214 376.62,-214 376.62,-214 370.62,-214 364.62,-208 364.62,-202 364.62,-202 364.62,-190 364.62,-190 364.62,-184 370.62,-178 376.62,-178 376.62,-178 503.62,-178 503.62,-178 509.62,-178 515.62,-184 515.62,-190 515.62,-190 515.62,-202 515.62,-202 515.62,-208 509.62,-214 503.62,-214"/>
<text xml:space="preserve" text-anchor="middle" x="440.12" y="-192.5" font-family="Arial" font-size="10.00">E5LocalContextRuntimeResult</text>
</a>
</g>
</g>
<!-- AttachRuntime -->
<g id="node6" class="node">
<title>AttachRuntime</title>
<path fill="#f5f5f5" stroke="#546e7a" d="M763.25,-411C763.25,-411 580,-411 580,-411 574,-411 568,-405 568,-399 568,-399 568,-387 568,-387 568,-381 574,-375 580,-375 580,-375 763.25,-375 763.25,-375 769.25,-375 775.25,-381 775.25,-387 775.25,-387 775.25,-399 775.25,-399 775.25,-405 769.25,-411 763.25,-411"/>
<text xml:space="preserve" text-anchor="middle" x="671.62" y="-389.5" font-family="Arial" font-size="10.00">ContextEngine.attach_e5_runtime_context()</text>
</g>
<!-- RuntimeResult&#45;&gt;AttachRuntime -->
<g id="edge2" class="edge">
<title>RuntimeResult&#45;&gt;AttachRuntime</title>
<path fill="none" stroke="#455a64" d="M516.1,-207.15C524.67,-211.03 532.61,-216.18 539,-223 582.45,-269.37 524.9,-316.3 568,-363 569.56,-364.69 571.21,-366.28 572.93,-367.79"/>
<polygon fill="#455a64" stroke="#455a64" points="570.8,-370.57 580.92,-373.71 574.97,-364.95 570.8,-370.57"/>
</g>
<!-- EngineState -->
<g id="node3" class="node">
<title>EngineState</title>
<g id="a_node3"><a xlink:href="20_context.svg" xlink:title="ContextEngine.last_inference_context">
<path fill="#f5f5f5" stroke="#546e7a" d="M519,-268C519,-268 361.25,-268 361.25,-268 355.25,-268 349.25,-262 349.25,-256 349.25,-256 349.25,-244 349.25,-244 349.25,-238 355.25,-232 361.25,-232 361.25,-232 519,-232 519,-232 525,-232 531,-238 531,-244 531,-244 531,-256 531,-256 531,-262 525,-268 519,-268"/>
<text xml:space="preserve" text-anchor="middle" x="440.12" y="-246.5" font-family="Arial" font-size="10.00">ContextEngine.last_inference_context</text>
</a>
</g>
</g>
<!-- EngineState&#45;&gt;AttachDir -->
<g id="edge3" class="edge">
<title>EngineState&#45;&gt;AttachDir</title>
<path fill="none" stroke="#455a64" d="M529.04,-268.41C532.64,-270.93 535.99,-273.78 539,-277 583.24,-324.41 523.47,-372.85 568,-420 569,-421.05 570.03,-422.07 571.09,-423.05"/>
<polygon fill="#455a64" stroke="#455a64" points="568.6,-425.54 578.65,-428.9 572.88,-420.01 568.6,-425.54"/>
</g>
<!-- EngineState&#45;&gt;AttachRuntime -->
<g id="edge4" class="edge">
<title>EngineState&#45;&gt;AttachRuntime</title>
<path fill="none" stroke="#455a64" d="M518.24,-268.41C525.38,-270.97 532.41,-273.82 539,-277 575.34,-294.51 540.31,-333.67 568,-363 569.58,-364.67 571.24,-366.25 572.98,-367.74"/>
<polygon fill="#455a64" stroke="#455a64" points="570.89,-370.55 581.03,-373.61 575.01,-364.89 570.89,-370.55"/>
</g>
<!-- Policy -->
<g id="node4" class="node">
<title>Policy</title>
<path fill="#f5f5f5" stroke="#546e7a" d="M513.38,-441C513.38,-441 366.88,-441 366.88,-441 360.88,-441 354.88,-435 354.88,-429 354.88,-429 354.88,-417 354.88,-417 354.88,-411 360.88,-405 366.88,-405 366.88,-405 513.38,-405 513.38,-405 519.38,-405 525.38,-411 525.38,-417 525.38,-417 525.38,-429 525.38,-429 525.38,-435 519.38,-441 513.38,-441"/>
<text xml:space="preserve" text-anchor="middle" x="440.12" y="-425.5" font-family="Arial" font-size="10.00">E5ContextEngineIntakePolicy</text>
<text xml:space="preserve" text-anchor="middle" x="440.12" y="-413.5" font-family="Arial" font-size="10.00">runtime_policy + attachment_policy</text>
</g>
<!-- Policy&#45;&gt;AttachDir -->
<g id="edge5" class="edge">
<title>Policy&#45;&gt;AttachDir</title>
<path fill="none" stroke="#455a64" d="M525.6,-431.83C539.52,-433.29 554.08,-434.81 568.37,-436.31"/>
<polygon fill="#455a64" stroke="#455a64" points="567.95,-439.78 578.26,-437.34 568.68,-432.82 567.95,-439.78"/>
</g>
<!-- Policy&#45;&gt;AttachRuntime -->
<g id="edge6" class="edge">
<title>Policy&#45;&gt;AttachRuntime</title>
<path fill="none" stroke="#455a64" d="M525.6,-411.96C535.65,-410.64 546.02,-409.29 556.39,-407.93"/>
<polygon fill="#455a64" stroke="#455a64" points="556.67,-411.43 566.13,-406.66 555.76,-404.49 556.67,-411.43"/>
</g>
<!-- Runtime -->
<g id="node9" class="node">
<title>Runtime</title>
<g id="a_node9"><a xlink:href="28_e5_local_context_runtime.svg" xlink:title="E5LocalContextRuntime">
<path fill="#f5f5f5" stroke="#546e7a" d="M720.88,-322C720.88,-322 622.38,-322 622.38,-322 616.38,-322 610.38,-316 610.38,-310 610.38,-310 610.38,-298 610.38,-298 610.38,-292 616.38,-286 622.38,-286 622.38,-286 720.88,-286 720.88,-286 726.88,-286 732.88,-292 732.88,-298 732.88,-298 732.88,-310 732.88,-310 732.88,-316 726.88,-322 720.88,-322"/>
<text xml:space="preserve" text-anchor="middle" x="671.62" y="-300.5" font-family="Arial" font-size="10.00">E5LocalContextRuntime</text>
</a>
</g>
</g>
<!-- AttachDir&#45;&gt;Runtime -->
<g id="edge7" class="edge">
<title>AttachDir&#45;&gt;Runtime</title>
<path fill="none" stroke="#455a64" d="M579.51,-435.06C568.75,-429.52 559.49,-421.77 553.5,-411 545.07,-395.85 545.07,-387.15 553.5,-372 564.42,-352.37 583.49,-337.94 603.16,-327.56"/>
<polygon fill="#455a64" stroke="#455a64" points="604.68,-330.72 612.11,-323.17 601.59,-324.44 604.68,-330.72"/>
</g>
<!-- Attachment -->
<g id="node10" class="node">
<title>Attachment</title>
<g id="a_node10"><a xlink:href="29_e5_context_attachment.svg" xlink:title="E5ContextAttachment">
<path fill="#f5f5f5" stroke="#546e7a" d="M913,-322C913,-322 824.25,-322 824.25,-322 818.25,-322 812.25,-316 812.25,-310 812.25,-310 812.25,-298 812.25,-298 812.25,-292 818.25,-286 824.25,-286 824.25,-286 913,-286 913,-286 919,-286 925,-292 925,-298 925,-298 925,-310 925,-310 925,-316 919,-322 913,-322"/>
<text xml:space="preserve" text-anchor="middle" x="868.62" y="-300.5" font-family="Arial" font-size="10.00">E5ContextAttachment</text>
</a>
</g>
</g>
<!-- AttachRuntime&#45;&gt;Attachment -->
<g id="edge9" class="edge">
<title>AttachRuntime&#45;&gt;Attachment</title>
<path fill="none" stroke="#455a64" d="M753.56,-374.56C763.75,-371.23 773.88,-367.38 783.25,-363 802.29,-354.09 821.64,-340.92 837,-329.28"/>
<polygon fill="#455a64" stroke="#455a64" points="839.06,-332.11 844.81,-323.21 834.77,-326.58 839.06,-332.11"/>
</g>
<!-- Result -->
<g id="node7" class="node">
<title>Result</title>
<path fill="#f5f5f5" stroke="#546e7a" d="M502.12,-507C502.12,-507 378.12,-507 378.12,-507 372.12,-507 366.12,-501 366.12,-495 366.12,-495 366.12,-483 366.12,-483 366.12,-477 372.12,-471 378.12,-471 378.12,-471 502.12,-471 502.12,-471 508.12,-471 514.12,-477 514.12,-483 514.12,-483 514.12,-495 514.12,-495 514.12,-501 508.12,-507 502.12,-507"/>
<text xml:space="preserve" text-anchor="middle" x="440.12" y="-491.5" font-family="Arial" font-size="10.00">E5ContextEngineIntakeResult</text>
<text xml:space="preserve" text-anchor="middle" x="440.12" y="-479.5" font-family="Arial" font-size="10.00">ready/changed/counts</text>
</g>
<!-- Result&#45;&gt;EngineState -->
<g id="edge13" class="edge">
<title>Result&#45;&gt;EngineState</title>
<path fill="none" stroke="#455a64" d="M365.76,-479.41C320.08,-469.23 265.05,-448.3 236.65,-405.25 196.13,-343.86 278.76,-315.79 341.25,-277 343.26,-275.75 345.32,-274.56 347.44,-273.43"/>
<polygon fill="#455a64" stroke="#455a64" points="348.78,-276.67 356.25,-269.16 345.73,-270.37 348.78,-276.67"/>
<text xml:space="preserve" text-anchor="middle" x="269.75" y="-396.7" font-family="Arial" font-size="9.00">update last_inference_context</text>
</g>
<!-- Json -->
<g id="node8" class="node">
<title>Json</title>
<path fill="#f5f5f5" stroke="#546e7a" d="M696.88,-519C696.88,-519 646.38,-519 646.38,-519 640.38,-519 634.38,-513 634.38,-507 634.38,-507 634.38,-495 634.38,-495 634.38,-489 640.38,-483 646.38,-483 646.38,-483 696.88,-483 696.88,-483 702.88,-483 708.88,-489 708.88,-495 708.88,-495 708.88,-507 708.88,-507 708.88,-513 702.88,-519 696.88,-519"/>
<text xml:space="preserve" text-anchor="middle" x="671.62" y="-503.5" font-family="Arial" font-size="10.00">to_json_dict()</text>
<text xml:space="preserve" text-anchor="middle" x="671.62" y="-491.5" font-family="Arial" font-size="10.00">audit stable</text>
</g>
<!-- Result&#45;&gt;Json -->
<g id="edge12" class="edge">
<title>Result&#45;&gt;Json</title>
<path fill="none" stroke="#455a64" d="M514.37,-492.83C549.73,-494.68 591.17,-496.85 622.49,-498.48"/>
<polygon fill="#455a64" stroke="#455a64" points="622.28,-501.98 632.45,-499 622.64,-494.99 622.28,-501.98"/>
</g>
<!-- Runtime&#45;&gt;Attachment -->
<g id="edge8" class="edge">
<title>Runtime&#45;&gt;Attachment</title>
<path fill="none" stroke="#455a64" d="M733.26,-304C754.68,-304 778.88,-304 800.79,-304"/>
<polygon fill="#455a64" stroke="#455a64" points="800.5,-307.5 810.5,-304 800.5,-300.5 800.5,-307.5"/>
</g>
<!-- Merged -->
<g id="node11" class="node">
<title>Merged</title>
<g id="a_node11"><a xlink:href="20_context.svg" xlink:title="InferenceContext fusionné">
<path fill="#f5f5f5" stroke="#546e7a" d="M1080.75,-322C1080.75,-322 974,-322 974,-322 968,-322 962,-316 962,-310 962,-310 962,-298 962,-298 962,-292 968,-286 974,-286 974,-286 1080.75,-286 1080.75,-286 1086.75,-286 1092.75,-292 1092.75,-298 1092.75,-298 1092.75,-310 1092.75,-310 1092.75,-316 1086.75,-322 1080.75,-322"/>
<text xml:space="preserve" text-anchor="middle" x="1027.38" y="-300.5" font-family="Arial" font-size="10.00">InferenceContext fusionné</text>
</a>
</g>
</g>
<!-- Attachment&#45;&gt;Merged -->
<g id="edge10" class="edge">
<title>Attachment&#45;&gt;Merged</title>
<path fill="none" stroke="#455a64" d="M925.33,-304C933.44,-304 941.9,-304 950.32,-304"/>
<polygon fill="#455a64" stroke="#455a64" points="950.24,-307.5 960.24,-304 950.24,-300.5 950.24,-307.5"/>
</g>
<!-- Merged&#45;&gt;Result -->
<g id="edge11" class="edge">
<title>Merged&#45;&gt;Result</title>
<path fill="none" stroke="#455a64" d="M1014.09,-322.37C982.38,-367.88 892.58,-485.31 783.25,-528 687.84,-565.25 566.89,-535.17 497.33,-511.2"/>
<polygon fill="#455a64" stroke="#455a64" points="498.64,-507.95 488.04,-507.92 496.31,-514.55 498.64,-507.95"/>
</g>
<!-- Manual -->
<g id="node12" class="node">
<title>Manual</title>
<path fill="#f5f5f5" stroke="#546e7a" d="M148,-376C148,-376 59.25,-376 59.25,-376 53.25,-376 47.25,-370 47.25,-364 47.25,-364 47.25,-352 47.25,-352 47.25,-346 53.25,-340 59.25,-340 59.25,-340 148,-340 148,-340 154,-340 160,-346 160,-352 160,-352 160,-364 160,-364 160,-370 154,-376 148,-376"/>
<text xml:space="preserve" text-anchor="middle" x="103.62" y="-354.5" font-family="Arial" font-size="10.00">appel manuel explicite</text>
</g>
<!-- Manual&#45;&gt;AttachDir -->
<g id="edge14" class="edge">
<title>Manual&#45;&gt;AttachDir</title>
<path fill="none" stroke="#455a64" stroke-dasharray="5,2" d="M160.29,-358.77C261.6,-360.85 471.85,-368.45 539,-396 554.48,-402.35 553.12,-412.36 568,-420 570.92,-421.5 573.93,-422.92 577,-424.27"/>
<polygon fill="#455a64" stroke="#455a64" points="575.67,-427.5 586.26,-428 578.29,-421.01 575.67,-427.5"/>
</g>
<!-- NoAutoload -->
<g id="node13" class="node">
<title>NoAutoload</title>
<path fill="#f5f5f5" stroke="#546e7a" d="M131.12,-268C131.12,-268 76.12,-268 76.12,-268 70.12,-268 64.12,-262 64.12,-256 64.12,-256 64.12,-244 64.12,-244 64.12,-238 70.12,-232 76.12,-232 76.12,-232 131.12,-232 131.12,-232 137.12,-232 143.12,-238 143.12,-244 143.12,-244 143.12,-256 143.12,-256 143.12,-262 137.12,-268 131.12,-268"/>
<text xml:space="preserve" text-anchor="middle" x="103.62" y="-246.5" font-family="Arial" font-size="10.00">pas d&#39;autoload</text>
</g>
<!-- NoAutoload&#45;&gt;EngineState -->
<g id="edge15" class="edge">
<title>NoAutoload&#45;&gt;EngineState</title>
<path fill="none" stroke="#455a64" stroke-dasharray="5,2" d="M143.32,-250C190.55,-250 272.21,-250 337.78,-250"/>
<polygon fill="#455a64" stroke="#455a64" points="337.48,-253.5 347.48,-250 337.48,-246.5 337.48,-253.5"/>
</g>
<!-- NoScheduler -->
<g id="node14" class="node">
<title>NoScheduler</title>
<path fill="#f5f5f5" stroke="#546e7a" d="M152.12,-160C152.12,-160 55.12,-160 55.12,-160 49.13,-160 43.12,-154 43.12,-148 43.12,-148 43.12,-136 43.12,-136 43.12,-130 49.12,-124 55.12,-124 55.12,-124 152.12,-124 152.12,-124 158.12,-124 164.12,-130 164.12,-136 164.12,-136 164.12,-148 164.12,-148 164.12,-154 158.12,-160 152.12,-160"/>
<text xml:space="preserve" text-anchor="middle" x="103.62" y="-138.5" font-family="Arial" font-size="10.00">pas de Scheduler vivant</text>
</g>
<!-- NoScheduler&#45;&gt;AttachRuntime -->
<g id="edge16" class="edge">
<title>NoScheduler&#45;&gt;AttachRuntime</title>
<path fill="none" stroke="#455a64" stroke-dasharray="5,2" d="M164.38,-131.77C270.31,-115.1 485.01,-88.47 539,-136 577.17,-169.6 534.98,-324.33 568,-363 569.45,-364.69 570.98,-366.3 572.6,-367.81"/>
<polygon fill="#455a64" stroke="#455a64" points="570.07,-370.27 580.08,-373.73 574.41,-364.78 570.07,-370.27"/>
</g>
<!-- NoDaemon -->
<g id="node15" class="node">
<title>NoDaemon</title>
<path fill="#f5f5f5" stroke="#546e7a" d="M133,-214C133,-214 74.25,-214 74.25,-214 68.25,-214 62.25,-208 62.25,-202 62.25,-202 62.25,-190 62.25,-190 62.25,-184 68.25,-178 74.25,-178 74.25,-178 133,-178 133,-178 139,-178 145,-184 145,-190 145,-190 145,-202 145,-202 145,-208 139,-214 133,-214"/>
<text xml:space="preserve" text-anchor="middle" x="103.62" y="-192.5" font-family="Arial" font-size="10.00">pas de daemon</text>
</g>
<!-- NoDaemon&#45;&gt;AttachDir -->
<g id="edge17" class="edge">
<title>NoDaemon&#45;&gt;AttachDir</title>
<path fill="none" stroke="#455a64" stroke-dasharray="5,2" d="M145.41,-186.11C242.16,-163.71 481.75,-114.92 539,-166 581.39,-203.82 530.81,-377.05 568,-420 568.98,-421.14 570.01,-422.23 571.07,-423.27"/>
<polygon fill="#455a64" stroke="#455a64" points="568.77,-425.91 578.73,-429.53 573.2,-420.49 568.77,-425.91"/>
</g>
<!-- NoNetwork -->
<g id="node16" class="node">
<title>NoNetwork</title>
<path fill="#f5f5f5" stroke="#546e7a" d="M159.62,-322C159.62,-322 47.62,-322 47.62,-322 41.62,-322 35.62,-316 35.62,-310 35.62,-310 35.62,-298 35.62,-298 35.62,-292 41.62,-286 47.62,-286 47.62,-286 159.62,-286 159.62,-286 165.62,-286 171.62,-292 171.62,-298 171.62,-298 171.62,-310 171.62,-310 171.62,-316 165.62,-322 159.62,-322"/>
<text xml:space="preserve" text-anchor="middle" x="103.62" y="-300.5" font-family="Arial" font-size="10.00">pas de réseau / GitHub API</text>
</g>
<!-- NoNetwork&#45;&gt;ArtifactDir -->
<g id="edge18" class="edge">
<title>NoNetwork&#45;&gt;ArtifactDir</title>
<path fill="none" stroke="#455a64" stroke-dasharray="5,2" d="M171.91,-304C223.14,-304 294.12,-304 350.06,-304"/>
<polygon fill="#455a64" stroke="#455a64" points="349.88,-307.5 359.88,-304 349.88,-300.5 349.88,-307.5"/>
</g>
<!-- NoQdrant -->
<g id="node17" class="node">
<title>NoQdrant</title>
<path fill="#f5f5f5" stroke="#546e7a" d="M130.38,-106C130.38,-106 76.88,-106 76.88,-106 70.88,-106 64.88,-100 64.88,-94 64.88,-94 64.88,-82 64.88,-82 64.88,-76 70.88,-70 76.88,-70 76.88,-70 130.38,-70 130.38,-70 136.38,-70 142.38,-76 142.38,-82 142.38,-82 142.38,-94 142.38,-94 142.38,-100 136.38,-106 130.38,-106"/>
<text xml:space="preserve" text-anchor="middle" x="103.62" y="-84.5" font-family="Arial" font-size="10.00">pas de Qdrant</text>
</g>
<!-- NoQdrant&#45;&gt;Runtime -->
<g id="edge19" class="edge">
<title>NoQdrant&#45;&gt;Runtime</title>
<path fill="none" stroke="#455a64" stroke-dasharray="5,2" d="M142.83,-77.27C224.26,-56.74 418.18,-20.45 550,-98 616.36,-137.04 649.93,-227.88 663.35,-274.8"/>
<polygon fill="#455a64" stroke="#455a64" points="659.93,-275.54 665.94,-284.26 666.68,-273.69 659.93,-275.54"/>
</g>
<!-- NoLLM -->
<g id="node18" class="node">
<title>NoLLM</title>
<path fill="#f5f5f5" stroke="#546e7a" d="M149.12,-52C149.12,-52 58.12,-52 58.12,-52 52.13,-52 46.12,-46 46.12,-40 46.12,-40 46.12,-28 46.12,-28 46.12,-22 52.12,-16 58.12,-16 58.12,-16 149.12,-16 149.12,-16 155.12,-16 161.12,-22 161.12,-28 161.12,-28 161.12,-40 161.12,-40 161.12,-46 155.12,-52 149.12,-52"/>
<text xml:space="preserve" text-anchor="middle" x="103.62" y="-30.5" font-family="Arial" font-size="10.00">pas de génération LLM</text>
</g>
<!-- NoLLM&#45;&gt;Merged -->
<g id="edge20" class="edge">
<title>NoLLM&#45;&gt;Merged</title>
<path fill="none" stroke="#455a64" stroke-dasharray="5,2" d="M161.44,-34.27C227.99,-34.57 341.56,-35 439.12,-35 439.12,-35 439.12,-35 869.62,-35 979.48,-35 1013.7,-204.55 1023.14,-274.43"/>
<polygon fill="#455a64" stroke="#455a64" points="1019.63,-274.53 1024.35,-284.01 1026.57,-273.65 1019.63,-274.53"/>
</g>
<!-- Stdlib -->
<g id="node19" class="node">
<title>Stdlib</title>
<path fill="#f5f5f5" stroke="#546e7a" d="M137.88,-430C137.88,-430 69.38,-430 69.38,-430 63.38,-430 57.38,-424 57.38,-418 57.38,-418 57.38,-406 57.38,-406 57.38,-400 63.38,-394 69.38,-394 69.38,-394 137.88,-394 137.88,-394 143.88,-394 149.88,-400 149.88,-406 149.88,-406 149.88,-418 149.88,-418 149.88,-424 143.88,-430 137.88,-430"/>
<text xml:space="preserve" text-anchor="middle" x="103.62" y="-408.5" font-family="Arial" font-size="10.00">stdlib uniquement</text>
</g>
<!-- Stdlib&#45;&gt;Policy -->
<g id="edge21" class="edge">
<title>Stdlib&#45;&gt;Policy</title>
<path fill="none" stroke="#455a64" stroke-dasharray="5,2" d="M150.09,-413.49C199.46,-415.12 279.76,-417.76 343.21,-419.85"/>
<polygon fill="#455a64" stroke="#455a64" points="342.82,-423.33 352.93,-420.17 343.05,-416.34 342.82,-423.33"/>
</g>
<!-- Global -->
<g id="node20" class="node">
<title>Global</title>
<g id="a_node20"><a xlink:href="../00_global.svg" xlink:title="← Global architecture">
<path fill="#f5f5f5" stroke="none" d="M146.88,-519C146.88,-519 60.38,-519 60.38,-519 54.38,-519 48.38,-513 48.38,-507 48.38,-507 48.38,-495 48.38,-495 48.38,-489 54.38,-483 60.38,-483 60.38,-483 146.88,-483 146.88,-483 152.88,-483 158.88,-489 158.88,-495 158.88,-495 158.88,-507 158.88,-507 158.88,-513 152.88,-519 146.88,-519"/>
<text xml:space="preserve" text-anchor="middle" x="103.62" y="-497.5" font-family="Arial" font-size="10.00">← Global architecture</text>
</a>
</g>
</g>
<!-- Parent -->
<g id="node21" class="node">
<title>Parent</title>
<g id="a_node21"><a xlink:href="29_e5_context_attachment.svg" xlink:title="← E5 context attachment">
<path fill="#f5f5f5" stroke="none" d="M155.5,-573C155.5,-573 51.75,-573 51.75,-573 45.75,-573 39.75,-567 39.75,-561 39.75,-561 39.75,-549 39.75,-549 39.75,-543 45.75,-537 51.75,-537 51.75,-537 155.5,-537 155.5,-537 161.5,-537 167.5,-543 167.5,-549 167.5,-549 167.5,-561 167.5,-561 167.5,-567 161.5,-573 155.5,-573"/>
<text xml:space="preserve" text-anchor="middle" x="103.62" y="-551.5" font-family="Arial" font-size="10.00">← E5 context attachment</text>
</a>
</g>
</g>
<!-- Context -->
<g id="node22" class="node">
<title>Context</title>
<g id="a_node22"><a xlink:href="20_context.svg" xlink:title="← Context Fabric">
<path fill="#f5f5f5" stroke="none" d="M138.25,-627C138.25,-627 69,-627 69,-627 63,-627 57,-621 57,-615 57,-615 57,-603 57,-603 57,-597 63,-591 69,-591 69,-591 138.25,-591 138.25,-591 144.25,-591 150.25,-597 150.25,-603 150.25,-603 150.25,-615 150.25,-615 150.25,-621 144.25,-627 138.25,-627"/>
<text xml:space="preserve" text-anchor="middle" x="103.62" y="-605.5" font-family="Arial" font-size="10.00">← Context Fabric</text>
</a>
</g>
</g>
<!-- Next -->
<g id="node23" class="node">
<title>Next</title>
<g id="a_node23"><a xlink:href="31_e5_context_engine_status.svg" xlink:title="next: ContextEngine E5 status">
<path fill="#f5f5f5" stroke="none" d="M166.75,-681C166.75,-681 40.5,-681 40.5,-681 34.5,-681 28.5,-675 28.5,-669 28.5,-669 28.5,-657 28.5,-657 28.5,-651 34.5,-645 40.5,-645 40.5,-645 166.75,-645 166.75,-645 172.75,-645 178.75,-651 178.75,-657 178.75,-657 178.75,-669 178.75,-669 178.75,-675 172.75,-681 166.75,-681"/>
<text xml:space="preserve" text-anchor="middle" x="103.62" y="-659.5" font-family="Arial" font-size="10.00">next: ContextEngine E5 status</text>
</a>
</g>
</g>
</g>
</svg>
