<?xml version="1.0" encoding="UTF-8" standalone="no"?>
<!DOCTYPE svg PUBLIC "-//W3C//DTD SVG 1.1//EN"
 "http://www.w3.org/Graphics/SVG/1.1/DTD/svg11.dtd">
<!-- Generated by graphviz version 14.1.3 (20260303.0454)
 -->
<!-- Title: E5ContextEngineStatus Pages: 1 -->
<svg width="1067pt" height="817pt"
 viewBox="0.00 0.00 1067.00 817.00" xmlns="http://www.w3.org/2000/svg" xmlns:xlink="http://www.w3.org/1999/xlink">
<g id="graph0" class="graph" transform="scale(1 1) rotate(0) translate(4 813)">
<title>E5ContextEngineStatus</title>
<polygon fill="#ffffff" stroke="none" points="-4,4 -4,-813 1062.75,-813 1062.75,4 -4,4"/>
<text xml:space="preserve" text-anchor="middle" x="529.38" y="-787.9" font-family="Arial" font-size="18.00">Phase 5.7 — ContextEngine E5 status projection</text>
<g id="clust1" class="cluster">
<title>cluster_inputs</title>
<path fill="#e3f2fd" stroke="#bbdefb" d="M224.25,-222C224.25,-222 658.75,-222 658.75,-222 664.75,-222 670.75,-228 670.75,-234 670.75,-234 670.75,-345 670.75,-345 670.75,-351 664.75,-357 658.75,-357 658.75,-357 224.25,-357 224.25,-357 218.25,-357 212.25,-351 212.25,-345 212.25,-345 212.25,-234 212.25,-234 212.25,-228 218.25,-222 224.25,-222"/>
<text xml:space="preserve" text-anchor="middle" x="441.5" y="-335.9" font-family="Arial" font-size="18.00">État inspecté passivement</text>
</g>
<g id="clust2" class="cluster">
<title>cluster_status</title>
<path fill="#e8f5e9" stroke="#c8e6c9" d="M340.75,-455C340.75,-455 1038.75,-455 1038.75,-455 1044.75,-455 1050.75,-461 1050.75,-467 1050.75,-467 1050.75,-578 1050.75,-578 1050.75,-584 1044.75,-590 1038.75,-590 1038.75,-590 340.75,-590 340.75,-590 334.75,-590 328.75,-584 328.75,-578 328.75,-578 328.75,-467 328.75,-467 328.75,-461 334.75,-455 340.75,-455"/>
<text xml:space="preserve" text-anchor="middle" x="689.75" y="-568.9" font-family="Arial" font-size="18.00">Projection 5.7</text>
</g>
<g id="clust3" class="cluster">
<title>cluster_boundaries</title>
<path fill="#ffffff" stroke="#b0bec5" stroke-dasharray="5,2" d="M12,-8C12,-8 180.25,-8 180.25,-8 186.25,-8 192.25,-14 192.25,-20 192.25,-20 192.25,-509 192.25,-509 192.25,-515 186.25,-521 180.25,-521 180.25,-521 12,-521 12,-521 6,-521 0,-515 0,-509 0,-509 0,-20 0,-20 0,-14 6,-8 12,-8"/>
<text xml:space="preserve" text-anchor="middle" x="96.12" y="-499.9" font-family="Arial" font-size="18.00">Frontières conservées</text>
</g>
<g id="clust4" class="cluster">
<title>cluster_navigation</title>
<path fill="#ffffff" stroke="#90a4ae" stroke-dasharray="5,2" d="M23,-529C23,-529 168.25,-529 168.25,-529 174.25,-529 180.25,-535 180.25,-541 180.25,-541 180.25,-760 180.25,-760 180.25,-766 174.25,-772 168.25,-772 168.25,-772 23,-772 23,-772 17,-772 11,-766 11,-760 11,-760 11,-541 11,-541 11,-535 17,-529 23,-529"/>
<text xml:space="preserve" text-anchor="middle" x="95.62" y="-750.9" font-family="Arial" font-size="18.00">Navigation</text>
</g>
<!-- Engine -->
<g id="node1" class="node">
<title>Engine</title>
<g id="a_node1"><a xlink:href="20_context.svg" xlink:title="ContextEngine">
<path fill="#f5f5f5" stroke="#546e7a" d="M288.75,-320C288.75,-320 232.25,-320 232.25,-320 226.25,-320 220.25,-314 220.25,-308 220.25,-308 220.25,-296 220.25,-296 220.25,-290 226.25,-284 232.25,-284 232.25,-284 288.75,-284 288.75,-284 294.75,-284 300.75,-290 300.75,-296 300.75,-296 300.75,-308 300.75,-308 300.75,-314 294.75,-320 288.75,-320"/>
<text xml:space="preserve" text-anchor="middle" x="260.5" y="-298.5" font-family="Arial" font-size="10.00">ContextEngine</text>
</a>
</g>
</g>
<!-- InferenceContext -->
<g id="node2" class="node">
<title>InferenceContext</title>
<g id="a_node2"><a xlink:href="20_context.svg" xlink:title="current_inference_context">
<path fill="#f5f5f5" stroke="#546e7a" d="M463,-266C463,-266 358.5,-266 358.5,-266 352.5,-266 346.5,-260 346.5,-254 346.5,-254 346.5,-242 346.5,-242 346.5,-236 352.5,-230 358.5,-230 358.5,-230 463,-230 463,-230 469,-230 475,-236 475,-242 475,-242 475,-254 475,-254 475,-260 469,-266 463,-266"/>
<text xml:space="preserve" text-anchor="middle" x="410.75" y="-244.5" font-family="Arial" font-size="10.00">current_inference_context</text>
</a>
</g>
</g>
<!-- Engine&#45;&gt;InferenceContext -->
<g id="edge1" class="edge">
<title>Engine&#45;&gt;InferenceContext</title>
<path fill="none" stroke="#455a64" d="M301.17,-285.61C310.2,-282.01 319.77,-278.29 328.75,-275 333.13,-273.39 337.66,-271.77 342.24,-270.16"/>
<polygon fill="#455a64" stroke="#455a64" points="343.22,-273.53 351.52,-266.95 340.93,-266.91 343.22,-273.53"/>
</g>
<!-- Snapshot -->
<g id="node3" class="node">
<title>Snapshot</title>
<path fill="#f5f5f5" stroke="#546e7a" d="M437.12,-320C437.12,-320 384.38,-320 384.38,-320 378.38,-320 372.38,-314 372.38,-308 372.38,-308 372.38,-296 372.38,-296 372.38,-290 378.38,-284 384.38,-284 384.38,-284 437.12,-284 437.12,-284 443.12,-284 449.12,-290 449.12,-296 449.12,-296 449.12,-308 449.12,-308 449.12,-314 443.12,-320 437.12,-320"/>
<text xml:space="preserve" text-anchor="middle" x="410.75" y="-304.5" font-family="Arial" font-size="10.00">last_snapshot</text>
<text xml:space="preserve" text-anchor="middle" x="410.75" y="-292.5" font-family="Arial" font-size="10.00">optionnel</text>
</g>
<!-- Engine&#45;&gt;Snapshot -->
<g id="edge2" class="edge">
<title>Engine&#45;&gt;Snapshot</title>
<path fill="none" stroke="#455a64" d="M301.23,-302C319.5,-302 341.35,-302 360.64,-302"/>
<polygon fill="#455a64" stroke="#455a64" points="360.44,-305.5 370.44,-302 360.44,-298.5 360.44,-305.5"/>
</g>
<!-- InspectEngine -->
<g id="node7" class="node">
<title>InspectEngine</title>
<path fill="#f5f5f5" stroke="#546e7a" d="M654.88,-553C654.88,-553 538.38,-553 538.38,-553 532.38,-553 526.38,-547 526.38,-541 526.38,-541 526.38,-529 526.38,-529 526.38,-523 532.38,-517 538.38,-517 538.38,-517 654.88,-517 654.88,-517 660.88,-517 666.88,-523 666.88,-529 666.88,-529 666.88,-541 666.88,-541 666.88,-547 660.88,-553 654.88,-553"/>
<text xml:space="preserve" text-anchor="middle" x="596.62" y="-531.5" font-family="Arial" font-size="10.00">inspect_e5_context_engine()</text>
</g>
<!-- Engine&#45;&gt;InspectEngine -->
<g id="edge7" class="edge">
<title>Engine&#45;&gt;InspectEngine</title>
<path fill="none" stroke="#455a64" d="M301.14,-317.81C349.67,-338.82 431.91,-380.06 484.75,-437 508.82,-462.93 494.24,-484.57 520.75,-508 521.54,-508.7 522.36,-509.38 523.18,-510.05"/>
<polygon fill="#455a64" stroke="#455a64" points="521.19,-512.92 531.42,-515.68 525.14,-507.15 521.19,-512.92"/>
</g>
<!-- Feature -->
<g id="node4" class="node">
<title>Feature</title>
<path fill="#f5f5f5" stroke="#546e7a" d="M650,-266C650,-266 543.25,-266 543.25,-266 537.25,-266 531.25,-260 531.25,-254 531.25,-254 531.25,-242 531.25,-242 531.25,-236 537.25,-230 543.25,-230 543.25,-230 650,-230 650,-230 656,-230 662,-236 662,-242 662,-242 662,-254 662,-254 662,-260 656,-266 650,-266"/>
<text xml:space="preserve" text-anchor="middle" x="596.62" y="-244.5" font-family="Arial" font-size="10.00">features[e5_local_context]</text>
</g>
<!-- InferenceContext&#45;&gt;Feature -->
<g id="edge3" class="edge">
<title>InferenceContext&#45;&gt;Feature</title>
<path fill="none" stroke="#455a64" d="M475.29,-248C489.6,-248 504.93,-248 519.69,-248"/>
<polygon fill="#455a64" stroke="#455a64" points="519.32,-251.5 529.32,-248 519.32,-244.5 519.32,-251.5"/>
</g>
<!-- Priority -->
<g id="node5" class="node">
<title>Priority</title>
<path fill="#f5f5f5" stroke="#546e7a" d="M650.75,-320C650.75,-320 542.5,-320 542.5,-320 536.5,-320 530.5,-314 530.5,-308 530.5,-308 530.5,-296 530.5,-296 530.5,-290 536.5,-284 542.5,-284 542.5,-284 650.75,-284 650.75,-284 656.75,-284 662.75,-290 662.75,-296 662.75,-296 662.75,-308 662.75,-308 662.75,-314 656.75,-320 650.75,-320"/>
<text xml:space="preserve" text-anchor="middle" x="596.62" y="-298.5" font-family="Arial" font-size="10.00">priorities[e5_local_context]</text>
</g>
<!-- InferenceContext&#45;&gt;Priority -->
<g id="edge4" class="edge">
<title>InferenceContext&#45;&gt;Priority</title>
<path fill="none" stroke="#455a64" d="M474.52,-266.43C489.82,-270.93 506.32,-275.77 522.07,-280.4"/>
<polygon fill="#455a64" stroke="#455a64" points="520.8,-283.67 531.38,-283.13 522.77,-276.96 520.8,-283.67"/>
</g>
<!-- InspectContext -->
<g id="node8" class="node">
<title>InspectContext</title>
<path fill="#f5f5f5" stroke="#546e7a" d="M660.5,-499C660.5,-499 532.75,-499 532.75,-499 526.75,-499 520.75,-493 520.75,-487 520.75,-487 520.75,-475 520.75,-475 520.75,-469 526.75,-463 532.75,-463 532.75,-463 660.5,-463 660.5,-463 666.5,-463 672.5,-469 672.5,-475 672.5,-475 672.5,-487 672.5,-487 672.5,-493 666.5,-499 660.5,-499"/>
<text xml:space="preserve" text-anchor="middle" x="596.62" y="-477.5" font-family="Arial" font-size="10.00">inspect_e5_inference_context()</text>
</g>
<!-- InferenceContext&#45;&gt;InspectContext -->
<g id="edge8" class="edge">
<title>InferenceContext&#45;&gt;InspectContext</title>
<path fill="none" stroke="#455a64" d="M473.4,-266.31C477.49,-268.84 481.34,-271.73 484.75,-275 514.66,-303.68 501.72,-324.19 520.75,-361 537.72,-393.83 560.62,-429.53 576.6,-453.38"/>
<polygon fill="#455a64" stroke="#455a64" points="573.65,-455.26 582.15,-461.58 579.45,-451.34 573.65,-455.26"/>
</g>
<!-- Status -->
<g id="node9" class="node">
<title>Status</title>
<path fill="#f5f5f5" stroke="#546e7a" d="M817.5,-499C817.5,-499 720.5,-499 720.5,-499 714.5,-499 708.5,-493 708.5,-487 708.5,-487 708.5,-475 708.5,-475 708.5,-469 714.5,-463 720.5,-463 720.5,-463 817.5,-463 817.5,-463 823.5,-463 829.5,-469 829.5,-475 829.5,-475 829.5,-487 829.5,-487 829.5,-493 823.5,-499 817.5,-499"/>
<text xml:space="preserve" text-anchor="middle" x="769" y="-483.5" font-family="Arial" font-size="10.00">E5ContextEngineStatus</text>
<text xml:space="preserve" text-anchor="middle" x="769" y="-471.5" font-family="Arial" font-size="10.00">attached/ready/counts</text>
</g>
<!-- Snapshot&#45;&gt;Status -->
<g id="edge9" class="edge">
<title>Snapshot&#45;&gt;Status</title>
<path fill="none" stroke="#455a64" d="M448.53,-320.48C513.77,-353.26 649.59,-421.51 721.32,-457.54"/>
<polygon fill="#455a64" stroke="#455a64" points="719.56,-460.58 730.06,-461.94 722.7,-454.32 719.56,-460.58"/>
</g>
<!-- Feature&#45;&gt;Status -->
<g id="edge10" class="edge">
<title>Feature&#45;&gt;Status</title>
<path fill="none" stroke="#455a64" d="M660.71,-266.32C664.94,-268.86 668.93,-271.73 672.5,-275 725.5,-323.53 751.44,-407.39 761.99,-451.67"/>
<polygon fill="#455a64" stroke="#455a64" points="758.55,-452.33 764.17,-461.31 765.38,-450.79 758.55,-452.33"/>
</g>
<!-- Priority&#45;&gt;Status -->
<g id="edge11" class="edge">
<title>Priority&#45;&gt;Status</title>
<path fill="none" stroke="#455a64" d="M616.3,-320.28C631.58,-335.34 653.67,-357.33 672.5,-377 697.27,-402.87 724.88,-433.09 744.01,-454.27"/>
<polygon fill="#455a64" stroke="#455a64" points="741.35,-456.54 750.65,-461.63 746.55,-451.86 741.35,-456.54"/>
</g>
<!-- Policy -->
<g id="node6" class="node">
<title>Policy</title>
<path fill="#f5f5f5" stroke="#546e7a" d="M472.75,-553C472.75,-553 348.75,-553 348.75,-553 342.75,-553 336.75,-547 336.75,-541 336.75,-541 336.75,-529 336.75,-529 336.75,-523 342.75,-517 348.75,-517 348.75,-517 472.75,-517 472.75,-517 478.75,-517 484.75,-523 484.75,-529 484.75,-529 484.75,-541 484.75,-541 484.75,-547 478.75,-553 472.75,-553"/>
<text xml:space="preserve" text-anchor="middle" x="410.75" y="-537.5" font-family="Arial" font-size="10.00">E5ContextEngineStatusPolicy</text>
<text xml:space="preserve" text-anchor="middle" x="410.75" y="-525.5" font-family="Arial" font-size="10.00">component_name</text>
</g>
<!-- Policy&#45;&gt;InspectEngine -->
<g id="edge5" class="edge">
<title>Policy&#45;&gt;InspectEngine</title>
<path fill="none" stroke="#455a64" d="M485.21,-535C494.92,-535 504.91,-535 514.74,-535"/>
<polygon fill="#455a64" stroke="#455a64" points="514.65,-538.5 524.65,-535 514.65,-531.5 514.65,-538.5"/>
</g>
<!-- Policy&#45;&gt;InspectContext -->
<g id="edge6" class="edge">
<title>Policy&#45;&gt;InspectContext</title>
<path fill="none" stroke="#455a64" d="M474.52,-516.57C489.82,-512.07 506.32,-507.23 522.07,-502.6"/>
<polygon fill="#455a64" stroke="#455a64" points="522.77,-506.04 531.38,-499.87 520.8,-499.33 522.77,-506.04"/>
</g>
<!-- InspectEngine&#45;&gt;Status -->
<g id="edge12" class="edge">
<title>InspectEngine&#45;&gt;Status</title>
<path fill="none" stroke="#455a64" d="M655.78,-516.57C669.69,-512.16 684.66,-507.41 699,-502.87"/>
<polygon fill="#455a64" stroke="#455a64" points="699.9,-506.26 708.37,-499.9 697.78,-499.58 699.9,-506.26"/>
</g>
<!-- InspectContext&#45;&gt;Status -->
<g id="edge13" class="edge">
<title>InspectContext&#45;&gt;Status</title>
<path fill="none" stroke="#455a64" d="M672.85,-481C680.76,-481 688.78,-481 696.64,-481"/>
<polygon fill="#455a64" stroke="#455a64" points="696.49,-484.5 706.49,-481 696.49,-477.5 696.49,-484.5"/>
</g>
<!-- Json -->
<g id="node10" class="node">
<title>Json</title>
<path fill="#f5f5f5" stroke="#546e7a" d="M1030.75,-553C1030.75,-553 877.5,-553 877.5,-553 871.5,-553 865.5,-547 865.5,-541 865.5,-541 865.5,-529 865.5,-529 865.5,-523 871.5,-517 877.5,-517 877.5,-517 1030.75,-517 1030.75,-517 1036.75,-517 1042.75,-523 1042.75,-529 1042.75,-529 1042.75,-541 1042.75,-541 1042.75,-547 1036.75,-553 1030.75,-553"/>
<text xml:space="preserve" text-anchor="middle" x="954.12" y="-537.5" font-family="Arial" font-size="10.00">to_json_dict()</text>
<text xml:space="preserve" text-anchor="middle" x="954.12" y="-525.5" font-family="Arial" font-size="10.00">missipy.e5.context_engine_status.v1</text>
</g>
<!-- Status&#45;&gt;Json -->
<g id="edge14" class="edge">
<title>Status&#45;&gt;Json</title>
<path fill="none" stroke="#455a64" d="M829.96,-498.68C845.88,-503.37 863.24,-508.5 879.79,-513.37"/>
<polygon fill="#455a64" stroke="#455a64" points="878.48,-516.64 889.06,-516.11 880.46,-509.92 878.48,-516.64"/>
</g>
<!-- Text -->
<g id="node11" class="node">
<title>Text</title>
<path fill="#f5f5f5" stroke="#546e7a" d="M977.88,-499C977.88,-499 930.38,-499 930.38,-499 924.38,-499 918.38,-493 918.38,-487 918.38,-487 918.38,-475 918.38,-475 918.38,-469 924.38,-463 930.38,-463 930.38,-463 977.88,-463 977.88,-463 983.88,-463 989.88,-469 989.88,-475 989.88,-475 989.88,-487 989.88,-487 989.88,-493 983.88,-499 977.88,-499"/>
<text xml:space="preserve" text-anchor="middle" x="954.12" y="-483.5" font-family="Arial" font-size="10.00">to_text()</text>
<text xml:space="preserve" text-anchor="middle" x="954.12" y="-471.5" font-family="Arial" font-size="10.00">audit humain</text>
</g>
<!-- Status&#45;&gt;Text -->
<g id="edge15" class="edge">
<title>Status&#45;&gt;Text</title>
<path fill="none" stroke="#455a64" d="M829.96,-481C854.86,-481 883.31,-481 906.59,-481"/>
<polygon fill="#455a64" stroke="#455a64" points="906.39,-484.5 916.39,-481 906.39,-477.5 906.39,-484.5"/>
</g>
<!-- Passive -->
<g id="node12" class="node">
<title>Passive</title>
<path fill="#f5f5f5" stroke="#546e7a" d="M132.12,-484C132.12,-484 59.12,-484 59.12,-484 53.12,-484 47.12,-478 47.12,-472 47.12,-472 47.12,-460 47.12,-460 47.12,-454 53.12,-448 59.12,-448 59.12,-448 132.12,-448 132.12,-448 138.12,-448 144.12,-454 144.12,-460 144.12,-460 144.12,-472 144.12,-472 144.12,-478 138.12,-484 132.12,-484"/>
<text xml:space="preserve" text-anchor="middle" x="95.62" y="-462.5" font-family="Arial" font-size="10.00">inspection passive</text>
</g>
<!-- Passive&#45;&gt;InspectEngine -->
<g id="edge16" class="edge">
<title>Passive&#45;&gt;InspectEngine</title>
<path fill="none" stroke="#455a64" stroke-dasharray="5,2" d="M144.41,-469.14C217.94,-474.44 363.08,-486.7 484.75,-508 494.64,-509.73 504.96,-511.84 515.15,-514.1"/>
<polygon fill="#455a64" stroke="#455a64" points="514.12,-517.45 524.65,-516.26 515.68,-510.63 514.12,-517.45"/>
</g>
<!-- NoMutation -->
<g id="node13" class="node">
<title>NoMutation</title>
<path fill="#f5f5f5" stroke="#546e7a" d="M127.62,-214C127.62,-214 63.62,-214 63.62,-214 57.62,-214 51.62,-208 51.62,-202 51.62,-202 51.62,-190 51.62,-190 51.62,-184 57.62,-178 63.62,-178 63.62,-178 127.62,-178 127.62,-178 133.62,-178 139.62,-184 139.62,-190 139.62,-190 139.62,-202 139.62,-202 139.62,-208 133.62,-214 127.62,-214"/>
<text xml:space="preserve" text-anchor="middle" x="95.62" y="-192.5" font-family="Arial" font-size="10.00">aucune mutation</text>
</g>
<!-- NoMutation&#45;&gt;Status -->
<g id="edge17" class="edge">
<title>NoMutation&#45;&gt;Status</title>
<path fill="none" stroke="#455a64" stroke-dasharray="5,2" d="M140.12,-182.83C243.76,-154.32 508.83,-98.58 672.5,-218 748.36,-273.35 764.11,-395.08 767.27,-451.37"/>
<polygon fill="#455a64" stroke="#455a64" points="763.77,-451.31 767.71,-461.14 770.76,-450.99 763.77,-451.31"/>
</g>
<!-- NoRead -->
<g id="node14" class="node">
<title>NoRead</title>
<path fill="#f5f5f5" stroke="#546e7a" d="M138.12,-376C138.12,-376 53.12,-376 53.12,-376 47.12,-376 41.12,-370 41.12,-364 41.12,-364 41.12,-352 41.12,-352 41.12,-346 47.12,-340 53.12,-340 53.12,-340 138.12,-340 138.12,-340 144.12,-340 150.12,-346 150.12,-352 150.12,-352 150.12,-364 150.12,-364 150.12,-370 144.12,-376 138.12,-376"/>
<text xml:space="preserve" text-anchor="middle" x="95.62" y="-354.5" font-family="Arial" font-size="10.00">aucune lecture fichier</text>
</g>
<!-- NoRead&#45;&gt;InspectContext -->
<g id="edge18" class="edge">
<title>NoRead&#45;&gt;InspectContext</title>
<path fill="none" stroke="#455a64" stroke-dasharray="5,2" d="M150.41,-365.86C226.02,-377.6 367.6,-402.13 484.75,-437 504.33,-442.83 525.28,-450.7 543.64,-458.17"/>
<polygon fill="#455a64" stroke="#455a64" points="542.15,-461.34 552.72,-461.93 544.82,-454.87 542.15,-461.34"/>
</g>
<!-- NoScheduler -->
<g id="node15" class="node">
<title>NoScheduler</title>
<path fill="#f5f5f5" stroke="#546e7a" d="M144.12,-322C144.12,-322 47.12,-322 47.12,-322 41.13,-322 35.12,-316 35.12,-310 35.12,-310 35.12,-298 35.12,-298 35.12,-292 41.12,-286 47.12,-286 47.12,-286 144.12,-286 144.12,-286 150.12,-286 156.12,-292 156.12,-298 156.12,-298 156.12,-310 156.12,-310 156.12,-316 150.12,-322 144.12,-322"/>
<text xml:space="preserve" text-anchor="middle" x="95.62" y="-300.5" font-family="Arial" font-size="10.00">pas de Scheduler vivant</text>
</g>
<!-- NoScheduler&#45;&gt;Engine -->
<g id="edge19" class="edge">
<title>NoScheduler&#45;&gt;Engine</title>
<path fill="none" stroke="#455a64" stroke-dasharray="5,2" d="M156.35,-303.27C173.61,-303.05 192.28,-302.83 208.92,-302.62"/>
<polygon fill="#455a64" stroke="#455a64" points="208.61,-306.13 218.57,-302.5 208.53,-299.13 208.61,-306.13"/>
</g>
<!-- NoDaemon -->
<g id="node16" class="node">
<title>NoDaemon</title>
<path fill="#f5f5f5" stroke="#546e7a" d="M125,-430C125,-430 66.25,-430 66.25,-430 60.25,-430 54.25,-424 54.25,-418 54.25,-418 54.25,-406 54.25,-406 54.25,-400 60.25,-394 66.25,-394 66.25,-394 125,-394 125,-394 131,-394 137,-400 137,-406 137,-406 137,-418 137,-418 137,-424 131,-430 125,-430"/>
<text xml:space="preserve" text-anchor="middle" x="95.62" y="-408.5" font-family="Arial" font-size="10.00">pas de daemon</text>
</g>
<!-- NoDaemon&#45;&gt;InspectEngine -->
<g id="edge20" class="edge">
<title>NoDaemon&#45;&gt;InspectEngine</title>
<path fill="none" stroke="#455a64" stroke-dasharray="5,2" d="M137.32,-413.8C209.8,-418.21 364.88,-433.17 484.75,-483 502.74,-490.48 503.44,-499.06 520.75,-508 523.42,-509.38 526.18,-510.72 528.99,-512.01"/>
<polygon fill="#455a64" stroke="#455a64" points="527.38,-515.13 537.94,-515.91 530.17,-508.71 527.38,-515.13"/>
</g>
<!-- NoNetwork -->
<g id="node17" class="node">
<title>NoNetwork</title>
<path fill="#f5f5f5" stroke="#546e7a" d="M151.62,-160C151.62,-160 39.62,-160 39.62,-160 33.62,-160 27.62,-154 27.62,-148 27.62,-148 27.62,-136 27.62,-136 27.62,-130 33.62,-124 39.62,-124 39.62,-124 151.62,-124 151.62,-124 157.62,-124 163.62,-130 163.62,-136 163.62,-136 163.62,-148 163.62,-148 163.62,-154 157.62,-160 151.62,-160"/>
<text xml:space="preserve" text-anchor="middle" x="95.62" y="-138.5" font-family="Arial" font-size="10.00">pas de réseau / GitHub API</text>
</g>
<!-- NoNetwork&#45;&gt;Status -->
<g id="edge21" class="edge">
<title>NoNetwork&#45;&gt;Status</title>
<path fill="none" stroke="#455a64" stroke-dasharray="5,2" d="M164.07,-133.32C299.03,-117.49 595.9,-90.89 672.5,-152 720.17,-190.03 752.75,-378.27 763.83,-451.65"/>
<polygon fill="#455a64" stroke="#455a64" points="760.33,-451.91 765.25,-461.29 767.25,-450.88 760.33,-451.91"/>
</g>
<!-- NoQdrant -->
<g id="node18" class="node">
<title>NoQdrant</title>
<path fill="#f5f5f5" stroke="#546e7a" d="M122.38,-268C122.38,-268 68.88,-268 68.88,-268 62.88,-268 56.88,-262 56.88,-256 56.88,-256 56.88,-244 56.88,-244 56.88,-238 62.88,-232 68.88,-232 68.88,-232 122.38,-232 122.38,-232 128.38,-232 134.38,-238 134.38,-244 134.38,-244 134.38,-256 134.38,-256 134.38,-262 128.38,-268 122.38,-268"/>
<text xml:space="preserve" text-anchor="middle" x="95.62" y="-246.5" font-family="Arial" font-size="10.00">pas de Qdrant</text>
</g>
<!-- NoQdrant&#45;&gt;Feature -->
<g id="edge22" class="edge">
<title>NoQdrant&#45;&gt;Feature</title>
<path fill="none" stroke="#455a64" stroke-dasharray="5,2" d="M134.75,-242.26C204.43,-229.21 356.94,-205.66 484.75,-221 496.23,-222.38 508.23,-224.53 519.93,-227.03"/>
<polygon fill="#455a64" stroke="#455a64" points="519.02,-230.42 529.55,-229.19 520.56,-223.59 519.02,-230.42"/>
</g>
<!-- NoLLM -->
<g id="node19" class="node">
<title>NoLLM</title>
<path fill="#f5f5f5" stroke="#546e7a" d="M117.12,-52C117.12,-52 74.12,-52 74.12,-52 68.12,-52 62.12,-46 62.12,-40 62.12,-40 62.12,-28 62.12,-28 62.12,-22 68.12,-16 74.12,-16 74.12,-16 117.12,-16 117.12,-16 123.12,-16 129.12,-22 129.12,-28 129.12,-28 129.12,-40 129.12,-40 129.12,-46 123.12,-52 117.12,-52"/>
<text xml:space="preserve" text-anchor="middle" x="95.62" y="-30.5" font-family="Arial" font-size="10.00">pas de LLM</text>
</g>
<!-- NoLLM&#45;&gt;Text -->
<g id="edge23" class="edge">
<title>NoLLM&#45;&gt;Text</title>
<path fill="none" stroke="#455a64" stroke-dasharray="5,2" d="M129.53,-35.39C186.57,-37.69 307.52,-42 409.75,-42 409.75,-42 409.75,-42 597.62,-42 809.19,-42 916.64,-353.75 945.21,-451.83"/>
<polygon fill="#455a64" stroke="#455a64" points="941.78,-452.58 947.89,-461.24 948.52,-450.66 941.78,-452.58"/>
</g>
<!-- Stdlib -->
<g id="node20" class="node">
<title>Stdlib</title>
<path fill="#f5f5f5" stroke="#546e7a" d="M129.88,-106C129.88,-106 61.38,-106 61.38,-106 55.38,-106 49.38,-100 49.38,-94 49.38,-94 49.38,-82 49.38,-82 49.38,-76 55.38,-70 61.38,-70 61.38,-70 129.88,-70 129.88,-70 135.88,-70 141.88,-76 141.88,-82 141.88,-82 141.88,-94 141.88,-94 141.88,-100 135.88,-106 129.88,-106"/>
<text xml:space="preserve" text-anchor="middle" x="95.62" y="-84.5" font-family="Arial" font-size="10.00">stdlib uniquement</text>
</g>
<!-- Stdlib&#45;&gt;Status -->
<g id="edge24" class="edge">
<title>Stdlib&#45;&gt;Status</title>
<path fill="none" stroke="#455a64" stroke-dasharray="5,2" d="M142.11,-83.23C263.56,-71.51 591.75,-46.75 672.5,-112 726.11,-155.32 755.71,-372.46 764.87,-451.86"/>
<polygon fill="#455a64" stroke="#455a64" points="761.36,-451.91 765.95,-461.45 768.31,-451.12 761.36,-451.91"/>
</g>
<!-- Global -->
<g id="node21" class="node">
<title>Global</title>
<g id="a_node21"><a xlink:href="../00_global.svg" xlink:title="← Global architecture">
<path fill="#f5f5f5" stroke="none" d="M138.88,-573C138.88,-573 52.38,-573 52.38,-573 46.38,-573 40.38,-567 40.38,-561 40.38,-561 40.38,-549 40.38,-549 40.38,-543 46.38,-537 52.38,-537 52.38,-537 138.88,-537 138.88,-537 144.88,-537 150.88,-543 150.88,-549 150.88,-549 150.88,-561 150.88,-561 150.88,-567 144.88,-573 138.88,-573"/>
<text xml:space="preserve" text-anchor="middle" x="95.62" y="-551.5" font-family="Arial" font-size="10.00">← Global architecture</text>
</a>
</g>
</g>
<!-- Parent -->
<g id="node22" class="node">
<title>Parent</title>
<g id="a_node22"><a xlink:href="30_e5_context_engine_intake.svg" xlink:title="← ContextEngine E5 intake">
<path fill="#f5f5f5" stroke="none" d="M152.38,-627C152.38,-627 38.88,-627 38.88,-627 32.88,-627 26.88,-621 26.88,-615 26.88,-615 26.88,-603 26.88,-603 26.88,-597 32.88,-591 38.88,-591 38.88,-591 152.38,-591 152.38,-591 158.38,-591 164.38,-597 164.38,-603 164.38,-603 164.38,-615 164.38,-615 164.38,-621 158.38,-627 152.38,-627"/>
<text xml:space="preserve" text-anchor="middle" x="95.62" y="-605.5" font-family="Arial" font-size="10.00">← ContextEngine E5 intake</text>
</a>
</g>
</g>
<!-- Context -->
<g id="node23" class="node">
<title>Context</title>
<g id="a_node23"><a xlink:href="20_context.svg" xlink:title="← Context Fabric">
<path fill="#f5f5f5" stroke="none" d="M130.25,-681C130.25,-681 61,-681 61,-681 55,-681 49,-675 49,-669 49,-669 49,-657 49,-657 49,-651 55,-645 61,-645 61,-645 130.25,-645 130.25,-645 136.25,-645 142.25,-651 142.25,-657 142.25,-657 142.25,-669 142.25,-669 142.25,-675 136.25,-681 130.25,-681"/>
<text xml:space="preserve" text-anchor="middle" x="95.62" y="-659.5" font-family="Arial" font-size="10.00">← Context Fabric</text>
</a>
</g>
</g>
<!-- Next -->
<g id="node24" class="node">
<title>Next</title>
<g id="a_node24"><a xlink:href="32_e5_context_engine_cli.svg" xlink:title="next: ContextEngine CLI intake">
<path fill="#f5f5f5" stroke="none" d="M160.25,-735C160.25,-735 31,-735 31,-735 25,-735 19,-729 19,-723 19,-723 19,-711 19,-711 19,-705 25,-699 31,-699 31,-699 160.25,-699 160.25,-699 166.25,-699 172.25,-705 172.25,-711 172.25,-711 172.25,-723 172.25,-723 172.25,-729 166.25,-735 160.25,-735"/>
<text xml:space="preserve" text-anchor="middle" x="95.62" y="-713.5" font-family="Arial" font-size="10.00">next: ContextEngine CLI intake</text>
</a>
</g>
</g>
</g>
</svg>
