<?xml version="1.0" encoding="UTF-8" standalone="no"?>
<!DOCTYPE svg PUBLIC "-//W3C//DTD SVG 1.1//EN"
 "http://www.w3.org/Graphics/SVG/1.1/DTD/svg11.dtd">
<!-- Generated by graphviz version 14.1.3 (20260303.0454)
 -->
<!-- Title: E5ContextEngineCli Pages: 1 -->
<svg width="1547pt" height="763pt"
 viewBox="0.00 0.00 1547.00 763.00" xmlns="http://www.w3.org/2000/svg" xmlns:xlink="http://www.w3.org/1999/xlink">
<g id="graph0" class="graph" transform="scale(1 1) rotate(0) translate(4 759)">
<title>E5ContextEngineCli</title>
<polygon fill="#ffffff" stroke="none" points="-4,4 -4,-759 1543.12,-759 1543.12,4 -4,4"/>
<text xml:space="preserve" text-anchor="middle" x="769.56" y="-733.9" font-family="Arial" font-size="18.00">Phase 5.8 — ContextEngine E5 manual CLI intake</text>
<g id="clust1" class="cluster">
<title>cluster_input</title>
<path fill="#e3f2fd" stroke="#bbdefb" d="M228.38,-182C228.38,-182 760.38,-182 760.38,-182 766.38,-182 772.38,-188 772.38,-194 772.38,-194 772.38,-251 772.38,-251 772.38,-257 766.38,-263 760.38,-263 760.38,-263 228.38,-263 228.38,-263 222.38,-263 216.38,-257 216.38,-251 216.38,-251 216.38,-194 216.38,-194 216.38,-188 222.38,-182 228.38,-182"/>
<text xml:space="preserve" text-anchor="middle" x="494.38" y="-241.9" font-family="Arial" font-size="18.00">Entrée manuelle</text>
</g>
<g id="clust2" class="cluster">
<title>cluster_runtime</title>
<path fill="#e8f5e9" stroke="#c8e6c9" d="M804.38,-138C804.38,-138 1519.12,-138 1519.12,-138 1525.12,-138 1531.12,-144 1531.12,-150 1531.12,-150 1531.12,-261 1531.12,-261 1531.12,-267 1525.12,-273 1519.12,-273 1519.12,-273 804.38,-273 804.38,-273 798.38,-273 792.38,-267 792.38,-261 792.38,-261 792.38,-150 792.38,-150 792.38,-144 798.38,-138 804.38,-138"/>
<text xml:space="preserve" text-anchor="middle" x="1161.75" y="-251.9" font-family="Arial" font-size="18.00">Intake ContextEngine</text>
</g>
<g id="clust3" class="cluster">
<title>cluster_boundaries</title>
<path fill="#ffffff" stroke="#b0bec5" stroke-dasharray="5,2" d="M16.12,-8C16.12,-8 184.38,-8 184.38,-8 190.38,-8 196.38,-14 196.38,-20 196.38,-20 196.38,-455 196.38,-455 196.38,-461 190.38,-467 184.38,-467 184.38,-467 16.12,-467 16.12,-467 10.13,-467 4.12,-461 4.12,-455 4.12,-455 4.12,-20 4.12,-20 4.12,-14 10.12,-8 16.12,-8"/>
<text xml:space="preserve" text-anchor="middle" x="100.25" y="-445.9" font-family="Arial" font-size="18.00">Frontières conservées</text>
</g>
<g id="clust4" class="cluster">
<title>cluster_navigation</title>
<path fill="#ffffff" stroke="#90a4ae" stroke-dasharray="5,2" d="M20,-475C20,-475 179.5,-475 179.5,-475 185.5,-475 191.5,-481 191.5,-487 191.5,-487 191.5,-706 191.5,-706 191.5,-712 185.5,-718 179.5,-718 179.5,-718 20,-718 20,-718 14,-718 8,-712 8,-706 8,-706 8,-487 8,-487 8,-481 14,-475 20,-475"/>
<text xml:space="preserve" text-anchor="middle" x="99.75" y="-696.9" font-family="Arial" font-size="18.00">Navigation</text>
</g>
<!-- ArtifactDir -->
<g id="node1" class="node">
<title>ArtifactDir</title>
<g id="a_node1"><a xlink:href="26_e5_artifact_directory_loader.svg" xlink:title="artifact&#45;dir Phase 4\nreport/context/consumed/prompt">
<path fill="#f5f5f5" stroke="#546e7a" d="M369.38,-226C369.38,-226 236.38,-226 236.38,-226 230.38,-226 224.38,-220 224.38,-214 224.38,-214 224.38,-202 224.38,-202 224.38,-196 230.38,-190 236.38,-190 236.38,-190 369.38,-190 369.38,-190 375.38,-190 381.38,-196 381.38,-202 381.38,-202 381.38,-214 381.38,-214 381.38,-220 375.38,-226 369.38,-226"/>
<text xml:space="preserve" text-anchor="middle" x="302.88" y="-210.5" font-family="Arial" font-size="10.00">artifact&#45;dir Phase 4</text>
<text xml:space="preserve" text-anchor="middle" x="302.88" y="-198.5" font-family="Arial" font-size="10.00">report/context/consumed/prompt</text>
</a>
</g>
</g>
<!-- Parser -->
<g id="node2" class="node">
<title>Parser</title>
<path fill="#f5f5f5" stroke="#546e7a" d="M566.88,-226C566.88,-226 429.38,-226 429.38,-226 423.38,-226 417.38,-220 417.38,-214 417.38,-214 417.38,-202 417.38,-202 417.38,-196 423.38,-190 429.38,-190 429.38,-190 566.88,-190 566.88,-190 572.88,-190 578.88,-196 578.88,-202 578.88,-202 578.88,-214 578.88,-214 578.88,-220 572.88,-226 566.88,-226"/>
<text xml:space="preserve" text-anchor="middle" x="498.12" y="-204.5" font-family="Arial" font-size="10.00">build_e5_context_engine_parser()</text>
</g>
<!-- ArtifactDir&#45;&gt;Parser -->
<g id="edge1" class="edge">
<title>ArtifactDir&#45;&gt;Parser</title>
<path fill="none" stroke="#455a64" d="M381.64,-208C389.55,-208 397.64,-208 405.68,-208"/>
<polygon fill="#455a64" stroke="#455a64" points="405.48,-211.5 415.48,-208 405.48,-204.5 405.48,-211.5"/>
</g>
<!-- Command -->
<g id="node3" class="node">
<title>Command</title>
<path fill="#f5f5f5" stroke="#546e7a" d="M752.38,-226C752.38,-226 626.88,-226 626.88,-226 620.88,-226 614.88,-220 614.88,-214 614.88,-214 614.88,-202 614.88,-202 614.88,-196 620.88,-190 626.88,-190 626.88,-190 752.38,-190 752.38,-190 758.38,-190 764.38,-196 764.38,-202 764.38,-202 764.38,-214 764.38,-214 764.38,-220 758.38,-226 752.38,-226"/>
<text xml:space="preserve" text-anchor="middle" x="689.62" y="-210.5" font-family="Arial" font-size="10.00">E5ContextEngineCliCommand</text>
<text xml:space="preserve" text-anchor="middle" x="689.62" y="-198.5" font-family="Arial" font-size="10.00">artifact_dir + policies</text>
</g>
<!-- Parser&#45;&gt;Command -->
<g id="edge2" class="edge">
<title>Parser&#45;&gt;Command</title>
<path fill="none" stroke="#455a64" d="M579.22,-208C587.18,-208 595.29,-208 603.3,-208"/>
<polygon fill="#455a64" stroke="#455a64" points="603.03,-211.5 613.03,-208 603.03,-204.5 603.03,-211.5"/>
</g>
<!-- Engine -->
<g id="node4" class="node">
<title>Engine</title>
<g id="a_node4"><a xlink:href="20_context.svg" xlink:title="ContextEngine()">
<path fill="#f5f5f5" stroke="#546e7a" d="M874.88,-236C874.88,-236 812.38,-236 812.38,-236 806.38,-236 800.38,-230 800.38,-224 800.38,-224 800.38,-212 800.38,-212 800.38,-206 806.38,-200 812.38,-200 812.38,-200 874.88,-200 874.88,-200 880.88,-200 886.88,-206 886.88,-212 886.88,-212 886.88,-224 886.88,-224 886.88,-230 880.88,-236 874.88,-236"/>
<text xml:space="preserve" text-anchor="middle" x="843.62" y="-214.5" font-family="Arial" font-size="10.00">ContextEngine()</text>
</a>
</g>
</g>
<!-- Command&#45;&gt;Engine -->
<g id="edge3" class="edge">
<title>Command&#45;&gt;Engine</title>
<path fill="none" stroke="#455a64" d="M764.84,-212.88C772.85,-213.41 780.88,-213.94 788.59,-214.44"/>
<polygon fill="#455a64" stroke="#455a64" points="788.26,-217.93 798.47,-215.1 788.72,-210.95 788.26,-217.93"/>
</g>
<!-- Intake -->
<g id="node5" class="node">
<title>Intake</title>
<g id="a_node5"><a xlink:href="30_e5_context_engine_intake.svg" xlink:title="attach_e5_artifact_dir()">
<path fill="#f5f5f5" stroke="#546e7a" d="M1026.62,-190C1026.62,-190 934.88,-190 934.88,-190 928.88,-190 922.88,-184 922.88,-178 922.88,-178 922.88,-166 922.88,-166 922.88,-160 928.88,-154 934.88,-154 934.88,-154 1026.62,-154 1026.62,-154 1032.62,-154 1038.62,-160 1038.62,-166 1038.62,-166 1038.62,-178 1038.62,-178 1038.62,-184 1032.62,-190 1026.62,-190"/>
<text xml:space="preserve" text-anchor="middle" x="980.75" y="-168.5" font-family="Arial" font-size="10.00">attach_e5_artifact_dir()</text>
</a>
</g>
</g>
<!-- Command&#45;&gt;Intake -->
<g id="edge4" class="edge">
<title>Command&#45;&gt;Intake</title>
<path fill="none" stroke="#455a64" d="M764.73,-195.05C774.02,-193.59 783.41,-192.2 792.38,-191 831.71,-185.73 875.86,-181.18 911.42,-177.86"/>
<polygon fill="#455a64" stroke="#455a64" points="911.5,-181.37 921.14,-176.97 910.86,-174.4 911.5,-181.37"/>
</g>
<!-- Engine&#45;&gt;Intake -->
<g id="edge5" class="edge">
<title>Engine&#45;&gt;Intake</title>
<path fill="none" stroke="#455a64" d="M887.01,-203.57C895.89,-200.55 905.46,-197.29 914.95,-194.06"/>
<polygon fill="#455a64" stroke="#455a64" points="915.82,-197.46 924.16,-190.92 913.56,-190.83 915.82,-197.46"/>
</g>
<!-- Status -->
<g id="node6" class="node">
<title>Status</title>
<g id="a_node6"><a xlink:href="31_e5_context_engine_status.svg" xlink:title="inspect_e5_context_engine()">
<path fill="#f5f5f5" stroke="#546e7a" d="M1203.12,-182C1203.12,-182 1086.62,-182 1086.62,-182 1080.62,-182 1074.62,-176 1074.62,-170 1074.62,-170 1074.62,-158 1074.62,-158 1074.62,-152 1080.62,-146 1086.62,-146 1086.62,-146 1203.12,-146 1203.12,-146 1209.12,-146 1215.12,-152 1215.12,-158 1215.12,-158 1215.12,-170 1215.12,-170 1215.12,-176 1209.12,-182 1203.12,-182"/>
<text xml:space="preserve" text-anchor="middle" x="1144.88" y="-160.5" font-family="Arial" font-size="10.00">inspect_e5_context_engine()</text>
</a>
</g>
</g>
<!-- Intake&#45;&gt;Status -->
<g id="edge6" class="edge">
<title>Intake&#45;&gt;Status</title>
<path fill="none" stroke="#455a64" d="M1038.91,-169.18C1046.65,-168.8 1054.72,-168.4 1062.79,-168"/>
<polygon fill="#455a64" stroke="#455a64" points="1062.83,-171.5 1072.64,-167.51 1062.48,-164.51 1062.83,-171.5"/>
</g>
<!-- Payload -->
<g id="node7" class="node">
<title>Payload</title>
<path fill="#f5f5f5" stroke="#546e7a" d="M1399.12,-182C1399.12,-182 1263.12,-182 1263.12,-182 1257.12,-182 1251.12,-176 1251.12,-170 1251.12,-170 1251.12,-158 1251.12,-158 1251.12,-152 1257.12,-146 1263.12,-146 1263.12,-146 1399.12,-146 1399.12,-146 1405.12,-146 1411.12,-152 1411.12,-158 1411.12,-158 1411.12,-170 1411.12,-170 1411.12,-176 1405.12,-182 1399.12,-182"/>
<text xml:space="preserve" text-anchor="middle" x="1331.12" y="-160.5" font-family="Arial" font-size="10.00">missipy.e5.context_engine_cli.v1</text>
</g>
<!-- Intake&#45;&gt;Payload -->
<g id="edge8" class="edge">
<title>Intake&#45;&gt;Payload</title>
<path fill="none" stroke="#455a64" d="M1038.94,-185.58C1050.68,-187.84 1063,-189.82 1074.62,-191 1136.75,-197.29 1153.1,-198.18 1215.12,-191 1227.13,-189.61 1239.71,-187.43 1251.96,-184.89"/>
<polygon fill="#455a64" stroke="#455a64" points="1252.58,-188.34 1261.61,-182.8 1251.09,-181.5 1252.58,-188.34"/>
</g>
<!-- Status&#45;&gt;Payload -->
<g id="edge7" class="edge">
<title>Status&#45;&gt;Payload</title>
<path fill="none" stroke="#455a64" d="M1215.53,-164C1223.36,-164 1231.42,-164 1239.46,-164"/>
<polygon fill="#455a64" stroke="#455a64" points="1239.28,-167.5 1249.28,-164 1239.28,-160.5 1239.28,-167.5"/>
</g>
<!-- Text -->
<g id="node8" class="node">
<title>Text</title>
<path fill="#f5f5f5" stroke="#546e7a" d="M1511.12,-182C1511.12,-182 1459.12,-182 1459.12,-182 1453.12,-182 1447.12,-176 1447.12,-170 1447.12,-170 1447.12,-158 1447.12,-158 1447.12,-152 1453.12,-146 1459.12,-146 1459.12,-146 1511.12,-146 1511.12,-146 1517.12,-146 1523.12,-152 1523.12,-158 1523.12,-158 1523.12,-170 1523.12,-170 1523.12,-176 1517.12,-182 1511.12,-182"/>
<text xml:space="preserve" text-anchor="middle" x="1485.12" y="-160.5" font-family="Arial" font-size="10.00">text summary</text>
</g>
<!-- Payload&#45;&gt;Text -->
<g id="edge9" class="edge">
<title>Payload&#45;&gt;Text</title>
<path fill="none" stroke="#455a64" d="M1411.24,-164C1419.48,-164 1427.67,-164 1435.42,-164"/>
<polygon fill="#455a64" stroke="#455a64" points="1435.29,-167.5 1445.29,-164 1435.29,-160.5 1435.29,-167.5"/>
</g>
<!-- Json -->
<g id="node9" class="node">
<title>Json</title>
<path fill="#f5f5f5" stroke="#546e7a" d="M1508.5,-236C1508.5,-236 1461.75,-236 1461.75,-236 1455.75,-236 1449.75,-230 1449.75,-224 1449.75,-224 1449.75,-212 1449.75,-212 1449.75,-206 1455.75,-200 1461.75,-200 1461.75,-200 1508.5,-200 1508.5,-200 1514.5,-200 1520.5,-206 1520.5,-212 1520.5,-212 1520.5,-224 1520.5,-224 1520.5,-230 1514.5,-236 1508.5,-236"/>
<text xml:space="preserve" text-anchor="middle" x="1485.12" y="-214.5" font-family="Arial" font-size="10.00">json payload</text>
</g>
<!-- Payload&#45;&gt;Json -->
<g id="edge10" class="edge">
<title>Payload&#45;&gt;Json</title>
<path fill="none" stroke="#455a64" d="M1384.01,-182.43C1401.96,-188.81 1421.91,-195.9 1439.24,-202.06"/>
<polygon fill="#455a64" stroke="#455a64" points="1437.64,-205.2 1448.23,-205.25 1439.98,-198.6 1437.64,-205.2"/>
</g>
<!-- Manual -->
<g id="node10" class="node">
<title>Manual</title>
<path fill="#f5f5f5" stroke="#546e7a" d="M151.25,-322C151.25,-322 48.25,-322 48.25,-322 42.25,-322 36.25,-316 36.25,-310 36.25,-310 36.25,-298 36.25,-298 36.25,-292 42.25,-286 48.25,-286 48.25,-286 151.25,-286 151.25,-286 157.25,-286 163.25,-292 163.25,-298 163.25,-298 163.25,-310 163.25,-310 163.25,-316 157.25,-322 151.25,-322"/>
<text xml:space="preserve" text-anchor="middle" x="99.75" y="-300.5" font-family="Arial" font-size="10.00">appel manuel uniquement</text>
</g>
<!-- Manual&#45;&gt;Parser -->
<g id="edge11" class="edge">
<title>Manual&#45;&gt;Parser</title>
<path fill="none" stroke="#455a64" stroke-dasharray="5,2" d="M163.51,-297.34C220.99,-290.29 308.01,-277.2 381.38,-256 403.98,-249.47 428.14,-239.89 448.51,-231"/>
<polygon fill="#455a64" stroke="#455a64" points="449.69,-234.31 457.41,-227.05 446.85,-227.91 449.69,-234.31"/>
</g>
<!-- NoScheduler -->
<g id="node11" class="node">
<title>NoScheduler</title>
<path fill="#f5f5f5" stroke="#546e7a" d="M148.25,-430C148.25,-430 51.25,-430 51.25,-430 45.25,-430 39.25,-424 39.25,-418 39.25,-418 39.25,-406 39.25,-406 39.25,-400 45.25,-394 51.25,-394 51.25,-394 148.25,-394 148.25,-394 154.25,-394 160.25,-400 160.25,-406 160.25,-406 160.25,-418 160.25,-418 160.25,-424 154.25,-430 148.25,-430"/>
<text xml:space="preserve" text-anchor="middle" x="99.75" y="-408.5" font-family="Arial" font-size="10.00">pas de Scheduler vivant</text>
</g>
<!-- NoScheduler&#45;&gt;Engine -->
<g id="edge12" class="edge">
<title>NoScheduler&#45;&gt;Engine</title>
<path fill="none" stroke="#455a64" stroke-dasharray="5,2" d="M160.65,-407.05C281.06,-395.4 559.12,-359.9 772.38,-267 786.36,-260.91 800.42,-251.83 812.24,-243.14"/>
<polygon fill="#455a64" stroke="#455a64" points="814.16,-246.07 820,-237.23 809.92,-240.51 814.16,-246.07"/>
</g>
<!-- NoDaemon -->
<g id="node12" class="node">
<title>NoDaemon</title>
<path fill="#f5f5f5" stroke="#546e7a" d="M129.12,-268C129.12,-268 70.38,-268 70.38,-268 64.38,-268 58.38,-262 58.38,-256 58.38,-256 58.38,-244 58.38,-244 58.38,-238 64.38,-232 70.38,-232 70.38,-232 129.12,-232 129.12,-232 135.12,-232 141.12,-238 141.12,-244 141.12,-244 141.12,-256 141.12,-256 141.12,-262 135.12,-268 129.12,-268"/>
<text xml:space="preserve" text-anchor="middle" x="99.75" y="-246.5" font-family="Arial" font-size="10.00">pas de daemon</text>
</g>
<!-- NoDaemon&#45;&gt;Parser -->
<g id="edge13" class="edge">
<title>NoDaemon&#45;&gt;Parser</title>
<path fill="none" stroke="#455a64" stroke-dasharray="5,2" d="M141.4,-250.06C196.17,-249.63 296.6,-247.06 381.38,-235 392.6,-233.4 404.34,-231.25 415.85,-228.85"/>
<polygon fill="#455a64" stroke="#455a64" points="416.28,-232.34 425.32,-226.8 414.8,-225.49 416.28,-232.34"/>
</g>
<!-- NoNetwork -->
<g id="node13" class="node">
<title>NoNetwork</title>
<path fill="#f5f5f5" stroke="#546e7a" d="M155.75,-106C155.75,-106 43.75,-106 43.75,-106 37.75,-106 31.75,-100 31.75,-94 31.75,-94 31.75,-82 31.75,-82 31.75,-76 37.75,-70 43.75,-70 43.75,-70 155.75,-70 155.75,-70 161.75,-70 167.75,-76 167.75,-82 167.75,-82 167.75,-94 167.75,-94 167.75,-100 161.75,-106 155.75,-106"/>
<text xml:space="preserve" text-anchor="middle" x="99.75" y="-84.5" font-family="Arial" font-size="10.00">pas de réseau / GitHub API</text>
</g>
<!-- NoNetwork&#45;&gt;Payload -->
<g id="edge14" class="edge">
<title>NoNetwork&#45;&gt;Payload</title>
<path fill="none" stroke="#455a64" stroke-dasharray="5,2" d="M168.08,-89.09C246.94,-90.28 381.51,-92 497.12,-92 497.12,-92 497.12,-92 981.75,-92 1082.14,-92 1195.5,-121.03 1264.89,-142.22"/>
<polygon fill="#455a64" stroke="#455a64" points="1263.6,-145.49 1274.19,-145.1 1265.67,-138.8 1263.6,-145.49"/>
</g>
<!-- NoQdrant -->
<g id="node14" class="node">
<title>NoQdrant</title>
<path fill="#f5f5f5" stroke="#546e7a" d="M126.5,-160C126.5,-160 73,-160 73,-160 67,-160 61,-154 61,-148 61,-148 61,-136 61,-136 61,-130 67,-124 73,-124 73,-124 126.5,-124 126.5,-124 132.5,-124 138.5,-130 138.5,-136 138.5,-136 138.5,-148 138.5,-148 138.5,-154 132.5,-160 126.5,-160"/>
<text xml:space="preserve" text-anchor="middle" x="99.75" y="-138.5" font-family="Arial" font-size="10.00">pas de Qdrant</text>
</g>
<!-- NoQdrant&#45;&gt;Intake -->
<g id="edge15" class="edge">
<title>NoQdrant&#45;&gt;Intake</title>
<path fill="none" stroke="#455a64" stroke-dasharray="5,2" d="M138.73,-140.72C209.31,-138.46 365.49,-134 497.12,-134 497.12,-134 497.12,-134 690.62,-134 766.57,-134 852.78,-147.05 911.15,-157.85"/>
<polygon fill="#455a64" stroke="#455a64" points="910.48,-161.29 920.95,-159.7 911.78,-154.41 910.48,-161.29"/>
</g>
<!-- NoLLM -->
<g id="node15" class="node">
<title>NoLLM</title>
<path fill="#f5f5f5" stroke="#546e7a" d="M121.25,-52C121.25,-52 78.25,-52 78.25,-52 72.25,-52 66.25,-46 66.25,-40 66.25,-40 66.25,-28 66.25,-28 66.25,-22 72.25,-16 78.25,-16 78.25,-16 121.25,-16 121.25,-16 127.25,-16 133.25,-22 133.25,-28 133.25,-28 133.25,-40 133.25,-40 133.25,-46 127.25,-52 121.25,-52"/>
<text xml:space="preserve" text-anchor="middle" x="99.75" y="-30.5" font-family="Arial" font-size="10.00">pas de LLM</text>
</g>
<!-- NoLLM&#45;&gt;Text -->
<g id="edge16" class="edge">
<title>NoLLM&#45;&gt;Text</title>
<path fill="none" stroke="#455a64" stroke-dasharray="5,2" d="M133.63,-35.11C201.54,-37.31 362.22,-42 497.12,-42 497.12,-42 497.12,-42 1145.88,-42 1260.3,-42 1384.27,-104.54 1445.46,-140.07"/>
<polygon fill="#455a64" stroke="#455a64" points="1443.39,-142.91 1453.78,-144.97 1446.94,-136.88 1443.39,-142.91"/>
</g>
<!-- NoOpenVINO -->
<g id="node16" class="node">
<title>NoOpenVINO</title>
<path fill="#f5f5f5" stroke="#546e7a" d="M146,-214C146,-214 53.5,-214 53.5,-214 47.5,-214 41.5,-208 41.5,-202 41.5,-202 41.5,-190 41.5,-190 41.5,-184 47.5,-178 53.5,-178 53.5,-178 146,-178 146,-178 152,-178 158,-184 158,-190 158,-190 158,-202 158,-202 158,-208 152,-214 146,-214"/>
<text xml:space="preserve" text-anchor="middle" x="99.75" y="-192.5" font-family="Arial" font-size="10.00">pas d&#39;appel OpenVINO</text>
</g>
<!-- NoOpenVINO&#45;&gt;ArtifactDir -->
<g id="edge17" class="edge">
<title>NoOpenVINO&#45;&gt;ArtifactDir</title>
<path fill="none" stroke="#455a64" stroke-dasharray="5,2" d="M158.38,-199.44C175.3,-200.45 194.22,-201.58 212.62,-202.67"/>
<polygon fill="#455a64" stroke="#455a64" points="212.29,-206.16 222.48,-203.26 212.7,-199.17 212.29,-206.16"/>
</g>
<!-- Stdlib -->
<g id="node17" class="node">
<title>Stdlib</title>
<path fill="#f5f5f5" stroke="#546e7a" d="M134,-376C134,-376 65.5,-376 65.5,-376 59.5,-376 53.5,-370 53.5,-364 53.5,-364 53.5,-352 53.5,-352 53.5,-346 59.5,-340 65.5,-340 65.5,-340 134,-340 134,-340 140,-340 146,-346 146,-352 146,-352 146,-364 146,-364 146,-370 140,-376 134,-376"/>
<text xml:space="preserve" text-anchor="middle" x="99.75" y="-354.5" font-family="Arial" font-size="10.00">stdlib uniquement</text>
</g>
<!-- Stdlib&#45;&gt;Command -->
<g id="edge18" class="edge">
<title>Stdlib&#45;&gt;Command</title>
<path fill="none" stroke="#455a64" stroke-dasharray="5,2" d="M146.45,-346.49C202.01,-332.5 298.59,-308.11 381.38,-287 457.65,-267.55 544.52,-245.19 606.38,-229.24"/>
<polygon fill="#455a64" stroke="#455a64" points="606.97,-232.7 615.78,-226.81 605.23,-225.92 606.97,-232.7"/>
</g>
<!-- Global -->
<g id="node18" class="node">
<title>Global</title>
<g id="a_node18"><a xlink:href="../00_global.svg" xlink:title="← Global architecture">
<path fill="#f5f5f5" stroke="none" d="M143,-519C143,-519 56.5,-519 56.5,-519 50.5,-519 44.5,-513 44.5,-507 44.5,-507 44.5,-495 44.5,-495 44.5,-489 50.5,-483 56.5,-483 56.5,-483 143,-483 143,-483 149,-483 155,-489 155,-495 155,-495 155,-507 155,-507 155,-513 149,-519 143,-519"/>
<text xml:space="preserve" text-anchor="middle" x="99.75" y="-497.5" font-family="Arial" font-size="10.00">← Global architecture</text>
</a>
</g>
</g>
<!-- Parent -->
<g id="node19" class="node">
<title>Parent</title>
<g id="a_node19"><a xlink:href="31_e5_context_engine_status.svg" xlink:title="← E5 ContextEngine status">
<path fill="#f5f5f5" stroke="none" d="M156.88,-573C156.88,-573 42.62,-573 42.62,-573 36.62,-573 30.62,-567 30.62,-561 30.62,-561 30.62,-549 30.62,-549 30.62,-543 36.62,-537 42.62,-537 42.62,-537 156.88,-537 156.88,-537 162.88,-537 168.88,-543 168.88,-549 168.88,-549 168.88,-561 168.88,-561 168.88,-567 162.88,-573 156.88,-573"/>
<text xml:space="preserve" text-anchor="middle" x="99.75" y="-551.5" font-family="Arial" font-size="10.00">← E5 ContextEngine status</text>
</a>
</g>
</g>
<!-- IntakeNav -->
<g id="node20" class="node">
<title>IntakeNav</title>
<g id="a_node20"><a xlink:href="30_e5_context_engine_intake.svg" xlink:title="← ContextEngine E5 intake">
<path fill="#f5f5f5" stroke="none" d="M156.5,-627C156.5,-627 43,-627 43,-627 37,-627 31,-621 31,-615 31,-615 31,-603 31,-603 31,-597 37,-591 43,-591 43,-591 156.5,-591 156.5,-591 162.5,-591 168.5,-597 168.5,-603 168.5,-603 168.5,-615 168.5,-615 168.5,-621 162.5,-627 156.5,-627"/>
<text xml:space="preserve" text-anchor="middle" x="99.75" y="-605.5" font-family="Arial" font-size="10.00">← ContextEngine E5 intake</text>
</a>
</g>
</g>
<!-- Next -->
<g id="node21" class="node">
<title>Next</title>
<g id="a_node21"><a xlink:href="33_e5_context_engine_cli_report.svg" xlink:title="next: ContextEngine CLI report file">
<path fill="#f5f5f5" stroke="none" d="M171.5,-681C171.5,-681 28,-681 28,-681 22,-681 16,-675 16,-669 16,-669 16,-657 16,-657 16,-651 22,-645 28,-645 28,-645 171.5,-645 171.5,-645 177.5,-645 183.5,-651 183.5,-657 183.5,-657 183.5,-669 183.5,-669 183.5,-675 177.5,-681 171.5,-681"/>
<text xml:space="preserve" text-anchor="middle" x="99.75" y="-659.5" font-family="Arial" font-size="10.00">next: ContextEngine CLI report file</text>
</a>
</g>
</g>
</g>
</svg>
