<?xml version="1.0" encoding="UTF-8" standalone="no"?>
<!DOCTYPE svg PUBLIC "-//W3C//DTD SVG 1.1//EN"
 "http://www.w3.org/Graphics/SVG/1.1/DTD/svg11.dtd">
<!-- Generated by graphviz version 14.1.3 (20260303.0454)
 -->
<!-- Title: E5ContextEngineCliReport Pages: 1 -->
<svg width="1325pt" height="547pt"
 viewBox="0.00 0.00 1325.00 547.00" xmlns="http://www.w3.org/2000/svg" xmlns:xlink="http://www.w3.org/1999/xlink">
<g id="graph0" class="graph" transform="scale(1 1) rotate(0) translate(4 543)">
<title>E5ContextEngineCliReport</title>
<polygon fill="#ffffff" stroke="none" points="-4,4 -4,-543 1320.5,-543 1320.5,4 -4,4"/>
<text xml:space="preserve" text-anchor="middle" x="658.25" y="-517.9" font-family="Arial" font-size="18.00">Phase 5.9 — ContextEngine E5 CLI report file</text>
<g id="clust1" class="cluster">
<title>cluster_cli</title>
<path fill="#e3f2fd" stroke="#bbdefb" d="M237.75,-97C237.75,-97 647.5,-97 647.5,-97 653.5,-97 659.5,-103 659.5,-109 659.5,-109 659.5,-220 659.5,-220 659.5,-226 653.5,-232 647.5,-232 647.5,-232 237.75,-232 237.75,-232 231.75,-232 225.75,-226 225.75,-220 225.75,-220 225.75,-109 225.75,-109 225.75,-103 231.75,-97 237.75,-97"/>
<text xml:space="preserve" text-anchor="middle" x="442.62" y="-210.9" font-family="Arial" font-size="18.00">Bordure CLI 5.8 étendue</text>
</g>
<g id="clust2" class="cluster">
<title>cluster_payload</title>
<path fill="#e8f5e9" stroke="#c8e6c9" d="M691.5,-98C691.5,-98 1296.5,-98 1296.5,-98 1302.5,-98 1308.5,-104 1308.5,-110 1308.5,-110 1308.5,-221 1308.5,-221 1308.5,-227 1302.5,-233 1296.5,-233 1296.5,-233 691.5,-233 691.5,-233 685.5,-233 679.5,-227 679.5,-221 679.5,-221 679.5,-110 679.5,-110 679.5,-104 685.5,-98 691.5,-98"/>
<text xml:space="preserve" text-anchor="middle" x="994" y="-211.9" font-family="Arial" font-size="18.00">Payload stable</text>
</g>
<g id="clust3" class="cluster">
<title>cluster_boundaries</title>
<path fill="#ffffff" stroke="#b0bec5" stroke-dasharray="5,2" d="M39.88,-8C39.88,-8 173.88,-8 173.88,-8 179.88,-8 185.88,-14 185.88,-20 185.88,-20 185.88,-293 185.88,-293 185.88,-299 179.88,-305 173.88,-305 173.88,-305 39.88,-305 39.88,-305 33.88,-305 27.88,-299 27.88,-293 27.88,-293 27.88,-20 27.88,-20 27.88,-14 33.88,-8 39.88,-8"/>
<text xml:space="preserve" text-anchor="middle" x="106.88" y="-283.9" font-family="Arial" font-size="18.00">Contraintes</text>
</g>
<g id="clust4" class="cluster">
<title>cluster_navigation</title>
<path fill="#ffffff" stroke="#90a4ae" stroke-dasharray="5,2" d="M20,-313C20,-313 193.75,-313 193.75,-313 199.75,-313 205.75,-319 205.75,-325 205.75,-325 205.75,-490 205.75,-490 205.75,-496 199.75,-502 193.75,-502 193.75,-502 20,-502 20,-502 14,-502 8,-496 8,-490 8,-490 8,-325 8,-325 8,-319 14,-313 20,-313"/>
<text xml:space="preserve" text-anchor="middle" x="106.88" y="-480.9" font-family="Arial" font-size="18.00">Navigation</text>
</g>
<!-- ArtifactDir -->
<g id="node1" class="node">
<title>ArtifactDir</title>
<g id="a_node1"><a xlink:href="26_e5_artifact_directory_loader.svg" xlink:title="artifact&#45;dir Phase 4">
<path fill="#f5f5f5" stroke="#546e7a" d="M320.25,-158C320.25,-158 245.75,-158 245.75,-158 239.75,-158 233.75,-152 233.75,-146 233.75,-146 233.75,-134 233.75,-134 233.75,-128 239.75,-122 245.75,-122 245.75,-122 320.25,-122 320.25,-122 326.25,-122 332.25,-128 332.25,-134 332.25,-134 332.25,-146 332.25,-146 332.25,-152 326.25,-158 320.25,-158"/>
<text xml:space="preserve" text-anchor="middle" x="283" y="-136.5" font-family="Arial" font-size="10.00">artifact&#45;dir Phase 4</text>
</a>
</g>
</g>
<!-- Parser -->
<g id="node4" class="node">
<title>Parser</title>
<path fill="#f5f5f5" stroke="#546e7a" d="M442.75,-151C442.75,-151 380.25,-151 380.25,-151 374.25,-151 368.25,-145 368.25,-139 368.25,-139 368.25,-127 368.25,-127 368.25,-121 374.25,-115 380.25,-115 380.25,-115 442.75,-115 442.75,-115 448.75,-115 454.75,-121 454.75,-127 454.75,-127 454.75,-139 454.75,-139 454.75,-145 448.75,-151 442.75,-151"/>
<text xml:space="preserve" text-anchor="middle" x="411.5" y="-129.5" font-family="Arial" font-size="10.00">&#45;&#45;report&#45;file FILE</text>
</g>
<!-- ArtifactDir&#45;&gt;Parser -->
<g id="edge1" class="edge">
<title>ArtifactDir&#45;&gt;Parser</title>
<path fill="none" stroke="#455a64" d="M332.55,-137.31C340.41,-136.88 348.6,-136.43 356.58,-135.98"/>
<polygon fill="#455a64" stroke="#455a64" points="356.77,-139.48 366.56,-135.43 356.38,-132.49 356.77,-139.48"/>
</g>
<!-- Command -->
<g id="node2" class="node">
<title>Command</title>
<path fill="#f5f5f5" stroke="#546e7a" d="M633.88,-141C633.88,-141 508.38,-141 508.38,-141 502.38,-141 496.38,-135 496.38,-129 496.38,-129 496.38,-117 496.38,-117 496.38,-111 502.38,-105 508.38,-105 508.38,-105 633.88,-105 633.88,-105 639.88,-105 645.88,-111 645.88,-117 645.88,-117 645.88,-129 645.88,-129 645.88,-135 639.88,-141 633.88,-141"/>
<text xml:space="preserve" text-anchor="middle" x="571.12" y="-125.5" font-family="Arial" font-size="10.00">E5ContextEngineCliCommand</text>
<text xml:space="preserve" text-anchor="middle" x="571.12" y="-113.5" font-family="Arial" font-size="10.00">artifact_dir + policies</text>
</g>
<!-- Engine -->
<g id="node5" class="node">
<title>Engine</title>
<g id="a_node5"><a xlink:href="30_e5_context_engine_intake.svg" xlink:title="ContextEngine attach">
<path fill="#f5f5f5" stroke="#546e7a" d="M786,-194C786,-194 699.5,-194 699.5,-194 693.5,-194 687.5,-188 687.5,-182 687.5,-182 687.5,-170 687.5,-170 687.5,-164 693.5,-158 699.5,-158 699.5,-158 786,-158 786,-158 792,-158 798,-164 798,-170 798,-170 798,-182 798,-182 798,-188 792,-194 786,-194"/>
<text xml:space="preserve" text-anchor="middle" x="742.75" y="-172.5" font-family="Arial" font-size="10.00">ContextEngine attach</text>
</a>
</g>
</g>
<!-- Command&#45;&gt;Engine -->
<g id="edge4" class="edge">
<title>Command&#45;&gt;Engine</title>
<path fill="none" stroke="#455a64" d="M631.83,-141.39C641.1,-144.26 650.56,-147.21 659.5,-150 664.99,-151.72 670.68,-153.5 676.39,-155.3"/>
<polygon fill="#455a64" stroke="#455a64" points="675.31,-158.63 685.9,-158.29 677.42,-151.95 675.31,-158.63"/>
</g>
<!-- ReportPolicy -->
<g id="node3" class="node">
<title>ReportPolicy</title>
<path fill="#f5f5f5" stroke="#546e7a" d="M639.5,-195C639.5,-195 502.75,-195 502.75,-195 496.75,-195 490.75,-189 490.75,-183 490.75,-183 490.75,-171 490.75,-171 490.75,-165 496.75,-159 502.75,-159 502.75,-159 639.5,-159 639.5,-159 645.5,-159 651.5,-165 651.5,-171 651.5,-171 651.5,-183 651.5,-183 651.5,-189 645.5,-195 639.5,-195"/>
<text xml:space="preserve" text-anchor="middle" x="571.12" y="-179.5" font-family="Arial" font-size="10.00">E5ContextEngineCliReportPolicy</text>
<text xml:space="preserve" text-anchor="middle" x="571.12" y="-167.5" font-family="Arial" font-size="10.00">path optionnel</text>
</g>
<!-- ReportFile -->
<g id="node9" class="node">
<title>ReportFile</title>
<path fill="#f5f5f5" stroke="#546e7a" d="M1288.5,-142C1288.5,-142 1199,-142 1199,-142 1193,-142 1187,-136 1187,-130 1187,-130 1187,-118 1187,-118 1187,-112 1193,-106 1199,-106 1199,-106 1288.5,-106 1288.5,-106 1294.5,-106 1300.5,-112 1300.5,-118 1300.5,-118 1300.5,-130 1300.5,-130 1300.5,-136 1294.5,-142 1288.5,-142"/>
<text xml:space="preserve" text-anchor="middle" x="1243.75" y="-120.5" font-family="Arial" font-size="10.00">report JSON atomique</text>
</g>
<!-- ReportPolicy&#45;&gt;ReportFile -->
<g id="edge8" class="edge">
<title>ReportPolicy&#45;&gt;ReportFile</title>
<path fill="none" stroke="#455a64" d="M633.84,-158.54C648.67,-154.76 664.55,-151.26 679.5,-149 856.99,-122.23 1069.21,-120.98 1175.33,-122.43"/>
<polygon fill="#455a64" stroke="#455a64" points="1175.25,-125.93 1185.3,-122.58 1175.35,-118.93 1175.25,-125.93"/>
</g>
<!-- Parser&#45;&gt;Command -->
<g id="edge2" class="edge">
<title>Parser&#45;&gt;Command</title>
<path fill="none" stroke="#455a64" d="M455.16,-130.29C464.46,-129.7 474.63,-129.06 484.94,-128.4"/>
<polygon fill="#455a64" stroke="#455a64" points="484.89,-131.91 494.64,-127.79 484.44,-124.93 484.89,-131.91"/>
</g>
<!-- Parser&#45;&gt;ReportPolicy -->
<g id="edge3" class="edge">
<title>Parser&#45;&gt;ReportPolicy</title>
<path fill="none" stroke="#455a64" d="M455.16,-144.91C466.91,-148.19 480.03,-151.85 493.09,-155.5"/>
<polygon fill="#455a64" stroke="#455a64" points="491.98,-158.82 502.55,-158.14 493.86,-152.08 491.98,-158.82"/>
</g>
<!-- Status -->
<g id="node6" class="node">
<title>Status</title>
<g id="a_node6"><a xlink:href="31_e5_context_engine_status.svg" xlink:title="E5ContextEngineStatus">
<path fill="#f5f5f5" stroke="#546e7a" d="M943,-194C943,-194 846,-194 846,-194 840,-194 834,-188 834,-182 834,-182 834,-170 834,-170 834,-164 840,-158 846,-158 846,-158 943,-158 943,-158 949,-158 955,-164 955,-170 955,-170 955,-182 955,-182 955,-188 949,-194 943,-194"/>
<text xml:space="preserve" text-anchor="middle" x="894.5" y="-172.5" font-family="Arial" font-size="10.00">E5ContextEngineStatus</text>
</a>
</g>
</g>
<!-- Engine&#45;&gt;Status -->
<g id="edge5" class="edge">
<title>Engine&#45;&gt;Status</title>
<path fill="none" stroke="#455a64" d="M798.24,-176C806.08,-176 814.25,-176 822.36,-176"/>
<polygon fill="#455a64" stroke="#455a64" points="822.23,-179.5 832.23,-176 822.23,-172.5 822.23,-179.5"/>
</g>
<!-- Payload -->
<g id="node7" class="node">
<title>Payload</title>
<path fill="#f5f5f5" stroke="#546e7a" d="M1139,-194C1139,-194 1003,-194 1003,-194 997,-194 991,-188 991,-182 991,-182 991,-170 991,-170 991,-164 997,-158 1003,-158 1003,-158 1139,-158 1139,-158 1145,-158 1151,-164 1151,-170 1151,-170 1151,-182 1151,-182 1151,-188 1145,-194 1139,-194"/>
<text xml:space="preserve" text-anchor="middle" x="1071" y="-178.5" font-family="Arial" font-size="10.00">missipy.e5.context_engine_cli.v1</text>
<text xml:space="preserve" text-anchor="middle" x="1071" y="-166.5" font-family="Arial" font-size="10.00">intake + status</text>
</g>
<!-- Status&#45;&gt;Payload -->
<g id="edge6" class="edge">
<title>Status&#45;&gt;Payload</title>
<path fill="none" stroke="#455a64" d="M955.06,-176C962.94,-176 971.15,-176 979.4,-176"/>
<polygon fill="#455a64" stroke="#455a64" points="979.13,-179.5 989.13,-176 979.13,-172.5 979.13,-179.5"/>
</g>
<!-- Stdout -->
<g id="node8" class="node">
<title>Stdout</title>
<path fill="#f5f5f5" stroke="#546e7a" d="M1273.5,-196C1273.5,-196 1214,-196 1214,-196 1208,-196 1202,-190 1202,-184 1202,-184 1202,-172 1202,-172 1202,-166 1208,-160 1214,-160 1214,-160 1273.5,-160 1273.5,-160 1279.5,-160 1285.5,-166 1285.5,-172 1285.5,-172 1285.5,-184 1285.5,-184 1285.5,-190 1279.5,-196 1273.5,-196"/>
<text xml:space="preserve" text-anchor="middle" x="1243.75" y="-174.5" font-family="Arial" font-size="10.00">stdout text/json</text>
</g>
<!-- Payload&#45;&gt;Stdout -->
<g id="edge7" class="edge">
<title>Payload&#45;&gt;Stdout</title>
<path fill="none" stroke="#455a64" d="M1151.38,-176.93C1164.58,-177.08 1177.97,-177.24 1190.28,-177.39"/>
<polygon fill="#455a64" stroke="#455a64" points="1190.16,-180.88 1200.2,-177.5 1190.24,-173.88 1190.16,-180.88"/>
</g>
<!-- Payload&#45;&gt;ReportFile -->
<g id="edge9" class="edge">
<title>Payload&#45;&gt;ReportFile</title>
<path fill="none" stroke="#455a64" d="M1132.68,-157.52C1146.66,-153.26 1161.6,-148.71 1175.83,-144.38"/>
<polygon fill="#455a64" stroke="#455a64" points="1176.55,-147.82 1185.09,-141.56 1174.51,-141.12 1176.55,-147.82"/>
</g>
<!-- NoNewCli -->
<g id="node10" class="node">
<title>NoNewCli</title>
<path fill="#f5f5f5" stroke="#546e7a" d="M163.62,-106C163.62,-106 50.12,-106 50.12,-106 44.13,-106 38.12,-100 38.12,-94 38.12,-94 38.12,-82 38.12,-82 38.12,-76 44.12,-70 50.12,-70 50.12,-70 163.62,-70 163.62,-70 169.62,-70 175.62,-76 175.62,-82 175.62,-82 175.62,-94 175.62,-94 175.62,-100 169.62,-106 163.62,-106"/>
<text xml:space="preserve" text-anchor="middle" x="106.88" y="-84.5" font-family="Arial" font-size="10.00">aucune nouvelle commande</text>
</g>
<!-- NoNewCli&#45;&gt;Parser -->
<g id="edge10" class="edge">
<title>NoNewCli&#45;&gt;Parser</title>
<path fill="none" stroke="#455a64" stroke-dasharray="5,2" d="M175.98,-93.11C220.65,-97.06 280.2,-103.5 332.25,-113 340.31,-114.47 348.77,-116.31 357.02,-118.28"/>
<polygon fill="#455a64" stroke="#455a64" points="356.08,-121.65 366.63,-120.65 357.76,-114.86 356.08,-121.65"/>
</g>
<!-- NoScheduler -->
<g id="node11" class="node">
<title>NoScheduler</title>
<path fill="#f5f5f5" stroke="#546e7a" d="M155.38,-268C155.38,-268 58.38,-268 58.38,-268 52.38,-268 46.38,-262 46.38,-256 46.38,-256 46.38,-244 46.38,-244 46.38,-238 52.38,-232 58.38,-232 58.38,-232 155.38,-232 155.38,-232 161.38,-232 167.38,-238 167.38,-244 167.38,-244 167.38,-256 167.38,-256 167.38,-262 161.38,-268 155.38,-268"/>
<text xml:space="preserve" text-anchor="middle" x="106.88" y="-246.5" font-family="Arial" font-size="10.00">pas de Scheduler vivant</text>
</g>
<!-- NoScheduler&#45;&gt;Engine -->
<g id="edge11" class="edge">
<title>NoScheduler&#45;&gt;Engine</title>
<path fill="none" stroke="#455a64" stroke-dasharray="5,2" d="M167.87,-259.84C271.42,-274.36 488.99,-293.99 659.5,-236 680.34,-228.91 700.37,-214.52 715.45,-201.6"/>
<polygon fill="#455a64" stroke="#455a64" points="717.45,-204.51 722.59,-195.25 712.8,-199.28 717.45,-204.51"/>
</g>
<!-- NoNetwork -->
<g id="node12" class="node">
<title>NoNetwork</title>
<path fill="#f5f5f5" stroke="#546e7a" d="M162.88,-52C162.88,-52 50.88,-52 50.88,-52 44.87,-52 38.88,-46 38.88,-40 38.88,-40 38.88,-28 38.88,-28 38.88,-22 44.88,-16 50.88,-16 50.88,-16 162.88,-16 162.88,-16 168.88,-16 174.88,-22 174.88,-28 174.88,-28 174.88,-40 174.88,-40 174.88,-46 168.88,-52 162.88,-52"/>
<text xml:space="preserve" text-anchor="middle" x="106.88" y="-30.5" font-family="Arial" font-size="10.00">pas de réseau / GitHub API</text>
</g>
<!-- NoNetwork&#45;&gt;ReportFile -->
<g id="edge12" class="edge">
<title>NoNetwork&#45;&gt;ReportFile</title>
<path fill="none" stroke="#455a64" stroke-dasharray="5,2" d="M175.16,-37.5C236.48,-40.38 329.55,-44 410.5,-44 410.5,-44 410.5,-44 895.5,-44 999,-44 1115.53,-78.17 1183.85,-101.84"/>
<polygon fill="#455a64" stroke="#455a64" points="1182.37,-105.03 1192.97,-105.04 1184.69,-98.43 1182.37,-105.03"/>
</g>
<!-- NoBackend -->
<g id="node13" class="node">
<title>NoBackend</title>
<path fill="#f5f5f5" stroke="#546e7a" d="M165.88,-160C165.88,-160 47.88,-160 47.88,-160 41.87,-160 35.88,-154 35.88,-148 35.88,-148 35.88,-136 35.88,-136 35.88,-130 41.88,-124 47.88,-124 47.88,-124 165.88,-124 165.88,-124 171.88,-124 177.88,-130 177.88,-136 177.88,-136 177.88,-148 177.88,-148 177.88,-154 171.88,-160 165.88,-160"/>
<text xml:space="preserve" text-anchor="middle" x="106.88" y="-138.5" font-family="Arial" font-size="10.00">pas de backend / OpenVINO</text>
</g>
<!-- NoBackend&#45;&gt;ArtifactDir -->
<g id="edge13" class="edge">
<title>NoBackend&#45;&gt;ArtifactDir</title>
<path fill="none" stroke="#455a64" stroke-dasharray="5,2" d="M178.2,-141.19C192.79,-141.02 208.04,-140.85 222.22,-140.69"/>
<polygon fill="#455a64" stroke="#455a64" points="221.85,-144.19 231.81,-140.58 221.77,-137.19 221.85,-144.19"/>
</g>
<!-- Stdlib -->
<g id="node14" class="node">
<title>Stdlib</title>
<path fill="#f5f5f5" stroke="#546e7a" d="M141.12,-214C141.12,-214 72.62,-214 72.62,-214 66.62,-214 60.62,-208 60.62,-202 60.62,-202 60.62,-190 60.62,-190 60.62,-184 66.62,-178 72.62,-178 72.62,-178 141.12,-178 141.12,-178 147.12,-178 153.12,-184 153.12,-190 153.12,-190 153.12,-202 153.12,-202 153.12,-208 147.12,-214 141.12,-214"/>
<text xml:space="preserve" text-anchor="middle" x="106.88" y="-192.5" font-family="Arial" font-size="10.00">stdlib uniquement</text>
</g>
<!-- Stdlib&#45;&gt;ReportPolicy -->
<g id="edge14" class="edge">
<title>Stdlib&#45;&gt;ReportPolicy</title>
<path fill="none" stroke="#455a64" stroke-dasharray="5,2" d="M153.46,-194.13C228.83,-191.03 380.81,-184.78 478.9,-180.75"/>
<polygon fill="#455a64" stroke="#455a64" points="478.93,-184.25 488.78,-180.34 478.64,-177.26 478.93,-184.25"/>
</g>
<!-- Global -->
<g id="node15" class="node">
<title>Global</title>
<g id="a_node15"><a xlink:href="../00_global.svg" xlink:title="← Global architecture">
<path fill="#f5f5f5" stroke="none" d="M150.12,-357C150.12,-357 63.62,-357 63.62,-357 57.62,-357 51.62,-351 51.62,-345 51.62,-345 51.62,-333 51.62,-333 51.62,-327 57.62,-321 63.62,-321 63.62,-321 150.12,-321 150.12,-321 156.12,-321 162.12,-327 162.12,-333 162.12,-333 162.12,-345 162.12,-345 162.12,-351 156.12,-357 150.12,-357"/>
<text xml:space="preserve" text-anchor="middle" x="106.88" y="-335.5" font-family="Arial" font-size="10.00">← Global architecture</text>
</a>
</g>
</g>
<!-- Parent -->
<g id="node16" class="node">
<title>Parent</title>
<g id="a_node16"><a xlink:href="32_e5_context_engine_cli.svg" xlink:title="← ContextEngine E5 CLI">
<path fill="#f5f5f5" stroke="none" d="M158.38,-411C158.38,-411 55.38,-411 55.38,-411 49.38,-411 43.37,-405 43.37,-399 43.37,-399 43.37,-387 43.37,-387 43.37,-381 49.37,-375 55.37,-375 55.37,-375 158.38,-375 158.38,-375 164.38,-375 170.38,-381 170.38,-387 170.38,-387 170.38,-399 170.38,-399 170.38,-405 164.38,-411 158.38,-411"/>
<text xml:space="preserve" text-anchor="middle" x="106.88" y="-389.5" font-family="Arial" font-size="10.00">← ContextEngine E5 CLI</text>
</a>
</g>
</g>
<!-- Next -->
<g id="node17" class="node">
<title>Next</title>
<g id="a_node17"><a xlink:href="34_e5_context_engine_intake_audit.svg" xlink:title="next: ContextEngine local intake audit">
<path fill="#f5f5f5" stroke="none" d="M185.75,-465C185.75,-465 28,-465 28,-465 22,-465 16,-459 16,-453 16,-453 16,-441 16,-441 16,-435 22,-429 28,-429 28,-429 185.75,-429 185.75,-429 191.75,-429 197.75,-435 197.75,-441 197.75,-441 197.75,-453 197.75,-453 197.75,-459 191.75,-465 185.75,-465"/>
<text xml:space="preserve" text-anchor="middle" x="106.88" y="-443.5" font-family="Arial" font-size="10.00">next: ContextEngine local intake audit</text>
</a>
</g>
</g>
</g>
</svg>
