<?xml version="1.0" encoding="UTF-8" standalone="no"?>
<!DOCTYPE svg PUBLIC "-//W3C//DTD SVG 1.1//EN"
 "http://www.w3.org/Graphics/SVG/1.1/DTD/svg11.dtd">
<!-- Generated by graphviz version 14.1.3 (20260303.0454)
 -->
<!-- Title: E5ContextEngineIntakeAudit Pages: 1 -->
<svg width="1455pt" height="636pt"
 viewBox="0.00 0.00 1455.00 636.00" xmlns="http://www.w3.org/2000/svg" xmlns:xlink="http://www.w3.org/1999/xlink">
<g id="graph0" class="graph" transform="scale(1 1) rotate(0) translate(4 632)">
<title>E5ContextEngineIntakeAudit</title>
<polygon fill="#ffffff" stroke="none" points="-4,4 -4,-632 1451.38,-632 1451.38,4 -4,4"/>
<text xml:space="preserve" text-anchor="middle" x="723.69" y="-606.9" font-family="Arial" font-size="18.00">Phase 5.10 — ContextEngine local intake audit</text>
<g id="clust1" class="cluster">
<title>cluster_scope</title>
<path fill="#e3f2fd" stroke="#bbdefb" d="M26.38,-313C26.38,-313 1091.5,-313 1091.5,-313 1097.5,-313 1103.5,-319 1103.5,-325 1103.5,-325 1103.5,-382 1103.5,-382 1103.5,-388 1097.5,-394 1091.5,-394 1091.5,-394 26.38,-394 26.38,-394 20.38,-394 14.38,-388 14.38,-382 14.38,-382 14.38,-325 14.38,-325 14.38,-319 20.38,-313 26.38,-313"/>
<text xml:space="preserve" text-anchor="middle" x="558.94" y="-372.9" font-family="Arial" font-size="18.00">Périmètre audité</text>
</g>
<g id="clust2" class="cluster">
<title>cluster_audit</title>
<path fill="#e8f5e9" stroke="#c8e6c9" d="M1135.5,-313C1135.5,-313 1418.75,-313 1418.75,-313 1424.75,-313 1430.75,-319 1430.75,-325 1430.75,-325 1430.75,-490 1430.75,-490 1430.75,-496 1424.75,-502 1418.75,-502 1418.75,-502 1135.5,-502 1135.5,-502 1129.5,-502 1123.5,-496 1123.5,-490 1123.5,-490 1123.5,-325 1123.5,-325 1123.5,-319 1129.5,-313 1135.5,-313"/>
<text xml:space="preserve" text-anchor="middle" x="1277.12" y="-480.9" font-family="Arial" font-size="18.00">Résultat d&#39;audit 5.10</text>
</g>
<g id="clust3" class="cluster">
<title>cluster_deferred</title>
<path fill="#ffffff" stroke="#b0bec5" stroke-dasharray="5,2" d="M1291,-8C1291,-8 1435.25,-8 1435.25,-8 1441.25,-8 1447.25,-14 1447.25,-20 1447.25,-20 1447.25,-293 1447.25,-293 1447.25,-299 1441.25,-305 1435.25,-305 1435.25,-305 1291,-305 1291,-305 1285,-305 1279,-299 1279,-293 1279,-293 1279,-20 1279,-20 1279,-14 1285,-8 1291,-8"/>
<text xml:space="preserve" text-anchor="middle" x="1363.12" y="-283.9" font-family="Arial" font-size="18.00">Reporté après 5.10</text>
</g>
<g id="clust4" class="cluster">
<title>cluster_constraints</title>
<path fill="#ffffff" stroke="#b0bec5" stroke-dasharray="5,2" d="M12,-8C12,-8 190.75,-8 190.75,-8 196.75,-8 202.75,-14 202.75,-20 202.75,-20 202.75,-293 202.75,-293 202.75,-299 196.75,-305 190.75,-305 190.75,-305 12,-305 12,-305 6,-305 0,-299 0,-293 0,-293 0,-20 0,-20 0,-14 6,-8 12,-8"/>
<text xml:space="preserve" text-anchor="middle" x="101.38" y="-283.9" font-family="Arial" font-size="18.00">Contraintes conservées</text>
</g>
<g id="clust5" class="cluster">
<title>cluster_navigation</title>
<path fill="#ffffff" stroke="#90a4ae" stroke-dasharray="5,2" d="M22.62,-402C22.62,-402 179.12,-402 179.12,-402 185.12,-402 191.12,-408 191.12,-414 191.12,-414 191.12,-579 191.12,-579 191.12,-585 185.12,-591 179.12,-591 179.12,-591 22.62,-591 22.62,-591 16.63,-591 10.62,-585 10.62,-579 10.62,-579 10.62,-414 10.62,-414 10.62,-408 16.62,-402 22.62,-402"/>
<text xml:space="preserve" text-anchor="middle" x="100.88" y="-569.9" font-family="Arial" font-size="18.00">Navigation</text>
</g>
<!-- ArtifactDir -->
<g id="node1" class="node">
<title>ArtifactDir</title>
<g id="a_node1"><a xlink:href="26_e5_artifact_directory_loader.svg" xlink:title="artifact&#45;dir Phase 4&#10;report/context/consumed/prompt">
<path fill="#f5f5f5" stroke="#546e7a" d="M167.38,-357C167.38,-357 34.38,-357 34.38,-357 28.38,-357 22.38,-351 22.38,-345 22.38,-345 22.38,-333 22.38,-333 22.38,-327 28.38,-321 34.38,-321 34.38,-321 167.38,-321 167.38,-321 173.38,-321 179.38,-327 179.38,-333 179.38,-333 179.38,-345 179.38,-345 179.38,-351 173.38,-357 167.38,-357"/>
<text xml:space="preserve" text-anchor="middle" x="100.88" y="-341.5" font-family="Arial" font-size="10.00">artifact&#45;dir Phase 4</text>
<text xml:space="preserve" text-anchor="middle" x="100.88" y="-329.5" font-family="Arial" font-size="10.00">report/context/consumed/prompt</text>
</a>
</g>
</g>
<!-- Runtime -->
<g id="node2" class="node">
<title>Runtime</title>
<g id="a_node2"><a xlink:href="28_e5_local_context_runtime.svg" xlink:title="E5LocalContextRuntime">
<path fill="#f5f5f5" stroke="#546e7a" d="M341.25,-357C341.25,-357 242.75,-357 242.75,-357 236.75,-357 230.75,-351 230.75,-345 230.75,-345 230.75,-333 230.75,-333 230.75,-327 236.75,-321 242.75,-321 242.75,-321 341.25,-321 341.25,-321 347.25,-321 353.25,-327 353.25,-333 353.25,-333 353.25,-345 353.25,-345 353.25,-351 347.25,-357 341.25,-357"/>
<text xml:space="preserve" text-anchor="middle" x="292" y="-335.5" font-family="Arial" font-size="10.00">E5LocalContextRuntime</text>
</a>
</g>
</g>
<!-- ArtifactDir&#45;&gt;Runtime -->
<g id="edge1" class="edge">
<title>ArtifactDir&#45;&gt;Runtime</title>
<path fill="none" stroke="#455a64" d="M179.62,-339C192.7,-339 206.22,-339 219.15,-339"/>
<polygon fill="#455a64" stroke="#455a64" points="218.81,-342.5 228.81,-339 218.81,-335.5 218.81,-342.5"/>
</g>
<!-- Attachment -->
<g id="node3" class="node">
<title>Attachment</title>
<g id="a_node3"><a xlink:href="29_e5_context_attachment.svg" xlink:title="E5ContextAttachment">
<path fill="#f5f5f5" stroke="#546e7a" d="M490,-357C490,-357 401.25,-357 401.25,-357 395.25,-357 389.25,-351 389.25,-345 389.25,-345 389.25,-333 389.25,-333 389.25,-327 395.25,-321 401.25,-321 401.25,-321 490,-321 490,-321 496,-321 502,-327 502,-333 502,-333 502,-345 502,-345 502,-351 496,-357 490,-357"/>
<text xml:space="preserve" text-anchor="middle" x="445.62" y="-335.5" font-family="Arial" font-size="10.00">E5ContextAttachment</text>
</a>
</g>
</g>
<!-- Runtime&#45;&gt;Attachment -->
<g id="edge2" class="edge">
<title>Runtime&#45;&gt;Attachment</title>
<path fill="none" stroke="#455a64" d="M353.36,-339C361.33,-339 369.54,-339 377.61,-339"/>
<polygon fill="#455a64" stroke="#455a64" points="377.39,-342.5 387.39,-339 377.39,-335.5 377.39,-342.5"/>
</g>
<!-- Intake -->
<g id="node4" class="node">
<title>Intake</title>
<g id="a_node4"><a xlink:href="30_e5_context_engine_intake.svg" xlink:title="ContextEngine E5 intake">
<path fill="#f5f5f5" stroke="#546e7a" d="M650.75,-357C650.75,-357 550,-357 550,-357 544,-357 538,-351 538,-345 538,-345 538,-333 538,-333 538,-327 544,-321 550,-321 550,-321 650.75,-321 650.75,-321 656.75,-321 662.75,-327 662.75,-333 662.75,-333 662.75,-345 662.75,-345 662.75,-351 656.75,-357 650.75,-357"/>
<text xml:space="preserve" text-anchor="middle" x="600.38" y="-335.5" font-family="Arial" font-size="10.00">ContextEngine E5 intake</text>
</a>
</g>
</g>
<!-- Attachment&#45;&gt;Intake -->
<g id="edge3" class="edge">
<title>Attachment&#45;&gt;Intake</title>
<path fill="none" stroke="#455a64" d="M502.2,-339C510.03,-339 518.17,-339 526.27,-339"/>
<polygon fill="#455a64" stroke="#455a64" points="526.13,-342.5 536.13,-339 526.13,-335.5 526.13,-342.5"/>
</g>
<!-- Status -->
<g id="node5" class="node">
<title>Status</title>
<g id="a_node5"><a xlink:href="31_e5_context_engine_status.svg" xlink:title="E5ContextEngineStatus">
<path fill="#f5f5f5" stroke="#546e7a" d="M807.75,-357C807.75,-357 710.75,-357 710.75,-357 704.75,-357 698.75,-351 698.75,-345 698.75,-345 698.75,-333 698.75,-333 698.75,-327 704.75,-321 710.75,-321 710.75,-321 807.75,-321 807.75,-321 813.75,-321 819.75,-327 819.75,-333 819.75,-333 819.75,-345 819.75,-345 819.75,-351 813.75,-357 807.75,-357"/>
<text xml:space="preserve" text-anchor="middle" x="759.25" y="-335.5" font-family="Arial" font-size="10.00">E5ContextEngineStatus</text>
</a>
</g>
</g>
<!-- Intake&#45;&gt;Status -->
<g id="edge4" class="edge">
<title>Intake&#45;&gt;Status</title>
<path fill="none" stroke="#455a64" d="M662.93,-339C670.86,-339 679.04,-339 687.11,-339"/>
<polygon fill="#455a64" stroke="#455a64" points="686.9,-342.5 696.9,-339 686.9,-335.5 686.9,-342.5"/>
</g>
<!-- StableBoundary -->
<g id="node10" class="node">
<title>StableBoundary</title>
<path fill="#f5f5f5" stroke="#546e7a" d="M1239,-411C1239,-411 1143.5,-411 1143.5,-411 1137.5,-411 1131.5,-405 1131.5,-399 1131.5,-399 1131.5,-387 1131.5,-387 1131.5,-381 1137.5,-375 1143.5,-375 1143.5,-375 1239,-375 1239,-375 1245,-375 1251,-381 1251,-387 1251,-387 1251,-399 1251,-399 1251,-405 1245,-411 1239,-411"/>
<text xml:space="preserve" text-anchor="middle" x="1191.25" y="-395.5" font-family="Arial" font-size="10.00">frontière stable</text>
<text xml:space="preserve" text-anchor="middle" x="1191.25" y="-383.5" font-family="Arial" font-size="10.00">avant serveur/local loop</text>
</g>
<!-- Intake&#45;&gt;StableBoundary -->
<g id="edge10" class="edge">
<title>Intake&#45;&gt;StableBoundary</title>
<path fill="none" stroke="#455a64" d="M662.87,-357.49C674.7,-360.64 687.06,-363.65 698.75,-366 846.48,-395.73 1023.89,-397.31 1120,-395.42"/>
<polygon fill="#455a64" stroke="#455a64" points="1119.87,-398.92 1129.79,-395.21 1119.72,-391.93 1119.87,-398.92"/>
</g>
<!-- Cli -->
<g id="node6" class="node">
<title>Cli</title>
<g id="a_node6"><a xlink:href="32_e5_context_engine_cli.svg" xlink:title="ContextEngine E5 CLI">
<path fill="#f5f5f5" stroke="#546e7a" d="M958,-357C958,-357 867.75,-357 867.75,-357 861.75,-357 855.75,-351 855.75,-345 855.75,-345 855.75,-333 855.75,-333 855.75,-327 861.75,-321 867.75,-321 867.75,-321 958,-321 958,-321 964,-321 970,-327 970,-333 970,-333 970,-345 970,-345 970,-351 964,-357 958,-357"/>
<text xml:space="preserve" text-anchor="middle" x="912.88" y="-335.5" font-family="Arial" font-size="10.00">ContextEngine E5 CLI</text>
</a>
</g>
</g>
<!-- Status&#45;&gt;Cli -->
<g id="edge5" class="edge">
<title>Status&#45;&gt;Cli</title>
<path fill="none" stroke="#455a64" d="M820.18,-339C827.96,-339 835.98,-339 843.89,-339"/>
<polygon fill="#455a64" stroke="#455a64" points="843.83,-342.5 853.83,-339 843.83,-335.5 843.83,-342.5"/>
</g>
<!-- Observable -->
<g id="node9" class="node">
<title>Observable</title>
<path fill="#f5f5f5" stroke="#546e7a" d="M1227,-357C1227,-357 1155.5,-357 1155.5,-357 1149.5,-357 1143.5,-351 1143.5,-345 1143.5,-345 1143.5,-333 1143.5,-333 1143.5,-327 1149.5,-321 1155.5,-321 1155.5,-321 1227,-321 1227,-321 1233,-321 1239,-327 1239,-333 1239,-333 1239,-345 1239,-345 1239,-351 1233,-357 1227,-357"/>
<text xml:space="preserve" text-anchor="middle" x="1191.25" y="-341.5" font-family="Arial" font-size="10.00">status inspectable</text>
<text xml:space="preserve" text-anchor="middle" x="1191.25" y="-329.5" font-family="Arial" font-size="10.00">text/json/report</text>
</g>
<!-- Status&#45;&gt;Observable -->
<g id="edge8" class="edge">
<title>Status&#45;&gt;Observable</title>
<path fill="none" stroke="#455a64" d="M815.75,-357.47C828.73,-361.01 842.61,-364.18 855.75,-366 964.82,-381.12 994.64,-382.55 1103.5,-366 1112.91,-364.57 1122.71,-362.31 1132.19,-359.7"/>
<polygon fill="#455a64" stroke="#455a64" points="1133.07,-363.09 1141.68,-356.92 1131.1,-356.37 1133.07,-363.09"/>
</g>
<!-- CliReport -->
<g id="node7" class="node">
<title>CliReport</title>
<g id="a_node7"><a xlink:href="33_e5_context_engine_cli_report.svg" xlink:title="CLI report JSON">
<path fill="#f5f5f5" stroke="#546e7a" d="M1083.5,-357C1083.5,-357 1018,-357 1018,-357 1012,-357 1006,-351 1006,-345 1006,-345 1006,-333 1006,-333 1006,-327 1012,-321 1018,-321 1018,-321 1083.5,-321 1083.5,-321 1089.5,-321 1095.5,-327 1095.5,-333 1095.5,-333 1095.5,-345 1095.5,-345 1095.5,-351 1089.5,-357 1083.5,-357"/>
<text xml:space="preserve" text-anchor="middle" x="1050.75" y="-335.5" font-family="Arial" font-size="10.00">CLI report JSON</text>
</a>
</g>
</g>
<!-- Cli&#45;&gt;CliReport -->
<g id="edge6" class="edge">
<title>Cli&#45;&gt;CliReport</title>
<path fill="none" stroke="#455a64" d="M970.32,-339C978.25,-339 986.41,-339 994.32,-339"/>
<polygon fill="#455a64" stroke="#455a64" points="994.19,-342.5 1004.19,-339 994.19,-335.5 994.19,-342.5"/>
</g>
<!-- ManualOnly -->
<g id="node8" class="node">
<title>ManualOnly</title>
<path fill="#f5f5f5" stroke="#546e7a" d="M1237.12,-465C1237.12,-465 1145.38,-465 1145.38,-465 1139.38,-465 1133.38,-459 1133.38,-453 1133.38,-453 1133.38,-441 1133.38,-441 1133.38,-435 1139.38,-429 1145.38,-429 1145.38,-429 1237.12,-429 1237.12,-429 1243.12,-429 1249.12,-435 1249.12,-441 1249.12,-441 1249.12,-453 1249.12,-453 1249.12,-459 1243.12,-465 1237.12,-465"/>
<text xml:space="preserve" text-anchor="middle" x="1191.25" y="-443.5" font-family="Arial" font-size="10.00">intake manuel explicite</text>
</g>
<!-- Cli&#45;&gt;ManualOnly -->
<g id="edge7" class="edge">
<title>Cli&#45;&gt;ManualOnly</title>
<path fill="none" stroke="#455a64" d="M961.07,-357.44C1008.57,-376 1081.89,-404.65 1132.75,-424.53"/>
<polygon fill="#455a64" stroke="#455a64" points="1131.25,-427.7 1141.84,-428.08 1133.8,-421.18 1131.25,-427.7"/>
</g>
<!-- CliReport&#45;&gt;Observable -->
<g id="edge9" class="edge">
<title>CliReport&#45;&gt;Observable</title>
<path fill="none" stroke="#455a64" d="M1095.95,-339C1107.35,-339 1119.8,-339 1131.8,-339"/>
<polygon fill="#455a64" stroke="#455a64" points="1131.61,-342.5 1141.61,-339 1131.61,-335.5 1131.61,-342.5"/>
</g>
<!-- NoMutation -->
<g id="node11" class="node">
<title>NoMutation</title>
<path fill="#f5f5f5" stroke="#546e7a" d="M1410.75,-411C1410.75,-411 1314.5,-411 1314.5,-411 1308.5,-411 1302.5,-405 1302.5,-399 1302.5,-399 1302.5,-387 1302.5,-387 1302.5,-381 1308.5,-375 1314.5,-375 1314.5,-375 1410.75,-375 1410.75,-375 1416.75,-375 1422.75,-381 1422.75,-387 1422.75,-387 1422.75,-399 1422.75,-399 1422.75,-405 1416.75,-411 1410.75,-411"/>
<text xml:space="preserve" text-anchor="middle" x="1362.62" y="-389.5" font-family="Arial" font-size="10.00">pas de mutation cachée</text>
</g>
<!-- ManualOnly&#45;&gt;NoMutation -->
<g id="edge11" class="edge">
<title>ManualOnly&#45;&gt;NoMutation</title>
<path fill="none" stroke="#455a64" d="M1249.59,-428.72C1263.51,-424.28 1278.53,-419.49 1292.92,-414.9"/>
<polygon fill="#455a64" stroke="#455a64" points="1293.86,-418.28 1302.32,-411.91 1291.73,-411.61 1293.86,-418.28"/>
</g>
<!-- NoAutoload -->
<g id="node12" class="node">
<title>NoAutoload</title>
<path fill="#f5f5f5" stroke="#546e7a" d="M1397.62,-465C1397.62,-465 1327.62,-465 1327.62,-465 1321.62,-465 1315.62,-459 1315.62,-453 1315.62,-453 1315.62,-441 1315.62,-441 1315.62,-435 1321.62,-429 1327.62,-429 1327.62,-429 1397.62,-429 1397.62,-429 1403.62,-429 1409.62,-435 1409.62,-441 1409.62,-441 1409.62,-453 1409.62,-453 1409.62,-459 1403.62,-465 1397.62,-465"/>
<text xml:space="preserve" text-anchor="middle" x="1362.62" y="-443.5" font-family="Arial" font-size="10.00">pas d&#39;autoload E5</text>
</g>
<!-- ManualOnly&#45;&gt;NoAutoload -->
<g id="edge12" class="edge">
<title>ManualOnly&#45;&gt;NoAutoload</title>
<path fill="none" stroke="#455a64" d="M1249.59,-447C1267.06,-447 1286.28,-447 1303.78,-447"/>
<polygon fill="#455a64" stroke="#455a64" points="1303.78,-450.5 1313.78,-447 1303.78,-443.5 1303.78,-450.5"/>
</g>
<!-- ServerLoop -->
<g id="node13" class="node">
<title>ServerLoop</title>
<path fill="#f5f5f5" stroke="#546e7a" d="M1396.88,-52C1396.88,-52 1328.38,-52 1328.38,-52 1322.38,-52 1316.38,-46 1316.38,-40 1316.38,-40 1316.38,-28 1316.38,-28 1316.38,-22 1322.38,-16 1328.38,-16 1328.38,-16 1396.88,-16 1396.88,-16 1402.88,-16 1408.88,-22 1408.88,-28 1408.88,-28 1408.88,-40 1408.88,-40 1408.88,-46 1402.88,-52 1396.88,-52"/>
<text xml:space="preserve" text-anchor="middle" x="1362.62" y="-36.5" font-family="Arial" font-size="10.00">serveur/local loop</text>
<text xml:space="preserve" text-anchor="middle" x="1362.62" y="-24.5" font-family="Arial" font-size="10.00">futur</text>
</g>
<!-- StableBoundary&#45;&gt;ServerLoop -->
<g id="edge13" class="edge">
<title>StableBoundary&#45;&gt;ServerLoop</title>
<path fill="none" stroke="#455a64" stroke-dasharray="5,2" d="M1242.93,-374.55C1245.98,-372.04 1248.73,-369.21 1251,-366 1290.31,-310.44 1236.56,-114.21 1279,-61 1285.77,-52.51 1295.27,-46.65 1305.43,-42.63"/>
<polygon fill="#455a64" stroke="#455a64" points="1306.34,-46.02 1314.72,-39.54 1304.13,-39.37 1306.34,-46.02"/>
</g>
<!-- SchedulerPolicy -->
<g id="node14" class="node">
<title>SchedulerPolicy</title>
<path fill="#f5f5f5" stroke="#546e7a" d="M1404.38,-106C1404.38,-106 1320.88,-106 1320.88,-106 1314.88,-106 1308.88,-100 1308.88,-94 1308.88,-94 1308.88,-82 1308.88,-82 1308.88,-76 1314.88,-70 1320.88,-70 1320.88,-70 1404.38,-70 1404.38,-70 1410.38,-70 1416.38,-76 1416.38,-82 1416.38,-82 1416.38,-94 1416.38,-94 1416.38,-100 1410.38,-106 1404.38,-106"/>
<text xml:space="preserve" text-anchor="middle" x="1362.62" y="-90.5" font-family="Arial" font-size="10.00">Scheduler integration</text>
<text xml:space="preserve" text-anchor="middle" x="1362.62" y="-78.5" font-family="Arial" font-size="10.00">futur et explicite</text>
</g>
<!-- StableBoundary&#45;&gt;SchedulerPolicy -->
<g id="edge14" class="edge">
<title>StableBoundary&#45;&gt;SchedulerPolicy</title>
<path fill="none" stroke="#455a64" stroke-dasharray="5,2" d="M1242.6,-374.71C1245.77,-372.16 1248.63,-369.28 1251,-366 1316.73,-275.01 1208.16,-202.07 1279,-115 1284.17,-108.64 1290.87,-103.77 1298.21,-100.03"/>
<polygon fill="#455a64" stroke="#455a64" points="1299.33,-103.36 1307.15,-96.21 1296.58,-96.92 1299.33,-103.36"/>
</g>
<!-- GitHubIntake -->
<g id="node15" class="node">
<title>GitHubIntake</title>
<path fill="#f5f5f5" stroke="#546e7a" d="M1419.38,-160C1419.38,-160 1305.88,-160 1305.88,-160 1299.88,-160 1293.88,-154 1293.88,-148 1293.88,-148 1293.88,-136 1293.88,-136 1293.88,-130 1299.88,-124 1305.88,-124 1305.88,-124 1419.38,-124 1419.38,-124 1425.38,-124 1431.38,-130 1431.38,-136 1431.38,-136 1431.38,-148 1431.38,-148 1431.38,-154 1425.38,-160 1419.38,-160"/>
<text xml:space="preserve" text-anchor="middle" x="1362.62" y="-144.5" font-family="Arial" font-size="10.00">GitHub Project Orchestrator</text>
<text xml:space="preserve" text-anchor="middle" x="1362.62" y="-132.5" font-family="Arial" font-size="10.00">futur</text>
</g>
<!-- StableBoundary&#45;&gt;GitHubIntake -->
<g id="edge15" class="edge">
<title>StableBoundary&#45;&gt;GitHubIntake</title>
<path fill="none" stroke="#455a64" stroke-dasharray="5,2" d="M1242.49,-374.63C1245.69,-372.1 1248.58,-369.24 1251,-366 1303.86,-295.1 1222.16,-236.75 1279,-169 1280.66,-167.03 1282.46,-165.2 1284.38,-163.5"/>
<polygon fill="#455a64" stroke="#455a64" points="1286.23,-166.48 1292.26,-157.77 1282.11,-160.82 1286.23,-166.48"/>
</g>
<!-- Qdrant -->
<g id="node16" class="node">
<title>Qdrant</title>
<path fill="#f5f5f5" stroke="#546e7a" d="M1377.62,-214C1377.62,-214 1347.62,-214 1347.62,-214 1341.62,-214 1335.62,-208 1335.62,-202 1335.62,-202 1335.62,-190 1335.62,-190 1335.62,-184 1341.62,-178 1347.62,-178 1347.62,-178 1377.62,-178 1377.62,-178 1383.62,-178 1389.62,-184 1389.62,-190 1389.62,-190 1389.62,-202 1389.62,-202 1389.62,-208 1383.62,-214 1377.62,-214"/>
<text xml:space="preserve" text-anchor="middle" x="1362.62" y="-198.5" font-family="Arial" font-size="10.00">Qdrant</text>
<text xml:space="preserve" text-anchor="middle" x="1362.62" y="-186.5" font-family="Arial" font-size="10.00">futur</text>
</g>
<!-- StableBoundary&#45;&gt;Qdrant -->
<g id="edge16" class="edge">
<title>StableBoundary&#45;&gt;Qdrant</title>
<path fill="none" stroke="#455a64" stroke-dasharray="5,2" d="M1242.03,-374.7C1245.38,-372.15 1248.43,-369.26 1251,-366 1291.05,-315.1 1236.09,-271.51 1279,-223 1290.42,-210.08 1308.11,-203.32 1324.19,-199.79"/>
<polygon fill="#455a64" stroke="#455a64" points="1324.8,-203.23 1334.02,-198.01 1323.56,-196.35 1324.8,-203.23"/>
</g>
<!-- Llm -->
<g id="node17" class="node">
<title>Llm</title>
<path fill="#f5f5f5" stroke="#546e7a" d="M1386.75,-268C1386.75,-268 1338.5,-268 1338.5,-268 1332.5,-268 1326.5,-262 1326.5,-256 1326.5,-256 1326.5,-244 1326.5,-244 1326.5,-238 1332.5,-232 1338.5,-232 1338.5,-232 1386.75,-232 1386.75,-232 1392.75,-232 1398.75,-238 1398.75,-244 1398.75,-244 1398.75,-256 1398.75,-256 1398.75,-262 1392.75,-268 1386.75,-268"/>
<text xml:space="preserve" text-anchor="middle" x="1362.62" y="-252.5" font-family="Arial" font-size="10.00">LLM réponse</text>
<text xml:space="preserve" text-anchor="middle" x="1362.62" y="-240.5" font-family="Arial" font-size="10.00">futur</text>
</g>
<!-- StableBoundary&#45;&gt;Llm -->
<g id="edge17" class="edge">
<title>StableBoundary&#45;&gt;Llm</title>
<path fill="none" stroke="#455a64" stroke-dasharray="5,2" d="M1239.99,-374.65C1243.96,-372.09 1247.7,-369.21 1251,-366 1271.21,-346.3 1260.74,-330.52 1279,-309 1290.21,-295.79 1305,-284.02 1318.96,-274.54"/>
<polygon fill="#455a64" stroke="#455a64" points="1320.71,-277.58 1327.17,-269.18 1316.89,-271.71 1320.71,-277.58"/>
</g>
<!-- NoDaemon -->
<g id="node18" class="node">
<title>NoDaemon</title>
<path fill="#f5f5f5" stroke="#546e7a" d="M130.25,-52C130.25,-52 71.5,-52 71.5,-52 65.5,-52 59.5,-46 59.5,-40 59.5,-40 59.5,-28 59.5,-28 59.5,-22 65.5,-16 71.5,-16 71.5,-16 130.25,-16 130.25,-16 136.25,-16 142.25,-22 142.25,-28 142.25,-28 142.25,-40 142.25,-40 142.25,-46 136.25,-52 130.25,-52"/>
<text xml:space="preserve" text-anchor="middle" x="100.88" y="-30.5" font-family="Arial" font-size="10.00">pas de daemon</text>
</g>
<!-- NoDaemon&#45;&gt;ManualOnly -->
<g id="edge18" class="edge">
<title>NoDaemon&#45;&gt;ManualOnly</title>
<path fill="none" stroke="#455a64" stroke-dasharray="5,2" d="M142.74,-37.14C206.96,-41.8 335.46,-50 444.62,-50 444.62,-50 444.62,-50 913.88,-50 979.58,-50 1038.62,-146.57 1103.5,-309 1122.09,-355.55 1091.89,-381.1 1123.5,-420 1123.84,-420.42 1124.2,-420.84 1124.56,-421.25"/>
<polygon fill="#455a64" stroke="#455a64" points="1122.19,-423.83 1131.95,-427.95 1126.89,-418.64 1122.19,-423.83"/>
</g>
<!-- NoNetwork -->
<g id="node19" class="node">
<title>NoNetwork</title>
<path fill="#f5f5f5" stroke="#546e7a" d="M144.12,-160C144.12,-160 57.62,-160 57.62,-160 51.62,-160 45.62,-154 45.62,-148 45.62,-148 45.62,-136 45.62,-136 45.62,-130 51.62,-124 57.62,-124 57.62,-124 144.12,-124 144.12,-124 150.12,-124 156.12,-130 156.12,-136 156.12,-136 156.12,-148 156.12,-148 156.12,-154 150.12,-160 144.12,-160"/>
<text xml:space="preserve" text-anchor="middle" x="100.88" y="-138.5" font-family="Arial" font-size="10.00">pas de réseau / token</text>
</g>
<!-- NoNetwork&#45;&gt;CliReport -->
<g id="edge19" class="edge">
<title>NoNetwork&#45;&gt;CliReport</title>
<path fill="none" stroke="#455a64" stroke-dasharray="5,2" d="M156.34,-150.24C223.83,-159.72 342.43,-174 444.62,-174 444.62,-174 444.62,-174 760.25,-174 870.81,-174 977.63,-265.95 1024.69,-312.57"/>
<polygon fill="#455a64" stroke="#455a64" points="1022.17,-315 1031.7,-319.64 1027.14,-310.07 1022.17,-315"/>
</g>
<!-- NoScheduler -->
<g id="node20" class="node">
<title>NoScheduler</title>
<path fill="#f5f5f5" stroke="#546e7a" d="M149.38,-214C149.38,-214 52.38,-214 52.38,-214 46.38,-214 40.38,-208 40.38,-202 40.38,-202 40.38,-190 40.38,-190 40.38,-184 46.38,-178 52.38,-178 52.38,-178 149.38,-178 149.38,-178 155.38,-178 161.38,-184 161.38,-190 161.38,-190 161.38,-202 161.38,-202 161.38,-208 155.38,-214 149.38,-214"/>
<text xml:space="preserve" text-anchor="middle" x="100.88" y="-192.5" font-family="Arial" font-size="10.00">pas de Scheduler vivant</text>
</g>
<!-- NoScheduler&#45;&gt;Intake -->
<g id="edge20" class="edge">
<title>NoScheduler&#45;&gt;Intake</title>
<path fill="none" stroke="#455a64" stroke-dasharray="5,2" d="M161.68,-211.76C175.2,-215.4 189.48,-219.28 202.75,-223 316.4,-254.83 447.78,-293.65 527.16,-317.34"/>
<polygon fill="#455a64" stroke="#455a64" points="525.98,-320.64 536.56,-320.14 527.98,-313.93 525.98,-320.64"/>
</g>
<!-- NoBackend -->
<g id="node21" class="node">
<title>NoBackend</title>
<path fill="#f5f5f5" stroke="#546e7a" d="M147.12,-268C147.12,-268 54.62,-268 54.62,-268 48.63,-268 42.62,-262 42.62,-256 42.62,-256 42.62,-244 42.62,-244 42.62,-238 48.62,-232 54.62,-232 54.62,-232 147.12,-232 147.12,-232 153.12,-232 159.12,-238 159.12,-244 159.12,-244 159.12,-256 159.12,-256 159.12,-262 153.12,-268 147.12,-268"/>
<text xml:space="preserve" text-anchor="middle" x="100.88" y="-246.5" font-family="Arial" font-size="10.00">pas d&#39;appel OpenVINO</text>
</g>
<!-- NoBackend&#45;&gt;Runtime -->
<g id="edge21" class="edge">
<title>NoBackend&#45;&gt;Runtime</title>
<path fill="none" stroke="#455a64" stroke-dasharray="5,2" d="M141.06,-268.44C170.22,-282.16 210.23,-300.99 241.59,-315.75"/>
<polygon fill="#455a64" stroke="#455a64" points="239.96,-318.85 250.49,-319.94 242.94,-312.51 239.96,-318.85"/>
</g>
<!-- Stdlib -->
<g id="node22" class="node">
<title>Stdlib</title>
<path fill="#f5f5f5" stroke="#546e7a" d="M135.12,-106C135.12,-106 66.62,-106 66.62,-106 60.62,-106 54.62,-100 54.62,-94 54.62,-94 54.62,-82 54.62,-82 54.62,-76 60.62,-70 66.62,-70 66.62,-70 135.12,-70 135.12,-70 141.12,-70 147.12,-76 147.12,-82 147.12,-82 147.12,-94 147.12,-94 147.12,-100 141.12,-106 135.12,-106"/>
<text xml:space="preserve" text-anchor="middle" x="100.88" y="-84.5" font-family="Arial" font-size="10.00">stdlib uniquement</text>
</g>
<!-- Stdlib&#45;&gt;CliReport -->
<g id="edge22" class="edge">
<title>Stdlib&#45;&gt;CliReport</title>
<path fill="none" stroke="#455a64" stroke-dasharray="5,2" d="M147.61,-89.75C213.31,-92.1 338.23,-96 444.62,-96 444.62,-96 444.62,-96 760.25,-96 863.15,-96 894.89,-123.67 970,-194 1004.89,-226.67 1028.12,-278.12 1040.1,-310.14"/>
<polygon fill="#455a64" stroke="#455a64" points="1036.67,-310.95 1043.36,-319.17 1043.26,-308.58 1036.67,-310.95"/>
</g>
<!-- Global -->
<g id="node23" class="node">
<title>Global</title>
<g id="a_node23"><a xlink:href="../00_global.svg" xlink:title="← Global architecture">
<path fill="#f5f5f5" stroke="none" d="M144.12,-446C144.12,-446 57.62,-446 57.62,-446 51.62,-446 45.62,-440 45.62,-434 45.62,-434 45.62,-422 45.62,-422 45.62,-416 51.62,-410 57.62,-410 57.62,-410 144.12,-410 144.12,-410 150.12,-410 156.12,-416 156.12,-422 156.12,-422 156.12,-434 156.12,-434 156.12,-440 150.12,-446 144.12,-446"/>
<text xml:space="preserve" text-anchor="middle" x="100.88" y="-424.5" font-family="Arial" font-size="10.00">← Global architecture</text>
</a>
</g>
</g>
<!-- Parent -->
<g id="node24" class="node">
<title>Parent</title>
<g id="a_node24"><a xlink:href="33_e5_context_engine_cli_report.svg" xlink:title="← CLI report">
<path fill="#f5f5f5" stroke="none" d="M125,-500C125,-500 76.75,-500 76.75,-500 70.75,-500 64.75,-494 64.75,-488 64.75,-488 64.75,-476 64.75,-476 64.75,-470 70.75,-464 76.75,-464 76.75,-464 125,-464 125,-464 131,-464 137,-470 137,-476 137,-476 137,-488 137,-488 137,-494 131,-500 125,-500"/>
<text xml:space="preserve" text-anchor="middle" x="100.88" y="-478.5" font-family="Arial" font-size="10.00">← CLI report</text>
</a>
</g>
</g>
<!-- Next -->
<g id="node25" class="node">
<title>Next</title>
<g id="a_node25"><a xlink:href="35_context_engine_contract_lock.svg" xlink:title="next: ContextEngine contract lock">
<path fill="#f5f5f5" stroke="none" d="M171.12,-554C171.12,-554 30.62,-554 30.62,-554 24.62,-554 18.62,-548 18.62,-542 18.62,-542 18.62,-530 18.62,-530 18.62,-524 24.62,-518 30.62,-518 30.62,-518 171.12,-518 171.12,-518 177.12,-518 183.12,-524 183.12,-530 183.12,-530 183.12,-542 183.12,-542 183.12,-548 177.12,-554 171.12,-554"/>
<text xml:space="preserve" text-anchor="middle" x="100.88" y="-532.5" font-family="Arial" font-size="10.00">next: ContextEngine contract lock</text>
</a>
</g>
</g>
</g>
</svg>
