<?xml version="1.0" encoding="UTF-8" standalone="no"?>
<!DOCTYPE svg PUBLIC "-//W3C//DTD SVG 1.1//EN"
 "http://www.w3.org/Graphics/SVG/1.1/DTD/svg11.dtd">
<!-- Generated by graphviz version 14.1.3 (20260303.0454)
 -->
<!-- Title: ContextEngineContractLock Pages: 1 -->
<svg width="654pt" height="804pt"
 viewBox="0.00 0.00 654.00 804.00" xmlns="http://www.w3.org/2000/svg" xmlns:xlink="http://www.w3.org/1999/xlink">
<g id="graph0" class="graph" transform="scale(1 1) rotate(0) translate(4 800)">
<title>ContextEngineContractLock</title>
<polygon fill="#ffffff" stroke="none" points="-4,4 -4,-800 649.5,-800 649.5,4 -4,4"/>
<text xml:space="preserve" text-anchor="middle" x="322.75" y="-774.9" font-family="Arial" font-size="18.00">Phase 5.11 — ContextEngine contract lock</text>
<g id="clust1" class="cluster">
<title>cluster_locked_contracts</title>
<path fill="#e3f2fd" stroke="#bbdefb" d="M224.25,-313C224.25,-313 611,-313 611,-313 617,-313 623,-319 623,-325 623,-325 623,-552 623,-552 623,-558 617,-564 611,-564 611,-564 224.25,-564 224.25,-564 218.25,-564 212.25,-558 212.25,-552 212.25,-552 212.25,-325 212.25,-325 212.25,-319 218.25,-313 224.25,-313"/>
<text xml:space="preserve" text-anchor="middle" x="417.62" y="-542.9" font-family="Arial" font-size="18.00">Contrats verrouillés</text>
</g>
<g id="clust2" class="cluster">
<title>cluster_regression_guards</title>
<path fill="#e8f5e9" stroke="#c8e6c9" d="M477.25,-8C477.25,-8 633.5,-8 633.5,-8 639.5,-8 645.5,-14 645.5,-20 645.5,-20 645.5,-293 645.5,-293 645.5,-299 639.5,-305 633.5,-305 633.5,-305 477.25,-305 477.25,-305 471.25,-305 465.25,-299 465.25,-293 465.25,-293 465.25,-20 465.25,-20 465.25,-14 471.25,-8 477.25,-8"/>
<text xml:space="preserve" text-anchor="middle" x="555.38" y="-283.9" font-family="Arial" font-size="18.00">Tests anti&#45;régression</text>
</g>
<g id="clust3" class="cluster">
<title>cluster_boundaries</title>
<path fill="#ffffff" stroke="#b0bec5" stroke-dasharray="5,2" d="M12,-211C12,-211 180.25,-211 180.25,-211 186.25,-211 192.25,-217 192.25,-223 192.25,-223 192.25,-550 192.25,-550 192.25,-556 186.25,-562 180.25,-562 180.25,-562 12,-562 12,-562 6,-562 0,-556 0,-550 0,-550 0,-223 0,-223 0,-217 6,-211 12,-211"/>
<text xml:space="preserve" text-anchor="middle" x="96.12" y="-540.9" font-family="Arial" font-size="18.00">Frontières conservées</text>
</g>
<g id="clust4" class="cluster">
<title>cluster_navigation</title>
<path fill="#ffffff" stroke="#90a4ae" stroke-dasharray="5,2" d="M25.25,-570C25.25,-570 166,-570 166,-570 172,-570 178,-576 178,-582 178,-582 178,-747 178,-747 178,-753 172,-759 166,-759 166,-759 25.25,-759 25.25,-759 19.25,-759 13.25,-753 13.25,-747 13.25,-747 13.25,-582 13.25,-582 13.25,-576 19.25,-570 25.25,-570"/>
<text xml:space="preserve" text-anchor="middle" x="95.62" y="-737.9" font-family="Arial" font-size="18.00">Navigation</text>
</g>
<!-- Constructor -->
<g id="node1" class="node">
<title>Constructor</title>
<path fill="#f5f5f5" stroke="#546e7a" d="M425.25,-527C425.25,-527 232.25,-527 232.25,-527 226.25,-527 220.25,-521 220.25,-515 220.25,-515 220.25,-503 220.25,-503 220.25,-497 226.25,-491 232.25,-491 232.25,-491 425.25,-491 425.25,-491 431.25,-491 437.25,-497 437.25,-503 437.25,-503 437.25,-515 437.25,-515 437.25,-521 431.25,-527 425.25,-527"/>
<text xml:space="preserve" text-anchor="middle" x="328.75" y="-511.5" font-family="Arial" font-size="10.00">ContextEngine(registry, scheduler, event_bus)</text>
<text xml:space="preserve" text-anchor="middle" x="328.75" y="-499.5" font-family="Arial" font-size="10.00">constructeur historique</text>
</g>
<!-- LegacyDeps -->
<g id="node6" class="node">
<title>LegacyDeps</title>
<path fill="#f5f5f5" stroke="#546e7a" d="M613.5,-268C613.5,-268 496.25,-268 496.25,-268 490.25,-268 484.25,-262 484.25,-256 484.25,-256 484.25,-244 484.25,-244 484.25,-238 490.25,-232 496.25,-232 496.25,-232 613.5,-232 613.5,-232 619.5,-232 625.5,-238 625.5,-244 625.5,-244 625.5,-256 625.5,-256 625.5,-262 619.5,-268 613.5,-268"/>
<text xml:space="preserve" text-anchor="middle" x="554.88" y="-252.5" font-family="Arial" font-size="10.00">registry/scheduler/event_bus</text>
<text xml:space="preserve" text-anchor="middle" x="554.88" y="-240.5" font-family="Arial" font-size="10.00">préservés</text>
</g>
<!-- Constructor&#45;&gt;LegacyDeps -->
<g id="edge1" class="edge">
<title>Constructor&#45;&gt;LegacyDeps</title>
<path fill="none" stroke="#455a64" d="M427.37,-490.72C430.93,-488.15 434.26,-485.26 437.25,-482 489.92,-424.62 423.09,-374.49 465.25,-309 474.35,-294.86 488.18,-283.31 502.23,-274.31"/>
<polygon fill="#455a64" stroke="#455a64" points="503.87,-277.41 510.64,-269.26 500.26,-271.41 503.87,-277.41"/>
</g>
<!-- ExecuteTick -->
<g id="node2" class="node">
<title>ExecuteTick</title>
<path fill="#f5f5f5" stroke="#546e7a" d="M391.5,-419C391.5,-419 266,-419 266,-419 260,-419 254,-413 254,-407 254,-407 254,-395 254,-395 254,-389 260,-383 266,-383 266,-383 391.5,-383 391.5,-383 397.5,-383 403.5,-389 403.5,-395 403.5,-395 403.5,-407 403.5,-407 403.5,-413 397.5,-419 391.5,-419"/>
<text xml:space="preserve" text-anchor="middle" x="328.75" y="-403.5" font-family="Arial" font-size="10.00">execute_tick()</text>
<text xml:space="preserve" text-anchor="middle" x="328.75" y="-391.5" font-family="Arial" font-size="10.00">retourne le snapshot historique</text>
</g>
<!-- LastSnapshot -->
<g id="node4" class="node">
<title>LastSnapshot</title>
<path fill="#f5f5f5" stroke="#546e7a" d="M603,-419C603,-419 506.75,-419 506.75,-419 500.75,-419 494.75,-413 494.75,-407 494.75,-407 494.75,-395 494.75,-395 494.75,-389 500.75,-383 506.75,-383 506.75,-383 603,-383 603,-383 609,-383 615,-389 615,-395 615,-395 615,-407 615,-407 615,-413 609,-419 603,-419"/>
<text xml:space="preserve" text-anchor="middle" x="554.88" y="-403.5" font-family="Arial" font-size="10.00">last_snapshot</text>
<text xml:space="preserve" text-anchor="middle" x="554.88" y="-391.5" font-family="Arial" font-size="10.00">snapshot du dernier tick</text>
</g>
<!-- ExecuteTick&#45;&gt;LastSnapshot -->
<g id="edge3" class="edge">
<title>ExecuteTick&#45;&gt;LastSnapshot</title>
<path fill="none" stroke="#455a64" d="M403.76,-401C429.3,-401 457.83,-401 483.11,-401"/>
<polygon fill="#455a64" stroke="#455a64" points="482.96,-404.5 492.96,-401 482.96,-397.5 482.96,-404.5"/>
</g>
<!-- TickSnapshot -->
<g id="node7" class="node">
<title>TickSnapshot</title>
<path fill="#f5f5f5" stroke="#546e7a" d="M598.88,-160C598.88,-160 510.88,-160 510.88,-160 504.88,-160 498.88,-154 498.88,-148 498.88,-148 498.88,-136 498.88,-136 498.88,-130 504.88,-124 510.88,-124 510.88,-124 598.88,-124 598.88,-124 604.88,-124 610.88,-130 610.88,-136 610.88,-136 610.88,-148 610.88,-148 610.88,-154 604.88,-160 598.88,-160"/>
<text xml:space="preserve" text-anchor="middle" x="554.88" y="-144.5" font-family="Arial" font-size="10.00">snapshot.components</text>
<text xml:space="preserve" text-anchor="middle" x="554.88" y="-132.5" font-family="Arial" font-size="10.00">reste inspectable</text>
</g>
<!-- ExecuteTick&#45;&gt;TickSnapshot -->
<g id="edge2" class="edge">
<title>ExecuteTick&#45;&gt;TickSnapshot</title>
<path fill="none" stroke="#455a64" d="M403.85,-394.66C416.5,-390.41 428.39,-383.89 437.25,-374 498.59,-305.49 405.63,-239.01 465.25,-169 471.33,-161.86 479.24,-156.57 487.82,-152.66"/>
<polygon fill="#455a64" stroke="#455a64" points="489.06,-155.94 497.14,-149.09 486.55,-149.4 489.06,-155.94"/>
</g>
<!-- BuiltContext -->
<g id="node8" class="node">
<title>BuiltContext</title>
<path fill="#f5f5f5" stroke="#546e7a" d="M608.62,-214C608.62,-214 501.12,-214 501.12,-214 495.12,-214 489.12,-208 489.12,-202 489.12,-202 489.12,-190 489.12,-190 489.12,-184 495.12,-178 501.12,-178 501.12,-178 608.62,-178 608.62,-178 614.62,-178 620.62,-184 620.62,-190 620.62,-190 620.62,-202 620.62,-202 620.62,-208 614.62,-214 608.62,-214"/>
<text xml:space="preserve" text-anchor="middle" x="554.88" y="-198.5" font-family="Arial" font-size="10.00">InferenceContext construit</text>
<text xml:space="preserve" text-anchor="middle" x="554.88" y="-186.5" font-family="Arial" font-size="10.00">mémorisé séparément</text>
</g>
<!-- ExecuteTick&#45;&gt;BuiltContext -->
<g id="edge4" class="edge">
<title>ExecuteTick&#45;&gt;BuiltContext</title>
<path fill="none" stroke="#455a64" d="M403.76,-394.23C416.33,-390.01 428.23,-383.61 437.25,-374 483.98,-324.25 419.77,-273.9 465.25,-223 469.17,-218.61 473.78,-214.93 478.79,-211.84"/>
<polygon fill="#455a64" stroke="#455a64" points="480.28,-215.01 487.54,-207.29 477.05,-208.8 480.28,-215.01"/>
</g>
<!-- CurrentContext -->
<g id="node3" class="node">
<title>CurrentContext</title>
<path fill="#f5f5f5" stroke="#546e7a" d="M381,-473C381,-473 276.5,-473 276.5,-473 270.5,-473 264.5,-467 264.5,-461 264.5,-461 264.5,-449 264.5,-449 264.5,-443 270.5,-437 276.5,-437 276.5,-437 381,-437 381,-437 387,-437 393,-443 393,-449 393,-449 393,-461 393,-461 393,-467 387,-473 381,-473"/>
<text xml:space="preserve" text-anchor="middle" x="328.75" y="-457.5" font-family="Arial" font-size="10.00">current_inference_context</text>
<text xml:space="preserve" text-anchor="middle" x="328.75" y="-445.5" font-family="Arial" font-size="10.00">dernier InferenceContext</text>
</g>
<!-- ExplicitIntake -->
<g id="node5" class="node">
<title>ExplicitIntake</title>
<path fill="#f5f5f5" stroke="#546e7a" d="M387,-365C387,-365 270.5,-365 270.5,-365 264.5,-365 258.5,-359 258.5,-353 258.5,-353 258.5,-333 258.5,-333 258.5,-327 264.5,-321 270.5,-321 270.5,-321 387,-321 387,-321 393,-321 399,-327 399,-333 399,-333 399,-353 399,-353 399,-359 393,-365 387,-365"/>
<text xml:space="preserve" text-anchor="middle" x="328.75" y="-351.5" font-family="Arial" font-size="10.00">attach_e5_artifact_dir()</text>
<text xml:space="preserve" text-anchor="middle" x="328.75" y="-339.5" font-family="Arial" font-size="10.00">attach_e5_runtime_context()</text>
<text xml:space="preserve" text-anchor="middle" x="328.75" y="-327.5" font-family="Arial" font-size="10.00">entrées explicites seulement</text>
</g>
<!-- NoAutoLoad -->
<g id="node9" class="node">
<title>NoAutoLoad</title>
<path fill="#f5f5f5" stroke="#546e7a" d="M594.38,-52C594.38,-52 515.38,-52 515.38,-52 509.38,-52 503.38,-46 503.38,-40 503.38,-40 503.38,-28 503.38,-28 503.38,-22 509.38,-16 515.38,-16 515.38,-16 594.38,-16 594.38,-16 600.38,-16 606.38,-22 606.38,-28 606.38,-28 606.38,-40 606.38,-40 606.38,-46 600.38,-52 594.38,-52"/>
<text xml:space="preserve" text-anchor="middle" x="554.88" y="-36.5" font-family="Arial" font-size="10.00">E5 ne s&#39;attache pas</text>
<text xml:space="preserve" text-anchor="middle" x="554.88" y="-24.5" font-family="Arial" font-size="10.00">automatiquement</text>
</g>
<!-- ExplicitIntake&#45;&gt;NoAutoLoad -->
<g id="edge7" class="edge">
<title>ExplicitIntake&#45;&gt;NoAutoLoad</title>
<path fill="none" stroke="#455a64" d="M334.09,-320.59C345.58,-267.39 381.79,-132.64 465.25,-61 473.05,-54.31 482.47,-49.27 492.23,-45.49"/>
<polygon fill="#455a64" stroke="#455a64" points="493.12,-48.88 501.45,-42.34 490.86,-42.26 493.12,-48.88"/>
</g>
<!-- ExplicitMethods -->
<g id="node10" class="node">
<title>ExplicitMethods</title>
<path fill="#f5f5f5" stroke="#546e7a" d="M600,-106C600,-106 509.75,-106 509.75,-106 503.75,-106 497.75,-100 497.75,-94 497.75,-94 497.75,-82 497.75,-82 497.75,-76 503.75,-70 509.75,-70 509.75,-70 600,-70 600,-70 606,-70 612,-76 612,-82 612,-82 612,-94 612,-94 612,-100 606,-106 600,-106"/>
<text xml:space="preserve" text-anchor="middle" x="554.88" y="-90.5" font-family="Arial" font-size="10.00">méthodes d&#39;intake</text>
<text xml:space="preserve" text-anchor="middle" x="554.88" y="-78.5" font-family="Arial" font-size="10.00">présentes et explicites</text>
</g>
<!-- ExplicitIntake&#45;&gt;ExplicitMethods -->
<g id="edge6" class="edge">
<title>ExplicitIntake&#45;&gt;ExplicitMethods</title>
<path fill="none" stroke="#455a64" d="M336.77,-320.83C352.32,-275.29 394.06,-170.84 465.25,-115 471.69,-109.95 479.07,-105.84 486.76,-102.5"/>
<polygon fill="#455a64" stroke="#455a64" points="487.9,-105.81 495.97,-98.94 485.38,-99.28 487.9,-105.81"/>
</g>
<!-- BuiltContext&#45;&gt;CurrentContext -->
<g id="edge5" class="edge">
<title>BuiltContext&#45;&gt;CurrentContext</title>
<path fill="none" stroke="#455a64" d="M489.02,-206.13C479.97,-210.09 471.61,-215.53 465.25,-223 405.63,-293.01 498.59,-359.49 437.25,-428 428.43,-437.86 416.59,-444.37 403.99,-448.62"/>
<polygon fill="#455a64" stroke="#455a64" points="403.39,-445.15 394.74,-451.26 405.31,-451.88 403.39,-445.15"/>
</g>
<!-- NoSchedulerChange -->
<g id="node11" class="node">
<title>NoSchedulerChange</title>
<path fill="#f5f5f5" stroke="#546e7a" d="M157.25,-525C157.25,-525 34,-525 34,-525 28,-525 22,-519 22,-513 22,-513 22,-501 22,-501 22,-495 28,-489 34,-489 34,-489 157.25,-489 157.25,-489 163.25,-489 169.25,-495 169.25,-501 169.25,-501 169.25,-513 169.25,-513 169.25,-519 163.25,-525 157.25,-525"/>
<text xml:space="preserve" text-anchor="middle" x="95.62" y="-503.5" font-family="Arial" font-size="10.00">pas de modification Scheduler</text>
</g>
<!-- NoSchedulerChange&#45;&gt;Constructor -->
<g id="edge8" class="edge">
<title>NoSchedulerChange&#45;&gt;Constructor</title>
<path fill="none" stroke="#455a64" stroke-dasharray="5,2" d="M169.44,-507.63C181.95,-507.74 195.23,-507.85 208.58,-507.97"/>
<polygon fill="#455a64" stroke="#455a64" points="208.25,-511.47 218.28,-508.05 208.31,-504.47 208.25,-511.47"/>
</g>
<!-- NoDaemon -->
<g id="node12" class="node">
<title>NoDaemon</title>
<path fill="#f5f5f5" stroke="#546e7a" d="M125,-417C125,-417 66.25,-417 66.25,-417 60.25,-417 54.25,-411 54.25,-405 54.25,-405 54.25,-393 54.25,-393 54.25,-387 60.25,-381 66.25,-381 66.25,-381 125,-381 125,-381 131,-381 137,-387 137,-393 137,-393 137,-405 137,-405 137,-411 131,-417 125,-417"/>
<text xml:space="preserve" text-anchor="middle" x="95.62" y="-395.5" font-family="Arial" font-size="10.00">pas de daemon</text>
</g>
<!-- NoDaemon&#45;&gt;ExplicitIntake -->
<g id="edge9" class="edge">
<title>NoDaemon&#45;&gt;ExplicitIntake</title>
<path fill="none" stroke="#455a64" stroke-dasharray="5,2" d="M137.41,-389.12C167.84,-381.74 210.4,-371.43 247.55,-362.43"/>
<polygon fill="#455a64" stroke="#455a64" points="248.02,-365.92 256.91,-360.16 246.37,-359.12 248.02,-365.92"/>
</g>
<!-- NoNetwork -->
<g id="node13" class="node">
<title>NoNetwork</title>
<path fill="#f5f5f5" stroke="#546e7a" d="M151.62,-309C151.62,-309 39.62,-309 39.62,-309 33.62,-309 27.62,-303 27.62,-297 27.62,-297 27.62,-285 27.62,-285 27.62,-279 33.62,-273 39.62,-273 39.62,-273 151.62,-273 151.62,-273 157.62,-273 163.62,-279 163.62,-285 163.62,-285 163.62,-297 163.62,-297 163.62,-303 157.62,-309 151.62,-309"/>
<text xml:space="preserve" text-anchor="middle" x="95.62" y="-287.5" font-family="Arial" font-size="10.00">pas de réseau / GitHub API</text>
</g>
<!-- NoNetwork&#45;&gt;ExplicitIntake -->
<g id="edge10" class="edge">
<title>NoNetwork&#45;&gt;ExplicitIntake</title>
<path fill="none" stroke="#455a64" stroke-dasharray="5,2" d="M164.1,-306.18C190.09,-312.03 220.04,-318.77 247.16,-324.87"/>
<polygon fill="#455a64" stroke="#455a64" points="246.19,-328.24 256.71,-327.02 247.72,-321.41 246.19,-328.24"/>
</g>
<!-- NoQdrant -->
<g id="node14" class="node">
<title>NoQdrant</title>
<path fill="#f5f5f5" stroke="#546e7a" d="M122.38,-363C122.38,-363 68.88,-363 68.88,-363 62.88,-363 56.88,-357 56.88,-351 56.88,-351 56.88,-339 56.88,-339 56.88,-333 62.88,-327 68.88,-327 68.88,-327 122.38,-327 122.38,-327 128.38,-327 134.38,-333 134.38,-339 134.38,-339 134.38,-351 134.38,-351 134.38,-357 128.38,-363 122.38,-363"/>
<text xml:space="preserve" text-anchor="middle" x="95.62" y="-341.5" font-family="Arial" font-size="10.00">pas de Qdrant</text>
</g>
<!-- NoQdrant&#45;&gt;ExplicitIntake -->
<g id="edge11" class="edge">
<title>NoQdrant&#45;&gt;ExplicitIntake</title>
<path fill="none" stroke="#455a64" stroke-dasharray="5,2" d="M134.79,-344.67C165.25,-344.41 208.98,-344.03 247.11,-343.7"/>
<polygon fill="#455a64" stroke="#455a64" points="246.74,-347.2 256.71,-343.61 246.68,-340.2 246.74,-347.2"/>
</g>
<!-- NoLlm -->
<g id="node15" class="node">
<title>NoLlm</title>
<path fill="#f5f5f5" stroke="#546e7a" d="M117.12,-471C117.12,-471 74.12,-471 74.12,-471 68.12,-471 62.12,-465 62.12,-459 62.12,-459 62.12,-447 62.12,-447 62.12,-441 68.12,-435 74.12,-435 74.12,-435 117.12,-435 117.12,-435 123.12,-435 129.12,-441 129.12,-447 129.12,-447 129.12,-459 129.12,-459 129.12,-465 123.12,-471 117.12,-471"/>
<text xml:space="preserve" text-anchor="middle" x="95.62" y="-449.5" font-family="Arial" font-size="10.00">pas de LLM</text>
</g>
<!-- NoLlm&#45;&gt;CurrentContext -->
<g id="edge12" class="edge">
<title>NoLlm&#45;&gt;CurrentContext</title>
<path fill="none" stroke="#455a64" stroke-dasharray="5,2" d="M129.25,-453.28C161.28,-453.56 211.27,-453.99 253.07,-454.35"/>
<polygon fill="#455a64" stroke="#455a64" points="252.8,-457.85 262.83,-454.44 252.86,-450.85 252.8,-457.85"/>
</g>
<!-- Stdlib -->
<g id="node16" class="node">
<title>Stdlib</title>
<path fill="#f5f5f5" stroke="#546e7a" d="M129.88,-255C129.88,-255 61.38,-255 61.38,-255 55.38,-255 49.38,-249 49.38,-243 49.38,-243 49.38,-231 49.38,-231 49.38,-225 55.38,-219 61.38,-219 61.38,-219 129.88,-219 129.88,-219 135.88,-219 141.88,-225 141.88,-231 141.88,-231 141.88,-243 141.88,-243 141.88,-249 135.88,-255 129.88,-255"/>
<text xml:space="preserve" text-anchor="middle" x="95.62" y="-233.5" font-family="Arial" font-size="10.00">stdlib uniquement</text>
</g>
<!-- Stdlib&#45;&gt;TickSnapshot -->
<g id="edge13" class="edge">
<title>Stdlib&#45;&gt;TickSnapshot</title>
<path fill="none" stroke="#455a64" stroke-dasharray="5,2" d="M142.14,-227.54C223.32,-210.68 393.4,-175.34 487.58,-155.77"/>
<polygon fill="#455a64" stroke="#455a64" points="488.12,-159.24 497.2,-153.78 486.69,-152.38 488.12,-159.24"/>
</g>
<!-- Global -->
<g id="node17" class="node">
<title>Global</title>
<g id="a_node17"><a xlink:href="../00_global.svg" xlink:title="← Global architecture">
<path fill="#f5f5f5" stroke="none" d="M138.88,-614C138.88,-614 52.38,-614 52.38,-614 46.38,-614 40.38,-608 40.38,-602 40.38,-602 40.38,-590 40.38,-590 40.38,-584 46.38,-578 52.38,-578 52.38,-578 138.88,-578 138.88,-578 144.88,-578 150.88,-584 150.88,-590 150.88,-590 150.88,-602 150.88,-602 150.88,-608 144.88,-614 138.88,-614"/>
<text xml:space="preserve" text-anchor="middle" x="95.62" y="-592.5" font-family="Arial" font-size="10.00">← Global architecture</text>
</a>
</g>
</g>
<!-- Parent -->
<g id="node18" class="node">
<title>Parent</title>
<g id="a_node18"><a xlink:href="34_e5_context_engine_intake_audit.svg" xlink:title="← Intake audit">
<path fill="#f5f5f5" stroke="none" d="M123.5,-668C123.5,-668 67.75,-668 67.75,-668 61.75,-668 55.75,-662 55.75,-656 55.75,-656 55.75,-644 55.75,-644 55.75,-638 61.75,-632 67.75,-632 67.75,-632 123.5,-632 123.5,-632 129.5,-632 135.5,-638 135.5,-644 135.5,-644 135.5,-656 135.5,-656 135.5,-662 129.5,-668 123.5,-668"/>
<text xml:space="preserve" text-anchor="middle" x="95.62" y="-646.5" font-family="Arial" font-size="10.00">← Intake audit</text>
</a>
</g>
</g>
<!-- Next -->
<g id="node19" class="node">
<title>Next</title>
<g id="a_node19"><a xlink:href="36_local_context_loop_design.svg" xlink:title="next: local context loop design">
<path fill="#f5f5f5" stroke="none" d="M158,-722C158,-722 33.25,-722 33.25,-722 27.25,-722 21.25,-716 21.25,-710 21.25,-710 21.25,-698 21.25,-698 21.25,-692 27.25,-686 33.25,-686 33.25,-686 158,-686 158,-686 164,-686 170,-692 170,-698 170,-698 170,-710 170,-710 170,-716 164,-722 158,-722"/>
<text xml:space="preserve" text-anchor="middle" x="95.62" y="-700.5" font-family="Arial" font-size="10.00">next: local context loop design</text>
</a>
</g>
</g>
</g>
</svg>
