<?xml version="1.0" encoding="UTF-8" standalone="no"?>
<!DOCTYPE svg PUBLIC "-//W3C//DTD SVG 1.1//EN"
 "http://www.w3.org/Graphics/SVG/1.1/DTD/svg11.dtd">
<!-- Generated by graphviz version 14.1.3 (20260303.0454)
 -->
<!-- Title: LocalContextLoopDesign Pages: 1 -->
<svg width="1905pt" height="836pt"
 viewBox="0.00 0.00 1905.00 836.00" xmlns="http://www.w3.org/2000/svg" xmlns:xlink="http://www.w3.org/1999/xlink">
<g id="graph0" class="graph" transform="scale(1 1) rotate(0) translate(4 832.41)">
<title>LocalContextLoopDesign</title>
<polygon fill="#ffffff" stroke="none" points="-4,4 -4,-832.41 1901.25,-832.41 1901.25,4 -4,4"/>
<text xml:space="preserve" text-anchor="middle" x="948.62" y="-807.31" font-family="Arial" font-size="18.00">Phase 5.12 — Local context loop design</text>
<g id="clust1" class="cluster">
<title>cluster_inputs</title>
<path fill="#e3f2fd" stroke="#bbdefb" d="M259.75,-21.41C259.75,-21.41 452,-21.41 452,-21.41 458,-21.41 464,-27.41 464,-33.41 464,-33.41 464,-252.41 464,-252.41 464,-258.41 458,-264.41 452,-264.41 452,-264.41 259.75,-264.41 259.75,-264.41 253.75,-264.41 247.75,-258.41 247.75,-252.41 247.75,-252.41 247.75,-33.41 247.75,-33.41 247.75,-27.41 253.75,-21.41 259.75,-21.41"/>
<text xml:space="preserve" text-anchor="middle" x="355.88" y="-243.31" font-family="Arial" font-size="18.00">Entrées locales possibles</text>
</g>
<g id="clust2" class="cluster">
<title>cluster_loop</title>
<path fill="#e8f5e9" stroke="#c8e6c9" d="M313.5,-340.41C313.5,-340.41 1877.25,-340.41 1877.25,-340.41 1883.25,-340.41 1889.25,-346.41 1889.25,-352.41 1889.25,-352.41 1889.25,-409.41 1889.25,-409.41 1889.25,-415.41 1883.25,-421.41 1877.25,-421.41 1877.25,-421.41 313.5,-421.41 313.5,-421.41 307.5,-421.41 301.5,-415.41 301.5,-409.41 301.5,-409.41 301.5,-352.41 301.5,-352.41 301.5,-346.41 307.5,-340.41 313.5,-340.41"/>
<text xml:space="preserve" text-anchor="middle" x="1095.38" y="-400.31" font-family="Arial" font-size="18.00">Boucle locale manuelle</text>
</g>
<g id="clust3" class="cluster">
<title>cluster_boundaries</title>
<path fill="#ffffff" stroke="#b0bec5" stroke-dasharray="5,2" d="M20,-135.41C20,-135.41 188.25,-135.41 188.25,-135.41 194.25,-135.41 200.25,-141.41 200.25,-147.41 200.25,-147.41 200.25,-582.41 200.25,-582.41 200.25,-588.41 194.25,-594.41 188.25,-594.41 188.25,-594.41 20,-594.41 20,-594.41 14,-594.41 8,-588.41 8,-582.41 8,-582.41 8,-147.41 8,-147.41 8,-141.41 14,-135.41 20,-135.41"/>
<text xml:space="preserve" text-anchor="middle" x="104.12" y="-573.31" font-family="Arial" font-size="18.00">Frontières conservées</text>
</g>
<g id="clust4" class="cluster">
<title>cluster_navigation</title>
<path fill="#ffffff" stroke="#90a4ae" stroke-dasharray="5,2" d="M31.38,-602.41C31.38,-602.41 175.88,-602.41 175.88,-602.41 181.88,-602.41 187.88,-608.41 187.88,-614.41 187.88,-614.41 187.88,-779.41 187.88,-779.41 187.88,-785.41 181.88,-791.41 175.88,-791.41 175.88,-791.41 31.38,-791.41 31.38,-791.41 25.38,-791.41 19.38,-785.41 19.38,-779.41 19.38,-779.41 19.38,-614.41 19.38,-614.41 19.38,-608.41 25.38,-602.41 31.38,-602.41"/>
<text xml:space="preserve" text-anchor="middle" x="103.62" y="-770.31" font-family="Arial" font-size="18.00">Navigation</text>
</g>
<!-- Question -->
<g id="node1" class="node">
<title>Question</title>
<path fill="#f5f5f5" stroke="#546e7a" d="M408.38,-65.41C408.38,-65.41 302.38,-65.41 302.38,-65.41 296.38,-65.41 290.38,-59.41 290.38,-53.41 290.38,-53.41 290.38,-41.41 290.38,-41.41 290.38,-35.41 296.38,-29.41 302.38,-29.41 302.38,-29.41 408.38,-29.41 408.38,-29.41 414.38,-29.41 420.38,-35.41 420.38,-41.41 420.38,-41.41 420.38,-53.41 420.38,-53.41 420.38,-59.41 414.38,-65.41 408.38,-65.41"/>
<text xml:space="preserve" text-anchor="middle" x="355.38" y="-43.91" font-family="Arial" font-size="10.00">question / demande locale</text>
</g>
<!-- E5Search -->
<g id="node5" class="node">
<title>E5Search</title>
<path fill="#f5f5f5" stroke="#546e7a" d="M389.25,-384.41C389.25,-384.41 321.5,-384.41 321.5,-384.41 315.5,-384.41 309.5,-378.41 309.5,-372.41 309.5,-372.41 309.5,-360.41 309.5,-360.41 309.5,-354.41 315.5,-348.41 321.5,-348.41 321.5,-348.41 389.25,-348.41 389.25,-348.41 395.25,-348.41 401.25,-354.41 401.25,-360.41 401.25,-360.41 401.25,-372.41 401.25,-372.41 401.25,-378.41 395.25,-384.41 389.25,-384.41"/>
<text xml:space="preserve" text-anchor="middle" x="355.38" y="-368.91" font-family="Arial" font-size="10.00">E5 search / build</text>
<text xml:space="preserve" text-anchor="middle" x="355.38" y="-356.91" font-family="Arial" font-size="10.00">produit artifact&#45;dir</text>
</g>
<!-- Question&#45;&gt;E5Search -->
<g id="edge1" class="edge">
<title>Question&#45;&gt;E5Search</title>
<path fill="none" stroke="#455a64" d="M289.98,-51.35C274.19,-55.37 258.73,-62.4 247.75,-74.41 213.52,-111.85 233.94,-136.59 229.98,-187.16 225.44,-245.06 212.49,-293.01 247.75,-334.41 260.32,-349.17 279.36,-357.29 297.95,-361.7"/>
<polygon fill="#455a64" stroke="#455a64" points="297.12,-365.1 307.61,-363.65 298.5,-358.24 297.12,-365.1"/>
<text xml:space="preserve" text-anchor="middle" x="224" y="-189.11" font-family="Arial" font-size="9.00">requête</text>
</g>
<!-- ExistingArtifacts -->
<g id="node2" class="node">
<title>ExistingArtifacts</title>
<path fill="#f5f5f5" stroke="#546e7a" d="M392.62,-173.41C392.62,-173.41 318.12,-173.41 318.12,-173.41 312.12,-173.41 306.12,-167.41 306.12,-161.41 306.12,-161.41 306.12,-149.41 306.12,-149.41 306.12,-143.41 312.12,-137.41 318.12,-137.41 318.12,-137.41 392.62,-137.41 392.62,-137.41 398.62,-137.41 404.62,-143.41 404.62,-149.41 404.62,-149.41 404.62,-161.41 404.62,-161.41 404.62,-167.41 398.62,-173.41 392.62,-173.41"/>
<text xml:space="preserve" text-anchor="middle" x="355.38" y="-157.91" font-family="Arial" font-size="10.00">artifact&#45;dir Phase 4</text>
<text xml:space="preserve" text-anchor="middle" x="355.38" y="-145.91" font-family="Arial" font-size="10.00">existant</text>
</g>
<!-- ArtifactDir -->
<g id="node6" class="node">
<title>ArtifactDir</title>
<path fill="#f5f5f5" stroke="#546e7a" d="M682.25,-384.41C682.25,-384.41 549.25,-384.41 549.25,-384.41 543.25,-384.41 537.25,-378.41 537.25,-372.41 537.25,-372.41 537.25,-360.41 537.25,-360.41 537.25,-354.41 543.25,-348.41 549.25,-348.41 549.25,-348.41 682.25,-348.41 682.25,-348.41 688.25,-348.41 694.25,-354.41 694.25,-360.41 694.25,-360.41 694.25,-372.41 694.25,-372.41 694.25,-378.41 688.25,-384.41 682.25,-384.41"/>
<text xml:space="preserve" text-anchor="middle" x="615.75" y="-368.91" font-family="Arial" font-size="10.00">artifact&#45;dir</text>
<text xml:space="preserve" text-anchor="middle" x="615.75" y="-356.91" font-family="Arial" font-size="10.00">report/context/consumed/prompt</text>
</g>
<!-- ExistingArtifacts&#45;&gt;ArtifactDir -->
<g id="edge2" class="edge">
<title>ExistingArtifacts&#45;&gt;ArtifactDir</title>
<path fill="none" stroke="#455a64" d="M405.08,-160.88C424.53,-164.72 446.43,-171.27 464,-182.41 526.88,-222.28 575.97,-297.27 599.5,-338.12"/>
<polygon fill="#455a64" stroke="#455a64" points="596.35,-339.66 604.31,-346.65 602.44,-336.22 596.35,-339.66"/>
<text xml:space="preserve" text-anchor="middle" x="495.62" y="-229.89" font-family="Arial" font-size="9.00">réutilisation</text>
</g>
<!-- FutureSource -->
<g id="node3" class="node">
<title>FutureSource</title>
<path fill="#f5f5f5" stroke="#546e7a" d="M394.12,-227.41C394.12,-227.41 316.62,-227.41 316.62,-227.41 310.62,-227.41 304.62,-221.41 304.62,-215.41 304.62,-215.41 304.62,-203.41 304.62,-203.41 304.62,-197.41 310.62,-191.41 316.62,-191.41 316.62,-191.41 394.12,-191.41 394.12,-191.41 400.12,-191.41 406.12,-197.41 406.12,-203.41 406.12,-203.41 406.12,-215.41 406.12,-215.41 406.12,-221.41 400.12,-227.41 394.12,-227.41"/>
<text xml:space="preserve" text-anchor="middle" x="355.38" y="-205.91" font-family="Arial" font-size="10.00">source locale future</text>
</g>
<!-- FutureSource&#45;&gt;E5Search -->
<g id="edge3" class="edge">
<title>FutureSource&#45;&gt;E5Search</title>
<path fill="none" stroke="#455a64" stroke-dasharray="5,2" d="M355.38,-227.73C355.38,-254.55 355.38,-304.81 355.38,-336.89"/>
<polygon fill="#455a64" stroke="#455a64" points="351.88,-336.7 355.38,-346.7 358.88,-336.7 351.88,-336.7"/>
<text xml:space="preserve" text-anchor="middle" x="347.12" y="-284.61" font-family="Arial" font-size="9.00">future</text>
</g>
<!-- FutureCandidate -->
<g id="node4" class="node">
<title>FutureCandidate</title>
<path fill="#f5f5f5" stroke="#546e7a" d="M402.75,-119.41C402.75,-119.41 308,-119.41 308,-119.41 302,-119.41 296,-113.41 296,-107.41 296,-107.41 296,-95.41 296,-95.41 296,-89.41 302,-83.41 308,-83.41 308,-83.41 402.75,-83.41 402.75,-83.41 408.75,-83.41 414.75,-89.41 414.75,-95.41 414.75,-95.41 414.75,-107.41 414.75,-107.41 414.75,-113.41 408.75,-119.41 402.75,-119.41"/>
<text xml:space="preserve" text-anchor="middle" x="355.38" y="-97.91" font-family="Arial" font-size="10.00">SourceCandidate future</text>
</g>
<!-- FutureCandidate&#45;&gt;ArtifactDir -->
<g id="edge4" class="edge">
<title>FutureCandidate&#45;&gt;ArtifactDir</title>
<path fill="none" stroke="#455a64" stroke-dasharray="5,2" d="M415.09,-111.06C431.47,-115.09 448.91,-120.69 464,-128.41 492.58,-143.02 499.4,-149.69 519.25,-174.91 559.83,-226.46 589.86,-298 604.59,-337.43"/>
<polygon fill="#455a64" stroke="#455a64" points="601.26,-338.51 607.98,-346.7 607.83,-336.11 601.26,-338.51"/>
<text xml:space="preserve" text-anchor="middle" x="495.62" y="-176.86" font-family="Arial" font-size="9.00">future</text>
</g>
<!-- E5Search&#45;&gt;ArtifactDir -->
<g id="edge5" class="edge">
<title>E5Search&#45;&gt;ArtifactDir</title>
<path fill="none" stroke="#455a64" d="M401.68,-366.41C435.81,-366.41 483.72,-366.41 525.46,-366.41"/>
<polygon fill="#455a64" stroke="#455a64" points="525.26,-369.91 535.26,-366.41 525.26,-362.91 525.26,-369.91"/>
</g>
<!-- Loader -->
<g id="node7" class="node">
<title>Loader</title>
<path fill="#f5f5f5" stroke="#546e7a" d="M884.5,-384.41C884.5,-384.41 743.25,-384.41 743.25,-384.41 737.25,-384.41 731.25,-378.41 731.25,-372.41 731.25,-372.41 731.25,-360.41 731.25,-360.41 731.25,-354.41 737.25,-348.41 743.25,-348.41 743.25,-348.41 884.5,-348.41 884.5,-348.41 890.5,-348.41 896.5,-354.41 896.5,-360.41 896.5,-360.41 896.5,-372.41 896.5,-372.41 896.5,-378.41 890.5,-384.41 884.5,-384.41"/>
<text xml:space="preserve" text-anchor="middle" x="813.88" y="-362.91" font-family="Arial" font-size="10.00">E5RuntimeArtifactDirectoryLoader</text>
</g>
<!-- ArtifactDir&#45;&gt;Loader -->
<g id="edge6" class="edge">
<title>ArtifactDir&#45;&gt;Loader</title>
<path fill="none" stroke="#455a64" d="M694.55,-366.41C702.78,-366.41 711.21,-366.41 719.6,-366.41"/>
<polygon fill="#455a64" stroke="#455a64" points="719.47,-369.91 729.47,-366.41 719.47,-362.91 719.47,-369.91"/>
</g>
<!-- Runtime -->
<g id="node8" class="node">
<title>Runtime</title>
<path fill="#f5f5f5" stroke="#546e7a" d="M1044,-384.41C1044,-384.41 945.5,-384.41 945.5,-384.41 939.5,-384.41 933.5,-378.41 933.5,-372.41 933.5,-372.41 933.5,-360.41 933.5,-360.41 933.5,-354.41 939.5,-348.41 945.5,-348.41 945.5,-348.41 1044,-348.41 1044,-348.41 1050,-348.41 1056,-354.41 1056,-360.41 1056,-360.41 1056,-372.41 1056,-372.41 1056,-378.41 1050,-384.41 1044,-384.41"/>
<text xml:space="preserve" text-anchor="middle" x="994.75" y="-362.91" font-family="Arial" font-size="10.00">E5LocalContextRuntime</text>
</g>
<!-- Loader&#45;&gt;Runtime -->
<g id="edge7" class="edge">
<title>Loader&#45;&gt;Runtime</title>
<path fill="none" stroke="#455a64" d="M896.98,-366.41C905.29,-366.41 913.67,-366.41 921.86,-366.41"/>
<polygon fill="#455a64" stroke="#455a64" points="921.75,-369.91 931.75,-366.41 921.75,-362.91 921.75,-369.91"/>
</g>
<!-- Intake -->
<g id="node9" class="node">
<title>Intake</title>
<path fill="#f5f5f5" stroke="#546e7a" d="M1282,-384.41C1282,-384.41 1170.75,-384.41 1170.75,-384.41 1164.75,-384.41 1158.75,-378.41 1158.75,-372.41 1158.75,-372.41 1158.75,-360.41 1158.75,-360.41 1158.75,-354.41 1164.75,-348.41 1170.75,-348.41 1170.75,-348.41 1282,-348.41 1282,-348.41 1288,-348.41 1294,-354.41 1294,-360.41 1294,-360.41 1294,-372.41 1294,-372.41 1294,-378.41 1288,-384.41 1282,-384.41"/>
<text xml:space="preserve" text-anchor="middle" x="1226.38" y="-368.91" font-family="Arial" font-size="10.00">ContextEngine.attach_e5_*</text>
<text xml:space="preserve" text-anchor="middle" x="1226.38" y="-356.91" font-family="Arial" font-size="10.00">intake explicite</text>
</g>
<!-- Runtime&#45;&gt;Intake -->
<g id="edge8" class="edge">
<title>Runtime&#45;&gt;Intake</title>
<path fill="none" stroke="#455a64" d="M1056.38,-366.41C1084.19,-366.41 1117.49,-366.41 1147.16,-366.41"/>
<polygon fill="#455a64" stroke="#455a64" points="1146.82,-369.91 1156.82,-366.41 1146.82,-362.91 1146.82,-369.91"/>
</g>
<!-- Status -->
<g id="node10" class="node">
<title>Status</title>
<path fill="#f5f5f5" stroke="#546e7a" d="M1440,-384.41C1440,-384.41 1343,-384.41 1343,-384.41 1337,-384.41 1331,-378.41 1331,-372.41 1331,-372.41 1331,-360.41 1331,-360.41 1331,-354.41 1337,-348.41 1343,-348.41 1343,-348.41 1440,-348.41 1440,-348.41 1446,-348.41 1452,-354.41 1452,-360.41 1452,-360.41 1452,-372.41 1452,-372.41 1452,-378.41 1446,-384.41 1440,-384.41"/>
<text xml:space="preserve" text-anchor="middle" x="1391.5" y="-368.91" font-family="Arial" font-size="10.00">E5ContextEngineStatus</text>
<text xml:space="preserve" text-anchor="middle" x="1391.5" y="-356.91" font-family="Arial" font-size="10.00">projection passive</text>
</g>
<!-- Intake&#45;&gt;Status -->
<g id="edge9" class="edge">
<title>Intake&#45;&gt;Status</title>
<path fill="none" stroke="#455a64" d="M1294.19,-366.41C1302.48,-366.41 1310.98,-366.41 1319.33,-366.41"/>
<polygon fill="#455a64" stroke="#455a64" points="1319.08,-369.91 1329.08,-366.41 1319.08,-362.91 1319.08,-369.91"/>
</g>
<!-- Report -->
<g id="node11" class="node">
<title>Report</title>
<path fill="#f5f5f5" stroke="#546e7a" d="M1596.5,-384.41C1596.5,-384.41 1501,-384.41 1501,-384.41 1495,-384.41 1489,-378.41 1489,-372.41 1489,-372.41 1489,-360.41 1489,-360.41 1489,-354.41 1495,-348.41 1501,-348.41 1501,-348.41 1596.5,-348.41 1596.5,-348.41 1602.5,-348.41 1608.5,-354.41 1608.5,-360.41 1608.5,-360.41 1608.5,-372.41 1608.5,-372.41 1608.5,-378.41 1602.5,-384.41 1596.5,-384.41"/>
<text xml:space="preserve" text-anchor="middle" x="1548.75" y="-368.91" font-family="Arial" font-size="10.00">CLI status/report JSON</text>
<text xml:space="preserve" text-anchor="middle" x="1548.75" y="-356.91" font-family="Arial" font-size="10.00">Phase 5.9</text>
</g>
<!-- Status&#45;&gt;Report -->
<g id="edge10" class="edge">
<title>Status&#45;&gt;Report</title>
<path fill="none" stroke="#455a64" d="M1452.08,-366.41C1460.31,-366.41 1468.83,-366.41 1477.23,-366.41"/>
<polygon fill="#455a64" stroke="#455a64" points="1477.07,-369.91 1487.07,-366.41 1477.07,-362.91 1477.07,-369.91"/>
</g>
<!-- HumanDecision -->
<g id="node12" class="node">
<title>HumanDecision</title>
<path fill="#f5f5f5" stroke="#546e7a" d="M1869.25,-384.41C1869.25,-384.41 1657.5,-384.41 1657.5,-384.41 1651.5,-384.41 1645.5,-378.41 1645.5,-372.41 1645.5,-372.41 1645.5,-360.41 1645.5,-360.41 1645.5,-354.41 1651.5,-348.41 1657.5,-348.41 1657.5,-348.41 1869.25,-348.41 1869.25,-348.41 1875.25,-348.41 1881.25,-354.41 1881.25,-360.41 1881.25,-360.41 1881.25,-372.41 1881.25,-372.41 1881.25,-378.41 1875.25,-384.41 1869.25,-384.41"/>
<text xml:space="preserve" text-anchor="middle" x="1763.38" y="-368.91" font-family="Arial" font-size="10.00">décision humaine</text>
<text xml:space="preserve" text-anchor="middle" x="1763.38" y="-356.91" font-family="Arial" font-size="10.00">relancer / rejeter / archiver / promouvoir / fusionner</text>
</g>
<!-- Report&#45;&gt;HumanDecision -->
<g id="edge11" class="edge">
<title>Report&#45;&gt;HumanDecision</title>
<path fill="none" stroke="#455a64" d="M1608.98,-366.41C1616.92,-366.41 1625.31,-366.41 1633.9,-366.41"/>
<polygon fill="#455a64" stroke="#455a64" points="1633.77,-369.91 1643.77,-366.41 1633.77,-362.91 1633.77,-369.91"/>
</g>
<!-- HumanDecision&#45;&gt;Question -->
<g id="edge12" class="edge">
<title>HumanDecision&#45;&gt;Question</title>
<path fill="none" stroke="#455a64" stroke-dasharray="5,2" d="M1758.82,-348.1C1744.99,-282.96 1688.6,-66.41 1549.75,-66.41 614.75,-66.41 614.75,-66.41 614.75,-66.41 553.18,-66.41 483.57,-60.98 432.13,-55.92"/>
<polygon fill="#455a64" stroke="#455a64" points="432.59,-52.45 422.29,-54.94 431.89,-59.42 432.59,-52.45"/>
<text xml:space="preserve" text-anchor="middle" x="1107.38" y="-68.36" font-family="Arial" font-size="9.00">relance</text>
</g>
<!-- HumanDecision&#45;&gt;FutureCandidate -->
<g id="edge13" class="edge">
<title>HumanDecision&#45;&gt;FutureCandidate</title>
<path fill="none" stroke="#455a64" stroke-dasharray="5,2" d="M1757.02,-348.14C1738.71,-289.9 1672.82,-112.41 1549.75,-112.41 614.75,-112.41 614.75,-112.41 614.75,-112.41 550.99,-112.41 478.46,-109.03 426.51,-106.01"/>
<polygon fill="#455a64" stroke="#455a64" points="426.79,-102.52 416.6,-105.43 426.38,-109.51 426.79,-102.52"/>
<text xml:space="preserve" text-anchor="middle" x="1107.38" y="-114.36" font-family="Arial" font-size="9.00">future promotion</text>
</g>
<!-- NoNewCli -->
<g id="node13" class="node">
<title>NoNewCli</title>
<path fill="#f5f5f5" stroke="#546e7a" d="M143.12,-557.41C143.12,-557.41 64.12,-557.41 64.12,-557.41 58.12,-557.41 52.12,-551.41 52.12,-545.41 52.12,-545.41 52.12,-533.41 52.12,-533.41 52.12,-527.41 58.12,-521.41 64.12,-521.41 64.12,-521.41 143.12,-521.41 143.12,-521.41 149.12,-521.41 155.12,-527.41 155.12,-533.41 155.12,-533.41 155.12,-545.41 155.12,-545.41 155.12,-551.41 149.12,-557.41 143.12,-557.41"/>
<text xml:space="preserve" text-anchor="middle" x="103.62" y="-541.91" font-family="Arial" font-size="10.00">pas de nouvelle CLI</text>
<text xml:space="preserve" text-anchor="middle" x="103.62" y="-529.91" font-family="Arial" font-size="10.00">en 5.12</text>
</g>
<!-- NoNewCli&#45;&gt;Report -->
<g id="edge14" class="edge">
<title>NoNewCli&#45;&gt;Report</title>
<path fill="none" stroke="#455a64" stroke-dasharray="5,2" d="M155.31,-536.84C205.76,-534.5 285.4,-531.41 354.38,-531.41 354.38,-531.41 354.38,-531.41 1392.5,-531.41 1466.42,-531.41 1515.48,-442.49 1536.34,-395.2"/>
<polygon fill="#455a64" stroke="#455a64" points="1539.52,-396.66 1540.22,-386.09 1533.08,-393.92 1539.52,-396.66"/>
</g>
<!-- NoServer -->
<g id="node14" class="node">
<title>NoServer</title>
<path fill="#f5f5f5" stroke="#546e7a" d="M153.62,-179.41C153.62,-179.41 53.62,-179.41 53.62,-179.41 47.62,-179.41 41.62,-173.41 41.62,-167.41 41.62,-167.41 41.62,-155.41 41.62,-155.41 41.62,-149.41 47.62,-143.41 53.62,-143.41 53.62,-143.41 153.62,-143.41 153.62,-143.41 159.62,-143.41 165.62,-149.41 165.62,-155.41 165.62,-155.41 165.62,-167.41 165.62,-167.41 165.62,-173.41 159.62,-179.41 153.62,-179.41"/>
<text xml:space="preserve" text-anchor="middle" x="103.62" y="-157.91" font-family="Arial" font-size="10.00">pas de serveur / daemon</text>
</g>
<!-- NoServer&#45;&gt;HumanDecision -->
<g id="edge15" class="edge">
<title>NoServer&#45;&gt;HumanDecision</title>
<path fill="none" stroke="#455a64" stroke-dasharray="5,2" d="M116.69,-143.17C138.63,-111.65 188.32,-47.5 247.75,-17.41 290.5,4.23 306.46,-1.41 354.38,-1.41 354.38,-1.41 354.38,-1.41 1549.75,-1.41 1704.56,-1.41 1748.63,-249.59 1759.33,-336.66"/>
<polygon fill="#455a64" stroke="#455a64" points="1755.85,-337.03 1760.48,-346.56 1762.81,-336.22 1755.85,-337.03"/>
</g>
<!-- NoNetwork -->
<g id="node15" class="node">
<title>NoNetwork</title>
<path fill="#f5f5f5" stroke="#546e7a" d="M159.62,-233.41C159.62,-233.41 47.62,-233.41 47.62,-233.41 41.62,-233.41 35.62,-227.41 35.62,-221.41 35.62,-221.41 35.62,-209.41 35.62,-209.41 35.62,-203.41 41.62,-197.41 47.62,-197.41 47.62,-197.41 159.62,-197.41 159.62,-197.41 165.62,-197.41 171.62,-203.41 171.62,-209.41 171.62,-209.41 171.62,-221.41 171.62,-221.41 171.62,-227.41 165.62,-233.41 159.62,-233.41"/>
<text xml:space="preserve" text-anchor="middle" x="103.62" y="-211.91" font-family="Arial" font-size="10.00">pas de réseau / GitHub API</text>
</g>
<!-- NoNetwork&#45;&gt;FutureCandidate -->
<g id="edge16" class="edge">
<title>NoNetwork&#45;&gt;FutureCandidate</title>
<path fill="none" stroke="#455a64" stroke-dasharray="5,2" d="M171.81,-202.26C181.81,-198.69 191.64,-194.15 200.25,-188.41 228.55,-169.54 219.2,-146.9 247.75,-128.41 258.9,-121.2 271.85,-115.91 284.81,-112.03"/>
<polygon fill="#455a64" stroke="#455a64" points="285.46,-115.48 294.2,-109.49 283.64,-108.73 285.46,-115.48"/>
</g>
<!-- NoStorage -->
<g id="node16" class="node">
<title>NoStorage</title>
<path fill="#f5f5f5" stroke="#546e7a" d="M158.5,-341.41C158.5,-341.41 48.75,-341.41 48.75,-341.41 42.75,-341.41 36.75,-335.41 36.75,-329.41 36.75,-329.41 36.75,-317.41 36.75,-317.41 36.75,-311.41 42.75,-305.41 48.75,-305.41 48.75,-305.41 158.5,-305.41 158.5,-305.41 164.5,-305.41 170.5,-311.41 170.5,-317.41 170.5,-317.41 170.5,-329.41 170.5,-329.41 170.5,-335.41 164.5,-341.41 158.5,-341.41"/>
<text xml:space="preserve" text-anchor="middle" x="103.62" y="-319.91" font-family="Arial" font-size="10.00">pas de stockage persistant</text>
</g>
<!-- NoStorage&#45;&gt;ArtifactDir -->
<g id="edge17" class="edge">
<title>NoStorage&#45;&gt;ArtifactDir</title>
<path fill="none" stroke="#455a64" stroke-dasharray="5,2" d="M170.73,-323.73C242.99,-324.69 362.05,-328.06 464,-339.41 484.07,-341.65 505.49,-344.93 525.71,-348.44"/>
<polygon fill="#455a64" stroke="#455a64" points="524.85,-351.85 535.31,-350.15 526.07,-344.95 524.85,-351.85"/>
</g>
<!-- NoScheduler -->
<g id="node17" class="node">
<title>NoScheduler</title>
<path fill="#f5f5f5" stroke="#546e7a" d="M154.38,-449.41C154.38,-449.41 52.88,-449.41 52.88,-449.41 46.87,-449.41 40.88,-443.41 40.88,-437.41 40.88,-437.41 40.88,-425.41 40.88,-425.41 40.88,-419.41 46.88,-413.41 52.88,-413.41 52.88,-413.41 154.38,-413.41 154.38,-413.41 160.38,-413.41 166.38,-419.41 166.38,-425.41 166.38,-425.41 166.38,-437.41 166.38,-437.41 166.38,-443.41 160.38,-449.41 154.38,-449.41"/>
<text xml:space="preserve" text-anchor="middle" x="103.62" y="-427.91" font-family="Arial" font-size="10.00">pas d&#39;autoload Scheduler</text>
</g>
<!-- NoScheduler&#45;&gt;Intake -->
<g id="edge18" class="edge">
<title>NoScheduler&#45;&gt;Intake</title>
<path fill="none" stroke="#455a64" stroke-dasharray="5,2" d="M166.62,-438.76C217.1,-444.1 290.24,-450.41 354.38,-450.41 354.38,-450.41 354.38,-450.41 995.75,-450.41 1066.05,-450.41 1141.48,-415.26 1185.99,-390.44"/>
<polygon fill="#455a64" stroke="#455a64" points="1187.54,-393.58 1194.5,-385.59 1184.08,-387.5 1187.54,-393.58"/>
</g>
<!-- NoQdrant -->
<g id="node18" class="node">
<title>NoQdrant</title>
<path fill="#f5f5f5" stroke="#546e7a" d="M130.38,-287.41C130.38,-287.41 76.88,-287.41 76.88,-287.41 70.88,-287.41 64.88,-281.41 64.88,-275.41 64.88,-275.41 64.88,-263.41 64.88,-263.41 64.88,-257.41 70.88,-251.41 76.88,-251.41 76.88,-251.41 130.38,-251.41 130.38,-251.41 136.38,-251.41 142.38,-257.41 142.38,-263.41 142.38,-263.41 142.38,-275.41 142.38,-275.41 142.38,-281.41 136.38,-287.41 130.38,-287.41"/>
<text xml:space="preserve" text-anchor="middle" x="103.62" y="-265.91" font-family="Arial" font-size="10.00">pas de Qdrant</text>
</g>
<!-- NoQdrant&#45;&gt;ArtifactDir -->
<g id="edge19" class="edge">
<title>NoQdrant&#45;&gt;ArtifactDir</title>
<path fill="none" stroke="#455a64" stroke-dasharray="5,2" d="M142.66,-273.38C208.53,-280.59 347.95,-297.35 464,-321.41 488.91,-326.58 494.83,-329.26 519.25,-336.41 528.02,-338.98 537.23,-341.76 546.31,-344.56"/>
<polygon fill="#455a64" stroke="#455a64" points="545.26,-347.89 555.84,-347.51 547.33,-341.21 545.26,-347.89"/>
</g>
<!-- NoLlm -->
<g id="node19" class="node">
<title>NoLlm</title>
<path fill="#f5f5f5" stroke="#546e7a" d="M125.12,-503.41C125.12,-503.41 82.12,-503.41 82.12,-503.41 76.12,-503.41 70.12,-497.41 70.12,-491.41 70.12,-491.41 70.12,-479.41 70.12,-479.41 70.12,-473.41 76.12,-467.41 82.12,-467.41 82.12,-467.41 125.12,-467.41 125.12,-467.41 131.12,-467.41 137.12,-473.41 137.12,-479.41 137.12,-479.41 137.12,-491.41 137.12,-491.41 137.12,-497.41 131.12,-503.41 125.12,-503.41"/>
<text xml:space="preserve" text-anchor="middle" x="103.62" y="-481.91" font-family="Arial" font-size="10.00">pas de LLM</text>
</g>
<!-- NoLlm&#45;&gt;Status -->
<g id="edge20" class="edge">
<title>NoLlm&#45;&gt;Status</title>
<path fill="none" stroke="#455a64" stroke-dasharray="5,2" d="M137.35,-486.06C185.07,-486.94 276.54,-488.41 354.38,-488.41 354.38,-488.41 354.38,-488.41 1227.38,-488.41 1290.19,-488.41 1344.37,-429.68 1371.66,-393.71"/>
<polygon fill="#455a64" stroke="#455a64" points="1374.3,-396.02 1377.42,-385.89 1368.67,-391.87 1374.3,-396.02"/>
</g>
<!-- NoOpenVino -->
<g id="node20" class="node">
<title>NoOpenVino</title>
<path fill="#f5f5f5" stroke="#546e7a" d="M164.5,-395.41C164.5,-395.41 42.75,-395.41 42.75,-395.41 36.75,-395.41 30.75,-389.41 30.75,-383.41 30.75,-383.41 30.75,-371.41 30.75,-371.41 30.75,-365.41 36.75,-359.41 42.75,-359.41 42.75,-359.41 164.5,-359.41 164.5,-359.41 170.5,-359.41 176.5,-365.41 176.5,-371.41 176.5,-371.41 176.5,-383.41 176.5,-383.41 176.5,-389.41 170.5,-395.41 164.5,-395.41"/>
<text xml:space="preserve" text-anchor="middle" x="103.62" y="-373.91" font-family="Arial" font-size="10.00">pas d&#39;appel OpenVINO caché</text>
</g>
<!-- NoOpenVino&#45;&gt;Runtime -->
<g id="edge21" class="edge">
<title>NoOpenVino&#45;&gt;Runtime</title>
<path fill="none" stroke="#455a64" stroke-dasharray="5,2" d="M176.93,-392.97C226.59,-402.31 294.17,-412.41 354.38,-412.41 354.38,-412.41 354.38,-412.41 814.88,-412.41 857.01,-412.41 903.02,-400.29 937.82,-388.49"/>
<polygon fill="#455a64" stroke="#455a64" points="938.53,-391.95 946.82,-385.36 936.22,-385.34 938.53,-391.95"/>
</g>
<!-- Global -->
<g id="node21" class="node">
<title>Global</title>
<g id="a_node21"><a xlink:href="../00_global.svg" xlink:title="← Global architecture">
<path fill="#f5f5f5" stroke="none" d="M146.88,-646.41C146.88,-646.41 60.38,-646.41 60.38,-646.41 54.38,-646.41 48.38,-640.41 48.38,-634.41 48.38,-634.41 48.38,-622.41 48.38,-622.41 48.38,-616.41 54.38,-610.41 60.38,-610.41 60.38,-610.41 146.88,-610.41 146.88,-610.41 152.88,-610.41 158.88,-616.41 158.88,-622.41 158.88,-622.41 158.88,-634.41 158.88,-634.41 158.88,-640.41 152.88,-646.41 146.88,-646.41"/>
<text xml:space="preserve" text-anchor="middle" x="103.62" y="-624.91" font-family="Arial" font-size="10.00">← Global architecture</text>
</a>
</g>
</g>
<!-- Parent -->
<g id="node22" class="node">
<title>Parent</title>
<g id="a_node22"><a xlink:href="35_context_engine_contract_lock.svg" xlink:title="← ContextEngine contract lock">
<path fill="#f5f5f5" stroke="none" d="M167.88,-700.41C167.88,-700.41 39.38,-700.41 39.38,-700.41 33.37,-700.41 27.38,-694.41 27.38,-688.41 27.38,-688.41 27.38,-676.41 27.38,-676.41 27.38,-670.41 33.38,-664.41 39.38,-664.41 39.38,-664.41 167.88,-664.41 167.88,-664.41 173.88,-664.41 179.88,-670.41 179.88,-676.41 179.88,-676.41 179.88,-688.41 179.88,-688.41 179.88,-694.41 173.88,-700.41 167.88,-700.41"/>
<text xml:space="preserve" text-anchor="middle" x="103.62" y="-678.91" font-family="Arial" font-size="10.00">← ContextEngine contract lock</text>
</a>
</g>
</g>
<!-- Next -->
<g id="node23" class="node">
<title>Next</title>
<g id="a_node23"><a xlink:href="37_local_context_loop_cli.svg" xlink:title="next: local loop CLI">
<path fill="#f5f5f5" stroke="none" d="M142,-754.41C142,-754.41 65.25,-754.41 65.25,-754.41 59.25,-754.41 53.25,-748.41 53.25,-742.41 53.25,-742.41 53.25,-730.41 53.25,-730.41 53.25,-724.41 59.25,-718.41 65.25,-718.41 65.25,-718.41 142,-718.41 142,-718.41 148,-718.41 154,-724.41 154,-730.41 154,-730.41 154,-742.41 154,-742.41 154,-748.41 148,-754.41 142,-754.41"/>
<text xml:space="preserve" text-anchor="middle" x="103.62" y="-732.91" font-family="Arial" font-size="10.00">next: local loop CLI</text>
</a>
</g>
</g>
</g>
</svg>
