<?xml version="1.0" encoding="UTF-8" standalone="no"?>
<!DOCTYPE svg PUBLIC "-//W3C//DTD SVG 1.1//EN"
 "http://www.w3.org/Graphics/SVG/1.1/DTD/svg11.dtd">
<!-- Generated by graphviz version 14.1.3 (20260303.0454)
 -->
<!-- Title: LocalContextLoopCLI Pages: 1 -->
<svg width="1628pt" height="709pt"
 viewBox="0.00 0.00 1628.00 709.00" xmlns="http://www.w3.org/2000/svg" xmlns:xlink="http://www.w3.org/1999/xlink">
<g id="graph0" class="graph" transform="scale(1 1) rotate(0) translate(4 705)">
<title>LocalContextLoopCLI</title>
<polygon fill="#ffffff" stroke="none" points="-4,4 -4,-705 1623.5,-705 1623.5,4 -4,4"/>
<text xml:space="preserve" text-anchor="middle" x="809.75" y="-679.9" font-family="Arial" font-size="18.00">Phase 5.13 — Local context loop CLI</text>
<g id="clust1" class="cluster">
<title>cluster_input</title>
<path fill="#e3f2fd" stroke="#bbdefb" d="M233.25,-87C233.25,-87 472.25,-87 472.25,-87 478.25,-87 484.25,-93 484.25,-99 484.25,-99 484.25,-272 484.25,-272 484.25,-278 478.25,-284 472.25,-284 472.25,-284 233.25,-284 233.25,-284 227.25,-284 221.25,-278 221.25,-272 221.25,-272 221.25,-99 221.25,-99 221.25,-93 227.25,-87 233.25,-87"/>
<text xml:space="preserve" text-anchor="middle" x="352.75" y="-262.9" font-family="Arial" font-size="18.00">Entrée manuelle</text>
</g>
<g id="clust2" class="cluster">
<title>cluster_loop</title>
<path fill="#e8f5e9" stroke="#c8e6c9" d="M516.25,-182C516.25,-182 1599.5,-182 1599.5,-182 1605.5,-182 1611.5,-188 1611.5,-194 1611.5,-194 1611.5,-271 1611.5,-271 1611.5,-277 1605.5,-283 1599.5,-283 1599.5,-283 516.25,-283 516.25,-283 510.25,-283 504.25,-277 504.25,-271 504.25,-271 504.25,-194 504.25,-194 504.25,-188 510.25,-182 516.25,-182"/>
<text xml:space="preserve" text-anchor="middle" x="1057.88" y="-261.9" font-family="Arial" font-size="18.00">Orchestration mince</text>
</g>
<g id="clust3" class="cluster">
<title>cluster_boundaries</title>
<path fill="#ffffff" stroke="#b0bec5" stroke-dasharray="5,2" d="M21,-8C21,-8 189.25,-8 189.25,-8 195.25,-8 201.25,-14 201.25,-20 201.25,-20 201.25,-455 201.25,-455 201.25,-461 195.25,-467 189.25,-467 189.25,-467 21,-467 21,-467 15,-467 9,-461 9,-455 9,-455 9,-20 9,-20 9,-14 15,-8 21,-8"/>
<text xml:space="preserve" text-anchor="middle" x="105.12" y="-445.9" font-family="Arial" font-size="18.00">Frontières conservées</text>
</g>
<g id="clust4" class="cluster">
<title>cluster_navigation</title>
<path fill="#ffffff" stroke="#90a4ae" stroke-dasharray="5,2" d="M20,-475C20,-475 189.25,-475 189.25,-475 195.25,-475 201.25,-481 201.25,-487 201.25,-487 201.25,-652 201.25,-652 201.25,-658 195.25,-664 189.25,-664 189.25,-664 20,-664 20,-664 14,-664 8,-658 8,-652 8,-652 8,-487 8,-487 8,-481 14,-475 20,-475"/>
<text xml:space="preserve" text-anchor="middle" x="104.62" y="-642.9" font-family="Arial" font-size="18.00">Navigation</text>
</g>
<!-- Operator -->
<g id="node1" class="node">
<title>Operator</title>
<path fill="#f5f5f5" stroke="#546e7a" d="M437.62,-247C437.62,-247 267.88,-247 267.88,-247 261.88,-247 255.88,-241 255.88,-235 255.88,-235 255.88,-223 255.88,-223 255.88,-217 261.88,-211 267.88,-211 267.88,-211 437.62,-211 437.62,-211 443.62,-211 449.62,-217 449.62,-223 449.62,-223 449.62,-235 449.62,-235 449.62,-241 443.62,-247 437.62,-247"/>
<text xml:space="preserve" text-anchor="middle" x="352.75" y="-231.5" font-family="Arial" font-size="10.00">opérateur</text>
<text xml:space="preserve" text-anchor="middle" x="352.75" y="-219.5" font-family="Arial" font-size="10.00">python &#45;m context.local_context_loop_cli</text>
</g>
<!-- Command -->
<g id="node4" class="node">
<title>Command</title>
<path fill="#f5f5f5" stroke="#546e7a" d="M640,-236C640,-236 524.25,-236 524.25,-236 518.25,-236 512.25,-230 512.25,-224 512.25,-224 512.25,-212 512.25,-212 512.25,-206 518.25,-200 524.25,-200 524.25,-200 640,-200 640,-200 646,-200 652,-206 652,-212 652,-212 652,-224 652,-224 652,-230 646,-236 640,-236"/>
<text xml:space="preserve" text-anchor="middle" x="582.12" y="-220.5" font-family="Arial" font-size="10.00">LocalContextLoopCommand</text>
<text xml:space="preserve" text-anchor="middle" x="582.12" y="-208.5" font-family="Arial" font-size="10.00">contrat CLI typé</text>
</g>
<!-- Operator&#45;&gt;Command -->
<g id="edge1" class="edge">
<title>Operator&#45;&gt;Command</title>
<path fill="none" stroke="#455a64" d="M449.85,-224.35C466.79,-223.53 484.26,-222.69 500.71,-221.89"/>
<polygon fill="#455a64" stroke="#455a64" points="500.59,-225.4 510.41,-221.42 500.25,-218.41 500.59,-225.4"/>
</g>
<!-- ArtifactDir -->
<g id="node2" class="node">
<title>ArtifactDir</title>
<path fill="#f5f5f5" stroke="#546e7a" d="M419.25,-193C419.25,-193 286.25,-193 286.25,-193 280.25,-193 274.25,-187 274.25,-181 274.25,-181 274.25,-169 274.25,-169 274.25,-163 280.25,-157 286.25,-157 286.25,-157 419.25,-157 419.25,-157 425.25,-157 431.25,-163 431.25,-169 431.25,-169 431.25,-181 431.25,-181 431.25,-187 425.25,-193 419.25,-193"/>
<text xml:space="preserve" text-anchor="middle" x="352.75" y="-177.5" font-family="Arial" font-size="10.00">artifact&#45;dir Phase 4</text>
<text xml:space="preserve" text-anchor="middle" x="352.75" y="-165.5" font-family="Arial" font-size="10.00">report/context/consumed/prompt</text>
</g>
<!-- ArtifactDir&#45;&gt;Command -->
<g id="edge2" class="edge">
<title>ArtifactDir&#45;&gt;Command</title>
<path fill="none" stroke="#455a64" d="M431.68,-189.74C454.01,-193.96 478.38,-198.57 500.84,-202.82"/>
<polygon fill="#455a64" stroke="#455a64" points="500.08,-206.24 510.56,-204.65 501.38,-199.36 500.08,-206.24"/>
</g>
<!-- NextAction -->
<g id="node3" class="node">
<title>NextAction</title>
<path fill="#f5f5f5" stroke="#546e7a" d="M464.25,-139C464.25,-139 241.25,-139 241.25,-139 235.25,-139 229.25,-133 229.25,-127 229.25,-127 229.25,-107 229.25,-107 229.25,-101 235.25,-95 241.25,-95 241.25,-95 464.25,-95 464.25,-95 470.25,-95 476.25,-101 476.25,-107 476.25,-107 476.25,-127 476.25,-127 476.25,-133 470.25,-139 464.25,-139"/>
<text xml:space="preserve" text-anchor="middle" x="352.75" y="-125.5" font-family="Arial" font-size="10.00">&#45;&#45;next&#45;action</text>
<text xml:space="preserve" text-anchor="middle" x="352.75" y="-113.5" font-family="Arial" font-size="10.00">inspect / relaunch / reject / archive / promote / merge</text>
<text xml:space="preserve" text-anchor="middle" x="352.75" y="-101.5" font-family="Arial" font-size="10.00">reporté seulement</text>
</g>
<!-- NextAction&#45;&gt;Command -->
<g id="edge3" class="edge">
<title>NextAction&#45;&gt;Command</title>
<path fill="none" stroke="#455a64" d="M462.74,-139.42C470.13,-142 477.37,-144.85 484.25,-148 508.94,-159.31 533.71,-177.35 552.02,-192.29"/>
<polygon fill="#455a64" stroke="#455a64" points="549.63,-194.85 559.55,-198.57 554.12,-189.48 549.63,-194.85"/>
</g>
<!-- Result -->
<g id="node8" class="node">
<title>Result</title>
<path fill="#f5f5f5" stroke="#546e7a" d="M1420.25,-226C1420.25,-226 1245.25,-226 1245.25,-226 1239.25,-226 1233.25,-220 1233.25,-214 1233.25,-214 1233.25,-202 1233.25,-202 1233.25,-196 1239.25,-190 1245.25,-190 1245.25,-190 1420.25,-190 1420.25,-190 1426.25,-190 1432.25,-196 1432.25,-202 1432.25,-202 1432.25,-214 1432.25,-214 1432.25,-220 1426.25,-226 1420.25,-226"/>
<text xml:space="preserve" text-anchor="middle" x="1332.75" y="-210.5" font-family="Arial" font-size="10.00">LocalContextLoopResult</text>
<text xml:space="preserve" text-anchor="middle" x="1332.75" y="-198.5" font-family="Arial" font-size="10.00">schema missipy.local_context_loop_cli.v1</text>
</g>
<!-- NextAction&#45;&gt;Result -->
<g id="edge9" class="edge">
<title>NextAction&#45;&gt;Result</title>
<path fill="none" stroke="#455a64" d="M476.57,-122.32C561.15,-125.53 676.12,-129 777.5,-129 777.5,-129 777.5,-129 963.88,-129 1073.07,-129 1196.53,-162.69 1269.05,-186.06"/>
<polygon fill="#455a64" stroke="#455a64" points="1267.78,-189.33 1278.37,-189.11 1269.95,-182.68 1267.78,-189.33"/>
</g>
<!-- Engine -->
<g id="node5" class="node">
<title>Engine</title>
<path fill="#f5f5f5" stroke="#546e7a" d="M857,-246C857,-246 700,-246 700,-246 694,-246 688,-240 688,-234 688,-234 688,-222 688,-222 688,-216 694,-210 700,-210 700,-210 857,-210 857,-210 863,-210 869,-216 869,-222 869,-222 869,-234 869,-234 869,-240 863,-246 857,-246"/>
<text xml:space="preserve" text-anchor="middle" x="778.5" y="-230.5" font-family="Arial" font-size="10.00">ContextEngine()</text>
<text xml:space="preserve" text-anchor="middle" x="778.5" y="-218.5" font-family="Arial" font-size="10.00">instance locale sans Scheduler vivant</text>
</g>
<!-- Command&#45;&gt;Engine -->
<g id="edge4" class="edge">
<title>Command&#45;&gt;Engine</title>
<path fill="none" stroke="#455a64" d="M652.48,-221.57C660.26,-221.97 668.3,-222.38 676.37,-222.8"/>
<polygon fill="#455a64" stroke="#455a64" points="676.12,-226.29 686.28,-223.31 676.48,-219.3 676.12,-226.29"/>
</g>
<!-- Intake -->
<g id="node6" class="node">
<title>Intake</title>
<path fill="#f5f5f5" stroke="#546e7a" d="M1008.75,-246C1008.75,-246 917,-246 917,-246 911,-246 905,-240 905,-234 905,-234 905,-222 905,-222 905,-216 911,-210 917,-210 917,-210 1008.75,-210 1008.75,-210 1014.75,-210 1020.75,-216 1020.75,-222 1020.75,-222 1020.75,-234 1020.75,-234 1020.75,-240 1014.75,-246 1008.75,-246"/>
<text xml:space="preserve" text-anchor="middle" x="962.88" y="-230.5" font-family="Arial" font-size="10.00">attach_e5_artifact_dir()</text>
<text xml:space="preserve" text-anchor="middle" x="962.88" y="-218.5" font-family="Arial" font-size="10.00">intake explicite</text>
</g>
<!-- Command&#45;&gt;Intake -->
<g id="edge5" class="edge">
<title>Command&#45;&gt;Intake</title>
<path fill="none" stroke="#455a64" d="M652.32,-205.17C664.18,-203.44 676.42,-201.93 688,-201 768.18,-194.54 789.36,-189.66 869,-201 878.2,-202.31 887.76,-204.32 897.1,-206.65"/>
<polygon fill="#455a64" stroke="#455a64" points="895.9,-209.96 906.46,-209.14 897.7,-203.19 895.9,-209.96"/>
</g>
<!-- Engine&#45;&gt;Intake -->
<g id="edge6" class="edge">
<title>Engine&#45;&gt;Intake</title>
<path fill="none" stroke="#455a64" d="M869.35,-228C877.45,-228 885.56,-228 893.42,-228"/>
<polygon fill="#455a64" stroke="#455a64" points="893.23,-231.5 903.23,-228 893.23,-224.5 893.23,-231.5"/>
</g>
<!-- Status -->
<g id="node7" class="node">
<title>Status</title>
<path fill="#f5f5f5" stroke="#546e7a" d="M1185.25,-246C1185.25,-246 1068.75,-246 1068.75,-246 1062.75,-246 1056.75,-240 1056.75,-234 1056.75,-234 1056.75,-222 1056.75,-222 1056.75,-216 1062.75,-210 1068.75,-210 1068.75,-210 1185.25,-210 1185.25,-210 1191.25,-210 1197.25,-216 1197.25,-222 1197.25,-222 1197.25,-234 1197.25,-234 1197.25,-240 1191.25,-246 1185.25,-246"/>
<text xml:space="preserve" text-anchor="middle" x="1127" y="-230.5" font-family="Arial" font-size="10.00">inspect_e5_context_engine()</text>
<text xml:space="preserve" text-anchor="middle" x="1127" y="-218.5" font-family="Arial" font-size="10.00">projection passive</text>
</g>
<!-- Intake&#45;&gt;Status -->
<g id="edge7" class="edge">
<title>Intake&#45;&gt;Status</title>
<path fill="none" stroke="#455a64" d="M1021.03,-228C1028.78,-228 1036.84,-228 1044.91,-228"/>
<polygon fill="#455a64" stroke="#455a64" points="1044.77,-231.5 1054.77,-228 1044.77,-224.5 1044.77,-231.5"/>
</g>
<!-- Status&#45;&gt;Result -->
<g id="edge8" class="edge">
<title>Status&#45;&gt;Result</title>
<path fill="none" stroke="#455a64" d="M1197.55,-221.17C1205.4,-220.4 1213.53,-219.6 1221.73,-218.8"/>
<polygon fill="#455a64" stroke="#455a64" points="1221.82,-222.31 1231.43,-217.85 1221.14,-215.34 1221.82,-222.31"/>
</g>
<!-- Output -->
<g id="node9" class="node">
<title>Output</title>
<path fill="#f5f5f5" stroke="#546e7a" d="M1591.5,-226C1591.5,-226 1480.25,-226 1480.25,-226 1474.25,-226 1468.25,-220 1468.25,-214 1468.25,-214 1468.25,-202 1468.25,-202 1468.25,-196 1474.25,-190 1480.25,-190 1480.25,-190 1591.5,-190 1591.5,-190 1597.5,-190 1603.5,-196 1603.5,-202 1603.5,-202 1603.5,-214 1603.5,-214 1603.5,-220 1597.5,-226 1591.5,-226"/>
<text xml:space="preserve" text-anchor="middle" x="1535.88" y="-210.5" font-family="Arial" font-size="10.00">stdout text/json</text>
<text xml:space="preserve" text-anchor="middle" x="1535.88" y="-198.5" font-family="Arial" font-size="10.00">&#45;&#45;report&#45;file JSON atomique</text>
</g>
<!-- Result&#45;&gt;Output -->
<g id="edge10" class="edge">
<title>Result&#45;&gt;Output</title>
<path fill="none" stroke="#455a64" d="M1432.54,-208C1440.62,-208 1448.71,-208 1456.61,-208"/>
<polygon fill="#455a64" stroke="#455a64" points="1456.51,-211.5 1466.51,-208 1456.51,-204.5 1456.51,-211.5"/>
</g>
<!-- NoE5Run -->
<g id="node10" class="node">
<title>NoE5Run</title>
<path fill="#f5f5f5" stroke="#546e7a" d="M168.5,-214C168.5,-214 40.75,-214 40.75,-214 34.75,-214 28.75,-208 28.75,-202 28.75,-202 28.75,-190 28.75,-190 28.75,-184 34.75,-178 40.75,-178 40.75,-178 168.5,-178 168.5,-178 174.5,-178 180.5,-184 180.5,-190 180.5,-190 180.5,-202 180.5,-202 180.5,-208 174.5,-214 168.5,-214"/>
<text xml:space="preserve" text-anchor="middle" x="104.62" y="-192.5" font-family="Arial" font-size="10.00">ne relance pas E5 / OpenVINO</text>
</g>
<!-- NoE5Run&#45;&gt;ArtifactDir -->
<g id="edge11" class="edge">
<title>NoE5Run&#45;&gt;ArtifactDir</title>
<path fill="none" stroke="#455a64" stroke-dasharray="5,2" d="M180.81,-189.59C206.66,-187.38 235.85,-184.89 262.7,-182.6"/>
<polygon fill="#455a64" stroke="#455a64" points="262.87,-186.1 272.54,-181.76 262.28,-179.12 262.87,-186.1"/>
</g>
<!-- NoDecisionMutation -->
<g id="node11" class="node">
<title>NoDecisionMutation</title>
<path fill="#f5f5f5" stroke="#546e7a" d="M159.12,-160C159.12,-160 50.12,-160 50.12,-160 44.12,-160 38.12,-154 38.12,-148 38.12,-148 38.12,-136 38.12,-136 38.12,-130 44.12,-124 50.12,-124 50.12,-124 159.12,-124 159.12,-124 165.12,-124 171.12,-130 171.12,-136 171.12,-136 171.12,-148 171.12,-148 171.12,-154 165.12,-160 159.12,-160"/>
<text xml:space="preserve" text-anchor="middle" x="104.62" y="-138.5" font-family="Arial" font-size="10.00">n&#39;applique aucune décision</text>
</g>
<!-- NoDecisionMutation&#45;&gt;NextAction -->
<g id="edge12" class="edge">
<title>NoDecisionMutation&#45;&gt;NextAction</title>
<path fill="none" stroke="#455a64" stroke-dasharray="5,2" d="M171.58,-135.3C186.04,-133.83 201.86,-132.23 217.92,-130.59"/>
<polygon fill="#455a64" stroke="#455a64" points="217.96,-134.11 227.56,-129.61 217.25,-127.14 217.96,-134.11"/>
</g>
<!-- NoServer -->
<g id="node12" class="node">
<title>NoServer</title>
<path fill="#f5f5f5" stroke="#546e7a" d="M154.62,-322C154.62,-322 54.62,-322 54.62,-322 48.62,-322 42.62,-316 42.62,-310 42.62,-310 42.62,-298 42.62,-298 42.62,-292 48.62,-286 54.62,-286 54.62,-286 154.62,-286 154.62,-286 160.62,-286 166.62,-292 166.62,-298 166.62,-298 166.62,-310 166.62,-310 166.62,-316 160.62,-322 154.62,-322"/>
<text xml:space="preserve" text-anchor="middle" x="104.62" y="-300.5" font-family="Arial" font-size="10.00">pas de serveur / daemon</text>
</g>
<!-- NoServer&#45;&gt;Engine -->
<g id="edge13" class="edge">
<title>NoServer&#45;&gt;Engine</title>
<path fill="none" stroke="#455a64" stroke-dasharray="5,2" d="M167.07,-310.31C184.56,-311.83 203.64,-313.24 221.25,-314 338.03,-319.04 368.55,-330.62 484.25,-314 568.05,-301.97 661.32,-271.52 719.69,-250.29"/>
<polygon fill="#455a64" stroke="#455a64" points="720.57,-253.7 728.75,-246.96 718.16,-247.13 720.57,-253.7"/>
</g>
<!-- NoNetwork -->
<g id="node13" class="node">
<title>NoNetwork</title>
<path fill="#f5f5f5" stroke="#546e7a" d="M160.62,-106C160.62,-106 48.62,-106 48.62,-106 42.62,-106 36.62,-100 36.62,-94 36.62,-94 36.62,-82 36.62,-82 36.62,-76 42.62,-70 48.62,-70 48.62,-70 160.62,-70 160.62,-70 166.62,-70 172.62,-76 172.62,-82 172.62,-82 172.62,-94 172.62,-94 172.62,-100 166.62,-106 160.62,-106"/>
<text xml:space="preserve" text-anchor="middle" x="104.62" y="-84.5" font-family="Arial" font-size="10.00">pas de réseau / GitHub API</text>
</g>
<!-- NoNetwork&#45;&gt;Result -->
<g id="edge14" class="edge">
<title>NoNetwork&#45;&gt;Result</title>
<path fill="none" stroke="#455a64" stroke-dasharray="5,2" d="M172.91,-83.16C265,-76.95 435.49,-67 581.12,-67 581.12,-67 581.12,-67 963.88,-67 1092.43,-67 1230.5,-143 1294.83,-183.4"/>
<polygon fill="#455a64" stroke="#455a64" points="1292.92,-186.34 1303.23,-188.75 1296.68,-180.43 1292.92,-186.34"/>
</g>
<!-- NoStorage -->
<g id="node14" class="node">
<title>NoStorage</title>
<path fill="#f5f5f5" stroke="#546e7a" d="M159.5,-52C159.5,-52 49.75,-52 49.75,-52 43.75,-52 37.75,-46 37.75,-40 37.75,-40 37.75,-28 37.75,-28 37.75,-22 43.75,-16 49.75,-16 49.75,-16 159.5,-16 159.5,-16 165.5,-16 171.5,-22 171.5,-28 171.5,-28 171.5,-40 171.5,-40 171.5,-46 165.5,-52 159.5,-52"/>
<text xml:space="preserve" text-anchor="middle" x="104.62" y="-30.5" font-family="Arial" font-size="10.00">pas de stockage persistant</text>
</g>
<!-- NoStorage&#45;&gt;Output -->
<g id="edge15" class="edge">
<title>NoStorage&#45;&gt;Output</title>
<path fill="none" stroke="#455a64" stroke-dasharray="5,2" d="M171.78,-32.87C263.63,-31.39 435,-29 581.12,-29 581.12,-29 581.12,-29 1128,-29 1278.79,-29 1436.42,-133.28 1502.61,-182.65"/>
<polygon fill="#455a64" stroke="#455a64" points="1500.4,-185.37 1510.49,-188.61 1504.62,-179.79 1500.4,-185.37"/>
</g>
<!-- NoQdrant -->
<g id="node15" class="node">
<title>NoQdrant</title>
<path fill="#f5f5f5" stroke="#546e7a" d="M131.38,-376C131.38,-376 77.88,-376 77.88,-376 71.88,-376 65.88,-370 65.88,-364 65.88,-364 65.88,-352 65.88,-352 65.88,-346 71.88,-340 77.88,-340 77.88,-340 131.38,-340 131.38,-340 137.38,-340 143.38,-346 143.38,-352 143.38,-352 143.38,-364 143.38,-364 143.38,-370 137.38,-376 131.38,-376"/>
<text xml:space="preserve" text-anchor="middle" x="104.62" y="-354.5" font-family="Arial" font-size="10.00">pas de Qdrant</text>
</g>
<!-- NoQdrant&#45;&gt;Intake -->
<g id="edge16" class="edge">
<title>NoQdrant&#45;&gt;Intake</title>
<path fill="none" stroke="#455a64" stroke-dasharray="5,2" d="M143.61,-356.46C211.93,-353.46 360,-345.87 484.25,-332 657.56,-312.65 700.33,-299.31 869,-255 877.02,-252.89 885.4,-250.6 893.7,-248.26"/>
<polygon fill="#455a64" stroke="#455a64" points="894.42,-251.69 903.08,-245.59 892.5,-244.96 894.42,-251.69"/>
</g>
<!-- NoLlm -->
<g id="node16" class="node">
<title>NoLlm</title>
<path fill="#f5f5f5" stroke="#546e7a" d="M126.12,-430C126.12,-430 83.12,-430 83.12,-430 77.12,-430 71.12,-424 71.12,-418 71.12,-418 71.12,-406 71.12,-406 71.12,-400 77.12,-394 83.12,-394 83.12,-394 126.12,-394 126.12,-394 132.12,-394 138.12,-400 138.12,-406 138.12,-406 138.12,-418 138.12,-418 138.12,-424 132.12,-430 126.12,-430"/>
<text xml:space="preserve" text-anchor="middle" x="104.62" y="-408.5" font-family="Arial" font-size="10.00">pas de LLM</text>
</g>
<!-- NoLlm&#45;&gt;Status -->
<g id="edge17" class="edge">
<title>NoLlm&#45;&gt;Status</title>
<path fill="none" stroke="#455a64" stroke-dasharray="5,2" d="M138.48,-412.47C215.71,-413.52 414.78,-416 581.12,-416 581.12,-416 581.12,-416 779.5,-416 913.65,-416 1045.51,-305.78 1099.94,-254.13"/>
<polygon fill="#455a64" stroke="#455a64" points="1102.13,-256.88 1106.91,-247.42 1097.28,-251.83 1102.13,-256.88"/>
</g>
<!-- Stdlib -->
<g id="node17" class="node">
<title>Stdlib</title>
<path fill="#f5f5f5" stroke="#546e7a" d="M138.88,-268C138.88,-268 70.38,-268 70.38,-268 64.38,-268 58.38,-262 58.38,-256 58.38,-256 58.38,-244 58.38,-244 58.38,-238 64.38,-232 70.38,-232 70.38,-232 138.88,-232 138.88,-232 144.88,-232 150.88,-238 150.88,-244 150.88,-244 150.88,-256 150.88,-256 150.88,-262 144.88,-268 138.88,-268"/>
<text xml:space="preserve" text-anchor="middle" x="104.62" y="-246.5" font-family="Arial" font-size="10.00">stdlib uniquement</text>
</g>
<!-- Stdlib&#45;&gt;Command -->
<g id="edge18" class="edge">
<title>Stdlib&#45;&gt;Command</title>
<path fill="none" stroke="#455a64" stroke-dasharray="5,2" d="M151.09,-260.57C167.21,-264.91 185.29,-270.46 201.25,-277 210.64,-280.85 211.42,-285.48 221.25,-288 334.46,-317.08 373.04,-323.98 484.25,-288 511.06,-279.33 536.68,-260.16 554.83,-244.08"/>
<polygon fill="#455a64" stroke="#455a64" points="556.99,-246.84 562,-237.51 552.26,-241.68 556.99,-246.84"/>
</g>
<!-- Global -->
<g id="node18" class="node">
<title>Global</title>
<g id="a_node18"><a xlink:href="../00_global.svg" xlink:title="← Global architecture">
<path fill="#f5f5f5" stroke="none" d="M147.88,-519C147.88,-519 61.38,-519 61.38,-519 55.38,-519 49.38,-513 49.38,-507 49.38,-507 49.38,-495 49.38,-495 49.38,-489 55.38,-483 61.38,-483 61.38,-483 147.88,-483 147.88,-483 153.88,-483 159.88,-489 159.88,-495 159.88,-495 159.88,-507 159.88,-507 159.88,-513 153.88,-519 147.88,-519"/>
<text xml:space="preserve" text-anchor="middle" x="104.62" y="-497.5" font-family="Arial" font-size="10.00">← Global architecture</text>
</a>
</g>
</g>
<!-- Parent -->
<g id="node19" class="node">
<title>Parent</title>
<g id="a_node19"><a xlink:href="36_local_context_loop_design.svg" xlink:title="← Local context loop design">
<path fill="#f5f5f5" stroke="none" d="M162.5,-573C162.5,-573 46.75,-573 46.75,-573 40.75,-573 34.75,-567 34.75,-561 34.75,-561 34.75,-549 34.75,-549 34.75,-543 40.75,-537 46.75,-537 46.75,-537 162.5,-537 162.5,-537 168.5,-537 174.5,-543 174.5,-549 174.5,-549 174.5,-561 174.5,-561 174.5,-567 168.5,-573 162.5,-573"/>
<text xml:space="preserve" text-anchor="middle" x="104.62" y="-551.5" font-family="Arial" font-size="10.00">← Local context loop design</text>
</a>
</g>
</g>
<!-- Next -->
<g id="node20" class="node">
<title>Next</title>
<g id="a_node20"><a xlink:href="38_source_candidate_contract.svg" xlink:title="next: SourceCandidate local contract">
<path fill="#f5f5f5" stroke="none" d="M181.25,-627C181.25,-627 28,-627 28,-627 22,-627 16,-621 16,-615 16,-615 16,-603 16,-603 16,-597 22,-591 28,-591 28,-591 181.25,-591 181.25,-591 187.25,-591 193.25,-597 193.25,-603 193.25,-603 193.25,-615 193.25,-615 193.25,-621 187.25,-627 181.25,-627"/>
<text xml:space="preserve" text-anchor="middle" x="104.62" y="-605.5" font-family="Arial" font-size="10.00">next: SourceCandidate local contract</text>
</a>
</g>
</g>
</g>
</svg>
