<?xml version="1.0" encoding="UTF-8" standalone="no"?>
<!DOCTYPE svg PUBLIC "-//W3C//DTD SVG 1.1//EN"
 "http://www.w3.org/Graphics/SVG/1.1/DTD/svg11.dtd">
<!-- Generated by graphviz version 14.1.3 (20260303.0454)
 -->
<!-- Title: SourceCandidateContract Pages: 1 -->
<svg width="1843pt" height="862pt"
 viewBox="0.00 0.00 1843.00 862.00" xmlns="http://www.w3.org/2000/svg" xmlns:xlink="http://www.w3.org/1999/xlink">
<g id="graph0" class="graph" transform="scale(1 1) rotate(0) translate(4 858)">
<title>SourceCandidateContract</title>
<polygon fill="#ffffff" stroke="none" points="-4,4 -4,-858 1839,-858 1839,4 -4,4"/>
<text xml:space="preserve" text-anchor="middle" x="917.5" y="-832.9" font-family="Arial" font-size="18.00">Phase 5.14 — SourceCandidate local contract</text>
<g id="clust1" class="cluster">
<title>cluster_input</title>
<path fill="#e3f2fd" stroke="#bbdefb" d="M259,-330C259,-330 417,-330 417,-330 423,-330 429,-336 429,-342 429,-342 429,-515 429,-515 429,-521 423,-527 417,-527 417,-527 259,-527 259,-527 253,-527 247,-521 247,-515 247,-515 247,-342 247,-342 247,-336 253,-330 259,-330"/>
<text xml:space="preserve" text-anchor="middle" x="338" y="-505.9" font-family="Arial" font-size="18.00">Matière brute locale</text>
</g>
<g id="clust2" class="cluster">
<title>cluster_contract</title>
<path fill="#e8f5e9" stroke="#c8e6c9" d="M527,-323C527,-323 1815,-323 1815,-323 1821,-323 1827,-329 1827,-335 1827,-335 1827,-446 1827,-446 1827,-452 1821,-458 1815,-458 1815,-458 527,-458 527,-458 521,-458 515,-452 515,-446 515,-446 515,-335 515,-335 515,-329 521,-323 527,-323"/>
<text xml:space="preserve" text-anchor="middle" x="1171" y="-436.9" font-family="Arial" font-size="18.00">Contrat local pur</text>
</g>
<g id="clust3" class="cluster">
<title>cluster_status</title>
<path fill="#fff3e0" stroke="#ffe0b2" d="M1691.88,-466C1691.88,-466 1777.88,-466 1777.88,-466 1783.88,-466 1789.88,-472 1789.88,-478 1789.88,-478 1789.88,-805 1789.88,-805 1789.88,-811 1783.88,-817 1777.88,-817 1777.88,-817 1691.88,-817 1691.88,-817 1685.88,-817 1679.88,-811 1679.88,-805 1679.88,-805 1679.88,-478 1679.88,-478 1679.88,-472 1685.88,-466 1691.88,-466"/>
<text xml:space="preserve" text-anchor="middle" x="1734.88" y="-795.9" font-family="Arial" font-size="18.00">Statuts</text>
</g>
<g id="clust4" class="cluster">
<title>cluster_boundaries</title>
<path fill="#ffffff" stroke="#b0bec5" stroke-dasharray="5,2" d="M26.75,-8C26.75,-8 207.25,-8 207.25,-8 213.25,-8 219.25,-14 219.25,-20 219.25,-20 219.25,-509 219.25,-509 219.25,-515 213.25,-521 207.25,-521 207.25,-521 26.75,-521 26.75,-521 20.75,-521 14.75,-515 14.75,-509 14.75,-509 14.75,-20 14.75,-20 14.75,-14 20.75,-8 26.75,-8"/>
<text xml:space="preserve" text-anchor="middle" x="117" y="-499.9" font-family="Arial" font-size="18.00">Frontières conservées</text>
</g>
<g id="clust5" class="cluster">
<title>cluster_navigation</title>
<path fill="#ffffff" stroke="#90a4ae" stroke-dasharray="5,2" d="M20,-579C20,-579 214,-579 214,-579 220,-579 226,-585 226,-591 226,-591 226,-756 226,-756 226,-762 220,-768 214,-768 214,-768 20,-768 20,-768 14,-768 8,-762 8,-756 8,-756 8,-591 8,-591 8,-585 14,-579 20,-579"/>
<text xml:space="preserve" text-anchor="middle" x="117" y="-746.9" font-family="Arial" font-size="18.00">Navigation</text>
</g>
<!-- LocalLoop -->
<g id="node1" class="node">
<title>LocalLoop</title>
<path fill="#f5f5f5" stroke="#546e7a" d="M388.75,-374C388.75,-374 287.25,-374 287.25,-374 281.25,-374 275.25,-368 275.25,-362 275.25,-362 275.25,-350 275.25,-350 275.25,-344 281.25,-338 287.25,-338 287.25,-338 388.75,-338 388.75,-338 394.75,-338 400.75,-344 400.75,-350 400.75,-350 400.75,-362 400.75,-362 400.75,-368 394.75,-374 388.75,-374"/>
<text xml:space="preserve" text-anchor="middle" x="338" y="-358.5" font-family="Arial" font-size="10.00">LocalContextLoopResult</text>
<text xml:space="preserve" text-anchor="middle" x="338" y="-346.5" font-family="Arial" font-size="10.00">Phase 5.13 future source</text>
</g>
<!-- Input -->
<g id="node5" class="node">
<title>Input</title>
<path fill="#f5f5f5" stroke="#546e7a" d="M865.38,-421C865.38,-421 761.62,-421 761.62,-421 755.62,-421 749.62,-415 749.62,-409 749.62,-409 749.62,-397 749.62,-397 749.62,-391 755.62,-385 761.62,-385 761.62,-385 865.38,-385 865.38,-385 871.38,-385 877.38,-391 877.38,-397 877.38,-397 877.38,-409 877.38,-409 877.38,-415 871.38,-421 865.38,-421"/>
<text xml:space="preserve" text-anchor="middle" x="813.5" y="-405.5" font-family="Arial" font-size="10.00">SourceCandidateInput</text>
<text xml:space="preserve" text-anchor="middle" x="813.5" y="-393.5" font-family="Arial" font-size="10.00">title/body/labels/metadata</text>
</g>
<!-- LocalLoop&#45;&gt;Input -->
<g id="edge1" class="edge">
<title>LocalLoop&#45;&gt;Input</title>
<path fill="none" stroke="#455a64" stroke-dasharray="5,2" d="M401.15,-352.79C471.22,-350.3 588.3,-349.56 687.5,-365.5 690.63,-366 714.98,-373.25 741.36,-381.24"/>
<polygon fill="#455a64" stroke="#455a64" points="740.29,-384.58 750.88,-384.13 742.33,-377.88 740.29,-384.58"/>
<text xml:space="preserve" text-anchor="middle" x="605.25" y="-367.45" font-family="Arial" font-size="9.00">future conversion</text>
</g>
<!-- ManualNote -->
<g id="node2" class="node">
<title>ManualNote</title>
<path fill="#f5f5f5" stroke="#546e7a" d="M409,-490C409,-490 267,-490 267,-490 261,-490 255,-484 255,-478 255,-478 255,-466 255,-466 255,-460 261,-454 267,-454 267,-454 409,-454 409,-454 415,-454 421,-460 421,-466 421,-466 421,-478 421,-478 421,-484 415,-490 409,-490"/>
<text xml:space="preserve" text-anchor="middle" x="338" y="-468.5" font-family="Arial" font-size="10.00">note opérateur / fichier / artifact&#45;dir</text>
</g>
<!-- ManualNote&#45;&gt;Input -->
<g id="edge2" class="edge">
<title>ManualNote&#45;&gt;Input</title>
<path fill="none" stroke="#455a64" d="M421.34,-464.25C492.15,-457.07 596.9,-445.21 687.5,-430 704.02,-427.23 721.67,-423.74 738.34,-420.21"/>
<polygon fill="#455a64" stroke="#455a64" points="738.61,-423.73 747.65,-418.2 737.14,-416.88 738.61,-423.73"/>
</g>
<!-- FutureGitHub -->
<g id="node3" class="node">
<title>FutureGitHub</title>
<path fill="#f5f5f5" stroke="#546e7a" d="M379,-436C379,-436 297,-436 297,-436 291,-436 285,-430 285,-424 285,-424 285,-404 285,-404 285,-398 291,-392 297,-392 297,-392 379,-392 379,-392 385,-392 391,-398 391,-404 391,-404 391,-424 391,-424 391,-430 385,-436 379,-436"/>
<text xml:space="preserve" text-anchor="middle" x="338" y="-422.5" font-family="Arial" font-size="10.00">future GitHub item</text>
<text xml:space="preserve" text-anchor="middle" x="338" y="-410.5" font-family="Arial" font-size="10.00">newicody/autodoc</text>
<text xml:space="preserve" text-anchor="middle" x="338" y="-398.5" font-family="Arial" font-size="10.00">projection seulement</text>
</g>
<!-- Origin -->
<g id="node4" class="node">
<title>Origin</title>
<path fill="#f5f5f5" stroke="#546e7a" d="M675.5,-421C675.5,-421 535,-421 535,-421 529,-421 523,-415 523,-409 523,-409 523,-397 523,-397 523,-391 529,-385 535,-385 535,-385 675.5,-385 675.5,-385 681.5,-385 687.5,-391 687.5,-397 687.5,-397 687.5,-409 687.5,-409 687.5,-415 681.5,-421 675.5,-421"/>
<text xml:space="preserve" text-anchor="middle" x="605.25" y="-405.5" font-family="Arial" font-size="10.00">SourceCandidateOrigin</text>
<text xml:space="preserve" text-anchor="middle" x="605.25" y="-393.5" font-family="Arial" font-size="10.00">local/file/artifact_dir/github/manual</text>
</g>
<!-- FutureGitHub&#45;&gt;Origin -->
<g id="edge3" class="edge">
<title>FutureGitHub&#45;&gt;Origin</title>
<path fill="none" stroke="#455a64" stroke-dasharray="5,2" d="M391.4,-411.83C425.56,-410.41 471.08,-408.52 511.25,-406.86"/>
<polygon fill="#455a64" stroke="#455a64" points="511.35,-410.36 521.19,-406.44 511.06,-403.36 511.35,-410.36"/>
<text xml:space="preserve" text-anchor="middle" x="472" y="-411.76" font-family="Arial" font-size="9.00">future projection</text>
</g>
<!-- Origin&#45;&gt;Input -->
<g id="edge4" class="edge">
<title>Origin&#45;&gt;Input</title>
<path fill="none" stroke="#455a64" d="M687.77,-403C704.42,-403 721.85,-403 738.23,-403"/>
<polygon fill="#455a64" stroke="#455a64" points="737.87,-406.5 747.87,-403 737.87,-399.5 737.87,-406.5"/>
</g>
<!-- Candidate -->
<g id="node7" class="node">
<title>Candidate</title>
<path fill="#f5f5f5" stroke="#546e7a" d="M1211,-367C1211,-367 1055.5,-367 1055.5,-367 1049.5,-367 1043.5,-361 1043.5,-355 1043.5,-355 1043.5,-343 1043.5,-343 1043.5,-337 1049.5,-331 1055.5,-331 1055.5,-331 1211,-331 1211,-331 1217,-331 1223,-337 1223,-343 1223,-343 1223,-355 1223,-355 1223,-361 1217,-367 1211,-367"/>
<text xml:space="preserve" text-anchor="middle" x="1133.25" y="-351.5" font-family="Arial" font-size="10.00">SourceCandidate</text>
<text xml:space="preserve" text-anchor="middle" x="1133.25" y="-339.5" font-family="Arial" font-size="10.00">schema missipy.source_candidate.v1</text>
</g>
<!-- Input&#45;&gt;Candidate -->
<g id="edge6" class="edge">
<title>Input&#45;&gt;Candidate</title>
<path fill="none" stroke="#455a64" d="M877.66,-392.27C921.66,-384.79 981.27,-374.66 1031.76,-366.08"/>
<polygon fill="#455a64" stroke="#455a64" points="1032.28,-369.54 1041.55,-364.41 1031.11,-362.64 1032.28,-369.54"/>
<text xml:space="preserve" text-anchor="middle" x="973" y="-385.94" font-family="Arial" font-size="9.00">build_source_candidate()</text>
</g>
<!-- Policy -->
<g id="node6" class="node">
<title>Policy</title>
<path fill="#f5f5f5" stroke="#546e7a" d="M890.5,-367C890.5,-367 736.5,-367 736.5,-367 730.5,-367 724.5,-361 724.5,-355 724.5,-355 724.5,-343 724.5,-343 724.5,-337 730.5,-331 736.5,-331 736.5,-331 890.5,-331 890.5,-331 896.5,-331 902.5,-337 902.5,-343 902.5,-343 902.5,-355 902.5,-355 902.5,-361 896.5,-367 890.5,-367"/>
<text xml:space="preserve" text-anchor="middle" x="813.5" y="-351.5" font-family="Arial" font-size="10.00">SourceCandidatePolicy</text>
<text xml:space="preserve" text-anchor="middle" x="813.5" y="-339.5" font-family="Arial" font-size="10.00">default_repository=newicody/autodoc</text>
</g>
<!-- Policy&#45;&gt;Candidate -->
<g id="edge5" class="edge">
<title>Policy&#45;&gt;Candidate</title>
<path fill="none" stroke="#455a64" d="M902.59,-349C942.71,-349 990.41,-349 1031.91,-349"/>
<polygon fill="#455a64" stroke="#455a64" points="1031.65,-352.5 1041.65,-349 1031.65,-345.5 1031.65,-352.5"/>
</g>
<!-- Decision -->
<g id="node8" class="node">
<title>Decision</title>
<path fill="#f5f5f5" stroke="#546e7a" d="M1535.25,-421C1535.25,-421 1342.25,-421 1342.25,-421 1336.25,-421 1330.25,-415 1330.25,-409 1330.25,-409 1330.25,-397 1330.25,-397 1330.25,-391 1336.25,-385 1342.25,-385 1342.25,-385 1535.25,-385 1535.25,-385 1541.25,-385 1547.25,-391 1547.25,-397 1547.25,-397 1547.25,-409 1547.25,-409 1547.25,-415 1541.25,-421 1535.25,-421"/>
<text xml:space="preserve" text-anchor="middle" x="1438.75" y="-405.5" font-family="Arial" font-size="10.00">SourceCandidateDecision</text>
<text xml:space="preserve" text-anchor="middle" x="1438.75" y="-393.5" font-family="Arial" font-size="10.00">inspect/relaunch/reject/archive/promote/merge</text>
</g>
<!-- Candidate&#45;&gt;Decision -->
<g id="edge7" class="edge">
<title>Candidate&#45;&gt;Decision</title>
<path fill="none" stroke="#455a64" d="M1223.26,-364.84C1254.45,-370.39 1289.94,-376.7 1322.94,-382.57"/>
<polygon fill="#455a64" stroke="#455a64" points="1322.08,-385.97 1332.54,-384.28 1323.31,-379.08 1322.08,-385.97"/>
<text xml:space="preserve" text-anchor="middle" x="1276.62" y="-381.18" font-family="Arial" font-size="9.00">operator decision</text>
</g>
<!-- New -->
<g id="node10" class="node">
<title>New</title>
<path fill="#f5f5f5" stroke="#546e7a" d="M1749.88,-780C1749.88,-780 1719.88,-780 1719.88,-780 1713.88,-780 1707.88,-774 1707.88,-768 1707.88,-768 1707.88,-756 1707.88,-756 1707.88,-750 1713.88,-744 1719.88,-744 1719.88,-744 1749.88,-744 1749.88,-744 1755.88,-744 1761.88,-750 1761.88,-756 1761.88,-756 1761.88,-768 1761.88,-768 1761.88,-774 1755.88,-780 1749.88,-780"/>
<text xml:space="preserve" text-anchor="middle" x="1734.88" y="-758.5" font-family="Arial" font-size="10.00">new</text>
</g>
<!-- Candidate&#45;&gt;New -->
<g id="edge10" class="edge">
<title>Candidate&#45;&gt;New</title>
<path fill="none" stroke="#455a64" d="M1154.19,-367.37C1213.56,-421.53 1395.68,-583.53 1565.25,-692 1601.08,-714.92 1611.41,-718.83 1650.75,-735 1665.62,-741.11 1682.43,-746.79 1697.02,-751.35"/>
<polygon fill="#455a64" stroke="#455a64" points="1695.64,-754.59 1706.23,-754.16 1697.68,-747.89 1695.64,-754.59"/>
</g>
<!-- Transition -->
<g id="node9" class="node">
<title>Transition</title>
<path fill="#f5f5f5" stroke="#546e7a" d="M1807,-367C1807,-367 1662.75,-367 1662.75,-367 1656.75,-367 1650.75,-361 1650.75,-355 1650.75,-355 1650.75,-343 1650.75,-343 1650.75,-337 1656.75,-331 1662.75,-331 1662.75,-331 1807,-331 1807,-331 1813,-331 1819,-337 1819,-343 1819,-343 1819,-355 1819,-355 1819,-361 1813,-367 1807,-367"/>
<text xml:space="preserve" text-anchor="middle" x="1734.88" y="-351.5" font-family="Arial" font-size="10.00">apply_source_candidate_decision()</text>
<text xml:space="preserve" text-anchor="middle" x="1734.88" y="-339.5" font-family="Arial" font-size="10.00">returns new immutable candidate</text>
</g>
<!-- Decision&#45;&gt;Transition -->
<g id="edge8" class="edge">
<title>Decision&#45;&gt;Transition</title>
<path fill="none" stroke="#455a64" d="M1540.15,-384.57C1572.3,-378.66 1607.78,-372.15 1639.49,-366.33"/>
<polygon fill="#455a64" stroke="#455a64" points="1639.84,-369.82 1649.05,-364.57 1638.58,-362.94 1639.84,-369.82"/>
</g>
<!-- Analyzed -->
<g id="node11" class="node">
<title>Analyzed</title>
<path fill="#f5f5f5" stroke="#546e7a" d="M1750.38,-672C1750.38,-672 1719.38,-672 1719.38,-672 1713.38,-672 1707.38,-666 1707.38,-660 1707.38,-660 1707.38,-648 1707.38,-648 1707.38,-642 1713.38,-636 1719.38,-636 1719.38,-636 1750.38,-636 1750.38,-636 1756.38,-636 1762.38,-642 1762.38,-648 1762.38,-648 1762.38,-660 1762.38,-660 1762.38,-666 1756.38,-672 1750.38,-672"/>
<text xml:space="preserve" text-anchor="middle" x="1734.88" y="-650.5" font-family="Arial" font-size="10.00">analyzed</text>
</g>
<!-- Decision&#45;&gt;Analyzed -->
<g id="edge11" class="edge">
<title>Decision&#45;&gt;Analyzed</title>
<path fill="none" stroke="#455a64" d="M1449.31,-421.48C1467.84,-455.94 1511.63,-530.87 1565.25,-579 1603.28,-613.14 1659.38,-633.85 1696.27,-644.61"/>
<polygon fill="#455a64" stroke="#455a64" points="1695.03,-647.9 1705.6,-647.23 1696.92,-641.16 1695.03,-647.9"/>
<text xml:space="preserve" text-anchor="middle" x="1599" y="-621.31" font-family="Arial" font-size="9.00">inspect/relaunch</text>
</g>
<!-- Rejected -->
<g id="node12" class="node">
<title>Rejected</title>
<path fill="#f5f5f5" stroke="#546e7a" d="M1766.88,-618C1766.88,-618 1702.88,-618 1702.88,-618 1696.88,-618 1690.88,-612 1690.88,-606 1690.88,-606 1690.88,-594 1690.88,-594 1690.88,-588 1696.88,-582 1702.88,-582 1702.88,-582 1766.88,-582 1766.88,-582 1772.88,-582 1778.88,-588 1778.88,-594 1778.88,-594 1778.88,-606 1778.88,-606 1778.88,-612 1772.88,-618 1766.88,-618"/>
<text xml:space="preserve" text-anchor="middle" x="1734.88" y="-596.5" font-family="Arial" font-size="10.00">rejected terminal</text>
</g>
<!-- Decision&#45;&gt;Rejected -->
<g id="edge12" class="edge">
<title>Decision&#45;&gt;Rejected</title>
<path fill="none" stroke="#455a64" d="M1456.45,-421.47C1479.46,-446.32 1522.89,-491.06 1565.25,-523 1600.4,-549.5 1610.58,-554.99 1650.75,-573 1659.9,-577.11 1669.87,-580.89 1679.63,-584.25"/>
<polygon fill="#455a64" stroke="#455a64" points="1678.46,-587.55 1689.06,-587.38 1680.67,-580.91 1678.46,-587.55"/>
<text xml:space="preserve" text-anchor="middle" x="1599" y="-566.24" font-family="Arial" font-size="9.00">reject</text>
</g>
<!-- Archived -->
<g id="node13" class="node">
<title>Archived</title>
<path fill="#f5f5f5" stroke="#546e7a" d="M1768,-564C1768,-564 1701.75,-564 1701.75,-564 1695.75,-564 1689.75,-558 1689.75,-552 1689.75,-552 1689.75,-540 1689.75,-540 1689.75,-534 1695.75,-528 1701.75,-528 1701.75,-528 1768,-528 1768,-528 1774,-528 1780,-534 1780,-540 1780,-540 1780,-552 1780,-552 1780,-558 1774,-564 1768,-564"/>
<text xml:space="preserve" text-anchor="middle" x="1734.88" y="-542.5" font-family="Arial" font-size="10.00">archived terminal</text>
</g>
<!-- Decision&#45;&gt;Archived -->
<g id="edge13" class="edge">
<title>Decision&#45;&gt;Archived</title>
<path fill="none" stroke="#455a64" d="M1468.45,-421.4C1508.15,-446.24 1582.64,-490.63 1650.75,-519 1659.61,-522.69 1669.17,-526.21 1678.53,-529.41"/>
<polygon fill="#455a64" stroke="#455a64" points="1677.36,-532.7 1687.95,-532.53 1679.57,-526.06 1677.36,-532.7"/>
<text xml:space="preserve" text-anchor="middle" x="1599" y="-510.48" font-family="Arial" font-size="9.00">archive</text>
</g>
<!-- Promoted -->
<g id="node14" class="node">
<title>Promoted</title>
<path fill="#f5f5f5" stroke="#546e7a" d="M1769.88,-510C1769.88,-510 1699.88,-510 1699.88,-510 1693.88,-510 1687.88,-504 1687.88,-498 1687.88,-498 1687.88,-486 1687.88,-486 1687.88,-480 1693.88,-474 1699.88,-474 1699.88,-474 1769.88,-474 1769.88,-474 1775.88,-474 1781.88,-480 1781.88,-486 1781.88,-486 1781.88,-498 1781.88,-498 1781.88,-504 1775.88,-510 1769.88,-510"/>
<text xml:space="preserve" text-anchor="middle" x="1734.88" y="-488.5" font-family="Arial" font-size="10.00">promoted terminal</text>
</g>
<!-- Decision&#45;&gt;Promoted -->
<g id="edge14" class="edge">
<title>Decision&#45;&gt;Promoted</title>
<path fill="none" stroke="#455a64" d="M1500.69,-421.44C1552.42,-437.09 1626.11,-459.39 1676.73,-474.71"/>
<polygon fill="#455a64" stroke="#455a64" points="1675.44,-477.98 1686.03,-477.52 1677.47,-471.28 1675.44,-477.98"/>
<text xml:space="preserve" text-anchor="middle" x="1599" y="-462.62" font-family="Arial" font-size="9.00">promote</text>
</g>
<!-- Merged -->
<g id="node15" class="node">
<title>Merged</title>
<path fill="#f5f5f5" stroke="#546e7a" d="M1765.75,-726C1765.75,-726 1704,-726 1704,-726 1698,-726 1692,-720 1692,-714 1692,-714 1692,-702 1692,-702 1692,-696 1698,-690 1704,-690 1704,-690 1765.75,-690 1765.75,-690 1771.75,-690 1777.75,-696 1777.75,-702 1777.75,-702 1777.75,-714 1777.75,-714 1777.75,-720 1771.75,-726 1765.75,-726"/>
<text xml:space="preserve" text-anchor="middle" x="1734.88" y="-704.5" font-family="Arial" font-size="10.00">merged terminal</text>
</g>
<!-- Decision&#45;&gt;Merged -->
<g id="edge15" class="edge">
<title>Decision&#45;&gt;Merged</title>
<path fill="none" stroke="#455a64" d="M1445.68,-421.4C1460.08,-463.65 1500.54,-568.97 1565.25,-634 1596.82,-665.73 1644.3,-684.89 1680.84,-695.73"/>
<polygon fill="#455a64" stroke="#455a64" points="1679.77,-699.07 1690.35,-698.43 1681.68,-692.33 1679.77,-699.07"/>
<text xml:space="preserve" text-anchor="middle" x="1599" y="-679.59" font-family="Arial" font-size="9.00">merge</text>
</g>
<!-- Transition&#45;&gt;Candidate -->
<g id="edge9" class="edge">
<title>Transition&#45;&gt;Candidate</title>
<path fill="none" stroke="#455a64" d="M1650.55,-349C1541.75,-349 1351.46,-349 1234.78,-349"/>
<polygon fill="#455a64" stroke="#455a64" points="1234.89,-345.5 1224.89,-349 1234.89,-352.5 1234.89,-345.5"/>
<text xml:space="preserve" text-anchor="middle" x="1438.75" y="-350.95" font-family="Arial" font-size="9.00">new instance</text>
</g>
<!-- NoStorage -->
<g id="node16" class="node">
<title>NoStorage</title>
<path fill="#f5f5f5" stroke="#546e7a" d="M171.88,-268C171.88,-268 62.12,-268 62.12,-268 56.12,-268 50.12,-262 50.12,-256 50.12,-256 50.12,-244 50.12,-244 50.12,-238 56.12,-232 62.12,-232 62.12,-232 171.88,-232 171.88,-232 177.88,-232 183.88,-238 183.88,-244 183.88,-244 183.88,-256 183.88,-256 183.88,-262 177.88,-268 171.88,-268"/>
<text xml:space="preserve" text-anchor="middle" x="117" y="-246.5" font-family="Arial" font-size="10.00">pas de stockage persistant</text>
</g>
<!-- NoStorage&#45;&gt;Candidate -->
<g id="edge16" class="edge">
<title>NoStorage&#45;&gt;Candidate</title>
<path fill="none" stroke="#455a64" stroke-dasharray="5,2" d="M184.03,-242.66C227.45,-238.45 285.54,-234 337,-234 337,-234 337,-234 814.5,-234 920.21,-234 1034.52,-290.97 1092.96,-324.71"/>
<polygon fill="#455a64" stroke="#455a64" points="1091.17,-327.72 1101.56,-329.76 1094.71,-321.68 1091.17,-327.72"/>
</g>
<!-- NoReport -->
<g id="node17" class="node">
<title>NoReport</title>
<path fill="#f5f5f5" stroke="#546e7a" d="M199.25,-214C199.25,-214 34.75,-214 34.75,-214 28.75,-214 22.75,-208 22.75,-202 22.75,-202 22.75,-190 22.75,-190 22.75,-184 28.75,-178 34.75,-178 34.75,-178 199.25,-178 199.25,-178 205.25,-178 211.25,-184 211.25,-190 211.25,-190 211.25,-202 211.25,-202 211.25,-208 205.25,-214 199.25,-214"/>
<text xml:space="preserve" text-anchor="middle" x="117" y="-192.5" font-family="Arial" font-size="10.00">pas de rapport SourceCandidate encore</text>
</g>
<!-- NoReport&#45;&gt;Candidate -->
<g id="edge17" class="edge">
<title>NoReport&#45;&gt;Candidate</title>
<path fill="none" stroke="#455a64" stroke-dasharray="5,2" d="M211.51,-196C250.33,-196 295.84,-196 337,-196 337,-196 337,-196 814.5,-196 910.98,-196 940.83,-200.75 1025.5,-247 1060.06,-265.87 1091.58,-298.82 1111.26,-322.16"/>
<polygon fill="#455a64" stroke="#455a64" points="1108.43,-324.23 1117.49,-329.72 1113.84,-319.78 1108.43,-324.23"/>
</g>
<!-- NoNetwork -->
<g id="node18" class="node">
<title>NoNetwork</title>
<path fill="#f5f5f5" stroke="#546e7a" d="M173,-430C173,-430 61,-430 61,-430 55,-430 49,-424 49,-418 49,-418 49,-406 49,-406 49,-400 55,-394 61,-394 61,-394 173,-394 173,-394 179,-394 185,-400 185,-406 185,-406 185,-418 185,-418 185,-424 179,-430 173,-430"/>
<text xml:space="preserve" text-anchor="middle" x="117" y="-408.5" font-family="Arial" font-size="10.00">pas de réseau / GitHub API</text>
</g>
<!-- NoNetwork&#45;&gt;FutureGitHub -->
<g id="edge18" class="edge">
<title>NoNetwork&#45;&gt;FutureGitHub</title>
<path fill="none" stroke="#455a64" stroke-dasharray="5,2" d="M185.49,-412.62C213.43,-412.87 245.66,-413.17 273.19,-413.42"/>
<polygon fill="#455a64" stroke="#455a64" points="273.13,-416.92 283.16,-413.51 273.2,-409.92 273.13,-416.92"/>
</g>
<!-- NoToken -->
<g id="node19" class="node">
<title>NoToken</title>
<path fill="#f5f5f5" stroke="#546e7a" d="M141.12,-484C141.12,-484 92.88,-484 92.88,-484 86.88,-484 80.88,-478 80.88,-472 80.88,-472 80.88,-460 80.88,-460 80.88,-454 86.88,-448 92.88,-448 92.88,-448 141.12,-448 141.12,-448 147.12,-448 153.12,-454 153.12,-460 153.12,-460 153.12,-472 153.12,-472 153.12,-478 147.12,-484 141.12,-484"/>
<text xml:space="preserve" text-anchor="middle" x="117" y="-462.5" font-family="Arial" font-size="10.00">pas de token</text>
</g>
<!-- NoToken&#45;&gt;FutureGitHub -->
<g id="edge19" class="edge">
<title>NoToken&#45;&gt;FutureGitHub</title>
<path fill="none" stroke="#455a64" stroke-dasharray="5,2" d="M153.19,-457.65C185.61,-449.95 234.49,-438.34 273.7,-429.03"/>
<polygon fill="#455a64" stroke="#455a64" points="274.35,-432.47 283.27,-426.76 272.73,-425.66 274.35,-432.47"/>
</g>
<!-- NoScheduler -->
<g id="node20" class="node">
<title>NoScheduler</title>
<path fill="#f5f5f5" stroke="#546e7a" d="M165.5,-52C165.5,-52 68.5,-52 68.5,-52 62.5,-52 56.5,-46 56.5,-40 56.5,-40 56.5,-28 56.5,-28 56.5,-22 62.5,-16 68.5,-16 68.5,-16 165.5,-16 165.5,-16 171.5,-16 177.5,-22 177.5,-28 177.5,-28 177.5,-40 177.5,-40 177.5,-46 171.5,-52 165.5,-52"/>
<text xml:space="preserve" text-anchor="middle" x="117" y="-30.5" font-family="Arial" font-size="10.00">pas de Scheduler vivant</text>
</g>
<!-- NoScheduler&#45;&gt;Transition -->
<g id="edge20" class="edge">
<title>NoScheduler&#45;&gt;Transition</title>
<path fill="none" stroke="#455a64" stroke-dasharray="5,2" d="M177.87,-40.74C221.84,-45.11 283.06,-50 337,-50 337,-50 337,-50 1439.75,-50 1590.39,-50 1689.64,-245.27 1722.18,-320.2"/>
<polygon fill="#455a64" stroke="#455a64" points="1718.94,-321.52 1726.07,-329.35 1725.38,-318.78 1718.94,-321.52"/>
</g>
<!-- NoQdrant -->
<g id="node21" class="node">
<title>NoQdrant</title>
<path fill="#f5f5f5" stroke="#546e7a" d="M143.75,-160C143.75,-160 90.25,-160 90.25,-160 84.25,-160 78.25,-154 78.25,-148 78.25,-148 78.25,-136 78.25,-136 78.25,-130 84.25,-124 90.25,-124 90.25,-124 143.75,-124 143.75,-124 149.75,-124 155.75,-130 155.75,-136 155.75,-136 155.75,-148 155.75,-148 155.75,-154 149.75,-160 143.75,-160"/>
<text xml:space="preserve" text-anchor="middle" x="117" y="-138.5" font-family="Arial" font-size="10.00">pas de Qdrant</text>
</g>
<!-- NoQdrant&#45;&gt;Candidate -->
<g id="edge21" class="edge">
<title>NoQdrant&#45;&gt;Candidate</title>
<path fill="none" stroke="#455a64" stroke-dasharray="5,2" d="M155.97,-144.23C199.63,-146.6 273.46,-150 337,-150 337,-150 337,-150 814.5,-150 910.77,-150 945.52,-145.42 1025.5,-199 1070.91,-229.42 1103.28,-286.12 1119.78,-320.43"/>
<polygon fill="#455a64" stroke="#455a64" points="1116.53,-321.76 1123.93,-329.35 1122.88,-318.8 1116.53,-321.76"/>
</g>
<!-- NoLlm -->
<g id="node22" class="node">
<title>NoLlm</title>
<path fill="#f5f5f5" stroke="#546e7a" d="M138.5,-106C138.5,-106 95.5,-106 95.5,-106 89.5,-106 83.5,-100 83.5,-94 83.5,-94 83.5,-82 83.5,-82 83.5,-76 89.5,-70 95.5,-70 95.5,-70 138.5,-70 138.5,-70 144.5,-70 150.5,-76 150.5,-82 150.5,-82 150.5,-94 150.5,-94 150.5,-100 144.5,-106 138.5,-106"/>
<text xml:space="preserve" text-anchor="middle" x="117" y="-84.5" font-family="Arial" font-size="10.00">pas de LLM</text>
</g>
<!-- NoLlm&#45;&gt;Decision -->
<g id="edge22" class="edge">
<title>NoLlm&#45;&gt;Decision</title>
<path fill="none" stroke="#455a64" stroke-dasharray="5,2" d="M150.64,-89.94C193.42,-92.3 270.8,-96 337,-96 337,-96 337,-96 1134.25,-96 1281.82,-96 1212.21,-275.44 1330.25,-364 1338.62,-370.28 1348.1,-375.62 1357.87,-380.16"/>
<polygon fill="#455a64" stroke="#455a64" points="1356.18,-383.24 1366.75,-383.99 1358.95,-376.81 1356.18,-383.24"/>
</g>
<!-- NoOpenVINO -->
<g id="node23" class="node">
<title>NoOpenVINO</title>
<path fill="#f5f5f5" stroke="#546e7a" d="M163.25,-376C163.25,-376 70.75,-376 70.75,-376 64.75,-376 58.75,-370 58.75,-364 58.75,-364 58.75,-352 58.75,-352 58.75,-346 64.75,-340 70.75,-340 70.75,-340 163.25,-340 163.25,-340 169.25,-340 175.25,-346 175.25,-352 175.25,-352 175.25,-364 175.25,-364 175.25,-370 169.25,-376 163.25,-376"/>
<text xml:space="preserve" text-anchor="middle" x="117" y="-354.5" font-family="Arial" font-size="10.00">pas d&#39;appel OpenVINO</text>
</g>
<!-- NoOpenVINO&#45;&gt;Input -->
<g id="edge23" class="edge">
<title>NoOpenVINO&#45;&gt;Input</title>
<path fill="none" stroke="#455a64" stroke-dasharray="5,2" d="M175.55,-343.56C209.03,-335.19 245.06,-326.24 247,-326 441.57,-302.23 504.49,-277.78 687.5,-348 706.75,-355.39 706.14,-366.61 724.5,-376 729.15,-378.38 734.04,-380.59 739.04,-382.63"/>
<polygon fill="#455a64" stroke="#455a64" points="737.41,-385.76 748,-386.06 739.91,-379.22 737.41,-385.76"/>
</g>
<!-- Stdlib -->
<g id="node24" class="node">
<title>Stdlib</title>
<path fill="#f5f5f5" stroke="#546e7a" d="M151.25,-322C151.25,-322 82.75,-322 82.75,-322 76.75,-322 70.75,-316 70.75,-310 70.75,-310 70.75,-298 70.75,-298 70.75,-292 76.75,-286 82.75,-286 82.75,-286 151.25,-286 151.25,-286 157.25,-286 163.25,-292 163.25,-298 163.25,-298 163.25,-310 163.25,-310 163.25,-316 157.25,-322 151.25,-322"/>
<text xml:space="preserve" text-anchor="middle" x="117" y="-300.5" font-family="Arial" font-size="10.00">stdlib uniquement</text>
</g>
<!-- Stdlib&#45;&gt;Policy -->
<g id="edge24" class="edge">
<title>Stdlib&#45;&gt;Policy</title>
<path fill="none" stroke="#455a64" stroke-dasharray="5,2" d="M163.6,-297.62C260.94,-285.33 495.82,-262.68 687.5,-300 714.16,-305.19 742.46,-315.81 765.37,-325.84"/>
<polygon fill="#455a64" stroke="#455a64" points="763.89,-329.01 774.44,-329.92 766.76,-322.63 763.89,-329.01"/>
</g>
<!-- Global -->
<g id="node25" class="node">
<title>Global</title>
<g id="a_node25"><a xlink:href="../00_global.svg" xlink:title="← Global architecture">
<path fill="#f5f5f5" stroke="none" d="M160.25,-623C160.25,-623 73.75,-623 73.75,-623 67.75,-623 61.75,-617 61.75,-611 61.75,-611 61.75,-599 61.75,-599 61.75,-593 67.75,-587 73.75,-587 73.75,-587 160.25,-587 160.25,-587 166.25,-587 172.25,-593 172.25,-599 172.25,-599 172.25,-611 172.25,-611 172.25,-617 166.25,-623 160.25,-623"/>
<text xml:space="preserve" text-anchor="middle" x="117" y="-601.5" font-family="Arial" font-size="10.00">← Global architecture</text>
</a>
</g>
</g>
<!-- Parent -->
<g id="node26" class="node">
<title>Parent</title>
<g id="a_node26"><a xlink:href="37_local_context_loop_cli.svg" xlink:title="← Local context loop CLI">
<path fill="#f5f5f5" stroke="none" d="M168.5,-677C168.5,-677 65.5,-677 65.5,-677 59.5,-677 53.5,-671 53.5,-665 53.5,-665 53.5,-653 53.5,-653 53.5,-647 59.5,-641 65.5,-641 65.5,-641 168.5,-641 168.5,-641 174.5,-641 180.5,-647 180.5,-653 180.5,-653 180.5,-665 180.5,-665 180.5,-671 174.5,-677 168.5,-677"/>
<text xml:space="preserve" text-anchor="middle" x="117" y="-655.5" font-family="Arial" font-size="10.00">← Local context loop CLI</text>
</a>
</g>
</g>
<!-- Next -->
<g id="node27" class="node">
<title>Next</title>
<g id="a_node27"><a xlink:href="39_source_candidate_storage_report.svg" xlink:title="next: SourceCandidate local storage/report">
<path fill="#f5f5f5" stroke="none" d="M206,-731C206,-731 28,-731 28,-731 22,-731 16,-725 16,-719 16,-719 16,-707 16,-707 16,-701 22,-695 28,-695 28,-695 206,-695 206,-695 212,-695 218,-701 218,-707 218,-707 218,-719 218,-719 218,-725 212,-731 206,-731"/>
<text xml:space="preserve" text-anchor="middle" x="117" y="-709.5" font-family="Arial" font-size="10.00">next: SourceCandidate local storage/report</text>
</a>
</g>
</g>
</g>
</svg>
