<?xml version="1.0" encoding="UTF-8" standalone="no"?>
<!DOCTYPE svg PUBLIC "-//W3C//DTD SVG 1.1//EN"
 "http://www.w3.org/Graphics/SVG/1.1/DTD/svg11.dtd">
<!-- Generated by graphviz version 14.1.3 (20260303.0454)
 -->
<!-- Title: SourceCandidateStorageReport Pages: 1 -->
<svg width="2147pt" height="763pt"
 viewBox="0.00 0.00 2147.00 763.00" xmlns="http://www.w3.org/2000/svg" xmlns:xlink="http://www.w3.org/1999/xlink">
<g id="graph0" class="graph" transform="scale(1 1) rotate(0) translate(4 759)">
<title>SourceCandidateStorageReport</title>
<polygon fill="#ffffff" stroke="none" points="-4,4 -4,-759 2143.25,-759 2143.25,4 -4,4"/>
<text xml:space="preserve" text-anchor="middle" x="1069.62" y="-733.9" font-family="Arial" font-size="18.00">Phase 5.15 — SourceCandidate local storage/report</text>
<g id="clust1" class="cluster">
<title>cluster_contract</title>
<path fill="#e8f5e9" stroke="#c8e6c9" d="M225.25,-317C225.25,-317 790.75,-317 790.75,-317 796.75,-317 802.75,-323 802.75,-329 802.75,-329 802.75,-386 802.75,-386 802.75,-392 796.75,-398 790.75,-398 790.75,-398 225.25,-398 225.25,-398 219.25,-398 213.25,-392 213.25,-386 213.25,-386 213.25,-329 213.25,-329 213.25,-323 219.25,-317 225.25,-317"/>
<text xml:space="preserve" text-anchor="middle" x="508" y="-376.9" font-family="Arial" font-size="18.00">Contrats SourceCandidate existants</text>
</g>
<g id="clust2" class="cluster">
<title>cluster_io</title>
<path fill="#e3f2fd" stroke="#bbdefb" d="M246.62,-124C246.62,-124 2119.25,-124 2119.25,-124 2125.25,-124 2131.25,-130 2131.25,-136 2131.25,-136 2131.25,-267 2131.25,-267 2131.25,-273 2125.25,-279 2119.25,-279 2119.25,-279 246.62,-279 246.62,-279 240.63,-279 234.62,-273 234.62,-267 234.62,-267 234.62,-136 234.62,-136 234.62,-130 240.62,-124 246.62,-124"/>
<text xml:space="preserve" text-anchor="middle" x="1182.94" y="-257.9" font-family="Arial" font-size="18.00">Bordure IO locale explicite</text>
</g>
<g id="clust3" class="cluster">
<title>cluster_boundaries</title>
<path fill="#ffffff" stroke="#b0bec5" stroke-dasharray="5,2" d="M12,-8C12,-8 180.25,-8 180.25,-8 186.25,-8 192.25,-14 192.25,-20 192.25,-20 192.25,-509 192.25,-509 192.25,-515 186.25,-521 180.25,-521 180.25,-521 12,-521 12,-521 6,-521 0,-515 0,-509 0,-509 0,-20 0,-20 0,-14 6,-8 12,-8"/>
<text xml:space="preserve" text-anchor="middle" x="96.12" y="-499.9" font-family="Arial" font-size="18.00">Frontières conservées</text>
</g>
<g id="clust4" class="cluster">
<title>cluster_navigation</title>
<path fill="#ffffff" stroke="#90a4ae" stroke-dasharray="5,2" d="M25.62,-529C25.62,-529 165.62,-529 165.62,-529 171.62,-529 177.62,-535 177.62,-541 177.62,-541 177.62,-706 177.62,-706 177.62,-712 171.62,-718 165.62,-718 165.62,-718 25.62,-718 25.62,-718 19.63,-718 13.62,-712 13.62,-706 13.62,-706 13.62,-541 13.62,-541 13.62,-535 19.62,-529 25.62,-529"/>
<text xml:space="preserve" text-anchor="middle" x="95.62" y="-696.9" font-family="Arial" font-size="18.00">Navigation</text>
</g>
<!-- Candidate -->
<g id="node1" class="node">
<title>Candidate</title>
<path fill="#f5f5f5" stroke="#546e7a" d="M782.75,-361C782.75,-361 627.25,-361 627.25,-361 621.25,-361 615.25,-355 615.25,-349 615.25,-349 615.25,-337 615.25,-337 615.25,-331 621.25,-325 627.25,-325 627.25,-325 782.75,-325 782.75,-325 788.75,-325 794.75,-331 794.75,-337 794.75,-337 794.75,-349 794.75,-349 794.75,-355 788.75,-361 782.75,-361"/>
<text xml:space="preserve" text-anchor="middle" x="705" y="-345.5" font-family="Arial" font-size="10.00">SourceCandidate</text>
<text xml:space="preserve" text-anchor="middle" x="705" y="-333.5" font-family="Arial" font-size="10.00">schema missipy.source_candidate.v1</text>
</g>
<!-- Upsert -->
<g id="node6" class="node">
<title>Upsert</title>
<path fill="#f5f5f5" stroke="#546e7a" d="M1319,-195C1319,-195 1186,-195 1186,-195 1180,-195 1174,-189 1174,-183 1174,-183 1174,-171 1174,-171 1174,-165 1180,-159 1186,-159 1186,-159 1319,-159 1319,-159 1325,-159 1331,-165 1331,-171 1331,-171 1331,-183 1331,-183 1331,-189 1325,-195 1319,-195"/>
<text xml:space="preserve" text-anchor="middle" x="1252.5" y="-179.5" font-family="Arial" font-size="10.00">upsert_source_candidate()</text>
<text xml:space="preserve" text-anchor="middle" x="1252.5" y="-167.5" font-family="Arial" font-size="10.00">insert or replace by candidate_id</text>
</g>
<!-- Candidate&#45;&gt;Upsert -->
<g id="edge1" class="edge">
<title>Candidate&#45;&gt;Upsert</title>
<path fill="none" stroke="#455a64" d="M766.72,-324.52C868.21,-293.64 1071.8,-231.68 1180.03,-198.75"/>
<polygon fill="#455a64" stroke="#455a64" points="1180.84,-202.16 1189.39,-195.9 1178.8,-195.46 1180.84,-202.16"/>
</g>
<!-- Decision -->
<g id="node2" class="node">
<title>Decision</title>
<path fill="#f5f5f5" stroke="#546e7a" d="M426.25,-361C426.25,-361 233.25,-361 233.25,-361 227.25,-361 221.25,-355 221.25,-349 221.25,-349 221.25,-337 221.25,-337 221.25,-331 227.25,-325 233.25,-325 233.25,-325 426.25,-325 426.25,-325 432.25,-325 438.25,-331 438.25,-337 438.25,-337 438.25,-349 438.25,-349 438.25,-355 432.25,-361 426.25,-361"/>
<text xml:space="preserve" text-anchor="middle" x="329.75" y="-345.5" font-family="Arial" font-size="10.00">SourceCandidateDecision</text>
<text xml:space="preserve" text-anchor="middle" x="329.75" y="-333.5" font-family="Arial" font-size="10.00">inspect/relaunch/reject/archive/promote/merge</text>
</g>
<!-- Decision&#45;&gt;Candidate -->
<g id="edge2" class="edge">
<title>Decision&#45;&gt;Candidate</title>
<path fill="none" stroke="#455a64" stroke-dasharray="5,2" d="M438.71,-343C490.65,-343 552.55,-343 603.48,-343"/>
<polygon fill="#455a64" stroke="#455a64" points="603.33,-346.5 613.33,-343 603.33,-339.5 603.33,-346.5"/>
<text xml:space="preserve" text-anchor="middle" x="526.75" y="-344.95" font-family="Arial" font-size="9.00">candidate may already be decided</text>
</g>
<!-- StorePolicy -->
<g id="node3" class="node">
<title>StorePolicy</title>
<path fill="#f5f5f5" stroke="#546e7a" d="M404.88,-168C404.88,-168 254.62,-168 254.62,-168 248.62,-168 242.62,-162 242.62,-156 242.62,-156 242.62,-144 242.62,-144 242.62,-138 248.62,-132 254.62,-132 254.62,-132 404.88,-132 404.88,-132 410.88,-132 416.88,-138 416.88,-144 416.88,-144 416.88,-156 416.88,-156 416.88,-162 410.88,-168 404.88,-168"/>
<text xml:space="preserve" text-anchor="middle" x="329.75" y="-152.5" font-family="Arial" font-size="10.00">SourceCandidateStorePolicy</text>
<text xml:space="preserve" text-anchor="middle" x="329.75" y="-140.5" font-family="Arial" font-size="10.00">path + repository=newicody/autodoc</text>
</g>
<!-- Load -->
<g id="node5" class="node">
<title>Load</title>
<path fill="#f5f5f5" stroke="#546e7a" d="M768.12,-212C768.12,-212 641.88,-212 641.88,-212 635.88,-212 629.88,-206 629.88,-200 629.88,-200 629.88,-188 629.88,-188 629.88,-182 635.88,-176 641.88,-176 641.88,-176 768.12,-176 768.12,-176 774.12,-176 780.12,-182 780.12,-188 780.12,-188 780.12,-200 780.12,-200 780.12,-206 774.12,-212 768.12,-212"/>
<text xml:space="preserve" text-anchor="middle" x="705" y="-196.5" font-family="Arial" font-size="10.00">load_source_candidate_store()</text>
<text xml:space="preserve" text-anchor="middle" x="705" y="-184.5" font-family="Arial" font-size="10.00">missing file &#45;&gt; empty snapshot</text>
</g>
<!-- StorePolicy&#45;&gt;Load -->
<g id="edge3" class="edge">
<title>StorePolicy&#45;&gt;Load</title>
<path fill="none" stroke="#455a64" d="M417.32,-160.21C477.71,-167.32 557.95,-176.78 618.18,-183.88"/>
<polygon fill="#455a64" stroke="#455a64" points="617.72,-187.35 628.06,-185.05 618.54,-180.4 617.72,-187.35"/>
</g>
<!-- StorePolicy&#45;&gt;Upsert -->
<g id="edge4" class="edge">
<title>StorePolicy&#45;&gt;Upsert</title>
<path fill="none" stroke="#455a64" d="M417.34,-151.83C550.37,-154.7 813.03,-160.6 1036,-167 1089.34,-168.53 1102.7,-168.44 1156,-171 1158.06,-171.1 1160.14,-171.2 1162.24,-171.31"/>
<polygon fill="#455a64" stroke="#455a64" points="1161.91,-174.8 1172.08,-171.83 1162.28,-167.81 1161.91,-174.8"/>
</g>
<!-- Snapshot -->
<g id="node4" class="node">
<title>Snapshot</title>
<path fill="#f5f5f5" stroke="#546e7a" d="M1024,-212C1024,-212 843.75,-212 843.75,-212 837.75,-212 831.75,-206 831.75,-200 831.75,-200 831.75,-188 831.75,-188 831.75,-182 837.75,-176 843.75,-176 843.75,-176 1024,-176 1024,-176 1030,-176 1036,-182 1036,-188 1036,-188 1036,-200 1036,-200 1036,-206 1030,-212 1024,-212"/>
<text xml:space="preserve" text-anchor="middle" x="933.88" y="-196.5" font-family="Arial" font-size="10.00">SourceCandidateStoreSnapshot</text>
<text xml:space="preserve" text-anchor="middle" x="933.88" y="-184.5" font-family="Arial" font-size="10.00">schema missipy.source_candidate.store.v1</text>
</g>
<!-- Snapshot&#45;&gt;Upsert -->
<g id="edge6" class="edge">
<title>Snapshot&#45;&gt;Upsert</title>
<path fill="none" stroke="#455a64" d="M1036.26,-193.88C1073.9,-193.27 1116.94,-191.89 1156,-189 1158.07,-188.85 1160.16,-188.68 1162.26,-188.5"/>
<polygon fill="#455a64" stroke="#455a64" points="1162.51,-192 1172.14,-187.59 1161.86,-185.03 1162.51,-192"/>
</g>
<!-- Load&#45;&gt;Snapshot -->
<g id="edge5" class="edge">
<title>Load&#45;&gt;Snapshot</title>
<path fill="none" stroke="#455a64" d="M780.6,-194C793.31,-194 806.77,-194 820.21,-194"/>
<polygon fill="#455a64" stroke="#455a64" points="819.96,-197.5 829.96,-194 819.96,-190.5 819.96,-197.5"/>
</g>
<!-- Upsert&#45;&gt;Snapshot -->
<g id="edge7" class="edge">
<title>Upsert&#45;&gt;Snapshot</title>
<path fill="none" stroke="#455a64" d="M1173.58,-176.56C1167.63,-176.53 1161.72,-176.51 1156,-176.5 1110.67,-176.38 1099.21,-173.2 1054,-176.5 1051.94,-176.65 1049.86,-176.82 1047.77,-176.99"/>
<polygon fill="#455a64" stroke="#455a64" points="1047.6,-173.49 1037.98,-177.92 1048.26,-180.46 1047.6,-173.49"/>
<text xml:space="preserve" text-anchor="middle" x="1105" y="-178.45" font-family="Arial" font-size="9.00">new immutable snapshot</text>
</g>
<!-- StoreFile -->
<g id="node7" class="node">
<title>StoreFile</title>
<path fill="#f5f5f5" stroke="#546e7a" d="M2111.25,-183C2111.25,-183 2016.5,-183 2016.5,-183 2010.5,-183 2004.5,-177 2004.5,-171 2004.5,-171 2004.5,-159 2004.5,-159 2004.5,-153 2010.5,-147 2016.5,-147 2016.5,-147 2111.25,-147 2111.25,-147 2117.25,-147 2123.25,-153 2123.25,-159 2123.25,-159 2123.25,-171 2123.25,-171 2123.25,-177 2117.25,-183 2111.25,-183"/>
<text xml:space="preserve" text-anchor="middle" x="2063.88" y="-167.5" font-family="Arial" font-size="10.00">source_candidates.json</text>
<text xml:space="preserve" text-anchor="middle" x="2063.88" y="-155.5" font-family="Arial" font-size="10.00">atomic write</text>
</g>
<!-- Upsert&#45;&gt;StoreFile -->
<g id="edge8" class="edge">
<title>Upsert&#45;&gt;StoreFile</title>
<path fill="none" stroke="#455a64" d="M1304.09,-158.56C1323.76,-152.29 1346.66,-146.1 1368,-143 1594.73,-110.05 1867.28,-138.06 1993.03,-154.74"/>
<polygon fill="#455a64" stroke="#455a64" points="1992.5,-158.2 2002.88,-156.07 1993.43,-151.27 1992.5,-158.2"/>
<text xml:space="preserve" text-anchor="middle" x="1577.88" y="-130.17" font-family="Arial" font-size="9.00">atomic JSON</text>
</g>
<!-- WriteResult -->
<g id="node8" class="node">
<title>WriteResult</title>
<path fill="#f5f5f5" stroke="#546e7a" d="M1521.25,-188C1521.25,-188 1380,-188 1380,-188 1374,-188 1368,-182 1368,-176 1368,-176 1368,-164 1368,-164 1368,-158 1374,-152 1380,-152 1380,-152 1521.25,-152 1521.25,-152 1527.25,-152 1533.25,-158 1533.25,-164 1533.25,-164 1533.25,-176 1533.25,-176 1533.25,-182 1527.25,-188 1521.25,-188"/>
<text xml:space="preserve" text-anchor="middle" x="1450.62" y="-172.5" font-family="Arial" font-size="10.00">SourceCandidateStoreWriteResult</text>
<text xml:space="preserve" text-anchor="middle" x="1450.62" y="-160.5" font-family="Arial" font-size="10.00">inserted/replaced/count</text>
</g>
<!-- Upsert&#45;&gt;WriteResult -->
<g id="edge9" class="edge">
<title>Upsert&#45;&gt;WriteResult</title>
<path fill="none" stroke="#455a64" d="M1331.3,-174.22C1339.53,-173.93 1347.96,-173.63 1356.35,-173.33"/>
<polygon fill="#455a64" stroke="#455a64" points="1356.36,-176.83 1366.22,-172.98 1356.11,-169.84 1356.36,-176.83"/>
</g>
<!-- Report -->
<g id="node10" class="node">
<title>Report</title>
<path fill="#f5f5f5" stroke="#546e7a" d="M1844.75,-205C1844.75,-205 1634.5,-205 1634.5,-205 1628.5,-205 1622.5,-199 1622.5,-193 1622.5,-193 1622.5,-181 1622.5,-181 1622.5,-175 1628.5,-169 1634.5,-169 1634.5,-169 1844.75,-169 1844.75,-169 1850.75,-169 1856.75,-175 1856.75,-181 1856.75,-181 1856.75,-193 1856.75,-193 1856.75,-199 1850.75,-205 1844.75,-205"/>
<text xml:space="preserve" text-anchor="middle" x="1739.62" y="-189.5" font-family="Arial" font-size="10.00">SourceCandidateStoreReport</text>
<text xml:space="preserve" text-anchor="middle" x="1739.62" y="-177.5" font-family="Arial" font-size="10.00">schema missipy.source_candidate.store_report.v1</text>
</g>
<!-- WriteResult&#45;&gt;Report -->
<g id="edge10" class="edge">
<title>WriteResult&#45;&gt;Report</title>
<path fill="none" stroke="#455a64" d="M1533.48,-174.85C1557.62,-176.28 1584.63,-177.88 1610.93,-179.44"/>
<polygon fill="#455a64" stroke="#455a64" points="1610.44,-182.91 1620.63,-180.01 1610.85,-175.93 1610.44,-182.91"/>
</g>
<!-- ReportPolicy -->
<g id="node9" class="node">
<title>ReportPolicy</title>
<path fill="#f5f5f5" stroke="#546e7a" d="M1512.25,-242C1512.25,-242 1389,-242 1389,-242 1383,-242 1377,-236 1377,-230 1377,-230 1377,-218 1377,-218 1377,-212 1383,-206 1389,-206 1389,-206 1512.25,-206 1512.25,-206 1518.25,-206 1524.25,-212 1524.25,-218 1524.25,-218 1524.25,-230 1524.25,-230 1524.25,-236 1518.25,-242 1512.25,-242"/>
<text xml:space="preserve" text-anchor="middle" x="1450.62" y="-226.5" font-family="Arial" font-size="10.00">SourceCandidateReportPolicy</text>
<text xml:space="preserve" text-anchor="middle" x="1450.62" y="-214.5" font-family="Arial" font-size="10.00">optional path</text>
</g>
<!-- ReportPolicy&#45;&gt;Report -->
<g id="edge11" class="edge">
<title>ReportPolicy&#45;&gt;Report</title>
<path fill="none" stroke="#455a64" d="M1524.42,-214.62C1550.7,-211.23 1581.21,-207.29 1610.81,-203.48"/>
<polygon fill="#455a64" stroke="#455a64" points="1611.13,-206.97 1620.6,-202.22 1610.24,-200.02 1611.13,-206.97"/>
</g>
<!-- Report&#45;&gt;StoreFile -->
<g id="edge12" class="edge">
<title>Report&#45;&gt;StoreFile</title>
<path fill="none" stroke="#455a64" stroke-dasharray="5,2" d="M1856.96,-179.06C1902.42,-175.95 1953.03,-172.5 1992.71,-169.79"/>
<polygon fill="#455a64" stroke="#455a64" points="1992.87,-173.29 2002.61,-169.11 1992.4,-166.3 1992.87,-173.29"/>
<text xml:space="preserve" text-anchor="middle" x="1930.62" y="-179.27" font-family="Arial" font-size="9.00">separate optional report file</text>
</g>
<!-- NoDb -->
<g id="node11" class="node">
<title>NoDb</title>
<path fill="#f5f5f5" stroke="#546e7a" d="M144.88,-484C144.88,-484 46.38,-484 46.38,-484 40.38,-484 34.38,-478 34.38,-472 34.38,-472 34.38,-460 34.38,-460 34.38,-454 40.38,-448 46.38,-448 46.38,-448 144.88,-448 144.88,-448 150.88,-448 156.88,-454 156.88,-460 156.88,-460 156.88,-472 156.88,-472 156.88,-478 150.88,-484 144.88,-484"/>
<text xml:space="preserve" text-anchor="middle" x="95.62" y="-462.5" font-family="Arial" font-size="10.00">pas de base de données</text>
</g>
<!-- NoDb&#45;&gt;StoreFile -->
<g id="edge13" class="edge">
<title>NoDb&#45;&gt;StoreFile</title>
<path fill="none" stroke="#455a64" stroke-dasharray="5,2" d="M157.22,-463.58C204.05,-461.91 270.5,-460 328.75,-460 328.75,-460 328.75,-460 1740.62,-460 1897.5,-460 2011.23,-267.44 2049.14,-193.47"/>
<polygon fill="#455a64" stroke="#455a64" points="2052.13,-195.31 2053.5,-184.81 2045.88,-192.17 2052.13,-195.31"/>
</g>
<!-- NoServer -->
<g id="node12" class="node">
<title>NoServer</title>
<path fill="#f5f5f5" stroke="#546e7a" d="M145.62,-430C145.62,-430 45.62,-430 45.62,-430 39.62,-430 33.62,-424 33.62,-418 33.62,-418 33.62,-406 33.62,-406 33.62,-400 39.62,-394 45.62,-394 45.62,-394 145.62,-394 145.62,-394 151.62,-394 157.62,-400 157.62,-406 157.62,-406 157.62,-418 157.62,-418 157.62,-424 151.62,-430 145.62,-430"/>
<text xml:space="preserve" text-anchor="middle" x="95.62" y="-408.5" font-family="Arial" font-size="10.00">pas de serveur / daemon</text>
</g>
<!-- NoServer&#45;&gt;Upsert -->
<g id="edge14" class="edge">
<title>NoServer&#45;&gt;Upsert</title>
<path fill="none" stroke="#455a64" stroke-dasharray="5,2" d="M157.71,-413.63C204.52,-414.73 270.71,-416 328.75,-416 328.75,-416 328.75,-416 934.88,-416 1073.8,-416 1190.37,-267.62 1233.56,-204.69"/>
<polygon fill="#455a64" stroke="#455a64" points="1236.32,-206.86 1239.01,-196.61 1230.52,-202.94 1236.32,-206.86"/>
</g>
<!-- NoWatcher -->
<g id="node13" class="node">
<title>NoWatcher</title>
<path fill="#f5f5f5" stroke="#546e7a" d="M143.38,-214C143.38,-214 47.88,-214 47.88,-214 41.88,-214 35.87,-208 35.87,-202 35.87,-202 35.87,-190 35.87,-190 35.87,-184 41.87,-178 47.87,-178 47.87,-178 143.38,-178 143.38,-178 149.38,-178 155.38,-184 155.38,-190 155.38,-190 155.38,-202 155.38,-202 155.38,-208 149.38,-214 143.38,-214"/>
<text xml:space="preserve" text-anchor="middle" x="95.62" y="-192.5" font-family="Arial" font-size="10.00">pas de watcher / polling</text>
</g>
<!-- NoWatcher&#45;&gt;Load -->
<g id="edge15" class="edge">
<title>NoWatcher&#45;&gt;Load</title>
<path fill="none" stroke="#455a64" stroke-dasharray="5,2" d="M155.69,-195.81C263.66,-195.45 493.26,-194.69 618.38,-194.28"/>
<polygon fill="#455a64" stroke="#455a64" points="618.28,-197.78 628.27,-194.25 618.26,-190.78 618.28,-197.78"/>
</g>
<!-- NoNetwork -->
<g id="node14" class="node">
<title>NoNetwork</title>
<path fill="#f5f5f5" stroke="#546e7a" d="M151.62,-106C151.62,-106 39.62,-106 39.62,-106 33.62,-106 27.62,-100 27.62,-94 27.62,-94 27.62,-82 27.62,-82 27.62,-76 33.62,-70 39.62,-70 39.62,-70 151.62,-70 151.62,-70 157.62,-70 163.62,-76 163.62,-82 163.62,-82 163.62,-94 163.62,-94 163.62,-100 157.62,-106 151.62,-106"/>
<text xml:space="preserve" text-anchor="middle" x="95.62" y="-84.5" font-family="Arial" font-size="10.00">pas de réseau / GitHub API</text>
</g>
<!-- NoNetwork&#45;&gt;StorePolicy -->
<g id="edge16" class="edge">
<title>NoNetwork&#45;&gt;StorePolicy</title>
<path fill="none" stroke="#455a64" stroke-dasharray="5,2" d="M164.08,-106.02C190.55,-113.09 221.14,-121.26 248.71,-128.62"/>
<polygon fill="#455a64" stroke="#455a64" points="247.49,-131.92 258.06,-131.12 249.3,-125.16 247.49,-131.92"/>
</g>
<!-- NoToken -->
<g id="node15" class="node">
<title>NoToken</title>
<path fill="#f5f5f5" stroke="#546e7a" d="M119.75,-160C119.75,-160 71.5,-160 71.5,-160 65.5,-160 59.5,-154 59.5,-148 59.5,-148 59.5,-136 59.5,-136 59.5,-130 65.5,-124 71.5,-124 71.5,-124 119.75,-124 119.75,-124 125.75,-124 131.75,-130 131.75,-136 131.75,-136 131.75,-148 131.75,-148 131.75,-154 125.75,-160 119.75,-160"/>
<text xml:space="preserve" text-anchor="middle" x="95.62" y="-138.5" font-family="Arial" font-size="10.00">pas de token</text>
</g>
<!-- NoToken&#45;&gt;StorePolicy -->
<g id="edge17" class="edge">
<title>NoToken&#45;&gt;StorePolicy</title>
<path fill="none" stroke="#455a64" stroke-dasharray="5,2" d="M132.13,-143.22C158.6,-144.14 196.11,-145.43 231.28,-146.64"/>
<polygon fill="#455a64" stroke="#455a64" points="230.97,-150.13 241.08,-146.98 231.21,-143.14 230.97,-150.13"/>
</g>
<!-- NoQdrant -->
<g id="node16" class="node">
<title>NoQdrant</title>
<path fill="#f5f5f5" stroke="#546e7a" d="M122.38,-268C122.38,-268 68.88,-268 68.88,-268 62.88,-268 56.88,-262 56.88,-256 56.88,-256 56.88,-244 56.88,-244 56.88,-238 62.88,-232 68.88,-232 68.88,-232 122.38,-232 122.38,-232 128.38,-232 134.38,-238 134.38,-244 134.38,-244 134.38,-256 134.38,-256 134.38,-262 128.38,-268 122.38,-268"/>
<text xml:space="preserve" text-anchor="middle" x="95.62" y="-246.5" font-family="Arial" font-size="10.00">pas de Qdrant</text>
</g>
<!-- NoQdrant&#45;&gt;Snapshot -->
<g id="edge18" class="edge">
<title>NoQdrant&#45;&gt;Snapshot</title>
<path fill="none" stroke="#455a64" stroke-dasharray="5,2" d="M134.69,-250.62C240.88,-251.87 549.16,-252.3 802.75,-221 815.9,-219.38 829.7,-217.12 843.19,-214.6"/>
<polygon fill="#455a64" stroke="#455a64" points="843.79,-218.05 852.94,-212.72 842.46,-211.18 843.79,-218.05"/>
</g>
<!-- NoLlm -->
<g id="node17" class="node">
<title>NoLlm</title>
<path fill="#f5f5f5" stroke="#546e7a" d="M117.12,-376C117.12,-376 74.12,-376 74.12,-376 68.12,-376 62.12,-370 62.12,-364 62.12,-364 62.12,-352 62.12,-352 62.12,-346 68.12,-340 74.12,-340 74.12,-340 117.12,-340 117.12,-340 123.12,-340 129.12,-346 129.12,-352 129.12,-352 129.12,-364 129.12,-364 129.12,-370 123.12,-376 117.12,-376"/>
<text xml:space="preserve" text-anchor="middle" x="95.62" y="-354.5" font-family="Arial" font-size="10.00">pas de LLM</text>
</g>
<!-- NoLlm&#45;&gt;Decision -->
<g id="edge19" class="edge">
<title>NoLlm&#45;&gt;Decision</title>
<path fill="none" stroke="#455a64" stroke-dasharray="5,2" d="M129.39,-355.88C150.72,-354.5 179.99,-352.61 209.53,-350.7"/>
<polygon fill="#455a64" stroke="#455a64" points="209.58,-354.21 219.34,-350.07 209.13,-347.22 209.58,-354.21"/>
</g>
<!-- NoOpenVINO -->
<g id="node18" class="node">
<title>NoOpenVINO</title>
<path fill="#f5f5f5" stroke="#546e7a" d="M141.88,-322C141.88,-322 49.38,-322 49.38,-322 43.38,-322 37.38,-316 37.38,-310 37.38,-310 37.38,-298 37.38,-298 37.38,-292 43.38,-286 49.38,-286 49.38,-286 141.88,-286 141.88,-286 147.88,-286 153.88,-292 153.88,-298 153.88,-298 153.88,-310 153.88,-310 153.88,-316 147.88,-322 141.88,-322"/>
<text xml:space="preserve" text-anchor="middle" x="95.62" y="-300.5" font-family="Arial" font-size="10.00">pas d&#39;appel OpenVINO</text>
</g>
<!-- NoOpenVINO&#45;&gt;Candidate -->
<g id="edge20" class="edge">
<title>NoOpenVINO&#45;&gt;Candidate</title>
<path fill="none" stroke="#455a64" stroke-dasharray="5,2" d="M154.11,-304.86C222.05,-306.14 338.48,-309.19 438.25,-316 492.98,-319.74 553.87,-325.79 603.54,-331.21"/>
<polygon fill="#455a64" stroke="#455a64" points="603.11,-334.68 613.43,-332.3 603.87,-327.73 603.11,-334.68"/>
</g>
<!-- Stdlib -->
<g id="node19" class="node">
<title>Stdlib</title>
<path fill="#f5f5f5" stroke="#546e7a" d="M129.88,-52C129.88,-52 61.38,-52 61.38,-52 55.38,-52 49.38,-46 49.38,-40 49.38,-40 49.38,-28 49.38,-28 49.38,-22 55.38,-16 61.38,-16 61.38,-16 129.88,-16 129.88,-16 135.88,-16 141.88,-22 141.88,-28 141.88,-28 141.88,-40 141.88,-40 141.88,-46 135.88,-52 129.88,-52"/>
<text xml:space="preserve" text-anchor="middle" x="95.62" y="-30.5" font-family="Arial" font-size="10.00">stdlib uniquement</text>
</g>
<!-- Stdlib&#45;&gt;StoreFile -->
<g id="edge21" class="edge">
<title>Stdlib&#45;&gt;StoreFile</title>
<path fill="none" stroke="#455a64" stroke-dasharray="5,2" d="M142.33,-40.27C189.07,-46.14 263.83,-54 328.75,-54 328.75,-54 328.75,-54 1740.62,-54 1846.9,-54 1962.68,-108.64 2022.31,-141.25"/>
<polygon fill="#455a64" stroke="#455a64" points="2020.31,-144.14 2030.76,-145.94 2023.71,-138.02 2020.31,-144.14"/>
</g>
<!-- Global -->
<g id="node20" class="node">
<title>Global</title>
<g id="a_node20"><a xlink:href="../00_global.svg" xlink:title="← Global architecture">
<path fill="#f5f5f5" stroke="none" d="M138.88,-573C138.88,-573 52.38,-573 52.38,-573 46.38,-573 40.38,-567 40.38,-561 40.38,-561 40.38,-549 40.38,-549 40.38,-543 46.38,-537 52.38,-537 52.38,-537 138.88,-537 138.88,-537 144.88,-537 150.88,-543 150.88,-549 150.88,-549 150.88,-561 150.88,-561 150.88,-567 144.88,-573 138.88,-573"/>
<text xml:space="preserve" text-anchor="middle" x="95.62" y="-551.5" font-family="Arial" font-size="10.00">← Global architecture</text>
</a>
</g>
</g>
<!-- Parent -->
<g id="node21" class="node">
<title>Parent</title>
<g id="a_node21"><a xlink:href="38_source_candidate_contract.svg" xlink:title="← SourceCandidate contract">
<path fill="#f5f5f5" stroke="none" d="M154.62,-627C154.62,-627 36.62,-627 36.62,-627 30.62,-627 24.62,-621 24.62,-615 24.62,-615 24.62,-603 24.62,-603 24.62,-597 30.62,-591 36.62,-591 36.62,-591 154.62,-591 154.62,-591 160.62,-591 166.62,-597 166.62,-603 166.62,-603 166.62,-615 166.62,-615 166.62,-621 160.62,-627 154.62,-627"/>
<text xml:space="preserve" text-anchor="middle" x="95.62" y="-605.5" font-family="Arial" font-size="10.00">← SourceCandidate contract</text>
</a>
</g>
</g>
<!-- Next -->
<g id="node22" class="node">
<title>Next</title>
<g id="a_node22"><a xlink:href="40_github_projection_design.svg" xlink:title="next: GitHub projection design">
<path fill="#f5f5f5" stroke="none" d="M157.62,-681C157.62,-681 33.62,-681 33.62,-681 27.63,-681 21.62,-675 21.62,-669 21.62,-669 21.62,-657 21.62,-657 21.62,-651 27.62,-645 33.62,-645 33.62,-645 157.62,-645 157.62,-645 163.62,-645 169.62,-651 169.62,-657 169.62,-657 169.62,-669 169.62,-669 169.62,-675 163.62,-681 157.62,-681"/>
<text xml:space="preserve" text-anchor="middle" x="95.62" y="-659.5" font-family="Arial" font-size="10.00">next: GitHub projection design</text>
</a>
</g>
</g>
</g>
</svg>
