<?xml version="1.0" encoding="UTF-8" standalone="no"?>
<!DOCTYPE svg PUBLIC "-//W3C//DTD SVG 1.1//EN"
 "http://www.w3.org/Graphics/SVG/1.1/DTD/svg11.dtd">
<!-- Generated by graphviz version 14.1.3 (20260303.0454)
 -->
<!-- Title: GitHubProjectionDesign Pages: 1 -->
<svg width="1570pt" height="817pt"
 viewBox="0.00 0.00 1570.00 817.00" xmlns="http://www.w3.org/2000/svg" xmlns:xlink="http://www.w3.org/1999/xlink">
<g id="graph0" class="graph" transform="scale(1 1) rotate(0) translate(4 813)">
<title>GitHubProjectionDesign</title>
<polygon fill="#ffffff" stroke="none" points="-4,4 -4,-813 1565.5,-813 1565.5,4 -4,4"/>
<text xml:space="preserve" text-anchor="middle" x="780.75" y="-787.9" font-family="Arial" font-size="18.00">Phase 5.16 — GitHub projection design pour newicody/autodoc</text>
<g id="clust1" class="cluster">
<title>cluster_local_authority</title>
<path fill="#e8f5e9" stroke="#c8e6c9" d="M223.75,-230C223.75,-230 1108.25,-230 1108.25,-230 1114.25,-230 1120.25,-236 1120.25,-242 1120.25,-242 1120.25,-353 1120.25,-353 1120.25,-359 1114.25,-365 1108.25,-365 1108.25,-365 223.75,-365 223.75,-365 217.75,-365 211.75,-359 211.75,-353 211.75,-353 211.75,-242 211.75,-242 211.75,-236 217.75,-230 223.75,-230"/>
<text xml:space="preserve" text-anchor="middle" x="666" y="-343.9" font-family="Arial" font-size="18.00">Autorité locale</text>
</g>
<g id="clust2" class="cluster">
<title>cluster_projection_contract</title>
<path fill="#e3f2fd" stroke="#bbdefb" d="M578,-414C578,-414 1541.5,-414 1541.5,-414 1547.5,-414 1553.5,-420 1553.5,-426 1553.5,-426 1553.5,-491 1553.5,-491 1553.5,-497 1547.5,-503 1541.5,-503 1541.5,-503 578,-503 578,-503 572,-503 566,-497 566,-491 566,-491 566,-426 566,-426 566,-420 572,-414 578,-414"/>
<text xml:space="preserve" text-anchor="middle" x="1059.75" y="-481.9" font-family="Arial" font-size="18.00">Contrat de projection future</text>
</g>
<g id="clust3" class="cluster">
<title>cluster_github_surface</title>
<path fill="#e0f2f1" stroke="#b2dfdb" d="M260.12,-35C260.12,-35 1050.12,-35 1050.12,-35 1056.12,-35 1062.12,-41 1062.12,-47 1062.12,-47 1062.12,-104 1062.12,-104 1062.12,-110 1056.12,-116 1050.12,-116 1050.12,-116 260.12,-116 260.12,-116 254.12,-116 248.12,-110 248.12,-104 248.12,-104 248.12,-47 248.12,-47 248.12,-41 254.12,-35 260.12,-35"/>
<text xml:space="preserve" text-anchor="middle" x="655.12" y="-94.9" font-family="Arial" font-size="18.00">Surface GitHub future</text>
</g>
<g id="clust4" class="cluster">
<title>cluster_boundaries</title>
<path fill="#ffffff" stroke="#b0bec5" stroke-dasharray="5,2" d="M27.88,-8C27.88,-8 170.88,-8 170.88,-8 176.88,-8 182.88,-14 182.88,-20 182.88,-20 182.88,-563 182.88,-563 182.88,-569 176.88,-575 170.88,-575 170.88,-575 27.88,-575 27.88,-575 21.87,-575 15.88,-569 15.88,-563 15.88,-563 15.88,-20 15.88,-20 15.88,-14 21.88,-8 27.88,-8"/>
<text xml:space="preserve" text-anchor="middle" x="99.38" y="-553.9" font-family="Arial" font-size="18.00">Frontières 5.16</text>
</g>
<g id="clust5" class="cluster">
<title>cluster_navigation</title>
<path fill="#ffffff" stroke="#90a4ae" stroke-dasharray="5,2" d="M20,-583C20,-583 178.75,-583 178.75,-583 184.75,-583 190.75,-589 190.75,-595 190.75,-595 190.75,-760 190.75,-760 190.75,-766 184.75,-772 178.75,-772 178.75,-772 20,-772 20,-772 14,-772 8,-766 8,-760 8,-760 8,-595 8,-595 8,-589 14,-583 20,-583"/>
<text xml:space="preserve" text-anchor="middle" x="99.38" y="-750.9" font-family="Arial" font-size="18.00">Navigation</text>
</g>
<!-- Store -->
<g id="node1" class="node">
<title>Store</title>
<path fill="#f5f5f5" stroke="#546e7a" d="M412,-274C412,-274 231.75,-274 231.75,-274 225.75,-274 219.75,-268 219.75,-262 219.75,-262 219.75,-250 219.75,-250 219.75,-244 225.75,-238 231.75,-238 231.75,-238 412,-238 412,-238 418,-238 424,-244 424,-250 424,-250 424,-262 424,-262 424,-268 418,-274 412,-274"/>
<text xml:space="preserve" text-anchor="middle" x="321.88" y="-258.5" font-family="Arial" font-size="10.00">SourceCandidateStoreSnapshot</text>
<text xml:space="preserve" text-anchor="middle" x="321.88" y="-246.5" font-family="Arial" font-size="10.00">schema missipy.source_candidate.store.v1</text>
</g>
<!-- Candidate -->
<g id="node2" class="node">
<title>Candidate</title>
<path fill="#f5f5f5" stroke="#546e7a" d="M749.75,-274C749.75,-274 541.75,-274 541.75,-274 535.75,-274 529.75,-268 529.75,-262 529.75,-262 529.75,-250 529.75,-250 529.75,-244 535.75,-238 541.75,-238 541.75,-238 749.75,-238 749.75,-238 755.75,-238 761.75,-244 761.75,-250 761.75,-250 761.75,-262 761.75,-262 761.75,-268 755.75,-274 749.75,-274"/>
<text xml:space="preserve" text-anchor="middle" x="645.75" y="-258.5" font-family="Arial" font-size="10.00">SourceCandidate</text>
<text xml:space="preserve" text-anchor="middle" x="645.75" y="-246.5" font-family="Arial" font-size="10.00">new/analyzed/rejected/archived/promoted/merged</text>
</g>
<!-- Store&#45;&gt;Candidate -->
<g id="edge1" class="edge">
<title>Store&#45;&gt;Candidate</title>
<path fill="none" stroke="#455a64" d="M424.28,-256C453.98,-256 486.84,-256 517.91,-256"/>
<polygon fill="#455a64" stroke="#455a64" points="517.76,-259.5 527.76,-256 517.76,-252.5 517.76,-259.5"/>
<text xml:space="preserve" text-anchor="middle" x="476.88" y="-257.95" font-family="Arial" font-size="9.00">contains</text>
</g>
<!-- Decision -->
<g id="node3" class="node">
<title>Decision</title>
<path fill="#f5f5f5" stroke="#546e7a" d="M1100.25,-328C1100.25,-328 907.25,-328 907.25,-328 901.25,-328 895.25,-322 895.25,-316 895.25,-316 895.25,-304 895.25,-304 895.25,-298 901.25,-292 907.25,-292 907.25,-292 1100.25,-292 1100.25,-292 1106.25,-292 1112.25,-298 1112.25,-304 1112.25,-304 1112.25,-316 1112.25,-316 1112.25,-322 1106.25,-328 1100.25,-328"/>
<text xml:space="preserve" text-anchor="middle" x="1003.75" y="-312.5" font-family="Arial" font-size="10.00">SourceCandidateDecision</text>
<text xml:space="preserve" text-anchor="middle" x="1003.75" y="-300.5" font-family="Arial" font-size="10.00">inspect/relaunch/reject/archive/promote/merge</text>
</g>
<!-- Candidate&#45;&gt;Decision -->
<g id="edge2" class="edge">
<title>Candidate&#45;&gt;Decision</title>
<path fill="none" stroke="#455a64" stroke-dasharray="5,2" d="M761.96,-248.75C799.08,-248.67 840.19,-250.98 877.25,-258.5 904.97,-264.12 934.31,-275.81 957.64,-286.62"/>
<polygon fill="#455a64" stroke="#455a64" points="956.01,-289.72 966.54,-290.86 959.01,-283.4 956.01,-289.72"/>
<text xml:space="preserve" text-anchor="middle" x="828.5" y="-260.45" font-family="Arial" font-size="9.00">latest decision</text>
</g>
<!-- ProjectionPayload -->
<g id="node6" class="node">
<title>ProjectionPayload</title>
<path fill="#f5f5f5" stroke="#546e7a" d="M1074.75,-458C1074.75,-458 932.75,-458 932.75,-458 926.75,-458 920.75,-452 920.75,-446 920.75,-446 920.75,-434 920.75,-434 920.75,-428 926.75,-422 932.75,-422 932.75,-422 1074.75,-422 1074.75,-422 1080.75,-422 1086.75,-428 1086.75,-434 1086.75,-434 1086.75,-446 1086.75,-446 1086.75,-452 1080.75,-458 1074.75,-458"/>
<text xml:space="preserve" text-anchor="middle" x="1003.75" y="-442.5" font-family="Arial" font-size="10.00">GitHubProjectionPayload</text>
<text xml:space="preserve" text-anchor="middle" x="1003.75" y="-430.5" font-family="Arial" font-size="10.00">status/comment/labels/links future</text>
</g>
<!-- Candidate&#45;&gt;ProjectionPayload -->
<g id="edge3" class="edge">
<title>Candidate&#45;&gt;ProjectionPayload</title>
<path fill="none" stroke="#455a64" d="M762.01,-268.54C814.99,-275.34 868.16,-284.06 877.25,-292.5 902.85,-316.27 875.27,-340.35 895.25,-369 909.04,-388.77 930.28,-404.48 950.24,-416.04"/>
<polygon fill="#455a64" stroke="#455a64" points="948.44,-419.05 958.89,-420.82 951.83,-412.92 948.44,-419.05"/>
<text xml:space="preserve" text-anchor="middle" x="828.5" y="-294.45" font-family="Arial" font-size="9.00">projected fields</text>
</g>
<!-- Decision&#45;&gt;ProjectionPayload -->
<g id="edge4" class="edge">
<title>Decision&#45;&gt;ProjectionPayload</title>
<path fill="none" stroke="#455a64" d="M1003.75,-328.35C1003.75,-349.64 1003.75,-385.05 1003.75,-410.28"/>
<polygon fill="#455a64" stroke="#455a64" points="1000.25,-410.23 1003.75,-420.23 1007.25,-410.23 1000.25,-410.23"/>
<text xml:space="preserve" text-anchor="middle" x="995.5" y="-371.7" font-family="Arial" font-size="9.00">status mapping</text>
</g>
<!-- LocalReport -->
<g id="node4" class="node">
<title>LocalReport</title>
<path fill="#f5f5f5" stroke="#546e7a" d="M390.25,-328C390.25,-328 253.5,-328 253.5,-328 247.5,-328 241.5,-322 241.5,-316 241.5,-316 241.5,-304 241.5,-304 241.5,-298 247.5,-292 253.5,-292 253.5,-292 390.25,-292 390.25,-292 396.25,-292 402.25,-298 402.25,-304 402.25,-304 402.25,-316 402.25,-316 402.25,-322 396.25,-328 390.25,-328"/>
<text xml:space="preserve" text-anchor="middle" x="321.88" y="-312.5" font-family="Arial" font-size="10.00">rapport local</text>
<text xml:space="preserve" text-anchor="middle" x="321.88" y="-300.5" font-family="Arial" font-size="10.00">source_candidate.store_report.v1</text>
</g>
<!-- LocalReport&#45;&gt;ProjectionPayload -->
<g id="edge5" class="edge">
<title>LocalReport&#45;&gt;ProjectionPayload</title>
<path fill="none" stroke="#455a64" stroke-dasharray="5,2" d="M402.53,-312.09C511.7,-316.75 712.97,-331.73 877.25,-380 906.52,-388.6 937.45,-403.32 961.29,-416.03"/>
<polygon fill="#455a64" stroke="#455a64" points="959.59,-419.09 970.05,-420.79 962.93,-412.94 959.59,-419.09"/>
<text xml:space="preserve" text-anchor="middle" x="645.75" y="-352.46" font-family="Arial" font-size="9.00">links / audit data</text>
</g>
<!-- ProjectionPolicy -->
<g id="node5" class="node">
<title>ProjectionPolicy</title>
<path fill="#f5f5f5" stroke="#546e7a" d="M705.5,-466C705.5,-466 586,-466 586,-466 580,-466 574,-460 574,-454 574,-454 574,-434 574,-434 574,-428 580,-422 586,-422 586,-422 705.5,-422 705.5,-422 711.5,-422 717.5,-428 717.5,-434 717.5,-434 717.5,-454 717.5,-454 717.5,-460 711.5,-466 705.5,-466"/>
<text xml:space="preserve" text-anchor="middle" x="645.75" y="-452.5" font-family="Arial" font-size="10.00">GitHubProjectionPolicy</text>
<text xml:space="preserve" text-anchor="middle" x="645.75" y="-440.5" font-family="Arial" font-size="10.00">repository=newicody/autodoc</text>
<text xml:space="preserve" text-anchor="middle" x="645.75" y="-428.5" font-family="Arial" font-size="10.00">mode=documented only</text>
</g>
<!-- ProjectionPolicy&#45;&gt;ProjectionPayload -->
<g id="edge6" class="edge">
<title>ProjectionPolicy&#45;&gt;ProjectionPayload</title>
<path fill="none" stroke="#455a64" d="M717.94,-443.2C772.84,-442.58 849.25,-441.72 909.1,-441.05"/>
<polygon fill="#455a64" stroke="#455a64" points="908.99,-444.55 918.95,-440.94 908.91,-437.55 908.99,-444.55"/>
</g>
<!-- ProjectionResult -->
<g id="node7" class="node">
<title>ProjectionResult</title>
<path fill="#f5f5f5" stroke="#546e7a" d="M1308.25,-458C1308.25,-458 1213.5,-458 1213.5,-458 1207.5,-458 1201.5,-452 1201.5,-446 1201.5,-446 1201.5,-434 1201.5,-434 1201.5,-428 1207.5,-422 1213.5,-422 1213.5,-422 1308.25,-422 1308.25,-422 1314.25,-422 1320.25,-428 1320.25,-434 1320.25,-434 1320.25,-446 1320.25,-446 1320.25,-452 1314.25,-458 1308.25,-458"/>
<text xml:space="preserve" text-anchor="middle" x="1260.88" y="-442.5" font-family="Arial" font-size="10.00">GitHubProjectionResult</text>
<text xml:space="preserve" text-anchor="middle" x="1260.88" y="-430.5" font-family="Arial" font-size="10.00">planned/not_sent</text>
</g>
<!-- ProjectionPayload&#45;&gt;ProjectionResult -->
<g id="edge7" class="edge">
<title>ProjectionPayload&#45;&gt;ProjectionResult</title>
<path fill="none" stroke="#455a64" d="M1087.23,-440C1120.29,-440 1157.99,-440 1189.71,-440"/>
<polygon fill="#455a64" stroke="#455a64" points="1189.59,-443.5 1199.59,-440 1189.59,-436.5 1189.59,-443.5"/>
<text xml:space="preserve" text-anchor="middle" x="1156.88" y="-441.95" font-family="Arial" font-size="9.00">planned only</text>
</g>
<!-- HumanReview -->
<g id="node8" class="node">
<title>HumanReview</title>
<path fill="#f5f5f5" stroke="#546e7a" d="M1533.5,-458C1533.5,-458 1440.25,-458 1440.25,-458 1434.25,-458 1428.25,-452 1428.25,-446 1428.25,-446 1428.25,-434 1428.25,-434 1428.25,-428 1434.25,-422 1440.25,-422 1440.25,-422 1533.5,-422 1533.5,-422 1539.5,-422 1545.5,-428 1545.5,-434 1545.5,-434 1545.5,-446 1545.5,-446 1545.5,-452 1539.5,-458 1533.5,-458"/>
<text xml:space="preserve" text-anchor="middle" x="1486.88" y="-442.5" font-family="Arial" font-size="10.00">validation humaine</text>
<text xml:space="preserve" text-anchor="middle" x="1486.88" y="-430.5" font-family="Arial" font-size="10.00">avant publication future</text>
</g>
<!-- ProjectionResult&#45;&gt;HumanReview -->
<g id="edge8" class="edge">
<title>ProjectionResult&#45;&gt;HumanReview</title>
<path fill="none" stroke="#455a64" d="M1320.73,-440C1350.04,-440 1385.67,-440 1416.32,-440"/>
<polygon fill="#455a64" stroke="#455a64" points="1416.29,-443.5 1426.29,-440 1416.29,-436.5 1416.29,-443.5"/>
<text xml:space="preserve" text-anchor="middle" x="1374.25" y="-441.95" font-family="Arial" font-size="9.00">must be reviewed</text>
</g>
<!-- GitHubFeedback -->
<g id="node11" class="node">
<title>GitHubFeedback</title>
<path fill="#f5f5f5" stroke="#546e7a" d="M375.62,-79C375.62,-79 268.12,-79 268.12,-79 262.12,-79 256.12,-73 256.12,-67 256.12,-67 256.12,-55 256.12,-55 256.12,-49 262.12,-43 268.12,-43 268.12,-43 375.62,-43 375.62,-43 381.62,-43 387.62,-49 387.62,-55 387.62,-55 387.62,-67 387.62,-67 387.62,-73 381.62,-79 375.62,-79"/>
<text xml:space="preserve" text-anchor="middle" x="321.88" y="-63.5" font-family="Arial" font-size="10.00">projection retour</text>
<text xml:space="preserve" text-anchor="middle" x="321.88" y="-51.5" font-family="Arial" font-size="10.00">comment/status/PR future</text>
</g>
<!-- HumanReview&#45;&gt;GitHubFeedback -->
<g id="edge11" class="edge">
<title>HumanReview&#45;&gt;GitHubFeedback</title>
<path fill="none" stroke="#455a64" stroke-dasharray="5,2" d="M1485.02,-421.7C1480.17,-340.16 1449.05,-14 1261.88,-14 644.75,-14 644.75,-14 644.75,-14 560,-14 464,-30.15 399.07,-43.52"/>
<polygon fill="#455a64" stroke="#455a64" points="398.67,-40.02 389.6,-45.5 400.11,-46.88 398.67,-40.02"/>
<text xml:space="preserve" text-anchor="middle" x="1003.75" y="-15.95" font-family="Arial" font-size="9.00">future publish boundary</text>
</g>
<!-- GitHubProject -->
<g id="node9" class="node">
<title>GitHubProject</title>
<path fill="#f5f5f5" stroke="#546e7a" d="M690.12,-79C690.12,-79 601.38,-79 601.38,-79 595.38,-79 589.38,-73 589.38,-67 589.38,-67 589.38,-55 589.38,-55 589.38,-49 595.38,-43 601.38,-43 601.38,-43 690.12,-43 690.12,-43 696.12,-43 702.12,-49 702.12,-55 702.12,-55 702.12,-67 702.12,-67 702.12,-73 696.12,-79 690.12,-79"/>
<text xml:space="preserve" text-anchor="middle" x="645.75" y="-63.5" font-family="Arial" font-size="10.00">GitHub Project</text>
<text xml:space="preserve" text-anchor="middle" x="645.75" y="-51.5" font-family="Arial" font-size="10.00">kanban / issue / ticket</text>
</g>
<!-- GitHubAction -->
<g id="node10" class="node">
<title>GitHubAction</title>
<path fill="#f5f5f5" stroke="#546e7a" d="M1042.12,-79C1042.12,-79 965.38,-79 965.38,-79 959.38,-79 953.38,-73 953.38,-67 953.38,-67 953.38,-55 953.38,-55 953.38,-49 959.38,-43 965.38,-43 965.38,-43 1042.12,-43 1042.12,-43 1048.12,-43 1054.12,-49 1054.12,-55 1054.12,-55 1054.12,-67 1054.12,-67 1054.12,-73 1048.12,-79 1042.12,-79"/>
<text xml:space="preserve" text-anchor="middle" x="1003.75" y="-63.5" font-family="Arial" font-size="10.00">GitHub Action</text>
<text xml:space="preserve" text-anchor="middle" x="1003.75" y="-51.5" font-family="Arial" font-size="10.00">triage artifact future</text>
</g>
<!-- GitHubProject&#45;&gt;GitHubAction -->
<g id="edge9" class="edge">
<title>GitHubProject&#45;&gt;GitHubAction</title>
<path fill="none" stroke="#455a64" stroke-dasharray="5,2" d="M702.38,-61C767.35,-61 874.5,-61 941.72,-61"/>
<polygon fill="#455a64" stroke="#455a64" points="941.46,-64.5 951.46,-61 941.46,-57.5 941.46,-64.5"/>
<text xml:space="preserve" text-anchor="middle" x="828.5" y="-62.95" font-family="Arial" font-size="9.00">future incoming item</text>
</g>
<!-- GitHubAction&#45;&gt;Candidate -->
<g id="edge10" class="edge">
<title>GitHubAction&#45;&gt;Candidate</title>
<path fill="none" stroke="#455a64" stroke-dasharray="5,2" d="M969.09,-79.44C904.28,-114.94 762.25,-192.73 690.33,-232.13"/>
<polygon fill="#455a64" stroke="#455a64" points="688.66,-229.05 681.57,-236.93 692.02,-235.19 688.66,-229.05"/>
<text xml:space="preserve" text-anchor="middle" x="828.5" y="-183.65" font-family="Arial" font-size="9.00">future SourceCandidate</text>
</g>
<!-- GitHubFeedback&#45;&gt;GitHubProject -->
<g id="edge12" class="edge">
<title>GitHubFeedback&#45;&gt;GitHubProject</title>
<path fill="none" stroke="#455a64" stroke-dasharray="5,2" d="M388.01,-61C443.26,-61 522.2,-61 577.93,-61"/>
<polygon fill="#455a64" stroke="#455a64" points="577.59,-64.5 587.59,-61 577.59,-57.5 577.59,-64.5"/>
<text xml:space="preserve" text-anchor="middle" x="476.88" y="-62.95" font-family="Arial" font-size="9.00">future status loop</text>
</g>
<!-- NoApi -->
<g id="node12" class="node">
<title>NoApi</title>
<path fill="#f5f5f5" stroke="#546e7a" d="M133.62,-160C133.62,-160 65.12,-160 65.12,-160 59.12,-160 53.12,-154 53.12,-148 53.12,-148 53.12,-136 53.12,-136 53.12,-130 59.12,-124 65.12,-124 65.12,-124 133.62,-124 133.62,-124 139.62,-124 145.62,-130 145.62,-136 145.62,-136 145.62,-148 145.62,-148 145.62,-154 139.62,-160 133.62,-160"/>
<text xml:space="preserve" text-anchor="middle" x="99.38" y="-138.5" font-family="Arial" font-size="10.00">pas d&#39;API GitHub</text>
</g>
<!-- NoApi&#45;&gt;ProjectionResult -->
<g id="edge13" class="edge">
<title>NoApi&#45;&gt;ProjectionResult</title>
<path fill="none" stroke="#455a64" stroke-dasharray="5,2" d="M145.95,-145.6C190.52,-148.81 260.32,-153 320.88,-153 320.88,-153 320.88,-153 1004.75,-153 1141.75,-153 1223.2,-337.95 1250,-410.91"/>
<polygon fill="#455a64" stroke="#455a64" points="1246.66,-411.95 1253.33,-420.19 1253.25,-409.59 1246.66,-411.95"/>
</g>
<!-- NoToken -->
<g id="node13" class="node">
<title>NoToken</title>
<path fill="#f5f5f5" stroke="#546e7a" d="M123.5,-484C123.5,-484 75.25,-484 75.25,-484 69.25,-484 63.25,-478 63.25,-472 63.25,-472 63.25,-460 63.25,-460 63.25,-454 69.25,-448 75.25,-448 75.25,-448 123.5,-448 123.5,-448 129.5,-448 135.5,-454 135.5,-460 135.5,-460 135.5,-472 135.5,-472 135.5,-478 129.5,-484 123.5,-484"/>
<text xml:space="preserve" text-anchor="middle" x="99.38" y="-462.5" font-family="Arial" font-size="10.00">pas de token</text>
</g>
<!-- NoToken&#45;&gt;ProjectionPolicy -->
<g id="edge14" class="edge">
<title>NoToken&#45;&gt;ProjectionPolicy</title>
<path fill="none" stroke="#455a64" stroke-dasharray="5,2" d="M135.67,-464.57C221.27,-461.11 441.68,-452.21 562.51,-447.32"/>
<polygon fill="#455a64" stroke="#455a64" points="562.52,-450.83 572.37,-446.92 562.24,-443.83 562.52,-450.83"/>
</g>
<!-- NoNetwork -->
<g id="node14" class="node">
<title>NoNetwork</title>
<path fill="#f5f5f5" stroke="#546e7a" d="M126.12,-52C126.12,-52 72.62,-52 72.62,-52 66.62,-52 60.62,-46 60.62,-40 60.62,-40 60.62,-28 60.62,-28 60.62,-22 66.62,-16 72.62,-16 72.62,-16 126.12,-16 126.12,-16 132.12,-16 138.12,-22 138.12,-28 138.12,-28 138.12,-40 138.12,-40 138.12,-46 132.12,-52 126.12,-52"/>
<text xml:space="preserve" text-anchor="middle" x="99.38" y="-30.5" font-family="Arial" font-size="10.00">pas de réseau</text>
</g>
<!-- NoNetwork&#45;&gt;GitHubFeedback -->
<g id="edge15" class="edge">
<title>NoNetwork&#45;&gt;GitHubFeedback</title>
<path fill="none" stroke="#455a64" stroke-dasharray="5,2" d="M138.53,-38.67C167.67,-42.24 208.78,-47.27 244.59,-51.66"/>
<polygon fill="#455a64" stroke="#455a64" points="244.15,-55.13 254.5,-52.87 245,-48.18 244.15,-55.13"/>
</g>
<!-- NoPolling -->
<g id="node15" class="node">
<title>NoPolling</title>
<path fill="#f5f5f5" stroke="#546e7a" d="M125.38,-106C125.38,-106 73.38,-106 73.38,-106 67.38,-106 61.38,-100 61.38,-94 61.38,-94 61.38,-82 61.38,-82 61.38,-76 67.38,-70 73.38,-70 73.38,-70 125.38,-70 125.38,-70 131.38,-70 137.38,-76 137.38,-82 137.38,-82 137.38,-94 137.38,-94 137.38,-100 131.38,-106 125.38,-106"/>
<text xml:space="preserve" text-anchor="middle" x="99.38" y="-84.5" font-family="Arial" font-size="10.00">pas de polling</text>
</g>
<!-- NoPolling&#45;&gt;GitHubAction -->
<g id="edge16" class="edge">
<title>NoPolling&#45;&gt;GitHubAction</title>
<path fill="none" stroke="#455a64" stroke-dasharray="5,2" d="M137.7,-89.35C238.46,-92.71 524.39,-100.3 761.75,-88 823.25,-84.81 893.15,-76.45 941.78,-69.87"/>
<polygon fill="#455a64" stroke="#455a64" points="942.11,-73.36 951.54,-68.53 941.16,-66.42 942.11,-73.36"/>
</g>
<!-- NoServer -->
<g id="node16" class="node">
<title>NoServer</title>
<path fill="#f5f5f5" stroke="#546e7a" d="M149.38,-430C149.38,-430 49.38,-430 49.38,-430 43.37,-430 37.38,-424 37.38,-418 37.38,-418 37.38,-406 37.38,-406 37.38,-400 43.38,-394 49.38,-394 49.38,-394 149.38,-394 149.38,-394 155.38,-394 161.38,-400 161.38,-406 161.38,-406 161.38,-418 161.38,-418 161.38,-424 155.38,-430 149.38,-430"/>
<text xml:space="preserve" text-anchor="middle" x="99.38" y="-408.5" font-family="Arial" font-size="10.00">pas de serveur / daemon</text>
</g>
<!-- NoServer&#45;&gt;ProjectionPayload -->
<g id="edge17" class="edge">
<title>NoServer&#45;&gt;ProjectionPayload</title>
<path fill="none" stroke="#455a64" stroke-dasharray="5,2" d="M161.53,-409.85C278.31,-406.24 541.07,-400.51 761.75,-413 810.47,-415.76 864.48,-421.55 909,-427.07"/>
<polygon fill="#455a64" stroke="#455a64" points="908.54,-430.54 918.9,-428.31 909.41,-423.59 908.54,-430.54"/>
</g>
<!-- NoDb -->
<g id="node17" class="node">
<title>NoDb</title>
<path fill="#f5f5f5" stroke="#546e7a" d="M148.62,-322C148.62,-322 50.12,-322 50.12,-322 44.13,-322 38.12,-316 38.12,-310 38.12,-310 38.12,-298 38.12,-298 38.12,-292 44.12,-286 50.12,-286 50.12,-286 148.62,-286 148.62,-286 154.62,-286 160.62,-292 160.62,-298 160.62,-298 160.62,-310 160.62,-310 160.62,-316 154.62,-322 148.62,-322"/>
<text xml:space="preserve" text-anchor="middle" x="99.38" y="-300.5" font-family="Arial" font-size="10.00">pas de base de données</text>
</g>
<!-- NoDb&#45;&gt;Store -->
<g id="edge18" class="edge">
<title>NoDb&#45;&gt;Store</title>
<path fill="none" stroke="#455a64" stroke-dasharray="5,2" d="M160.92,-290.82C180.77,-286.5 203.34,-281.59 225.14,-276.84"/>
<polygon fill="#455a64" stroke="#455a64" points="225.6,-280.32 234.62,-274.78 224.11,-273.48 225.6,-280.32"/>
</g>
<!-- NoQdrant -->
<g id="node18" class="node">
<title>NoQdrant</title>
<path fill="#f5f5f5" stroke="#546e7a" d="M126.12,-268C126.12,-268 72.62,-268 72.62,-268 66.62,-268 60.62,-262 60.62,-256 60.62,-256 60.62,-244 60.62,-244 60.62,-238 66.62,-232 72.62,-232 72.62,-232 126.12,-232 126.12,-232 132.12,-232 138.12,-238 138.12,-244 138.12,-244 138.12,-256 138.12,-256 138.12,-262 132.12,-268 126.12,-268"/>
<text xml:space="preserve" text-anchor="middle" x="99.38" y="-246.5" font-family="Arial" font-size="10.00">pas de Qdrant</text>
</g>
<!-- NoQdrant&#45;&gt;Store -->
<g id="edge19" class="edge">
<title>NoQdrant&#45;&gt;Store</title>
<path fill="none" stroke="#455a64" stroke-dasharray="5,2" d="M138.53,-251.04C158.18,-251.57 183.27,-252.26 208.51,-252.94"/>
<polygon fill="#455a64" stroke="#455a64" points="208.1,-256.43 218.19,-253.21 208.29,-249.44 208.1,-256.43"/>
</g>
<!-- NoLlm -->
<g id="node19" class="node">
<title>NoLlm</title>
<path fill="#f5f5f5" stroke="#546e7a" d="M120.88,-376C120.88,-376 77.88,-376 77.88,-376 71.88,-376 65.88,-370 65.88,-364 65.88,-364 65.88,-352 65.88,-352 65.88,-346 71.88,-340 77.88,-340 77.88,-340 120.88,-340 120.88,-340 126.88,-340 132.88,-346 132.88,-352 132.88,-352 132.88,-364 132.88,-364 132.88,-370 126.88,-376 120.88,-376"/>
<text xml:space="preserve" text-anchor="middle" x="99.38" y="-354.5" font-family="Arial" font-size="10.00">pas de LLM</text>
</g>
<!-- NoLlm&#45;&gt;Decision -->
<g id="edge20" class="edge">
<title>NoLlm&#45;&gt;Decision</title>
<path fill="none" stroke="#455a64" stroke-dasharray="5,2" d="M133.13,-358.45C229.59,-359.53 521,-360.84 761.75,-342 801.58,-338.88 844.9,-333.7 883.69,-328.4"/>
<polygon fill="#455a64" stroke="#455a64" points="884.12,-331.87 893.54,-327.03 883.16,-324.94 884.12,-331.87"/>
</g>
<!-- NoOpenVINO -->
<g id="node20" class="node">
<title>NoOpenVINO</title>
<path fill="#f5f5f5" stroke="#546e7a" d="M145.62,-214C145.62,-214 53.12,-214 53.12,-214 47.13,-214 41.12,-208 41.12,-202 41.12,-202 41.12,-190 41.12,-190 41.12,-184 47.12,-178 53.12,-178 53.12,-178 145.62,-178 145.62,-178 151.62,-178 157.62,-184 157.62,-190 157.62,-190 157.62,-202 157.62,-202 157.62,-208 151.62,-214 145.62,-214"/>
<text xml:space="preserve" text-anchor="middle" x="99.38" y="-192.5" font-family="Arial" font-size="10.00">pas d&#39;appel OpenVINO</text>
</g>
<!-- NoOpenVINO&#45;&gt;Candidate -->
<g id="edge21" class="edge">
<title>NoOpenVINO&#45;&gt;Candidate</title>
<path fill="none" stroke="#455a64" stroke-dasharray="5,2" d="M157.99,-201.52C222.74,-207.81 330.97,-218.57 424,-229 454.5,-232.42 487.34,-236.32 518.13,-240.07"/>
<polygon fill="#455a64" stroke="#455a64" points="517.52,-243.52 527.87,-241.26 518.37,-236.57 517.52,-243.52"/>
</g>
<!-- Stdlib -->
<g id="node21" class="node">
<title>Stdlib</title>
<path fill="#f5f5f5" stroke="#546e7a" d="M162.88,-538C162.88,-538 35.88,-538 35.88,-538 29.87,-538 23.88,-532 23.88,-526 23.88,-526 23.88,-514 23.88,-514 23.88,-508 29.88,-502 35.88,-502 35.88,-502 162.88,-502 162.88,-502 168.88,-502 174.88,-508 174.88,-514 174.88,-514 174.88,-526 174.88,-526 174.88,-532 168.88,-538 162.88,-538"/>
<text xml:space="preserve" text-anchor="middle" x="99.38" y="-516.5" font-family="Arial" font-size="10.00">aucune dépendance hors stdlib</text>
</g>
<!-- Stdlib&#45;&gt;ProjectionPayload -->
<g id="edge22" class="edge">
<title>Stdlib&#45;&gt;ProjectionPayload</title>
<path fill="none" stroke="#455a64" stroke-dasharray="5,2" d="M174.92,-516.78C297.57,-511.08 549.46,-497.6 761.75,-475 810.58,-469.8 864.72,-462.11 909.29,-455.27"/>
<polygon fill="#455a64" stroke="#455a64" points="909.56,-458.77 918.91,-453.78 908.49,-451.85 909.56,-458.77"/>
</g>
<!-- Global -->
<g id="node22" class="node">
<title>Global</title>
<g id="a_node22"><a xlink:href="../00_global.svg" xlink:title="← Global architecture">
<path fill="#f5f5f5" stroke="none" d="M142.62,-627C142.62,-627 56.12,-627 56.12,-627 50.12,-627 44.12,-621 44.12,-615 44.12,-615 44.12,-603 44.12,-603 44.12,-597 50.12,-591 56.12,-591 56.12,-591 142.62,-591 142.62,-591 148.62,-591 154.62,-597 154.62,-603 154.62,-603 154.62,-615 154.62,-615 154.62,-621 148.62,-627 142.62,-627"/>
<text xml:space="preserve" text-anchor="middle" x="99.38" y="-605.5" font-family="Arial" font-size="10.00">← Global architecture</text>
</a>
</g>
</g>
<!-- Parent -->
<g id="node23" class="node">
<title>Parent</title>
<g id="a_node23"><a xlink:href="39_source_candidate_storage_report.svg" xlink:title="← SourceCandidate storage/report">
<path fill="#f5f5f5" stroke="none" d="M170.75,-681C170.75,-681 28,-681 28,-681 22,-681 16,-675 16,-669 16,-669 16,-657 16,-657 16,-651 22,-645 28,-645 28,-645 170.75,-645 170.75,-645 176.75,-645 182.75,-651 182.75,-657 182.75,-657 182.75,-669 182.75,-669 182.75,-675 176.75,-681 170.75,-681"/>
<text xml:space="preserve" text-anchor="middle" x="99.38" y="-659.5" font-family="Arial" font-size="10.00">← SourceCandidate storage/report</text>
</a>
</g>
</g>
<!-- Next -->
<g id="node24" class="node">
<title>Next</title>
<g id="a_node24"><a xlink:href="41_local_server_boundary.svg" xlink:title="next: Local server boundary">
<path fill="#f5f5f5" stroke="none" d="M155.75,-735C155.75,-735 43,-735 43,-735 37,-735 31,-729 31,-723 31,-723 31,-711 31,-711 31,-705 37,-699 43,-699 43,-699 155.75,-699 155.75,-699 161.75,-699 167.75,-705 167.75,-711 167.75,-711 167.75,-723 167.75,-723 167.75,-729 161.75,-735 155.75,-735"/>
<text xml:space="preserve" text-anchor="middle" x="99.38" y="-713.5" font-family="Arial" font-size="10.00">next: Local server boundary</text>
</a>
</g>
</g>
</g>
</svg>
