<?xml version="1.0" encoding="UTF-8" standalone="no"?>
<!DOCTYPE svg PUBLIC "-//W3C//DTD SVG 1.1//EN"
 "http://www.w3.org/Graphics/SVG/1.1/DTD/svg11.dtd">
<!-- Generated by graphviz version 14.1.3 (20260303.0454)
 -->
<!-- Title: LocalServerBoundary Pages: 1 -->
<svg width="1268pt" height="871pt"
 viewBox="0.00 0.00 1268.00 871.00" xmlns="http://www.w3.org/2000/svg" xmlns:xlink="http://www.w3.org/1999/xlink">
<g id="graph0" class="graph" transform="scale(1 1) rotate(0) translate(4 867)">
<title>LocalServerBoundary</title>
<polygon fill="#ffffff" stroke="none" points="-4,4 -4,-867 1264,-867 1264,4 -4,4"/>
<text xml:space="preserve" text-anchor="middle" x="630" y="-841.9" font-family="Arial" font-size="18.00">Phase 5.17 — Local server boundary contract</text>
<g id="clust1" class="cluster">
<title>cluster_local_inputs</title>
<path fill="#e8f5e9" stroke="#c8e6c9" d="M624.5,-379C624.5,-379 827.25,-379 827.25,-379 833.25,-379 839.25,-385 839.25,-391 839.25,-391 839.25,-610 839.25,-610 839.25,-616 833.25,-622 827.25,-622 827.25,-622 624.5,-622 624.5,-622 618.5,-622 612.5,-616 612.5,-610 612.5,-610 612.5,-391 612.5,-391 612.5,-385 618.5,-379 624.5,-379"/>
<text xml:space="preserve" text-anchor="middle" x="725.88" y="-600.9" font-family="Arial" font-size="18.00">Sources locales existantes</text>
</g>
<g id="clust2" class="cluster">
<title>cluster_boundary_contract</title>
<path fill="#e3f2fd" stroke="#bbdefb" d="M208,-270C208,-270 783.38,-270 783.38,-270 789.38,-270 795.38,-276 795.38,-282 795.38,-282 795.38,-359 795.38,-359 795.38,-365 789.38,-371 783.38,-371 783.38,-371 208,-371 208,-371 202,-371 196,-365 196,-359 196,-359 196,-282 196,-282 196,-276 202,-270 208,-270"/>
<text xml:space="preserve" text-anchor="middle" x="495.69" y="-349.9" font-family="Arial" font-size="18.00">Contrat serveur local futur</text>
</g>
<g id="clust3" class="cluster">
<title>cluster_planned_endpoints</title>
<path fill="#e0f2f1" stroke="#b2dfdb" d="M962,-258C962,-258 1248,-258 1248,-258 1254,-258 1260,-264 1260,-270 1260,-270 1260,-543 1260,-543 1260,-549 1254,-555 1248,-555 1248,-555 962,-555 962,-555 956,-555 950,-549 950,-543 950,-543 950,-270 950,-270 950,-264 956,-258 962,-258"/>
<text xml:space="preserve" text-anchor="middle" x="1105" y="-533.9" font-family="Arial" font-size="18.00">Endpoints planifiés, non implémentés</text>
</g>
<g id="clust4" class="cluster">
<title>cluster_boundaries</title>
<path fill="#ffffff" stroke="#b0bec5" stroke-dasharray="5,2" d="M20,-8C20,-8 163,-8 163,-8 169,-8 175,-14 175,-20 175,-20 175,-617 175,-617 175,-623 169,-629 163,-629 163,-629 20,-629 20,-629 14,-629 8,-623 8,-617 8,-617 8,-20 8,-20 8,-14 14,-8 20,-8"/>
<text xml:space="preserve" text-anchor="middle" x="91.5" y="-607.9" font-family="Arial" font-size="18.00">Frontières 5.17</text>
</g>
<g id="clust5" class="cluster">
<title>cluster_navigation</title>
<path fill="#ffffff" stroke="#90a4ae" stroke-dasharray="5,2" d="M24.88,-637C24.88,-637 158.12,-637 158.12,-637 164.12,-637 170.12,-643 170.12,-649 170.12,-649 170.12,-814 170.12,-814 170.12,-820 164.12,-826 158.12,-826 158.12,-826 24.88,-826 24.88,-826 18.87,-826 12.88,-820 12.88,-814 12.88,-814 12.88,-649 12.88,-649 12.88,-643 18.88,-637 24.88,-637"/>
<text xml:space="preserve" text-anchor="middle" x="91.5" y="-804.9" font-family="Arial" font-size="18.00">Navigation</text>
</g>
<!-- SourceCandidateStore -->
<g id="node1" class="node">
<title>SourceCandidateStore</title>
<path fill="#f5f5f5" stroke="#546e7a" d="M770.5,-585C770.5,-585 680.25,-585 680.25,-585 674.25,-585 668.25,-579 668.25,-573 668.25,-573 668.25,-561 668.25,-561 668.25,-555 674.25,-549 680.25,-549 680.25,-549 770.5,-549 770.5,-549 776.5,-549 782.5,-555 782.5,-561 782.5,-561 782.5,-573 782.5,-573 782.5,-579 776.5,-585 770.5,-585"/>
<text xml:space="preserve" text-anchor="middle" x="725.38" y="-569.5" font-family="Arial" font-size="10.00">SourceCandidateStore</text>
<text xml:space="preserve" text-anchor="middle" x="725.38" y="-557.5" font-family="Arial" font-size="10.00">JSON local explicite</text>
</g>
<!-- CandidateCreate -->
<g id="node9" class="node">
<title>CandidateCreate</title>
<path fill="#f5f5f5" stroke="#546e7a" d="M1156.75,-518C1156.75,-518 1052.25,-518 1052.25,-518 1046.25,-518 1040.25,-512 1040.25,-506 1040.25,-506 1040.25,-494 1040.25,-494 1040.25,-488 1046.25,-482 1052.25,-482 1052.25,-482 1156.75,-482 1156.75,-482 1162.75,-482 1168.75,-488 1168.75,-494 1168.75,-494 1168.75,-506 1168.75,-506 1168.75,-512 1162.75,-518 1156.75,-518"/>
<text xml:space="preserve" text-anchor="middle" x="1104.5" y="-496.5" font-family="Arial" font-size="10.00">POST /source&#45;candidates</text>
</g>
<!-- SourceCandidateStore&#45;&gt;CandidateCreate -->
<g id="edge1" class="edge">
<title>SourceCandidateStore&#45;&gt;CandidateCreate</title>
<path fill="none" stroke="#455a64" stroke-dasharray="5,2" d="M782.83,-556.97C848.27,-545.34 956.36,-526.14 1028.73,-513.28"/>
<polygon fill="#455a64" stroke="#455a64" points="1029.31,-516.74 1038.54,-511.54 1028.08,-509.84 1029.31,-516.74"/>
<text xml:space="preserve" text-anchor="middle" x="894.62" y="-545.37" font-family="Arial" font-size="9.00">future explicit write</text>
</g>
<!-- CandidateDecision -->
<g id="node10" class="node">
<title>CandidateDecision</title>
<path fill="#f5f5f5" stroke="#546e7a" d="M1184.5,-464C1184.5,-464 1024.5,-464 1024.5,-464 1018.5,-464 1012.5,-458 1012.5,-452 1012.5,-452 1012.5,-440 1012.5,-440 1012.5,-434 1018.5,-428 1024.5,-428 1024.5,-428 1184.5,-428 1184.5,-428 1190.5,-428 1196.5,-434 1196.5,-440 1196.5,-440 1196.5,-452 1196.5,-452 1196.5,-458 1190.5,-464 1184.5,-464"/>
<text xml:space="preserve" text-anchor="middle" x="1104.5" y="-442.5" font-family="Arial" font-size="10.00">POST /source&#45;candidates/{id}/decision</text>
</g>
<!-- SourceCandidateStore&#45;&gt;CandidateDecision -->
<g id="edge2" class="edge">
<title>SourceCandidateStore&#45;&gt;CandidateDecision</title>
<path fill="none" stroke="#455a64" stroke-dasharray="5,2" d="M782.94,-564.09C802.67,-560.52 823.74,-553.49 839.25,-540 848.43,-532.01 840.72,-523.18 849.25,-514.5 883.2,-479.97 903.49,-486.5 950,-473 966.31,-468.27 983.84,-464.23 1001.03,-460.84"/>
<polygon fill="#455a64" stroke="#455a64" points="1001.6,-464.29 1010.76,-458.98 1000.29,-457.42 1001.6,-464.29"/>
<text xml:space="preserve" text-anchor="middle" x="894.62" y="-516.45" font-family="Arial" font-size="9.00">future explicit decision</text>
</g>
<!-- ContextEngine -->
<g id="node2" class="node">
<title>ContextEngine</title>
<path fill="#f5f5f5" stroke="#546e7a" d="M761.5,-423C761.5,-423 689.25,-423 689.25,-423 683.25,-423 677.25,-417 677.25,-411 677.25,-411 677.25,-399 677.25,-399 677.25,-393 683.25,-387 689.25,-387 689.25,-387 761.5,-387 761.5,-387 767.5,-387 773.5,-393 773.5,-399 773.5,-399 773.5,-411 773.5,-411 773.5,-417 767.5,-423 761.5,-423"/>
<text xml:space="preserve" text-anchor="middle" x="725.38" y="-407.5" font-family="Arial" font-size="10.00">ContextEngine</text>
<text xml:space="preserve" text-anchor="middle" x="725.38" y="-395.5" font-family="Arial" font-size="10.00">intake E5 explicite</text>
</g>
<!-- E5Intake -->
<g id="node11" class="node">
<title>E5Intake</title>
<path fill="#f5f5f5" stroke="#546e7a" d="M1154.5,-302C1154.5,-302 1054.5,-302 1054.5,-302 1048.5,-302 1042.5,-296 1042.5,-290 1042.5,-290 1042.5,-278 1042.5,-278 1042.5,-272 1048.5,-266 1054.5,-266 1054.5,-266 1154.5,-266 1154.5,-266 1160.5,-266 1166.5,-272 1166.5,-278 1166.5,-278 1166.5,-290 1166.5,-290 1166.5,-296 1160.5,-302 1154.5,-302"/>
<text xml:space="preserve" text-anchor="middle" x="1104.5" y="-280.5" font-family="Arial" font-size="10.00">POST /context/e5/intake</text>
</g>
<!-- ContextEngine&#45;&gt;E5Intake -->
<g id="edge3" class="edge">
<title>ContextEngine&#45;&gt;E5Intake</title>
<path fill="none" stroke="#455a64" stroke-dasharray="5,2" d="M773.95,-403.57C796.69,-400.38 822.54,-392.68 839.25,-375 854.37,-359 833.4,-341.77 849.25,-326.5 896.75,-280.76 973.8,-273.59 1030.65,-275.75"/>
<polygon fill="#455a64" stroke="#455a64" points="1030.42,-279.24 1040.58,-276.24 1030.77,-272.25 1030.42,-279.24"/>
<text xml:space="preserve" text-anchor="middle" x="894.62" y="-328.45" font-family="Arial" font-size="9.00">future explicit intake</text>
</g>
<!-- E5Status -->
<g id="node3" class="node">
<title>E5Status</title>
<path fill="#f5f5f5" stroke="#546e7a" d="M773.88,-531C773.88,-531 676.88,-531 676.88,-531 670.88,-531 664.88,-525 664.88,-519 664.88,-519 664.88,-507 664.88,-507 664.88,-501 670.88,-495 676.88,-495 676.88,-495 773.88,-495 773.88,-495 779.88,-495 785.88,-501 785.88,-507 785.88,-507 785.88,-519 785.88,-519 785.88,-525 779.88,-531 773.88,-531"/>
<text xml:space="preserve" text-anchor="middle" x="725.38" y="-515.5" font-family="Arial" font-size="10.00">E5ContextEngineStatus</text>
<text xml:space="preserve" text-anchor="middle" x="725.38" y="-503.5" font-family="Arial" font-size="10.00">projection passive</text>
</g>
<!-- Status -->
<g id="node8" class="node">
<title>Status</title>
<path fill="#f5f5f5" stroke="#546e7a" d="M1127.12,-410C1127.12,-410 1081.88,-410 1081.88,-410 1075.88,-410 1069.88,-404 1069.88,-398 1069.88,-398 1069.88,-386 1069.88,-386 1069.88,-380 1075.88,-374 1081.88,-374 1081.88,-374 1127.12,-374 1127.12,-374 1133.12,-374 1139.12,-380 1139.12,-386 1139.12,-386 1139.12,-398 1139.12,-398 1139.12,-404 1133.12,-410 1127.12,-410"/>
<text xml:space="preserve" text-anchor="middle" x="1104.5" y="-388.5" font-family="Arial" font-size="10.00">GET /status</text>
</g>
<!-- E5Status&#45;&gt;Status -->
<g id="edge4" class="edge">
<title>E5Status&#45;&gt;Status</title>
<path fill="none" stroke="#455a64" stroke-dasharray="5,2" d="M786.33,-509.3C805.03,-505.54 824.57,-498.59 839.25,-486 848.18,-478.34 840.98,-469.86 849.25,-461.5 883.41,-426.94 903.38,-432.74 950,-419 985.67,-408.48 1027.29,-401.48 1058.18,-397.24"/>
<polygon fill="#455a64" stroke="#455a64" points="1058.5,-400.73 1067.96,-395.95 1057.59,-393.79 1058.5,-400.73"/>
<text xml:space="preserve" text-anchor="middle" x="894.62" y="-463.45" font-family="Arial" font-size="9.00">future status read</text>
</g>
<!-- Reports -->
<g id="node4" class="node">
<title>Reports</title>
<path fill="#f5f5f5" stroke="#546e7a" d="M751.38,-477C751.38,-477 699.38,-477 699.38,-477 693.38,-477 687.38,-471 687.38,-465 687.38,-465 687.38,-453 687.38,-453 687.38,-447 693.38,-441 699.38,-441 699.38,-441 751.38,-441 751.38,-441 757.38,-441 763.38,-447 763.38,-453 763.38,-453 763.38,-465 763.38,-465 763.38,-471 757.38,-477 751.38,-477"/>
<text xml:space="preserve" text-anchor="middle" x="725.38" y="-461.5" font-family="Arial" font-size="10.00">reports JSON</text>
<text xml:space="preserve" text-anchor="middle" x="725.38" y="-449.5" font-family="Arial" font-size="10.00">locaux</text>
</g>
<!-- ReportGet -->
<g id="node12" class="node">
<title>ReportGet</title>
<path fill="#f5f5f5" stroke="#546e7a" d="M1136.88,-356C1136.88,-356 1072.12,-356 1072.12,-356 1066.12,-356 1060.12,-350 1060.12,-344 1060.12,-344 1060.12,-332 1060.12,-332 1060.12,-326 1066.12,-320 1072.12,-320 1072.12,-320 1136.88,-320 1136.88,-320 1142.88,-320 1148.88,-326 1148.88,-332 1148.88,-332 1148.88,-344 1148.88,-344 1148.88,-350 1142.88,-356 1136.88,-356"/>
<text xml:space="preserve" text-anchor="middle" x="1104.5" y="-334.5" font-family="Arial" font-size="10.00">GET /reports/{id}</text>
</g>
<!-- Reports&#45;&gt;ReportGet -->
<g id="edge5" class="edge">
<title>Reports&#45;&gt;ReportGet</title>
<path fill="none" stroke="#455a64" stroke-dasharray="5,2" d="M763.82,-458.53C787.89,-456.35 818.45,-449.84 839.25,-432 848.18,-424.34 840.98,-415.86 849.25,-407.5 883.41,-372.94 903.38,-378.74 950,-365 982.08,-355.54 1018.96,-348.93 1048.53,-344.61"/>
<polygon fill="#455a64" stroke="#455a64" points="1048.98,-348.08 1058.39,-343.22 1048,-341.15 1048.98,-348.08"/>
<text xml:space="preserve" text-anchor="middle" x="894.62" y="-409.45" font-family="Arial" font-size="9.00">future report read</text>
</g>
<!-- Policy -->
<g id="node5" class="node">
<title>Policy</title>
<path fill="#f5f5f5" stroke="#546e7a" d="M335.5,-334C335.5,-334 216,-334 216,-334 210,-334 204,-328 204,-322 204,-322 204,-290 204,-290 204,-284 210,-278 216,-278 216,-278 335.5,-278 335.5,-278 341.5,-278 347.5,-284 347.5,-290 347.5,-290 347.5,-322 347.5,-322 347.5,-328 341.5,-334 335.5,-334"/>
<text xml:space="preserve" text-anchor="middle" x="275.75" y="-320.5" font-family="Arial" font-size="10.00">LocalServerBoundaryPolicy</text>
<text xml:space="preserve" text-anchor="middle" x="275.75" y="-308.5" font-family="Arial" font-size="10.00">repository=newicody/autodoc</text>
<text xml:space="preserve" text-anchor="middle" x="275.75" y="-296.5" font-family="Arial" font-size="10.00">bind_host=127.0.0.1</text>
<text xml:space="preserve" text-anchor="middle" x="275.75" y="-284.5" font-family="Arial" font-size="10.00">contract_only</text>
</g>
<!-- Boundary -->
<g id="node6" class="node">
<title>Boundary</title>
<path fill="#f5f5f5" stroke="#546e7a" d="M570,-324C570,-324 396.5,-324 396.5,-324 390.5,-324 384.5,-318 384.5,-312 384.5,-312 384.5,-300 384.5,-300 384.5,-294 390.5,-288 396.5,-288 396.5,-288 570,-288 570,-288 576,-288 582,-294 582,-300 582,-300 582,-312 582,-312 582,-318 576,-324 570,-324"/>
<text xml:space="preserve" text-anchor="middle" x="483.25" y="-308.5" font-family="Arial" font-size="10.00">LocalServerBoundary</text>
<text xml:space="preserve" text-anchor="middle" x="483.25" y="-296.5" font-family="Arial" font-size="10.00">schema missipy.local_server.boundary.v1</text>
</g>
<!-- Policy&#45;&gt;Boundary -->
<g id="edge6" class="edge">
<title>Policy&#45;&gt;Boundary</title>
<path fill="none" stroke="#455a64" d="M347.76,-306C355.81,-306 364.16,-306 372.57,-306"/>
<polygon fill="#455a64" stroke="#455a64" points="372.53,-309.5 382.53,-306 372.53,-302.5 372.53,-309.5"/>
</g>
<!-- Endpoints -->
<g id="node7" class="node">
<title>Endpoints</title>
<path fill="#f5f5f5" stroke="#546e7a" d="M775.38,-334C775.38,-334 675.38,-334 675.38,-334 669.38,-334 663.38,-328 663.38,-322 663.38,-322 663.38,-310 663.38,-310 663.38,-304 669.38,-298 675.38,-298 675.38,-298 775.38,-298 775.38,-298 781.38,-298 787.38,-304 787.38,-310 787.38,-310 787.38,-322 787.38,-322 787.38,-328 781.38,-334 775.38,-334"/>
<text xml:space="preserve" text-anchor="middle" x="725.38" y="-318.5" font-family="Arial" font-size="10.00">LocalServerEndpoint[]</text>
<text xml:space="preserve" text-anchor="middle" x="725.38" y="-306.5" font-family="Arial" font-size="10.00">GET/POST planned only</text>
</g>
<!-- Boundary&#45;&gt;Endpoints -->
<g id="edge7" class="edge">
<title>Boundary&#45;&gt;Endpoints</title>
<path fill="none" stroke="#455a64" d="M582.26,-310.08C605.57,-311.05 630.01,-312.07 651.94,-312.98"/>
<polygon fill="#455a64" stroke="#455a64" points="651.5,-316.47 661.64,-313.39 651.79,-309.47 651.5,-316.47"/>
</g>
<!-- Endpoints&#45;&gt;Status -->
<g id="edge8" class="edge">
<title>Endpoints&#45;&gt;Status</title>
<path fill="none" stroke="#455a64" d="M759.42,-334.49C783.54,-347.06 817.45,-362.82 849.25,-371 920.68,-389.36 1006.77,-392.72 1058.22,-392.83"/>
<polygon fill="#455a64" stroke="#455a64" points="1058.08,-396.33 1068.07,-392.8 1058.06,-389.33 1058.08,-396.33"/>
</g>
<!-- Endpoints&#45;&gt;CandidateCreate -->
<g id="edge9" class="edge">
<title>Endpoints&#45;&gt;CandidateCreate</title>
<path fill="none" stroke="#455a64" d="M787.07,-334.4C806.87,-343.45 826.92,-356.51 839.25,-375 853.36,-396.16 830.87,-471.42 849.25,-489 874.15,-512.82 963.09,-511.7 1028.79,-507.18"/>
<polygon fill="#455a64" stroke="#455a64" points="1028.72,-510.7 1038.43,-506.48 1028.21,-503.72 1028.72,-510.7"/>
</g>
<!-- Endpoints&#45;&gt;CandidateDecision -->
<g id="edge10" class="edge">
<title>Endpoints&#45;&gt;CandidateDecision</title>
<path fill="none" stroke="#455a64" d="M784.67,-334.38C804.84,-343.52 825.75,-356.66 839.25,-375 853.98,-395.01 830.68,-413.49 849.25,-430 892.45,-468.42 957.81,-471.78 1011.44,-465.86"/>
<polygon fill="#455a64" stroke="#455a64" points="1011.7,-469.36 1021.2,-464.65 1010.84,-462.41 1011.7,-469.36"/>
</g>
<!-- Endpoints&#45;&gt;E5Intake -->
<g id="edge11" class="edge">
<title>Endpoints&#45;&gt;E5Intake</title>
<path fill="none" stroke="#455a64" d="M778.91,-297.57C800.42,-290.94 825.74,-284.28 849.25,-281 910.01,-272.51 979.74,-274.13 1030.79,-277.37"/>
<polygon fill="#455a64" stroke="#455a64" points="1030.32,-280.85 1040.53,-278.03 1030.79,-273.87 1030.32,-280.85"/>
</g>
<!-- Endpoints&#45;&gt;ReportGet -->
<g id="edge12" class="edge">
<title>Endpoints&#45;&gt;ReportGet</title>
<path fill="none" stroke="#455a64" d="M787.81,-319.58C860.17,-323.8 979.28,-330.75 1048.66,-334.8"/>
<polygon fill="#455a64" stroke="#455a64" points="1048.07,-338.27 1058.25,-335.36 1048.47,-331.28 1048.07,-338.27"/>
</g>
<!-- NoServer -->
<g id="node13" class="node">
<title>NoServer</title>
<path fill="#f5f5f5" stroke="#546e7a" d="M146.38,-268C146.38,-268 36.62,-268 36.62,-268 30.62,-268 24.62,-262 24.62,-256 24.62,-256 24.62,-244 24.62,-244 24.62,-238 30.62,-232 36.62,-232 36.62,-232 146.38,-232 146.38,-232 152.38,-232 158.38,-238 158.38,-244 158.38,-244 158.38,-256 158.38,-256 158.38,-262 152.38,-268 146.38,-268"/>
<text xml:space="preserve" text-anchor="middle" x="91.5" y="-246.5" font-family="Arial" font-size="10.00">pas de serveur implémenté</text>
</g>
<!-- NoServer&#45;&gt;Boundary -->
<g id="edge13" class="edge">
<title>NoServer&#45;&gt;Boundary</title>
<path fill="none" stroke="#455a64" stroke-dasharray="5,2" d="M158.71,-251.42C210.43,-253.38 283.96,-258.02 347.5,-269 369.38,-272.78 392.85,-278.59 413.96,-284.49"/>
<polygon fill="#455a64" stroke="#455a64" points="412.74,-287.78 423.31,-287.16 414.66,-281.05 412.74,-287.78"/>
</g>
<!-- NoSocket -->
<g id="node14" class="node">
<title>NoSocket</title>
<path fill="#f5f5f5" stroke="#546e7a" d="M133.25,-214C133.25,-214 49.75,-214 49.75,-214 43.75,-214 37.75,-208 37.75,-202 37.75,-202 37.75,-190 37.75,-190 37.75,-184 43.75,-178 49.75,-178 49.75,-178 133.25,-178 133.25,-178 139.25,-178 145.25,-184 145.25,-190 145.25,-190 145.25,-202 145.25,-202 145.25,-208 139.25,-214 133.25,-214"/>
<text xml:space="preserve" text-anchor="middle" x="91.5" y="-192.5" font-family="Arial" font-size="10.00">pas de socket ouvert</text>
</g>
<!-- NoSocket&#45;&gt;Boundary -->
<g id="edge14" class="edge">
<title>NoSocket&#45;&gt;Boundary</title>
<path fill="none" stroke="#455a64" stroke-dasharray="5,2" d="M145.52,-203.92C197.64,-212.42 279.09,-227.65 347.5,-249 376.88,-258.17 408.65,-271.43 433.95,-282.86"/>
<polygon fill="#455a64" stroke="#455a64" points="432.44,-286.02 442.99,-286.99 435.36,-279.65 432.44,-286.02"/>
</g>
<!-- NoFramework -->
<g id="node15" class="node">
<title>NoFramework</title>
<path fill="#f5f5f5" stroke="#546e7a" d="M128.38,-376C128.38,-376 54.62,-376 54.62,-376 48.62,-376 42.62,-370 42.62,-364 42.62,-364 42.62,-352 42.62,-352 42.62,-346 48.62,-340 54.62,-340 54.62,-340 128.38,-340 128.38,-340 134.38,-340 140.38,-346 140.38,-352 140.38,-352 140.38,-364 140.38,-364 140.38,-370 134.38,-376 128.38,-376"/>
<text xml:space="preserve" text-anchor="middle" x="91.5" y="-354.5" font-family="Arial" font-size="10.00">pas Flask/FastAPI</text>
</g>
<!-- NoFramework&#45;&gt;Policy -->
<g id="edge15" class="edge">
<title>NoFramework&#45;&gt;Policy</title>
<path fill="none" stroke="#455a64" stroke-dasharray="5,2" d="M140.86,-344.2C156.76,-339.67 174.89,-334.49 192.58,-329.45"/>
<polygon fill="#455a64" stroke="#455a64" points="193.4,-332.85 202.05,-326.74 191.47,-326.12 193.4,-332.85"/>
</g>
<!-- NoNetwork -->
<g id="node16" class="node">
<title>NoNetwork</title>
<path fill="#f5f5f5" stroke="#546e7a" d="M118.25,-322C118.25,-322 64.75,-322 64.75,-322 58.75,-322 52.75,-316 52.75,-310 52.75,-310 52.75,-298 52.75,-298 52.75,-292 58.75,-286 64.75,-286 64.75,-286 118.25,-286 118.25,-286 124.25,-286 130.25,-292 130.25,-298 130.25,-298 130.25,-310 130.25,-310 130.25,-316 124.25,-322 118.25,-322"/>
<text xml:space="preserve" text-anchor="middle" x="91.5" y="-300.5" font-family="Arial" font-size="10.00">pas de réseau</text>
</g>
<!-- NoNetwork&#45;&gt;Policy -->
<g id="edge16" class="edge">
<title>NoNetwork&#45;&gt;Policy</title>
<path fill="none" stroke="#455a64" stroke-dasharray="5,2" d="M130.71,-304.42C148.67,-304.62 170.82,-304.86 192.33,-305.1"/>
<polygon fill="#455a64" stroke="#455a64" points="192.28,-308.6 202.32,-305.21 192.36,-301.6 192.28,-308.6"/>
</g>
<!-- NoToken -->
<g id="node17" class="node">
<title>NoToken</title>
<path fill="#f5f5f5" stroke="#546e7a" d="M115.62,-484C115.62,-484 67.38,-484 67.38,-484 61.37,-484 55.38,-478 55.38,-472 55.38,-472 55.38,-460 55.38,-460 55.38,-454 61.38,-448 67.38,-448 67.38,-448 115.62,-448 115.62,-448 121.62,-448 127.62,-454 127.62,-460 127.62,-460 127.62,-472 127.62,-472 127.62,-478 121.62,-484 115.62,-484"/>
<text xml:space="preserve" text-anchor="middle" x="91.5" y="-462.5" font-family="Arial" font-size="10.00">pas de token</text>
</g>
<!-- NoToken&#45;&gt;Policy -->
<g id="edge17" class="edge">
<title>NoToken&#45;&gt;Policy</title>
<path fill="none" stroke="#455a64" stroke-dasharray="5,2" d="M128.01,-459.42C143.46,-455.34 161.16,-448.92 175,-439 209.67,-414.15 237.56,-373.67 254.94,-343.88"/>
<polygon fill="#455a64" stroke="#455a64" points="257.78,-345.97 259.67,-335.54 251.69,-342.51 257.78,-345.97"/>
</g>
<!-- NoGitHubApi -->
<g id="node18" class="node">
<title>NoGitHubApi</title>
<path fill="#f5f5f5" stroke="#546e7a" d="M125.75,-430C125.75,-430 57.25,-430 57.25,-430 51.25,-430 45.25,-424 45.25,-418 45.25,-418 45.25,-406 45.25,-406 45.25,-400 51.25,-394 57.25,-394 57.25,-394 125.75,-394 125.75,-394 131.75,-394 137.75,-400 137.75,-406 137.75,-406 137.75,-418 137.75,-418 137.75,-424 131.75,-430 125.75,-430"/>
<text xml:space="preserve" text-anchor="middle" x="91.5" y="-408.5" font-family="Arial" font-size="10.00">pas d&#39;API GitHub</text>
</g>
<!-- NoGitHubApi&#45;&gt;Policy -->
<g id="edge18" class="edge">
<title>NoGitHubApi&#45;&gt;Policy</title>
<path fill="none" stroke="#455a64" stroke-dasharray="5,2" d="M138.22,-400.21C150.53,-396.19 163.58,-391.13 175,-385 196.91,-373.23 218.84,-356.53 236.53,-341.52"/>
<polygon fill="#455a64" stroke="#455a64" points="238.44,-344.49 243.72,-335.3 233.86,-339.2 238.44,-344.49"/>
</g>
<!-- NoSchedulerAutoload -->
<g id="node19" class="node">
<title>NoSchedulerAutoload</title>
<path fill="#f5f5f5" stroke="#546e7a" d="M142.25,-52C142.25,-52 40.75,-52 40.75,-52 34.75,-52 28.75,-46 28.75,-40 28.75,-40 28.75,-28 28.75,-28 28.75,-22 34.75,-16 40.75,-16 40.75,-16 142.25,-16 142.25,-16 148.25,-16 154.25,-22 154.25,-28 154.25,-28 154.25,-40 154.25,-40 154.25,-46 148.25,-52 142.25,-52"/>
<text xml:space="preserve" text-anchor="middle" x="91.5" y="-30.5" font-family="Arial" font-size="10.00">pas d&#39;autoload Scheduler</text>
</g>
<!-- NoSchedulerAutoload&#45;&gt;E5Intake -->
<g id="edge19" class="edge">
<title>NoSchedulerAutoload&#45;&gt;E5Intake</title>
<path fill="none" stroke="#455a64" stroke-dasharray="5,2" d="M154.4,-41.63C189.62,-45.34 234.59,-49 274.75,-49 274.75,-49 274.75,-49 726.38,-49 827,-49 854.68,-70.64 940,-124 998.73,-160.73 1053.33,-221.68 1082.16,-256.8"/>
<polygon fill="#455a64" stroke="#455a64" points="1079.29,-258.82 1088.31,-264.38 1084.73,-254.41 1079.29,-258.82"/>
</g>
<!-- NoQdrant -->
<g id="node20" class="node">
<title>NoQdrant</title>
<path fill="#f5f5f5" stroke="#546e7a" d="M118.25,-160C118.25,-160 64.75,-160 64.75,-160 58.75,-160 52.75,-154 52.75,-148 52.75,-148 52.75,-136 52.75,-136 52.75,-130 58.75,-124 64.75,-124 64.75,-124 118.25,-124 118.25,-124 124.25,-124 130.25,-130 130.25,-136 130.25,-136 130.25,-148 130.25,-148 130.25,-154 124.25,-160 118.25,-160"/>
<text xml:space="preserve" text-anchor="middle" x="91.5" y="-138.5" font-family="Arial" font-size="10.00">pas de Qdrant</text>
</g>
<!-- NoQdrant&#45;&gt;Boundary -->
<g id="edge20" class="edge">
<title>NoQdrant&#45;&gt;Boundary</title>
<path fill="none" stroke="#455a64" stroke-dasharray="5,2" d="M130.73,-147.55C181.96,-155.97 274.83,-174.75 347.5,-209 387.15,-227.69 427.24,-258.4 453.26,-280.26"/>
<polygon fill="#455a64" stroke="#455a64" points="450.82,-282.78 460.7,-286.61 455.36,-277.45 450.82,-282.78"/>
</g>
<!-- NoLlm -->
<g id="node21" class="node">
<title>NoLlm</title>
<path fill="#f5f5f5" stroke="#546e7a" d="M113,-592C113,-592 70,-592 70,-592 64,-592 58,-586 58,-580 58,-580 58,-568 58,-568 58,-562 64,-556 70,-556 70,-556 113,-556 113,-556 119,-556 125,-562 125,-568 125,-568 125,-580 125,-580 125,-586 119,-592 113,-592"/>
<text xml:space="preserve" text-anchor="middle" x="91.5" y="-570.5" font-family="Arial" font-size="10.00">pas de LLM</text>
</g>
<!-- NoLlm&#45;&gt;Boundary -->
<g id="edge21" class="edge">
<title>NoLlm&#45;&gt;Boundary</title>
<path fill="none" stroke="#455a64" stroke-dasharray="5,2" d="M125.12,-564.79C140.49,-560.08 158.94,-553.89 175,-547 255.04,-512.65 278.87,-507.63 347.5,-454 393.85,-417.78 437.83,-364.74 462.3,-332.97"/>
<polygon fill="#455a64" stroke="#455a64" points="464.77,-335.5 468.04,-325.42 459.2,-331.26 464.77,-335.5"/>
</g>
<!-- NoOpenVINO -->
<g id="node22" class="node">
<title>NoOpenVINO</title>
<path fill="#f5f5f5" stroke="#546e7a" d="M137.75,-106C137.75,-106 45.25,-106 45.25,-106 39.25,-106 33.25,-100 33.25,-94 33.25,-94 33.25,-82 33.25,-82 33.25,-76 39.25,-70 45.25,-70 45.25,-70 137.75,-70 137.75,-70 143.75,-70 149.75,-76 149.75,-82 149.75,-82 149.75,-94 149.75,-94 149.75,-100 143.75,-106 137.75,-106"/>
<text xml:space="preserve" text-anchor="middle" x="91.5" y="-84.5" font-family="Arial" font-size="10.00">pas d&#39;appel OpenVINO</text>
</g>
<!-- NoOpenVINO&#45;&gt;E5Intake -->
<g id="edge22" class="edge">
<title>NoOpenVINO&#45;&gt;E5Intake</title>
<path fill="none" stroke="#455a64" stroke-dasharray="5,2" d="M149.87,-94.67C185.72,-98.28 232.86,-102 274.75,-102 274.75,-102 274.75,-102 726.38,-102 868.48,-102 1013.44,-208.1 1074.05,-258.28"/>
<polygon fill="#455a64" stroke="#455a64" points="1071.64,-260.83 1081.55,-264.57 1076.13,-255.46 1071.64,-260.83"/>
</g>
<!-- Stdlib -->
<g id="node23" class="node">
<title>Stdlib</title>
<path fill="#f5f5f5" stroke="#546e7a" d="M155,-538C155,-538 28,-538 28,-538 22,-538 16,-532 16,-526 16,-526 16,-514 16,-514 16,-508 22,-502 28,-502 28,-502 155,-502 155,-502 161,-502 167,-508 167,-514 167,-514 167,-526 167,-526 167,-532 161,-538 155,-538"/>
<text xml:space="preserve" text-anchor="middle" x="91.5" y="-516.5" font-family="Arial" font-size="10.00">aucune dépendance hors stdlib</text>
</g>
<!-- Stdlib&#45;&gt;Boundary -->
<g id="edge23" class="edge">
<title>Stdlib&#45;&gt;Boundary</title>
<path fill="none" stroke="#455a64" stroke-dasharray="5,2" d="M153.93,-501.65C161.13,-498.98 168.29,-496.09 175,-493 279.07,-445.08 391.8,-369.79 447.31,-330.98"/>
<polygon fill="#455a64" stroke="#455a64" points="449.27,-333.88 455.44,-325.27 445.24,-328.15 449.27,-333.88"/>
</g>
<!-- Global -->
<g id="node24" class="node">
<title>Global</title>
<g id="a_node24"><a xlink:href="../00_global.svg" xlink:title="← Global architecture">
<path fill="#f5f5f5" stroke="none" d="M134.75,-681C134.75,-681 48.25,-681 48.25,-681 42.25,-681 36.25,-675 36.25,-669 36.25,-669 36.25,-657 36.25,-657 36.25,-651 42.25,-645 48.25,-645 48.25,-645 134.75,-645 134.75,-645 140.75,-645 146.75,-651 146.75,-657 146.75,-657 146.75,-669 146.75,-669 146.75,-675 140.75,-681 134.75,-681"/>
<text xml:space="preserve" text-anchor="middle" x="91.5" y="-659.5" font-family="Arial" font-size="10.00">← Global architecture</text>
</a>
</g>
</g>
<!-- Parent -->
<g id="node25" class="node">
<title>Parent</title>
<g id="a_node25"><a xlink:href="40_github_projection_design.svg" xlink:title="← GitHub projection design">
<path fill="#f5f5f5" stroke="none" d="M147.5,-735C147.5,-735 35.5,-735 35.5,-735 29.5,-735 23.5,-729 23.5,-723 23.5,-723 23.5,-711 23.5,-711 23.5,-705 29.5,-699 35.5,-699 35.5,-699 147.5,-699 147.5,-699 153.5,-699 159.5,-705 159.5,-711 159.5,-711 159.5,-723 159.5,-723 159.5,-729 153.5,-735 147.5,-735"/>
<text xml:space="preserve" text-anchor="middle" x="91.5" y="-713.5" font-family="Arial" font-size="10.00">← GitHub projection design</text>
</a>
</g>
</g>
<!-- Next -->
<g id="node26" class="node">
<title>Next</title>
<path fill="#f5f5f5" stroke="none" d="M150.12,-789C150.12,-789 32.88,-789 32.88,-789 26.88,-789 20.88,-783 20.88,-777 20.88,-777 20.88,-765 20.88,-765 20.88,-759 26.88,-753 32.88,-753 32.88,-753 150.12,-753 150.12,-753 156.12,-753 162.12,-759 162.12,-765 162.12,-765 162.12,-777 162.12,-777 162.12,-783 156.12,-789 150.12,-789"/>
<text xml:space="preserve" text-anchor="middle" x="91.5" y="-767.5" font-family="Arial" font-size="10.00">next: Phase 5 audit / closure</text>
</g>
</g>
</svg>
