<?xml version="1.0" encoding="UTF-8" standalone="no"?>
<!DOCTYPE svg PUBLIC "-//W3C//DTD SVG 1.1//EN"
 "http://www.w3.org/Graphics/SVG/1.1/DTD/svg11.dtd">
<!-- Generated by graphviz version 14.1.3 (20260303.0454)
 -->
<!-- Title: PriorityQueue Pages: 1 -->
<svg width="272pt" height="511pt"
 viewBox="0.00 0.00 272.00 511.00" xmlns="http://www.w3.org/2000/svg" xmlns:xlink="http://www.w3.org/1999/xlink">
<g id="graph0" class="graph" transform="scale(1 1) rotate(0) translate(4 506.5)">
<title>PriorityQueue</title>
<polygon fill="white" stroke="none" points="-4,4 -4,-506.5 267.88,-506.5 267.88,4 -4,4"/>
<!-- ComponentProxy -->
<g id="node1" class="node">
<title>ComponentProxy</title>
<g id="a_node1"><a xlink:href="../component_proxy/14_component_proxy.svg" xlink:title="ComponentProxy">
<path fill="#ede7f6" stroke="#512da8" d="M187.25,-502.5C187.25,-502.5 119.5,-502.5 119.5,-502.5 113.5,-502.5 107.5,-496.5 107.5,-490.5 107.5,-490.5 107.5,-478.5 107.5,-478.5 107.5,-472.5 113.5,-466.5 119.5,-466.5 119.5,-466.5 187.25,-466.5 187.25,-466.5 193.25,-466.5 199.25,-472.5 199.25,-478.5 199.25,-478.5 199.25,-490.5 199.25,-490.5 199.25,-496.5 193.25,-502.5 187.25,-502.5"/>
<text xml:space="preserve" text-anchor="middle" x="153.38" y="-481" font-family="Arial" font-size="10.00">ComponentProxy</text>
</a>
</g>
</g>
<!-- SchedulerEmit -->
<g id="node2" class="node">
<title>SchedulerEmit</title>
<g id="a_node2"><a xlink:href="../10_scheduler.svg" xlink:title="Scheduler.emit(event)">
<path fill="#ede7f6" stroke="#512da8" d="M197,-420C197,-420 109.75,-420 109.75,-420 103.75,-420 97.75,-414 97.75,-408 97.75,-408 97.75,-396 97.75,-396 97.75,-390 103.75,-384 109.75,-384 109.75,-384 197,-384 197,-384 203,-384 209,-390 209,-396 209,-396 209,-408 209,-408 209,-414 203,-420 197,-420"/>
<text xml:space="preserve" text-anchor="middle" x="153.38" y="-398.5" font-family="Arial" font-size="10.00">Scheduler.emit(event)</text>
</a>
</g>
</g>
<!-- ComponentProxy&#45;&gt;SchedulerEmit -->
<g id="edge1" class="edge">
<title>ComponentProxy&#45;&gt;SchedulerEmit</title>
<path fill="none" stroke="black" d="M153.38,-466.03C153.38,-456.01 153.38,-443.18 153.38,-431.71"/>
<polygon fill="black" stroke="black" points="156.88,-431.95 153.38,-421.95 149.88,-431.95 156.88,-431.95"/>
<text xml:space="preserve" text-anchor="middle" x="175.88" y="-439.95" font-family="Arial" font-size="9.00">yield Event</text>
</g>
<!-- PolicyEngine -->
<g id="node3" class="node">
<title>PolicyEngine</title>
<g id="a_node3"><a xlink:href="../10_scheduler.svg" xlink:title="PolicyEngine.decide(event)">
<path fill="#ede7f6" stroke="#512da8" d="M160.62,-337.5C160.62,-337.5 50.12,-337.5 50.12,-337.5 44.13,-337.5 38.12,-331.5 38.12,-325.5 38.12,-325.5 38.12,-313.5 38.12,-313.5 38.12,-307.5 44.12,-301.5 50.12,-301.5 50.12,-301.5 160.62,-301.5 160.62,-301.5 166.62,-301.5 172.62,-307.5 172.62,-313.5 172.62,-313.5 172.62,-325.5 172.62,-325.5 172.62,-331.5 166.62,-337.5 160.62,-337.5"/>
<text xml:space="preserve" text-anchor="middle" x="105.38" y="-316" font-family="Arial" font-size="10.00">PolicyEngine.decide(event)</text>
</a>
</g>
</g>
<!-- SchedulerEmit&#45;&gt;PolicyEngine -->
<g id="edge2" class="edge">
<title>SchedulerEmit&#45;&gt;PolicyEngine</title>
<path fill="none" stroke="black" d="M136.58,-383.72C131.91,-378.32 127.09,-372.17 123.38,-366 120.08,-360.54 117.18,-354.38 114.71,-348.39"/>
<polygon fill="black" stroke="black" points="118.12,-347.51 111.3,-339.4 111.58,-350 118.12,-347.51"/>
<text xml:space="preserve" text-anchor="middle" x="154.88" y="-357.45" font-family="Arial" font-size="9.00">pre&#45;queue gate</text>
</g>
<!-- Telemetry -->
<g id="node7" class="node">
<title>Telemetry</title>
<g id="a_node7"><a xlink:href="../../observability/70_observability.svg" xlink:title="KernelTelemetry\nenqueue/dequeue/latency">
<path fill="#f5f5f5" stroke="#666666" d="M251.88,-172.5C251.88,-172.5 148.88,-172.5 148.88,-172.5 142.88,-172.5 136.88,-166.5 136.88,-160.5 136.88,-160.5 136.88,-148.5 136.88,-148.5 136.88,-142.5 142.88,-136.5 148.88,-136.5 148.88,-136.5 251.88,-136.5 251.88,-136.5 257.88,-136.5 263.88,-142.5 263.88,-148.5 263.88,-148.5 263.88,-160.5 263.88,-160.5 263.88,-166.5 257.88,-172.5 251.88,-172.5"/>
<text xml:space="preserve" text-anchor="middle" x="200.38" y="-157" font-family="Arial" font-size="10.00">KernelTelemetry</text>
<text xml:space="preserve" text-anchor="middle" x="200.38" y="-145" font-family="Arial" font-size="10.00">enqueue/dequeue/latency</text>
</a>
</g>
</g>
<!-- SchedulerEmit&#45;&gt;Telemetry -->
<g id="edge6" class="edge">
<title>SchedulerEmit&#45;&gt;Telemetry</title>
<path fill="none" stroke="black" stroke-dasharray="5,2" d="M174.25,-383.54C179.05,-378.41 183.57,-372.43 186.38,-366 212.76,-305.5 208.93,-225.86 204.36,-184.02"/>
<polygon fill="black" stroke="black" points="207.86,-183.8 203.19,-174.29 200.91,-184.63 207.86,-183.8"/>
<text xml:space="preserve" text-anchor="middle" x="224.99" y="-274.95" font-family="Arial" font-size="9.00">enqueue</text>
</g>
<!-- PriorityQueue -->
<g id="node4" class="node">
<title>PriorityQueue</title>
<path fill="#ede7f6" stroke="#512da8" d="M131,-255C131,-255 79.75,-255 79.75,-255 73.75,-255 67.75,-249 67.75,-243 67.75,-243 67.75,-231 67.75,-231 67.75,-225 73.75,-219 79.75,-219 79.75,-219 131,-219 131,-219 137,-219 143,-225 143,-231 143,-231 143,-243 143,-243 143,-249 137,-255 131,-255"/>
<text xml:space="preserve" text-anchor="middle" x="105.38" y="-233.5" font-family="Arial" font-size="10.00">PriorityQueue</text>
</g>
<!-- PolicyEngine&#45;&gt;PriorityQueue -->
<g id="edge3" class="edge">
<title>PolicyEngine&#45;&gt;PriorityQueue</title>
<path fill="none" stroke="black" d="M105.38,-301.03C105.38,-291.01 105.38,-278.18 105.38,-266.71"/>
<polygon fill="black" stroke="black" points="108.88,-266.95 105.38,-256.95 101.88,-266.95 108.88,-266.95"/>
<text xml:space="preserve" text-anchor="middle" x="121.5" y="-274.95" font-family="Arial" font-size="9.00">allowed</text>
</g>
<!-- Entry -->
<g id="node5" class="node">
<title>Entry</title>
<path fill="#eceff1" stroke="#455a64" d="M106.75,-172.5C106.75,-172.5 12,-172.5 12,-172.5 6,-172.5 0,-166.5 0,-160.5 0,-160.5 0,-148.5 0,-148.5 0,-142.5 6,-136.5 12,-136.5 12,-136.5 106.75,-136.5 106.75,-136.5 112.75,-136.5 118.75,-142.5 118.75,-148.5 118.75,-148.5 118.75,-160.5 118.75,-160.5 118.75,-166.5 112.75,-172.5 106.75,-172.5"/>
<text xml:space="preserve" text-anchor="middle" x="59.38" y="-151" font-family="Arial" font-size="10.00">(priority, counter, event)</text>
</g>
<!-- PriorityQueue&#45;&gt;Entry -->
<g id="edge4" class="edge">
<title>PriorityQueue&#45;&gt;Entry</title>
<path fill="none" stroke="black" d="M95.39,-218.53C89.43,-208.09 81.71,-194.59 74.96,-182.77"/>
<polygon fill="black" stroke="black" points="78.09,-181.19 70.09,-174.25 72.01,-184.67 78.09,-181.19"/>
<text xml:space="preserve" text-anchor="middle" x="97.5" y="-192.45" font-family="Arial" font-size="9.00">stores</text>
</g>
<!-- PriorityQueue&#45;&gt;Telemetry -->
<g id="edge7" class="edge">
<title>PriorityQueue&#45;&gt;Telemetry</title>
<path fill="none" stroke="black" stroke-dasharray="5,2" d="M120.61,-218.78C128.83,-209.92 139.36,-199.18 149.62,-190.5 154.06,-186.75 158.89,-183.02 163.76,-179.47"/>
<polygon fill="black" stroke="black" points="165.67,-182.41 171.81,-173.78 161.63,-176.69 165.67,-182.41"/>
<text xml:space="preserve" text-anchor="middle" x="168" y="-192.45" font-family="Arial" font-size="9.00">dequeue</text>
</g>
<!-- Dispatcher -->
<g id="node6" class="node">
<title>Dispatcher</title>
<g id="a_node6"><a xlink:href="../dispatcher/11_dispatcher.svg" xlink:title="Dispatcher">
<path fill="#ede7f6" stroke="#512da8" d="M79,-90C79,-90 39.75,-90 39.75,-90 33.75,-90 27.75,-84 27.75,-78 27.75,-78 27.75,-66 27.75,-66 27.75,-60 33.75,-54 39.75,-54 39.75,-54 79,-54 79,-54 85,-54 91,-60 91,-66 91,-66 91,-78 91,-78 91,-84 85,-90 79,-90"/>
<text xml:space="preserve" text-anchor="middle" x="59.38" y="-68.5" font-family="Arial" font-size="10.00">Dispatcher</text>
</a>
</g>
</g>
<!-- Entry&#45;&gt;Dispatcher -->
<g id="edge5" class="edge">
<title>Entry&#45;&gt;Dispatcher</title>
<path fill="none" stroke="black" d="M59.38,-136.03C59.38,-126.01 59.38,-113.18 59.38,-101.71"/>
<polygon fill="black" stroke="black" points="62.88,-101.95 59.38,-91.95 55.88,-101.95 62.88,-101.95"/>
<text xml:space="preserve" text-anchor="middle" x="80.38" y="-109.95" font-family="Arial" font-size="9.00">next event</text>
</g>
<!-- Nav_Global -->
<g id="node8" class="node">
<title>Nav_Global</title>
<g id="a_node8"><a xlink:href="../../00_global.svg" xlink:title="Global">
<path fill="lightgrey" stroke="none" d="M74.38,-36C74.38,-36 44.38,-36 44.38,-36 38.38,-36 32.38,-30 32.38,-24 32.38,-24 32.38,-12 32.38,-12 32.38,-6 38.38,0 44.38,0 44.38,0 74.38,0 74.38,0 80.38,0 86.38,-6 86.38,-12 86.38,-12 86.38,-24 86.38,-24 86.38,-30 80.38,-36 74.38,-36"/>
<text xml:space="preserve" text-anchor="middle" x="59.38" y="-14.5" font-family="Arial" font-size="10.00">Global</text>
</a>
</g>
</g>
<!-- Nav_Up -->
<g id="node9" class="node">
<title>Nav_Up</title>
<g id="a_node9"><a xlink:href="../10_scheduler.svg" xlink:title="Up: Scheduler">
<path fill="lightgrey" stroke="none" d="M157.5,-36C157.5,-36 103.25,-36 103.25,-36 97.25,-36 91.25,-30 91.25,-24 91.25,-24 91.25,-12 91.25,-12 91.25,-6 97.25,0 103.25,0 103.25,0 157.5,0 157.5,0 163.5,0 169.5,-6 169.5,-12 169.5,-12 169.5,-24 169.5,-24 169.5,-30 163.5,-36 157.5,-36"/>
<text xml:space="preserve" text-anchor="middle" x="130.38" y="-14.5" font-family="Arial" font-size="10.00">Up: Scheduler</text>
</a>
</g>
</g>
<!-- Nav_Dispatcher -->
<g id="node10" class="node">
<title>Nav_Dispatcher</title>
<g id="a_node10"><a xlink:href="../dispatcher/11_dispatcher.svg" xlink:title="Dispatcher">
<path fill="lightgrey" stroke="none" d="M226,-36C226,-36 186.75,-36 186.75,-36 180.75,-36 174.75,-30 174.75,-24 174.75,-24 174.75,-12 174.75,-12 174.75,-6 180.75,0 186.75,0 186.75,0 226,0 226,0 232,0 238,-6 238,-12 238,-12 238,-24 238,-24 238,-30 232,-36 226,-36"/>
<text xml:space="preserve" text-anchor="middle" x="206.38" y="-14.5" font-family="Arial" font-size="10.00">Dispatcher</text>
</a>
</g>
</g>
</g>
</svg>
