<?xml version="1.0" encoding="UTF-8" standalone="no"?>
<!DOCTYPE svg PUBLIC "-//W3C//DTD SVG 1.1//EN"
 "http://www.w3.org/Graphics/SVG/1.1/DTD/svg11.dtd">
<!-- Generated by graphviz version 14.1.3 (20260303.0454)
 -->
<!-- Title: EventBus Pages: 1 -->
<svg width="524pt" height="260pt"
 viewBox="0.00 0.00 524.00 260.00" xmlns="http://www.w3.org/2000/svg" xmlns:xlink="http://www.w3.org/1999/xlink">
<g id="graph0" class="graph" transform="scale(1 1) rotate(0) translate(4 256)">
<title>EventBus</title>
<polygon fill="white" stroke="none" points="-4,4 -4,-256 519.75,-256 519.75,4 -4,4"/>
<!-- Dispatcher -->
<g id="node1" class="node">
<title>Dispatcher</title>
<g id="a_node1"><a xlink:href="../dispatcher/11_dispatcher.svg" xlink:title="Dispatcher">
<path fill="#ede7f6" stroke="#512da8" d="M83.12,-225C83.12,-225 43.88,-225 43.88,-225 37.88,-225 31.88,-219 31.88,-213 31.88,-213 31.88,-201 31.88,-201 31.88,-195 37.88,-189 43.88,-189 43.88,-189 83.12,-189 83.12,-189 89.12,-189 95.12,-195 95.12,-201 95.12,-201 95.12,-213 95.12,-213 95.12,-219 89.12,-225 83.12,-225"/>
<text xml:space="preserve" text-anchor="middle" x="63.5" y="-203.5" font-family="Arial" font-size="10.00">Dispatcher</text>
</a>
</g>
</g>
<!-- EventBus -->
<g id="node5" class="node">
<title>EventBus</title>
<path fill="#f5f5f5" stroke="#666666" d="M289.25,-144C289.25,-144 226,-144 226,-144 220,-144 214,-138 214,-132 214,-132 214,-120 214,-120 214,-114 220,-108 226,-108 226,-108 289.25,-108 289.25,-108 295.25,-108 301.25,-114 301.25,-120 301.25,-120 301.25,-132 301.25,-132 301.25,-138 295.25,-144 289.25,-144"/>
<text xml:space="preserve" text-anchor="middle" x="257.62" y="-128.5" font-family="Arial" font-size="10.00">EventBus</text>
<text xml:space="preserve" text-anchor="middle" x="257.62" y="-116.5" font-family="Arial" font-size="10.00">observation only</text>
</g>
<!-- Dispatcher&#45;&gt;EventBus -->
<g id="edge1" class="edge">
<title>Dispatcher&#45;&gt;EventBus</title>
<path fill="none" stroke="black" stroke-dasharray="5,2" d="M95.37,-195.92C122.23,-186.07 162.05,-170.95 196,-156 200.79,-153.89 205.74,-151.61 210.66,-149.28"/>
<polygon fill="black" stroke="black" points="211.8,-152.62 219.29,-145.12 208.76,-146.31 211.8,-152.62"/>
<text xml:space="preserve" text-anchor="middle" x="170.5" y="-178.71" font-family="Arial" font-size="9.00">event copy</text>
</g>
<!-- PolicyEngine -->
<g id="node2" class="node">
<title>PolicyEngine</title>
<g id="a_node2"><a xlink:href="../10_scheduler.svg" xlink:title="PolicyEngine\nPOLICY_DENIED">
<path fill="#ede7f6" stroke="#512da8" d="M100,-171C100,-171 27,-171 27,-171 21,-171 15,-165 15,-159 15,-159 15,-147 15,-147 15,-141 21,-135 27,-135 27,-135 100,-135 100,-135 106,-135 112,-141 112,-147 112,-147 112,-159 112,-159 112,-165 106,-171 100,-171"/>
<text xml:space="preserve" text-anchor="middle" x="63.5" y="-155.5" font-family="Arial" font-size="10.00">PolicyEngine</text>
<text xml:space="preserve" text-anchor="middle" x="63.5" y="-143.5" font-family="Arial" font-size="10.00">POLICY_DENIED</text>
</a>
</g>
</g>
<!-- PolicyEngine&#45;&gt;EventBus -->
<g id="edge2" class="edge">
<title>PolicyEngine&#45;&gt;EventBus</title>
<path fill="none" stroke="black" stroke-dasharray="5,2" d="M112.49,-146.26C139.74,-142.43 173.95,-137.62 202.2,-133.65"/>
<polygon fill="black" stroke="black" points="202.59,-137.13 212.01,-132.27 201.62,-130.2 202.59,-137.13"/>
<text xml:space="preserve" text-anchor="middle" x="170.5" y="-143.07" font-family="Arial" font-size="9.00">denied copy</text>
</g>
<!-- InferenceHandler -->
<g id="node3" class="node">
<title>InferenceHandler</title>
<g id="a_node3"><a xlink:href="../../inference/40_inference.svg" xlink:title="InferenceRequestHandler\nINFERENCE_RESULT">
<path fill="#fffde7" stroke="#f9a825" d="M115,-117C115,-117 12,-117 12,-117 6,-117 0,-111 0,-105 0,-105 0,-93 0,-93 0,-87 6,-81 12,-81 12,-81 115,-81 115,-81 121,-81 127,-87 127,-93 127,-93 127,-105 127,-105 127,-111 121,-117 115,-117"/>
<text xml:space="preserve" text-anchor="middle" x="63.5" y="-101.5" font-family="Arial" font-size="10.00">InferenceRequestHandler</text>
<text xml:space="preserve" text-anchor="middle" x="63.5" y="-89.5" font-family="Arial" font-size="10.00">INFERENCE_RESULT</text>
</a>
</g>
</g>
<!-- InferenceHandler&#45;&gt;EventBus -->
<g id="edge3" class="edge">
<title>InferenceHandler&#45;&gt;EventBus</title>
<path fill="none" stroke="black" stroke-dasharray="5,2" d="M127.41,-107.84C151.67,-111.25 179.15,-115.11 202.52,-118.4"/>
<polygon fill="black" stroke="black" points="201.73,-121.82 212.12,-119.75 202.71,-114.89 201.73,-121.82"/>
<text xml:space="preserve" text-anchor="middle" x="170.5" y="-119.22" font-family="Arial" font-size="9.00">result copy</text>
</g>
<!-- ContextHandler -->
<g id="node4" class="node">
<title>ContextHandler</title>
<g id="a_node4"><a xlink:href="../../context/20_context.svg" xlink:title="ContextRequestHandler\nCONTEXT_REPLY">
<path fill="#fff3e0" stroke="#ef6c00" d="M112,-63C112,-63 15,-63 15,-63 9,-63 3,-57 3,-51 3,-51 3,-39 3,-39 3,-33 9,-27 15,-27 15,-27 112,-27 112,-27 118,-27 124,-33 124,-39 124,-39 124,-51 124,-51 124,-57 118,-63 112,-63"/>
<text xml:space="preserve" text-anchor="middle" x="63.5" y="-47.5" font-family="Arial" font-size="10.00">ContextRequestHandler</text>
<text xml:space="preserve" text-anchor="middle" x="63.5" y="-35.5" font-family="Arial" font-size="10.00">CONTEXT_REPLY</text>
</a>
</g>
</g>
<!-- ContextHandler&#45;&gt;EventBus -->
<g id="edge4" class="edge">
<title>ContextHandler&#45;&gt;EventBus</title>
<path fill="none" stroke="black" stroke-dasharray="5,2" d="M114.21,-63.4C138.98,-72.84 169.28,-84.79 196,-96.5 200.52,-98.48 205.2,-100.61 209.87,-102.79"/>
<polygon fill="black" stroke="black" points="208.07,-105.81 218.61,-106.94 211.07,-99.49 208.07,-105.81"/>
<text xml:space="preserve" text-anchor="middle" x="170.5" y="-98.45" font-family="Arial" font-size="9.00">context copy</text>
</g>
<!-- Logger -->
<g id="node6" class="node">
<title>Logger</title>
<g id="a_node6"><a xlink:href="../../observability/70_observability.svg" xlink:title="Logger">
<path fill="#f5f5f5" stroke="#666666" d="M393.88,-252C393.88,-252 363.88,-252 363.88,-252 357.88,-252 351.88,-246 351.88,-240 351.88,-240 351.88,-228 351.88,-228 351.88,-222 357.88,-216 363.88,-216 363.88,-216 393.88,-216 393.88,-216 399.88,-216 405.88,-222 405.88,-228 405.88,-228 405.88,-240 405.88,-240 405.88,-246 399.88,-252 393.88,-252"/>
<text xml:space="preserve" text-anchor="middle" x="378.88" y="-230.5" font-family="Arial" font-size="10.00">Logger</text>
</a>
</g>
</g>
<!-- EventBus&#45;&gt;Logger -->
<g id="edge5" class="edge">
<title>EventBus&#45;&gt;Logger</title>
<path fill="none" stroke="black" d="M274.78,-144.39C290.24,-161.51 314.64,-187.28 338.25,-207 339.7,-208.21 341.2,-209.42 342.74,-210.62"/>
<polygon fill="black" stroke="black" points="340.42,-213.25 350.54,-216.38 344.58,-207.62 340.42,-213.25"/>
</g>
<!-- Metrics -->
<g id="node7" class="node">
<title>Metrics</title>
<g id="a_node7"><a xlink:href="../../observability/70_observability.svg" xlink:title="Metrics">
<path fill="#f5f5f5" stroke="#666666" d="M393.88,-198C393.88,-198 363.88,-198 363.88,-198 357.88,-198 351.88,-192 351.88,-186 351.88,-186 351.88,-174 351.88,-174 351.88,-168 357.88,-162 363.88,-162 363.88,-162 393.88,-162 393.88,-162 399.88,-162 405.88,-168 405.88,-174 405.88,-174 405.88,-186 405.88,-186 405.88,-192 399.88,-198 393.88,-198"/>
<text xml:space="preserve" text-anchor="middle" x="378.88" y="-176.5" font-family="Arial" font-size="10.00">Metrics</text>
</a>
</g>
</g>
<!-- EventBus&#45;&gt;Metrics -->
<g id="edge6" class="edge">
<title>EventBus&#45;&gt;Metrics</title>
<path fill="none" stroke="black" d="M299.33,-144.43C312.96,-150.6 328.06,-157.44 341.35,-163.46"/>
<polygon fill="black" stroke="black" points="339.63,-166.52 350.18,-167.46 342.51,-160.14 339.63,-166.52"/>
</g>
<!-- EventRecorder -->
<g id="node8" class="node">
<title>EventRecorder</title>
<g id="a_node8"><a xlink:href="../../observability/70_observability.svg" xlink:title="EventRecorder">
<path fill="#f5f5f5" stroke="#666666" d="M407.5,-144C407.5,-144 350.25,-144 350.25,-144 344.25,-144 338.25,-138 338.25,-132 338.25,-132 338.25,-120 338.25,-120 338.25,-114 344.25,-108 350.25,-108 350.25,-108 407.5,-108 407.5,-108 413.5,-108 419.5,-114 419.5,-120 419.5,-120 419.5,-132 419.5,-132 419.5,-138 413.5,-144 407.5,-144"/>
<text xml:space="preserve" text-anchor="middle" x="378.88" y="-122.5" font-family="Arial" font-size="10.00">EventRecorder</text>
</a>
</g>
</g>
<!-- EventBus&#45;&gt;EventRecorder -->
<g id="edge7" class="edge">
<title>EventBus&#45;&gt;EventRecorder</title>
<path fill="none" stroke="black" d="M301.68,-126C309.75,-126 318.26,-126 326.55,-126"/>
<polygon fill="black" stroke="black" points="326.55,-129.5 336.55,-126 326.55,-122.5 326.55,-129.5"/>
</g>
<!-- Tracer -->
<g id="node9" class="node">
<title>Tracer</title>
<g id="a_node9"><a xlink:href="../../observability/70_observability.svg" xlink:title="Tracer">
<path fill="#f5f5f5" stroke="#666666" d="M393.88,-90C393.88,-90 363.88,-90 363.88,-90 357.88,-90 351.88,-84 351.88,-78 351.88,-78 351.88,-66 351.88,-66 351.88,-60 357.88,-54 363.88,-54 363.88,-54 393.88,-54 393.88,-54 399.88,-54 405.88,-60 405.88,-66 405.88,-66 405.88,-78 405.88,-78 405.88,-84 399.88,-90 393.88,-90"/>
<text xml:space="preserve" text-anchor="middle" x="378.88" y="-68.5" font-family="Arial" font-size="10.00">Tracer</text>
</a>
</g>
</g>
<!-- EventBus&#45;&gt;Tracer -->
<g id="edge8" class="edge">
<title>EventBus&#45;&gt;Tracer</title>
<path fill="none" stroke="black" d="M299.33,-107.57C312.96,-101.4 328.06,-94.56 341.35,-88.54"/>
<polygon fill="black" stroke="black" points="342.51,-91.86 350.18,-84.54 339.63,-85.48 342.51,-91.86"/>
</g>
<!-- Dashboard -->
<g id="node10" class="node">
<title>Dashboard</title>
<g id="a_node10"><a xlink:href="../../observability/70_observability.svg" xlink:title="Dashboard">
<path fill="#f5f5f5" stroke="#666666" d="M398.5,-36C398.5,-36 359.25,-36 359.25,-36 353.25,-36 347.25,-30 347.25,-24 347.25,-24 347.25,-12 347.25,-12 347.25,-6 353.25,0 359.25,0 359.25,0 398.5,0 398.5,0 404.5,0 410.5,-6 410.5,-12 410.5,-12 410.5,-24 410.5,-24 410.5,-30 404.5,-36 398.5,-36"/>
<text xml:space="preserve" text-anchor="middle" x="378.88" y="-14.5" font-family="Arial" font-size="10.00">Dashboard</text>
</a>
</g>
</g>
<!-- EventBus&#45;&gt;Dashboard -->
<g id="edge9" class="edge">
<title>EventBus&#45;&gt;Dashboard</title>
<path fill="none" stroke="black" d="M274.78,-107.61C290.24,-90.49 314.64,-64.72 338.25,-45 339.03,-44.35 339.83,-43.69 340.64,-43.04"/>
<polygon fill="black" stroke="black" points="342.59,-45.96 348.45,-37.13 338.37,-40.37 342.59,-45.96"/>
</g>
<!-- Nav_Global -->
<g id="node11" class="node">
<title>Nav_Global</title>
<g id="a_node11"><a xlink:href="../../00_global.svg" xlink:title="Global">
<path fill="lightgrey" stroke="none" d="M491.62,-36C491.62,-36 461.62,-36 461.62,-36 455.62,-36 449.62,-30 449.62,-24 449.62,-24 449.62,-12 449.62,-12 449.62,-6 455.62,0 461.62,0 461.62,0 491.62,0 491.62,0 497.62,0 503.62,-6 503.62,-12 503.62,-12 503.62,-24 503.62,-24 503.62,-30 497.62,-36 491.62,-36"/>
<text xml:space="preserve" text-anchor="middle" x="476.62" y="-14.5" font-family="Arial" font-size="10.00">Global</text>
</a>
</g>
</g>
<!-- Nav_Up -->
<g id="node12" class="node">
<title>Nav_Up</title>
<g id="a_node12"><a xlink:href="../10_scheduler.svg" xlink:title="Up: Scheduler">
<path fill="lightgrey" stroke="none" d="M503.75,-77C503.75,-77 449.5,-77 449.5,-77 443.5,-77 437.5,-71 437.5,-65 437.5,-65 437.5,-53 437.5,-53 437.5,-47 443.5,-41 449.5,-41 449.5,-41 503.75,-41 503.75,-41 509.75,-41 515.75,-47 515.75,-53 515.75,-53 515.75,-65 515.75,-65 515.75,-71 509.75,-77 503.75,-77"/>
<text xml:space="preserve" text-anchor="middle" x="476.62" y="-55.5" font-family="Arial" font-size="10.00">Up: Scheduler</text>
</a>
</g>
</g>
<!-- Nav_Dispatcher -->
<g id="node13" class="node">
<title>Nav_Dispatcher</title>
<g id="a_node13"><a xlink:href="../dispatcher/11_dispatcher.svg" xlink:title="Dispatcher">
<path fill="lightgrey" stroke="none" d="M496.25,-118C496.25,-118 457,-118 457,-118 451,-118 445,-112 445,-106 445,-106 445,-94 445,-94 445,-88 451,-82 457,-82 457,-82 496.25,-82 496.25,-82 502.25,-82 508.25,-88 508.25,-94 508.25,-94 508.25,-106 508.25,-106 508.25,-112 502.25,-118 496.25,-118"/>
<text xml:space="preserve" text-anchor="middle" x="476.62" y="-96.5" font-family="Arial" font-size="10.00">Dispatcher</text>
</a>
</g>
</g>
<!-- Nav_Observability -->
<g id="node14" class="node">
<title>Nav_Observability</title>
<g id="a_node14"><a xlink:href="../../observability/70_observability.svg" xlink:title="Observability">
<path fill="lightgrey" stroke="none" d="M501.12,-159C501.12,-159 452.12,-159 452.12,-159 446.12,-159 440.12,-153 440.12,-147 440.12,-147 440.12,-135 440.12,-135 440.12,-129 446.12,-123 452.12,-123 452.12,-123 501.12,-123 501.12,-123 507.12,-123 513.12,-129 513.12,-135 513.12,-135 513.12,-147 513.12,-147 513.12,-153 507.12,-159 501.12,-159"/>
<text xml:space="preserve" text-anchor="middle" x="476.62" y="-137.5" font-family="Arial" font-size="10.00">Observability</text>
</a>
</g>
</g>
</g>
</svg>
