<?xml version="1.0" encoding="UTF-8" standalone="no"?>
<!DOCTYPE svg PUBLIC "-//W3C//DTD SVG 1.1//EN"
 "http://www.w3.org/Graphics/SVG/1.1/DTD/svg11.dtd">
<!-- Generated by graphviz version 14.1.3 (20260303.0454)
 -->
<!-- Title: Scheduler Pages: 1 -->
<svg width="710pt" height="729pt"
 viewBox="0.00 0.00 710.00 729.00" xmlns="http://www.w3.org/2000/svg" xmlns:xlink="http://www.w3.org/1999/xlink">
<g id="graph0" class="graph" transform="scale(1 1) rotate(0) translate(4 725.3)">
<title>Scheduler</title>
<polygon fill="white" stroke="none" points="-4,4 -4,-725.3 706.38,-725.3 706.38,4 -4,4"/>
<g id="clust1" class="cluster">
<title>cluster_kernel</title>
<polygon fill="#ede7f6" stroke="#512da8" points="183,-135.25 183,-713.3 399,-713.3 399,-135.25 183,-135.25"/>
<text xml:space="preserve" text-anchor="middle" x="291" y="-696" font-family="Times,serif" font-size="14.00">Micro Kernel (focus)</text>
</g>
<g id="clust2" class="cluster">
<title>cluster_context</title>
<polygon fill="none" stroke="#ef6c00" points="407,-539.8 407,-617.05 549,-617.05 549,-539.8 407,-539.8"/>
<text xml:space="preserve" text-anchor="middle" x="478" y="-599.75" font-family="Times,serif" font-size="14.00">Context Fabric</text>
</g>
<g id="clust3" class="cluster">
<title>cluster_experts</title>
<polygon fill="none" stroke="#388e3c" points="103,-370.45 103,-415.3 175,-415.3 175,-370.45 103,-370.45"/>
<text xml:space="preserve" text-anchor="middle" x="139" y="-398" font-family="Times,serif" font-size="14.00">Experts</text>
</g>
<g id="clust4" class="cluster">
<title>cluster_validation</title>
<polygon fill="none" stroke="#7b1fa2" points="8,-370.45 8,-415.3 95,-415.3 95,-370.45 8,-370.45"/>
<text xml:space="preserve" text-anchor="middle" x="51.5" y="-398" font-family="Times,serif" font-size="14.00">Validation</text>
</g>
<!-- Launcher -->
<g id="node1" class="node">
<title>Launcher</title>
<g id="a_node1"><a xlink:href="../00_global.svg" xlink:title="Launcher">
<polygon fill="#ede7f6" stroke="#512da8" points="246.88,-680.05 191.12,-680.05 191.12,-644.05 246.88,-644.05 246.88,-680.05"/>
<text xml:space="preserve" text-anchor="middle" x="219" y="-658.55" font-family="Arial" font-size="10.00">Launcher</text>
</a>
</g>
</g>
<!-- Registry -->
<g id="node2" class="node">
<title>Registry</title>
<g id="a_node2"><a xlink:href="../00_global.svg" xlink:title="Registry">
<polygon fill="#ede7f6" stroke="#512da8" points="245,-583.8 191,-583.8 191,-547.8 245,-547.8 245,-583.8"/>
<text xml:space="preserve" text-anchor="middle" x="218" y="-562.3" font-family="Arial" font-size="10.00">Registry</text>
</a>
</g>
</g>
<!-- Launcher&#45;&gt;Registry -->
<g id="edge1" class="edge">
<title>Launcher&#45;&gt;Registry</title>
<path fill="none" stroke="black" d="M218.82,-643.76C218.67,-630.3 218.47,-611.31 218.31,-595.56"/>
<polygon fill="black" stroke="black" points="221.81,-595.77 218.2,-585.81 214.81,-595.85 221.81,-595.77"/>
</g>
<!-- Proxy -->
<g id="node3" class="node">
<title>Proxy</title>
<g id="a_node3"><a xlink:href="component_proxy/14_component_proxy.svg" xlink:title="Proxy">
<polygon fill="#ede7f6" stroke="#512da8" points="245,-494.55 191,-494.55 191,-458.55 245,-458.55 245,-494.55"/>
<text xml:space="preserve" text-anchor="middle" x="218" y="-473.05" font-family="Arial" font-size="10.00">Proxy</text>
</a>
</g>
</g>
<!-- Registry&#45;&gt;Proxy -->
<g id="edge2" class="edge">
<title>Registry&#45;&gt;Proxy</title>
<path fill="none" stroke="black" d="M218,-547.56C218,-535.73 218,-519.75 218,-506.05"/>
<polygon fill="black" stroke="black" points="221.5,-506.27 218,-496.27 214.5,-506.27 221.5,-506.27"/>
</g>
<!-- Scheduler -->
<g id="node4" class="node">
<title>Scheduler</title>
<g id="a_node4"><a xlink:href="../00_global.svg" xlink:title="Scheduler">
<polygon fill="#ede7f6" stroke="#512da8" points="389.75,-398.25 330.25,-398.25 330.25,-362.25 389.75,-362.25 389.75,-398.25"/>
<text xml:space="preserve" text-anchor="middle" x="360" y="-376.75" font-family="Arial" font-size="10.00">Scheduler</text>
</a>
</g>
</g>
<!-- Proxy&#45;&gt;Scheduler -->
<g id="edge3" class="edge">
<title>Proxy&#45;&gt;Scheduler</title>
<path fill="none" stroke="black" d="M224.58,-458.45C229.72,-447.11 237.86,-432.66 249,-423.3 268.98,-406.52 296.34,-396.05 318.91,-389.76"/>
<polygon fill="black" stroke="black" points="319.6,-393.19 328.41,-387.29 317.85,-386.41 319.6,-393.19"/>
<text xml:space="preserve" text-anchor="middle" x="289.5" y="-427.25" font-family="Times,serif" font-size="14.00">yield Event</text>
</g>
<!-- ExpertGroup -->
<g id="node12" class="node">
<title>ExpertGroup</title>
<g id="a_node12"><a xlink:href="../experts/40_experts.svg" xlink:title="Experts">
<ellipse fill="#e8f5e9" stroke="#388e3c" cx="165" cy="-380.25" rx="1.8" ry="1.8"/>
</a>
</g>
</g>
<!-- Proxy&#45;&gt;ExpertGroup -->
<g id="edge13" class="edge">
<title>Proxy&#45;&gt;ExpertGroup</title>
<path fill="none" stroke="black" d="M190.86,-461.27C183.1,-455.84 175.48,-448.9 170.75,-440.55 162.58,-426.12 162.39,-406.51 163.39,-393.86"/>
<polygon fill="black" stroke="black" points="166.85,-394.34 164.59,-383.99 159.91,-393.49 166.85,-394.34"/>
<text xml:space="preserve" text-anchor="middle" x="198.88" y="-427.25" font-family="Times,serif" font-size="14.00">délègue</text>
</g>
<!-- ValidationGroup -->
<g id="node13" class="node">
<title>ValidationGroup</title>
<g id="a_node13"><a xlink:href="../validation/50_validation.svg" xlink:title="Validation">
<ellipse fill="#f3e5f5" stroke="#7b1fa2" cx="85" cy="-380.25" rx="1.8" ry="1.8"/>
</a>
</g>
</g>
<!-- Proxy&#45;&gt;ValidationGroup -->
<g id="edge14" class="edge">
<title>Proxy&#45;&gt;ValidationGroup</title>
<path fill="none" stroke="black" d="M190.87,-473.37C166.48,-470.04 131.1,-461.67 108.5,-440.55 95.01,-427.94 89.12,-406.6 86.66,-393.25"/>
<polygon fill="black" stroke="black" points="90.18,-393.16 85.3,-383.75 83.25,-394.15 90.18,-393.16"/>
<text xml:space="preserve" text-anchor="middle" x="134.75" y="-427.25" font-family="Times,serif" font-size="14.00">soumet</text>
</g>
<!-- Queue -->
<g id="node6" class="node">
<title>Queue</title>
<g id="a_node6"><a xlink:href="priority_queue/13_priority_queue.svg" xlink:title="Queue">
<polygon fill="#ede7f6" stroke="#512da8" points="386,-325.25 332,-325.25 332,-289.25 386,-289.25 386,-325.25"/>
<text xml:space="preserve" text-anchor="middle" x="359" y="-303.75" font-family="Arial" font-size="10.00">Queue</text>
</a>
</g>
</g>
<!-- Scheduler&#45;&gt;Queue -->
<g id="edge4" class="edge">
<title>Scheduler&#45;&gt;Queue</title>
<path fill="none" stroke="black" d="M359.76,-362.06C359.65,-354.48 359.52,-345.35 359.4,-336.79"/>
<polygon fill="black" stroke="black" points="362.9,-336.74 359.26,-326.79 355.9,-336.84 362.9,-336.74"/>
</g>
<!-- GET -->
<g id="node10" class="node">
<title>GET</title>
<g id="a_node10"><a xlink:href="../context/20_context.svg" xlink:title="GET">
<polygon fill="#fff3e0" stroke="#ef6c00" points="469,-583.8 415,-583.8 415,-547.8 469,-547.8 469,-583.8"/>
<text xml:space="preserve" text-anchor="middle" x="442" y="-562.3" font-family="Arial" font-size="10.00">GET</text>
</a>
</g>
</g>
<!-- Scheduler&#45;&gt;GET -->
<g id="edge9" class="edge">
<title>Scheduler&#45;&gt;GET</title>
<path fill="none" stroke="black" d="M369.57,-398.5C378.01,-414.01 390.43,-437.51 400,-458.55 411.91,-484.72 423.79,-515.32 431.87,-536.94"/>
<polygon fill="black" stroke="black" points="428.55,-538.06 435.3,-546.23 435.12,-535.64 428.55,-538.06"/>
<text xml:space="preserve" text-anchor="middle" x="429.73" y="-471.88" font-family="Times,serif" font-size="14.00">Tick</text>
</g>
<!-- Dispatcher -->
<g id="node5" class="node">
<title>Dispatcher</title>
<g id="a_node5"><a xlink:href="dispatcher/11_dispatcher.svg" xlink:title="Dispatcher">
<polygon fill="#ede7f6" stroke="#512da8" points="390.62,-252.25 327.38,-252.25 327.38,-216.25 390.62,-216.25 390.62,-252.25"/>
<text xml:space="preserve" text-anchor="middle" x="359" y="-230.75" font-family="Arial" font-size="10.00">Dispatcher</text>
</a>
</g>
</g>
<!-- EventBus -->
<g id="node7" class="node">
<title>EventBus</title>
<g id="a_node7"><a xlink:href="event_bus/12_event_bus.svg" xlink:title="EventBus">
<polygon fill="#ede7f6" stroke="#512da8" points="388.38,-179.25 329.62,-179.25 329.62,-143.25 388.38,-143.25 388.38,-179.25"/>
<text xml:space="preserve" text-anchor="middle" x="359" y="-157.75" font-family="Arial" font-size="10.00">EventBus</text>
</a>
</g>
</g>
<!-- Dispatcher&#45;&gt;EventBus -->
<g id="edge6" class="edge">
<title>Dispatcher&#45;&gt;EventBus</title>
<path fill="none" stroke="black" d="M359,-216.06C359,-208.48 359,-199.35 359,-190.79"/>
<polygon fill="black" stroke="black" points="362.5,-190.79 359,-180.79 355.5,-190.79 362.5,-190.79"/>
</g>
<!-- Queue&#45;&gt;Dispatcher -->
<g id="edge5" class="edge">
<title>Queue&#45;&gt;Dispatcher</title>
<path fill="none" stroke="black" d="M359,-289.06C359,-281.48 359,-272.35 359,-263.79"/>
<polygon fill="black" stroke="black" points="362.5,-263.79 359,-253.79 355.5,-263.79 362.5,-263.79"/>
</g>
<!-- Logger -->
<g id="node14" class="node">
<title>Logger</title>
<polygon fill="lightgrey" stroke="black" points="386,-90 332,-90 332,-54 386,-54 386,-90"/>
<text xml:space="preserve" text-anchor="middle" x="359" y="-68.5" font-family="Arial" font-size="10.00">Logger</text>
</g>
<!-- EventBus&#45;&gt;Logger -->
<g id="edge15" class="edge">
<title>EventBus&#45;&gt;Logger</title>
<path fill="none" stroke="black" stroke-dasharray="5,2" d="M359,-143.01C359,-131.18 359,-115.2 359,-101.5"/>
<polygon fill="black" stroke="black" points="362.5,-101.72 359,-91.72 355.5,-101.72 362.5,-101.72"/>
<text xml:space="preserve" text-anchor="middle" x="394.25" y="-111.95" font-family="Times,serif" font-size="14.00">broadcast</text>
</g>
<!-- Policy -->
<g id="node8" class="node">
<title>Policy</title>
<g id="a_node8"><a xlink:href="../00_global.svg" xlink:title="Policy">
<polygon fill="#ede7f6" stroke="#512da8" points="317,-494.55 263,-494.55 263,-458.55 317,-458.55 317,-494.55"/>
<text xml:space="preserve" text-anchor="middle" x="290" y="-473.05" font-family="Arial" font-size="10.00">Policy</text>
</a>
</g>
</g>
<!-- Policy&#45;&gt;Scheduler -->
<g id="edge7" class="edge">
<title>Policy&#45;&gt;Scheduler</title>
<path fill="none" stroke="black" stroke-dasharray="5,2" d="M316.12,-458.18C322.54,-453.05 329,-447.05 334,-440.55 341.15,-431.26 346.79,-419.7 350.96,-409.26"/>
<polygon fill="black" stroke="black" points="354.22,-410.54 354.39,-399.95 347.65,-408.12 354.22,-410.54"/>
</g>
<!-- Lifecycle -->
<g id="node9" class="node">
<title>Lifecycle</title>
<g id="a_node9"><a xlink:href="../00_global.svg" xlink:title="Lifecycle">
<polygon fill="#ede7f6" stroke="#512da8" points="390.5,-494.55 335.5,-494.55 335.5,-458.55 390.5,-458.55 390.5,-494.55"/>
<text xml:space="preserve" text-anchor="middle" x="363" y="-473.05" font-family="Arial" font-size="10.00">Lifecycle</text>
</a>
</g>
</g>
<!-- Lifecycle&#45;&gt;Scheduler -->
<g id="edge8" class="edge">
<title>Lifecycle&#45;&gt;Scheduler</title>
<path fill="none" stroke="black" stroke-dasharray="1,5" d="M362.45,-458.25C362.02,-444.7 361.41,-425.54 360.91,-409.73"/>
<polygon fill="black" stroke="black" points="364.41,-409.83 360.59,-399.95 357.41,-410.06 364.41,-409.83"/>
</g>
<!-- GET&#45;&gt;Proxy -->
<g id="edge10" class="edge">
<title>GET&#45;&gt;Proxy</title>
<path fill="none" stroke="black" d="M418.02,-547.41C413.22,-544.52 408.08,-541.81 403,-539.8 380.41,-530.85 372.67,-536.26 349.25,-529.8 308.97,-518.69 297.3,-512.93 255.95,-495.28"/>
<polygon fill="black" stroke="black" points="257.37,-492.08 246.8,-491.38 254.63,-498.52 257.37,-492.08"/>
<text xml:space="preserve" text-anchor="middle" x="381.12" y="-516.5" font-family="Times,serif" font-size="14.00">context()</text>
</g>
<!-- Decision -->
<g id="node11" class="node">
<title>Decision</title>
<g id="a_node11"><a xlink:href="../context/decision_engine/24_decision_engine.svg" xlink:title="Decision">
<polygon fill="#fff3e0" stroke="#ef6c00" points="541.12,-583.8 486.88,-583.8 486.88,-547.8 541.12,-547.8 541.12,-583.8"/>
<text xml:space="preserve" text-anchor="middle" x="514" y="-562.3" font-family="Arial" font-size="10.00">Decision</text>
</a>
</g>
</g>
<!-- Decision&#45;&gt;Scheduler -->
<g id="edge12" class="edge">
<title>Decision&#45;&gt;Scheduler</title>
<path fill="none" stroke="black" stroke-dasharray="5,2" d="M523.99,-547.71C528.77,-537.19 532.39,-523.65 527,-512.55 500.83,-458.69 440.68,-420.33 400.18,-399.48"/>
<polygon fill="black" stroke="black" points="401.95,-396.45 391.44,-395.11 398.82,-402.71 401.95,-396.45"/>
</g>
<!-- Decision&#45;&gt;Policy -->
<g id="edge11" class="edge">
<title>Decision&#45;&gt;Policy</title>
<path fill="none" stroke="black" d="M490.39,-547.48C486.34,-544.78 482.11,-542.12 478,-539.8 452.14,-525.21 445.29,-521.57 417,-512.55 381.17,-501.12 367.89,-506.18 327.95,-494.31"/>
<polygon fill="black" stroke="black" points="329.23,-491.04 318.64,-491.36 327.12,-497.71 329.23,-491.04"/>
<text xml:space="preserve" text-anchor="middle" x="492.86" y="-516.5" font-family="Times,serif" font-size="14.00">décisions</text>
</g>
<!-- Nav_Global -->
<g id="node15" class="node">
<title>Nav_Global</title>
<g id="a_node15"><a xlink:href="../00_global.svg" xlink:title="Global">
<polygon fill="lightgrey" stroke="none" points="386,-36 332,-36 332,0 386,0 386,-36"/>
<text xml:space="preserve" text-anchor="middle" x="359" y="-14.5" font-family="Arial" font-size="10.00">Global</text>
</a>
</g>
</g>
<!-- Nav_Dispatcher -->
<g id="node16" class="node">
<title>Nav_Dispatcher</title>
<g id="a_node16"><a xlink:href="dispatcher/11_dispatcher.svg" xlink:title="Dispatcher">
<polygon fill="lightgrey" stroke="none" points="454.62,-36 391.38,-36 391.38,0 454.62,0 454.62,-36"/>
<text xml:space="preserve" text-anchor="middle" x="423" y="-14.5" font-family="Arial" font-size="10.00">Dispatcher</text>
</a>
</g>
</g>
<!-- Nav_EventBus -->
<g id="node17" class="node">
<title>Nav_EventBus</title>
<g id="a_node17"><a xlink:href="event_bus/12_event_bus.svg" xlink:title="EventBus">
<polygon fill="lightgrey" stroke="none" points="518.38,-36 459.62,-36 459.62,0 518.38,0 518.38,-36"/>
<text xml:space="preserve" text-anchor="middle" x="489" y="-14.5" font-family="Arial" font-size="10.00">EventBus</text>
</a>
</g>
</g>
<!-- Nav_Queue -->
<g id="node18" class="node">
<title>Nav_Queue</title>
<g id="a_node18"><a xlink:href="priority_queue/13_priority_queue.svg" xlink:title="Priority Queue">
<polygon fill="lightgrey" stroke="none" points="602.12,-36 523.88,-36 523.88,0 602.12,0 602.12,-36"/>
<text xml:space="preserve" text-anchor="middle" x="563" y="-14.5" font-family="Arial" font-size="10.00">Priority Queue</text>
</a>
</g>
</g>
<!-- Nav_Proxy -->
<g id="node19" class="node">
<title>Nav_Proxy</title>
<g id="a_node19"><a xlink:href="component_proxy/14_component_proxy.svg" xlink:title="Component Proxy">
<polygon fill="lightgrey" stroke="none" points="702.38,-36 607.62,-36 607.62,0 702.38,0 702.38,-36"/>
<text xml:space="preserve" text-anchor="middle" x="655" y="-14.5" font-family="Arial" font-size="10.00">Component Proxy</text>
</a>
</g>
</g>
</g>
</svg>
