<?xml version="1.0" encoding="UTF-8" standalone="no"?>
<!DOCTYPE svg PUBLIC "-//W3C//DTD SVG 1.1//EN"
 "http://www.w3.org/Graphics/SVG/1.1/DTD/svg11.dtd">
<!-- Generated by graphviz version 14.1.3 (20260303.0454)
 -->
<!-- Title: Scheduler Pages: 1 -->
<svg width="1673pt" height="859pt"
 viewBox="0.00 0.00 1673.00 859.00" xmlns="http://www.w3.org/2000/svg" xmlns:xlink="http://www.w3.org/1999/xlink">
<g id="graph0" class="graph" transform="scale(1 1) rotate(0) translate(4 855)">
<title>Scheduler</title>
<polygon fill="white" stroke="none" points="-4,4 -4,-855 1668.6,-855 1668.6,4 -4,4"/>
<g id="clust1" class="cluster">
<title>cluster_kernel</title>
<polygon fill="#ede7f6" stroke="#512da8" points="318.1,-81 318.1,-843 782.1,-843 782.1,-81 318.1,-81"/>
<text xml:space="preserve" text-anchor="middle" x="550.1" y="-825.7" font-family="Times,serif" font-size="14.00">Micro Kernel (focus)</text>
</g>
<g id="clust2" class="cluster">
<title>cluster_context</title>
<polygon fill="#fff3e0" stroke="#ef6c00" points="22.1,-8 22.1,-559.25 191.1,-559.25 191.1,-8 22.1,-8"/>
<text xml:space="preserve" text-anchor="middle" x="106.6" y="-541.95" font-family="Times,serif" font-size="14.00">Context Fabric active</text>
</g>
<g id="clust3" class="cluster">
<title>cluster_inference</title>
<polygon fill="#fffde7" stroke="#f9a825" points="796.1,-259.5 796.1,-559.25 1087.1,-559.25 1087.1,-259.5 796.1,-259.5"/>
<text xml:space="preserve" text-anchor="middle" x="941.6" y="-541.95" font-family="Times,serif" font-size="14.00">Inference Phase 1.5</text>
</g>
<g id="clust4" class="cluster">
<title>cluster_experts</title>
<polygon fill="none" stroke="#388e3c" points="1095.1,-472.95 1095.1,-543.05 1167.1,-543.05 1167.1,-472.95 1095.1,-472.95"/>
<text xml:space="preserve" text-anchor="middle" x="1131.1" y="-525.75" font-family="Times,serif" font-size="14.00">Experts</text>
</g>
<!-- Launcher -->
<g id="node1" class="node">
<title>Launcher</title>
<g id="a_node1"><a xlink:href="../00_global.svg" xlink:title="Launcher">
<polygon fill="#ede7f6" stroke="#512da8" points="667.97,-784.5 612.22,-784.5 612.22,-748.5 667.97,-748.5 667.97,-784.5"/>
<text xml:space="preserve" text-anchor="middle" x="640.1" y="-763" font-family="Arial" font-size="10.00">Launcher</text>
</a>
</g>
</g>
<!-- Registry -->
<g id="node2" class="node">
<title>Registry</title>
<g id="a_node2"><a xlink:href="../00_global.svg" xlink:title="Registry">
<polygon fill="#ede7f6" stroke="#512da8" points="625.1,-711.5 571.1,-711.5 571.1,-675.5 625.1,-675.5 625.1,-711.5"/>
<text xml:space="preserve" text-anchor="middle" x="598.1" y="-690" font-family="Arial" font-size="10.00">Registry</text>
</a>
</g>
</g>
<!-- Launcher&#45;&gt;Registry -->
<g id="edge1" class="edge">
<title>Launcher&#45;&gt;Registry</title>
<path fill="none" stroke="black" d="M629.93,-748.31C625.13,-740.2 619.3,-730.34 613.94,-721.28"/>
<polygon fill="black" stroke="black" points="617.05,-719.66 608.94,-712.83 611.02,-723.22 617.05,-719.66"/>
</g>
<!-- Dispatcher -->
<g id="node7" class="node">
<title>Dispatcher</title>
<g id="a_node7"><a xlink:href="dispatcher/11_dispatcher.svg" xlink:title="Dispatcher">
<polygon fill="#ede7f6" stroke="#512da8" points="680.72,-214.25 617.47,-214.25 617.47,-178.25 680.72,-178.25 680.72,-214.25"/>
<text xml:space="preserve" text-anchor="middle" x="649.1" y="-192.75" font-family="Arial" font-size="10.00">Dispatcher</text>
</a>
</g>
</g>
<!-- Launcher&#45;&gt;Dispatcher -->
<g id="edge2" class="edge">
<title>Launcher&#45;&gt;Dispatcher</title>
<path fill="none" stroke="black" d="M641.01,-748.05C644.27,-687.7 655.78,-490.2 668.35,-464.75 689.2,-422.52 727.25,-435.91 746.1,-392.75 752.51,-378.09 750.42,-372.16 746.1,-356.75 731.58,-304.94 695.09,-253.24 671.24,-223.3"/>
<polygon fill="black" stroke="black" points="673.96,-221.1 664.94,-215.55 668.53,-225.52 673.96,-221.1"/>
<text xml:space="preserve" text-anchor="middle" x="730.22" y="-478.07" font-family="Times,serif" font-size="14.00">register handlers</text>
</g>
<!-- Proxy -->
<g id="node3" class="node">
<title>Proxy</title>
<g id="a_node3"><a xlink:href="component_proxy/14_component_proxy.svg" xlink:title="ComponentProxy">
<polygon fill="#ede7f6" stroke="#512da8" points="633.97,-638.5 542.22,-638.5 542.22,-602.5 633.97,-602.5 633.97,-638.5"/>
<text xml:space="preserve" text-anchor="middle" x="588.1" y="-617" font-family="Arial" font-size="10.00">ComponentProxy</text>
</a>
</g>
</g>
<!-- Registry&#45;&gt;Proxy -->
<g id="edge3" class="edge">
<title>Registry&#45;&gt;Proxy</title>
<path fill="none" stroke="black" d="M595.68,-675.31C594.6,-667.64 593.3,-658.39 592.08,-649.74"/>
<polygon fill="black" stroke="black" points="595.57,-649.44 590.71,-640.03 588.64,-650.42 595.57,-649.44"/>
</g>
<!-- Scheduler -->
<g id="node4" class="node">
<title>Scheduler</title>
<g id="a_node4"><a xlink:href="../00_global.svg" xlink:title="Scheduler">
<polygon fill="#ede7f6" stroke="#512da8" points="423.85,-500.75 364.35,-500.75 364.35,-464.75 423.85,-464.75 423.85,-500.75"/>
<text xml:space="preserve" text-anchor="middle" x="394.1" y="-479.25" font-family="Arial" font-size="10.00">Scheduler</text>
</a>
</g>
</g>
<!-- Proxy&#45;&gt;Scheduler -->
<g id="edge4" class="edge">
<title>Proxy&#45;&gt;Scheduler</title>
<path fill="none" stroke="black" d="M541.9,-617.69C490.9,-614.61 413.54,-606.37 395.1,-584.5 378.47,-564.78 380.67,-534.34 385.52,-512.08"/>
<polygon fill="black" stroke="black" points="388.9,-513 387.93,-502.45 382.11,-511.3 388.9,-513"/>
<text xml:space="preserve" text-anchor="middle" x="435.6" y="-571.2" font-family="Times,serif" font-size="14.00">yield Event</text>
</g>
<!-- InferenceRequest -->
<g id="node17" class="node">
<title>InferenceRequest</title>
<g id="a_node17"><a xlink:href="../inference/40_inference.svg" xlink:title="INFERENCE_REQUEST\nRequest.reply">
<polygon fill="#fffde7" stroke="#f9a825" points="1078.72,-500.75 949.47,-500.75 949.47,-464.75 1078.72,-464.75 1078.72,-500.75"/>
<text xml:space="preserve" text-anchor="middle" x="1014.1" y="-485.25" font-family="Arial" font-size="10.00">INFERENCE_REQUEST</text>
<text xml:space="preserve" text-anchor="middle" x="1014.1" y="-473.25" font-family="Arial" font-size="10.00">Request.reply</text>
</a>
</g>
</g>
<!-- Proxy&#45;&gt;InferenceRequest -->
<g id="edge26" class="edge">
<title>Proxy&#45;&gt;InferenceRequest</title>
<path fill="none" stroke="black" d="M634.07,-616.88C690.34,-612.98 788.25,-603.89 870.1,-584.5 902.69,-576.78 912.94,-577.38 941.1,-559.25 961.8,-545.93 980.97,-525.66 994.46,-509.48"/>
<polygon fill="black" stroke="black" points="996.82,-512.13 1000.4,-502.15 991.38,-507.72 996.82,-512.13"/>
<text xml:space="preserve" text-anchor="middle" x="967.9" y="-571.2" font-family="Times,serif" font-size="14.00">yield Event</text>
</g>
<!-- ExpertGroup -->
<g id="node22" class="node">
<title>ExpertGroup</title>
<g id="a_node22"><a xlink:href="../experts/40_experts.svg" xlink:title="Experts">
<ellipse fill="#e8f5e9" stroke="#388e3c" cx="1105.1" cy="-482.75" rx="1.8" ry="1.8"/>
</a>
</g>
</g>
<!-- Proxy&#45;&gt;ExpertGroup -->
<g id="edge36" class="edge">
<title>Proxy&#45;&gt;ExpertGroup</title>
<path fill="none" stroke="black" d="M634.38,-619.1C712.83,-617.67 876.62,-611.38 1012.1,-584.5 1048.26,-577.33 1066.73,-586.9 1091.1,-559.25 1106.52,-541.76 1107.4,-512.92 1106.42,-496.41"/>
<polygon fill="black" stroke="black" points="1109.9,-496.12 1105.44,-486.51 1102.94,-496.81 1109.9,-496.12"/>
<text xml:space="preserve" text-anchor="middle" x="1154.92" y="-571.2" font-family="Times,serif" font-size="14.00">délègue tick/context</text>
</g>
<!-- Policy -->
<g id="node5" class="node">
<title>Policy</title>
<g id="a_node5"><a xlink:href="../00_global.svg" xlink:title="PolicyEngine">
<polygon fill="#ede7f6" stroke="#512da8" points="617.6,-392.75 544.6,-392.75 544.6,-356.75 617.6,-356.75 617.6,-392.75"/>
<text xml:space="preserve" text-anchor="middle" x="581.1" y="-371.25" font-family="Arial" font-size="10.00">PolicyEngine</text>
</a>
</g>
</g>
<!-- Scheduler&#45;&gt;Policy -->
<g id="edge5" class="edge">
<title>Scheduler&#45;&gt;Policy</title>
<path fill="none" stroke="black" d="M397.97,-464.55C402.61,-448.08 412.05,-423.87 429.6,-410.75 465.94,-383.57 486.13,-403.95 530.1,-392.75 531.25,-392.46 532.42,-392.15 533.59,-391.83"/>
<polygon fill="black" stroke="black" points="534.16,-395.31 542.79,-389.16 532.21,-388.59 534.16,-395.31"/>
<text xml:space="preserve" text-anchor="middle" x="452.85" y="-424.07" font-family="Times,serif" font-size="14.00">decide</text>
</g>
<!-- Telemetry -->
<g id="node10" class="node">
<title>Telemetry</title>
<g id="a_node10"><a xlink:href="../observability/70_observability.svg" xlink:title="KernelTelemetry">
<polygon fill="#ede7f6" stroke="#512da8" points="412.35,-303.5 325.85,-303.5 325.85,-267.5 412.35,-267.5 412.35,-303.5"/>
<text xml:space="preserve" text-anchor="middle" x="369.1" y="-282" font-family="Arial" font-size="10.00">KernelTelemetry</text>
</a>
</g>
</g>
<!-- Scheduler&#45;&gt;Telemetry -->
<g id="edge6" class="edge">
<title>Scheduler&#45;&gt;Telemetry</title>
<path fill="none" stroke="black" stroke-dasharray="5,2" d="M383.59,-464.45C373.68,-447.06 359.53,-419.11 353.85,-392.75 348.22,-366.62 353.68,-336.42 359.58,-314.91"/>
<polygon fill="black" stroke="black" points="362.92,-315.96 362.4,-305.38 356.2,-313.98 362.92,-315.96"/>
<text xml:space="preserve" text-anchor="middle" x="444.97" y="-370.07" font-family="Times,serif" font-size="14.00">enqueue/dequeue/latency</text>
</g>
<!-- ContextEngine -->
<g id="node11" class="node">
<title>ContextEngine</title>
<g id="a_node11"><a xlink:href="../context/20_context.svg" xlink:title="ContextEngine">
<polygon fill="#fff3e0" stroke="#ef6c00" points="183.35,-500.75 102.85,-500.75 102.85,-464.75 183.35,-464.75 183.35,-500.75"/>
<text xml:space="preserve" text-anchor="middle" x="143.1" y="-479.25" font-family="Arial" font-size="10.00">ContextEngine</text>
</a>
</g>
</g>
<!-- Scheduler&#45;&gt;ContextEngine -->
<g id="edge15" class="edge">
<title>Scheduler&#45;&gt;ContextEngine</title>
<path fill="none" stroke="black" d="M364.18,-482.75C322.49,-482.75 246.29,-482.75 195.17,-482.75"/>
<polygon fill="black" stroke="black" points="195.22,-479.25 185.22,-482.75 195.22,-486.25 195.22,-479.25"/>
<text xml:space="preserve" text-anchor="middle" x="273.85" y="-489.7" font-family="Times,serif" font-size="14.00">clock tick</text>
</g>
<!-- Policy&#45;&gt;Proxy -->
<g id="edge10" class="edge">
<title>Policy&#45;&gt;Proxy</title>
<path fill="none" stroke="black" stroke-dasharray="5,2" d="M555.63,-393.19C534.86,-409.08 507.05,-434.64 494.85,-464.75 479.08,-503.68 474.77,-522.36 494.85,-559.25 503.39,-574.94 517.98,-587.17 533.1,-596.38"/>
<polygon fill="black" stroke="black" points="531.32,-599.4 541.75,-601.27 534.76,-593.3 531.32,-599.4"/>
<text xml:space="preserve" text-anchor="middle" x="551.47" y="-478.07" font-family="Times,serif" font-size="14.00">Decision denied</text>
</g>
<!-- Queue -->
<g id="node6" class="node">
<title>Queue</title>
<g id="a_node6"><a xlink:href="priority_queue/13_priority_queue.svg" xlink:title="PriorityQueue">
<polygon fill="#ede7f6" stroke="#512da8" points="626.72,-303.5 551.47,-303.5 551.47,-267.5 626.72,-267.5 626.72,-303.5"/>
<text xml:space="preserve" text-anchor="middle" x="589.1" y="-282" font-family="Arial" font-size="10.00">PriorityQueue</text>
</a>
</g>
</g>
<!-- Policy&#45;&gt;Queue -->
<g id="edge7" class="edge">
<title>Policy&#45;&gt;Queue</title>
<path fill="none" stroke="black" d="M582.68,-356.51C583.77,-344.68 585.23,-328.7 586.49,-315"/>
<polygon fill="black" stroke="black" points="589.96,-315.49 587.38,-305.21 582.99,-314.85 589.96,-315.49"/>
<text xml:space="preserve" text-anchor="middle" x="613.19" y="-325.45" font-family="Times,serif" font-size="14.00">allowed</text>
</g>
<!-- EventBus -->
<g id="node8" class="node">
<title>EventBus</title>
<g id="a_node8"><a xlink:href="event_bus/12_event_bus.svg" xlink:title="EventBus\nobservation only">
<polygon fill="#ede7f6" stroke="#512da8" points="567.72,-125 480.47,-125 480.47,-89 567.72,-89 567.72,-125"/>
<text xml:space="preserve" text-anchor="middle" x="524.1" y="-109.5" font-family="Arial" font-size="10.00">EventBus</text>
<text xml:space="preserve" text-anchor="middle" x="524.1" y="-97.5" font-family="Arial" font-size="10.00">observation only</text>
</a>
</g>
</g>
<!-- Policy&#45;&gt;EventBus -->
<g id="edge8" class="edge">
<title>Policy&#45;&gt;EventBus</title>
<path fill="none" stroke="black" stroke-dasharray="5,2" d="M567.66,-356.47C550.76,-333.54 522.66,-291.09 511.85,-249.5 501.88,-211.12 509.27,-165.11 516.15,-136.21"/>
<polygon fill="black" stroke="black" points="519.47,-137.32 518.54,-126.77 512.69,-135.6 519.47,-137.32"/>
<text xml:space="preserve" text-anchor="middle" x="572.97" y="-236.2" font-family="Times,serif" font-size="14.00">POLICY_DENIED</text>
</g>
<!-- Policy&#45;&gt;Telemetry -->
<g id="edge9" class="edge">
<title>Policy&#45;&gt;Telemetry</title>
<path fill="none" stroke="black" stroke-dasharray="5,2" d="M544.26,-360.67C539.53,-359.22 534.73,-357.87 530.1,-356.75 479.72,-344.51 460.26,-363.75 414.85,-338.75 403.64,-332.58 393.87,-322.55 386.26,-312.92"/>
<polygon fill="black" stroke="black" points="389.3,-311.15 380.56,-305.17 383.66,-315.29 389.3,-311.15"/>
<text xml:space="preserve" text-anchor="middle" x="460.97" y="-325.45" font-family="Times,serif" font-size="14.00">denied count</text>
</g>
<!-- Queue&#45;&gt;Dispatcher -->
<g id="edge11" class="edge">
<title>Queue&#45;&gt;Dispatcher</title>
<path fill="none" stroke="black" d="M620.75,-267.17C627.35,-262.24 633.64,-256.33 638.1,-249.5 642.67,-242.51 645.38,-233.98 646.98,-225.85"/>
<polygon fill="black" stroke="black" points="650.45,-226.35 648.4,-215.95 643.52,-225.36 650.45,-226.35"/>
</g>
<!-- Dispatcher&#45;&gt;Proxy -->
<g id="edge14" class="edge">
<title>Dispatcher&#45;&gt;Proxy</title>
<path fill="none" stroke="black" stroke-dasharray="5,2" d="M649.19,-214.72C649.17,-241.49 648.5,-294.23 644.1,-338.75 639.21,-388.16 619.96,-511.04 608.1,-559.25 605.48,-569.9 601.87,-581.38 598.44,-591.43"/>
<polygon fill="black" stroke="black" points="595.23,-590.03 595.21,-600.62 601.83,-592.35 595.23,-590.03"/>
<text xml:space="preserve" text-anchor="middle" x="691.83" y="-370.07" font-family="Times,serif" font-size="14.00">Request.reply</text>
</g>
<!-- Dispatcher&#45;&gt;EventBus -->
<g id="edge12" class="edge">
<title>Dispatcher&#45;&gt;EventBus</title>
<path fill="none" stroke="black" stroke-dasharray="5,2" d="M617.16,-189.06C597.55,-183.96 572.88,-175.1 555.1,-160.25 547.07,-153.54 540.61,-144.19 535.71,-135.25"/>
<polygon fill="black" stroke="black" points="538.93,-133.87 531.34,-126.48 532.66,-136.99 538.93,-133.87"/>
<text xml:space="preserve" text-anchor="middle" x="600.1" y="-146.95" font-family="Times,serif" font-size="14.00">publish copy</text>
</g>
<!-- Lifecycle -->
<g id="node9" class="node">
<title>Lifecycle</title>
<g id="a_node9"><a xlink:href="../00_global.svg" xlink:title="Lifecycle">
<polygon fill="#ede7f6" stroke="#512da8" points="676.6,-125 621.6,-125 621.6,-89 676.6,-89 676.6,-125"/>
<text xml:space="preserve" text-anchor="middle" x="649.1" y="-103.5" font-family="Arial" font-size="10.00">Lifecycle</text>
</a>
</g>
</g>
<!-- Dispatcher&#45;&gt;Lifecycle -->
<g id="edge13" class="edge">
<title>Dispatcher&#45;&gt;Lifecycle</title>
<path fill="none" stroke="black" d="M649.1,-178.01C649.1,-166.18 649.1,-150.2 649.1,-136.5"/>
<polygon fill="black" stroke="black" points="652.6,-136.72 649.1,-126.72 645.6,-136.72 652.6,-136.72"/>
<text xml:space="preserve" text-anchor="middle" x="711.72" y="-146.95" font-family="Times,serif" font-size="14.00">lifecycle handlers</text>
</g>
<!-- ContextRequest -->
<g id="node13" class="node">
<title>ContextRequest</title>
<g id="a_node13"><a xlink:href="../context/20_context.svg" xlink:title="CONTEXT_REQUEST\nRequest.reply">
<polygon fill="#fff3e0" stroke="#ef6c00" points="183.1,-303.5 65.1,-303.5 65.1,-267.5 183.1,-267.5 183.1,-303.5"/>
<text xml:space="preserve" text-anchor="middle" x="124.1" y="-288" font-family="Arial" font-size="10.00">CONTEXT_REQUEST</text>
<text xml:space="preserve" text-anchor="middle" x="124.1" y="-276" font-family="Arial" font-size="10.00">Request.reply</text>
</a>
</g>
</g>
<!-- Dispatcher&#45;&gt;ContextRequest -->
<g id="edge19" class="edge">
<title>Dispatcher&#45;&gt;ContextRequest</title>
<path fill="none" stroke="black" d="M617.32,-198.92C558,-202.42 426.54,-211.92 317.6,-232.25 274.64,-240.27 227.25,-252.99 190.13,-263.88"/>
<polygon fill="black" stroke="black" points="189.49,-260.42 180.9,-266.61 191.48,-267.13 189.49,-260.42"/>
<text xml:space="preserve" text-anchor="middle" x="403.85" y="-236.2" font-family="Times,serif" font-size="14.00">ContextRequestHandler</text>
</g>
<!-- InferenceHandler -->
<g id="node18" class="node">
<title>InferenceHandler</title>
<g id="a_node18"><a xlink:href="../inference/40_inference.svg" xlink:title="InferenceRequestHandler">
<polygon fill="#fffde7" stroke="#f9a825" points="931.6,-500.75 804.6,-500.75 804.6,-464.75 931.6,-464.75 931.6,-500.75"/>
<text xml:space="preserve" text-anchor="middle" x="868.1" y="-479.25" font-family="Arial" font-size="10.00">InferenceRequestHandler</text>
</a>
</g>
</g>
<!-- Dispatcher&#45;&gt;InferenceHandler -->
<g id="edge28" class="edge">
<title>Dispatcher&#45;&gt;InferenceHandler</title>
<path fill="none" stroke="black" d="M681.07,-197.08C710.43,-198.72 753.06,-205.95 778.1,-232.25 845.39,-302.94 773.95,-363.63 825.1,-446.75 827.3,-450.32 829.99,-453.69 832.95,-456.82"/>
<polygon fill="black" stroke="black" points="830.43,-459.26 840.13,-463.51 835.2,-454.13 830.43,-459.26"/>
</g>
<!-- ContextEngine&#45;&gt;Telemetry -->
<g id="edge25" class="edge">
<title>ContextEngine&#45;&gt;Telemetry</title>
<path fill="none" stroke="black" stroke-dasharray="5,2" d="M141.88,-464.49C140.99,-438.01 143.25,-387.24 170.1,-356.75 206.52,-315.4 268.84,-298.39 314.05,-291.39"/>
<polygon fill="black" stroke="black" points="314.53,-294.86 323.94,-289.99 313.55,-287.93 314.53,-294.86"/>
<text xml:space="preserve" text-anchor="middle" x="212.1" y="-370.07" font-family="Times,serif" font-size="14.00">context tick</text>
</g>
<!-- ContextCollector -->
<g id="node12" class="node">
<title>ContextCollector</title>
<g id="a_node12"><a xlink:href="../context/20_context.svg" xlink:title="ContextCollector">
<polygon fill="#fff3e0" stroke="#ef6c00" points="119.85,-392.75 30.35,-392.75 30.35,-356.75 119.85,-356.75 119.85,-392.75"/>
<text xml:space="preserve" text-anchor="middle" x="75.1" y="-371.25" font-family="Arial" font-size="10.00">ContextCollector</text>
</a>
</g>
</g>
<!-- ContextEngine&#45;&gt;ContextCollector -->
<g id="edge16" class="edge">
<title>ContextEngine&#45;&gt;ContextCollector</title>
<path fill="none" stroke="black" d="M138.06,-464.35C133.19,-449.3 124.8,-427.39 113.1,-410.75 110.81,-407.5 108.18,-404.32 105.38,-401.29"/>
<polygon fill="black" stroke="black" points="107.88,-398.84 98.32,-394.28 102.94,-403.81 107.88,-398.84"/>
</g>
<!-- ContextCollector&#45;&gt;ContextRequest -->
<g id="edge17" class="edge">
<title>ContextCollector&#45;&gt;ContextRequest</title>
<path fill="none" stroke="black" d="M84.78,-356.51C91.69,-344.2 101.13,-327.41 109.02,-313.35"/>
<polygon fill="black" stroke="black" points="111.85,-315.45 113.7,-305.02 105.75,-312.03 111.85,-315.45"/>
</g>
<!-- ContextRequest&#45;&gt;Proxy -->
<g id="edge20" class="edge">
<title>ContextRequest&#45;&gt;Proxy</title>
<path fill="none" stroke="black" d="M87.2,-303.98C65.26,-316.06 38.42,-334.02 21.1,-356.75 5.72,-376.93 6.77,-385.73 2.6,-410.75 -10.14,-487.22 26.24,-521.77 94.1,-559.25 168.04,-600.09 417.23,-613.69 530.82,-617.84"/>
<polygon fill="black" stroke="black" points="530.4,-621.33 540.51,-618.18 530.64,-614.33 530.4,-621.33"/>
<text xml:space="preserve" text-anchor="middle" x="55.85" y="-424.07" font-family="Times,serif" font-size="14.00">proxy.context()</text>
</g>
<!-- ContextRequest&#45;&gt;Scheduler -->
<g id="edge18" class="edge">
<title>ContextRequest&#45;&gt;Scheduler</title>
<path fill="none" stroke="black" d="M161.88,-303.99C188.58,-317.04 224.71,-336.11 254.1,-356.75 257.13,-358.88 326.43,-420.99 366.37,-456.84"/>
<polygon fill="black" stroke="black" points="363.98,-459.4 373.76,-463.48 368.65,-454.19 363.98,-459.4"/>
<text xml:space="preserve" text-anchor="middle" x="310.51" y="-370.07" font-family="Times,serif" font-size="14.00">emit</text>
</g>
<!-- ContextReply -->
<g id="node14" class="node">
<title>ContextReply</title>
<g id="a_node14"><a xlink:href="../context/20_context.svg" xlink:title="CONTEXT_REPLY">
<polygon fill="#fff3e0" stroke="#ef6c00" points="174.85,-214.25 73.35,-214.25 73.35,-178.25 174.85,-178.25 174.85,-214.25"/>
<text xml:space="preserve" text-anchor="middle" x="124.1" y="-192.75" font-family="Arial" font-size="10.00">CONTEXT_REPLY</text>
</a>
</g>
</g>
<!-- ContextRequest&#45;&gt;ContextReply -->
<g id="edge21" class="edge">
<title>ContextRequest&#45;&gt;ContextReply</title>
<path fill="none" stroke="black" d="M124.1,-267.26C124.1,-255.43 124.1,-239.45 124.1,-225.75"/>
<polygon fill="black" stroke="black" points="127.6,-225.97 124.1,-215.97 120.6,-225.97 127.6,-225.97"/>
<text xml:space="preserve" text-anchor="middle" x="142.47" y="-236.2" font-family="Times,serif" font-size="14.00">reply</text>
</g>
<!-- ContextReply&#45;&gt;EventBus -->
<g id="edge22" class="edge">
<title>ContextReply&#45;&gt;EventBus</title>
<path fill="none" stroke="black" stroke-dasharray="5,2" d="M175.17,-184.11C250.65,-167.65 391.41,-136.94 469.09,-120"/>
<polygon fill="black" stroke="black" points="469.58,-123.47 478.6,-117.92 468.09,-116.64 469.58,-123.47"/>
</g>
<!-- ContextReducer -->
<g id="node15" class="node">
<title>ContextReducer</title>
<g id="a_node15"><a xlink:href="../context/20_context.svg" xlink:title="ContextReducer">
<polygon fill="#fff3e0" stroke="#ef6c00" points="166.72,-125 79.47,-125 79.47,-89 166.72,-89 166.72,-125"/>
<text xml:space="preserve" text-anchor="middle" x="123.1" y="-103.5" font-family="Arial" font-size="10.00">ContextReducer</text>
</a>
</g>
</g>
<!-- ContextReply&#45;&gt;ContextReducer -->
<g id="edge23" class="edge">
<title>ContextReply&#45;&gt;ContextReducer</title>
<path fill="none" stroke="black" d="M123.9,-178.01C123.77,-166.18 123.58,-150.2 123.43,-136.5"/>
<polygon fill="black" stroke="black" points="126.93,-136.67 123.31,-126.72 119.93,-136.75 126.93,-136.67"/>
</g>
<!-- Snapshot -->
<g id="node16" class="node">
<title>Snapshot</title>
<g id="a_node16"><a xlink:href="../context/20_context.svg" xlink:title="GlobalContextSnapshot">
<polygon fill="#fff3e0" stroke="#ef6c00" points="182.85,-52 63.35,-52 63.35,-16 182.85,-16 182.85,-52"/>
<text xml:space="preserve" text-anchor="middle" x="123.1" y="-30.5" font-family="Arial" font-size="10.00">GlobalContextSnapshot</text>
</a>
</g>
</g>
<!-- ContextReducer&#45;&gt;Snapshot -->
<g id="edge24" class="edge">
<title>ContextReducer&#45;&gt;Snapshot</title>
<path fill="none" stroke="black" d="M123.1,-88.81C123.1,-81.23 123.1,-72.1 123.1,-63.54"/>
<polygon fill="black" stroke="black" points="126.6,-63.54 123.1,-53.54 119.6,-63.54 126.6,-63.54"/>
</g>
<!-- InferenceRequest&#45;&gt;Scheduler -->
<g id="edge27" class="edge">
<title>InferenceRequest&#45;&gt;Scheduler</title>
<path fill="none" stroke="black" d="M1003.09,-501.04C990.68,-519.67 968.61,-547.46 941.1,-559.23 891.86,-580.3 507.71,-581.71 459.1,-559.23 437.55,-549.26 420.53,-528.24 409.31,-510.75"/>
<polygon fill="black" stroke="black" points="412.35,-509.01 404.18,-502.27 406.36,-512.64 412.35,-509.01"/>
<text xml:space="preserve" text-anchor="middle" x="631.1" y="-571.2" font-family="Times,serif" font-size="14.00">emit</text>
</g>
<!-- InferenceHandler&#45;&gt;Proxy -->
<g id="edge35" class="edge">
<title>InferenceHandler&#45;&gt;Proxy</title>
<path fill="none" stroke="black" stroke-dasharray="5,2" d="M853.49,-501.15C838.29,-518.22 812.97,-543.87 786.1,-559.25 742.06,-584.45 686.35,-600.18 645.25,-609.23"/>
<polygon fill="black" stroke="black" points="644.61,-605.78 635.55,-611.29 646.06,-612.63 644.61,-605.78"/>
<text xml:space="preserve" text-anchor="middle" x="816.16" y="-571.2" font-family="Times,serif" font-size="14.00">Request.reply</text>
</g>
<!-- InferenceAdapter -->
<g id="node19" class="node">
<title>InferenceAdapter</title>
<g id="a_node19"><a xlink:href="../inference/40_inference.svg" xlink:title="InferenceAdapter">
<polygon fill="#fffde7" stroke="#f9a825" points="928.22,-392.75 837.97,-392.75 837.97,-356.75 928.22,-356.75 928.22,-392.75"/>
<text xml:space="preserve" text-anchor="middle" x="883.1" y="-371.25" font-family="Arial" font-size="10.00">InferenceAdapter</text>
</a>
</g>
</g>
<!-- InferenceHandler&#45;&gt;InferenceAdapter -->
<g id="edge29" class="edge">
<title>InferenceHandler&#45;&gt;InferenceAdapter</title>
<path fill="none" stroke="black" d="M846.46,-464.49C841.55,-459.35 837,-453.33 834.35,-446.75 828.36,-431.91 827.05,-424.99 834.35,-410.75 836.27,-407.01 838.8,-403.57 841.69,-400.45"/>
<polygon fill="black" stroke="black" points="843.87,-403.2 848.93,-393.89 839.17,-398.01 843.87,-403.2"/>
<text xml:space="preserve" text-anchor="middle" x="851.22" y="-424.07" font-family="Times,serif" font-size="14.00">infer</text>
</g>
<!-- InferenceResult -->
<g id="node21" class="node">
<title>InferenceResult</title>
<g id="a_node21"><a xlink:href="../inference/40_inference.svg" xlink:title="INFERENCE_RESULT\nobservable">
<polygon fill="#fffde7" stroke="#f9a825" points="1078.85,-392.75 959.35,-392.75 959.35,-356.75 1078.85,-356.75 1078.85,-392.75"/>
<text xml:space="preserve" text-anchor="middle" x="1019.1" y="-377.25" font-family="Arial" font-size="10.00">INFERENCE_RESULT</text>
<text xml:space="preserve" text-anchor="middle" x="1019.1" y="-365.25" font-family="Arial" font-size="10.00">observable</text>
</a>
</g>
</g>
<!-- InferenceHandler&#45;&gt;InferenceResult -->
<g id="edge33" class="edge">
<title>InferenceHandler&#45;&gt;InferenceResult</title>
<path fill="none" stroke="black" d="M931.79,-465.56C962.16,-457.61 992.5,-449.2 995.1,-446.75 1006.82,-435.68 1012.82,-418.7 1015.88,-404.12"/>
<polygon fill="black" stroke="black" points="1019.28,-405.04 1017.52,-394.59 1012.38,-403.86 1019.28,-405.04"/>
<text xml:space="preserve" text-anchor="middle" x="1040.26" y="-424.07" font-family="Times,serif" font-size="14.00">publish</text>
</g>
<!-- InferenceAdapter&#45;&gt;InferenceHandler -->
<g id="edge32" class="edge">
<title>InferenceAdapter&#45;&gt;InferenceHandler</title>
<path fill="none" stroke="black" d="M880.65,-393.09C878.34,-409.41 874.84,-434.13 872.12,-453.33"/>
<polygon fill="black" stroke="black" points="868.66,-452.83 870.72,-463.22 875.59,-453.81 868.66,-452.83"/>
<text xml:space="preserve" text-anchor="middle" x="934.44" y="-424.07" font-family="Times,serif" font-size="14.00">InferenceResult</text>
</g>
<!-- DummyBackend -->
<g id="node20" class="node">
<title>DummyBackend</title>
<g id="a_node20"><a xlink:href="../inference/40_inference.svg" xlink:title="DummyInferenceBackend">
<polygon fill="#fffde7" stroke="#f9a825" points="993.72,-303.5 864.47,-303.5 864.47,-267.5 993.72,-267.5 993.72,-303.5"/>
<text xml:space="preserve" text-anchor="middle" x="929.1" y="-282" font-family="Arial" font-size="10.00">DummyInferenceBackend</text>
</a>
</g>
</g>
<!-- InferenceAdapter&#45;&gt;DummyBackend -->
<g id="edge30" class="edge">
<title>InferenceAdapter&#45;&gt;DummyBackend</title>
<path fill="none" stroke="black" d="M851.78,-356.3C838.47,-346.56 827.77,-333.91 836.35,-321.5 841.06,-314.69 847.28,-309.2 854.27,-304.78"/>
<polygon fill="black" stroke="black" points="855.76,-307.95 862.88,-300.11 852.42,-301.8 855.76,-307.95"/>
<text xml:space="preserve" text-anchor="middle" x="889.22" y="-325.45" font-family="Times,serif" font-size="14.00">select backend</text>
</g>
<!-- DummyBackend&#45;&gt;InferenceAdapter -->
<g id="edge31" class="edge">
<title>DummyBackend&#45;&gt;InferenceAdapter</title>
<path fill="none" stroke="black" d="M939.59,-303.85C944.56,-314.47 948.21,-328.03 942.1,-338.75 939.88,-342.66 937.03,-346.17 933.78,-349.32"/>
<polygon fill="black" stroke="black" points="931.76,-346.46 926.22,-355.48 936.18,-351.88 931.76,-346.46"/>
<text xml:space="preserve" text-anchor="middle" x="1001.92" y="-325.45" font-family="Times,serif" font-size="14.00">InferenceResult</text>
</g>
<!-- InferenceResult&#45;&gt;EventBus -->
<g id="edge34" class="edge">
<title>InferenceResult&#45;&gt;EventBus</title>
<path fill="none" stroke="black" stroke-dasharray="5,2" d="M1047.88,-356.35C1053.62,-351.43 1058.88,-345.53 1062.1,-338.75 1065.39,-331.83 1064.95,-328.62 1062.1,-321.5 1019.95,-216.06 782.23,-144.25 778.1,-143 707.48,-121.68 686.05,-135.93 613.1,-125 602.02,-123.34 590.21,-121.29 578.94,-119.19"/>
<polygon fill="black" stroke="black" points="579.86,-115.8 569.38,-117.37 578.55,-122.68 579.86,-115.8"/>
</g>
<!-- Nav_Global -->
<g id="node23" class="node">
<title>Nav_Global</title>
<g id="a_node23"><a xlink:href="../00_global.svg" xlink:title="Global">
<polygon fill="lightgrey" stroke="none" points="1149.1,-446.75 1095.1,-446.75 1095.1,-410.75 1149.1,-410.75 1149.1,-446.75"/>
<text xml:space="preserve" text-anchor="middle" x="1122.1" y="-425.25" font-family="Arial" font-size="10.00">Global</text>
</a>
</g>
</g>
<!-- Nav_Dispatcher -->
<g id="node24" class="node">
<title>Nav_Dispatcher</title>
<g id="a_node24"><a xlink:href="dispatcher/11_dispatcher.svg" xlink:title="Dispatcher">
<polygon fill="lightgrey" stroke="none" points="1217.72,-446.75 1154.47,-446.75 1154.47,-410.75 1217.72,-410.75 1217.72,-446.75"/>
<text xml:space="preserve" text-anchor="middle" x="1186.1" y="-425.25" font-family="Arial" font-size="10.00">Dispatcher</text>
</a>
</g>
</g>
<!-- Nav_EventBus -->
<g id="node25" class="node">
<title>Nav_EventBus</title>
<g id="a_node25"><a xlink:href="event_bus/12_event_bus.svg" xlink:title="EventBus">
<polygon fill="lightgrey" stroke="none" points="1281.47,-446.75 1222.72,-446.75 1222.72,-410.75 1281.47,-410.75 1281.47,-446.75"/>
<text xml:space="preserve" text-anchor="middle" x="1252.1" y="-425.25" font-family="Arial" font-size="10.00">EventBus</text>
</a>
</g>
</g>
<!-- Nav_Queue -->
<g id="node26" class="node">
<title>Nav_Queue</title>
<g id="a_node26"><a xlink:href="priority_queue/13_priority_queue.svg" xlink:title="Priority Queue">
<polygon fill="lightgrey" stroke="none" points="1365.22,-446.75 1286.97,-446.75 1286.97,-410.75 1365.22,-410.75 1365.22,-446.75"/>
<text xml:space="preserve" text-anchor="middle" x="1326.1" y="-425.25" font-family="Arial" font-size="10.00">Priority Queue</text>
</a>
</g>
</g>
<!-- Nav_Proxy -->
<g id="node27" class="node">
<title>Nav_Proxy</title>
<g id="a_node27"><a xlink:href="component_proxy/14_component_proxy.svg" xlink:title="Component Proxy">
<polygon fill="lightgrey" stroke="none" points="1465.47,-446.75 1370.72,-446.75 1370.72,-410.75 1465.47,-410.75 1465.47,-446.75"/>
<text xml:space="preserve" text-anchor="middle" x="1418.1" y="-425.25" font-family="Arial" font-size="10.00">Component Proxy</text>
</a>
</g>
</g>
<!-- Nav_Inference -->
<g id="node28" class="node">
<title>Nav_Inference</title>
<g id="a_node28"><a xlink:href="../inference/40_inference.svg" xlink:title="Inference">
<polygon fill="lightgrey" stroke="none" points="1527.35,-446.75 1470.85,-446.75 1470.85,-410.75 1527.35,-410.75 1527.35,-446.75"/>
<text xml:space="preserve" text-anchor="middle" x="1499.1" y="-425.25" font-family="Arial" font-size="10.00">Inference</text>
</a>
</g>
</g>
<!-- Nav_Policy -->
<g id="node29" class="node">
<title>Nav_Policy</title>
<g id="a_node29"><a xlink:href="../00_global.svg" xlink:title="Policy">
<polygon fill="lightgrey" stroke="none" points="1586.1,-446.75 1532.1,-446.75 1532.1,-410.75 1586.1,-410.75 1586.1,-446.75"/>
<text xml:space="preserve" text-anchor="middle" x="1559.1" y="-425.25" font-family="Arial" font-size="10.00">Policy</text>
</a>
</g>
</g>
<!-- Nav_Observability -->
<g id="node30" class="node">
<title>Nav_Observability</title>
<g id="a_node30"><a xlink:href="../observability/70_observability.svg" xlink:title="Observability">
<polygon fill="lightgrey" stroke="none" points="1664.6,-446.75 1591.6,-446.75 1591.6,-410.75 1664.6,-410.75 1664.6,-446.75"/>
<text xml:space="preserve" text-anchor="middle" x="1628.1" y="-425.25" font-family="Arial" font-size="10.00">Observability</text>
</a>
</g>
</g>
</g>
</svg>
