<?xml version="1.0" encoding="UTF-8" standalone="no"?>
<!DOCTYPE svg PUBLIC "-//W3C//DTD SVG 1.1//EN"
 "http://www.w3.org/Graphics/SVG/1.1/DTD/svg11.dtd">
<!-- Generated by graphviz version 14.1.3 (20260303.0454)
 -->
<!-- Title: Scheduler Pages: 1 -->
<svg width="994pt" height="726pt"
 viewBox="0.00 0.00 994.00 726.00" xmlns="http://www.w3.org/2000/svg" xmlns:xlink="http://www.w3.org/1999/xlink">
<g id="graph0" class="graph" transform="scale(1 1) rotate(0) translate(4 722.3)">
<title>Scheduler</title>
<polygon fill="white" stroke="none" points="-4,4 -4,-722.3 990.38,-722.3 990.38,4 -4,4"/>
<g id="clust1" class="cluster">
<title>cluster_kernel</title>
<polygon fill="#ede7f6" stroke="#512da8" points="8,-81 8,-710.3 280,-710.3 280,-81 8,-81"/>
<text xml:space="preserve" text-anchor="middle" x="144" y="-693" font-family="Times,serif" font-size="14.00">Micro Kernel (focus)</text>
</g>
<g id="clust2" class="cluster">
<title>cluster_context</title>
<polygon fill="#fff3e0" stroke="#ef6c00" points="439,-8 439,-541.05 608,-541.05 608,-8 439,-8"/>
<text xml:space="preserve" text-anchor="middle" x="523.5" y="-523.75" font-family="Times,serif" font-size="14.00">Context Fabric active</text>
</g>
<g id="clust3" class="cluster">
<title>cluster_experts</title>
<polygon fill="none" stroke="#388e3c" points="288,-383.7 288,-428.55 360,-428.55 360,-383.7 288,-383.7"/>
<text xml:space="preserve" text-anchor="middle" x="324" y="-411.25" font-family="Times,serif" font-size="14.00">Experts</text>
</g>
<!-- Launcher -->
<g id="node1" class="node">
<title>Launcher</title>
<g id="a_node1"><a xlink:href="../00_global.svg" xlink:title="Launcher">
<polygon fill="#ede7f6" stroke="#512da8" points="201.88,-677.05 146.12,-677.05 146.12,-641.05 201.88,-641.05 201.88,-677.05"/>
<text xml:space="preserve" text-anchor="middle" x="174" y="-655.55" font-family="Arial" font-size="10.00">Launcher</text>
</a>
</g>
</g>
<!-- Registry -->
<g id="node2" class="node">
<title>Registry</title>
<g id="a_node2"><a xlink:href="../00_global.svg" xlink:title="Registry">
<polygon fill="#ede7f6" stroke="#512da8" points="201,-604.05 147,-604.05 147,-568.05 201,-568.05 201,-604.05"/>
<text xml:space="preserve" text-anchor="middle" x="174" y="-582.55" font-family="Arial" font-size="10.00">Registry</text>
</a>
</g>
</g>
<!-- Launcher&#45;&gt;Registry -->
<g id="edge1" class="edge">
<title>Launcher&#45;&gt;Registry</title>
<path fill="none" stroke="black" d="M174,-640.86C174,-633.28 174,-624.15 174,-615.59"/>
<polygon fill="black" stroke="black" points="177.5,-615.59 174,-605.59 170.5,-615.59 177.5,-615.59"/>
</g>
<!-- Proxy -->
<g id="node3" class="node">
<title>Proxy</title>
<g id="a_node3"><a xlink:href="component_proxy/14_component_proxy.svg" xlink:title="ComponentProxy">
<polygon fill="#ede7f6" stroke="#512da8" points="219.88,-507.8 128.12,-507.8 128.12,-471.8 219.88,-471.8 219.88,-507.8"/>
<text xml:space="preserve" text-anchor="middle" x="174" y="-486.3" font-family="Arial" font-size="10.00">ComponentProxy</text>
</a>
</g>
</g>
<!-- Registry&#45;&gt;Proxy -->
<g id="edge2" class="edge">
<title>Registry&#45;&gt;Proxy</title>
<path fill="none" stroke="black" d="M174,-567.76C174,-554.3 174,-535.31 174,-519.56"/>
<polygon fill="black" stroke="black" points="177.5,-519.81 174,-509.81 170.5,-519.81 177.5,-519.81"/>
</g>
<!-- Scheduler -->
<g id="node4" class="node">
<title>Scheduler</title>
<g id="a_node4"><a xlink:href="../00_global.svg" xlink:title="Scheduler">
<polygon fill="#ede7f6" stroke="#512da8" points="261.75,-411.5 202.25,-411.5 202.25,-375.5 261.75,-375.5 261.75,-411.5"/>
<text xml:space="preserve" text-anchor="middle" x="232" y="-390" font-family="Arial" font-size="10.00">Scheduler</text>
</a>
</g>
</g>
<!-- Proxy&#45;&gt;Scheduler -->
<g id="edge3" class="edge">
<title>Proxy&#45;&gt;Scheduler</title>
<path fill="none" stroke="black" d="M139.52,-471.32C125.42,-461.77 114.25,-449.3 123,-436.55 138.16,-414.46 166.69,-403.97 190.76,-398.99"/>
<polygon fill="black" stroke="black" points="191.07,-402.49 200.3,-397.28 189.84,-395.6 191.07,-402.49"/>
<text xml:space="preserve" text-anchor="middle" x="163.5" y="-440.5" font-family="Times,serif" font-size="14.00">yield Event</text>
</g>
<!-- ExpertGroup -->
<g id="node15" class="node">
<title>ExpertGroup</title>
<g id="a_node15"><a xlink:href="../experts/40_experts.svg" xlink:title="Experts">
<ellipse fill="#e8f5e9" stroke="#388e3c" cx="298" cy="-393.5" rx="1.8" ry="1.8"/>
</a>
</g>
</g>
<!-- Proxy&#45;&gt;ExpertGroup -->
<g id="edge19" class="edge">
<title>Proxy&#45;&gt;ExpertGroup</title>
<path fill="none" stroke="black" d="M189.35,-471.55C201.75,-458.05 218.54,-440.84 227.25,-436.55 250.1,-425.29 263.88,-444.17 284,-428.55 290.8,-423.27 294.32,-414.11 296.13,-406.62"/>
<polygon fill="black" stroke="black" points="299.54,-407.48 297.69,-397.05 292.63,-406.36 299.54,-407.48"/>
<text xml:space="preserve" text-anchor="middle" x="299.62" y="-440.5" font-family="Times,serif" font-size="14.00">délègue tick/context</text>
</g>
<!-- Queue -->
<g id="node5" class="node">
<title>Queue</title>
<g id="a_node5"><a xlink:href="priority_queue/13_priority_queue.svg" xlink:title="PriorityQueue">
<polygon fill="#ede7f6" stroke="#512da8" points="249.62,-303.5 174.38,-303.5 174.38,-267.5 249.62,-267.5 249.62,-303.5"/>
<text xml:space="preserve" text-anchor="middle" x="212" y="-282" font-family="Arial" font-size="10.00">PriorityQueue</text>
</a>
</g>
</g>
<!-- Scheduler&#45;&gt;Queue -->
<g id="edge4" class="edge">
<title>Scheduler&#45;&gt;Queue</title>
<path fill="none" stroke="black" d="M228.79,-375.47C225.71,-359.19 221.02,-334.32 217.38,-315.02"/>
<polygon fill="black" stroke="black" points="220.85,-314.51 215.55,-305.33 213.97,-315.8 220.85,-314.51"/>
</g>
<!-- ContextEngine -->
<g id="node9" class="node">
<title>ContextEngine</title>
<g id="a_node9"><a xlink:href="../context/20_context.svg" xlink:title="ContextEngine">
<polygon fill="#fff3e0" stroke="#ef6c00" points="553.25,-507.8 472.75,-507.8 472.75,-471.8 553.25,-471.8 553.25,-507.8"/>
<text xml:space="preserve" text-anchor="middle" x="513" y="-486.3" font-family="Arial" font-size="10.00">ContextEngine</text>
</a>
</g>
</g>
<!-- Scheduler&#45;&gt;ContextEngine -->
<g id="edge9" class="edge">
<title>Scheduler&#45;&gt;ContextEngine</title>
<path fill="none" stroke="black" d="M253.25,-411.84C262.21,-418.2 273.09,-424.77 284,-428.55 322.79,-441.98 336,-427.37 376,-436.55 406.64,-443.58 439.6,-455.99 465.51,-466.94"/>
<polygon fill="black" stroke="black" points="463.83,-470.03 474.4,-470.78 466.6,-463.6 463.83,-470.03"/>
<text xml:space="preserve" text-anchor="middle" x="463.24" y="-440.5" font-family="Times,serif" font-size="14.00">clock tick</text>
</g>
<!-- Dispatcher -->
<g id="node6" class="node">
<title>Dispatcher</title>
<g id="a_node6"><a xlink:href="dispatcher/11_dispatcher.svg" xlink:title="Dispatcher">
<polygon fill="#ede7f6" stroke="#512da8" points="213.62,-214.25 150.38,-214.25 150.38,-178.25 213.62,-178.25 213.62,-214.25"/>
<text xml:space="preserve" text-anchor="middle" x="182" y="-192.75" font-family="Arial" font-size="10.00">Dispatcher</text>
</a>
</g>
</g>
<!-- Queue&#45;&gt;Dispatcher -->
<g id="edge5" class="edge">
<title>Queue&#45;&gt;Dispatcher</title>
<path fill="none" stroke="black" d="M206.07,-267.26C201.96,-255.31 196.4,-239.13 191.66,-225.33"/>
<polygon fill="black" stroke="black" points="194.97,-224.2 188.41,-215.88 188.35,-226.48 194.97,-224.2"/>
</g>
<!-- Dispatcher&#45;&gt;Proxy -->
<g id="edge8" class="edge">
<title>Dispatcher&#45;&gt;Proxy</title>
<path fill="none" stroke="black" stroke-dasharray="5,2" d="M169.04,-214.61C152.75,-237.63 125.65,-280.18 115.25,-321.5 100.9,-378.52 86.89,-402.71 116,-453.8 118.2,-457.66 121.01,-461.14 124.2,-464.27"/>
<polygon fill="black" stroke="black" points="121.69,-466.73 131.63,-470.38 126.13,-461.33 121.69,-466.73"/>
<text xml:space="preserve" text-anchor="middle" x="165.12" y="-334.82" font-family="Times,serif" font-size="14.00">Request.reply</text>
</g>
<!-- EventBus -->
<g id="node7" class="node">
<title>EventBus</title>
<g id="a_node7"><a xlink:href="event_bus/12_event_bus.svg" xlink:title="EventBus\nobservation only">
<polygon fill="#ede7f6" stroke="#512da8" points="248.62,-125 161.38,-125 161.38,-89 248.62,-89 248.62,-125"/>
<text xml:space="preserve" text-anchor="middle" x="205" y="-109.5" font-family="Arial" font-size="10.00">EventBus</text>
<text xml:space="preserve" text-anchor="middle" x="205" y="-97.5" font-family="Arial" font-size="10.00">observation only</text>
</a>
</g>
</g>
<!-- Dispatcher&#45;&gt;EventBus -->
<g id="edge6" class="edge">
<title>Dispatcher&#45;&gt;EventBus</title>
<path fill="none" stroke="black" stroke-dasharray="5,2" d="M186.54,-178.01C189.69,-166.06 193.96,-149.88 197.6,-136.08"/>
<polygon fill="black" stroke="black" points="200.91,-137.23 200.08,-126.67 194.15,-135.44 200.91,-137.23"/>
<text xml:space="preserve" text-anchor="middle" x="240.56" y="-146.95" font-family="Times,serif" font-size="14.00">publish copy</text>
</g>
<!-- Lifecycle -->
<g id="node8" class="node">
<title>Lifecycle</title>
<g id="a_node8"><a xlink:href="../00_global.svg" xlink:title="Lifecycle">
<polygon fill="#ede7f6" stroke="#512da8" points="71.5,-125 16.5,-125 16.5,-89 71.5,-89 71.5,-125"/>
<text xml:space="preserve" text-anchor="middle" x="44" y="-103.5" font-family="Arial" font-size="10.00">Lifecycle</text>
</a>
</g>
</g>
<!-- Dispatcher&#45;&gt;Lifecycle -->
<g id="edge7" class="edge">
<title>Dispatcher&#45;&gt;Lifecycle</title>
<path fill="none" stroke="black" d="M149.88,-193.87C123.05,-191.05 85.47,-182.95 61.75,-160.25 55.11,-153.9 50.95,-144.96 48.35,-136.28"/>
<polygon fill="black" stroke="black" points="51.8,-135.65 46.1,-126.72 44.98,-137.25 51.8,-135.65"/>
<text xml:space="preserve" text-anchor="middle" x="124.38" y="-146.95" font-family="Times,serif" font-size="14.00">lifecycle handlers</text>
</g>
<!-- ContextRequest -->
<g id="node11" class="node">
<title>ContextRequest</title>
<g id="a_node11"><a xlink:href="../context/20_context.svg" xlink:title="CONTEXT_REQUEST\nRequest.reply">
<polygon fill="#fff3e0" stroke="#ef6c00" points="565,-303.5 447,-303.5 447,-267.5 565,-267.5 565,-303.5"/>
<text xml:space="preserve" text-anchor="middle" x="506" y="-288" font-family="Arial" font-size="10.00">CONTEXT_REQUEST</text>
<text xml:space="preserve" text-anchor="middle" x="506" y="-276" font-family="Arial" font-size="10.00">Request.reply</text>
</a>
</g>
</g>
<!-- Dispatcher&#45;&gt;ContextRequest -->
<g id="edge13" class="edge">
<title>Dispatcher&#45;&gt;ContextRequest</title>
<path fill="none" stroke="black" d="M214.09,-210.13C243.68,-221.65 289.03,-238.38 329.5,-249.5 363.99,-258.98 402.94,-266.98 435.45,-272.93"/>
<polygon fill="black" stroke="black" points="434.72,-276.35 445.18,-274.68 435.96,-269.46 434.72,-276.35"/>
<text xml:space="preserve" text-anchor="middle" x="415.75" y="-236.2" font-family="Times,serif" font-size="14.00">ContextRequestHandler</text>
</g>
<!-- ContextCollector -->
<g id="node10" class="node">
<title>ContextCollector</title>
<g id="a_node10"><a xlink:href="../context/20_context.svg" xlink:title="ContextCollector">
<polygon fill="#fff3e0" stroke="#ef6c00" points="599.75,-411.5 510.25,-411.5 510.25,-375.5 599.75,-375.5 599.75,-411.5"/>
<text xml:space="preserve" text-anchor="middle" x="555" y="-390" font-family="Arial" font-size="10.00">ContextCollector</text>
</a>
</g>
</g>
<!-- ContextEngine&#45;&gt;ContextCollector -->
<g id="edge10" class="edge">
<title>ContextEngine&#45;&gt;ContextCollector</title>
<path fill="none" stroke="black" d="M520.7,-471.5C526.86,-457.68 535.61,-438.04 542.73,-422.05"/>
<polygon fill="black" stroke="black" points="545.86,-423.63 546.73,-413.07 539.46,-420.78 545.86,-423.63"/>
</g>
<!-- ContextCollector&#45;&gt;ContextRequest -->
<g id="edge11" class="edge">
<title>ContextCollector&#45;&gt;ContextRequest</title>
<path fill="none" stroke="black" d="M547.13,-375.47C539.49,-358.95 527.78,-333.62 518.81,-314.2"/>
<polygon fill="black" stroke="black" points="522.02,-312.82 514.65,-305.21 515.67,-315.76 522.02,-312.82"/>
</g>
<!-- ContextRequest&#45;&gt;Proxy -->
<g id="edge14" class="edge">
<title>ContextRequest&#45;&gt;Proxy</title>
<path fill="none" stroke="black" d="M474.84,-303.9C449.63,-319.52 415.05,-344.7 394.5,-375.5 374.4,-405.62 398.91,-429.57 372,-453.8 351.68,-472.09 282.09,-481.1 231.13,-485.34"/>
<polygon fill="black" stroke="black" points="231.12,-481.83 221.43,-486.11 231.67,-488.81 231.12,-481.83"/>
<text xml:space="preserve" text-anchor="middle" x="447.75" y="-388.82" font-family="Times,serif" font-size="14.00">proxy.context()</text>
</g>
<!-- ContextRequest&#45;&gt;Scheduler -->
<g id="edge12" class="edge">
<title>ContextRequest&#45;&gt;Scheduler</title>
<path fill="none" stroke="black" d="M446.69,-293.47C414.21,-298.63 373.78,-307.31 339.75,-321.5 311.42,-333.31 282.55,-352.82 261.83,-368.4"/>
<polygon fill="black" stroke="black" points="259.92,-365.45 254.12,-374.32 264.18,-371.01 259.92,-365.45"/>
<text xml:space="preserve" text-anchor="middle" x="355.88" y="-334.82" font-family="Times,serif" font-size="14.00">emit</text>
</g>
<!-- ContextReply -->
<g id="node12" class="node">
<title>ContextReply</title>
<g id="a_node12"><a xlink:href="../context/20_context.svg" xlink:title="CONTEXT_REPLY">
<polygon fill="#fff3e0" stroke="#ef6c00" points="556.75,-214.25 455.25,-214.25 455.25,-178.25 556.75,-178.25 556.75,-214.25"/>
<text xml:space="preserve" text-anchor="middle" x="506" y="-192.75" font-family="Arial" font-size="10.00">CONTEXT_REPLY</text>
</a>
</g>
</g>
<!-- ContextRequest&#45;&gt;ContextReply -->
<g id="edge15" class="edge">
<title>ContextRequest&#45;&gt;ContextReply</title>
<path fill="none" stroke="black" d="M506,-267.26C506,-255.43 506,-239.45 506,-225.75"/>
<polygon fill="black" stroke="black" points="509.5,-225.97 506,-215.97 502.5,-225.97 509.5,-225.97"/>
<text xml:space="preserve" text-anchor="middle" x="524.38" y="-236.2" font-family="Times,serif" font-size="14.00">reply</text>
</g>
<!-- ContextReply&#45;&gt;EventBus -->
<g id="edge16" class="edge">
<title>ContextReply&#45;&gt;EventBus</title>
<path fill="none" stroke="black" stroke-dasharray="5,2" d="M454.94,-180.45C400.8,-164.76 315.6,-140.06 260,-123.94"/>
<polygon fill="black" stroke="black" points="260.99,-120.59 250.41,-121.16 259.04,-127.31 260.99,-120.59"/>
</g>
<!-- ContextReducer -->
<g id="node13" class="node">
<title>ContextReducer</title>
<g id="a_node13"><a xlink:href="../context/20_context.svg" xlink:title="ContextReducer">
<polygon fill="#fff3e0" stroke="#ef6c00" points="549.62,-125 462.38,-125 462.38,-89 549.62,-89 549.62,-125"/>
<text xml:space="preserve" text-anchor="middle" x="506" y="-103.5" font-family="Arial" font-size="10.00">ContextReducer</text>
</a>
</g>
</g>
<!-- ContextReply&#45;&gt;ContextReducer -->
<g id="edge17" class="edge">
<title>ContextReply&#45;&gt;ContextReducer</title>
<path fill="none" stroke="black" d="M506,-178.01C506,-166.18 506,-150.2 506,-136.5"/>
<polygon fill="black" stroke="black" points="509.5,-136.72 506,-126.72 502.5,-136.72 509.5,-136.72"/>
</g>
<!-- Snapshot -->
<g id="node14" class="node">
<title>Snapshot</title>
<g id="a_node14"><a xlink:href="../context/20_context.svg" xlink:title="GlobalContextSnapshot">
<polygon fill="#fff3e0" stroke="#ef6c00" points="566.75,-52 447.25,-52 447.25,-16 566.75,-16 566.75,-52"/>
<text xml:space="preserve" text-anchor="middle" x="507" y="-30.5" font-family="Arial" font-size="10.00">GlobalContextSnapshot</text>
</a>
</g>
</g>
<!-- ContextReducer&#45;&gt;Snapshot -->
<g id="edge18" class="edge">
<title>ContextReducer&#45;&gt;Snapshot</title>
<path fill="none" stroke="black" d="M506.24,-88.81C506.35,-81.23 506.48,-72.1 506.6,-63.54"/>
<polygon fill="black" stroke="black" points="510.1,-63.59 506.74,-53.54 503.1,-63.49 510.1,-63.59"/>
</g>
<!-- Nav_Global -->
<g id="node16" class="node">
<title>Nav_Global</title>
<g id="a_node16"><a xlink:href="../00_global.svg" xlink:title="Global">
<polygon fill="lightgrey" stroke="none" points="670,-357.5 616,-357.5 616,-321.5 670,-321.5 670,-357.5"/>
<text xml:space="preserve" text-anchor="middle" x="643" y="-336" font-family="Arial" font-size="10.00">Global</text>
</a>
</g>
</g>
<!-- Nav_Dispatcher -->
<g id="node17" class="node">
<title>Nav_Dispatcher</title>
<g id="a_node17"><a xlink:href="dispatcher/11_dispatcher.svg" xlink:title="Dispatcher">
<polygon fill="lightgrey" stroke="none" points="738.62,-357.5 675.38,-357.5 675.38,-321.5 738.62,-321.5 738.62,-357.5"/>
<text xml:space="preserve" text-anchor="middle" x="707" y="-336" font-family="Arial" font-size="10.00">Dispatcher</text>
</a>
</g>
</g>
<!-- Nav_EventBus -->
<g id="node18" class="node">
<title>Nav_EventBus</title>
<g id="a_node18"><a xlink:href="event_bus/12_event_bus.svg" xlink:title="EventBus">
<polygon fill="lightgrey" stroke="none" points="802.38,-357.5 743.62,-357.5 743.62,-321.5 802.38,-321.5 802.38,-357.5"/>
<text xml:space="preserve" text-anchor="middle" x="773" y="-336" font-family="Arial" font-size="10.00">EventBus</text>
</a>
</g>
</g>
<!-- Nav_Queue -->
<g id="node19" class="node">
<title>Nav_Queue</title>
<g id="a_node19"><a xlink:href="priority_queue/13_priority_queue.svg" xlink:title="Priority Queue">
<polygon fill="lightgrey" stroke="none" points="886.12,-357.5 807.88,-357.5 807.88,-321.5 886.12,-321.5 886.12,-357.5"/>
<text xml:space="preserve" text-anchor="middle" x="847" y="-336" font-family="Arial" font-size="10.00">Priority Queue</text>
</a>
</g>
</g>
<!-- Nav_Proxy -->
<g id="node20" class="node">
<title>Nav_Proxy</title>
<g id="a_node20"><a xlink:href="component_proxy/14_component_proxy.svg" xlink:title="Component Proxy">
<polygon fill="lightgrey" stroke="none" points="986.38,-357.5 891.62,-357.5 891.62,-321.5 986.38,-321.5 986.38,-357.5"/>
<text xml:space="preserve" text-anchor="middle" x="939" y="-336" font-family="Arial" font-size="10.00">Component Proxy</text>
</a>
</g>
</g>
</g>
</svg>
