<?xml version="1.0" encoding="UTF-8" standalone="no"?>
<!DOCTYPE svg PUBLIC "-//W3C//DTD SVG 1.1//EN"
 "http://www.w3.org/Graphics/SVG/1.1/DTD/svg11.dtd">
<!-- Generated by graphviz version 2.42.4 (0)
 -->
<!-- Title: Scheduler Pages: 1 -->
<svg width="1027pt" height="619pt"
 viewBox="0.00 0.00 1027.00 619.00" xmlns="http://www.w3.org/2000/svg" xmlns:xlink="http://www.w3.org/1999/xlink">
<g id="graph0" class="graph" transform="scale(1 1) rotate(0) translate(4 615)">
<title>Scheduler</title>
<polygon fill="white" stroke="transparent" points="-4,4 -4,-615 1023,-615 1023,4 -4,4"/>
<g id="clust1" class="cluster">
<title>cluster_boot</title>
<polygon fill="#f3e5f5" stroke="#6a1b9a" points="8,-318 8,-603 196,-603 196,-318 8,-318"/>
<text text-anchor="middle" x="102" y="-590.2" font-family="Arial" font-size="11.00">Boot</text>
</g>
<g id="clust2" class="cluster">
<title>cluster_runtime</title>
<polygon fill="#e8f5e9" stroke="#388e3c" points="83,-90 83,-290 308,-290 308,-90 83,-90"/>
<text text-anchor="middle" x="195.5" y="-277.2" font-family="Arial" font-size="11.00">Runtime</text>
</g>
<g id="clust3" class="cluster">
<title>cluster_scheduler</title>
<polygon fill="#ede7f6" stroke="#512da8" points="662,-8 662,-410 898,-410 898,-8 662,-8"/>
<text text-anchor="middle" x="780" y="-397.2" font-family="Arial" font-size="11.00">Scheduler core</text>
</g>
<g id="clust4" class="cluster">
<title>cluster_reply</title>
<polygon fill="#eceff1" stroke="#455a64" points="460,-90 460,-290 654,-290 654,-90 460,-90"/>
<text text-anchor="middle" x="557" y="-277.2" font-family="Arial" font-size="11.00">Request / Reply</text>
</g>
<g id="clust5" class="cluster">
<title>cluster_context</title>
<polygon fill="#fff3e0" stroke="#ef6c00" points="316,-198 316,-410 452,-410 452,-198 316,-198"/>
<text text-anchor="middle" x="384" y="-397.2" font-family="Arial" font-size="11.00">Context Phase 1</text>
</g>
<!-- Main -->
<g id="node1" class="node">
<title>Main</title>
<path fill="#f3e5f5" stroke="#6a1b9a" d="M161,-555C161,-555 131,-555 131,-555 125,-555 119,-549 119,-543 119,-543 119,-531 119,-531 119,-525 125,-519 131,-519 131,-519 161,-519 161,-519 167,-519 173,-525 173,-531 173,-531 173,-543 173,-543 173,-549 167,-555 161,-555"/>
<text text-anchor="middle" x="146" y="-534.5" font-family="Arial" font-size="10.00">main.py</text>
</g>
<!-- Launcher -->
<g id="node2" class="node">
<title>Launcher</title>
<path fill="#f3e5f5" stroke="#6a1b9a" d="M176,-482C176,-482 116,-482 116,-482 110,-482 104,-476 104,-470 104,-470 104,-458 104,-458 104,-452 110,-446 116,-446 116,-446 176,-446 176,-446 182,-446 188,-452 188,-458 188,-458 188,-470 188,-470 188,-476 182,-482 176,-482"/>
<text text-anchor="middle" x="146" y="-461.5" font-family="Arial" font-size="10.00">Launcher.boot()</text>
</g>
<!-- Main&#45;&gt;Launcher -->
<g id="edge1" class="edge">
<title>Main&#45;&gt;Launcher</title>
<path fill="none" stroke="black" d="M146,-518.96C146,-518.96 146,-489.09 146,-489.09"/>
<polygon fill="black" stroke="black" points="148.45,-489.09 146,-482.09 143.55,-489.09 148.45,-489.09"/>
</g>
<!-- Loader -->
<g id="node3" class="node">
<title>Loader</title>
<path fill="#f3e5f5" stroke="#6a1b9a" d="M103.5,-362C103.5,-362 28.5,-362 28.5,-362 22.5,-362 16.5,-356 16.5,-350 16.5,-350 16.5,-338 16.5,-338 16.5,-332 22.5,-326 28.5,-326 28.5,-326 103.5,-326 103.5,-326 109.5,-326 115.5,-332 115.5,-338 115.5,-338 115.5,-350 115.5,-350 115.5,-356 109.5,-362 103.5,-362"/>
<text text-anchor="middle" x="66" y="-341.5" font-family="Arial" font-size="10.00">load_components()</text>
</g>
<!-- Launcher&#45;&gt;Loader -->
<g id="edge2" class="edge">
<title>Launcher&#45;&gt;Loader</title>
<path fill="none" stroke="black" d="M109.75,-445.77C109.75,-445.77 109.75,-369 109.75,-369"/>
<polygon fill="black" stroke="black" points="112.2,-369 109.75,-362 107.3,-369 112.2,-369"/>
</g>
<!-- Registry -->
<g id="node4" class="node">
<title>Registry</title>
<path fill="#f3e5f5" stroke="#6a1b9a" d="M176,-362C176,-362 146,-362 146,-362 140,-362 134,-356 134,-350 134,-350 134,-338 134,-338 134,-332 140,-326 146,-326 146,-326 176,-326 176,-326 182,-326 188,-332 188,-338 188,-338 188,-350 188,-350 188,-356 182,-362 176,-362"/>
<text text-anchor="middle" x="161" y="-341.5" font-family="Arial" font-size="10.00">Registry</text>
</g>
<!-- Launcher&#45;&gt;Registry -->
<g id="edge4" class="edge">
<title>Launcher&#45;&gt;Registry</title>
<path fill="none" stroke="black" d="M161,-445.77C161,-445.77 161,-369 161,-369"/>
<polygon fill="black" stroke="black" points="163.45,-369 161,-362 158.55,-369 163.45,-369"/>
</g>
<!-- Proxy -->
<g id="node6" class="node">
<title>Proxy</title>
<path fill="#e8f5e9" stroke="#388e3c" d="M225,-242C225,-242 157,-242 157,-242 151,-242 145,-236 145,-230 145,-230 145,-218 145,-218 145,-212 151,-206 157,-206 157,-206 225,-206 225,-206 231,-206 237,-212 237,-218 237,-218 237,-230 237,-230 237,-236 231,-242 225,-242"/>
<text text-anchor="middle" x="191" y="-221.5" font-family="Arial" font-size="10.00">ComponentProxy</text>
</g>
<!-- Launcher&#45;&gt;Proxy -->
<g id="edge8" class="edge">
<title>Launcher&#45;&gt;Proxy</title>
<path fill="none" stroke="black" d="M124.75,-445.96C124.75,-390.15 124.75,-224 124.75,-224 124.75,-224 137.99,-224 137.99,-224"/>
<polygon fill="black" stroke="black" points="137.99,-226.45 144.99,-224 137.99,-221.55 137.99,-226.45"/>
<text text-anchor="middle" x="243" y="-341.8" font-family="Arial" font-size="9.00">start()</text>
</g>
<!-- Scheduler -->
<g id="node8" class="node">
<title>Scheduler</title>
<g id="a_node8"><a xlink:href="../00_global.svg" xlink:title="Retour global">
<path fill="#ede7f6" stroke="#512da8" d="M787.5,-362C787.5,-362 728.5,-362 728.5,-362 722.5,-362 716.5,-356 716.5,-350 716.5,-350 716.5,-338 716.5,-338 716.5,-332 722.5,-326 728.5,-326 728.5,-326 787.5,-326 787.5,-326 793.5,-326 799.5,-332 799.5,-338 799.5,-338 799.5,-350 799.5,-350 799.5,-356 793.5,-362 787.5,-362"/>
<text text-anchor="middle" x="758" y="-341.5" font-family="Arial" font-size="10.00">Scheduler.run()</text>
</a>
</g>
</g>
<!-- Launcher&#45;&gt;Scheduler -->
<g id="edge7" class="edge">
<title>Launcher&#45;&gt;Scheduler</title>
<path fill="none" stroke="black" d="M188.07,-464C326.33,-464 758,-464 758,-464 758,-464 758,-369.23 758,-369.23"/>
<polygon fill="black" stroke="black" points="760.45,-369.23 758,-362.23 755.55,-369.23 760.45,-369.23"/>
<text text-anchor="middle" x="515" y="-420.8" font-family="Arial" font-size="9.00">create_task</text>
</g>
<!-- RealComponent -->
<g id="node5" class="node">
<title>RealComponent</title>
<path fill="#e8f5e9" stroke="#388e3c" d="M159,-134C159,-134 103,-134 103,-134 97,-134 91,-128 91,-122 91,-122 91,-110 91,-110 91,-104 97,-98 103,-98 103,-98 159,-98 159,-98 165,-98 171,-104 171,-110 171,-110 171,-122 171,-122 171,-128 165,-134 159,-134"/>
<text text-anchor="middle" x="131" y="-119" font-family="Arial" font-size="10.00">DummyExpert</text>
<text text-anchor="middle" x="131" y="-108" font-family="Arial" font-size="10.00">Component</text>
</g>
<!-- Loader&#45;&gt;RealComponent -->
<g id="edge3" class="edge">
<title>Loader&#45;&gt;RealComponent</title>
<path fill="none" stroke="black" d="M103.25,-325.73C103.25,-325.73 103.25,-141.04 103.25,-141.04"/>
<polygon fill="black" stroke="black" points="105.7,-141.04 103.25,-134.04 100.8,-141.04 105.7,-141.04"/>
</g>
<!-- Registry&#45;&gt;Proxy -->
<g id="edge5" class="edge">
<title>Registry&#45;&gt;Proxy</title>
<path fill="none" stroke="black" d="M166.5,-325.77C166.5,-325.77 166.5,-249 166.5,-249"/>
<polygon fill="black" stroke="black" points="168.95,-249 166.5,-242 164.05,-249 168.95,-249"/>
</g>
<!-- Proxy&#45;&gt;RealComponent -->
<g id="edge6" class="edge">
<title>Proxy&#45;&gt;RealComponent</title>
<path fill="none" stroke="black" d="M158,-205.68C158,-205.68 158,-141.05 158,-141.05"/>
<polygon fill="black" stroke="black" points="160.45,-141.05 158,-134.05 155.55,-141.05 160.45,-141.05"/>
</g>
<!-- TickGen -->
<g id="node7" class="node">
<title>TickGen</title>
<path fill="#e8f5e9" stroke="#388e3c" d="M288.5,-134C288.5,-134 201.5,-134 201.5,-134 195.5,-134 189.5,-128 189.5,-122 189.5,-122 189.5,-110 189.5,-110 189.5,-104 195.5,-98 201.5,-98 201.5,-98 288.5,-98 288.5,-98 294.5,-98 300.5,-104 300.5,-110 300.5,-110 300.5,-122 300.5,-122 300.5,-128 294.5,-134 288.5,-134"/>
<text text-anchor="middle" x="245" y="-113.5" font-family="Arial" font-size="10.00">tick() async generator</text>
</g>
<!-- Proxy&#45;&gt;TickGen -->
<g id="edge9" class="edge">
<title>Proxy&#45;&gt;TickGen</title>
<path fill="none" stroke="black" d="M213.25,-205.68C213.25,-205.68 213.25,-141.05 213.25,-141.05"/>
<polygon fill="black" stroke="black" points="215.7,-141.05 213.25,-134.05 210.8,-141.05 215.7,-141.05"/>
<text text-anchor="middle" x="184" y="-167.8" font-family="Arial" font-size="9.00">__anext__ / asend</text>
</g>
<!-- Proxy&#45;&gt;TickGen -->
<g id="edge19" class="edge">
<title>Proxy&#45;&gt;TickGen</title>
<path fill="none" stroke="black" stroke-dasharray="5,2" d="M225.12,-205.68C225.12,-205.68 225.12,-141.05 225.12,-141.05"/>
<polygon fill="black" stroke="black" points="227.58,-141.05 225.12,-134.05 222.68,-141.05 227.58,-141.05"/>
<text text-anchor="middle" x="272.5" y="-167.8" font-family="Arial" font-size="9.00">asend(result)</text>
</g>
<!-- Event -->
<g id="node14" class="node">
<title>Event</title>
<path fill="#eceff1" stroke="#455a64" d="M510,-242C510,-242 480,-242 480,-242 474,-242 468,-236 468,-230 468,-230 468,-218 468,-218 468,-212 474,-206 480,-206 480,-206 510,-206 510,-206 516,-206 522,-212 522,-218 522,-218 522,-230 522,-230 522,-236 516,-242 510,-242"/>
<text text-anchor="middle" x="495" y="-221.5" font-family="Arial" font-size="10.00">Event</text>
</g>
<!-- TickGen&#45;&gt;Event -->
<g id="edge10" class="edge">
<title>TickGen&#45;&gt;Event</title>
<path fill="none" stroke="black" d="M300.79,-116C374.47,-116 495,-116 495,-116 495,-116 495,-198.68 495,-198.68"/>
<polygon fill="black" stroke="black" points="492.55,-198.68 495,-205.68 497.45,-198.68 492.55,-198.68"/>
<text text-anchor="middle" x="400" y="-167.8" font-family="Arial" font-size="9.00">yield Event</text>
</g>
<!-- Queue -->
<g id="node9" class="node">
<title>Queue</title>
<path fill="#ede7f6" stroke="#512da8" d="M830,-242C830,-242 778,-242 778,-242 772,-242 766,-236 766,-230 766,-230 766,-218 766,-218 766,-212 772,-206 778,-206 778,-206 830,-206 830,-206 836,-206 842,-212 842,-218 842,-218 842,-230 842,-230 842,-236 836,-242 830,-242"/>
<text text-anchor="middle" x="804" y="-221.5" font-family="Arial" font-size="10.00">PriorityQueue</text>
</g>
<!-- Scheduler&#45;&gt;Queue -->
<g id="edge13" class="edge">
<title>Scheduler&#45;&gt;Queue</title>
<path fill="none" stroke="black" d="M782.75,-325.77C782.75,-325.77 782.75,-249 782.75,-249"/>
<polygon fill="black" stroke="black" points="785.2,-249 782.75,-242 780.3,-249 785.2,-249"/>
</g>
<!-- Clock -->
<g id="node13" class="node">
<title>Clock</title>
<path fill="#ede7f6" stroke="#512da8" d="M735.5,-242C735.5,-242 682.5,-242 682.5,-242 676.5,-242 670.5,-236 670.5,-230 670.5,-230 670.5,-218 670.5,-218 670.5,-212 676.5,-206 682.5,-206 682.5,-206 735.5,-206 735.5,-206 741.5,-206 747.5,-212 747.5,-218 747.5,-218 747.5,-230 747.5,-230 747.5,-236 741.5,-242 735.5,-242"/>
<text text-anchor="middle" x="709" y="-221.5" font-family="Arial" font-size="10.00">Context clock</text>
</g>
<!-- Scheduler&#45;&gt;Clock -->
<g id="edge20" class="edge">
<title>Scheduler&#45;&gt;Clock</title>
<path fill="none" stroke="black" d="M732,-325.77C732,-325.77 732,-249 732,-249"/>
<polygon fill="black" stroke="black" points="734.45,-249 732,-242 729.55,-249 734.45,-249"/>
<text text-anchor="middle" x="748" y="-300.8" font-family="Arial" font-size="9.00">background task</text>
</g>
<!-- Dispatcher -->
<g id="node10" class="node">
<title>Dispatcher</title>
<path fill="#ede7f6" stroke="#512da8" d="M824,-134C824,-134 784,-134 784,-134 778,-134 772,-128 772,-122 772,-122 772,-110 772,-110 772,-104 778,-98 784,-98 784,-98 824,-98 824,-98 830,-98 836,-104 836,-110 836,-110 836,-122 836,-122 836,-128 830,-134 824,-134"/>
<text text-anchor="middle" x="804" y="-113.5" font-family="Arial" font-size="10.00">Dispatcher</text>
</g>
<!-- Queue&#45;&gt;Dispatcher -->
<g id="edge14" class="edge">
<title>Queue&#45;&gt;Dispatcher</title>
<path fill="none" stroke="black" d="M804,-205.68C804,-205.68 804,-141.05 804,-141.05"/>
<polygon fill="black" stroke="black" points="806.45,-141.05 804,-134.05 801.55,-141.05 806.45,-141.05"/>
</g>
<!-- Handler -->
<g id="node11" class="node">
<title>Handler</title>
<path fill="#ede7f6" stroke="#512da8" d="M772,-52C772,-52 682,-52 682,-52 676,-52 670,-46 670,-40 670,-40 670,-28 670,-28 670,-22 676,-16 682,-16 682,-16 772,-16 772,-16 778,-16 784,-22 784,-28 784,-28 784,-40 784,-40 784,-46 778,-52 772,-52"/>
<text text-anchor="middle" x="727" y="-31.5" font-family="Arial" font-size="10.00">Lifecycle/Tick Handler</text>
</g>
<!-- Dispatcher&#45;&gt;Handler -->
<g id="edge15" class="edge">
<title>Dispatcher&#45;&gt;Handler</title>
<path fill="none" stroke="black" d="M778,-97.8C778,-97.8 778,-59.15 778,-59.15"/>
<polygon fill="black" stroke="black" points="780.45,-59.15 778,-52.15 775.55,-59.15 780.45,-59.15"/>
</g>
<!-- EventBus -->
<g id="node12" class="node">
<title>EventBus</title>
<path fill="#ede7f6" stroke="#512da8" d="M878,-52C878,-52 814,-52 814,-52 808,-52 802,-46 802,-40 802,-40 802,-28 802,-28 802,-22 808,-16 814,-16 814,-16 878,-16 878,-16 884,-16 890,-22 890,-28 890,-28 890,-40 890,-40 890,-46 884,-52 878,-52"/>
<text text-anchor="middle" x="846" y="-37" font-family="Arial" font-size="10.00">EventBus</text>
<text text-anchor="middle" x="846" y="-26" font-family="Arial" font-size="10.00">observation only</text>
</g>
<!-- Dispatcher&#45;&gt;EventBus -->
<g id="edge16" class="edge">
<title>Dispatcher&#45;&gt;EventBus</title>
<path fill="none" stroke="black" d="M819,-97.8C819,-97.8 819,-59.15 819,-59.15"/>
<polygon fill="black" stroke="black" points="821.45,-59.15 819,-52.15 816.55,-59.15 821.45,-59.15"/>
<text text-anchor="middle" x="847" y="-72.8" font-family="Arial" font-size="9.00">publish copy</text>
</g>
<!-- Reply -->
<g id="node16" class="node">
<title>Reply</title>
<path fill="#eceff1" stroke="#455a64" d="M633.5,-242C633.5,-242 552.5,-242 552.5,-242 546.5,-242 540.5,-236 540.5,-230 540.5,-230 540.5,-218 540.5,-218 540.5,-212 546.5,-206 552.5,-206 552.5,-206 633.5,-206 633.5,-206 639.5,-206 645.5,-212 645.5,-218 645.5,-218 645.5,-230 645.5,-230 645.5,-236 639.5,-242 633.5,-242"/>
<text text-anchor="middle" x="593" y="-221.5" font-family="Arial" font-size="10.00">Future.set_result(...)</text>
</g>
<!-- Handler&#45;&gt;Reply -->
<g id="edge17" class="edge">
<title>Handler&#45;&gt;Reply</title>
<path fill="none" stroke="black" d="M669.7,-34C662.73,-34 658,-34 658,-34 658,-34 658,-224 658,-224 658,-224 652.77,-224 652.77,-224"/>
<polygon fill="black" stroke="black" points="652.77,-221.55 645.77,-224 652.77,-226.45 652.77,-221.55"/>
<text text-anchor="middle" x="502.5" y="-113.8" font-family="Arial" font-size="9.00">result</text>
</g>
<!-- ContextEngine -->
<g id="node17" class="node">
<title>ContextEngine</title>
<g id="a_node17"><a xlink:href="../context/20_context.svg" xlink:title="ContextEngine">
<path fill="#fff3e0" stroke="#ef6c00" d="M393.5,-362C393.5,-362 336.5,-362 336.5,-362 330.5,-362 324.5,-356 324.5,-350 324.5,-350 324.5,-338 324.5,-338 324.5,-332 330.5,-326 336.5,-326 336.5,-326 393.5,-326 393.5,-326 399.5,-326 405.5,-332 405.5,-338 405.5,-338 405.5,-350 405.5,-350 405.5,-356 399.5,-362 393.5,-362"/>
<text text-anchor="middle" x="365" y="-341.5" font-family="Arial" font-size="10.00">ContextEngine</text>
</a>
</g>
</g>
<!-- Clock&#45;&gt;ContextEngine -->
<g id="edge21" class="edge">
<title>Clock&#45;&gt;ContextEngine</title>
<path fill="none" stroke="black" d="M693.5,-242.23C693.5,-275.8 693.5,-344 693.5,-344 693.5,-344 412.61,-344 412.61,-344"/>
<polygon fill="black" stroke="black" points="412.61,-341.55 405.61,-344 412.61,-346.45 412.61,-341.55"/>
<text text-anchor="middle" x="546.5" y="-300.8" font-family="Arial" font-size="9.00">every interval</text>
</g>
<!-- Request -->
<g id="node15" class="node">
<title>Request</title>
<path fill="#eceff1" stroke="#455a64" d="M634,-134C634,-134 544,-134 544,-134 538,-134 532,-128 532,-122 532,-122 532,-110 532,-110 532,-104 538,-98 544,-98 544,-98 634,-98 634,-98 640,-98 646,-104 646,-110 646,-110 646,-122 646,-122 646,-128 640,-134 634,-134"/>
<text text-anchor="middle" x="589" y="-113.5" font-family="Arial" font-size="10.00">Request(reply=Future)</text>
</g>
<!-- Event&#45;&gt;Request -->
<g id="edge11" class="edge">
<title>Event&#45;&gt;Request</title>
<path fill="none" stroke="black" d="M522.28,-224C529.96,-224 536.25,-224 536.25,-224 536.25,-224 536.25,-141.32 536.25,-141.32"/>
<polygon fill="black" stroke="black" points="538.7,-141.32 536.25,-134.32 533.8,-141.32 538.7,-141.32"/>
<text text-anchor="middle" x="568.5" y="-167.8" font-family="Arial" font-size="9.00">attach</text>
</g>
<!-- Request&#45;&gt;Scheduler -->
<g id="edge12" class="edge">
<title>Request&#45;&gt;Scheduler</title>
<path fill="none" stroke="black" d="M646.26,-116C694.86,-116 756.75,-116 756.75,-116 756.75,-116 756.75,-318.73 756.75,-318.73"/>
<polygon fill="black" stroke="black" points="754.3,-318.73 756.75,-325.73 759.2,-318.73 754.3,-318.73"/>
<text text-anchor="middle" x="887" y="-221.8" font-family="Arial" font-size="9.00">emit</text>
</g>
<!-- Reply&#45;&gt;Proxy -->
<g id="edge18" class="edge">
<title>Reply&#45;&gt;Proxy</title>
<path fill="none" stroke="black" stroke-dasharray="5,2" d="M593,-205.84C593,-200.96 593,-197 593,-197 593,-197 201.38,-197 201.38,-197 201.38,-197 201.38,-198.84 201.38,-198.84"/>
<polygon fill="black" stroke="black" points="198.93,-198.84 201.38,-205.84 203.83,-198.84 198.93,-198.84"/>
<text text-anchor="middle" x="284" y="-300.8" font-family="Arial" font-size="9.00">await future</text>
</g>
<!-- ContextEngine&#45;&gt;Registry -->
<g id="edge22" class="edge">
<title>ContextEngine&#45;&gt;Registry</title>
<path fill="none" stroke="black" d="M324.21,-350C324.21,-350 195.05,-350 195.05,-350"/>
<polygon fill="black" stroke="black" points="195.05,-347.55 188.05,-350 195.05,-352.45 195.05,-347.55"/>
<text text-anchor="middle" x="214" y="-420.8" font-family="Arial" font-size="9.00">all()</text>
</g>
<!-- ContextEngine&#45;&gt;Proxy -->
<g id="edge23" class="edge">
<title>ContextEngine&#45;&gt;Proxy</title>
<path fill="none" stroke="black" d="M324.13,-338C278.96,-338 212.5,-338 212.5,-338 212.5,-338 212.5,-249.06 212.5,-249.06"/>
<polygon fill="black" stroke="black" points="214.95,-249.06 212.5,-242.06 210.05,-249.06 214.95,-249.06"/>
<text text-anchor="middle" x="237" y="-300.8" font-family="Arial" font-size="9.00">context()</text>
</g>
<!-- Snapshot -->
<g id="node18" class="node">
<title>Snapshot</title>
<g id="a_node18"><a xlink:href="../context/20_context.svg" xlink:title="GlobalContextSnapshot">
<path fill="#fff3e0" stroke="#ef6c00" d="M432,-242C432,-242 336,-242 336,-242 330,-242 324,-236 324,-230 324,-230 324,-218 324,-218 324,-212 330,-206 336,-206 336,-206 432,-206 432,-206 438,-206 444,-212 444,-218 444,-218 444,-230 444,-230 444,-236 438,-242 432,-242"/>
<text text-anchor="middle" x="384" y="-221.5" font-family="Arial" font-size="10.00">GlobalContextSnapshot</text>
</a>
</g>
</g>
<!-- ContextEngine&#45;&gt;Snapshot -->
<g id="edge24" class="edge">
<title>ContextEngine&#45;&gt;Snapshot</title>
<path fill="none" stroke="black" d="M365,-325.77C365,-325.77 365,-249 365,-249"/>
<polygon fill="black" stroke="black" points="367.45,-249 365,-242 362.55,-249 367.45,-249"/>
</g>
<!-- Nav_Global -->
<g id="node19" class="node">
<title>Nav_Global</title>
<g id="a_node19"><a xlink:href="../00_global.svg" xlink:title="Global">
<path fill="lightgrey" stroke="transparent" d="M948,-188C948,-188 918,-188 918,-188 912,-188 906,-182 906,-176 906,-176 906,-164 906,-164 906,-158 912,-152 918,-152 918,-152 948,-152 948,-152 954,-152 960,-158 960,-164 960,-164 960,-176 960,-176 960,-182 954,-188 948,-188"/>
<text text-anchor="middle" x="933" y="-167.5" font-family="Arial" font-size="10.00">Global</text>
</a>
</g>
</g>
<!-- Nav_Context -->
<g id="node20" class="node">
<title>Nav_Context</title>
<g id="a_node20"><a xlink:href="../context/20_context.svg" xlink:title="Context">
<path fill="lightgrey" stroke="transparent" d="M1007,-188C1007,-188 977,-188 977,-188 971,-188 965,-182 965,-176 965,-176 965,-164 965,-164 965,-158 971,-152 977,-152 977,-152 1007,-152 1007,-152 1013,-152 1019,-158 1019,-164 1019,-164 1019,-176 1019,-176 1019,-182 1013,-188 1007,-188"/>
<text text-anchor="middle" x="992" y="-167.5" font-family="Arial" font-size="10.00">Context</text>
</a>
</g>
</g>
</g>
</svg>
