<?xml version="1.0" encoding="UTF-8" standalone="no"?>
<!DOCTYPE svg PUBLIC "-//W3C//DTD SVG 1.1//EN"
 "http://www.w3.org/Graphics/SVG/1.1/DTD/svg11.dtd">
<!-- Generated by graphviz version 14.1.3 (20260303.0454)
 -->
<!-- Title: Scheduler Pages: 1 -->
<svg width="1423pt" height="818pt"
 viewBox="0.00 0.00 1423.00 818.00" xmlns="http://www.w3.org/2000/svg" xmlns:xlink="http://www.w3.org/1999/xlink">
<g id="graph0" class="graph" transform="scale(1 1) rotate(0) translate(4 814.25)">
<title>Scheduler</title>
<polygon fill="white" stroke="none" points="-4,4 -4,-814.25 1419.25,-814.25 1419.25,4 -4,4"/>
<g id="clust1" class="cluster">
<title>cluster_kernel</title>
<polygon fill="#ede7f6" stroke="#512da8" points="526,-81 526,-802.25 798,-802.25 798,-81 526,-81"/>
<text xml:space="preserve" text-anchor="middle" x="662" y="-784.95" font-family="Times,serif" font-size="14.00">Micro Kernel (focus)</text>
</g>
<g id="clust2" class="cluster">
<title>cluster_context</title>
<polygon fill="#fff3e0" stroke="#ef6c00" points="806,-8 806,-607.75 975,-607.75 975,-8 806,-8"/>
<text xml:space="preserve" text-anchor="middle" x="890.5" y="-590.45" font-family="Times,serif" font-size="14.00">Context Fabric active</text>
</g>
<g id="clust3" class="cluster">
<title>cluster_inference</title>
<polygon fill="#fffde7" stroke="#f9a825" points="8,-259.5 8,-470 299,-470 299,-259.5 8,-259.5"/>
<text xml:space="preserve" text-anchor="middle" x="153.5" y="-452.7" font-family="Times,serif" font-size="14.00">Inference Phase 1.4</text>
</g>
<g id="clust4" class="cluster">
<title>cluster_experts</title>
<polygon fill="none" stroke="#388e3c" points="442,-383.7 442,-453.8 514,-453.8 514,-383.7 442,-383.7"/>
<text xml:space="preserve" text-anchor="middle" x="478" y="-436.5" font-family="Times,serif" font-size="14.00">Experts</text>
</g>
<!-- Launcher -->
<g id="node1" class="node">
<title>Launcher</title>
<g id="a_node1"><a xlink:href="../00_global.svg" xlink:title="Launcher">
<polygon fill="#ede7f6" stroke="#512da8" points="660.88,-743.75 605.12,-743.75 605.12,-707.75 660.88,-707.75 660.88,-743.75"/>
<text xml:space="preserve" text-anchor="middle" x="633" y="-722.25" font-family="Arial" font-size="10.00">Launcher</text>
</a>
</g>
</g>
<!-- Registry -->
<g id="node2" class="node">
<title>Registry</title>
<g id="a_node2"><a xlink:href="../00_global.svg" xlink:title="Registry">
<polygon fill="#ede7f6" stroke="#512da8" points="637,-670.75 583,-670.75 583,-634.75 637,-634.75 637,-670.75"/>
<text xml:space="preserve" text-anchor="middle" x="610" y="-649.25" font-family="Arial" font-size="10.00">Registry</text>
</a>
</g>
</g>
<!-- Launcher&#45;&gt;Registry -->
<g id="edge1" class="edge">
<title>Launcher&#45;&gt;Registry</title>
<path fill="none" stroke="black" d="M627.43,-707.56C624.92,-699.8 621.88,-690.43 619.05,-681.7"/>
<polygon fill="black" stroke="black" points="622.39,-680.65 615.98,-672.22 615.74,-682.81 622.39,-680.65"/>
</g>
<!-- Dispatcher -->
<g id="node6" class="node">
<title>Dispatcher</title>
<g id="a_node6"><a xlink:href="dispatcher/11_dispatcher.svg" xlink:title="Dispatcher">
<polygon fill="#ede7f6" stroke="#512da8" points="692.62,-214.25 629.38,-214.25 629.38,-178.25 692.62,-178.25 692.62,-214.25"/>
<text xml:space="preserve" text-anchor="middle" x="661" y="-192.75" font-family="Arial" font-size="10.00">Dispatcher</text>
</a>
</g>
</g>
<!-- Launcher&#45;&gt;Dispatcher -->
<g id="edge2" class="edge">
<title>Launcher&#45;&gt;Dispatcher</title>
<path fill="none" stroke="black" d="M638.12,-707.41C640.98,-696.9 644.3,-683.17 646,-670.75 664.84,-532.72 652.82,-496.75 657,-357.5 658.39,-311.37 659.65,-257.77 660.38,-225.73"/>
<polygon fill="black" stroke="black" points="663.87,-226.15 660.59,-216.08 656.87,-226 663.87,-226.15"/>
<text xml:space="preserve" text-anchor="middle" x="718.71" y="-481.95" font-family="Times,serif" font-size="14.00">register handlers</text>
</g>
<!-- Proxy -->
<g id="node3" class="node">
<title>Proxy</title>
<g id="a_node3"><a xlink:href="component_proxy/14_component_proxy.svg" xlink:title="ComponentProxy">
<polygon fill="#ede7f6" stroke="#512da8" points="625.88,-549.25 534.12,-549.25 534.12,-513.25 625.88,-513.25 625.88,-549.25"/>
<text xml:space="preserve" text-anchor="middle" x="580" y="-527.75" font-family="Arial" font-size="10.00">ComponentProxy</text>
</a>
</g>
</g>
<!-- Registry&#45;&gt;Proxy -->
<g id="edge3" class="edge">
<title>Registry&#45;&gt;Proxy</title>
<path fill="none" stroke="black" d="M605.64,-634.37C600.79,-615.08 592.9,-583.64 587.15,-560.74"/>
<polygon fill="black" stroke="black" points="590.57,-559.96 584.74,-551.12 583.78,-561.67 590.57,-559.96"/>
</g>
<!-- Scheduler -->
<g id="node4" class="node">
<title>Scheduler</title>
<g id="a_node4"><a xlink:href="../00_global.svg" xlink:title="Scheduler">
<polygon fill="#ede7f6" stroke="#512da8" points="742.75,-411.5 683.25,-411.5 683.25,-375.5 742.75,-375.5 742.75,-411.5"/>
<text xml:space="preserve" text-anchor="middle" x="713" y="-390" font-family="Arial" font-size="10.00">Scheduler</text>
</a>
</g>
</g>
<!-- Proxy&#45;&gt;Scheduler -->
<g id="edge4" class="edge">
<title>Proxy&#45;&gt;Scheduler</title>
<path fill="none" stroke="black" d="M567.41,-512.99C561.34,-502.41 556.62,-488.86 563,-478 586.41,-438.18 636.44,-415.97 672.29,-404.65"/>
<polygon fill="black" stroke="black" points="672.88,-408.12 681.46,-401.91 670.88,-401.41 672.88,-408.12"/>
<text xml:space="preserve" text-anchor="middle" x="603.5" y="-481.95" font-family="Times,serif" font-size="14.00">yield Event</text>
</g>
<!-- InferenceRequest -->
<g id="node15" class="node">
<title>InferenceRequest</title>
<g id="a_node15"><a xlink:href="../inference/40_inference.svg" xlink:title="INFERENCE_REQUEST\nRequest.reply">
<polygon fill="#fffde7" stroke="#f9a825" points="290.62,-411.5 161.38,-411.5 161.38,-375.5 290.62,-375.5 290.62,-411.5"/>
<text xml:space="preserve" text-anchor="middle" x="226" y="-396" font-family="Arial" font-size="10.00">INFERENCE_REQUEST</text>
<text xml:space="preserve" text-anchor="middle" x="226" y="-384" font-family="Arial" font-size="10.00">Request.reply</text>
</a>
</g>
</g>
<!-- Proxy&#45;&gt;InferenceRequest -->
<g id="edge20" class="edge">
<title>Proxy&#45;&gt;InferenceRequest</title>
<path fill="none" stroke="black" d="M533.96,-529.13C442,-526.41 242.58,-517.94 222,-495.25 204.57,-476.04 208.66,-445.31 215.19,-422.84"/>
<polygon fill="black" stroke="black" points="218.51,-423.98 218.27,-413.38 211.85,-421.81 218.51,-423.98"/>
<text xml:space="preserve" text-anchor="middle" x="262.5" y="-481.95" font-family="Times,serif" font-size="14.00">yield Event</text>
</g>
<!-- ExpertGroup -->
<g id="node19" class="node">
<title>ExpertGroup</title>
<g id="a_node19"><a xlink:href="../experts/40_experts.svg" xlink:title="Experts">
<ellipse fill="#e8f5e9" stroke="#388e3c" cx="453" cy="-393.5" rx="1.8" ry="1.8"/>
</a>
</g>
</g>
<!-- Proxy&#45;&gt;ExpertGroup -->
<g id="edge28" class="edge">
<title>Proxy&#45;&gt;ExpertGroup</title>
<path fill="none" stroke="black" d="M534.06,-528.42C483.35,-525.33 406.46,-517.08 388.25,-495.25 357.87,-458.82 423.16,-484.31 438,-470 455.12,-453.5 455.69,-423.46 454.44,-406.68"/>
<polygon fill="black" stroke="black" points="457.94,-406.45 453.33,-396.91 450.98,-407.25 457.94,-406.45"/>
<text xml:space="preserve" text-anchor="middle" x="460.62" y="-481.95" font-family="Times,serif" font-size="14.00">délègue tick/context</text>
</g>
<!-- Queue -->
<g id="node5" class="node">
<title>Queue</title>
<g id="a_node5"><a xlink:href="priority_queue/13_priority_queue.svg" xlink:title="PriorityQueue">
<polygon fill="#ede7f6" stroke="#512da8" points="755.62,-303.5 680.38,-303.5 680.38,-267.5 755.62,-267.5 755.62,-303.5"/>
<text xml:space="preserve" text-anchor="middle" x="718" y="-282" font-family="Arial" font-size="10.00">PriorityQueue</text>
</a>
</g>
</g>
<!-- Scheduler&#45;&gt;Queue -->
<g id="edge5" class="edge">
<title>Scheduler&#45;&gt;Queue</title>
<path fill="none" stroke="black" d="M713.8,-375.47C714.57,-359.26 715.73,-334.56 716.64,-315.29"/>
<polygon fill="black" stroke="black" points="720.14,-315.51 717.11,-305.35 713.14,-315.18 720.14,-315.51"/>
</g>
<!-- ContextEngine -->
<g id="node9" class="node">
<title>ContextEngine</title>
<g id="a_node9"><a xlink:href="../context/20_context.svg" xlink:title="ContextEngine">
<polygon fill="#fff3e0" stroke="#ef6c00" points="910.25,-549.25 829.75,-549.25 829.75,-513.25 910.25,-513.25 910.25,-549.25"/>
<text xml:space="preserve" text-anchor="middle" x="870" y="-527.75" font-family="Arial" font-size="10.00">ContextEngine</text>
</a>
</g>
</g>
<!-- Scheduler&#45;&gt;ContextEngine -->
<g id="edge10" class="edge">
<title>Scheduler&#45;&gt;ContextEngine</title>
<path fill="none" stroke="black" d="M728.7,-411.87C751.5,-436.92 792.96,-481.65 810.25,-495.25 815.46,-499.34 821.19,-503.3 826.98,-506.98"/>
<polygon fill="black" stroke="black" points="825.05,-509.9 835.41,-512.11 828.69,-503.92 825.05,-509.9"/>
<text xml:space="preserve" text-anchor="middle" x="843.62" y="-481.95" font-family="Times,serif" font-size="14.00">clock tick</text>
</g>
<!-- Queue&#45;&gt;Dispatcher -->
<g id="edge6" class="edge">
<title>Queue&#45;&gt;Dispatcher</title>
<path fill="none" stroke="black" d="M689.47,-267.08C683.25,-262.1 677.26,-256.18 673,-249.5 668.44,-242.35 665.61,-233.68 663.85,-225.47"/>
<polygon fill="black" stroke="black" points="667.35,-225.16 662.26,-215.87 660.44,-226.31 667.35,-225.16"/>
</g>
<!-- Dispatcher&#45;&gt;Proxy -->
<g id="edge9" class="edge">
<title>Dispatcher&#45;&gt;Proxy</title>
<path fill="none" stroke="black" stroke-dasharray="5,2" d="M639.32,-214.71C614.06,-236.58 573.72,-276.65 557.25,-321.5 505.33,-462.91 550.18,-476.48 556,-495.25 556.81,-497.86 557.89,-500.45 559.14,-502.97"/>
<polygon fill="black" stroke="black" points="556.12,-504.74 564.26,-511.52 562.12,-501.14 556.12,-504.74"/>
<text xml:space="preserve" text-anchor="middle" x="607.12" y="-334.82" font-family="Times,serif" font-size="14.00">Request.reply</text>
</g>
<!-- EventBus -->
<g id="node7" class="node">
<title>EventBus</title>
<g id="a_node7"><a xlink:href="event_bus/12_event_bus.svg" xlink:title="EventBus\nobservation only">
<polygon fill="#ede7f6" stroke="#512da8" points="621.62,-125 534.38,-125 534.38,-89 621.62,-89 621.62,-125"/>
<text xml:space="preserve" text-anchor="middle" x="578" y="-109.5" font-family="Arial" font-size="10.00">EventBus</text>
<text xml:space="preserve" text-anchor="middle" x="578" y="-97.5" font-family="Arial" font-size="10.00">observation only</text>
</a>
</g>
</g>
<!-- Dispatcher&#45;&gt;EventBus -->
<g id="edge7" class="edge">
<title>Dispatcher&#45;&gt;EventBus</title>
<path fill="none" stroke="black" stroke-dasharray="5,2" d="M628.91,-192.17C608.07,-188.32 582.39,-179.67 569,-160.25 564.19,-153.27 564,-144.55 565.74,-136.24"/>
<polygon fill="black" stroke="black" points="569.04,-137.4 568.61,-126.82 562.35,-135.37 569.04,-137.4"/>
<text xml:space="preserve" text-anchor="middle" x="614" y="-146.95" font-family="Times,serif" font-size="14.00">publish copy</text>
</g>
<!-- Lifecycle -->
<g id="node8" class="node">
<title>Lifecycle</title>
<g id="a_node8"><a xlink:href="../00_global.svg" xlink:title="Lifecycle">
<polygon fill="#ede7f6" stroke="#512da8" points="694.5,-125 639.5,-125 639.5,-89 694.5,-89 694.5,-125"/>
<text xml:space="preserve" text-anchor="middle" x="667" y="-103.5" font-family="Arial" font-size="10.00">Lifecycle</text>
</a>
</g>
</g>
<!-- Dispatcher&#45;&gt;Lifecycle -->
<g id="edge8" class="edge">
<title>Dispatcher&#45;&gt;Lifecycle</title>
<path fill="none" stroke="black" d="M662.19,-178.01C663,-166.18 664.1,-150.2 665.04,-136.5"/>
<polygon fill="black" stroke="black" points="668.52,-136.93 665.71,-126.71 661.54,-136.45 668.52,-136.93"/>
<text xml:space="preserve" text-anchor="middle" x="727.16" y="-146.95" font-family="Times,serif" font-size="14.00">lifecycle handlers</text>
</g>
<!-- ContextRequest -->
<g id="node11" class="node">
<title>ContextRequest</title>
<g id="a_node11"><a xlink:href="../context/20_context.svg" xlink:title="CONTEXT_REQUEST\nRequest.reply">
<polygon fill="#fff3e0" stroke="#ef6c00" points="932,-303.5 814,-303.5 814,-267.5 932,-267.5 932,-303.5"/>
<text xml:space="preserve" text-anchor="middle" x="873" y="-288" font-family="Arial" font-size="10.00">CONTEXT_REQUEST</text>
<text xml:space="preserve" text-anchor="middle" x="873" y="-276" font-family="Arial" font-size="10.00">Request.reply</text>
</a>
</g>
</g>
<!-- Dispatcher&#45;&gt;ContextRequest -->
<g id="edge14" class="edge">
<title>Dispatcher&#45;&gt;ContextRequest</title>
<path fill="none" stroke="black" d="M668.96,-214.66C675.41,-226.6 685.69,-241.65 699.5,-249.5 719.4,-260.8 779.66,-254.55 802,-259.5 807.23,-260.66 812.6,-262.08 817.94,-263.67"/>
<polygon fill="black" stroke="black" points="816.75,-266.96 827.34,-266.63 818.86,-260.29 816.75,-266.96"/>
<text xml:space="preserve" text-anchor="middle" x="785.75" y="-236.2" font-family="Times,serif" font-size="14.00">ContextRequestHandler</text>
</g>
<!-- InferenceHandler -->
<g id="node16" class="node">
<title>InferenceHandler</title>
<g id="a_node16"><a xlink:href="../inference/40_inference.svg" xlink:title="InferenceRequestHandler">
<polygon fill="#fffde7" stroke="#f9a825" points="143.5,-411.5 16.5,-411.5 16.5,-375.5 143.5,-375.5 143.5,-411.5"/>
<text xml:space="preserve" text-anchor="middle" x="80" y="-390" font-family="Arial" font-size="10.00">InferenceRequestHandler</text>
</a>
</g>
</g>
<!-- Dispatcher&#45;&gt;InferenceHandler -->
<g id="edge22" class="edge">
<title>Dispatcher&#45;&gt;InferenceHandler</title>
<path fill="none" stroke="black" d="M629.19,-205.85C606.12,-212.36 574.31,-221.93 547,-232.25 545.03,-233 272.02,-356.9 270,-357.5 222.41,-371.6 206.17,-366.23 155.02,-375.08"/>
<polygon fill="black" stroke="black" points="154.62,-371.59 145.42,-376.85 155.89,-378.48 154.62,-371.59"/>
</g>
<!-- ContextCollector -->
<g id="node10" class="node">
<title>ContextCollector</title>
<g id="a_node10"><a xlink:href="../context/20_context.svg" xlink:title="ContextCollector">
<polygon fill="#fff3e0" stroke="#ef6c00" points="926.75,-411.5 837.25,-411.5 837.25,-375.5 926.75,-375.5 926.75,-411.5"/>
<text xml:space="preserve" text-anchor="middle" x="882" y="-390" font-family="Arial" font-size="10.00">ContextCollector</text>
</a>
</g>
</g>
<!-- ContextEngine&#45;&gt;ContextCollector -->
<g id="edge11" class="edge">
<title>ContextEngine&#45;&gt;ContextCollector</title>
<path fill="none" stroke="black" d="M876.51,-513.05C878.33,-507.45 880.06,-501.16 881,-495.25 884.83,-471.1 884.77,-443.29 883.94,-423.01"/>
<polygon fill="black" stroke="black" points="887.44,-423.06 883.44,-413.25 880.45,-423.42 887.44,-423.06"/>
</g>
<!-- ContextCollector&#45;&gt;ContextRequest -->
<g id="edge12" class="edge">
<title>ContextCollector&#45;&gt;ContextRequest</title>
<path fill="none" stroke="black" d="M880.55,-375.47C879.18,-359.26 877.08,-334.56 875.44,-315.29"/>
<polygon fill="black" stroke="black" points="878.93,-315.02 874.6,-305.35 871.96,-315.61 878.93,-315.02"/>
</g>
<!-- ContextRequest&#45;&gt;Proxy -->
<g id="edge15" class="edge">
<title>ContextRequest&#45;&gt;Proxy</title>
<path fill="none" stroke="black" d="M813.87,-301.45C809.87,-302.21 805.88,-302.91 802,-303.5 697.42,-319.36 395.94,-291.62 331.5,-375.5 278.03,-445.1 321.94,-484.83 331,-495.25 355.28,-523.18 456.64,-529.47 522.32,-530.53"/>
<polygon fill="black" stroke="black" points="522.18,-534.03 532.23,-530.65 522.27,-527.03 522.18,-534.03"/>
<text xml:space="preserve" text-anchor="middle" x="384.75" y="-388.82" font-family="Times,serif" font-size="14.00">proxy.context()</text>
</g>
<!-- ContextRequest&#45;&gt;Scheduler -->
<g id="edge13" class="edge">
<title>ContextRequest&#45;&gt;Scheduler</title>
<path fill="none" stroke="black" d="M846.68,-303.94C819.94,-321.66 778.32,-349.22 748.64,-368.89"/>
<polygon fill="black" stroke="black" points="746.73,-365.96 740.32,-374.4 750.59,-371.79 746.73,-365.96"/>
<text xml:space="preserve" text-anchor="middle" x="832.8" y="-334.82" font-family="Times,serif" font-size="14.00">emit</text>
</g>
<!-- ContextReply -->
<g id="node12" class="node">
<title>ContextReply</title>
<g id="a_node12"><a xlink:href="../context/20_context.svg" xlink:title="CONTEXT_REPLY">
<polygon fill="#fff3e0" stroke="#ef6c00" points="930.75,-214.25 829.25,-214.25 829.25,-178.25 930.75,-178.25 930.75,-214.25"/>
<text xml:space="preserve" text-anchor="middle" x="880" y="-192.75" font-family="Arial" font-size="10.00">CONTEXT_REPLY</text>
</a>
</g>
</g>
<!-- ContextRequest&#45;&gt;ContextReply -->
<g id="edge16" class="edge">
<title>ContextRequest&#45;&gt;ContextReply</title>
<path fill="none" stroke="black" d="M874.38,-267.26C875.33,-255.43 876.61,-239.45 877.71,-225.75"/>
<polygon fill="black" stroke="black" points="881.19,-226.21 878.5,-215.96 874.21,-225.65 881.19,-226.21"/>
<text xml:space="preserve" text-anchor="middle" x="895.5" y="-236.2" font-family="Times,serif" font-size="14.00">reply</text>
</g>
<!-- ContextReply&#45;&gt;EventBus -->
<g id="edge17" class="edge">
<title>ContextReply&#45;&gt;EventBus</title>
<path fill="none" stroke="black" stroke-dasharray="5,2" d="M857.65,-177.89C841.04,-165.98 817.32,-150.93 794,-143 728.23,-120.62 704.51,-138.36 632.98,-125.06"/>
<polygon fill="black" stroke="black" points="634.05,-121.71 623.55,-123.16 632.66,-128.57 634.05,-121.71"/>
</g>
<!-- ContextReducer -->
<g id="node13" class="node">
<title>ContextReducer</title>
<g id="a_node13"><a xlink:href="../context/20_context.svg" xlink:title="ContextReducer">
<polygon fill="#fff3e0" stroke="#ef6c00" points="923.62,-125 836.38,-125 836.38,-89 923.62,-89 923.62,-125"/>
<text xml:space="preserve" text-anchor="middle" x="880" y="-103.5" font-family="Arial" font-size="10.00">ContextReducer</text>
</a>
</g>
</g>
<!-- ContextReply&#45;&gt;ContextReducer -->
<g id="edge18" class="edge">
<title>ContextReply&#45;&gt;ContextReducer</title>
<path fill="none" stroke="black" d="M880,-178.01C880,-166.18 880,-150.2 880,-136.5"/>
<polygon fill="black" stroke="black" points="883.5,-136.72 880,-126.72 876.5,-136.72 883.5,-136.72"/>
</g>
<!-- Snapshot -->
<g id="node14" class="node">
<title>Snapshot</title>
<g id="a_node14"><a xlink:href="../context/20_context.svg" xlink:title="GlobalContextSnapshot">
<polygon fill="#fff3e0" stroke="#ef6c00" points="939.75,-52 820.25,-52 820.25,-16 939.75,-16 939.75,-52"/>
<text xml:space="preserve" text-anchor="middle" x="880" y="-30.5" font-family="Arial" font-size="10.00">GlobalContextSnapshot</text>
</a>
</g>
</g>
<!-- ContextReducer&#45;&gt;Snapshot -->
<g id="edge19" class="edge">
<title>ContextReducer&#45;&gt;Snapshot</title>
<path fill="none" stroke="black" d="M880,-88.81C880,-81.23 880,-72.1 880,-63.54"/>
<polygon fill="black" stroke="black" points="883.5,-63.54 880,-53.54 876.5,-63.54 883.5,-63.54"/>
</g>
<!-- InferenceRequest&#45;&gt;Scheduler -->
<g id="edge21" class="edge">
<title>InferenceRequest&#45;&gt;Scheduler</title>
<path fill="none" stroke="black" d="M238.28,-411.82C252.02,-430.49 276.16,-458.31 305,-469.98 342.28,-485.07 631.99,-489.78 667,-469.98 684.92,-459.84 696.63,-439.62 703.75,-422.52"/>
<polygon fill="black" stroke="black" points="706.98,-423.87 707.25,-413.28 700.44,-421.39 706.98,-423.87"/>
<text xml:space="preserve" text-anchor="middle" x="348" y="-481.95" font-family="Times,serif" font-size="14.00">emit</text>
</g>
<!-- InferenceHandler&#45;&gt;Proxy -->
<g id="edge27" class="edge">
<title>InferenceHandler&#45;&gt;Proxy</title>
<path fill="none" stroke="black" stroke-dasharray="5,2" d="M79.49,-411.95C79.86,-435.01 84.35,-475.06 109.25,-495.25 140.67,-520.72 403.6,-527.72 522.28,-529.59"/>
<polygon fill="black" stroke="black" points="522.08,-533.09 532.13,-529.74 522.18,-526.09 522.08,-533.09"/>
<text xml:space="preserve" text-anchor="middle" x="159.12" y="-481.95" font-family="Times,serif" font-size="14.00">Request.reply</text>
</g>
<!-- DummyBackend -->
<g id="node17" class="node">
<title>DummyBackend</title>
<g id="a_node17"><a xlink:href="../inference/40_inference.svg" xlink:title="DummyInferenceBackend">
<polygon fill="#fffde7" stroke="#f9a825" points="145.62,-303.5 16.38,-303.5 16.38,-267.5 145.62,-267.5 145.62,-303.5"/>
<text xml:space="preserve" text-anchor="middle" x="81" y="-282" font-family="Arial" font-size="10.00">DummyInferenceBackend</text>
</a>
</g>
</g>
<!-- InferenceHandler&#45;&gt;DummyBackend -->
<g id="edge23" class="edge">
<title>InferenceHandler&#45;&gt;DummyBackend</title>
<path fill="none" stroke="black" d="M129.91,-375.21C137.11,-370.57 143.57,-364.75 148,-357.5 156.33,-343.84 156.29,-335.18 148,-321.5 145.62,-317.57 142.64,-314.06 139.26,-310.93"/>
<polygon fill="black" stroke="black" points="141.43,-308.19 131.38,-304.84 137.15,-313.72 141.43,-308.19"/>
<text xml:space="preserve" text-anchor="middle" x="171.11" y="-334.82" font-family="Times,serif" font-size="14.00">infer</text>
</g>
<!-- InferenceResult -->
<g id="node18" class="node">
<title>InferenceResult</title>
<g id="a_node18"><a xlink:href="../inference/40_inference.svg" xlink:title="INFERENCE_RESULT\nobservable">
<polygon fill="#fffde7" stroke="#f9a825" points="282.75,-303.5 163.25,-303.5 163.25,-267.5 282.75,-267.5 282.75,-303.5"/>
<text xml:space="preserve" text-anchor="middle" x="223" y="-288" font-family="Arial" font-size="10.00">INFERENCE_RESULT</text>
<text xml:space="preserve" text-anchor="middle" x="223" y="-276" font-family="Arial" font-size="10.00">observable</text>
</a>
</g>
</g>
<!-- InferenceHandler&#45;&gt;InferenceResult -->
<g id="edge25" class="edge">
<title>InferenceHandler&#45;&gt;InferenceResult</title>
<path fill="none" stroke="black" d="M143.83,-377.44C164.53,-371.54 184.19,-364.5 192,-357.5 204.41,-346.38 212.06,-329.39 216.66,-314.82"/>
<polygon fill="black" stroke="black" points="220.01,-315.85 219.32,-305.27 213.27,-313.97 220.01,-315.85"/>
<text xml:space="preserve" text-anchor="middle" x="240.24" y="-334.82" font-family="Times,serif" font-size="14.00">publish</text>
</g>
<!-- DummyBackend&#45;&gt;InferenceHandler -->
<g id="edge24" class="edge">
<title>DummyBackend&#45;&gt;InferenceHandler</title>
<path fill="none" stroke="black" d="M46.44,-303.84C40.13,-308.66 34.39,-314.53 30.75,-321.5 23.34,-335.68 23.41,-343.28 30.75,-357.5 32.59,-361.06 34.97,-364.33 37.69,-367.33"/>
<polygon fill="black" stroke="black" points="35.26,-369.84 45,-374.02 39.99,-364.68 35.26,-369.84"/>
<text xml:space="preserve" text-anchor="middle" x="87.38" y="-334.82" font-family="Times,serif" font-size="14.00">InferenceResult</text>
</g>
<!-- InferenceResult&#45;&gt;EventBus -->
<g id="edge26" class="edge">
<title>InferenceResult&#45;&gt;EventBus</title>
<path fill="none" stroke="black" stroke-dasharray="5,2" d="M245.23,-267.05C259.54,-256.26 278.8,-242.56 297,-232.25 372.64,-189.39 465.88,-150.74 523.63,-128.31"/>
<polygon fill="black" stroke="black" points="524.86,-131.59 532.93,-124.72 522.34,-125.06 524.86,-131.59"/>
</g>
<!-- Nav_Global -->
<g id="node20" class="node">
<title>Nav_Global</title>
<g id="a_node20"><a xlink:href="../00_global.svg" xlink:title="Global">
<polygon fill="lightgrey" stroke="none" points="1037,-357.5 983,-357.5 983,-321.5 1037,-321.5 1037,-357.5"/>
<text xml:space="preserve" text-anchor="middle" x="1010" y="-336" font-family="Arial" font-size="10.00">Global</text>
</a>
</g>
</g>
<!-- Nav_Dispatcher -->
<g id="node21" class="node">
<title>Nav_Dispatcher</title>
<g id="a_node21"><a xlink:href="dispatcher/11_dispatcher.svg" xlink:title="Dispatcher">
<polygon fill="lightgrey" stroke="none" points="1105.62,-357.5 1042.38,-357.5 1042.38,-321.5 1105.62,-321.5 1105.62,-357.5"/>
<text xml:space="preserve" text-anchor="middle" x="1074" y="-336" font-family="Arial" font-size="10.00">Dispatcher</text>
</a>
</g>
</g>
<!-- Nav_EventBus -->
<g id="node22" class="node">
<title>Nav_EventBus</title>
<g id="a_node22"><a xlink:href="event_bus/12_event_bus.svg" xlink:title="EventBus">
<polygon fill="lightgrey" stroke="none" points="1169.38,-357.5 1110.62,-357.5 1110.62,-321.5 1169.38,-321.5 1169.38,-357.5"/>
<text xml:space="preserve" text-anchor="middle" x="1140" y="-336" font-family="Arial" font-size="10.00">EventBus</text>
</a>
</g>
</g>
<!-- Nav_Queue -->
<g id="node23" class="node">
<title>Nav_Queue</title>
<g id="a_node23"><a xlink:href="priority_queue/13_priority_queue.svg" xlink:title="Priority Queue">
<polygon fill="lightgrey" stroke="none" points="1253.12,-357.5 1174.88,-357.5 1174.88,-321.5 1253.12,-321.5 1253.12,-357.5"/>
<text xml:space="preserve" text-anchor="middle" x="1214" y="-336" font-family="Arial" font-size="10.00">Priority Queue</text>
</a>
</g>
</g>
<!-- Nav_Proxy -->
<g id="node24" class="node">
<title>Nav_Proxy</title>
<g id="a_node24"><a xlink:href="component_proxy/14_component_proxy.svg" xlink:title="Component Proxy">
<polygon fill="lightgrey" stroke="none" points="1353.38,-357.5 1258.62,-357.5 1258.62,-321.5 1353.38,-321.5 1353.38,-357.5"/>
<text xml:space="preserve" text-anchor="middle" x="1306" y="-336" font-family="Arial" font-size="10.00">Component Proxy</text>
</a>
</g>
</g>
<!-- Nav_Inference -->
<g id="node25" class="node">
<title>Nav_Inference</title>
<g id="a_node25"><a xlink:href="../inference/40_inference.svg" xlink:title="Inference">
<polygon fill="lightgrey" stroke="none" points="1415.25,-357.5 1358.75,-357.5 1358.75,-321.5 1415.25,-321.5 1415.25,-357.5"/>
<text xml:space="preserve" text-anchor="middle" x="1387" y="-336" font-family="Arial" font-size="10.00">Inference</text>
</a>
</g>
</g>
</g>
</svg>
