<?xml version="1.0" encoding="UTF-8" standalone="no"?>
<!DOCTYPE svg PUBLIC "-//W3C//DTD SVG 1.1//EN"
 "http://www.w3.org/Graphics/SVG/1.1/DTD/svg11.dtd">
<!-- Generated by graphviz version 14.1.3 (20260303.0454)
 -->
<!-- Title: Dispatcher Pages: 1 -->
<svg width="556pt" height="517pt"
 viewBox="0.00 0.00 556.00 517.00" xmlns="http://www.w3.org/2000/svg" xmlns:xlink="http://www.w3.org/1999/xlink">
<g id="graph0" class="graph" transform="scale(1 1) rotate(0) translate(4 513)">
<title>Dispatcher</title>
<polygon fill="white" stroke="none" points="-4,4 -4,-513 552.25,-513 552.25,4 -4,4"/>
<g id="clust1" class="cluster">
<title>cluster_services</title>
<polygon fill="none" stroke="black" points="392.75,-154 392.75,-501 478.75,-501 478.75,-154 392.75,-154"/>
<text xml:space="preserve" text-anchor="middle" x="435.75" y="-483.7" font-family="Times,serif" font-size="14.00">Services</text>
</g>
<!-- Queue -->
<g id="node1" class="node">
<title>Queue</title>
<g id="a_node1"><a xlink:href="../priority_queue/13_priority_queue.svg" xlink:title="Priority Queue">
<polygon fill="#ede7f6" stroke="#512da8" points="78.25,-252 0,-252 0,-216 78.25,-216 78.25,-252"/>
<text xml:space="preserve" text-anchor="middle" x="39.12" y="-230.5" font-family="Arial" font-size="10.00">Priority Queue</text>
</a>
</g>
</g>
<!-- Dispatcher -->
<g id="node2" class="node">
<title>Dispatcher</title>
<g id="a_node2"><a xlink:href="../10_scheduler.svg" xlink:title="Dispatcher">
<polygon fill="#ede7f6" stroke="#512da8" points="216.5,-252 153.25,-252 153.25,-216 216.5,-216 216.5,-252"/>
<text xml:space="preserve" text-anchor="middle" x="184.88" y="-230.5" font-family="Arial" font-size="10.00">Dispatcher</text>
</a>
</g>
</g>
<!-- Queue&#45;&gt;Dispatcher -->
<g id="edge1" class="edge">
<title>Queue&#45;&gt;Dispatcher</title>
<path fill="none" stroke="black" d="M78.65,-234C98.11,-234 121.77,-234 141.72,-234"/>
<polygon fill="black" stroke="black" points="141.47,-237.5 151.47,-234 141.47,-230.5 141.47,-237.5"/>
<text xml:space="preserve" text-anchor="middle" x="115.75" y="-237.95" font-family="Times,serif" font-size="14.00">défile</text>
</g>
<!-- EventBus -->
<g id="node3" class="node">
<title>EventBus</title>
<g id="a_node3"><a xlink:href="../event_bus/12_event_bus.svg" xlink:title="EventBus">
<polygon fill="#ede7f6" stroke="#512da8" points="363.75,-252 305,-252 305,-216 363.75,-216 363.75,-252"/>
<text xml:space="preserve" text-anchor="middle" x="334.38" y="-230.5" font-family="Arial" font-size="10.00">EventBus</text>
</a>
</g>
</g>
<!-- Dispatcher&#45;&gt;EventBus -->
<g id="edge2" class="edge">
<title>Dispatcher&#45;&gt;EventBus</title>
<path fill="none" stroke="black" d="M216.8,-234C239.16,-234 269.55,-234 293.7,-234"/>
<polygon fill="black" stroke="black" points="293.48,-237.5 303.48,-234 293.48,-230.5 293.48,-237.5"/>
<text xml:space="preserve" text-anchor="middle" x="260.75" y="-237.95" font-family="Times,serif" font-size="14.00">publish</text>
</g>
<!-- SQLiteProd -->
<g id="node4" class="node">
<title>SQLiteProd</title>
<g id="a_node4"><a xlink:href="../../services/30_services.svg" xlink:title="SQLiteProd">
<polygon fill="#e1f5fe" stroke="#0288d1" points="468.88,-468 402.62,-468 402.62,-432 468.88,-432 468.88,-468"/>
<text xml:space="preserve" text-anchor="middle" x="435.75" y="-446.5" font-family="Arial" font-size="10.00">SQLiteProd</text>
</a>
</g>
</g>
<!-- EventBus&#45;&gt;SQLiteProd -->
<g id="edge3" class="edge">
<title>EventBus&#45;&gt;SQLiteProd</title>
<path fill="none" stroke="black" d="M336.76,-252.27C340.31,-288.33 352.54,-369.79 392.75,-423 393.26,-423.67 393.79,-424.34 394.34,-424.99"/>
<polygon fill="black" stroke="black" points="391.69,-427.29 401.33,-431.69 396.54,-422.24 391.69,-427.29"/>
</g>
<!-- SQLiteMaint -->
<g id="node5" class="node">
<title>SQLiteMaint</title>
<g id="a_node5"><a xlink:href="../../services/30_services.svg" xlink:title="SQLiteMaint">
<polygon fill="#e1f5fe" stroke="#0288d1" points="470.75,-414 400.75,-414 400.75,-378 470.75,-378 470.75,-414"/>
<text xml:space="preserve" text-anchor="middle" x="435.75" y="-392.5" font-family="Arial" font-size="10.00">SQLiteMaint</text>
</a>
</g>
</g>
<!-- EventBus&#45;&gt;SQLiteMaint -->
<g id="edge4" class="edge">
<title>EventBus&#45;&gt;SQLiteMaint</title>
<path fill="none" stroke="black" d="M339.5,-252.44C346.48,-280.28 362.87,-333.57 392.75,-369 393.09,-369.4 393.43,-369.79 393.78,-370.18"/>
<polygon fill="black" stroke="black" points="391.13,-372.5 400.83,-376.76 395.9,-367.38 391.13,-372.5"/>
</g>
<!-- Qdrant -->
<g id="node6" class="node">
<title>Qdrant</title>
<g id="a_node6"><a xlink:href="../../services/30_services.svg" xlink:title="Qdrant">
<polygon fill="#e1f5fe" stroke="#0288d1" points="462.75,-360 408.75,-360 408.75,-324 462.75,-324 462.75,-360"/>
<text xml:space="preserve" text-anchor="middle" x="435.75" y="-338.5" font-family="Arial" font-size="10.00">Qdrant</text>
</a>
</g>
</g>
<!-- EventBus&#45;&gt;Qdrant -->
<g id="edge5" class="edge">
<title>EventBus&#45;&gt;Qdrant</title>
<path fill="none" stroke="black" d="M345.51,-252.25C355.83,-269.74 373.07,-296.18 392.75,-315 394.78,-316.94 396.97,-318.82 399.24,-320.63"/>
<polygon fill="black" stroke="black" points="396.91,-323.26 407.05,-326.3 401.02,-317.59 396.91,-323.26"/>
</g>
<!-- Cache -->
<g id="node7" class="node">
<title>Cache</title>
<g id="a_node7"><a xlink:href="../../services/30_services.svg" xlink:title="Cache">
<polygon fill="#e1f5fe" stroke="#0288d1" points="462.75,-306 408.75,-306 408.75,-270 462.75,-270 462.75,-306"/>
<text xml:space="preserve" text-anchor="middle" x="435.75" y="-284.5" font-family="Arial" font-size="10.00">Cache</text>
</a>
</g>
</g>
<!-- EventBus&#45;&gt;Cache -->
<g id="edge6" class="edge">
<title>EventBus&#45;&gt;Cache</title>
<path fill="none" stroke="black" d="M364.12,-249.62C374.83,-255.44 387.12,-262.12 398.43,-268.26"/>
<polygon fill="black" stroke="black" points="396.66,-271.29 407.12,-272.99 400,-265.14 396.66,-271.29"/>
</g>
<!-- Knowledge -->
<g id="node8" class="node">
<title>Knowledge</title>
<g id="a_node8"><a xlink:href="../../services/30_services.svg" xlink:title="Knowledge">
<polygon fill="#e1f5fe" stroke="#0288d1" points="467.75,-252 403.75,-252 403.75,-216 467.75,-216 467.75,-252"/>
<text xml:space="preserve" text-anchor="middle" x="435.75" y="-230.5" font-family="Arial" font-size="10.00">Knowledge</text>
</a>
</g>
</g>
<!-- EventBus&#45;&gt;Knowledge -->
<g id="edge7" class="edge">
<title>EventBus&#45;&gt;Knowledge</title>
<path fill="none" stroke="black" d="M364.12,-234C372.84,-234 382.61,-234 392.05,-234"/>
<polygon fill="black" stroke="black" points="391.77,-237.5 401.77,-234 391.77,-230.5 391.77,-237.5"/>
</g>
<!-- Router -->
<g id="node9" class="node">
<title>Router</title>
<g id="a_node9"><a xlink:href="../../services/30_services.svg" xlink:title="Router">
<polygon fill="#e1f5fe" stroke="#0288d1" points="462.75,-198 408.75,-198 408.75,-162 462.75,-162 462.75,-198"/>
<text xml:space="preserve" text-anchor="middle" x="435.75" y="-176.5" font-family="Arial" font-size="10.00">Router</text>
</a>
</g>
</g>
<!-- EventBus&#45;&gt;Router -->
<g id="edge8" class="edge">
<title>EventBus&#45;&gt;Router</title>
<path fill="none" stroke="black" d="M364.12,-218.38C374.83,-212.56 387.12,-205.88 398.43,-199.74"/>
<polygon fill="black" stroke="black" points="400,-202.86 407.12,-195.01 396.66,-196.71 400,-202.86"/>
</g>
<!-- Logger -->
<g id="node10" class="node">
<title>Logger</title>
<g id="a_node10"><a xlink:href="../../observability/70_observability.svg" xlink:title="Logger">
<polygon fill="#f5f5f5" stroke="#666666" points="462.75,-144 408.75,-144 408.75,-108 462.75,-108 462.75,-144"/>
<text xml:space="preserve" text-anchor="middle" x="435.75" y="-122.5" font-family="Arial" font-size="10.00">Logger</text>
</a>
</g>
</g>
<!-- EventBus&#45;&gt;Logger -->
<g id="edge9" class="edge">
<title>EventBus&#45;&gt;Logger</title>
<path fill="none" stroke="black" d="M344.77,-215.51C354.76,-197.19 371.99,-169.16 392.75,-150 394.8,-148.11 397.03,-146.3 399.35,-144.59"/>
<polygon fill="black" stroke="black" points="400.92,-147.75 407.35,-139.32 397.07,-141.9 400.92,-147.75"/>
</g>
<!-- Metrics -->
<g id="node11" class="node">
<title>Metrics</title>
<g id="a_node11"><a xlink:href="../../observability/70_observability.svg" xlink:title="Metrics">
<polygon fill="#f5f5f5" stroke="#666666" points="462.75,-90 408.75,-90 408.75,-54 462.75,-54 462.75,-90"/>
<text xml:space="preserve" text-anchor="middle" x="435.75" y="-68.5" font-family="Arial" font-size="10.00">Metrics</text>
</a>
</g>
</g>
<!-- EventBus&#45;&gt;Metrics -->
<g id="edge10" class="edge">
<title>EventBus&#45;&gt;Metrics</title>
<path fill="none" stroke="black" d="M339.5,-215.56C346.48,-187.72 362.87,-134.43 392.75,-99 394.79,-96.58 397.11,-94.3 399.58,-92.16"/>
<polygon fill="black" stroke="black" points="401.31,-95.24 407.19,-86.42 397.1,-89.65 401.31,-95.24"/>
</g>
<!-- Replay -->
<g id="node12" class="node">
<title>Replay</title>
<g id="a_node12"><a xlink:href="../../observability/70_observability.svg" xlink:title="Replay">
<polygon fill="#f5f5f5" stroke="#666666" points="462.75,-36 408.75,-36 408.75,0 462.75,0 462.75,-36"/>
<text xml:space="preserve" text-anchor="middle" x="435.75" y="-14.5" font-family="Arial" font-size="10.00">Replay</text>
</a>
</g>
</g>
<!-- EventBus&#45;&gt;Replay -->
<g id="edge11" class="edge">
<title>EventBus&#45;&gt;Replay</title>
<path fill="none" stroke="black" d="M336.76,-215.73C340.31,-179.67 352.54,-98.21 392.75,-45 394.71,-42.41 397,-39.99 399.47,-37.76"/>
<polygon fill="black" stroke="black" points="401.42,-40.68 407.22,-31.81 397.16,-35.13 401.42,-40.68"/>
</g>
<!-- Nav_Scheduler -->
<g id="node13" class="node">
<title>Nav_Scheduler</title>
<g id="a_node13"><a xlink:href="../10_scheduler.svg" xlink:title="Scheduler">
<polygon fill="lightgrey" stroke="none" points="548.25,-36 488.75,-36 488.75,0 548.25,0 548.25,-36"/>
<text xml:space="preserve" text-anchor="middle" x="518.5" y="-14.5" font-family="Arial" font-size="10.00">Scheduler</text>
</a>
</g>
</g>
<!-- Nav_EventBus -->
<g id="node14" class="node">
<title>Nav_EventBus</title>
<g id="a_node14"><a xlink:href="../event_bus/12_event_bus.svg" xlink:title="EventBus">
<polygon fill="lightgrey" stroke="none" points="547.88,-77 489.12,-77 489.12,-41 547.88,-41 547.88,-77"/>
<text xml:space="preserve" text-anchor="middle" x="518.5" y="-55.5" font-family="Arial" font-size="10.00">EventBus</text>
</a>
</g>
</g>
</g>
</svg>
