<?xml version="1.0" encoding="UTF-8" standalone="no"?>
<!DOCTYPE svg PUBLIC "-//W3C//DTD SVG 1.1//EN"
 "http://www.w3.org/Graphics/SVG/1.1/DTD/svg11.dtd">
<!-- Generated by graphviz version 14.1.3 (20260303.0454)
 -->
<!-- Title: DispatcherLegacy Pages: 1 -->
<svg width="315pt" height="85pt"
 viewBox="0.00 0.00 315.00 85.00" xmlns="http://www.w3.org/2000/svg" xmlns:xlink="http://www.w3.org/1999/xlink">
<g id="graph0" class="graph" transform="scale(1 1) rotate(0) translate(4 81)">
<title>DispatcherLegacy</title>
<polygon fill="white" stroke="none" points="-4,4 -4,-81 310.75,-81 310.75,4 -4,4"/>
<!-- Scheduler -->
<g id="node1" class="node">
<title>Scheduler</title>
<g id="a_node1"><a xlink:href="10_scheduler.svg" xlink:title="Scheduler">
<path fill="#ede7f6" stroke="#512da8" d="M47.5,-36C47.5,-36 12,-36 12,-36 6,-36 0,-30 0,-24 0,-24 0,-12 0,-12 0,-6 6,0 12,0 12,0 47.5,0 47.5,0 53.5,0 59.5,-6 59.5,-12 59.5,-12 59.5,-24 59.5,-24 59.5,-30 53.5,-36 47.5,-36"/>
<text xml:space="preserve" text-anchor="middle" x="29.75" y="-14.5" font-family="Arial" font-size="10.00">Scheduler</text>
</a>
</g>
</g>
<!-- DispatcherDetail -->
<g id="node2" class="node">
<title>DispatcherDetail</title>
<g id="a_node2"><a xlink:href="dispatcher/11_dispatcher.svg" xlink:title="Dispatcher\nview detail">
<path fill="#ede7f6" stroke="#512da8" d="M182,-36C182,-36 142.75,-36 142.75,-36 136.75,-36 130.75,-30 130.75,-24 130.75,-24 130.75,-12 130.75,-12 130.75,-6 136.75,0 142.75,0 142.75,0 182,0 182,0 188,0 194,-6 194,-12 194,-12 194,-24 194,-24 194,-30 188,-36 182,-36"/>
<text xml:space="preserve" text-anchor="middle" x="162.38" y="-20.5" font-family="Arial" font-size="10.00">Dispatcher</text>
<text xml:space="preserve" text-anchor="middle" x="162.38" y="-8.5" font-family="Arial" font-size="10.00">view detail</text>
</a>
</g>
</g>
<!-- Scheduler&#45;&gt;DispatcherDetail -->
<g id="edge1" class="edge">
<title>Scheduler&#45;&gt;DispatcherDetail</title>
<path fill="none" stroke="black" d="M59.74,-18C77.25,-18 99.87,-18 119.32,-18"/>
<polygon fill="black" stroke="black" points="119.13,-21.5 129.13,-18 119.13,-14.5 119.13,-21.5"/>
<text xml:space="preserve" text-anchor="middle" x="95.12" y="-19.95" font-family="Arial" font-size="9.00">descend</text>
</g>
<!-- Nav_Scheduler -->
<g id="node3" class="node">
<title>Nav_Scheduler</title>
<g id="a_node3"><a xlink:href="10_scheduler.svg" xlink:title="Up: Scheduler">
<path fill="lightgrey" stroke="none" d="M286.5,-36C286.5,-36 232.25,-36 232.25,-36 226.25,-36 220.25,-30 220.25,-24 220.25,-24 220.25,-12 220.25,-12 220.25,-6 226.25,0 232.25,0 232.25,0 286.5,0 286.5,0 292.5,0 298.5,-6 298.5,-12 298.5,-12 298.5,-24 298.5,-24 298.5,-30 292.5,-36 286.5,-36"/>
<text xml:space="preserve" text-anchor="middle" x="259.38" y="-14.5" font-family="Arial" font-size="10.00">Up: Scheduler</text>
</a>
</g>
</g>
<!-- Nav_Detail -->
<g id="node4" class="node">
<title>Nav_Detail</title>
<g id="a_node4"><a xlink:href="dispatcher/11_dispatcher.svg" xlink:title="Detail: Dispatcher">
<path fill="lightgrey" stroke="none" d="M294.75,-77C294.75,-77 224,-77 224,-77 218,-77 212,-71 212,-65 212,-65 212,-53 212,-53 212,-47 218,-41 224,-41 224,-41 294.75,-41 294.75,-41 300.75,-41 306.75,-47 306.75,-53 306.75,-53 306.75,-65 306.75,-65 306.75,-71 300.75,-77 294.75,-77"/>
<text xml:space="preserve" text-anchor="middle" x="259.38" y="-55.5" font-family="Arial" font-size="10.00">Detail: Dispatcher</text>
</a>
</g>
</g>
</g>
</svg>
