<?xml version="1.0" encoding="UTF-8" standalone="no"?>
<!DOCTYPE svg PUBLIC "-//W3C//DTD SVG 1.1//EN"
 "http://www.w3.org/Graphics/SVG/1.1/DTD/svg11.dtd">
<!-- Generated by graphviz version 14.1.3 (20260303.0454)
 -->
<!-- Title: EventBus Pages: 1 -->
<svg width="504pt" height="564pt"
 viewBox="0.00 0.00 504.00 564.00" xmlns="http://www.w3.org/2000/svg" xmlns:xlink="http://www.w3.org/1999/xlink">
<g id="graph0" class="graph" transform="scale(1 1) rotate(0) translate(4 560)">
<title>EventBus</title>
<polygon fill="white" stroke="none" points="-4,4 -4,-560 500,-560 500,4 -4,4"/>
<g id="clust1" class="cluster">
<title>cluster_services</title>
<polygon fill="none" stroke="black" points="239.5,-201 239.5,-548 325.5,-548 325.5,-201 239.5,-201"/>
<text xml:space="preserve" text-anchor="middle" x="282.5" y="-530.7" font-family="Times,serif" font-size="14.00">Services</text>
</g>
<g id="clust2" class="cluster">
<title>cluster_observability</title>
<polygon fill="none" stroke="black" points="247.5,-8 247.5,-193 488,-193 488,-8 247.5,-8"/>
<text xml:space="preserve" text-anchor="middle" x="367.75" y="-175.7" font-family="Times,serif" font-size="14.00">Observability</text>
</g>
<!-- EventBus -->
<g id="node1" class="node">
<title>EventBus</title>
<g id="a_node1"><a xlink:href="../10_scheduler.svg" xlink:title="EventBus">
<polygon fill="#ede7f6" stroke="#512da8" points="210.5,-299 151.75,-299 151.75,-263 210.5,-263 210.5,-299"/>
<text xml:space="preserve" text-anchor="middle" x="181.12" y="-277.5" font-family="Arial" font-size="10.00">EventBus</text>
</a>
</g>
</g>
<!-- SQLiteProd -->
<g id="node3" class="node">
<title>SQLiteProd</title>
<g id="a_node3"><a xlink:href="../../services/30_services.svg" xlink:title="SQLiteProd">
<polygon fill="#e1f5fe" stroke="#0288d1" points="315.62,-515 249.38,-515 249.38,-479 315.62,-479 315.62,-515"/>
<text xml:space="preserve" text-anchor="middle" x="282.5" y="-493.5" font-family="Arial" font-size="10.00">SQLiteProd</text>
</a>
</g>
</g>
<!-- EventBus&#45;&gt;SQLiteProd -->
<g id="edge2" class="edge">
<title>EventBus&#45;&gt;SQLiteProd</title>
<path fill="none" stroke="black" d="M183.51,-299.27C187.06,-335.33 199.29,-416.79 239.5,-470 240.01,-470.67 240.54,-471.34 241.09,-471.99"/>
<polygon fill="black" stroke="black" points="238.44,-474.29 248.08,-478.69 243.29,-469.24 238.44,-474.29"/>
</g>
<!-- SQLiteMaint -->
<g id="node4" class="node">
<title>SQLiteMaint</title>
<g id="a_node4"><a xlink:href="../../services/30_services.svg" xlink:title="SQLiteMaint">
<polygon fill="#e1f5fe" stroke="#0288d1" points="317.5,-461 247.5,-461 247.5,-425 317.5,-425 317.5,-461"/>
<text xml:space="preserve" text-anchor="middle" x="282.5" y="-439.5" font-family="Arial" font-size="10.00">SQLiteMaint</text>
</a>
</g>
</g>
<!-- EventBus&#45;&gt;SQLiteMaint -->
<g id="edge3" class="edge">
<title>EventBus&#45;&gt;SQLiteMaint</title>
<path fill="none" stroke="black" d="M186.25,-299.44C193.23,-327.28 209.62,-380.57 239.5,-416 239.84,-416.4 240.18,-416.79 240.53,-417.18"/>
<polygon fill="black" stroke="black" points="237.88,-419.5 247.58,-423.76 242.65,-414.38 237.88,-419.5"/>
</g>
<!-- Qdrant -->
<g id="node5" class="node">
<title>Qdrant</title>
<g id="a_node5"><a xlink:href="../../services/30_services.svg" xlink:title="Qdrant">
<polygon fill="#e1f5fe" stroke="#0288d1" points="309.5,-407 255.5,-407 255.5,-371 309.5,-371 309.5,-407"/>
<text xml:space="preserve" text-anchor="middle" x="282.5" y="-385.5" font-family="Arial" font-size="10.00">Qdrant</text>
</a>
</g>
</g>
<!-- EventBus&#45;&gt;Qdrant -->
<g id="edge4" class="edge">
<title>EventBus&#45;&gt;Qdrant</title>
<path fill="none" stroke="black" d="M192.26,-299.25C202.58,-316.74 219.82,-343.18 239.5,-362 241.53,-363.94 243.72,-365.82 245.99,-367.63"/>
<polygon fill="black" stroke="black" points="243.66,-370.26 253.8,-373.3 247.77,-364.59 243.66,-370.26"/>
</g>
<!-- Cache -->
<g id="node6" class="node">
<title>Cache</title>
<g id="a_node6"><a xlink:href="../../services/30_services.svg" xlink:title="Cache">
<polygon fill="#e1f5fe" stroke="#0288d1" points="309.5,-353 255.5,-353 255.5,-317 309.5,-317 309.5,-353"/>
<text xml:space="preserve" text-anchor="middle" x="282.5" y="-331.5" font-family="Arial" font-size="10.00">Cache</text>
</a>
</g>
</g>
<!-- EventBus&#45;&gt;Cache -->
<g id="edge5" class="edge">
<title>EventBus&#45;&gt;Cache</title>
<path fill="none" stroke="black" d="M210.87,-296.62C221.58,-302.44 233.87,-309.12 245.18,-315.26"/>
<polygon fill="black" stroke="black" points="243.41,-318.29 253.87,-319.99 246.75,-312.14 243.41,-318.29"/>
</g>
<!-- Knowledge -->
<g id="node7" class="node">
<title>Knowledge</title>
<g id="a_node7"><a xlink:href="../../services/30_services.svg" xlink:title="Knowledge">
<polygon fill="#e1f5fe" stroke="#0288d1" points="314.5,-299 250.5,-299 250.5,-263 314.5,-263 314.5,-299"/>
<text xml:space="preserve" text-anchor="middle" x="282.5" y="-277.5" font-family="Arial" font-size="10.00">Knowledge</text>
</a>
</g>
</g>
<!-- EventBus&#45;&gt;Knowledge -->
<g id="edge6" class="edge">
<title>EventBus&#45;&gt;Knowledge</title>
<path fill="none" stroke="black" d="M210.87,-281C219.59,-281 229.36,-281 238.8,-281"/>
<polygon fill="black" stroke="black" points="238.52,-284.5 248.52,-281 238.52,-277.5 238.52,-284.5"/>
</g>
<!-- Router -->
<g id="node8" class="node">
<title>Router</title>
<g id="a_node8"><a xlink:href="../../services/30_services.svg" xlink:title="Router">
<polygon fill="#e1f5fe" stroke="#0288d1" points="309.5,-245 255.5,-245 255.5,-209 309.5,-209 309.5,-245"/>
<text xml:space="preserve" text-anchor="middle" x="282.5" y="-223.5" font-family="Arial" font-size="10.00">Router</text>
</a>
</g>
</g>
<!-- EventBus&#45;&gt;Router -->
<g id="edge7" class="edge">
<title>EventBus&#45;&gt;Router</title>
<path fill="none" stroke="black" d="M210.87,-265.38C221.58,-259.56 233.87,-252.88 245.18,-246.74"/>
<polygon fill="black" stroke="black" points="246.75,-249.86 253.87,-242.01 243.41,-243.71 246.75,-249.86"/>
</g>
<!-- Logger -->
<g id="node9" class="node">
<title>Logger</title>
<g id="a_node9"><a xlink:href="../../observability/70_observability.svg" xlink:title="Logger">
<polygon fill="#f5f5f5" stroke="#666666" points="309.5,-160 255.5,-160 255.5,-124 309.5,-124 309.5,-160"/>
<text xml:space="preserve" text-anchor="middle" x="282.5" y="-138.5" font-family="Arial" font-size="10.00">Logger</text>
</a>
</g>
</g>
<!-- EventBus&#45;&gt;Logger -->
<g id="edge8" class="edge">
<title>EventBus&#45;&gt;Logger</title>
<path fill="none" stroke="black" d="M194.16,-262.78C205.59,-245.64 223.36,-219.33 239.5,-197 246.06,-187.92 253.42,-178.15 260.12,-169.41"/>
<polygon fill="black" stroke="black" points="262.8,-171.66 266.14,-161.6 257.26,-167.38 262.8,-171.66"/>
</g>
<!-- Metrics -->
<g id="node10" class="node">
<title>Metrics</title>
<g id="a_node10"><a xlink:href="../../observability/70_observability.svg" xlink:title="Metrics">
<polygon fill="#f5f5f5" stroke="#666666" points="309.5,-106 255.5,-106 255.5,-70 309.5,-70 309.5,-106"/>
<text xml:space="preserve" text-anchor="middle" x="282.5" y="-84.5" font-family="Arial" font-size="10.00">Metrics</text>
</a>
</g>
</g>
<!-- EventBus&#45;&gt;Metrics -->
<g id="edge9" class="edge">
<title>EventBus&#45;&gt;Metrics</title>
<path fill="none" stroke="black" d="M184.46,-262.67C189.44,-229.93 203.7,-160.55 239.5,-115 241.51,-112.44 243.83,-110.06 246.33,-107.85"/>
<polygon fill="black" stroke="black" points="248.27,-110.76 254.11,-101.92 244.04,-105.19 248.27,-110.76"/>
</g>
<!-- Replay -->
<g id="node11" class="node">
<title>Replay</title>
<g id="a_node11"><a xlink:href="../../observability/70_observability.svg" xlink:title="Replay">
<polygon fill="#f5f5f5" stroke="#666666" points="309.5,-52 255.5,-52 255.5,-16 309.5,-16 309.5,-52"/>
<text xml:space="preserve" text-anchor="middle" x="282.5" y="-30.5" font-family="Arial" font-size="10.00">Replay</text>
</a>
</g>
</g>
<!-- EventBus&#45;&gt;Replay -->
<g id="edge10" class="edge">
<title>EventBus&#45;&gt;Replay</title>
<path fill="none" stroke="black" d="M182.53,-262.6C184.3,-222.26 193.4,-124.6 239.5,-61 241.41,-58.37 243.66,-55.93 246.11,-53.68"/>
<polygon fill="black" stroke="black" points="248.06,-56.6 253.82,-47.7 243.77,-51.07 248.06,-56.6"/>
</g>
<!-- Dispatcher -->
<g id="node2" class="node">
<title>Dispatcher</title>
<g id="a_node2"><a xlink:href="../dispatcher/11_dispatcher.svg" xlink:title="Dispatcher">
<polygon fill="#ede7f6" stroke="#512da8" points="63.25,-299 0,-299 0,-263 63.25,-263 63.25,-299"/>
<text xml:space="preserve" text-anchor="middle" x="31.62" y="-277.5" font-family="Arial" font-size="10.00">Dispatcher</text>
</a>
</g>
</g>
<!-- Dispatcher&#45;&gt;EventBus -->
<g id="edge1" class="edge">
<title>Dispatcher&#45;&gt;EventBus</title>
<path fill="none" stroke="black" d="M63.55,-281C85.91,-281 116.3,-281 140.45,-281"/>
<polygon fill="black" stroke="black" points="140.23,-284.5 150.23,-281 140.23,-277.5 140.23,-284.5"/>
<text xml:space="preserve" text-anchor="middle" x="107.5" y="-284.95" font-family="Times,serif" font-size="14.00">publish</text>
</g>
<!-- Dashboard -->
<g id="node12" class="node">
<title>Dashboard</title>
<g id="a_node12"><a xlink:href="../../observability/70_observability.svg" xlink:title="Dashboard">
<polygon fill="#f5f5f5" stroke="#666666" points="480,-106 416.75,-106 416.75,-70 480,-70 480,-106"/>
<text xml:space="preserve" text-anchor="middle" x="448.38" y="-84.5" font-family="Arial" font-size="10.00">Dashboard</text>
</a>
</g>
</g>
<!-- Metrics&#45;&gt;Dashboard -->
<g id="edge11" class="edge">
<title>Metrics&#45;&gt;Dashboard</title>
<path fill="none" stroke="black" stroke-dasharray="5,2" d="M309.83,-88C335.47,-88 374.86,-88 404.93,-88"/>
<polygon fill="black" stroke="black" points="404.84,-91.5 414.84,-88 404.84,-84.5 404.84,-91.5"/>
</g>
<!-- Nav_Scheduler -->
<g id="node13" class="node">
<title>Nav_Scheduler</title>
<g id="a_node13"><a xlink:href="../10_scheduler.svg" xlink:title="Scheduler">
<polygon fill="lightgrey" stroke="none" points="396.88,-237 337.38,-237 337.38,-201 396.88,-201 396.88,-237"/>
<text xml:space="preserve" text-anchor="middle" x="367.12" y="-215.5" font-family="Arial" font-size="10.00">Scheduler</text>
</a>
</g>
</g>
<!-- Nav_Dispatcher -->
<g id="node14" class="node">
<title>Nav_Dispatcher</title>
<g id="a_node14"><a xlink:href="../dispatcher/11_dispatcher.svg" xlink:title="Dispatcher">
<polygon fill="lightgrey" stroke="none" points="398.75,-278 335.5,-278 335.5,-242 398.75,-242 398.75,-278"/>
<text xml:space="preserve" text-anchor="middle" x="367.12" y="-256.5" font-family="Arial" font-size="10.00">Dispatcher</text>
</a>
</g>
</g>
</g>
</svg>
