<?xml version="1.0" encoding="UTF-8" standalone="no"?>
<!DOCTYPE svg PUBLIC "-//W3C//DTD SVG 1.1//EN"
 "http://www.w3.org/Graphics/SVG/1.1/DTD/svg11.dtd">
<!-- Generated by graphviz version 14.1.3 (20260303.0454)
 -->
<!-- Title: EventBusLegacy Pages: 1 -->
<svg width="310pt" height="85pt"
 viewBox="0.00 0.00 310.00 85.00" xmlns="http://www.w3.org/2000/svg" xmlns:xlink="http://www.w3.org/1999/xlink">
<g id="graph0" class="graph" transform="scale(1 1) rotate(0) translate(4 81)">
<title>EventBusLegacy</title>
<polygon fill="white" stroke="none" points="-4,4 -4,-81 305.5,-81 305.5,4 -4,4"/>
<!-- Scheduler -->
<g id="node1" class="node">
<title>Scheduler</title>
<g id="a_node1"><a xlink:href="10_scheduler.svg" xlink:title="Scheduler">
<path fill="#ede7f6" stroke="#512da8" d="M47.5,-36C47.5,-36 12,-36 12,-36 6,-36 0,-30 0,-24 0,-24 0,-12 0,-12 0,-6 6,0 12,0 12,0 47.5,0 47.5,0 53.5,0 59.5,-6 59.5,-12 59.5,-12 59.5,-24 59.5,-24 59.5,-30 53.5,-36 47.5,-36"/>
<text xml:space="preserve" text-anchor="middle" x="29.75" y="-14.5" font-family="Arial" font-size="10.00">Scheduler</text>
</a>
</g>
</g>
<!-- EventBusDetail -->
<g id="node2" class="node">
<title>EventBusDetail</title>
<g id="a_node2"><a xlink:href="event_bus/12_event_bus.svg" xlink:title="EventBus\nview detail">
<path fill="#ede7f6" stroke="#512da8" d="M181.25,-36C181.25,-36 142.75,-36 142.75,-36 136.75,-36 130.75,-30 130.75,-24 130.75,-24 130.75,-12 130.75,-12 130.75,-6 136.75,0 142.75,0 142.75,0 181.25,0 181.25,0 187.25,0 193.25,-6 193.25,-12 193.25,-12 193.25,-24 193.25,-24 193.25,-30 187.25,-36 181.25,-36"/>
<text xml:space="preserve" text-anchor="middle" x="162" y="-20.5" font-family="Arial" font-size="10.00">EventBus</text>
<text xml:space="preserve" text-anchor="middle" x="162" y="-8.5" font-family="Arial" font-size="10.00">view detail</text>
</a>
</g>
</g>
<!-- Scheduler&#45;&gt;EventBusDetail -->
<g id="edge1" class="edge">
<title>Scheduler&#45;&gt;EventBusDetail</title>
<path fill="none" stroke="black" d="M59.98,-18C77.45,-18 99.94,-18 119.26,-18"/>
<polygon fill="black" stroke="black" points="118.99,-21.5 128.99,-18 118.99,-14.5 118.99,-21.5"/>
<text xml:space="preserve" text-anchor="middle" x="95.12" y="-19.95" font-family="Arial" font-size="9.00">descend</text>
</g>
<!-- Nav_Scheduler -->
<g id="node3" class="node">
<title>Nav_Scheduler</title>
<g id="a_node3"><a xlink:href="10_scheduler.svg" xlink:title="Up: Scheduler">
<path fill="lightgrey" stroke="none" d="M283.5,-36C283.5,-36 229.25,-36 229.25,-36 223.25,-36 217.25,-30 217.25,-24 217.25,-24 217.25,-12 217.25,-12 217.25,-6 223.25,0 229.25,0 229.25,0 283.5,0 283.5,0 289.5,0 295.5,-6 295.5,-12 295.5,-12 295.5,-24 295.5,-24 295.5,-30 289.5,-36 283.5,-36"/>
<text xml:space="preserve" text-anchor="middle" x="256.38" y="-14.5" font-family="Arial" font-size="10.00">Up: Scheduler</text>
</a>
</g>
</g>
<!-- Nav_Detail -->
<g id="node4" class="node">
<title>Nav_Detail</title>
<g id="a_node4"><a xlink:href="event_bus/12_event_bus.svg" xlink:title="Detail: EventBus">
<path fill="lightgrey" stroke="none" d="M289.5,-77C289.5,-77 223.25,-77 223.25,-77 217.25,-77 211.25,-71 211.25,-65 211.25,-65 211.25,-53 211.25,-53 211.25,-47 217.25,-41 223.25,-41 223.25,-41 289.5,-41 289.5,-41 295.5,-41 301.5,-47 301.5,-53 301.5,-53 301.5,-65 301.5,-65 301.5,-71 295.5,-77 289.5,-77"/>
<text xml:space="preserve" text-anchor="middle" x="256.38" y="-55.5" font-family="Arial" font-size="10.00">Detail: EventBus</text>
</a>
</g>
</g>
</g>
</svg>
