<?xml version="1.0" encoding="UTF-8" standalone="no"?>
<!DOCTYPE svg PUBLIC "-//W3C//DTD SVG 1.1//EN"
 "http://www.w3.org/Graphics/SVG/1.1/DTD/svg11.dtd">
<!-- Generated by graphviz version 14.1.3 (20260303.0454)
 -->
<!-- Title: PriorityQueueLegacy Pages: 1 -->
<svg width="339pt" height="85pt"
 viewBox="0.00 0.00 339.00 85.00" xmlns="http://www.w3.org/2000/svg" xmlns:xlink="http://www.w3.org/1999/xlink">
<g id="graph0" class="graph" transform="scale(1 1) rotate(0) translate(4 81)">
<title>PriorityQueueLegacy</title>
<polygon fill="white" stroke="none" points="-4,4 -4,-81 334.75,-81 334.75,4 -4,4"/>
<!-- Scheduler -->
<g id="node1" class="node">
<title>Scheduler</title>
<g id="a_node1"><a xlink:href="10_scheduler.svg" xlink:title="Scheduler">
<path fill="#ede7f6" stroke="#512da8" d="M47.5,-36C47.5,-36 12,-36 12,-36 6,-36 0,-30 0,-24 0,-24 0,-12 0,-12 0,-6 6,0 12,0 12,0 47.5,0 47.5,0 53.5,0 59.5,-6 59.5,-12 59.5,-12 59.5,-24 59.5,-24 59.5,-30 53.5,-36 47.5,-36"/>
<text xml:space="preserve" text-anchor="middle" x="29.75" y="-14.5" font-family="Arial" font-size="10.00">Scheduler</text>
</a>
</g>
</g>
<!-- PriorityQueueDetail -->
<g id="node2" class="node">
<title>PriorityQueueDetail</title>
<g id="a_node2"><a xlink:href="priority_queue/13_priority_queue.svg" xlink:title="PriorityQueue\nview detail">
<path fill="#ede7f6" stroke="#512da8" d="M194,-36C194,-36 142.75,-36 142.75,-36 136.75,-36 130.75,-30 130.75,-24 130.75,-24 130.75,-12 130.75,-12 130.75,-6 136.75,0 142.75,0 142.75,0 194,0 194,0 200,0 206,-6 206,-12 206,-12 206,-24 206,-24 206,-30 200,-36 194,-36"/>
<text xml:space="preserve" text-anchor="middle" x="168.38" y="-20.5" font-family="Arial" font-size="10.00">PriorityQueue</text>
<text xml:space="preserve" text-anchor="middle" x="168.38" y="-8.5" font-family="Arial" font-size="10.00">view detail</text>
</a>
</g>
</g>
<!-- Scheduler&#45;&gt;PriorityQueueDetail -->
<g id="edge1" class="edge">
<title>Scheduler&#45;&gt;PriorityQueueDetail</title>
<path fill="none" stroke="black" d="M59.72,-18C76.95,-18 99.23,-18 119.05,-18"/>
<polygon fill="black" stroke="black" points="118.86,-21.5 128.86,-18 118.86,-14.5 118.86,-21.5"/>
<text xml:space="preserve" text-anchor="middle" x="95.12" y="-19.95" font-family="Arial" font-size="9.00">descend</text>
</g>
<!-- Nav_Scheduler -->
<g id="node3" class="node">
<title>Nav_Scheduler</title>
<g id="a_node3"><a xlink:href="10_scheduler.svg" xlink:title="Up: Scheduler">
<path fill="lightgrey" stroke="none" d="M304.5,-36C304.5,-36 250.25,-36 250.25,-36 244.25,-36 238.25,-30 238.25,-24 238.25,-24 238.25,-12 238.25,-12 238.25,-6 244.25,0 250.25,0 250.25,0 304.5,0 304.5,0 310.5,0 316.5,-6 316.5,-12 316.5,-12 316.5,-24 316.5,-24 316.5,-30 310.5,-36 304.5,-36"/>
<text xml:space="preserve" text-anchor="middle" x="277.38" y="-14.5" font-family="Arial" font-size="10.00">Up: Scheduler</text>
</a>
</g>
</g>
<!-- Nav_Detail -->
<g id="node4" class="node">
<title>Nav_Detail</title>
<g id="a_node4"><a xlink:href="priority_queue/13_priority_queue.svg" xlink:title="Detail: PriorityQueue">
<path fill="lightgrey" stroke="none" d="M318.75,-77C318.75,-77 236,-77 236,-77 230,-77 224,-71 224,-65 224,-65 224,-53 224,-53 224,-47 230,-41 236,-41 236,-41 318.75,-41 318.75,-41 324.75,-41 330.75,-47 330.75,-53 330.75,-53 330.75,-65 330.75,-65 330.75,-71 324.75,-77 318.75,-77"/>
<text xml:space="preserve" text-anchor="middle" x="277.38" y="-55.5" font-family="Arial" font-size="10.00">Detail: PriorityQueue</text>
</a>
</g>
</g>
</g>
</svg>
