<?xml version="1.0" encoding="UTF-8" standalone="no"?>
<!DOCTYPE svg PUBLIC "-//W3C//DTD SVG 1.1//EN"
 "http://www.w3.org/Graphics/SVG/1.1/DTD/svg11.dtd">
<!-- Generated by graphviz version 14.1.3 (20260303.0454)
 -->
<!-- Title: PriorityQueue Pages: 1 -->
<svg width="489pt" height="112pt"
 viewBox="0.00 0.00 489.00 112.00" xmlns="http://www.w3.org/2000/svg" xmlns:xlink="http://www.w3.org/1999/xlink">
<g id="graph0" class="graph" transform="scale(1 1) rotate(0) translate(4 108)">
<title>PriorityQueue</title>
<polygon fill="white" stroke="none" points="-4,4 -4,-108 484.75,-108 484.75,4 -4,4"/>
<!-- Scheduler -->
<g id="node1" class="node">
<title>Scheduler</title>
<g id="a_node1"><a xlink:href="../10_scheduler.svg" xlink:title="Scheduler">
<polygon fill="#ede7f6" stroke="#512da8" points="59.5,-90 0,-90 0,-54 59.5,-54 59.5,-90"/>
<text xml:space="preserve" text-anchor="middle" x="29.75" y="-68.5" font-family="Arial" font-size="10.00">Scheduler</text>
</a>
</g>
</g>
<!-- Queue -->
<g id="node3" class="node">
<title>Queue</title>
<g id="a_node3"><a xlink:href="../10_scheduler.svg" xlink:title="Queue">
<polygon fill="#ede7f6" stroke="#512da8" points="229.75,-63 175.75,-63 175.75,-27 229.75,-27 229.75,-63"/>
<text xml:space="preserve" text-anchor="middle" x="202.75" y="-41.5" font-family="Arial" font-size="10.00">Queue</text>
</a>
</g>
</g>
<!-- Scheduler&#45;&gt;Queue -->
<g id="edge1" class="edge">
<title>Scheduler&#45;&gt;Queue</title>
<path fill="none" stroke="black" d="M59.76,-67.42C88.49,-62.88 132.61,-55.92 164.05,-50.95"/>
<polygon fill="black" stroke="black" points="164.59,-54.41 173.92,-49.39 163.49,-47.5 164.59,-54.41"/>
<text xml:space="preserve" text-anchor="middle" x="117.62" y="-67.97" font-family="Times,serif" font-size="14.00">push event</text>
</g>
<!-- Decision -->
<g id="node2" class="node">
<title>Decision</title>
<g id="a_node2"><a xlink:href="../../context/decision_engine/24_decision_engine.svg" xlink:title="Decision">
<polygon fill="#fff3e0" stroke="#ef6c00" points="56.88,-36 2.62,-36 2.62,0 56.88,0 56.88,-36"/>
<text xml:space="preserve" text-anchor="middle" x="29.75" y="-14.5" font-family="Arial" font-size="10.00">Decision</text>
</a>
</g>
</g>
<!-- Decision&#45;&gt;Queue -->
<g id="edge2" class="edge">
<title>Decision&#45;&gt;Queue</title>
<path fill="none" stroke="black" stroke-dasharray="5,2" d="M57.27,-19.02C83.14,-20.39 123.48,-23.57 157.75,-30.75 160.02,-31.23 162.34,-31.78 164.67,-32.38"/>
<polygon fill="black" stroke="black" points="163.44,-35.67 174.02,-35.06 165.37,-28.94 163.44,-35.67"/>
<text xml:space="preserve" text-anchor="middle" x="117.62" y="-34.7" font-family="Times,serif" font-size="14.00">ajustement</text>
</g>
<!-- Dispatcher -->
<g id="node4" class="node">
<title>Dispatcher</title>
<g id="a_node4"><a xlink:href="../dispatcher/11_dispatcher.svg" xlink:title="Dispatcher">
<polygon fill="#ede7f6" stroke="#512da8" points="399.5,-63 336.25,-63 336.25,-27 399.5,-27 399.5,-63"/>
<text xml:space="preserve" text-anchor="middle" x="367.88" y="-41.5" font-family="Arial" font-size="10.00">Dispatcher</text>
</a>
</g>
</g>
<!-- Queue&#45;&gt;Dispatcher -->
<g id="edge3" class="edge">
<title>Queue&#45;&gt;Dispatcher</title>
<path fill="none" stroke="black" d="M229.96,-45C255.48,-45 294.69,-45 324.62,-45"/>
<polygon fill="black" stroke="black" points="324.49,-48.5 334.49,-45 324.49,-41.5 324.49,-48.5"/>
<text xml:space="preserve" text-anchor="middle" x="283" y="-48.95" font-family="Times,serif" font-size="14.00">pop event</text>
</g>
<!-- Nav_Scheduler -->
<g id="node5" class="node">
<title>Nav_Scheduler</title>
<g id="a_node5"><a xlink:href="../10_scheduler.svg" xlink:title="Scheduler">
<polygon fill="lightgrey" stroke="none" points="478.88,-63 419.38,-63 419.38,-27 478.88,-27 478.88,-63"/>
<text xml:space="preserve" text-anchor="middle" x="449.12" y="-41.5" font-family="Arial" font-size="10.00">Scheduler</text>
</a>
</g>
</g>
<!-- Nav_Dispatcher -->
<g id="node6" class="node">
<title>Nav_Dispatcher</title>
<g id="a_node6"><a xlink:href="../dispatcher/11_dispatcher.svg" xlink:title="Dispatcher">
<polygon fill="lightgrey" stroke="none" points="480.75,-104 417.5,-104 417.5,-68 480.75,-68 480.75,-104"/>
<text xml:space="preserve" text-anchor="middle" x="449.12" y="-82.5" font-family="Arial" font-size="10.00">Dispatcher</text>
</a>
</g>
</g>
</g>
</svg>
