<?xml version="1.0" encoding="UTF-8" standalone="no"?>
<!DOCTYPE svg PUBLIC "-//W3C//DTD SVG 1.1//EN"
 "http://www.w3.org/Graphics/SVG/1.1/DTD/svg11.dtd">
<!-- Generated by graphviz version 14.1.3 (20260303.0454)
 -->
<!-- Title: ComponentProxy Pages: 1 -->
<svg width="896pt" height="703pt"
 viewBox="0.00 0.00 896.00 703.00" xmlns="http://www.w3.org/2000/svg" xmlns:xlink="http://www.w3.org/1999/xlink">
<g id="graph0" class="graph" transform="scale(1 1) rotate(0) translate(4 699)">
<title>ComponentProxy</title>
<polygon fill="white" stroke="none" points="-4,4 -4,-699 892,-699 892,4 -4,4"/>
<g id="clust1" class="cluster">
<title>cluster_proxy</title>
<polygon fill="#ede7f6" stroke="#512da8" points="8,-408 8,-687 152,-687 152,-408 8,-408"/>
<text xml:space="preserve" text-anchor="middle" x="80" y="-669.7" font-family="Times,serif" font-size="14.00">Component Proxy</text>
</g>
<g id="clust2" class="cluster">
<title>cluster_experts</title>
<polygon fill="none" stroke="black" points="160,-408 160,-485.25 666,-485.25 666,-408 160,-408"/>
<text xml:space="preserve" text-anchor="middle" x="413" y="-467.95" font-family="Times,serif" font-size="14.00">Experts</text>
</g>
<g id="clust3" class="cluster">
<title>cluster_validation</title>
<polygon fill="none" stroke="black" points="674,-8 674,-485.25 761,-485.25 761,-8 674,-8"/>
<text xml:space="preserve" text-anchor="middle" x="717.5" y="-467.95" font-family="Times,serif" font-size="14.00">Validation</text>
</g>
<!-- Registry -->
<g id="node1" class="node">
<title>Registry</title>
<g id="a_node1"><a xlink:href="../10_scheduler.svg" xlink:title="Registry">
<polygon fill="#ede7f6" stroke="#512da8" points="135,-653.75 81,-653.75 81,-617.75 135,-617.75 135,-653.75"/>
<text xml:space="preserve" text-anchor="middle" x="108" y="-632.25" font-family="Arial" font-size="10.00">Registry</text>
</a>
</g>
</g>
<!-- Proxy -->
<g id="node2" class="node">
<title>Proxy</title>
<g id="a_node2"><a xlink:href="../10_scheduler.svg" xlink:title="Proxy">
<polygon fill="#ede7f6" stroke="#512da8" points="144,-564.5 90,-564.5 90,-528.5 144,-528.5 144,-564.5"/>
<text xml:space="preserve" text-anchor="middle" x="117" y="-543" font-family="Arial" font-size="10.00">Proxy</text>
</a>
</g>
</g>
<!-- Registry&#45;&gt;Proxy -->
<g id="edge1" class="edge">
<title>Registry&#45;&gt;Proxy</title>
<path fill="none" stroke="black" d="M109.78,-617.51C111,-605.68 112.65,-589.7 114.06,-576"/>
<polygon fill="black" stroke="black" points="117.53,-576.51 115.07,-566.21 110.56,-575.8 117.53,-576.51"/>
<text xml:space="preserve" text-anchor="middle" x="131.31" y="-586.45" font-family="Times,serif" font-size="14.00">wrap</text>
</g>
<!-- Scheduler -->
<g id="node3" class="node">
<title>Scheduler</title>
<g id="a_node3"><a xlink:href="../10_scheduler.svg" xlink:title="Scheduler">
<polygon fill="#ede7f6" stroke="#512da8" points="92.75,-452 33.25,-452 33.25,-416 92.75,-416 92.75,-452"/>
<text xml:space="preserve" text-anchor="middle" x="63" y="-430.5" font-family="Arial" font-size="10.00">Scheduler</text>
</a>
</g>
</g>
<!-- Proxy&#45;&gt;Scheduler -->
<g id="edge2" class="edge">
<title>Proxy&#45;&gt;Scheduler</title>
<path fill="none" stroke="black" d="M96.02,-528.2C90.79,-522.99 85.65,-516.93 82,-510.5 73.84,-496.12 69.14,-478.25 66.46,-463.5"/>
<polygon fill="black" stroke="black" points="69.97,-463.3 64.95,-453.97 63.06,-464.39 69.97,-463.3"/>
<text xml:space="preserve" text-anchor="middle" x="122.5" y="-497.2" font-family="Times,serif" font-size="14.00">yield Event</text>
</g>
<!-- Meta -->
<g id="node4" class="node">
<title>Meta</title>
<g id="a_node4"><a xlink:href="../../experts/40_experts.svg" xlink:title="Meta">
<polygon fill="#e8f5e9" stroke="#388e3c" points="222,-452 168,-452 168,-416 222,-416 222,-452"/>
<text xml:space="preserve" text-anchor="middle" x="195" y="-430.5" font-family="Arial" font-size="10.00">Meta</text>
</a>
</g>
</g>
<!-- Proxy&#45;&gt;Meta -->
<g id="edge3" class="edge">
<title>Proxy&#45;&gt;Meta</title>
<path fill="none" stroke="black" d="M144.39,-528.35C151.1,-523.21 157.83,-517.16 163,-510.5 173.93,-496.44 181.82,-478.09 187.03,-463"/>
<polygon fill="black" stroke="black" points="190.3,-464.25 190.03,-453.66 183.64,-462.11 190.3,-464.25"/>
</g>
<!-- Python -->
<g id="node5" class="node">
<title>Python</title>
<g id="a_node5"><a xlink:href="../../experts/40_experts.svg" xlink:title="Python">
<polygon fill="#e8f5e9" stroke="#388e3c" points="294,-452 240,-452 240,-416 294,-416 294,-452"/>
<text xml:space="preserve" text-anchor="middle" x="267" y="-430.5" font-family="Arial" font-size="10.00">Python</text>
</a>
</g>
</g>
<!-- Proxy&#45;&gt;Python -->
<g id="edge4" class="edge">
<title>Proxy&#45;&gt;Python</title>
<path fill="none" stroke="black" d="M144.03,-535.42C168.58,-525.34 204.86,-508.07 231,-485.25 238.59,-478.63 245.45,-470.11 251.1,-461.97"/>
<polygon fill="black" stroke="black" points="253.99,-463.94 256.53,-453.66 248.13,-460.12 253.99,-463.94"/>
</g>
<!-- C -->
<g id="node6" class="node">
<title>C</title>
<g id="a_node6"><a xlink:href="../../experts/40_experts.svg" xlink:title="C">
<polygon fill="#e8f5e9" stroke="#388e3c" points="366,-452 312,-452 312,-416 366,-416 366,-452"/>
<text xml:space="preserve" text-anchor="middle" x="339" y="-430.5" font-family="Arial" font-size="10.00">C</text>
</a>
</g>
</g>
<!-- Proxy&#45;&gt;C -->
<g id="edge5" class="edge">
<title>Proxy&#45;&gt;C</title>
<path fill="none" stroke="black" d="M144.37,-542.11C182.95,-536.19 254.09,-521 303,-485.25 311.47,-479.06 318.72,-470.27 324.45,-461.77"/>
<polygon fill="black" stroke="black" points="327.35,-463.72 329.65,-453.38 321.41,-460.03 327.35,-463.72"/>
</g>
<!-- KiCad -->
<g id="node7" class="node">
<title>KiCad</title>
<g id="a_node7"><a xlink:href="../../experts/40_experts.svg" xlink:title="KiCad">
<polygon fill="#e8f5e9" stroke="#388e3c" points="438,-452 384,-452 384,-416 438,-416 438,-452"/>
<text xml:space="preserve" text-anchor="middle" x="411" y="-430.5" font-family="Arial" font-size="10.00">KiCad</text>
</a>
</g>
</g>
<!-- Proxy&#45;&gt;KiCad -->
<g id="edge6" class="edge">
<title>Proxy&#45;&gt;KiCad</title>
<path fill="none" stroke="black" d="M144.22,-545.69C194.48,-544.72 303.26,-536.35 375,-485.25 383.54,-479.16 390.81,-470.4 396.53,-461.89"/>
<polygon fill="black" stroke="black" points="399.45,-463.83 401.73,-453.48 393.49,-460.15 399.45,-463.83"/>
</g>
<!-- FreeCAD -->
<g id="node8" class="node">
<title>FreeCAD</title>
<g id="a_node8"><a xlink:href="../../experts/40_experts.svg" xlink:title="FreeCAD">
<polygon fill="#e8f5e9" stroke="#388e3c" points="513.62,-452 456.38,-452 456.38,-416 513.62,-416 513.62,-452"/>
<text xml:space="preserve" text-anchor="middle" x="485" y="-430.5" font-family="Arial" font-size="10.00">FreeCAD</text>
</a>
</g>
</g>
<!-- Proxy&#45;&gt;FreeCAD -->
<g id="edge7" class="edge">
<title>Proxy&#45;&gt;FreeCAD</title>
<path fill="none" stroke="black" d="M144.44,-543.36C214.42,-537.45 397.55,-519.07 447,-485.25 455.92,-479.15 463.62,-470.27 469.7,-461.67"/>
<polygon fill="black" stroke="black" points="472.5,-463.79 475.04,-453.5 466.64,-459.96 472.5,-463.79"/>
</g>
<!-- Web -->
<g id="node9" class="node">
<title>Web</title>
<g id="a_node9"><a xlink:href="../../experts/40_experts.svg" xlink:title="Web">
<polygon fill="#e8f5e9" stroke="#388e3c" points="586,-452 532,-452 532,-416 586,-416 586,-452"/>
<text xml:space="preserve" text-anchor="middle" x="559" y="-430.5" font-family="Arial" font-size="10.00">Web</text>
</a>
</g>
</g>
<!-- Proxy&#45;&gt;Web -->
<g id="edge8" class="edge">
<title>Proxy&#45;&gt;Web</title>
<path fill="none" stroke="black" d="M144.45,-544.47C225.28,-540.96 460.69,-527.3 523,-485.25 531.7,-479.38 539,-470.67 544.71,-462.14"/>
<polygon fill="black" stroke="black" points="547.65,-464.04 549.87,-453.68 541.67,-460.39 547.65,-464.04"/>
</g>
<!-- SVG -->
<g id="node10" class="node">
<title>SVG</title>
<g id="a_node10"><a xlink:href="../../experts/40_experts.svg" xlink:title="SVG">
<polygon fill="#e8f5e9" stroke="#388e3c" points="658,-452 604,-452 604,-416 658,-416 658,-452"/>
<text xml:space="preserve" text-anchor="middle" x="631" y="-430.5" font-family="Arial" font-size="10.00">SVG</text>
</a>
</g>
</g>
<!-- Proxy&#45;&gt;SVG -->
<g id="edge9" class="edge">
<title>Proxy&#45;&gt;SVG</title>
<path fill="none" stroke="black" d="M144.46,-544.51C207.41,-541.92 366.81,-533.44 498,-510.5 541.88,-502.83 558.28,-510.47 595,-485.25 603.65,-479.31 610.94,-470.58 616.65,-462.06"/>
<polygon fill="black" stroke="black" points="619.58,-463.97 621.82,-453.62 613.61,-460.31 619.58,-463.97"/>
</g>
<!-- Compiler -->
<g id="node11" class="node">
<title>Compiler</title>
<g id="a_node11"><a xlink:href="../../validation/50_validation.svg" xlink:title="Compiler">
<polygon fill="#f3e5f5" stroke="#7b1fa2" points="739.5,-452 684.5,-452 684.5,-416 739.5,-416 739.5,-452"/>
<text xml:space="preserve" text-anchor="middle" x="712" y="-430.5" font-family="Arial" font-size="10.00">Compiler</text>
</a>
</g>
</g>
<!-- Proxy&#45;&gt;Compiler -->
<g id="edge10" class="edge">
<title>Proxy&#45;&gt;Compiler</title>
<path fill="none" stroke="black" d="M144.44,-544.56C213.42,-541.92 399.55,-533.12 553,-510.5 605.63,-502.74 624.47,-512.76 670,-485.25 679.86,-479.29 688.5,-470.17 695.33,-461.33"/>
<polygon fill="black" stroke="black" points="698.15,-463.41 701.13,-453.24 692.46,-459.33 698.15,-463.41"/>
<text xml:space="preserve" text-anchor="middle" x="680.91" y="-497.2" font-family="Times,serif" font-size="14.00">soumet</text>
</g>
<!-- Tests -->
<g id="node12" class="node">
<title>Tests</title>
<g id="a_node12"><a xlink:href="../../validation/50_validation.svg" xlink:title="Tests">
<polygon fill="#f3e5f5" stroke="#7b1fa2" points="740,-344 686,-344 686,-308 740,-308 740,-344"/>
<text xml:space="preserve" text-anchor="middle" x="713" y="-322.5" font-family="Arial" font-size="10.00">Tests</text>
</a>
</g>
</g>
<!-- Compiler&#45;&gt;Tests -->
<g id="edge11" class="edge">
<title>Compiler&#45;&gt;Tests</title>
<path fill="none" stroke="black" d="M712.16,-415.97C712.31,-399.76 712.55,-375.06 712.73,-355.79"/>
<polygon fill="black" stroke="black" points="716.23,-355.89 712.82,-345.85 709.23,-355.82 716.23,-355.89"/>
</g>
<!-- Validator -->
<g id="node13" class="node">
<title>Validator</title>
<g id="a_node13"><a xlink:href="../../validation/50_validation.svg" xlink:title="Validator">
<polygon fill="#f3e5f5" stroke="#7b1fa2" points="741,-271 687,-271 687,-235 741,-235 741,-271"/>
<text xml:space="preserve" text-anchor="middle" x="714" y="-249.5" font-family="Arial" font-size="10.00">Validator</text>
</a>
</g>
</g>
<!-- Tests&#45;&gt;Validator -->
<g id="edge12" class="edge">
<title>Tests&#45;&gt;Validator</title>
<path fill="none" stroke="black" d="M713.24,-307.81C713.35,-300.23 713.48,-291.1 713.6,-282.54"/>
<polygon fill="black" stroke="black" points="717.1,-282.59 713.74,-272.54 710.1,-282.49 717.1,-282.59"/>
</g>
<!-- Confidence -->
<g id="node14" class="node">
<title>Confidence</title>
<g id="a_node14"><a xlink:href="../../validation/50_validation.svg" xlink:title="Confidence">
<polygon fill="#f3e5f5" stroke="#7b1fa2" points="747.75,-198 682.25,-198 682.25,-162 747.75,-162 747.75,-198"/>
<text xml:space="preserve" text-anchor="middle" x="715" y="-176.5" font-family="Arial" font-size="10.00">Confidence</text>
</a>
</g>
</g>
<!-- Validator&#45;&gt;Confidence -->
<g id="edge13" class="edge">
<title>Validator&#45;&gt;Confidence</title>
<path fill="none" stroke="black" d="M714.24,-234.81C714.35,-227.23 714.48,-218.1 714.6,-209.54"/>
<polygon fill="black" stroke="black" points="718.1,-209.59 714.74,-199.54 711.1,-209.49 718.1,-209.59"/>
</g>
<!-- Conflict -->
<g id="node15" class="node">
<title>Conflict</title>
<g id="a_node15"><a xlink:href="../../validation/50_validation.svg" xlink:title="Conflict">
<polygon fill="#f3e5f5" stroke="#7b1fa2" points="742,-125 688,-125 688,-89 742,-89 742,-125"/>
<text xml:space="preserve" text-anchor="middle" x="715" y="-103.5" font-family="Arial" font-size="10.00">Conflict</text>
</a>
</g>
</g>
<!-- Confidence&#45;&gt;Conflict -->
<g id="edge14" class="edge">
<title>Confidence&#45;&gt;Conflict</title>
<path fill="none" stroke="black" d="M715,-161.81C715,-154.23 715,-145.1 715,-136.54"/>
<polygon fill="black" stroke="black" points="718.5,-136.54 715,-126.54 711.5,-136.54 718.5,-136.54"/>
</g>
<!-- Version -->
<g id="node16" class="node">
<title>Version</title>
<g id="a_node16"><a xlink:href="../../validation/50_validation.svg" xlink:title="Version">
<polygon fill="#f3e5f5" stroke="#7b1fa2" points="742,-52 688,-52 688,-16 742,-16 742,-52"/>
<text xml:space="preserve" text-anchor="middle" x="715" y="-30.5" font-family="Arial" font-size="10.00">Version</text>
</a>
</g>
</g>
<!-- Conflict&#45;&gt;Version -->
<g id="edge15" class="edge">
<title>Conflict&#45;&gt;Version</title>
<path fill="none" stroke="black" d="M715,-88.81C715,-81.23 715,-72.1 715,-63.54"/>
<polygon fill="black" stroke="black" points="718.5,-63.54 715,-53.54 711.5,-63.54 718.5,-63.54"/>
</g>
<!-- GET -->
<g id="node17" class="node">
<title>GET</title>
<g id="a_node17"><a xlink:href="../../context/20_context.svg" xlink:title="GET">
<polygon fill="#fff3e0" stroke="#ef6c00" points="214,-653.75 160,-653.75 160,-617.75 214,-617.75 214,-653.75"/>
<text xml:space="preserve" text-anchor="middle" x="187" y="-632.25" font-family="Arial" font-size="10.00">GET</text>
</a>
</g>
</g>
<!-- GET&#45;&gt;Proxy -->
<g id="edge16" class="edge">
<title>GET&#45;&gt;Proxy</title>
<path fill="none" stroke="black" d="M177.18,-617.62C170.83,-607.08 162.07,-593.53 153,-582.5 150.35,-579.28 147.44,-576.04 144.45,-572.91"/>
<polygon fill="black" stroke="black" points="147.1,-570.61 137.56,-565.99 142.14,-575.55 147.1,-570.61"/>
<text xml:space="preserve" text-anchor="middle" x="197.13" y="-586.45" font-family="Times,serif" font-size="14.00">context()</text>
</g>
<!-- Nav_Scheduler -->
<g id="node18" class="node">
<title>Nav_Scheduler</title>
<g id="a_node18"><a xlink:href="../10_scheduler.svg" xlink:title="Scheduler">
<polygon fill="lightgrey" stroke="none" points="828.75,-398 769.25,-398 769.25,-362 828.75,-362 828.75,-398"/>
<text xml:space="preserve" text-anchor="middle" x="799" y="-376.5" font-family="Arial" font-size="10.00">Scheduler</text>
</a>
</g>
</g>
<!-- Nav_Context -->
<g id="node19" class="node">
<title>Nav_Context</title>
<g id="a_node19"><a xlink:href="../../context/20_context.svg" xlink:title="Context">
<polygon fill="lightgrey" stroke="none" points="888,-398 834,-398 834,-362 888,-362 888,-398"/>
<text xml:space="preserve" text-anchor="middle" x="861" y="-376.5" font-family="Arial" font-size="10.00">Context</text>
</a>
</g>
</g>
</g>
</svg>
