<?xml version="1.0" encoding="UTF-8" standalone="no"?>
<!DOCTYPE svg PUBLIC "-//W3C//DTD SVG 1.1//EN"
 "http://www.w3.org/Graphics/SVG/1.1/DTD/svg11.dtd">
<!-- Generated by graphviz version 14.1.3 (20260303.0454)
 -->
<!-- Title: ComponentProxyLegacy Pages: 1 -->
<svg width="372pt" height="85pt"
 viewBox="0.00 0.00 372.00 85.00" xmlns="http://www.w3.org/2000/svg" xmlns:xlink="http://www.w3.org/1999/xlink">
<g id="graph0" class="graph" transform="scale(1 1) rotate(0) translate(4 81)">
<title>ComponentProxyLegacy</title>
<polygon fill="white" stroke="none" points="-4,4 -4,-81 367.75,-81 367.75,4 -4,4"/>
<!-- Scheduler -->
<g id="node1" class="node">
<title>Scheduler</title>
<g id="a_node1"><a xlink:href="10_scheduler.svg" xlink:title="Scheduler">
<path fill="#ede7f6" stroke="#512da8" d="M47.5,-36C47.5,-36 12,-36 12,-36 6,-36 0,-30 0,-24 0,-24 0,-12 0,-12 0,-6 6,0 12,0 12,0 47.5,0 47.5,0 53.5,0 59.5,-6 59.5,-12 59.5,-12 59.5,-24 59.5,-24 59.5,-30 53.5,-36 47.5,-36"/>
<text xml:space="preserve" text-anchor="middle" x="29.75" y="-14.5" font-family="Arial" font-size="10.00">Scheduler</text>
</a>
</g>
</g>
<!-- ComponentProxyDetail -->
<g id="node2" class="node">
<title>ComponentProxyDetail</title>
<g id="a_node2"><a xlink:href="component_proxy/14_component_proxy.svg" xlink:title="ComponentProxy\nview detail">
<path fill="#ede7f6" stroke="#512da8" d="M210.5,-36C210.5,-36 142.75,-36 142.75,-36 136.75,-36 130.75,-30 130.75,-24 130.75,-24 130.75,-12 130.75,-12 130.75,-6 136.75,0 142.75,0 142.75,0 210.5,0 210.5,0 216.5,0 222.5,-6 222.5,-12 222.5,-12 222.5,-24 222.5,-24 222.5,-30 216.5,-36 210.5,-36"/>
<text xml:space="preserve" text-anchor="middle" x="176.62" y="-20.5" font-family="Arial" font-size="10.00">ComponentProxy</text>
<text xml:space="preserve" text-anchor="middle" x="176.62" y="-8.5" font-family="Arial" font-size="10.00">view detail</text>
</a>
</g>
</g>
<!-- Scheduler&#45;&gt;ComponentProxyDetail -->
<g id="edge1" class="edge">
<title>Scheduler&#45;&gt;ComponentProxyDetail</title>
<path fill="none" stroke="black" d="M59.72,-18C76.71,-18 98.76,-18 119.07,-18"/>
<polygon fill="black" stroke="black" points="118.93,-21.5 128.93,-18 118.93,-14.5 118.93,-21.5"/>
<text xml:space="preserve" text-anchor="middle" x="95.12" y="-19.95" font-family="Arial" font-size="9.00">descend</text>
</g>
<!-- Nav_Scheduler -->
<g id="node3" class="node">
<title>Nav_Scheduler</title>
<g id="a_node3"><a xlink:href="10_scheduler.svg" xlink:title="Up: Scheduler">
<path fill="lightgrey" stroke="none" d="M329.25,-36C329.25,-36 275,-36 275,-36 269,-36 263,-30 263,-24 263,-24 263,-12 263,-12 263,-6 269,0 275,0 275,0 329.25,0 329.25,0 335.25,0 341.25,-6 341.25,-12 341.25,-12 341.25,-24 341.25,-24 341.25,-30 335.25,-36 329.25,-36"/>
<text xml:space="preserve" text-anchor="middle" x="302.12" y="-14.5" font-family="Arial" font-size="10.00">Up: Scheduler</text>
</a>
</g>
</g>
<!-- Nav_Detail -->
<g id="node4" class="node">
<title>Nav_Detail</title>
<g id="a_node4"><a xlink:href="component_proxy/14_component_proxy.svg" xlink:title="Detail: ComponentProxy">
<path fill="lightgrey" stroke="none" d="M351.75,-77C351.75,-77 252.5,-77 252.5,-77 246.5,-77 240.5,-71 240.5,-65 240.5,-65 240.5,-53 240.5,-53 240.5,-47 246.5,-41 252.5,-41 252.5,-41 351.75,-41 351.75,-41 357.75,-41 363.75,-47 363.75,-53 363.75,-53 363.75,-65 363.75,-65 363.75,-71 357.75,-77 351.75,-77"/>
<text xml:space="preserve" text-anchor="middle" x="302.12" y="-55.5" font-family="Arial" font-size="10.00">Detail: ComponentProxy</text>
</a>
</g>
</g>
</g>
</svg>
