<?xml version="1.0" encoding="UTF-8" standalone="no"?>
<!DOCTYPE svg PUBLIC "-//W3C//DTD SVG 1.1//EN"
 "http://www.w3.org/Graphics/SVG/1.1/DTD/svg11.dtd">
<!-- Generated by graphviz version 14.1.3 (20260303.0454)
 -->
<!-- Title: Observability Pages: 1 -->
<svg width="262pt" height="314pt"
 viewBox="0.00 0.00 262.00 314.00" xmlns="http://www.w3.org/2000/svg" xmlns:xlink="http://www.w3.org/1999/xlink">
<g id="graph0" class="graph" transform="scale(1 1) rotate(0) translate(4 310)">
<title>Observability</title>
<polygon fill="white" stroke="none" points="-4,4 -4,-310 258.25,-310 258.25,4 -4,4"/>
<!-- EventBus -->
<g id="node1" class="node">
<title>EventBus</title>
<g id="a_node1"><a xlink:href="../scheduler/10_scheduler.svg" xlink:title="EventBus">
<path fill="#ede7f6" stroke="#512da8" d="M47.12,-117C47.12,-117 12.38,-117 12.38,-117 6.38,-117 0.38,-111 0.38,-105 0.38,-105 0.38,-93 0.38,-93 0.38,-87 6.38,-81 12.38,-81 12.38,-81 47.12,-81 47.12,-81 53.12,-81 59.12,-87 59.12,-93 59.12,-93 59.12,-105 59.12,-105 59.12,-111 53.12,-117 47.12,-117"/>
<text xml:space="preserve" text-anchor="middle" x="29.75" y="-95.5" font-family="Arial" font-size="10.00">EventBus</text>
</a>
</g>
</g>
<!-- Logger -->
<g id="node2" class="node">
<title>Logger</title>
<path fill="#f5f5f5" stroke="#666666" d="M140.25,-198C140.25,-198 110.25,-198 110.25,-198 104.25,-198 98.25,-192 98.25,-186 98.25,-186 98.25,-174 98.25,-174 98.25,-168 104.25,-162 110.25,-162 110.25,-162 140.25,-162 140.25,-162 146.25,-162 152.25,-168 152.25,-174 152.25,-174 152.25,-186 152.25,-186 152.25,-192 146.25,-198 140.25,-198"/>
<text xml:space="preserve" text-anchor="middle" x="125.25" y="-176.5" font-family="Arial" font-size="10.00">Logger</text>
</g>
<!-- EventBus&#45;&gt;Logger -->
<g id="edge1" class="edge">
<title>EventBus&#45;&gt;Logger</title>
<path fill="none" stroke="black" d="M51.97,-117.38C64.52,-128.25 80.61,-142.2 94.43,-154.17"/>
<polygon fill="black" stroke="black" points="92.12,-156.8 101.97,-160.7 96.71,-151.51 92.12,-156.8"/>
</g>
<!-- Metrics -->
<g id="node3" class="node">
<title>Metrics</title>
<path fill="#f5f5f5" stroke="#666666" d="M140.25,-144C140.25,-144 110.25,-144 110.25,-144 104.25,-144 98.25,-138 98.25,-132 98.25,-132 98.25,-120 98.25,-120 98.25,-114 104.25,-108 110.25,-108 110.25,-108 140.25,-108 140.25,-108 146.25,-108 152.25,-114 152.25,-120 152.25,-120 152.25,-132 152.25,-132 152.25,-138 146.25,-144 140.25,-144"/>
<text xml:space="preserve" text-anchor="middle" x="125.25" y="-122.5" font-family="Arial" font-size="10.00">Metrics</text>
</g>
<!-- EventBus&#45;&gt;Metrics -->
<g id="edge2" class="edge">
<title>EventBus&#45;&gt;Metrics</title>
<path fill="none" stroke="black" d="M59.57,-107.32C68.26,-109.83 77.94,-112.63 87.1,-115.27"/>
<polygon fill="black" stroke="black" points="85.88,-118.56 96.46,-117.98 87.82,-111.84 85.88,-118.56"/>
</g>
<!-- Replay -->
<g id="node4" class="node">
<title>Replay</title>
<path fill="#f5f5f5" stroke="#666666" d="M140.25,-90C140.25,-90 110.25,-90 110.25,-90 104.25,-90 98.25,-84 98.25,-78 98.25,-78 98.25,-66 98.25,-66 98.25,-60 104.25,-54 110.25,-54 110.25,-54 140.25,-54 140.25,-54 146.25,-54 152.25,-60 152.25,-66 152.25,-66 152.25,-78 152.25,-78 152.25,-84 146.25,-90 140.25,-90"/>
<text xml:space="preserve" text-anchor="middle" x="125.25" y="-68.5" font-family="Arial" font-size="10.00">Replay</text>
</g>
<!-- EventBus&#45;&gt;Replay -->
<g id="edge3" class="edge">
<title>EventBus&#45;&gt;Replay</title>
<path fill="none" stroke="black" d="M59.57,-90.68C68.26,-88.17 77.94,-85.37 87.1,-82.73"/>
<polygon fill="black" stroke="black" points="87.82,-86.16 96.46,-80.02 85.88,-79.44 87.82,-86.16"/>
</g>
<!-- Tracer -->
<g id="node7" class="node">
<title>Tracer</title>
<path fill="#f5f5f5" stroke="#666666" d="M140.25,-36C140.25,-36 110.25,-36 110.25,-36 104.25,-36 98.25,-30 98.25,-24 98.25,-24 98.25,-12 98.25,-12 98.25,-6 104.25,0 110.25,0 110.25,0 140.25,0 140.25,0 146.25,0 152.25,-6 152.25,-12 152.25,-12 152.25,-24 152.25,-24 152.25,-30 146.25,-36 140.25,-36"/>
<text xml:space="preserve" text-anchor="middle" x="125.25" y="-14.5" font-family="Arial" font-size="10.00">Tracer</text>
</g>
<!-- EventBus&#45;&gt;Tracer -->
<g id="edge5" class="edge">
<title>EventBus&#45;&gt;Tracer</title>
<path fill="none" stroke="black" d="M51.97,-80.62C64.52,-69.75 80.61,-55.8 94.43,-43.83"/>
<polygon fill="black" stroke="black" points="96.71,-46.49 101.97,-37.3 92.12,-41.2 96.71,-46.49"/>
</g>
<!-- Dashboard -->
<g id="node5" class="node">
<title>Dashboard</title>
<path fill="#f5f5f5" stroke="#666666" d="M242.25,-144C242.25,-144 203,-144 203,-144 197,-144 191,-138 191,-132 191,-132 191,-120 191,-120 191,-114 197,-108 203,-108 203,-108 242.25,-108 242.25,-108 248.25,-108 254.25,-114 254.25,-120 254.25,-120 254.25,-132 254.25,-132 254.25,-138 248.25,-144 242.25,-144"/>
<text xml:space="preserve" text-anchor="middle" x="222.62" y="-122.5" font-family="Arial" font-size="10.00">Dashboard</text>
</g>
<!-- Metrics&#45;&gt;Dashboard -->
<g id="edge4" class="edge">
<title>Metrics&#45;&gt;Dashboard</title>
<path fill="none" stroke="black" d="M152.56,-126C160.86,-126 170.25,-126 179.36,-126"/>
<polygon fill="black" stroke="black" points="179.15,-129.5 189.15,-126 179.15,-122.5 179.15,-129.5"/>
</g>
<!-- Watchdog -->
<g id="node6" class="node">
<title>Watchdog</title>
<path fill="#f5f5f5" stroke="#666666" d="M47.5,-252C47.5,-252 12,-252 12,-252 6,-252 0,-246 0,-240 0,-240 0,-228 0,-228 0,-222 6,-216 12,-216 12,-216 47.5,-216 47.5,-216 53.5,-216 59.5,-222 59.5,-228 59.5,-228 59.5,-240 59.5,-240 59.5,-246 53.5,-252 47.5,-252"/>
<text xml:space="preserve" text-anchor="middle" x="29.75" y="-230.5" font-family="Arial" font-size="10.00">Watchdog</text>
</g>
<!-- Scheduler -->
<g id="node8" class="node">
<title>Scheduler</title>
<g id="a_node8"><a xlink:href="../scheduler/10_scheduler.svg" xlink:title="Scheduler">
<path fill="#ede7f6" stroke="#512da8" d="M143,-252C143,-252 107.5,-252 107.5,-252 101.5,-252 95.5,-246 95.5,-240 95.5,-240 95.5,-228 95.5,-228 95.5,-222 101.5,-216 107.5,-216 107.5,-216 143,-216 143,-216 149,-216 155,-222 155,-228 155,-228 155,-240 155,-240 155,-246 149,-252 143,-252"/>
<text xml:space="preserve" text-anchor="middle" x="125.25" y="-230.5" font-family="Arial" font-size="10.00">Scheduler</text>
</a>
</g>
</g>
<!-- Watchdog&#45;&gt;Scheduler -->
<g id="edge6" class="edge">
<title>Watchdog&#45;&gt;Scheduler</title>
<path fill="none" stroke="black" stroke-dasharray="5,2" d="M59.82,-234C67.39,-234 75.67,-234 83.71,-234"/>
<polygon fill="black" stroke="black" points="83.68,-237.5 93.68,-234 83.68,-230.5 83.68,-237.5"/>
</g>
<!-- Nav_Global -->
<g id="node9" class="node">
<title>Nav_Global</title>
<g id="a_node9"><a xlink:href="../00_global.svg" xlink:title="Global">
<path fill="lightgrey" stroke="none" d="M44.75,-306C44.75,-306 14.75,-306 14.75,-306 8.75,-306 2.75,-300 2.75,-294 2.75,-294 2.75,-282 2.75,-282 2.75,-276 8.75,-270 14.75,-270 14.75,-270 44.75,-270 44.75,-270 50.75,-270 56.75,-276 56.75,-282 56.75,-282 56.75,-294 56.75,-294 56.75,-300 50.75,-306 44.75,-306"/>
<text xml:space="preserve" text-anchor="middle" x="29.75" y="-284.5" font-family="Arial" font-size="10.00">Global</text>
</a>
</g>
</g>
</g>
</svg>
