<?xml version="1.0" encoding="UTF-8" standalone="no"?>
<!DOCTYPE svg PUBLIC "-//W3C//DTD SVG 1.1//EN"
 "http://www.w3.org/Graphics/SVG/1.1/DTD/svg11.dtd">
<!-- Generated by graphviz version 14.1.3 (20260303.0454)
 -->
<!-- Title: Observability Pages: 1 -->
<svg width="2703pt" height="520pt"
 viewBox="0.00 0.00 2703.00 520.00" xmlns="http://www.w3.org/2000/svg" xmlns:xlink="http://www.w3.org/1999/xlink">
<g id="graph0" class="graph" transform="scale(1 1) rotate(0) translate(4 516)">
<title>Observability</title>
<polygon fill="white" stroke="none" points="-4,4 -4,-516 2699,-516 2699,4 -4,4"/>
<!-- EventBus -->
<g id="node1" class="node">
<title>EventBus</title>
<g id="a_node1"><a xlink:href="../scheduler/event_bus/12_event_bus.svg" xlink:title="EventBus">
<path fill="#ede7f6" stroke="#512da8" d="M67.38,-355C67.38,-355 32.62,-355 32.62,-355 26.63,-355 20.62,-349 20.62,-343 20.62,-343 20.62,-331 20.62,-331 20.62,-325 26.62,-319 32.62,-319 32.62,-319 67.38,-319 67.38,-319 73.38,-319 79.38,-325 79.38,-331 79.38,-331 79.38,-343 79.38,-343 79.38,-349 73.38,-355 67.38,-355"/>
<text xml:space="preserve" text-anchor="middle" x="50" y="-333.5" font-family="Arial" font-size="10.00">EventBus</text>
</a>
</g>
</g>
<!-- EventRecorder -->
<g id="node6" class="node">
<title>EventRecorder</title>
<path fill="#f5f5f5" stroke="#666666" d="M245,-436C245,-436 187.75,-436 187.75,-436 181.75,-436 175.75,-430 175.75,-424 175.75,-424 175.75,-412 175.75,-412 175.75,-406 181.75,-400 187.75,-400 187.75,-400 245,-400 245,-400 251,-400 257,-406 257,-412 257,-412 257,-424 257,-424 257,-430 251,-436 245,-436"/>
<text xml:space="preserve" text-anchor="middle" x="216.38" y="-420.5" font-family="Arial" font-size="10.00">EventRecorder</text>
<text xml:space="preserve" text-anchor="middle" x="216.38" y="-408.5" font-family="Arial" font-size="10.00">current</text>
</g>
<!-- EventBus&#45;&gt;EventRecorder -->
<g id="edge10" class="edge">
<title>EventBus&#45;&gt;EventRecorder</title>
<path fill="none" stroke="black" d="M79.63,-351.11C103.96,-363.1 139.38,-380.55 167.94,-394.63"/>
<polygon fill="black" stroke="black" points="166.25,-397.69 176.76,-398.97 169.34,-391.41 166.25,-397.69"/>
<text xml:space="preserve" text-anchor="middle" x="137.88" y="-391.44" font-family="Arial" font-size="9.00">subscribe</text>
</g>
<!-- Logger -->
<g id="node22" class="node">
<title>Logger</title>
<path fill="#f5f5f5" stroke="#666666" d="M231.38,-382C231.38,-382 201.38,-382 201.38,-382 195.38,-382 189.38,-376 189.38,-370 189.38,-370 189.38,-358 189.38,-358 189.38,-352 195.38,-346 201.38,-346 201.38,-346 231.38,-346 231.38,-346 237.38,-346 243.38,-352 243.38,-358 243.38,-358 243.38,-370 243.38,-370 243.38,-376 237.38,-382 231.38,-382"/>
<text xml:space="preserve" text-anchor="middle" x="216.38" y="-360.5" font-family="Arial" font-size="10.00">Logger</text>
</g>
<!-- EventBus&#45;&gt;Logger -->
<g id="edge8" class="edge">
<title>EventBus&#45;&gt;Logger</title>
<path fill="none" stroke="black" d="M79.63,-341.7C106.83,-346.17 147.9,-352.92 177.74,-357.82"/>
<polygon fill="black" stroke="black" points="177.04,-361.25 187.48,-359.42 178.18,-354.34 177.04,-361.25"/>
</g>
<!-- Metrics -->
<g id="node23" class="node">
<title>Metrics</title>
<path fill="#f5f5f5" stroke="#666666" d="M231.38,-274C231.38,-274 201.38,-274 201.38,-274 195.38,-274 189.38,-268 189.38,-262 189.38,-262 189.38,-250 189.38,-250 189.38,-244 195.38,-238 201.38,-238 201.38,-238 231.38,-238 231.38,-238 237.38,-238 243.38,-244 243.38,-250 243.38,-250 243.38,-262 243.38,-262 243.38,-268 237.38,-274 231.38,-274"/>
<text xml:space="preserve" text-anchor="middle" x="216.38" y="-252.5" font-family="Arial" font-size="10.00">Metrics</text>
</g>
<!-- EventBus&#45;&gt;Metrics -->
<g id="edge9" class="edge">
<title>EventBus&#45;&gt;Metrics</title>
<path fill="none" stroke="black" d="M79.63,-322.89C107.2,-309.31 148.99,-288.71 178.92,-273.96"/>
<polygon fill="black" stroke="black" points="180.19,-277.24 187.61,-269.68 177.1,-270.96 180.19,-277.24"/>
</g>
<!-- Tracer -->
<g id="node27" class="node">
<title>Tracer</title>
<path fill="#f5f5f5" stroke="#666666" d="M231.38,-328C231.38,-328 201.38,-328 201.38,-328 195.38,-328 189.38,-322 189.38,-316 189.38,-316 189.38,-304 189.38,-304 189.38,-298 195.38,-292 201.38,-292 201.38,-292 231.38,-292 231.38,-292 237.38,-292 243.38,-298 243.38,-304 243.38,-304 243.38,-316 243.38,-316 243.38,-322 237.38,-328 231.38,-328"/>
<text xml:space="preserve" text-anchor="middle" x="216.38" y="-306.5" font-family="Arial" font-size="10.00">Tracer</text>
</g>
<!-- EventBus&#45;&gt;Tracer -->
<g id="edge30" class="edge">
<title>EventBus&#45;&gt;Tracer</title>
<path fill="none" stroke="black" d="M79.63,-332.3C106.83,-327.83 147.9,-321.08 177.74,-316.18"/>
<polygon fill="black" stroke="black" points="178.18,-319.66 187.48,-314.58 177.04,-312.75 178.18,-319.66"/>
</g>
<!-- Scheduler -->
<g id="node2" class="node">
<title>Scheduler</title>
<g id="a_node2"><a xlink:href="../scheduler/10_scheduler.svg" xlink:title="Scheduler">
<path fill="#ede7f6" stroke="#512da8" d="M403.5,-144C403.5,-144 368,-144 368,-144 362,-144 356,-138 356,-132 356,-132 356,-120 356,-120 356,-114 362,-108 368,-108 368,-108 403.5,-108 403.5,-108 409.5,-108 415.5,-114 415.5,-120 415.5,-120 415.5,-132 415.5,-132 415.5,-138 409.5,-144 403.5,-144"/>
<text xml:space="preserve" text-anchor="middle" x="385.75" y="-122.5" font-family="Arial" font-size="10.00">Scheduler</text>
</a>
</g>
</g>
<!-- KernelTelemetry -->
<g id="node5" class="node">
<title>KernelTelemetry</title>
<path fill="#f5f5f5" stroke="#666666" d="M652.75,-107C652.75,-107 590.25,-107 590.25,-107 584.25,-107 578.25,-101 578.25,-95 578.25,-95 578.25,-83 578.25,-83 578.25,-77 584.25,-71 590.25,-71 590.25,-71 652.75,-71 652.75,-71 658.75,-71 664.75,-77 664.75,-83 664.75,-83 664.75,-95 664.75,-95 664.75,-101 658.75,-107 652.75,-107"/>
<text xml:space="preserve" text-anchor="middle" x="621.5" y="-91.5" font-family="Arial" font-size="10.00">KernelTelemetry</text>
<text xml:space="preserve" text-anchor="middle" x="621.5" y="-79.5" font-family="Arial" font-size="10.00">current</text>
</g>
<!-- Scheduler&#45;&gt;KernelTelemetry -->
<g id="edge1" class="edge">
<title>Scheduler&#45;&gt;KernelTelemetry</title>
<path fill="none" stroke="black" stroke-dasharray="5,2" d="M415.88,-121.39C453.53,-115.43 519.81,-104.94 566.72,-97.51"/>
<polygon fill="black" stroke="black" points="567.08,-101 576.41,-95.98 565.98,-94.09 567.08,-101"/>
<text xml:space="preserve" text-anchor="middle" x="506.62" y="-117.02" font-family="Arial" font-size="9.00">enqueue/dequeue/latency</text>
</g>
<!-- PolicyEngine -->
<g id="node3" class="node">
<title>PolicyEngine</title>
<g id="a_node3"><a xlink:href="../scheduler/10_scheduler.svg" xlink:title="PolicyEngine">
<path fill="#ede7f6" stroke="#512da8" d="M410.25,-90C410.25,-90 361.25,-90 361.25,-90 355.25,-90 349.25,-84 349.25,-78 349.25,-78 349.25,-66 349.25,-66 349.25,-60 355.25,-54 361.25,-54 361.25,-54 410.25,-54 410.25,-54 416.25,-54 422.25,-60 422.25,-66 422.25,-66 422.25,-78 422.25,-78 422.25,-84 416.25,-90 410.25,-90"/>
<text xml:space="preserve" text-anchor="middle" x="385.75" y="-68.5" font-family="Arial" font-size="10.00">PolicyEngine</text>
</a>
</g>
</g>
<!-- PolicyEngine&#45;&gt;KernelTelemetry -->
<g id="edge2" class="edge">
<title>PolicyEngine&#45;&gt;KernelTelemetry</title>
<path fill="none" stroke="black" stroke-dasharray="5,2" d="M422.66,-74.12C457.76,-76.25 512.7,-79.75 560.25,-83.5 562.41,-83.67 564.61,-83.85 566.84,-84.03"/>
<polygon fill="black" stroke="black" points="566.28,-87.5 576.54,-84.86 566.88,-80.52 566.28,-87.5"/>
<text xml:space="preserve" text-anchor="middle" x="506.62" y="-85.45" font-family="Arial" font-size="9.00">denied</text>
</g>
<!-- ContextEngine -->
<g id="node4" class="node">
<title>ContextEngine</title>
<g id="a_node4"><a xlink:href="../context/20_context.svg" xlink:title="ContextEngine">
<path fill="#fff3e0" stroke="#ef6c00" d="M414,-36C414,-36 357.5,-36 357.5,-36 351.5,-36 345.5,-30 345.5,-24 345.5,-24 345.5,-12 345.5,-12 345.5,-6 351.5,0 357.5,0 357.5,0 414,0 414,0 420,0 426,-6 426,-12 426,-12 426,-24 426,-24 426,-30 420,-36 414,-36"/>
<text xml:space="preserve" text-anchor="middle" x="385.75" y="-14.5" font-family="Arial" font-size="10.00">ContextEngine</text>
</a>
</g>
</g>
<!-- ContextEngine&#45;&gt;KernelTelemetry -->
<g id="edge3" class="edge">
<title>ContextEngine&#45;&gt;KernelTelemetry</title>
<path fill="none" stroke="black" stroke-dasharray="5,2" d="M426.28,-25.76C461.85,-33.24 515.26,-45.74 560.25,-61.5 564.34,-62.93 568.54,-64.54 572.72,-66.24"/>
<polygon fill="black" stroke="black" points="571.04,-69.33 581.61,-70.02 573.78,-62.89 571.04,-69.33"/>
<text xml:space="preserve" text-anchor="middle" x="506.62" y="-63.45" font-family="Arial" font-size="9.00">context tick</text>
</g>
<!-- Snapshot -->
<g id="node21" class="node">
<title>Snapshot</title>
<path fill="#eceff1" stroke="#455a64" d="M88,-209C88,-209 12,-209 12,-209 6,-209 0,-203 0,-197 0,-197 0,-185 0,-185 0,-179 6,-173 12,-173 12,-173 88,-173 88,-173 94,-173 100,-179 100,-185 100,-185 100,-197 100,-197 100,-203 94,-209 88,-209"/>
<text xml:space="preserve" text-anchor="middle" x="50" y="-193.5" font-family="Arial" font-size="10.00">TelemetrySnapshot</text>
<text xml:space="preserve" text-anchor="middle" x="50" y="-181.5" font-family="Arial" font-size="10.00">immutable</text>
</g>
<!-- KernelTelemetry&#45;&gt;Snapshot -->
<g id="edge4" class="edge">
<title>KernelTelemetry&#45;&gt;Snapshot</title>
<path fill="none" stroke="black" d="M598.33,-107.37C587.47,-115.49 573.83,-124.43 560.25,-130 407.88,-192.56 209.82,-196.56 111.65,-193.96"/>
<polygon fill="black" stroke="black" points="111.8,-190.47 101.7,-193.66 111.59,-197.46 111.8,-190.47"/>
<text xml:space="preserve" text-anchor="middle" x="296.75" y="-191.65" font-family="Arial" font-size="9.00">snapshot()</text>
</g>
<!-- EventLog -->
<g id="node7" class="node">
<title>EventLog</title>
<path fill="#eceff1" stroke="#455a64" d="M423,-436C423,-436 348.5,-436 348.5,-436 342.5,-436 336.5,-430 336.5,-424 336.5,-424 336.5,-412 336.5,-412 336.5,-406 342.5,-400 348.5,-400 348.5,-400 423,-400 423,-400 429,-400 435,-406 435,-412 435,-412 435,-424 435,-424 435,-430 429,-436 423,-436"/>
<text xml:space="preserve" text-anchor="middle" x="385.75" y="-420.5" font-family="Arial" font-size="10.00">EventLogSnapshot</text>
<text xml:space="preserve" text-anchor="middle" x="385.75" y="-408.5" font-family="Arial" font-size="10.00">immutable</text>
</g>
<!-- EventRecorder&#45;&gt;EventLog -->
<g id="edge11" class="edge">
<title>EventRecorder&#45;&gt;EventLog</title>
<path fill="none" stroke="black" d="M257.47,-418C277.56,-418 302.31,-418 324.62,-418"/>
<polygon fill="black" stroke="black" points="324.52,-421.5 334.52,-418 324.52,-414.5 324.52,-421.5"/>
<text xml:space="preserve" text-anchor="middle" x="296.75" y="-419.95" font-family="Arial" font-size="9.00">snapshot()</text>
</g>
<!-- ReplayReader -->
<g id="node8" class="node">
<title>ReplayReader</title>
<path fill="#f5f5f5" stroke="#666666" d="M648.62,-436C648.62,-436 594.38,-436 594.38,-436 588.38,-436 582.38,-430 582.38,-424 582.38,-424 582.38,-412 582.38,-412 582.38,-406 588.38,-400 594.38,-400 594.38,-400 648.62,-400 648.62,-400 654.62,-400 660.62,-406 660.62,-412 660.62,-412 660.62,-424 660.62,-424 660.62,-430 654.62,-436 648.62,-436"/>
<text xml:space="preserve" text-anchor="middle" x="621.5" y="-420.5" font-family="Arial" font-size="10.00">ReplayReader</text>
<text xml:space="preserve" text-anchor="middle" x="621.5" y="-408.5" font-family="Arial" font-size="10.00">current</text>
</g>
<!-- EventLog&#45;&gt;ReplayReader -->
<g id="edge12" class="edge">
<title>EventLog&#45;&gt;ReplayReader</title>
<path fill="none" stroke="black" d="M435.47,-418C475.05,-418 530.65,-418 570.56,-418"/>
<polygon fill="black" stroke="black" points="570.37,-421.5 580.37,-418 570.37,-414.5 570.37,-421.5"/>
<text xml:space="preserve" text-anchor="middle" x="506.62" y="-419.95" font-family="Arial" font-size="9.00">read/filter</text>
</g>
<!-- ReplayPlan -->
<g id="node9" class="node">
<title>ReplayPlan</title>
<path fill="#eceff1" stroke="#455a64" d="M822.5,-436C822.5,-436 780.25,-436 780.25,-436 774.25,-436 768.25,-430 768.25,-424 768.25,-424 768.25,-412 768.25,-412 768.25,-406 774.25,-400 780.25,-400 780.25,-400 822.5,-400 822.5,-400 828.5,-400 834.5,-406 834.5,-412 834.5,-412 834.5,-424 834.5,-424 834.5,-430 828.5,-436 822.5,-436"/>
<text xml:space="preserve" text-anchor="middle" x="801.38" y="-420.5" font-family="Arial" font-size="10.00">ReplayPlan</text>
<text xml:space="preserve" text-anchor="middle" x="801.38" y="-408.5" font-family="Arial" font-size="10.00">controlled</text>
</g>
<!-- ReplayReader&#45;&gt;ReplayPlan -->
<g id="edge13" class="edge">
<title>ReplayReader&#45;&gt;ReplayPlan</title>
<path fill="none" stroke="black" d="M661.1,-418C689.24,-418 727.41,-418 756.68,-418"/>
<polygon fill="black" stroke="black" points="756.3,-421.5 766.3,-418 756.3,-414.5 756.3,-421.5"/>
<text xml:space="preserve" text-anchor="middle" x="716.5" y="-419.95" font-family="Arial" font-size="9.00">to_replay_plan()</text>
</g>
<!-- ReplaySandbox -->
<g id="node10" class="node">
<title>ReplaySandbox</title>
<path fill="#f5f5f5" stroke="#666666" d="M1002.75,-465C1002.75,-465 941.75,-465 941.75,-465 935.75,-465 929.75,-459 929.75,-453 929.75,-453 929.75,-441 929.75,-441 929.75,-435 935.75,-429 941.75,-429 941.75,-429 1002.75,-429 1002.75,-429 1008.75,-429 1014.75,-435 1014.75,-441 1014.75,-441 1014.75,-453 1014.75,-453 1014.75,-459 1008.75,-465 1002.75,-465"/>
<text xml:space="preserve" text-anchor="middle" x="972.25" y="-449.5" font-family="Arial" font-size="10.00">ReplaySandbox</text>
<text xml:space="preserve" text-anchor="middle" x="972.25" y="-437.5" font-family="Arial" font-size="10.00">isolated</text>
</g>
<!-- ReplayPlan&#45;&gt;ReplaySandbox -->
<g id="edge14" class="edge">
<title>ReplayPlan&#45;&gt;ReplaySandbox</title>
<path fill="none" stroke="black" d="M834.94,-423.59C858.5,-427.64 890.87,-433.2 918.15,-437.88"/>
<polygon fill="black" stroke="black" points="917.55,-441.33 928,-439.57 918.74,-434.43 917.55,-441.33"/>
<text xml:space="preserve" text-anchor="middle" x="882.12" y="-437.9" font-family="Arial" font-size="9.00">replay(plan)</text>
</g>
<!-- ReplayScenario -->
<g id="node12" class="node">
<title>ReplayScenario</title>
<path fill="#eceff1" stroke="#455a64" d="M1105.75,-419C1105.75,-419 1044.75,-419 1044.75,-419 1038.75,-419 1032.75,-413 1032.75,-407 1032.75,-407 1032.75,-395 1032.75,-395 1032.75,-389 1038.75,-383 1044.75,-383 1044.75,-383 1105.75,-383 1105.75,-383 1111.75,-383 1117.75,-389 1117.75,-395 1117.75,-395 1117.75,-407 1117.75,-407 1117.75,-413 1111.75,-419 1105.75,-419"/>
<text xml:space="preserve" text-anchor="middle" x="1075.25" y="-403.5" font-family="Arial" font-size="10.00">ReplayScenario</text>
<text xml:space="preserve" text-anchor="middle" x="1075.25" y="-391.5" font-family="Arial" font-size="10.00">controlled</text>
</g>
<!-- ReplayPlan&#45;&gt;ReplayScenario -->
<g id="edge16" class="edge">
<title>ReplayPlan&#45;&gt;ReplayScenario</title>
<path fill="none" stroke="black" d="M834.97,-414.15C840.8,-413.54 846.83,-412.96 852.5,-412.5 910.12,-407.85 976.32,-404.7 1021.28,-402.89"/>
<polygon fill="black" stroke="black" points="1021.15,-406.4 1031,-402.51 1020.87,-399.4 1021.15,-406.4"/>
<text xml:space="preserve" text-anchor="middle" x="882.12" y="-414.45" font-family="Arial" font-size="9.00">scenario(plan)</text>
</g>
<!-- ReplaySandboxResult -->
<g id="node11" class="node">
<title>ReplaySandboxResult</title>
<path fill="#eceff1" stroke="#455a64" d="M1237.25,-512C1237.25,-512 1147.75,-512 1147.75,-512 1141.75,-512 1135.75,-506 1135.75,-500 1135.75,-500 1135.75,-488 1135.75,-488 1135.75,-482 1141.75,-476 1147.75,-476 1147.75,-476 1237.25,-476 1237.25,-476 1243.25,-476 1249.25,-482 1249.25,-488 1249.25,-488 1249.25,-500 1249.25,-500 1249.25,-506 1243.25,-512 1237.25,-512"/>
<text xml:space="preserve" text-anchor="middle" x="1192.5" y="-496.5" font-family="Arial" font-size="10.00">ReplaySandboxResult</text>
<text xml:space="preserve" text-anchor="middle" x="1192.5" y="-484.5" font-family="Arial" font-size="10.00">immutable</text>
</g>
<!-- ReplaySandbox&#45;&gt;ReplaySandboxResult -->
<g id="edge15" class="edge">
<title>ReplaySandbox&#45;&gt;ReplaySandboxResult</title>
<path fill="none" stroke="black" d="M1015.15,-457C1021.06,-458.37 1027.05,-459.74 1032.75,-461 1062.84,-467.67 1096.22,-474.66 1124.58,-480.49"/>
<polygon fill="black" stroke="black" points="1123.61,-483.87 1134.1,-482.45 1125.01,-477.01 1123.61,-483.87"/>
<text xml:space="preserve" text-anchor="middle" x="1075.25" y="-480.45" font-family="Arial" font-size="9.00">result</text>
</g>
<!-- ReplayScenarioRunner -->
<g id="node13" class="node">
<title>ReplayScenarioRunner</title>
<path fill="#f5f5f5" stroke="#666666" d="M1416,-465C1416,-465 1323.5,-465 1323.5,-465 1317.5,-465 1311.5,-459 1311.5,-453 1311.5,-453 1311.5,-441 1311.5,-441 1311.5,-435 1317.5,-429 1323.5,-429 1323.5,-429 1416,-429 1416,-429 1422,-429 1428,-435 1428,-441 1428,-441 1428,-453 1428,-453 1428,-459 1422,-465 1416,-465"/>
<text xml:space="preserve" text-anchor="middle" x="1369.75" y="-449.5" font-family="Arial" font-size="10.00">ReplayScenarioRunner</text>
<text xml:space="preserve" text-anchor="middle" x="1369.75" y="-437.5" font-family="Arial" font-size="10.00">passive</text>
</g>
<!-- ReplaySandboxResult&#45;&gt;ReplayScenarioRunner -->
<g id="edge19" class="edge">
<title>ReplaySandboxResult&#45;&gt;ReplayScenarioRunner</title>
<path fill="none" stroke="black" d="M1249.43,-479C1265.62,-474.66 1283.48,-469.87 1300.33,-465.35"/>
<polygon fill="black" stroke="black" points="1301.03,-468.79 1309.78,-462.82 1299.21,-462.03 1301.03,-468.79"/>
<text xml:space="preserve" text-anchor="middle" x="1280.38" y="-475.26" font-family="Arial" font-size="9.00">collect</text>
</g>
<!-- ReplayScenario&#45;&gt;ReplayScenarioRunner -->
<g id="edge17" class="edge">
<title>ReplayScenario&#45;&gt;ReplayScenarioRunner</title>
<path fill="none" stroke="black" d="M1118.12,-402.07C1153.33,-403.49 1204.87,-406.8 1249.25,-414.5 1266.02,-417.41 1283.84,-421.63 1300.47,-426.06"/>
<polygon fill="black" stroke="black" points="1299.17,-429.34 1309.74,-428.6 1301.02,-422.58 1299.17,-429.34"/>
<text xml:space="preserve" text-anchor="middle" x="1192.5" y="-416.45" font-family="Arial" font-size="9.00">run/report</text>
</g>
<!-- ReplayScenarioRunner&#45;&gt;ReplaySandbox -->
<g id="edge18" class="edge">
<title>ReplayScenarioRunner&#45;&gt;ReplaySandbox</title>
<path fill="none" stroke="black" d="M1311.01,-447C1234.55,-447 1100.75,-447 1026.58,-447"/>
<polygon fill="black" stroke="black" points="1026.71,-443.5 1016.71,-447 1026.71,-450.5 1026.71,-443.5"/>
<text xml:space="preserve" text-anchor="middle" x="1192.5" y="-448.95" font-family="Arial" font-size="9.00">uses sandbox</text>
</g>
<!-- ReplayReport -->
<g id="node14" class="node">
<title>ReplayReport</title>
<path fill="#eceff1" stroke="#455a64" d="M1552,-465C1552,-465 1500,-465 1500,-465 1494,-465 1488,-459 1488,-453 1488,-453 1488,-441 1488,-441 1488,-435 1494,-429 1500,-429 1500,-429 1552,-429 1552,-429 1558,-429 1564,-435 1564,-441 1564,-441 1564,-453 1564,-453 1564,-459 1558,-465 1552,-465"/>
<text xml:space="preserve" text-anchor="middle" x="1526" y="-449.5" font-family="Arial" font-size="10.00">ReplayReport</text>
<text xml:space="preserve" text-anchor="middle" x="1526" y="-437.5" font-family="Arial" font-size="10.00">deterministic</text>
</g>
<!-- ReplayScenarioRunner&#45;&gt;ReplayReport -->
<g id="edge20" class="edge">
<title>ReplayScenarioRunner&#45;&gt;ReplayReport</title>
<path fill="none" stroke="black" d="M1428.19,-447C1444.02,-447 1461.04,-447 1476.33,-447"/>
<polygon fill="black" stroke="black" points="1476.12,-450.5 1486.12,-447 1476.12,-443.5 1476.12,-450.5"/>
<text xml:space="preserve" text-anchor="middle" x="1458" y="-448.95" font-family="Arial" font-size="9.00">report</text>
</g>
<!-- ReplayReportExporter -->
<g id="node15" class="node">
<title>ReplayReportExporter</title>
<path fill="#f5f5f5" stroke="#666666" d="M1726.25,-465C1726.25,-465 1637.5,-465 1637.5,-465 1631.5,-465 1625.5,-459 1625.5,-453 1625.5,-453 1625.5,-441 1625.5,-441 1625.5,-435 1631.5,-429 1637.5,-429 1637.5,-429 1726.25,-429 1726.25,-429 1732.25,-429 1738.25,-435 1738.25,-441 1738.25,-441 1738.25,-453 1738.25,-453 1738.25,-459 1732.25,-465 1726.25,-465"/>
<text xml:space="preserve" text-anchor="middle" x="1681.88" y="-449.5" font-family="Arial" font-size="10.00">ReplayReportExporter</text>
<text xml:space="preserve" text-anchor="middle" x="1681.88" y="-437.5" font-family="Arial" font-size="10.00">text/json</text>
</g>
<!-- ReplayReport&#45;&gt;ReplayReportExporter -->
<g id="edge21" class="edge">
<title>ReplayReport&#45;&gt;ReplayReportExporter</title>
<path fill="none" stroke="black" d="M1564.25,-447C1579.21,-447 1596.92,-447 1613.96,-447"/>
<polygon fill="black" stroke="black" points="1613.52,-450.5 1623.52,-447 1613.52,-443.5 1613.52,-450.5"/>
<text xml:space="preserve" text-anchor="middle" x="1594.75" y="-448.95" font-family="Arial" font-size="9.00">export</text>
</g>
<!-- ReplayReportExport -->
<g id="node16" class="node">
<title>ReplayReportExport</title>
<path fill="#eceff1" stroke="#455a64" d="M1900.5,-465C1900.5,-465 1820,-465 1820,-465 1814,-465 1808,-459 1808,-453 1808,-453 1808,-441 1808,-441 1808,-435 1814,-429 1820,-429 1820,-429 1900.5,-429 1900.5,-429 1906.5,-429 1912.5,-435 1912.5,-441 1912.5,-441 1912.5,-453 1912.5,-453 1912.5,-459 1906.5,-465 1900.5,-465"/>
<text xml:space="preserve" text-anchor="middle" x="1860.25" y="-449.5" font-family="Arial" font-size="10.00">ReplayReportExport</text>
<text xml:space="preserve" text-anchor="middle" x="1860.25" y="-437.5" font-family="Arial" font-size="10.00">immutable</text>
</g>
<!-- ReplayReportExporter&#45;&gt;ReplayReportExport -->
<g id="edge22" class="edge">
<title>ReplayReportExporter&#45;&gt;ReplayReportExport</title>
<path fill="none" stroke="black" d="M1738.68,-447C1756.98,-447 1777.45,-447 1796.25,-447"/>
<polygon fill="black" stroke="black" points="1796.19,-450.5 1806.19,-447 1796.19,-443.5 1796.19,-450.5"/>
<text xml:space="preserve" text-anchor="middle" x="1773.12" y="-448.95" font-family="Arial" font-size="9.00">text/json</text>
</g>
<!-- ReplayReportFileWriter -->
<g id="node17" class="node">
<title>ReplayReportFileWriter</title>
<path fill="#f5f5f5" stroke="#666666" d="M2361.5,-489C2361.5,-489 2268.25,-489 2268.25,-489 2262.25,-489 2256.25,-483 2256.25,-477 2256.25,-477 2256.25,-465 2256.25,-465 2256.25,-459 2262.25,-453 2268.25,-453 2268.25,-453 2361.5,-453 2361.5,-453 2367.5,-453 2373.5,-459 2373.5,-465 2373.5,-465 2373.5,-477 2373.5,-477 2373.5,-483 2367.5,-489 2361.5,-489"/>
<text xml:space="preserve" text-anchor="middle" x="2314.88" y="-473.5" font-family="Arial" font-size="10.00">ReplayReportFileWriter</text>
<text xml:space="preserve" text-anchor="middle" x="2314.88" y="-461.5" font-family="Arial" font-size="10.00">controlled files</text>
</g>
<!-- ReplayReportExport&#45;&gt;ReplayReportFileWriter -->
<g id="edge23" class="edge">
<title>ReplayReportExport&#45;&gt;ReplayReportFileWriter</title>
<path fill="none" stroke="black" d="M1912.66,-451.68C1918.67,-452.16 1924.72,-452.61 1930.5,-453 2040.22,-460.33 2167.79,-465.69 2244.61,-468.57"/>
<polygon fill="black" stroke="black" points="2244.39,-472.07 2254.52,-468.94 2244.65,-465.07 2244.39,-472.07"/>
<text xml:space="preserve" text-anchor="middle" x="2088.5" y="-466.67" font-family="Arial" font-size="9.00">write(path)</text>
</g>
<!-- ReplayReportBundleWriter -->
<g id="node19" class="node">
<title>ReplayReportBundleWriter</title>
<path fill="#f5f5f5" stroke="#666666" d="M2142.25,-438C2142.25,-438 2034.75,-438 2034.75,-438 2028.75,-438 2022.75,-432 2022.75,-426 2022.75,-426 2022.75,-414 2022.75,-414 2022.75,-408 2028.75,-402 2034.75,-402 2034.75,-402 2142.25,-402 2142.25,-402 2148.25,-402 2154.25,-408 2154.25,-414 2154.25,-414 2154.25,-426 2154.25,-426 2154.25,-432 2148.25,-438 2142.25,-438"/>
<text xml:space="preserve" text-anchor="middle" x="2088.5" y="-422.5" font-family="Arial" font-size="10.00">ReplayReportBundleWriter</text>
<text xml:space="preserve" text-anchor="middle" x="2088.5" y="-410.5" font-family="Arial" font-size="10.00">controlled bundle</text>
</g>
<!-- ReplayReportExport&#45;&gt;ReplayReportBundleWriter -->
<g id="edge25" class="edge">
<title>ReplayReportExport&#45;&gt;ReplayReportBundleWriter</title>
<path fill="none" stroke="black" d="M1912.87,-440.84C1941.92,-437.37 1978.75,-432.98 2011.08,-429.12"/>
<polygon fill="black" stroke="black" points="2011.29,-432.62 2020.81,-427.96 2010.47,-425.67 2011.29,-432.62"/>
<text xml:space="preserve" text-anchor="middle" x="1967.62" y="-440.22" font-family="Arial" font-size="9.00">bundle write(path)</text>
</g>
<!-- ReplayReportWriteResult -->
<g id="node18" class="node">
<title>ReplayReportWriteResult</title>
<path fill="#eceff1" stroke="#455a64" d="M2592,-489C2592,-489 2489,-489 2489,-489 2483,-489 2477,-483 2477,-477 2477,-477 2477,-465 2477,-465 2477,-459 2483,-453 2489,-453 2489,-453 2592,-453 2592,-453 2598,-453 2604,-459 2604,-465 2604,-465 2604,-477 2604,-477 2604,-483 2598,-489 2592,-489"/>
<text xml:space="preserve" text-anchor="middle" x="2540.5" y="-473.5" font-family="Arial" font-size="10.00">ReplayReportWriteResult</text>
<text xml:space="preserve" text-anchor="middle" x="2540.5" y="-461.5" font-family="Arial" font-size="10.00">sha256</text>
</g>
<!-- ReplayReportFileWriter&#45;&gt;ReplayReportWriteResult -->
<g id="edge24" class="edge">
<title>ReplayReportFileWriter&#45;&gt;ReplayReportWriteResult</title>
<path fill="none" stroke="black" d="M2373.75,-471C2401.75,-471 2435.69,-471 2465.54,-471"/>
<polygon fill="black" stroke="black" points="2465.25,-474.5 2475.25,-471 2465.25,-467.5 2465.25,-474.5"/>
<text xml:space="preserve" text-anchor="middle" x="2427.88" y="-472.95" font-family="Arial" font-size="9.00">bytes + sha256</text>
</g>
<!-- Replay -->
<g id="node24" class="node">
<title>Replay</title>
<path fill="#f5f5f5" stroke="#666666" d="M2683,-489C2683,-489 2653,-489 2653,-489 2647,-489 2641,-483 2641,-477 2641,-477 2641,-465 2641,-465 2641,-459 2647,-453 2653,-453 2653,-453 2683,-453 2683,-453 2689,-453 2695,-459 2695,-465 2695,-465 2695,-477 2695,-477 2695,-483 2689,-489 2683,-489"/>
<text xml:space="preserve" text-anchor="middle" x="2668" y="-467.5" font-family="Arial" font-size="10.00">Replay</text>
</g>
<!-- ReplayReportWriteResult&#45;&gt;Replay -->
<g id="edge28" class="edge">
<title>ReplayReportWriteResult&#45;&gt;Replay</title>
<path fill="none" stroke="black" stroke-dasharray="5,2" d="M2604.25,-471C2612.8,-471 2621.34,-471 2629.25,-471"/>
<polygon fill="black" stroke="black" points="2629.18,-474.5 2639.18,-471 2629.18,-467.5 2629.18,-474.5"/>
</g>
<!-- ReplayReportBundleWriter&#45;&gt;ReplayReportFileWriter -->
<g id="edge26" class="edge">
<title>ReplayReportBundleWriter&#45;&gt;ReplayReportFileWriter</title>
<path fill="none" stroke="black" stroke-dasharray="5,2" d="M2154.68,-432.58C2179.29,-437.55 2207.5,-443.49 2233,-449.5 2236.98,-450.44 2241.07,-451.43 2245.18,-452.45"/>
<polygon fill="black" stroke="black" points="2244.08,-455.78 2254.64,-454.84 2245.8,-449 2244.08,-455.78"/>
<text xml:space="preserve" text-anchor="middle" x="2202.62" y="-451.45" font-family="Arial" font-size="9.00">uses writer</text>
</g>
<!-- ReplayBundleWriteResult -->
<g id="node20" class="node">
<title>ReplayBundleWriteResult</title>
<path fill="#eceff1" stroke="#455a64" d="M2366.75,-432C2366.75,-432 2263,-432 2263,-432 2257,-432 2251,-426 2251,-420 2251,-420 2251,-408 2251,-408 2251,-402 2257,-396 2263,-396 2263,-396 2366.75,-396 2366.75,-396 2372.75,-396 2378.75,-402 2378.75,-408 2378.75,-408 2378.75,-420 2378.75,-420 2378.75,-426 2372.75,-432 2366.75,-432"/>
<text xml:space="preserve" text-anchor="middle" x="2314.88" y="-416.5" font-family="Arial" font-size="10.00">ReplayBundleWriteResult</text>
<text xml:space="preserve" text-anchor="middle" x="2314.88" y="-404.5" font-family="Arial" font-size="10.00">manifest + sha256</text>
</g>
<!-- ReplayReportBundleWriter&#45;&gt;ReplayBundleWriteResult -->
<g id="edge27" class="edge">
<title>ReplayReportBundleWriter&#45;&gt;ReplayBundleWriteResult</title>
<path fill="none" stroke="black" d="M2154.54,-416.19C2160.52,-415.93 2166.5,-415.69 2172.25,-415.5 2194.02,-414.79 2217.68,-414.4 2239.32,-414.18"/>
<polygon fill="black" stroke="black" points="2239.28,-417.68 2249.25,-414.09 2239.22,-410.68 2239.28,-417.68"/>
<text xml:space="preserve" text-anchor="middle" x="2202.62" y="-417.45" font-family="Arial" font-size="9.00">manifest + files</text>
</g>
<!-- Snapshot&#45;&gt;Metrics -->
<g id="edge5" class="edge">
<title>Snapshot&#45;&gt;Metrics</title>
<path fill="none" stroke="black" stroke-dasharray="5,2" d="M86.04,-209.41C96.22,-214.44 107.44,-219.69 118,-224 137.51,-231.96 159.81,-239.41 178.14,-245.11"/>
<polygon fill="black" stroke="black" points="176.94,-248.4 187.53,-247.98 178.99,-241.71 176.94,-248.4"/>
</g>
<!-- Dashboard -->
<g id="node25" class="node">
<title>Dashboard</title>
<path fill="#f5f5f5" stroke="#666666" d="M405.38,-250C405.38,-250 366.12,-250 366.12,-250 360.12,-250 354.12,-244 354.12,-238 354.12,-238 354.12,-226 354.12,-226 354.12,-220 360.12,-214 366.12,-214 366.12,-214 405.38,-214 405.38,-214 411.38,-214 417.38,-220 417.38,-226 417.38,-226 417.38,-238 417.38,-238 417.38,-244 411.38,-250 405.38,-250"/>
<text xml:space="preserve" text-anchor="middle" x="385.75" y="-228.5" font-family="Arial" font-size="10.00">Dashboard</text>
</g>
<!-- Snapshot&#45;&gt;Dashboard -->
<g id="edge6" class="edge">
<title>Snapshot&#45;&gt;Dashboard</title>
<path fill="none" stroke="black" stroke-dasharray="5,2" d="M100.25,-197.05C165.83,-205.11 280.73,-219.22 342.54,-226.82"/>
<polygon fill="black" stroke="black" points="341.95,-230.27 352.3,-228.01 342.8,-223.32 341.95,-230.27"/>
</g>
<!-- Watchdog -->
<g id="node26" class="node">
<title>Watchdog</title>
<path fill="#f5f5f5" stroke="#666666" d="M234.12,-144C234.12,-144 198.62,-144 198.62,-144 192.62,-144 186.62,-138 186.62,-132 186.62,-132 186.62,-120 186.62,-120 186.62,-114 192.62,-108 198.62,-108 198.62,-108 234.12,-108 234.12,-108 240.12,-108 246.12,-114 246.12,-120 246.12,-120 246.12,-132 246.12,-132 246.12,-138 240.12,-144 234.12,-144"/>
<text xml:space="preserve" text-anchor="middle" x="216.38" y="-122.5" font-family="Arial" font-size="10.00">Watchdog</text>
</g>
<!-- Snapshot&#45;&gt;Watchdog -->
<g id="edge7" class="edge">
<title>Snapshot&#45;&gt;Watchdog</title>
<path fill="none" stroke="black" stroke-dasharray="5,2" d="M86.04,-172.59C96.22,-167.56 107.44,-162.31 118,-158 136.6,-150.41 157.74,-143.28 175.56,-137.7"/>
<polygon fill="black" stroke="black" points="176.47,-141.08 185,-134.79 174.41,-134.39 176.47,-141.08"/>
</g>
<!-- Metrics&#45;&gt;Dashboard -->
<g id="edge29" class="edge">
<title>Metrics&#45;&gt;Dashboard</title>
<path fill="none" stroke="black" d="M243.53,-252.25C269.94,-248.46 311.18,-242.55 342.29,-238.09"/>
<polygon fill="black" stroke="black" points="342.76,-241.56 352.16,-236.67 341.77,-234.63 342.76,-241.56"/>
</g>
<!-- Watchdog&#45;&gt;Scheduler -->
<g id="edge31" class="edge">
<title>Watchdog&#45;&gt;Scheduler</title>
<path fill="none" stroke="black" stroke-dasharray="5,2" d="M246.53,-126C273.57,-126 314.06,-126 344.23,-126"/>
<polygon fill="black" stroke="black" points="344.14,-129.5 354.14,-126 344.14,-122.5 344.14,-129.5"/>
</g>
<!-- Nav_Global -->
<g id="node28" class="node">
<title>Nav_Global</title>
<g id="a_node28"><a xlink:href="../00_global.svg" xlink:title="Global">
<path fill="lightgrey" stroke="none" d="M65,-409C65,-409 35,-409 35,-409 29,-409 23,-403 23,-397 23,-397 23,-385 23,-385 23,-379 29,-373 35,-373 35,-373 65,-373 65,-373 71,-373 77,-379 77,-385 77,-385 77,-397 77,-397 77,-403 71,-409 65,-409"/>
<text xml:space="preserve" text-anchor="middle" x="50" y="-387.5" font-family="Arial" font-size="10.00">Global</text>
</a>
</g>
</g>
</g>
</svg>
