<?xml version="1.0" encoding="UTF-8" standalone="no"?>
<!DOCTYPE svg PUBLIC "-//W3C//DTD SVG 1.1//EN"
 "http://www.w3.org/Graphics/SVG/1.1/DTD/svg11.dtd">
<!-- Generated by graphviz version 2.42.4 (0)
 -->
<!-- Title: Observability Pages: 1 -->
<svg width="264pt" height="314pt"
 viewBox="0.00 0.00 264.00 314.00" xmlns="http://www.w3.org/2000/svg" xmlns:xlink="http://www.w3.org/1999/xlink">
<g id="graph0" class="graph" transform="scale(1 1) rotate(0) translate(4 310)">
<title>Observability</title>
<polygon fill="white" stroke="transparent" points="-4,4 -4,-310 260,-310 260,4 -4,4"/>
<!-- EventBus -->
<g id="node1" class="node">
<title>EventBus</title>
<g id="a_node1"><a xlink:href="../scheduler/10_scheduler.svg" xlink:title="EventBus">
<path fill="#ede7f6" stroke="#512da8" d="M47.5,-117C47.5,-117 12.5,-117 12.5,-117 6.5,-117 0.5,-111 0.5,-105 0.5,-105 0.5,-93 0.5,-93 0.5,-87 6.5,-81 12.5,-81 12.5,-81 47.5,-81 47.5,-81 53.5,-81 59.5,-87 59.5,-93 59.5,-93 59.5,-105 59.5,-105 59.5,-111 53.5,-117 47.5,-117"/>
<text text-anchor="middle" x="30" y="-96.5" font-family="Arial" font-size="10.00">EventBus</text>
</a>
</g>
</g>
<!-- Logger -->
<g id="node2" class="node">
<title>Logger</title>
<path fill="#f5f5f5" stroke="#666666" d="M141,-198C141,-198 111,-198 111,-198 105,-198 99,-192 99,-186 99,-186 99,-174 99,-174 99,-168 105,-162 111,-162 111,-162 141,-162 141,-162 147,-162 153,-168 153,-174 153,-174 153,-186 153,-186 153,-192 147,-198 141,-198"/>
<text text-anchor="middle" x="126" y="-177.5" font-family="Arial" font-size="10.00">Logger</text>
</g>
<!-- EventBus&#45;&gt;Logger -->
<g id="edge1" class="edge">
<title>EventBus&#45;&gt;Logger</title>
<path fill="none" stroke="black" d="M52.33,-117.38C65.4,-128.64 82.29,-143.2 96.5,-155.44"/>
<polygon fill="black" stroke="black" points="94.22,-158.1 104.08,-161.97 98.79,-152.79 94.22,-158.1"/>
</g>
<!-- Metrics -->
<g id="node3" class="node">
<title>Metrics</title>
<path fill="#f5f5f5" stroke="#666666" d="M141,-144C141,-144 111,-144 111,-144 105,-144 99,-138 99,-132 99,-132 99,-120 99,-120 99,-114 105,-108 111,-108 111,-108 141,-108 141,-108 147,-108 153,-114 153,-120 153,-120 153,-132 153,-132 153,-138 147,-144 141,-144"/>
<text text-anchor="middle" x="126" y="-123.5" font-family="Arial" font-size="10.00">Metrics</text>
</g>
<!-- EventBus&#45;&gt;Metrics -->
<g id="edge2" class="edge">
<title>EventBus&#45;&gt;Metrics</title>
<path fill="none" stroke="black" d="M59.71,-107.25C68.93,-109.89 79.26,-112.86 88.93,-115.64"/>
<polygon fill="black" stroke="black" points="88.12,-119.05 98.7,-118.45 90.06,-112.32 88.12,-119.05"/>
</g>
<!-- Replay -->
<g id="node4" class="node">
<title>Replay</title>
<path fill="#f5f5f5" stroke="#666666" d="M141,-90C141,-90 111,-90 111,-90 105,-90 99,-84 99,-78 99,-78 99,-66 99,-66 99,-60 105,-54 111,-54 111,-54 141,-54 141,-54 147,-54 153,-60 153,-66 153,-66 153,-78 153,-78 153,-84 147,-90 141,-90"/>
<text text-anchor="middle" x="126" y="-69.5" font-family="Arial" font-size="10.00">Replay</text>
</g>
<!-- EventBus&#45;&gt;Replay -->
<g id="edge3" class="edge">
<title>EventBus&#45;&gt;Replay</title>
<path fill="none" stroke="black" d="M59.71,-90.75C68.93,-88.11 79.26,-85.14 88.93,-82.36"/>
<polygon fill="black" stroke="black" points="90.06,-85.68 98.7,-79.55 88.12,-78.95 90.06,-85.68"/>
</g>
<!-- Tracer -->
<g id="node7" class="node">
<title>Tracer</title>
<path fill="#f5f5f5" stroke="#666666" d="M141,-36C141,-36 111,-36 111,-36 105,-36 99,-30 99,-24 99,-24 99,-12 99,-12 99,-6 105,0 111,0 111,0 141,0 141,0 147,0 153,-6 153,-12 153,-12 153,-24 153,-24 153,-30 147,-36 141,-36"/>
<text text-anchor="middle" x="126" y="-15.5" font-family="Arial" font-size="10.00">Tracer</text>
</g>
<!-- EventBus&#45;&gt;Tracer -->
<g id="edge5" class="edge">
<title>EventBus&#45;&gt;Tracer</title>
<path fill="none" stroke="black" d="M52.33,-80.62C65.4,-69.36 82.29,-54.8 96.5,-42.56"/>
<polygon fill="black" stroke="black" points="98.79,-45.21 104.08,-36.03 94.22,-39.9 98.79,-45.21"/>
</g>
<!-- Dashboard -->
<g id="node5" class="node">
<title>Dashboard</title>
<path fill="#f5f5f5" stroke="#666666" d="M244,-144C244,-144 204,-144 204,-144 198,-144 192,-138 192,-132 192,-132 192,-120 192,-120 192,-114 198,-108 204,-108 204,-108 244,-108 244,-108 250,-108 256,-114 256,-120 256,-120 256,-132 256,-132 256,-138 250,-144 244,-144"/>
<text text-anchor="middle" x="224" y="-123.5" font-family="Arial" font-size="10.00">Dashboard</text>
</g>
<!-- Metrics&#45;&gt;Dashboard -->
<g id="edge4" class="edge">
<title>Metrics&#45;&gt;Dashboard</title>
<path fill="none" stroke="black" d="M153.23,-126C161.96,-126 171.9,-126 181.49,-126"/>
<polygon fill="black" stroke="black" points="181.68,-129.5 191.68,-126 181.68,-122.5 181.68,-129.5"/>
</g>
<!-- Watchdog -->
<g id="node6" class="node">
<title>Watchdog</title>
<path fill="#f5f5f5" stroke="#666666" d="M48,-252C48,-252 12,-252 12,-252 6,-252 0,-246 0,-240 0,-240 0,-228 0,-228 0,-222 6,-216 12,-216 12,-216 48,-216 48,-216 54,-216 60,-222 60,-228 60,-228 60,-240 60,-240 60,-246 54,-252 48,-252"/>
<text text-anchor="middle" x="30" y="-231.5" font-family="Arial" font-size="10.00">Watchdog</text>
</g>
<!-- Scheduler -->
<g id="node8" class="node">
<title>Scheduler</title>
<g id="a_node8"><a xlink:href="../scheduler/10_scheduler.svg" xlink:title="Scheduler">
<path fill="#ede7f6" stroke="#512da8" d="M144,-252C144,-252 108,-252 108,-252 102,-252 96,-246 96,-240 96,-240 96,-228 96,-228 96,-222 102,-216 108,-216 108,-216 144,-216 144,-216 150,-216 156,-222 156,-228 156,-228 156,-240 156,-240 156,-246 150,-252 144,-252"/>
<text text-anchor="middle" x="126" y="-231.5" font-family="Arial" font-size="10.00">Scheduler</text>
</a>
</g>
</g>
<!-- Watchdog&#45;&gt;Scheduler -->
<g id="edge6" class="edge">
<title>Watchdog&#45;&gt;Scheduler</title>
<path fill="none" stroke="black" stroke-dasharray="5,2" d="M60.23,-234C68.27,-234 77.13,-234 85.65,-234"/>
<polygon fill="black" stroke="black" points="85.79,-237.5 95.79,-234 85.79,-230.5 85.79,-237.5"/>
</g>
<!-- Nav_Global -->
<g id="node9" class="node">
<title>Nav_Global</title>
<g id="a_node9"><a xlink:href="../00_global.svg" xlink:title="Global">
<path fill="lightgrey" stroke="transparent" d="M45,-306C45,-306 15,-306 15,-306 9,-306 3,-300 3,-294 3,-294 3,-282 3,-282 3,-276 9,-270 15,-270 15,-270 45,-270 45,-270 51,-270 57,-276 57,-282 57,-282 57,-294 57,-294 57,-300 51,-306 45,-306"/>
<text text-anchor="middle" x="30" y="-285.5" font-family="Arial" font-size="10.00">Global</text>
</a>
</g>
</g>
</g>
</svg>
