<?xml version="1.0" encoding="UTF-8" standalone="no"?>
<!DOCTYPE svg PUBLIC "-//W3C//DTD SVG 1.1//EN"
 "http://www.w3.org/Graphics/SVG/1.1/DTD/svg11.dtd">
<!-- Generated by graphviz version 14.1.3 (20260303.0454)
 -->
<!-- Title: Observability Pages: 1 -->
<svg width="376pt" height="265pt"
 viewBox="0.00 0.00 376.00 265.00" xmlns="http://www.w3.org/2000/svg" xmlns:xlink="http://www.w3.org/1999/xlink">
<g id="graph0" class="graph" transform="scale(1 1) rotate(0) translate(4 261.25)">
<title>Observability</title>
<polygon fill="white" stroke="none" points="-4,4 -4,-261.25 371.75,-261.25 371.75,4 -4,4"/>
<g id="clust1" class="cluster">
<title>cluster_obs</title>
<polygon fill="#f5f5f5" stroke="#666666" points="8,-64 8,-213.25 300,-213.25 300,-64 8,-64"/>
<text xml:space="preserve" text-anchor="middle" x="154" y="-195.95" font-family="Times,serif" font-size="14.00">Observability</text>
</g>
<!-- Logger -->
<g id="node1" class="node">
<title>Logger</title>
<g id="a_node1"><a xlink:href="70_observability.svg" xlink:title="Logger">
<polygon fill="#f5f5f5" stroke="#666666" points="70,-180 16,-180 16,-144 70,-144 70,-180"/>
<text xml:space="preserve" text-anchor="middle" x="43" y="-158.5" font-family="Arial" font-size="10.00">Logger</text>
</a>
</g>
</g>
<!-- Metrics -->
<g id="node2" class="node">
<title>Metrics</title>
<g id="a_node2"><a xlink:href="70_observability.svg" xlink:title="Metrics">
<polygon fill="#f5f5f5" stroke="#666666" points="142,-180 88,-180 88,-144 142,-144 142,-180"/>
<text xml:space="preserve" text-anchor="middle" x="115" y="-158.5" font-family="Arial" font-size="10.00">Metrics</text>
</a>
</g>
</g>
<!-- Dashboard -->
<g id="node4" class="node">
<title>Dashboard</title>
<g id="a_node4"><a xlink:href="70_observability.svg" xlink:title="Dashboard">
<polygon fill="#f5f5f5" stroke="#666666" points="146.62,-108 83.38,-108 83.38,-72 146.62,-72 146.62,-108"/>
<text xml:space="preserve" text-anchor="middle" x="115" y="-86.5" font-family="Arial" font-size="10.00">Dashboard</text>
</a>
</g>
</g>
<!-- Metrics&#45;&gt;Dashboard -->
<g id="edge4" class="edge">
<title>Metrics&#45;&gt;Dashboard</title>
<path fill="none" stroke="black" d="M115,-143.7C115,-136.41 115,-127.73 115,-119.54"/>
<polygon fill="black" stroke="black" points="118.5,-119.62 115,-109.62 111.5,-119.62 118.5,-119.62"/>
</g>
<!-- Replay -->
<g id="node3" class="node">
<title>Replay</title>
<g id="a_node3"><a xlink:href="70_observability.svg" xlink:title="Replay">
<polygon fill="#f5f5f5" stroke="#666666" points="214,-180 160,-180 160,-144 214,-144 214,-180"/>
<text xml:space="preserve" text-anchor="middle" x="187" y="-158.5" font-family="Arial" font-size="10.00">Replay</text>
</a>
</g>
</g>
<!-- Watchdog -->
<g id="node5" class="node">
<title>Watchdog</title>
<g id="a_node5"><a xlink:href="70_observability.svg" xlink:title="Watchdog">
<polygon fill="#f5f5f5" stroke="#666666" points="291.75,-180 232.25,-180 232.25,-144 291.75,-144 291.75,-180"/>
<text xml:space="preserve" text-anchor="middle" x="262" y="-158.5" font-family="Arial" font-size="10.00">Watchdog</text>
</a>
</g>
</g>
<!-- Scheduler -->
<g id="node7" class="node">
<title>Scheduler</title>
<g id="a_node7"><a xlink:href="../scheduler/10_scheduler.svg" xlink:title="Scheduler">
<polygon fill="#ede7f6" stroke="#512da8" points="367.75,-108 308.25,-108 308.25,-72 367.75,-72 367.75,-108"/>
<text xml:space="preserve" text-anchor="middle" x="338" y="-86.5" font-family="Arial" font-size="10.00">Scheduler</text>
</a>
</g>
</g>
<!-- Watchdog&#45;&gt;Scheduler -->
<g id="edge5" class="edge">
<title>Watchdog&#45;&gt;Scheduler</title>
<path fill="none" stroke="black" d="M280.79,-143.7C289.83,-135.37 300.84,-125.22 310.78,-116.07"/>
<polygon fill="black" stroke="black" points="313.07,-118.72 318.05,-109.37 308.33,-113.57 313.07,-118.72"/>
</g>
<!-- EventBus -->
<g id="node6" class="node">
<title>EventBus</title>
<g id="a_node6"><a xlink:href="../scheduler/event_bus/12_event_bus.svg" xlink:title="EventBus">
<polygon fill="#ede7f6" stroke="#512da8" points="144.38,-257.25 85.62,-257.25 85.62,-221.25 144.38,-221.25 144.38,-257.25"/>
<text xml:space="preserve" text-anchor="middle" x="115" y="-235.75" font-family="Arial" font-size="10.00">EventBus</text>
</a>
</g>
</g>
<!-- EventBus&#45;&gt;Logger -->
<g id="edge1" class="edge">
<title>EventBus&#45;&gt;Logger</title>
<path fill="none" stroke="black" d="M87.85,-220.93C84.73,-218.5 81.71,-215.92 79,-213.25 71.94,-206.29 65.28,-197.8 59.66,-189.8"/>
<polygon fill="black" stroke="black" points="62.68,-188.03 54.2,-181.68 56.87,-191.93 62.68,-188.03"/>
</g>
<!-- EventBus&#45;&gt;Metrics -->
<g id="edge2" class="edge">
<title>EventBus&#45;&gt;Metrics</title>
<path fill="none" stroke="black" d="M115,-220.8C115,-212.15 115,-201.5 115,-191.69"/>
<polygon fill="black" stroke="black" points="118.5,-191.87 115,-181.87 111.5,-191.87 118.5,-191.87"/>
</g>
<!-- EventBus&#45;&gt;Replay -->
<g id="edge3" class="edge">
<title>EventBus&#45;&gt;Replay</title>
<path fill="none" stroke="black" d="M142.15,-220.93C145.27,-218.5 148.29,-215.92 151,-213.25 158.06,-206.29 164.72,-197.8 170.34,-189.8"/>
<polygon fill="black" stroke="black" points="173.13,-191.93 175.8,-181.68 167.32,-188.03 173.13,-191.93"/>
</g>
<!-- Nav_Global -->
<g id="node8" class="node">
<title>Nav_Global</title>
<g id="a_node8"><a xlink:href="../00_global.svg" xlink:title="Global">
<polygon fill="lightgrey" stroke="none" points="142,-36 88,-36 88,0 142,0 142,-36"/>
<text xml:space="preserve" text-anchor="middle" x="115" y="-14.5" font-family="Arial" font-size="10.00">Global</text>
</a>
</g>
</g>
<!-- Nav_Scheduler -->
<g id="node9" class="node">
<title>Nav_Scheduler</title>
<g id="a_node9"><a xlink:href="../scheduler/10_scheduler.svg" xlink:title="Scheduler">
<polygon fill="lightgrey" stroke="none" points="219.75,-36 160.25,-36 160.25,0 219.75,0 219.75,-36"/>
<text xml:space="preserve" text-anchor="middle" x="190" y="-14.5" font-family="Arial" font-size="10.00">Scheduler</text>
</a>
</g>
</g>
</g>
</svg>
