<?xml version="1.0" encoding="UTF-8" standalone="no"?>
<!DOCTYPE svg PUBLIC "-//W3C//DTD SVG 1.1//EN"
 "http://www.w3.org/Graphics/SVG/1.1/DTD/svg11.dtd">
<!-- Generated by graphviz version 14.1.3 (20260303.0454)
 -->
<!-- Title: Global Pages: 1 -->
<svg width="2570pt" height="956pt"
 viewBox="0.00 0.00 2570.00 956.00" xmlns="http://www.w3.org/2000/svg" xmlns:xlink="http://www.w3.org/1999/xlink">
<g id="graph0" class="graph" transform="scale(1 1) rotate(0) translate(4 952)">
<title>Global</title>
<polygon fill="white" stroke="none" points="-4,4 -4,-952 2566,-952 2566,4 -4,4"/>
<g id="clust1" class="cluster">
<title>cluster_L0</title>
<polygon fill="#ffebee" stroke="#c62828" points="2068,-111.5 2068,-185 2554,-185 2554,-111.5 2068,-111.5"/>
<text xml:space="preserve" text-anchor="middle" x="2311" y="-170.55" font-family="Arial" font-size="11.00">Layer 0 — Hardware target</text>
</g>
<g id="clust2" class="cluster">
<title>cluster_L1</title>
<polygon fill="#ede7f6" stroke="#512da8" points="1001,-224.5 1001,-940 1233,-940 1233,-224.5 1001,-224.5"/>
<text xml:space="preserve" text-anchor="middle" x="1117" y="-925.55" font-family="Arial" font-size="11.00">Layer 1 — MissiPy Micro&#45;Kernel Phase 1.4</text>
</g>
<g id="clust3" class="cluster">
<title>cluster_L2</title>
<polygon fill="#eceff1" stroke="#455a64" points="1056,-111.5 1056,-185 1648,-185 1648,-111.5 1056,-111.5"/>
<text xml:space="preserve" text-anchor="middle" x="1352" y="-170.55" font-family="Arial" font-size="11.00">Layer 2 — Contracts</text>
</g>
<g id="clust4" class="cluster">
<title>cluster_L3</title>
<polygon fill="#fff3e0" stroke="#ef6c00" points="406,-224.5 406,-836.5 577,-836.5 577,-224.5 406,-224.5"/>
<text xml:space="preserve" text-anchor="middle" x="491.5" y="-822.05" font-family="Arial" font-size="11.00">Layer 3 — Context Fabric active</text>
</g>
<g id="clust5" class="cluster">
<title>cluster_L4</title>
<polygon fill="#e1f5fe" stroke="#0288d1" points="8,-111.5 8,-185 670,-185 670,-111.5 8,-111.5"/>
<text xml:space="preserve" text-anchor="middle" x="339" y="-170.55" font-family="Arial" font-size="11.00">Layer 4 — Independent Services future</text>
</g>
<g id="clust6" class="cluster">
<title>cluster_L5</title>
<polygon fill="#fffde7" stroke="#f9a825" points="1656,-111.5 1656,-298 2060,-298 2060,-111.5 1656,-111.5"/>
<text xml:space="preserve" text-anchor="middle" x="1858" y="-283.55" font-family="Arial" font-size="11.00">Layer 5 — Inference Phase 1.4</text>
</g>
<g id="clust7" class="cluster">
<title>cluster_L6</title>
<polygon fill="#e8f5e9" stroke="#388e3c" points="1558,-555 1558,-628.5 1817,-628.5 1817,-555 1558,-555"/>
<text xml:space="preserve" text-anchor="middle" x="1687.5" y="-614.05" font-family="Arial" font-size="11.00">Layer 6 — Experts</text>
</g>
<g id="clust8" class="cluster">
<title>cluster_L7</title>
<polygon fill="#f3e5f5" stroke="#7b1fa2" points="1613,-442 1613,-515.5 1775,-515.5 1775,-442 1613,-442"/>
<text xml:space="preserve" text-anchor="middle" x="1694" y="-501.05" font-family="Arial" font-size="11.00">Layer 7 — Validation future</text>
</g>
<g id="clust9" class="cluster">
<title>cluster_L8</title>
<polygon fill="#efebe9" stroke="#6d4c41" points="1044,-8 1044,-81.5 1200,-81.5 1200,-8 1044,-8"/>
<text xml:space="preserve" text-anchor="middle" x="1122" y="-67.05" font-family="Arial" font-size="11.00">Layer 8 — Learning future</text>
</g>
<g id="clust10" class="cluster">
<title>cluster_L9</title>
<polygon fill="#f5f5f5" stroke="#666666" points="690,-8 690,-185 1036,-185 1036,-8 690,-8"/>
<text xml:space="preserve" text-anchor="middle" x="863" y="-170.55" font-family="Arial" font-size="11.00">Layer 9 — Observability</text>
</g>
<g id="clust11" class="cluster">
<title>cluster_L10</title>
<polygon fill="#e3f2fd" stroke="#1565c0" points="566,-866.5 566,-940 866,-940 866,-866.5 566,-866.5"/>
<text xml:space="preserve" text-anchor="middle" x="716" y="-925.55" font-family="Arial" font-size="11.00">Layer 10 — Test Harness Phase 1.4</text>
</g>
<!-- CPU -->
<g id="node1" class="node">
<title>CPU</title>
<path fill="#ffebee" stroke="#c62828" d="M2137.88,-155.5C2137.88,-155.5 2088.12,-155.5 2088.12,-155.5 2082.12,-155.5 2076.12,-149.5 2076.12,-143.5 2076.12,-143.5 2076.12,-131.5 2076.12,-131.5 2076.12,-125.5 2082.12,-119.5 2088.12,-119.5 2088.12,-119.5 2137.88,-119.5 2137.88,-119.5 2143.88,-119.5 2149.88,-125.5 2149.88,-131.5 2149.88,-131.5 2149.88,-143.5 2149.88,-143.5 2149.88,-149.5 2143.88,-155.5 2137.88,-155.5"/>
<text xml:space="preserve" text-anchor="middle" x="2113" y="-140" font-family="Arial" font-size="10.00">Intel i5&#45;11400</text>
<text xml:space="preserve" text-anchor="middle" x="2113" y="-128" font-family="Arial" font-size="10.00">CPU</text>
</g>
<!-- RAM -->
<g id="node2" class="node">
<title>RAM</title>
<path fill="#ffebee" stroke="#c62828" d="M2250.38,-155.5C2250.38,-155.5 2197.62,-155.5 2197.62,-155.5 2191.62,-155.5 2185.62,-149.5 2185.62,-143.5 2185.62,-143.5 2185.62,-131.5 2185.62,-131.5 2185.62,-125.5 2191.62,-119.5 2197.62,-119.5 2197.62,-119.5 2250.38,-119.5 2250.38,-119.5 2256.38,-119.5 2262.38,-125.5 2262.38,-131.5 2262.38,-131.5 2262.38,-143.5 2262.38,-143.5 2262.38,-149.5 2256.38,-155.5 2250.38,-155.5"/>
<text xml:space="preserve" text-anchor="middle" x="2224" y="-134" font-family="Arial" font-size="10.00">128GB DDR4</text>
</g>
<!-- Storage -->
<g id="node3" class="node">
<title>Storage</title>
<path fill="#ffebee" stroke="#c62828" d="M2405.75,-155.5C2405.75,-155.5 2310.25,-155.5 2310.25,-155.5 2304.25,-155.5 2298.25,-149.5 2298.25,-143.5 2298.25,-143.5 2298.25,-131.5 2298.25,-131.5 2298.25,-125.5 2304.25,-119.5 2310.25,-119.5 2310.25,-119.5 2405.75,-119.5 2405.75,-119.5 2411.75,-119.5 2417.75,-125.5 2417.75,-131.5 2417.75,-131.5 2417.75,-143.5 2417.75,-143.5 2417.75,-149.5 2411.75,-155.5 2405.75,-155.5"/>
<text xml:space="preserve" text-anchor="middle" x="2358" y="-140" font-family="Arial" font-size="10.00">ZFS</text>
<text xml:space="preserve" text-anchor="middle" x="2358" y="-128" font-family="Arial" font-size="10.00">NVMe + RAIDZ2 SATA</text>
</g>
<!-- GPU -->
<g id="node4" class="node">
<title>GPU</title>
<path fill="#ffebee" stroke="#c62828" d="M2533.88,-155.5C2533.88,-155.5 2466.12,-155.5 2466.12,-155.5 2460.12,-155.5 2454.12,-149.5 2454.12,-143.5 2454.12,-143.5 2454.12,-131.5 2454.12,-131.5 2454.12,-125.5 2460.12,-119.5 2466.12,-119.5 2466.12,-119.5 2533.88,-119.5 2533.88,-119.5 2539.88,-119.5 2545.88,-125.5 2545.88,-131.5 2545.88,-131.5 2545.88,-143.5 2545.88,-143.5 2545.88,-149.5 2539.88,-155.5 2533.88,-155.5"/>
<text xml:space="preserve" text-anchor="middle" x="2500" y="-140" font-family="Arial" font-size="10.00">Intel iGPU</text>
<text xml:space="preserve" text-anchor="middle" x="2500" y="-128" font-family="Arial" font-size="10.00">OpenVINO future</text>
</g>
<!-- Launcher -->
<g id="node5" class="node">
<title>Launcher</title>
<g id="a_node5"><a xlink:href="scheduler/10_scheduler.svg" xlink:title="Zoom Scheduler">
<path fill="#ede7f6" stroke="#512da8" d="M1194.88,-910.5C1194.88,-910.5 1163.12,-910.5 1163.12,-910.5 1157.12,-910.5 1151.12,-904.5 1151.12,-898.5 1151.12,-898.5 1151.12,-886.5 1151.12,-886.5 1151.12,-880.5 1157.12,-874.5 1163.12,-874.5 1163.12,-874.5 1194.88,-874.5 1194.88,-874.5 1200.88,-874.5 1206.88,-880.5 1206.88,-886.5 1206.88,-886.5 1206.88,-898.5 1206.88,-898.5 1206.88,-904.5 1200.88,-910.5 1194.88,-910.5"/>
<text xml:space="preserve" text-anchor="middle" x="1179" y="-889" font-family="Arial" font-size="10.00">Launcher</text>
</a>
</g>
</g>
<!-- Registry -->
<g id="node6" class="node">
<title>Registry</title>
<g id="a_node6"><a xlink:href="scheduler/10_scheduler.svg" xlink:title="Registry">
<path fill="#ede7f6" stroke="#512da8" d="M1194,-807C1194,-807 1164,-807 1164,-807 1158,-807 1152,-801 1152,-795 1152,-795 1152,-783 1152,-783 1152,-777 1158,-771 1164,-771 1164,-771 1194,-771 1194,-771 1200,-771 1206,-777 1206,-783 1206,-783 1206,-795 1206,-795 1206,-801 1200,-807 1194,-807"/>
<text xml:space="preserve" text-anchor="middle" x="1179" y="-785.5" font-family="Arial" font-size="10.00">Registry</text>
</a>
</g>
</g>
<!-- Launcher&#45;&gt;Registry -->
<g id="edge1" class="edge">
<title>Launcher&#45;&gt;Registry</title>
<path fill="none" stroke="black" d="M1179,-874.47C1179,-874.47 1179,-815.68 1179,-815.68"/>
<polygon fill="black" stroke="black" points="1181.45,-815.68 1179,-808.68 1176.55,-815.68 1181.45,-815.68"/>
</g>
<!-- Proxy -->
<g id="node7" class="node">
<title>Proxy</title>
<g id="a_node7"><a xlink:href="scheduler/10_scheduler.svg" xlink:title="Runtime proxy">
<path fill="#ede7f6" stroke="#512da8" d="M1212.88,-712C1212.88,-712 1145.12,-712 1145.12,-712 1139.12,-712 1133.12,-706 1133.12,-700 1133.12,-700 1133.12,-688 1133.12,-688 1133.12,-682 1139.12,-676 1145.12,-676 1145.12,-676 1212.88,-676 1212.88,-676 1218.88,-676 1224.88,-682 1224.88,-688 1224.88,-688 1224.88,-700 1224.88,-700 1224.88,-706 1218.88,-712 1212.88,-712"/>
<text xml:space="preserve" text-anchor="middle" x="1179" y="-696.5" font-family="Arial" font-size="10.00">ComponentProxy</text>
<text xml:space="preserve" text-anchor="middle" x="1179" y="-684.5" font-family="Arial" font-size="10.00">stateful</text>
</a>
</g>
</g>
<!-- Registry&#45;&gt;Proxy -->
<g id="edge2" class="edge">
<title>Registry&#45;&gt;Proxy</title>
<path fill="none" stroke="black" d="M1179,-770.68C1179,-770.68 1179,-720.77 1179,-720.77"/>
<polygon fill="black" stroke="black" points="1181.45,-720.77 1179,-713.77 1176.55,-720.77 1181.45,-720.77"/>
</g>
<!-- Scheduler -->
<g id="node8" class="node">
<title>Scheduler</title>
<g id="a_node8"><a xlink:href="scheduler/10_scheduler.svg" xlink:title="Zoom Scheduler">
<path fill="#ede7f6" stroke="#512da8" d="M1056.75,-599C1056.75,-599 1021.25,-599 1021.25,-599 1015.25,-599 1009.25,-593 1009.25,-587 1009.25,-587 1009.25,-575 1009.25,-575 1009.25,-569 1015.25,-563 1021.25,-563 1021.25,-563 1056.75,-563 1056.75,-563 1062.75,-563 1068.75,-569 1068.75,-575 1068.75,-575 1068.75,-587 1068.75,-587 1068.75,-593 1062.75,-599 1056.75,-599"/>
<text xml:space="preserve" text-anchor="middle" x="1039" y="-577.5" font-family="Arial" font-size="10.00">Scheduler</text>
</a>
</g>
</g>
<!-- Proxy&#45;&gt;Scheduler -->
<g id="edge3" class="edge">
<title>Proxy&#45;&gt;Scheduler</title>
<path fill="none" stroke="black" d="M1132.77,-685C1095.38,-685 1048.92,-685 1048.92,-685 1048.92,-685 1048.92,-607.63 1048.92,-607.63"/>
<polygon fill="black" stroke="black" points="1051.37,-607.63 1048.92,-600.63 1046.47,-607.63 1051.37,-607.63"/>
<text xml:space="preserve" text-anchor="middle" x="1099.25" y="-638.45" font-family="Arial" font-size="9.00">emit(Event)</text>
</g>
<!-- LifecycleContract -->
<g id="node14" class="node">
<title>LifecycleContract</title>
<path fill="#eceff1" stroke="#455a64" d="M1395.75,-155.5C1395.75,-155.5 1330.25,-155.5 1330.25,-155.5 1324.25,-155.5 1318.25,-149.5 1318.25,-143.5 1318.25,-143.5 1318.25,-131.5 1318.25,-131.5 1318.25,-125.5 1324.25,-119.5 1330.25,-119.5 1330.25,-119.5 1395.75,-119.5 1395.75,-119.5 1401.75,-119.5 1407.75,-125.5 1407.75,-131.5 1407.75,-131.5 1407.75,-143.5 1407.75,-143.5 1407.75,-149.5 1401.75,-155.5 1395.75,-155.5"/>
<text xml:space="preserve" text-anchor="middle" x="1363" y="-134" font-family="Arial" font-size="10.00">ComponentState</text>
</g>
<!-- Proxy&#45;&gt;LifecycleContract -->
<g id="edge10" class="edge">
<title>Proxy&#45;&gt;LifecycleContract</title>
<path fill="none" stroke="black" stroke-dasharray="1,5" d="M1224.96,-685C1279.46,-685 1363,-685 1363,-685 1363,-685 1363,-164.23 1363,-164.23"/>
<polygon fill="black" stroke="black" points="1365.45,-164.23 1363,-157.23 1360.55,-164.23 1365.45,-164.23"/>
</g>
<!-- ComponentContract -->
<g id="node15" class="node">
<title>ComponentContract</title>
<path fill="#eceff1" stroke="#455a64" d="M1498.12,-155.5C1498.12,-155.5 1455.88,-155.5 1455.88,-155.5 1449.88,-155.5 1443.88,-149.5 1443.88,-143.5 1443.88,-143.5 1443.88,-131.5 1443.88,-131.5 1443.88,-125.5 1449.88,-119.5 1455.88,-119.5 1455.88,-119.5 1498.12,-119.5 1498.12,-119.5 1504.12,-119.5 1510.12,-125.5 1510.12,-131.5 1510.12,-131.5 1510.12,-143.5 1510.12,-143.5 1510.12,-149.5 1504.12,-155.5 1498.12,-155.5"/>
<text xml:space="preserve" text-anchor="middle" x="1477" y="-134" font-family="Arial" font-size="10.00">Component</text>
</g>
<!-- Proxy&#45;&gt;ComponentContract -->
<g id="edge20" class="edge">
<title>Proxy&#45;&gt;ComponentContract</title>
<path fill="none" stroke="black" stroke-dasharray="1,5" d="M1225.24,-703C1308.94,-703 1477,-703 1477,-703 1477,-703 1477,-164.51 1477,-164.51"/>
<polygon fill="black" stroke="black" points="1479.45,-164.51 1477,-157.51 1474.55,-164.51 1479.45,-164.51"/>
</g>
<!-- Dummy -->
<g id="node35" class="node">
<title>Dummy</title>
<g id="a_node35"><a xlink:href="experts/40_experts.svg" xlink:title="DummyExpert\ncurrent">
<path fill="#e8f5e9" stroke="#388e3c" d="M1633.5,-599C1633.5,-599 1578.5,-599 1578.5,-599 1572.5,-599 1566.5,-593 1566.5,-587 1566.5,-587 1566.5,-575 1566.5,-575 1566.5,-569 1572.5,-563 1578.5,-563 1578.5,-563 1633.5,-563 1633.5,-563 1639.5,-563 1645.5,-569 1645.5,-575 1645.5,-575 1645.5,-587 1645.5,-587 1645.5,-593 1639.5,-599 1633.5,-599"/>
<text xml:space="preserve" text-anchor="middle" x="1606" y="-583.5" font-family="Arial" font-size="10.00">DummyExpert</text>
<text xml:space="preserve" text-anchor="middle" x="1606" y="-571.5" font-family="Arial" font-size="10.00">current</text>
</a>
</g>
</g>
<!-- Proxy&#45;&gt;Dummy -->
<g id="edge23" class="edge">
<title>Proxy&#45;&gt;Dummy</title>
<path fill="none" stroke="black" d="M1219.88,-675.85C1219.88,-645.32 1219.88,-587 1219.88,-587 1219.88,-587 1557.62,-587 1557.62,-587"/>
<polygon fill="black" stroke="black" points="1557.62,-589.45 1564.62,-587 1557.62,-584.55 1557.62,-589.45"/>
<text xml:space="preserve" text-anchor="middle" x="1608.62" y="-638.45" font-family="Arial" font-size="9.00">tick/asend</text>
</g>
<!-- Queue -->
<g id="node9" class="node">
<title>Queue</title>
<g id="a_node9"><a xlink:href="scheduler/10_scheduler.svg" xlink:title="PriorityQueue\nFIFO same priority">
<path fill="#ede7f6" stroke="#512da8" d="M1094.88,-486C1094.88,-486 1021.12,-486 1021.12,-486 1015.12,-486 1009.12,-480 1009.12,-474 1009.12,-474 1009.12,-462 1009.12,-462 1009.12,-456 1015.12,-450 1021.12,-450 1021.12,-450 1094.88,-450 1094.88,-450 1100.88,-450 1106.88,-456 1106.88,-462 1106.88,-462 1106.88,-474 1106.88,-474 1106.88,-480 1100.88,-486 1094.88,-486"/>
<text xml:space="preserve" text-anchor="middle" x="1058" y="-470.5" font-family="Arial" font-size="10.00">PriorityQueue</text>
<text xml:space="preserve" text-anchor="middle" x="1058" y="-458.5" font-family="Arial" font-size="10.00">FIFO same priority</text>
</a>
</g>
</g>
<!-- Scheduler&#45;&gt;Queue -->
<g id="edge4" class="edge">
<title>Scheduler&#45;&gt;Queue</title>
<path fill="none" stroke="black" d="M1039,-562.59C1039,-562.59 1039,-494.91 1039,-494.91"/>
<polygon fill="black" stroke="black" points="1041.45,-494.91 1039,-487.91 1036.55,-494.91 1041.45,-494.91"/>
<text xml:space="preserve" text-anchor="middle" x="1081.38" y="-525.45" font-family="Arial" font-size="9.00">put(priority, event)</text>
</g>
<!-- EventContract -->
<g id="node13" class="node">
<title>EventContract</title>
<path fill="#eceff1" stroke="#455a64" d="M1270.12,-155.5C1270.12,-155.5 1203.88,-155.5 1203.88,-155.5 1197.88,-155.5 1191.88,-149.5 1191.88,-143.5 1191.88,-143.5 1191.88,-131.5 1191.88,-131.5 1191.88,-125.5 1197.88,-119.5 1203.88,-119.5 1203.88,-119.5 1270.12,-119.5 1270.12,-119.5 1276.12,-119.5 1282.12,-125.5 1282.12,-131.5 1282.12,-131.5 1282.12,-143.5 1282.12,-143.5 1282.12,-149.5 1276.12,-155.5 1270.12,-155.5"/>
<text xml:space="preserve" text-anchor="middle" x="1237" y="-140" font-family="Arial" font-size="10.00">Event + Request</text>
<text xml:space="preserve" text-anchor="middle" x="1237" y="-128" font-family="Arial" font-size="10.00">uuid id</text>
</g>
<!-- Scheduler&#45;&gt;EventContract -->
<g id="edge19" class="edge">
<title>Scheduler&#45;&gt;EventContract</title>
<path fill="none" stroke="black" stroke-dasharray="1,5" d="M1068.85,-575C1127.84,-575 1253.69,-575 1253.69,-575 1253.69,-575 1253.69,-164.26 1253.69,-164.26"/>
<polygon fill="black" stroke="black" points="1256.14,-164.26 1253.69,-157.26 1251.24,-164.26 1256.14,-164.26"/>
</g>
<!-- ContextEngine -->
<g id="node18" class="node">
<title>ContextEngine</title>
<g id="a_node18"><a xlink:href="context/20_context.svg" xlink:title="ContextEngine">
<path fill="#fff3e0" stroke="#ef6c00" d="M537.25,-807C537.25,-807 480.75,-807 480.75,-807 474.75,-807 468.75,-801 468.75,-795 468.75,-795 468.75,-783 468.75,-783 468.75,-777 474.75,-771 480.75,-771 480.75,-771 537.25,-771 537.25,-771 543.25,-771 549.25,-777 549.25,-783 549.25,-783 549.25,-795 549.25,-795 549.25,-801 543.25,-807 537.25,-807"/>
<text xml:space="preserve" text-anchor="middle" x="509" y="-785.5" font-family="Arial" font-size="10.00">ContextEngine</text>
</a>
</g>
</g>
<!-- Scheduler&#45;&gt;ContextEngine -->
<g id="edge11" class="edge">
<title>Scheduler&#45;&gt;ContextEngine</title>
<path fill="none" stroke="black" d="M1029.08,-599.46C1029.08,-650.36 1029.08,-789 1029.08,-789 1029.08,-789 557.89,-789 557.89,-789"/>
<polygon fill="black" stroke="black" points="557.89,-786.55 550.89,-789 557.89,-791.45 557.89,-786.55"/>
<text xml:space="preserve" text-anchor="middle" x="649.38" y="-690.7" font-family="Arial" font-size="9.00">clock tick</text>
</g>
<!-- Dispatcher -->
<g id="node10" class="node">
<title>Dispatcher</title>
<g id="a_node10"><a xlink:href="scheduler/10_scheduler.svg" xlink:title="Dispatcher\nno handler = no block">
<path fill="#ede7f6" stroke="#512da8" d="M1202.88,-381.5C1202.88,-381.5 1117.12,-381.5 1117.12,-381.5 1111.12,-381.5 1105.12,-375.5 1105.12,-369.5 1105.12,-369.5 1105.12,-357.5 1105.12,-357.5 1105.12,-351.5 1111.12,-345.5 1117.12,-345.5 1117.12,-345.5 1202.88,-345.5 1202.88,-345.5 1208.88,-345.5 1214.88,-351.5 1214.88,-357.5 1214.88,-357.5 1214.88,-369.5 1214.88,-369.5 1214.88,-375.5 1208.88,-381.5 1202.88,-381.5"/>
<text xml:space="preserve" text-anchor="middle" x="1160" y="-366" font-family="Arial" font-size="10.00">Dispatcher</text>
<text xml:space="preserve" text-anchor="middle" x="1160" y="-354" font-family="Arial" font-size="10.00">no handler = no block</text>
</a>
</g>
</g>
<!-- Queue&#45;&gt;Dispatcher -->
<g id="edge5" class="edge">
<title>Queue&#45;&gt;Dispatcher</title>
<path fill="none" stroke="black" d="M1100.88,-449.84C1100.88,-418.59 1100.88,-358 1100.88,-358 1100.88,-358 1101.26,-358 1101.26,-358"/>
<polygon fill="black" stroke="black" points="1096.24,-360.45 1103.24,-358 1096.24,-355.55 1096.24,-360.45"/>
<text xml:space="preserve" text-anchor="middle" x="1102.12" y="-412.45" font-family="Arial" font-size="9.00">get(), FIFO if same priority</text>
</g>
<!-- Dispatcher&#45;&gt;Proxy -->
<g id="edge8" class="edge">
<title>Dispatcher&#45;&gt;Proxy</title>
<path fill="none" stroke="black" stroke-dasharray="5,2" d="M1174,-381.74C1174,-381.74 1174,-667.3 1174,-667.3"/>
<polygon fill="black" stroke="black" points="1171.55,-667.3 1174,-674.3 1176.45,-667.3 1171.55,-667.3"/>
<text xml:space="preserve" text-anchor="middle" x="1187.5" y="-525.45" font-family="Arial" font-size="9.00">Request.reply</text>
</g>
<!-- EventBus -->
<g id="node11" class="node">
<title>EventBus</title>
<g id="a_node11"><a xlink:href="scheduler/10_scheduler.svg" xlink:title="EventBus\nobservation only">
<path fill="#ede7f6" stroke="#512da8" d="M1084.62,-268.5C1084.62,-268.5 1021.38,-268.5 1021.38,-268.5 1015.38,-268.5 1009.38,-262.5 1009.38,-256.5 1009.38,-256.5 1009.38,-244.5 1009.38,-244.5 1009.38,-238.5 1015.38,-232.5 1021.38,-232.5 1021.38,-232.5 1084.62,-232.5 1084.62,-232.5 1090.62,-232.5 1096.62,-238.5 1096.62,-244.5 1096.62,-244.5 1096.62,-256.5 1096.62,-256.5 1096.62,-262.5 1090.62,-268.5 1084.62,-268.5"/>
<text xml:space="preserve" text-anchor="middle" x="1053" y="-253" font-family="Arial" font-size="10.00">EventBus</text>
<text xml:space="preserve" text-anchor="middle" x="1053" y="-241" font-family="Arial" font-size="10.00">observation only</text>
</a>
</g>
</g>
<!-- Dispatcher&#45;&gt;EventBus -->
<g id="edge7" class="edge">
<title>Dispatcher&#45;&gt;EventBus</title>
<path fill="none" stroke="black" d="M1118.94,-345.17C1118.94,-313.3 1118.94,-251 1118.94,-251 1118.94,-251 1105.49,-251 1105.49,-251"/>
<polygon fill="black" stroke="black" points="1105.49,-248.55 1098.49,-251 1105.49,-253.45 1105.49,-248.55"/>
<text xml:space="preserve" text-anchor="middle" x="1089.88" y="-307.95" font-family="Arial" font-size="9.00">publish copy</text>
</g>
<!-- Lifecycle -->
<g id="node12" class="node">
<title>Lifecycle</title>
<g id="a_node12"><a xlink:href="scheduler/10_scheduler.svg" xlink:title="LifecycleManager\nComponentState">
<path fill="#ede7f6" stroke="#512da8" d="M1213.25,-268.5C1213.25,-268.5 1144.75,-268.5 1144.75,-268.5 1138.75,-268.5 1132.75,-262.5 1132.75,-256.5 1132.75,-256.5 1132.75,-244.5 1132.75,-244.5 1132.75,-238.5 1138.75,-232.5 1144.75,-232.5 1144.75,-232.5 1213.25,-232.5 1213.25,-232.5 1219.25,-232.5 1225.25,-238.5 1225.25,-244.5 1225.25,-244.5 1225.25,-256.5 1225.25,-256.5 1225.25,-262.5 1219.25,-268.5 1213.25,-268.5"/>
<text xml:space="preserve" text-anchor="middle" x="1179" y="-253" font-family="Arial" font-size="10.00">LifecycleManager</text>
<text xml:space="preserve" text-anchor="middle" x="1179" y="-241" font-family="Arial" font-size="10.00">ComponentState</text>
</a>
</g>
</g>
<!-- Dispatcher&#45;&gt;Lifecycle -->
<g id="edge6" class="edge">
<title>Dispatcher&#45;&gt;Lifecycle</title>
<path fill="none" stroke="black" d="M1173.81,-345.09C1173.81,-345.09 1173.81,-277.41 1173.81,-277.41"/>
<polygon fill="black" stroke="black" points="1176.26,-277.41 1173.81,-270.41 1171.36,-277.41 1176.26,-277.41"/>
<text xml:space="preserve" text-anchor="middle" x="1184.75" y="-307.95" font-family="Arial" font-size="9.00">handler</text>
</g>
<!-- Collector -->
<g id="node19" class="node">
<title>Collector</title>
<g id="a_node19"><a xlink:href="context/20_context.svg" xlink:title="ContextCollector">
<path fill="#fff3e0" stroke="#ef6c00" d="M541.75,-712C541.75,-712 476.25,-712 476.25,-712 470.25,-712 464.25,-706 464.25,-700 464.25,-700 464.25,-688 464.25,-688 464.25,-682 470.25,-676 476.25,-676 476.25,-676 541.75,-676 541.75,-676 547.75,-676 553.75,-682 553.75,-688 553.75,-688 553.75,-700 553.75,-700 553.75,-706 547.75,-712 541.75,-712"/>
<text xml:space="preserve" text-anchor="middle" x="509" y="-690.5" font-family="Arial" font-size="10.00">ContextCollector</text>
</a>
</g>
</g>
<!-- Dispatcher&#45;&gt;Collector -->
<g id="edge14" class="edge">
<title>Dispatcher&#45;&gt;Collector</title>
<path fill="none" stroke="black" stroke-dasharray="5,2" d="M1120,-381.74C1120,-451.03 1120,-694 1120,-694 1120,-694 562.44,-694 562.44,-694"/>
<polygon fill="black" stroke="black" points="562.44,-691.55 555.44,-694 562.44,-696.45 562.44,-691.55"/>
<text xml:space="preserve" text-anchor="middle" x="637.5" y="-525.45" font-family="Arial" font-size="9.00">Request.reply</text>
</g>
<!-- InferenceHandler -->
<g id="node30" class="node">
<title>InferenceHandler</title>
<g id="a_node30"><a xlink:href="inference/40_inference.svg" xlink:title="InferenceRequestHandler">
<path fill="#fffde7" stroke="#f9a825" d="M1779.5,-268.5C1779.5,-268.5 1676.5,-268.5 1676.5,-268.5 1670.5,-268.5 1664.5,-262.5 1664.5,-256.5 1664.5,-256.5 1664.5,-244.5 1664.5,-244.5 1664.5,-238.5 1670.5,-232.5 1676.5,-232.5 1676.5,-232.5 1779.5,-232.5 1779.5,-232.5 1785.5,-232.5 1791.5,-238.5 1791.5,-244.5 1791.5,-244.5 1791.5,-256.5 1791.5,-256.5 1791.5,-262.5 1785.5,-268.5 1779.5,-268.5"/>
<text xml:space="preserve" text-anchor="middle" x="1728" y="-247" font-family="Arial" font-size="10.00">InferenceRequestHandler</text>
</a>
</g>
</g>
<!-- Dispatcher&#45;&gt;InferenceHandler -->
<g id="edge24" class="edge">
<title>Dispatcher&#45;&gt;InferenceHandler</title>
<path fill="none" stroke="black" d="M1215.36,-364C1352.81,-364 1698.62,-364 1698.62,-364 1698.62,-364 1698.62,-277.5 1698.62,-277.5"/>
<polygon fill="black" stroke="black" points="1701.08,-277.5 1698.63,-270.5 1696.18,-277.5 1701.08,-277.5"/>
<text xml:space="preserve" text-anchor="middle" x="1547.62" y="-307.95" font-family="Arial" font-size="9.00">INFERENCE_REQUEST</text>
</g>
<!-- Router -->
<g id="node24" class="node">
<title>Router</title>
<g id="a_node24"><a xlink:href="services/30_services.svg" xlink:title="Router">
<path fill="#e1f5fe" stroke="#0288d1" d="M560,-155.5C560,-155.5 530,-155.5 530,-155.5 524,-155.5 518,-149.5 518,-143.5 518,-143.5 518,-131.5 518,-131.5 518,-125.5 524,-119.5 530,-119.5 530,-119.5 560,-119.5 560,-119.5 566,-119.5 572,-125.5 572,-131.5 572,-131.5 572,-143.5 572,-143.5 572,-149.5 566,-155.5 560,-155.5"/>
<text xml:space="preserve" text-anchor="middle" x="545" y="-134" font-family="Arial" font-size="10.00">Router</text>
</a>
</g>
</g>
<!-- EventBus&#45;&gt;Router -->
<g id="edge43" class="edge">
<title>EventBus&#45;&gt;Router</title>
<path fill="none" stroke="black" stroke-dasharray="5,2" d="M1009.25,-261C895.06,-261 596.75,-261 596.75,-261 596.75,-261 596.75,-138 596.75,-138 596.75,-138 580.9,-138 580.9,-138"/>
<polygon fill="black" stroke="black" points="580.9,-135.55 573.9,-138 580.9,-140.45 580.9,-135.55"/>
<text xml:space="preserve" text-anchor="middle" x="821.25" y="-194.95" font-family="Arial" font-size="9.00">future events</text>
</g>
<!-- SQLiteProd -->
<g id="node25" class="node">
<title>SQLiteProd</title>
<g id="a_node25"><a xlink:href="services/30_services.svg" xlink:title="SQLite Production">
<path fill="#e1f5fe" stroke="#0288d1" d="M239.75,-155.5C239.75,-155.5 168.25,-155.5 168.25,-155.5 162.25,-155.5 156.25,-149.5 156.25,-143.5 156.25,-143.5 156.25,-131.5 156.25,-131.5 156.25,-125.5 162.25,-119.5 168.25,-119.5 168.25,-119.5 239.75,-119.5 239.75,-119.5 245.75,-119.5 251.75,-125.5 251.75,-131.5 251.75,-131.5 251.75,-143.5 251.75,-143.5 251.75,-149.5 245.75,-155.5 239.75,-155.5"/>
<text xml:space="preserve" text-anchor="middle" x="204" y="-134" font-family="Arial" font-size="10.00">SQLite Production</text>
</a>
</g>
</g>
<!-- EventBus&#45;&gt;SQLiteProd -->
<g id="edge44" class="edge">
<title>EventBus&#45;&gt;SQLiteProd</title>
<path fill="none" stroke="black" stroke-dasharray="5,2" d="M1015.58,-232.26C1015.58,-219.6 1015.58,-205 1015.58,-205 1015.58,-205 204,-205 204,-205 204,-205 204,-164.46 204,-164.46"/>
<polygon fill="black" stroke="black" points="206.45,-164.46 204,-157.46 201.55,-164.46 206.45,-164.46"/>
</g>
<!-- SQLiteMaint -->
<g id="node26" class="node">
<title>SQLiteMaint</title>
<g id="a_node26"><a xlink:href="services/30_services.svg" xlink:title="SQLite Maintenance">
<path fill="#e1f5fe" stroke="#0288d1" d="M380.25,-155.5C380.25,-155.5 299.75,-155.5 299.75,-155.5 293.75,-155.5 287.75,-149.5 287.75,-143.5 287.75,-143.5 287.75,-131.5 287.75,-131.5 287.75,-125.5 293.75,-119.5 299.75,-119.5 299.75,-119.5 380.25,-119.5 380.25,-119.5 386.25,-119.5 392.25,-125.5 392.25,-131.5 392.25,-131.5 392.25,-143.5 392.25,-143.5 392.25,-149.5 386.25,-155.5 380.25,-155.5"/>
<text xml:space="preserve" text-anchor="middle" x="340" y="-134" font-family="Arial" font-size="10.00">SQLite Maintenance</text>
</a>
</g>
</g>
<!-- EventBus&#45;&gt;SQLiteMaint -->
<g id="edge45" class="edge">
<title>EventBus&#45;&gt;SQLiteMaint</title>
<path fill="none" stroke="black" stroke-dasharray="5,2" d="M1018.69,-232.14C1018.69,-217 1018.69,-198 1018.69,-198 1018.69,-198 340,-198 340,-198 340,-198 340,-164.49 340,-164.49"/>
<polygon fill="black" stroke="black" points="342.45,-164.49 340,-157.49 337.55,-164.49 342.45,-164.49"/>
</g>
<!-- Qdrant -->
<g id="node27" class="node">
<title>Qdrant</title>
<g id="a_node27"><a xlink:href="services/30_services.svg" xlink:title="Qdrant">
<path fill="#e1f5fe" stroke="#0288d1" d="M470,-155.5C470,-155.5 440,-155.5 440,-155.5 434,-155.5 428,-149.5 428,-143.5 428,-143.5 428,-131.5 428,-131.5 428,-125.5 434,-119.5 440,-119.5 440,-119.5 470,-119.5 470,-119.5 476,-119.5 482,-125.5 482,-131.5 482,-131.5 482,-143.5 482,-143.5 482,-149.5 476,-155.5 470,-155.5"/>
<text xml:space="preserve" text-anchor="middle" x="455" y="-134" font-family="Arial" font-size="10.00">Qdrant</text>
</a>
</g>
</g>
<!-- EventBus&#45;&gt;Qdrant -->
<g id="edge46" class="edge">
<title>EventBus&#45;&gt;Qdrant</title>
<path fill="none" stroke="black" stroke-dasharray="5,2" d="M1021.79,-232.37C1021.79,-206.74 1021.79,-163 1021.79,-163 1021.79,-163 478.25,-163 478.25,-163 478.25,-163 478.25,-162.28 478.25,-162.28"/>
<polygon fill="black" stroke="black" points="480.7,-164.27 478.25,-157.27 475.8,-164.27 480.7,-164.27"/>
</g>
<!-- Cache -->
<g id="node28" class="node">
<title>Cache</title>
<g id="a_node28"><a xlink:href="services/30_services.svg" xlink:title="Cache">
<path fill="#e1f5fe" stroke="#0288d1" d="M650,-155.5C650,-155.5 620,-155.5 620,-155.5 614,-155.5 608,-149.5 608,-143.5 608,-143.5 608,-131.5 608,-131.5 608,-125.5 614,-119.5 620,-119.5 620,-119.5 650,-119.5 650,-119.5 656,-119.5 662,-125.5 662,-131.5 662,-131.5 662,-143.5 662,-143.5 662,-149.5 656,-155.5 650,-155.5"/>
<text xml:space="preserve" text-anchor="middle" x="635" y="-134" font-family="Arial" font-size="10.00">Cache</text>
</a>
</g>
</g>
<!-- EventBus&#45;&gt;Cache -->
<g id="edge47" class="edge">
<title>EventBus&#45;&gt;Cache</title>
<path fill="none" stroke="black" stroke-dasharray="5,2" d="M1009.26,-254C904.5,-254 647.88,-254 647.88,-254 647.88,-254 647.88,-164.47 647.88,-164.47"/>
<polygon fill="black" stroke="black" points="650.33,-164.47 647.88,-157.47 645.43,-164.47 650.33,-164.47"/>
</g>
<!-- Knowledge -->
<g id="node29" class="node">
<title>Knowledge</title>
<g id="a_node29"><a xlink:href="services/30_services.svg" xlink:title="Knowledge Manager">
<path fill="#e1f5fe" stroke="#0288d1" d="M108.25,-155.5C108.25,-155.5 27.75,-155.5 27.75,-155.5 21.75,-155.5 15.75,-149.5 15.75,-143.5 15.75,-143.5 15.75,-131.5 15.75,-131.5 15.75,-125.5 21.75,-119.5 27.75,-119.5 27.75,-119.5 108.25,-119.5 108.25,-119.5 114.25,-119.5 120.25,-125.5 120.25,-131.5 120.25,-131.5 120.25,-143.5 120.25,-143.5 120.25,-149.5 114.25,-155.5 108.25,-155.5"/>
<text xml:space="preserve" text-anchor="middle" x="68" y="-134" font-family="Arial" font-size="10.00">Knowledge Manager</text>
</a>
</g>
</g>
<!-- EventBus&#45;&gt;Knowledge -->
<g id="edge48" class="edge">
<title>EventBus&#45;&gt;Knowledge</title>
<path fill="none" stroke="black" stroke-dasharray="5,2" d="M1012.48,-232.15C1012.48,-222.24 1012.48,-212 1012.48,-212 1012.48,-212 68,-212 68,-212 68,-212 68,-164.43 68,-164.43"/>
<polygon fill="black" stroke="black" points="70.45,-164.43 68,-157.43 65.55,-164.43 70.45,-164.43"/>
</g>
<!-- Logger -->
<g id="node39" class="node">
<title>Logger</title>
<g id="a_node39"><a xlink:href="observability/70_observability.svg" xlink:title="Logger">
<path fill="#f5f5f5" stroke="#666666" d="M836,-155.5C836,-155.5 806,-155.5 806,-155.5 800,-155.5 794,-149.5 794,-143.5 794,-143.5 794,-131.5 794,-131.5 794,-125.5 800,-119.5 806,-119.5 806,-119.5 836,-119.5 836,-119.5 842,-119.5 848,-125.5 848,-131.5 848,-131.5 848,-143.5 848,-143.5 848,-149.5 842,-155.5 836,-155.5"/>
<text xml:space="preserve" text-anchor="middle" x="821" y="-134" font-family="Arial" font-size="10.00">Logger</text>
</a>
</g>
</g>
<!-- EventBus&#45;&gt;Logger -->
<g id="edge31" class="edge">
<title>EventBus&#45;&gt;Logger</title>
<path fill="none" stroke="black" stroke-dasharray="5,2" d="M1008.94,-247C943.95,-247 830,-247 830,-247 830,-247 830,-164.1 830,-164.1"/>
<polygon fill="black" stroke="black" points="832.45,-164.1 830,-157.1 827.55,-164.1 832.45,-164.1"/>
</g>
<!-- Metrics -->
<g id="node40" class="node">
<title>Metrics</title>
<g id="a_node40"><a xlink:href="observability/70_observability.svg" xlink:title="Metrics">
<path fill="#f5f5f5" stroke="#666666" d="M926,-155.5C926,-155.5 896,-155.5 896,-155.5 890,-155.5 884,-149.5 884,-143.5 884,-143.5 884,-131.5 884,-131.5 884,-125.5 890,-119.5 896,-119.5 896,-119.5 926,-119.5 926,-119.5 932,-119.5 938,-125.5 938,-131.5 938,-131.5 938,-143.5 938,-143.5 938,-149.5 932,-155.5 926,-155.5"/>
<text xml:space="preserve" text-anchor="middle" x="911" y="-134" font-family="Arial" font-size="10.00">Metrics</text>
</a>
</g>
</g>
<!-- EventBus&#45;&gt;Metrics -->
<g id="edge32" class="edge">
<title>EventBus&#45;&gt;Metrics</title>
<path fill="none" stroke="black" stroke-dasharray="5,2" d="M1009.24,-240C967.51,-240 911,-240 911,-240 911,-240 911,-164.34 911,-164.34"/>
<polygon fill="black" stroke="black" points="913.45,-164.34 911,-157.34 908.55,-164.34 913.45,-164.34"/>
</g>
<!-- Replay -->
<g id="node41" class="node">
<title>Replay</title>
<g id="a_node41"><a xlink:href="observability/70_observability.svg" xlink:title="Replay">
<path fill="#f5f5f5" stroke="#666666" d="M1016,-155.5C1016,-155.5 986,-155.5 986,-155.5 980,-155.5 974,-149.5 974,-143.5 974,-143.5 974,-131.5 974,-131.5 974,-125.5 980,-119.5 986,-119.5 986,-119.5 1016,-119.5 1016,-119.5 1022,-119.5 1028,-125.5 1028,-131.5 1028,-131.5 1028,-143.5 1028,-143.5 1028,-149.5 1022,-155.5 1016,-155.5"/>
<text xml:space="preserve" text-anchor="middle" x="1001" y="-134" font-family="Arial" font-size="10.00">Replay</text>
</a>
</g>
</g>
<!-- EventBus&#45;&gt;Replay -->
<g id="edge33" class="edge">
<title>EventBus&#45;&gt;Replay</title>
<path fill="none" stroke="black" stroke-dasharray="5,2" d="M1024.9,-232.09C1024.9,-232.09 1024.9,-164.41 1024.9,-164.41"/>
<polygon fill="black" stroke="black" points="1027.35,-164.41 1024.9,-157.41 1022.45,-164.41 1027.35,-164.41"/>
</g>
<!-- Lifecycle&#45;&gt;LifecycleContract -->
<g id="edge9" class="edge">
<title>Lifecycle&#45;&gt;LifecycleContract</title>
<path fill="none" stroke="black" stroke-dasharray="1,5" d="M1225.75,-245C1273.48,-245 1340.62,-245 1340.62,-245 1340.62,-245 1340.62,-164.25 1340.62,-164.25"/>
<polygon fill="black" stroke="black" points="1343.08,-164.25 1340.63,-157.25 1338.18,-164.25 1343.08,-164.25"/>
</g>
<!-- ContextContract -->
<g id="node16" class="node">
<title>ContextContract</title>
<path fill="#eceff1" stroke="#455a64" d="M1143.88,-155.5C1143.88,-155.5 1076.12,-155.5 1076.12,-155.5 1070.12,-155.5 1064.12,-149.5 1064.12,-143.5 1064.12,-143.5 1064.12,-131.5 1064.12,-131.5 1064.12,-125.5 1070.12,-119.5 1076.12,-119.5 1076.12,-119.5 1143.88,-119.5 1143.88,-119.5 1149.88,-119.5 1155.88,-125.5 1155.88,-131.5 1155.88,-131.5 1155.88,-143.5 1155.88,-143.5 1155.88,-149.5 1149.88,-155.5 1143.88,-155.5"/>
<text xml:space="preserve" text-anchor="middle" x="1110" y="-134" font-family="Arial" font-size="10.00">ContextSnapshot</text>
</g>
<!-- InferenceContract -->
<g id="node17" class="node">
<title>InferenceContract</title>
<path fill="#eceff1" stroke="#455a64" d="M1627.62,-155.5C1627.62,-155.5 1558.38,-155.5 1558.38,-155.5 1552.38,-155.5 1546.38,-149.5 1546.38,-143.5 1546.38,-143.5 1546.38,-131.5 1546.38,-131.5 1546.38,-125.5 1552.38,-119.5 1558.38,-119.5 1558.38,-119.5 1627.62,-119.5 1627.62,-119.5 1633.62,-119.5 1639.62,-125.5 1639.62,-131.5 1639.62,-131.5 1639.62,-143.5 1639.62,-143.5 1639.62,-149.5 1633.62,-155.5 1627.62,-155.5"/>
<text xml:space="preserve" text-anchor="middle" x="1593" y="-140" font-family="Arial" font-size="10.00">InferenceRequest</text>
<text xml:space="preserve" text-anchor="middle" x="1593" y="-128" font-family="Arial" font-size="10.00">InferenceResult</text>
</g>
<!-- ContextEngine&#45;&gt;ContextContract -->
<g id="edge21" class="edge">
<title>ContextEngine&#45;&gt;ContextContract</title>
<path fill="none" stroke="black" stroke-dasharray="1,5" d="M549.49,-780C567.84,-780 585.5,-780 585.5,-780 585.5,-780 585.5,-177 585.5,-177 585.5,-177 1074.96,-177 1074.96,-177 1074.96,-177 1074.96,-164.38 1074.96,-164.38"/>
<polygon fill="black" stroke="black" points="1077.41,-164.38 1074.96,-157.38 1072.51,-164.38 1077.41,-164.38"/>
</g>
<!-- ContextEngine&#45;&gt;Collector -->
<g id="edge12" class="edge">
<title>ContextEngine&#45;&gt;Collector</title>
<path fill="none" stroke="black" d="M509,-770.68C509,-770.68 509,-720.77 509,-720.77"/>
<polygon fill="black" stroke="black" points="511.45,-720.77 509,-713.77 506.55,-720.77 511.45,-720.77"/>
</g>
<!-- Collector&#45;&gt;Scheduler -->
<g id="edge13" class="edge">
<title>Collector&#45;&gt;Scheduler</title>
<path fill="none" stroke="black" d="M547.19,-675.72C547.19,-642.81 547.19,-577 547.19,-577 547.19,-577 1000.46,-577 1000.46,-577"/>
<polygon fill="black" stroke="black" points="1000.46,-579.45 1007.46,-577 1000.46,-574.55 1000.46,-579.45"/>
<text xml:space="preserve" text-anchor="middle" x="614.75" y="-638.45" font-family="Arial" font-size="9.00">CONTEXT_REQUEST</text>
</g>
<!-- Reducer -->
<g id="node20" class="node">
<title>Reducer</title>
<g id="a_node20"><a xlink:href="context/20_context.svg" xlink:title="ContextReducer">
<path fill="#fff3e0" stroke="#ef6c00" d="M528.62,-599C528.62,-599 465.38,-599 465.38,-599 459.38,-599 453.38,-593 453.38,-587 453.38,-587 453.38,-575 453.38,-575 453.38,-569 459.38,-563 465.38,-563 465.38,-563 528.62,-563 528.62,-563 534.62,-563 540.62,-569 540.62,-575 540.62,-575 540.62,-587 540.62,-587 540.62,-593 534.62,-599 528.62,-599"/>
<text xml:space="preserve" text-anchor="middle" x="497" y="-577.5" font-family="Arial" font-size="10.00">ContextReducer</text>
</a>
</g>
</g>
<!-- Collector&#45;&gt;Reducer -->
<g id="edge15" class="edge">
<title>Collector&#45;&gt;Reducer</title>
<path fill="none" stroke="black" d="M502.44,-675.59C502.44,-675.59 502.44,-607.91 502.44,-607.91"/>
<polygon fill="black" stroke="black" points="504.89,-607.91 502.44,-600.91 499.99,-607.91 504.89,-607.91"/>
</g>
<!-- Snapshot -->
<g id="node21" class="node">
<title>Snapshot</title>
<g id="a_node21"><a xlink:href="context/20_context.svg" xlink:title="GlobalContextSnapshot">
<path fill="#fff3e0" stroke="#ef6c00" d="M556.75,-486C556.75,-486 461.25,-486 461.25,-486 455.25,-486 449.25,-480 449.25,-474 449.25,-474 449.25,-462 449.25,-462 449.25,-456 455.25,-450 461.25,-450 461.25,-450 556.75,-450 556.75,-450 562.75,-450 568.75,-456 568.75,-462 568.75,-462 568.75,-474 568.75,-474 568.75,-480 562.75,-486 556.75,-486"/>
<text xml:space="preserve" text-anchor="middle" x="509" y="-464.5" font-family="Arial" font-size="10.00">GlobalContextSnapshot</text>
</a>
</g>
</g>
<!-- Reducer&#45;&gt;Snapshot -->
<g id="edge16" class="edge">
<title>Reducer&#45;&gt;Snapshot</title>
<path fill="none" stroke="black" d="M497,-562.59C497,-562.59 497,-494.91 497,-494.91"/>
<polygon fill="black" stroke="black" points="499.45,-494.91 497,-487.91 494.55,-494.91 499.45,-494.91"/>
</g>
<!-- InferenceCtx -->
<g id="node22" class="node">
<title>InferenceCtx</title>
<g id="a_node22"><a xlink:href="context/20_context.svg" xlink:title="InferenceContext">
<path fill="#fff3e0" stroke="#ef6c00" d="M553.5,-381.5C553.5,-381.5 486.5,-381.5 486.5,-381.5 480.5,-381.5 474.5,-375.5 474.5,-369.5 474.5,-369.5 474.5,-357.5 474.5,-357.5 474.5,-351.5 480.5,-345.5 486.5,-345.5 486.5,-345.5 553.5,-345.5 553.5,-345.5 559.5,-345.5 565.5,-351.5 565.5,-357.5 565.5,-357.5 565.5,-369.5 565.5,-369.5 565.5,-375.5 559.5,-381.5 553.5,-381.5"/>
<text xml:space="preserve" text-anchor="middle" x="520" y="-360" font-family="Arial" font-size="10.00">InferenceContext</text>
</a>
</g>
</g>
<!-- Snapshot&#45;&gt;InferenceCtx -->
<g id="edge17" class="edge">
<title>Snapshot&#45;&gt;InferenceCtx</title>
<path fill="none" stroke="black" d="M520,-449.8C520,-449.8 520,-390.36 520,-390.36"/>
<polygon fill="black" stroke="black" points="522.45,-390.36 520,-383.36 517.55,-390.36 522.45,-390.36"/>
</g>
<!-- Decision -->
<g id="node23" class="node">
<title>Decision</title>
<g id="a_node23"><a xlink:href="context/20_context.svg" xlink:title="DecisionEngine\nfuture">
<path fill="#fff3e0" stroke="#ef6c00" d="M557.12,-268.5C557.12,-268.5 496.88,-268.5 496.88,-268.5 490.88,-268.5 484.88,-262.5 484.88,-256.5 484.88,-256.5 484.88,-244.5 484.88,-244.5 484.88,-238.5 490.88,-232.5 496.88,-232.5 496.88,-232.5 557.12,-232.5 557.12,-232.5 563.12,-232.5 569.12,-238.5 569.12,-244.5 569.12,-244.5 569.12,-256.5 569.12,-256.5 569.12,-262.5 563.12,-268.5 557.12,-268.5"/>
<text xml:space="preserve" text-anchor="middle" x="527" y="-253" font-family="Arial" font-size="10.00">DecisionEngine</text>
<text xml:space="preserve" text-anchor="middle" x="527" y="-241" font-family="Arial" font-size="10.00">future</text>
</a>
</g>
</g>
<!-- InferenceCtx&#45;&gt;Decision -->
<g id="edge18" class="edge">
<title>InferenceCtx&#45;&gt;Decision</title>
<path fill="none" stroke="black" stroke-dasharray="5,2" d="M525.19,-345.09C525.19,-345.09 525.19,-277.41 525.19,-277.41"/>
<polygon fill="black" stroke="black" points="527.64,-277.41 525.19,-270.41 522.74,-277.41 527.64,-277.41"/>
<text xml:space="preserve" text-anchor="middle" x="534.62" y="-307.95" font-family="Arial" font-size="9.00">future</text>
</g>
<!-- OpenVINO -->
<g id="node33" class="node">
<title>OpenVINO</title>
<g id="a_node33"><a xlink:href="inference/40_inference.svg" xlink:title="OpenVINOBackend\nfuture">
<path fill="#fffde7" stroke="#f9a825" d="M1918.12,-268.5C1918.12,-268.5 1839.88,-268.5 1839.88,-268.5 1833.88,-268.5 1827.88,-262.5 1827.88,-256.5 1827.88,-256.5 1827.88,-244.5 1827.88,-244.5 1827.88,-238.5 1833.88,-232.5 1839.88,-232.5 1839.88,-232.5 1918.12,-232.5 1918.12,-232.5 1924.12,-232.5 1930.12,-238.5 1930.12,-244.5 1930.12,-244.5 1930.12,-256.5 1930.12,-256.5 1930.12,-262.5 1924.12,-268.5 1918.12,-268.5"/>
<text xml:space="preserve" text-anchor="middle" x="1879" y="-253" font-family="Arial" font-size="10.00">OpenVINOBackend</text>
<text xml:space="preserve" text-anchor="middle" x="1879" y="-241" font-family="Arial" font-size="10.00">future</text>
</a>
</g>
</g>
<!-- Decision&#45;&gt;OpenVINO -->
<g id="edge49" class="edge">
<title>Decision&#45;&gt;OpenVINO</title>
<path fill="none" stroke="black" stroke-dasharray="5,2" d="M552.08,-232.18C552.08,-228.64 552.08,-226 552.08,-226 552.08,-226 1834.62,-226 1834.62,-226 1834.62,-226 1834.62,-226.62 1834.62,-226.62"/>
<polygon fill="black" stroke="black" points="1832.18,-223.67 1834.63,-230.67 1837.08,-223.67 1832.18,-223.67"/>
</g>
<!-- MCTS -->
<g id="node34" class="node">
<title>MCTS</title>
<path fill="#fffde7" stroke="#f9a825" d="M2039.5,-268.5C2039.5,-268.5 1978.5,-268.5 1978.5,-268.5 1972.5,-268.5 1966.5,-262.5 1966.5,-256.5 1966.5,-256.5 1966.5,-244.5 1966.5,-244.5 1966.5,-238.5 1972.5,-232.5 1978.5,-232.5 1978.5,-232.5 2039.5,-232.5 2039.5,-232.5 2045.5,-232.5 2051.5,-238.5 2051.5,-244.5 2051.5,-244.5 2051.5,-256.5 2051.5,-256.5 2051.5,-262.5 2045.5,-268.5 2039.5,-268.5"/>
<text xml:space="preserve" text-anchor="middle" x="2009" y="-253" font-family="Arial" font-size="10.00">MCTS proposer</text>
<text xml:space="preserve" text-anchor="middle" x="2009" y="-241" font-family="Arial" font-size="10.00">future</text>
</g>
<!-- Decision&#45;&gt;MCTS -->
<g id="edge50" class="edge">
<title>Decision&#45;&gt;MCTS</title>
<path fill="none" stroke="black" stroke-dasharray="5,2" d="M535.04,-232.18C535.04,-225.25 535.04,-219 535.04,-219 535.04,-219 2011.06,-219 2011.06,-219 2011.06,-219 2011.06,-223.66 2011.06,-223.66"/>
<polygon fill="black" stroke="black" points="2008.61,-223.66 2011.06,-230.66 2013.51,-223.66 2008.61,-223.66"/>
</g>
<!-- InferenceHandler&#45;&gt;Proxy -->
<g id="edge28" class="edge">
<title>InferenceHandler&#45;&gt;Proxy</title>
<path fill="none" stroke="black" stroke-dasharray="5,2" d="M1664.36,-257C1565.27,-257 1385.38,-257 1385.38,-257 1385.38,-257 1385.38,-694 1385.38,-694 1385.38,-694 1233.83,-694 1233.83,-694"/>
<polygon fill="black" stroke="black" points="1233.83,-691.55 1226.83,-694 1233.83,-696.45 1233.83,-691.55"/>
<text xml:space="preserve" text-anchor="middle" x="1556.5" y="-464.7" font-family="Arial" font-size="9.00">Request.reply</text>
</g>
<!-- InferenceHandler&#45;&gt;InferenceContract -->
<g id="edge22" class="edge">
<title>InferenceHandler&#45;&gt;InferenceContract</title>
<path fill="none" stroke="black" stroke-dasharray="1,5" d="M1669.88,-232.17C1669.88,-200.3 1669.88,-138 1669.88,-138 1669.88,-138 1648.45,-138 1648.45,-138"/>
<polygon fill="black" stroke="black" points="1648.45,-135.55 1641.45,-138 1648.45,-140.45 1648.45,-135.55"/>
</g>
<!-- DummyBackend -->
<g id="node31" class="node">
<title>DummyBackend</title>
<g id="a_node31"><a xlink:href="inference/40_inference.svg" xlink:title="DummyInferenceBackend\ncurrent">
<path fill="#fffde7" stroke="#f9a825" d="M1958.62,-155.5C1958.62,-155.5 1853.38,-155.5 1853.38,-155.5 1847.38,-155.5 1841.38,-149.5 1841.38,-143.5 1841.38,-143.5 1841.38,-131.5 1841.38,-131.5 1841.38,-125.5 1847.38,-119.5 1853.38,-119.5 1853.38,-119.5 1958.62,-119.5 1958.62,-119.5 1964.62,-119.5 1970.62,-125.5 1970.62,-131.5 1970.62,-131.5 1970.62,-143.5 1970.62,-143.5 1970.62,-149.5 1964.62,-155.5 1958.62,-155.5"/>
<text xml:space="preserve" text-anchor="middle" x="1906" y="-140" font-family="Arial" font-size="10.00">DummyInferenceBackend</text>
<text xml:space="preserve" text-anchor="middle" x="1906" y="-128" font-family="Arial" font-size="10.00">current</text>
</a>
</g>
</g>
<!-- InferenceHandler&#45;&gt;DummyBackend -->
<g id="edge25" class="edge">
<title>InferenceHandler&#45;&gt;DummyBackend</title>
<path fill="none" stroke="black" d="M1791.94,-257C1808.39,-257 1821.54,-257 1821.54,-257 1821.54,-257 1821.54,-144 1821.54,-144 1821.54,-144 1832.62,-144 1832.62,-144"/>
<polygon fill="black" stroke="black" points="1832.62,-146.45 1839.62,-144 1832.62,-141.55 1832.62,-146.45"/>
<text xml:space="preserve" text-anchor="middle" x="1842.38" y="-194.95" font-family="Arial" font-size="9.00">infer(request)</text>
</g>
<!-- InferenceResult -->
<g id="node32" class="node">
<title>InferenceResult</title>
<g id="a_node32"><a xlink:href="inference/40_inference.svg" xlink:title="INFERENCE_RESULT\nobservable">
<path fill="#fffde7" stroke="#f9a825" d="M1782.75,-155.5C1782.75,-155.5 1687.25,-155.5 1687.25,-155.5 1681.25,-155.5 1675.25,-149.5 1675.25,-143.5 1675.25,-143.5 1675.25,-131.5 1675.25,-131.5 1675.25,-125.5 1681.25,-119.5 1687.25,-119.5 1687.25,-119.5 1782.75,-119.5 1782.75,-119.5 1788.75,-119.5 1794.75,-125.5 1794.75,-131.5 1794.75,-131.5 1794.75,-143.5 1794.75,-143.5 1794.75,-149.5 1788.75,-155.5 1782.75,-155.5"/>
<text xml:space="preserve" text-anchor="middle" x="1735" y="-140" font-family="Arial" font-size="10.00">INFERENCE_RESULT</text>
<text xml:space="preserve" text-anchor="middle" x="1735" y="-128" font-family="Arial" font-size="10.00">observable</text>
</a>
</g>
</g>
<!-- InferenceHandler&#45;&gt;InferenceResult -->
<g id="edge27" class="edge">
<title>InferenceHandler&#45;&gt;InferenceResult</title>
<path fill="none" stroke="black" d="M1752.75,-232.09C1752.75,-232.09 1752.75,-164.41 1752.75,-164.41"/>
<polygon fill="black" stroke="black" points="1755.2,-164.41 1752.75,-157.41 1750.3,-164.41 1755.2,-164.41"/>
<text xml:space="preserve" text-anchor="middle" x="1747.88" y="-194.95" font-family="Arial" font-size="9.00">publish copy</text>
</g>
<!-- DummyBackend&#45;&gt;InferenceHandler -->
<g id="edge26" class="edge">
<title>DummyBackend&#45;&gt;InferenceHandler</title>
<path fill="none" stroke="black" d="M1840.98,-132C1826.43,-132 1815.21,-132 1815.21,-132 1815.21,-132 1815.21,-245 1815.21,-245 1815.21,-245 1800.35,-245 1800.35,-245"/>
<polygon fill="black" stroke="black" points="1800.35,-242.55 1793.35,-245 1800.35,-247.45 1800.35,-242.55"/>
<text xml:space="preserve" text-anchor="middle" x="1943.25" y="-194.95" font-family="Arial" font-size="9.00">InferenceResult</text>
</g>
<!-- InferenceResult&#45;&gt;EventBus -->
<g id="edge29" class="edge">
<title>InferenceResult&#45;&gt;EventBus</title>
<path fill="none" stroke="black" stroke-dasharray="5,2" d="M1714,-155.91C1714,-171.39 1714,-191 1714,-191 1714,-191 1085.79,-191 1085.79,-191 1085.79,-191 1085.79,-223.81 1085.79,-223.81"/>
<polygon fill="black" stroke="black" points="1083.34,-223.81 1085.79,-230.81 1088.24,-223.81 1083.34,-223.81"/>
</g>
<!-- OpenVINO&#45;&gt;GPU -->
<g id="edge30" class="edge">
<title>OpenVINO&#45;&gt;GPU</title>
<path fill="none" stroke="black" stroke-dasharray="5,2" d="M1885.75,-232.23C1885.75,-208.48 1885.75,-170 1885.75,-170 1885.75,-170 2500,-170 2500,-170 2500,-170 2500,-164.16 2500,-164.16"/>
<polygon fill="black" stroke="black" points="2502.45,-164.16 2500,-157.16 2497.55,-164.16 2502.45,-164.16"/>
<text xml:space="preserve" text-anchor="middle" x="2272.62" y="-194.95" font-family="Arial" font-size="9.00">future</text>
</g>
<!-- Validation -->
<g id="node37" class="node">
<title>Validation</title>
<g id="a_node37"><a xlink:href="validation/50_validation.svg" xlink:title="Compiler &#45;&gt; Tests &#45;&gt; Validator">
<path fill="#f3e5f5" stroke="#7b1fa2" d="M1754.88,-486C1754.88,-486 1633.12,-486 1633.12,-486 1627.12,-486 1621.12,-480 1621.12,-474 1621.12,-474 1621.12,-462 1621.12,-462 1621.12,-456 1627.12,-450 1633.12,-450 1633.12,-450 1754.88,-450 1754.88,-450 1760.88,-450 1766.88,-456 1766.88,-462 1766.88,-462 1766.88,-474 1766.88,-474 1766.88,-480 1760.88,-486 1754.88,-486"/>
<text xml:space="preserve" text-anchor="middle" x="1694" y="-464.5" font-family="Arial" font-size="10.00">Compiler &#45;&gt; Tests &#45;&gt; Validator</text>
</a>
</g>
</g>
<!-- Dummy&#45;&gt;Validation -->
<g id="edge51" class="edge">
<title>Dummy&#45;&gt;Validation</title>
<path fill="none" stroke="black" stroke-dasharray="5,2" d="M1633.31,-562.59C1633.31,-562.59 1633.31,-494.91 1633.31,-494.91"/>
<polygon fill="black" stroke="black" points="1635.76,-494.91 1633.31,-487.91 1630.86,-494.91 1635.76,-494.91"/>
<text xml:space="preserve" text-anchor="middle" x="1661.62" y="-525.45" font-family="Arial" font-size="9.00">future</text>
</g>
<!-- ExpertsFuture -->
<g id="node36" class="node">
<title>ExpertsFuture</title>
<g id="a_node36"><a xlink:href="experts/40_experts.svg" xlink:title="Python / C / KiCad / Web\nfuture">
<path fill="#e8f5e9" stroke="#388e3c" d="M1796.88,-599C1796.88,-599 1693.12,-599 1693.12,-599 1687.12,-599 1681.12,-593 1681.12,-587 1681.12,-587 1681.12,-575 1681.12,-575 1681.12,-569 1687.12,-563 1693.12,-563 1693.12,-563 1796.88,-563 1796.88,-563 1802.88,-563 1808.88,-569 1808.88,-575 1808.88,-575 1808.88,-587 1808.88,-587 1808.88,-593 1802.88,-599 1796.88,-599"/>
<text xml:space="preserve" text-anchor="middle" x="1745" y="-583.5" font-family="Arial" font-size="10.00">Python / C / KiCad / Web</text>
<text xml:space="preserve" text-anchor="middle" x="1745" y="-571.5" font-family="Arial" font-size="10.00">future</text>
</a>
</g>
</g>
<!-- Learning -->
<g id="node38" class="node">
<title>Learning</title>
<g id="a_node38"><a xlink:href="learning/60_learning.svg" xlink:title="Metrics / Ranking / Patterns">
<path fill="#efebe9" stroke="#6d4c41" d="M1179.5,-52C1179.5,-52 1064.5,-52 1064.5,-52 1058.5,-52 1052.5,-46 1052.5,-40 1052.5,-40 1052.5,-28 1052.5,-28 1052.5,-22 1058.5,-16 1064.5,-16 1064.5,-16 1179.5,-16 1179.5,-16 1185.5,-16 1191.5,-22 1191.5,-28 1191.5,-28 1191.5,-40 1191.5,-40 1191.5,-46 1185.5,-52 1179.5,-52"/>
<text xml:space="preserve" text-anchor="middle" x="1122" y="-30.5" font-family="Arial" font-size="10.00">Metrics / Ranking / Patterns</text>
</a>
</g>
</g>
<!-- Metrics&#45;&gt;Learning -->
<g id="edge52" class="edge">
<title>Metrics&#45;&gt;Learning</title>
<path fill="none" stroke="black" stroke-dasharray="5,2" d="M920,-119.2C920,-104.4 920,-86 920,-86 920,-86 1058.31,-86 1058.31,-86 1058.31,-86 1058.31,-60.99 1058.31,-60.99"/>
<polygon fill="black" stroke="black" points="1060.76,-60.99 1058.31,-53.99 1055.86,-60.99 1060.76,-60.99"/>
</g>
<!-- Dashboard -->
<g id="node42" class="node">
<title>Dashboard</title>
<g id="a_node42"><a xlink:href="observability/70_observability.svg" xlink:title="Dashboard">
<path fill="#f5f5f5" stroke="#666666" d="M930.62,-52C930.62,-52 891.38,-52 891.38,-52 885.38,-52 879.38,-46 879.38,-40 879.38,-40 879.38,-28 879.38,-28 879.38,-22 885.38,-16 891.38,-16 891.38,-16 930.62,-16 930.62,-16 936.62,-16 942.62,-22 942.62,-28 942.62,-28 942.62,-40 942.62,-40 942.62,-46 936.62,-52 930.62,-52"/>
<text xml:space="preserve" text-anchor="middle" x="911" y="-30.5" font-family="Arial" font-size="10.00">Dashboard</text>
</a>
</g>
</g>
<!-- Metrics&#45;&gt;Dashboard -->
<g id="edge34" class="edge">
<title>Metrics&#45;&gt;Dashboard</title>
<path fill="none" stroke="black" stroke-dasharray="5,2" d="M902,-119.47C902,-119.47 902,-60.68 902,-60.68"/>
<polygon fill="black" stroke="black" points="904.45,-60.68 902,-53.68 899.55,-60.68 904.45,-60.68"/>
</g>
<!-- Watchdog -->
<g id="node43" class="node">
<title>Watchdog</title>
<g id="a_node43"><a xlink:href="observability/70_observability.svg" xlink:title="Watchdog">
<path fill="#f5f5f5" stroke="#666666" d="M745.75,-155.5C745.75,-155.5 710.25,-155.5 710.25,-155.5 704.25,-155.5 698.25,-149.5 698.25,-143.5 698.25,-143.5 698.25,-131.5 698.25,-131.5 698.25,-125.5 704.25,-119.5 710.25,-119.5 710.25,-119.5 745.75,-119.5 745.75,-119.5 751.75,-119.5 757.75,-125.5 757.75,-131.5 757.75,-131.5 757.75,-143.5 757.75,-143.5 757.75,-149.5 751.75,-155.5 745.75,-155.5"/>
<text xml:space="preserve" text-anchor="middle" x="728" y="-134" font-family="Arial" font-size="10.00">Watchdog</text>
</a>
</g>
</g>
<!-- Watchdog&#45;&gt;Scheduler -->
<g id="edge35" class="edge">
<title>Watchdog&#45;&gt;Scheduler</title>
<path fill="none" stroke="black" stroke-dasharray="5,2" d="M717,-155.81C717,-238.13 717,-570 717,-570 717,-570 1000.48,-570 1000.48,-570"/>
<polygon fill="black" stroke="black" points="1000.48,-572.45 1007.48,-570 1000.48,-567.55 1000.48,-572.45"/>
</g>
<!-- Pytest -->
<g id="node44" class="node">
<title>Pytest</title>
<g id="a_node44"><a xlink:href="tests/80_tests.svg" xlink:title="pytest suite\n10 tests">
<path fill="#e3f2fd" stroke="#1565c0" d="M845.5,-910.5C845.5,-910.5 802.5,-910.5 802.5,-910.5 796.5,-910.5 790.5,-904.5 790.5,-898.5 790.5,-898.5 790.5,-886.5 790.5,-886.5 790.5,-880.5 796.5,-874.5 802.5,-874.5 802.5,-874.5 845.5,-874.5 845.5,-874.5 851.5,-874.5 857.5,-880.5 857.5,-886.5 857.5,-886.5 857.5,-898.5 857.5,-898.5 857.5,-904.5 851.5,-910.5 845.5,-910.5"/>
<text xml:space="preserve" text-anchor="middle" x="824" y="-895" font-family="Arial" font-size="10.00">pytest suite</text>
<text xml:space="preserve" text-anchor="middle" x="824" y="-883" font-family="Arial" font-size="10.00">10 tests</text>
</a>
</g>
</g>
<!-- Pytest&#45;&gt;Proxy -->
<g id="edge38" class="edge">
<title>Pytest&#45;&gt;Proxy</title>
<path fill="none" stroke="black" stroke-dasharray="1,5" d="M855.6,-874.33C855.6,-826.9 855.6,-703 855.6,-703 855.6,-703 1124.15,-703 1124.15,-703"/>
<polygon fill="black" stroke="black" points="1124.15,-705.45 1131.15,-703 1124.15,-700.55 1124.15,-705.45"/>
</g>
<!-- Pytest&#45;&gt;Dispatcher -->
<g id="edge37" class="edge">
<title>Pytest&#45;&gt;Dispatcher</title>
<path fill="none" stroke="black" stroke-dasharray="1,5" d="M851.8,-874.21C851.8,-781.73 851.8,-370 851.8,-370 851.8,-370 1096.39,-370 1096.39,-370"/>
<polygon fill="black" stroke="black" points="1096.39,-372.45 1103.39,-370 1096.39,-367.55 1096.39,-372.45"/>
</g>
<!-- Pytest&#45;&gt;EventContract -->
<g id="edge36" class="edge">
<title>Pytest&#45;&gt;EventContract</title>
<path fill="none" stroke="black" stroke-dasharray="1,5" d="M849.9,-874.27C849.9,-763.38 849.9,-184 849.9,-184 849.9,-184 1208.56,-184 1208.56,-184 1208.56,-184 1208.56,-164.39 1208.56,-164.39"/>
<polygon fill="black" stroke="black" points="1211.01,-164.39 1208.56,-157.39 1206.11,-164.39 1211.01,-164.39"/>
</g>
<!-- Pytest&#45;&gt;ContextEngine -->
<g id="edge39" class="edge">
<title>Pytest&#45;&gt;ContextEngine</title>
<path fill="none" stroke="black" stroke-dasharray="1,5" d="M812,-874.28C812,-846.82 812,-798 812,-798 812,-798 558.06,-798 558.06,-798"/>
<polygon fill="black" stroke="black" points="558.06,-795.55 551.06,-798 558.06,-800.45 558.06,-795.55"/>
</g>
<!-- Pytest&#45;&gt;InferenceHandler -->
<g id="edge40" class="edge">
<title>Pytest&#45;&gt;InferenceHandler</title>
<path fill="none" stroke="black" stroke-dasharray="1,5" d="M853.7,-874.11C853.7,-786.54 853.7,-416 853.7,-416 853.7,-416 1732.75,-416 1732.75,-416 1732.75,-416 1732.75,-277.36 1732.75,-277.36"/>
<polygon fill="black" stroke="black" points="1735.2,-277.36 1732.75,-270.36 1730.3,-277.36 1735.2,-277.36"/>
</g>
<!-- CompileAll -->
<g id="node45" class="node">
<title>CompileAll</title>
<path fill="#e3f2fd" stroke="#1565c0" d="M621.75,-910.5C621.75,-910.5 586.25,-910.5 586.25,-910.5 580.25,-910.5 574.25,-904.5 574.25,-898.5 574.25,-898.5 574.25,-886.5 574.25,-886.5 574.25,-880.5 580.25,-874.5 586.25,-874.5 586.25,-874.5 621.75,-874.5 621.75,-874.5 627.75,-874.5 633.75,-880.5 633.75,-886.5 633.75,-886.5 633.75,-898.5 633.75,-898.5 633.75,-904.5 627.75,-910.5 621.75,-910.5"/>
<text xml:space="preserve" text-anchor="middle" x="604" y="-889" font-family="Arial" font-size="10.00">compileall</text>
</g>
<!-- CompileAll&#45;&gt;Scheduler -->
<g id="edge41" class="edge">
<title>CompileAll&#45;&gt;Scheduler</title>
<path fill="none" stroke="black" stroke-dasharray="1,5" d="M620.88,-874.19C620.88,-807.99 620.88,-585 620.88,-585 620.88,-585 1000.42,-585 1000.42,-585"/>
<polygon fill="black" stroke="black" points="1000.42,-587.45 1007.42,-585 1000.42,-582.55 1000.42,-587.45"/>
</g>
<!-- DotRender -->
<g id="node46" class="node">
<title>DotRender</title>
<path fill="#e3f2fd" stroke="#1565c0" d="M742.5,-910.5C742.5,-910.5 681.5,-910.5 681.5,-910.5 675.5,-910.5 669.5,-904.5 669.5,-898.5 669.5,-898.5 669.5,-886.5 669.5,-886.5 669.5,-880.5 675.5,-874.5 681.5,-874.5 681.5,-874.5 742.5,-874.5 742.5,-874.5 748.5,-874.5 754.5,-880.5 754.5,-886.5 754.5,-886.5 754.5,-898.5 754.5,-898.5 754.5,-904.5 748.5,-910.5 742.5,-910.5"/>
<text xml:space="preserve" text-anchor="middle" x="712" y="-889" font-family="Arial" font-size="10.00">Graphviz render</text>
</g>
<!-- DotRender&#45;&gt;Scheduler -->
<g id="edge42" class="edge">
<title>DotRender&#45;&gt;Scheduler</title>
<path fill="none" stroke="black" stroke-dasharray="1,5" d="M735.75,-874.15C735.75,-808.91 735.75,-592 735.75,-592 735.75,-592 1000.3,-592 1000.3,-592"/>
<polygon fill="black" stroke="black" points="1000.3,-594.45 1007.3,-592 1000.3,-589.55 1000.3,-594.45"/>
</g>
</g>
</svg>
