<?xml version="1.0" encoding="UTF-8" standalone="no"?>
<!DOCTYPE svg PUBLIC "-//W3C//DTD SVG 1.1//EN"
 "http://www.w3.org/Graphics/SVG/1.1/DTD/svg11.dtd">
<!-- Generated by graphviz version 14.1.3 (20260303.0454)
 -->
<!-- Title: Global Pages: 1 -->
<svg width="2787pt" height="1835pt"
 viewBox="0.00 0.00 2787.00 1835.00" xmlns="http://www.w3.org/2000/svg" xmlns:xlink="http://www.w3.org/1999/xlink">
<g id="graph0" class="graph" transform="scale(1 1) rotate(0) translate(4 1830.5)">
<title>Global</title>
<polygon fill="white" stroke="none" points="-4,4 -4,-1830.5 2783,-1830.5 2783,4 -4,4"/>
<g id="clust1" class="cluster">
<title>cluster_L0</title>
<polygon fill="#ffebee" stroke="#c62828" points="1489,-877 1489,-950.5 1975,-950.5 1975,-877 1489,-877"/>
<text xml:space="preserve" text-anchor="middle" x="1732" y="-936.05" font-family="Arial" font-size="11.00">Layer 0 — Hardware target</text>
</g>
<g id="clust2" class="cluster">
<title>cluster_L1</title>
<polygon fill="#ede7f6" stroke="#512da8" points="751,-990 751,-1818.5 1069,-1818.5 1069,-990 751,-990"/>
<text xml:space="preserve" text-anchor="middle" x="910" y="-1804.05" font-family="Arial" font-size="11.00">Layer 1 — MissiPy Micro&#45;Kernel Phase 2.1</text>
</g>
<g id="clust3" class="cluster">
<title>cluster_L2</title>
<polygon fill="#eceff1" stroke="#455a64" points="1508,-764 1508,-837.5 2357,-837.5 2357,-764 1508,-764"/>
<text xml:space="preserve" text-anchor="middle" x="1932.5" y="-823.05" font-family="Arial" font-size="11.00">Layer 2 — Contracts</text>
</g>
<g id="clust4" class="cluster">
<title>cluster_L3</title>
<polygon fill="#fff3e0" stroke="#ef6c00" points="8,-990 8,-1611.5 179,-1611.5 179,-990 8,-990"/>
<text xml:space="preserve" text-anchor="middle" x="93.5" y="-1597.05" font-family="Arial" font-size="11.00">Layer 3 — Context Fabric active</text>
</g>
<g id="clust5" class="cluster">
<title>cluster_L4</title>
<polygon fill="#e1f5fe" stroke="#0288d1" points="131,-877 131,-950.5 793,-950.5 793,-877 131,-877"/>
<text xml:space="preserve" text-anchor="middle" x="462" y="-936.05" font-family="Arial" font-size="11.00">Layer 4 — Independent Services future</text>
</g>
<g id="clust6" class="cluster">
<title>cluster_L5</title>
<polygon fill="#fffde7" stroke="#f9a825" points="1077,-764 1077,-1063.5 1481,-1063.5 1481,-764 1077,-764"/>
<text xml:space="preserve" text-anchor="middle" x="1279" y="-1049.05" font-family="Arial" font-size="11.00">Layer 5 — Inference Phase 2.1</text>
</g>
<g id="clust7" class="cluster">
<title>cluster_L6</title>
<polygon fill="#e8f5e9" stroke="#388e3c" points="2455,-1425 2455,-1498.5 2714,-1498.5 2714,-1425 2455,-1425"/>
<text xml:space="preserve" text-anchor="middle" x="2584.5" y="-1484.05" font-family="Arial" font-size="11.00">Layer 6 — Experts</text>
</g>
<g id="clust8" class="cluster">
<title>cluster_L7</title>
<polygon fill="#f3e5f5" stroke="#7b1fa2" points="2439,-1312 2439,-1385.5 2601,-1385.5 2601,-1312 2439,-1312"/>
<text xml:space="preserve" text-anchor="middle" x="2520" y="-1371.05" font-family="Arial" font-size="11.00">Layer 7 — Validation future</text>
</g>
<g id="clust9" class="cluster">
<title>cluster_L8</title>
<polygon fill="#efebe9" stroke="#6d4c41" points="2201,-546.5 2201,-620 2357,-620 2357,-546.5 2201,-546.5"/>
<text xml:space="preserve" text-anchor="middle" x="2279" y="-605.55" font-family="Arial" font-size="11.00">Layer 8 — Learning future</text>
</g>
<g id="clust10" class="cluster">
<title>cluster_L9</title>
<polygon fill="#f5f5f5" stroke="#666666" points="2365,-8 2365,-950.5 2771,-950.5 2771,-8 2365,-8"/>
<text xml:space="preserve" text-anchor="middle" x="2568" y="-936.05" font-family="Arial" font-size="11.00">Layer 9 — Observability</text>
</g>
<g id="clust11" class="cluster">
<title>cluster_L10</title>
<polygon fill="#e3f2fd" stroke="#1565c0" points="378,-1641.5 378,-1715 678,-1715 678,-1641.5 378,-1641.5"/>
<text xml:space="preserve" text-anchor="middle" x="528" y="-1700.55" font-family="Arial" font-size="11.00">Layer 10 — Test Harness Phase 2.1</text>
</g>
<!-- CPU -->
<g id="node1" class="node">
<title>CPU</title>
<path fill="#ffebee" stroke="#c62828" d="M1558.88,-921C1558.88,-921 1509.12,-921 1509.12,-921 1503.12,-921 1497.12,-915 1497.12,-909 1497.12,-909 1497.12,-897 1497.12,-897 1497.12,-891 1503.12,-885 1509.12,-885 1509.12,-885 1558.88,-885 1558.88,-885 1564.88,-885 1570.88,-891 1570.88,-897 1570.88,-897 1570.88,-909 1570.88,-909 1570.88,-915 1564.88,-921 1558.88,-921"/>
<text xml:space="preserve" text-anchor="middle" x="1534" y="-905.5" font-family="Arial" font-size="10.00">Intel i5&#45;11400</text>
<text xml:space="preserve" text-anchor="middle" x="1534" y="-893.5" font-family="Arial" font-size="10.00">CPU</text>
</g>
<!-- RAM -->
<g id="node2" class="node">
<title>RAM</title>
<path fill="#ffebee" stroke="#c62828" d="M1671.38,-921C1671.38,-921 1618.62,-921 1618.62,-921 1612.62,-921 1606.62,-915 1606.62,-909 1606.62,-909 1606.62,-897 1606.62,-897 1606.62,-891 1612.62,-885 1618.62,-885 1618.62,-885 1671.38,-885 1671.38,-885 1677.38,-885 1683.38,-891 1683.38,-897 1683.38,-897 1683.38,-909 1683.38,-909 1683.38,-915 1677.38,-921 1671.38,-921"/>
<text xml:space="preserve" text-anchor="middle" x="1645" y="-899.5" font-family="Arial" font-size="10.00">128GB DDR4</text>
</g>
<!-- Storage -->
<g id="node3" class="node">
<title>Storage</title>
<path fill="#ffebee" stroke="#c62828" d="M1826.75,-921C1826.75,-921 1731.25,-921 1731.25,-921 1725.25,-921 1719.25,-915 1719.25,-909 1719.25,-909 1719.25,-897 1719.25,-897 1719.25,-891 1725.25,-885 1731.25,-885 1731.25,-885 1826.75,-885 1826.75,-885 1832.75,-885 1838.75,-891 1838.75,-897 1838.75,-897 1838.75,-909 1838.75,-909 1838.75,-915 1832.75,-921 1826.75,-921"/>
<text xml:space="preserve" text-anchor="middle" x="1779" y="-905.5" font-family="Arial" font-size="10.00">ZFS</text>
<text xml:space="preserve" text-anchor="middle" x="1779" y="-893.5" font-family="Arial" font-size="10.00">NVMe + RAIDZ2 SATA</text>
</g>
<!-- GPU -->
<g id="node4" class="node">
<title>GPU</title>
<path fill="#ffebee" stroke="#c62828" d="M1954.88,-921C1954.88,-921 1887.12,-921 1887.12,-921 1881.12,-921 1875.12,-915 1875.12,-909 1875.12,-909 1875.12,-897 1875.12,-897 1875.12,-891 1881.12,-885 1887.12,-885 1887.12,-885 1954.88,-885 1954.88,-885 1960.88,-885 1966.88,-891 1966.88,-897 1966.88,-897 1966.88,-909 1966.88,-909 1966.88,-915 1960.88,-921 1954.88,-921"/>
<text xml:space="preserve" text-anchor="middle" x="1921" y="-905.5" font-family="Arial" font-size="10.00">Intel iGPU</text>
<text xml:space="preserve" text-anchor="middle" x="1921" y="-893.5" font-family="Arial" font-size="10.00">OpenVINO future</text>
</g>
<!-- Launcher -->
<g id="node5" class="node">
<title>Launcher</title>
<g id="a_node5"><a xlink:href="scheduler/10_scheduler.svg" xlink:title="Zoom Scheduler">
<path fill="#ede7f6" stroke="#512da8" d="M1014.88,-1789C1014.88,-1789 983.12,-1789 983.12,-1789 977.12,-1789 971.12,-1783 971.12,-1777 971.12,-1777 971.12,-1765 971.12,-1765 971.12,-1759 977.12,-1753 983.12,-1753 983.12,-1753 1014.88,-1753 1014.88,-1753 1020.88,-1753 1026.88,-1759 1026.88,-1765 1026.88,-1765 1026.88,-1777 1026.88,-1777 1026.88,-1783 1020.88,-1789 1014.88,-1789"/>
<text xml:space="preserve" text-anchor="middle" x="999" y="-1767.5" font-family="Arial" font-size="10.00">Launcher</text>
</a>
</g>
</g>
<!-- Registry -->
<g id="node6" class="node">
<title>Registry</title>
<g id="a_node6"><a xlink:href="scheduler/10_scheduler.svg" xlink:title="Registry">
<path fill="#ede7f6" stroke="#512da8" d="M1014,-1685.5C1014,-1685.5 984,-1685.5 984,-1685.5 978,-1685.5 972,-1679.5 972,-1673.5 972,-1673.5 972,-1661.5 972,-1661.5 972,-1655.5 978,-1649.5 984,-1649.5 984,-1649.5 1014,-1649.5 1014,-1649.5 1020,-1649.5 1026,-1655.5 1026,-1661.5 1026,-1661.5 1026,-1673.5 1026,-1673.5 1026,-1679.5 1020,-1685.5 1014,-1685.5"/>
<text xml:space="preserve" text-anchor="middle" x="999" y="-1664" font-family="Arial" font-size="10.00">Registry</text>
</a>
</g>
</g>
<!-- Launcher&#45;&gt;Registry -->
<g id="edge1" class="edge">
<title>Launcher&#45;&gt;Registry</title>
<path fill="none" stroke="black" d="M999,-1752.97C999,-1752.97 999,-1694.18 999,-1694.18"/>
<polygon fill="black" stroke="black" points="1001.45,-1694.18 999,-1687.18 996.55,-1694.18 1001.45,-1694.18"/>
</g>
<!-- Proxy -->
<g id="node7" class="node">
<title>Proxy</title>
<g id="a_node7"><a xlink:href="scheduler/10_scheduler.svg" xlink:title="Runtime proxy">
<path fill="#ede7f6" stroke="#512da8" d="M1032.88,-1582C1032.88,-1582 965.12,-1582 965.12,-1582 959.12,-1582 953.12,-1576 953.12,-1570 953.12,-1570 953.12,-1558 953.12,-1558 953.12,-1552 959.12,-1546 965.12,-1546 965.12,-1546 1032.88,-1546 1032.88,-1546 1038.88,-1546 1044.88,-1552 1044.88,-1558 1044.88,-1558 1044.88,-1570 1044.88,-1570 1044.88,-1576 1038.88,-1582 1032.88,-1582"/>
<text xml:space="preserve" text-anchor="middle" x="999" y="-1566.5" font-family="Arial" font-size="10.00">ComponentProxy</text>
<text xml:space="preserve" text-anchor="middle" x="999" y="-1554.5" font-family="Arial" font-size="10.00">stateful</text>
</a>
</g>
</g>
<!-- Registry&#45;&gt;Proxy -->
<g id="edge2" class="edge">
<title>Registry&#45;&gt;Proxy</title>
<path fill="none" stroke="black" d="M999,-1649.47C999,-1649.47 999,-1590.68 999,-1590.68"/>
<polygon fill="black" stroke="black" points="1001.45,-1590.68 999,-1583.68 996.55,-1590.68 1001.45,-1590.68"/>
</g>
<!-- Scheduler -->
<g id="node8" class="node">
<title>Scheduler</title>
<g id="a_node8"><a xlink:href="scheduler/10_scheduler.svg" xlink:title="Zoom Scheduler">
<path fill="#ede7f6" stroke="#512da8" d="M899.75,-1469C899.75,-1469 864.25,-1469 864.25,-1469 858.25,-1469 852.25,-1463 852.25,-1457 852.25,-1457 852.25,-1445 852.25,-1445 852.25,-1439 858.25,-1433 864.25,-1433 864.25,-1433 899.75,-1433 899.75,-1433 905.75,-1433 911.75,-1439 911.75,-1445 911.75,-1445 911.75,-1457 911.75,-1457 911.75,-1463 905.75,-1469 899.75,-1469"/>
<text xml:space="preserve" text-anchor="middle" x="882" y="-1447.5" font-family="Arial" font-size="10.00">Scheduler</text>
</a>
</g>
</g>
<!-- Proxy&#45;&gt;Scheduler -->
<g id="edge3" class="edge">
<title>Proxy&#45;&gt;Scheduler</title>
<path fill="none" stroke="black" d="M963.17,-1545.59C963.17,-1513.57 963.17,-1451 963.17,-1451 963.17,-1451 920.74,-1451 920.74,-1451"/>
<polygon fill="black" stroke="black" points="920.74,-1448.55 913.74,-1451 920.74,-1453.45 920.74,-1448.55"/>
<text xml:space="preserve" text-anchor="middle" x="930.25" y="-1508.45" font-family="Arial" font-size="9.00">emit(Event)</text>
</g>
<!-- LifecycleContract -->
<g id="node15" class="node">
<title>LifecycleContract</title>
<path fill="#eceff1" stroke="#455a64" d="M1847.75,-808C1847.75,-808 1782.25,-808 1782.25,-808 1776.25,-808 1770.25,-802 1770.25,-796 1770.25,-796 1770.25,-784 1770.25,-784 1770.25,-778 1776.25,-772 1782.25,-772 1782.25,-772 1847.75,-772 1847.75,-772 1853.75,-772 1859.75,-778 1859.75,-784 1859.75,-784 1859.75,-796 1859.75,-796 1859.75,-802 1853.75,-808 1847.75,-808"/>
<text xml:space="preserve" text-anchor="middle" x="1815" y="-786.5" font-family="Arial" font-size="10.00">ComponentState</text>
</g>
<!-- Proxy&#45;&gt;LifecycleContract -->
<g id="edge13" class="edge">
<title>Proxy&#45;&gt;LifecycleContract</title>
<path fill="none" stroke="black" stroke-dasharray="1,5" d="M1045.32,-1558C1222.75,-1558 1849.25,-1558 1849.25,-1558 1849.25,-1558 1849.25,-816.74 1849.25,-816.74"/>
<polygon fill="black" stroke="black" points="1851.7,-816.74 1849.25,-809.74 1846.8,-816.74 1851.7,-816.74"/>
</g>
<!-- ComponentContract -->
<g id="node16" class="node">
<title>ComponentContract</title>
<path fill="#eceff1" stroke="#455a64" d="M2201.12,-808C2201.12,-808 2158.88,-808 2158.88,-808 2152.88,-808 2146.88,-802 2146.88,-796 2146.88,-796 2146.88,-784 2146.88,-784 2146.88,-778 2152.88,-772 2158.88,-772 2158.88,-772 2201.12,-772 2201.12,-772 2207.12,-772 2213.12,-778 2213.12,-784 2213.12,-784 2213.12,-796 2213.12,-796 2213.12,-802 2207.12,-808 2201.12,-808"/>
<text xml:space="preserve" text-anchor="middle" x="2180" y="-786.5" font-family="Arial" font-size="10.00">Component</text>
</g>
<!-- Proxy&#45;&gt;ComponentContract -->
<g id="edge25" class="edge">
<title>Proxy&#45;&gt;ComponentContract</title>
<path fill="none" stroke="black" stroke-dasharray="1,5" d="M1045.3,-1570C1263.65,-1570 2180,-1570 2180,-1570 2180,-1570 2180,-816.65 2180,-816.65"/>
<polygon fill="black" stroke="black" points="2182.45,-816.65 2180,-809.65 2177.55,-816.65 2182.45,-816.65"/>
</g>
<!-- Dummy -->
<g id="node39" class="node">
<title>Dummy</title>
<g id="a_node39"><a xlink:href="experts/40_experts.svg" xlink:title="DummyExpert\ncurrent">
<path fill="#e8f5e9" stroke="#388e3c" d="M2530.5,-1469C2530.5,-1469 2475.5,-1469 2475.5,-1469 2469.5,-1469 2463.5,-1463 2463.5,-1457 2463.5,-1457 2463.5,-1445 2463.5,-1445 2463.5,-1439 2469.5,-1433 2475.5,-1433 2475.5,-1433 2530.5,-1433 2530.5,-1433 2536.5,-1433 2542.5,-1439 2542.5,-1445 2542.5,-1445 2542.5,-1457 2542.5,-1457 2542.5,-1463 2536.5,-1469 2530.5,-1469"/>
<text xml:space="preserve" text-anchor="middle" x="2503" y="-1453.5" font-family="Arial" font-size="10.00">DummyExpert</text>
<text xml:space="preserve" text-anchor="middle" x="2503" y="-1441.5" font-family="Arial" font-size="10.00">current</text>
</a>
</g>
</g>
<!-- Proxy&#45;&gt;Dummy -->
<g id="edge30" class="edge">
<title>Proxy&#45;&gt;Dummy</title>
<path fill="none" stroke="black" d="M1033.38,-1545.88C1033.38,-1516.09 1033.38,-1460 1033.38,-1460 1033.38,-1460 2454.8,-1460 2454.8,-1460"/>
<polygon fill="black" stroke="black" points="2454.8,-1462.45 2461.8,-1460 2454.8,-1457.55 2454.8,-1462.45"/>
<text xml:space="preserve" text-anchor="middle" x="2489.62" y="-1508.45" font-family="Arial" font-size="9.00">tick/asend</text>
</g>
<!-- Policy -->
<g id="node9" class="node">
<title>Policy</title>
<g id="a_node9"><a xlink:href="scheduler/10_scheduler.svg" xlink:title="PolicyEngine\npre&#45;queue gate">
<path fill="#ede7f6" stroke="#512da8" d="M971.25,-1356C971.25,-1356 914.75,-1356 914.75,-1356 908.75,-1356 902.75,-1350 902.75,-1344 902.75,-1344 902.75,-1332 902.75,-1332 902.75,-1326 908.75,-1320 914.75,-1320 914.75,-1320 971.25,-1320 971.25,-1320 977.25,-1320 983.25,-1326 983.25,-1332 983.25,-1332 983.25,-1344 983.25,-1344 983.25,-1350 977.25,-1356 971.25,-1356"/>
<text xml:space="preserve" text-anchor="middle" x="943" y="-1340.5" font-family="Arial" font-size="10.00">PolicyEngine</text>
<text xml:space="preserve" text-anchor="middle" x="943" y="-1328.5" font-family="Arial" font-size="10.00">pre&#45;queue gate</text>
</a>
</g>
</g>
<!-- Scheduler&#45;&gt;Policy -->
<g id="edge4" class="edge">
<title>Scheduler&#45;&gt;Policy</title>
<path fill="none" stroke="black" d="M905.75,-1432.59C905.75,-1432.59 905.75,-1364.91 905.75,-1364.91"/>
<polygon fill="black" stroke="black" points="908.2,-1364.91 905.75,-1357.91 903.3,-1364.91 908.2,-1364.91"/>
<text xml:space="preserve" text-anchor="middle" x="930.5" y="-1395.45" font-family="Arial" font-size="9.00">decide(Event)</text>
</g>
<!-- EventContract -->
<g id="node14" class="node">
<title>EventContract</title>
<path fill="#eceff1" stroke="#455a64" d="M1722.12,-808C1722.12,-808 1655.88,-808 1655.88,-808 1649.88,-808 1643.88,-802 1643.88,-796 1643.88,-796 1643.88,-784 1643.88,-784 1643.88,-778 1649.88,-772 1655.88,-772 1655.88,-772 1722.12,-772 1722.12,-772 1728.12,-772 1734.12,-778 1734.12,-784 1734.12,-784 1734.12,-796 1734.12,-796 1734.12,-802 1728.12,-808 1722.12,-808"/>
<text xml:space="preserve" text-anchor="middle" x="1689" y="-792.5" font-family="Arial" font-size="10.00">Event + Request</text>
<text xml:space="preserve" text-anchor="middle" x="1689" y="-780.5" font-family="Arial" font-size="10.00">uuid id</text>
</g>
<!-- Scheduler&#45;&gt;EventContract -->
<g id="edge22" class="edge">
<title>Scheduler&#45;&gt;EventContract</title>
<path fill="none" stroke="black" stroke-dasharray="1,5" d="M912.13,-1442C1059.95,-1442 1701.31,-1442 1701.31,-1442 1701.31,-1442 1701.31,-816.98 1701.31,-816.98"/>
<polygon fill="black" stroke="black" points="1703.76,-816.98 1701.31,-809.98 1698.86,-816.98 1703.76,-816.98"/>
</g>
<!-- ContextEngine -->
<g id="node21" class="node">
<title>ContextEngine</title>
<g id="a_node21"><a xlink:href="context/20_context.svg" xlink:title="ContextEngine">
<path fill="#fff3e0" stroke="#ef6c00" d="M139.25,-1582C139.25,-1582 82.75,-1582 82.75,-1582 76.75,-1582 70.75,-1576 70.75,-1570 70.75,-1570 70.75,-1558 70.75,-1558 70.75,-1552 76.75,-1546 82.75,-1546 82.75,-1546 139.25,-1546 139.25,-1546 145.25,-1546 151.25,-1552 151.25,-1558 151.25,-1558 151.25,-1570 151.25,-1570 151.25,-1576 145.25,-1582 139.25,-1582"/>
<text xml:space="preserve" text-anchor="middle" x="111" y="-1560.5" font-family="Arial" font-size="10.00">ContextEngine</text>
</a>
</g>
</g>
<!-- Scheduler&#45;&gt;ContextEngine -->
<g id="edge14" class="edge">
<title>Scheduler&#45;&gt;ContextEngine</title>
<path fill="none" stroke="black" d="M882,-1469.49C882,-1500.59 882,-1560 882,-1560 882,-1560 160.15,-1560 160.15,-1560"/>
<polygon fill="black" stroke="black" points="160.15,-1557.55 153.15,-1560 160.15,-1562.45 160.15,-1557.55"/>
<text xml:space="preserve" text-anchor="middle" x="432.38" y="-1508.45" font-family="Arial" font-size="9.00">clock tick</text>
</g>
<!-- KernelTelemetry -->
<g id="node44" class="node">
<title>KernelTelemetry</title>
<g id="a_node44"><a xlink:href="observability/70_observability.svg" xlink:title="KernelTelemetry&#10;current">
<path fill="#f5f5f5" stroke="#666666" d="M2655.25,-921C2655.25,-921 2592.75,-921 2592.75,-921 2586.75,-921 2580.75,-915 2580.75,-909 2580.75,-909 2580.75,-897 2580.75,-897 2580.75,-891 2586.75,-885 2592.75,-885 2592.75,-885 2655.25,-885 2655.25,-885 2661.25,-885 2667.25,-891 2667.25,-897 2667.25,-897 2667.25,-909 2667.25,-909 2667.25,-915 2661.25,-921 2655.25,-921"/>
<text xml:space="preserve" text-anchor="middle" x="2624" y="-905.5" font-family="Arial" font-size="10.00">KernelTelemetry</text>
<text xml:space="preserve" text-anchor="middle" x="2624" y="-893.5" font-family="Arial" font-size="10.00">current</text>
</a>
</g>
</g>
<!-- Scheduler&#45;&gt;KernelTelemetry -->
<g id="edge40" class="edge">
<title>Scheduler&#45;&gt;KernelTelemetry</title>
<path fill="none" stroke="black" stroke-dasharray="5,2" d="M876.69,-1432.72C876.69,-1387.5 876.69,-1274 876.69,-1274 876.69,-1274 2588.03,-1274 2588.03,-1274 2588.03,-1274 2588.03,-929.91 2588.03,-929.91"/>
<polygon fill="black" stroke="black" points="2590.48,-929.91 2588.03,-922.91 2585.58,-929.91 2590.48,-929.91"/>
<text xml:space="preserve" text-anchor="middle" x="1988.75" y="-1177.95" font-family="Arial" font-size="9.00">measure enqueue/dequeue/latency</text>
</g>
<!-- Policy&#45;&gt;Proxy -->
<g id="edge7" class="edge">
<title>Policy&#45;&gt;Proxy</title>
<path fill="none" stroke="black" stroke-dasharray="5,2" d="M973.21,-1356.49C973.21,-1356.49 973.21,-1537.05 973.21,-1537.05"/>
<polygon fill="black" stroke="black" points="970.76,-1537.05 973.21,-1544.05 975.66,-1537.05 970.76,-1537.05"/>
<text xml:space="preserve" text-anchor="middle" x="1022.62" y="-1447.7" font-family="Arial" font-size="9.00">denied &#45;&gt; Decision</text>
</g>
<!-- Queue -->
<g id="node10" class="node">
<title>Queue</title>
<g id="a_node10"><a xlink:href="scheduler/10_scheduler.svg" xlink:title="PriorityQueue\nFIFO same priority">
<path fill="#ede7f6" stroke="#512da8" d="M986.88,-1251.5C986.88,-1251.5 913.12,-1251.5 913.12,-1251.5 907.12,-1251.5 901.12,-1245.5 901.12,-1239.5 901.12,-1239.5 901.12,-1227.5 901.12,-1227.5 901.12,-1221.5 907.12,-1215.5 913.12,-1215.5 913.12,-1215.5 986.88,-1215.5 986.88,-1215.5 992.88,-1215.5 998.88,-1221.5 998.88,-1227.5 998.88,-1227.5 998.88,-1239.5 998.88,-1239.5 998.88,-1245.5 992.88,-1251.5 986.88,-1251.5"/>
<text xml:space="preserve" text-anchor="middle" x="950" y="-1236" font-family="Arial" font-size="10.00">PriorityQueue</text>
<text xml:space="preserve" text-anchor="middle" x="950" y="-1224" font-family="Arial" font-size="10.00">FIFO same priority</text>
</a>
</g>
</g>
<!-- Policy&#45;&gt;Queue -->
<g id="edge5" class="edge">
<title>Policy&#45;&gt;Queue</title>
<path fill="none" stroke="black" d="M929.58,-1319.8C929.58,-1319.8 929.58,-1260.36 929.58,-1260.36"/>
<polygon fill="black" stroke="black" points="932.03,-1260.36 929.58,-1253.36 927.13,-1260.36 932.03,-1260.36"/>
<text xml:space="preserve" text-anchor="middle" x="1001.88" y="-1282.45" font-family="Arial" font-size="9.00">allowed &#45;&gt; put(priority, event)</text>
</g>
<!-- EventBus -->
<g id="node12" class="node">
<title>EventBus</title>
<g id="a_node12"><a xlink:href="scheduler/10_scheduler.svg" xlink:title="EventBus\nobservation only">
<path fill="#ede7f6" stroke="#512da8" d="M834.62,-1034C834.62,-1034 771.38,-1034 771.38,-1034 765.38,-1034 759.38,-1028 759.38,-1022 759.38,-1022 759.38,-1010 759.38,-1010 759.38,-1004 765.38,-998 771.38,-998 771.38,-998 834.62,-998 834.62,-998 840.62,-998 846.62,-1004 846.62,-1010 846.62,-1010 846.62,-1022 846.62,-1022 846.62,-1028 840.62,-1034 834.62,-1034"/>
<text xml:space="preserve" text-anchor="middle" x="803" y="-1018.5" font-family="Arial" font-size="10.00">EventBus</text>
<text xml:space="preserve" text-anchor="middle" x="803" y="-1006.5" font-family="Arial" font-size="10.00">observation only</text>
</a>
</g>
</g>
<!-- Policy&#45;&gt;EventBus -->
<g id="edge6" class="edge">
<title>Policy&#45;&gt;EventBus</title>
<path fill="none" stroke="black" stroke-dasharray="5,2" d="M902.58,-1332C860.06,-1332 799.25,-1332 799.25,-1332 799.25,-1332 799.25,-1042.87 799.25,-1042.87"/>
<polygon fill="black" stroke="black" points="801.7,-1042.87 799.25,-1035.87 796.8,-1042.87 801.7,-1042.87"/>
<text xml:space="preserve" text-anchor="middle" x="859" y="-1177.95" font-family="Arial" font-size="9.00">denied &#45;&gt; POLICY_DENIED</text>
</g>
<!-- PolicyContract -->
<g id="node19" class="node">
<title>PolicyContract</title>
<path fill="#eceff1" stroke="#455a64" d="M2099.25,-808C2099.25,-808 2036.75,-808 2036.75,-808 2030.75,-808 2024.75,-802 2024.75,-796 2024.75,-796 2024.75,-784 2024.75,-784 2024.75,-778 2030.75,-772 2036.75,-772 2036.75,-772 2099.25,-772 2099.25,-772 2105.25,-772 2111.25,-778 2111.25,-784 2111.25,-784 2111.25,-796 2111.25,-796 2111.25,-802 2105.25,-808 2099.25,-808"/>
<text xml:space="preserve" text-anchor="middle" x="2068" y="-792.5" font-family="Arial" font-size="10.00">Decision</text>
<text xml:space="preserve" text-anchor="middle" x="2068" y="-780.5" font-family="Arial" font-size="10.00">allowed / denied</text>
</g>
<!-- Policy&#45;&gt;PolicyContract -->
<g id="edge23" class="edge">
<title>Policy&#45;&gt;PolicyContract</title>
<path fill="none" stroke="black" stroke-dasharray="1,5" d="M983.7,-1338C1185.39,-1338 2068,-1338 2068,-1338 2068,-1338 2068,-816.75 2068,-816.75"/>
<polygon fill="black" stroke="black" points="2070.45,-816.75 2068,-809.75 2065.55,-816.75 2070.45,-816.75"/>
</g>
<!-- Policy&#45;&gt;KernelTelemetry -->
<g id="edge41" class="edge">
<title>Policy&#45;&gt;KernelTelemetry</title>
<path fill="none" stroke="black" stroke-dasharray="5,2" d="M956.42,-1319.9C956.42,-1308.91 956.42,-1297 956.42,-1297 956.42,-1297 2590.45,-1297 2590.45,-1297 2590.45,-1297 2590.45,-929.99 2590.45,-929.99"/>
<polygon fill="black" stroke="black" points="2592.9,-929.99 2590.45,-922.99 2588,-929.99 2592.9,-929.99"/>
<text xml:space="preserve" text-anchor="middle" x="1782.62" y="-1125.7" font-family="Arial" font-size="9.00">denied count</text>
</g>
<!-- Dispatcher -->
<g id="node11" class="node">
<title>Dispatcher</title>
<g id="a_node11"><a xlink:href="scheduler/10_scheduler.svg" xlink:title="Dispatcher\nno handler = no block">
<path fill="#ede7f6" stroke="#512da8" d="M936.88,-1147C936.88,-1147 851.12,-1147 851.12,-1147 845.12,-1147 839.12,-1141 839.12,-1135 839.12,-1135 839.12,-1123 839.12,-1123 839.12,-1117 845.12,-1111 851.12,-1111 851.12,-1111 936.88,-1111 936.88,-1111 942.88,-1111 948.88,-1117 948.88,-1123 948.88,-1123 948.88,-1135 948.88,-1135 948.88,-1141 942.88,-1147 936.88,-1147"/>
<text xml:space="preserve" text-anchor="middle" x="894" y="-1131.5" font-family="Arial" font-size="10.00">Dispatcher</text>
<text xml:space="preserve" text-anchor="middle" x="894" y="-1119.5" font-family="Arial" font-size="10.00">no handler = no block</text>
</a>
</g>
</g>
<!-- Queue&#45;&gt;Dispatcher -->
<g id="edge8" class="edge">
<title>Queue&#45;&gt;Dispatcher</title>
<path fill="none" stroke="black" d="M925,-1215.3C925,-1215.3 925,-1155.86 925,-1155.86"/>
<polygon fill="black" stroke="black" points="927.45,-1155.86 925,-1148.86 922.55,-1155.86 927.45,-1155.86"/>
<text xml:space="preserve" text-anchor="middle" x="1009.12" y="-1177.95" font-family="Arial" font-size="9.00">get(), FIFO if same priority</text>
</g>
<!-- Dispatcher&#45;&gt;Proxy -->
<g id="edge11" class="edge">
<title>Dispatcher&#45;&gt;Proxy</title>
<path fill="none" stroke="black" stroke-dasharray="5,2" d="M949.12,-1135C979.2,-1135 1010.38,-1135 1010.38,-1135 1010.38,-1135 1010.38,-1537.05 1010.38,-1537.05"/>
<polygon fill="black" stroke="black" points="1007.93,-1537.05 1010.38,-1544.05 1012.83,-1537.05 1007.93,-1537.05"/>
<text xml:space="preserve" text-anchor="middle" x="823.5" y="-1334.7" font-family="Arial" font-size="9.00">Request.reply</text>
</g>
<!-- Dispatcher&#45;&gt;EventBus -->
<g id="edge10" class="edge">
<title>Dispatcher&#45;&gt;EventBus</title>
<path fill="none" stroke="black" d="M842.88,-1110.59C842.88,-1110.59 842.88,-1042.91 842.88,-1042.91"/>
<polygon fill="black" stroke="black" points="845.33,-1042.91 842.88,-1035.91 840.43,-1042.91 845.33,-1042.91"/>
<text xml:space="preserve" text-anchor="middle" x="869.88" y="-1073.45" font-family="Arial" font-size="9.00">publish copy</text>
</g>
<!-- Lifecycle -->
<g id="node13" class="node">
<title>Lifecycle</title>
<g id="a_node13"><a xlink:href="scheduler/10_scheduler.svg" xlink:title="LifecycleManager\nComponentState">
<path fill="#ede7f6" stroke="#512da8" d="M967.25,-1034C967.25,-1034 898.75,-1034 898.75,-1034 892.75,-1034 886.75,-1028 886.75,-1022 886.75,-1022 886.75,-1010 886.75,-1010 886.75,-1004 892.75,-998 898.75,-998 898.75,-998 967.25,-998 967.25,-998 973.25,-998 979.25,-1004 979.25,-1010 979.25,-1010 979.25,-1022 979.25,-1022 979.25,-1028 973.25,-1034 967.25,-1034"/>
<text xml:space="preserve" text-anchor="middle" x="933" y="-1018.5" font-family="Arial" font-size="10.00">LifecycleManager</text>
<text xml:space="preserve" text-anchor="middle" x="933" y="-1006.5" font-family="Arial" font-size="10.00">ComponentState</text>
</a>
</g>
</g>
<!-- Dispatcher&#45;&gt;Lifecycle -->
<g id="edge9" class="edge">
<title>Dispatcher&#45;&gt;Lifecycle</title>
<path fill="none" stroke="black" d="M917.81,-1110.59C917.81,-1110.59 917.81,-1042.91 917.81,-1042.91"/>
<polygon fill="black" stroke="black" points="920.26,-1042.91 917.81,-1035.91 915.36,-1042.91 920.26,-1042.91"/>
<text xml:space="preserve" text-anchor="middle" x="952.75" y="-1073.45" font-family="Arial" font-size="9.00">handler</text>
</g>
<!-- Collector -->
<g id="node22" class="node">
<title>Collector</title>
<g id="a_node22"><a xlink:href="context/20_context.svg" xlink:title="ContextCollector">
<path fill="#fff3e0" stroke="#ef6c00" d="M143.75,-1469C143.75,-1469 78.25,-1469 78.25,-1469 72.25,-1469 66.25,-1463 66.25,-1457 66.25,-1457 66.25,-1445 66.25,-1445 66.25,-1439 72.25,-1433 78.25,-1433 78.25,-1433 143.75,-1433 143.75,-1433 149.75,-1433 155.75,-1439 155.75,-1445 155.75,-1445 155.75,-1457 155.75,-1457 155.75,-1463 149.75,-1469 143.75,-1469"/>
<text xml:space="preserve" text-anchor="middle" x="111" y="-1447.5" font-family="Arial" font-size="10.00">ContextCollector</text>
</a>
</g>
</g>
<!-- Dispatcher&#45;&gt;Collector -->
<g id="edge17" class="edge">
<title>Dispatcher&#45;&gt;Collector</title>
<path fill="none" stroke="black" stroke-dasharray="5,2" d="M845.69,-1147.06C845.69,-1213.44 845.69,-1440 845.69,-1440 845.69,-1440 164.64,-1440 164.64,-1440"/>
<polygon fill="black" stroke="black" points="164.64,-1437.55 157.64,-1440 164.64,-1442.45 164.64,-1437.55"/>
<text xml:space="preserve" text-anchor="middle" x="222.5" y="-1282.45" font-family="Arial" font-size="9.00">Request.reply</text>
</g>
<!-- InferenceHandler -->
<g id="node33" class="node">
<title>InferenceHandler</title>
<g id="a_node33"><a xlink:href="inference/40_inference.svg" xlink:title="InferenceRequestHandler">
<path fill="#fffde7" stroke="#f9a825" d="M1200.5,-1034C1200.5,-1034 1097.5,-1034 1097.5,-1034 1091.5,-1034 1085.5,-1028 1085.5,-1022 1085.5,-1022 1085.5,-1010 1085.5,-1010 1085.5,-1004 1091.5,-998 1097.5,-998 1097.5,-998 1200.5,-998 1200.5,-998 1206.5,-998 1212.5,-1004 1212.5,-1010 1212.5,-1010 1212.5,-1022 1212.5,-1022 1212.5,-1028 1206.5,-1034 1200.5,-1034"/>
<text xml:space="preserve" text-anchor="middle" x="1149" y="-1012.5" font-family="Arial" font-size="10.00">InferenceRequestHandler</text>
</a>
</g>
</g>
<!-- Dispatcher&#45;&gt;InferenceHandler -->
<g id="edge31" class="edge">
<title>Dispatcher&#45;&gt;InferenceHandler</title>
<path fill="none" stroke="black" d="M949.12,-1123C1018.25,-1123 1127.83,-1123 1127.83,-1123 1127.83,-1123 1127.83,-1042.66 1127.83,-1042.66"/>
<polygon fill="black" stroke="black" points="1130.28,-1042.66 1127.83,-1035.66 1125.38,-1042.66 1130.28,-1042.66"/>
<text xml:space="preserve" text-anchor="middle" x="1129.62" y="-1073.45" font-family="Arial" font-size="9.00">INFERENCE_REQUEST</text>
</g>
<!-- Router -->
<g id="node27" class="node">
<title>Router</title>
<g id="a_node27"><a xlink:href="services/30_services.svg" xlink:title="Router">
<path fill="#e1f5fe" stroke="#0288d1" d="M411,-921C411,-921 381,-921 381,-921 375,-921 369,-915 369,-909 369,-909 369,-897 369,-897 369,-891 375,-885 381,-885 381,-885 411,-885 411,-885 417,-885 423,-891 423,-897 423,-897 423,-909 423,-909 423,-915 417,-921 411,-921"/>
<text xml:space="preserve" text-anchor="middle" x="396" y="-899.5" font-family="Arial" font-size="10.00">Router</text>
</a>
</g>
</g>
<!-- EventBus&#45;&gt;Router -->
<g id="edge75" class="edge">
<title>EventBus&#45;&gt;Router</title>
<path fill="none" stroke="black" stroke-dasharray="5,2" d="M758.96,-1016C654.17,-1016 398.67,-1016 398.67,-1016 398.67,-1016 398.67,-929.92 398.67,-929.92"/>
<polygon fill="black" stroke="black" points="401.12,-929.92 398.67,-922.92 396.22,-929.92 401.12,-929.92"/>
<text xml:space="preserve" text-anchor="middle" x="439.25" y="-960.45" font-family="Arial" font-size="9.00">future events</text>
</g>
<!-- SQLiteProd -->
<g id="node28" class="node">
<title>SQLiteProd</title>
<g id="a_node28"><a xlink:href="services/30_services.svg" xlink:title="SQLite Production">
<path fill="#e1f5fe" stroke="#0288d1" d="M542.75,-921C542.75,-921 471.25,-921 471.25,-921 465.25,-921 459.25,-915 459.25,-909 459.25,-909 459.25,-897 459.25,-897 459.25,-891 465.25,-885 471.25,-885 471.25,-885 542.75,-885 542.75,-885 548.75,-885 554.75,-891 554.75,-897 554.75,-897 554.75,-909 554.75,-909 554.75,-915 548.75,-921 542.75,-921"/>
<text xml:space="preserve" text-anchor="middle" x="507" y="-899.5" font-family="Arial" font-size="10.00">SQLite Production</text>
</a>
</g>
</g>
<!-- EventBus&#45;&gt;SQLiteProd -->
<g id="edge76" class="edge">
<title>EventBus&#45;&gt;SQLiteProd</title>
<path fill="none" stroke="black" stroke-dasharray="5,2" d="M759.11,-1010C680.12,-1010 522.12,-1010 522.12,-1010 522.12,-1010 522.12,-929.66 522.12,-929.66"/>
<polygon fill="black" stroke="black" points="524.58,-929.66 522.13,-922.66 519.68,-929.66 524.58,-929.66"/>
</g>
<!-- SQLiteMaint -->
<g id="node29" class="node">
<title>SQLiteMaint</title>
<g id="a_node29"><a xlink:href="services/30_services.svg" xlink:title="SQLite Maintenance">
<path fill="#e1f5fe" stroke="#0288d1" d="M683.25,-921C683.25,-921 602.75,-921 602.75,-921 596.75,-921 590.75,-915 590.75,-909 590.75,-909 590.75,-897 590.75,-897 590.75,-891 596.75,-885 602.75,-885 602.75,-885 683.25,-885 683.25,-885 689.25,-885 695.25,-891 695.25,-897 695.25,-897 695.25,-909 695.25,-909 695.25,-915 689.25,-921 683.25,-921"/>
<text xml:space="preserve" text-anchor="middle" x="643" y="-899.5" font-family="Arial" font-size="10.00">SQLite Maintenance</text>
</a>
</g>
</g>
<!-- EventBus&#45;&gt;SQLiteMaint -->
<g id="edge77" class="edge">
<title>EventBus&#45;&gt;SQLiteMaint</title>
<path fill="none" stroke="black" stroke-dasharray="5,2" d="M759.16,-1004C724.7,-1004 682.5,-1004 682.5,-1004 682.5,-1004 682.5,-929.57 682.5,-929.57"/>
<polygon fill="black" stroke="black" points="684.95,-929.57 682.5,-922.57 680.05,-929.57 684.95,-929.57"/>
</g>
<!-- Qdrant -->
<g id="node30" class="node">
<title>Qdrant</title>
<g id="a_node30"><a xlink:href="services/30_services.svg" xlink:title="Qdrant">
<path fill="#e1f5fe" stroke="#0288d1" d="M773,-921C773,-921 743,-921 743,-921 737,-921 731,-915 731,-909 731,-909 731,-897 731,-897 731,-891 737,-885 743,-885 743,-885 773,-885 773,-885 779,-885 785,-891 785,-897 785,-897 785,-909 785,-909 785,-915 779,-921 773,-921"/>
<text xml:space="preserve" text-anchor="middle" x="758" y="-899.5" font-family="Arial" font-size="10.00">Qdrant</text>
</a>
</g>
</g>
<!-- EventBus&#45;&gt;Qdrant -->
<g id="edge78" class="edge">
<title>EventBus&#45;&gt;Qdrant</title>
<path fill="none" stroke="black" stroke-dasharray="5,2" d="M772.19,-997.59C772.19,-997.59 772.19,-929.91 772.19,-929.91"/>
<polygon fill="black" stroke="black" points="774.64,-929.91 772.19,-922.91 769.74,-929.91 774.64,-929.91"/>
</g>
<!-- Cache -->
<g id="node31" class="node">
<title>Cache</title>
<g id="a_node31"><a xlink:href="services/30_services.svg" xlink:title="Cache">
<path fill="#e1f5fe" stroke="#0288d1" d="M181,-921C181,-921 151,-921 151,-921 145,-921 139,-915 139,-909 139,-909 139,-897 139,-897 139,-891 145,-885 151,-885 151,-885 181,-885 181,-885 187,-885 193,-891 193,-897 193,-897 193,-909 193,-909 193,-915 187,-921 181,-921"/>
<text xml:space="preserve" text-anchor="middle" x="166" y="-899.5" font-family="Arial" font-size="10.00">Cache</text>
</a>
</g>
</g>
<!-- EventBus&#45;&gt;Cache -->
<g id="edge79" class="edge">
<title>EventBus&#45;&gt;Cache</title>
<path fill="none" stroke="black" stroke-dasharray="5,2" d="M759.1,-1028C618.07,-1028 185.71,-1028 185.71,-1028 185.71,-1028 185.71,-929.96 185.71,-929.96"/>
<polygon fill="black" stroke="black" points="188.16,-929.96 185.71,-922.96 183.26,-929.96 188.16,-929.96"/>
</g>
<!-- Knowledge -->
<g id="node32" class="node">
<title>Knowledge</title>
<g id="a_node32"><a xlink:href="services/30_services.svg" xlink:title="Knowledge Manager">
<path fill="#e1f5fe" stroke="#0288d1" d="M321.25,-921C321.25,-921 240.75,-921 240.75,-921 234.75,-921 228.75,-915 228.75,-909 228.75,-909 228.75,-897 228.75,-897 228.75,-891 234.75,-885 240.75,-885 240.75,-885 321.25,-885 321.25,-885 327.25,-885 333.25,-891 333.25,-897 333.25,-897 333.25,-909 333.25,-909 333.25,-915 327.25,-921 321.25,-921"/>
<text xml:space="preserve" text-anchor="middle" x="281" y="-899.5" font-family="Arial" font-size="10.00">Knowledge Manager</text>
</a>
</g>
</g>
<!-- EventBus&#45;&gt;Knowledge -->
<g id="edge80" class="edge">
<title>EventBus&#45;&gt;Knowledge</title>
<path fill="none" stroke="black" stroke-dasharray="5,2" d="M758.94,-1022C633.1,-1022 281,-1022 281,-1022 281,-1022 281,-929.85 281,-929.85"/>
<polygon fill="black" stroke="black" points="283.45,-929.85 281,-922.85 278.55,-929.85 283.45,-929.85"/>
</g>
<!-- Logger -->
<g id="node43" class="node">
<title>Logger</title>
<g id="a_node43"><a xlink:href="observability/70_observability.svg" xlink:title="Logger">
<path fill="#f5f5f5" stroke="#666666" d="M2415,-921C2415,-921 2385,-921 2385,-921 2379,-921 2373,-915 2373,-909 2373,-909 2373,-897 2373,-897 2373,-891 2379,-885 2385,-885 2385,-885 2415,-885 2415,-885 2421,-885 2427,-891 2427,-897 2427,-897 2427,-909 2427,-909 2427,-915 2421,-921 2415,-921"/>
<text xml:space="preserve" text-anchor="middle" x="2400" y="-899.5" font-family="Arial" font-size="10.00">Logger</text>
</a>
</g>
</g>
<!-- EventBus&#45;&gt;Logger -->
<g id="edge45" class="edge">
<title>EventBus&#45;&gt;Logger</title>
<path fill="none" stroke="black" stroke-dasharray="5,2" d="M797.33,-997.7C797.33,-979.73 797.33,-955 797.33,-955 797.33,-955 2400,-955 2400,-955 2400,-955 2400,-929.99 2400,-929.99"/>
<polygon fill="black" stroke="black" points="2402.45,-929.99 2400,-922.99 2397.55,-929.99 2402.45,-929.99"/>
</g>
<!-- EventRecorder -->
<g id="node46" class="node">
<title>EventRecorder</title>
<g id="a_node46"><a xlink:href="observability/70_observability.svg" xlink:title="EventRecorder&#10;current">
<path fill="#f5f5f5" stroke="#666666" d="M2532.62,-921C2532.62,-921 2475.38,-921 2475.38,-921 2469.38,-921 2463.38,-915 2463.38,-909 2463.38,-909 2463.38,-897 2463.38,-897 2463.38,-891 2469.38,-885 2475.38,-885 2475.38,-885 2532.62,-885 2532.62,-885 2538.62,-885 2544.62,-891 2544.62,-897 2544.62,-897 2544.62,-909 2544.62,-909 2544.62,-915 2538.62,-921 2532.62,-921"/>
<text xml:space="preserve" text-anchor="middle" x="2504" y="-905.5" font-family="Arial" font-size="10.00">EventRecorder</text>
<text xml:space="preserve" text-anchor="middle" x="2504" y="-893.5" font-family="Arial" font-size="10.00">current</text>
</a>
</g>
</g>
<!-- EventBus&#45;&gt;EventRecorder -->
<g id="edge47" class="edge">
<title>EventBus&#45;&gt;EventRecorder</title>
<path fill="none" stroke="black" stroke-dasharray="5,2" d="M809.65,-997.59C809.65,-985.54 809.65,-972 809.65,-972 809.65,-972 2517.54,-972 2517.54,-972 2517.54,-972 2517.54,-930 2517.54,-930"/>
<polygon fill="black" stroke="black" points="2519.99,-930 2517.54,-923 2515.09,-930 2519.99,-930"/>
<text xml:space="preserve" text-anchor="middle" x="1986" y="-960.45" font-family="Arial" font-size="9.00">record copy</text>
</g>
<!-- Metrics -->
<g id="node55" class="node">
<title>Metrics</title>
<g id="a_node55"><a xlink:href="observability/70_observability.svg" xlink:title="Metrics">
<path fill="#f5f5f5" stroke="#666666" d="M2419,-703.5C2419,-703.5 2389,-703.5 2389,-703.5 2383,-703.5 2377,-697.5 2377,-691.5 2377,-691.5 2377,-679.5 2377,-679.5 2377,-673.5 2383,-667.5 2389,-667.5 2389,-667.5 2419,-667.5 2419,-667.5 2425,-667.5 2431,-673.5 2431,-679.5 2431,-679.5 2431,-691.5 2431,-691.5 2431,-697.5 2425,-703.5 2419,-703.5"/>
<text xml:space="preserve" text-anchor="middle" x="2404" y="-682" font-family="Arial" font-size="10.00">Metrics</text>
</a>
</g>
</g>
<!-- EventBus&#45;&gt;Metrics -->
<g id="edge46" class="edge">
<title>EventBus&#45;&gt;Metrics</title>
<path fill="none" stroke="black" stroke-dasharray="5,2" d="M821.98,-997.79C821.98,-928.61 821.98,-686 821.97,-686 821.97,-686 2368.03,-686 2368.03,-686"/>
<polygon fill="black" stroke="black" points="2368.03,-688.45 2375.03,-686 2368.03,-683.55 2368.03,-688.45"/>
</g>
<!-- Lifecycle&#45;&gt;LifecycleContract -->
<g id="edge12" class="edge">
<title>Lifecycle&#45;&gt;LifecycleContract</title>
<path fill="none" stroke="black" stroke-dasharray="1,5" d="M933,-997.51C933,-954.62 933,-852 933,-852 933,-852 1804.5,-852 1804.5,-852 1804.5,-852 1804.5,-816.78 1804.5,-816.78"/>
<polygon fill="black" stroke="black" points="1806.95,-816.78 1804.5,-809.78 1802.05,-816.78 1806.95,-816.78"/>
</g>
<!-- ContextContract -->
<g id="node17" class="node">
<title>ContextContract</title>
<path fill="#eceff1" stroke="#455a64" d="M1595.88,-808C1595.88,-808 1528.12,-808 1528.12,-808 1522.12,-808 1516.12,-802 1516.12,-796 1516.12,-796 1516.12,-784 1516.12,-784 1516.12,-778 1522.12,-772 1528.12,-772 1528.12,-772 1595.88,-772 1595.88,-772 1601.88,-772 1607.88,-778 1607.88,-784 1607.88,-784 1607.88,-796 1607.88,-796 1607.88,-802 1601.88,-808 1595.88,-808"/>
<text xml:space="preserve" text-anchor="middle" x="1562" y="-786.5" font-family="Arial" font-size="10.00">ContextSnapshot</text>
</g>
<!-- InferenceContract -->
<g id="node18" class="node">
<title>InferenceContract</title>
<path fill="#eceff1" stroke="#455a64" d="M1976.62,-808C1976.62,-808 1907.38,-808 1907.38,-808 1901.38,-808 1895.38,-802 1895.38,-796 1895.38,-796 1895.38,-784 1895.38,-784 1895.38,-778 1901.38,-772 1907.38,-772 1907.38,-772 1976.62,-772 1976.62,-772 1982.62,-772 1988.62,-778 1988.62,-784 1988.62,-784 1988.62,-796 1988.62,-796 1988.62,-802 1982.62,-808 1976.62,-808"/>
<text xml:space="preserve" text-anchor="middle" x="1942" y="-792.5" font-family="Arial" font-size="10.00">InferenceRequest</text>
<text xml:space="preserve" text-anchor="middle" x="1942" y="-780.5" font-family="Arial" font-size="10.00">InferenceResult</text>
</g>
<!-- TelemetryContract -->
<g id="node20" class="node">
<title>TelemetryContract</title>
<path fill="#eceff1" stroke="#455a64" d="M2337,-808C2337,-808 2261,-808 2261,-808 2255,-808 2249,-802 2249,-796 2249,-796 2249,-784 2249,-784 2249,-778 2255,-772 2261,-772 2261,-772 2337,-772 2337,-772 2343,-772 2349,-778 2349,-784 2349,-784 2349,-796 2349,-796 2349,-802 2343,-808 2337,-808"/>
<text xml:space="preserve" text-anchor="middle" x="2299" y="-792.5" font-family="Arial" font-size="10.00">TelemetrySnapshot</text>
<text xml:space="preserve" text-anchor="middle" x="2299" y="-780.5" font-family="Arial" font-size="10.00">immutable</text>
</g>
<!-- ContextEngine&#45;&gt;ContextContract -->
<g id="edge26" class="edge">
<title>ContextEngine&#45;&gt;ContextContract</title>
<path fill="none" stroke="black" stroke-dasharray="1,5" d="M124.42,-1545.66C124.42,-1529.33 124.42,-1508 124.42,-1508 124.42,-1508 1588.75,-1508 1588.75,-1508 1588.75,-1508 1588.75,-816.98 1588.75,-816.98"/>
<polygon fill="black" stroke="black" points="1591.2,-816.98 1588.75,-809.98 1586.3,-816.98 1591.2,-816.98"/>
</g>
<!-- ContextEngine&#45;&gt;Collector -->
<g id="edge15" class="edge">
<title>ContextEngine&#45;&gt;Collector</title>
<path fill="none" stroke="black" d="M97.58,-1545.59C97.58,-1545.59 97.58,-1477.91 97.58,-1477.91"/>
<polygon fill="black" stroke="black" points="100.03,-1477.91 97.58,-1470.91 95.13,-1477.91 100.03,-1477.91"/>
</g>
<!-- ContextEngine&#45;&gt;KernelTelemetry -->
<g id="edge42" class="edge">
<title>ContextEngine&#45;&gt;KernelTelemetry</title>
<path fill="none" stroke="black" stroke-dasharray="5,2" d="M151.38,-1553C165.74,-1553 178.42,-1553 178.42,-1553 178.42,-1553 178.42,-981 178.42,-981 178.42,-981 2583.18,-981 2583.18,-981 2583.18,-981 2583.18,-930 2583.18,-930"/>
<polygon fill="black" stroke="black" points="2585.63,-930 2583.18,-923 2580.73,-930 2585.63,-930"/>
<text xml:space="preserve" text-anchor="middle" x="299.75" y="-1230.2" font-family="Arial" font-size="9.00">context ticks</text>
</g>
<!-- Collector&#45;&gt;Scheduler -->
<g id="edge16" class="edge">
<title>Collector&#45;&gt;Scheduler</title>
<path fill="none" stroke="black" d="M156.07,-1447C156.07,-1447 843.27,-1447 843.27,-1447"/>
<polygon fill="black" stroke="black" points="843.27,-1449.45 850.27,-1447 843.27,-1444.55 843.27,-1449.45"/>
</g>
<!-- Reducer -->
<g id="node23" class="node">
<title>Reducer</title>
<g id="a_node23"><a xlink:href="context/20_context.svg" xlink:title="ContextReducer">
<path fill="#fff3e0" stroke="#ef6c00" d="M126.62,-1356C126.62,-1356 63.38,-1356 63.38,-1356 57.38,-1356 51.38,-1350 51.38,-1344 51.38,-1344 51.38,-1332 51.38,-1332 51.38,-1326 57.38,-1320 63.38,-1320 63.38,-1320 126.62,-1320 126.62,-1320 132.62,-1320 138.62,-1326 138.62,-1332 138.62,-1332 138.62,-1344 138.62,-1344 138.62,-1350 132.62,-1356 126.62,-1356"/>
<text xml:space="preserve" text-anchor="middle" x="95" y="-1334.5" font-family="Arial" font-size="10.00">ContextReducer</text>
</a>
</g>
</g>
<!-- Collector&#45;&gt;Reducer -->
<g id="edge18" class="edge">
<title>Collector&#45;&gt;Reducer</title>
<path fill="none" stroke="black" d="M102.44,-1432.59C102.44,-1432.59 102.44,-1364.91 102.44,-1364.91"/>
<polygon fill="black" stroke="black" points="104.89,-1364.91 102.44,-1357.91 99.99,-1364.91 104.89,-1364.91"/>
</g>
<!-- Snapshot -->
<g id="node24" class="node">
<title>Snapshot</title>
<g id="a_node24"><a xlink:href="context/20_context.svg" xlink:title="GlobalContextSnapshot">
<path fill="#fff3e0" stroke="#ef6c00" d="M158.75,-1251.5C158.75,-1251.5 63.25,-1251.5 63.25,-1251.5 57.25,-1251.5 51.25,-1245.5 51.25,-1239.5 51.25,-1239.5 51.25,-1227.5 51.25,-1227.5 51.25,-1221.5 57.25,-1215.5 63.25,-1215.5 63.25,-1215.5 158.75,-1215.5 158.75,-1215.5 164.75,-1215.5 170.75,-1221.5 170.75,-1227.5 170.75,-1227.5 170.75,-1239.5 170.75,-1239.5 170.75,-1245.5 164.75,-1251.5 158.75,-1251.5"/>
<text xml:space="preserve" text-anchor="middle" x="111" y="-1230" font-family="Arial" font-size="10.00">GlobalContextSnapshot</text>
</a>
</g>
</g>
<!-- Reducer&#45;&gt;Snapshot -->
<g id="edge19" class="edge">
<title>Reducer&#45;&gt;Snapshot</title>
<path fill="none" stroke="black" d="M95,-1319.8C95,-1319.8 95,-1260.36 95,-1260.36"/>
<polygon fill="black" stroke="black" points="97.45,-1260.36 95,-1253.36 92.55,-1260.36 97.45,-1260.36"/>
</g>
<!-- InferenceCtx -->
<g id="node25" class="node">
<title>InferenceCtx</title>
<g id="a_node25"><a xlink:href="context/20_context.svg" xlink:title="InferenceContext">
<path fill="#fff3e0" stroke="#ef6c00" d="M151.5,-1147C151.5,-1147 84.5,-1147 84.5,-1147 78.5,-1147 72.5,-1141 72.5,-1135 72.5,-1135 72.5,-1123 72.5,-1123 72.5,-1117 78.5,-1111 84.5,-1111 84.5,-1111 151.5,-1111 151.5,-1111 157.5,-1111 163.5,-1117 163.5,-1123 163.5,-1123 163.5,-1135 163.5,-1135 163.5,-1141 157.5,-1147 151.5,-1147"/>
<text xml:space="preserve" text-anchor="middle" x="118" y="-1125.5" font-family="Arial" font-size="10.00">InferenceContext</text>
</a>
</g>
</g>
<!-- Snapshot&#45;&gt;InferenceCtx -->
<g id="edge20" class="edge">
<title>Snapshot&#45;&gt;InferenceCtx</title>
<path fill="none" stroke="black" d="M118,-1215.3C118,-1215.3 118,-1155.86 118,-1155.86"/>
<polygon fill="black" stroke="black" points="120.45,-1155.86 118,-1148.86 115.55,-1155.86 120.45,-1155.86"/>
</g>
<!-- Decision -->
<g id="node26" class="node">
<title>Decision</title>
<g id="a_node26"><a xlink:href="context/20_context.svg" xlink:title="DecisionEngine\nfuture">
<path fill="#fff3e0" stroke="#ef6c00" d="M159.12,-1034C159.12,-1034 98.88,-1034 98.88,-1034 92.88,-1034 86.88,-1028 86.88,-1022 86.88,-1022 86.88,-1010 86.88,-1010 86.88,-1004 92.88,-998 98.88,-998 98.88,-998 159.12,-998 159.12,-998 165.12,-998 171.12,-1004 171.12,-1010 171.12,-1010 171.12,-1022 171.12,-1022 171.12,-1028 165.12,-1034 159.12,-1034"/>
<text xml:space="preserve" text-anchor="middle" x="129" y="-1018.5" font-family="Arial" font-size="10.00">DecisionEngine</text>
<text xml:space="preserve" text-anchor="middle" x="129" y="-1006.5" font-family="Arial" font-size="10.00">future</text>
</a>
</g>
</g>
<!-- InferenceCtx&#45;&gt;Decision -->
<g id="edge21" class="edge">
<title>InferenceCtx&#45;&gt;Decision</title>
<path fill="none" stroke="black" stroke-dasharray="5,2" d="M125.19,-1110.59C125.19,-1110.59 125.19,-1042.91 125.19,-1042.91"/>
<polygon fill="black" stroke="black" points="127.64,-1042.91 125.19,-1035.91 122.74,-1042.91 127.64,-1042.91"/>
<text xml:space="preserve" text-anchor="middle" x="134.62" y="-1073.45" font-family="Arial" font-size="9.00">future</text>
</g>
<!-- OpenVINO -->
<g id="node37" class="node">
<title>OpenVINO</title>
<g id="a_node37"><a xlink:href="inference/40_inference.svg" xlink:title="OpenVINOBackend\nfuture">
<path fill="#fffde7" stroke="#f9a825" d="M1339.12,-1034C1339.12,-1034 1260.88,-1034 1260.88,-1034 1254.88,-1034 1248.88,-1028 1248.88,-1022 1248.88,-1022 1248.88,-1010 1248.88,-1010 1248.88,-1004 1254.88,-998 1260.88,-998 1260.88,-998 1339.12,-998 1339.12,-998 1345.12,-998 1351.12,-1004 1351.12,-1010 1351.12,-1010 1351.12,-1022 1351.12,-1022 1351.12,-1028 1345.12,-1034 1339.12,-1034"/>
<text xml:space="preserve" text-anchor="middle" x="1300" y="-1018.5" font-family="Arial" font-size="10.00">OpenVINOBackend</text>
<text xml:space="preserve" text-anchor="middle" x="1300" y="-1006.5" font-family="Arial" font-size="10.00">future</text>
</a>
</g>
</g>
<!-- Decision&#45;&gt;OpenVINO -->
<g id="edge81" class="edge">
<title>Decision&#45;&gt;OpenVINO</title>
<path fill="none" stroke="black" stroke-dasharray="5,2" d="M160.42,-997.51C160.42,-977.07 160.42,-947 160.42,-947 160.42,-947 1254.12,-947 1254.12,-947 1254.12,-947 1254.12,-989 1254.12,-989"/>
<polygon fill="black" stroke="black" points="1251.68,-989 1254.13,-996 1256.58,-989 1251.68,-989"/>
</g>
<!-- MCTS -->
<g id="node38" class="node">
<title>MCTS</title>
<path fill="#fffde7" stroke="#f9a825" d="M1460.5,-1034C1460.5,-1034 1399.5,-1034 1399.5,-1034 1393.5,-1034 1387.5,-1028 1387.5,-1022 1387.5,-1022 1387.5,-1010 1387.5,-1010 1387.5,-1004 1393.5,-998 1399.5,-998 1399.5,-998 1460.5,-998 1460.5,-998 1466.5,-998 1472.5,-1004 1472.5,-1010 1472.5,-1010 1472.5,-1022 1472.5,-1022 1472.5,-1028 1466.5,-1034 1460.5,-1034"/>
<text xml:space="preserve" text-anchor="middle" x="1430" y="-1018.5" font-family="Arial" font-size="10.00">MCTS proposer</text>
<text xml:space="preserve" text-anchor="middle" x="1430" y="-1006.5" font-family="Arial" font-size="10.00">future</text>
</g>
<!-- Decision&#45;&gt;MCTS -->
<g id="edge82" class="edge">
<title>Decision&#45;&gt;MCTS</title>
<path fill="none" stroke="black" stroke-dasharray="5,2" d="M149.71,-997.52C149.71,-974.45 149.71,-938 149.71,-938 149.71,-938 1391.12,-938 1391.12,-938 1391.12,-938 1391.12,-989 1391.12,-989"/>
<polygon fill="black" stroke="black" points="1388.68,-989 1391.13,-996 1393.58,-989 1388.68,-989"/>
</g>
<!-- InferenceHandler&#45;&gt;Proxy -->
<g id="edge37" class="edge">
<title>InferenceHandler&#45;&gt;Proxy</title>
<path fill="none" stroke="black" stroke-dasharray="5,2" d="M1085.07,-1016C1053.41,-1016 1021.88,-1016 1021.88,-1016 1021.88,-1016 1021.88,-1537.25 1021.88,-1537.25"/>
<polygon fill="black" stroke="black" points="1019.43,-1537.25 1021.88,-1544.25 1024.33,-1537.25 1019.43,-1537.25"/>
<text xml:space="preserve" text-anchor="middle" x="2262.5" y="-1282.45" font-family="Arial" font-size="9.00">Request.reply</text>
</g>
<!-- InferenceHandler&#45;&gt;InferenceContract -->
<g id="edge27" class="edge">
<title>InferenceHandler&#45;&gt;InferenceContract</title>
<path fill="none" stroke="black" stroke-dasharray="1,5" d="M1206.69,-997.54C1206.69,-956.85 1206.69,-863 1206.69,-863 1206.69,-863 1919.21,-863 1919.21,-863 1919.21,-863 1919.21,-816.93 1919.21,-816.93"/>
<polygon fill="black" stroke="black" points="1921.66,-816.93 1919.21,-809.93 1916.76,-816.93 1921.66,-816.93"/>
</g>
<!-- InferenceAdapter -->
<g id="node34" class="node">
<title>InferenceAdapter</title>
<g id="a_node34"><a xlink:href="inference/40_inference.svg" xlink:title="InferenceAdapter\nbackend membrane">
<path fill="#fffde7" stroke="#f9a825" d="M1382.75,-921C1382.75,-921 1305.25,-921 1305.25,-921 1299.25,-921 1293.25,-915 1293.25,-909 1293.25,-909 1293.25,-897 1293.25,-897 1293.25,-891 1299.25,-885 1305.25,-885 1305.25,-885 1382.75,-885 1382.75,-885 1388.75,-885 1394.75,-891 1394.75,-897 1394.75,-897 1394.75,-909 1394.75,-909 1394.75,-915 1388.75,-921 1382.75,-921"/>
<text xml:space="preserve" text-anchor="middle" x="1344" y="-905.5" font-family="Arial" font-size="10.00">InferenceAdapter</text>
<text xml:space="preserve" text-anchor="middle" x="1344" y="-893.5" font-family="Arial" font-size="10.00">backend membrane</text>
</a>
</g>
</g>
<!-- InferenceHandler&#45;&gt;InferenceAdapter -->
<g id="edge32" class="edge">
<title>InferenceHandler&#45;&gt;InferenceAdapter</title>
<path fill="none" stroke="black" d="M1210.56,-997.85C1210.56,-967.32 1210.56,-909 1210.56,-909 1210.56,-909 1284.28,-909 1284.28,-909"/>
<polygon fill="black" stroke="black" points="1284.28,-911.45 1291.28,-909 1284.28,-906.55 1284.28,-911.45"/>
<text xml:space="preserve" text-anchor="middle" x="1371.38" y="-960.45" font-family="Arial" font-size="9.00">infer(request)</text>
</g>
<!-- InferenceResult -->
<g id="node36" class="node">
<title>InferenceResult</title>
<g id="a_node36"><a xlink:href="inference/40_inference.svg" xlink:title="INFERENCE_RESULT\nobservable">
<path fill="#fffde7" stroke="#f9a825" d="M1192.75,-921C1192.75,-921 1097.25,-921 1097.25,-921 1091.25,-921 1085.25,-915 1085.25,-909 1085.25,-909 1085.25,-897 1085.25,-897 1085.25,-891 1091.25,-885 1097.25,-885 1097.25,-885 1192.75,-885 1192.75,-885 1198.75,-885 1204.75,-891 1204.75,-897 1204.75,-897 1204.75,-909 1204.75,-909 1204.75,-915 1198.75,-921 1192.75,-921"/>
<text xml:space="preserve" text-anchor="middle" x="1145" y="-905.5" font-family="Arial" font-size="10.00">INFERENCE_RESULT</text>
<text xml:space="preserve" text-anchor="middle" x="1145" y="-893.5" font-family="Arial" font-size="10.00">observable</text>
</a>
</g>
</g>
<!-- InferenceHandler&#45;&gt;InferenceResult -->
<g id="edge36" class="edge">
<title>InferenceHandler&#45;&gt;InferenceResult</title>
<path fill="none" stroke="black" d="M1145.12,-997.59C1145.12,-997.59 1145.12,-929.91 1145.12,-929.91"/>
<polygon fill="black" stroke="black" points="1147.58,-929.91 1145.13,-922.91 1142.68,-929.91 1147.58,-929.91"/>
<text xml:space="preserve" text-anchor="middle" x="1170.88" y="-960.45" font-family="Arial" font-size="9.00">publish copy</text>
</g>
<!-- InferenceAdapter&#45;&gt;InferenceContract -->
<g id="edge29" class="edge">
<title>InferenceAdapter&#45;&gt;InferenceContract</title>
<path fill="none" stroke="black" stroke-dasharray="1,5" d="M1364.78,-884.8C1364.78,-878.97 1364.78,-874 1364.78,-874 1364.78,-874 1943.04,-874 1943.04,-874 1943.04,-874 1943.04,-816.74 1943.04,-816.74"/>
<polygon fill="black" stroke="black" points="1945.49,-816.74 1943.04,-809.74 1940.59,-816.74 1945.49,-816.74"/>
</g>
<!-- InferenceAdapter&#45;&gt;InferenceHandler -->
<g id="edge35" class="edge">
<title>InferenceAdapter&#45;&gt;InferenceHandler</title>
<path fill="none" stroke="black" d="M1292.82,-897C1254.48,-897 1208.62,-897 1208.62,-897 1208.62,-897 1208.62,-989.15 1208.62,-989.15"/>
<polygon fill="black" stroke="black" points="1206.18,-989.15 1208.63,-996.15 1211.08,-989.15 1206.18,-989.15"/>
<text xml:space="preserve" text-anchor="middle" x="1270.25" y="-960.45" font-family="Arial" font-size="9.00">InferenceResult</text>
</g>
<!-- DummyBackend -->
<g id="node35" class="node">
<title>DummyBackend</title>
<g id="a_node35"><a xlink:href="inference/40_inference.svg" xlink:title="DummyInferenceBackend\ncurrent">
<path fill="#fffde7" stroke="#f9a825" d="M1376.62,-808C1376.62,-808 1271.38,-808 1271.38,-808 1265.38,-808 1259.38,-802 1259.38,-796 1259.38,-796 1259.38,-784 1259.38,-784 1259.38,-778 1265.38,-772 1271.38,-772 1271.38,-772 1376.62,-772 1376.62,-772 1382.62,-772 1388.62,-778 1388.62,-784 1388.62,-784 1388.62,-796 1388.62,-796 1388.62,-802 1382.62,-808 1376.62,-808"/>
<text xml:space="preserve" text-anchor="middle" x="1324" y="-792.5" font-family="Arial" font-size="10.00">DummyInferenceBackend</text>
<text xml:space="preserve" text-anchor="middle" x="1324" y="-780.5" font-family="Arial" font-size="10.00">current</text>
</a>
</g>
</g>
<!-- InferenceAdapter&#45;&gt;DummyBackend -->
<g id="edge33" class="edge">
<title>InferenceAdapter&#45;&gt;DummyBackend</title>
<path fill="none" stroke="black" d="M1317.09,-884.59C1317.09,-884.59 1317.09,-816.91 1317.09,-816.91"/>
<polygon fill="black" stroke="black" points="1319.54,-816.91 1317.09,-809.91 1314.64,-816.91 1319.54,-816.91"/>
<text xml:space="preserve" text-anchor="middle" x="1303.75" y="-847.45" font-family="Arial" font-size="9.00">select backend</text>
</g>
<!-- DummyBackend&#45;&gt;InferenceAdapter -->
<g id="edge34" class="edge">
<title>DummyBackend&#45;&gt;InferenceAdapter</title>
<path fill="none" stroke="black" d="M1340.94,-808.41C1340.94,-808.41 1340.94,-876.09 1340.94,-876.09"/>
<polygon fill="black" stroke="black" points="1338.49,-876.09 1340.94,-883.09 1343.39,-876.09 1338.49,-876.09"/>
<text xml:space="preserve" text-anchor="middle" x="1408.25" y="-847.45" font-family="Arial" font-size="9.00">InferenceResult</text>
</g>
<!-- InferenceResult&#45;&gt;EventBus -->
<g id="edge38" class="edge">
<title>InferenceResult&#45;&gt;EventBus</title>
<path fill="none" stroke="black" stroke-dasharray="5,2" d="M1085.09,-903C994.81,-903 834.3,-903 834.3,-903 834.3,-903 834.3,-989.08 834.3,-989.08"/>
<polygon fill="black" stroke="black" points="831.85,-989.08 834.3,-996.08 836.75,-989.08 831.85,-989.08"/>
</g>
<!-- OpenVINO&#45;&gt;GPU -->
<g id="edge39" class="edge">
<title>OpenVINO&#45;&gt;GPU</title>
<path fill="none" stroke="black" stroke-dasharray="5,2" d="M1322.19,-997.76C1322.19,-972.52 1322.19,-930 1322.19,-930 1322.19,-930 1921,-930 1921,-930 1921,-930 1921,-929.15 1921,-929.15"/>
<polygon fill="black" stroke="black" points="1923.45,-929.97 1921,-922.97 1918.55,-929.97 1923.45,-929.97"/>
<text xml:space="preserve" text-anchor="middle" x="1823.62" y="-960.45" font-family="Arial" font-size="9.00">future</text>
</g>
<!-- Validation -->
<g id="node41" class="node">
<title>Validation</title>
<g id="a_node41"><a xlink:href="validation/50_validation.svg" xlink:title="Compiler &#45;&gt; Tests &#45;&gt; Validator">
<path fill="#f3e5f5" stroke="#7b1fa2" d="M2580.88,-1356C2580.88,-1356 2459.12,-1356 2459.12,-1356 2453.12,-1356 2447.12,-1350 2447.12,-1344 2447.12,-1344 2447.12,-1332 2447.12,-1332 2447.12,-1326 2453.12,-1320 2459.12,-1320 2459.12,-1320 2580.88,-1320 2580.88,-1320 2586.88,-1320 2592.88,-1326 2592.88,-1332 2592.88,-1332 2592.88,-1344 2592.88,-1344 2592.88,-1350 2586.88,-1356 2580.88,-1356"/>
<text xml:space="preserve" text-anchor="middle" x="2520" y="-1334.5" font-family="Arial" font-size="10.00">Compiler &#45;&gt; Tests &#45;&gt; Validator</text>
</a>
</g>
</g>
<!-- Dummy&#45;&gt;Validation -->
<g id="edge83" class="edge">
<title>Dummy&#45;&gt;Validation</title>
<path fill="none" stroke="black" stroke-dasharray="5,2" d="M2503,-1432.59C2503,-1432.59 2503,-1364.91 2503,-1364.91"/>
<polygon fill="black" stroke="black" points="2505.45,-1364.91 2503,-1357.91 2500.55,-1364.91 2505.45,-1364.91"/>
<text xml:space="preserve" text-anchor="middle" x="2522.62" y="-1395.45" font-family="Arial" font-size="9.00">future</text>
</g>
<!-- ExpertsFuture -->
<g id="node40" class="node">
<title>ExpertsFuture</title>
<g id="a_node40"><a xlink:href="experts/40_experts.svg" xlink:title="Python / C / KiCad / Web\nfuture">
<path fill="#e8f5e9" stroke="#388e3c" d="M2693.88,-1469C2693.88,-1469 2590.12,-1469 2590.12,-1469 2584.12,-1469 2578.12,-1463 2578.12,-1457 2578.12,-1457 2578.12,-1445 2578.12,-1445 2578.12,-1439 2584.12,-1433 2590.12,-1433 2590.12,-1433 2693.88,-1433 2693.88,-1433 2699.88,-1433 2705.88,-1439 2705.88,-1445 2705.88,-1445 2705.88,-1457 2705.88,-1457 2705.88,-1463 2699.88,-1469 2693.88,-1469"/>
<text xml:space="preserve" text-anchor="middle" x="2642" y="-1453.5" font-family="Arial" font-size="10.00">Python / C / KiCad / Web</text>
<text xml:space="preserve" text-anchor="middle" x="2642" y="-1441.5" font-family="Arial" font-size="10.00">future</text>
</a>
</g>
</g>
<!-- Learning -->
<g id="node42" class="node">
<title>Learning</title>
<g id="a_node42"><a xlink:href="learning/60_learning.svg" xlink:title="Metrics / Ranking / Patterns">
<path fill="#efebe9" stroke="#6d4c41" d="M2336.5,-590.5C2336.5,-590.5 2221.5,-590.5 2221.5,-590.5 2215.5,-590.5 2209.5,-584.5 2209.5,-578.5 2209.5,-578.5 2209.5,-566.5 2209.5,-566.5 2209.5,-560.5 2215.5,-554.5 2221.5,-554.5 2221.5,-554.5 2336.5,-554.5 2336.5,-554.5 2342.5,-554.5 2348.5,-560.5 2348.5,-566.5 2348.5,-566.5 2348.5,-578.5 2348.5,-578.5 2348.5,-584.5 2342.5,-590.5 2336.5,-590.5"/>
<text xml:space="preserve" text-anchor="middle" x="2279" y="-569" font-family="Arial" font-size="10.00">Metrics / Ranking / Patterns</text>
</a>
</g>
</g>
<!-- KernelTelemetry&#45;&gt;TelemetryContract -->
<g id="edge24" class="edge">
<title>KernelTelemetry&#45;&gt;TelemetryContract</title>
<path fill="none" stroke="black" stroke-dasharray="1,5" d="M2593.58,-884.58C2593.58,-862.95 2593.58,-830 2593.58,-830 2593.58,-830 2299,-830 2299,-830 2299,-830 2299,-816.64 2299,-816.64"/>
<polygon fill="black" stroke="black" points="2301.45,-816.64 2299,-809.64 2296.55,-816.64 2301.45,-816.64"/>
</g>
<!-- TelemetrySnapshot -->
<g id="node45" class="node">
<title>TelemetrySnapshot</title>
<g id="a_node45"><a xlink:href="observability/70_observability.svg" xlink:title="TelemetrySnapshot">
<path fill="#f5f5f5" stroke="#666666" d="M2473,-808C2473,-808 2397,-808 2397,-808 2391,-808 2385,-802 2385,-796 2385,-796 2385,-784 2385,-784 2385,-778 2391,-772 2397,-772 2397,-772 2473,-772 2473,-772 2479,-772 2485,-778 2485,-784 2485,-784 2485,-796 2485,-796 2485,-802 2479,-808 2473,-808"/>
<text xml:space="preserve" text-anchor="middle" x="2435" y="-786.5" font-family="Arial" font-size="10.00">TelemetrySnapshot</text>
</a>
</g>
</g>
<!-- KernelTelemetry&#45;&gt;TelemetrySnapshot -->
<g id="edge43" class="edge">
<title>KernelTelemetry&#45;&gt;TelemetrySnapshot</title>
<path fill="none" stroke="black" d="M2606.42,-884.77C2606.42,-860.07 2606.42,-819 2606.42,-819 2606.42,-819 2474.19,-819 2474.19,-819 2474.19,-819 2474.19,-816.72 2474.19,-816.72"/>
<polygon fill="black" stroke="black" points="2476.64,-816.71 2474.19,-809.72 2471.74,-816.72 2476.64,-816.71"/>
<text xml:space="preserve" text-anchor="middle" x="2628.75" y="-847.45" font-family="Arial" font-size="9.00">snapshot()</text>
</g>
<!-- TelemetrySnapshot&#45;&gt;Metrics -->
<g id="edge44" class="edge">
<title>TelemetrySnapshot&#45;&gt;Metrics</title>
<path fill="none" stroke="black" stroke-dasharray="5,2" d="M2408,-771.8C2408,-771.8 2408,-712.36 2408,-712.36"/>
<polygon fill="black" stroke="black" points="2410.45,-712.36 2408,-705.36 2405.55,-712.36 2410.45,-712.36"/>
</g>
<!-- EventLogSnapshot -->
<g id="node47" class="node">
<title>EventLogSnapshot</title>
<g id="a_node47"><a xlink:href="observability/70_observability.svg" xlink:title="EventLogSnapshot">
<path fill="#f5f5f5" stroke="#666666" d="M2607.25,-808C2607.25,-808 2532.75,-808 2532.75,-808 2526.75,-808 2520.75,-802 2520.75,-796 2520.75,-796 2520.75,-784 2520.75,-784 2520.75,-778 2526.75,-772 2532.75,-772 2532.75,-772 2607.25,-772 2607.25,-772 2613.25,-772 2619.25,-778 2619.25,-784 2619.25,-784 2619.25,-796 2619.25,-796 2619.25,-802 2613.25,-808 2607.25,-808"/>
<text xml:space="preserve" text-anchor="middle" x="2570" y="-786.5" font-family="Arial" font-size="10.00">EventLogSnapshot</text>
</a>
</g>
</g>
<!-- EventRecorder&#45;&gt;EventLogSnapshot -->
<g id="edge48" class="edge">
<title>EventRecorder&#45;&gt;EventLogSnapshot</title>
<path fill="none" stroke="black" d="M2532.69,-884.59C2532.69,-884.59 2532.69,-816.91 2532.69,-816.91"/>
<polygon fill="black" stroke="black" points="2535.14,-816.91 2532.69,-809.91 2530.24,-816.91 2535.14,-816.91"/>
<text xml:space="preserve" text-anchor="middle" x="2534.75" y="-847.45" font-family="Arial" font-size="9.00">snapshot()</text>
</g>
<!-- ReplayReader -->
<g id="node48" class="node">
<title>ReplayReader</title>
<g id="a_node48"><a xlink:href="observability/70_observability.svg" xlink:title="ReplayReader&#10;current">
<path fill="#f5f5f5" stroke="#666666" d="M2597.12,-703.5C2597.12,-703.5 2542.88,-703.5 2542.88,-703.5 2536.88,-703.5 2530.88,-697.5 2530.88,-691.5 2530.88,-691.5 2530.88,-679.5 2530.88,-679.5 2530.88,-673.5 2536.88,-667.5 2542.88,-667.5 2542.88,-667.5 2597.12,-667.5 2597.12,-667.5 2603.12,-667.5 2609.12,-673.5 2609.12,-679.5 2609.12,-679.5 2609.12,-691.5 2609.12,-691.5 2609.12,-697.5 2603.12,-703.5 2597.12,-703.5"/>
<text xml:space="preserve" text-anchor="middle" x="2570" y="-688" font-family="Arial" font-size="10.00">ReplayReader</text>
<text xml:space="preserve" text-anchor="middle" x="2570" y="-676" font-family="Arial" font-size="10.00">current</text>
</a>
</g>
</g>
<!-- EventLogSnapshot&#45;&gt;ReplayReader -->
<g id="edge49" class="edge">
<title>EventLogSnapshot&#45;&gt;ReplayReader</title>
<path fill="none" stroke="black" d="M2583.04,-771.8C2583.04,-771.8 2583.04,-712.36 2583.04,-712.36"/>
<polygon fill="black" stroke="black" points="2585.49,-712.36 2583.04,-705.36 2580.59,-712.36 2585.49,-712.36"/>
<text xml:space="preserve" text-anchor="middle" x="2589.12" y="-734.45" font-family="Arial" font-size="9.00">read/filter</text>
</g>
<!-- ReplayPlan -->
<g id="node49" class="node">
<title>ReplayPlan</title>
<g id="a_node49"><a xlink:href="observability/70_observability.svg" xlink:title="ReplayPlan&#10;controlled">
<path fill="#f5f5f5" stroke="#666666" d="M2591.12,-590.5C2591.12,-590.5 2548.88,-590.5 2548.88,-590.5 2542.88,-590.5 2536.88,-584.5 2536.88,-578.5 2536.88,-578.5 2536.88,-566.5 2536.88,-566.5 2536.88,-560.5 2542.88,-554.5 2548.88,-554.5 2548.88,-554.5 2591.12,-554.5 2591.12,-554.5 2597.12,-554.5 2603.12,-560.5 2603.12,-566.5 2603.12,-566.5 2603.12,-578.5 2603.12,-578.5 2603.12,-584.5 2597.12,-590.5 2591.12,-590.5"/>
<text xml:space="preserve" text-anchor="middle" x="2570" y="-575" font-family="Arial" font-size="10.00">ReplayPlan</text>
<text xml:space="preserve" text-anchor="middle" x="2570" y="-563" font-family="Arial" font-size="10.00">controlled</text>
</a>
</g>
</g>
<!-- ReplayReader&#45;&gt;ReplayPlan -->
<g id="edge50" class="edge">
<title>ReplayReader&#45;&gt;ReplayPlan</title>
<path fill="none" stroke="black" d="M2581.04,-667.09C2581.04,-667.09 2581.04,-599.41 2581.04,-599.41"/>
<polygon fill="black" stroke="black" points="2583.49,-599.41 2581.04,-592.41 2578.59,-599.41 2583.49,-599.41"/>
<text xml:space="preserve" text-anchor="middle" x="2603.75" y="-629.95" font-family="Arial" font-size="9.00">to_replay_plan()</text>
</g>
<!-- ReplayContract -->
<g id="node62" class="node">
<title>ReplayContract</title>
<path fill="lightgrey" stroke="black" d="M2161.12,-590.5C2161.12,-590.5 2100.88,-590.5 2100.88,-590.5 2094.88,-590.5 2088.88,-584.5 2088.88,-578.5 2088.88,-578.5 2088.88,-566.5 2088.88,-566.5 2088.88,-560.5 2094.88,-554.5 2100.88,-554.5 2100.88,-554.5 2161.12,-554.5 2161.12,-554.5 2167.12,-554.5 2173.12,-560.5 2173.12,-566.5 2173.12,-566.5 2173.12,-578.5 2173.12,-578.5 2173.12,-584.5 2167.12,-590.5 2161.12,-590.5"/>
<text xml:space="preserve" text-anchor="middle" x="2131" y="-569" font-family="Arial" font-size="10.00">ReplayContract</text>
</g>
<!-- ReplayReader&#45;&gt;ReplayContract -->
<g id="edge28" class="edge">
<title>ReplayReader&#45;&gt;ReplayContract</title>
<path fill="none" stroke="black" stroke-dasharray="1,5" d="M2558.96,-667.31C2558.96,-650.8 2558.96,-629 2558.96,-629 2558.96,-629 2160,-629 2160,-629 2160,-629 2160,-599.2 2160,-599.2"/>
<polygon fill="black" stroke="black" points="2162.45,-599.2 2160,-592.2 2157.55,-599.2 2162.45,-599.2"/>
</g>
<!-- ReplaySandbox -->
<g id="node50" class="node">
<title>ReplaySandbox</title>
<g id="a_node50"><a xlink:href="observability/70_observability.svg" xlink:title="ReplaySandbox&#10;isolated">
<path fill="#f5f5f5" stroke="#666666" d="M2701.5,-486C2701.5,-486 2640.5,-486 2640.5,-486 2634.5,-486 2628.5,-480 2628.5,-474 2628.5,-474 2628.5,-462 2628.5,-462 2628.5,-456 2634.5,-450 2640.5,-450 2640.5,-450 2701.5,-450 2701.5,-450 2707.5,-450 2713.5,-456 2713.5,-462 2713.5,-462 2713.5,-474 2713.5,-474 2713.5,-480 2707.5,-486 2701.5,-486"/>
<text xml:space="preserve" text-anchor="middle" x="2671" y="-470.5" font-family="Arial" font-size="10.00">ReplaySandbox</text>
<text xml:space="preserve" text-anchor="middle" x="2671" y="-458.5" font-family="Arial" font-size="10.00">isolated</text>
</a>
</g>
</g>
<!-- ReplayPlan&#45;&gt;ReplaySandbox -->
<g id="edge51" class="edge">
<title>ReplayPlan&#45;&gt;ReplaySandbox</title>
<path fill="none" stroke="black" d="M2603.48,-573C2624.58,-573 2647.88,-573 2647.88,-573 2647.88,-573 2647.88,-494.8 2647.88,-494.8"/>
<polygon fill="black" stroke="black" points="2650.33,-494.8 2647.88,-487.8 2645.43,-494.8 2650.33,-494.8"/>
<text xml:space="preserve" text-anchor="middle" x="2695.75" y="-516.95" font-family="Arial" font-size="9.00">replay(plan)</text>
</g>
<!-- ReplayScenario -->
<g id="node52" class="node">
<title>ReplayScenario</title>
<g id="a_node52"><a xlink:href="observability/70_observability.svg" xlink:title="ReplayScenario&#10;controlled">
<path fill="#f5f5f5" stroke="#666666" d="M2492.5,-421C2492.5,-421 2431.5,-421 2431.5,-421 2425.5,-421 2419.5,-415 2419.5,-409 2419.5,-409 2419.5,-397 2419.5,-397 2419.5,-391 2425.5,-385 2431.5,-385 2431.5,-385 2492.5,-385 2492.5,-385 2498.5,-385 2504.5,-391 2504.5,-397 2504.5,-397 2504.5,-409 2504.5,-409 2504.5,-415 2498.5,-421 2492.5,-421"/>
<text xml:space="preserve" text-anchor="middle" x="2462" y="-405.5" font-family="Arial" font-size="10.00">ReplayScenario</text>
<text xml:space="preserve" text-anchor="middle" x="2462" y="-393.5" font-family="Arial" font-size="10.00">controlled</text>
</a>
</g>
</g>
<!-- ReplayPlan&#45;&gt;ReplayScenario -->
<g id="edge53" class="edge">
<title>ReplayPlan&#45;&gt;ReplayScenario</title>
<path fill="none" stroke="black" d="M2536.78,-573C2516.62,-573 2494.75,-573 2494.75,-573 2494.75,-573 2494.75,-429.71 2494.75,-429.71"/>
<polygon fill="black" stroke="black" points="2497.2,-429.71 2494.75,-422.71 2492.3,-429.71 2497.2,-429.71"/>
<text xml:space="preserve" text-anchor="middle" x="2545.62" y="-516.95" font-family="Arial" font-size="9.00">scenario(plan)</text>
</g>
<!-- ReplaySandboxResult -->
<g id="node51" class="node">
<title>ReplaySandboxResult</title>
<g id="a_node51"><a xlink:href="observability/70_observability.svg" xlink:title="ReplaySandboxResult&#10;immutable">
<path fill="#f5f5f5" stroke="#666666" d="M2586.75,-356C2586.75,-356 2497.25,-356 2497.25,-356 2491.25,-356 2485.25,-350 2485.25,-344 2485.25,-344 2485.25,-332 2485.25,-332 2485.25,-326 2491.25,-320 2497.25,-320 2497.25,-320 2586.75,-320 2586.75,-320 2592.75,-320 2598.75,-326 2598.75,-332 2598.75,-332 2598.75,-344 2598.75,-344 2598.75,-350 2592.75,-356 2586.75,-356"/>
<text xml:space="preserve" text-anchor="middle" x="2542" y="-340.5" font-family="Arial" font-size="10.00">ReplaySandboxResult</text>
<text xml:space="preserve" text-anchor="middle" x="2542" y="-328.5" font-family="Arial" font-size="10.00">immutable</text>
</a>
</g>
</g>
<!-- ReplaySandbox&#45;&gt;ReplaySandboxResult -->
<g id="edge52" class="edge">
<title>ReplaySandbox&#45;&gt;ReplaySandboxResult</title>
<path fill="none" stroke="black" d="M2632.67,-449.65C2632.67,-413.82 2632.67,-338 2632.67,-338 2632.67,-338 2607.68,-338 2607.68,-338"/>
<polygon fill="black" stroke="black" points="2607.68,-335.55 2600.68,-338 2607.68,-340.45 2607.68,-335.55"/>
<text xml:space="preserve" text-anchor="middle" x="2603.25" y="-399.7" font-family="Arial" font-size="9.00">result</text>
</g>
<!-- ReplayScenarioRunner -->
<g id="node53" class="node">
<title>ReplayScenarioRunner</title>
<g id="a_node53"><a xlink:href="observability/70_observability.svg" xlink:title="ReplayScenarioRunner&#10;passive">
<path fill="#f5f5f5" stroke="#666666" d="M2588.25,-251.5C2588.25,-251.5 2495.75,-251.5 2495.75,-251.5 2489.75,-251.5 2483.75,-245.5 2483.75,-239.5 2483.75,-239.5 2483.75,-227.5 2483.75,-227.5 2483.75,-221.5 2489.75,-215.5 2495.75,-215.5 2495.75,-215.5 2588.25,-215.5 2588.25,-215.5 2594.25,-215.5 2600.25,-221.5 2600.25,-227.5 2600.25,-227.5 2600.25,-239.5 2600.25,-239.5 2600.25,-245.5 2594.25,-251.5 2588.25,-251.5"/>
<text xml:space="preserve" text-anchor="middle" x="2542" y="-236" font-family="Arial" font-size="10.00">ReplayScenarioRunner</text>
<text xml:space="preserve" text-anchor="middle" x="2542" y="-224" font-family="Arial" font-size="10.00">passive</text>
</a>
</g>
</g>
<!-- ReplaySandboxResult&#45;&gt;ReplayScenarioRunner -->
<g id="edge56" class="edge">
<title>ReplaySandboxResult&#45;&gt;ReplayScenarioRunner</title>
<path fill="none" stroke="black" d="M2542,-319.8C2542,-319.8 2542,-260.36 2542,-260.36"/>
<polygon fill="black" stroke="black" points="2544.45,-260.36 2542,-253.36 2539.55,-260.36 2544.45,-260.36"/>
<text xml:space="preserve" text-anchor="middle" x="2567.5" y="-282.45" font-family="Arial" font-size="9.00">collect result</text>
</g>
<!-- ReplayScenario&#45;&gt;ReplayScenarioRunner -->
<g id="edge54" class="edge">
<title>ReplayScenario&#45;&gt;ReplayScenarioRunner</title>
<path fill="none" stroke="black" d="M2451.62,-384.6C2451.62,-339.67 2451.62,-228 2451.62,-228 2451.62,-228 2474.97,-228 2474.97,-228"/>
<polygon fill="black" stroke="black" points="2474.97,-230.45 2481.97,-228 2474.97,-225.55 2474.97,-230.45"/>
<text xml:space="preserve" text-anchor="middle" x="2428.88" y="-334.7" font-family="Arial" font-size="9.00">run/report</text>
</g>
<!-- ReplayScenarioRunner&#45;&gt;ReplaySandbox -->
<g id="edge55" class="edge">
<title>ReplayScenarioRunner&#45;&gt;ReplaySandbox</title>
<path fill="none" stroke="black" d="M2600.71,-240C2620.11,-240 2636.83,-240 2636.83,-240 2636.83,-240 2636.83,-441.21 2636.83,-441.21"/>
<polygon fill="black" stroke="black" points="2634.38,-441.21 2636.83,-448.21 2639.28,-441.21 2634.38,-441.21"/>
<text xml:space="preserve" text-anchor="middle" x="2716.75" y="-334.7" font-family="Arial" font-size="9.00">uses isolated sandbox</text>
</g>
<!-- ReplayReport -->
<g id="node54" class="node">
<title>ReplayReport</title>
<g id="a_node54"><a xlink:href="observability/70_observability.svg" xlink:title="ReplayReport&#10;deterministic">
<path fill="#f5f5f5" stroke="#666666" d="M2705,-147C2705,-147 2653,-147 2653,-147 2647,-147 2641,-141 2641,-135 2641,-135 2641,-123 2641,-123 2641,-117 2647,-111 2653,-111 2653,-111 2705,-111 2705,-111 2711,-111 2717,-117 2717,-123 2717,-123 2717,-135 2717,-135 2717,-141 2711,-147 2705,-147"/>
<text xml:space="preserve" text-anchor="middle" x="2679" y="-131.5" font-family="Arial" font-size="10.00">ReplayReport</text>
<text xml:space="preserve" text-anchor="middle" x="2679" y="-119.5" font-family="Arial" font-size="10.00">deterministic</text>
</a>
</g>
</g>
<!-- ReplayScenarioRunner&#45;&gt;ReplayReport -->
<g id="edge57" class="edge">
<title>ReplayScenarioRunner&#45;&gt;ReplayReport</title>
<path fill="none" stroke="black" d="M2600.54,-228C2637.09,-228 2677.25,-228 2677.25,-228 2677.25,-228 2677.25,-155.67 2677.25,-155.67"/>
<polygon fill="black" stroke="black" points="2679.7,-155.67 2677.25,-148.67 2674.8,-155.67 2679.7,-155.67"/>
<text xml:space="preserve" text-anchor="middle" x="2627" y="-177.95" font-family="Arial" font-size="9.00">deterministic report</text>
</g>
<!-- Replay -->
<g id="node56" class="node">
<title>Replay</title>
<g id="a_node56"><a xlink:href="observability/70_observability.svg" xlink:title="Replay">
<path fill="#f5f5f5" stroke="#666666" d="M2694,-52C2694,-52 2664,-52 2664,-52 2658,-52 2652,-46 2652,-40 2652,-40 2652,-28 2652,-28 2652,-22 2658,-16 2664,-16 2664,-16 2694,-16 2694,-16 2700,-16 2706,-22 2706,-28 2706,-28 2706,-40 2706,-40 2706,-46 2700,-52 2694,-52"/>
<text xml:space="preserve" text-anchor="middle" x="2679" y="-30.5" font-family="Arial" font-size="10.00">Replay</text>
</a>
</g>
</g>
<!-- ReplayReport&#45;&gt;Replay -->
<g id="edge58" class="edge">
<title>ReplayReport&#45;&gt;Replay</title>
<path fill="none" stroke="black" stroke-dasharray="5,2" d="M2679,-110.68C2679,-110.68 2679,-60.77 2679,-60.77"/>
<polygon fill="black" stroke="black" points="2681.45,-60.77 2679,-53.77 2676.55,-60.77 2681.45,-60.77"/>
</g>
<!-- Metrics&#45;&gt;Learning -->
<g id="edge84" class="edge">
<title>Metrics&#45;&gt;Learning</title>
<path fill="none" stroke="black" stroke-dasharray="5,2" d="M2380.69,-667.17C2380.69,-635.3 2380.69,-573 2380.69,-573 2380.69,-573 2357.31,-573 2357.31,-573"/>
<polygon fill="black" stroke="black" points="2357.31,-570.55 2350.31,-573 2357.31,-575.45 2357.31,-570.55"/>
</g>
<!-- Dashboard -->
<g id="node57" class="node">
<title>Dashboard</title>
<g id="a_node57"><a xlink:href="observability/70_observability.svg" xlink:title="Dashboard">
<path fill="#f5f5f5" stroke="#666666" d="M2435.62,-590.5C2435.62,-590.5 2396.38,-590.5 2396.38,-590.5 2390.38,-590.5 2384.38,-584.5 2384.38,-578.5 2384.38,-578.5 2384.38,-566.5 2384.38,-566.5 2384.38,-560.5 2390.38,-554.5 2396.38,-554.5 2396.38,-554.5 2435.62,-554.5 2435.62,-554.5 2441.62,-554.5 2447.62,-560.5 2447.62,-566.5 2447.62,-566.5 2447.62,-578.5 2447.62,-578.5 2447.62,-584.5 2441.62,-590.5 2435.62,-590.5"/>
<text xml:space="preserve" text-anchor="middle" x="2416" y="-569" font-family="Arial" font-size="10.00">Dashboard</text>
</a>
</g>
</g>
<!-- Metrics&#45;&gt;Dashboard -->
<g id="edge59" class="edge">
<title>Metrics&#45;&gt;Dashboard</title>
<path fill="none" stroke="black" stroke-dasharray="5,2" d="M2407.69,-667.09C2407.69,-667.09 2407.69,-599.41 2407.69,-599.41"/>
<polygon fill="black" stroke="black" points="2410.14,-599.41 2407.69,-592.41 2405.24,-599.41 2410.14,-599.41"/>
</g>
<!-- Watchdog -->
<g id="node58" class="node">
<title>Watchdog</title>
<g id="a_node58"><a xlink:href="observability/70_observability.svg" xlink:title="Watchdog">
<path fill="#f5f5f5" stroke="#666666" d="M2750.75,-921C2750.75,-921 2715.25,-921 2715.25,-921 2709.25,-921 2703.25,-915 2703.25,-909 2703.25,-909 2703.25,-897 2703.25,-897 2703.25,-891 2709.25,-885 2715.25,-885 2715.25,-885 2750.75,-885 2750.75,-885 2756.75,-885 2762.75,-891 2762.75,-897 2762.75,-897 2762.75,-909 2762.75,-909 2762.75,-915 2756.75,-921 2750.75,-921"/>
<text xml:space="preserve" text-anchor="middle" x="2733" y="-899.5" font-family="Arial" font-size="10.00">Watchdog</text>
</a>
</g>
</g>
<!-- Watchdog&#45;&gt;Scheduler -->
<g id="edge60" class="edge">
<title>Watchdog&#45;&gt;Scheduler</title>
<path fill="none" stroke="black" stroke-dasharray="5,2" d="M2734.31,-921.24C2734.31,-1011.59 2734.31,-1407 2734.31,-1407 2734.31,-1407 908.75,-1407 908.75,-1407 908.75,-1407 908.75,-1424.08 908.75,-1424.08"/>
<polygon fill="black" stroke="black" points="906.3,-1424.08 908.75,-1431.08 911.2,-1424.08 906.3,-1424.08"/>
</g>
<!-- Pytest -->
<g id="node59" class="node">
<title>Pytest</title>
<g id="a_node59"><a xlink:href="tests/80_tests.svg" xlink:title="pytest suite\n22 tests">
<path fill="#e3f2fd" stroke="#1565c0" d="M441.5,-1685.5C441.5,-1685.5 398.5,-1685.5 398.5,-1685.5 392.5,-1685.5 386.5,-1679.5 386.5,-1673.5 386.5,-1673.5 386.5,-1661.5 386.5,-1661.5 386.5,-1655.5 392.5,-1649.5 398.5,-1649.5 398.5,-1649.5 441.5,-1649.5 441.5,-1649.5 447.5,-1649.5 453.5,-1655.5 453.5,-1661.5 453.5,-1661.5 453.5,-1673.5 453.5,-1673.5 453.5,-1679.5 447.5,-1685.5 441.5,-1685.5"/>
<text xml:space="preserve" text-anchor="middle" x="420" y="-1670" font-family="Arial" font-size="10.00">pytest suite</text>
<text xml:space="preserve" text-anchor="middle" x="420" y="-1658" font-family="Arial" font-size="10.00">22 tests</text>
</a>
</g>
</g>
<!-- Pytest&#45;&gt;Proxy -->
<g id="edge63" class="edge">
<title>Pytest&#45;&gt;Proxy</title>
<path fill="none" stroke="black" stroke-dasharray="1,5" d="M450.96,-1649.22C450.96,-1622.27 450.96,-1575 450.96,-1575 450.96,-1575 944.23,-1575 944.23,-1575"/>
<polygon fill="black" stroke="black" points="944.23,-1577.45 951.23,-1575 944.23,-1572.55 944.23,-1577.45"/>
</g>
<!-- Pytest&#45;&gt;Policy -->
<g id="edge66" class="edge">
<title>Pytest&#45;&gt;Policy</title>
<path fill="none" stroke="black" stroke-dasharray="1,5" d="M445.88,-1649.18C445.88,-1580.75 445.88,-1344 445.88,-1344 445.88,-1344 893.8,-1344 893.8,-1344"/>
<polygon fill="black" stroke="black" points="893.8,-1346.45 900.8,-1344 893.8,-1341.55 893.8,-1346.45"/>
</g>
<!-- Pytest&#45;&gt;Dispatcher -->
<g id="edge62" class="edge">
<title>Pytest&#45;&gt;Dispatcher</title>
<path fill="none" stroke="black" stroke-dasharray="1,5" d="M443.33,-1649.27C443.33,-1555.21 443.33,-1129 443.33,-1129 443.33,-1129 830.23,-1129 830.23,-1129"/>
<polygon fill="black" stroke="black" points="830.23,-1131.45 837.23,-1129 830.23,-1126.55 830.23,-1131.45"/>
</g>
<!-- Pytest&#45;&gt;EventContract -->
<g id="edge61" class="edge">
<title>Pytest&#45;&gt;EventContract</title>
<path fill="none" stroke="black" stroke-dasharray="1,5" d="M435.71,-1649.08C435.71,-1527.13 435.71,-841 435.71,-841 435.71,-841 1663.62,-841 1663.62,-841 1663.62,-841 1663.62,-816.93 1663.62,-816.93"/>
<polygon fill="black" stroke="black" points="1666.08,-816.93 1663.63,-809.93 1661.18,-816.93 1666.08,-816.93"/>
</g>
<!-- Pytest&#45;&gt;ContextEngine -->
<g id="edge64" class="edge">
<title>Pytest&#45;&gt;ContextEngine</title>
<path fill="none" stroke="black" stroke-dasharray="1,5" d="M410.83,-1649.25C410.83,-1620.53 410.83,-1568 410.83,-1568 410.83,-1568 160.26,-1568 160.26,-1568"/>
<polygon fill="black" stroke="black" points="160.26,-1565.55 153.26,-1568 160.26,-1570.45 160.26,-1565.55"/>
</g>
<!-- Pytest&#45;&gt;InferenceHandler -->
<g id="edge65" class="edge">
<title>Pytest&#45;&gt;InferenceHandler</title>
<path fill="none" stroke="black" stroke-dasharray="1,5" d="M448.42,-1649.21C448.42,-1586.19 448.42,-1382 448.42,-1382 448.42,-1382 1170.17,-1382 1170.17,-1382 1170.17,-1382 1170.17,-1042.91 1170.17,-1042.91"/>
<polygon fill="black" stroke="black" points="1172.62,-1042.91 1170.17,-1035.91 1167.72,-1042.91 1172.62,-1042.91"/>
</g>
<!-- Pytest&#45;&gt;KernelTelemetry -->
<g id="edge67" class="edge">
<title>Pytest&#45;&gt;KernelTelemetry</title>
<path fill="none" stroke="black" stroke-dasharray="1,5" d="M440.79,-1649.35C440.79,-1541.45 440.79,-989 440.79,-989 440.79,-989 2585.6,-989 2585.6,-989 2585.6,-989 2585.6,-929.75 2585.6,-929.75"/>
<polygon fill="black" stroke="black" points="2588.05,-929.75 2585.6,-922.75 2583.15,-929.75 2588.05,-929.75"/>
</g>
<!-- Pytest&#45;&gt;EventRecorder -->
<g id="edge68" class="edge">
<title>Pytest&#45;&gt;EventRecorder</title>
<path fill="none" stroke="black" stroke-dasharray="1,5" d="M438.25,-1649.04C438.25,-1538.05 438.25,-964 438.25,-964 438.25,-964 2490.46,-964 2490.46,-964 2490.46,-964 2490.46,-929.82 2490.46,-929.82"/>
<polygon fill="black" stroke="black" points="2492.91,-929.82 2490.46,-922.82 2488.01,-929.82 2492.91,-929.82"/>
</g>
<!-- Pytest&#45;&gt;ReplayReader -->
<g id="edge69" class="edge">
<title>Pytest&#45;&gt;ReplayReader</title>
<path fill="none" stroke="black" stroke-dasharray="1,5" d="M433.17,-1649.35C433.17,-1519.59 433.17,-738 433.17,-738 433.17,-738 2556.96,-738 2556.96,-738 2556.96,-738 2556.96,-712.38 2556.96,-712.38"/>
<polygon fill="black" stroke="black" points="2559.41,-712.38 2556.96,-705.38 2554.51,-712.38 2559.41,-712.38"/>
</g>
<!-- Pytest&#45;&gt;ReplaySandbox -->
<g id="edge70" class="edge">
<title>Pytest&#45;&gt;ReplaySandbox</title>
<path fill="none" stroke="black" stroke-dasharray="1,5" d="M430.62,-1649.14C430.62,-1498.23 430.62,-468 430.62,-468 430.62,-468 2619.73,-468 2619.73,-468"/>
<polygon fill="black" stroke="black" points="2619.73,-470.45 2626.73,-468 2619.73,-465.55 2619.73,-470.45"/>
</g>
<!-- Pytest&#45;&gt;ReplayScenarioRunner -->
<g id="edge71" class="edge">
<title>Pytest&#45;&gt;ReplayScenarioRunner</title>
<path fill="none" stroke="black" stroke-dasharray="1,5" d="M428.08,-1649.19C428.08,-1482.9 428.08,-240 428.08,-240 428.08,-240 2474.74,-240 2474.74,-240"/>
<polygon fill="black" stroke="black" points="2474.74,-242.45 2481.74,-240 2474.74,-237.55 2474.74,-242.45"/>
</g>
<!-- Pytest&#45;&gt;ReplayReport -->
<g id="edge72" class="edge">
<title>Pytest&#45;&gt;ReplayReport</title>
<path fill="none" stroke="black" stroke-dasharray="1,5" d="M425.54,-1649.15C425.54,-1475.57 425.54,-129 425.54,-129 425.54,-129 2632.32,-129 2632.32,-129"/>
<polygon fill="black" stroke="black" points="2632.32,-131.45 2639.32,-129 2632.32,-126.55 2632.32,-131.45"/>
</g>
<!-- CompileAll -->
<g id="node60" class="node">
<title>CompileAll</title>
<path fill="#e3f2fd" stroke="#1565c0" d="M657.75,-1685.5C657.75,-1685.5 622.25,-1685.5 622.25,-1685.5 616.25,-1685.5 610.25,-1679.5 610.25,-1673.5 610.25,-1673.5 610.25,-1661.5 610.25,-1661.5 610.25,-1655.5 616.25,-1649.5 622.25,-1649.5 622.25,-1649.5 657.75,-1649.5 657.75,-1649.5 663.75,-1649.5 669.75,-1655.5 669.75,-1661.5 669.75,-1661.5 669.75,-1673.5 669.75,-1673.5 669.75,-1679.5 663.75,-1685.5 657.75,-1685.5"/>
<text xml:space="preserve" text-anchor="middle" x="640" y="-1664" font-family="Arial" font-size="10.00">compileall</text>
</g>
<!-- CompileAll&#45;&gt;Scheduler -->
<g id="edge73" class="edge">
<title>CompileAll&#45;&gt;Scheduler</title>
<path fill="none" stroke="black" stroke-dasharray="1,5" d="M640,-1649.26C640,-1598.97 640,-1462 640,-1462 640,-1462 843.33,-1462 843.33,-1462"/>
<polygon fill="black" stroke="black" points="843.33,-1464.45 850.33,-1462 843.33,-1459.55 843.33,-1464.45"/>
</g>
<!-- DotRender -->
<g id="node61" class="node">
<title>DotRender</title>
<path fill="#e3f2fd" stroke="#1565c0" d="M562.5,-1685.5C562.5,-1685.5 501.5,-1685.5 501.5,-1685.5 495.5,-1685.5 489.5,-1679.5 489.5,-1673.5 489.5,-1673.5 489.5,-1661.5 489.5,-1661.5 489.5,-1655.5 495.5,-1649.5 501.5,-1649.5 501.5,-1649.5 562.5,-1649.5 562.5,-1649.5 568.5,-1649.5 574.5,-1655.5 574.5,-1661.5 574.5,-1661.5 574.5,-1673.5 574.5,-1673.5 574.5,-1679.5 568.5,-1685.5 562.5,-1685.5"/>
<text xml:space="preserve" text-anchor="middle" x="532" y="-1664" font-family="Arial" font-size="10.00">Graphviz render</text>
</g>
<!-- DotRender&#45;&gt;Scheduler -->
<g id="edge74" class="edge">
<title>DotRender&#45;&gt;Scheduler</title>
<path fill="none" stroke="black" stroke-dasharray="1,5" d="M564.62,-1649.01C564.62,-1597.31 564.62,-1455 564.62,-1455 564.62,-1455 843.34,-1455 843.34,-1455"/>
<polygon fill="black" stroke="black" points="843.34,-1457.45 850.34,-1455 843.34,-1452.55 843.34,-1457.45"/>
</g>
</g>
</svg>
