<?xml version="1.0" encoding="UTF-8" standalone="no"?>
<!DOCTYPE svg PUBLIC "-//W3C//DTD SVG 1.1//EN"
 "http://www.w3.org/Graphics/SVG/1.1/DTD/svg11.dtd">
<!-- Generated by graphviz version 14.1.3 (20260303.0454)
 -->
<!-- Title: Global Pages: 1 -->
<svg width="2453pt" height="1371pt"
 viewBox="0.00 0.00 2453.00 1371.00" xmlns="http://www.w3.org/2000/svg" xmlns:xlink="http://www.w3.org/1999/xlink">
<g id="graph0" class="graph" transform="scale(1 1) rotate(0) translate(4 1367)">
<title>Global</title>
<polygon fill="white" stroke="none" points="-4,4 -4,-1367 2449,-1367 2449,4 -4,4"/>
<g id="clust1" class="cluster">
<title>cluster_L0</title>
<polygon fill="#ffebee" stroke="#c62828" points="8,-8 8,-81.5 494,-81.5 494,-8 8,-8"/>
<text xml:space="preserve" text-anchor="middle" x="251" y="-67.05" font-family="Arial" font-size="11.00">Layer 0 — Hardware target</text>
</g>
<g id="clust2" class="cluster">
<title>cluster_L1</title>
<polygon fill="#ede7f6" stroke="#512da8" points="580,-639.5 580,-1355 816,-1355 816,-639.5 580,-639.5"/>
<text xml:space="preserve" text-anchor="middle" x="698" y="-1340.55" font-family="Arial" font-size="11.00">Layer 1 — MissiPy Micro&#45;Kernel Phase 1.2bis</text>
</g>
<g id="clust3" class="cluster">
<title>cluster_L2</title>
<polygon fill="#eceff1" stroke="#455a64" points="619,-111.5 619,-185 1229,-185 1229,-111.5 619,-111.5"/>
<text xml:space="preserve" text-anchor="middle" x="924" y="-170.55" font-family="Arial" font-size="11.00">Layer 2 — Contracts</text>
</g>
<g id="clust4" class="cluster">
<title>cluster_L3</title>
<polygon fill="#fff3e0" stroke="#ef6c00" points="359,-318.5 359,-1148 499,-1148 499,-318.5 359,-318.5"/>
<text xml:space="preserve" text-anchor="middle" x="429" y="-1133.55" font-family="Arial" font-size="11.00">Layer 3 — Context Fabric</text>
</g>
<g id="clust5" class="cluster">
<title>cluster_L4</title>
<polygon fill="#e1f5fe" stroke="#0288d1" points="1245,-526.5 1245,-600 1907,-600 1907,-526.5 1245,-526.5"/>
<text xml:space="preserve" text-anchor="middle" x="1576" y="-585.55" font-family="Arial" font-size="11.00">Layer 4 — Independent Services future</text>
</g>
<g id="clust6" class="cluster">
<title>cluster_L5</title>
<polygon fill="#fffde7" stroke="#f9a825" points="381,-111.5 381,-288.5 609,-288.5 609,-111.5 381,-111.5"/>
<text xml:space="preserve" text-anchor="middle" x="495" y="-274.05" font-family="Arial" font-size="11.00">Layer 5 — Inference future</text>
</g>
<g id="clust7" class="cluster">
<title>cluster_L6</title>
<polygon fill="#e8f5e9" stroke="#388e3c" points="1322,-961.5 1322,-1035 1581,-1035 1581,-961.5 1322,-961.5"/>
<text xml:space="preserve" text-anchor="middle" x="1451.5" y="-1020.55" font-family="Arial" font-size="11.00">Layer 6 — Experts</text>
</g>
<g id="clust8" class="cluster">
<title>cluster_L7</title>
<polygon fill="#f3e5f5" stroke="#7b1fa2" points="1306,-848.5 1306,-922 1468,-922 1468,-848.5 1306,-848.5"/>
<text xml:space="preserve" text-anchor="middle" x="1387" y="-907.55" font-family="Arial" font-size="11.00">Layer 7 — Validation future</text>
</g>
<g id="clust9" class="cluster">
<title>cluster_L8</title>
<polygon fill="#efebe9" stroke="#6d4c41" points="2281,-423 2281,-496.5 2437,-496.5 2437,-423 2281,-423"/>
<text xml:space="preserve" text-anchor="middle" x="2359" y="-482.05" font-family="Arial" font-size="11.00">Layer 8 — Learning future</text>
</g>
<g id="clust10" class="cluster">
<title>cluster_L9</title>
<polygon fill="#f5f5f5" stroke="#666666" points="1927,-423 1927,-600 2273,-600 2273,-423 1927,-423"/>
<text xml:space="preserve" text-anchor="middle" x="2100" y="-585.55" font-family="Arial" font-size="11.00">Layer 9 — Observability</text>
</g>
<g id="clust11" class="cluster">
<title>cluster_L10</title>
<polygon fill="#e3f2fd" stroke="#1565c0" points="871,-1178 871,-1251.5 1171,-1251.5 1171,-1178 871,-1178"/>
<text xml:space="preserve" text-anchor="middle" x="1021" y="-1237.05" font-family="Arial" font-size="11.00">Layer 10 — Test Harness Phase 1.2bis</text>
</g>
<!-- CPU -->
<g id="node1" class="node">
<title>CPU</title>
<path fill="#ffebee" stroke="#c62828" d="M77.88,-52C77.88,-52 28.12,-52 28.12,-52 22.13,-52 16.12,-46 16.12,-40 16.12,-40 16.12,-28 16.12,-28 16.12,-22 22.12,-16 28.12,-16 28.12,-16 77.88,-16 77.88,-16 83.88,-16 89.88,-22 89.88,-28 89.88,-28 89.88,-40 89.88,-40 89.88,-46 83.88,-52 77.88,-52"/>
<text xml:space="preserve" text-anchor="middle" x="53" y="-36.5" font-family="Arial" font-size="10.00">Intel i5&#45;11400</text>
<text xml:space="preserve" text-anchor="middle" x="53" y="-24.5" font-family="Arial" font-size="10.00">CPU</text>
</g>
<!-- RAM -->
<g id="node2" class="node">
<title>RAM</title>
<path fill="#ffebee" stroke="#c62828" d="M190.38,-52C190.38,-52 137.62,-52 137.62,-52 131.62,-52 125.62,-46 125.62,-40 125.62,-40 125.62,-28 125.62,-28 125.62,-22 131.62,-16 137.62,-16 137.62,-16 190.38,-16 190.38,-16 196.38,-16 202.38,-22 202.38,-28 202.38,-28 202.38,-40 202.38,-40 202.38,-46 196.38,-52 190.38,-52"/>
<text xml:space="preserve" text-anchor="middle" x="164" y="-30.5" font-family="Arial" font-size="10.00">128GB DDR4</text>
</g>
<!-- Storage -->
<g id="node3" class="node">
<title>Storage</title>
<path fill="#ffebee" stroke="#c62828" d="M345.75,-52C345.75,-52 250.25,-52 250.25,-52 244.25,-52 238.25,-46 238.25,-40 238.25,-40 238.25,-28 238.25,-28 238.25,-22 244.25,-16 250.25,-16 250.25,-16 345.75,-16 345.75,-16 351.75,-16 357.75,-22 357.75,-28 357.75,-28 357.75,-40 357.75,-40 357.75,-46 351.75,-52 345.75,-52"/>
<text xml:space="preserve" text-anchor="middle" x="298" y="-36.5" font-family="Arial" font-size="10.00">ZFS</text>
<text xml:space="preserve" text-anchor="middle" x="298" y="-24.5" font-family="Arial" font-size="10.00">NVMe + RAIDZ2 SATA</text>
</g>
<!-- GPU -->
<g id="node4" class="node">
<title>GPU</title>
<path fill="#ffebee" stroke="#c62828" d="M473.88,-52C473.88,-52 406.12,-52 406.12,-52 400.12,-52 394.12,-46 394.12,-40 394.12,-40 394.12,-28 394.12,-28 394.12,-22 400.12,-16 406.12,-16 406.12,-16 473.88,-16 473.88,-16 479.88,-16 485.88,-22 485.88,-28 485.88,-28 485.88,-40 485.88,-40 485.88,-46 479.88,-52 473.88,-52"/>
<text xml:space="preserve" text-anchor="middle" x="440" y="-36.5" font-family="Arial" font-size="10.00">Intel iGPU</text>
<text xml:space="preserve" text-anchor="middle" x="440" y="-24.5" font-family="Arial" font-size="10.00">OpenVINO future</text>
</g>
<!-- Launcher -->
<g id="node5" class="node">
<title>Launcher</title>
<g id="a_node5"><a xlink:href="scheduler/10_scheduler.svg" xlink:title="Zoom Scheduler">
<path fill="#ede7f6" stroke="#512da8" d="M777.88,-1325.5C777.88,-1325.5 746.12,-1325.5 746.12,-1325.5 740.12,-1325.5 734.12,-1319.5 734.12,-1313.5 734.12,-1313.5 734.12,-1301.5 734.12,-1301.5 734.12,-1295.5 740.12,-1289.5 746.12,-1289.5 746.12,-1289.5 777.88,-1289.5 777.88,-1289.5 783.88,-1289.5 789.88,-1295.5 789.88,-1301.5 789.88,-1301.5 789.88,-1313.5 789.88,-1313.5 789.88,-1319.5 783.88,-1325.5 777.88,-1325.5"/>
<text xml:space="preserve" text-anchor="middle" x="762" y="-1304" font-family="Arial" font-size="10.00">Launcher</text>
</a>
</g>
</g>
<!-- Registry -->
<g id="node6" class="node">
<title>Registry</title>
<g id="a_node6"><a xlink:href="scheduler/10_scheduler.svg" xlink:title="Registry">
<path fill="#ede7f6" stroke="#512da8" d="M777,-1222C777,-1222 747,-1222 747,-1222 741,-1222 735,-1216 735,-1210 735,-1210 735,-1198 735,-1198 735,-1192 741,-1186 747,-1186 747,-1186 777,-1186 777,-1186 783,-1186 789,-1192 789,-1198 789,-1198 789,-1210 789,-1210 789,-1216 783,-1222 777,-1222"/>
<text xml:space="preserve" text-anchor="middle" x="762" y="-1200.5" font-family="Arial" font-size="10.00">Registry</text>
</a>
</g>
</g>
<!-- Launcher&#45;&gt;Registry -->
<g id="edge1" class="edge">
<title>Launcher&#45;&gt;Registry</title>
<path fill="none" stroke="black" d="M762,-1289.47C762,-1289.47 762,-1230.68 762,-1230.68"/>
<polygon fill="black" stroke="black" points="764.45,-1230.68 762,-1223.68 759.55,-1230.68 764.45,-1230.68"/>
</g>
<!-- Proxy -->
<g id="node7" class="node">
<title>Proxy</title>
<g id="a_node7"><a xlink:href="scheduler/10_scheduler.svg" xlink:title="ComponentProxy\nstateful">
<path fill="#ede7f6" stroke="#512da8" d="M795.88,-1118.5C795.88,-1118.5 728.12,-1118.5 728.12,-1118.5 722.12,-1118.5 716.12,-1112.5 716.12,-1106.5 716.12,-1106.5 716.12,-1094.5 716.12,-1094.5 716.12,-1088.5 722.12,-1082.5 728.12,-1082.5 728.12,-1082.5 795.88,-1082.5 795.88,-1082.5 801.88,-1082.5 807.88,-1088.5 807.88,-1094.5 807.88,-1094.5 807.88,-1106.5 807.88,-1106.5 807.88,-1112.5 801.88,-1118.5 795.88,-1118.5"/>
<text xml:space="preserve" text-anchor="middle" x="762" y="-1103" font-family="Arial" font-size="10.00">ComponentProxy</text>
<text xml:space="preserve" text-anchor="middle" x="762" y="-1091" font-family="Arial" font-size="10.00">stateful</text>
</a>
</g>
</g>
<!-- Registry&#45;&gt;Proxy -->
<g id="edge2" class="edge">
<title>Registry&#45;&gt;Proxy</title>
<path fill="none" stroke="black" d="M762,-1185.97C762,-1185.97 762,-1127.18 762,-1127.18"/>
<polygon fill="black" stroke="black" points="764.45,-1127.18 762,-1120.18 759.55,-1127.18 764.45,-1127.18"/>
</g>
<!-- Scheduler -->
<g id="node8" class="node">
<title>Scheduler</title>
<g id="a_node8"><a xlink:href="scheduler/10_scheduler.svg" xlink:title="Zoom Scheduler">
<path fill="#ede7f6" stroke="#512da8" d="M787.75,-1005.5C787.75,-1005.5 752.25,-1005.5 752.25,-1005.5 746.25,-1005.5 740.25,-999.5 740.25,-993.5 740.25,-993.5 740.25,-981.5 740.25,-981.5 740.25,-975.5 746.25,-969.5 752.25,-969.5 752.25,-969.5 787.75,-969.5 787.75,-969.5 793.75,-969.5 799.75,-975.5 799.75,-981.5 799.75,-981.5 799.75,-993.5 799.75,-993.5 799.75,-999.5 793.75,-1005.5 787.75,-1005.5"/>
<text xml:space="preserve" text-anchor="middle" x="770" y="-984" font-family="Arial" font-size="10.00">Scheduler</text>
</a>
</g>
</g>
<!-- Proxy&#45;&gt;Scheduler -->
<g id="edge3" class="edge">
<title>Proxy&#45;&gt;Scheduler</title>
<path fill="none" stroke="black" d="M770,-1082.09C770,-1082.09 770,-1014.41 770,-1014.41"/>
<polygon fill="black" stroke="black" points="772.45,-1014.41 770,-1007.41 767.55,-1014.41 772.45,-1014.41"/>
<text xml:space="preserve" text-anchor="middle" x="784.25" y="-1044.95" font-family="Arial" font-size="9.00">emit(Event)</text>
</g>
<!-- LifecycleContract -->
<g id="node14" class="node">
<title>LifecycleContract</title>
<path fill="#eceff1" stroke="#455a64" d="M1082.75,-155.5C1082.75,-155.5 1017.25,-155.5 1017.25,-155.5 1011.25,-155.5 1005.25,-149.5 1005.25,-143.5 1005.25,-143.5 1005.25,-131.5 1005.25,-131.5 1005.25,-125.5 1011.25,-119.5 1017.25,-119.5 1017.25,-119.5 1082.75,-119.5 1082.75,-119.5 1088.75,-119.5 1094.75,-125.5 1094.75,-131.5 1094.75,-131.5 1094.75,-143.5 1094.75,-143.5 1094.75,-149.5 1088.75,-155.5 1082.75,-155.5"/>
<text xml:space="preserve" text-anchor="middle" x="1050" y="-134" font-family="Arial" font-size="10.00">ComponentState</text>
</g>
<!-- Proxy&#45;&gt;LifecycleContract -->
<g id="edge10" class="edge">
<title>Proxy&#45;&gt;LifecycleContract</title>
<path fill="none" stroke="black" stroke-dasharray="1,5" d="M808.07,-1101C888.66,-1101 1046.75,-1101 1046.75,-1101 1046.75,-1101 1046.75,-164.4 1046.75,-164.4"/>
<polygon fill="black" stroke="black" points="1049.2,-164.4 1046.75,-157.4 1044.3,-164.4 1049.2,-164.4"/>
</g>
<!-- ComponentContract -->
<g id="node15" class="node">
<title>ComponentContract</title>
<path fill="#eceff1" stroke="#455a64" d="M957.5,-155.5C957.5,-155.5 914.5,-155.5 914.5,-155.5 908.5,-155.5 902.5,-149.5 902.5,-143.5 902.5,-143.5 902.5,-131.5 902.5,-131.5 902.5,-125.5 908.5,-119.5 914.5,-119.5 914.5,-119.5 957.5,-119.5 957.5,-119.5 963.5,-119.5 969.5,-125.5 969.5,-131.5 969.5,-131.5 969.5,-143.5 969.5,-143.5 969.5,-149.5 963.5,-155.5 957.5,-155.5"/>
<text xml:space="preserve" text-anchor="middle" x="936" y="-140" font-family="Arial" font-size="10.00">Component</text>
<text xml:space="preserve" text-anchor="middle" x="936" y="-128" font-family="Arial" font-size="10.00">tick/context</text>
</g>
<!-- Proxy&#45;&gt;ComponentContract -->
<g id="edge24" class="edge">
<title>Proxy&#45;&gt;ComponentContract</title>
<path fill="none" stroke="black" stroke-dasharray="1,5" d="M807.96,-1092C858.26,-1092 931.83,-1092 931.83,-1092 931.83,-1092 931.83,-164.23 931.83,-164.23"/>
<polygon fill="black" stroke="black" points="934.28,-164.23 931.83,-157.23 929.38,-164.23 934.28,-164.23"/>
</g>
<!-- Dummy -->
<g id="node35" class="node">
<title>Dummy</title>
<g id="a_node35"><a xlink:href="experts/40_experts.svg" xlink:title="DummyExpert\ncurrent">
<path fill="#e8f5e9" stroke="#388e3c" d="M1397.5,-1005.5C1397.5,-1005.5 1342.5,-1005.5 1342.5,-1005.5 1336.5,-1005.5 1330.5,-999.5 1330.5,-993.5 1330.5,-993.5 1330.5,-981.5 1330.5,-981.5 1330.5,-975.5 1336.5,-969.5 1342.5,-969.5 1342.5,-969.5 1397.5,-969.5 1397.5,-969.5 1403.5,-969.5 1409.5,-975.5 1409.5,-981.5 1409.5,-981.5 1409.5,-993.5 1409.5,-993.5 1409.5,-999.5 1403.5,-1005.5 1397.5,-1005.5"/>
<text xml:space="preserve" text-anchor="middle" x="1370" y="-990" font-family="Arial" font-size="10.00">DummyExpert</text>
<text xml:space="preserve" text-anchor="middle" x="1370" y="-978" font-family="Arial" font-size="10.00">current</text>
</a>
</g>
</g>
<!-- Proxy&#45;&gt;Dummy -->
<g id="edge27" class="edge">
<title>Proxy&#45;&gt;Dummy</title>
<path fill="none" stroke="black" d="M808.2,-1110C950.08,-1110 1370,-1110 1370,-1110 1370,-1110 1370,-1014.35 1370,-1014.35"/>
<polygon fill="black" stroke="black" points="1372.45,-1014.35 1370,-1007.35 1367.55,-1014.35 1372.45,-1014.35"/>
<text xml:space="preserve" text-anchor="middle" x="1214.62" y="-1044.95" font-family="Arial" font-size="9.00">tick/asend</text>
</g>
<!-- Queue -->
<g id="node9" class="node">
<title>Queue</title>
<g id="a_node9"><a xlink:href="scheduler/10_scheduler.svg" xlink:title="PriorityQueue\nFIFO same priority">
<path fill="#ede7f6" stroke="#512da8" d="M747.88,-892.5C747.88,-892.5 674.12,-892.5 674.12,-892.5 668.12,-892.5 662.12,-886.5 662.12,-880.5 662.12,-880.5 662.12,-868.5 662.12,-868.5 662.12,-862.5 668.12,-856.5 674.12,-856.5 674.12,-856.5 747.88,-856.5 747.88,-856.5 753.88,-856.5 759.88,-862.5 759.88,-868.5 759.88,-868.5 759.88,-880.5 759.88,-880.5 759.88,-886.5 753.88,-892.5 747.88,-892.5"/>
<text xml:space="preserve" text-anchor="middle" x="711" y="-877" font-family="Arial" font-size="10.00">PriorityQueue</text>
<text xml:space="preserve" text-anchor="middle" x="711" y="-865" font-family="Arial" font-size="10.00">FIFO same priority</text>
</a>
</g>
</g>
<!-- Scheduler&#45;&gt;Queue -->
<g id="edge4" class="edge">
<title>Scheduler&#45;&gt;Queue</title>
<path fill="none" stroke="black" d="M750.06,-969.09C750.06,-969.09 750.06,-901.41 750.06,-901.41"/>
<polygon fill="black" stroke="black" points="752.51,-901.41 750.06,-894.41 747.61,-901.41 752.51,-901.41"/>
<text xml:space="preserve" text-anchor="middle" x="759.38" y="-931.95" font-family="Arial" font-size="9.00">put(priority, event)</text>
</g>
<!-- EventContract -->
<g id="node13" class="node">
<title>EventContract</title>
<path fill="#eceff1" stroke="#455a64" d="M1209.12,-155.5C1209.12,-155.5 1142.88,-155.5 1142.88,-155.5 1136.88,-155.5 1130.88,-149.5 1130.88,-143.5 1130.88,-143.5 1130.88,-131.5 1130.88,-131.5 1130.88,-125.5 1136.88,-119.5 1142.88,-119.5 1142.88,-119.5 1209.12,-119.5 1209.12,-119.5 1215.12,-119.5 1221.12,-125.5 1221.12,-131.5 1221.12,-131.5 1221.12,-143.5 1221.12,-143.5 1221.12,-149.5 1215.12,-155.5 1209.12,-155.5"/>
<text xml:space="preserve" text-anchor="middle" x="1176" y="-140" font-family="Arial" font-size="10.00">Event + Request</text>
<text xml:space="preserve" text-anchor="middle" x="1176" y="-128" font-family="Arial" font-size="10.00">uuid id</text>
</g>
<!-- Scheduler&#45;&gt;EventContract -->
<g id="edge23" class="edge">
<title>Scheduler&#45;&gt;EventContract</title>
<path fill="none" stroke="black" stroke-dasharray="1,5" d="M800.09,-979C888.53,-979 1141.5,-979 1141.5,-979 1141.5,-979 1141.5,-164.37 1141.5,-164.37"/>
<polygon fill="black" stroke="black" points="1143.95,-164.37 1141.5,-157.37 1139.05,-164.37 1143.95,-164.37"/>
</g>
<!-- ContextEngine -->
<g id="node18" class="node">
<title>ContextEngine</title>
<g id="a_node18"><a xlink:href="context/20_context.svg" xlink:title="ContextEngine\nevent collection">
<path fill="#fff3e0" stroke="#ef6c00" d="M479.12,-1118.5C479.12,-1118.5 418.88,-1118.5 418.88,-1118.5 412.88,-1118.5 406.88,-1112.5 406.88,-1106.5 406.88,-1106.5 406.88,-1094.5 406.88,-1094.5 406.88,-1088.5 412.88,-1082.5 418.88,-1082.5 418.88,-1082.5 479.12,-1082.5 479.12,-1082.5 485.12,-1082.5 491.12,-1088.5 491.12,-1094.5 491.12,-1094.5 491.12,-1106.5 491.12,-1106.5 491.12,-1112.5 485.12,-1118.5 479.12,-1118.5"/>
<text xml:space="preserve" text-anchor="middle" x="449" y="-1103" font-family="Arial" font-size="10.00">ContextEngine</text>
<text xml:space="preserve" text-anchor="middle" x="449" y="-1091" font-family="Arial" font-size="10.00">event collection</text>
</a>
</g>
</g>
<!-- Scheduler&#45;&gt;ContextEngine -->
<g id="edge11" class="edge">
<title>Scheduler&#45;&gt;ContextEngine</title>
<path fill="none" stroke="black" d="M739.95,-994C666.56,-994 484.15,-994 484.15,-994 484.15,-994 484.15,-1073.92 484.15,-1073.92"/>
<polygon fill="black" stroke="black" points="481.7,-1073.92 484.15,-1080.92 486.6,-1073.92 481.7,-1073.92"/>
<text xml:space="preserve" text-anchor="middle" x="483.38" y="-1044.95" font-family="Arial" font-size="9.00">clock tick</text>
</g>
<!-- Dispatcher -->
<g id="node10" class="node">
<title>Dispatcher</title>
<g id="a_node10"><a xlink:href="scheduler/10_scheduler.svg" xlink:title="Dispatcher\nno handler = no block">
<path fill="#ede7f6" stroke="#512da8" d="M716.88,-788C716.88,-788 631.12,-788 631.12,-788 625.12,-788 619.12,-782 619.12,-776 619.12,-776 619.12,-764 619.12,-764 619.12,-758 625.12,-752 631.12,-752 631.12,-752 716.88,-752 716.88,-752 722.88,-752 728.88,-758 728.88,-764 728.88,-764 728.88,-776 728.88,-776 728.88,-782 722.88,-788 716.88,-788"/>
<text xml:space="preserve" text-anchor="middle" x="674" y="-772.5" font-family="Arial" font-size="10.00">Dispatcher</text>
<text xml:space="preserve" text-anchor="middle" x="674" y="-760.5" font-family="Arial" font-size="10.00">no handler = no block</text>
</a>
</g>
</g>
<!-- Queue&#45;&gt;Dispatcher -->
<g id="edge5" class="edge">
<title>Queue&#45;&gt;Dispatcher</title>
<path fill="none" stroke="black" d="M695.5,-856.3C695.5,-856.3 695.5,-796.86 695.5,-796.86"/>
<polygon fill="black" stroke="black" points="697.95,-796.86 695.5,-789.86 693.05,-796.86 697.95,-796.86"/>
<text xml:space="preserve" text-anchor="middle" x="732.12" y="-818.95" font-family="Arial" font-size="9.00">get(), FIFO if same priority</text>
</g>
<!-- Dispatcher&#45;&gt;Proxy -->
<g id="edge8" class="edge">
<title>Dispatcher&#45;&gt;Proxy</title>
<path fill="none" stroke="black" stroke-dasharray="5,2" d="M640.62,-788.27C640.62,-857.66 640.62,-1101 640.62,-1101 640.62,-1101 707.25,-1101 707.25,-1101"/>
<polygon fill="black" stroke="black" points="707.25,-1103.45 714.25,-1101 707.25,-1098.55 707.25,-1103.45"/>
<text xml:space="preserve" text-anchor="middle" x="653.5" y="-931.95" font-family="Arial" font-size="9.00">Request.reply</text>
</g>
<!-- EventBus -->
<g id="node11" class="node">
<title>EventBus</title>
<g id="a_node11"><a xlink:href="scheduler/10_scheduler.svg" xlink:title="EventBus\nobservation only">
<path fill="#ede7f6" stroke="#512da8" d="M791.62,-683.5C791.62,-683.5 728.38,-683.5 728.38,-683.5 722.38,-683.5 716.38,-677.5 716.38,-671.5 716.38,-671.5 716.38,-659.5 716.38,-659.5 716.38,-653.5 722.38,-647.5 728.38,-647.5 728.38,-647.5 791.62,-647.5 791.62,-647.5 797.62,-647.5 803.62,-653.5 803.62,-659.5 803.62,-659.5 803.62,-671.5 803.62,-671.5 803.62,-677.5 797.62,-683.5 791.62,-683.5"/>
<text xml:space="preserve" text-anchor="middle" x="760" y="-668" font-family="Arial" font-size="10.00">EventBus</text>
<text xml:space="preserve" text-anchor="middle" x="760" y="-656" font-family="Arial" font-size="10.00">observation only</text>
</a>
</g>
</g>
<!-- Dispatcher&#45;&gt;EventBus -->
<g id="edge7" class="edge">
<title>Dispatcher&#45;&gt;EventBus</title>
<path fill="none" stroke="black" d="M724.71,-751.8C724.71,-751.8 724.71,-692.36 724.71,-692.36"/>
<polygon fill="black" stroke="black" points="727.16,-692.36 724.71,-685.36 722.26,-692.36 727.16,-692.36"/>
<text xml:space="preserve" text-anchor="middle" x="773.88" y="-714.45" font-family="Arial" font-size="9.00">publish copy</text>
</g>
<!-- Lifecycle -->
<g id="node12" class="node">
<title>Lifecycle</title>
<g id="a_node12"><a xlink:href="scheduler/10_scheduler.svg" xlink:title="LifecycleManager\nComponentState">
<path fill="#ede7f6" stroke="#512da8" d="M668.25,-683.5C668.25,-683.5 599.75,-683.5 599.75,-683.5 593.75,-683.5 587.75,-677.5 587.75,-671.5 587.75,-671.5 587.75,-659.5 587.75,-659.5 587.75,-653.5 593.75,-647.5 599.75,-647.5 599.75,-647.5 668.25,-647.5 668.25,-647.5 674.25,-647.5 680.25,-653.5 680.25,-659.5 680.25,-659.5 680.25,-671.5 680.25,-671.5 680.25,-677.5 674.25,-683.5 668.25,-683.5"/>
<text xml:space="preserve" text-anchor="middle" x="634" y="-668" font-family="Arial" font-size="10.00">LifecycleManager</text>
<text xml:space="preserve" text-anchor="middle" x="634" y="-656" font-family="Arial" font-size="10.00">ComponentState</text>
</a>
</g>
</g>
<!-- Dispatcher&#45;&gt;Lifecycle -->
<g id="edge6" class="edge">
<title>Dispatcher&#45;&gt;Lifecycle</title>
<path fill="none" stroke="black" d="M649.69,-751.8C649.69,-751.8 649.69,-692.36 649.69,-692.36"/>
<polygon fill="black" stroke="black" points="652.14,-692.36 649.69,-685.36 647.24,-692.36 652.14,-692.36"/>
<text xml:space="preserve" text-anchor="middle" x="683.75" y="-714.45" font-family="Arial" font-size="9.00">handler</text>
</g>
<!-- ContextRequest -->
<g id="node19" class="node">
<title>ContextRequest</title>
<g id="a_node19"><a xlink:href="context/20_context.svg" xlink:title="CONTEXT_REQUEST\nRequest.reply">
<path fill="#fff3e0" stroke="#ef6c00" d="M479,-892.5C479,-892.5 385,-892.5 385,-892.5 379,-892.5 373,-886.5 373,-880.5 373,-880.5 373,-868.5 373,-868.5 373,-862.5 379,-856.5 385,-856.5 385,-856.5 479,-856.5 479,-856.5 485,-856.5 491,-862.5 491,-868.5 491,-868.5 491,-880.5 491,-880.5 491,-886.5 485,-892.5 479,-892.5"/>
<text xml:space="preserve" text-anchor="middle" x="432" y="-877" font-family="Arial" font-size="10.00">CONTEXT_REQUEST</text>
<text xml:space="preserve" text-anchor="middle" x="432" y="-865" font-family="Arial" font-size="10.00">Request.reply</text>
</a>
</g>
</g>
<!-- Dispatcher&#45;&gt;ContextRequest -->
<g id="edge15" class="edge">
<title>Dispatcher&#45;&gt;ContextRequest</title>
<path fill="none" stroke="black" d="M618.83,-770C563.6,-770 486.75,-770 486.75,-770 486.75,-770 486.75,-847.78 486.75,-847.78"/>
<polygon fill="black" stroke="black" points="484.3,-847.78 486.75,-854.78 489.2,-847.78 484.3,-847.78"/>
<text xml:space="preserve" text-anchor="middle" x="555.75" y="-818.95" font-family="Arial" font-size="9.00">handler</text>
</g>
<!-- Router -->
<g id="node26" class="node">
<title>Router</title>
<g id="a_node26"><a xlink:href="services/30_services.svg" xlink:title="Router">
<path fill="#e1f5fe" stroke="#0288d1" d="M1755,-570.5C1755,-570.5 1725,-570.5 1725,-570.5 1719,-570.5 1713,-564.5 1713,-558.5 1713,-558.5 1713,-546.5 1713,-546.5 1713,-540.5 1719,-534.5 1725,-534.5 1725,-534.5 1755,-534.5 1755,-534.5 1761,-534.5 1767,-540.5 1767,-546.5 1767,-546.5 1767,-558.5 1767,-558.5 1767,-564.5 1761,-570.5 1755,-570.5"/>
<text xml:space="preserve" text-anchor="middle" x="1740" y="-549" font-family="Arial" font-size="10.00">Router</text>
</a>
</g>
</g>
<!-- EventBus&#45;&gt;Router -->
<g id="edge39" class="edge">
<title>EventBus&#45;&gt;Router</title>
<path fill="none" stroke="black" stroke-dasharray="5,2" d="M804.01,-664C994.7,-664 1740,-664 1740,-664 1740,-664 1740,-579.43 1740,-579.43"/>
<polygon fill="black" stroke="black" points="1742.45,-579.43 1740,-572.43 1737.55,-579.43 1742.45,-579.43"/>
<text xml:space="preserve" text-anchor="middle" x="784.25" y="-609.95" font-family="Arial" font-size="9.00">future events</text>
</g>
<!-- SQLiteProd -->
<g id="node27" class="node">
<title>SQLiteProd</title>
<g id="a_node27"><a xlink:href="services/30_services.svg" xlink:title="SQLite Production">
<path fill="#e1f5fe" stroke="#0288d1" d="M1886.75,-570.5C1886.75,-570.5 1815.25,-570.5 1815.25,-570.5 1809.25,-570.5 1803.25,-564.5 1803.25,-558.5 1803.25,-558.5 1803.25,-546.5 1803.25,-546.5 1803.25,-540.5 1809.25,-534.5 1815.25,-534.5 1815.25,-534.5 1886.75,-534.5 1886.75,-534.5 1892.75,-534.5 1898.75,-540.5 1898.75,-546.5 1898.75,-546.5 1898.75,-558.5 1898.75,-558.5 1898.75,-564.5 1892.75,-570.5 1886.75,-570.5"/>
<text xml:space="preserve" text-anchor="middle" x="1851" y="-549" font-family="Arial" font-size="10.00">SQLite Production</text>
</a>
</g>
</g>
<!-- EventBus&#45;&gt;SQLiteProd -->
<g id="edge40" class="edge">
<title>EventBus&#45;&gt;SQLiteProd</title>
<path fill="none" stroke="black" stroke-dasharray="5,2" d="M804.12,-668C1008.23,-668 1851,-668 1851,-668 1851,-668 1851,-579.31 1851,-579.31"/>
<polygon fill="black" stroke="black" points="1853.45,-579.31 1851,-572.31 1848.55,-579.31 1853.45,-579.31"/>
</g>
<!-- SQLiteMaint -->
<g id="node28" class="node">
<title>SQLiteMaint</title>
<g id="a_node28"><a xlink:href="services/30_services.svg" xlink:title="SQLite Maintenance">
<path fill="#e1f5fe" stroke="#0288d1" d="M1345.25,-570.5C1345.25,-570.5 1264.75,-570.5 1264.75,-570.5 1258.75,-570.5 1252.75,-564.5 1252.75,-558.5 1252.75,-558.5 1252.75,-546.5 1252.75,-546.5 1252.75,-540.5 1258.75,-534.5 1264.75,-534.5 1264.75,-534.5 1345.25,-534.5 1345.25,-534.5 1351.25,-534.5 1357.25,-540.5 1357.25,-546.5 1357.25,-546.5 1357.25,-558.5 1357.25,-558.5 1357.25,-564.5 1351.25,-570.5 1345.25,-570.5"/>
<text xml:space="preserve" text-anchor="middle" x="1305" y="-549" font-family="Arial" font-size="10.00">SQLite Maintenance</text>
</a>
</g>
</g>
<!-- EventBus&#45;&gt;SQLiteMaint -->
<g id="edge41" class="edge">
<title>EventBus&#45;&gt;SQLiteMaint</title>
<path fill="none" stroke="black" stroke-dasharray="5,2" d="M789.38,-647.17C789.38,-615.3 789.38,-553 789.38,-553 789.38,-553 1244.21,-553 1244.21,-553"/>
<polygon fill="black" stroke="black" points="1244.21,-555.45 1251.21,-553 1244.21,-550.55 1244.21,-555.45"/>
</g>
<!-- Qdrant -->
<g id="node29" class="node">
<title>Qdrant</title>
<g id="a_node29"><a xlink:href="services/30_services.svg" xlink:title="Qdrant">
<path fill="#e1f5fe" stroke="#0288d1" d="M1435,-570.5C1435,-570.5 1405,-570.5 1405,-570.5 1399,-570.5 1393,-564.5 1393,-558.5 1393,-558.5 1393,-546.5 1393,-546.5 1393,-540.5 1399,-534.5 1405,-534.5 1405,-534.5 1435,-534.5 1435,-534.5 1441,-534.5 1447,-540.5 1447,-546.5 1447,-546.5 1447,-558.5 1447,-558.5 1447,-564.5 1441,-570.5 1435,-570.5"/>
<text xml:space="preserve" text-anchor="middle" x="1420" y="-549" font-family="Arial" font-size="10.00">Qdrant</text>
</a>
</g>
</g>
<!-- EventBus&#45;&gt;Qdrant -->
<g id="edge42" class="edge">
<title>EventBus&#45;&gt;Qdrant</title>
<path fill="none" stroke="black" stroke-dasharray="5,2" d="M804.07,-652C951.77,-652 1420,-652 1420,-652 1420,-652 1420,-579.26 1420,-579.26"/>
<polygon fill="black" stroke="black" points="1422.45,-579.26 1420,-572.26 1417.55,-579.26 1422.45,-579.26"/>
</g>
<!-- Cache -->
<g id="node30" class="node">
<title>Cache</title>
<g id="a_node30"><a xlink:href="services/30_services.svg" xlink:title="Cache">
<path fill="#e1f5fe" stroke="#0288d1" d="M1525,-570.5C1525,-570.5 1495,-570.5 1495,-570.5 1489,-570.5 1483,-564.5 1483,-558.5 1483,-558.5 1483,-546.5 1483,-546.5 1483,-540.5 1489,-534.5 1495,-534.5 1495,-534.5 1525,-534.5 1525,-534.5 1531,-534.5 1537,-540.5 1537,-546.5 1537,-546.5 1537,-558.5 1537,-558.5 1537,-564.5 1531,-570.5 1525,-570.5"/>
<text xml:space="preserve" text-anchor="middle" x="1510" y="-549" font-family="Arial" font-size="10.00">Cache</text>
</a>
</g>
</g>
<!-- EventBus&#45;&gt;Cache -->
<g id="edge43" class="edge">
<title>EventBus&#45;&gt;Cache</title>
<path fill="none" stroke="black" stroke-dasharray="5,2" d="M804.12,-656C964.88,-656 1510,-656 1510,-656 1510,-656 1510,-579.04 1510,-579.04"/>
<polygon fill="black" stroke="black" points="1512.45,-579.04 1510,-572.04 1507.55,-579.04 1512.45,-579.04"/>
</g>
<!-- Knowledge -->
<g id="node31" class="node">
<title>Knowledge</title>
<g id="a_node31"><a xlink:href="services/30_services.svg" xlink:title="Knowledge Manager">
<path fill="#e1f5fe" stroke="#0288d1" d="M1665.25,-570.5C1665.25,-570.5 1584.75,-570.5 1584.75,-570.5 1578.75,-570.5 1572.75,-564.5 1572.75,-558.5 1572.75,-558.5 1572.75,-546.5 1572.75,-546.5 1572.75,-540.5 1578.75,-534.5 1584.75,-534.5 1584.75,-534.5 1665.25,-534.5 1665.25,-534.5 1671.25,-534.5 1677.25,-540.5 1677.25,-546.5 1677.25,-546.5 1677.25,-558.5 1677.25,-558.5 1677.25,-564.5 1671.25,-570.5 1665.25,-570.5"/>
<text xml:space="preserve" text-anchor="middle" x="1625" y="-549" font-family="Arial" font-size="10.00">Knowledge Manager</text>
</a>
</g>
</g>
<!-- EventBus&#45;&gt;Knowledge -->
<g id="edge44" class="edge">
<title>EventBus&#45;&gt;Knowledge</title>
<path fill="none" stroke="black" stroke-dasharray="5,2" d="M804.09,-660C980.37,-660 1625.06,-660 1625.06,-660 1625.06,-660 1625.06,-579.25 1625.06,-579.25"/>
<polygon fill="black" stroke="black" points="1627.51,-579.25 1625.06,-572.25 1622.61,-579.25 1627.51,-579.25"/>
</g>
<!-- Logger -->
<g id="node39" class="node">
<title>Logger</title>
<g id="a_node39"><a xlink:href="observability/70_observability.svg" xlink:title="Logger">
<path fill="#f5f5f5" stroke="#666666" d="M1977,-570.5C1977,-570.5 1947,-570.5 1947,-570.5 1941,-570.5 1935,-564.5 1935,-558.5 1935,-558.5 1935,-546.5 1935,-546.5 1935,-540.5 1941,-534.5 1947,-534.5 1947,-534.5 1977,-534.5 1977,-534.5 1983,-534.5 1989,-540.5 1989,-546.5 1989,-546.5 1989,-558.5 1989,-558.5 1989,-564.5 1983,-570.5 1977,-570.5"/>
<text xml:space="preserve" text-anchor="middle" x="1962" y="-549" font-family="Arial" font-size="10.00">Logger</text>
</a>
</g>
</g>
<!-- EventBus&#45;&gt;Logger -->
<g id="edge28" class="edge">
<title>EventBus&#45;&gt;Logger</title>
<path fill="none" stroke="black" stroke-dasharray="5,2" d="M803.85,-672C1020.02,-672 1962,-672 1962,-672 1962,-672 1962,-579.42 1962,-579.42"/>
<polygon fill="black" stroke="black" points="1964.45,-579.42 1962,-572.42 1959.55,-579.42 1964.45,-579.42"/>
</g>
<!-- Metrics -->
<g id="node40" class="node">
<title>Metrics</title>
<g id="a_node40"><a xlink:href="observability/70_observability.svg" xlink:title="Metrics">
<path fill="#f5f5f5" stroke="#666666" d="M2067,-570.5C2067,-570.5 2037,-570.5 2037,-570.5 2031,-570.5 2025,-564.5 2025,-558.5 2025,-558.5 2025,-546.5 2025,-546.5 2025,-540.5 2031,-534.5 2037,-534.5 2037,-534.5 2067,-534.5 2067,-534.5 2073,-534.5 2079,-540.5 2079,-546.5 2079,-546.5 2079,-558.5 2079,-558.5 2079,-564.5 2073,-570.5 2067,-570.5"/>
<text xml:space="preserve" text-anchor="middle" x="2052" y="-549" font-family="Arial" font-size="10.00">Metrics</text>
</a>
</g>
</g>
<!-- EventBus&#45;&gt;Metrics -->
<g id="edge29" class="edge">
<title>EventBus&#45;&gt;Metrics</title>
<path fill="none" stroke="black" stroke-dasharray="5,2" d="M804.1,-676C1030.54,-676 2052,-676 2052,-676 2052,-676 2052,-579.5 2052,-579.5"/>
<polygon fill="black" stroke="black" points="2054.45,-579.5 2052,-572.5 2049.55,-579.5 2054.45,-579.5"/>
</g>
<!-- Replay -->
<g id="node41" class="node">
<title>Replay</title>
<g id="a_node41"><a xlink:href="observability/70_observability.svg" xlink:title="Replay">
<path fill="#f5f5f5" stroke="#666666" d="M2157,-570.5C2157,-570.5 2127,-570.5 2127,-570.5 2121,-570.5 2115,-564.5 2115,-558.5 2115,-558.5 2115,-546.5 2115,-546.5 2115,-540.5 2121,-534.5 2127,-534.5 2127,-534.5 2157,-534.5 2157,-534.5 2163,-534.5 2169,-540.5 2169,-546.5 2169,-546.5 2169,-558.5 2169,-558.5 2169,-564.5 2163,-570.5 2157,-570.5"/>
<text xml:space="preserve" text-anchor="middle" x="2142" y="-549" font-family="Arial" font-size="10.00">Replay</text>
</a>
</g>
</g>
<!-- EventBus&#45;&gt;Replay -->
<g id="edge30" class="edge">
<title>EventBus&#45;&gt;Replay</title>
<path fill="none" stroke="black" stroke-dasharray="5,2" d="M804.03,-680C1039.76,-680 2142,-680 2142,-680 2142,-680 2142,-579.28 2142,-579.28"/>
<polygon fill="black" stroke="black" points="2144.45,-579.28 2142,-572.28 2139.55,-579.28 2144.45,-579.28"/>
</g>
<!-- Lifecycle&#45;&gt;LifecycleContract -->
<g id="edge9" class="edge">
<title>Lifecycle&#45;&gt;LifecycleContract</title>
<path fill="none" stroke="black" stroke-dasharray="1,5" d="M653.44,-647.31C653.44,-630.8 653.44,-609 653.44,-609 653.44,-609 1026,-609 1026,-609 1026,-609 1026,-164.5 1026,-164.5"/>
<polygon fill="black" stroke="black" points="1028.45,-164.5 1026,-157.5 1023.55,-164.5 1028.45,-164.5"/>
</g>
<!-- ContextContract -->
<g id="node16" class="node">
<title>ContextContract</title>
<path fill="#eceff1" stroke="#455a64" d="M854.88,-155.5C854.88,-155.5 787.12,-155.5 787.12,-155.5 781.12,-155.5 775.12,-149.5 775.12,-143.5 775.12,-143.5 775.12,-131.5 775.12,-131.5 775.12,-125.5 781.12,-119.5 787.12,-119.5 787.12,-119.5 854.88,-119.5 854.88,-119.5 860.88,-119.5 866.88,-125.5 866.88,-131.5 866.88,-131.5 866.88,-143.5 866.88,-143.5 866.88,-149.5 860.88,-155.5 854.88,-155.5"/>
<text xml:space="preserve" text-anchor="middle" x="821" y="-140" font-family="Arial" font-size="10.00">ContextSnapshot</text>
<text xml:space="preserve" text-anchor="middle" x="821" y="-128" font-family="Arial" font-size="10.00">InferenceContext</text>
</g>
<!-- InferenceContract -->
<g id="node17" class="node">
<title>InferenceContract</title>
<path fill="#eceff1" stroke="#455a64" d="M727.38,-155.5C727.38,-155.5 638.62,-155.5 638.62,-155.5 632.62,-155.5 626.62,-149.5 626.62,-143.5 626.62,-143.5 626.62,-131.5 626.62,-131.5 626.62,-125.5 632.62,-119.5 638.62,-119.5 638.62,-119.5 727.38,-119.5 727.38,-119.5 733.38,-119.5 739.38,-125.5 739.38,-131.5 739.38,-131.5 739.38,-143.5 739.38,-143.5 739.38,-149.5 733.38,-155.5 727.38,-155.5"/>
<text xml:space="preserve" text-anchor="middle" x="683" y="-140" font-family="Arial" font-size="10.00">InferenceRequest</text>
<text xml:space="preserve" text-anchor="middle" x="683" y="-128" font-family="Arial" font-size="10.00">InferenceResult future</text>
</g>
<!-- ContextEngine&#45;&gt;ContextContract -->
<g id="edge25" class="edge">
<title>ContextEngine&#45;&gt;ContextContract</title>
<path fill="none" stroke="black" stroke-dasharray="1,5" d="M470.45,-1082.24C470.45,-1040.96 470.45,-944 470.45,-944 470.45,-944 837.38,-944 837.38,-944 837.38,-944 837.38,-164.37 837.38,-164.37"/>
<polygon fill="black" stroke="black" points="839.83,-164.37 837.38,-157.37 834.93,-164.37 839.83,-164.37"/>
</g>
<!-- Collector -->
<g id="node21" class="node">
<title>Collector</title>
<g id="a_node21"><a xlink:href="context/20_context.svg" xlink:title="ContextCollector">
<path fill="#fff3e0" stroke="#ef6c00" d="M444.75,-1005.5C444.75,-1005.5 379.25,-1005.5 379.25,-1005.5 373.25,-1005.5 367.25,-999.5 367.25,-993.5 367.25,-993.5 367.25,-981.5 367.25,-981.5 367.25,-975.5 373.25,-969.5 379.25,-969.5 379.25,-969.5 444.75,-969.5 444.75,-969.5 450.75,-969.5 456.75,-975.5 456.75,-981.5 456.75,-981.5 456.75,-993.5 456.75,-993.5 456.75,-999.5 450.75,-1005.5 444.75,-1005.5"/>
<text xml:space="preserve" text-anchor="middle" x="412" y="-984" font-family="Arial" font-size="10.00">ContextCollector</text>
</a>
</g>
</g>
<!-- ContextEngine&#45;&gt;Collector -->
<g id="edge12" class="edge">
<title>ContextEngine&#45;&gt;Collector</title>
<path fill="none" stroke="black" d="M431.81,-1082.09C431.81,-1082.09 431.81,-1014.41 431.81,-1014.41"/>
<polygon fill="black" stroke="black" points="434.26,-1014.41 431.81,-1007.41 429.36,-1014.41 434.26,-1014.41"/>
</g>
<!-- ContextRequest&#45;&gt;Proxy -->
<g id="edge16" class="edge">
<title>ContextRequest&#45;&gt;Proxy</title>
<path fill="none" stroke="black" d="M463.6,-892.95C463.6,-904.8 463.6,-918 463.6,-918 463.6,-918 728.19,-918 728.19,-918 728.19,-918 728.19,-1073.82 728.19,-1073.82"/>
<polygon fill="black" stroke="black" points="725.74,-1073.82 728.19,-1080.82 730.64,-1073.82 725.74,-1073.82"/>
<text xml:space="preserve" text-anchor="middle" x="558.62" y="-984.2" font-family="Arial" font-size="9.00">proxy.context()</text>
</g>
<!-- ContextRequest&#45;&gt;Scheduler -->
<g id="edge14" class="edge">
<title>ContextRequest&#45;&gt;Scheduler</title>
<path fill="none" stroke="black" stroke-dasharray="5,2" d="M477.3,-892.74C477.3,-923.41 477.3,-982 477.3,-982 477.3,-982 731.26,-982 731.26,-982"/>
<polygon fill="black" stroke="black" points="731.26,-984.45 738.26,-982 731.26,-979.55 731.26,-984.45"/>
<text xml:space="preserve" text-anchor="middle" x="575.62" y="-931.95" font-family="Arial" font-size="9.00">emit</text>
</g>
<!-- ContextReply -->
<g id="node20" class="node">
<title>ContextReply</title>
<g id="a_node20"><a xlink:href="context/20_context.svg" xlink:title="CONTEXT_REPLY\nobservable">
<path fill="#fff3e0" stroke="#ef6c00" d="M470.75,-788C470.75,-788 393.25,-788 393.25,-788 387.25,-788 381.25,-782 381.25,-776 381.25,-776 381.25,-764 381.25,-764 381.25,-758 387.25,-752 393.25,-752 393.25,-752 470.75,-752 470.75,-752 476.75,-752 482.75,-758 482.75,-764 482.75,-764 482.75,-776 482.75,-776 482.75,-782 476.75,-788 470.75,-788"/>
<text xml:space="preserve" text-anchor="middle" x="432" y="-772.5" font-family="Arial" font-size="10.00">CONTEXT_REPLY</text>
<text xml:space="preserve" text-anchor="middle" x="432" y="-760.5" font-family="Arial" font-size="10.00">observable</text>
</a>
</g>
</g>
<!-- ContextRequest&#45;&gt;ContextReply -->
<g id="edge17" class="edge">
<title>ContextRequest&#45;&gt;ContextReply</title>
<path fill="none" stroke="black" d="M432,-856.3C432,-856.3 432,-796.86 432,-796.86"/>
<polygon fill="black" stroke="black" points="434.45,-796.86 432,-789.86 429.55,-796.86 434.45,-796.86"/>
<text xml:space="preserve" text-anchor="middle" x="442.12" y="-818.95" font-family="Arial" font-size="9.00">reply</text>
</g>
<!-- ContextReply&#45;&gt;EventBus -->
<g id="edge18" class="edge">
<title>ContextReply&#45;&gt;EventBus</title>
<path fill="none" stroke="black" stroke-dasharray="5,2" d="M479.19,-751.52C479.19,-736.57 479.19,-718 479.19,-718 479.19,-718 720.54,-718 720.54,-718 720.54,-718 720.54,-692.38 720.54,-692.38"/>
<polygon fill="black" stroke="black" points="722.99,-692.38 720.54,-685.38 718.09,-692.38 722.99,-692.38"/>
<text xml:space="preserve" text-anchor="middle" x="549.88" y="-714.45" font-family="Arial" font-size="9.00">observable</text>
</g>
<!-- Reducer -->
<g id="node22" class="node">
<title>Reducer</title>
<g id="a_node22"><a xlink:href="context/20_context.svg" xlink:title="ContextReducer">
<path fill="#fff3e0" stroke="#ef6c00" d="M463.62,-683.5C463.62,-683.5 400.38,-683.5 400.38,-683.5 394.38,-683.5 388.38,-677.5 388.38,-671.5 388.38,-671.5 388.38,-659.5 388.38,-659.5 388.38,-653.5 394.38,-647.5 400.38,-647.5 400.38,-647.5 463.62,-647.5 463.62,-647.5 469.62,-647.5 475.62,-653.5 475.62,-659.5 475.62,-659.5 475.62,-671.5 475.62,-671.5 475.62,-677.5 469.62,-683.5 463.62,-683.5"/>
<text xml:space="preserve" text-anchor="middle" x="432" y="-662" font-family="Arial" font-size="10.00">ContextReducer</text>
</a>
</g>
</g>
<!-- ContextReply&#45;&gt;Reducer -->
<g id="edge19" class="edge">
<title>ContextReply&#45;&gt;Reducer</title>
<path fill="none" stroke="black" d="M432,-751.8C432,-751.8 432,-692.36 432,-692.36"/>
<polygon fill="black" stroke="black" points="434.45,-692.36 432,-685.36 429.55,-692.36 434.45,-692.36"/>
</g>
<!-- Collector&#45;&gt;ContextRequest -->
<g id="edge13" class="edge">
<title>Collector&#45;&gt;ContextRequest</title>
<path fill="none" stroke="black" d="M414.88,-969.09C414.88,-969.09 414.88,-901.41 414.88,-901.41"/>
<polygon fill="black" stroke="black" points="417.33,-901.41 414.88,-894.41 412.43,-901.41 417.33,-901.41"/>
</g>
<!-- Snapshot -->
<g id="node23" class="node">
<title>Snapshot</title>
<g id="a_node23"><a xlink:href="context/20_context.svg" xlink:title="GlobalContextSnapshot">
<path fill="#fff3e0" stroke="#ef6c00" d="M478.75,-570.5C478.75,-570.5 383.25,-570.5 383.25,-570.5 377.25,-570.5 371.25,-564.5 371.25,-558.5 371.25,-558.5 371.25,-546.5 371.25,-546.5 371.25,-540.5 377.25,-534.5 383.25,-534.5 383.25,-534.5 478.75,-534.5 478.75,-534.5 484.75,-534.5 490.75,-540.5 490.75,-546.5 490.75,-546.5 490.75,-558.5 490.75,-558.5 490.75,-564.5 484.75,-570.5 478.75,-570.5"/>
<text xml:space="preserve" text-anchor="middle" x="431" y="-549" font-family="Arial" font-size="10.00">GlobalContextSnapshot</text>
</a>
</g>
</g>
<!-- Reducer&#45;&gt;Snapshot -->
<g id="edge20" class="edge">
<title>Reducer&#45;&gt;Snapshot</title>
<path fill="none" stroke="black" d="M432,-647.09C432,-647.09 432,-579.41 432,-579.41"/>
<polygon fill="black" stroke="black" points="434.45,-579.41 432,-572.41 429.55,-579.41 434.45,-579.41"/>
</g>
<!-- InferenceCtx -->
<g id="node24" class="node">
<title>InferenceCtx</title>
<g id="a_node24"><a xlink:href="context/20_context.svg" xlink:title="InferenceContext">
<path fill="#fff3e0" stroke="#ef6c00" d="M465.5,-467C465.5,-467 398.5,-467 398.5,-467 392.5,-467 386.5,-461 386.5,-455 386.5,-455 386.5,-443 386.5,-443 386.5,-437 392.5,-431 398.5,-431 398.5,-431 465.5,-431 465.5,-431 471.5,-431 477.5,-437 477.5,-443 477.5,-443 477.5,-455 477.5,-455 477.5,-461 471.5,-467 465.5,-467"/>
<text xml:space="preserve" text-anchor="middle" x="432" y="-445.5" font-family="Arial" font-size="10.00">InferenceContext</text>
</a>
</g>
</g>
<!-- Snapshot&#45;&gt;InferenceCtx -->
<g id="edge21" class="edge">
<title>Snapshot&#45;&gt;InferenceCtx</title>
<path fill="none" stroke="black" d="M432,-534.47C432,-534.47 432,-475.68 432,-475.68"/>
<polygon fill="black" stroke="black" points="434.45,-475.68 432,-468.68 429.55,-475.68 434.45,-475.68"/>
</g>
<!-- Decision -->
<g id="node25" class="node">
<title>Decision</title>
<g id="a_node25"><a xlink:href="context/20_context.svg" xlink:title="DecisionEngine\nfuture">
<path fill="#fff3e0" stroke="#ef6c00" d="M464.12,-362.5C464.12,-362.5 403.88,-362.5 403.88,-362.5 397.88,-362.5 391.88,-356.5 391.88,-350.5 391.88,-350.5 391.88,-338.5 391.88,-338.5 391.88,-332.5 397.88,-326.5 403.88,-326.5 403.88,-326.5 464.12,-326.5 464.12,-326.5 470.12,-326.5 476.12,-332.5 476.12,-338.5 476.12,-338.5 476.12,-350.5 476.12,-350.5 476.12,-356.5 470.12,-362.5 464.12,-362.5"/>
<text xml:space="preserve" text-anchor="middle" x="434" y="-347" font-family="Arial" font-size="10.00">DecisionEngine</text>
<text xml:space="preserve" text-anchor="middle" x="434" y="-335" font-family="Arial" font-size="10.00">future</text>
</a>
</g>
</g>
<!-- InferenceCtx&#45;&gt;Decision -->
<g id="edge22" class="edge">
<title>InferenceCtx&#45;&gt;Decision</title>
<path fill="none" stroke="black" stroke-dasharray="5,2" d="M434,-430.8C434,-430.8 434,-371.36 434,-371.36"/>
<polygon fill="black" stroke="black" points="436.45,-371.36 434,-364.36 431.55,-371.36 436.45,-371.36"/>
<text xml:space="preserve" text-anchor="middle" x="444.62" y="-393.45" font-family="Arial" font-size="9.00">future</text>
</g>
<!-- InferenceAdapter -->
<g id="node32" class="node">
<title>InferenceAdapter</title>
<path fill="#fffde7" stroke="#f9a825" d="M467.12,-259C467.12,-259 400.88,-259 400.88,-259 394.88,-259 388.88,-253 388.88,-247 388.88,-247 388.88,-235 388.88,-235 388.88,-229 394.88,-223 400.88,-223 400.88,-223 467.12,-223 467.12,-223 473.12,-223 479.12,-229 479.12,-235 479.12,-235 479.12,-247 479.12,-247 479.12,-253 473.12,-259 467.12,-259"/>
<text xml:space="preserve" text-anchor="middle" x="434" y="-237.5" font-family="Arial" font-size="10.00">InferenceAdapter</text>
</g>
<!-- Decision&#45;&gt;InferenceAdapter -->
<g id="edge45" class="edge">
<title>Decision&#45;&gt;InferenceAdapter</title>
<path fill="none" stroke="black" stroke-dasharray="5,2" d="M434,-326.47C434,-326.47 434,-267.68 434,-267.68"/>
<polygon fill="black" stroke="black" points="436.45,-267.68 434,-260.68 431.55,-267.68 436.45,-267.68"/>
</g>
<!-- MCTS -->
<g id="node34" class="node">
<title>MCTS</title>
<path fill="#fffde7" stroke="#f9a825" d="M588.5,-259C588.5,-259 527.5,-259 527.5,-259 521.5,-259 515.5,-253 515.5,-247 515.5,-247 515.5,-235 515.5,-235 515.5,-229 521.5,-223 527.5,-223 527.5,-223 588.5,-223 588.5,-223 594.5,-223 600.5,-229 600.5,-235 600.5,-235 600.5,-247 600.5,-247 600.5,-253 594.5,-259 588.5,-259"/>
<text xml:space="preserve" text-anchor="middle" x="558" y="-237.5" font-family="Arial" font-size="10.00">MCTS proposer</text>
</g>
<!-- Decision&#45;&gt;MCTS -->
<g id="edge48" class="edge">
<title>Decision&#45;&gt;MCTS</title>
<path fill="none" stroke="black" stroke-dasharray="5,2" d="M476.47,-345C510.16,-345 551.62,-345 551.62,-345 551.62,-345 551.62,-267.63 551.62,-267.63"/>
<polygon fill="black" stroke="black" points="554.08,-267.63 551.63,-260.63 549.18,-267.63 554.08,-267.63"/>
</g>
<!-- InferenceAdapter&#45;&gt;InferenceContract -->
<g id="edge26" class="edge">
<title>InferenceAdapter&#45;&gt;InferenceContract</title>
<path fill="none" stroke="black" stroke-dasharray="1,5" d="M479.46,-241C492.52,-241 503.31,-241 503.31,-241 503.31,-241 503.31,-138 503.31,-138 503.31,-138 617.63,-138 617.63,-138"/>
<polygon fill="black" stroke="black" points="617.63,-140.45 624.63,-138 617.63,-135.55 617.63,-140.45"/>
</g>
<!-- OpenVINO -->
<g id="node33" class="node">
<title>OpenVINO</title>
<path fill="#fffde7" stroke="#f9a825" d="M479.12,-155.5C479.12,-155.5 400.88,-155.5 400.88,-155.5 394.88,-155.5 388.88,-149.5 388.88,-143.5 388.88,-143.5 388.88,-131.5 388.88,-131.5 388.88,-125.5 394.88,-119.5 400.88,-119.5 400.88,-119.5 479.12,-119.5 479.12,-119.5 485.12,-119.5 491.12,-125.5 491.12,-131.5 491.12,-131.5 491.12,-143.5 491.12,-143.5 491.12,-149.5 485.12,-155.5 479.12,-155.5"/>
<text xml:space="preserve" text-anchor="middle" x="440" y="-134" font-family="Arial" font-size="10.00">OpenVINOBackend</text>
</g>
<!-- InferenceAdapter&#45;&gt;OpenVINO -->
<g id="edge46" class="edge">
<title>InferenceAdapter&#45;&gt;OpenVINO</title>
<path fill="none" stroke="black" stroke-dasharray="5,2" d="M434,-222.97C434,-222.97 434,-164.18 434,-164.18"/>
<polygon fill="black" stroke="black" points="436.45,-164.18 434,-157.18 431.55,-164.18 436.45,-164.18"/>
</g>
<!-- OpenVINO&#45;&gt;GPU -->
<g id="edge47" class="edge">
<title>OpenVINO&#45;&gt;GPU</title>
<path fill="none" stroke="black" stroke-dasharray="5,2" d="M440,-119.47C440,-119.47 440,-60.68 440,-60.68"/>
<polygon fill="black" stroke="black" points="442.45,-60.68 440,-53.68 437.55,-60.68 442.45,-60.68"/>
</g>
<!-- Validation -->
<g id="node37" class="node">
<title>Validation</title>
<g id="a_node37"><a xlink:href="validation/50_validation.svg" xlink:title="Compiler &#45;&gt; Tests &#45;&gt; Validator">
<path fill="#f3e5f5" stroke="#7b1fa2" d="M1447.88,-892.5C1447.88,-892.5 1326.12,-892.5 1326.12,-892.5 1320.12,-892.5 1314.12,-886.5 1314.12,-880.5 1314.12,-880.5 1314.12,-868.5 1314.12,-868.5 1314.12,-862.5 1320.12,-856.5 1326.12,-856.5 1326.12,-856.5 1447.88,-856.5 1447.88,-856.5 1453.88,-856.5 1459.88,-862.5 1459.88,-868.5 1459.88,-868.5 1459.88,-880.5 1459.88,-880.5 1459.88,-886.5 1453.88,-892.5 1447.88,-892.5"/>
<text xml:space="preserve" text-anchor="middle" x="1387" y="-871" font-family="Arial" font-size="10.00">Compiler &#45;&gt; Tests &#45;&gt; Validator</text>
</a>
</g>
</g>
<!-- Dummy&#45;&gt;Validation -->
<g id="edge49" class="edge">
<title>Dummy&#45;&gt;Validation</title>
<path fill="none" stroke="black" stroke-dasharray="5,2" d="M1370,-969.09C1370,-969.09 1370,-901.41 1370,-901.41"/>
<polygon fill="black" stroke="black" points="1372.45,-901.41 1370,-894.41 1367.55,-901.41 1372.45,-901.41"/>
<text xml:space="preserve" text-anchor="middle" x="1389.62" y="-931.95" font-family="Arial" font-size="9.00">future</text>
</g>
<!-- ExpertsFuture -->
<g id="node36" class="node">
<title>ExpertsFuture</title>
<g id="a_node36"><a xlink:href="experts/40_experts.svg" xlink:title="Python / C / KiCad / Web\nfuture">
<path fill="#e8f5e9" stroke="#388e3c" d="M1560.88,-1005.5C1560.88,-1005.5 1457.12,-1005.5 1457.12,-1005.5 1451.12,-1005.5 1445.12,-999.5 1445.12,-993.5 1445.12,-993.5 1445.12,-981.5 1445.12,-981.5 1445.12,-975.5 1451.12,-969.5 1457.12,-969.5 1457.12,-969.5 1560.88,-969.5 1560.88,-969.5 1566.88,-969.5 1572.88,-975.5 1572.88,-981.5 1572.88,-981.5 1572.88,-993.5 1572.88,-993.5 1572.88,-999.5 1566.88,-1005.5 1560.88,-1005.5"/>
<text xml:space="preserve" text-anchor="middle" x="1509" y="-990" font-family="Arial" font-size="10.00">Python / C / KiCad / Web</text>
<text xml:space="preserve" text-anchor="middle" x="1509" y="-978" font-family="Arial" font-size="10.00">future</text>
</a>
</g>
</g>
<!-- Learning -->
<g id="node38" class="node">
<title>Learning</title>
<g id="a_node38"><a xlink:href="learning/60_learning.svg" xlink:title="Metrics / Ranking / Patterns">
<path fill="#efebe9" stroke="#6d4c41" d="M2416.5,-467C2416.5,-467 2301.5,-467 2301.5,-467 2295.5,-467 2289.5,-461 2289.5,-455 2289.5,-455 2289.5,-443 2289.5,-443 2289.5,-437 2295.5,-431 2301.5,-431 2301.5,-431 2416.5,-431 2416.5,-431 2422.5,-431 2428.5,-437 2428.5,-443 2428.5,-443 2428.5,-455 2428.5,-455 2428.5,-461 2422.5,-467 2416.5,-467"/>
<text xml:space="preserve" text-anchor="middle" x="2359" y="-445.5" font-family="Arial" font-size="10.00">Metrics / Ranking / Patterns</text>
</a>
</g>
</g>
<!-- Metrics&#45;&gt;Learning -->
<g id="edge50" class="edge">
<title>Metrics&#45;&gt;Learning</title>
<path fill="none" stroke="black" stroke-dasharray="5,2" d="M2079.25,-553C2089.76,-553 2099.31,-553 2099.31,-553 2099.31,-553 2099.31,-449 2099.31,-449 2099.31,-449 2280.55,-449 2280.55,-449"/>
<polygon fill="black" stroke="black" points="2280.55,-451.45 2287.55,-449 2280.55,-446.55 2280.55,-451.45"/>
</g>
<!-- Dashboard -->
<g id="node42" class="node">
<title>Dashboard</title>
<g id="a_node42"><a xlink:href="observability/70_observability.svg" xlink:title="Dashboard">
<path fill="#f5f5f5" stroke="#666666" d="M2071.62,-467C2071.62,-467 2032.38,-467 2032.38,-467 2026.38,-467 2020.38,-461 2020.38,-455 2020.38,-455 2020.38,-443 2020.38,-443 2020.38,-437 2026.38,-431 2032.38,-431 2032.38,-431 2071.62,-431 2071.62,-431 2077.62,-431 2083.62,-437 2083.62,-443 2083.62,-443 2083.62,-455 2083.62,-455 2083.62,-461 2077.62,-467 2071.62,-467"/>
<text xml:space="preserve" text-anchor="middle" x="2052" y="-445.5" font-family="Arial" font-size="10.00">Dashboard</text>
</a>
</g>
</g>
<!-- Metrics&#45;&gt;Dashboard -->
<g id="edge31" class="edge">
<title>Metrics&#45;&gt;Dashboard</title>
<path fill="none" stroke="black" stroke-dasharray="5,2" d="M2052,-534.47C2052,-534.47 2052,-475.68 2052,-475.68"/>
<polygon fill="black" stroke="black" points="2054.45,-475.68 2052,-468.68 2049.55,-475.68 2054.45,-475.68"/>
</g>
<!-- Watchdog -->
<g id="node43" class="node">
<title>Watchdog</title>
<g id="a_node43"><a xlink:href="observability/70_observability.svg" xlink:title="Watchdog">
<path fill="#f5f5f5" stroke="#666666" d="M2252.75,-570.5C2252.75,-570.5 2217.25,-570.5 2217.25,-570.5 2211.25,-570.5 2205.25,-564.5 2205.25,-558.5 2205.25,-558.5 2205.25,-546.5 2205.25,-546.5 2205.25,-540.5 2211.25,-534.5 2217.25,-534.5 2217.25,-534.5 2252.75,-534.5 2252.75,-534.5 2258.75,-534.5 2264.75,-540.5 2264.75,-546.5 2264.75,-546.5 2264.75,-558.5 2264.75,-558.5 2264.75,-564.5 2258.75,-570.5 2252.75,-570.5"/>
<text xml:space="preserve" text-anchor="middle" x="2235" y="-549" font-family="Arial" font-size="10.00">Watchdog</text>
</a>
</g>
</g>
<!-- Watchdog&#45;&gt;Scheduler -->
<g id="edge32" class="edge">
<title>Watchdog&#45;&gt;Scheduler</title>
<path fill="none" stroke="black" stroke-dasharray="5,2" d="M2235,-570.79C2235,-624.17 2235,-776 2235,-776 2235,-776 779.81,-776 779.81,-776 779.81,-776 779.81,-960.59 779.81,-960.59"/>
<polygon fill="black" stroke="black" points="777.36,-960.59 779.81,-967.59 782.26,-960.59 777.36,-960.59"/>
</g>
<!-- Pytest -->
<g id="node44" class="node">
<title>Pytest</title>
<g id="a_node44"><a xlink:href="tests/80_tests.svg" xlink:title="pytest suite\n7 tests">
<path fill="#e3f2fd" stroke="#1565c0" d="M934.5,-1222C934.5,-1222 891.5,-1222 891.5,-1222 885.5,-1222 879.5,-1216 879.5,-1210 879.5,-1210 879.5,-1198 879.5,-1198 879.5,-1192 885.5,-1186 891.5,-1186 891.5,-1186 934.5,-1186 934.5,-1186 940.5,-1186 946.5,-1192 946.5,-1198 946.5,-1198 946.5,-1210 946.5,-1210 946.5,-1216 940.5,-1222 934.5,-1222"/>
<text xml:space="preserve" text-anchor="middle" x="913" y="-1206.5" font-family="Arial" font-size="10.00">pytest suite</text>
<text xml:space="preserve" text-anchor="middle" x="913" y="-1194.5" font-family="Arial" font-size="10.00">7 tests</text>
</a>
</g>
</g>
<!-- Pytest&#45;&gt;Proxy -->
<g id="edge35" class="edge">
<title>Pytest&#45;&gt;Proxy</title>
<path fill="none" stroke="black" stroke-dasharray="1,5" d="M879.07,-1204C845.43,-1204 798.88,-1204 798.88,-1204 798.88,-1204 798.88,-1127.04 798.88,-1127.04"/>
<polygon fill="black" stroke="black" points="801.33,-1127.04 798.88,-1120.04 796.43,-1127.04 801.33,-1127.04"/>
</g>
<!-- Pytest&#45;&gt;Dispatcher -->
<g id="edge34" class="edge">
<title>Pytest&#45;&gt;Dispatcher</title>
<path fill="none" stroke="black" stroke-dasharray="1,5" d="M894.83,-1185.65C894.83,-1102.38 894.83,-764 894.83,-764 894.83,-764 737.67,-764 737.67,-764"/>
<polygon fill="black" stroke="black" points="737.67,-761.55 730.67,-764 737.67,-766.45 737.67,-761.55"/>
</g>
<!-- Pytest&#45;&gt;EventContract -->
<g id="edge33" class="edge">
<title>Pytest&#45;&gt;EventContract</title>
<path fill="none" stroke="black" stroke-dasharray="1,5" d="M917.17,-1185.87C917.17,-1175.29 917.17,-1164 917.17,-1164 917.17,-1164 1152.12,-1164 1152.12,-1164 1152.12,-1164 1152.12,-164.27 1152.12,-164.27"/>
<polygon fill="black" stroke="black" points="1154.58,-164.27 1152.13,-157.27 1149.68,-164.27 1154.58,-164.27"/>
</g>
<!-- Pytest&#45;&gt;ContextEngine -->
<g id="edge36" class="edge">
<title>Pytest&#45;&gt;ContextEngine</title>
<path fill="none" stroke="black" stroke-dasharray="1,5" d="M887.17,-1185.78C887.17,-1167.17 887.17,-1141 887.17,-1141 887.17,-1141 449,-1141 449,-1141 449,-1141 449,-1127.37 449,-1127.37"/>
<polygon fill="black" stroke="black" points="451.45,-1127.37 449,-1120.37 446.55,-1127.37 451.45,-1127.37"/>
</g>
<!-- CompileAll -->
<g id="node45" class="node">
<title>CompileAll</title>
<path fill="#e3f2fd" stroke="#1565c0" d="M1150.75,-1222C1150.75,-1222 1115.25,-1222 1115.25,-1222 1109.25,-1222 1103.25,-1216 1103.25,-1210 1103.25,-1210 1103.25,-1198 1103.25,-1198 1103.25,-1192 1109.25,-1186 1115.25,-1186 1115.25,-1186 1150.75,-1186 1150.75,-1186 1156.75,-1186 1162.75,-1192 1162.75,-1198 1162.75,-1198 1162.75,-1210 1162.75,-1210 1162.75,-1216 1156.75,-1222 1150.75,-1222"/>
<text xml:space="preserve" text-anchor="middle" x="1133" y="-1200.5" font-family="Arial" font-size="10.00">compileall</text>
</g>
<!-- CompileAll&#45;&gt;Scheduler -->
<g id="edge37" class="edge">
<title>CompileAll&#45;&gt;Scheduler</title>
<path fill="none" stroke="black" stroke-dasharray="1,5" d="M1117.06,-1185.58C1117.06,-1133.35 1117.06,-988 1117.06,-988 1117.06,-988 808.71,-988 808.71,-988"/>
<polygon fill="black" stroke="black" points="808.71,-985.55 801.71,-988 808.71,-990.45 808.71,-985.55"/>
</g>
<!-- DotRender -->
<g id="node46" class="node">
<title>DotRender</title>
<path fill="#e3f2fd" stroke="#1565c0" d="M1055.5,-1222C1055.5,-1222 994.5,-1222 994.5,-1222 988.5,-1222 982.5,-1216 982.5,-1210 982.5,-1210 982.5,-1198 982.5,-1198 982.5,-1192 988.5,-1186 994.5,-1186 994.5,-1186 1055.5,-1186 1055.5,-1186 1061.5,-1186 1067.5,-1192 1067.5,-1198 1067.5,-1198 1067.5,-1210 1067.5,-1210 1067.5,-1216 1061.5,-1222 1055.5,-1222"/>
<text xml:space="preserve" text-anchor="middle" x="1025" y="-1206.5" font-family="Arial" font-size="10.00">Graphviz render</text>
<text xml:space="preserve" text-anchor="middle" x="1025" y="-1194.5" font-family="Arial" font-size="10.00">via makefile</text>
</g>
<!-- DotRender&#45;&gt;Scheduler -->
<g id="edge38" class="edge">
<title>DotRender&#45;&gt;Scheduler</title>
<path fill="none" stroke="black" stroke-dasharray="1,5" d="M993.88,-1185.63C993.88,-1134.97 993.88,-997 993.88,-997 993.88,-997 808.71,-997 808.71,-997"/>
<polygon fill="black" stroke="black" points="808.71,-994.55 801.71,-997 808.71,-999.45 808.71,-994.55"/>
</g>
</g>
</svg>
