<?xml version="1.0" encoding="UTF-8" standalone="no"?>
<!DOCTYPE svg PUBLIC "-//W3C//DTD SVG 1.1//EN"
 "http://www.w3.org/Graphics/SVG/1.1/DTD/svg11.dtd">
<!-- Generated by graphviz version 14.1.3 (20260303.0454)
 -->
<!-- Title: Global Pages: 1 -->
<svg width="1668pt" height="937pt"
 viewBox="0.00 0.00 1668.00 937.00" xmlns="http://www.w3.org/2000/svg" xmlns:xlink="http://www.w3.org/1999/xlink">
<g id="graph0" class="graph" transform="scale(1 1) rotate(0) translate(4 932.75)">
<title>Global</title>
<polygon fill="white" stroke="none" points="-4,4 -4,-932.75 1663.5,-932.75 1663.5,4 -4,4"/>
<g id="clust1" class="cluster">
<title>cluster_L0</title>
<polygon fill="#ffebee" stroke="#c62828" points="1207,-46 1207,-131.25 1638,-131.25 1638,-46 1207,-46"/>
<text xml:space="preserve" text-anchor="middle" x="1422.5" y="-113.95" font-family="Times,serif" font-size="14.00">Hardware Layer</text>
</g>
<g id="clust2" class="cluster">
<title>cluster_L1</title>
<polygon fill="#ede7f6" stroke="#512da8" points="805,-342.75 805,-920.75 974,-920.75 974,-342.75 805,-342.75"/>
<text xml:space="preserve" text-anchor="middle" x="889.5" y="-903.45" font-family="Times,serif" font-size="14.00">MissiPy Micro Kernel</text>
</g>
<g id="clust3" class="cluster">
<title>cluster_L2</title>
<polygon fill="#fff3e0" stroke="#ef6c00" points="1369,-342.75 1369,-824.5 1541,-824.5 1541,-342.75 1369,-342.75"/>
<text xml:space="preserve" text-anchor="middle" x="1455" y="-807.2" font-family="Times,serif" font-size="14.00">Global Context Fabric</text>
</g>
<g id="clust4" class="cluster">
<title>cluster_L3</title>
<polygon fill="#e1f5fe" stroke="#0288d1" points="980,-246.5 980,-323.75 1448,-323.75 1448,-246.5 980,-246.5"/>
<text xml:space="preserve" text-anchor="middle" x="1214" y="-306.45" font-family="Times,serif" font-size="14.00">Independent Services</text>
</g>
<g id="clust5" class="cluster">
<title>cluster_L4</title>
<polygon fill="#fffde7" stroke="#fbc02d" points="1383,-150.25 1383,-227.5 1617,-227.5 1617,-150.25 1383,-150.25"/>
<text xml:space="preserve" text-anchor="middle" x="1500" y="-210.2" font-family="Times,serif" font-size="14.00">AI Backends</text>
</g>
<g id="clust6" class="cluster">
<title>cluster_L5</title>
<polygon fill="#e8f5e9" stroke="#388e3c" points="8,-561.75 8,-639 514,-639 514,-561.75 8,-561.75"/>
<text xml:space="preserve" text-anchor="middle" x="261" y="-621.7" font-family="Times,serif" font-size="14.00">Expert Components</text>
</g>
<g id="clust7" class="cluster">
<title>cluster_L6</title>
<polygon fill="#f3e5f5" stroke="#7b1fa2" points="522,-150.25 522,-639 672,-639 672,-150.25 522,-150.25"/>
<text xml:space="preserve" text-anchor="middle" x="597" y="-621.7" font-family="Times,serif" font-size="14.00">Validation Pipeline</text>
</g>
<g id="clust8" class="cluster">
<title>cluster_L7</title>
<polygon fill="#f5f5f5" stroke="#666666" points="680,-150.25 680,-323.75 972,-323.75 972,-150.25 680,-150.25"/>
<text xml:space="preserve" text-anchor="middle" x="826" y="-306.45" font-family="Times,serif" font-size="14.00">Observability</text>
</g>
<!-- CPU -->
<g id="node1" class="node">
<title>CPU</title>
<polygon fill="#ffebee" stroke="#c62828" points="1288.88,-94 1215.12,-94 1215.12,-58 1288.88,-58 1288.88,-94"/>
<text xml:space="preserve" text-anchor="middle" x="1252" y="-78.5" font-family="Arial" font-size="10.00">Intel i5&#45;11400</text>
<text xml:space="preserve" text-anchor="middle" x="1252" y="-66.5" font-family="Arial" font-size="10.00">CPU Affinity</text>
</g>
<!-- RAM -->
<g id="node2" class="node">
<title>RAM</title>
<polygon fill="#ffebee" stroke="#c62828" points="1383.38,-94 1306.62,-94 1306.62,-58 1383.38,-58 1383.38,-94"/>
<text xml:space="preserve" text-anchor="middle" x="1345" y="-72.5" font-family="Arial" font-size="10.00">128GB DDR4</text>
</g>
<!-- Storage -->
<g id="node3" class="node">
<title>Storage</title>
<polygon fill="#ffebee" stroke="#c62828" points="1506.62,-98 1401.38,-98 1401.38,-54 1506.62,-54 1506.62,-98"/>
<text xml:space="preserve" text-anchor="middle" x="1454" y="-84.5" font-family="Arial" font-size="10.00">ZFS</text>
<text xml:space="preserve" text-anchor="middle" x="1454" y="-72.5" font-family="Arial" font-size="10.00">NVMe stripe overlay</text>
<text xml:space="preserve" text-anchor="middle" x="1454" y="-60.5" font-family="Arial" font-size="10.00">RAIDZ2 SATA</text>
</g>
<!-- GPU -->
<g id="node4" class="node">
<title>GPU</title>
<polygon fill="#ffebee" stroke="#c62828" points="1629.62,-94 1524.38,-94 1524.38,-58 1629.62,-58 1629.62,-94"/>
<text xml:space="preserve" text-anchor="middle" x="1577" y="-78.5" font-family="Arial" font-size="10.00">Intel iGPU</text>
<text xml:space="preserve" text-anchor="middle" x="1577" y="-66.5" font-family="Arial" font-size="10.00">OpenVINO Backend</text>
</g>
<!-- Launcher -->
<g id="node5" class="node">
<title>Launcher</title>
<g id="a_node5"><a xlink:href="scheduler/10_scheduler.svg" xlink:title="Launcher">
<polygon fill="#ede7f6" stroke="#512da8" points="868.88,-887.5 813.12,-887.5 813.12,-851.5 868.88,-851.5 868.88,-887.5"/>
<text xml:space="preserve" text-anchor="middle" x="841" y="-866" font-family="Arial" font-size="10.00">Launcher</text>
</a>
</g>
</g>
<!-- Registry -->
<g id="node6" class="node">
<title>Registry</title>
<g id="a_node6"><a xlink:href="scheduler/10_scheduler.svg" xlink:title="Registry">
<polygon fill="#ede7f6" stroke="#512da8" points="867,-791.25 813,-791.25 813,-755.25 867,-755.25 867,-791.25"/>
<text xml:space="preserve" text-anchor="middle" x="840" y="-769.75" font-family="Arial" font-size="10.00">Registry</text>
</a>
</g>
</g>
<!-- Launcher&#45;&gt;Registry -->
<g id="edge1" class="edge">
<title>Launcher&#45;&gt;Registry</title>
<path fill="none" stroke="black" d="M840.82,-851.21C840.67,-837.75 840.47,-818.76 840.31,-803.01"/>
<polygon fill="black" stroke="black" points="843.81,-803.22 840.2,-793.26 836.81,-803.3 843.81,-803.22"/>
</g>
<!-- Proxy -->
<g id="node7" class="node">
<title>Proxy</title>
<g id="a_node7"><a xlink:href="scheduler/component_proxy/14_component_proxy.svg" xlink:title="Proxy">
<polygon fill="#ede7f6" stroke="#512da8" points="867,-702 813,-702 813,-666 867,-666 867,-702"/>
<text xml:space="preserve" text-anchor="middle" x="840" y="-680.5" font-family="Arial" font-size="10.00">Proxy</text>
</a>
</g>
</g>
<!-- Registry&#45;&gt;Proxy -->
<g id="edge2" class="edge">
<title>Registry&#45;&gt;Proxy</title>
<path fill="none" stroke="black" d="M840,-755.01C840,-743.18 840,-727.2 840,-713.5"/>
<polygon fill="black" stroke="black" points="843.5,-713.72 840,-703.72 836.5,-713.72 843.5,-713.72"/>
</g>
<!-- Scheduler -->
<g id="node8" class="node">
<title>Scheduler</title>
<g id="a_node8"><a xlink:href="scheduler/10_scheduler.svg" xlink:title="Scheduler">
<polygon fill="#ede7f6" stroke="#512da8" points="964.75,-605.75 905.25,-605.75 905.25,-569.75 964.75,-569.75 964.75,-605.75"/>
<text xml:space="preserve" text-anchor="middle" x="935" y="-584.25" font-family="Arial" font-size="10.00">Scheduler</text>
</a>
</g>
</g>
<!-- Proxy&#45;&gt;Scheduler -->
<g id="edge3" class="edge">
<title>Proxy&#45;&gt;Scheduler</title>
<path fill="none" stroke="black" d="M857.42,-665.71C871.93,-651.32 892.79,-630.62 909.23,-614.32"/>
<polygon fill="black" stroke="black" points="911.66,-616.84 916.29,-607.31 906.73,-611.87 911.66,-616.84"/>
</g>
<!-- Collector -->
<g id="node15" class="node">
<title>Collector</title>
<g id="a_node15"><a xlink:href="context/collector/21_collector.svg" xlink:title="Collector">
<polygon fill="#fff3e0" stroke="#ef6c00" points="1508.5,-791.25 1453.5,-791.25 1453.5,-755.25 1508.5,-755.25 1508.5,-791.25"/>
<text xml:space="preserve" text-anchor="middle" x="1481" y="-769.75" font-family="Arial" font-size="10.00">Collector</text>
</a>
</g>
</g>
<!-- Proxy&#45;&gt;Collector -->
<g id="edge9" class="edge">
<title>Proxy&#45;&gt;Collector</title>
<path fill="none" stroke="black" d="M867.2,-693.74C877.94,-696.85 890.44,-700.06 902,-702 1021.91,-722.18 1054,-707.98 1175,-720 1293.23,-731.75 1325.26,-724.4 1440,-755.25 1440.81,-755.47 1441.62,-755.7 1442.44,-755.94"/>
<polygon fill="black" stroke="black" points="1441.08,-759.17 1451.67,-759.07 1443.33,-752.54 1441.08,-759.17"/>
</g>
<!-- Meta -->
<g id="node30" class="node">
<title>Meta</title>
<g id="a_node30"><a xlink:href="experts/40_experts.svg" xlink:title="Meta">
<polygon fill="#e8f5e9" stroke="#388e3c" points="70,-605.75 16,-605.75 16,-569.75 70,-569.75 70,-605.75"/>
<text xml:space="preserve" text-anchor="middle" x="43" y="-584.25" font-family="Arial" font-size="10.00">Meta</text>
</a>
</g>
</g>
<!-- Proxy&#45;&gt;Meta -->
<g id="edge28" class="edge">
<title>Proxy&#45;&gt;Meta</title>
<path fill="none" stroke="black" d="M812.64,-682.1C720.96,-678.96 416.23,-667.65 165,-648 126.69,-645 112.22,-658.32 79,-639 69.7,-633.59 62.16,-624.71 56.43,-615.91"/>
<polygon fill="black" stroke="black" points="59.58,-614.35 51.5,-607.5 53.54,-617.89 59.58,-614.35"/>
</g>
<!-- Python -->
<g id="node31" class="node">
<title>Python</title>
<g id="a_node31"><a xlink:href="experts/40_experts.svg" xlink:title="Python">
<polygon fill="#e8f5e9" stroke="#388e3c" points="142,-605.75 88,-605.75 88,-569.75 142,-569.75 142,-605.75"/>
<text xml:space="preserve" text-anchor="middle" x="115" y="-584.25" font-family="Arial" font-size="10.00">Python</text>
</a>
</g>
</g>
<!-- Proxy&#45;&gt;Python -->
<g id="edge29" class="edge">
<title>Proxy&#45;&gt;Python</title>
<path fill="none" stroke="black" d="M812.62,-681.86C727.33,-678.22 458.84,-666.04 237,-648 198.7,-644.89 184.22,-658.32 151,-639 141.7,-633.59 134.16,-624.71 128.43,-615.91"/>
<polygon fill="black" stroke="black" points="131.58,-614.35 123.5,-607.5 125.54,-617.89 131.58,-614.35"/>
</g>
<!-- C -->
<g id="node32" class="node">
<title>C</title>
<g id="a_node32"><a xlink:href="experts/40_experts.svg" xlink:title="C">
<polygon fill="#e8f5e9" stroke="#388e3c" points="214,-605.75 160,-605.75 160,-569.75 214,-569.75 214,-605.75"/>
<text xml:space="preserve" text-anchor="middle" x="187" y="-584.25" font-family="Arial" font-size="10.00">C</text>
</a>
</g>
</g>
<!-- Proxy&#45;&gt;C -->
<g id="edge30" class="edge">
<title>Proxy&#45;&gt;C</title>
<path fill="none" stroke="black" d="M812.67,-681.55C734.32,-677.33 502.27,-664.29 310,-648 271.27,-644.72 256.62,-658.52 223,-639 213.69,-633.6 206.16,-624.72 200.43,-615.91"/>
<polygon fill="black" stroke="black" points="203.57,-614.36 195.5,-607.5 197.53,-617.9 203.57,-614.36"/>
</g>
<!-- KiCad -->
<g id="node33" class="node">
<title>KiCad</title>
<g id="a_node33"><a xlink:href="experts/40_experts.svg" xlink:title="KiCad">
<polygon fill="#e8f5e9" stroke="#388e3c" points="286,-605.75 232,-605.75 232,-569.75 286,-569.75 286,-605.75"/>
<text xml:space="preserve" text-anchor="middle" x="259" y="-584.25" font-family="Arial" font-size="10.00">KiCad</text>
</a>
</g>
</g>
<!-- Proxy&#45;&gt;KiCad -->
<g id="edge31" class="edge">
<title>Proxy&#45;&gt;KiCad</title>
<path fill="none" stroke="black" d="M812.6,-681.1C741.92,-676.14 547.63,-662.22 386,-648 345.51,-644.44 330.19,-659.33 295,-639 285.68,-633.62 278.14,-624.74 272.41,-615.94"/>
<polygon fill="black" stroke="black" points="275.56,-614.38 267.49,-607.52 269.52,-617.92 275.56,-614.38"/>
</g>
<!-- FreeCAD -->
<g id="node34" class="node">
<title>FreeCAD</title>
<g id="a_node34"><a xlink:href="experts/40_experts.svg" xlink:title="FreeCAD">
<polygon fill="#e8f5e9" stroke="#388e3c" points="361.62,-605.75 304.38,-605.75 304.38,-569.75 361.62,-569.75 361.62,-605.75"/>
<text xml:space="preserve" text-anchor="middle" x="333" y="-584.25" font-family="Arial" font-size="10.00">FreeCAD</text>
</a>
</g>
</g>
<!-- Proxy&#45;&gt;FreeCAD -->
<g id="edge32" class="edge">
<title>Proxy&#45;&gt;FreeCAD</title>
<path fill="none" stroke="black" d="M812.74,-683.3C724.39,-683.85 447.32,-682.01 371,-639 361.45,-633.62 353.55,-624.74 347.47,-615.94"/>
<polygon fill="black" stroke="black" points="350.47,-614.12 342.2,-607.5 344.53,-617.83 350.47,-614.12"/>
</g>
<!-- Web -->
<g id="node35" class="node">
<title>Web</title>
<g id="a_node35"><a xlink:href="experts/40_experts.svg" xlink:title="Web">
<polygon fill="#e8f5e9" stroke="#388e3c" points="434,-605.75 380,-605.75 380,-569.75 434,-569.75 434,-605.75"/>
<text xml:space="preserve" text-anchor="middle" x="407" y="-584.25" font-family="Arial" font-size="10.00">Web</text>
</a>
</g>
</g>
<!-- Proxy&#45;&gt;Web -->
<g id="edge33" class="edge">
<title>Proxy&#45;&gt;Web</title>
<path fill="none" stroke="black" d="M812.52,-682.82C733.27,-681.85 505.91,-675.84 443,-639 433.71,-633.56 426.18,-624.68 420.45,-615.88"/>
<polygon fill="black" stroke="black" points="423.6,-614.32 415.52,-607.47 417.56,-617.87 423.6,-614.32"/>
</g>
<!-- SVG -->
<g id="node36" class="node">
<title>SVG</title>
<g id="a_node36"><a xlink:href="experts/40_experts.svg" xlink:title="SVG">
<polygon fill="#e8f5e9" stroke="#388e3c" points="506,-605.75 452,-605.75 452,-569.75 506,-569.75 506,-605.75"/>
<text xml:space="preserve" text-anchor="middle" x="479" y="-584.25" font-family="Arial" font-size="10.00">SVG</text>
</a>
</g>
</g>
<!-- Proxy&#45;&gt;SVG -->
<g id="edge34" class="edge">
<title>Proxy&#45;&gt;SVG</title>
<path fill="none" stroke="black" d="M812.72,-681.9C744.44,-678.73 568.09,-667.9 518,-639 508.31,-633.41 500.18,-624.37 493.89,-615.49"/>
<polygon fill="black" stroke="black" points="497,-613.85 488.63,-607.35 491.12,-617.65 497,-613.85"/>
</g>
<!-- Compiler -->
<g id="node37" class="node">
<title>Compiler</title>
<g id="a_node37"><a xlink:href="validation/50_validation.svg" xlink:title="Compiler">
<polygon fill="#f3e5f5" stroke="#7b1fa2" points="662.5,-605.75 607.5,-605.75 607.5,-569.75 662.5,-569.75 662.5,-605.75"/>
<text xml:space="preserve" text-anchor="middle" x="635" y="-584.25" font-family="Arial" font-size="10.00">Compiler</text>
</a>
</g>
</g>
<!-- Proxy&#45;&gt;Compiler -->
<g id="edge35" class="edge">
<title>Proxy&#45;&gt;Compiler</title>
<path fill="none" stroke="black" d="M812.78,-670.48C776.98,-654.03 713.9,-625.02 673.3,-606.36"/>
<polygon fill="black" stroke="black" points="674.92,-603.25 664.37,-602.25 671.99,-609.61 674.92,-603.25"/>
</g>
<!-- Queue -->
<g id="node10" class="node">
<title>Queue</title>
<g id="a_node10"><a xlink:href="scheduler/priority_queue/13_priority_queue.svg" xlink:title="Queue">
<polygon fill="#ede7f6" stroke="#512da8" points="962,-532.75 908,-532.75 908,-496.75 962,-496.75 962,-532.75"/>
<text xml:space="preserve" text-anchor="middle" x="935" y="-511.25" font-family="Arial" font-size="10.00">Queue</text>
</a>
</g>
</g>
<!-- Scheduler&#45;&gt;Queue -->
<g id="edge4" class="edge">
<title>Scheduler&#45;&gt;Queue</title>
<path fill="none" stroke="black" d="M935,-569.56C935,-561.98 935,-552.85 935,-544.29"/>
<polygon fill="black" stroke="black" points="938.5,-544.29 935,-534.29 931.5,-544.29 938.5,-544.29"/>
</g>
<!-- GET -->
<g id="node14" class="node">
<title>GET</title>
<g id="a_node14"><a xlink:href="context/20_context.svg" xlink:title="GET">
<polygon fill="#fff3e0" stroke="#ef6c00" points="1431,-791.25 1377,-791.25 1377,-755.25 1431,-755.25 1431,-791.25"/>
<text xml:space="preserve" text-anchor="middle" x="1404" y="-769.75" font-family="Arial" font-size="10.00">GET</text>
</a>
</g>
</g>
<!-- Scheduler&#45;&gt;GET -->
<g id="edge7" class="edge">
<title>Scheduler&#45;&gt;GET</title>
<path fill="none" stroke="black" d="M965.02,-600.49C1047.14,-632.63 1275.45,-721.95 1366.15,-757.44"/>
<polygon fill="black" stroke="black" points="1364.76,-760.66 1375.35,-761.04 1367.31,-754.14 1364.76,-760.66"/>
<text xml:space="preserve" text-anchor="middle" x="1260.15" y="-679.33" font-family="Times,serif" font-size="14.00">Clock Tick</text>
</g>
<!-- Dispatcher -->
<g id="node9" class="node">
<title>Dispatcher</title>
<g id="a_node9"><a xlink:href="scheduler/dispatcher/11_dispatcher.svg" xlink:title="Dispatcher">
<polygon fill="#ede7f6" stroke="#512da8" points="965.62,-459.75 902.38,-459.75 902.38,-423.75 965.62,-423.75 965.62,-459.75"/>
<text xml:space="preserve" text-anchor="middle" x="934" y="-438.25" font-family="Arial" font-size="10.00">Dispatcher</text>
</a>
</g>
</g>
<!-- EventBus -->
<g id="node11" class="node">
<title>EventBus</title>
<g id="a_node11"><a xlink:href="scheduler/event_bus/12_event_bus.svg" xlink:title="EventBus">
<polygon fill="#ede7f6" stroke="#512da8" points="966.38,-386.75 907.62,-386.75 907.62,-350.75 966.38,-350.75 966.38,-386.75"/>
<text xml:space="preserve" text-anchor="middle" x="937" y="-365.25" font-family="Arial" font-size="10.00">EventBus</text>
</a>
</g>
</g>
<!-- Dispatcher&#45;&gt;EventBus -->
<g id="edge6" class="edge">
<title>Dispatcher&#45;&gt;EventBus</title>
<path fill="none" stroke="black" d="M934.73,-423.56C935.05,-415.89 935.44,-406.64 935.81,-397.99"/>
<polygon fill="black" stroke="black" points="939.29,-398.43 936.22,-388.29 932.3,-398.13 939.29,-398.43"/>
</g>
<!-- Queue&#45;&gt;Dispatcher -->
<g id="edge5" class="edge">
<title>Queue&#45;&gt;Dispatcher</title>
<path fill="none" stroke="black" d="M934.76,-496.56C934.65,-488.98 934.52,-479.85 934.4,-471.29"/>
<polygon fill="black" stroke="black" points="937.9,-471.24 934.26,-461.29 930.9,-471.34 937.9,-471.24"/>
</g>
<!-- SQLiteProd -->
<g id="node21" class="node">
<title>SQLiteProd</title>
<g id="a_node21"><a xlink:href="services/30_services.svg" xlink:title="SQLiteProd">
<polygon fill="#e1f5fe" stroke="#0288d1" points="1352.12,-290.5 1285.88,-290.5 1285.88,-254.5 1352.12,-254.5 1352.12,-290.5"/>
<text xml:space="preserve" text-anchor="middle" x="1319" y="-269" font-family="Arial" font-size="10.00">SQLiteProd</text>
</a>
</g>
</g>
<!-- EventBus&#45;&gt;SQLiteProd -->
<g id="edge19" class="edge">
<title>EventBus&#45;&gt;SQLiteProd</title>
<path fill="none" stroke="black" d="M966.8,-366.65C1039.47,-363.55 1223.77,-352.94 1277,-323.75 1287.21,-318.15 1295.97,-308.99 1302.81,-300.01"/>
<polygon fill="black" stroke="black" points="1305.47,-302.31 1308.36,-292.12 1299.74,-298.29 1305.47,-302.31"/>
</g>
<!-- SQLiteMaint -->
<g id="node22" class="node">
<title>SQLiteMaint</title>
<g id="a_node22"><a xlink:href="services/30_services.svg" xlink:title="SQLiteMaint">
<polygon fill="#e1f5fe" stroke="#0288d1" points="1440,-290.5 1370,-290.5 1370,-254.5 1440,-254.5 1440,-290.5"/>
<text xml:space="preserve" text-anchor="middle" x="1405" y="-269" font-family="Arial" font-size="10.00">SQLiteMaint</text>
</a>
</g>
</g>
<!-- EventBus&#45;&gt;SQLiteMaint -->
<g id="edge20" class="edge">
<title>EventBus&#45;&gt;SQLiteMaint</title>
<path fill="none" stroke="black" d="M966.77,-367.45C1051.46,-366.18 1292.07,-359.42 1361,-323.75 1371.55,-318.29 1380.7,-309.16 1387.88,-300.16"/>
<polygon fill="black" stroke="black" points="1390.62,-302.35 1393.73,-292.22 1384.99,-298.19 1390.62,-302.35"/>
</g>
<!-- Qdrant -->
<g id="node23" class="node">
<title>Qdrant</title>
<g id="a_node23"><a xlink:href="services/30_services.svg" xlink:title="Qdrant">
<polygon fill="#e1f5fe" stroke="#0288d1" points="1042,-290.5 988,-290.5 988,-254.5 1042,-254.5 1042,-290.5"/>
<text xml:space="preserve" text-anchor="middle" x="1015" y="-269" font-family="Arial" font-size="10.00">Qdrant</text>
</a>
</g>
</g>
<!-- EventBus&#45;&gt;Qdrant -->
<g id="edge21" class="edge">
<title>EventBus&#45;&gt;Qdrant</title>
<path fill="none" stroke="black" d="M952.83,-350.42C960.02,-342.41 968.57,-332.71 976,-323.75 982.32,-316.14 988.99,-307.7 994.99,-299.95"/>
<polygon fill="black" stroke="black" points="997.68,-302.19 1000.99,-292.13 992.13,-297.93 997.68,-302.19"/>
</g>
<!-- Cache -->
<g id="node24" class="node">
<title>Cache</title>
<g id="a_node24"><a xlink:href="services/30_services.svg" xlink:title="Cache">
<polygon fill="#e1f5fe" stroke="#0288d1" points="1114,-290.5 1060,-290.5 1060,-254.5 1114,-254.5 1114,-290.5"/>
<text xml:space="preserve" text-anchor="middle" x="1087" y="-269" font-family="Arial" font-size="10.00">Cache</text>
</a>
</g>
</g>
<!-- EventBus&#45;&gt;Cache -->
<g id="edge22" class="edge">
<title>EventBus&#45;&gt;Cache</title>
<path fill="none" stroke="black" d="M966.51,-361.38C991.02,-354.99 1025.84,-343.23 1051,-323.75 1059.17,-317.42 1066.29,-308.74 1071.99,-300.38"/>
<polygon fill="black" stroke="black" points="1074.82,-302.46 1077.2,-292.14 1068.9,-298.72 1074.82,-302.46"/>
</g>
<!-- Knowledge -->
<g id="node25" class="node">
<title>Knowledge</title>
<g id="a_node25"><a xlink:href="services/30_services.svg" xlink:title="Knowledge">
<polygon fill="#e1f5fe" stroke="#0288d1" points="1196,-290.5 1132,-290.5 1132,-254.5 1196,-254.5 1196,-290.5"/>
<text xml:space="preserve" text-anchor="middle" x="1164" y="-269" font-family="Arial" font-size="10.00">Knowledge</text>
</a>
</g>
</g>
<!-- EventBus&#45;&gt;Knowledge -->
<g id="edge23" class="edge">
<title>EventBus&#45;&gt;Knowledge</title>
<path fill="none" stroke="black" d="M966.63,-366.55C1005.33,-363.76 1073.92,-354.48 1123,-323.75 1132.53,-317.78 1140.87,-308.82 1147.49,-300.11"/>
<polygon fill="black" stroke="black" points="1150.2,-302.34 1153.1,-292.15 1144.48,-298.31 1150.2,-302.34"/>
</g>
<!-- Router -->
<g id="node26" class="node">
<title>Router</title>
<g id="a_node26"><a xlink:href="services/30_services.svg" xlink:title="Router">
<polygon fill="#e1f5fe" stroke="#0288d1" points="1268,-290.5 1214,-290.5 1214,-254.5 1268,-254.5 1268,-290.5"/>
<text xml:space="preserve" text-anchor="middle" x="1241" y="-269" font-family="Arial" font-size="10.00">Router</text>
</a>
</g>
</g>
<!-- EventBus&#45;&gt;Router -->
<g id="edge24" class="edge">
<title>EventBus&#45;&gt;Router</title>
<path fill="none" stroke="black" d="M966.86,-365.72C1028.11,-361.1 1165.55,-348.26 1205,-323.75 1214.14,-318.07 1221.64,-309.13 1227.39,-300.36"/>
<polygon fill="black" stroke="black" points="1230.25,-302.39 1232.35,-292.01 1224.23,-298.82 1230.25,-302.39"/>
</g>
<!-- Logger -->
<g id="node43" class="node">
<title>Logger</title>
<g id="a_node43"><a xlink:href="observability/70_observability.svg" xlink:title="Logger">
<polygon fill="#f5f5f5" stroke="#666666" points="820,-290.5 766,-290.5 766,-254.5 820,-254.5 820,-290.5"/>
<text xml:space="preserve" text-anchor="middle" x="793" y="-269" font-family="Arial" font-size="10.00">Logger</text>
</a>
</g>
</g>
<!-- EventBus&#45;&gt;Logger -->
<g id="edge41" class="edge">
<title>EventBus&#45;&gt;Logger</title>
<path fill="none" stroke="black" d="M907.17,-360.5C884.07,-353.8 852.21,-342.06 829,-323.75 820.89,-317.35 813.78,-308.65 808.08,-300.29"/>
<polygon fill="black" stroke="black" points="811.17,-298.63 802.85,-292.07 805.26,-302.39 811.17,-298.63"/>
</g>
<!-- Metrics -->
<g id="node44" class="node">
<title>Metrics</title>
<g id="a_node44"><a xlink:href="observability/70_observability.svg" xlink:title="Metrics">
<polygon fill="#f5f5f5" stroke="#666666" points="892,-290.5 838,-290.5 838,-254.5 892,-254.5 892,-290.5"/>
<text xml:space="preserve" text-anchor="middle" x="865" y="-269" font-family="Arial" font-size="10.00">Metrics</text>
</a>
</g>
</g>
<!-- EventBus&#45;&gt;Metrics -->
<g id="edge42" class="edge">
<title>EventBus&#45;&gt;Metrics</title>
<path fill="none" stroke="black" d="M922.37,-350.4C915.73,-342.38 907.84,-332.68 901,-323.75 895.22,-316.2 889.13,-307.86 883.63,-300.18"/>
<polygon fill="black" stroke="black" points="886.57,-298.28 877.94,-292.14 880.86,-302.33 886.57,-298.28"/>
</g>
<!-- Replay -->
<g id="node45" class="node">
<title>Replay</title>
<g id="a_node45"><a xlink:href="observability/70_observability.svg" xlink:title="Replay">
<polygon fill="#f5f5f5" stroke="#666666" points="964,-290.5 910,-290.5 910,-254.5 964,-254.5 964,-290.5"/>
<text xml:space="preserve" text-anchor="middle" x="937" y="-269" font-family="Arial" font-size="10.00">Replay</text>
</a>
</g>
</g>
<!-- EventBus&#45;&gt;Replay -->
<g id="edge43" class="edge">
<title>EventBus&#45;&gt;Replay</title>
<path fill="none" stroke="black" d="M937,-350.46C937,-337 937,-318.01 937,-302.26"/>
<polygon fill="black" stroke="black" points="940.5,-302.51 937,-292.51 933.5,-302.51 940.5,-302.51"/>
</g>
<!-- Policy -->
<g id="node12" class="node">
<title>Policy</title>
<g id="a_node12"><a xlink:href="scheduler/10_scheduler.svg" xlink:title="Policy">
<polygon fill="#ede7f6" stroke="#512da8" points="965,-702 911,-702 911,-666 965,-666 965,-702"/>
<text xml:space="preserve" text-anchor="middle" x="938" y="-680.5" font-family="Arial" font-size="10.00">Policy</text>
</a>
</g>
</g>
<!-- Policy&#45;&gt;Scheduler -->
<g id="edge16" class="edge">
<title>Policy&#45;&gt;Scheduler</title>
<path fill="none" stroke="black" d="M937.45,-665.71C937.02,-652.25 936.42,-633.26 935.92,-617.51"/>
<polygon fill="black" stroke="black" points="939.42,-617.64 935.61,-607.76 932.43,-617.87 939.42,-617.64"/>
</g>
<!-- Lifecycle -->
<g id="node13" class="node">
<title>Lifecycle</title>
<g id="a_node13"><a xlink:href="scheduler/10_scheduler.svg" xlink:title="Lifecycle">
<polygon fill="#ede7f6" stroke="#512da8" points="953.5,-887.5 898.5,-887.5 898.5,-851.5 953.5,-851.5 953.5,-887.5"/>
<text xml:space="preserve" text-anchor="middle" x="926" y="-866" font-family="Arial" font-size="10.00">Lifecycle</text>
</a>
</g>
</g>
<!-- GET&#45;&gt;Proxy -->
<g id="edge8" class="edge">
<title>GET&#45;&gt;Proxy</title>
<path fill="none" stroke="black" d="M1376.58,-769.67C1300.63,-762.24 1081.27,-738.96 902,-702 894.29,-700.41 886.12,-698.41 878.33,-696.34"/>
<polygon fill="black" stroke="black" points="879.32,-692.98 868.74,-693.7 877.46,-699.73 879.32,-692.98"/>
<text xml:space="preserve" text-anchor="middle" x="1139.61" y="-723.95" font-family="Times,serif" font-size="14.00">context()</text>
</g>
<!-- Reducer -->
<g id="node16" class="node">
<title>Reducer</title>
<g id="a_node16"><a xlink:href="context/reducer/22_reducer.svg" xlink:title="Reducer">
<polygon fill="#fff3e0" stroke="#ef6c00" points="1511,-702 1457,-702 1457,-666 1511,-666 1511,-702"/>
<text xml:space="preserve" text-anchor="middle" x="1484" y="-680.5" font-family="Arial" font-size="10.00">Reducer</text>
</a>
</g>
</g>
<!-- Collector&#45;&gt;Reducer -->
<g id="edge10" class="edge">
<title>Collector&#45;&gt;Reducer</title>
<path fill="none" stroke="black" d="M1481.59,-755.01C1482,-743.18 1482.55,-727.2 1483.02,-713.5"/>
<polygon fill="black" stroke="black" points="1486.51,-713.83 1483.36,-703.71 1479.51,-713.59 1486.51,-713.83"/>
</g>
<!-- Snapshot -->
<g id="node17" class="node">
<title>Snapshot</title>
<g id="a_node17"><a xlink:href="context/snapshot/23_snapshot.svg" xlink:title="Snapshot">
<polygon fill="#fff3e0" stroke="#ef6c00" points="1525.62,-605.75 1468.38,-605.75 1468.38,-569.75 1525.62,-569.75 1525.62,-605.75"/>
<text xml:space="preserve" text-anchor="middle" x="1497" y="-584.25" font-family="Arial" font-size="10.00">Snapshot</text>
</a>
</g>
</g>
<!-- Reducer&#45;&gt;Snapshot -->
<g id="edge11" class="edge">
<title>Reducer&#45;&gt;Snapshot</title>
<path fill="none" stroke="black" d="M1486.38,-665.71C1488.24,-652.25 1490.86,-633.26 1493.03,-617.51"/>
<polygon fill="black" stroke="black" points="1496.48,-618.13 1494.38,-607.75 1489.55,-617.17 1496.48,-618.13"/>
</g>
<!-- Inference -->
<g id="node18" class="node">
<title>Inference</title>
<g id="a_node18"><a xlink:href="context/20_context.svg" xlink:title="Inference">
<polygon fill="#fff3e0" stroke="#ef6c00" points="1525.25,-532.75 1468.75,-532.75 1468.75,-496.75 1525.25,-496.75 1525.25,-532.75"/>
<text xml:space="preserve" text-anchor="middle" x="1497" y="-511.25" font-family="Arial" font-size="10.00">Inference</text>
</a>
</g>
</g>
<!-- Snapshot&#45;&gt;Inference -->
<g id="edge12" class="edge">
<title>Snapshot&#45;&gt;Inference</title>
<path fill="none" stroke="black" d="M1497,-569.56C1497,-561.98 1497,-552.85 1497,-544.29"/>
<polygon fill="black" stroke="black" points="1500.5,-544.29 1497,-534.29 1493.5,-544.29 1500.5,-544.29"/>
</g>
<!-- Adapter -->
<g id="node19" class="node">
<title>Adapter</title>
<g id="a_node19"><a xlink:href="context/decision_engine/24_decision_engine.svg" xlink:title="Adapter">
<polygon fill="#fff3e0" stroke="#ef6c00" points="1525,-459.75 1471,-459.75 1471,-423.75 1525,-423.75 1525,-459.75"/>
<text xml:space="preserve" text-anchor="middle" x="1498" y="-438.25" font-family="Arial" font-size="10.00">Adapter</text>
</a>
</g>
</g>
<!-- Inference&#45;&gt;Adapter -->
<g id="edge13" class="edge">
<title>Inference&#45;&gt;Adapter</title>
<path fill="none" stroke="black" d="M1497.24,-496.56C1497.35,-488.98 1497.48,-479.85 1497.6,-471.29"/>
<polygon fill="black" stroke="black" points="1501.1,-471.34 1497.74,-461.29 1494.1,-471.24 1501.1,-471.34"/>
</g>
<!-- Decision -->
<g id="node20" class="node">
<title>Decision</title>
<g id="a_node20"><a xlink:href="context/decision_engine/24_decision_engine.svg" xlink:title="Decision">
<polygon fill="#fff3e0" stroke="#ef6c00" points="1533.12,-386.75 1478.88,-386.75 1478.88,-350.75 1533.12,-350.75 1533.12,-386.75"/>
<text xml:space="preserve" text-anchor="middle" x="1506" y="-365.25" font-family="Arial" font-size="10.00">Decision</text>
</a>
</g>
</g>
<!-- Adapter&#45;&gt;Decision -->
<g id="edge14" class="edge">
<title>Adapter&#45;&gt;Decision</title>
<path fill="none" stroke="black" d="M1499.94,-423.56C1500.8,-415.89 1501.84,-406.64 1502.82,-397.99"/>
<polygon fill="black" stroke="black" points="1506.27,-398.61 1503.91,-388.28 1499.31,-397.83 1506.27,-398.61"/>
</g>
<!-- OpenVINO -->
<g id="node27" class="node">
<title>OpenVINO</title>
<g id="a_node27"><a xlink:href="learning/60_learning.svg" xlink:title="OpenVINO">
<polygon fill="#fffde7" stroke="#fbc02d" points="1609,-194.25 1545,-194.25 1545,-158.25 1609,-158.25 1609,-194.25"/>
<text xml:space="preserve" text-anchor="middle" x="1577" y="-172.75" font-family="Arial" font-size="10.00">OpenVINO</text>
</a>
</g>
</g>
<!-- Adapter&#45;&gt;OpenVINO -->
<g id="edge25" class="edge">
<title>Adapter&#45;&gt;OpenVINO</title>
<path fill="none" stroke="black" d="M1516.1,-423.38C1525.31,-413.51 1535.82,-400.41 1542,-386.75 1569.25,-326.48 1575.5,-247.82 1576.79,-206.13"/>
<polygon fill="black" stroke="black" points="1580.29,-206.26 1577.02,-196.19 1573.29,-206.11 1580.29,-206.26"/>
</g>
<!-- Embedding -->
<g id="node28" class="node">
<title>Embedding</title>
<g id="a_node28"><a xlink:href="learning/60_learning.svg" xlink:title="Embedding">
<polygon fill="#fffde7" stroke="#fbc02d" points="1455.38,-194.25 1390.62,-194.25 1390.62,-158.25 1455.38,-158.25 1455.38,-194.25"/>
<text xml:space="preserve" text-anchor="middle" x="1423" y="-172.75" font-family="Arial" font-size="10.00">Embedding</text>
</a>
</g>
</g>
<!-- Adapter&#45;&gt;Embedding -->
<g id="edge26" class="edge">
<title>Adapter&#45;&gt;Embedding</title>
<path fill="none" stroke="black" d="M1487.02,-423.43C1481.03,-413.15 1474.03,-399.65 1470,-386.75 1451.25,-326.77 1468.28,-307.2 1452,-246.5 1448.21,-232.38 1442.18,-217.34 1436.59,-204.9"/>
<polygon fill="black" stroke="black" points="1439.89,-203.69 1432.5,-196.09 1433.54,-206.64 1439.89,-203.69"/>
</g>
<!-- Decision&#45;&gt;Queue -->
<g id="edge17" class="edge">
<title>Decision&#45;&gt;Queue</title>
<path fill="none" stroke="black" stroke-dasharray="5,2" d="M1478.5,-371.55C1430.4,-375.11 1328.11,-384.53 1244,-404.75 1143.46,-428.92 1029.9,-473.73 972.5,-497.67"/>
<polygon fill="black" stroke="black" points="971.38,-494.35 963.52,-501.45 974.09,-500.8 971.38,-494.35"/>
</g>
<!-- Decision&#45;&gt;Policy -->
<g id="edge15" class="edge">
<title>Decision&#45;&gt;Policy</title>
<path fill="none" stroke="black" d="M1478.51,-371.77C1413.94,-377.28 1258,-395.29 1258,-440.75 1258,-588.75 1258,-588.75 1258,-588.75 1258,-646.83 1061.58,-671.75 976.51,-679.83"/>
<polygon fill="black" stroke="black" points="976.43,-676.32 966.79,-680.72 977.07,-683.29 976.43,-676.32"/>
</g>
<!-- MCTS -->
<g id="node29" class="node">
<title>MCTS</title>
<g id="a_node29"><a xlink:href="learning/60_learning.svg" xlink:title="MCTS">
<polygon fill="#fffde7" stroke="#fbc02d" points="1527,-194.25 1473,-194.25 1473,-158.25 1527,-158.25 1527,-194.25"/>
<text xml:space="preserve" text-anchor="middle" x="1500" y="-172.75" font-family="Arial" font-size="10.00">MCTS</text>
</a>
</g>
</g>
<!-- Decision&#45;&gt;MCTS -->
<g id="edge18" class="edge">
<title>Decision&#45;&gt;MCTS</title>
<path fill="none" stroke="black" stroke-dasharray="5,2" d="M1505.46,-350.51C1504.42,-317.72 1502.17,-246.09 1500.9,-205.96"/>
<polygon fill="black" stroke="black" points="1504.41,-205.99 1500.59,-196.1 1497.41,-206.21 1504.41,-205.99"/>
</g>
<!-- Qdrant&#45;&gt;Embedding -->
<g id="edge27" class="edge">
<title>Qdrant&#45;&gt;Embedding</title>
<path fill="none" stroke="black" d="M1037,-254.08C1041.45,-251.19 1046.23,-248.49 1051,-246.5 1163.26,-199.63 1307.78,-184.33 1379.13,-179.46"/>
<polygon fill="black" stroke="black" points="1379.08,-182.97 1388.84,-178.83 1378.63,-175.98 1379.08,-182.97"/>
</g>
<!-- OpenVINO&#45;&gt;GPU -->
<g id="edge46" class="edge">
<title>OpenVINO&#45;&gt;GPU</title>
<path fill="none" stroke="black" stroke-dasharray="5,2" d="M1577,-158.14C1577,-143.57 1577,-122.36 1577,-105.28"/>
<polygon fill="black" stroke="black" points="1580.5,-105.76 1577,-95.76 1573.5,-105.76 1580.5,-105.76"/>
</g>
<!-- Tests -->
<g id="node38" class="node">
<title>Tests</title>
<g id="a_node38"><a xlink:href="validation/50_validation.svg" xlink:title="Tests">
<polygon fill="#f3e5f5" stroke="#7b1fa2" points="660,-532.75 606,-532.75 606,-496.75 660,-496.75 660,-532.75"/>
<text xml:space="preserve" text-anchor="middle" x="633" y="-511.25" font-family="Arial" font-size="10.00">Tests</text>
</a>
</g>
</g>
<!-- Compiler&#45;&gt;Tests -->
<g id="edge36" class="edge">
<title>Compiler&#45;&gt;Tests</title>
<path fill="none" stroke="black" d="M634.52,-569.56C634.3,-561.89 634.04,-552.64 633.8,-543.99"/>
<polygon fill="black" stroke="black" points="637.3,-544.19 633.52,-534.29 630.31,-544.39 637.3,-544.19"/>
</g>
<!-- Validator -->
<g id="node39" class="node">
<title>Validator</title>
<g id="a_node39"><a xlink:href="validation/50_validation.svg" xlink:title="Validator">
<polygon fill="#f3e5f5" stroke="#7b1fa2" points="658,-459.75 604,-459.75 604,-423.75 658,-423.75 658,-459.75"/>
<text xml:space="preserve" text-anchor="middle" x="631" y="-438.25" font-family="Arial" font-size="10.00">Validator</text>
</a>
</g>
</g>
<!-- Tests&#45;&gt;Validator -->
<g id="edge37" class="edge">
<title>Tests&#45;&gt;Validator</title>
<path fill="none" stroke="black" d="M632.52,-496.56C632.3,-488.89 632.04,-479.64 631.8,-470.99"/>
<polygon fill="black" stroke="black" points="635.3,-471.19 631.52,-461.29 628.31,-471.39 635.3,-471.19"/>
</g>
<!-- Confidence -->
<g id="node40" class="node">
<title>Confidence</title>
<g id="a_node40"><a xlink:href="validation/50_validation.svg" xlink:title="Confidence">
<polygon fill="#f3e5f5" stroke="#7b1fa2" points="663.75,-386.75 598.25,-386.75 598.25,-350.75 663.75,-350.75 663.75,-386.75"/>
<text xml:space="preserve" text-anchor="middle" x="631" y="-365.25" font-family="Arial" font-size="10.00">Confidence</text>
</a>
</g>
</g>
<!-- Validator&#45;&gt;Confidence -->
<g id="edge38" class="edge">
<title>Validator&#45;&gt;Confidence</title>
<path fill="none" stroke="black" d="M631,-423.56C631,-415.98 631,-406.85 631,-398.29"/>
<polygon fill="black" stroke="black" points="634.5,-398.29 631,-388.29 627.5,-398.29 634.5,-398.29"/>
</g>
<!-- Conflict -->
<g id="node41" class="node">
<title>Conflict</title>
<g id="a_node41"><a xlink:href="validation/50_validation.svg" xlink:title="Conflict">
<polygon fill="#f3e5f5" stroke="#7b1fa2" points="658,-290.5 604,-290.5 604,-254.5 658,-254.5 658,-290.5"/>
<text xml:space="preserve" text-anchor="middle" x="631" y="-269" font-family="Arial" font-size="10.00">Conflict</text>
</a>
</g>
</g>
<!-- Confidence&#45;&gt;Conflict -->
<g id="edge39" class="edge">
<title>Confidence&#45;&gt;Conflict</title>
<path fill="none" stroke="black" d="M631,-350.46C631,-337 631,-318.01 631,-302.26"/>
<polygon fill="black" stroke="black" points="634.5,-302.51 631,-292.51 627.5,-302.51 634.5,-302.51"/>
</g>
<!-- Version -->
<g id="node42" class="node">
<title>Version</title>
<g id="a_node42"><a xlink:href="validation/50_validation.svg" xlink:title="Version">
<polygon fill="#f3e5f5" stroke="#7b1fa2" points="658,-194.25 604,-194.25 604,-158.25 658,-158.25 658,-194.25"/>
<text xml:space="preserve" text-anchor="middle" x="631" y="-172.75" font-family="Arial" font-size="10.00">Version</text>
</a>
</g>
</g>
<!-- Conflict&#45;&gt;Version -->
<g id="edge40" class="edge">
<title>Conflict&#45;&gt;Version</title>
<path fill="none" stroke="black" d="M631,-254.21C631,-240.75 631,-221.76 631,-206.01"/>
<polygon fill="black" stroke="black" points="634.5,-206.26 631,-196.26 627.5,-206.26 634.5,-206.26"/>
</g>
<!-- Dashboard -->
<g id="node46" class="node">
<title>Dashboard</title>
<g id="a_node46"><a xlink:href="observability/70_observability.svg" xlink:title="Dashboard">
<polygon fill="#f5f5f5" stroke="#666666" points="896.62,-194.25 833.38,-194.25 833.38,-158.25 896.62,-158.25 896.62,-194.25"/>
<text xml:space="preserve" text-anchor="middle" x="865" y="-172.75" font-family="Arial" font-size="10.00">Dashboard</text>
</a>
</g>
</g>
<!-- Metrics&#45;&gt;Dashboard -->
<g id="edge44" class="edge">
<title>Metrics&#45;&gt;Dashboard</title>
<path fill="none" stroke="black" d="M865,-254.21C865,-240.75 865,-221.76 865,-206.01"/>
<polygon fill="black" stroke="black" points="868.5,-206.26 865,-196.26 861.5,-206.26 868.5,-206.26"/>
</g>
<!-- Watchdog -->
<g id="node47" class="node">
<title>Watchdog</title>
<g id="a_node47"><a xlink:href="observability/70_observability.svg" xlink:title="Watchdog">
<polygon fill="#f5f5f5" stroke="#666666" points="747.75,-290.5 688.25,-290.5 688.25,-254.5 747.75,-254.5 747.75,-290.5"/>
<text xml:space="preserve" text-anchor="middle" x="718" y="-269" font-family="Arial" font-size="10.00">Watchdog</text>
</a>
</g>
</g>
<!-- Watchdog&#45;&gt;Scheduler -->
<g id="edge45" class="edge">
<title>Watchdog&#45;&gt;Scheduler</title>
<path fill="none" stroke="black" d="M723.3,-290.68C728.61,-309.43 736,-340.43 736,-367.75 736,-515.75 736,-515.75 736,-515.75 736,-548.94 835.41,-570.68 893.71,-580.58"/>
<polygon fill="black" stroke="black" points="892.85,-583.98 903.28,-582.15 893.98,-577.07 892.85,-583.98"/>
</g>
<!-- Nav_Scheduler -->
<g id="node48" class="node">
<title>Nav_Scheduler</title>
<g id="a_node48"><a xlink:href="scheduler/10_scheduler.svg" xlink:title="Scheduler">
<polygon fill="lightgrey" stroke="none" points="1281.75,-36 1222.25,-36 1222.25,0 1281.75,0 1281.75,-36"/>
<text xml:space="preserve" text-anchor="middle" x="1252" y="-14.5" font-family="Arial" font-size="10.00">Scheduler</text>
</a>
</g>
</g>
<!-- Nav_Context -->
<g id="node49" class="node">
<title>Nav_Context</title>
<g id="a_node49"><a xlink:href="context/20_context.svg" xlink:title="Context">
<polygon fill="lightgrey" stroke="none" points="1341,-36 1287,-36 1287,0 1341,0 1341,-36"/>
<text xml:space="preserve" text-anchor="middle" x="1314" y="-14.5" font-family="Arial" font-size="10.00">Context</text>
</a>
</g>
</g>
<!-- Nav_Services -->
<g id="node50" class="node">
<title>Nav_Services</title>
<g id="a_node50"><a xlink:href="services/30_services.svg" xlink:title="Services">
<polygon fill="lightgrey" stroke="none" points="1400.12,-36 1345.88,-36 1345.88,0 1400.12,0 1400.12,-36"/>
<text xml:space="preserve" text-anchor="middle" x="1373" y="-14.5" font-family="Arial" font-size="10.00">Services</text>
</a>
</g>
</g>
<!-- Nav_Experts -->
<g id="node51" class="node">
<title>Nav_Experts</title>
<g id="a_node51"><a xlink:href="experts/40_experts.svg" xlink:title="Experts">
<polygon fill="lightgrey" stroke="none" points="1459,-36 1405,-36 1405,0 1459,0 1459,-36"/>
<text xml:space="preserve" text-anchor="middle" x="1432" y="-14.5" font-family="Arial" font-size="10.00">Experts</text>
</a>
</g>
</g>
<!-- Nav_Validation -->
<g id="node52" class="node">
<title>Nav_Validation</title>
<g id="a_node52"><a xlink:href="validation/50_validation.svg" xlink:title="Validation">
<polygon fill="lightgrey" stroke="none" points="1522,-36 1464,-36 1464,0 1522,0 1522,-36"/>
<text xml:space="preserve" text-anchor="middle" x="1493" y="-14.5" font-family="Arial" font-size="10.00">Validation</text>
</a>
</g>
</g>
<!-- Nav_Learning -->
<g id="node53" class="node">
<title>Nav_Learning</title>
<g id="a_node53"><a xlink:href="learning/60_learning.svg" xlink:title="Learning">
<polygon fill="lightgrey" stroke="none" points="1581,-36 1527,-36 1527,0 1581,0 1581,-36"/>
<text xml:space="preserve" text-anchor="middle" x="1554" y="-14.5" font-family="Arial" font-size="10.00">Learning</text>
</a>
</g>
</g>
<!-- Nav_Observability -->
<g id="node54" class="node">
<title>Nav_Observability</title>
<g id="a_node54"><a xlink:href="observability/70_observability.svg" xlink:title="Observability">
<polygon fill="lightgrey" stroke="none" points="1659.5,-36 1586.5,-36 1586.5,0 1659.5,0 1659.5,-36"/>
<text xml:space="preserve" text-anchor="middle" x="1623" y="-14.5" font-family="Arial" font-size="10.00">Observability</text>
</a>
</g>
</g>
</g>
</svg>
