<?xml version="1.0" encoding="UTF-8" standalone="no"?>
<!DOCTYPE svg PUBLIC "-//W3C//DTD SVG 1.1//EN"
 "http://www.w3.org/Graphics/SVG/1.1/DTD/svg11.dtd">
<!-- Generated by graphviz version 2.42.4 (0)
 -->
<!-- Title: Global Pages: 1 -->
<svg width="1972pt" height="961pt"
 viewBox="0.00 0.00 1972.00 961.00" xmlns="http://www.w3.org/2000/svg" xmlns:xlink="http://www.w3.org/1999/xlink">
<g id="graph0" class="graph" transform="scale(1 1) rotate(0) translate(4 957)">
<title>Global</title>
<polygon fill="white" stroke="transparent" points="-4,4 -4,-957 1968,-957 1968,4 -4,4"/>
<g id="clust1" class="cluster">
<title>cluster_L0</title>
<polygon fill="#ffebee" stroke="#c62828" points="1468,-221 1468,-293 1956,-293 1956,-221 1468,-221"/>
<text text-anchor="middle" x="1712" y="-280.2" font-family="Arial" font-size="11.00">Layer 0 — Hardware target</text>
</g>
<g id="clust2" class="cluster">
<title>cluster_L1</title>
<polygon fill="#ede7f6" stroke="#512da8" points="588,-221 588,-945 812,-945 812,-221 588,-221"/>
<text text-anchor="middle" x="700" y="-932.2" font-family="Arial" font-size="11.00">Layer 1 — MissiPy Micro&#45;Kernel</text>
</g>
<g id="clust3" class="cluster">
<title>cluster_L2</title>
<polygon fill="#eceff1" stroke="#455a64" points="875,-332 875,-404 1344,-404 1344,-332 875,-332"/>
<text text-anchor="middle" x="1109.5" y="-391.2" font-family="Arial" font-size="11.00">Layer 2 — Contracts</text>
</g>
<g id="clust4" class="cluster">
<title>cluster_L3</title>
<polygon fill="#fff3e0" stroke="#ef6c00" points="979,-554 979,-945 1271,-945 1271,-554 979,-554"/>
<text text-anchor="middle" x="1125" y="-932.2" font-family="Arial" font-size="11.00">Layer 3 — Context Fabric</text>
</g>
<g id="clust5" class="cluster">
<title>cluster_L4</title>
<polygon fill="#e1f5fe" stroke="#0288d1" points="8,-110 8,-182 674,-182 674,-110 8,-110"/>
<text text-anchor="middle" x="341" y="-169.2" font-family="Arial" font-size="11.00">Layer 4 — Independent Services future</text>
</g>
<g id="clust6" class="cluster">
<title>cluster_L5</title>
<polygon fill="#fffde7" stroke="#f9a825" points="1352,-332 1352,-515 1582,-515 1582,-332 1352,-332"/>
<text text-anchor="middle" x="1467" y="-502.2" font-family="Arial" font-size="11.00">Layer 5 — Inference future</text>
</g>
<g id="clust7" class="cluster">
<title>cluster_L6</title>
<polygon fill="#e8f5e9" stroke="#388e3c" points="304,-554 304,-626 564,-626 564,-554 304,-554"/>
<text text-anchor="middle" x="434" y="-613.2" font-family="Arial" font-size="11.00">Layer 6 — Experts</text>
</g>
<g id="clust8" class="cluster">
<title>cluster_L7</title>
<polygon fill="#f3e5f5" stroke="#7b1fa2" points="418,-443 418,-515 580,-515 580,-443 418,-443"/>
<text text-anchor="middle" x="499" y="-502.2" font-family="Arial" font-size="11.00">Layer 7 — Validation future</text>
</g>
<g id="clust9" class="cluster">
<title>cluster_L8</title>
<polygon fill="#efebe9" stroke="#6d4c41" points="1048,-8 1048,-80 1204,-80 1204,-8 1048,-8"/>
<text text-anchor="middle" x="1126" y="-67.2" font-family="Arial" font-size="11.00">Layer 8 — Learning future</text>
</g>
<g id="clust10" class="cluster">
<title>cluster_L9</title>
<polygon fill="#f5f5f5" stroke="#666666" points="694,-8 694,-182 1040,-182 1040,-8 694,-8"/>
<text text-anchor="middle" x="867" y="-169.2" font-family="Arial" font-size="11.00">Layer 9 — Observability</text>
</g>
<!-- CPU -->
<g id="node1" class="node">
<title>CPU</title>
<path fill="#ffebee" stroke="#c62828" d="M1936,-265C1936,-265 1886,-265 1886,-265 1880,-265 1874,-259 1874,-253 1874,-253 1874,-241 1874,-241 1874,-235 1880,-229 1886,-229 1886,-229 1936,-229 1936,-229 1942,-229 1948,-235 1948,-241 1948,-241 1948,-253 1948,-253 1948,-259 1942,-265 1936,-265"/>
<text text-anchor="middle" x="1911" y="-250" font-family="Arial" font-size="10.00">Intel i5&#45;11400</text>
<text text-anchor="middle" x="1911" y="-239" font-family="Arial" font-size="10.00">CPU</text>
</g>
<!-- RAM -->
<g id="node2" class="node">
<title>RAM</title>
<path fill="#ffebee" stroke="#c62828" d="M1825.5,-265C1825.5,-265 1772.5,-265 1772.5,-265 1766.5,-265 1760.5,-259 1760.5,-253 1760.5,-253 1760.5,-241 1760.5,-241 1760.5,-235 1766.5,-229 1772.5,-229 1772.5,-229 1825.5,-229 1825.5,-229 1831.5,-229 1837.5,-235 1837.5,-241 1837.5,-241 1837.5,-253 1837.5,-253 1837.5,-259 1831.5,-265 1825.5,-265"/>
<text text-anchor="middle" x="1799" y="-244.5" font-family="Arial" font-size="10.00">128GB DDR4</text>
</g>
<!-- Storage -->
<g id="node3" class="node">
<title>Storage</title>
<path fill="#ffebee" stroke="#c62828" d="M1712,-265C1712,-265 1616,-265 1616,-265 1610,-265 1604,-259 1604,-253 1604,-253 1604,-241 1604,-241 1604,-235 1610,-229 1616,-229 1616,-229 1712,-229 1712,-229 1718,-229 1724,-235 1724,-241 1724,-241 1724,-253 1724,-253 1724,-259 1718,-265 1712,-265"/>
<text text-anchor="middle" x="1664" y="-250" font-family="Arial" font-size="10.00">ZFS</text>
<text text-anchor="middle" x="1664" y="-239" font-family="Arial" font-size="10.00">NVMe + RAIDZ2 SATA</text>
</g>
<!-- GPU -->
<g id="node4" class="node">
<title>GPU</title>
<path fill="#ffebee" stroke="#c62828" d="M1556,-265C1556,-265 1488,-265 1488,-265 1482,-265 1476,-259 1476,-253 1476,-253 1476,-241 1476,-241 1476,-235 1482,-229 1488,-229 1488,-229 1556,-229 1556,-229 1562,-229 1568,-235 1568,-241 1568,-241 1568,-253 1568,-253 1568,-259 1562,-265 1556,-265"/>
<text text-anchor="middle" x="1522" y="-250" font-family="Arial" font-size="10.00">Intel iGPU</text>
<text text-anchor="middle" x="1522" y="-239" font-family="Arial" font-size="10.00">OpenVINO future</text>
</g>
<!-- Launcher -->
<g id="node5" class="node">
<title>Launcher</title>
<g id="a_node5"><a xlink:href="scheduler/10_scheduler.svg" xlink:title="Zoom Scheduler">
<path fill="#ede7f6" stroke="#512da8" d="M783,-917C783,-917 751,-917 751,-917 745,-917 739,-911 739,-905 739,-905 739,-893 739,-893 739,-887 745,-881 751,-881 751,-881 783,-881 783,-881 789,-881 795,-887 795,-893 795,-893 795,-905 795,-905 795,-911 789,-917 783,-917"/>
<text text-anchor="middle" x="767" y="-896.5" font-family="Arial" font-size="10.00">Launcher</text>
</a>
</g>
</g>
<!-- Registry -->
<g id="node6" class="node">
<title>Registry</title>
<g id="a_node6"><a xlink:href="scheduler/10_scheduler.svg" xlink:title="Registry">
<path fill="#ede7f6" stroke="#512da8" d="M782,-813C782,-813 752,-813 752,-813 746,-813 740,-807 740,-801 740,-801 740,-789 740,-789 740,-783 746,-777 752,-777 752,-777 782,-777 782,-777 788,-777 794,-783 794,-789 794,-789 794,-801 794,-801 794,-807 788,-813 782,-813"/>
<text text-anchor="middle" x="767" y="-792.5" font-family="Arial" font-size="10.00">Registry</text>
</a>
</g>
</g>
<!-- Launcher&#45;&gt;Registry -->
<g id="edge1" class="edge">
<title>Launcher&#45;&gt;Registry</title>
<path fill="none" stroke="black" d="M758,-880.88C758,-880.88 758,-820.26 758,-820.26"/>
<polygon fill="black" stroke="black" points="760.45,-820.26 758,-813.26 755.55,-820.26 760.45,-820.26"/>
</g>
<!-- Proxy -->
<g id="node7" class="node">
<title>Proxy</title>
<g id="a_node7"><a xlink:href="scheduler/10_scheduler.svg" xlink:title="Runtime proxy">
<path fill="#ede7f6" stroke="#512da8" d="M791,-709C791,-709 723,-709 723,-709 717,-709 711,-703 711,-697 711,-697 711,-685 711,-685 711,-679 717,-673 723,-673 723,-673 791,-673 791,-673 797,-673 803,-679 803,-685 803,-685 803,-697 803,-697 803,-703 797,-709 791,-709"/>
<text text-anchor="middle" x="757" y="-688.5" font-family="Arial" font-size="10.00">ComponentProxy</text>
</a>
</g>
</g>
<!-- Registry&#45;&gt;Proxy -->
<g id="edge2" class="edge">
<title>Registry&#45;&gt;Proxy</title>
<path fill="none" stroke="black" d="M767,-776.88C767,-776.88 767,-716.26 767,-716.26"/>
<polygon fill="black" stroke="black" points="769.45,-716.26 767,-709.26 764.55,-716.26 769.45,-716.26"/>
</g>
<!-- Scheduler -->
<g id="node8" class="node">
<title>Scheduler</title>
<g id="a_node8"><a xlink:href="scheduler/10_scheduler.svg" xlink:title="Zoom Scheduler">
<path fill="#ede7f6" stroke="#512da8" d="M775,-598C775,-598 739,-598 739,-598 733,-598 727,-592 727,-586 727,-586 727,-574 727,-574 727,-568 733,-562 739,-562 739,-562 775,-562 775,-562 781,-562 787,-568 787,-574 787,-574 787,-586 787,-586 787,-592 781,-598 775,-598"/>
<text text-anchor="middle" x="757" y="-577.5" font-family="Arial" font-size="10.00">Scheduler</text>
</a>
</g>
</g>
<!-- Proxy&#45;&gt;Scheduler -->
<g id="edge3" class="edge">
<title>Proxy&#45;&gt;Scheduler</title>
<path fill="none" stroke="black" d="M747,-672.67C747,-672.67 747,-605.36 747,-605.36"/>
<polygon fill="black" stroke="black" points="749.45,-605.36 747,-598.36 744.55,-605.36 749.45,-605.36"/>
<text text-anchor="middle" x="780.5" y="-636.8" font-family="Arial" font-size="9.00">emit(Event)</text>
</g>
<!-- ComponentContract -->
<g id="node14" class="node">
<title>ComponentContract</title>
<path fill="#eceff1" stroke="#455a64" d="M1065.5,-376C1065.5,-376 1022.5,-376 1022.5,-376 1016.5,-376 1010.5,-370 1010.5,-364 1010.5,-364 1010.5,-352 1010.5,-352 1010.5,-346 1016.5,-340 1022.5,-340 1022.5,-340 1065.5,-340 1065.5,-340 1071.5,-340 1077.5,-346 1077.5,-352 1077.5,-352 1077.5,-364 1077.5,-364 1077.5,-370 1071.5,-376 1065.5,-376"/>
<text text-anchor="middle" x="1044" y="-355.5" font-family="Arial" font-size="10.00">Component</text>
</g>
<!-- Proxy&#45;&gt;ComponentContract -->
<g id="edge16" class="edge">
<title>Proxy&#45;&gt;ComponentContract</title>
<path fill="none" stroke="black" stroke-dasharray="1,5" d="M803.2,-691C880.04,-691 1025.75,-691 1025.75,-691 1025.75,-691 1025.75,-383.38 1025.75,-383.38"/>
<polygon fill="black" stroke="black" points="1028.2,-383.38 1025.75,-376.38 1023.3,-383.38 1028.2,-383.38"/>
</g>
<!-- Dummy -->
<g id="node32" class="node">
<title>Dummy</title>
<g id="a_node32"><a xlink:href="experts/40_experts.svg" xlink:title="DummyExpert\ncurrent">
<path fill="#e8f5e9" stroke="#388e3c" d="M544,-598C544,-598 488,-598 488,-598 482,-598 476,-592 476,-586 476,-586 476,-574 476,-574 476,-568 482,-562 488,-562 488,-562 544,-562 544,-562 550,-562 556,-568 556,-574 556,-574 556,-586 556,-586 556,-592 550,-598 544,-598"/>
<text text-anchor="middle" x="516" y="-583" font-family="Arial" font-size="10.00">DummyExpert</text>
<text text-anchor="middle" x="516" y="-572" font-family="Arial" font-size="10.00">current</text>
</a>
</g>
</g>
<!-- Proxy&#45;&gt;Dummy -->
<g id="edge19" class="edge">
<title>Proxy&#45;&gt;Dummy</title>
<path fill="none" stroke="black" d="M719,-672.67C719,-641.14 719,-580 719,-580 719,-580 563.11,-580 563.11,-580"/>
<polygon fill="black" stroke="black" points="563.11,-577.55 556.11,-580 563.11,-582.45 563.11,-577.55"/>
<text text-anchor="middle" x="550" y="-636.8" font-family="Arial" font-size="9.00">tick/asend</text>
</g>
<!-- Queue -->
<g id="node9" class="node">
<title>Queue</title>
<g id="a_node9"><a xlink:href="scheduler/10_scheduler.svg" xlink:title="PriorityQueue">
<path fill="#ede7f6" stroke="#512da8" d="M745,-487C745,-487 693,-487 693,-487 687,-487 681,-481 681,-475 681,-475 681,-463 681,-463 681,-457 687,-451 693,-451 693,-451 745,-451 745,-451 751,-451 757,-457 757,-463 757,-463 757,-475 757,-475 757,-481 751,-487 745,-487"/>
<text text-anchor="middle" x="719" y="-466.5" font-family="Arial" font-size="10.00">PriorityQueue</text>
</a>
</g>
</g>
<!-- Scheduler&#45;&gt;Queue -->
<g id="edge4" class="edge">
<title>Scheduler&#45;&gt;Queue</title>
<path fill="none" stroke="black" d="M742,-561.67C742,-561.67 742,-494.36 742,-494.36"/>
<polygon fill="black" stroke="black" points="744.45,-494.36 742,-487.36 739.55,-494.36 744.45,-494.36"/>
<text text-anchor="middle" x="767.5" y="-525.8" font-family="Arial" font-size="9.00">put(priority, event)</text>
</g>
<!-- EventContract -->
<g id="node13" class="node">
<title>EventContract</title>
<path fill="#eceff1" stroke="#455a64" d="M962.5,-376C962.5,-376 895.5,-376 895.5,-376 889.5,-376 883.5,-370 883.5,-364 883.5,-364 883.5,-352 883.5,-352 883.5,-346 889.5,-340 895.5,-340 895.5,-340 962.5,-340 962.5,-340 968.5,-340 974.5,-346 974.5,-352 974.5,-352 974.5,-364 974.5,-364 974.5,-370 968.5,-376 962.5,-376"/>
<text text-anchor="middle" x="929" y="-355.5" font-family="Arial" font-size="10.00">Event + Request</text>
</g>
<!-- Scheduler&#45;&gt;EventContract -->
<g id="edge15" class="edge">
<title>Scheduler&#45;&gt;EventContract</title>
<path fill="none" stroke="black" stroke-dasharray="1,5" d="M781.5,-561.83C781.5,-508.81 781.5,-358 781.5,-358 781.5,-358 876.14,-358 876.14,-358"/>
<polygon fill="black" stroke="black" points="876.14,-360.45 883.14,-358 876.14,-355.55 876.14,-360.45"/>
</g>
<!-- ContextEngine -->
<g id="node17" class="node">
<title>ContextEngine</title>
<g id="a_node17"><a xlink:href="context/20_context.svg" xlink:title="ContextEngine\nPhase 1 fast path">
<path fill="#fff3e0" stroke="#ef6c00" d="M1251,-917C1251,-917 1181,-917 1181,-917 1175,-917 1169,-911 1169,-905 1169,-905 1169,-893 1169,-893 1169,-887 1175,-881 1181,-881 1181,-881 1251,-881 1251,-881 1257,-881 1263,-887 1263,-893 1263,-893 1263,-905 1263,-905 1263,-911 1257,-917 1251,-917"/>
<text text-anchor="middle" x="1216" y="-902" font-family="Arial" font-size="10.00">ContextEngine</text>
<text text-anchor="middle" x="1216" y="-891" font-family="Arial" font-size="10.00">Phase 1 fast path</text>
</a>
</g>
</g>
<!-- Scheduler&#45;&gt;ContextEngine -->
<g id="edge9" class="edge">
<title>Scheduler&#45;&gt;ContextEngine</title>
<path fill="none" stroke="black" d="M767,-598.01C767,-614.05 767,-635 767,-635 767,-635 1254.33,-635 1254.33,-635 1254.33,-635 1254.33,-873.85 1254.33,-873.85"/>
<polygon fill="black" stroke="black" points="1251.88,-873.85 1254.33,-880.85 1256.78,-873.85 1251.88,-873.85"/>
<text text-anchor="middle" x="625.5" y="-740.8" font-family="Arial" font-size="9.00">clock tick</text>
</g>
<!-- Dispatcher -->
<g id="node10" class="node">
<title>Dispatcher</title>
<g id="a_node10"><a xlink:href="scheduler/10_scheduler.svg" xlink:title="Dispatcher">
<path fill="#ede7f6" stroke="#512da8" d="M682,-376C682,-376 642,-376 642,-376 636,-376 630,-370 630,-364 630,-364 630,-352 630,-352 630,-346 636,-340 642,-340 642,-340 682,-340 682,-340 688,-340 694,-346 694,-352 694,-352 694,-364 694,-364 694,-370 688,-376 682,-376"/>
<text text-anchor="middle" x="662" y="-355.5" font-family="Arial" font-size="10.00">Dispatcher</text>
</a>
</g>
</g>
<!-- Queue&#45;&gt;Dispatcher -->
<g id="edge5" class="edge">
<title>Queue&#45;&gt;Dispatcher</title>
<path fill="none" stroke="black" d="M687.5,-450.67C687.5,-450.67 687.5,-383.36 687.5,-383.36"/>
<polygon fill="black" stroke="black" points="689.95,-383.36 687.5,-376.36 685.05,-383.36 689.95,-383.36"/>
<text text-anchor="middle" x="700.5" y="-414.8" font-family="Arial" font-size="9.00">get()</text>
</g>
<!-- Dispatcher&#45;&gt;Proxy -->
<g id="edge8" class="edge">
<title>Dispatcher&#45;&gt;Proxy</title>
<path fill="none" stroke="black" stroke-dasharray="5,2" d="M655.5,-376.38C655.5,-446.19 655.5,-691 655.5,-691 655.5,-691 703.71,-691 703.71,-691"/>
<polygon fill="black" stroke="black" points="703.71,-693.45 710.71,-691 703.71,-688.55 703.71,-693.45"/>
<text text-anchor="middle" x="661" y="-525.8" font-family="Arial" font-size="9.00">Request.reply</text>
</g>
<!-- EventBus -->
<g id="node11" class="node">
<title>EventBus</title>
<g id="a_node11"><a xlink:href="scheduler/10_scheduler.svg" xlink:title="EventBus\nobservation only">
<path fill="#ede7f6" stroke="#512da8" d="M672,-265C672,-265 608,-265 608,-265 602,-265 596,-259 596,-253 596,-253 596,-241 596,-241 596,-235 602,-229 608,-229 608,-229 672,-229 672,-229 678,-229 684,-235 684,-241 684,-241 684,-253 684,-253 684,-259 678,-265 672,-265"/>
<text text-anchor="middle" x="640" y="-250" font-family="Arial" font-size="10.00">EventBus</text>
<text text-anchor="middle" x="640" y="-239" font-family="Arial" font-size="10.00">observation only</text>
</a>
</g>
</g>
<!-- Dispatcher&#45;&gt;EventBus -->
<g id="edge7" class="edge">
<title>Dispatcher&#45;&gt;EventBus</title>
<path fill="none" stroke="black" d="M657,-339.67C657,-339.67 657,-272.36 657,-272.36"/>
<polygon fill="black" stroke="black" points="659.45,-272.36 657,-265.36 654.55,-272.36 659.45,-272.36"/>
<text text-anchor="middle" x="670" y="-303.8" font-family="Arial" font-size="9.00">publish copy</text>
</g>
<!-- Lifecycle -->
<g id="node12" class="node">
<title>Lifecycle</title>
<g id="a_node12"><a xlink:href="scheduler/10_scheduler.svg" xlink:title="Lifecycle">
<path fill="#ede7f6" stroke="#512da8" d="M764,-265C764,-265 732,-265 732,-265 726,-265 720,-259 720,-253 720,-253 720,-241 720,-241 720,-235 726,-229 732,-229 732,-229 764,-229 764,-229 770,-229 776,-235 776,-241 776,-241 776,-253 776,-253 776,-259 770,-265 764,-265"/>
<text text-anchor="middle" x="748" y="-244.5" font-family="Arial" font-size="10.00">Lifecycle</text>
</a>
</g>
</g>
<!-- Dispatcher&#45;&gt;Lifecycle -->
<g id="edge6" class="edge">
<title>Dispatcher&#45;&gt;Lifecycle</title>
<path fill="none" stroke="black" d="M689,-339.71C689,-309.63 689,-253 689,-253 689,-253 712.88,-253 712.88,-253"/>
<polygon fill="black" stroke="black" points="712.88,-255.45 719.88,-253 712.88,-250.55 712.88,-255.45"/>
<text text-anchor="middle" x="757" y="-303.8" font-family="Arial" font-size="9.00">handler</text>
</g>
<!-- Router -->
<g id="node23" class="node">
<title>Router</title>
<g id="a_node23"><a xlink:href="services/30_services.svg" xlink:title="Router">
<path fill="#e1f5fe" stroke="#0288d1" d="M654,-154C654,-154 624,-154 624,-154 618,-154 612,-148 612,-142 612,-142 612,-130 612,-130 612,-124 618,-118 624,-118 624,-118 654,-118 654,-118 660,-118 666,-124 666,-130 666,-130 666,-142 666,-142 666,-148 660,-154 654,-154"/>
<text text-anchor="middle" x="639" y="-133.5" font-family="Arial" font-size="10.00">Router</text>
</a>
</g>
</g>
<!-- EventBus&#45;&gt;Router -->
<g id="edge25" class="edge">
<title>EventBus&#45;&gt;Router</title>
<path fill="none" stroke="black" stroke-dasharray="5,2" d="M639,-228.67C639,-228.67 639,-161.36 639,-161.36"/>
<polygon fill="black" stroke="black" points="641.45,-161.36 639,-154.36 636.55,-161.36 641.45,-161.36"/>
<text text-anchor="middle" x="651.5" y="-192.8" font-family="Arial" font-size="9.00">future events</text>
</g>
<!-- SQLiteProd -->
<g id="node24" class="node">
<title>SQLiteProd</title>
<g id="a_node24"><a xlink:href="services/30_services.svg" xlink:title="SQLite Production">
<path fill="#e1f5fe" stroke="#0288d1" d="M100,-154C100,-154 28,-154 28,-154 22,-154 16,-148 16,-142 16,-142 16,-130 16,-130 16,-124 22,-118 28,-118 28,-118 100,-118 100,-118 106,-118 112,-124 112,-130 112,-130 112,-142 112,-142 112,-148 106,-154 100,-154"/>
<text text-anchor="middle" x="64" y="-133.5" font-family="Arial" font-size="10.00">SQLite Production</text>
</a>
</g>
</g>
<!-- EventBus&#45;&gt;SQLiteProd -->
<g id="edge26" class="edge">
<title>EventBus&#45;&gt;SQLiteProd</title>
<path fill="none" stroke="black" stroke-dasharray="5,2" d="M595.76,-257C460.88,-257 64,-257 64,-257 64,-257 64,-161.11 64,-161.11"/>
<polygon fill="black" stroke="black" points="66.45,-161.11 64,-154.11 61.55,-161.11 66.45,-161.11"/>
</g>
<!-- SQLiteMaint -->
<g id="node25" class="node">
<title>SQLiteMaint</title>
<g id="a_node25"><a xlink:href="services/30_services.svg" xlink:title="SQLite Maintenance">
<path fill="#e1f5fe" stroke="#0288d1" d="M241.5,-154C241.5,-154 160.5,-154 160.5,-154 154.5,-154 148.5,-148 148.5,-142 148.5,-142 148.5,-130 148.5,-130 148.5,-124 154.5,-118 160.5,-118 160.5,-118 241.5,-118 241.5,-118 247.5,-118 253.5,-124 253.5,-130 253.5,-130 253.5,-142 253.5,-142 253.5,-148 247.5,-154 241.5,-154"/>
<text text-anchor="middle" x="201" y="-133.5" font-family="Arial" font-size="10.00">SQLite Maintenance</text>
</a>
</g>
</g>
<!-- EventBus&#45;&gt;SQLiteMaint -->
<g id="edge27" class="edge">
<title>EventBus&#45;&gt;SQLiteMaint</title>
<path fill="none" stroke="black" stroke-dasharray="5,2" d="M595.9,-250C484.57,-250 201,-250 201,-250 201,-250 201,-161.06 201,-161.06"/>
<polygon fill="black" stroke="black" points="203.45,-161.06 201,-154.06 198.55,-161.06 203.45,-161.06"/>
</g>
<!-- Qdrant -->
<g id="node26" class="node">
<title>Qdrant</title>
<g id="a_node26"><a xlink:href="services/30_services.svg" xlink:title="Qdrant">
<path fill="#e1f5fe" stroke="#0288d1" d="M332,-154C332,-154 302,-154 302,-154 296,-154 290,-148 290,-142 290,-142 290,-130 290,-130 290,-124 296,-118 302,-118 302,-118 332,-118 332,-118 338,-118 344,-124 344,-130 344,-130 344,-142 344,-142 344,-148 338,-154 332,-154"/>
<text text-anchor="middle" x="317" y="-133.5" font-family="Arial" font-size="10.00">Qdrant</text>
</a>
</g>
</g>
<!-- EventBus&#45;&gt;Qdrant -->
<g id="edge28" class="edge">
<title>EventBus&#45;&gt;Qdrant</title>
<path fill="none" stroke="black" stroke-dasharray="5,2" d="M595.96,-243C509.96,-243 328,-243 328,-243 328,-243 328,-161.15 328,-161.15"/>
<polygon fill="black" stroke="black" points="330.45,-161.15 328,-154.15 325.55,-161.15 330.45,-161.15"/>
</g>
<!-- Cache -->
<g id="node27" class="node">
<title>Cache</title>
<g id="a_node27"><a xlink:href="services/30_services.svg" xlink:title="Cache">
<path fill="#e1f5fe" stroke="#0288d1" d="M422,-154C422,-154 392,-154 392,-154 386,-154 380,-148 380,-142 380,-142 380,-130 380,-130 380,-124 386,-118 392,-118 392,-118 422,-118 422,-118 428,-118 434,-124 434,-130 434,-130 434,-142 434,-142 434,-148 428,-154 422,-154"/>
<text text-anchor="middle" x="407" y="-133.5" font-family="Arial" font-size="10.00">Cache</text>
</a>
</g>
</g>
<!-- EventBus&#45;&gt;Cache -->
<g id="edge29" class="edge">
<title>EventBus&#45;&gt;Cache</title>
<path fill="none" stroke="black" stroke-dasharray="5,2" d="M595.98,-236C534.4,-236 430,-236 430,-236 430,-236 430,-161.34 430,-161.34"/>
<polygon fill="black" stroke="black" points="432.45,-161.34 430,-154.34 427.55,-161.34 432.45,-161.34"/>
</g>
<!-- Knowledge -->
<g id="node28" class="node">
<title>Knowledge</title>
<g id="a_node28"><a xlink:href="services/30_services.svg" xlink:title="Knowledge Manager">
<path fill="#e1f5fe" stroke="#0288d1" d="M563.5,-154C563.5,-154 482.5,-154 482.5,-154 476.5,-154 470.5,-148 470.5,-142 470.5,-142 470.5,-130 470.5,-130 470.5,-124 476.5,-118 482.5,-118 482.5,-118 563.5,-118 563.5,-118 569.5,-118 575.5,-124 575.5,-130 575.5,-130 575.5,-142 575.5,-142 575.5,-148 569.5,-154 563.5,-154"/>
<text text-anchor="middle" x="523" y="-133.5" font-family="Arial" font-size="10.00">Knowledge Manager</text>
</a>
</g>
</g>
<!-- EventBus&#45;&gt;Knowledge -->
<g id="edge30" class="edge">
<title>EventBus&#45;&gt;Knowledge</title>
<path fill="none" stroke="black" stroke-dasharray="5,2" d="M604,-228.67C604,-197.14 604,-136 604,-136 604,-136 582.67,-136 582.67,-136"/>
<polygon fill="black" stroke="black" points="582.67,-133.55 575.67,-136 582.67,-138.45 582.67,-133.55"/>
</g>
<!-- Logger -->
<g id="node36" class="node">
<title>Logger</title>
<g id="a_node36"><a xlink:href="observability/70_observability.svg" xlink:title="Logger">
<path fill="#f5f5f5" stroke="#666666" d="M834,-154C834,-154 804,-154 804,-154 798,-154 792,-148 792,-142 792,-142 792,-130 792,-130 792,-124 798,-118 804,-118 804,-118 834,-118 834,-118 840,-118 846,-124 846,-130 846,-130 846,-142 846,-142 846,-148 840,-154 834,-154"/>
<text text-anchor="middle" x="819" y="-133.5" font-family="Arial" font-size="10.00">Logger</text>
</a>
</g>
</g>
<!-- EventBus&#45;&gt;Logger -->
<g id="edge20" class="edge">
<title>EventBus&#45;&gt;Logger</title>
<path fill="none" stroke="black" stroke-dasharray="5,2" d="M672,-228.78C672,-208.63 672,-179 672,-179 672,-179 797.5,-179 797.5,-179 797.5,-179 797.5,-161.49 797.5,-161.49"/>
<polygon fill="black" stroke="black" points="799.95,-161.49 797.5,-154.49 795.05,-161.49 799.95,-161.49"/>
</g>
<!-- Metrics -->
<g id="node37" class="node">
<title>Metrics</title>
<g id="a_node37"><a xlink:href="observability/70_observability.svg" xlink:title="Metrics">
<path fill="#f5f5f5" stroke="#666666" d="M924,-154C924,-154 894,-154 894,-154 888,-154 882,-148 882,-142 882,-142 882,-130 882,-130 882,-124 888,-118 894,-118 894,-118 924,-118 924,-118 930,-118 936,-124 936,-130 936,-130 936,-142 936,-142 936,-148 930,-154 924,-154"/>
<text text-anchor="middle" x="909" y="-133.5" font-family="Arial" font-size="10.00">Metrics</text>
</a>
</g>
</g>
<!-- EventBus&#45;&gt;Metrics -->
<g id="edge21" class="edge">
<title>EventBus&#45;&gt;Metrics</title>
<path fill="none" stroke="black" stroke-dasharray="5,2" d="M678,-228.51C678,-216.86 678,-204 678,-204 678,-204 909.75,-204 909.75,-204 909.75,-204 909.75,-161.22 909.75,-161.22"/>
<polygon fill="black" stroke="black" points="912.2,-161.22 909.75,-154.22 907.3,-161.22 912.2,-161.22"/>
</g>
<!-- Replay -->
<g id="node38" class="node">
<title>Replay</title>
<g id="a_node38"><a xlink:href="observability/70_observability.svg" xlink:title="Replay">
<path fill="#f5f5f5" stroke="#666666" d="M744,-154C744,-154 714,-154 714,-154 708,-154 702,-148 702,-142 702,-142 702,-130 702,-130 702,-124 708,-118 714,-118 714,-118 744,-118 744,-118 750,-118 756,-124 756,-130 756,-130 756,-142 756,-142 756,-148 750,-154 744,-154"/>
<text text-anchor="middle" x="729" y="-133.5" font-family="Arial" font-size="10.00">Replay</text>
</a>
</g>
</g>
<!-- EventBus&#45;&gt;Replay -->
<g id="edge22" class="edge">
<title>EventBus&#45;&gt;Replay</title>
<path fill="none" stroke="black" stroke-dasharray="5,2" d="M684.16,-241C698.6,-241 711,-241 711,-241 711,-241 711,-161.29 711,-161.29"/>
<polygon fill="black" stroke="black" points="713.45,-161.29 711,-154.29 708.55,-161.29 713.45,-161.29"/>
</g>
<!-- ContextContract -->
<g id="node15" class="node">
<title>ContextContract</title>
<path fill="#eceff1" stroke="#455a64" d="M1194,-376C1194,-376 1126,-376 1126,-376 1120,-376 1114,-370 1114,-364 1114,-364 1114,-352 1114,-352 1114,-346 1120,-340 1126,-340 1126,-340 1194,-340 1194,-340 1200,-340 1206,-346 1206,-352 1206,-352 1206,-364 1206,-364 1206,-370 1200,-376 1194,-376"/>
<text text-anchor="middle" x="1160" y="-355.5" font-family="Arial" font-size="10.00">ContextSnapshot</text>
</g>
<!-- InferenceContract -->
<g id="node16" class="node">
<title>InferenceContract</title>
<path fill="#eceff1" stroke="#455a64" d="M1324,-376C1324,-376 1254,-376 1254,-376 1248,-376 1242,-370 1242,-364 1242,-364 1242,-352 1242,-352 1242,-346 1248,-340 1254,-340 1254,-340 1324,-340 1324,-340 1330,-340 1336,-346 1336,-352 1336,-352 1336,-364 1336,-364 1336,-370 1330,-376 1324,-376"/>
<text text-anchor="middle" x="1289" y="-361" font-family="Arial" font-size="10.00">InferenceRequest</text>
<text text-anchor="middle" x="1289" y="-350" font-family="Arial" font-size="10.00">InferenceResult</text>
</g>
<!-- ContextEngine&#45;&gt;Registry -->
<g id="edge10" class="edge">
<title>ContextEngine&#45;&gt;Registry</title>
<path fill="none" stroke="black" d="M1189.25,-880.9C1189.25,-869.91 1189.25,-858 1189.25,-858 1189.25,-858 776,-858 776,-858 776,-858 776,-820.22 776,-820.22"/>
<polygon fill="black" stroke="black" points="778.45,-820.22 776,-813.22 773.55,-820.22 778.45,-820.22"/>
<text text-anchor="middle" x="867" y="-844.8" font-family="Arial" font-size="9.00">all()</text>
</g>
<!-- ContextEngine&#45;&gt;Proxy -->
<g id="edge11" class="edge">
<title>ContextEngine&#45;&gt;Proxy</title>
<path fill="none" stroke="black" d="M1209.5,-880.83C1209.5,-861.91 1209.5,-835 1209.5,-835 1209.5,-835 799,-835 799,-835 799,-835 799,-716.24 799,-716.24"/>
<polygon fill="black" stroke="black" points="801.45,-716.24 799,-709.24 796.55,-716.24 801.45,-716.24"/>
<text text-anchor="middle" x="1016.5" y="-792.8" font-family="Arial" font-size="9.00">context() fast path</text>
</g>
<!-- ContextEngine&#45;&gt;ContextContract -->
<g id="edge17" class="edge">
<title>ContextEngine&#45;&gt;ContextContract</title>
<path fill="none" stroke="black" stroke-dasharray="1,5" d="M1258.67,-880.78C1258.67,-799.62 1258.67,-475 1258.67,-475 1258.67,-475 1185.25,-475 1185.25,-475 1185.25,-475 1185.25,-383.02 1185.25,-383.02"/>
<polygon fill="black" stroke="black" points="1187.7,-383.02 1185.25,-376.02 1182.8,-383.02 1187.7,-383.02"/>
</g>
<!-- Snapshot -->
<g id="node20" class="node">
<title>Snapshot</title>
<g id="a_node20"><a xlink:href="context/20_context.svg" xlink:title="GlobalContextSnapshot">
<path fill="#fff3e0" stroke="#ef6c00" d="M1238,-813C1238,-813 1142,-813 1142,-813 1136,-813 1130,-807 1130,-801 1130,-801 1130,-789 1130,-789 1130,-783 1136,-777 1142,-777 1142,-777 1238,-777 1238,-777 1244,-777 1250,-783 1250,-789 1250,-789 1250,-801 1250,-801 1250,-807 1244,-813 1238,-813"/>
<text text-anchor="middle" x="1190" y="-792.5" font-family="Arial" font-size="10.00">GlobalContextSnapshot</text>
</a>
</g>
</g>
<!-- ContextEngine&#45;&gt;Snapshot -->
<g id="edge12" class="edge">
<title>ContextEngine&#45;&gt;Snapshot</title>
<path fill="none" stroke="black" d="M1229.75,-880.88C1229.75,-880.88 1229.75,-820.26 1229.75,-820.26"/>
<polygon fill="black" stroke="black" points="1232.2,-820.26 1229.75,-813.26 1227.3,-820.26 1232.2,-820.26"/>
</g>
<!-- Collector -->
<g id="node18" class="node">
<title>Collector</title>
<g id="a_node18"><a xlink:href="context/20_context.svg" xlink:title="Collector\nfuture">
<path fill="#fff3e0" stroke="#ef6c00" d="M1121,-917C1121,-917 1089,-917 1089,-917 1083,-917 1077,-911 1077,-905 1077,-905 1077,-893 1077,-893 1077,-887 1083,-881 1089,-881 1089,-881 1121,-881 1121,-881 1127,-881 1133,-887 1133,-893 1133,-893 1133,-905 1133,-905 1133,-911 1127,-917 1121,-917"/>
<text text-anchor="middle" x="1105" y="-902" font-family="Arial" font-size="10.00">Collector</text>
<text text-anchor="middle" x="1105" y="-891" font-family="Arial" font-size="10.00">future</text>
</a>
</g>
</g>
<!-- Reducer -->
<g id="node19" class="node">
<title>Reducer</title>
<g id="a_node19"><a xlink:href="context/20_context.svg" xlink:title="Reducer\nfuture">
<path fill="#fff3e0" stroke="#ef6c00" d="M1029,-917C1029,-917 999,-917 999,-917 993,-917 987,-911 987,-905 987,-905 987,-893 987,-893 987,-887 993,-881 999,-881 999,-881 1029,-881 1029,-881 1035,-881 1041,-887 1041,-893 1041,-893 1041,-905 1041,-905 1041,-911 1035,-917 1029,-917"/>
<text text-anchor="middle" x="1014" y="-902" font-family="Arial" font-size="10.00">Reducer</text>
<text text-anchor="middle" x="1014" y="-891" font-family="Arial" font-size="10.00">future</text>
</a>
</g>
</g>
<!-- InferenceCtx -->
<g id="node21" class="node">
<title>InferenceCtx</title>
<g id="a_node21"><a xlink:href="context/20_context.svg" xlink:title="InferenceContext">
<path fill="#fff3e0" stroke="#ef6c00" d="M1231,-709C1231,-709 1163,-709 1163,-709 1157,-709 1151,-703 1151,-697 1151,-697 1151,-685 1151,-685 1151,-679 1157,-673 1163,-673 1163,-673 1231,-673 1231,-673 1237,-673 1243,-679 1243,-685 1243,-685 1243,-697 1243,-697 1243,-703 1237,-709 1231,-709"/>
<text text-anchor="middle" x="1197" y="-688.5" font-family="Arial" font-size="10.00">InferenceContext</text>
</a>
</g>
</g>
<!-- Snapshot&#45;&gt;InferenceCtx -->
<g id="edge13" class="edge">
<title>Snapshot&#45;&gt;InferenceCtx</title>
<path fill="none" stroke="black" d="M1197,-776.88C1197,-776.88 1197,-716.26 1197,-716.26"/>
<polygon fill="black" stroke="black" points="1199.45,-716.26 1197,-709.26 1194.55,-716.26 1199.45,-716.26"/>
</g>
<!-- Decision -->
<g id="node22" class="node">
<title>Decision</title>
<g id="a_node22"><a xlink:href="context/20_context.svg" xlink:title="DecisionEngine\nfuture">
<path fill="#fff3e0" stroke="#ef6c00" d="M1237.5,-598C1237.5,-598 1176.5,-598 1176.5,-598 1170.5,-598 1164.5,-592 1164.5,-586 1164.5,-586 1164.5,-574 1164.5,-574 1164.5,-568 1170.5,-562 1176.5,-562 1176.5,-562 1237.5,-562 1237.5,-562 1243.5,-562 1249.5,-568 1249.5,-574 1249.5,-574 1249.5,-586 1249.5,-586 1249.5,-592 1243.5,-598 1237.5,-598"/>
<text text-anchor="middle" x="1207" y="-583" font-family="Arial" font-size="10.00">DecisionEngine</text>
<text text-anchor="middle" x="1207" y="-572" font-family="Arial" font-size="10.00">future</text>
</a>
</g>
</g>
<!-- InferenceCtx&#45;&gt;Decision -->
<g id="edge14" class="edge">
<title>InferenceCtx&#45;&gt;Decision</title>
<path fill="none" stroke="black" stroke-dasharray="5,2" d="M1203.75,-672.67C1203.75,-672.67 1203.75,-605.36 1203.75,-605.36"/>
<polygon fill="black" stroke="black" points="1206.2,-605.36 1203.75,-598.36 1201.3,-605.36 1206.2,-605.36"/>
<text text-anchor="middle" x="1214" y="-636.8" font-family="Arial" font-size="9.00">future</text>
</g>
<!-- InferenceAdapter -->
<g id="node29" class="node">
<title>InferenceAdapter</title>
<path fill="#fffde7" stroke="#f9a825" d="M1561.5,-487C1561.5,-487 1494.5,-487 1494.5,-487 1488.5,-487 1482.5,-481 1482.5,-475 1482.5,-475 1482.5,-463 1482.5,-463 1482.5,-457 1488.5,-451 1494.5,-451 1494.5,-451 1561.5,-451 1561.5,-451 1567.5,-451 1573.5,-457 1573.5,-463 1573.5,-463 1573.5,-475 1573.5,-475 1573.5,-481 1567.5,-487 1561.5,-487"/>
<text text-anchor="middle" x="1528" y="-466.5" font-family="Arial" font-size="10.00">InferenceAdapter</text>
</g>
<!-- Decision&#45;&gt;InferenceAdapter -->
<g id="edge31" class="edge">
<title>Decision&#45;&gt;InferenceAdapter</title>
<path fill="none" stroke="black" stroke-dasharray="5,2" d="M1249.63,-580C1336.94,-580 1528,-580 1528,-580 1528,-580 1528,-494.33 1528,-494.33"/>
<polygon fill="black" stroke="black" points="1530.45,-494.33 1528,-487.33 1525.55,-494.33 1530.45,-494.33"/>
</g>
<!-- MCTS -->
<g id="node31" class="node">
<title>MCTS</title>
<path fill="#fffde7" stroke="#f9a825" d="M1434,-487C1434,-487 1372,-487 1372,-487 1366,-487 1360,-481 1360,-475 1360,-475 1360,-463 1360,-463 1360,-457 1366,-451 1372,-451 1372,-451 1434,-451 1434,-451 1440,-451 1446,-457 1446,-463 1446,-463 1446,-475 1446,-475 1446,-481 1440,-487 1434,-487"/>
<text text-anchor="middle" x="1403" y="-466.5" font-family="Arial" font-size="10.00">MCTS proposer</text>
</g>
<!-- Decision&#45;&gt;MCTS -->
<g id="edge34" class="edge">
<title>Decision&#45;&gt;MCTS</title>
<path fill="none" stroke="black" stroke-dasharray="5,2" d="M1245.75,-561.98C1245.75,-529.16 1245.75,-463 1245.75,-463 1245.75,-463 1352.61,-463 1352.61,-463"/>
<polygon fill="black" stroke="black" points="1352.61,-465.45 1359.61,-463 1352.61,-460.55 1352.61,-465.45"/>
</g>
<!-- InferenceAdapter&#45;&gt;InferenceContract -->
<g id="edge18" class="edge">
<title>InferenceAdapter&#45;&gt;InferenceContract</title>
<path fill="none" stroke="black" stroke-dasharray="1,5" d="M1482.25,-469C1469.11,-469 1458.25,-469 1458.25,-469 1458.25,-469 1458.25,-358 1458.25,-358 1458.25,-358 1343.15,-358 1343.15,-358"/>
<polygon fill="black" stroke="black" points="1343.15,-355.55 1336.15,-358 1343.15,-360.45 1343.15,-355.55"/>
</g>
<!-- OpenVINO -->
<g id="node30" class="node">
<title>OpenVINO</title>
<path fill="#fffde7" stroke="#f9a825" d="M1561.5,-376C1561.5,-376 1482.5,-376 1482.5,-376 1476.5,-376 1470.5,-370 1470.5,-364 1470.5,-364 1470.5,-352 1470.5,-352 1470.5,-346 1476.5,-340 1482.5,-340 1482.5,-340 1561.5,-340 1561.5,-340 1567.5,-340 1573.5,-346 1573.5,-352 1573.5,-352 1573.5,-364 1573.5,-364 1573.5,-370 1567.5,-376 1561.5,-376"/>
<text text-anchor="middle" x="1522" y="-355.5" font-family="Arial" font-size="10.00">OpenVINOBackend</text>
</g>
<!-- InferenceAdapter&#45;&gt;OpenVINO -->
<g id="edge32" class="edge">
<title>InferenceAdapter&#45;&gt;OpenVINO</title>
<path fill="none" stroke="black" stroke-dasharray="5,2" d="M1528,-450.67C1528,-450.67 1528,-383.36 1528,-383.36"/>
<polygon fill="black" stroke="black" points="1530.45,-383.36 1528,-376.36 1525.55,-383.36 1530.45,-383.36"/>
</g>
<!-- OpenVINO&#45;&gt;GPU -->
<g id="edge33" class="edge">
<title>OpenVINO&#45;&gt;GPU</title>
<path fill="none" stroke="black" stroke-dasharray="5,2" d="M1522,-339.67C1522,-339.67 1522,-272.36 1522,-272.36"/>
<polygon fill="black" stroke="black" points="1524.45,-272.36 1522,-265.36 1519.55,-272.36 1524.45,-272.36"/>
</g>
<!-- Validation -->
<g id="node34" class="node">
<title>Validation</title>
<g id="a_node34"><a xlink:href="validation/50_validation.svg" xlink:title="Compiler &#45;&gt; Tests &#45;&gt; Validator">
<path fill="#f3e5f5" stroke="#7b1fa2" d="M560,-487C560,-487 438,-487 438,-487 432,-487 426,-481 426,-475 426,-475 426,-463 426,-463 426,-457 432,-451 438,-451 438,-451 560,-451 560,-451 566,-451 572,-457 572,-463 572,-463 572,-475 572,-475 572,-481 566,-487 560,-487"/>
<text text-anchor="middle" x="499" y="-466.5" font-family="Arial" font-size="10.00">Compiler &#45;&gt; Tests &#45;&gt; Validator</text>
</a>
</g>
</g>
<!-- Dummy&#45;&gt;Validation -->
<g id="edge35" class="edge">
<title>Dummy&#45;&gt;Validation</title>
<path fill="none" stroke="black" stroke-dasharray="5,2" d="M516,-561.67C516,-561.67 516,-494.36 516,-494.36"/>
<polygon fill="black" stroke="black" points="518.45,-494.36 516,-487.36 513.55,-494.36 518.45,-494.36"/>
<text text-anchor="middle" x="519" y="-525.8" font-family="Arial" font-size="9.00">future</text>
</g>
<!-- ExpertsFuture -->
<g id="node33" class="node">
<title>ExpertsFuture</title>
<g id="a_node33"><a xlink:href="experts/40_experts.svg" xlink:title="Python / C / KiCad / Web\nfuture">
<path fill="#e8f5e9" stroke="#388e3c" d="M428,-598C428,-598 324,-598 324,-598 318,-598 312,-592 312,-586 312,-586 312,-574 312,-574 312,-568 318,-562 324,-562 324,-562 428,-562 428,-562 434,-562 440,-568 440,-574 440,-574 440,-586 440,-586 440,-592 434,-598 428,-598"/>
<text text-anchor="middle" x="376" y="-583" font-family="Arial" font-size="10.00">Python / C / KiCad / Web</text>
<text text-anchor="middle" x="376" y="-572" font-family="Arial" font-size="10.00">future</text>
</a>
</g>
</g>
<!-- Learning -->
<g id="node35" class="node">
<title>Learning</title>
<g id="a_node35"><a xlink:href="learning/60_learning.svg" xlink:title="Metrics / Ranking / Patterns">
<path fill="#efebe9" stroke="#6d4c41" d="M1184,-52C1184,-52 1068,-52 1068,-52 1062,-52 1056,-46 1056,-40 1056,-40 1056,-28 1056,-28 1056,-22 1062,-16 1068,-16 1068,-16 1184,-16 1184,-16 1190,-16 1196,-22 1196,-28 1196,-28 1196,-40 1196,-40 1196,-46 1190,-52 1184,-52"/>
<text text-anchor="middle" x="1126" y="-31.5" font-family="Arial" font-size="10.00">Metrics / Ranking / Patterns</text>
</a>
</g>
</g>
<!-- Metrics&#45;&gt;Learning -->
<g id="edge36" class="edge">
<title>Metrics&#45;&gt;Learning</title>
<path fill="none" stroke="black" stroke-dasharray="5,2" d="M936.08,-136C946.75,-136 956.5,-136 956.5,-136 956.5,-136 956.5,-34 956.5,-34 956.5,-34 1048.59,-34 1048.59,-34"/>
<polygon fill="black" stroke="black" points="1048.59,-36.45 1055.59,-34 1048.59,-31.55 1048.59,-36.45"/>
</g>
<!-- Dashboard -->
<g id="node39" class="node">
<title>Dashboard</title>
<g id="a_node39"><a xlink:href="observability/70_observability.svg" xlink:title="Dashboard">
<path fill="#f5f5f5" stroke="#666666" d="M929,-52C929,-52 889,-52 889,-52 883,-52 877,-46 877,-40 877,-40 877,-28 877,-28 877,-22 883,-16 889,-16 889,-16 929,-16 929,-16 935,-16 941,-22 941,-28 941,-28 941,-40 941,-40 941,-46 935,-52 929,-52"/>
<text text-anchor="middle" x="909" y="-31.5" font-family="Arial" font-size="10.00">Dashboard</text>
</a>
</g>
</g>
<!-- Metrics&#45;&gt;Dashboard -->
<g id="edge23" class="edge">
<title>Metrics&#45;&gt;Dashboard</title>
<path fill="none" stroke="black" stroke-dasharray="5,2" d="M909,-117.76C909,-117.76 909,-59.08 909,-59.08"/>
<polygon fill="black" stroke="black" points="911.45,-59.08 909,-52.08 906.55,-59.08 911.45,-59.08"/>
</g>
<!-- Watchdog -->
<g id="node40" class="node">
<title>Watchdog</title>
<g id="a_node40"><a xlink:href="observability/70_observability.svg" xlink:title="Watchdog">
<path fill="#f5f5f5" stroke="#666666" d="M1020,-154C1020,-154 984,-154 984,-154 978,-154 972,-148 972,-142 972,-142 972,-130 972,-130 972,-124 978,-118 984,-118 984,-118 1020,-118 1020,-118 1026,-118 1032,-124 1032,-130 1032,-130 1032,-142 1032,-142 1032,-148 1026,-154 1020,-154"/>
<text text-anchor="middle" x="1002" y="-133.5" font-family="Arial" font-size="10.00">Watchdog</text>
</a>
</g>
</g>
<!-- Watchdog&#45;&gt;Scheduler -->
<g id="edge24" class="edge">
<title>Watchdog&#45;&gt;Scheduler</title>
<path fill="none" stroke="black" stroke-dasharray="5,2" d="M980.75,-154.23C980.75,-237.78 980.75,-580 980.75,-580 980.75,-580 794.18,-580 794.18,-580"/>
<polygon fill="black" stroke="black" points="794.18,-577.55 787.18,-580 794.18,-582.45 794.18,-577.55"/>
</g>
</g>
</svg>
