<?xml version="1.0" encoding="UTF-8" standalone="no"?>
<!DOCTYPE svg PUBLIC "-//W3C//DTD SVG 1.1//EN"
 "http://www.w3.org/Graphics/SVG/1.1/DTD/svg11.dtd">
<!-- Generated by graphviz version 14.1.3 (20260303.0454)
 -->
<!-- Title: Global Pages: 1 -->
<svg width="3355pt" height="2217pt"
 viewBox="0.00 0.00 3355.00 2217.00" xmlns="http://www.w3.org/2000/svg" xmlns:xlink="http://www.w3.org/1999/xlink">
<g id="graph0" class="graph" transform="scale(1 1) rotate(0) translate(4 2212.5)">
<title>Global</title>
<polygon fill="white" stroke="none" points="-4,4 -4,-2212.5 3351,-2212.5 3351,4 -4,4"/>
<g id="clust1" class="cluster">
<title>cluster_L0</title>
<polygon fill="#ffebee" stroke="#c62828" points="1621,-1347.5 1621,-1442.5 2107,-1442.5 2107,-1347.5 1621,-1347.5"/>
<text xml:space="preserve" text-anchor="middle" x="1864" y="-1428.05" font-family="Arial" font-size="11.00">Layer 0 — Hardware target</text>
</g>
<g id="clust2" class="cluster">
<title>cluster_L1</title>
<polygon fill="#ede7f6" stroke="#512da8" points="679,-1243 679,-2200.5 997,-2200.5 997,-1243 679,-1243"/>
<text xml:space="preserve" text-anchor="middle" x="838" y="-2186.05" font-family="Arial" font-size="11.00">Layer 1 — MissiPy Micro&#45;Kernel Phase 2.3</text>
</g>
<g id="clust3" class="cluster">
<title>cluster_L2</title>
<polygon fill="#eceff1" stroke="#455a64" points="1268,-1108.5 1268,-1203.5 2118,-1203.5 2118,-1108.5 1268,-1108.5"/>
<text xml:space="preserve" text-anchor="middle" x="1693" y="-1189.05" font-family="Arial" font-size="11.00">Layer 2 — Contracts</text>
</g>
<g id="clust4" class="cluster">
<title>cluster_L3</title>
<polygon fill="#fff3e0" stroke="#ef6c00" points="2538,-1108.5 2538,-1846 2709,-1846 2709,-1108.5 2538,-1108.5"/>
<text xml:space="preserve" text-anchor="middle" x="2623.5" y="-1831.55" font-family="Arial" font-size="11.00">Layer 3 — Context Fabric active</text>
</g>
<g id="clust5" class="cluster">
<title>cluster_L4</title>
<polygon fill="#e1f5fe" stroke="#0288d1" points="586,-1108.5 586,-1203.5 1248,-1203.5 1248,-1108.5 586,-1108.5"/>
<text xml:space="preserve" text-anchor="middle" x="917" y="-1189.05" font-family="Arial" font-size="11.00">Layer 4 — Independent Services future</text>
</g>
<g id="clust6" class="cluster">
<title>cluster_L5</title>
<polygon fill="#fffde7" stroke="#f9a825" points="2126,-1108.5 2126,-1577 2530,-1577 2530,-1108.5 2126,-1108.5"/>
<text xml:space="preserve" text-anchor="middle" x="2328" y="-1562.55" font-family="Arial" font-size="11.00">Layer 5 — Inference Phase 2.5</text>
</g>
<g id="clust7" class="cluster">
<title>cluster_L6</title>
<polygon fill="#e8f5e9" stroke="#388e3c" points="3080,-1751 3080,-1846 3339,-1846 3339,-1751 3080,-1751"/>
<text xml:space="preserve" text-anchor="middle" x="3209.5" y="-1831.55" font-family="Arial" font-size="11.00">Layer 6 — Experts</text>
</g>
<g id="clust8" class="cluster">
<title>cluster_L7</title>
<polygon fill="#f3e5f5" stroke="#7b1fa2" points="3079,-1616.5 3079,-1711.5 3241,-1711.5 3241,-1616.5 3079,-1616.5"/>
<text xml:space="preserve" text-anchor="middle" x="3160" y="-1697.05" font-family="Arial" font-size="11.00">Layer 7 — Validation future</text>
</g>
<g id="clust9" class="cluster">
<title>cluster_L8</title>
<polygon fill="#efebe9" stroke="#6d4c41" points="8,-974 8,-1069 164,-1069 164,-974 8,-974"/>
<text xml:space="preserve" text-anchor="middle" x="86" y="-1054.55" font-family="Arial" font-size="11.00">Layer 8 — Learning future</text>
</g>
<g id="clust10" class="cluster">
<title>cluster_L9</title>
<polygon fill="#f5f5f5" stroke="#666666" points="172,-8 172,-1442.5 578,-1442.5 578,-8 172,-8"/>
<text xml:space="preserve" text-anchor="middle" x="375" y="-1428.05" font-family="Arial" font-size="11.00">Layer 9 — Observability Phase 2.4</text>
</g>
<g id="clust11" class="cluster">
<title>cluster_L10</title>
<polygon fill="#e3f2fd" stroke="#1565c0" points="196,-1885.5 196,-1980.5 496,-1980.5 496,-1885.5 196,-1885.5"/>
<text xml:space="preserve" text-anchor="middle" x="346" y="-1966.05" font-family="Arial" font-size="11.00">Layer 10 — Test Harness Phase 2.4</text>
</g>
<!-- CPU -->
<g id="node1" class="node">
<title>CPU</title>
<path fill="#ffebee" stroke="#c62828" d="M1690.88,-1391.5C1690.88,-1391.5 1641.12,-1391.5 1641.12,-1391.5 1635.12,-1391.5 1629.12,-1385.5 1629.12,-1379.5 1629.12,-1379.5 1629.12,-1367.5 1629.12,-1367.5 1629.12,-1361.5 1635.12,-1355.5 1641.12,-1355.5 1641.12,-1355.5 1690.88,-1355.5 1690.88,-1355.5 1696.88,-1355.5 1702.88,-1361.5 1702.88,-1367.5 1702.88,-1367.5 1702.88,-1379.5 1702.88,-1379.5 1702.88,-1385.5 1696.88,-1391.5 1690.88,-1391.5"/>
<text xml:space="preserve" text-anchor="middle" x="1666" y="-1376" font-family="Arial" font-size="10.00">Intel i5&#45;11400</text>
<text xml:space="preserve" text-anchor="middle" x="1666" y="-1364" font-family="Arial" font-size="10.00">CPU</text>
</g>
<!-- RAM -->
<g id="node2" class="node">
<title>RAM</title>
<path fill="#ffebee" stroke="#c62828" d="M1803.38,-1391.5C1803.38,-1391.5 1750.62,-1391.5 1750.62,-1391.5 1744.62,-1391.5 1738.62,-1385.5 1738.62,-1379.5 1738.62,-1379.5 1738.62,-1367.5 1738.62,-1367.5 1738.62,-1361.5 1744.62,-1355.5 1750.62,-1355.5 1750.62,-1355.5 1803.38,-1355.5 1803.38,-1355.5 1809.38,-1355.5 1815.38,-1361.5 1815.38,-1367.5 1815.38,-1367.5 1815.38,-1379.5 1815.38,-1379.5 1815.38,-1385.5 1809.38,-1391.5 1803.38,-1391.5"/>
<text xml:space="preserve" text-anchor="middle" x="1777" y="-1370" font-family="Arial" font-size="10.00">128GB DDR4</text>
</g>
<!-- Storage -->
<g id="node3" class="node">
<title>Storage</title>
<path fill="#ffebee" stroke="#c62828" d="M1958.75,-1391.5C1958.75,-1391.5 1863.25,-1391.5 1863.25,-1391.5 1857.25,-1391.5 1851.25,-1385.5 1851.25,-1379.5 1851.25,-1379.5 1851.25,-1367.5 1851.25,-1367.5 1851.25,-1361.5 1857.25,-1355.5 1863.25,-1355.5 1863.25,-1355.5 1958.75,-1355.5 1958.75,-1355.5 1964.75,-1355.5 1970.75,-1361.5 1970.75,-1367.5 1970.75,-1367.5 1970.75,-1379.5 1970.75,-1379.5 1970.75,-1385.5 1964.75,-1391.5 1958.75,-1391.5"/>
<text xml:space="preserve" text-anchor="middle" x="1911" y="-1376" font-family="Arial" font-size="10.00">ZFS</text>
<text xml:space="preserve" text-anchor="middle" x="1911" y="-1364" font-family="Arial" font-size="10.00">NVMe + RAIDZ2 SATA</text>
</g>
<!-- GPU -->
<g id="node4" class="node">
<title>GPU</title>
<path fill="#ffebee" stroke="#c62828" d="M2086.88,-1391.5C2086.88,-1391.5 2019.12,-1391.5 2019.12,-1391.5 2013.12,-1391.5 2007.12,-1385.5 2007.12,-1379.5 2007.12,-1379.5 2007.12,-1367.5 2007.12,-1367.5 2007.12,-1361.5 2013.12,-1355.5 2019.12,-1355.5 2019.12,-1355.5 2086.88,-1355.5 2086.88,-1355.5 2092.88,-1355.5 2098.88,-1361.5 2098.88,-1367.5 2098.88,-1367.5 2098.88,-1379.5 2098.88,-1379.5 2098.88,-1385.5 2092.88,-1391.5 2086.88,-1391.5"/>
<text xml:space="preserve" text-anchor="middle" x="2053" y="-1376" font-family="Arial" font-size="10.00">Intel iGPU</text>
<text xml:space="preserve" text-anchor="middle" x="2053" y="-1364" font-family="Arial" font-size="10.00">OpenVINO future</text>
</g>
<!-- Launcher -->
<g id="node5" class="node">
<title>Launcher</title>
<g id="a_node5"><a xlink:href="scheduler/10_scheduler.svg" xlink:title="Zoom Scheduler">
<path fill="#ede7f6" stroke="#512da8" d="M953.88,-2149.5C953.88,-2149.5 922.12,-2149.5 922.12,-2149.5 916.12,-2149.5 910.12,-2143.5 910.12,-2137.5 910.12,-2137.5 910.12,-2125.5 910.12,-2125.5 910.12,-2119.5 916.12,-2113.5 922.12,-2113.5 922.12,-2113.5 953.88,-2113.5 953.88,-2113.5 959.88,-2113.5 965.88,-2119.5 965.88,-2125.5 965.88,-2125.5 965.88,-2137.5 965.88,-2137.5 965.88,-2143.5 959.88,-2149.5 953.88,-2149.5"/>
<text xml:space="preserve" text-anchor="middle" x="938" y="-2128" font-family="Arial" font-size="10.00">Launcher</text>
</a>
</g>
</g>
<!-- Registry -->
<g id="node6" class="node">
<title>Registry</title>
<g id="a_node6"><a xlink:href="scheduler/10_scheduler.svg" xlink:title="Registry">
<path fill="#ede7f6" stroke="#512da8" d="M953,-2054.5C953,-2054.5 923,-2054.5 923,-2054.5 917,-2054.5 911,-2048.5 911,-2042.5 911,-2042.5 911,-2030.5 911,-2030.5 911,-2024.5 917,-2018.5 923,-2018.5 923,-2018.5 953,-2018.5 953,-2018.5 959,-2018.5 965,-2024.5 965,-2030.5 965,-2030.5 965,-2042.5 965,-2042.5 965,-2048.5 959,-2054.5 953,-2054.5"/>
<text xml:space="preserve" text-anchor="middle" x="938" y="-2033" font-family="Arial" font-size="10.00">Registry</text>
</a>
</g>
</g>
<!-- Launcher&#45;&gt;Registry -->
<g id="edge1" class="edge">
<title>Launcher&#45;&gt;Registry</title>
<path fill="none" stroke="black" d="M938,-2113.18C938,-2113.18 938,-2063.27 938,-2063.27"/>
<polygon fill="black" stroke="black" points="940.45,-2063.27 938,-2056.27 935.55,-2063.27 940.45,-2063.27"/>
</g>
<!-- Proxy -->
<g id="node7" class="node">
<title>Proxy</title>
<g id="a_node7"><a xlink:href="scheduler/component_proxy/14_component_proxy.svg" xlink:title="Runtime proxy">
<path fill="#ede7f6" stroke="#512da8" d="M971.88,-1929.5C971.88,-1929.5 904.12,-1929.5 904.12,-1929.5 898.12,-1929.5 892.12,-1923.5 892.12,-1917.5 892.12,-1917.5 892.12,-1905.5 892.12,-1905.5 892.12,-1899.5 898.12,-1893.5 904.12,-1893.5 904.12,-1893.5 971.88,-1893.5 971.88,-1893.5 977.88,-1893.5 983.88,-1899.5 983.88,-1905.5 983.88,-1905.5 983.88,-1917.5 983.88,-1917.5 983.88,-1923.5 977.88,-1929.5 971.88,-1929.5"/>
<text xml:space="preserve" text-anchor="middle" x="938" y="-1914" font-family="Arial" font-size="10.00">ComponentProxy</text>
<text xml:space="preserve" text-anchor="middle" x="938" y="-1902" font-family="Arial" font-size="10.00">stateful</text>
</a>
</g>
</g>
<!-- Registry&#45;&gt;Proxy -->
<g id="edge2" class="edge">
<title>Registry&#45;&gt;Proxy</title>
<path fill="none" stroke="black" d="M938,-2018.06C938,-2018.06 938,-1938.13 938,-1938.13"/>
<polygon fill="black" stroke="black" points="940.45,-1938.13 938,-1931.13 935.55,-1938.13 940.45,-1938.13"/>
</g>
<!-- Scheduler -->
<g id="node8" class="node">
<title>Scheduler</title>
<g id="a_node8"><a xlink:href="scheduler/10_scheduler.svg" xlink:title="Zoom Scheduler">
<path fill="#ede7f6" stroke="#512da8" d="M734.75,-1795C734.75,-1795 699.25,-1795 699.25,-1795 693.25,-1795 687.25,-1789 687.25,-1783 687.25,-1783 687.25,-1771 687.25,-1771 687.25,-1765 693.25,-1759 699.25,-1759 699.25,-1759 734.75,-1759 734.75,-1759 740.75,-1759 746.75,-1765 746.75,-1771 746.75,-1771 746.75,-1783 746.75,-1783 746.75,-1789 740.75,-1795 734.75,-1795"/>
<text xml:space="preserve" text-anchor="middle" x="717" y="-1773.5" font-family="Arial" font-size="10.00">Scheduler</text>
</a>
</g>
</g>
<!-- Proxy&#45;&gt;Scheduler -->
<g id="edge3" class="edge">
<title>Proxy&#45;&gt;Scheduler</title>
<path fill="none" stroke="black" d="M891.67,-1918C826.87,-1918 717,-1918 717,-1918 717,-1918 717,-1803.95 717,-1803.95"/>
<polygon fill="black" stroke="black" points="719.45,-1803.95 717,-1796.95 714.55,-1803.95 719.45,-1803.95"/>
<text xml:space="preserve" text-anchor="middle" x="768.25" y="-1855.95" font-family="Arial" font-size="9.00">emit(Event)</text>
</g>
<!-- LifecycleContract -->
<g id="node15" class="node">
<title>LifecycleContract</title>
<path fill="#eceff1" stroke="#455a64" d="M1489.75,-1152.5C1489.75,-1152.5 1424.25,-1152.5 1424.25,-1152.5 1418.25,-1152.5 1412.25,-1146.5 1412.25,-1140.5 1412.25,-1140.5 1412.25,-1128.5 1412.25,-1128.5 1412.25,-1122.5 1418.25,-1116.5 1424.25,-1116.5 1424.25,-1116.5 1489.75,-1116.5 1489.75,-1116.5 1495.75,-1116.5 1501.75,-1122.5 1501.75,-1128.5 1501.75,-1128.5 1501.75,-1140.5 1501.75,-1140.5 1501.75,-1146.5 1495.75,-1152.5 1489.75,-1152.5"/>
<text xml:space="preserve" text-anchor="middle" x="1457" y="-1131" font-family="Arial" font-size="10.00">ComponentState</text>
</g>
<!-- Proxy&#45;&gt;LifecycleContract -->
<g id="edge13" class="edge">
<title>Proxy&#45;&gt;LifecycleContract</title>
<path fill="none" stroke="black" stroke-dasharray="1,5" d="M983.98,-1903C1113.49,-1903 1471.92,-1903 1471.92,-1903 1471.92,-1903 1471.92,-1161.25 1471.92,-1161.25"/>
<polygon fill="black" stroke="black" points="1474.37,-1161.25 1471.92,-1154.25 1469.47,-1161.25 1474.37,-1161.25"/>
</g>
<!-- ComponentContract -->
<g id="node16" class="node">
<title>ComponentContract</title>
<path fill="#eceff1" stroke="#455a64" d="M1968.12,-1152.5C1968.12,-1152.5 1925.88,-1152.5 1925.88,-1152.5 1919.88,-1152.5 1913.88,-1146.5 1913.88,-1140.5 1913.88,-1140.5 1913.88,-1128.5 1913.88,-1128.5 1913.88,-1122.5 1919.88,-1116.5 1925.88,-1116.5 1925.88,-1116.5 1968.12,-1116.5 1968.12,-1116.5 1974.12,-1116.5 1980.12,-1122.5 1980.12,-1128.5 1980.12,-1128.5 1980.12,-1140.5 1980.12,-1140.5 1980.12,-1146.5 1974.12,-1152.5 1968.12,-1152.5"/>
<text xml:space="preserve" text-anchor="middle" x="1947" y="-1131" font-family="Arial" font-size="10.00">Component</text>
</g>
<!-- Proxy&#45;&gt;ComponentContract -->
<g id="edge25" class="edge">
<title>Proxy&#45;&gt;ComponentContract</title>
<path fill="none" stroke="black" stroke-dasharray="1,5" d="M984.25,-1912C1185.58,-1912 1975.44,-1912 1975.44,-1912 1975.44,-1912 1975.44,-1161.47 1975.44,-1161.47"/>
<polygon fill="black" stroke="black" points="1977.89,-1161.47 1975.44,-1154.47 1972.99,-1161.47 1977.89,-1161.47"/>
</g>
<!-- Dummy -->
<g id="node40" class="node">
<title>Dummy</title>
<g id="a_node40"><a xlink:href="experts/40_experts.svg" xlink:title="DummyExpert\ncurrent">
<path fill="#e8f5e9" stroke="#388e3c" d="M3155.5,-1795C3155.5,-1795 3100.5,-1795 3100.5,-1795 3094.5,-1795 3088.5,-1789 3088.5,-1783 3088.5,-1783 3088.5,-1771 3088.5,-1771 3088.5,-1765 3094.5,-1759 3100.5,-1759 3100.5,-1759 3155.5,-1759 3155.5,-1759 3161.5,-1759 3167.5,-1765 3167.5,-1771 3167.5,-1771 3167.5,-1783 3167.5,-1783 3167.5,-1789 3161.5,-1795 3155.5,-1795"/>
<text xml:space="preserve" text-anchor="middle" x="3128" y="-1779.5" font-family="Arial" font-size="10.00">DummyExpert</text>
<text xml:space="preserve" text-anchor="middle" x="3128" y="-1767.5" font-family="Arial" font-size="10.00">current</text>
</a>
</g>
</g>
<!-- Proxy&#45;&gt;Dummy -->
<g id="edge31" class="edge">
<title>Proxy&#45;&gt;Dummy</title>
<path fill="none" stroke="black" d="M984.25,-1921C1300.19,-1921 3128,-1921 3128,-1921 3128,-1921 3128,-1803.75 3128,-1803.75"/>
<polygon fill="black" stroke="black" points="3130.45,-1803.75 3128,-1796.75 3125.55,-1803.75 3130.45,-1803.75"/>
<text xml:space="preserve" text-anchor="middle" x="3130.62" y="-1855.95" font-family="Arial" font-size="9.00">tick/asend</text>
</g>
<!-- Policy -->
<g id="node9" class="node">
<title>Policy</title>
<g id="a_node9"><a xlink:href="scheduler/10_scheduler.svg" xlink:title="PolicyEngine\npre&#45;queue gate">
<path fill="#ede7f6" stroke="#512da8" d="M755.25,-1660.5C755.25,-1660.5 698.75,-1660.5 698.75,-1660.5 692.75,-1660.5 686.75,-1654.5 686.75,-1648.5 686.75,-1648.5 686.75,-1636.5 686.75,-1636.5 686.75,-1630.5 692.75,-1624.5 698.75,-1624.5 698.75,-1624.5 755.25,-1624.5 755.25,-1624.5 761.25,-1624.5 767.25,-1630.5 767.25,-1636.5 767.25,-1636.5 767.25,-1648.5 767.25,-1648.5 767.25,-1654.5 761.25,-1660.5 755.25,-1660.5"/>
<text xml:space="preserve" text-anchor="middle" x="727" y="-1645" font-family="Arial" font-size="10.00">PolicyEngine</text>
<text xml:space="preserve" text-anchor="middle" x="727" y="-1633" font-family="Arial" font-size="10.00">pre&#45;queue gate</text>
</a>
</g>
</g>
<!-- Scheduler&#45;&gt;Policy -->
<g id="edge4" class="edge">
<title>Scheduler&#45;&gt;Policy</title>
<path fill="none" stroke="black" d="M717,-1758.58C717,-1758.58 717,-1669.21 717,-1669.21"/>
<polygon fill="black" stroke="black" points="719.45,-1669.21 717,-1662.21 714.55,-1669.21 719.45,-1669.21"/>
<text xml:space="preserve" text-anchor="middle" x="753.5" y="-1721.45" font-family="Arial" font-size="9.00">decide(Event)</text>
</g>
<!-- EventContract -->
<g id="node14" class="node">
<title>EventContract</title>
<path fill="#eceff1" stroke="#455a64" d="M1738.12,-1152.5C1738.12,-1152.5 1671.88,-1152.5 1671.88,-1152.5 1665.88,-1152.5 1659.88,-1146.5 1659.88,-1140.5 1659.88,-1140.5 1659.88,-1128.5 1659.88,-1128.5 1659.88,-1122.5 1665.88,-1116.5 1671.88,-1116.5 1671.88,-1116.5 1738.12,-1116.5 1738.12,-1116.5 1744.12,-1116.5 1750.12,-1122.5 1750.12,-1128.5 1750.12,-1128.5 1750.12,-1140.5 1750.12,-1140.5 1750.12,-1146.5 1744.12,-1152.5 1738.12,-1152.5"/>
<text xml:space="preserve" text-anchor="middle" x="1705" y="-1137" font-family="Arial" font-size="10.00">Event + Request</text>
<text xml:space="preserve" text-anchor="middle" x="1705" y="-1125" font-family="Arial" font-size="10.00">uuid id</text>
</g>
<!-- Scheduler&#45;&gt;EventContract -->
<g id="edge22" class="edge">
<title>Scheduler&#45;&gt;EventContract</title>
<path fill="none" stroke="black" stroke-dasharray="1,5" d="M747.13,-1773C913.76,-1773 1714.79,-1773 1714.79,-1773 1714.79,-1773 1714.79,-1161.43 1714.79,-1161.43"/>
<polygon fill="black" stroke="black" points="1717.24,-1161.43 1714.79,-1154.43 1712.34,-1161.43 1717.24,-1161.43"/>
</g>
<!-- ContextEngine -->
<g id="node21" class="node">
<title>ContextEngine</title>
<g id="a_node21"><a xlink:href="context/20_context.svg" xlink:title="ContextEngine">
<path fill="#fff3e0" stroke="#ef6c00" d="M2614.25,-1795C2614.25,-1795 2557.75,-1795 2557.75,-1795 2551.75,-1795 2545.75,-1789 2545.75,-1783 2545.75,-1783 2545.75,-1771 2545.75,-1771 2545.75,-1765 2551.75,-1759 2557.75,-1759 2557.75,-1759 2614.25,-1759 2614.25,-1759 2620.25,-1759 2626.25,-1765 2626.25,-1771 2626.25,-1771 2626.25,-1783 2626.25,-1783 2626.25,-1789 2620.25,-1795 2614.25,-1795"/>
<text xml:space="preserve" text-anchor="middle" x="2586" y="-1773.5" font-family="Arial" font-size="10.00">ContextEngine</text>
</a>
</g>
</g>
<!-- Scheduler&#45;&gt;ContextEngine -->
<g id="edge14" class="edge">
<title>Scheduler&#45;&gt;ContextEngine</title>
<path fill="none" stroke="black" d="M747.11,-1788C747.11,-1788 2536.97,-1788 2536.97,-1788"/>
<polygon fill="black" stroke="black" points="2536.97,-1790.45 2543.97,-1788 2536.97,-1785.55 2536.97,-1790.45"/>
<text xml:space="preserve" text-anchor="middle" x="876" y="-1855.95" font-family="Arial" font-size="9.00">clock tick</text>
</g>
<!-- KernelTelemetry -->
<g id="node45" class="node">
<title>KernelTelemetry</title>
<g id="a_node45"><a xlink:href="observability/70_observability.svg" xlink:title="KernelTelemetry&#10;current">
<path fill="#f5f5f5" stroke="#666666" d="M372.25,-1391.5C372.25,-1391.5 309.75,-1391.5 309.75,-1391.5 303.75,-1391.5 297.75,-1385.5 297.75,-1379.5 297.75,-1379.5 297.75,-1367.5 297.75,-1367.5 297.75,-1361.5 303.75,-1355.5 309.75,-1355.5 309.75,-1355.5 372.25,-1355.5 372.25,-1355.5 378.25,-1355.5 384.25,-1361.5 384.25,-1367.5 384.25,-1367.5 384.25,-1379.5 384.25,-1379.5 384.25,-1385.5 378.25,-1391.5 372.25,-1391.5"/>
<text xml:space="preserve" text-anchor="middle" x="341" y="-1376" font-family="Arial" font-size="10.00">KernelTelemetry</text>
<text xml:space="preserve" text-anchor="middle" x="341" y="-1364" font-family="Arial" font-size="10.00">current</text>
</a>
</g>
</g>
<!-- Scheduler&#45;&gt;KernelTelemetry -->
<g id="edge42" class="edge">
<title>Scheduler&#45;&gt;KernelTelemetry</title>
<path fill="none" stroke="black" stroke-dasharray="5,2" d="M687.02,-1773C595.62,-1773 326.69,-1773 326.69,-1773 326.69,-1773 326.69,-1400.48 326.69,-1400.48"/>
<polygon fill="black" stroke="black" points="329.14,-1400.48 326.69,-1393.48 324.24,-1400.48 329.14,-1400.48"/>
<text xml:space="preserve" text-anchor="middle" x="423.75" y="-1586.95" font-family="Arial" font-size="9.00">measure enqueue/dequeue/latency</text>
</g>
<!-- Policy&#45;&gt;Proxy -->
<g id="edge7" class="edge">
<title>Policy&#45;&gt;Proxy</title>
<path fill="none" stroke="black" stroke-dasharray="5,2" d="M757,-1660.61C757,-1720.14 757,-1906 757,-1906 757,-1906 883.34,-1906 883.34,-1906"/>
<polygon fill="black" stroke="black" points="883.34,-1908.45 890.34,-1906 883.34,-1903.55 883.34,-1908.45"/>
<text xml:space="preserve" text-anchor="middle" x="857.62" y="-1773.7" font-family="Arial" font-size="9.00">denied &#45;&gt; Decision</text>
</g>
<!-- Queue -->
<g id="node10" class="node">
<title>Queue</title>
<g id="a_node10"><a xlink:href="scheduler/priority_queue/13_priority_queue.svg" xlink:title="PriorityQueue\nFIFO same priority">
<path fill="#ede7f6" stroke="#512da8" d="M814.88,-1526C814.88,-1526 741.12,-1526 741.12,-1526 735.12,-1526 729.12,-1520 729.12,-1514 729.12,-1514 729.12,-1502 729.12,-1502 729.12,-1496 735.12,-1490 741.12,-1490 741.12,-1490 814.88,-1490 814.88,-1490 820.88,-1490 826.88,-1496 826.88,-1502 826.88,-1502 826.88,-1514 826.88,-1514 826.88,-1520 820.88,-1526 814.88,-1526"/>
<text xml:space="preserve" text-anchor="middle" x="778" y="-1510.5" font-family="Arial" font-size="10.00">PriorityQueue</text>
<text xml:space="preserve" text-anchor="middle" x="778" y="-1498.5" font-family="Arial" font-size="10.00">FIFO same priority</text>
</a>
</g>
</g>
<!-- Policy&#45;&gt;Queue -->
<g id="edge5" class="edge">
<title>Policy&#45;&gt;Queue</title>
<path fill="none" stroke="black" d="M748.19,-1624.08C748.19,-1624.08 748.19,-1534.71 748.19,-1534.71"/>
<polygon fill="black" stroke="black" points="750.64,-1534.71 748.19,-1527.71 745.74,-1534.71 750.64,-1534.71"/>
<text xml:space="preserve" text-anchor="middle" x="794.88" y="-1586.95" font-family="Arial" font-size="9.00">allowed &#45;&gt; put(priority, event)</text>
</g>
<!-- EventBus -->
<g id="node12" class="node">
<title>EventBus</title>
<g id="a_node12"><a xlink:href="scheduler/event_bus/12_event_bus.svg" xlink:title="EventBus\nobservation only">
<path fill="#ede7f6" stroke="#512da8" d="M782.62,-1287C782.62,-1287 719.38,-1287 719.38,-1287 713.38,-1287 707.38,-1281 707.38,-1275 707.38,-1275 707.38,-1263 707.38,-1263 707.38,-1257 713.38,-1251 719.38,-1251 719.38,-1251 782.62,-1251 782.62,-1251 788.62,-1251 794.62,-1257 794.62,-1263 794.62,-1263 794.62,-1275 794.62,-1275 794.62,-1281 788.62,-1287 782.62,-1287"/>
<text xml:space="preserve" text-anchor="middle" x="751" y="-1271.5" font-family="Arial" font-size="10.00">EventBus</text>
<text xml:space="preserve" text-anchor="middle" x="751" y="-1259.5" font-family="Arial" font-size="10.00">observation only</text>
</a>
</g>
</g>
<!-- Policy&#45;&gt;EventBus -->
<g id="edge6" class="edge">
<title>Policy&#45;&gt;EventBus</title>
<path fill="none" stroke="black" stroke-dasharray="5,2" d="M714.62,-1624.23C714.62,-1624.23 714.62,-1295.75 714.62,-1295.75"/>
<polygon fill="black" stroke="black" points="717.08,-1295.75 714.63,-1288.75 712.18,-1295.75 717.08,-1295.75"/>
<text xml:space="preserve" text-anchor="middle" x="780" y="-1452.45" font-family="Arial" font-size="9.00">denied &#45;&gt; POLICY_DENIED</text>
</g>
<!-- PolicyContract -->
<g id="node19" class="node">
<title>PolicyContract</title>
<path fill="#eceff1" stroke="#455a64" d="M1612.25,-1152.5C1612.25,-1152.5 1549.75,-1152.5 1549.75,-1152.5 1543.75,-1152.5 1537.75,-1146.5 1537.75,-1140.5 1537.75,-1140.5 1537.75,-1128.5 1537.75,-1128.5 1537.75,-1122.5 1543.75,-1116.5 1549.75,-1116.5 1549.75,-1116.5 1612.25,-1116.5 1612.25,-1116.5 1618.25,-1116.5 1624.25,-1122.5 1624.25,-1128.5 1624.25,-1128.5 1624.25,-1140.5 1624.25,-1140.5 1624.25,-1146.5 1618.25,-1152.5 1612.25,-1152.5"/>
<text xml:space="preserve" text-anchor="middle" x="1581" y="-1137" font-family="Arial" font-size="10.00">Decision</text>
<text xml:space="preserve" text-anchor="middle" x="1581" y="-1125" font-family="Arial" font-size="10.00">allowed / denied</text>
</g>
<!-- Policy&#45;&gt;PolicyContract -->
<g id="edge23" class="edge">
<title>Policy&#45;&gt;PolicyContract</title>
<path fill="none" stroke="black" stroke-dasharray="1,5" d="M767.62,-1634C937.33,-1634 1581,-1634 1581,-1634 1581,-1634 1581,-1161.38 1581,-1161.38"/>
<polygon fill="black" stroke="black" points="1583.45,-1161.38 1581,-1154.38 1578.55,-1161.38 1583.45,-1161.38"/>
</g>
<!-- Policy&#45;&gt;KernelTelemetry -->
<g id="edge43" class="edge">
<title>Policy&#45;&gt;KernelTelemetry</title>
<path fill="none" stroke="black" stroke-dasharray="5,2" d="M686.53,-1637C592.09,-1637 365.06,-1637 365.06,-1637 365.06,-1637 365.06,-1400.12 365.06,-1400.12"/>
<polygon fill="black" stroke="black" points="367.51,-1400.12 365.06,-1393.12 362.61,-1400.12 367.51,-1400.12"/>
<text xml:space="preserve" text-anchor="middle" x="497.62" y="-1504.7" font-family="Arial" font-size="9.00">denied count</text>
</g>
<!-- Dispatcher -->
<g id="node11" class="node">
<title>Dispatcher</title>
<g id="a_node11"><a xlink:href="scheduler/dispatcher/11_dispatcher.svg" xlink:title="Dispatcher\nno handler = no block">
<path fill="#ede7f6" stroke="#512da8" d="M976.88,-1391.5C976.88,-1391.5 891.12,-1391.5 891.12,-1391.5 885.12,-1391.5 879.12,-1385.5 879.12,-1379.5 879.12,-1379.5 879.12,-1367.5 879.12,-1367.5 879.12,-1361.5 885.12,-1355.5 891.12,-1355.5 891.12,-1355.5 976.88,-1355.5 976.88,-1355.5 982.88,-1355.5 988.88,-1361.5 988.88,-1367.5 988.88,-1367.5 988.88,-1379.5 988.88,-1379.5 988.88,-1385.5 982.88,-1391.5 976.88,-1391.5"/>
<text xml:space="preserve" text-anchor="middle" x="934" y="-1376" font-family="Arial" font-size="10.00">Dispatcher</text>
<text xml:space="preserve" text-anchor="middle" x="934" y="-1364" font-family="Arial" font-size="10.00">no handler = no block</text>
</a>
</g>
</g>
<!-- Queue&#45;&gt;Dispatcher -->
<g id="edge8" class="edge">
<title>Queue&#45;&gt;Dispatcher</title>
<path fill="none" stroke="black" d="M819.46,-1489.65C819.46,-1452.95 819.46,-1374 819.46,-1374 819.46,-1374 870.23,-1374 870.23,-1374"/>
<polygon fill="black" stroke="black" points="870.23,-1376.45 877.23,-1374 870.23,-1371.55 870.23,-1376.45"/>
<text xml:space="preserve" text-anchor="middle" x="930.12" y="-1452.45" font-family="Arial" font-size="9.00">get(), FIFO if same priority</text>
</g>
<!-- Dispatcher&#45;&gt;Proxy -->
<g id="edge11" class="edge">
<title>Dispatcher&#45;&gt;Proxy</title>
<path fill="none" stroke="black" stroke-dasharray="5,2" d="M910.47,-1391.71C910.47,-1391.71 910.47,-1884.51 910.47,-1884.51"/>
<polygon fill="black" stroke="black" points="908.03,-1884.51 910.48,-1891.51 912.93,-1884.51 908.03,-1884.51"/>
<text xml:space="preserve" text-anchor="middle" x="884.5" y="-1639.2" font-family="Arial" font-size="9.00">Request.reply</text>
</g>
<!-- Dispatcher&#45;&gt;EventBus -->
<g id="edge10" class="edge">
<title>Dispatcher&#45;&gt;EventBus</title>
<path fill="none" stroke="black" d="M886.94,-1355.43C886.94,-1327 886.94,-1275 886.94,-1275 886.94,-1275 803.27,-1275 803.27,-1275"/>
<polygon fill="black" stroke="black" points="803.27,-1272.55 796.27,-1275 803.27,-1277.45 803.27,-1272.55"/>
<text xml:space="preserve" text-anchor="middle" x="830.88" y="-1317.95" font-family="Arial" font-size="9.00">publish copy</text>
</g>
<!-- Lifecycle -->
<g id="node13" class="node">
<title>Lifecycle</title>
<g id="a_node13"><a xlink:href="scheduler/10_scheduler.svg" xlink:title="LifecycleManager\nComponentState">
<path fill="#ede7f6" stroke="#512da8" d="M975.25,-1287C975.25,-1287 906.75,-1287 906.75,-1287 900.75,-1287 894.75,-1281 894.75,-1275 894.75,-1275 894.75,-1263 894.75,-1263 894.75,-1257 900.75,-1251 906.75,-1251 906.75,-1251 975.25,-1251 975.25,-1251 981.25,-1251 987.25,-1257 987.25,-1263 987.25,-1263 987.25,-1275 987.25,-1275 987.25,-1281 981.25,-1287 975.25,-1287"/>
<text xml:space="preserve" text-anchor="middle" x="941" y="-1271.5" font-family="Arial" font-size="10.00">LifecycleManager</text>
<text xml:space="preserve" text-anchor="middle" x="941" y="-1259.5" font-family="Arial" font-size="10.00">ComponentState</text>
</a>
</g>
</g>
<!-- Dispatcher&#45;&gt;Lifecycle -->
<g id="edge9" class="edge">
<title>Dispatcher&#45;&gt;Lifecycle</title>
<path fill="none" stroke="black" d="M941,-1355.3C941,-1355.3 941,-1295.86 941,-1295.86"/>
<polygon fill="black" stroke="black" points="943.45,-1295.86 941,-1288.86 938.55,-1295.86 943.45,-1295.86"/>
<text xml:space="preserve" text-anchor="middle" x="952.75" y="-1317.95" font-family="Arial" font-size="9.00">handler</text>
</g>
<!-- Collector -->
<g id="node22" class="node">
<title>Collector</title>
<g id="a_node22"><a xlink:href="context/20_context.svg" xlink:title="ContextCollector">
<path fill="#fff3e0" stroke="#ef6c00" d="M2623.75,-1660.5C2623.75,-1660.5 2558.25,-1660.5 2558.25,-1660.5 2552.25,-1660.5 2546.25,-1654.5 2546.25,-1648.5 2546.25,-1648.5 2546.25,-1636.5 2546.25,-1636.5 2546.25,-1630.5 2552.25,-1624.5 2558.25,-1624.5 2558.25,-1624.5 2623.75,-1624.5 2623.75,-1624.5 2629.75,-1624.5 2635.75,-1630.5 2635.75,-1636.5 2635.75,-1636.5 2635.75,-1648.5 2635.75,-1648.5 2635.75,-1654.5 2629.75,-1660.5 2623.75,-1660.5"/>
<text xml:space="preserve" text-anchor="middle" x="2591" y="-1639" font-family="Arial" font-size="10.00">ContextCollector</text>
</a>
</g>
</g>
<!-- Dispatcher&#45;&gt;Collector -->
<g id="edge17" class="edge">
<title>Dispatcher&#45;&gt;Collector</title>
<path fill="none" stroke="black" stroke-dasharray="5,2" d="M928.83,-1391.6C928.83,-1452.03 928.83,-1643 928.83,-1643 928.83,-1643 2537.6,-1643 2537.6,-1643"/>
<polygon fill="black" stroke="black" points="2537.6,-1645.45 2544.6,-1643 2537.6,-1640.55 2537.6,-1645.45"/>
<text xml:space="preserve" text-anchor="middle" x="1335.5" y="-1504.7" font-family="Arial" font-size="9.00">Request.reply</text>
</g>
<!-- InferenceHandler -->
<g id="node33" class="node">
<title>InferenceHandler</title>
<g id="a_node33"><a xlink:href="inference/40_inference.svg" xlink:title="InferenceRequestHandler">
<path fill="#fffde7" stroke="#f9a825" d="M2249.5,-1526C2249.5,-1526 2146.5,-1526 2146.5,-1526 2140.5,-1526 2134.5,-1520 2134.5,-1514 2134.5,-1514 2134.5,-1502 2134.5,-1502 2134.5,-1496 2140.5,-1490 2146.5,-1490 2146.5,-1490 2249.5,-1490 2249.5,-1490 2255.5,-1490 2261.5,-1496 2261.5,-1502 2261.5,-1502 2261.5,-1514 2261.5,-1514 2261.5,-1520 2255.5,-1526 2249.5,-1526"/>
<text xml:space="preserve" text-anchor="middle" x="2198" y="-1504.5" font-family="Arial" font-size="10.00">InferenceRequestHandler</text>
</a>
</g>
</g>
<!-- Dispatcher&#45;&gt;InferenceHandler -->
<g id="edge32" class="edge">
<title>Dispatcher&#45;&gt;InferenceHandler</title>
<path fill="none" stroke="black" d="M965.53,-1391.92C965.53,-1428.76 965.53,-1508 965.53,-1508 965.53,-1508 2125.82,-1508 2125.82,-1508"/>
<polygon fill="black" stroke="black" points="2125.82,-1510.45 2132.82,-1508 2125.82,-1505.55 2125.82,-1510.45"/>
<text xml:space="preserve" text-anchor="middle" x="1462.62" y="-1452.45" font-family="Arial" font-size="9.00">INFERENCE_REQUEST</text>
</g>
<!-- Router -->
<g id="node27" class="node">
<title>Router</title>
<g id="a_node27"><a xlink:href="services/30_services.svg" xlink:title="Router">
<path fill="#e1f5fe" stroke="#0288d1" d="M636,-1152.5C636,-1152.5 606,-1152.5 606,-1152.5 600,-1152.5 594,-1146.5 594,-1140.5 594,-1140.5 594,-1128.5 594,-1128.5 594,-1122.5 600,-1116.5 606,-1116.5 606,-1116.5 636,-1116.5 636,-1116.5 642,-1116.5 648,-1122.5 648,-1128.5 648,-1128.5 648,-1140.5 648,-1140.5 648,-1146.5 642,-1152.5 636,-1152.5"/>
<text xml:space="preserve" text-anchor="middle" x="621" y="-1131" font-family="Arial" font-size="10.00">Router</text>
</a>
</g>
</g>
<!-- EventBus&#45;&gt;Router -->
<g id="edge89" class="edge">
<title>EventBus&#45;&gt;Router</title>
<path fill="none" stroke="black" stroke-dasharray="5,2" d="M706.99,-1260C669.27,-1260 621,-1260 621,-1260 621,-1260 621,-1161.26 621,-1161.26"/>
<polygon fill="black" stroke="black" points="623.45,-1161.26 621,-1154.26 618.55,-1161.26 623.45,-1161.26"/>
<text xml:space="preserve" text-anchor="middle" x="653.25" y="-1213.45" font-family="Arial" font-size="9.00">future events</text>
</g>
<!-- SQLiteProd -->
<g id="node28" class="node">
<title>SQLiteProd</title>
<g id="a_node28"><a xlink:href="services/30_services.svg" xlink:title="SQLite Production">
<path fill="#e1f5fe" stroke="#0288d1" d="M767.75,-1152.5C767.75,-1152.5 696.25,-1152.5 696.25,-1152.5 690.25,-1152.5 684.25,-1146.5 684.25,-1140.5 684.25,-1140.5 684.25,-1128.5 684.25,-1128.5 684.25,-1122.5 690.25,-1116.5 696.25,-1116.5 696.25,-1116.5 767.75,-1116.5 767.75,-1116.5 773.75,-1116.5 779.75,-1122.5 779.75,-1128.5 779.75,-1128.5 779.75,-1140.5 779.75,-1140.5 779.75,-1146.5 773.75,-1152.5 767.75,-1152.5"/>
<text xml:space="preserve" text-anchor="middle" x="732" y="-1131" font-family="Arial" font-size="10.00">SQLite Production</text>
</a>
</g>
</g>
<!-- EventBus&#45;&gt;SQLiteProd -->
<g id="edge90" class="edge">
<title>EventBus&#45;&gt;SQLiteProd</title>
<path fill="none" stroke="black" stroke-dasharray="5,2" d="M743.56,-1250.58C743.56,-1250.58 743.56,-1161.21 743.56,-1161.21"/>
<polygon fill="black" stroke="black" points="746.01,-1161.21 743.56,-1154.21 741.11,-1161.21 746.01,-1161.21"/>
</g>
<!-- SQLiteMaint -->
<g id="node29" class="node">
<title>SQLiteMaint</title>
<g id="a_node29"><a xlink:href="services/30_services.svg" xlink:title="SQLite Maintenance">
<path fill="#e1f5fe" stroke="#0288d1" d="M908.25,-1152.5C908.25,-1152.5 827.75,-1152.5 827.75,-1152.5 821.75,-1152.5 815.75,-1146.5 815.75,-1140.5 815.75,-1140.5 815.75,-1128.5 815.75,-1128.5 815.75,-1122.5 821.75,-1116.5 827.75,-1116.5 827.75,-1116.5 908.25,-1116.5 908.25,-1116.5 914.25,-1116.5 920.25,-1122.5 920.25,-1128.5 920.25,-1128.5 920.25,-1140.5 920.25,-1140.5 920.25,-1146.5 914.25,-1152.5 908.25,-1152.5"/>
<text xml:space="preserve" text-anchor="middle" x="868" y="-1131" font-family="Arial" font-size="10.00">SQLite Maintenance</text>
</a>
</g>
</g>
<!-- EventBus&#45;&gt;SQLiteMaint -->
<g id="edge91" class="edge">
<title>EventBus&#45;&gt;SQLiteMaint</title>
<path fill="none" stroke="black" stroke-dasharray="5,2" d="M795.06,-1263C810.08,-1263 823.17,-1263 823.17,-1263 823.17,-1263 823.17,-1161.42 823.17,-1161.42"/>
<polygon fill="black" stroke="black" points="825.62,-1161.42 823.17,-1154.42 820.72,-1161.42 825.62,-1161.42"/>
</g>
<!-- Qdrant -->
<g id="node30" class="node">
<title>Qdrant</title>
<g id="a_node30"><a xlink:href="services/30_services.svg" xlink:title="Qdrant">
<path fill="#e1f5fe" stroke="#0288d1" d="M998,-1152.5C998,-1152.5 968,-1152.5 968,-1152.5 962,-1152.5 956,-1146.5 956,-1140.5 956,-1140.5 956,-1128.5 956,-1128.5 956,-1122.5 962,-1116.5 968,-1116.5 968,-1116.5 998,-1116.5 998,-1116.5 1004,-1116.5 1010,-1122.5 1010,-1128.5 1010,-1128.5 1010,-1140.5 1010,-1140.5 1010,-1146.5 1004,-1152.5 998,-1152.5"/>
<text xml:space="preserve" text-anchor="middle" x="983" y="-1131" font-family="Arial" font-size="10.00">Qdrant</text>
</a>
</g>
</g>
<!-- EventBus&#45;&gt;Qdrant -->
<g id="edge92" class="edge">
<title>EventBus&#45;&gt;Qdrant</title>
<path fill="none" stroke="black" stroke-dasharray="5,2" d="M783.47,-1250.76C783.47,-1222.66 783.47,-1172 783.47,-1172 783.47,-1172 971.62,-1172 971.62,-1172 971.62,-1172 971.62,-1161.32 971.62,-1161.32"/>
<polygon fill="black" stroke="black" points="974.08,-1161.32 971.63,-1154.32 969.18,-1161.32 974.08,-1161.32"/>
</g>
<!-- Cache -->
<g id="node31" class="node">
<title>Cache</title>
<g id="a_node31"><a xlink:href="services/30_services.svg" xlink:title="Cache">
<path fill="#e1f5fe" stroke="#0288d1" d="M1088,-1152.5C1088,-1152.5 1058,-1152.5 1058,-1152.5 1052,-1152.5 1046,-1146.5 1046,-1140.5 1046,-1140.5 1046,-1128.5 1046,-1128.5 1046,-1122.5 1052,-1116.5 1058,-1116.5 1058,-1116.5 1088,-1116.5 1088,-1116.5 1094,-1116.5 1100,-1122.5 1100,-1128.5 1100,-1128.5 1100,-1140.5 1100,-1140.5 1100,-1146.5 1094,-1152.5 1088,-1152.5"/>
<text xml:space="preserve" text-anchor="middle" x="1073" y="-1131" font-family="Arial" font-size="10.00">Cache</text>
</a>
</g>
</g>
<!-- EventBus&#45;&gt;Cache -->
<g id="edge93" class="edge">
<title>EventBus&#45;&gt;Cache</title>
<path fill="none" stroke="black" stroke-dasharray="5,2" d="M787.19,-1250.75C787.19,-1227.98 787.19,-1192 787.19,-1192 787.19,-1192 1073,-1192 1073,-1192 1073,-1192 1073,-1161.21 1073,-1161.21"/>
<polygon fill="black" stroke="black" points="1075.45,-1161.21 1073,-1154.21 1070.55,-1161.21 1075.45,-1161.21"/>
</g>
<!-- Knowledge -->
<g id="node32" class="node">
<title>Knowledge</title>
<g id="a_node32"><a xlink:href="services/30_services.svg" xlink:title="Knowledge Manager">
<path fill="#e1f5fe" stroke="#0288d1" d="M1228.25,-1152.5C1228.25,-1152.5 1147.75,-1152.5 1147.75,-1152.5 1141.75,-1152.5 1135.75,-1146.5 1135.75,-1140.5 1135.75,-1140.5 1135.75,-1128.5 1135.75,-1128.5 1135.75,-1122.5 1141.75,-1116.5 1147.75,-1116.5 1147.75,-1116.5 1228.25,-1116.5 1228.25,-1116.5 1234.25,-1116.5 1240.25,-1122.5 1240.25,-1128.5 1240.25,-1128.5 1240.25,-1140.5 1240.25,-1140.5 1240.25,-1146.5 1234.25,-1152.5 1228.25,-1152.5"/>
<text xml:space="preserve" text-anchor="middle" x="1188" y="-1131" font-family="Arial" font-size="10.00">Knowledge Manager</text>
</a>
</g>
</g>
<!-- EventBus&#45;&gt;Knowledge -->
<g id="edge94" class="edge">
<title>EventBus&#45;&gt;Knowledge</title>
<path fill="none" stroke="black" stroke-dasharray="5,2" d="M790.91,-1250.89C790.91,-1241.1 790.91,-1231 790.91,-1231 790.91,-1231 1188,-1231 1188,-1231 1188,-1231 1188,-1161.16 1188,-1161.16"/>
<polygon fill="black" stroke="black" points="1190.45,-1161.16 1188,-1154.16 1185.55,-1161.16 1190.45,-1161.16"/>
</g>
<!-- Logger -->
<g id="node44" class="node">
<title>Logger</title>
<g id="a_node44"><a xlink:href="observability/70_observability.svg" xlink:title="Logger">
<path fill="#f5f5f5" stroke="#666666" d="M462,-1391.5C462,-1391.5 432,-1391.5 432,-1391.5 426,-1391.5 420,-1385.5 420,-1379.5 420,-1379.5 420,-1367.5 420,-1367.5 420,-1361.5 426,-1355.5 432,-1355.5 432,-1355.5 462,-1355.5 462,-1355.5 468,-1355.5 474,-1361.5 474,-1367.5 474,-1367.5 474,-1379.5 474,-1379.5 474,-1385.5 468,-1391.5 462,-1391.5"/>
<text xml:space="preserve" text-anchor="middle" x="447" y="-1370" font-family="Arial" font-size="10.00">Logger</text>
</a>
</g>
</g>
<!-- EventBus&#45;&gt;Logger -->
<g id="edge47" class="edge">
<title>EventBus&#45;&gt;Logger</title>
<path fill="none" stroke="black" stroke-dasharray="5,2" d="M707.09,-1278C623.83,-1278 451.25,-1278 451.25,-1278 451.25,-1278 451.25,-1346.57 451.25,-1346.57"/>
<polygon fill="black" stroke="black" points="448.8,-1346.57 451.25,-1353.57 453.7,-1346.57 448.8,-1346.57"/>
</g>
<!-- EventRecorder -->
<g id="node47" class="node">
<title>EventRecorder</title>
<g id="a_node47"><a xlink:href="observability/70_observability.svg" xlink:title="EventRecorder&#10;current">
<path fill="#f5f5f5" stroke="#666666" d="M249.62,-1391.5C249.62,-1391.5 192.38,-1391.5 192.38,-1391.5 186.38,-1391.5 180.38,-1385.5 180.38,-1379.5 180.38,-1379.5 180.38,-1367.5 180.38,-1367.5 180.38,-1361.5 186.38,-1355.5 192.38,-1355.5 192.38,-1355.5 249.62,-1355.5 249.62,-1355.5 255.62,-1355.5 261.62,-1361.5 261.62,-1367.5 261.62,-1367.5 261.62,-1379.5 261.62,-1379.5 261.62,-1385.5 255.62,-1391.5 249.62,-1391.5"/>
<text xml:space="preserve" text-anchor="middle" x="221" y="-1376" font-family="Arial" font-size="10.00">EventRecorder</text>
<text xml:space="preserve" text-anchor="middle" x="221" y="-1364" font-family="Arial" font-size="10.00">current</text>
</a>
</g>
</g>
<!-- EventBus&#45;&gt;EventRecorder -->
<g id="edge49" class="edge">
<title>EventBus&#45;&gt;EventRecorder</title>
<path fill="none" stroke="black" stroke-dasharray="5,2" d="M721.88,-1287.24C721.88,-1294.43 721.88,-1301 721.88,-1301 721.88,-1301 234.54,-1301 234.54,-1301 234.54,-1301 234.54,-1346.69 234.54,-1346.69"/>
<polygon fill="black" stroke="black" points="232.09,-1346.69 234.54,-1353.69 236.99,-1346.69 232.09,-1346.69"/>
<text xml:space="preserve" text-anchor="middle" x="527" y="-1317.95" font-family="Arial" font-size="9.00">record copy</text>
</g>
<!-- Metrics -->
<g id="node62" class="node">
<title>Metrics</title>
<g id="a_node62"><a xlink:href="observability/70_observability.svg" xlink:title="Metrics">
<path fill="#f5f5f5" stroke="#666666" d="M379,-1152.5C379,-1152.5 349,-1152.5 349,-1152.5 343,-1152.5 337,-1146.5 337,-1140.5 337,-1140.5 337,-1128.5 337,-1128.5 337,-1122.5 343,-1116.5 349,-1116.5 349,-1116.5 379,-1116.5 379,-1116.5 385,-1116.5 391,-1122.5 391,-1128.5 391,-1128.5 391,-1140.5 391,-1140.5 391,-1146.5 385,-1152.5 379,-1152.5"/>
<text xml:space="preserve" text-anchor="middle" x="364" y="-1131" font-family="Arial" font-size="10.00">Metrics</text>
</a>
</g>
</g>
<!-- EventBus&#45;&gt;Metrics -->
<g id="edge48" class="edge">
<title>EventBus&#45;&gt;Metrics</title>
<path fill="none" stroke="black" stroke-dasharray="5,2" d="M706.93,-1269C629.83,-1269 478.58,-1269 478.58,-1269 478.58,-1269 478.58,-1135 478.58,-1135 478.58,-1135 399.96,-1135 399.96,-1135"/>
<polygon fill="black" stroke="black" points="399.96,-1132.55 392.96,-1135 399.96,-1137.45 399.96,-1132.55"/>
</g>
<!-- Lifecycle&#45;&gt;LifecycleContract -->
<g id="edge12" class="edge">
<title>Lifecycle&#45;&gt;LifecycleContract</title>
<path fill="none" stroke="black" stroke-dasharray="1,5" d="M987.69,-1269C1112.08,-1269 1442.08,-1269 1442.08,-1269 1442.08,-1269 1442.08,-1161.43 1442.08,-1161.43"/>
<polygon fill="black" stroke="black" points="1444.53,-1161.43 1442.08,-1154.43 1439.63,-1161.43 1444.53,-1161.43"/>
</g>
<!-- ContextContract -->
<g id="node17" class="node">
<title>ContextContract</title>
<path fill="#eceff1" stroke="#455a64" d="M1865.88,-1152.5C1865.88,-1152.5 1798.12,-1152.5 1798.12,-1152.5 1792.12,-1152.5 1786.12,-1146.5 1786.12,-1140.5 1786.12,-1140.5 1786.12,-1128.5 1786.12,-1128.5 1786.12,-1122.5 1792.12,-1116.5 1798.12,-1116.5 1798.12,-1116.5 1865.88,-1116.5 1865.88,-1116.5 1871.88,-1116.5 1877.88,-1122.5 1877.88,-1128.5 1877.88,-1128.5 1877.88,-1140.5 1877.88,-1140.5 1877.88,-1146.5 1871.88,-1152.5 1865.88,-1152.5"/>
<text xml:space="preserve" text-anchor="middle" x="1832" y="-1131" font-family="Arial" font-size="10.00">ContextSnapshot</text>
</g>
<!-- InferenceContract -->
<g id="node18" class="node">
<title>InferenceContract</title>
<path fill="#eceff1" stroke="#455a64" d="M2097.62,-1152.5C2097.62,-1152.5 2028.38,-1152.5 2028.38,-1152.5 2022.38,-1152.5 2016.38,-1146.5 2016.38,-1140.5 2016.38,-1140.5 2016.38,-1128.5 2016.38,-1128.5 2016.38,-1122.5 2022.38,-1116.5 2028.38,-1116.5 2028.38,-1116.5 2097.62,-1116.5 2097.62,-1116.5 2103.62,-1116.5 2109.62,-1122.5 2109.62,-1128.5 2109.62,-1128.5 2109.62,-1140.5 2109.62,-1140.5 2109.62,-1146.5 2103.62,-1152.5 2097.62,-1152.5"/>
<text xml:space="preserve" text-anchor="middle" x="2063" y="-1137" font-family="Arial" font-size="10.00">InferenceRequest</text>
<text xml:space="preserve" text-anchor="middle" x="2063" y="-1125" font-family="Arial" font-size="10.00">InferenceResult</text>
</g>
<!-- TelemetryContract -->
<g id="node20" class="node">
<title>TelemetryContract</title>
<path fill="#eceff1" stroke="#455a64" d="M1364,-1152.5C1364,-1152.5 1288,-1152.5 1288,-1152.5 1282,-1152.5 1276,-1146.5 1276,-1140.5 1276,-1140.5 1276,-1128.5 1276,-1128.5 1276,-1122.5 1282,-1116.5 1288,-1116.5 1288,-1116.5 1364,-1116.5 1364,-1116.5 1370,-1116.5 1376,-1122.5 1376,-1128.5 1376,-1128.5 1376,-1140.5 1376,-1140.5 1376,-1146.5 1370,-1152.5 1364,-1152.5"/>
<text xml:space="preserve" text-anchor="middle" x="1326" y="-1137" font-family="Arial" font-size="10.00">TelemetrySnapshot</text>
<text xml:space="preserve" text-anchor="middle" x="1326" y="-1125" font-family="Arial" font-size="10.00">immutable</text>
</g>
<!-- ContextEngine&#45;&gt;ContextContract -->
<g id="edge26" class="edge">
<title>ContextEngine&#45;&gt;ContextContract</title>
<path fill="none" stroke="black" stroke-dasharray="1,5" d="M2545.27,-1766C2388.56,-1766 1833.31,-1766 1833.31,-1766 1833.31,-1766 1833.31,-1161.23 1833.31,-1161.23"/>
<polygon fill="black" stroke="black" points="1835.76,-1161.23 1833.31,-1154.23 1830.86,-1161.23 1835.76,-1161.23"/>
</g>
<!-- ContextEngine&#45;&gt;Collector -->
<g id="edge15" class="edge">
<title>ContextEngine&#45;&gt;Collector</title>
<path fill="none" stroke="black" d="M2599.58,-1758.58C2599.58,-1758.58 2599.58,-1669.21 2599.58,-1669.21"/>
<polygon fill="black" stroke="black" points="2602.03,-1669.21 2599.58,-1662.21 2597.13,-1669.21 2602.03,-1669.21"/>
</g>
<!-- ContextEngine&#45;&gt;KernelTelemetry -->
<g id="edge44" class="edge">
<title>ContextEngine&#45;&gt;KernelTelemetry</title>
<path fill="none" stroke="black" stroke-dasharray="5,2" d="M2572.92,-1758.69C2572.92,-1738.85 2572.92,-1710 2572.92,-1710 2572.92,-1710 345.88,-1710 345.88,-1710 345.88,-1710 345.88,-1400.11 345.88,-1400.11"/>
<polygon fill="black" stroke="black" points="348.33,-1400.11 345.88,-1393.11 343.43,-1400.11 348.33,-1400.11"/>
<text xml:space="preserve" text-anchor="middle" x="1131.75" y="-1586.95" font-family="Arial" font-size="9.00">context ticks</text>
</g>
<!-- Collector&#45;&gt;Scheduler -->
<g id="edge16" class="edge">
<title>Collector&#45;&gt;Scheduler</title>
<path fill="none" stroke="black" d="M2545.77,-1652C2514.68,-1652 2479,-1652 2479,-1652 2479,-1652 2479,-1781 2479,-1781 2479,-1781 755.73,-1781 755.73,-1781"/>
<polygon fill="black" stroke="black" points="755.73,-1778.55 748.73,-1781 755.73,-1783.45 755.73,-1778.55"/>
<text xml:space="preserve" text-anchor="middle" x="1324.75" y="-1721.45" font-family="Arial" font-size="9.00">CONTEXT_REQUEST</text>
</g>
<!-- Reducer -->
<g id="node23" class="node">
<title>Reducer</title>
<g id="a_node23"><a xlink:href="context/20_context.svg" xlink:title="ContextReducer">
<path fill="#fff3e0" stroke="#ef6c00" d="M2652.62,-1526C2652.62,-1526 2589.38,-1526 2589.38,-1526 2583.38,-1526 2577.38,-1520 2577.38,-1514 2577.38,-1514 2577.38,-1502 2577.38,-1502 2577.38,-1496 2583.38,-1490 2589.38,-1490 2589.38,-1490 2652.62,-1490 2652.62,-1490 2658.62,-1490 2664.62,-1496 2664.62,-1502 2664.62,-1502 2664.62,-1514 2664.62,-1514 2664.62,-1520 2658.62,-1526 2652.62,-1526"/>
<text xml:space="preserve" text-anchor="middle" x="2621" y="-1504.5" font-family="Arial" font-size="10.00">ContextReducer</text>
</a>
</g>
</g>
<!-- Collector&#45;&gt;Reducer -->
<g id="edge18" class="edge">
<title>Collector&#45;&gt;Reducer</title>
<path fill="none" stroke="black" d="M2606.56,-1624.08C2606.56,-1624.08 2606.56,-1534.71 2606.56,-1534.71"/>
<polygon fill="black" stroke="black" points="2609.01,-1534.71 2606.56,-1527.71 2604.11,-1534.71 2609.01,-1534.71"/>
</g>
<!-- Snapshot -->
<g id="node24" class="node">
<title>Snapshot</title>
<g id="a_node24"><a xlink:href="context/20_context.svg" xlink:title="GlobalContextSnapshot">
<path fill="#fff3e0" stroke="#ef6c00" d="M2688.75,-1391.5C2688.75,-1391.5 2593.25,-1391.5 2593.25,-1391.5 2587.25,-1391.5 2581.25,-1385.5 2581.25,-1379.5 2581.25,-1379.5 2581.25,-1367.5 2581.25,-1367.5 2581.25,-1361.5 2587.25,-1355.5 2593.25,-1355.5 2593.25,-1355.5 2688.75,-1355.5 2688.75,-1355.5 2694.75,-1355.5 2700.75,-1361.5 2700.75,-1367.5 2700.75,-1367.5 2700.75,-1379.5 2700.75,-1379.5 2700.75,-1385.5 2694.75,-1391.5 2688.75,-1391.5"/>
<text xml:space="preserve" text-anchor="middle" x="2641" y="-1370" font-family="Arial" font-size="10.00">GlobalContextSnapshot</text>
</a>
</g>
</g>
<!-- Reducer&#45;&gt;Snapshot -->
<g id="edge19" class="edge">
<title>Reducer&#45;&gt;Snapshot</title>
<path fill="none" stroke="black" d="M2622.94,-1489.58C2622.94,-1489.58 2622.94,-1400.21 2622.94,-1400.21"/>
<polygon fill="black" stroke="black" points="2625.39,-1400.21 2622.94,-1393.21 2620.49,-1400.21 2625.39,-1400.21"/>
</g>
<!-- InferenceCtx -->
<g id="node25" class="node">
<title>InferenceCtx</title>
<g id="a_node25"><a xlink:href="context/20_context.svg" xlink:title="InferenceContext">
<path fill="#fff3e0" stroke="#ef6c00" d="M2667.5,-1287C2667.5,-1287 2600.5,-1287 2600.5,-1287 2594.5,-1287 2588.5,-1281 2588.5,-1275 2588.5,-1275 2588.5,-1263 2588.5,-1263 2588.5,-1257 2594.5,-1251 2600.5,-1251 2600.5,-1251 2667.5,-1251 2667.5,-1251 2673.5,-1251 2679.5,-1257 2679.5,-1263 2679.5,-1263 2679.5,-1275 2679.5,-1275 2679.5,-1281 2673.5,-1287 2667.5,-1287"/>
<text xml:space="preserve" text-anchor="middle" x="2634" y="-1265.5" font-family="Arial" font-size="10.00">InferenceContext</text>
</a>
</g>
</g>
<!-- Snapshot&#45;&gt;InferenceCtx -->
<g id="edge20" class="edge">
<title>Snapshot&#45;&gt;InferenceCtx</title>
<path fill="none" stroke="black" d="M2634,-1355.3C2634,-1355.3 2634,-1295.86 2634,-1295.86"/>
<polygon fill="black" stroke="black" points="2636.45,-1295.86 2634,-1288.86 2631.55,-1295.86 2636.45,-1295.86"/>
</g>
<!-- Decision -->
<g id="node26" class="node">
<title>Decision</title>
<g id="a_node26"><a xlink:href="context/20_context.svg" xlink:title="DecisionEngine\nfuture">
<path fill="#fff3e0" stroke="#ef6c00" d="M2618.12,-1152.5C2618.12,-1152.5 2557.88,-1152.5 2557.88,-1152.5 2551.88,-1152.5 2545.88,-1146.5 2545.88,-1140.5 2545.88,-1140.5 2545.88,-1128.5 2545.88,-1128.5 2545.88,-1122.5 2551.88,-1116.5 2557.88,-1116.5 2557.88,-1116.5 2618.12,-1116.5 2618.12,-1116.5 2624.12,-1116.5 2630.12,-1122.5 2630.12,-1128.5 2630.12,-1128.5 2630.12,-1140.5 2630.12,-1140.5 2630.12,-1146.5 2624.12,-1152.5 2618.12,-1152.5"/>
<text xml:space="preserve" text-anchor="middle" x="2588" y="-1137" font-family="Arial" font-size="10.00">DecisionEngine</text>
<text xml:space="preserve" text-anchor="middle" x="2588" y="-1125" font-family="Arial" font-size="10.00">future</text>
</a>
</g>
</g>
<!-- InferenceCtx&#45;&gt;Decision -->
<g id="edge21" class="edge">
<title>InferenceCtx&#45;&gt;Decision</title>
<path fill="none" stroke="black" stroke-dasharray="5,2" d="M2609.31,-1250.58C2609.31,-1250.58 2609.31,-1161.21 2609.31,-1161.21"/>
<polygon fill="black" stroke="black" points="2611.76,-1161.21 2609.31,-1154.21 2606.86,-1161.21 2611.76,-1161.21"/>
<text xml:space="preserve" text-anchor="middle" x="2622.62" y="-1213.45" font-family="Arial" font-size="9.00">future</text>
</g>
<!-- OpenVINO -->
<g id="node38" class="node">
<title>OpenVINO</title>
<g id="a_node38"><a xlink:href="inference/40_inference.svg" xlink:title="OpenVINOBackend\nfuture">
<path fill="#fffde7" stroke="#f9a825" d="M2388.12,-1526C2388.12,-1526 2309.88,-1526 2309.88,-1526 2303.88,-1526 2297.88,-1520 2297.88,-1514 2297.88,-1514 2297.88,-1502 2297.88,-1502 2297.88,-1496 2303.88,-1490 2309.88,-1490 2309.88,-1490 2388.12,-1490 2388.12,-1490 2394.12,-1490 2400.12,-1496 2400.12,-1502 2400.12,-1502 2400.12,-1514 2400.12,-1514 2400.12,-1520 2394.12,-1526 2388.12,-1526"/>
<text xml:space="preserve" text-anchor="middle" x="2349" y="-1510.5" font-family="Arial" font-size="10.00">OpenVINOBackend</text>
<text xml:space="preserve" text-anchor="middle" x="2349" y="-1498.5" font-family="Arial" font-size="10.00">future</text>
</a>
</g>
</g>
<!-- Decision&#45;&gt;OpenVINO -->
<g id="edge95" class="edge">
<title>Decision&#45;&gt;OpenVINO</title>
<path fill="none" stroke="black" stroke-dasharray="5,2" d="M2545.62,-1135C2495.36,-1135 2418.31,-1135 2418.31,-1135 2418.31,-1135 2418.31,-1508 2418.31,-1508 2418.31,-1508 2408.98,-1508 2408.98,-1508"/>
<polygon fill="black" stroke="black" points="2408.98,-1505.55 2401.98,-1508 2408.98,-1510.45 2408.98,-1505.55"/>
</g>
<!-- MCTS -->
<g id="node39" class="node">
<title>MCTS</title>
<path fill="#fffde7" stroke="#f9a825" d="M2509.5,-1526C2509.5,-1526 2448.5,-1526 2448.5,-1526 2442.5,-1526 2436.5,-1520 2436.5,-1514 2436.5,-1514 2436.5,-1502 2436.5,-1502 2436.5,-1496 2442.5,-1490 2448.5,-1490 2448.5,-1490 2509.5,-1490 2509.5,-1490 2515.5,-1490 2521.5,-1496 2521.5,-1502 2521.5,-1502 2521.5,-1514 2521.5,-1514 2521.5,-1520 2515.5,-1526 2509.5,-1526"/>
<text xml:space="preserve" text-anchor="middle" x="2479" y="-1510.5" font-family="Arial" font-size="10.00">MCTS proposer</text>
<text xml:space="preserve" text-anchor="middle" x="2479" y="-1498.5" font-family="Arial" font-size="10.00">future</text>
</g>
<!-- Decision&#45;&gt;MCTS -->
<g id="edge96" class="edge">
<title>Decision&#45;&gt;MCTS</title>
<path fill="none" stroke="black" stroke-dasharray="5,2" d="M2561.81,-1152.77C2561.81,-1227.75 2561.81,-1508 2561.81,-1508 2561.81,-1508 2530.38,-1508 2530.38,-1508"/>
<polygon fill="black" stroke="black" points="2530.38,-1505.55 2523.38,-1508 2530.38,-1510.45 2530.38,-1505.55"/>
</g>
<!-- InferenceHandler&#45;&gt;Proxy -->
<g id="edge39" class="edge">
<title>InferenceHandler&#45;&gt;Proxy</title>
<path fill="none" stroke="black" stroke-dasharray="5,2" d="M2134.25,-1517C1879.36,-1517 947.17,-1517 947.17,-1517 947.17,-1517 947.17,-1884.49 947.17,-1884.49"/>
<polygon fill="black" stroke="black" points="944.73,-1884.49 947.18,-1891.49 949.63,-1884.49 944.73,-1884.49"/>
<text xml:space="preserve" text-anchor="middle" x="3060.5" y="-1721.45" font-family="Arial" font-size="9.00">Request.reply</text>
</g>
<!-- InferenceHandler&#45;&gt;InferenceContract -->
<g id="edge27" class="edge">
<title>InferenceHandler&#45;&gt;InferenceContract</title>
<path fill="none" stroke="black" stroke-dasharray="1,5" d="M2134.21,-1499C2116.28,-1499 2101.56,-1499 2101.56,-1499 2101.56,-1499 2101.56,-1161.34 2101.56,-1161.34"/>
<polygon fill="black" stroke="black" points="2104.01,-1161.34 2101.56,-1154.34 2099.11,-1161.34 2104.01,-1161.34"/>
</g>
<!-- InferenceAdapter -->
<g id="node34" class="node">
<title>InferenceAdapter</title>
<g id="a_node34"><a xlink:href="inference/40_inference.svg" xlink:title="InferenceAdapter\nexecution membrane">
<path fill="#fffde7" stroke="#f9a825" d="M2385.38,-1391.5C2385.38,-1391.5 2302.62,-1391.5 2302.62,-1391.5 2296.62,-1391.5 2290.62,-1385.5 2290.62,-1379.5 2290.62,-1379.5 2290.62,-1367.5 2290.62,-1367.5 2290.62,-1361.5 2296.62,-1355.5 2302.62,-1355.5 2302.62,-1355.5 2385.38,-1355.5 2385.38,-1355.5 2391.38,-1355.5 2397.38,-1361.5 2397.38,-1367.5 2397.38,-1367.5 2397.38,-1379.5 2397.38,-1379.5 2397.38,-1385.5 2391.38,-1391.5 2385.38,-1391.5"/>
<text xml:space="preserve" text-anchor="middle" x="2344" y="-1376" font-family="Arial" font-size="10.00">InferenceAdapter</text>
<text xml:space="preserve" text-anchor="middle" x="2344" y="-1364" font-family="Arial" font-size="10.00">execution membrane</text>
</a>
</g>
</g>
<!-- InferenceHandler&#45;&gt;InferenceAdapter -->
<g id="edge33" class="edge">
<title>InferenceHandler&#45;&gt;InferenceAdapter</title>
<path fill="none" stroke="black" d="M2261.92,-1514C2280.29,-1514 2295.46,-1514 2295.46,-1514 2295.46,-1514 2295.46,-1400.38 2295.46,-1400.38"/>
<polygon fill="black" stroke="black" points="2297.91,-1400.38 2295.46,-1393.38 2293.01,-1400.38 2297.91,-1400.38"/>
<text xml:space="preserve" text-anchor="middle" x="2292.38" y="-1452.45" font-family="Arial" font-size="9.00">infer(request)</text>
</g>
<!-- InferenceResult -->
<g id="node37" class="node">
<title>InferenceResult</title>
<g id="a_node37"><a xlink:href="inference/40_inference.svg" xlink:title="INFERENCE_RESULT\nobservable">
<path fill="#fffde7" stroke="#f9a825" d="M2242.75,-1391.5C2242.75,-1391.5 2147.25,-1391.5 2147.25,-1391.5 2141.25,-1391.5 2135.25,-1385.5 2135.25,-1379.5 2135.25,-1379.5 2135.25,-1367.5 2135.25,-1367.5 2135.25,-1361.5 2141.25,-1355.5 2147.25,-1355.5 2147.25,-1355.5 2242.75,-1355.5 2242.75,-1355.5 2248.75,-1355.5 2254.75,-1361.5 2254.75,-1367.5 2254.75,-1367.5 2254.75,-1379.5 2254.75,-1379.5 2254.75,-1385.5 2248.75,-1391.5 2242.75,-1391.5"/>
<text xml:space="preserve" text-anchor="middle" x="2195" y="-1376" font-family="Arial" font-size="10.00">INFERENCE_RESULT</text>
<text xml:space="preserve" text-anchor="middle" x="2195" y="-1364" font-family="Arial" font-size="10.00">observable</text>
</a>
</g>
</g>
<!-- InferenceHandler&#45;&gt;InferenceResult -->
<g id="edge38" class="edge">
<title>InferenceHandler&#45;&gt;InferenceResult</title>
<path fill="none" stroke="black" d="M2195,-1489.58C2195,-1489.58 2195,-1400.21 2195,-1400.21"/>
<polygon fill="black" stroke="black" points="2197.45,-1400.21 2195,-1393.21 2192.55,-1400.21 2197.45,-1400.21"/>
<text xml:space="preserve" text-anchor="middle" x="2197.88" y="-1452.45" font-family="Arial" font-size="9.00">publish copy</text>
</g>
<!-- InferenceAdapter&#45;&gt;InferenceContract -->
<g id="edge29" class="edge">
<title>InferenceAdapter&#45;&gt;InferenceContract</title>
<path fill="none" stroke="black" stroke-dasharray="1,5" d="M2320.62,-1355.29C2320.62,-1313.05 2320.62,-1212 2320.62,-1212 2320.62,-1212 2106.94,-1212 2106.94,-1212 2106.94,-1212 2106.94,-1161.38 2106.94,-1161.38"/>
<polygon fill="black" stroke="black" points="2109.39,-1161.38 2106.94,-1154.38 2104.49,-1161.38 2109.39,-1161.38"/>
</g>
<!-- InferenceAdapter&#45;&gt;InferenceHandler -->
<g id="edge37" class="edge">
<title>InferenceAdapter&#45;&gt;InferenceHandler</title>
<path fill="none" stroke="black" d="M2293.04,-1391.91C2293.04,-1427.44 2293.04,-1502 2293.04,-1502 2293.04,-1502 2270.44,-1502 2270.44,-1502"/>
<polygon fill="black" stroke="black" points="2270.44,-1499.55 2263.44,-1502 2270.43,-1504.45 2270.44,-1499.55"/>
<text xml:space="preserve" text-anchor="middle" x="2393.25" y="-1452.45" font-family="Arial" font-size="9.00">InferenceResult</text>
</g>
<!-- BackendRegistry -->
<g id="node35" class="node">
<title>BackendRegistry</title>
<g id="a_node35"><a xlink:href="inference/40_inference.svg" xlink:title="BackendRegistry\ncurrent">
<path fill="#fffde7" stroke="#f9a825" d="M2229.5,-1287C2229.5,-1287 2162.5,-1287 2162.5,-1287 2156.5,-1287 2150.5,-1281 2150.5,-1275 2150.5,-1275 2150.5,-1263 2150.5,-1263 2150.5,-1257 2156.5,-1251 2162.5,-1251 2162.5,-1251 2229.5,-1251 2229.5,-1251 2235.5,-1251 2241.5,-1257 2241.5,-1263 2241.5,-1263 2241.5,-1275 2241.5,-1275 2241.5,-1281 2235.5,-1287 2229.5,-1287"/>
<text xml:space="preserve" text-anchor="middle" x="2196" y="-1271.5" font-family="Arial" font-size="10.00">BackendRegistry</text>
<text xml:space="preserve" text-anchor="middle" x="2196" y="-1259.5" font-family="Arial" font-size="10.00">current</text>
</a>
</g>
</g>
<!-- InferenceAdapter&#45;&gt;BackendRegistry -->
<g id="edge34" class="edge">
<title>InferenceAdapter&#45;&gt;BackendRegistry</title>
<path fill="none" stroke="black" d="M2305.62,-1355.3C2305.62,-1325.36 2305.62,-1269 2305.62,-1269 2305.62,-1269 2250.37,-1269 2250.37,-1269"/>
<polygon fill="black" stroke="black" points="2250.37,-1266.55 2243.37,-1269 2250.37,-1271.45 2250.37,-1266.55"/>
<text xml:space="preserve" text-anchor="middle" x="2257.25" y="-1317.95" font-family="Arial" font-size="9.00">select_backend</text>
</g>
<!-- BackendRegistry&#45;&gt;InferenceContract -->
<g id="edge30" class="edge">
<title>BackendRegistry&#45;&gt;InferenceContract</title>
<path fill="none" stroke="black" stroke-dasharray="1,5" d="M2150.12,-1260C2127.19,-1260 2104.25,-1260 2104.25,-1260 2104.25,-1260 2104.25,-1161.26 2104.25,-1161.26"/>
<polygon fill="black" stroke="black" points="2106.7,-1161.26 2104.25,-1154.26 2101.8,-1161.26 2106.7,-1161.26"/>
</g>
<!-- DummyBackend -->
<g id="node36" class="node">
<title>DummyBackend</title>
<g id="a_node36"><a xlink:href="inference/40_inference.svg" xlink:title="DummyInferenceBackend\ncurrent">
<path fill="#fffde7" stroke="#f9a825" d="M2338.62,-1152.5C2338.62,-1152.5 2233.38,-1152.5 2233.38,-1152.5 2227.38,-1152.5 2221.38,-1146.5 2221.38,-1140.5 2221.38,-1140.5 2221.38,-1128.5 2221.38,-1128.5 2221.38,-1122.5 2227.38,-1116.5 2233.38,-1116.5 2233.38,-1116.5 2338.62,-1116.5 2338.62,-1116.5 2344.62,-1116.5 2350.62,-1122.5 2350.62,-1128.5 2350.62,-1128.5 2350.62,-1140.5 2350.62,-1140.5 2350.62,-1146.5 2344.62,-1152.5 2338.62,-1152.5"/>
<text xml:space="preserve" text-anchor="middle" x="2286" y="-1137" font-family="Arial" font-size="10.00">DummyInferenceBackend</text>
<text xml:space="preserve" text-anchor="middle" x="2286" y="-1125" font-family="Arial" font-size="10.00">current</text>
</a>
</g>
</g>
<!-- BackendRegistry&#45;&gt;DummyBackend -->
<g id="edge35" class="edge">
<title>BackendRegistry&#45;&gt;DummyBackend</title>
<path fill="none" stroke="black" d="M2231.44,-1250.58C2231.44,-1250.58 2231.44,-1161.21 2231.44,-1161.21"/>
<polygon fill="black" stroke="black" points="2233.89,-1161.21 2231.44,-1154.21 2228.99,-1161.21 2233.89,-1161.21"/>
<text xml:space="preserve" text-anchor="middle" x="2257.38" y="-1213.45" font-family="Arial" font-size="9.00">model=dummy</text>
</g>
<!-- DummyBackend&#45;&gt;InferenceAdapter -->
<g id="edge36" class="edge">
<title>DummyBackend&#45;&gt;InferenceAdapter</title>
<path fill="none" stroke="black" d="M2335.62,-1152.86C2335.62,-1152.86 2335.62,-1346.57 2335.62,-1346.57"/>
<polygon fill="black" stroke="black" points="2333.18,-1346.57 2335.63,-1353.57 2338.08,-1346.57 2333.18,-1346.57"/>
<text xml:space="preserve" text-anchor="middle" x="2358.25" y="-1265.7" font-family="Arial" font-size="9.00">InferenceResult</text>
</g>
<!-- InferenceResult&#45;&gt;EventBus -->
<g id="edge40" class="edge">
<title>InferenceResult&#45;&gt;EventBus</title>
<path fill="none" stroke="black" stroke-dasharray="5,2" d="M2142.88,-1355.18C2142.88,-1348.25 2142.88,-1342 2142.88,-1342 2142.88,-1342 761.88,-1342 761.88,-1342 761.88,-1342 761.88,-1295.93 761.88,-1295.93"/>
<polygon fill="black" stroke="black" points="764.33,-1295.93 761.88,-1288.93 759.43,-1295.93 764.33,-1295.93"/>
</g>
<!-- OpenVINO&#45;&gt;GPU -->
<g id="edge41" class="edge">
<title>OpenVINO&#45;&gt;GPU</title>
<path fill="none" stroke="black" stroke-dasharray="5,2" d="M2347.62,-1489.69C2347.62,-1469.85 2347.62,-1441 2347.62,-1441 2347.62,-1441 2053,-1441 2053,-1441 2053,-1441 2053,-1400.46 2053,-1400.46"/>
<polygon fill="black" stroke="black" points="2055.45,-1400.46 2053,-1393.46 2050.55,-1400.46 2055.45,-1400.46"/>
<text xml:space="preserve" text-anchor="middle" x="2091.62" y="-1452.45" font-family="Arial" font-size="9.00">future</text>
</g>
<!-- Validation -->
<g id="node42" class="node">
<title>Validation</title>
<g id="a_node42"><a xlink:href="validation/50_validation.svg" xlink:title="Compiler &#45;&gt; Tests &#45;&gt; Validator">
<path fill="#f3e5f5" stroke="#7b1fa2" d="M3220.88,-1660.5C3220.88,-1660.5 3099.12,-1660.5 3099.12,-1660.5 3093.12,-1660.5 3087.12,-1654.5 3087.12,-1648.5 3087.12,-1648.5 3087.12,-1636.5 3087.12,-1636.5 3087.12,-1630.5 3093.12,-1624.5 3099.12,-1624.5 3099.12,-1624.5 3220.88,-1624.5 3220.88,-1624.5 3226.88,-1624.5 3232.88,-1630.5 3232.88,-1636.5 3232.88,-1636.5 3232.88,-1648.5 3232.88,-1648.5 3232.88,-1654.5 3226.88,-1660.5 3220.88,-1660.5"/>
<text xml:space="preserve" text-anchor="middle" x="3160" y="-1639" font-family="Arial" font-size="10.00">Compiler &#45;&gt; Tests &#45;&gt; Validator</text>
</a>
</g>
</g>
<!-- Dummy&#45;&gt;Validation -->
<g id="edge97" class="edge">
<title>Dummy&#45;&gt;Validation</title>
<path fill="none" stroke="black" stroke-dasharray="5,2" d="M3128,-1758.58C3128,-1758.58 3128,-1669.21 3128,-1669.21"/>
<polygon fill="black" stroke="black" points="3130.45,-1669.21 3128,-1662.21 3125.55,-1669.21 3130.45,-1669.21"/>
<text xml:space="preserve" text-anchor="middle" x="3156.62" y="-1721.45" font-family="Arial" font-size="9.00">future</text>
</g>
<!-- ExpertsFuture -->
<g id="node41" class="node">
<title>ExpertsFuture</title>
<g id="a_node41"><a xlink:href="experts/40_experts.svg" xlink:title="Python / C / KiCad / Web\nfuture">
<path fill="#e8f5e9" stroke="#388e3c" d="M3318.88,-1795C3318.88,-1795 3215.12,-1795 3215.12,-1795 3209.12,-1795 3203.12,-1789 3203.12,-1783 3203.12,-1783 3203.12,-1771 3203.12,-1771 3203.12,-1765 3209.12,-1759 3215.12,-1759 3215.12,-1759 3318.88,-1759 3318.88,-1759 3324.88,-1759 3330.88,-1765 3330.88,-1771 3330.88,-1771 3330.88,-1783 3330.88,-1783 3330.88,-1789 3324.88,-1795 3318.88,-1795"/>
<text xml:space="preserve" text-anchor="middle" x="3267" y="-1779.5" font-family="Arial" font-size="10.00">Python / C / KiCad / Web</text>
<text xml:space="preserve" text-anchor="middle" x="3267" y="-1767.5" font-family="Arial" font-size="10.00">future</text>
</a>
</g>
</g>
<!-- Learning -->
<g id="node43" class="node">
<title>Learning</title>
<g id="a_node43"><a xlink:href="learning/60_learning.svg" xlink:title="Metrics / Ranking / Patterns">
<path fill="#efebe9" stroke="#6d4c41" d="M143.5,-1018C143.5,-1018 28.5,-1018 28.5,-1018 22.5,-1018 16.5,-1012 16.5,-1006 16.5,-1006 16.5,-994 16.5,-994 16.5,-988 22.5,-982 28.5,-982 28.5,-982 143.5,-982 143.5,-982 149.5,-982 155.5,-988 155.5,-994 155.5,-994 155.5,-1006 155.5,-1006 155.5,-1012 149.5,-1018 143.5,-1018"/>
<text xml:space="preserve" text-anchor="middle" x="86" y="-996.5" font-family="Arial" font-size="10.00">Metrics / Ranking / Patterns</text>
</a>
</g>
</g>
<!-- KernelTelemetry&#45;&gt;TelemetryContract -->
<g id="edge24" class="edge">
<title>KernelTelemetry&#45;&gt;TelemetryContract</title>
<path fill="none" stroke="black" stroke-dasharray="1,5" d="M360.83,-1355.32C360.83,-1337.83 360.83,-1314 360.83,-1314 360.83,-1314 1326,-1314 1326,-1314 1326,-1314 1326,-1161.21 1326,-1161.21"/>
<polygon fill="black" stroke="black" points="1328.45,-1161.21 1326,-1154.21 1323.55,-1161.21 1328.45,-1161.21"/>
</g>
<!-- TelemetrySnapshot -->
<g id="node46" class="node">
<title>TelemetrySnapshot</title>
<g id="a_node46"><a xlink:href="observability/70_observability.svg" xlink:title="TelemetrySnapshot">
<path fill="#f5f5f5" stroke="#666666" d="M402,-1287C402,-1287 326,-1287 326,-1287 320,-1287 314,-1281 314,-1275 314,-1275 314,-1263 314,-1263 314,-1257 320,-1251 326,-1251 326,-1251 402,-1251 402,-1251 408,-1251 414,-1257 414,-1263 414,-1263 414,-1275 414,-1275 414,-1281 408,-1287 402,-1287"/>
<text xml:space="preserve" text-anchor="middle" x="364" y="-1265.5" font-family="Arial" font-size="10.00">TelemetrySnapshot</text>
</a>
</g>
</g>
<!-- KernelTelemetry&#45;&gt;TelemetrySnapshot -->
<g id="edge45" class="edge">
<title>KernelTelemetry&#45;&gt;TelemetrySnapshot</title>
<path fill="none" stroke="black" d="M337.42,-1355.3C337.42,-1355.3 337.42,-1295.86 337.42,-1295.86"/>
<polygon fill="black" stroke="black" points="339.87,-1295.86 337.42,-1288.86 334.97,-1295.86 339.87,-1295.86"/>
<text xml:space="preserve" text-anchor="middle" x="373.75" y="-1317.95" font-family="Arial" font-size="9.00">snapshot()</text>
</g>
<!-- TelemetrySnapshot&#45;&gt;Metrics -->
<g id="edge46" class="edge">
<title>TelemetrySnapshot&#45;&gt;Metrics</title>
<path fill="none" stroke="black" stroke-dasharray="5,2" d="M364,-1250.58C364,-1250.58 364,-1161.21 364,-1161.21"/>
<polygon fill="black" stroke="black" points="366.45,-1161.21 364,-1154.21 361.55,-1161.21 366.45,-1161.21"/>
</g>
<!-- EventLogSnapshot -->
<g id="node48" class="node">
<title>EventLogSnapshot</title>
<g id="a_node48"><a xlink:href="observability/70_observability.svg" xlink:title="EventLogSnapshot">
<path fill="#f5f5f5" stroke="#666666" d="M266.25,-1287C266.25,-1287 191.75,-1287 191.75,-1287 185.75,-1287 179.75,-1281 179.75,-1275 179.75,-1275 179.75,-1263 179.75,-1263 179.75,-1257 185.75,-1251 191.75,-1251 191.75,-1251 266.25,-1251 266.25,-1251 272.25,-1251 278.25,-1257 278.25,-1263 278.25,-1263 278.25,-1275 278.25,-1275 278.25,-1281 272.25,-1287 266.25,-1287"/>
<text xml:space="preserve" text-anchor="middle" x="229" y="-1265.5" font-family="Arial" font-size="10.00">EventLogSnapshot</text>
</a>
</g>
</g>
<!-- EventRecorder&#45;&gt;EventLogSnapshot -->
<g id="edge50" class="edge">
<title>EventRecorder&#45;&gt;EventLogSnapshot</title>
<path fill="none" stroke="black" d="M207.46,-1355.3C207.46,-1355.3 207.46,-1295.86 207.46,-1295.86"/>
<polygon fill="black" stroke="black" points="209.91,-1295.86 207.46,-1288.86 205.01,-1295.86 209.91,-1295.86"/>
<text xml:space="preserve" text-anchor="middle" x="246.75" y="-1317.95" font-family="Arial" font-size="9.00">snapshot()</text>
</g>
<!-- ReplayReader -->
<g id="node49" class="node">
<title>ReplayReader</title>
<g id="a_node49"><a xlink:href="observability/70_observability.svg" xlink:title="ReplayReader&#10;current">
<path fill="#f5f5f5" stroke="#666666" d="M261.12,-1152.5C261.12,-1152.5 206.88,-1152.5 206.88,-1152.5 200.88,-1152.5 194.88,-1146.5 194.88,-1140.5 194.88,-1140.5 194.88,-1128.5 194.88,-1128.5 194.88,-1122.5 200.88,-1116.5 206.88,-1116.5 206.88,-1116.5 261.12,-1116.5 261.12,-1116.5 267.12,-1116.5 273.12,-1122.5 273.12,-1128.5 273.12,-1128.5 273.12,-1140.5 273.12,-1140.5 273.12,-1146.5 267.12,-1152.5 261.12,-1152.5"/>
<text xml:space="preserve" text-anchor="middle" x="234" y="-1137" font-family="Arial" font-size="10.00">ReplayReader</text>
<text xml:space="preserve" text-anchor="middle" x="234" y="-1125" font-family="Arial" font-size="10.00">current</text>
</a>
</g>
</g>
<!-- EventLogSnapshot&#45;&gt;ReplayReader -->
<g id="edge51" class="edge">
<title>EventLogSnapshot&#45;&gt;ReplayReader</title>
<path fill="none" stroke="black" d="M234,-1250.58C234,-1250.58 234,-1161.21 234,-1161.21"/>
<polygon fill="black" stroke="black" points="236.45,-1161.21 234,-1154.21 231.55,-1161.21 236.45,-1161.21"/>
<text xml:space="preserve" text-anchor="middle" x="249.12" y="-1213.45" font-family="Arial" font-size="9.00">read/filter</text>
</g>
<!-- ReplayPlan -->
<g id="node50" class="node">
<title>ReplayPlan</title>
<g id="a_node50"><a xlink:href="observability/70_observability.svg" xlink:title="ReplayPlan&#10;controlled">
<path fill="#f5f5f5" stroke="#666666" d="M258.12,-1018C258.12,-1018 215.88,-1018 215.88,-1018 209.88,-1018 203.88,-1012 203.88,-1006 203.88,-1006 203.88,-994 203.88,-994 203.88,-988 209.88,-982 215.88,-982 215.88,-982 258.12,-982 258.12,-982 264.12,-982 270.12,-988 270.12,-994 270.12,-994 270.12,-1006 270.12,-1006 270.12,-1012 264.12,-1018 258.12,-1018"/>
<text xml:space="preserve" text-anchor="middle" x="237" y="-1002.5" font-family="Arial" font-size="10.00">ReplayPlan</text>
<text xml:space="preserve" text-anchor="middle" x="237" y="-990.5" font-family="Arial" font-size="10.00">controlled</text>
</a>
</g>
</g>
<!-- ReplayReader&#45;&gt;ReplayPlan -->
<g id="edge52" class="edge">
<title>ReplayReader&#45;&gt;ReplayPlan</title>
<path fill="none" stroke="black" d="M225.96,-1116.08C225.96,-1116.08 225.96,-1026.71 225.96,-1026.71"/>
<polygon fill="black" stroke="black" points="228.41,-1026.71 225.96,-1019.71 223.51,-1026.71 228.41,-1026.71"/>
<text xml:space="preserve" text-anchor="middle" x="268.75" y="-1078.95" font-family="Arial" font-size="9.00">to_replay_plan()</text>
</g>
<!-- ReplayContract -->
<g id="node69" class="node">
<title>ReplayContract</title>
<path fill="lightgrey" stroke="black" d="M658.12,-1018C658.12,-1018 597.88,-1018 597.88,-1018 591.88,-1018 585.88,-1012 585.88,-1006 585.88,-1006 585.88,-994 585.88,-994 585.88,-988 591.88,-982 597.88,-982 597.88,-982 658.12,-982 658.12,-982 664.12,-982 670.12,-988 670.12,-994 670.12,-994 670.12,-1006 670.12,-1006 670.12,-1012 664.12,-1018 658.12,-1018"/>
<text xml:space="preserve" text-anchor="middle" x="628" y="-996.5" font-family="Arial" font-size="10.00">ReplayContract</text>
</g>
<!-- ReplayReader&#45;&gt;ReplayContract -->
<g id="edge28" class="edge">
<title>ReplayReader&#45;&gt;ReplayContract</title>
<path fill="none" stroke="black" stroke-dasharray="1,5" d="M248.04,-1116.27C248.04,-1101.8 248.04,-1084 248.04,-1084 248.04,-1084 589.94,-1084 589.94,-1084 589.94,-1084 589.94,-1026.74 589.94,-1026.74"/>
<polygon fill="black" stroke="black" points="592.39,-1026.74 589.94,-1019.74 587.49,-1026.74 592.39,-1026.74"/>
</g>
<!-- ReplaySandbox -->
<g id="node51" class="node">
<title>ReplaySandbox</title>
<g id="a_node51"><a xlink:href="observability/70_observability.svg" xlink:title="ReplaySandbox&#10;isolated">
<path fill="#f5f5f5" stroke="#666666" d="M267.5,-913.5C267.5,-913.5 206.5,-913.5 206.5,-913.5 200.5,-913.5 194.5,-907.5 194.5,-901.5 194.5,-901.5 194.5,-889.5 194.5,-889.5 194.5,-883.5 200.5,-877.5 206.5,-877.5 206.5,-877.5 267.5,-877.5 267.5,-877.5 273.5,-877.5 279.5,-883.5 279.5,-889.5 279.5,-889.5 279.5,-901.5 279.5,-901.5 279.5,-907.5 273.5,-913.5 267.5,-913.5"/>
<text xml:space="preserve" text-anchor="middle" x="237" y="-898" font-family="Arial" font-size="10.00">ReplaySandbox</text>
<text xml:space="preserve" text-anchor="middle" x="237" y="-886" font-family="Arial" font-size="10.00">isolated</text>
</a>
</g>
</g>
<!-- ReplayPlan&#45;&gt;ReplaySandbox -->
<g id="edge53" class="edge">
<title>ReplayPlan&#45;&gt;ReplaySandbox</title>
<path fill="none" stroke="black" d="M237,-981.8C237,-981.8 237,-922.36 237,-922.36"/>
<polygon fill="black" stroke="black" points="239.45,-922.36 237,-915.36 234.55,-922.36 239.45,-922.36"/>
<text xml:space="preserve" text-anchor="middle" x="261.75" y="-944.45" font-family="Arial" font-size="9.00">replay(plan)</text>
</g>
<!-- ReplayScenario -->
<g id="node53" class="node">
<title>ReplayScenario</title>
<g id="a_node53"><a xlink:href="observability/70_observability.svg" xlink:title="ReplayScenario&#10;controlled">
<path fill="#f5f5f5" stroke="#666666" d="M501.5,-848.5C501.5,-848.5 440.5,-848.5 440.5,-848.5 434.5,-848.5 428.5,-842.5 428.5,-836.5 428.5,-836.5 428.5,-824.5 428.5,-824.5 428.5,-818.5 434.5,-812.5 440.5,-812.5 440.5,-812.5 501.5,-812.5 501.5,-812.5 507.5,-812.5 513.5,-818.5 513.5,-824.5 513.5,-824.5 513.5,-836.5 513.5,-836.5 513.5,-842.5 507.5,-848.5 501.5,-848.5"/>
<text xml:space="preserve" text-anchor="middle" x="471" y="-833" font-family="Arial" font-size="10.00">ReplayScenario</text>
<text xml:space="preserve" text-anchor="middle" x="471" y="-821" font-family="Arial" font-size="10.00">controlled</text>
</a>
</g>
</g>
<!-- ReplayPlan&#45;&gt;ReplayScenario -->
<g id="edge55" class="edge">
<title>ReplayPlan&#45;&gt;ReplayScenario</title>
<path fill="none" stroke="black" d="M270.48,-1000C280.1,-1000 288.05,-1000 288.05,-1000 288.05,-1000 288.05,-837 288.05,-837 288.05,-837 419.59,-837 419.59,-837"/>
<polygon fill="black" stroke="black" points="419.59,-839.45 426.59,-837 419.59,-834.55 419.59,-839.45"/>
<text xml:space="preserve" text-anchor="middle" x="375.62" y="-944.45" font-family="Arial" font-size="9.00">scenario(plan)</text>
</g>
<!-- ReplaySandboxResult -->
<g id="node52" class="node">
<title>ReplaySandboxResult</title>
<g id="a_node52"><a xlink:href="observability/70_observability.svg" xlink:title="ReplaySandboxResult&#10;immutable">
<path fill="#f5f5f5" stroke="#666666" d="M281.75,-783.5C281.75,-783.5 192.25,-783.5 192.25,-783.5 186.25,-783.5 180.25,-777.5 180.25,-771.5 180.25,-771.5 180.25,-759.5 180.25,-759.5 180.25,-753.5 186.25,-747.5 192.25,-747.5 192.25,-747.5 281.75,-747.5 281.75,-747.5 287.75,-747.5 293.75,-753.5 293.75,-759.5 293.75,-759.5 293.75,-771.5 293.75,-771.5 293.75,-777.5 287.75,-783.5 281.75,-783.5"/>
<text xml:space="preserve" text-anchor="middle" x="237" y="-768" font-family="Arial" font-size="10.00">ReplaySandboxResult</text>
<text xml:space="preserve" text-anchor="middle" x="237" y="-756" font-family="Arial" font-size="10.00">immutable</text>
</a>
</g>
</g>
<!-- ReplaySandbox&#45;&gt;ReplaySandboxResult -->
<g id="edge54" class="edge">
<title>ReplaySandbox&#45;&gt;ReplaySandboxResult</title>
<path fill="none" stroke="black" d="M237,-877.15C237,-877.15 237,-792.27 237,-792.27"/>
<polygon fill="black" stroke="black" points="239.45,-792.27 237,-785.27 234.55,-792.27 239.45,-792.27"/>
<text xml:space="preserve" text-anchor="middle" x="248.25" y="-827.2" font-family="Arial" font-size="9.00">result</text>
</g>
<!-- ReplayScenarioRunner -->
<g id="node54" class="node">
<title>ReplayScenarioRunner</title>
<g id="a_node54"><a xlink:href="observability/70_observability.svg" xlink:title="ReplayScenarioRunner&#10;passive">
<path fill="#f5f5f5" stroke="#666666" d="M348.25,-679C348.25,-679 255.75,-679 255.75,-679 249.75,-679 243.75,-673 243.75,-667 243.75,-667 243.75,-655 243.75,-655 243.75,-649 249.75,-643 255.75,-643 255.75,-643 348.25,-643 348.25,-643 354.25,-643 360.25,-649 360.25,-655 360.25,-655 360.25,-667 360.25,-667 360.25,-673 354.25,-679 348.25,-679"/>
<text xml:space="preserve" text-anchor="middle" x="302" y="-663.5" font-family="Arial" font-size="10.00">ReplayScenarioRunner</text>
<text xml:space="preserve" text-anchor="middle" x="302" y="-651.5" font-family="Arial" font-size="10.00">passive</text>
</a>
</g>
</g>
<!-- ReplaySandboxResult&#45;&gt;ReplayScenarioRunner -->
<g id="edge58" class="edge">
<title>ReplaySandboxResult&#45;&gt;ReplayScenarioRunner</title>
<path fill="none" stroke="black" d="M268.75,-747.3C268.75,-747.3 268.75,-687.86 268.75,-687.86"/>
<polygon fill="black" stroke="black" points="271.2,-687.86 268.75,-680.86 266.3,-687.86 271.2,-687.86"/>
<text xml:space="preserve" text-anchor="middle" x="294.5" y="-709.95" font-family="Arial" font-size="9.00">collect result</text>
</g>
<!-- ReplayScenario&#45;&gt;ReplayScenarioRunner -->
<g id="edge56" class="edge">
<title>ReplayScenario&#45;&gt;ReplayScenarioRunner</title>
<path fill="none" stroke="black" d="M428.09,-825C392.02,-825 346.31,-825 346.31,-825 346.31,-825 346.31,-688.01 346.31,-688.01"/>
<polygon fill="black" stroke="black" points="348.76,-688.01 346.31,-681.01 343.86,-688.01 348.76,-688.01"/>
<text xml:space="preserve" text-anchor="middle" x="549.88" y="-762.2" font-family="Arial" font-size="9.00">run/report</text>
</g>
<!-- ReplayScenarioRunner&#45;&gt;ReplaySandbox -->
<g id="edge57" class="edge">
<title>ReplayScenarioRunner&#45;&gt;ReplaySandbox</title>
<path fill="none" stroke="black" d="M303.17,-679.35C303.17,-733.69 303.17,-890 303.17,-890 303.17,-890 288.17,-890 288.17,-890"/>
<polygon fill="black" stroke="black" points="288.17,-887.55 281.17,-890 288.17,-892.45 288.17,-887.55"/>
<text xml:space="preserve" text-anchor="middle" x="411.75" y="-762.2" font-family="Arial" font-size="9.00">uses isolated sandbox</text>
</g>
<!-- ReplayReport -->
<g id="node55" class="node">
<title>ReplayReport</title>
<g id="a_node55"><a xlink:href="observability/70_observability.svg" xlink:title="ReplayReport&#10;deterministic">
<path fill="#f5f5f5" stroke="#666666" d="M328,-574.5C328,-574.5 276,-574.5 276,-574.5 270,-574.5 264,-568.5 264,-562.5 264,-562.5 264,-550.5 264,-550.5 264,-544.5 270,-538.5 276,-538.5 276,-538.5 328,-538.5 328,-538.5 334,-538.5 340,-544.5 340,-550.5 340,-550.5 340,-562.5 340,-562.5 340,-568.5 334,-574.5 328,-574.5"/>
<text xml:space="preserve" text-anchor="middle" x="302" y="-559" font-family="Arial" font-size="10.00">ReplayReport</text>
<text xml:space="preserve" text-anchor="middle" x="302" y="-547" font-family="Arial" font-size="10.00">deterministic</text>
</a>
</g>
</g>
<!-- ReplayScenarioRunner&#45;&gt;ReplayReport -->
<g id="edge59" class="edge">
<title>ReplayScenarioRunner&#45;&gt;ReplayReport</title>
<path fill="none" stroke="black" d="M302,-642.8C302,-642.8 302,-583.36 302,-583.36"/>
<polygon fill="black" stroke="black" points="304.45,-583.36 302,-576.36 299.55,-583.36 304.45,-583.36"/>
<text xml:space="preserve" text-anchor="middle" x="341" y="-605.45" font-family="Arial" font-size="9.00">deterministic report</text>
</g>
<!-- ReplayReportExporter -->
<g id="node56" class="node">
<title>ReplayReportExporter</title>
<g id="a_node56"><a xlink:href="observability/70_observability.svg" xlink:title="ReplayReportExporter&#10;text/json">
<path fill="#f5f5f5" stroke="#666666" d="M412.38,-470C412.38,-470 323.62,-470 323.62,-470 317.62,-470 311.62,-464 311.62,-458 311.62,-458 311.62,-446 311.62,-446 311.62,-440 317.62,-434 323.62,-434 323.62,-434 412.38,-434 412.38,-434 418.38,-434 424.38,-440 424.38,-446 424.38,-446 424.38,-458 424.38,-458 424.38,-464 418.38,-470 412.38,-470"/>
<text xml:space="preserve" text-anchor="middle" x="368" y="-454.5" font-family="Arial" font-size="10.00">ReplayReportExporter</text>
<text xml:space="preserve" text-anchor="middle" x="368" y="-442.5" font-family="Arial" font-size="10.00">text/json</text>
</a>
</g>
</g>
<!-- ReplayReport&#45;&gt;ReplayReportExporter -->
<g id="edge60" class="edge">
<title>ReplayReport&#45;&gt;ReplayReportExporter</title>
<path fill="none" stroke="black" d="M325.81,-538.3C325.81,-538.3 325.81,-478.86 325.81,-478.86"/>
<polygon fill="black" stroke="black" points="328.26,-478.86 325.81,-471.86 323.36,-478.86 328.26,-478.86"/>
<text xml:space="preserve" text-anchor="middle" x="347.75" y="-500.95" font-family="Arial" font-size="9.00">export</text>
</g>
<!-- ReplayReportExport -->
<g id="node57" class="node">
<title>ReplayReportExport</title>
<g id="a_node57"><a xlink:href="observability/70_observability.svg" xlink:title="ReplayReportExport&#10;immutable">
<path fill="#f5f5f5" stroke="#666666" d="M408.25,-365.5C408.25,-365.5 327.75,-365.5 327.75,-365.5 321.75,-365.5 315.75,-359.5 315.75,-353.5 315.75,-353.5 315.75,-341.5 315.75,-341.5 315.75,-335.5 321.75,-329.5 327.75,-329.5 327.75,-329.5 408.25,-329.5 408.25,-329.5 414.25,-329.5 420.25,-335.5 420.25,-341.5 420.25,-341.5 420.25,-353.5 420.25,-353.5 420.25,-359.5 414.25,-365.5 408.25,-365.5"/>
<text xml:space="preserve" text-anchor="middle" x="368" y="-350" font-family="Arial" font-size="10.00">ReplayReportExport</text>
<text xml:space="preserve" text-anchor="middle" x="368" y="-338" font-family="Arial" font-size="10.00">immutable</text>
</a>
</g>
</g>
<!-- ReplayReportExporter&#45;&gt;ReplayReportExport -->
<g id="edge61" class="edge">
<title>ReplayReportExporter&#45;&gt;ReplayReportExport</title>
<path fill="none" stroke="black" d="M368,-433.8C368,-433.8 368,-374.36 368,-374.36"/>
<polygon fill="black" stroke="black" points="370.45,-374.36 368,-367.36 365.55,-374.36 370.45,-374.36"/>
<text xml:space="preserve" text-anchor="middle" x="384.88" y="-396.45" font-family="Arial" font-size="9.00">text/json</text>
</g>
<!-- ReplayReportFileWriter -->
<g id="node58" class="node">
<title>ReplayReportFileWriter</title>
<g id="a_node58"><a xlink:href="observability/70_observability.svg" xlink:title="ReplayReportFileWriter&#10;controlled files">
<path fill="#f5f5f5" stroke="#666666" d="M499.62,-261C499.62,-261 406.38,-261 406.38,-261 400.38,-261 394.38,-255 394.38,-249 394.38,-249 394.38,-237 394.38,-237 394.38,-231 400.38,-225 406.38,-225 406.38,-225 499.62,-225 499.62,-225 505.62,-225 511.62,-231 511.62,-237 511.62,-237 511.62,-249 511.62,-249 511.62,-255 505.62,-261 499.62,-261"/>
<text xml:space="preserve" text-anchor="middle" x="453" y="-245.5" font-family="Arial" font-size="10.00">ReplayReportFileWriter</text>
<text xml:space="preserve" text-anchor="middle" x="453" y="-233.5" font-family="Arial" font-size="10.00">controlled files</text>
</a>
</g>
</g>
<!-- ReplayReportExport&#45;&gt;ReplayReportFileWriter -->
<g id="edge62" class="edge">
<title>ReplayReportExport&#45;&gt;ReplayReportFileWriter</title>
<path fill="none" stroke="black" d="M407.31,-329.3C407.31,-329.3 407.31,-269.86 407.31,-269.86"/>
<polygon fill="black" stroke="black" points="409.76,-269.86 407.31,-262.86 404.86,-269.86 409.76,-269.86"/>
<text xml:space="preserve" text-anchor="middle" x="468.25" y="-291.95" font-family="Arial" font-size="9.00">write explicit path</text>
</g>
<!-- ReplayReportWriteResult -->
<g id="node59" class="node">
<title>ReplayReportWriteResult</title>
<g id="a_node59"><a xlink:href="observability/70_observability.svg" xlink:title="ReplayReportWriteResult&#10;sha256">
<path fill="#f5f5f5" stroke="#666666" d="M390.5,-156.5C390.5,-156.5 287.5,-156.5 287.5,-156.5 281.5,-156.5 275.5,-150.5 275.5,-144.5 275.5,-144.5 275.5,-132.5 275.5,-132.5 275.5,-126.5 281.5,-120.5 287.5,-120.5 287.5,-120.5 390.5,-120.5 390.5,-120.5 396.5,-120.5 402.5,-126.5 402.5,-132.5 402.5,-132.5 402.5,-144.5 402.5,-144.5 402.5,-150.5 396.5,-156.5 390.5,-156.5"/>
<text xml:space="preserve" text-anchor="middle" x="339" y="-141" font-family="Arial" font-size="10.00">ReplayReportWriteResult</text>
<text xml:space="preserve" text-anchor="middle" x="339" y="-129" font-family="Arial" font-size="10.00">sha256</text>
</a>
</g>
</g>
<!-- ReplayReportFileWriter&#45;&gt;ReplayReportWriteResult -->
<g id="edge63" class="edge">
<title>ReplayReportFileWriter&#45;&gt;ReplayReportWriteResult</title>
<path fill="none" stroke="black" d="M398.44,-224.8C398.44,-224.8 398.44,-165.36 398.44,-165.36"/>
<polygon fill="black" stroke="black" points="400.89,-165.36 398.44,-158.36 395.99,-165.36 400.89,-165.36"/>
<text xml:space="preserve" text-anchor="middle" x="385.12" y="-187.45" font-family="Arial" font-size="9.00">bytes + sha256</text>
</g>
<!-- ReplayReportBundleWriter -->
<g id="node60" class="node">
<title>ReplayReportBundleWriter</title>
<g id="a_node60"><a xlink:href="observability/70_observability.svg" xlink:title="ReplayReportBundleWriter&#10;controlled bundle">
<path fill="#f5f5f5" stroke="#666666" d="M557.75,-156.5C557.75,-156.5 450.25,-156.5 450.25,-156.5 444.25,-156.5 438.25,-150.5 438.25,-144.5 438.25,-144.5 438.25,-132.5 438.25,-132.5 438.25,-126.5 444.25,-120.5 450.25,-120.5 450.25,-120.5 557.75,-120.5 557.75,-120.5 563.75,-120.5 569.75,-126.5 569.75,-132.5 569.75,-132.5 569.75,-144.5 569.75,-144.5 569.75,-150.5 563.75,-156.5 557.75,-156.5"/>
<text xml:space="preserve" text-anchor="middle" x="504" y="-141" font-family="Arial" font-size="10.00">ReplayReportBundleWriter</text>
<text xml:space="preserve" text-anchor="middle" x="504" y="-129" font-family="Arial" font-size="10.00">controlled bundle</text>
</a>
</g>
</g>
<!-- ReplayReportFileWriter&#45;&gt;ReplayReportBundleWriter -->
<g id="edge64" class="edge">
<title>ReplayReportFileWriter&#45;&gt;ReplayReportBundleWriter</title>
<path fill="none" stroke="black" stroke-dasharray="5,2" d="M474.94,-224.8C474.94,-224.8 474.94,-165.36 474.94,-165.36"/>
<polygon fill="black" stroke="black" points="477.39,-165.36 474.94,-158.36 472.49,-165.36 477.39,-165.36"/>
<text xml:space="preserve" text-anchor="middle" x="504.5" y="-187.45" font-family="Arial" font-size="9.00">used by bundle</text>
</g>
<!-- Replay -->
<g id="node63" class="node">
<title>Replay</title>
<g id="a_node63"><a xlink:href="observability/70_observability.svg" xlink:title="Replay">
<path fill="#f5f5f5" stroke="#666666" d="M354,-52C354,-52 324,-52 324,-52 318,-52 312,-46 312,-40 312,-40 312,-28 312,-28 312,-22 318,-16 324,-16 324,-16 354,-16 354,-16 360,-16 366,-22 366,-28 366,-28 366,-40 366,-40 366,-46 360,-52 354,-52"/>
<text xml:space="preserve" text-anchor="middle" x="339" y="-30.5" font-family="Arial" font-size="10.00">Replay</text>
</a>
</g>
</g>
<!-- ReplayReportWriteResult&#45;&gt;Replay -->
<g id="edge66" class="edge">
<title>ReplayReportWriteResult&#45;&gt;Replay</title>
<path fill="none" stroke="black" stroke-dasharray="5,2" d="M339,-120.3C339,-120.3 339,-60.86 339,-60.86"/>
<polygon fill="black" stroke="black" points="341.45,-60.86 339,-53.86 336.55,-60.86 341.45,-60.86"/>
</g>
<!-- ReplayBundleWriteResult -->
<g id="node61" class="node">
<title>ReplayBundleWriteResult</title>
<g id="a_node61"><a xlink:href="observability/70_observability.svg" xlink:title="ReplayBundleWriteResult&#10;manifest + sha256">
<path fill="#f5f5f5" stroke="#666666" d="M555.88,-52C555.88,-52 452.12,-52 452.12,-52 446.12,-52 440.12,-46 440.12,-40 440.12,-40 440.12,-28 440.12,-28 440.12,-22 446.12,-16 452.12,-16 452.12,-16 555.88,-16 555.88,-16 561.88,-16 567.88,-22 567.88,-28 567.88,-28 567.88,-40 567.88,-40 567.88,-46 561.88,-52 555.88,-52"/>
<text xml:space="preserve" text-anchor="middle" x="504" y="-36.5" font-family="Arial" font-size="10.00">ReplayBundleWriteResult</text>
<text xml:space="preserve" text-anchor="middle" x="504" y="-24.5" font-family="Arial" font-size="10.00">manifest + sha256</text>
</a>
</g>
</g>
<!-- ReplayReportBundleWriter&#45;&gt;ReplayBundleWriteResult -->
<g id="edge65" class="edge">
<title>ReplayReportBundleWriter&#45;&gt;ReplayBundleWriteResult</title>
<path fill="none" stroke="black" d="M504,-120.3C504,-120.3 504,-60.86 504,-60.86"/>
<polygon fill="black" stroke="black" points="506.45,-60.86 504,-53.86 501.55,-60.86 506.45,-60.86"/>
<text xml:space="preserve" text-anchor="middle" x="534.38" y="-82.95" font-family="Arial" font-size="9.00">manifest + files</text>
</g>
<!-- Metrics&#45;&gt;Learning -->
<g id="edge98" class="edge">
<title>Metrics&#45;&gt;Learning</title>
<path fill="none" stroke="black" stroke-dasharray="5,2" d="M355,-1116.38C355,-1091.82 355,-1051 355,-1051 355,-1051 86,-1051 86,-1051 86,-1051 86,-1026.93 86,-1026.93"/>
<polygon fill="black" stroke="black" points="88.45,-1026.93 86,-1019.93 83.55,-1026.93 88.45,-1026.93"/>
</g>
<!-- Dashboard -->
<g id="node64" class="node">
<title>Dashboard</title>
<g id="a_node64"><a xlink:href="observability/70_observability.svg" xlink:title="Dashboard">
<path fill="#f5f5f5" stroke="#666666" d="M383.62,-1018C383.62,-1018 344.38,-1018 344.38,-1018 338.38,-1018 332.38,-1012 332.38,-1006 332.38,-1006 332.38,-994 332.38,-994 332.38,-988 338.38,-982 344.38,-982 344.38,-982 383.62,-982 383.62,-982 389.62,-982 395.62,-988 395.62,-994 395.62,-994 395.62,-1006 395.62,-1006 395.62,-1012 389.62,-1018 383.62,-1018"/>
<text xml:space="preserve" text-anchor="middle" x="364" y="-996.5" font-family="Arial" font-size="10.00">Dashboard</text>
</a>
</g>
</g>
<!-- Metrics&#45;&gt;Dashboard -->
<g id="edge67" class="edge">
<title>Metrics&#45;&gt;Dashboard</title>
<path fill="none" stroke="black" stroke-dasharray="5,2" d="M373,-1116.08C373,-1116.08 373,-1026.71 373,-1026.71"/>
<polygon fill="black" stroke="black" points="375.45,-1026.71 373,-1019.71 370.55,-1026.71 375.45,-1026.71"/>
</g>
<!-- Watchdog -->
<g id="node65" class="node">
<title>Watchdog</title>
<g id="a_node65"><a xlink:href="observability/70_observability.svg" xlink:title="Watchdog">
<path fill="#f5f5f5" stroke="#666666" d="M557.75,-1391.5C557.75,-1391.5 522.25,-1391.5 522.25,-1391.5 516.25,-1391.5 510.25,-1385.5 510.25,-1379.5 510.25,-1379.5 510.25,-1367.5 510.25,-1367.5 510.25,-1361.5 516.25,-1355.5 522.25,-1355.5 522.25,-1355.5 557.75,-1355.5 557.75,-1355.5 563.75,-1355.5 569.75,-1361.5 569.75,-1367.5 569.75,-1367.5 569.75,-1379.5 569.75,-1379.5 569.75,-1385.5 563.75,-1391.5 557.75,-1391.5"/>
<text xml:space="preserve" text-anchor="middle" x="540" y="-1370" font-family="Arial" font-size="10.00">Watchdog</text>
</a>
</g>
</g>
<!-- Watchdog&#45;&gt;Scheduler -->
<g id="edge68" class="edge">
<title>Watchdog&#45;&gt;Scheduler</title>
<path fill="none" stroke="black" stroke-dasharray="5,2" d="M540,-1391.9C540,-1469.5 540,-1766 540,-1766 540,-1766 678.46,-1766 678.46,-1766"/>
<polygon fill="black" stroke="black" points="678.46,-1768.45 685.46,-1766 678.46,-1763.55 678.46,-1768.45"/>
</g>
<!-- Pytest -->
<g id="node66" class="node">
<title>Pytest</title>
<g id="a_node66"><a xlink:href="tests/80_tests.svg" xlink:title="pytest suite\n22 tests">
<path fill="#e3f2fd" stroke="#1565c0" d="M259.5,-1929.5C259.5,-1929.5 216.5,-1929.5 216.5,-1929.5 210.5,-1929.5 204.5,-1923.5 204.5,-1917.5 204.5,-1917.5 204.5,-1905.5 204.5,-1905.5 204.5,-1899.5 210.5,-1893.5 216.5,-1893.5 216.5,-1893.5 259.5,-1893.5 259.5,-1893.5 265.5,-1893.5 271.5,-1899.5 271.5,-1905.5 271.5,-1905.5 271.5,-1917.5 271.5,-1917.5 271.5,-1923.5 265.5,-1929.5 259.5,-1929.5"/>
<text xml:space="preserve" text-anchor="middle" x="238" y="-1914" font-family="Arial" font-size="10.00">pytest suite</text>
<text xml:space="preserve" text-anchor="middle" x="238" y="-1902" font-family="Arial" font-size="10.00">22 tests</text>
</a>
</g>
</g>
<!-- Pytest&#45;&gt;Proxy -->
<g id="edge71" class="edge">
<title>Pytest&#45;&gt;Proxy</title>
<path fill="none" stroke="black" stroke-dasharray="1,5" d="M238,-1929.91C238,-1948.35 238,-1974 238,-1974 238,-1974 901.12,-1974 901.12,-1974 901.12,-1974 901.12,-1938.43 901.12,-1938.43"/>
<polygon fill="black" stroke="black" points="903.58,-1938.43 901.13,-1931.43 898.68,-1938.43 903.58,-1938.43"/>
</g>
<!-- Pytest&#45;&gt;Policy -->
<g id="edge75" class="edge">
<title>Pytest&#45;&gt;Policy</title>
<path fill="none" stroke="black" stroke-dasharray="1,5" d="M269.52,-1893.04C269.52,-1833.29 269.52,-1649 269.52,-1649 269.52,-1649 677.89,-1649 677.89,-1649"/>
<polygon fill="black" stroke="black" points="677.89,-1651.45 684.89,-1649 677.89,-1646.55 677.89,-1651.45"/>
</g>
<!-- Pytest&#45;&gt;Dispatcher -->
<g id="edge70" class="edge">
<title>Pytest&#45;&gt;Dispatcher</title>
<path fill="none" stroke="black" stroke-dasharray="1,5" d="M265.58,-1893.07C265.58,-1864.05 265.58,-1811 265.58,-1811 265.58,-1811 885.62,-1811 885.62,-1811 885.62,-1811 885.62,-1400.26 885.62,-1400.26"/>
<polygon fill="black" stroke="black" points="888.08,-1400.26 885.63,-1393.26 883.18,-1400.26 888.08,-1400.26"/>
</g>
<!-- Pytest&#45;&gt;EventContract -->
<g id="edge69" class="edge">
<title>Pytest&#45;&gt;EventContract</title>
<path fill="none" stroke="black" stroke-dasharray="1,5" d="M223.54,-1893.06C223.54,-1873.07 223.54,-1844 223.54,-1844 223.54,-1844 1726.71,-1844 1726.71,-1844 1726.71,-1844 1726.71,-1161.26 1726.71,-1161.26"/>
<polygon fill="black" stroke="black" points="1729.16,-1161.26 1726.71,-1154.26 1724.26,-1161.26 1729.16,-1161.26"/>
</g>
<!-- Pytest&#45;&gt;ContextEngine -->
<g id="edge72" class="edge">
<title>Pytest&#45;&gt;ContextEngine</title>
<path fill="none" stroke="black" stroke-dasharray="1,5" d="M242.58,-1893.04C242.58,-1884.84 242.58,-1877 242.58,-1877 242.58,-1877 2586,-1877 2586,-1877 2586,-1877 2586,-1803.86 2586,-1803.86"/>
<polygon fill="black" stroke="black" points="2588.45,-1803.86 2586,-1796.86 2583.55,-1803.86 2588.45,-1803.86"/>
</g>
<!-- Pytest&#45;&gt;InferenceHandler -->
<g id="edge73" class="edge">
<title>Pytest&#45;&gt;InferenceHandler</title>
<path fill="none" stroke="black" stroke-dasharray="1,5" d="M233.06,-1893.27C233.06,-1878.8 233.06,-1861 233.06,-1861 233.06,-1861 2198,-1861 2198,-1861 2198,-1861 2198,-1535 2198,-1535"/>
<polygon fill="black" stroke="black" points="2200.45,-1535 2198,-1528 2195.55,-1535 2200.45,-1535"/>
</g>
<!-- Pytest&#45;&gt;BackendRegistry -->
<g id="edge74" class="edge">
<title>Pytest&#45;&gt;BackendRegistry</title>
<path fill="none" stroke="black" stroke-dasharray="1,5" d="M214.02,-1893.38C214.02,-1868.82 214.02,-1828 214.02,-1828 214.02,-1828 999.44,-1828 999.44,-1828 999.44,-1828 999.44,-1278 999.44,-1278 999.44,-1278 2141.68,-1278 2141.68,-1278"/>
<polygon fill="black" stroke="black" points="2141.68,-1280.45 2148.68,-1278 2141.68,-1275.55 2141.68,-1280.45"/>
</g>
<!-- Pytest&#45;&gt;KernelTelemetry -->
<g id="edge76" class="edge">
<title>Pytest&#45;&gt;KernelTelemetry</title>
<path fill="none" stroke="black" stroke-dasharray="1,5" d="M267.55,-1893.31C267.55,-1799.42 267.55,-1374 267.55,-1374 267.55,-1374 288.91,-1374 288.91,-1374"/>
<polygon fill="black" stroke="black" points="288.91,-1376.45 295.91,-1374 288.91,-1371.55 288.91,-1376.45"/>
</g>
<!-- Pytest&#45;&gt;EventRecorder -->
<g id="edge77" class="edge">
<title>Pytest&#45;&gt;EventRecorder</title>
<path fill="none" stroke="black" stroke-dasharray="1,5" d="M252.1,-1893.29C252.1,-1893.29 252.1,-1400.49 252.1,-1400.49"/>
<polygon fill="black" stroke="black" points="254.55,-1400.49 252.1,-1393.49 249.65,-1400.49 254.55,-1400.49"/>
</g>
<!-- Pytest&#45;&gt;ReplayReader -->
<g id="edge78" class="edge">
<title>Pytest&#45;&gt;ReplayReader</title>
<path fill="none" stroke="black" stroke-dasharray="1,5" d="M271.61,-1903C277.8,-1903 282.35,-1903 282.35,-1903 282.35,-1903 282.35,-1135 282.35,-1135 282.35,-1135 281.46,-1135 281.46,-1135"/>
<polygon fill="black" stroke="black" points="282,-1132.55 275,-1135 282,-1137.45 282,-1132.55"/>
</g>
<!-- Pytest&#45;&gt;ReplaySandbox -->
<g id="edge79" class="edge">
<title>Pytest&#45;&gt;ReplaySandbox</title>
<path fill="none" stroke="black" stroke-dasharray="1,5" d="M271.8,-1912C279.37,-1912 285.2,-1912 285.2,-1912 285.2,-1912 285.2,-902 285.2,-902 285.2,-902 284.65,-902 284.65,-902"/>
<polygon fill="black" stroke="black" points="288.18,-899.55 281.18,-902 288.18,-904.45 288.18,-899.55"/>
</g>
<!-- Pytest&#45;&gt;ReplayScenarioRunner -->
<g id="edge80" class="edge">
<title>Pytest&#45;&gt;ReplayScenarioRunner</title>
<path fill="none" stroke="black" stroke-dasharray="1,5" d="M263.6,-1893.07C263.6,-1793.89 263.6,-1328 263.6,-1328 263.6,-1328 308.58,-1328 308.58,-1328 308.58,-1328 308.58,-687.7 308.58,-687.7"/>
<polygon fill="black" stroke="black" points="311.03,-687.7 308.58,-680.7 306.13,-687.7 311.03,-687.7"/>
</g>
<!-- Pytest&#45;&gt;ReplayReport -->
<g id="edge81" class="edge">
<title>Pytest&#45;&gt;ReplayReport</title>
<path fill="none" stroke="black" stroke-dasharray="1,5" d="M204.3,-1900C189.62,-1900 175.71,-1900 175.71,-1900 175.71,-1900 175.71,-557 175.71,-557 175.71,-557 255.25,-557 255.25,-557"/>
<polygon fill="black" stroke="black" points="255.25,-559.45 262.25,-557 255.25,-554.55 255.25,-559.45"/>
</g>
<!-- Pytest&#45;&gt;ReplayReportExporter -->
<g id="edge82" class="edge">
<title>Pytest&#45;&gt;ReplayReportExporter</title>
<path fill="none" stroke="black" stroke-dasharray="1,5" d="M204.06,-1906C187.74,-1906 171.67,-1906 171.67,-1906 171.67,-1906 171.67,-452 171.67,-452 171.67,-452 302.7,-452 302.7,-452"/>
<polygon fill="black" stroke="black" points="302.7,-454.45 309.7,-452 302.7,-449.55 302.7,-454.45"/>
</g>
<!-- Pytest&#45;&gt;ReplayReportExport -->
<g id="edge83" class="edge">
<title>Pytest&#45;&gt;ReplayReportExport</title>
<path fill="none" stroke="black" stroke-dasharray="1,5" d="M204.05,-1912C186.05,-1912 167.62,-1912 167.62,-1912 167.62,-1912 167.62,-348 167.62,-348 167.62,-348 306.84,-348 306.84,-348"/>
<polygon fill="black" stroke="black" points="306.84,-350.45 313.84,-348 306.84,-345.55 306.84,-350.45"/>
</g>
<!-- Pytest&#45;&gt;ReplayReportFileWriter -->
<g id="edge84" class="edge">
<title>Pytest&#45;&gt;ReplayReportFileWriter</title>
<path fill="none" stroke="black" stroke-dasharray="1,5" d="M204.28,-1918C184.59,-1918 163.58,-1918 163.58,-1918 163.58,-1918 163.58,-243 163.58,-243 163.58,-243 385.57,-243 385.57,-243"/>
<polygon fill="black" stroke="black" points="385.57,-245.45 392.57,-243 385.57,-240.55 385.57,-245.45"/>
</g>
<!-- Pytest&#45;&gt;ReplayReportWriteResult -->
<g id="edge86" class="edge">
<title>Pytest&#45;&gt;ReplayReportWriteResult</title>
<path fill="none" stroke="black" stroke-dasharray="1,5" d="M204.27,-1924C183.01,-1924 159.54,-1924 159.54,-1924 159.54,-1924 159.54,-139 159.54,-139 159.54,-139 266.71,-139 266.71,-139"/>
<polygon fill="black" stroke="black" points="266.71,-141.45 273.71,-139 266.71,-136.55 266.71,-141.45"/>
</g>
<!-- Pytest&#45;&gt;ReplayReportBundleWriter -->
<g id="edge85" class="edge">
<title>Pytest&#45;&gt;ReplayReportBundleWriter</title>
<path fill="none" stroke="black" stroke-dasharray="1,5" d="M271.8,-1921C282.17,-1921 290.9,-1921 290.9,-1921 290.9,-1921 290.9,-863 290.9,-863 290.9,-863 541.62,-863 541.62,-863 541.62,-863 541.62,-165.28 541.62,-165.28"/>
<polygon fill="black" stroke="black" points="544.08,-165.28 541.63,-158.28 539.18,-165.29 544.08,-165.28"/>
</g>
<!-- CompileAll -->
<g id="node67" class="node">
<title>CompileAll</title>
<path fill="#e3f2fd" stroke="#1565c0" d="M475.75,-1929.5C475.75,-1929.5 440.25,-1929.5 440.25,-1929.5 434.25,-1929.5 428.25,-1923.5 428.25,-1917.5 428.25,-1917.5 428.25,-1905.5 428.25,-1905.5 428.25,-1899.5 434.25,-1893.5 440.25,-1893.5 440.25,-1893.5 475.75,-1893.5 475.75,-1893.5 481.75,-1893.5 487.75,-1899.5 487.75,-1905.5 487.75,-1905.5 487.75,-1917.5 487.75,-1917.5 487.75,-1923.5 481.75,-1929.5 475.75,-1929.5"/>
<text xml:space="preserve" text-anchor="middle" x="458" y="-1908" font-family="Arial" font-size="10.00">compileall</text>
</g>
<!-- CompileAll&#45;&gt;Scheduler -->
<g id="edge87" class="edge">
<title>CompileAll&#45;&gt;Scheduler</title>
<path fill="none" stroke="black" stroke-dasharray="1,5" d="M483.17,-1893.01C483.17,-1858.56 483.17,-1788 483.17,-1788 483.17,-1788 678.4,-1788 678.4,-1788"/>
<polygon fill="black" stroke="black" points="678.4,-1790.45 685.4,-1788 678.4,-1785.55 678.4,-1790.45"/>
</g>
<!-- DotRender -->
<g id="node68" class="node">
<title>DotRender</title>
<path fill="#e3f2fd" stroke="#1565c0" d="M380.5,-1929.5C380.5,-1929.5 319.5,-1929.5 319.5,-1929.5 313.5,-1929.5 307.5,-1923.5 307.5,-1917.5 307.5,-1917.5 307.5,-1905.5 307.5,-1905.5 307.5,-1899.5 313.5,-1893.5 319.5,-1893.5 319.5,-1893.5 380.5,-1893.5 380.5,-1893.5 386.5,-1893.5 392.5,-1899.5 392.5,-1905.5 392.5,-1905.5 392.5,-1917.5 392.5,-1917.5 392.5,-1923.5 386.5,-1929.5 380.5,-1929.5"/>
<text xml:space="preserve" text-anchor="middle" x="350" y="-1908" font-family="Arial" font-size="10.00">Graphviz render</text>
</g>
<!-- DotRender&#45;&gt;Scheduler -->
<g id="edge88" class="edge">
<title>DotRender&#45;&gt;Scheduler</title>
<path fill="none" stroke="black" stroke-dasharray="1,5" d="M388.38,-1893.08C388.38,-1857.11 388.38,-1781 388.38,-1781 388.38,-1781 678.45,-1781 678.45,-1781"/>
<polygon fill="black" stroke="black" points="678.45,-1783.45 685.45,-1781 678.45,-1778.55 678.45,-1783.45"/>
</g>
</g>
</svg>
