<?xml version="1.0" encoding="UTF-8" standalone="no"?>
<!DOCTYPE svg PUBLIC "-//W3C//DTD SVG 1.1//EN"
 "http://www.w3.org/Graphics/SVG/1.1/DTD/svg11.dtd">
<!-- Generated by graphviz version 14.1.3 (20260303.0454)
 -->
<!-- Title: Global Pages: 1 -->
<svg width="2866pt" height="2053pt"
 viewBox="0.00 0.00 2866.00 2053.00" xmlns="http://www.w3.org/2000/svg" xmlns:xlink="http://www.w3.org/1999/xlink">
<g id="graph0" class="graph" transform="scale(1 1) rotate(0) translate(4 2049)">
<title>Global</title>
<polygon fill="white" stroke="none" points="-4,4 -4,-2049 2862,-2049 2862,4 -4,4"/>
<g id="clust1" class="cluster">
<title>cluster_L0</title>
<polygon fill="#ffebee" stroke="#c62828" points="1994,-1087 1994,-1160.5 2480,-1160.5 2480,-1087 1994,-1087"/>
<text xml:space="preserve" text-anchor="middle" x="2237" y="-1146.05" font-family="Arial" font-size="11.00">Layer 0 — Hardware target</text>
</g>
<g id="clust2" class="cluster">
<title>cluster_L1</title>
<polygon fill="#ede7f6" stroke="#512da8" points="1256,-1200 1256,-2037 1574,-2037 1574,-1200 1256,-1200"/>
<text xml:space="preserve" text-anchor="middle" x="1415" y="-2022.55" font-family="Arial" font-size="11.00">Layer 1 — MissiPy Micro&#45;Kernel Phase 2.3</text>
</g>
<g id="clust3" class="cluster">
<title>cluster_L2</title>
<polygon fill="#eceff1" stroke="#455a64" points="2000,-974 2000,-1047.5 2850,-1047.5 2850,-974 2000,-974"/>
<text xml:space="preserve" text-anchor="middle" x="2425" y="-1033.05" font-family="Arial" font-size="11.00">Layer 2 — Contracts</text>
</g>
<g id="clust4" class="cluster">
<title>cluster_L3</title>
<polygon fill="#fff3e0" stroke="#ef6c00" points="105,-1200 105,-1830 276,-1830 276,-1200 105,-1200"/>
<text xml:space="preserve" text-anchor="middle" x="190.5" y="-1815.55" font-family="Arial" font-size="11.00">Layer 3 — Context Fabric active</text>
</g>
<g id="clust5" class="cluster">
<title>cluster_L4</title>
<polygon fill="#e1f5fe" stroke="#0288d1" points="912,-1087 912,-1160.5 1574,-1160.5 1574,-1087 912,-1087"/>
<text xml:space="preserve" text-anchor="middle" x="1243" y="-1146.05" font-family="Arial" font-size="11.00">Layer 4 — Independent Services future</text>
</g>
<g id="clust6" class="cluster">
<title>cluster_L5</title>
<polygon fill="#fffde7" stroke="#f9a825" points="1582,-974 1582,-1273.5 1986,-1273.5 1986,-974 1582,-974"/>
<text xml:space="preserve" text-anchor="middle" x="1784" y="-1259.05" font-family="Arial" font-size="11.00">Layer 5 — Inference Phase 2.3</text>
</g>
<g id="clust7" class="cluster">
<title>cluster_L6</title>
<polygon fill="#e8f5e9" stroke="#388e3c" points="2591,-1643.5 2591,-1717 2850,-1717 2850,-1643.5 2591,-1643.5"/>
<text xml:space="preserve" text-anchor="middle" x="2720.5" y="-1702.55" font-family="Arial" font-size="11.00">Layer 6 — Experts</text>
</g>
<g id="clust8" class="cluster">
<title>cluster_L7</title>
<polygon fill="#f3e5f5" stroke="#7b1fa2" points="2591,-1530.5 2591,-1604 2753,-1604 2753,-1530.5 2591,-1530.5"/>
<text xml:space="preserve" text-anchor="middle" x="2672" y="-1589.55" font-family="Arial" font-size="11.00">Layer 7 — Validation future</text>
</g>
<g id="clust9" class="cluster">
<title>cluster_L8</title>
<polygon fill="#efebe9" stroke="#6d4c41" points="8,-974 8,-1047.5 164,-1047.5 164,-974 8,-974"/>
<text xml:space="preserve" text-anchor="middle" x="86" y="-1033.05" font-family="Arial" font-size="11.00">Layer 8 — Learning future</text>
</g>
<g id="clust10" class="cluster">
<title>cluster_L9</title>
<polygon fill="#f5f5f5" stroke="#666666" points="284,-8 284,-1386.5 690,-1386.5 690,-8 284,-8"/>
<text xml:space="preserve" text-anchor="middle" x="487" y="-1372.05" font-family="Arial" font-size="11.00">Layer 9 — Observability Phase 2.4</text>
</g>
<g id="clust11" class="cluster">
<title>cluster_L10</title>
<polygon fill="#e3f2fd" stroke="#1565c0" points="601,-1860 601,-1933.5 901,-1933.5 901,-1860 601,-1860"/>
<text xml:space="preserve" text-anchor="middle" x="751" y="-1919.05" font-family="Arial" font-size="11.00">Layer 10 — Test Harness Phase 2.4</text>
</g>
<!-- CPU -->
<g id="node1" class="node">
<title>CPU</title>
<path fill="#ffebee" stroke="#c62828" d="M2063.88,-1131C2063.88,-1131 2014.12,-1131 2014.12,-1131 2008.12,-1131 2002.12,-1125 2002.12,-1119 2002.12,-1119 2002.12,-1107 2002.12,-1107 2002.12,-1101 2008.12,-1095 2014.12,-1095 2014.12,-1095 2063.88,-1095 2063.88,-1095 2069.88,-1095 2075.88,-1101 2075.88,-1107 2075.88,-1107 2075.88,-1119 2075.88,-1119 2075.88,-1125 2069.88,-1131 2063.88,-1131"/>
<text xml:space="preserve" text-anchor="middle" x="2039" y="-1115.5" font-family="Arial" font-size="10.00">Intel i5&#45;11400</text>
<text xml:space="preserve" text-anchor="middle" x="2039" y="-1103.5" font-family="Arial" font-size="10.00">CPU</text>
</g>
<!-- RAM -->
<g id="node2" class="node">
<title>RAM</title>
<path fill="#ffebee" stroke="#c62828" d="M2176.38,-1131C2176.38,-1131 2123.62,-1131 2123.62,-1131 2117.62,-1131 2111.62,-1125 2111.62,-1119 2111.62,-1119 2111.62,-1107 2111.62,-1107 2111.62,-1101 2117.62,-1095 2123.62,-1095 2123.62,-1095 2176.38,-1095 2176.38,-1095 2182.38,-1095 2188.38,-1101 2188.38,-1107 2188.38,-1107 2188.38,-1119 2188.38,-1119 2188.38,-1125 2182.38,-1131 2176.38,-1131"/>
<text xml:space="preserve" text-anchor="middle" x="2150" y="-1109.5" font-family="Arial" font-size="10.00">128GB DDR4</text>
</g>
<!-- Storage -->
<g id="node3" class="node">
<title>Storage</title>
<path fill="#ffebee" stroke="#c62828" d="M2331.75,-1131C2331.75,-1131 2236.25,-1131 2236.25,-1131 2230.25,-1131 2224.25,-1125 2224.25,-1119 2224.25,-1119 2224.25,-1107 2224.25,-1107 2224.25,-1101 2230.25,-1095 2236.25,-1095 2236.25,-1095 2331.75,-1095 2331.75,-1095 2337.75,-1095 2343.75,-1101 2343.75,-1107 2343.75,-1107 2343.75,-1119 2343.75,-1119 2343.75,-1125 2337.75,-1131 2331.75,-1131"/>
<text xml:space="preserve" text-anchor="middle" x="2284" y="-1115.5" font-family="Arial" font-size="10.00">ZFS</text>
<text xml:space="preserve" text-anchor="middle" x="2284" y="-1103.5" font-family="Arial" font-size="10.00">NVMe + RAIDZ2 SATA</text>
</g>
<!-- GPU -->
<g id="node4" class="node">
<title>GPU</title>
<path fill="#ffebee" stroke="#c62828" d="M2459.88,-1131C2459.88,-1131 2392.12,-1131 2392.12,-1131 2386.12,-1131 2380.12,-1125 2380.12,-1119 2380.12,-1119 2380.12,-1107 2380.12,-1107 2380.12,-1101 2386.12,-1095 2392.12,-1095 2392.12,-1095 2459.88,-1095 2459.88,-1095 2465.88,-1095 2471.88,-1101 2471.88,-1107 2471.88,-1107 2471.88,-1119 2471.88,-1119 2471.88,-1125 2465.88,-1131 2459.88,-1131"/>
<text xml:space="preserve" text-anchor="middle" x="2426" y="-1115.5" font-family="Arial" font-size="10.00">Intel iGPU</text>
<text xml:space="preserve" text-anchor="middle" x="2426" y="-1103.5" font-family="Arial" font-size="10.00">OpenVINO future</text>
</g>
<!-- Launcher -->
<g id="node5" class="node">
<title>Launcher</title>
<g id="a_node5"><a xlink:href="scheduler/10_scheduler.svg" xlink:title="Zoom Scheduler">
<path fill="#ede7f6" stroke="#512da8" d="M1530.88,-2007.5C1530.88,-2007.5 1499.12,-2007.5 1499.12,-2007.5 1493.12,-2007.5 1487.12,-2001.5 1487.12,-1995.5 1487.12,-1995.5 1487.12,-1983.5 1487.12,-1983.5 1487.12,-1977.5 1493.12,-1971.5 1499.12,-1971.5 1499.12,-1971.5 1530.88,-1971.5 1530.88,-1971.5 1536.88,-1971.5 1542.88,-1977.5 1542.88,-1983.5 1542.88,-1983.5 1542.88,-1995.5 1542.88,-1995.5 1542.88,-2001.5 1536.88,-2007.5 1530.88,-2007.5"/>
<text xml:space="preserve" text-anchor="middle" x="1515" y="-1986" font-family="Arial" font-size="10.00">Launcher</text>
</a>
</g>
</g>
<!-- Registry -->
<g id="node6" class="node">
<title>Registry</title>
<g id="a_node6"><a xlink:href="scheduler/10_scheduler.svg" xlink:title="Registry">
<path fill="#ede7f6" stroke="#512da8" d="M1530,-1904C1530,-1904 1500,-1904 1500,-1904 1494,-1904 1488,-1898 1488,-1892 1488,-1892 1488,-1880 1488,-1880 1488,-1874 1494,-1868 1500,-1868 1500,-1868 1530,-1868 1530,-1868 1536,-1868 1542,-1874 1542,-1880 1542,-1880 1542,-1892 1542,-1892 1542,-1898 1536,-1904 1530,-1904"/>
<text xml:space="preserve" text-anchor="middle" x="1515" y="-1882.5" font-family="Arial" font-size="10.00">Registry</text>
</a>
</g>
</g>
<!-- Launcher&#45;&gt;Registry -->
<g id="edge1" class="edge">
<title>Launcher&#45;&gt;Registry</title>
<path fill="none" stroke="black" d="M1515,-1971.47C1515,-1971.47 1515,-1912.68 1515,-1912.68"/>
<polygon fill="black" stroke="black" points="1517.45,-1912.68 1515,-1905.68 1512.55,-1912.68 1517.45,-1912.68"/>
</g>
<!-- Proxy -->
<g id="node7" class="node">
<title>Proxy</title>
<g id="a_node7"><a xlink:href="scheduler/component_proxy/14_component_proxy.svg" xlink:title="Runtime proxy">
<path fill="#ede7f6" stroke="#512da8" d="M1548.88,-1800.5C1548.88,-1800.5 1481.12,-1800.5 1481.12,-1800.5 1475.12,-1800.5 1469.12,-1794.5 1469.12,-1788.5 1469.12,-1788.5 1469.12,-1776.5 1469.12,-1776.5 1469.12,-1770.5 1475.12,-1764.5 1481.12,-1764.5 1481.12,-1764.5 1548.88,-1764.5 1548.88,-1764.5 1554.88,-1764.5 1560.88,-1770.5 1560.88,-1776.5 1560.88,-1776.5 1560.88,-1788.5 1560.88,-1788.5 1560.88,-1794.5 1554.88,-1800.5 1548.88,-1800.5"/>
<text xml:space="preserve" text-anchor="middle" x="1515" y="-1785" font-family="Arial" font-size="10.00">ComponentProxy</text>
<text xml:space="preserve" text-anchor="middle" x="1515" y="-1773" font-family="Arial" font-size="10.00">stateful</text>
</a>
</g>
</g>
<!-- Registry&#45;&gt;Proxy -->
<g id="edge2" class="edge">
<title>Registry&#45;&gt;Proxy</title>
<path fill="none" stroke="black" d="M1515,-1867.97C1515,-1867.97 1515,-1809.18 1515,-1809.18"/>
<polygon fill="black" stroke="black" points="1517.45,-1809.18 1515,-1802.18 1512.55,-1809.18 1517.45,-1809.18"/>
</g>
<!-- Scheduler -->
<g id="node8" class="node">
<title>Scheduler</title>
<g id="a_node8"><a xlink:href="scheduler/10_scheduler.svg" xlink:title="Zoom Scheduler">
<path fill="#ede7f6" stroke="#512da8" d="M1311.75,-1687.5C1311.75,-1687.5 1276.25,-1687.5 1276.25,-1687.5 1270.25,-1687.5 1264.25,-1681.5 1264.25,-1675.5 1264.25,-1675.5 1264.25,-1663.5 1264.25,-1663.5 1264.25,-1657.5 1270.25,-1651.5 1276.25,-1651.5 1276.25,-1651.5 1311.75,-1651.5 1311.75,-1651.5 1317.75,-1651.5 1323.75,-1657.5 1323.75,-1663.5 1323.75,-1663.5 1323.75,-1675.5 1323.75,-1675.5 1323.75,-1681.5 1317.75,-1687.5 1311.75,-1687.5"/>
<text xml:space="preserve" text-anchor="middle" x="1294" y="-1666" font-family="Arial" font-size="10.00">Scheduler</text>
</a>
</g>
</g>
<!-- Proxy&#45;&gt;Scheduler -->
<g id="edge3" class="edge">
<title>Proxy&#45;&gt;Scheduler</title>
<path fill="none" stroke="black" d="M1471.75,-1764.17C1471.75,-1732.3 1471.75,-1670 1471.75,-1670 1471.75,-1670 1332.67,-1670 1332.67,-1670"/>
<polygon fill="black" stroke="black" points="1332.67,-1667.55 1325.67,-1670 1332.67,-1672.45 1332.67,-1667.55"/>
<text xml:space="preserve" text-anchor="middle" x="1345.25" y="-1726.95" font-family="Arial" font-size="9.00">emit(Event)</text>
</g>
<!-- LifecycleContract -->
<g id="node15" class="node">
<title>LifecycleContract</title>
<path fill="#eceff1" stroke="#455a64" d="M2829.75,-1018C2829.75,-1018 2764.25,-1018 2764.25,-1018 2758.25,-1018 2752.25,-1012 2752.25,-1006 2752.25,-1006 2752.25,-994 2752.25,-994 2752.25,-988 2758.25,-982 2764.25,-982 2764.25,-982 2829.75,-982 2829.75,-982 2835.75,-982 2841.75,-988 2841.75,-994 2841.75,-994 2841.75,-1006 2841.75,-1006 2841.75,-1012 2835.75,-1018 2829.75,-1018"/>
<text xml:space="preserve" text-anchor="middle" x="2797" y="-996.5" font-family="Arial" font-size="10.00">ComponentState</text>
</g>
<!-- Proxy&#45;&gt;LifecycleContract -->
<g id="edge13" class="edge">
<title>Proxy&#45;&gt;LifecycleContract</title>
<path fill="none" stroke="black" stroke-dasharray="1,5" d="M1536.44,-1764.12C1536.44,-1664.11 1536.44,-1190 1536.44,-1190 1536.44,-1190 2811.92,-1190 2811.92,-1190 2811.92,-1190 2811.92,-1026.73 2811.92,-1026.73"/>
<polygon fill="black" stroke="black" points="2814.37,-1026.73 2811.92,-1019.73 2809.47,-1026.73 2814.37,-1026.73"/>
</g>
<!-- ComponentContract -->
<g id="node16" class="node">
<title>ComponentContract</title>
<path fill="#eceff1" stroke="#455a64" d="M2704.12,-1018C2704.12,-1018 2661.88,-1018 2661.88,-1018 2655.88,-1018 2649.88,-1012 2649.88,-1006 2649.88,-1006 2649.88,-994 2649.88,-994 2649.88,-988 2655.88,-982 2661.88,-982 2661.88,-982 2704.12,-982 2704.12,-982 2710.12,-982 2716.12,-988 2716.12,-994 2716.12,-994 2716.12,-1006 2716.12,-1006 2716.12,-1012 2710.12,-1018 2704.12,-1018"/>
<text xml:space="preserve" text-anchor="middle" x="2683" y="-996.5" font-family="Arial" font-size="10.00">Component</text>
</g>
<!-- Proxy&#45;&gt;ComponentContract -->
<g id="edge25" class="edge">
<title>Proxy&#45;&gt;ComponentContract</title>
<path fill="none" stroke="black" stroke-dasharray="1,5" d="M1528.29,-1764.08C1528.29,-1662.77 1528.29,-1178 1528.29,-1178 1528.29,-1178 2683,-1178 2683,-1178 2683,-1178 2683,-1026.89 2683,-1026.89"/>
<polygon fill="black" stroke="black" points="2685.45,-1026.89 2683,-1019.89 2680.55,-1026.89 2685.45,-1026.89"/>
</g>
<!-- Dummy -->
<g id="node39" class="node">
<title>Dummy</title>
<g id="a_node39"><a xlink:href="experts/40_experts.svg" xlink:title="DummyExpert\ncurrent">
<path fill="#e8f5e9" stroke="#388e3c" d="M2666.5,-1687.5C2666.5,-1687.5 2611.5,-1687.5 2611.5,-1687.5 2605.5,-1687.5 2599.5,-1681.5 2599.5,-1675.5 2599.5,-1675.5 2599.5,-1663.5 2599.5,-1663.5 2599.5,-1657.5 2605.5,-1651.5 2611.5,-1651.5 2611.5,-1651.5 2666.5,-1651.5 2666.5,-1651.5 2672.5,-1651.5 2678.5,-1657.5 2678.5,-1663.5 2678.5,-1663.5 2678.5,-1675.5 2678.5,-1675.5 2678.5,-1681.5 2672.5,-1687.5 2666.5,-1687.5"/>
<text xml:space="preserve" text-anchor="middle" x="2639" y="-1672" font-family="Arial" font-size="10.00">DummyExpert</text>
<text xml:space="preserve" text-anchor="middle" x="2639" y="-1660" font-family="Arial" font-size="10.00">current</text>
</a>
</g>
</g>
<!-- Proxy&#45;&gt;Dummy -->
<g id="edge30" class="edge">
<title>Proxy&#45;&gt;Dummy</title>
<path fill="none" stroke="black" d="M1552.73,-1764.47C1552.73,-1734.82 1552.73,-1679 1552.73,-1679 1552.73,-1679 2590.54,-1679 2590.54,-1679"/>
<polygon fill="black" stroke="black" points="2590.54,-1681.45 2597.54,-1679 2590.54,-1676.55 2590.54,-1681.45"/>
<text xml:space="preserve" text-anchor="middle" x="2641.62" y="-1726.95" font-family="Arial" font-size="9.00">tick/asend</text>
</g>
<!-- Policy -->
<g id="node9" class="node">
<title>Policy</title>
<g id="a_node9"><a xlink:href="scheduler/10_scheduler.svg" xlink:title="PolicyEngine\npre&#45;queue gate">
<path fill="#ede7f6" stroke="#512da8" d="M1424.25,-1574.5C1424.25,-1574.5 1367.75,-1574.5 1367.75,-1574.5 1361.75,-1574.5 1355.75,-1568.5 1355.75,-1562.5 1355.75,-1562.5 1355.75,-1550.5 1355.75,-1550.5 1355.75,-1544.5 1361.75,-1538.5 1367.75,-1538.5 1367.75,-1538.5 1424.25,-1538.5 1424.25,-1538.5 1430.25,-1538.5 1436.25,-1544.5 1436.25,-1550.5 1436.25,-1550.5 1436.25,-1562.5 1436.25,-1562.5 1436.25,-1568.5 1430.25,-1574.5 1424.25,-1574.5"/>
<text xml:space="preserve" text-anchor="middle" x="1396" y="-1559" font-family="Arial" font-size="10.00">PolicyEngine</text>
<text xml:space="preserve" text-anchor="middle" x="1396" y="-1547" font-family="Arial" font-size="10.00">pre&#45;queue gate</text>
</a>
</g>
</g>
<!-- Scheduler&#45;&gt;Policy -->
<g id="edge4" class="edge">
<title>Scheduler&#45;&gt;Policy</title>
<path fill="none" stroke="black" d="M1294.94,-1651.47C1294.94,-1621.82 1294.94,-1566 1294.94,-1566 1294.94,-1566 1346.96,-1566 1346.96,-1566"/>
<polygon fill="black" stroke="black" points="1346.96,-1568.45 1353.96,-1566 1346.96,-1563.55 1346.96,-1568.45"/>
<text xml:space="preserve" text-anchor="middle" x="1345.5" y="-1613.95" font-family="Arial" font-size="9.00">decide(Event)</text>
</g>
<!-- EventContract -->
<g id="node14" class="node">
<title>EventContract</title>
<path fill="#eceff1" stroke="#455a64" d="M2480.12,-1018C2480.12,-1018 2413.88,-1018 2413.88,-1018 2407.88,-1018 2401.88,-1012 2401.88,-1006 2401.88,-1006 2401.88,-994 2401.88,-994 2401.88,-988 2407.88,-982 2413.88,-982 2413.88,-982 2480.12,-982 2480.12,-982 2486.12,-982 2492.12,-988 2492.12,-994 2492.12,-994 2492.12,-1006 2492.12,-1006 2492.12,-1012 2486.12,-1018 2480.12,-1018"/>
<text xml:space="preserve" text-anchor="middle" x="2447" y="-1002.5" font-family="Arial" font-size="10.00">Event + Request</text>
<text xml:space="preserve" text-anchor="middle" x="2447" y="-990.5" font-family="Arial" font-size="10.00">uuid id</text>
</g>
<!-- Scheduler&#45;&gt;EventContract -->
<g id="edge22" class="edge">
<title>Scheduler&#45;&gt;EventContract</title>
<path fill="none" stroke="black" stroke-dasharray="1,5" d="M1323.96,-1661C1508.41,-1661 2482,-1661 2482,-1661 2482,-1661 2482,-1026.88 2482,-1026.88"/>
<polygon fill="black" stroke="black" points="2484.45,-1026.88 2482,-1019.88 2479.55,-1026.88 2484.45,-1026.88"/>
</g>
<!-- ContextEngine -->
<g id="node21" class="node">
<title>ContextEngine</title>
<g id="a_node21"><a xlink:href="context/20_context.svg" xlink:title="ContextEngine">
<path fill="#fff3e0" stroke="#ef6c00" d="M256.25,-1800.5C256.25,-1800.5 199.75,-1800.5 199.75,-1800.5 193.75,-1800.5 187.75,-1794.5 187.75,-1788.5 187.75,-1788.5 187.75,-1776.5 187.75,-1776.5 187.75,-1770.5 193.75,-1764.5 199.75,-1764.5 199.75,-1764.5 256.25,-1764.5 256.25,-1764.5 262.25,-1764.5 268.25,-1770.5 268.25,-1776.5 268.25,-1776.5 268.25,-1788.5 268.25,-1788.5 268.25,-1794.5 262.25,-1800.5 256.25,-1800.5"/>
<text xml:space="preserve" text-anchor="middle" x="228" y="-1779" font-family="Arial" font-size="10.00">ContextEngine</text>
</a>
</g>
</g>
<!-- Scheduler&#45;&gt;ContextEngine -->
<g id="edge14" class="edge">
<title>Scheduler&#45;&gt;ContextEngine</title>
<path fill="none" stroke="black" d="M1294,-1687.91C1294,-1721.43 1294,-1789 1294,-1789 1294,-1789 277,-1789 277,-1789"/>
<polygon fill="black" stroke="black" points="277,-1786.55 270,-1789 277,-1791.45 277,-1786.55"/>
<text xml:space="preserve" text-anchor="middle" x="486.38" y="-1726.95" font-family="Arial" font-size="9.00">clock tick</text>
</g>
<!-- KernelTelemetry -->
<g id="node44" class="node">
<title>KernelTelemetry</title>
<g id="a_node44"><a xlink:href="observability/70_observability.svg" xlink:title="KernelTelemetry&#10;current">
<path fill="#f5f5f5" stroke="#666666" d="M484.25,-1357C484.25,-1357 421.75,-1357 421.75,-1357 415.75,-1357 409.75,-1351 409.75,-1345 409.75,-1345 409.75,-1333 409.75,-1333 409.75,-1327 415.75,-1321 421.75,-1321 421.75,-1321 484.25,-1321 484.25,-1321 490.25,-1321 496.25,-1327 496.25,-1333 496.25,-1333 496.25,-1345 496.25,-1345 496.25,-1351 490.25,-1357 484.25,-1357"/>
<text xml:space="preserve" text-anchor="middle" x="453" y="-1341.5" font-family="Arial" font-size="10.00">KernelTelemetry</text>
<text xml:space="preserve" text-anchor="middle" x="453" y="-1329.5" font-family="Arial" font-size="10.00">current</text>
</a>
</g>
</g>
<!-- Scheduler&#45;&gt;KernelTelemetry -->
<g id="edge40" class="edge">
<title>Scheduler&#45;&gt;KernelTelemetry</title>
<path fill="none" stroke="black" stroke-dasharray="5,2" d="M1263.88,-1664C1114.66,-1664 461.65,-1664 461.65,-1664 461.65,-1664 461.65,-1365.92 461.65,-1365.92"/>
<polygon fill="black" stroke="black" points="464.1,-1365.92 461.65,-1358.92 459.2,-1365.92 464.1,-1365.92"/>
<text xml:space="preserve" text-anchor="middle" x="820.75" y="-1500.95" font-family="Arial" font-size="9.00">measure enqueue/dequeue/latency</text>
</g>
<!-- Policy&#45;&gt;Proxy -->
<g id="edge7" class="edge">
<title>Policy&#45;&gt;Proxy</title>
<path fill="none" stroke="black" stroke-dasharray="5,2" d="M1436.56,-1563C1455.69,-1563 1474.38,-1563 1474.38,-1563 1474.38,-1563 1474.38,-1755.65 1474.38,-1755.65"/>
<polygon fill="black" stroke="black" points="1471.93,-1755.65 1474.38,-1762.65 1476.83,-1755.65 1471.93,-1755.65"/>
<text xml:space="preserve" text-anchor="middle" x="1434.62" y="-1666.2" font-family="Arial" font-size="9.00">denied &#45;&gt; Decision</text>
</g>
<!-- Queue -->
<g id="node10" class="node">
<title>Queue</title>
<g id="a_node10"><a xlink:href="scheduler/priority_queue/13_priority_queue.svg" xlink:title="PriorityQueue\nFIFO same priority">
<path fill="#ede7f6" stroke="#512da8" d="M1351.88,-1470C1351.88,-1470 1278.12,-1470 1278.12,-1470 1272.12,-1470 1266.12,-1464 1266.12,-1458 1266.12,-1458 1266.12,-1446 1266.12,-1446 1266.12,-1440 1272.12,-1434 1278.12,-1434 1278.12,-1434 1351.88,-1434 1351.88,-1434 1357.88,-1434 1363.88,-1440 1363.88,-1446 1363.88,-1446 1363.88,-1458 1363.88,-1458 1363.88,-1464 1357.88,-1470 1351.88,-1470"/>
<text xml:space="preserve" text-anchor="middle" x="1315" y="-1454.5" font-family="Arial" font-size="10.00">PriorityQueue</text>
<text xml:space="preserve" text-anchor="middle" x="1315" y="-1442.5" font-family="Arial" font-size="10.00">FIFO same priority</text>
</a>
</g>
</g>
<!-- Policy&#45;&gt;Queue -->
<g id="edge5" class="edge">
<title>Policy&#45;&gt;Queue</title>
<path fill="none" stroke="black" d="M1359.81,-1538.3C1359.81,-1538.3 1359.81,-1478.86 1359.81,-1478.86"/>
<polygon fill="black" stroke="black" points="1362.26,-1478.86 1359.81,-1471.86 1357.36,-1478.86 1362.26,-1478.86"/>
<text xml:space="preserve" text-anchor="middle" x="1374.88" y="-1500.95" font-family="Arial" font-size="9.00">allowed &#45;&gt; put(priority, event)</text>
</g>
<!-- EventBus -->
<g id="node12" class="node">
<title>EventBus</title>
<g id="a_node12"><a xlink:href="scheduler/event_bus/12_event_bus.svg" xlink:title="EventBus\nobservation only">
<path fill="#ede7f6" stroke="#512da8" d="M1467.62,-1244C1467.62,-1244 1404.38,-1244 1404.38,-1244 1398.38,-1244 1392.38,-1238 1392.38,-1232 1392.38,-1232 1392.38,-1220 1392.38,-1220 1392.38,-1214 1398.38,-1208 1404.38,-1208 1404.38,-1208 1467.62,-1208 1467.62,-1208 1473.62,-1208 1479.62,-1214 1479.62,-1220 1479.62,-1220 1479.62,-1232 1479.62,-1232 1479.62,-1238 1473.62,-1244 1467.62,-1244"/>
<text xml:space="preserve" text-anchor="middle" x="1436" y="-1228.5" font-family="Arial" font-size="10.00">EventBus</text>
<text xml:space="preserve" text-anchor="middle" x="1436" y="-1216.5" font-family="Arial" font-size="10.00">observation only</text>
</a>
</g>
</g>
<!-- Policy&#45;&gt;EventBus -->
<g id="edge6" class="edge">
<title>Policy&#45;&gt;EventBus</title>
<path fill="none" stroke="black" stroke-dasharray="5,2" d="M1425.56,-1538.26C1425.56,-1538.26 1425.56,-1252.7 1425.56,-1252.7"/>
<polygon fill="black" stroke="black" points="1428.01,-1252.7 1425.56,-1245.7 1423.11,-1252.7 1428.01,-1252.7"/>
<text xml:space="preserve" text-anchor="middle" x="1509" y="-1396.45" font-family="Arial" font-size="9.00">denied &#45;&gt; POLICY_DENIED</text>
</g>
<!-- PolicyContract -->
<g id="node19" class="node">
<title>PolicyContract</title>
<path fill="#eceff1" stroke="#455a64" d="M2602.25,-1018C2602.25,-1018 2539.75,-1018 2539.75,-1018 2533.75,-1018 2527.75,-1012 2527.75,-1006 2527.75,-1006 2527.75,-994 2527.75,-994 2527.75,-988 2533.75,-982 2539.75,-982 2539.75,-982 2602.25,-982 2602.25,-982 2608.25,-982 2614.25,-988 2614.25,-994 2614.25,-994 2614.25,-1006 2614.25,-1006 2614.25,-1012 2608.25,-1018 2602.25,-1018"/>
<text xml:space="preserve" text-anchor="middle" x="2571" y="-1002.5" font-family="Arial" font-size="10.00">Decision</text>
<text xml:space="preserve" text-anchor="middle" x="2571" y="-990.5" font-family="Arial" font-size="10.00">allowed / denied</text>
</g>
<!-- Policy&#45;&gt;PolicyContract -->
<g id="edge23" class="edge">
<title>Policy&#45;&gt;PolicyContract</title>
<path fill="none" stroke="black" stroke-dasharray="1,5" d="M1436.52,-1551C1642.48,-1551 2563.44,-1551 2563.44,-1551 2563.44,-1551 2563.44,-1026.85 2563.44,-1026.85"/>
<polygon fill="black" stroke="black" points="2565.89,-1026.85 2563.44,-1019.85 2560.99,-1026.85 2565.89,-1026.85"/>
</g>
<!-- Policy&#45;&gt;KernelTelemetry -->
<g id="edge41" class="edge">
<title>Policy&#45;&gt;KernelTelemetry</title>
<path fill="none" stroke="black" stroke-dasharray="5,2" d="M1355.41,-1548C1177.94,-1548 478.95,-1548 478.95,-1548 478.95,-1548 478.95,-1365.7 478.95,-1365.7"/>
<polygon fill="black" stroke="black" points="481.4,-1365.7 478.95,-1358.7 476.5,-1365.7 481.4,-1365.7"/>
<text xml:space="preserve" text-anchor="middle" x="855.62" y="-1448.7" font-family="Arial" font-size="9.00">denied count</text>
</g>
<!-- Dispatcher -->
<g id="node11" class="node">
<title>Dispatcher</title>
<g id="a_node11"><a xlink:href="scheduler/dispatcher/11_dispatcher.svg" xlink:title="Dispatcher\nno handler = no block">
<path fill="#ede7f6" stroke="#512da8" d="M1402.88,-1357C1402.88,-1357 1317.12,-1357 1317.12,-1357 1311.12,-1357 1305.12,-1351 1305.12,-1345 1305.12,-1345 1305.12,-1333 1305.12,-1333 1305.12,-1327 1311.12,-1321 1317.12,-1321 1317.12,-1321 1402.88,-1321 1402.88,-1321 1408.88,-1321 1414.88,-1327 1414.88,-1333 1414.88,-1333 1414.88,-1345 1414.88,-1345 1414.88,-1351 1408.88,-1357 1402.88,-1357"/>
<text xml:space="preserve" text-anchor="middle" x="1360" y="-1341.5" font-family="Arial" font-size="10.00">Dispatcher</text>
<text xml:space="preserve" text-anchor="middle" x="1360" y="-1329.5" font-family="Arial" font-size="10.00">no handler = no block</text>
</a>
</g>
</g>
<!-- Queue&#45;&gt;Dispatcher -->
<g id="edge8" class="edge">
<title>Queue&#45;&gt;Dispatcher</title>
<path fill="none" stroke="black" d="M1344.29,-1433.59C1344.29,-1433.59 1344.29,-1365.91 1344.29,-1365.91"/>
<polygon fill="black" stroke="black" points="1346.74,-1365.91 1344.29,-1358.91 1341.84,-1365.91 1346.74,-1365.91"/>
<text xml:space="preserve" text-anchor="middle" x="1352.12" y="-1396.45" font-family="Arial" font-size="9.00">get(), FIFO if same priority</text>
</g>
<!-- Dispatcher&#45;&gt;Proxy -->
<g id="edge11" class="edge">
<title>Dispatcher&#45;&gt;Proxy</title>
<path fill="none" stroke="black" stroke-dasharray="5,2" d="M1415.07,-1345C1445.42,-1345 1477,-1345 1477,-1345 1477,-1345 1477,-1755.74 1477,-1755.74"/>
<polygon fill="black" stroke="black" points="1474.55,-1755.74 1477,-1762.74 1479.45,-1755.74 1474.55,-1755.74"/>
<text xml:space="preserve" text-anchor="middle" x="1537.5" y="-1553.2" font-family="Arial" font-size="9.00">Request.reply</text>
</g>
<!-- Dispatcher&#45;&gt;EventBus -->
<g id="edge10" class="edge">
<title>Dispatcher&#45;&gt;EventBus</title>
<path fill="none" stroke="black" d="M1409.25,-1320.59C1409.25,-1320.59 1409.25,-1252.91 1409.25,-1252.91"/>
<polygon fill="black" stroke="black" points="1411.7,-1252.91 1409.25,-1245.91 1406.8,-1252.91 1411.7,-1252.91"/>
<text xml:space="preserve" text-anchor="middle" x="1414.88" y="-1283.45" font-family="Arial" font-size="9.00">publish copy</text>
</g>
<!-- Lifecycle -->
<g id="node13" class="node">
<title>Lifecycle</title>
<g id="a_node13"><a xlink:href="scheduler/10_scheduler.svg" xlink:title="LifecycleManager\nComponentState">
<path fill="#ede7f6" stroke="#512da8" d="M1344.25,-1244C1344.25,-1244 1275.75,-1244 1275.75,-1244 1269.75,-1244 1263.75,-1238 1263.75,-1232 1263.75,-1232 1263.75,-1220 1263.75,-1220 1263.75,-1214 1269.75,-1208 1275.75,-1208 1275.75,-1208 1344.25,-1208 1344.25,-1208 1350.25,-1208 1356.25,-1214 1356.25,-1220 1356.25,-1220 1356.25,-1232 1356.25,-1232 1356.25,-1238 1350.25,-1244 1344.25,-1244"/>
<text xml:space="preserve" text-anchor="middle" x="1310" y="-1228.5" font-family="Arial" font-size="10.00">LifecycleManager</text>
<text xml:space="preserve" text-anchor="middle" x="1310" y="-1216.5" font-family="Arial" font-size="10.00">ComponentState</text>
</a>
</g>
</g>
<!-- Dispatcher&#45;&gt;Lifecycle -->
<g id="edge9" class="edge">
<title>Dispatcher&#45;&gt;Lifecycle</title>
<path fill="none" stroke="black" d="M1330.69,-1320.59C1330.69,-1320.59 1330.69,-1252.91 1330.69,-1252.91"/>
<polygon fill="black" stroke="black" points="1333.14,-1252.91 1330.69,-1245.91 1328.24,-1252.91 1333.14,-1252.91"/>
<text xml:space="preserve" text-anchor="middle" x="1328.75" y="-1283.45" font-family="Arial" font-size="9.00">handler</text>
</g>
<!-- Collector -->
<g id="node22" class="node">
<title>Collector</title>
<g id="a_node22"><a xlink:href="context/20_context.svg" xlink:title="ContextCollector">
<path fill="#fff3e0" stroke="#ef6c00" d="M255.75,-1687.5C255.75,-1687.5 190.25,-1687.5 190.25,-1687.5 184.25,-1687.5 178.25,-1681.5 178.25,-1675.5 178.25,-1675.5 178.25,-1663.5 178.25,-1663.5 178.25,-1657.5 184.25,-1651.5 190.25,-1651.5 190.25,-1651.5 255.75,-1651.5 255.75,-1651.5 261.75,-1651.5 267.75,-1657.5 267.75,-1663.5 267.75,-1663.5 267.75,-1675.5 267.75,-1675.5 267.75,-1681.5 261.75,-1687.5 255.75,-1687.5"/>
<text xml:space="preserve" text-anchor="middle" x="223" y="-1666" font-family="Arial" font-size="10.00">ContextCollector</text>
</a>
</g>
</g>
<!-- Dispatcher&#45;&gt;Collector -->
<g id="edge17" class="edge">
<title>Dispatcher&#45;&gt;Collector</title>
<path fill="none" stroke="black" stroke-dasharray="5,2" d="M1324.71,-1357.35C1324.71,-1374.01 1324.71,-1396 1324.71,-1396 1324.71,-1396 261.94,-1396 261.94,-1396 261.94,-1396 261.94,-1642.62 261.94,-1642.62"/>
<polygon fill="black" stroke="black" points="259.49,-1642.62 261.94,-1649.62 264.39,-1642.62 259.49,-1642.62"/>
<text xml:space="preserve" text-anchor="middle" x="678.5" y="-1500.95" font-family="Arial" font-size="9.00">Request.reply</text>
</g>
<!-- InferenceHandler -->
<g id="node33" class="node">
<title>InferenceHandler</title>
<g id="a_node33"><a xlink:href="inference/40_inference.svg" xlink:title="InferenceRequestHandler">
<path fill="#fffde7" stroke="#f9a825" d="M1705.5,-1244C1705.5,-1244 1602.5,-1244 1602.5,-1244 1596.5,-1244 1590.5,-1238 1590.5,-1232 1590.5,-1232 1590.5,-1220 1590.5,-1220 1590.5,-1214 1596.5,-1208 1602.5,-1208 1602.5,-1208 1705.5,-1208 1705.5,-1208 1711.5,-1208 1717.5,-1214 1717.5,-1220 1717.5,-1220 1717.5,-1232 1717.5,-1232 1717.5,-1238 1711.5,-1244 1705.5,-1244"/>
<text xml:space="preserve" text-anchor="middle" x="1654" y="-1222.5" font-family="Arial" font-size="10.00">InferenceRequestHandler</text>
</a>
</g>
</g>
<!-- Dispatcher&#45;&gt;InferenceHandler -->
<g id="edge31" class="edge">
<title>Dispatcher&#45;&gt;InferenceHandler</title>
<path fill="none" stroke="black" d="M1415.21,-1333C1494.93,-1333 1632.83,-1333 1632.83,-1333 1632.83,-1333 1632.83,-1252.66 1632.83,-1252.66"/>
<polygon fill="black" stroke="black" points="1635.28,-1252.66 1632.83,-1245.66 1630.38,-1252.66 1635.28,-1252.66"/>
<text xml:space="preserve" text-anchor="middle" x="1603.62" y="-1283.45" font-family="Arial" font-size="9.00">INFERENCE_REQUEST</text>
</g>
<!-- Router -->
<g id="node27" class="node">
<title>Router</title>
<g id="a_node27"><a xlink:href="services/30_services.svg" xlink:title="Router">
<path fill="#e1f5fe" stroke="#0288d1" d="M1554,-1131C1554,-1131 1524,-1131 1524,-1131 1518,-1131 1512,-1125 1512,-1119 1512,-1119 1512,-1107 1512,-1107 1512,-1101 1518,-1095 1524,-1095 1524,-1095 1554,-1095 1554,-1095 1560,-1095 1566,-1101 1566,-1107 1566,-1107 1566,-1119 1566,-1119 1566,-1125 1560,-1131 1554,-1131"/>
<text xml:space="preserve" text-anchor="middle" x="1539" y="-1109.5" font-family="Arial" font-size="10.00">Router</text>
</a>
</g>
</g>
<!-- EventBus&#45;&gt;Router -->
<g id="edge86" class="edge">
<title>EventBus&#45;&gt;Router</title>
<path fill="none" stroke="black" stroke-dasharray="5,2" d="M1480.04,-1217C1500.4,-1217 1520.15,-1217 1520.15,-1217 1520.15,-1217 1520.15,-1139.63 1520.15,-1139.63"/>
<polygon fill="black" stroke="black" points="1522.6,-1139.63 1520.15,-1132.63 1517.7,-1139.63 1522.6,-1139.63"/>
<text xml:space="preserve" text-anchor="middle" x="1530.25" y="-1170.45" font-family="Arial" font-size="9.00">future events</text>
</g>
<!-- SQLiteProd -->
<g id="node28" class="node">
<title>SQLiteProd</title>
<g id="a_node28"><a xlink:href="services/30_services.svg" xlink:title="SQLite Production">
<path fill="#e1f5fe" stroke="#0288d1" d="M1003.75,-1131C1003.75,-1131 932.25,-1131 932.25,-1131 926.25,-1131 920.25,-1125 920.25,-1119 920.25,-1119 920.25,-1107 920.25,-1107 920.25,-1101 926.25,-1095 932.25,-1095 932.25,-1095 1003.75,-1095 1003.75,-1095 1009.75,-1095 1015.75,-1101 1015.75,-1107 1015.75,-1107 1015.75,-1119 1015.75,-1119 1015.75,-1125 1009.75,-1131 1003.75,-1131"/>
<text xml:space="preserve" text-anchor="middle" x="968" y="-1109.5" font-family="Arial" font-size="10.00">SQLite Production</text>
</a>
</g>
</g>
<!-- EventBus&#45;&gt;SQLiteProd -->
<g id="edge87" class="edge">
<title>EventBus&#45;&gt;SQLiteProd</title>
<path fill="none" stroke="black" stroke-dasharray="5,2" d="M1420.33,-1207.75C1420.33,-1184.98 1420.33,-1149 1420.33,-1149 1420.33,-1149 968,-1149 968,-1149 968,-1149 968,-1139.94 968,-1139.94"/>
<polygon fill="black" stroke="black" points="970.45,-1139.94 968,-1132.94 965.55,-1139.94 970.45,-1139.94"/>
</g>
<!-- SQLiteMaint -->
<g id="node29" class="node">
<title>SQLiteMaint</title>
<g id="a_node29"><a xlink:href="services/30_services.svg" xlink:title="SQLite Maintenance">
<path fill="#e1f5fe" stroke="#0288d1" d="M1144.25,-1131C1144.25,-1131 1063.75,-1131 1063.75,-1131 1057.75,-1131 1051.75,-1125 1051.75,-1119 1051.75,-1119 1051.75,-1107 1051.75,-1107 1051.75,-1101 1057.75,-1095 1063.75,-1095 1063.75,-1095 1144.25,-1095 1144.25,-1095 1150.25,-1095 1156.25,-1101 1156.25,-1107 1156.25,-1107 1156.25,-1119 1156.25,-1119 1156.25,-1125 1150.25,-1131 1144.25,-1131"/>
<text xml:space="preserve" text-anchor="middle" x="1104" y="-1109.5" font-family="Arial" font-size="10.00">SQLite Maintenance</text>
</a>
</g>
</g>
<!-- EventBus&#45;&gt;SQLiteMaint -->
<g id="edge88" class="edge">
<title>EventBus&#45;&gt;SQLiteMaint</title>
<path fill="none" stroke="black" stroke-dasharray="5,2" d="M1434.31,-1207.58C1434.31,-1183.13 1434.31,-1143 1434.31,-1143 1434.31,-1143 1104,-1143 1104,-1143 1104,-1143 1104,-1140 1104,-1140"/>
<polygon fill="black" stroke="black" points="1106.45,-1140 1104,-1133 1101.55,-1140 1106.45,-1140"/>
</g>
<!-- Qdrant -->
<g id="node30" class="node">
<title>Qdrant</title>
<g id="a_node30"><a xlink:href="services/30_services.svg" xlink:title="Qdrant">
<path fill="#e1f5fe" stroke="#0288d1" d="M1234,-1131C1234,-1131 1204,-1131 1204,-1131 1198,-1131 1192,-1125 1192,-1119 1192,-1119 1192,-1107 1192,-1107 1192,-1101 1198,-1095 1204,-1095 1204,-1095 1234,-1095 1234,-1095 1240,-1095 1246,-1101 1246,-1107 1246,-1107 1246,-1119 1246,-1119 1246,-1125 1240,-1131 1234,-1131"/>
<text xml:space="preserve" text-anchor="middle" x="1219" y="-1109.5" font-family="Arial" font-size="10.00">Qdrant</text>
</a>
</g>
</g>
<!-- EventBus&#45;&gt;Qdrant -->
<g id="edge89" class="edge">
<title>EventBus&#45;&gt;Qdrant</title>
<path fill="none" stroke="black" stroke-dasharray="5,2" d="M1448.29,-1207.56C1448.29,-1181.49 1448.29,-1137 1448.29,-1137 1448.29,-1137 1219,-1137 1219,-1137 1219,-1137 1219,-1136.44 1219,-1136.44"/>
<polygon fill="black" stroke="black" points="1221.45,-1139.95 1219,-1132.95 1216.55,-1139.95 1221.45,-1139.95"/>
</g>
<!-- Cache -->
<g id="node31" class="node">
<title>Cache</title>
<g id="a_node31"><a xlink:href="services/30_services.svg" xlink:title="Cache">
<path fill="#e1f5fe" stroke="#0288d1" d="M1324,-1131C1324,-1131 1294,-1131 1294,-1131 1288,-1131 1282,-1125 1282,-1119 1282,-1119 1282,-1107 1282,-1107 1282,-1101 1288,-1095 1294,-1095 1294,-1095 1324,-1095 1324,-1095 1330,-1095 1336,-1101 1336,-1107 1336,-1107 1336,-1119 1336,-1119 1336,-1125 1330,-1131 1324,-1131"/>
<text xml:space="preserve" text-anchor="middle" x="1309" y="-1109.5" font-family="Arial" font-size="10.00">Cache</text>
</a>
</g>
</g>
<!-- EventBus&#45;&gt;Cache -->
<g id="edge90" class="edge">
<title>EventBus&#45;&gt;Cache</title>
<path fill="none" stroke="black" stroke-dasharray="5,2" d="M1392.04,-1226C1377.05,-1226 1364,-1226 1364,-1226 1364,-1226 1364,-1113 1364,-1113 1364,-1113 1345.01,-1113 1345.01,-1113"/>
<polygon fill="black" stroke="black" points="1345.01,-1110.55 1338.01,-1113 1345.01,-1115.45 1345.01,-1110.55"/>
</g>
<!-- Knowledge -->
<g id="node32" class="node">
<title>Knowledge</title>
<g id="a_node32"><a xlink:href="services/30_services.svg" xlink:title="Knowledge Manager">
<path fill="#e1f5fe" stroke="#0288d1" d="M1464.25,-1131C1464.25,-1131 1383.75,-1131 1383.75,-1131 1377.75,-1131 1371.75,-1125 1371.75,-1119 1371.75,-1119 1371.75,-1107 1371.75,-1107 1371.75,-1101 1377.75,-1095 1383.75,-1095 1383.75,-1095 1464.25,-1095 1464.25,-1095 1470.25,-1095 1476.25,-1101 1476.25,-1107 1476.25,-1107 1476.25,-1119 1476.25,-1119 1476.25,-1125 1470.25,-1131 1464.25,-1131"/>
<text xml:space="preserve" text-anchor="middle" x="1424" y="-1109.5" font-family="Arial" font-size="10.00">Knowledge Manager</text>
</a>
</g>
</g>
<!-- EventBus&#45;&gt;Knowledge -->
<g id="edge91" class="edge">
<title>EventBus&#45;&gt;Knowledge</title>
<path fill="none" stroke="black" stroke-dasharray="5,2" d="M1462.27,-1207.59C1462.27,-1207.59 1462.27,-1139.91 1462.27,-1139.91"/>
<polygon fill="black" stroke="black" points="1464.72,-1139.91 1462.27,-1132.91 1459.82,-1139.91 1464.72,-1139.91"/>
</g>
<!-- Logger -->
<g id="node43" class="node">
<title>Logger</title>
<g id="a_node43"><a xlink:href="observability/70_observability.svg" xlink:title="Logger">
<path fill="#f5f5f5" stroke="#666666" d="M574,-1357C574,-1357 544,-1357 544,-1357 538,-1357 532,-1351 532,-1345 532,-1345 532,-1333 532,-1333 532,-1327 538,-1321 544,-1321 544,-1321 574,-1321 574,-1321 580,-1321 586,-1327 586,-1333 586,-1333 586,-1345 586,-1345 586,-1351 580,-1357 574,-1357"/>
<text xml:space="preserve" text-anchor="middle" x="559" y="-1335.5" font-family="Arial" font-size="10.00">Logger</text>
</a>
</g>
</g>
<!-- EventBus&#45;&gt;Logger -->
<g id="edge45" class="edge">
<title>EventBus&#45;&gt;Logger</title>
<path fill="none" stroke="black" stroke-dasharray="5,2" d="M1403.62,-1244.49C1403.62,-1264.93 1403.62,-1295 1403.62,-1295 1403.62,-1295 574.17,-1295 574.17,-1295 574.17,-1295 574.17,-1312.08 574.17,-1312.08"/>
<polygon fill="black" stroke="black" points="571.72,-1312.08 574.17,-1319.08 576.62,-1312.08 571.72,-1312.08"/>
</g>
<!-- EventRecorder -->
<g id="node46" class="node">
<title>EventRecorder</title>
<g id="a_node46"><a xlink:href="observability/70_observability.svg" xlink:title="EventRecorder&#10;current">
<path fill="#f5f5f5" stroke="#666666" d="M361.62,-1357C361.62,-1357 304.38,-1357 304.38,-1357 298.38,-1357 292.38,-1351 292.38,-1345 292.38,-1345 292.38,-1333 292.38,-1333 292.38,-1327 298.38,-1321 304.38,-1321 304.38,-1321 361.62,-1321 361.62,-1321 367.62,-1321 373.62,-1327 373.62,-1333 373.62,-1333 373.62,-1345 373.62,-1345 373.62,-1351 367.62,-1357 361.62,-1357"/>
<text xml:space="preserve" text-anchor="middle" x="333" y="-1341.5" font-family="Arial" font-size="10.00">EventRecorder</text>
<text xml:space="preserve" text-anchor="middle" x="333" y="-1329.5" font-family="Arial" font-size="10.00">current</text>
</a>
</g>
</g>
<!-- EventBus&#45;&gt;EventRecorder -->
<g id="edge47" class="edge">
<title>EventBus&#45;&gt;EventRecorder</title>
<path fill="none" stroke="black" stroke-dasharray="5,2" d="M1398,-1244.41C1398,-1256.46 1398,-1270 1398,-1270 1398,-1270 346.54,-1270 346.54,-1270 346.54,-1270 346.54,-1312 346.54,-1312"/>
<polygon fill="black" stroke="black" points="344.09,-1312 346.54,-1319 348.99,-1312 344.09,-1312"/>
<text xml:space="preserve" text-anchor="middle" x="683" y="-1283.45" font-family="Arial" font-size="9.00">record copy</text>
</g>
<!-- Metrics -->
<g id="node61" class="node">
<title>Metrics</title>
<g id="a_node61"><a xlink:href="observability/70_observability.svg" xlink:title="Metrics">
<path fill="#f5f5f5" stroke="#666666" d="M491,-1131C491,-1131 461,-1131 461,-1131 455,-1131 449,-1125 449,-1119 449,-1119 449,-1107 449,-1107 449,-1101 455,-1095 461,-1095 461,-1095 491,-1095 491,-1095 497,-1095 503,-1101 503,-1107 503,-1107 503,-1119 503,-1119 503,-1125 497,-1131 491,-1131"/>
<text xml:space="preserve" text-anchor="middle" x="476" y="-1109.5" font-family="Arial" font-size="10.00">Metrics</text>
</a>
</g>
</g>
<!-- EventBus&#45;&gt;Metrics -->
<g id="edge46" class="edge">
<title>EventBus&#45;&gt;Metrics</title>
<path fill="none" stroke="black" stroke-dasharray="5,2" d="M1406.35,-1207.66C1406.35,-1190.34 1406.35,-1167 1406.35,-1167 1406.35,-1167 485,-1167 485,-1167 485,-1167 485,-1139.8 485,-1139.8"/>
<polygon fill="black" stroke="black" points="487.45,-1139.8 485,-1132.8 482.55,-1139.8 487.45,-1139.8"/>
</g>
<!-- Lifecycle&#45;&gt;LifecycleContract -->
<g id="edge12" class="edge">
<title>Lifecycle&#45;&gt;LifecycleContract</title>
<path fill="none" stroke="black" stroke-dasharray="1,5" d="M1346.12,-1207.94C1346.12,-1196.56 1346.12,-1184 1346.12,-1184 1346.12,-1184 2782.08,-1184 2782.08,-1184 2782.08,-1184 2782.08,-1026.83 2782.08,-1026.83"/>
<polygon fill="black" stroke="black" points="2784.53,-1026.83 2782.08,-1019.83 2779.63,-1026.83 2784.53,-1026.83"/>
</g>
<!-- ContextContract -->
<g id="node17" class="node">
<title>ContextContract</title>
<path fill="#eceff1" stroke="#455a64" d="M2223.88,-1018C2223.88,-1018 2156.12,-1018 2156.12,-1018 2150.12,-1018 2144.12,-1012 2144.12,-1006 2144.12,-1006 2144.12,-994 2144.12,-994 2144.12,-988 2150.12,-982 2156.12,-982 2156.12,-982 2223.88,-982 2223.88,-982 2229.88,-982 2235.88,-988 2235.88,-994 2235.88,-994 2235.88,-1006 2235.88,-1006 2235.88,-1012 2229.88,-1018 2223.88,-1018"/>
<text xml:space="preserve" text-anchor="middle" x="2190" y="-996.5" font-family="Arial" font-size="10.00">ContextSnapshot</text>
</g>
<!-- InferenceContract -->
<g id="node18" class="node">
<title>InferenceContract</title>
<path fill="#eceff1" stroke="#455a64" d="M2353.62,-1018C2353.62,-1018 2284.38,-1018 2284.38,-1018 2278.38,-1018 2272.38,-1012 2272.38,-1006 2272.38,-1006 2272.38,-994 2272.38,-994 2272.38,-988 2278.38,-982 2284.38,-982 2284.38,-982 2353.62,-982 2353.62,-982 2359.62,-982 2365.62,-988 2365.62,-994 2365.62,-994 2365.62,-1006 2365.62,-1006 2365.62,-1012 2359.62,-1018 2353.62,-1018"/>
<text xml:space="preserve" text-anchor="middle" x="2319" y="-1002.5" font-family="Arial" font-size="10.00">InferenceRequest</text>
<text xml:space="preserve" text-anchor="middle" x="2319" y="-990.5" font-family="Arial" font-size="10.00">InferenceResult</text>
</g>
<!-- TelemetryContract -->
<g id="node20" class="node">
<title>TelemetryContract</title>
<path fill="#eceff1" stroke="#455a64" d="M2096,-1018C2096,-1018 2020,-1018 2020,-1018 2014,-1018 2008,-1012 2008,-1006 2008,-1006 2008,-994 2008,-994 2008,-988 2014,-982 2020,-982 2020,-982 2096,-982 2096,-982 2102,-982 2108,-988 2108,-994 2108,-994 2108,-1006 2108,-1006 2108,-1012 2102,-1018 2096,-1018"/>
<text xml:space="preserve" text-anchor="middle" x="2058" y="-1002.5" font-family="Arial" font-size="10.00">TelemetrySnapshot</text>
<text xml:space="preserve" text-anchor="middle" x="2058" y="-990.5" font-family="Arial" font-size="10.00">immutable</text>
</g>
<!-- ContextEngine&#45;&gt;ContextContract -->
<g id="edge26" class="edge">
<title>ContextEngine&#45;&gt;ContextContract</title>
<path fill="none" stroke="black" stroke-dasharray="1,5" d="M241.08,-1764.31C241.08,-1747.8 241.08,-1726 241.08,-1726 241.08,-1726 2206.31,-1726 2206.31,-1726 2206.31,-1726 2206.31,-1026.82 2206.31,-1026.82"/>
<polygon fill="black" stroke="black" points="2208.76,-1026.82 2206.31,-1019.82 2203.86,-1026.82 2208.76,-1026.82"/>
</g>
<!-- ContextEngine&#45;&gt;Collector -->
<g id="edge15" class="edge">
<title>ContextEngine&#45;&gt;Collector</title>
<path fill="none" stroke="black" d="M214.42,-1764.09C214.42,-1764.09 214.42,-1696.41 214.42,-1696.41"/>
<polygon fill="black" stroke="black" points="216.87,-1696.41 214.42,-1689.41 211.97,-1696.41 216.87,-1696.41"/>
</g>
<!-- ContextEngine&#45;&gt;KernelTelemetry -->
<g id="edge42" class="edge">
<title>ContextEngine&#45;&gt;KernelTelemetry</title>
<path fill="none" stroke="black" stroke-dasharray="5,2" d="M268.28,-1771C326.44,-1771 427.05,-1771 427.05,-1771 427.05,-1771 427.05,-1365.8 427.05,-1365.8"/>
<polygon fill="black" stroke="black" points="429.5,-1365.8 427.05,-1358.8 424.6,-1365.8 429.5,-1365.8"/>
<text xml:space="preserve" text-anchor="middle" x="445.75" y="-1553.2" font-family="Arial" font-size="9.00">context ticks</text>
</g>
<!-- Collector&#45;&gt;Scheduler -->
<g id="edge16" class="edge">
<title>Collector&#45;&gt;Scheduler</title>
<path fill="none" stroke="black" d="M268,-1670C268,-1670 1255.42,-1670 1255.42,-1670"/>
<polygon fill="black" stroke="black" points="1255.42,-1672.45 1262.42,-1670 1255.42,-1667.55 1255.42,-1672.45"/>
</g>
<!-- Reducer -->
<g id="node23" class="node">
<title>Reducer</title>
<g id="a_node23"><a xlink:href="context/20_context.svg" xlink:title="ContextReducer">
<path fill="#fff3e0" stroke="#ef6c00" d="M188.62,-1574.5C188.62,-1574.5 125.38,-1574.5 125.38,-1574.5 119.38,-1574.5 113.38,-1568.5 113.38,-1562.5 113.38,-1562.5 113.38,-1550.5 113.38,-1550.5 113.38,-1544.5 119.38,-1538.5 125.38,-1538.5 125.38,-1538.5 188.62,-1538.5 188.62,-1538.5 194.62,-1538.5 200.62,-1544.5 200.62,-1550.5 200.62,-1550.5 200.62,-1562.5 200.62,-1562.5 200.62,-1568.5 194.62,-1574.5 188.62,-1574.5"/>
<text xml:space="preserve" text-anchor="middle" x="157" y="-1553" font-family="Arial" font-size="10.00">ContextReducer</text>
</a>
</g>
</g>
<!-- Collector&#45;&gt;Reducer -->
<g id="edge18" class="edge">
<title>Collector&#45;&gt;Reducer</title>
<path fill="none" stroke="black" d="M189.44,-1651.09C189.44,-1651.09 189.44,-1583.41 189.44,-1583.41"/>
<polygon fill="black" stroke="black" points="191.89,-1583.41 189.44,-1576.41 186.99,-1583.41 191.89,-1583.41"/>
</g>
<!-- Snapshot -->
<g id="node24" class="node">
<title>Snapshot</title>
<g id="a_node24"><a xlink:href="context/20_context.svg" xlink:title="GlobalContextSnapshot">
<path fill="#fff3e0" stroke="#ef6c00" d="M238.75,-1470C238.75,-1470 143.25,-1470 143.25,-1470 137.25,-1470 131.25,-1464 131.25,-1458 131.25,-1458 131.25,-1446 131.25,-1446 131.25,-1440 137.25,-1434 143.25,-1434 143.25,-1434 238.75,-1434 238.75,-1434 244.75,-1434 250.75,-1440 250.75,-1446 250.75,-1446 250.75,-1458 250.75,-1458 250.75,-1464 244.75,-1470 238.75,-1470"/>
<text xml:space="preserve" text-anchor="middle" x="191" y="-1448.5" font-family="Arial" font-size="10.00">GlobalContextSnapshot</text>
</a>
</g>
</g>
<!-- Reducer&#45;&gt;Snapshot -->
<g id="edge19" class="edge">
<title>Reducer&#45;&gt;Snapshot</title>
<path fill="none" stroke="black" d="M165.94,-1538.3C165.94,-1538.3 165.94,-1478.86 165.94,-1478.86"/>
<polygon fill="black" stroke="black" points="168.39,-1478.86 165.94,-1471.86 163.49,-1478.86 168.39,-1478.86"/>
</g>
<!-- InferenceCtx -->
<g id="node25" class="node">
<title>InferenceCtx</title>
<g id="a_node25"><a xlink:href="context/20_context.svg" xlink:title="InferenceContext">
<path fill="#fff3e0" stroke="#ef6c00" d="M234.5,-1357C234.5,-1357 167.5,-1357 167.5,-1357 161.5,-1357 155.5,-1351 155.5,-1345 155.5,-1345 155.5,-1333 155.5,-1333 155.5,-1327 161.5,-1321 167.5,-1321 167.5,-1321 234.5,-1321 234.5,-1321 240.5,-1321 246.5,-1327 246.5,-1333 246.5,-1333 246.5,-1345 246.5,-1345 246.5,-1351 240.5,-1357 234.5,-1357"/>
<text xml:space="preserve" text-anchor="middle" x="201" y="-1335.5" font-family="Arial" font-size="10.00">InferenceContext</text>
</a>
</g>
</g>
<!-- Snapshot&#45;&gt;InferenceCtx -->
<g id="edge20" class="edge">
<title>Snapshot&#45;&gt;InferenceCtx</title>
<path fill="none" stroke="black" d="M201,-1433.59C201,-1433.59 201,-1365.91 201,-1365.91"/>
<polygon fill="black" stroke="black" points="203.45,-1365.91 201,-1358.91 198.55,-1365.91 203.45,-1365.91"/>
</g>
<!-- Decision -->
<g id="node26" class="node">
<title>Decision</title>
<g id="a_node26"><a xlink:href="context/20_context.svg" xlink:title="DecisionEngine\nfuture">
<path fill="#fff3e0" stroke="#ef6c00" d="M244.12,-1244C244.12,-1244 183.88,-1244 183.88,-1244 177.88,-1244 171.88,-1238 171.88,-1232 171.88,-1232 171.88,-1220 171.88,-1220 171.88,-1214 177.88,-1208 183.88,-1208 183.88,-1208 244.12,-1208 244.12,-1208 250.12,-1208 256.12,-1214 256.12,-1220 256.12,-1220 256.12,-1232 256.12,-1232 256.12,-1238 250.12,-1244 244.12,-1244"/>
<text xml:space="preserve" text-anchor="middle" x="214" y="-1228.5" font-family="Arial" font-size="10.00">DecisionEngine</text>
<text xml:space="preserve" text-anchor="middle" x="214" y="-1216.5" font-family="Arial" font-size="10.00">future</text>
</a>
</g>
</g>
<!-- InferenceCtx&#45;&gt;Decision -->
<g id="edge21" class="edge">
<title>InferenceCtx&#45;&gt;Decision</title>
<path fill="none" stroke="black" stroke-dasharray="5,2" d="M209.19,-1320.59C209.19,-1320.59 209.19,-1252.91 209.19,-1252.91"/>
<polygon fill="black" stroke="black" points="211.64,-1252.91 209.19,-1245.91 206.74,-1252.91 211.64,-1252.91"/>
<text xml:space="preserve" text-anchor="middle" x="218.62" y="-1283.45" font-family="Arial" font-size="9.00">future</text>
</g>
<!-- OpenVINO -->
<g id="node37" class="node">
<title>OpenVINO</title>
<g id="a_node37"><a xlink:href="inference/40_inference.svg" xlink:title="OpenVINOBackend\nfuture">
<path fill="#fffde7" stroke="#f9a825" d="M1844.12,-1244C1844.12,-1244 1765.88,-1244 1765.88,-1244 1759.88,-1244 1753.88,-1238 1753.88,-1232 1753.88,-1232 1753.88,-1220 1753.88,-1220 1753.88,-1214 1759.88,-1208 1765.88,-1208 1765.88,-1208 1844.12,-1208 1844.12,-1208 1850.12,-1208 1856.12,-1214 1856.12,-1220 1856.12,-1220 1856.12,-1232 1856.12,-1232 1856.12,-1238 1850.12,-1244 1844.12,-1244"/>
<text xml:space="preserve" text-anchor="middle" x="1805" y="-1228.5" font-family="Arial" font-size="10.00">OpenVINOBackend</text>
<text xml:space="preserve" text-anchor="middle" x="1805" y="-1216.5" font-family="Arial" font-size="10.00">future</text>
</a>
</g>
</g>
<!-- Decision&#45;&gt;OpenVINO -->
<g id="edge92" class="edge">
<title>Decision&#45;&gt;OpenVINO</title>
<path fill="none" stroke="black" stroke-dasharray="5,2" d="M234.71,-1207.57C234.71,-1204.34 234.71,-1202 234.71,-1202 234.71,-1202 1776.81,-1202 1776.81,-1202 1776.81,-1202 1776.81,-1202.56 1776.81,-1202.56"/>
<polygon fill="black" stroke="black" points="1774.36,-1199.05 1776.81,-1206.05 1779.26,-1199.05 1774.36,-1199.05"/>
</g>
<!-- MCTS -->
<g id="node38" class="node">
<title>MCTS</title>
<path fill="#fffde7" stroke="#f9a825" d="M1965.5,-1244C1965.5,-1244 1904.5,-1244 1904.5,-1244 1898.5,-1244 1892.5,-1238 1892.5,-1232 1892.5,-1232 1892.5,-1220 1892.5,-1220 1892.5,-1214 1898.5,-1208 1904.5,-1208 1904.5,-1208 1965.5,-1208 1965.5,-1208 1971.5,-1208 1977.5,-1214 1977.5,-1220 1977.5,-1220 1977.5,-1232 1977.5,-1232 1977.5,-1238 1971.5,-1244 1965.5,-1244"/>
<text xml:space="preserve" text-anchor="middle" x="1935" y="-1228.5" font-family="Arial" font-size="10.00">MCTS proposer</text>
<text xml:space="preserve" text-anchor="middle" x="1935" y="-1216.5" font-family="Arial" font-size="10.00">future</text>
</g>
<!-- Decision&#45;&gt;MCTS -->
<g id="edge93" class="edge">
<title>Decision&#45;&gt;MCTS</title>
<path fill="none" stroke="black" stroke-dasharray="5,2" d="M213.29,-1207.51C213.29,-1201.34 213.29,-1196 213.29,-1196 213.29,-1196 1935.62,-1196 1935.62,-1196 1935.62,-1196 1935.62,-1199 1935.62,-1199"/>
<polygon fill="black" stroke="black" points="1933.18,-1199 1935.63,-1206 1938.08,-1199 1933.18,-1199"/>
</g>
<!-- InferenceHandler&#45;&gt;Proxy -->
<g id="edge37" class="edge">
<title>InferenceHandler&#45;&gt;Proxy</title>
<path fill="none" stroke="black" stroke-dasharray="5,2" d="M1590.04,-1235C1566.09,-1235 1544.58,-1235 1544.58,-1235 1544.58,-1235 1544.58,-1755.77 1544.58,-1755.77"/>
<polygon fill="black" stroke="black" points="1542.13,-1755.77 1544.58,-1762.77 1547.03,-1755.77 1542.13,-1755.77"/>
<text xml:space="preserve" text-anchor="middle" x="1852.5" y="-1500.95" font-family="Arial" font-size="9.00">Request.reply</text>
</g>
<!-- InferenceHandler&#45;&gt;InferenceContract -->
<g id="edge27" class="edge">
<title>InferenceHandler&#45;&gt;InferenceContract</title>
<path fill="none" stroke="black" stroke-dasharray="1,5" d="M1679.08,-1207.72C1679.08,-1186.68 1679.08,-1155 1679.08,-1155 1679.08,-1155 2354.69,-1155 2354.69,-1155 2354.69,-1155 2354.69,-1026.9 2354.69,-1026.9"/>
<polygon fill="black" stroke="black" points="2357.14,-1026.9 2354.69,-1019.9 2352.24,-1026.9 2357.14,-1026.9"/>
</g>
<!-- InferenceAdapter -->
<g id="node34" class="node">
<title>InferenceAdapter</title>
<g id="a_node34"><a xlink:href="inference/40_inference.svg" xlink:title="InferenceAdapter\nbackend membrane">
<path fill="#fffde7" stroke="#f9a825" d="M1881.75,-1131C1881.75,-1131 1804.25,-1131 1804.25,-1131 1798.25,-1131 1792.25,-1125 1792.25,-1119 1792.25,-1119 1792.25,-1107 1792.25,-1107 1792.25,-1101 1798.25,-1095 1804.25,-1095 1804.25,-1095 1881.75,-1095 1881.75,-1095 1887.75,-1095 1893.75,-1101 1893.75,-1107 1893.75,-1107 1893.75,-1119 1893.75,-1119 1893.75,-1125 1887.75,-1131 1881.75,-1131"/>
<text xml:space="preserve" text-anchor="middle" x="1843" y="-1115.5" font-family="Arial" font-size="10.00">InferenceAdapter</text>
<text xml:space="preserve" text-anchor="middle" x="1843" y="-1103.5" font-family="Arial" font-size="10.00">backend membrane</text>
</a>
</g>
</g>
<!-- InferenceHandler&#45;&gt;InferenceAdapter -->
<g id="edge32" class="edge">
<title>InferenceHandler&#45;&gt;InferenceAdapter</title>
<path fill="none" stroke="black" d="M1717.85,-1232C1732.15,-1232 1743.17,-1232 1743.17,-1232 1743.17,-1232 1743.17,-1119 1743.17,-1119 1743.17,-1119 1783.4,-1119 1783.4,-1119"/>
<polygon fill="black" stroke="black" points="1783.4,-1121.45 1790.4,-1119 1783.4,-1116.55 1783.4,-1121.45"/>
<text xml:space="preserve" text-anchor="middle" x="1774.38" y="-1170.45" font-family="Arial" font-size="9.00">infer(request)</text>
</g>
<!-- InferenceResult -->
<g id="node36" class="node">
<title>InferenceResult</title>
<g id="a_node36"><a xlink:href="inference/40_inference.svg" xlink:title="INFERENCE_RESULT\nobservable">
<path fill="#fffde7" stroke="#f9a825" d="M1709.75,-1131C1709.75,-1131 1614.25,-1131 1614.25,-1131 1608.25,-1131 1602.25,-1125 1602.25,-1119 1602.25,-1119 1602.25,-1107 1602.25,-1107 1602.25,-1101 1608.25,-1095 1614.25,-1095 1614.25,-1095 1709.75,-1095 1709.75,-1095 1715.75,-1095 1721.75,-1101 1721.75,-1107 1721.75,-1107 1721.75,-1119 1721.75,-1119 1721.75,-1125 1715.75,-1131 1709.75,-1131"/>
<text xml:space="preserve" text-anchor="middle" x="1662" y="-1115.5" font-family="Arial" font-size="10.00">INFERENCE_RESULT</text>
<text xml:space="preserve" text-anchor="middle" x="1662" y="-1103.5" font-family="Arial" font-size="10.00">observable</text>
</a>
</g>
</g>
<!-- InferenceHandler&#45;&gt;InferenceResult -->
<g id="edge36" class="edge">
<title>InferenceHandler&#45;&gt;InferenceResult</title>
<path fill="none" stroke="black" d="M1640.67,-1207.59C1640.67,-1207.59 1640.67,-1139.91 1640.67,-1139.91"/>
<polygon fill="black" stroke="black" points="1643.12,-1139.91 1640.67,-1132.91 1638.22,-1139.91 1643.12,-1139.91"/>
<text xml:space="preserve" text-anchor="middle" x="1679.88" y="-1170.45" font-family="Arial" font-size="9.00">publish copy</text>
</g>
<!-- InferenceAdapter&#45;&gt;InferenceContract -->
<g id="edge29" class="edge">
<title>InferenceAdapter&#45;&gt;InferenceContract</title>
<path fill="none" stroke="black" stroke-dasharray="1,5" d="M1866.03,-1094.75C1866.03,-1080.82 1866.03,-1064 1866.03,-1064 1866.03,-1064 2308.06,-1064 2308.06,-1064 2308.06,-1064 2308.06,-1026.68 2308.06,-1026.68"/>
<polygon fill="black" stroke="black" points="2310.51,-1026.68 2308.06,-1019.68 2305.61,-1026.68 2310.51,-1026.68"/>
</g>
<!-- InferenceAdapter&#45;&gt;InferenceHandler -->
<g id="edge35" class="edge">
<title>InferenceAdapter&#45;&gt;InferenceHandler</title>
<path fill="none" stroke="black" d="M1791.94,-1107C1762.97,-1107 1732.46,-1107 1732.46,-1107 1732.46,-1107 1732.46,-1220 1732.46,-1220 1732.46,-1220 1726.21,-1220 1726.21,-1220"/>
<polygon fill="black" stroke="black" points="1726.21,-1217.55 1719.21,-1220 1726.21,-1222.45 1726.21,-1217.55"/>
<text xml:space="preserve" text-anchor="middle" x="1875.25" y="-1170.45" font-family="Arial" font-size="9.00">InferenceResult</text>
</g>
<!-- DummyBackend -->
<g id="node35" class="node">
<title>DummyBackend</title>
<g id="a_node35"><a xlink:href="inference/40_inference.svg" xlink:title="DummyInferenceBackend\ncurrent">
<path fill="#fffde7" stroke="#f9a825" d="M1878.62,-1018C1878.62,-1018 1773.38,-1018 1773.38,-1018 1767.38,-1018 1761.38,-1012 1761.38,-1006 1761.38,-1006 1761.38,-994 1761.38,-994 1761.38,-988 1767.38,-982 1773.38,-982 1773.38,-982 1878.62,-982 1878.62,-982 1884.62,-982 1890.62,-988 1890.62,-994 1890.62,-994 1890.62,-1006 1890.62,-1006 1890.62,-1012 1884.62,-1018 1878.62,-1018"/>
<text xml:space="preserve" text-anchor="middle" x="1826" y="-1002.5" font-family="Arial" font-size="10.00">DummyInferenceBackend</text>
<text xml:space="preserve" text-anchor="middle" x="1826" y="-990.5" font-family="Arial" font-size="10.00">current</text>
</a>
</g>
</g>
<!-- InferenceAdapter&#45;&gt;DummyBackend -->
<g id="edge33" class="edge">
<title>InferenceAdapter&#45;&gt;DummyBackend</title>
<path fill="none" stroke="black" d="M1816.84,-1094.59C1816.84,-1094.59 1816.84,-1026.91 1816.84,-1026.91"/>
<polygon fill="black" stroke="black" points="1819.29,-1026.91 1816.84,-1019.91 1814.39,-1026.91 1819.29,-1026.91"/>
<text xml:space="preserve" text-anchor="middle" x="1805.75" y="-1057.45" font-family="Arial" font-size="9.00">select backend</text>
</g>
<!-- DummyBackend&#45;&gt;InferenceAdapter -->
<g id="edge34" class="edge">
<title>DummyBackend&#45;&gt;InferenceAdapter</title>
<path fill="none" stroke="black" d="M1841.44,-1018.41C1841.44,-1018.41 1841.44,-1086.09 1841.44,-1086.09"/>
<polygon fill="black" stroke="black" points="1838.99,-1086.09 1841.44,-1093.09 1843.89,-1086.09 1838.99,-1086.09"/>
<text xml:space="preserve" text-anchor="middle" x="1910.25" y="-1057.45" font-family="Arial" font-size="9.00">InferenceResult</text>
</g>
<!-- InferenceResult&#45;&gt;EventBus -->
<g id="edge38" class="edge">
<title>InferenceResult&#45;&gt;EventBus</title>
<path fill="none" stroke="black" stroke-dasharray="5,2" d="M1602.03,-1113C1588.6,-1113 1578.25,-1113 1578.25,-1113 1578.25,-1113 1578.25,-1226 1578.25,-1226 1578.25,-1226 1488.35,-1226 1488.35,-1226"/>
<polygon fill="black" stroke="black" points="1488.35,-1223.55 1481.35,-1226 1488.35,-1228.45 1488.35,-1223.55"/>
</g>
<!-- OpenVINO&#45;&gt;GPU -->
<g id="edge39" class="edge">
<title>OpenVINO&#45;&gt;GPU</title>
<path fill="none" stroke="black" stroke-dasharray="5,2" d="M1824.19,-1207.55C1824.19,-1188.33 1824.19,-1161 1824.19,-1161 1824.19,-1161 2426,-1161 2426,-1161 2426,-1161 2426,-1139.93 2426,-1139.93"/>
<polygon fill="black" stroke="black" points="2428.45,-1139.93 2426,-1132.93 2423.55,-1139.93 2428.45,-1139.93"/>
<text xml:space="preserve" text-anchor="middle" x="2199.62" y="-1170.45" font-family="Arial" font-size="9.00">future</text>
</g>
<!-- Validation -->
<g id="node41" class="node">
<title>Validation</title>
<g id="a_node41"><a xlink:href="validation/50_validation.svg" xlink:title="Compiler &#45;&gt; Tests &#45;&gt; Validator">
<path fill="#f3e5f5" stroke="#7b1fa2" d="M2732.88,-1574.5C2732.88,-1574.5 2611.12,-1574.5 2611.12,-1574.5 2605.12,-1574.5 2599.12,-1568.5 2599.12,-1562.5 2599.12,-1562.5 2599.12,-1550.5 2599.12,-1550.5 2599.12,-1544.5 2605.12,-1538.5 2611.12,-1538.5 2611.12,-1538.5 2732.88,-1538.5 2732.88,-1538.5 2738.88,-1538.5 2744.88,-1544.5 2744.88,-1550.5 2744.88,-1550.5 2744.88,-1562.5 2744.88,-1562.5 2744.88,-1568.5 2738.88,-1574.5 2732.88,-1574.5"/>
<text xml:space="preserve" text-anchor="middle" x="2672" y="-1553" font-family="Arial" font-size="10.00">Compiler &#45;&gt; Tests &#45;&gt; Validator</text>
</a>
</g>
</g>
<!-- Dummy&#45;&gt;Validation -->
<g id="edge94" class="edge">
<title>Dummy&#45;&gt;Validation</title>
<path fill="none" stroke="black" stroke-dasharray="5,2" d="M2639,-1651.09C2639,-1651.09 2639,-1583.41 2639,-1583.41"/>
<polygon fill="black" stroke="black" points="2641.45,-1583.41 2639,-1576.41 2636.55,-1583.41 2641.45,-1583.41"/>
<text xml:space="preserve" text-anchor="middle" x="2666.62" y="-1613.95" font-family="Arial" font-size="9.00">future</text>
</g>
<!-- ExpertsFuture -->
<g id="node40" class="node">
<title>ExpertsFuture</title>
<g id="a_node40"><a xlink:href="experts/40_experts.svg" xlink:title="Python / C / KiCad / Web\nfuture">
<path fill="#e8f5e9" stroke="#388e3c" d="M2829.88,-1687.5C2829.88,-1687.5 2726.12,-1687.5 2726.12,-1687.5 2720.12,-1687.5 2714.12,-1681.5 2714.12,-1675.5 2714.12,-1675.5 2714.12,-1663.5 2714.12,-1663.5 2714.12,-1657.5 2720.12,-1651.5 2726.12,-1651.5 2726.12,-1651.5 2829.88,-1651.5 2829.88,-1651.5 2835.88,-1651.5 2841.88,-1657.5 2841.88,-1663.5 2841.88,-1663.5 2841.88,-1675.5 2841.88,-1675.5 2841.88,-1681.5 2835.88,-1687.5 2829.88,-1687.5"/>
<text xml:space="preserve" text-anchor="middle" x="2778" y="-1672" font-family="Arial" font-size="10.00">Python / C / KiCad / Web</text>
<text xml:space="preserve" text-anchor="middle" x="2778" y="-1660" font-family="Arial" font-size="10.00">future</text>
</a>
</g>
</g>
<!-- Learning -->
<g id="node42" class="node">
<title>Learning</title>
<g id="a_node42"><a xlink:href="learning/60_learning.svg" xlink:title="Metrics / Ranking / Patterns">
<path fill="#efebe9" stroke="#6d4c41" d="M143.5,-1018C143.5,-1018 28.5,-1018 28.5,-1018 22.5,-1018 16.5,-1012 16.5,-1006 16.5,-1006 16.5,-994 16.5,-994 16.5,-988 22.5,-982 28.5,-982 28.5,-982 143.5,-982 143.5,-982 149.5,-982 155.5,-988 155.5,-994 155.5,-994 155.5,-1006 155.5,-1006 155.5,-1012 149.5,-1018 143.5,-1018"/>
<text xml:space="preserve" text-anchor="middle" x="86" y="-996.5" font-family="Arial" font-size="10.00">Metrics / Ranking / Patterns</text>
</a>
</g>
</g>
<!-- KernelTelemetry&#45;&gt;TelemetryContract -->
<g id="edge24" class="edge">
<title>KernelTelemetry&#45;&gt;TelemetryContract</title>
<path fill="none" stroke="black" stroke-dasharray="1,5" d="M417.88,-1320.86C417.88,-1257.37 417.88,-1049 417.88,-1049 417.88,-1049 2041.94,-1049 2041.94,-1049 2041.94,-1049 2041.94,-1026.76 2041.94,-1026.76"/>
<polygon fill="black" stroke="black" points="2044.39,-1026.76 2041.94,-1019.76 2039.49,-1026.76 2044.39,-1026.76"/>
</g>
<!-- TelemetrySnapshot -->
<g id="node45" class="node">
<title>TelemetrySnapshot</title>
<g id="a_node45"><a xlink:href="observability/70_observability.svg" xlink:title="TelemetrySnapshot">
<path fill="#f5f5f5" stroke="#666666" d="M514,-1244C514,-1244 438,-1244 438,-1244 432,-1244 426,-1238 426,-1232 426,-1232 426,-1220 426,-1220 426,-1214 432,-1208 438,-1208 438,-1208 514,-1208 514,-1208 520,-1208 526,-1214 526,-1220 526,-1220 526,-1232 526,-1232 526,-1238 520,-1244 514,-1244"/>
<text xml:space="preserve" text-anchor="middle" x="476" y="-1222.5" font-family="Arial" font-size="10.00">TelemetrySnapshot</text>
</a>
</g>
</g>
<!-- KernelTelemetry&#45;&gt;TelemetrySnapshot -->
<g id="edge43" class="edge">
<title>KernelTelemetry&#45;&gt;TelemetrySnapshot</title>
<path fill="none" stroke="black" d="M461.12,-1320.59C461.12,-1320.59 461.12,-1252.91 461.12,-1252.91"/>
<polygon fill="black" stroke="black" points="463.58,-1252.91 461.13,-1245.91 458.68,-1252.91 463.58,-1252.91"/>
<text xml:space="preserve" text-anchor="middle" x="486.75" y="-1283.45" font-family="Arial" font-size="9.00">snapshot()</text>
</g>
<!-- TelemetrySnapshot&#45;&gt;Metrics -->
<g id="edge44" class="edge">
<title>TelemetrySnapshot&#45;&gt;Metrics</title>
<path fill="none" stroke="black" stroke-dasharray="5,2" d="M467,-1207.59C467,-1207.59 467,-1139.91 467,-1139.91"/>
<polygon fill="black" stroke="black" points="469.45,-1139.91 467,-1132.91 464.55,-1139.91 469.45,-1139.91"/>
</g>
<!-- EventLogSnapshot -->
<g id="node47" class="node">
<title>EventLogSnapshot</title>
<g id="a_node47"><a xlink:href="observability/70_observability.svg" xlink:title="EventLogSnapshot">
<path fill="#f5f5f5" stroke="#666666" d="M378.25,-1244C378.25,-1244 303.75,-1244 303.75,-1244 297.75,-1244 291.75,-1238 291.75,-1232 291.75,-1232 291.75,-1220 291.75,-1220 291.75,-1214 297.75,-1208 303.75,-1208 303.75,-1208 378.25,-1208 378.25,-1208 384.25,-1208 390.25,-1214 390.25,-1220 390.25,-1220 390.25,-1232 390.25,-1232 390.25,-1238 384.25,-1244 378.25,-1244"/>
<text xml:space="preserve" text-anchor="middle" x="341" y="-1222.5" font-family="Arial" font-size="10.00">EventLogSnapshot</text>
</a>
</g>
</g>
<!-- EventRecorder&#45;&gt;EventLogSnapshot -->
<g id="edge48" class="edge">
<title>EventRecorder&#45;&gt;EventLogSnapshot</title>
<path fill="none" stroke="black" d="M319.46,-1320.59C319.46,-1320.59 319.46,-1252.91 319.46,-1252.91"/>
<polygon fill="black" stroke="black" points="321.91,-1252.91 319.46,-1245.91 317.01,-1252.91 321.91,-1252.91"/>
<text xml:space="preserve" text-anchor="middle" x="358.75" y="-1283.45" font-family="Arial" font-size="9.00">snapshot()</text>
</g>
<!-- ReplayReader -->
<g id="node48" class="node">
<title>ReplayReader</title>
<g id="a_node48"><a xlink:href="observability/70_observability.svg" xlink:title="ReplayReader&#10;current">
<path fill="#f5f5f5" stroke="#666666" d="M361.12,-1131C361.12,-1131 306.88,-1131 306.88,-1131 300.88,-1131 294.88,-1125 294.88,-1119 294.88,-1119 294.88,-1107 294.88,-1107 294.88,-1101 300.88,-1095 306.88,-1095 306.88,-1095 361.12,-1095 361.12,-1095 367.12,-1095 373.12,-1101 373.12,-1107 373.12,-1107 373.12,-1119 373.12,-1119 373.12,-1125 367.12,-1131 361.12,-1131"/>
<text xml:space="preserve" text-anchor="middle" x="334" y="-1115.5" font-family="Arial" font-size="10.00">ReplayReader</text>
<text xml:space="preserve" text-anchor="middle" x="334" y="-1103.5" font-family="Arial" font-size="10.00">current</text>
</a>
</g>
</g>
<!-- EventLogSnapshot&#45;&gt;ReplayReader -->
<g id="edge49" class="edge">
<title>EventLogSnapshot&#45;&gt;ReplayReader</title>
<path fill="none" stroke="black" d="M320.96,-1207.59C320.96,-1207.59 320.96,-1139.91 320.96,-1139.91"/>
<polygon fill="black" stroke="black" points="323.41,-1139.91 320.96,-1132.91 318.51,-1139.91 323.41,-1139.91"/>
<text xml:space="preserve" text-anchor="middle" x="355.12" y="-1170.45" font-family="Arial" font-size="9.00">read/filter</text>
</g>
<!-- ReplayPlan -->
<g id="node49" class="node">
<title>ReplayPlan</title>
<g id="a_node49"><a xlink:href="observability/70_observability.svg" xlink:title="ReplayPlan&#10;controlled">
<path fill="#f5f5f5" stroke="#666666" d="M366.12,-1018C366.12,-1018 323.88,-1018 323.88,-1018 317.88,-1018 311.88,-1012 311.88,-1006 311.88,-1006 311.88,-994 311.88,-994 311.88,-988 317.88,-982 323.88,-982 323.88,-982 366.12,-982 366.12,-982 372.12,-982 378.12,-988 378.12,-994 378.12,-994 378.12,-1006 378.12,-1006 378.12,-1012 372.12,-1018 366.12,-1018"/>
<text xml:space="preserve" text-anchor="middle" x="345" y="-1002.5" font-family="Arial" font-size="10.00">ReplayPlan</text>
<text xml:space="preserve" text-anchor="middle" x="345" y="-990.5" font-family="Arial" font-size="10.00">controlled</text>
</a>
</g>
</g>
<!-- ReplayReader&#45;&gt;ReplayPlan -->
<g id="edge50" class="edge">
<title>ReplayReader&#45;&gt;ReplayPlan</title>
<path fill="none" stroke="black" d="M342.5,-1094.59C342.5,-1094.59 342.5,-1026.91 342.5,-1026.91"/>
<polygon fill="black" stroke="black" points="344.95,-1026.91 342.5,-1019.91 340.05,-1026.91 344.95,-1026.91"/>
<text xml:space="preserve" text-anchor="middle" x="371.75" y="-1057.45" font-family="Arial" font-size="9.00">to_replay_plan()</text>
</g>
<!-- ReplayContract -->
<g id="node68" class="node">
<title>ReplayContract</title>
<path fill="lightgrey" stroke="black" d="M264.12,-1018C264.12,-1018 203.88,-1018 203.88,-1018 197.88,-1018 191.88,-1012 191.88,-1006 191.88,-1006 191.88,-994 191.88,-994 191.88,-988 197.88,-982 203.88,-982 203.88,-982 264.12,-982 264.12,-982 270.12,-982 276.12,-988 276.12,-994 276.12,-994 276.12,-1006 276.12,-1006 276.12,-1012 270.12,-1018 264.12,-1018"/>
<text xml:space="preserve" text-anchor="middle" x="234" y="-996.5" font-family="Arial" font-size="10.00">ReplayContract</text>
</g>
<!-- ReplayReader&#45;&gt;ReplayContract -->
<g id="edge28" class="edge">
<title>ReplayReader&#45;&gt;ReplayContract</title>
<path fill="none" stroke="black" stroke-dasharray="1,5" d="M294.5,-1113C282.39,-1113 272.19,-1113 272.19,-1113 272.19,-1113 272.19,-1026.92 272.19,-1026.92"/>
<polygon fill="black" stroke="black" points="274.64,-1026.92 272.19,-1019.92 269.74,-1026.92 274.64,-1026.92"/>
</g>
<!-- ReplaySandbox -->
<g id="node50" class="node">
<title>ReplaySandbox</title>
<g id="a_node50"><a xlink:href="observability/70_observability.svg" xlink:title="ReplaySandbox&#10;isolated">
<path fill="#f5f5f5" stroke="#666666" d="M554.5,-913.5C554.5,-913.5 493.5,-913.5 493.5,-913.5 487.5,-913.5 481.5,-907.5 481.5,-901.5 481.5,-901.5 481.5,-889.5 481.5,-889.5 481.5,-883.5 487.5,-877.5 493.5,-877.5 493.5,-877.5 554.5,-877.5 554.5,-877.5 560.5,-877.5 566.5,-883.5 566.5,-889.5 566.5,-889.5 566.5,-901.5 566.5,-901.5 566.5,-907.5 560.5,-913.5 554.5,-913.5"/>
<text xml:space="preserve" text-anchor="middle" x="524" y="-898" font-family="Arial" font-size="10.00">ReplaySandbox</text>
<text xml:space="preserve" text-anchor="middle" x="524" y="-886" font-family="Arial" font-size="10.00">isolated</text>
</a>
</g>
</g>
<!-- ReplayPlan&#45;&gt;ReplaySandbox -->
<g id="edge51" class="edge">
<title>ReplayPlan&#45;&gt;ReplaySandbox</title>
<path fill="none" stroke="black" d="M356.04,-981.88C356.04,-952.09 356.04,-896 356.04,-896 356.04,-896 472.67,-896 472.67,-896"/>
<polygon fill="black" stroke="black" points="472.67,-898.45 479.67,-896 472.67,-893.55 472.67,-898.45"/>
<text xml:space="preserve" text-anchor="middle" x="521.75" y="-944.45" font-family="Arial" font-size="9.00">replay(plan)</text>
</g>
<!-- ReplayScenario -->
<g id="node52" class="node">
<title>ReplayScenario</title>
<g id="a_node52"><a xlink:href="observability/70_observability.svg" xlink:title="ReplayScenario&#10;controlled">
<path fill="#f5f5f5" stroke="#666666" d="M370.5,-848.5C370.5,-848.5 309.5,-848.5 309.5,-848.5 303.5,-848.5 297.5,-842.5 297.5,-836.5 297.5,-836.5 297.5,-824.5 297.5,-824.5 297.5,-818.5 303.5,-812.5 309.5,-812.5 309.5,-812.5 370.5,-812.5 370.5,-812.5 376.5,-812.5 382.5,-818.5 382.5,-824.5 382.5,-824.5 382.5,-836.5 382.5,-836.5 382.5,-842.5 376.5,-848.5 370.5,-848.5"/>
<text xml:space="preserve" text-anchor="middle" x="340" y="-833" font-family="Arial" font-size="10.00">ReplayScenario</text>
<text xml:space="preserve" text-anchor="middle" x="340" y="-821" font-family="Arial" font-size="10.00">controlled</text>
</a>
</g>
</g>
<!-- ReplayPlan&#45;&gt;ReplayScenario -->
<g id="edge53" class="edge">
<title>ReplayPlan&#45;&gt;ReplayScenario</title>
<path fill="none" stroke="black" d="M333.96,-981.54C333.96,-981.54 333.96,-857.45 333.96,-857.45"/>
<polygon fill="black" stroke="black" points="336.41,-857.45 333.96,-850.45 331.51,-857.45 336.41,-857.45"/>
<text xml:space="preserve" text-anchor="middle" x="372.62" y="-944.45" font-family="Arial" font-size="9.00">scenario(plan)</text>
</g>
<!-- ReplaySandboxResult -->
<g id="node51" class="node">
<title>ReplaySandboxResult</title>
<g id="a_node51"><a xlink:href="observability/70_observability.svg" xlink:title="ReplaySandboxResult&#10;immutable">
<path fill="#f5f5f5" stroke="#666666" d="M669.75,-783.5C669.75,-783.5 580.25,-783.5 580.25,-783.5 574.25,-783.5 568.25,-777.5 568.25,-771.5 568.25,-771.5 568.25,-759.5 568.25,-759.5 568.25,-753.5 574.25,-747.5 580.25,-747.5 580.25,-747.5 669.75,-747.5 669.75,-747.5 675.75,-747.5 681.75,-753.5 681.75,-759.5 681.75,-759.5 681.75,-771.5 681.75,-771.5 681.75,-777.5 675.75,-783.5 669.75,-783.5"/>
<text xml:space="preserve" text-anchor="middle" x="625" y="-768" font-family="Arial" font-size="10.00">ReplaySandboxResult</text>
<text xml:space="preserve" text-anchor="middle" x="625" y="-756" font-family="Arial" font-size="10.00">immutable</text>
</a>
</g>
</g>
<!-- ReplaySandbox&#45;&gt;ReplaySandboxResult -->
<g id="edge52" class="edge">
<title>ReplaySandbox&#45;&gt;ReplaySandboxResult</title>
<path fill="none" stroke="black" d="M566.79,-890C574.47,-890 580.08,-890 580.08,-890 580.08,-890 580.08,-792.38 580.08,-792.38"/>
<polygon fill="black" stroke="black" points="582.53,-792.38 580.08,-785.38 577.63,-792.38 582.53,-792.38"/>
<text xml:space="preserve" text-anchor="middle" x="565.25" y="-827.2" font-family="Arial" font-size="9.00">result</text>
</g>
<!-- ReplayScenarioRunner -->
<g id="node53" class="node">
<title>ReplayScenarioRunner</title>
<g id="a_node53"><a xlink:href="observability/70_observability.svg" xlink:title="ReplayScenarioRunner&#10;passive">
<path fill="#f5f5f5" stroke="#666666" d="M585.25,-679C585.25,-679 492.75,-679 492.75,-679 486.75,-679 480.75,-673 480.75,-667 480.75,-667 480.75,-655 480.75,-655 480.75,-649 486.75,-643 492.75,-643 492.75,-643 585.25,-643 585.25,-643 591.25,-643 597.25,-649 597.25,-655 597.25,-655 597.25,-667 597.25,-667 597.25,-673 591.25,-679 585.25,-679"/>
<text xml:space="preserve" text-anchor="middle" x="539" y="-663.5" font-family="Arial" font-size="10.00">ReplayScenarioRunner</text>
<text xml:space="preserve" text-anchor="middle" x="539" y="-651.5" font-family="Arial" font-size="10.00">passive</text>
</a>
</g>
</g>
<!-- ReplaySandboxResult&#45;&gt;ReplayScenarioRunner -->
<g id="edge56" class="edge">
<title>ReplaySandboxResult&#45;&gt;ReplayScenarioRunner</title>
<path fill="none" stroke="black" d="M582.75,-747.3C582.75,-747.3 582.75,-687.86 582.75,-687.86"/>
<polygon fill="black" stroke="black" points="585.2,-687.86 582.75,-680.86 580.3,-687.86 585.2,-687.86"/>
<text xml:space="preserve" text-anchor="middle" x="574.5" y="-709.95" font-family="Arial" font-size="9.00">collect result</text>
</g>
<!-- ReplayScenario&#45;&gt;ReplayScenarioRunner -->
<g id="edge54" class="edge">
<title>ReplayScenario&#45;&gt;ReplayScenarioRunner</title>
<path fill="none" stroke="black" d="M340,-812.04C340,-768.11 340,-661 340,-661 340,-661 471.86,-661 471.86,-661"/>
<polygon fill="black" stroke="black" points="471.86,-663.45 478.86,-661 471.86,-658.55 471.86,-663.45"/>
<text xml:space="preserve" text-anchor="middle" x="348.88" y="-762.2" font-family="Arial" font-size="9.00">run/report</text>
</g>
<!-- ReplayScenarioRunner&#45;&gt;ReplaySandbox -->
<g id="edge55" class="edge">
<title>ReplayScenarioRunner&#45;&gt;ReplaySandbox</title>
<path fill="none" stroke="black" d="M524,-679.4C524,-679.4 524,-868.67 524,-868.67"/>
<polygon fill="black" stroke="black" points="521.55,-868.67 524,-875.67 526.45,-868.67 521.55,-868.67"/>
<text xml:space="preserve" text-anchor="middle" x="486.75" y="-762.2" font-family="Arial" font-size="9.00">uses isolated sandbox</text>
</g>
<!-- ReplayReport -->
<g id="node54" class="node">
<title>ReplayReport</title>
<g id="a_node54"><a xlink:href="observability/70_observability.svg" xlink:title="ReplayReport&#10;deterministic">
<path fill="#f5f5f5" stroke="#666666" d="M565,-574.5C565,-574.5 513,-574.5 513,-574.5 507,-574.5 501,-568.5 501,-562.5 501,-562.5 501,-550.5 501,-550.5 501,-544.5 507,-538.5 513,-538.5 513,-538.5 565,-538.5 565,-538.5 571,-538.5 577,-544.5 577,-550.5 577,-550.5 577,-562.5 577,-562.5 577,-568.5 571,-574.5 565,-574.5"/>
<text xml:space="preserve" text-anchor="middle" x="539" y="-559" font-family="Arial" font-size="10.00">ReplayReport</text>
<text xml:space="preserve" text-anchor="middle" x="539" y="-547" font-family="Arial" font-size="10.00">deterministic</text>
</a>
</g>
</g>
<!-- ReplayScenarioRunner&#45;&gt;ReplayReport -->
<g id="edge57" class="edge">
<title>ReplayScenarioRunner&#45;&gt;ReplayReport</title>
<path fill="none" stroke="black" d="M539,-642.8C539,-642.8 539,-583.36 539,-583.36"/>
<polygon fill="black" stroke="black" points="541.45,-583.36 539,-576.36 536.55,-583.36 541.45,-583.36"/>
<text xml:space="preserve" text-anchor="middle" x="578" y="-605.45" font-family="Arial" font-size="9.00">deterministic report</text>
</g>
<!-- ReplayReportExporter -->
<g id="node55" class="node">
<title>ReplayReportExporter</title>
<g id="a_node55"><a xlink:href="observability/70_observability.svg" xlink:title="ReplayReportExporter&#10;text/json">
<path fill="#f5f5f5" stroke="#666666" d="M619.38,-470C619.38,-470 530.62,-470 530.62,-470 524.62,-470 518.62,-464 518.62,-458 518.62,-458 518.62,-446 518.62,-446 518.62,-440 524.62,-434 530.62,-434 530.62,-434 619.38,-434 619.38,-434 625.38,-434 631.38,-440 631.38,-446 631.38,-446 631.38,-458 631.38,-458 631.38,-464 625.38,-470 619.38,-470"/>
<text xml:space="preserve" text-anchor="middle" x="575" y="-454.5" font-family="Arial" font-size="10.00">ReplayReportExporter</text>
<text xml:space="preserve" text-anchor="middle" x="575" y="-442.5" font-family="Arial" font-size="10.00">text/json</text>
</a>
</g>
</g>
<!-- ReplayReport&#45;&gt;ReplayReportExporter -->
<g id="edge58" class="edge">
<title>ReplayReport&#45;&gt;ReplayReportExporter</title>
<path fill="none" stroke="black" d="M547.81,-538.3C547.81,-538.3 547.81,-478.86 547.81,-478.86"/>
<polygon fill="black" stroke="black" points="550.26,-478.86 547.81,-471.86 545.36,-478.86 550.26,-478.86"/>
<text xml:space="preserve" text-anchor="middle" x="553.75" y="-500.95" font-family="Arial" font-size="9.00">export</text>
</g>
<!-- ReplayReportExport -->
<g id="node56" class="node">
<title>ReplayReportExport</title>
<g id="a_node56"><a xlink:href="observability/70_observability.svg" xlink:title="ReplayReportExport&#10;immutable">
<path fill="#f5f5f5" stroke="#666666" d="M615.25,-365.5C615.25,-365.5 534.75,-365.5 534.75,-365.5 528.75,-365.5 522.75,-359.5 522.75,-353.5 522.75,-353.5 522.75,-341.5 522.75,-341.5 522.75,-335.5 528.75,-329.5 534.75,-329.5 534.75,-329.5 615.25,-329.5 615.25,-329.5 621.25,-329.5 627.25,-335.5 627.25,-341.5 627.25,-341.5 627.25,-353.5 627.25,-353.5 627.25,-359.5 621.25,-365.5 615.25,-365.5"/>
<text xml:space="preserve" text-anchor="middle" x="575" y="-350" font-family="Arial" font-size="10.00">ReplayReportExport</text>
<text xml:space="preserve" text-anchor="middle" x="575" y="-338" font-family="Arial" font-size="10.00">immutable</text>
</a>
</g>
</g>
<!-- ReplayReportExporter&#45;&gt;ReplayReportExport -->
<g id="edge59" class="edge">
<title>ReplayReportExporter&#45;&gt;ReplayReportExport</title>
<path fill="none" stroke="black" d="M575,-433.8C575,-433.8 575,-374.36 575,-374.36"/>
<polygon fill="black" stroke="black" points="577.45,-374.36 575,-367.36 572.55,-374.36 577.45,-374.36"/>
<text xml:space="preserve" text-anchor="middle" x="591.88" y="-396.45" font-family="Arial" font-size="9.00">text/json</text>
</g>
<!-- ReplayReportFileWriter -->
<g id="node57" class="node">
<title>ReplayReportFileWriter</title>
<g id="a_node57"><a xlink:href="observability/70_observability.svg" xlink:title="ReplayReportFileWriter&#10;controlled files">
<path fill="#f5f5f5" stroke="#666666" d="M656.62,-261C656.62,-261 563.38,-261 563.38,-261 557.38,-261 551.38,-255 551.38,-249 551.38,-249 551.38,-237 551.38,-237 551.38,-231 557.38,-225 563.38,-225 563.38,-225 656.62,-225 656.62,-225 662.62,-225 668.62,-231 668.62,-237 668.62,-237 668.62,-249 668.62,-249 668.62,-255 662.62,-261 656.62,-261"/>
<text xml:space="preserve" text-anchor="middle" x="610" y="-245.5" font-family="Arial" font-size="10.00">ReplayReportFileWriter</text>
<text xml:space="preserve" text-anchor="middle" x="610" y="-233.5" font-family="Arial" font-size="10.00">controlled files</text>
</a>
</g>
</g>
<!-- ReplayReportExport&#45;&gt;ReplayReportFileWriter -->
<g id="edge60" class="edge">
<title>ReplayReportExport&#45;&gt;ReplayReportFileWriter</title>
<path fill="none" stroke="black" d="M589.31,-329.3C589.31,-329.3 589.31,-269.86 589.31,-269.86"/>
<polygon fill="black" stroke="black" points="591.76,-269.86 589.31,-262.86 586.86,-269.86 591.76,-269.86"/>
<text xml:space="preserve" text-anchor="middle" x="643.25" y="-291.95" font-family="Arial" font-size="9.00">write explicit path</text>
</g>
<!-- ReplayReportWriteResult -->
<g id="node58" class="node">
<title>ReplayReportWriteResult</title>
<g id="a_node58"><a xlink:href="observability/70_observability.svg" xlink:title="ReplayReportWriteResult&#10;sha256">
<path fill="#f5f5f5" stroke="#666666" d="M502.5,-156.5C502.5,-156.5 399.5,-156.5 399.5,-156.5 393.5,-156.5 387.5,-150.5 387.5,-144.5 387.5,-144.5 387.5,-132.5 387.5,-132.5 387.5,-126.5 393.5,-120.5 399.5,-120.5 399.5,-120.5 502.5,-120.5 502.5,-120.5 508.5,-120.5 514.5,-126.5 514.5,-132.5 514.5,-132.5 514.5,-144.5 514.5,-144.5 514.5,-150.5 508.5,-156.5 502.5,-156.5"/>
<text xml:space="preserve" text-anchor="middle" x="451" y="-141" font-family="Arial" font-size="10.00">ReplayReportWriteResult</text>
<text xml:space="preserve" text-anchor="middle" x="451" y="-129" font-family="Arial" font-size="10.00">sha256</text>
</a>
</g>
</g>
<!-- ReplayReportFileWriter&#45;&gt;ReplayReportWriteResult -->
<g id="edge61" class="edge">
<title>ReplayReportFileWriter&#45;&gt;ReplayReportWriteResult</title>
<path fill="none" stroke="black" d="M550.96,-243C529.31,-243 510,-243 510,-243 510,-243 510,-165.22 510,-165.22"/>
<polygon fill="black" stroke="black" points="512.45,-165.22 510,-158.22 507.55,-165.22 512.45,-165.22"/>
<text xml:space="preserve" text-anchor="middle" x="509.12" y="-187.45" font-family="Arial" font-size="9.00">bytes + sha256</text>
</g>
<!-- ReplayReportBundleWriter -->
<g id="node59" class="node">
<title>ReplayReportBundleWriter</title>
<g id="a_node59"><a xlink:href="observability/70_observability.svg" xlink:title="ReplayReportBundleWriter&#10;controlled bundle">
<path fill="#f5f5f5" stroke="#666666" d="M669.75,-156.5C669.75,-156.5 562.25,-156.5 562.25,-156.5 556.25,-156.5 550.25,-150.5 550.25,-144.5 550.25,-144.5 550.25,-132.5 550.25,-132.5 550.25,-126.5 556.25,-120.5 562.25,-120.5 562.25,-120.5 669.75,-120.5 669.75,-120.5 675.75,-120.5 681.75,-126.5 681.75,-132.5 681.75,-132.5 681.75,-144.5 681.75,-144.5 681.75,-150.5 675.75,-156.5 669.75,-156.5"/>
<text xml:space="preserve" text-anchor="middle" x="616" y="-141" font-family="Arial" font-size="10.00">ReplayReportBundleWriter</text>
<text xml:space="preserve" text-anchor="middle" x="616" y="-129" font-family="Arial" font-size="10.00">controlled bundle</text>
</a>
</g>
</g>
<!-- ReplayReportFileWriter&#45;&gt;ReplayReportBundleWriter -->
<g id="edge62" class="edge">
<title>ReplayReportFileWriter&#45;&gt;ReplayReportBundleWriter</title>
<path fill="none" stroke="black" stroke-dasharray="5,2" d="M610,-224.8C610,-224.8 610,-165.36 610,-165.36"/>
<polygon fill="black" stroke="black" points="612.45,-165.36 610,-158.36 607.55,-165.36 612.45,-165.36"/>
<text xml:space="preserve" text-anchor="middle" x="643.5" y="-187.45" font-family="Arial" font-size="9.00">used by bundle</text>
</g>
<!-- Replay -->
<g id="node62" class="node">
<title>Replay</title>
<g id="a_node62"><a xlink:href="observability/70_observability.svg" xlink:title="Replay">
<path fill="#f5f5f5" stroke="#666666" d="M466,-52C466,-52 436,-52 436,-52 430,-52 424,-46 424,-40 424,-40 424,-28 424,-28 424,-22 430,-16 436,-16 436,-16 466,-16 466,-16 472,-16 478,-22 478,-28 478,-28 478,-40 478,-40 478,-46 472,-52 466,-52"/>
<text xml:space="preserve" text-anchor="middle" x="451" y="-30.5" font-family="Arial" font-size="10.00">Replay</text>
</a>
</g>
</g>
<!-- ReplayReportWriteResult&#45;&gt;Replay -->
<g id="edge64" class="edge">
<title>ReplayReportWriteResult&#45;&gt;Replay</title>
<path fill="none" stroke="black" stroke-dasharray="5,2" d="M451,-120.3C451,-120.3 451,-60.86 451,-60.86"/>
<polygon fill="black" stroke="black" points="453.45,-60.86 451,-53.86 448.55,-60.86 453.45,-60.86"/>
</g>
<!-- ReplayBundleWriteResult -->
<g id="node60" class="node">
<title>ReplayBundleWriteResult</title>
<g id="a_node60"><a xlink:href="observability/70_observability.svg" xlink:title="ReplayBundleWriteResult&#10;manifest + sha256">
<path fill="#f5f5f5" stroke="#666666" d="M667.88,-52C667.88,-52 564.12,-52 564.12,-52 558.12,-52 552.12,-46 552.12,-40 552.12,-40 552.12,-28 552.12,-28 552.12,-22 558.12,-16 564.12,-16 564.12,-16 667.88,-16 667.88,-16 673.88,-16 679.88,-22 679.88,-28 679.88,-28 679.88,-40 679.88,-40 679.88,-46 673.88,-52 667.88,-52"/>
<text xml:space="preserve" text-anchor="middle" x="616" y="-36.5" font-family="Arial" font-size="10.00">ReplayBundleWriteResult</text>
<text xml:space="preserve" text-anchor="middle" x="616" y="-24.5" font-family="Arial" font-size="10.00">manifest + sha256</text>
</a>
</g>
</g>
<!-- ReplayReportBundleWriter&#45;&gt;ReplayBundleWriteResult -->
<g id="edge63" class="edge">
<title>ReplayReportBundleWriter&#45;&gt;ReplayBundleWriteResult</title>
<path fill="none" stroke="black" d="M616,-120.3C616,-120.3 616,-60.86 616,-60.86"/>
<polygon fill="black" stroke="black" points="618.45,-60.86 616,-53.86 613.55,-60.86 618.45,-60.86"/>
<text xml:space="preserve" text-anchor="middle" x="646.38" y="-82.95" font-family="Arial" font-size="9.00">manifest + files</text>
</g>
<!-- Metrics&#45;&gt;Learning -->
<g id="edge95" class="edge">
<title>Metrics&#45;&gt;Learning</title>
<path fill="none" stroke="black" stroke-dasharray="5,2" d="M467,-1094.85C467,-1071.24 467,-1033 467,-1033 467,-1033 143.38,-1033 143.38,-1033 143.38,-1033 143.38,-1026.94 143.38,-1026.94"/>
<polygon fill="black" stroke="black" points="145.83,-1026.94 143.38,-1019.94 140.93,-1026.94 145.83,-1026.94"/>
</g>
<!-- Dashboard -->
<g id="node63" class="node">
<title>Dashboard</title>
<g id="a_node63"><a xlink:href="observability/70_observability.svg" xlink:title="Dashboard">
<path fill="#f5f5f5" stroke="#666666" d="M495.62,-1018C495.62,-1018 456.38,-1018 456.38,-1018 450.38,-1018 444.38,-1012 444.38,-1006 444.38,-1006 444.38,-994 444.38,-994 444.38,-988 450.38,-982 456.38,-982 456.38,-982 495.62,-982 495.62,-982 501.62,-982 507.62,-988 507.62,-994 507.62,-994 507.62,-1006 507.62,-1006 507.62,-1012 501.62,-1018 495.62,-1018"/>
<text xml:space="preserve" text-anchor="middle" x="476" y="-996.5" font-family="Arial" font-size="10.00">Dashboard</text>
</a>
</g>
</g>
<!-- Metrics&#45;&gt;Dashboard -->
<g id="edge65" class="edge">
<title>Metrics&#45;&gt;Dashboard</title>
<path fill="none" stroke="black" stroke-dasharray="5,2" d="M485,-1094.59C485,-1094.59 485,-1026.91 485,-1026.91"/>
<polygon fill="black" stroke="black" points="487.45,-1026.91 485,-1019.91 482.55,-1026.91 487.45,-1026.91"/>
</g>
<!-- Watchdog -->
<g id="node64" class="node">
<title>Watchdog</title>
<g id="a_node64"><a xlink:href="observability/70_observability.svg" xlink:title="Watchdog">
<path fill="#f5f5f5" stroke="#666666" d="M669.75,-1357C669.75,-1357 634.25,-1357 634.25,-1357 628.25,-1357 622.25,-1351 622.25,-1345 622.25,-1345 622.25,-1333 622.25,-1333 622.25,-1327 628.25,-1321 634.25,-1321 634.25,-1321 669.75,-1321 669.75,-1321 675.75,-1321 681.75,-1327 681.75,-1333 681.75,-1333 681.75,-1345 681.75,-1345 681.75,-1351 675.75,-1357 669.75,-1357"/>
<text xml:space="preserve" text-anchor="middle" x="652" y="-1335.5" font-family="Arial" font-size="10.00">Watchdog</text>
</a>
</g>
</g>
<!-- Watchdog&#45;&gt;Scheduler -->
<g id="edge66" class="edge">
<title>Watchdog&#45;&gt;Scheduler</title>
<path fill="none" stroke="black" stroke-dasharray="5,2" d="M675.25,-1357.06C675.25,-1424.55 675.25,-1658 675.25,-1658 675.25,-1658 1255.64,-1658 1255.64,-1658"/>
<polygon fill="black" stroke="black" points="1255.64,-1660.45 1262.64,-1658 1255.64,-1655.55 1255.64,-1660.45"/>
</g>
<!-- Pytest -->
<g id="node65" class="node">
<title>Pytest</title>
<g id="a_node65"><a xlink:href="tests/80_tests.svg" xlink:title="pytest suite\n22 tests">
<path fill="#e3f2fd" stroke="#1565c0" d="M880.5,-1904C880.5,-1904 837.5,-1904 837.5,-1904 831.5,-1904 825.5,-1898 825.5,-1892 825.5,-1892 825.5,-1880 825.5,-1880 825.5,-1874 831.5,-1868 837.5,-1868 837.5,-1868 880.5,-1868 880.5,-1868 886.5,-1868 892.5,-1874 892.5,-1880 892.5,-1880 892.5,-1892 892.5,-1892 892.5,-1898 886.5,-1904 880.5,-1904"/>
<text xml:space="preserve" text-anchor="middle" x="859" y="-1888.5" font-family="Arial" font-size="10.00">pytest suite</text>
<text xml:space="preserve" text-anchor="middle" x="859" y="-1876.5" font-family="Arial" font-size="10.00">22 tests</text>
</a>
</g>
</g>
<!-- Pytest&#45;&gt;Proxy -->
<g id="edge69" class="edge">
<title>Pytest&#45;&gt;Proxy</title>
<path fill="none" stroke="black" stroke-dasharray="1,5" d="M892.73,-1886C1021.92,-1886 1478.12,-1886 1478.12,-1886 1478.12,-1886 1478.12,-1809.04 1478.12,-1809.04"/>
<polygon fill="black" stroke="black" points="1480.58,-1809.04 1478.13,-1802.04 1475.68,-1809.04 1480.58,-1809.04"/>
</g>
<!-- Pytest&#45;&gt;Policy -->
<g id="edge72" class="edge">
<title>Pytest&#45;&gt;Policy</title>
<path fill="none" stroke="black" stroke-dasharray="1,5" d="M888.56,-1867.84C888.56,-1798.87 888.56,-1557 888.56,-1557 888.56,-1557 1346.82,-1557 1346.82,-1557"/>
<polygon fill="black" stroke="black" points="1346.82,-1559.45 1353.82,-1557 1346.82,-1554.55 1346.82,-1559.45"/>
</g>
<!-- Pytest&#45;&gt;Dispatcher -->
<g id="edge68" class="edge">
<title>Pytest&#45;&gt;Dispatcher</title>
<path fill="none" stroke="black" stroke-dasharray="1,5" d="M880.68,-1867.8C880.68,-1772.89 880.68,-1339 880.68,-1339 880.68,-1339 1296.5,-1339 1296.5,-1339"/>
<polygon fill="black" stroke="black" points="1296.5,-1341.45 1303.5,-1339 1296.5,-1336.55 1296.5,-1341.45"/>
</g>
<!-- Pytest&#45;&gt;EventContract -->
<g id="edge67" class="edge">
<title>Pytest&#45;&gt;EventContract</title>
<path fill="none" stroke="black" stroke-dasharray="1,5" d="M876.74,-1867.65C876.74,-1747.68 876.74,-1080 876.74,-1080 876.74,-1080 2436.88,-1080 2436.88,-1080 2436.88,-1080 2436.88,-1026.67 2436.88,-1026.67"/>
<polygon fill="black" stroke="black" points="2439.33,-1026.67 2436.88,-1019.67 2434.43,-1026.67 2439.33,-1026.67"/>
</g>
<!-- Pytest&#45;&gt;ContextEngine -->
<g id="edge70" class="edge">
<title>Pytest&#45;&gt;ContextEngine</title>
<path fill="none" stroke="black" stroke-dasharray="1,5" d="M829.44,-1867.58C829.44,-1840.99 829.44,-1795 829.44,-1795 829.44,-1795 276.91,-1795 276.91,-1795"/>
<polygon fill="black" stroke="black" points="276.91,-1792.55 269.91,-1795 276.91,-1797.45 276.91,-1792.55"/>
</g>
<!-- Pytest&#45;&gt;InferenceHandler -->
<g id="edge71" class="edge">
<title>Pytest&#45;&gt;InferenceHandler</title>
<path fill="none" stroke="black" stroke-dasharray="1,5" d="M884.62,-1867.58C884.62,-1791.27 884.62,-1504 884.62,-1504 884.62,-1504 1675.17,-1504 1675.17,-1504 1675.17,-1504 1675.17,-1252.75 1675.17,-1252.75"/>
<polygon fill="black" stroke="black" points="1677.62,-1252.75 1675.17,-1245.75 1672.72,-1252.75 1677.62,-1252.75"/>
</g>
<!-- Pytest&#45;&gt;KernelTelemetry -->
<g id="edge73" class="edge">
<title>Pytest&#45;&gt;KernelTelemetry</title>
<path fill="none" stroke="black" stroke-dasharray="1,5" d="M837.32,-1867.51C837.32,-1836.41 837.32,-1777 837.32,-1777 837.32,-1777 444.35,-1777 444.35,-1777 444.35,-1777 444.35,-1365.78 444.35,-1365.78"/>
<polygon fill="black" stroke="black" points="446.8,-1365.78 444.35,-1358.78 441.9,-1365.78 446.8,-1365.78"/>
</g>
<!-- Pytest&#45;&gt;EventRecorder -->
<g id="edge74" class="edge">
<title>Pytest&#45;&gt;EventRecorder</title>
<path fill="none" stroke="black" stroke-dasharray="1,5" d="M833.38,-1867.59C833.38,-1837.96 833.38,-1783 833.38,-1783 833.38,-1783 333,-1783 333,-1783 333,-1783 333,-1365.75 333,-1365.75"/>
<polygon fill="black" stroke="black" points="335.45,-1365.75 333,-1358.75 330.55,-1365.75 335.45,-1365.75"/>
</g>
<!-- Pytest&#45;&gt;ReplayReader -->
<g id="edge75" class="edge">
<title>Pytest&#45;&gt;ReplayReader</title>
<path fill="none" stroke="black" stroke-dasharray="1,5" d="M841.26,-1867.63C841.26,-1755.88 841.26,-1172 841.26,-1172 841.26,-1172 347.04,-1172 347.04,-1172 347.04,-1172 347.04,-1139.86 347.04,-1139.86"/>
<polygon fill="black" stroke="black" points="349.49,-1139.86 347.04,-1132.86 344.59,-1139.86 349.49,-1139.86"/>
</g>
<!-- Pytest&#45;&gt;ReplaySandbox -->
<g id="edge76" class="edge">
<title>Pytest&#45;&gt;ReplaySandbox</title>
<path fill="none" stroke="black" stroke-dasharray="1,5" d="M845.21,-1867.65C845.21,-1732.95 845.21,-902 845.21,-902 845.21,-902 575.5,-902 575.5,-902"/>
<polygon fill="black" stroke="black" points="575.5,-899.55 568.5,-902 575.5,-904.45 575.5,-899.55"/>
</g>
<!-- Pytest&#45;&gt;ReplayScenarioRunner -->
<g id="edge77" class="edge">
<title>Pytest&#45;&gt;ReplayScenarioRunner</title>
<path fill="none" stroke="black" stroke-dasharray="1,5" d="M849.15,-1867.73C849.15,-1715.35 849.15,-661 849.15,-661 849.15,-661 606.21,-661 606.21,-661"/>
<polygon fill="black" stroke="black" points="606.21,-658.55 599.21,-661 606.21,-663.45 606.21,-658.55"/>
</g>
<!-- Pytest&#45;&gt;ReplayReport -->
<g id="edge78" class="edge">
<title>Pytest&#45;&gt;ReplayReport</title>
<path fill="none" stroke="black" stroke-dasharray="1,5" d="M853.09,-1867.72C853.09,-1708.09 853.09,-557 853.09,-557 853.09,-557 585.71,-557 585.71,-557"/>
<polygon fill="black" stroke="black" points="585.71,-554.55 578.71,-557 585.71,-559.45 585.71,-554.55"/>
</g>
<!-- Pytest&#45;&gt;ReplayReportExporter -->
<g id="edge79" class="edge">
<title>Pytest&#45;&gt;ReplayReportExporter</title>
<path fill="none" stroke="black" stroke-dasharray="1,5" d="M857.03,-1867.61C857.03,-1700.56 857.03,-452 857.03,-452 857.03,-452 640.25,-452 640.25,-452"/>
<polygon fill="black" stroke="black" points="640.25,-449.55 633.25,-452 640.25,-454.45 640.25,-449.55"/>
</g>
<!-- Pytest&#45;&gt;ReplayReportExport -->
<g id="edge80" class="edge">
<title>Pytest&#45;&gt;ReplayReportExport</title>
<path fill="none" stroke="black" stroke-dasharray="1,5" d="M860.97,-1867.66C860.97,-1694.13 860.97,-348 860.97,-348 860.97,-348 635.96,-348 635.96,-348"/>
<polygon fill="black" stroke="black" points="635.96,-345.55 628.96,-348 635.96,-350.45 635.96,-345.55"/>
</g>
<!-- Pytest&#45;&gt;ReplayReportFileWriter -->
<g id="edge81" class="edge">
<title>Pytest&#45;&gt;ReplayReportFileWriter</title>
<path fill="none" stroke="black" stroke-dasharray="1,5" d="M868.85,-1867.55C868.85,-1687.04 868.85,-243 868.85,-243 868.85,-243 677.58,-243 677.58,-243"/>
<polygon fill="black" stroke="black" points="677.58,-240.55 670.58,-243 677.58,-245.45 677.58,-240.55"/>
</g>
<!-- Pytest&#45;&gt;ReplayReportWriteResult -->
<g id="edge83" class="edge">
<title>Pytest&#45;&gt;ReplayReportWriteResult</title>
<path fill="none" stroke="black" stroke-dasharray="1,5" d="M864.91,-1867.58C864.91,-1690.43 864.91,-295 864.91,-295 864.91,-295 505.5,-295 505.5,-295 505.5,-295 505.5,-165.27 505.5,-165.27"/>
<polygon fill="black" stroke="black" points="507.95,-165.27 505.5,-158.27 503.05,-165.27 507.95,-165.27"/>
</g>
<!-- Pytest&#45;&gt;ReplayReportBundleWriter -->
<g id="edge82" class="edge">
<title>Pytest&#45;&gt;ReplayReportBundleWriter</title>
<path fill="none" stroke="black" stroke-dasharray="1,5" d="M872.79,-1867.56C872.79,-1680.85 872.79,-139 872.79,-139 872.79,-139 690.64,-139 690.64,-139"/>
<polygon fill="black" stroke="black" points="690.64,-136.55 683.64,-139 690.64,-141.45 690.64,-136.55"/>
</g>
<!-- CompileAll -->
<g id="node66" class="node">
<title>CompileAll</title>
<path fill="#e3f2fd" stroke="#1565c0" d="M656.75,-1904C656.75,-1904 621.25,-1904 621.25,-1904 615.25,-1904 609.25,-1898 609.25,-1892 609.25,-1892 609.25,-1880 609.25,-1880 609.25,-1874 615.25,-1868 621.25,-1868 621.25,-1868 656.75,-1868 656.75,-1868 662.75,-1868 668.75,-1874 668.75,-1880 668.75,-1880 668.75,-1892 668.75,-1892 668.75,-1898 662.75,-1904 656.75,-1904"/>
<text xml:space="preserve" text-anchor="middle" x="639" y="-1882.5" font-family="Arial" font-size="10.00">compileall</text>
</g>
<!-- CompileAll&#45;&gt;Scheduler -->
<g id="edge84" class="edge">
<title>CompileAll&#45;&gt;Scheduler</title>
<path fill="none" stroke="black" stroke-dasharray="1,5" d="M645.5,-1867.73C645.5,-1816.64 645.5,-1676 645.5,-1676 645.5,-1676 1255.51,-1676 1255.51,-1676"/>
<polygon fill="black" stroke="black" points="1255.51,-1678.45 1262.51,-1676 1255.51,-1673.55 1255.51,-1678.45"/>
</g>
<!-- DotRender -->
<g id="node67" class="node">
<title>DotRender</title>
<path fill="#e3f2fd" stroke="#1565c0" d="M777.5,-1904C777.5,-1904 716.5,-1904 716.5,-1904 710.5,-1904 704.5,-1898 704.5,-1892 704.5,-1892 704.5,-1880 704.5,-1880 704.5,-1874 710.5,-1868 716.5,-1868 716.5,-1868 777.5,-1868 777.5,-1868 783.5,-1868 789.5,-1874 789.5,-1880 789.5,-1880 789.5,-1892 789.5,-1892 789.5,-1898 783.5,-1904 777.5,-1904"/>
<text xml:space="preserve" text-anchor="middle" x="747" y="-1882.5" font-family="Arial" font-size="10.00">Graphviz render</text>
</g>
<!-- DotRender&#45;&gt;Scheduler -->
<g id="edge85" class="edge">
<title>DotRender&#45;&gt;Scheduler</title>
<path fill="none" stroke="black" stroke-dasharray="1,5" d="M747,-1867.54C747,-1817.32 747,-1682 747,-1682 747,-1682 1255.3,-1682 1255.3,-1682"/>
<polygon fill="black" stroke="black" points="1255.3,-1684.45 1262.3,-1682 1255.3,-1679.55 1255.3,-1684.45"/>
</g>
</g>
</svg>
