<?xml version="1.0" encoding="UTF-8" standalone="no"?>
<!DOCTYPE svg PUBLIC "-//W3C//DTD SVG 1.1//EN"
 "http://www.w3.org/Graphics/SVG/1.1/DTD/svg11.dtd">
<!-- Generated by graphviz version 2.42.4 (0)
 -->
<!-- Title: Experts Pages: 1 -->
<svg width="734pt" height="201pt"
 viewBox="0.00 0.00 734.00 201.00" xmlns="http://www.w3.org/2000/svg" xmlns:xlink="http://www.w3.org/1999/xlink">
<g id="graph0" class="graph" transform="scale(1 1) rotate(0) translate(4 197)">
<title>Experts</title>
<polygon fill="white" stroke="transparent" points="-4,4 -4,-197 730,-197 730,4 -4,4"/>
<g id="clust1" class="cluster">
<title>cluster_current</title>
<polygon fill="#e8f5e9" stroke="#388e3c" points="8,-46 8,-121 104,-121 104,-46 8,-46"/>
<text text-anchor="middle" x="56" y="-105.8" font-family="Times,serif" font-size="14.00">Current</text>
</g>
<g id="clust2" class="cluster">
<title>cluster_future</title>
<polygon fill="#e8f5e9" stroke="#2e7d32" points="112,-46 112,-121 718,-121 718,-46 112,-46"/>
<text text-anchor="middle" x="415" y="-105.8" font-family="Times,serif" font-size="14.00">Future experts</text>
</g>
<!-- Proxy -->
<g id="node1" class="node">
<title>Proxy</title>
<g id="a_node1"><a xlink:href="../scheduler/10_scheduler.svg" xlink:title="ComponentProxy">
<path fill="#ede7f6" stroke="#512da8" d="M90,-193C90,-193 22,-193 22,-193 16,-193 10,-187 10,-181 10,-181 10,-169 10,-169 10,-163 16,-157 22,-157 22,-157 90,-157 90,-157 96,-157 102,-163 102,-169 102,-169 102,-181 102,-181 102,-187 96,-193 90,-193"/>
<text text-anchor="middle" x="56" y="-172.5" font-family="Arial" font-size="10.00">ComponentProxy</text>
</a>
</g>
</g>
<!-- DummyExpert -->
<g id="node3" class="node">
<title>DummyExpert</title>
<path fill="#e8f5e9" stroke="#388e3c" d="M84,-90C84,-90 28,-90 28,-90 22,-90 16,-84 16,-78 16,-78 16,-66 16,-66 16,-60 22,-54 28,-54 28,-54 84,-54 84,-54 90,-54 96,-60 96,-66 96,-66 96,-78 96,-78 96,-84 90,-90 84,-90"/>
<text text-anchor="middle" x="56" y="-69.5" font-family="Arial" font-size="10.00">DummyExpert</text>
</g>
<!-- Proxy&#45;&gt;DummyExpert -->
<g id="edge10" class="edge">
<title>Proxy&#45;&gt;DummyExpert</title>
<path fill="none" stroke="black" d="M56,-156.87C56,-141.41 56,-118.42 56,-100.41"/>
<polygon fill="black" stroke="black" points="59.5,-100.22 56,-90.22 52.5,-100.22 59.5,-100.22"/>
<text text-anchor="middle" x="70.5" y="-131.8" font-family="Arial" font-size="9.00">current</text>
</g>
<!-- Contract -->
<g id="node2" class="node">
<title>Contract</title>
<path fill="#eceff1" stroke="#455a64" d="M403.5,-193C403.5,-193 322.5,-193 322.5,-193 316.5,-193 310.5,-187 310.5,-181 310.5,-181 310.5,-169 310.5,-169 310.5,-163 316.5,-157 322.5,-157 322.5,-157 403.5,-157 403.5,-157 409.5,-157 415.5,-163 415.5,-169 415.5,-169 415.5,-181 415.5,-181 415.5,-187 409.5,-193 403.5,-193"/>
<text text-anchor="middle" x="363" y="-178" font-family="Arial" font-size="10.00">Component contract</text>
<text text-anchor="middle" x="363" y="-167" font-family="Arial" font-size="10.00">tick() + context()</text>
</g>
<!-- Contract&#45;&gt;DummyExpert -->
<g id="edge1" class="edge">
<title>Contract&#45;&gt;DummyExpert</title>
<path fill="none" stroke="black" d="M310.4,-171.4C256.8,-166.89 172.59,-154.58 108,-121 96.7,-115.13 86.03,-106.14 77.33,-97.53"/>
<polygon fill="black" stroke="black" points="79.68,-94.92 70.22,-90.14 74.63,-99.77 79.68,-94.92"/>
</g>
<!-- Python -->
<g id="node4" class="node">
<title>Python</title>
<path fill="#e8f5e9" stroke="#2e7d32" d="M162,-90C162,-90 132,-90 132,-90 126,-90 120,-84 120,-78 120,-78 120,-66 120,-66 120,-60 126,-54 132,-54 132,-54 162,-54 162,-54 168,-54 174,-60 174,-66 174,-66 174,-78 174,-78 174,-84 168,-90 162,-90"/>
<text text-anchor="middle" x="147" y="-69.5" font-family="Arial" font-size="10.00">Python</text>
</g>
<!-- Contract&#45;&gt;Python -->
<g id="edge2" class="edge">
<title>Contract&#45;&gt;Python</title>
<path fill="none" stroke="black" stroke-dasharray="5,2" d="M310.31,-167.52C272.23,-160.8 221,-147.38 183,-121 174.71,-115.24 167.53,-106.96 161.82,-98.9"/>
<polygon fill="black" stroke="black" points="164.62,-96.79 156.21,-90.36 158.77,-100.64 164.62,-96.79"/>
</g>
<!-- C -->
<g id="node5" class="node">
<title>C</title>
<path fill="#e8f5e9" stroke="#2e7d32" d="M234,-90C234,-90 204,-90 204,-90 198,-90 192,-84 192,-78 192,-78 192,-66 192,-66 192,-60 198,-54 204,-54 204,-54 234,-54 234,-54 240,-54 246,-60 246,-66 246,-66 246,-78 246,-78 246,-84 240,-90 234,-90"/>
<text text-anchor="middle" x="219" y="-69.5" font-family="Arial" font-size="10.00">C</text>
</g>
<!-- Contract&#45;&gt;C -->
<g id="edge3" class="edge">
<title>Contract&#45;&gt;C</title>
<path fill="none" stroke="black" stroke-dasharray="5,2" d="M316.57,-156.96C296.35,-148.15 273.18,-136.05 255,-121 247.34,-114.66 240.39,-106.37 234.68,-98.47"/>
<polygon fill="black" stroke="black" points="237.53,-96.44 229,-90.16 231.75,-100.39 237.53,-96.44"/>
</g>
<!-- ASM -->
<g id="node6" class="node">
<title>ASM</title>
<path fill="#e8f5e9" stroke="#2e7d32" d="M306,-90C306,-90 276,-90 276,-90 270,-90 264,-84 264,-78 264,-78 264,-66 264,-66 264,-60 270,-54 276,-54 276,-54 306,-54 306,-54 312,-54 318,-60 318,-66 318,-66 318,-78 318,-78 318,-84 312,-90 306,-90"/>
<text text-anchor="middle" x="291" y="-69.5" font-family="Arial" font-size="10.00">ASM</text>
</g>
<!-- Contract&#45;&gt;ASM -->
<g id="edge4" class="edge">
<title>Contract&#45;&gt;ASM</title>
<path fill="none" stroke="black" stroke-dasharray="5,2" d="M350.79,-156.87C339.41,-140.91 322.29,-116.9 309.29,-98.65"/>
<polygon fill="black" stroke="black" points="311.93,-96.33 303.27,-90.22 306.23,-100.39 311.93,-96.33"/>
</g>
<!-- KiCad -->
<g id="node7" class="node">
<title>KiCad</title>
<path fill="#e8f5e9" stroke="#2e7d32" d="M378,-90C378,-90 348,-90 348,-90 342,-90 336,-84 336,-78 336,-78 336,-66 336,-66 336,-60 342,-54 348,-54 348,-54 378,-54 378,-54 384,-54 390,-60 390,-66 390,-66 390,-78 390,-78 390,-84 384,-90 378,-90"/>
<text text-anchor="middle" x="363" y="-69.5" font-family="Arial" font-size="10.00">KiCad</text>
</g>
<!-- Contract&#45;&gt;KiCad -->
<g id="edge5" class="edge">
<title>Contract&#45;&gt;KiCad</title>
<path fill="none" stroke="black" stroke-dasharray="5,2" d="M363,-156.87C363,-141.41 363,-118.42 363,-100.41"/>
<polygon fill="black" stroke="black" points="366.5,-100.22 363,-90.22 359.5,-100.22 366.5,-100.22"/>
</g>
<!-- FreeCAD -->
<g id="node8" class="node">
<title>FreeCAD</title>
<path fill="#e8f5e9" stroke="#2e7d32" d="M454,-90C454,-90 420,-90 420,-90 414,-90 408,-84 408,-78 408,-78 408,-66 408,-66 408,-60 414,-54 420,-54 420,-54 454,-54 454,-54 460,-54 466,-60 466,-66 466,-66 466,-78 466,-78 466,-84 460,-90 454,-90"/>
<text text-anchor="middle" x="437" y="-69.5" font-family="Arial" font-size="10.00">FreeCAD</text>
</g>
<!-- Contract&#45;&gt;FreeCAD -->
<g id="edge6" class="edge">
<title>Contract&#45;&gt;FreeCAD</title>
<path fill="none" stroke="black" stroke-dasharray="5,2" d="M375.55,-156.87C387.25,-140.91 404.84,-116.9 418.21,-98.65"/>
<polygon fill="black" stroke="black" points="421.3,-100.35 424.39,-90.22 415.65,-96.22 421.3,-100.35"/>
</g>
<!-- Web -->
<g id="node9" class="node">
<title>Web</title>
<path fill="#e8f5e9" stroke="#2e7d32" d="M526,-90C526,-90 496,-90 496,-90 490,-90 484,-84 484,-78 484,-78 484,-66 484,-66 484,-60 490,-54 496,-54 496,-54 526,-54 526,-54 532,-54 538,-60 538,-66 538,-66 538,-78 538,-78 538,-84 532,-90 526,-90"/>
<text text-anchor="middle" x="511" y="-69.5" font-family="Arial" font-size="10.00">Web</text>
</g>
<!-- Contract&#45;&gt;Web -->
<g id="edge7" class="edge">
<title>Contract&#45;&gt;Web</title>
<path fill="none" stroke="black" stroke-dasharray="5,2" d="M412.01,-156.9C432.78,-148.18 456.42,-136.17 475,-121 482.7,-114.71 489.67,-106.44 495.37,-98.53"/>
<polygon fill="black" stroke="black" points="498.3,-100.45 501.05,-90.21 492.52,-96.5 498.3,-100.45"/>
</g>
<!-- SVG_MIDI -->
<g id="node10" class="node">
<title>SVG_MIDI</title>
<path fill="#e8f5e9" stroke="#2e7d32" d="M612,-90C612,-90 568,-90 568,-90 562,-90 556,-84 556,-78 556,-78 556,-66 556,-66 556,-60 562,-54 568,-54 568,-54 612,-54 612,-54 618,-54 624,-60 624,-66 624,-66 624,-78 624,-78 624,-84 618,-90 612,-90"/>
<text text-anchor="middle" x="590" y="-69.5" font-family="Arial" font-size="10.00">SVG / MIDI</text>
</g>
<!-- Contract&#45;&gt;SVG_MIDI -->
<g id="edge8" class="edge">
<title>Contract&#45;&gt;SVG_MIDI</title>
<path fill="none" stroke="black" stroke-dasharray="5,2" d="M415.77,-166.83C454.41,-159.75 506.87,-146.18 547,-121 556.38,-115.11 564.94,-106.6 571.9,-98.37"/>
<polygon fill="black" stroke="black" points="574.81,-100.35 578.31,-90.35 569.34,-95.98 574.81,-100.35"/>
</g>
<!-- MetaExpert -->
<g id="node11" class="node">
<title>MetaExpert</title>
<path fill="#e8f5e9" stroke="#2e7d32" d="M697.5,-90C697.5,-90 654.5,-90 654.5,-90 648.5,-90 642.5,-84 642.5,-78 642.5,-78 642.5,-66 642.5,-66 642.5,-60 648.5,-54 654.5,-54 654.5,-54 697.5,-54 697.5,-54 703.5,-54 709.5,-60 709.5,-66 709.5,-66 709.5,-78 709.5,-78 709.5,-84 703.5,-90 697.5,-90"/>
<text text-anchor="middle" x="676" y="-69.5" font-family="Arial" font-size="10.00">MetaExpert</text>
</g>
<!-- Contract&#45;&gt;MetaExpert -->
<g id="edge9" class="edge">
<title>Contract&#45;&gt;MetaExpert</title>
<path fill="none" stroke="black" stroke-dasharray="5,2" d="M415.64,-173.41C472.69,-170.65 564.69,-159.84 633,-121 642.88,-115.38 651.68,-106.67 658.71,-98.2"/>
<polygon fill="black" stroke="black" points="661.51,-100.31 664.89,-90.26 655.99,-96.01 661.51,-100.31"/>
</g>
<!-- Nav_Global -->
<g id="node12" class="node">
<title>Nav_Global</title>
<g id="a_node12"><a xlink:href="../00_global.svg" xlink:title="Global">
<path fill="lightgrey" stroke="transparent" d="M71,-36C71,-36 41,-36 41,-36 35,-36 29,-30 29,-24 29,-24 29,-12 29,-12 29,-6 35,0 41,0 41,0 71,0 71,0 77,0 83,-6 83,-12 83,-12 83,-24 83,-24 83,-30 77,-36 71,-36"/>
<text text-anchor="middle" x="56" y="-15.5" font-family="Arial" font-size="10.00">Global</text>
</a>
</g>
</g>
</g>
</svg>
