<?xml version="1.0" encoding="UTF-8" standalone="no"?>
<!DOCTYPE svg PUBLIC "-//W3C//DTD SVG 1.1//EN"
 "http://www.w3.org/Graphics/SVG/1.1/DTD/svg11.dtd">
<!-- Generated by graphviz version 14.1.3 (20260303.0454)
 -->
<!-- Title: Experts Pages: 1 -->
<svg width="732pt" height="204pt"
 viewBox="0.00 0.00 732.00 204.00" xmlns="http://www.w3.org/2000/svg" xmlns:xlink="http://www.w3.org/1999/xlink">
<g id="graph0" class="graph" transform="scale(1 1) rotate(0) translate(4 199.75)">
<title>Experts</title>
<polygon fill="white" stroke="none" points="-4,4 -4,-199.75 728,-199.75 728,4 -4,4"/>
<g id="clust1" class="cluster">
<title>cluster_current</title>
<polygon fill="#e8f5e9" stroke="#388e3c" points="8,-46 8,-123.25 104,-123.25 104,-46 8,-46"/>
<text xml:space="preserve" text-anchor="middle" x="56" y="-105.95" font-family="Times,serif" font-size="14.00">Current</text>
</g>
<g id="clust2" class="cluster">
<title>cluster_future</title>
<polygon fill="#e8f5e9" stroke="#2e7d32" points="112,-46 112,-123.25 716,-123.25 716,-46 112,-46"/>
<text xml:space="preserve" text-anchor="middle" x="414" y="-105.95" font-family="Times,serif" font-size="14.00">Future experts</text>
</g>
<!-- Proxy -->
<g id="node1" class="node">
<title>Proxy</title>
<g id="a_node1"><a xlink:href="../scheduler/10_scheduler.svg" xlink:title="ComponentProxy">
<path fill="#ede7f6" stroke="#512da8" d="M89.88,-195.75C89.88,-195.75 22.12,-195.75 22.12,-195.75 16.12,-195.75 10.12,-189.75 10.12,-183.75 10.12,-183.75 10.12,-171.75 10.12,-171.75 10.12,-165.75 16.12,-159.75 22.12,-159.75 22.12,-159.75 89.88,-159.75 89.88,-159.75 95.88,-159.75 101.88,-165.75 101.88,-171.75 101.88,-171.75 101.88,-183.75 101.88,-183.75 101.88,-189.75 95.88,-195.75 89.88,-195.75"/>
<text xml:space="preserve" text-anchor="middle" x="56" y="-174.25" font-family="Arial" font-size="10.00">ComponentProxy</text>
</a>
</g>
</g>
<!-- DummyExpert -->
<g id="node3" class="node">
<title>DummyExpert</title>
<path fill="#e8f5e9" stroke="#388e3c" d="M83.5,-90C83.5,-90 28.5,-90 28.5,-90 22.5,-90 16.5,-84 16.5,-78 16.5,-78 16.5,-66 16.5,-66 16.5,-60 22.5,-54 28.5,-54 28.5,-54 83.5,-54 83.5,-54 89.5,-54 95.5,-60 95.5,-66 95.5,-66 95.5,-78 95.5,-78 95.5,-84 89.5,-90 83.5,-90"/>
<text xml:space="preserve" text-anchor="middle" x="56" y="-68.5" font-family="Arial" font-size="10.00">DummyExpert</text>
</g>
<!-- Proxy&#45;&gt;DummyExpert -->
<g id="edge10" class="edge">
<title>Proxy&#45;&gt;DummyExpert</title>
<path fill="none" stroke="black" d="M56,-159.62C56,-143.85 56,-120.15 56,-101.53"/>
<polygon fill="black" stroke="black" points="59.5,-101.67 56,-91.67 52.5,-101.67 59.5,-101.67"/>
<text xml:space="preserve" text-anchor="middle" x="70.25" y="-133.2" font-family="Arial" font-size="9.00">current</text>
</g>
<!-- Contract -->
<g id="node2" class="node">
<title>Contract</title>
<path fill="#eceff1" stroke="#455a64" d="M403.25,-195.75C403.25,-195.75 322.75,-195.75 322.75,-195.75 316.75,-195.75 310.75,-189.75 310.75,-183.75 310.75,-183.75 310.75,-171.75 310.75,-171.75 310.75,-165.75 316.75,-159.75 322.75,-159.75 322.75,-159.75 403.25,-159.75 403.25,-159.75 409.25,-159.75 415.25,-165.75 415.25,-171.75 415.25,-171.75 415.25,-183.75 415.25,-183.75 415.25,-189.75 409.25,-195.75 403.25,-195.75"/>
<text xml:space="preserve" text-anchor="middle" x="363" y="-180.25" font-family="Arial" font-size="10.00">Component contract</text>
<text xml:space="preserve" text-anchor="middle" x="363" y="-168.25" font-family="Arial" font-size="10.00">tick() + context()</text>
</g>
<!-- Contract&#45;&gt;DummyExpert -->
<g id="edge1" class="edge">
<title>Contract&#45;&gt;DummyExpert</title>
<path fill="none" stroke="black" d="M310.73,-174.38C257.01,-170.05 172.37,-157.79 108,-123.25 96.6,-117.13 85.95,-107.8 77.3,-98.82"/>
<polygon fill="black" stroke="black" points="80,-96.59 70.67,-91.57 74.83,-101.31 80,-96.59"/>
</g>
<!-- Python -->
<g id="node4" class="node">
<title>Python</title>
<path fill="#e8f5e9" stroke="#2e7d32" d="M162,-90C162,-90 132,-90 132,-90 126,-90 120,-84 120,-78 120,-78 120,-66 120,-66 120,-60 126,-54 132,-54 132,-54 162,-54 162,-54 168,-54 174,-60 174,-66 174,-66 174,-78 174,-78 174,-84 168,-90 162,-90"/>
<text xml:space="preserve" text-anchor="middle" x="147" y="-68.5" font-family="Arial" font-size="10.00">Python</text>
</g>
<!-- Contract&#45;&gt;Python -->
<g id="edge2" class="edge">
<title>Contract&#45;&gt;Python</title>
<path fill="none" stroke="black" stroke-dasharray="5,2" d="M310.54,-170.42C272.32,-163.73 220.84,-150.21 183,-123.25 174.46,-117.16 167.19,-108.4 161.47,-99.89"/>
<polygon fill="black" stroke="black" points="164.51,-98.15 156.27,-91.48 158.55,-101.83 164.51,-98.15"/>
</g>
<!-- C -->
<g id="node5" class="node">
<title>C</title>
<path fill="#e8f5e9" stroke="#2e7d32" d="M234,-90C234,-90 204,-90 204,-90 198,-90 192,-84 192,-78 192,-78 192,-66 192,-66 192,-60 198,-54 204,-54 204,-54 234,-54 234,-54 240,-54 246,-60 246,-66 246,-66 246,-78 246,-78 246,-84 240,-90 234,-90"/>
<text xml:space="preserve" text-anchor="middle" x="219" y="-68.5" font-family="Arial" font-size="10.00">C</text>
</g>
<!-- Contract&#45;&gt;C -->
<g id="edge3" class="edge">
<title>Contract&#45;&gt;C</title>
<path fill="none" stroke="black" stroke-dasharray="5,2" d="M315.61,-159.3C295.56,-150.46 272.78,-138.36 255,-123.25 247.33,-116.73 240.44,-108.23 234.8,-100.09"/>
<polygon fill="black" stroke="black" points="237.77,-98.24 229.38,-91.76 231.9,-102.05 237.77,-98.24"/>
</g>
<!-- ASM -->
<g id="node6" class="node">
<title>ASM</title>
<path fill="#e8f5e9" stroke="#2e7d32" d="M306,-90C306,-90 276,-90 276,-90 270,-90 264,-84 264,-78 264,-78 264,-66 264,-66 264,-60 270,-54 276,-54 276,-54 306,-54 306,-54 312,-54 318,-60 318,-66 318,-66 318,-78 318,-78 318,-84 312,-90 306,-90"/>
<text xml:space="preserve" text-anchor="middle" x="291" y="-68.5" font-family="Arial" font-size="10.00">ASM</text>
</g>
<!-- Contract&#45;&gt;ASM -->
<g id="edge4" class="edge">
<title>Contract&#45;&gt;ASM</title>
<path fill="none" stroke="black" stroke-dasharray="5,2" d="M351.11,-159.62C339.75,-143.25 322.46,-118.34 309.34,-99.42"/>
<polygon fill="black" stroke="black" points="312.35,-97.62 303.77,-91.4 306.6,-101.61 312.35,-97.62"/>
</g>
<!-- KiCad -->
<g id="node7" class="node">
<title>KiCad</title>
<path fill="#e8f5e9" stroke="#2e7d32" d="M378,-90C378,-90 348,-90 348,-90 342,-90 336,-84 336,-78 336,-78 336,-66 336,-66 336,-60 342,-54 348,-54 348,-54 378,-54 378,-54 384,-54 390,-60 390,-66 390,-66 390,-78 390,-78 390,-84 384,-90 378,-90"/>
<text xml:space="preserve" text-anchor="middle" x="363" y="-68.5" font-family="Arial" font-size="10.00">KiCad</text>
</g>
<!-- Contract&#45;&gt;KiCad -->
<g id="edge5" class="edge">
<title>Contract&#45;&gt;KiCad</title>
<path fill="none" stroke="black" stroke-dasharray="5,2" d="M363,-159.62C363,-143.85 363,-120.15 363,-101.53"/>
<polygon fill="black" stroke="black" points="366.5,-101.67 363,-91.67 359.5,-101.67 366.5,-101.67"/>
</g>
<!-- FreeCAD -->
<g id="node8" class="node">
<title>FreeCAD</title>
<path fill="#e8f5e9" stroke="#2e7d32" d="M453.62,-90C453.62,-90 420.38,-90 420.38,-90 414.38,-90 408.38,-84 408.38,-78 408.38,-78 408.38,-66 408.38,-66 408.38,-60 414.38,-54 420.38,-54 420.38,-54 453.62,-54 453.62,-54 459.62,-54 465.62,-60 465.62,-66 465.62,-66 465.62,-78 465.62,-78 465.62,-84 459.62,-90 453.62,-90"/>
<text xml:space="preserve" text-anchor="middle" x="437" y="-68.5" font-family="Arial" font-size="10.00">FreeCAD</text>
</g>
<!-- Contract&#45;&gt;FreeCAD -->
<g id="edge6" class="edge">
<title>Contract&#45;&gt;FreeCAD</title>
<path fill="none" stroke="black" stroke-dasharray="5,2" d="M375.22,-159.62C386.9,-143.25 404.66,-118.34 418.15,-99.42"/>
<polygon fill="black" stroke="black" points="420.93,-101.56 423.88,-91.39 415.23,-97.5 420.93,-101.56"/>
</g>
<!-- Web -->
<g id="node9" class="node">
<title>Web</title>
<path fill="#e8f5e9" stroke="#2e7d32" d="M526,-90C526,-90 496,-90 496,-90 490,-90 484,-84 484,-78 484,-78 484,-66 484,-66 484,-60 490,-54 496,-54 496,-54 526,-54 526,-54 532,-54 538,-60 538,-66 538,-66 538,-78 538,-78 538,-84 532,-90 526,-90"/>
<text xml:space="preserve" text-anchor="middle" x="511" y="-68.5" font-family="Arial" font-size="10.00">Web</text>
</g>
<!-- Contract&#45;&gt;Web -->
<g id="edge7" class="edge">
<title>Contract&#45;&gt;Web</title>
<path fill="none" stroke="black" stroke-dasharray="5,2" d="M412.72,-159.37C433.39,-150.6 456.75,-138.54 475,-123.25 482.92,-116.61 489.98,-107.86 495.7,-99.52"/>
<polygon fill="black" stroke="black" points="498.49,-101.64 500.96,-91.34 492.6,-97.86 498.49,-101.64"/>
</g>
<!-- SVG_MIDI -->
<g id="node10" class="node">
<title>SVG_MIDI</title>
<path fill="#e8f5e9" stroke="#2e7d32" d="M611.88,-90C611.88,-90 568.12,-90 568.12,-90 562.12,-90 556.12,-84 556.12,-78 556.12,-78 556.12,-66 556.12,-66 556.12,-60 562.12,-54 568.12,-54 568.12,-54 611.88,-54 611.88,-54 617.88,-54 623.88,-60 623.88,-66 623.88,-66 623.88,-78 623.88,-78 623.88,-84 617.88,-90 611.88,-90"/>
<text xml:space="preserve" text-anchor="middle" x="590" y="-68.5" font-family="Arial" font-size="10.00">SVG / MIDI</text>
</g>
<!-- Contract&#45;&gt;SVG_MIDI -->
<g id="edge8" class="edge">
<title>Contract&#45;&gt;SVG_MIDI</title>
<path fill="none" stroke="black" stroke-dasharray="5,2" d="M415.54,-169.76C454.3,-162.71 507.03,-149.04 547,-123.25 556.64,-117.03 565.3,-108.02 572.28,-99.34"/>
<polygon fill="black" stroke="black" points="575.03,-101.5 578.25,-91.4 569.44,-97.29 575.03,-101.5"/>
</g>
<!-- MetaExpert -->
<g id="node11" class="node">
<title>MetaExpert</title>
<path fill="#e8f5e9" stroke="#2e7d32" d="M696.12,-90C696.12,-90 653.88,-90 653.88,-90 647.88,-90 641.88,-84 641.88,-78 641.88,-78 641.88,-66 641.88,-66 641.88,-60 647.88,-54 653.88,-54 653.88,-54 696.12,-54 696.12,-54 702.12,-54 708.12,-60 708.12,-66 708.12,-66 708.12,-78 708.12,-78 708.12,-84 702.12,-90 696.12,-90"/>
<text xml:space="preserve" text-anchor="middle" x="675" y="-68.5" font-family="Arial" font-size="10.00">MetaExpert</text>
</g>
<!-- Contract&#45;&gt;MetaExpert -->
<g id="edge9" class="edge">
<title>Contract&#45;&gt;MetaExpert</title>
<path fill="none" stroke="black" stroke-dasharray="5,2" d="M415.64,-176.51C472.9,-174.03 565.28,-163.4 633,-123.25 642.91,-117.37 651.56,-108.28 658.39,-99.43"/>
<polygon fill="black" stroke="black" points="661.21,-101.49 664.18,-91.32 655.52,-97.42 661.21,-101.49"/>
</g>
<!-- Nav_Global -->
<g id="node12" class="node">
<title>Nav_Global</title>
<g id="a_node12"><a xlink:href="../00_global.svg" xlink:title="Global">
<path fill="lightgrey" stroke="none" d="M71,-36C71,-36 41,-36 41,-36 35,-36 29,-30 29,-24 29,-24 29,-12 29,-12 29,-6 35,0 41,0 41,0 71,0 71,0 77,0 83,-6 83,-12 83,-12 83,-24 83,-24 83,-30 77,-36 71,-36"/>
<text xml:space="preserve" text-anchor="middle" x="56" y="-14.5" font-family="Arial" font-size="10.00">Global</text>
</a>
</g>
</g>
</g>
</svg>
