<?xml version="1.0" encoding="UTF-8" standalone="no"?>
<!DOCTYPE svg PUBLIC "-//W3C//DTD SVG 1.1//EN"
 "http://www.w3.org/Graphics/SVG/1.1/DTD/svg11.dtd">
<!-- Generated by graphviz version 14.1.3 (20260303.0454)
 -->
<!-- Title: Experts Pages: 1 -->
<svg width="588pt" height="211pt"
 viewBox="0.00 0.00 588.00 211.00" xmlns="http://www.w3.org/2000/svg" xmlns:xlink="http://www.w3.org/1999/xlink">
<g id="graph0" class="graph" transform="scale(1 1) rotate(0) translate(4 206.5)">
<title>Experts</title>
<polygon fill="white" stroke="none" points="-4,4 -4,-206.5 583.5,-206.5 583.5,4 -4,4"/>
<g id="clust1" class="cluster">
<title>cluster_experts</title>
<polygon fill="#e8f5e9" stroke="#388e3c" points="8,-46 8,-123.25 514,-123.25 514,-46 8,-46"/>
<text xml:space="preserve" text-anchor="middle" x="261" y="-105.95" font-family="Times,serif" font-size="14.00">Expert Components</text>
</g>
<!-- Meta -->
<g id="node1" class="node">
<title>Meta</title>
<g id="a_node1"><a xlink:href="40_experts.svg" xlink:title="Meta">
<polygon fill="#e8f5e9" stroke="#388e3c" points="70,-90 16,-90 16,-54 70,-54 70,-90"/>
<text xml:space="preserve" text-anchor="middle" x="43" y="-68.5" font-family="Arial" font-size="10.00">Meta</text>
</a>
</g>
</g>
<!-- Python -->
<g id="node2" class="node">
<title>Python</title>
<g id="a_node2"><a xlink:href="40_experts.svg" xlink:title="Python">
<polygon fill="#e8f5e9" stroke="#388e3c" points="142,-90 88,-90 88,-54 142,-54 142,-90"/>
<text xml:space="preserve" text-anchor="middle" x="115" y="-68.5" font-family="Arial" font-size="10.00">Python</text>
</a>
</g>
</g>
<!-- C -->
<g id="node3" class="node">
<title>C</title>
<g id="a_node3"><a xlink:href="40_experts.svg" xlink:title="C">
<polygon fill="#e8f5e9" stroke="#388e3c" points="214,-90 160,-90 160,-54 214,-54 214,-90"/>
<text xml:space="preserve" text-anchor="middle" x="187" y="-68.5" font-family="Arial" font-size="10.00">C</text>
</a>
</g>
</g>
<!-- KiCad -->
<g id="node4" class="node">
<title>KiCad</title>
<g id="a_node4"><a xlink:href="40_experts.svg" xlink:title="KiCad">
<polygon fill="#e8f5e9" stroke="#388e3c" points="286,-90 232,-90 232,-54 286,-54 286,-90"/>
<text xml:space="preserve" text-anchor="middle" x="259" y="-68.5" font-family="Arial" font-size="10.00">KiCad</text>
</a>
</g>
</g>
<!-- FreeCAD -->
<g id="node5" class="node">
<title>FreeCAD</title>
<g id="a_node5"><a xlink:href="40_experts.svg" xlink:title="FreeCAD">
<polygon fill="#e8f5e9" stroke="#388e3c" points="361.62,-90 304.38,-90 304.38,-54 361.62,-54 361.62,-90"/>
<text xml:space="preserve" text-anchor="middle" x="333" y="-68.5" font-family="Arial" font-size="10.00">FreeCAD</text>
</a>
</g>
</g>
<!-- Web -->
<g id="node6" class="node">
<title>Web</title>
<g id="a_node6"><a xlink:href="40_experts.svg" xlink:title="Web">
<polygon fill="#e8f5e9" stroke="#388e3c" points="434,-90 380,-90 380,-54 434,-54 434,-90"/>
<text xml:space="preserve" text-anchor="middle" x="407" y="-68.5" font-family="Arial" font-size="10.00">Web</text>
</a>
</g>
</g>
<!-- SVG -->
<g id="node7" class="node">
<title>SVG</title>
<g id="a_node7"><a xlink:href="40_experts.svg" xlink:title="SVG">
<polygon fill="#e8f5e9" stroke="#388e3c" points="506,-90 452,-90 452,-54 506,-54 506,-90"/>
<text xml:space="preserve" text-anchor="middle" x="479" y="-68.5" font-family="Arial" font-size="10.00">SVG</text>
</a>
</g>
</g>
<!-- Proxy -->
<g id="node8" class="node">
<title>Proxy</title>
<g id="a_node8"><a xlink:href="../scheduler/component_proxy/14_component_proxy.svg" xlink:title="Proxy">
<polygon fill="#ede7f6" stroke="#512da8" points="316,-202.5 262,-202.5 262,-166.5 316,-166.5 316,-202.5"/>
<text xml:space="preserve" text-anchor="middle" x="289" y="-181" font-family="Arial" font-size="10.00">Proxy</text>
</a>
</g>
</g>
<!-- Proxy&#45;&gt;Meta -->
<g id="edge1" class="edge">
<title>Proxy&#45;&gt;Meta</title>
<path fill="none" stroke="black" d="M261.59,-181.55C218.85,-177.29 135.42,-164.01 79,-123.25 70.5,-117.11 63.24,-108.33 57.51,-99.82"/>
<polygon fill="black" stroke="black" points="60.55,-98.08 52.31,-91.43 54.6,-101.77 60.55,-98.08"/>
</g>
<!-- Proxy&#45;&gt;Python -->
<g id="edge2" class="edge">
<title>Proxy&#45;&gt;Python</title>
<path fill="none" stroke="black" d="M261.53,-176.28C231.88,-167.47 184.43,-150.3 151,-123.25 142.97,-116.75 135.88,-108.03 130.17,-99.67"/>
<polygon fill="black" stroke="black" points="133.26,-98.02 124.93,-91.47 127.36,-101.78 133.26,-98.02"/>
</g>
<!-- Proxy&#45;&gt;C -->
<g id="edge3" class="edge">
<title>Proxy&#45;&gt;C</title>
<path fill="none" stroke="black" d="M267.73,-166.08C254.24,-154.57 236.81,-138.79 223,-123.25 216.59,-116.03 210.23,-107.67 204.69,-99.88"/>
<polygon fill="black" stroke="black" points="207.58,-97.91 199.02,-91.67 201.82,-101.88 207.58,-97.91"/>
</g>
<!-- Proxy&#45;&gt;KiCad -->
<g id="edge4" class="edge">
<title>Proxy&#45;&gt;KiCad</title>
<path fill="none" stroke="black" d="M284.31,-166.23C279.58,-148.8 272.19,-121.58 266.62,-101.05"/>
<polygon fill="black" stroke="black" points="270.05,-100.34 264.05,-91.61 263.29,-102.17 270.05,-100.34"/>
</g>
<!-- Proxy&#45;&gt;FreeCAD -->
<g id="edge5" class="edge">
<title>Proxy&#45;&gt;FreeCAD</title>
<path fill="none" stroke="black" d="M295.88,-166.23C302.85,-148.72 313.75,-121.33 321.94,-100.76"/>
<polygon fill="black" stroke="black" points="325.17,-102.14 325.61,-91.55 318.66,-99.55 325.17,-102.14"/>
</g>
<!-- Proxy&#45;&gt;Web -->
<g id="edge6" class="edge">
<title>Proxy&#45;&gt;Web</title>
<path fill="none" stroke="black" d="M316.16,-166.71C333,-155.57 354.49,-139.96 371,-123.25 377.97,-116.19 384.6,-107.68 390.23,-99.69"/>
<polygon fill="black" stroke="black" points="393.01,-101.83 395.7,-91.58 387.21,-97.91 393.01,-101.83"/>
</g>
<!-- Proxy&#45;&gt;SVG -->
<g id="edge7" class="edge">
<title>Proxy&#45;&gt;SVG</title>
<path fill="none" stroke="black" d="M316.42,-177.81C349.2,-169.95 404.47,-153.21 443,-123.25 451.16,-116.9 458.27,-108.22 463.98,-99.86"/>
<polygon fill="black" stroke="black" points="466.8,-101.94 469.19,-91.62 460.88,-98.2 466.8,-101.94"/>
</g>
<!-- Compiler -->
<g id="node9" class="node">
<title>Compiler</title>
<g id="a_node9"><a xlink:href="../validation/50_validation.svg" xlink:title="Compiler">
<polygon fill="#f3e5f5" stroke="#7b1fa2" points="579.5,-90 524.5,-90 524.5,-54 579.5,-54 579.5,-90"/>
<text xml:space="preserve" text-anchor="middle" x="552" y="-68.5" font-family="Arial" font-size="10.00">Compiler</text>
</a>
</g>
</g>
<!-- Proxy&#45;&gt;Compiler -->
<g id="edge8" class="edge">
<title>Proxy&#45;&gt;Compiler</title>
<path fill="none" stroke="black" d="M316.39,-182.59C362.3,-179.79 455.85,-168.49 518,-123.25 526.32,-117.19 533.25,-108.43 538.63,-99.92"/>
<polygon fill="black" stroke="black" points="541.51,-101.94 543.47,-91.53 535.44,-98.44 541.51,-101.94"/>
<text xml:space="preserve" text-anchor="middle" x="528.34" y="-135.2" font-family="Times,serif" font-size="14.00">soumet</text>
</g>
<!-- Nav_Global -->
<g id="node10" class="node">
<title>Nav_Global</title>
<g id="a_node10"><a xlink:href="../00_global.svg" xlink:title="Global">
<polygon fill="lightgrey" stroke="none" points="70,-36 16,-36 16,0 70,0 70,-36"/>
<text xml:space="preserve" text-anchor="middle" x="43" y="-14.5" font-family="Arial" font-size="10.00">Global</text>
</a>
</g>
</g>
<!-- Nav_Scheduler -->
<g id="node11" class="node">
<title>Nav_Scheduler</title>
<g id="a_node11"><a xlink:href="../scheduler/10_scheduler.svg" xlink:title="Scheduler">
<polygon fill="lightgrey" stroke="none" points="134.75,-36 75.25,-36 75.25,0 134.75,0 134.75,-36"/>
<text xml:space="preserve" text-anchor="middle" x="105" y="-14.5" font-family="Arial" font-size="10.00">Scheduler</text>
</a>
</g>
</g>
<!-- Nav_Validation -->
<g id="node12" class="node">
<title>Nav_Validation</title>
<g id="a_node12"><a xlink:href="../validation/50_validation.svg" xlink:title="Validation">
<polygon fill="lightgrey" stroke="none" points="198,-36 140,-36 140,0 198,0 198,-36"/>
<text xml:space="preserve" text-anchor="middle" x="169" y="-14.5" font-family="Arial" font-size="10.00">Validation</text>
</a>
</g>
</g>
</g>
</svg>
