<?xml version="1.0" encoding="UTF-8" standalone="no"?>
<!DOCTYPE svg PUBLIC "-//W3C//DTD SVG 1.1//EN"
 "http://www.w3.org/Graphics/SVG/1.1/DTD/svg11.dtd">
<!-- Generated by graphviz version 14.1.3 (20260303.0454)
 -->
<!-- Title: ComponentProxy Pages: 1 -->
<svg width="565pt" height="574pt"
 viewBox="0.00 0.00 565.00 574.00" xmlns="http://www.w3.org/2000/svg" xmlns:xlink="http://www.w3.org/1999/xlink">
<g id="graph0" class="graph" transform="scale(1 1) rotate(0) translate(4 570)">
<title>ComponentProxy</title>
<polygon fill="white" stroke="none" points="-4,4 -4,-570 561.38,-570 561.38,4 -4,4"/>
<!-- RealComponent -->
<g id="node1" class="node">
<title>RealComponent</title>
<g id="a_node1"><a xlink:href="../../experts/40_experts.svg" xlink:title="Real Component\ntick() + context()">
<path fill="#e8f5e9" stroke="#388e3c" d="M160.5,-483.5C160.5,-483.5 95,-483.5 95,-483.5 89,-483.5 83,-477.5 83,-471.5 83,-471.5 83,-459.5 83,-459.5 83,-453.5 89,-447.5 95,-447.5 95,-447.5 160.5,-447.5 160.5,-447.5 166.5,-447.5 172.5,-453.5 172.5,-459.5 172.5,-459.5 172.5,-471.5 172.5,-471.5 172.5,-477.5 166.5,-483.5 160.5,-483.5"/>
<text xml:space="preserve" text-anchor="middle" x="127.75" y="-468" font-family="Arial" font-size="10.00">Real Component</text>
<text xml:space="preserve" text-anchor="middle" x="127.75" y="-456" font-family="Arial" font-size="10.00">tick() + context()</text>
</a>
</g>
</g>
<!-- YieldEvent -->
<g id="node4" class="node">
<title>YieldEvent</title>
<path fill="#eceff1" stroke="#455a64" d="M79.62,-401C79.62,-401 23.88,-401 23.88,-401 17.87,-401 11.88,-395 11.88,-389 11.88,-389 11.88,-377 11.88,-377 11.88,-371 17.88,-365 23.88,-365 23.88,-365 79.62,-365 79.62,-365 85.62,-365 91.62,-371 91.62,-377 91.62,-377 91.62,-389 91.62,-389 91.62,-395 85.62,-401 79.62,-401"/>
<text xml:space="preserve" text-anchor="middle" x="51.75" y="-385.5" font-family="Arial" font-size="10.00">yield Event(...)</text>
<text xml:space="preserve" text-anchor="middle" x="51.75" y="-373.5" font-family="Arial" font-size="10.00">intention only</text>
</g>
<!-- RealComponent&#45;&gt;YieldEvent -->
<g id="edge5" class="edge">
<title>RealComponent&#45;&gt;YieldEvent</title>
<path fill="none" stroke="black" d="M82.8,-453.44C70.77,-448.21 59.13,-440.59 52,-429.5 48.77,-424.48 47.43,-418.46 47.13,-412.47"/>
<polygon fill="black" stroke="black" points="50.62,-412.91 47.58,-402.76 43.62,-412.59 50.62,-412.91"/>
<text xml:space="preserve" text-anchor="middle" x="86.88" y="-420.95" font-family="Arial" font-size="9.00">cooperative yield</text>
</g>
<!-- ComponentProxy -->
<g id="node2" class="node">
<title>ComponentProxy</title>
<path fill="#ede7f6" stroke="#512da8" d="M299,-566C299,-566 212.5,-566 212.5,-566 206.5,-566 200.5,-560 200.5,-554 200.5,-554 200.5,-542 200.5,-542 200.5,-536 206.5,-530 212.5,-530 212.5,-530 299,-530 299,-530 305,-530 311,-536 311,-542 311,-542 311,-554 311,-554 311,-560 305,-566 299,-566"/>
<text xml:space="preserve" text-anchor="middle" x="255.75" y="-550.5" font-family="Arial" font-size="10.00">ComponentProxy</text>
<text xml:space="preserve" text-anchor="middle" x="255.75" y="-538.5" font-family="Arial" font-size="10.00">mandatory membrane</text>
</g>
<!-- ComponentProxy&#45;&gt;RealComponent -->
<g id="edge1" class="edge">
<title>ComponentProxy&#45;&gt;RealComponent</title>
<path fill="none" stroke="black" d="M200.02,-532.1C186.8,-527.02 173.28,-520.42 162,-512 155.03,-506.79 148.8,-499.79 143.63,-492.84"/>
<polygon fill="black" stroke="black" points="146.67,-491.08 138.13,-484.82 140.9,-495.04 146.67,-491.08"/>
<text xml:space="preserve" text-anchor="middle" x="174.38" y="-503.45" font-family="Arial" font-size="9.00">wraps</text>
</g>
<!-- TickLoop -->
<g id="node3" class="node">
<title>TickLoop</title>
<path fill="#ede7f6" stroke="#512da8" d="M164.75,-90C164.75,-90 106.75,-90 106.75,-90 100.75,-90 94.75,-84 94.75,-78 94.75,-78 94.75,-66 94.75,-66 94.75,-60 100.75,-54 106.75,-54 106.75,-54 164.75,-54 164.75,-54 170.75,-54 176.75,-60 176.75,-66 176.75,-66 176.75,-78 176.75,-78 176.75,-84 170.75,-90 164.75,-90"/>
<text xml:space="preserve" text-anchor="middle" x="135.75" y="-68.5" font-family="Arial" font-size="10.00">async tick loop</text>
</g>
<!-- ComponentProxy&#45;&gt;TickLoop -->
<g id="edge3" class="edge">
<title>ComponentProxy&#45;&gt;TickLoop</title>
<path fill="none" stroke="black" d="M234.96,-529.78C219.38,-514.85 200.75,-491.72 200.75,-466.5 200.75,-466.5 200.75,-466.5 200.75,-144 200.75,-125.32 188.35,-109.41 174.39,-97.42"/>
<polygon fill="black" stroke="black" points="176.79,-94.86 166.77,-91.41 172.45,-100.35 176.79,-94.86"/>
<text xml:space="preserve" text-anchor="middle" x="209.38" y="-297.2" font-family="Arial" font-size="9.00">start</text>
</g>
<!-- Context -->
<g id="node8" class="node">
<title>Context</title>
<g id="a_node8"><a xlink:href="../../context/20_context.svg" xlink:title="context()\ncalled by ContextRequestHandler">
<path fill="#fff3e0" stroke="#ef6c00" d="M380.25,-483.5C380.25,-483.5 241.25,-483.5 241.25,-483.5 235.25,-483.5 229.25,-477.5 229.25,-471.5 229.25,-471.5 229.25,-459.5 229.25,-459.5 229.25,-453.5 235.25,-447.5 241.25,-447.5 241.25,-447.5 380.25,-447.5 380.25,-447.5 386.25,-447.5 392.25,-453.5 392.25,-459.5 392.25,-459.5 392.25,-471.5 392.25,-471.5 392.25,-477.5 386.25,-483.5 380.25,-483.5"/>
<text xml:space="preserve" text-anchor="middle" x="310.75" y="-468" font-family="Arial" font-size="10.00">context()</text>
<text xml:space="preserve" text-anchor="middle" x="310.75" y="-456" font-family="Arial" font-size="10.00">called by ContextRequestHandler</text>
</a>
</g>
</g>
<!-- ComponentProxy&#45;&gt;Context -->
<g id="edge10" class="edge">
<title>ComponentProxy&#45;&gt;Context</title>
<path fill="none" stroke="black" d="M267.68,-529.53C274.89,-518.98 284.23,-505.32 292.36,-493.42"/>
<polygon fill="black" stroke="black" points="295.23,-495.41 297.99,-485.18 289.45,-491.47 295.23,-495.41"/>
<text xml:space="preserve" text-anchor="middle" x="327.04" y="-503.45" font-family="Arial" font-size="9.00">safe context surface</text>
</g>
<!-- Lifecycle -->
<g id="node9" class="node">
<title>Lifecycle</title>
<path fill="#f5f5f5" stroke="#666666" d="M545.38,-483.5C545.38,-483.5 422.12,-483.5 422.12,-483.5 416.12,-483.5 410.12,-477.5 410.12,-471.5 410.12,-471.5 410.12,-459.5 410.12,-459.5 410.12,-453.5 416.12,-447.5 422.12,-447.5 422.12,-447.5 545.38,-447.5 545.38,-447.5 551.38,-447.5 557.38,-453.5 557.38,-459.5 557.38,-459.5 557.38,-471.5 557.38,-471.5 557.38,-477.5 551.38,-483.5 545.38,-483.5"/>
<text xml:space="preserve" text-anchor="middle" x="483.75" y="-468" font-family="Arial" font-size="10.00">ComponentState</text>
<text xml:space="preserve" text-anchor="middle" x="483.75" y="-456" font-family="Arial" font-size="10.00">LOAD/START/STOP/ERROR</text>
</g>
<!-- ComponentProxy&#45;&gt;Lifecycle -->
<g id="edge2" class="edge">
<title>ComponentProxy&#45;&gt;Lifecycle</title>
<path fill="none" stroke="black" stroke-dasharray="5,2" d="M311.26,-531.39C330.54,-525.67 352.21,-518.9 371.75,-512 391.94,-504.87 413.83,-496.19 432.86,-488.34"/>
<polygon fill="black" stroke="black" points="434.12,-491.61 442,-484.53 431.43,-485.14 434.12,-491.61"/>
<text xml:space="preserve" text-anchor="middle" x="409.48" y="-503.45" font-family="Arial" font-size="9.00">state</text>
</g>
<!-- TickLoop&#45;&gt;RealComponent -->
<g id="edge4" class="edge">
<title>TickLoop&#45;&gt;RealComponent</title>
<path fill="none" stroke="black" d="M135.75,-90.22C135.75,-104.59 135.75,-125.63 135.75,-144 135.75,-384 135.75,-384 135.75,-384 135.75,-401.29 133.9,-420.56 131.98,-435.92"/>
<polygon fill="black" stroke="black" points="128.52,-435.4 130.66,-445.78 135.46,-436.33 128.52,-435.4"/>
<text xml:space="preserve" text-anchor="middle" x="160.88" y="-255.95" font-family="Arial" font-size="9.00">anext/asend</text>
</g>
<!-- Scheduler -->
<g id="node5" class="node">
<title>Scheduler</title>
<g id="a_node5"><a xlink:href="../10_scheduler.svg" xlink:title="Scheduler.emit()">
<path fill="#ede7f6" stroke="#512da8" d="M85.38,-318.5C85.38,-318.5 22.12,-318.5 22.12,-318.5 16.12,-318.5 10.12,-312.5 10.12,-306.5 10.12,-306.5 10.12,-294.5 10.12,-294.5 10.12,-288.5 16.12,-282.5 22.12,-282.5 22.12,-282.5 85.38,-282.5 85.38,-282.5 91.38,-282.5 97.38,-288.5 97.38,-294.5 97.38,-294.5 97.38,-306.5 97.38,-306.5 97.38,-312.5 91.38,-318.5 85.38,-318.5"/>
<text xml:space="preserve" text-anchor="middle" x="53.75" y="-297" font-family="Arial" font-size="10.00">Scheduler.emit()</text>
</a>
</g>
</g>
<!-- YieldEvent&#45;&gt;Scheduler -->
<g id="edge6" class="edge">
<title>YieldEvent&#45;&gt;Scheduler</title>
<path fill="none" stroke="black" d="M52.18,-364.53C52.43,-354.51 52.75,-341.68 53.04,-330.21"/>
<polygon fill="black" stroke="black" points="56.53,-330.53 53.28,-320.45 49.53,-330.36 56.53,-330.53"/>
<text xml:space="preserve" text-anchor="middle" x="61.49" y="-338.45" font-family="Arial" font-size="9.00">emit</text>
</g>
<!-- RequestReply -->
<g id="node6" class="node">
<title>RequestReply</title>
<path fill="#fff3e0" stroke="#ef6c00" d="M95.5,-236C95.5,-236 12,-236 12,-236 6,-236 0,-230 0,-224 0,-224 0,-212 0,-212 0,-206 6,-200 12,-200 12,-200 95.5,-200 95.5,-200 101.5,-200 107.5,-206 107.5,-212 107.5,-212 107.5,-224 107.5,-224 107.5,-230 101.5,-236 95.5,-236"/>
<text xml:space="preserve" text-anchor="middle" x="53.75" y="-214.5" font-family="Arial" font-size="10.00">Request.reply Future</text>
</g>
<!-- Scheduler&#45;&gt;RequestReply -->
<g id="edge7" class="edge">
<title>Scheduler&#45;&gt;RequestReply</title>
<path fill="none" stroke="black" stroke-dasharray="5,2" d="M53.75,-282.03C53.75,-272.01 53.75,-259.18 53.75,-247.71"/>
<polygon fill="black" stroke="black" points="57.25,-247.95 53.75,-237.95 50.25,-247.95 57.25,-247.95"/>
<text xml:space="preserve" text-anchor="middle" x="81.88" y="-255.95" font-family="Arial" font-size="9.00">handler result</text>
</g>
<!-- Asend -->
<g id="node7" class="node">
<title>Asend</title>
<path fill="#eceff1" stroke="#455a64" d="M94.25,-163C94.25,-163 21.25,-163 21.25,-163 15.25,-163 9.25,-157 9.25,-151 9.25,-151 9.25,-139 9.25,-139 9.25,-133 15.25,-127 21.25,-127 21.25,-127 94.25,-127 94.25,-127 100.25,-127 106.25,-133 106.25,-139 106.25,-139 106.25,-151 106.25,-151 106.25,-157 100.25,-163 94.25,-163"/>
<text xml:space="preserve" text-anchor="middle" x="57.75" y="-141.5" font-family="Arial" font-size="10.00">tick().asend(result)</text>
</g>
<!-- RequestReply&#45;&gt;Asend -->
<g id="edge8" class="edge">
<title>RequestReply&#45;&gt;Asend</title>
<path fill="none" stroke="black" d="M54.72,-199.81C55.15,-192.14 55.67,-182.89 56.16,-174.24"/>
<polygon fill="black" stroke="black" points="59.64,-174.72 56.71,-164.54 52.65,-174.33 59.64,-174.72"/>
</g>
<!-- Asend&#45;&gt;TickLoop -->
<g id="edge9" class="edge">
<title>Asend&#45;&gt;TickLoop</title>
<path fill="none" stroke="black" d="M76.63,-126.81C86.14,-118.16 97.85,-107.5 108.33,-97.96"/>
<polygon fill="black" stroke="black" points="110.61,-100.61 115.65,-91.29 105.9,-95.44 110.61,-100.61"/>
</g>
<!-- Nav_Global -->
<g id="node10" class="node">
<title>Nav_Global</title>
<g id="a_node10"><a xlink:href="../../00_global.svg" xlink:title="Global">
<path fill="lightgrey" stroke="none" d="M150.75,-36C150.75,-36 120.75,-36 120.75,-36 114.75,-36 108.75,-30 108.75,-24 108.75,-24 108.75,-12 108.75,-12 108.75,-6 114.75,0 120.75,0 120.75,0 150.75,0 150.75,0 156.75,0 162.75,-6 162.75,-12 162.75,-12 162.75,-24 162.75,-24 162.75,-30 156.75,-36 150.75,-36"/>
<text xml:space="preserve" text-anchor="middle" x="135.75" y="-14.5" font-family="Arial" font-size="10.00">Global</text>
</a>
</g>
</g>
<!-- Nav_Up -->
<g id="node11" class="node">
<title>Nav_Up</title>
<g id="a_node11"><a xlink:href="../10_scheduler.svg" xlink:title="Up: Scheduler">
<path fill="lightgrey" stroke="none" d="M233.88,-36C233.88,-36 179.62,-36 179.62,-36 173.62,-36 167.62,-30 167.62,-24 167.62,-24 167.62,-12 167.62,-12 167.62,-6 173.62,0 179.62,0 179.62,0 233.88,0 233.88,0 239.88,0 245.88,-6 245.88,-12 245.88,-12 245.88,-24 245.88,-24 245.88,-30 239.88,-36 233.88,-36"/>
<text xml:space="preserve" text-anchor="middle" x="206.75" y="-14.5" font-family="Arial" font-size="10.00">Up: Scheduler</text>
</a>
</g>
</g>
<!-- Nav_Context -->
<g id="node12" class="node">
<title>Nav_Context</title>
<g id="a_node12"><a xlink:href="../../context/20_context.svg" xlink:title="Context">
<path fill="lightgrey" stroke="none" d="M292.75,-36C292.75,-36 262.75,-36 262.75,-36 256.75,-36 250.75,-30 250.75,-24 250.75,-24 250.75,-12 250.75,-12 250.75,-6 256.75,0 262.75,0 262.75,0 292.75,0 292.75,0 298.75,0 304.75,-6 304.75,-12 304.75,-12 304.75,-24 304.75,-24 304.75,-30 298.75,-36 292.75,-36"/>
<text xml:space="preserve" text-anchor="middle" x="277.75" y="-14.5" font-family="Arial" font-size="10.00">Context</text>
</a>
</g>
</g>
<!-- Nav_Inference -->
<g id="node13" class="node">
<title>Nav_Inference</title>
<g id="a_node13"><a xlink:href="../../inference/40_inference.svg" xlink:title="Inference">
<path fill="lightgrey" stroke="none" d="M354,-36C354,-36 321.5,-36 321.5,-36 315.5,-36 309.5,-30 309.5,-24 309.5,-24 309.5,-12 309.5,-12 309.5,-6 315.5,0 321.5,0 321.5,0 354,0 354,0 360,0 366,-6 366,-12 366,-12 366,-24 366,-24 366,-30 360,-36 354,-36"/>
<text xml:space="preserve" text-anchor="middle" x="337.75" y="-14.5" font-family="Arial" font-size="10.00">Inference</text>
</a>
</g>
</g>
</g>
</svg>
