<?xml version="1.0" encoding="UTF-8" standalone="no"?>
<!DOCTYPE svg PUBLIC "-//W3C//DTD SVG 1.1//EN"
 "http://www.w3.org/Graphics/SVG/1.1/DTD/svg11.dtd">
<!-- Generated by graphviz version 14.1.3 (20260303.0454)
 -->
<!-- Title: Services Pages: 1 -->
<svg width="611pt" height="318pt"
 viewBox="0.00 0.00 611.00 318.00" xmlns="http://www.w3.org/2000/svg" xmlns:xlink="http://www.w3.org/1999/xlink">
<g id="graph0" class="graph" transform="scale(1 1) rotate(0) translate(4 314.13)">
<title>Services</title>
<polygon fill="white" stroke="none" points="-4,4 -4,-314.13 606.5,-314.13 606.5,4 -4,4"/>
<g id="clust1" class="cluster">
<title>cluster_services</title>
<polygon fill="#e1f5fe" stroke="#0288d1" points="245,-117.13 245,-302.13 432,-302.13 432,-117.13 245,-117.13"/>
<text xml:space="preserve" text-anchor="middle" x="338.5" y="-284.83" font-family="Times,serif" font-size="14.00">Independent Services</text>
</g>
<!-- SQLiteProd -->
<g id="node1" class="node">
<title>SQLiteProd</title>
<g id="a_node1"><a xlink:href="30_services.svg" xlink:title="SQLiteProd">
<polygon fill="#e1f5fe" stroke="#0288d1" points="422.12,-269.13 355.88,-269.13 355.88,-233.13 422.12,-233.13 422.12,-269.13"/>
<text xml:space="preserve" text-anchor="middle" x="389" y="-247.63" font-family="Arial" font-size="10.00">SQLiteProd</text>
</a>
</g>
</g>
<!-- SQLiteMaint -->
<g id="node2" class="node">
<title>SQLiteMaint</title>
<g id="a_node2"><a xlink:href="30_services.svg" xlink:title="SQLiteMaint">
<polygon fill="#e1f5fe" stroke="#0288d1" points="424,-215.13 354,-215.13 354,-179.13 424,-179.13 424,-215.13"/>
<text xml:space="preserve" text-anchor="middle" x="389" y="-193.63" font-family="Arial" font-size="10.00">SQLiteMaint</text>
</a>
</g>
</g>
<!-- Qdrant -->
<g id="node3" class="node">
<title>Qdrant</title>
<g id="a_node3"><a xlink:href="30_services.svg" xlink:title="Qdrant">
<polygon fill="#e1f5fe" stroke="#0288d1" points="416,-161.13 362,-161.13 362,-125.13 416,-125.13 416,-161.13"/>
<text xml:space="preserve" text-anchor="middle" x="389" y="-139.63" font-family="Arial" font-size="10.00">Qdrant</text>
</a>
</g>
</g>
<!-- Embedding -->
<g id="node8" class="node">
<title>Embedding</title>
<g id="a_node8"><a xlink:href="../learning/60_learning.svg" xlink:title="Embedding">
<polygon fill="#fffde7" stroke="#fbc02d" points="525.75,-161.13 461,-161.13 461,-125.13 525.75,-125.13 525.75,-161.13"/>
<text xml:space="preserve" text-anchor="middle" x="493.38" y="-139.63" font-family="Arial" font-size="10.00">Embedding</text>
</a>
</g>
</g>
<!-- Qdrant&#45;&gt;Embedding -->
<g id="edge7" class="edge">
<title>Qdrant&#45;&gt;Embedding</title>
<path fill="none" stroke="black" d="M416.36,-143.13C426.39,-143.13 438.09,-143.13 449.27,-143.13"/>
<polygon fill="black" stroke="black" points="449.11,-146.63 459.11,-143.13 449.11,-139.63 449.11,-146.63"/>
</g>
<!-- Cache -->
<g id="node4" class="node">
<title>Cache</title>
<g id="a_node4"><a xlink:href="30_services.svg" xlink:title="Cache">
<polygon fill="#e1f5fe" stroke="#0288d1" points="312,-269.13 258,-269.13 258,-233.13 312,-233.13 312,-269.13"/>
<text xml:space="preserve" text-anchor="middle" x="285" y="-247.63" font-family="Arial" font-size="10.00">Cache</text>
</a>
</g>
</g>
<!-- Knowledge -->
<g id="node5" class="node">
<title>Knowledge</title>
<g id="a_node5"><a xlink:href="30_services.svg" xlink:title="Knowledge">
<polygon fill="#e1f5fe" stroke="#0288d1" points="317,-161.13 253,-161.13 253,-125.13 317,-125.13 317,-161.13"/>
<text xml:space="preserve" text-anchor="middle" x="285" y="-139.63" font-family="Arial" font-size="10.00">Knowledge</text>
</a>
</g>
</g>
<!-- Knowledge&#45;&gt;SQLiteProd -->
<g id="edge8" class="edge">
<title>Knowledge&#45;&gt;SQLiteProd</title>
<path fill="none" stroke="black" d="M308.33,-161.35C311.36,-164.17 314.34,-167.14 317,-170.13 336.35,-191.86 334.16,-202.85 354,-224.13 354.26,-224.41 354.52,-224.69 354.79,-224.96"/>
<polygon fill="black" stroke="black" points="352.31,-227.43 361.98,-231.75 357.11,-222.34 352.31,-227.43"/>
</g>
<!-- Knowledge&#45;&gt;SQLiteMaint -->
<g id="edge9" class="edge">
<title>Knowledge&#45;&gt;SQLiteMaint</title>
<path fill="none" stroke="black" d="M317.44,-159.77C325.68,-164.14 334.73,-168.93 343.52,-173.58"/>
<polygon fill="black" stroke="black" points="341.84,-176.65 352.31,-178.24 345.11,-170.46 341.84,-176.65"/>
</g>
<!-- Knowledge&#45;&gt;Qdrant -->
<g id="edge10" class="edge">
<title>Knowledge&#45;&gt;Qdrant</title>
<path fill="none" stroke="black" d="M317.44,-143.13C327.84,-143.13 339.52,-143.13 350.34,-143.13"/>
<polygon fill="black" stroke="black" points="350.13,-146.63 360.13,-143.13 350.13,-139.63 350.13,-146.63"/>
</g>
<!-- Router -->
<g id="node6" class="node">
<title>Router</title>
<g id="a_node6"><a xlink:href="30_services.svg" xlink:title="Router">
<polygon fill="#e1f5fe" stroke="#0288d1" points="312,-215.13 258,-215.13 258,-179.13 312,-179.13 312,-215.13"/>
<text xml:space="preserve" text-anchor="middle" x="285" y="-193.63" font-family="Arial" font-size="10.00">Router</text>
</a>
</g>
</g>
<!-- EventBus -->
<g id="node7" class="node">
<title>EventBus</title>
<g id="a_node7"><a xlink:href="../scheduler/event_bus/12_event_bus.svg" xlink:title="EventBus">
<polygon fill="#ede7f6" stroke="#512da8" points="58.75,-157.13 0,-157.13 0,-121.13 58.75,-121.13 58.75,-157.13"/>
<text xml:space="preserve" text-anchor="middle" x="29.38" y="-135.63" font-family="Arial" font-size="10.00">EventBus</text>
</a>
</g>
</g>
<!-- Router&#45;&gt;EventBus -->
<g id="edge11" class="edge">
<title>Router&#45;&gt;EventBus</title>
<path fill="none" stroke="black" stroke-dasharray="5,2" d="M257.71,-198.83C217.25,-200.48 138,-199.8 76.75,-175.13 70.17,-172.48 63.75,-168.61 57.87,-164.38"/>
<polygon fill="black" stroke="black" points="60.38,-161.9 50.35,-158.5 56.07,-167.42 60.38,-161.9"/>
<text xml:space="preserve" text-anchor="middle" x="155.88" y="-203.32" font-family="Times,serif" font-size="14.00">requêtes sémantiques</text>
</g>
<!-- EventBus&#45;&gt;SQLiteProd -->
<g id="edge1" class="edge">
<title>EventBus&#45;&gt;SQLiteProd</title>
<path fill="none" stroke="black" d="M59.23,-125.64C114.87,-101.85 238.4,-59.97 317,-116.13 358.28,-145.63 324.73,-182.68 354,-224.13 354.07,-224.23 354.14,-224.32 354.21,-224.42"/>
<polygon fill="black" stroke="black" points="351.36,-226.49 360.61,-231.66 356.61,-221.85 351.36,-226.49"/>
</g>
<!-- EventBus&#45;&gt;SQLiteMaint -->
<g id="edge2" class="edge">
<title>EventBus&#45;&gt;SQLiteMaint</title>
<path fill="none" stroke="black" d="M39.79,-120.79C47.68,-107.62 60.3,-90.86 76.75,-83.13 181.02,-34.1 246.65,-10.37 336,-83.13 364.23,-106.11 338.12,-132.08 355.48,-169.08"/>
<polygon fill="black" stroke="black" points="352.21,-170.39 360.15,-177.4 358.31,-166.97 352.21,-170.39"/>
</g>
<!-- EventBus&#45;&gt;Qdrant -->
<g id="edge3" class="edge">
<title>EventBus&#45;&gt;Qdrant</title>
<path fill="none" stroke="black" d="M33.49,-120.75C38.37,-98.41 50.17,-61.66 76.75,-45.13 174.6,15.71 237.26,14.26 336,-45.13 360.57,-59.91 374.15,-90.63 381.21,-113.76"/>
<polygon fill="black" stroke="black" points="377.8,-114.57 383.85,-123.26 384.54,-112.69 377.8,-114.57"/>
</g>
<!-- EventBus&#45;&gt;Cache -->
<g id="edge4" class="edge">
<title>EventBus&#45;&gt;Cache</title>
<path fill="none" stroke="black" d="M35.66,-157.53C42.11,-176.46 54.95,-205.22 76.75,-220.13 127.65,-254.92 201.98,-257.24 246.41,-254.82"/>
<polygon fill="black" stroke="black" points="246.58,-258.32 256.33,-254.16 246.12,-251.34 246.58,-258.32"/>
</g>
<!-- EventBus&#45;&gt;Knowledge -->
<g id="edge5" class="edge">
<title>EventBus&#45;&gt;Knowledge</title>
<path fill="none" stroke="black" d="M58.98,-139.58C103.45,-140.28 189.43,-141.64 241.28,-142.46"/>
<polygon fill="black" stroke="black" points="241.17,-145.95 251.22,-142.61 241.28,-138.95 241.17,-145.95"/>
</g>
<!-- EventBus&#45;&gt;Router -->
<g id="edge6" class="edge">
<title>EventBus&#45;&gt;Router</title>
<path fill="none" stroke="black" d="M58.77,-146.14C64.7,-147.52 70.92,-148.92 76.75,-150.13 146.69,-164.6 166.21,-158.9 235,-178.13 238.97,-179.24 243.06,-180.55 247.11,-181.95"/>
<polygon fill="black" stroke="black" points="245.6,-185.13 256.2,-185.29 248.02,-178.56 245.6,-185.13"/>
</g>
<!-- OpenVINO -->
<g id="node9" class="node">
<title>OpenVINO</title>
<g id="a_node9"><a xlink:href="../learning/60_learning.svg" xlink:title="OpenVINO">
<polygon fill="#fffde7" stroke="#fbc02d" points="525.38,-215.13 461.38,-215.13 461.38,-179.13 525.38,-179.13 525.38,-215.13"/>
<text xml:space="preserve" text-anchor="middle" x="493.38" y="-193.63" font-family="Arial" font-size="10.00">OpenVINO</text>
</a>
</g>
</g>
<!-- Nav_Global -->
<g id="node10" class="node">
<title>Nav_Global</title>
<g id="a_node10"><a xlink:href="../00_global.svg" xlink:title="Global">
<polygon fill="lightgrey" stroke="none" points="600.12,-161.13 546.12,-161.13 546.12,-125.13 600.12,-125.13 600.12,-161.13"/>
<text xml:space="preserve" text-anchor="middle" x="573.12" y="-139.63" font-family="Arial" font-size="10.00">Global</text>
</a>
</g>
</g>
<!-- Nav_EventBus -->
<g id="node11" class="node">
<title>Nav_EventBus</title>
<g id="a_node11"><a xlink:href="../scheduler/event_bus/12_event_bus.svg" xlink:title="EventBus">
<polygon fill="lightgrey" stroke="none" points="602.5,-202.13 543.75,-202.13 543.75,-166.13 602.5,-166.13 602.5,-202.13"/>
<text xml:space="preserve" text-anchor="middle" x="573.12" y="-180.63" font-family="Arial" font-size="10.00">EventBus</text>
</a>
</g>
</g>
<!-- Nav_Learning -->
<g id="node12" class="node">
<title>Nav_Learning</title>
<g id="a_node12"><a xlink:href="../learning/60_learning.svg" xlink:title="Learning">
<polygon fill="lightgrey" stroke="none" points="600.12,-243.13 546.12,-243.13 546.12,-207.13 600.12,-207.13 600.12,-243.13"/>
<text xml:space="preserve" text-anchor="middle" x="573.12" y="-221.63" font-family="Arial" font-size="10.00">Learning</text>
</a>
</g>
</g>
</g>
</svg>
