<?xml version="1.0" encoding="UTF-8" standalone="no"?>
<!DOCTYPE svg PUBLIC "-//W3C//DTD SVG 1.1//EN"
 "http://www.w3.org/Graphics/SVG/1.1/DTD/svg11.dtd">
<!-- Generated by graphviz version 2.42.4 (0)
 -->
<!-- Title: Services Pages: 1 -->
<svg width="413pt" height="518pt"
 viewBox="0.00 0.00 413.00 518.00" xmlns="http://www.w3.org/2000/svg" xmlns:xlink="http://www.w3.org/1999/xlink">
<g id="graph0" class="graph" transform="scale(1 1) rotate(0) translate(4 514)">
<title>Services</title>
<polygon fill="white" stroke="transparent" points="-4,4 -4,-514 409,-514 409,4 -4,4"/>
<g id="clust1" class="cluster">
<title>cluster_services</title>
<polygon fill="#e1f5fe" stroke="#0288d1" points="135,-178 135,-412 397,-412 397,-178 135,-178"/>
<text text-anchor="middle" x="266" y="-399.2" font-family="Arial" font-size="11.00">Independent services future</text>
</g>
<g id="clust2" class="cluster">
<title>cluster_inference</title>
<polygon fill="#fffde7" stroke="#f9a825" points="8,-8 8,-134 255,-134 255,-8 8,-8"/>
<text text-anchor="middle" x="131.5" y="-121.2" font-family="Arial" font-size="11.00">Inference future</text>
</g>
<!-- EventBus -->
<g id="node1" class="node">
<title>EventBus</title>
<g id="a_node1"><a xlink:href="../scheduler/10_scheduler.svg" xlink:title="EventBus\nobservation only">
<path fill="#ede7f6" stroke="#512da8" d="M93.5,-261C93.5,-261 29.5,-261 29.5,-261 23.5,-261 17.5,-255 17.5,-249 17.5,-249 17.5,-237 17.5,-237 17.5,-231 23.5,-225 29.5,-225 29.5,-225 93.5,-225 93.5,-225 99.5,-225 105.5,-231 105.5,-237 105.5,-237 105.5,-249 105.5,-249 105.5,-255 99.5,-261 93.5,-261"/>
<text text-anchor="middle" x="61.5" y="-246" font-family="Arial" font-size="10.00">EventBus</text>
<text text-anchor="middle" x="61.5" y="-235" font-family="Arial" font-size="10.00">observation only</text>
</a>
</g>
</g>
<!-- Router -->
<g id="node3" class="node">
<title>Router</title>
<path fill="#e1f5fe" stroke="#0288d1" d="M210.5,-330C210.5,-330 180.5,-330 180.5,-330 174.5,-330 168.5,-324 168.5,-318 168.5,-318 168.5,-306 168.5,-306 168.5,-300 174.5,-294 180.5,-294 180.5,-294 210.5,-294 210.5,-294 216.5,-294 222.5,-300 222.5,-306 222.5,-306 222.5,-318 222.5,-318 222.5,-324 216.5,-330 210.5,-330"/>
<text text-anchor="middle" x="195.5" y="-309.5" font-family="Arial" font-size="10.00">Router</text>
</g>
<!-- EventBus&#45;&gt;Router -->
<g id="edge2" class="edge">
<title>EventBus&#45;&gt;Router</title>
<path fill="none" stroke="black" stroke-dasharray="5,2" d="M105.69,-255C140.08,-255 182,-255 182,-255 182,-255 182,-286.96 182,-286.96"/>
<polygon fill="black" stroke="black" points="179.55,-286.96 182,-293.96 184.45,-286.96 179.55,-286.96"/>
</g>
<!-- SQLiteProd -->
<g id="node4" class="node">
<title>SQLiteProd</title>
<path fill="#e1f5fe" stroke="#0288d1" d="M372.5,-384C372.5,-384 300.5,-384 300.5,-384 294.5,-384 288.5,-378 288.5,-372 288.5,-372 288.5,-360 288.5,-360 288.5,-354 294.5,-348 300.5,-348 300.5,-348 372.5,-348 372.5,-348 378.5,-348 384.5,-354 384.5,-360 384.5,-360 384.5,-372 384.5,-372 384.5,-378 378.5,-384 372.5,-384"/>
<text text-anchor="middle" x="336.5" y="-363.5" font-family="Arial" font-size="10.00">SQLite Production</text>
</g>
<!-- EventBus&#45;&gt;SQLiteProd -->
<g id="edge3" class="edge">
<title>EventBus&#45;&gt;SQLiteProd</title>
<path fill="none" stroke="black" stroke-dasharray="5,2" d="M105.62,-252C165.74,-252 266,-252 266,-252 266,-252 266,-360 266,-360 266,-360 281.31,-360 281.31,-360"/>
<polygon fill="black" stroke="black" points="281.31,-362.45 288.31,-360 281.31,-357.55 281.31,-362.45"/>
</g>
<!-- SQLiteMaint -->
<g id="node5" class="node">
<title>SQLiteMaint</title>
<path fill="#e1f5fe" stroke="#0288d1" d="M377,-330C377,-330 296,-330 296,-330 290,-330 284,-324 284,-318 284,-318 284,-306 284,-306 284,-300 290,-294 296,-294 296,-294 377,-294 377,-294 383,-294 389,-300 389,-306 389,-306 389,-318 389,-318 389,-324 383,-330 377,-330"/>
<text text-anchor="middle" x="336.5" y="-309.5" font-family="Arial" font-size="10.00">SQLite Maintenance</text>
</g>
<!-- EventBus&#45;&gt;SQLiteMaint -->
<g id="edge4" class="edge">
<title>EventBus&#45;&gt;SQLiteMaint</title>
<path fill="none" stroke="black" stroke-dasharray="5,2" d="M105.52,-249C173.68,-249 297,-249 297,-249 297,-249 297,-286.78 297,-286.78"/>
<polygon fill="black" stroke="black" points="294.55,-286.78 297,-293.78 299.45,-286.78 294.55,-286.78"/>
</g>
<!-- Qdrant -->
<g id="node6" class="node">
<title>Qdrant</title>
<path fill="#e1f5fe" stroke="#0288d1" d="M351.5,-276C351.5,-276 321.5,-276 321.5,-276 315.5,-276 309.5,-270 309.5,-264 309.5,-264 309.5,-252 309.5,-252 309.5,-246 315.5,-240 321.5,-240 321.5,-240 351.5,-240 351.5,-240 357.5,-240 363.5,-246 363.5,-252 363.5,-252 363.5,-264 363.5,-264 363.5,-270 357.5,-276 351.5,-276"/>
<text text-anchor="middle" x="336.5" y="-255.5" font-family="Arial" font-size="10.00">Qdrant</text>
</g>
<!-- EventBus&#45;&gt;Qdrant -->
<g id="edge5" class="edge">
<title>EventBus&#45;&gt;Qdrant</title>
<path fill="none" stroke="black" stroke-dasharray="5,2" d="M105.68,-246C105.68,-246 302.14,-246 302.14,-246"/>
<polygon fill="black" stroke="black" points="302.14,-248.45 309.14,-246 302.14,-243.55 302.14,-248.45"/>
</g>
<!-- Cache -->
<g id="node7" class="node">
<title>Cache</title>
<path fill="#e1f5fe" stroke="#0288d1" d="M351.5,-222C351.5,-222 321.5,-222 321.5,-222 315.5,-222 309.5,-216 309.5,-210 309.5,-210 309.5,-198 309.5,-198 309.5,-192 315.5,-186 321.5,-186 321.5,-186 351.5,-186 351.5,-186 357.5,-186 363.5,-192 363.5,-198 363.5,-198 363.5,-210 363.5,-210 363.5,-216 357.5,-222 351.5,-222"/>
<text text-anchor="middle" x="336.5" y="-201.5" font-family="Arial" font-size="10.00">Cache</text>
</g>
<!-- EventBus&#45;&gt;Cache -->
<g id="edge6" class="edge">
<title>EventBus&#45;&gt;Cache</title>
<path fill="none" stroke="black" stroke-dasharray="5,2" d="M105.76,-232.5C183.64,-232.5 337,-232.5 337,-232.5 337,-232.5 337,-229.21 337,-229.21"/>
<polygon fill="black" stroke="black" points="339.45,-229.21 337,-222.21 334.55,-229.21 339.45,-229.21"/>
</g>
<!-- Knowledge -->
<g id="node8" class="node">
<title>Knowledge</title>
<path fill="#e1f5fe" stroke="#0288d1" d="M236,-384C236,-384 155,-384 155,-384 149,-384 143,-378 143,-372 143,-372 143,-360 143,-360 143,-354 149,-348 155,-348 155,-348 236,-348 236,-348 242,-348 248,-354 248,-360 248,-360 248,-372 248,-372 248,-378 242,-384 236,-384"/>
<text text-anchor="middle" x="195.5" y="-363.5" font-family="Arial" font-size="10.00">Knowledge Manager</text>
</g>
<!-- EventBus&#45;&gt;Knowledge -->
<g id="edge7" class="edge">
<title>EventBus&#45;&gt;Knowledge</title>
<path fill="none" stroke="black" stroke-dasharray="5,2" d="M105.69,-258C128.66,-258 152,-258 152,-258 152,-258 152,-340.68 152,-340.68"/>
<polygon fill="black" stroke="black" points="149.55,-340.68 152,-347.68 154.45,-340.68 149.55,-340.68"/>
</g>
<!-- EventContracts -->
<g id="node2" class="node">
<title>EventContracts</title>
<path fill="#eceff1" stroke="#455a64" d="M92.5,-330C92.5,-330 30.5,-330 30.5,-330 24.5,-330 18.5,-324 18.5,-318 18.5,-318 18.5,-306 18.5,-306 18.5,-300 24.5,-294 30.5,-294 30.5,-294 92.5,-294 92.5,-294 98.5,-294 104.5,-300 104.5,-306 104.5,-306 104.5,-318 104.5,-318 104.5,-324 98.5,-330 92.5,-330"/>
<text text-anchor="middle" x="61.5" y="-309.5" font-family="Arial" font-size="10.00">Event contracts</text>
</g>
<!-- EventContracts&#45;&gt;Router -->
<g id="edge1" class="edge">
<title>EventContracts&#45;&gt;Router</title>
<path fill="none" stroke="black" stroke-dasharray="1,5" d="M104.64,-312C104.64,-312 161.44,-312 161.44,-312"/>
<polygon fill="black" stroke="black" points="161.44,-314.45 168.44,-312 161.44,-309.55 161.44,-314.45"/>
</g>
<!-- Router&#45;&gt;Qdrant -->
<g id="edge12" class="edge">
<title>Router&#45;&gt;Qdrant</title>
<path fill="none" stroke="black" stroke-dasharray="5,2" d="M209,-293.82C209,-280.96 209,-266 209,-266 209,-266 302.46,-266 302.46,-266"/>
<polygon fill="black" stroke="black" points="302.46,-268.45 309.46,-266 302.46,-263.55 302.46,-268.45"/>
</g>
<!-- Router&#45;&gt;Cache -->
<g id="edge11" class="edge">
<title>Router&#45;&gt;Cache</title>
<path fill="none" stroke="black" stroke-dasharray="5,2" d="M196,-293.68C196,-262.87 196,-204 196,-204 196,-204 302.41,-204 302.41,-204"/>
<polygon fill="black" stroke="black" points="302.41,-206.45 309.41,-204 302.41,-201.55 302.41,-206.45"/>
</g>
<!-- Knowledge&#45;&gt;SQLiteProd -->
<g id="edge8" class="edge">
<title>Knowledge&#45;&gt;SQLiteProd</title>
<path fill="none" stroke="black" stroke-dasharray="5,2" d="M248,-372C248,-372 281.15,-372 281.15,-372"/>
<polygon fill="black" stroke="black" points="281.15,-374.45 288.15,-372 281.15,-369.55 281.15,-374.45"/>
</g>
<!-- Knowledge&#45;&gt;SQLiteMaint -->
<g id="edge9" class="edge">
<title>Knowledge&#45;&gt;SQLiteMaint</title>
<path fill="none" stroke="black" stroke-dasharray="5,2" d="M242,-347.72C242,-332.05 242,-312 242,-312 242,-312 277,-312 277,-312"/>
<polygon fill="black" stroke="black" points="277,-314.45 284,-312 277,-309.55 277,-314.45"/>
</g>
<!-- Knowledge&#45;&gt;Qdrant -->
<g id="edge10" class="edge">
<title>Knowledge&#45;&gt;Qdrant</title>
<path fill="none" stroke="black" stroke-dasharray="5,2" d="M237,-347.68C237,-320.08 237,-271 237,-271 237,-271 302.31,-271 302.31,-271"/>
<polygon fill="black" stroke="black" points="302.31,-273.45 309.31,-271 302.31,-268.55 302.31,-273.45"/>
</g>
<!-- InferenceAdapter -->
<g id="node9" class="node">
<title>InferenceAdapter</title>
<path fill="#fffde7" stroke="#f9a825" d="M95,-79C95,-79 28,-79 28,-79 22,-79 16,-73 16,-67 16,-67 16,-55 16,-55 16,-49 22,-43 28,-43 28,-43 95,-43 95,-43 101,-43 107,-49 107,-55 107,-55 107,-67 107,-67 107,-73 101,-79 95,-79"/>
<text text-anchor="middle" x="61.5" y="-58.5" font-family="Arial" font-size="10.00">InferenceAdapter</text>
</g>
<!-- OpenVINOBackend -->
<g id="node10" class="node">
<title>OpenVINOBackend</title>
<path fill="#fffde7" stroke="#f9a825" d="M235,-52C235,-52 156,-52 156,-52 150,-52 144,-46 144,-40 144,-40 144,-28 144,-28 144,-22 150,-16 156,-16 156,-16 235,-16 235,-16 241,-16 247,-22 247,-28 247,-28 247,-40 247,-40 247,-46 241,-52 235,-52"/>
<text text-anchor="middle" x="195.5" y="-31.5" font-family="Arial" font-size="10.00">OpenVINOBackend</text>
</g>
<!-- InferenceAdapter&#45;&gt;OpenVINOBackend -->
<g id="edge13" class="edge">
<title>InferenceAdapter&#45;&gt;OpenVINOBackend</title>
<path fill="none" stroke="black" stroke-dasharray="5,2" d="M107.24,-47.5C107.24,-47.5 136.98,-47.5 136.98,-47.5"/>
<polygon fill="black" stroke="black" points="136.98,-49.95 143.98,-47.5 136.98,-45.05 136.98,-49.95"/>
</g>
<!-- Embeddings -->
<g id="node11" class="node">
<title>Embeddings</title>
<path fill="#fffde7" stroke="#f9a825" d="M219,-106C219,-106 172,-106 172,-106 166,-106 160,-100 160,-94 160,-94 160,-82 160,-82 160,-76 166,-70 172,-70 172,-70 219,-70 219,-70 225,-70 231,-76 231,-82 231,-82 231,-94 231,-94 231,-100 225,-106 219,-106"/>
<text text-anchor="middle" x="195.5" y="-85.5" font-family="Arial" font-size="10.00">Embeddings</text>
</g>
<!-- InferenceAdapter&#45;&gt;Embeddings -->
<g id="edge14" class="edge">
<title>InferenceAdapter&#45;&gt;Embeddings</title>
<path fill="none" stroke="black" stroke-dasharray="5,2" d="M107.24,-74.5C107.24,-74.5 152.69,-74.5 152.69,-74.5"/>
<polygon fill="black" stroke="black" points="152.69,-76.95 159.69,-74.5 152.69,-72.05 152.69,-76.95"/>
</g>
<!-- Embeddings&#45;&gt;Qdrant -->
<g id="edge15" class="edge">
<title>Embeddings&#45;&gt;Qdrant</title>
<path fill="none" stroke="black" stroke-dasharray="5,2" d="M227,-106.08C227,-146.97 227,-243 227,-243 227,-243 302.43,-243 302.43,-243"/>
<polygon fill="black" stroke="black" points="302.43,-245.45 309.43,-243 302.43,-240.55 302.43,-245.45"/>
</g>
<!-- Nav_Global -->
<g id="node12" class="node">
<title>Nav_Global</title>
<g id="a_node12"><a xlink:href="../00_global.svg" xlink:title="Global">
<path fill="lightgrey" stroke="transparent" d="M351.5,-456C351.5,-456 321.5,-456 321.5,-456 315.5,-456 309.5,-450 309.5,-444 309.5,-444 309.5,-432 309.5,-432 309.5,-426 315.5,-420 321.5,-420 321.5,-420 351.5,-420 351.5,-420 357.5,-420 363.5,-426 363.5,-432 363.5,-432 363.5,-444 363.5,-444 363.5,-450 357.5,-456 351.5,-456"/>
<text text-anchor="middle" x="336.5" y="-435.5" font-family="Arial" font-size="10.00">Global</text>
</a>
</g>
</g>
<!-- Nav_Scheduler -->
<g id="node13" class="node">
<title>Nav_Scheduler</title>
<g id="a_node13"><a xlink:href="../scheduler/10_scheduler.svg" xlink:title="Scheduler">
<path fill="lightgrey" stroke="transparent" d="M354.5,-510C354.5,-510 318.5,-510 318.5,-510 312.5,-510 306.5,-504 306.5,-498 306.5,-498 306.5,-486 306.5,-486 306.5,-480 312.5,-474 318.5,-474 318.5,-474 354.5,-474 354.5,-474 360.5,-474 366.5,-480 366.5,-486 366.5,-486 366.5,-498 366.5,-498 366.5,-504 360.5,-510 354.5,-510"/>
<text text-anchor="middle" x="336.5" y="-489.5" font-family="Arial" font-size="10.00">Scheduler</text>
</a>
</g>
</g>
</g>
</svg>
