<?xml version="1.0" encoding="UTF-8" standalone="no"?>
<!DOCTYPE svg PUBLIC "-//W3C//DTD SVG 1.1//EN"
 "http://www.w3.org/Graphics/SVG/1.1/DTD/svg11.dtd">
<!-- Generated by graphviz version 14.1.3 (20260303.0454)
 -->
<!-- Title: Services Pages: 1 -->
<svg width="411pt" height="522pt"
 viewBox="0.00 0.00 411.00 522.00" xmlns="http://www.w3.org/2000/svg" xmlns:xlink="http://www.w3.org/1999/xlink">
<g id="graph0" class="graph" transform="scale(1 1) rotate(0) translate(4 518)">
<title>Services</title>
<polygon fill="white" stroke="none" points="-4,4 -4,-518 407.25,-518 407.25,4 -4,4"/>
<g id="clust1" class="cluster">
<title>cluster_services</title>
<polygon fill="#e1f5fe" stroke="#0288d1" points="134.25,-180 134.25,-416 395.25,-416 395.25,-180 134.25,-180"/>
<text xml:space="preserve" text-anchor="middle" x="264.75" y="-401.55" font-family="Arial" font-size="11.00">Independent services future</text>
</g>
<g id="clust2" class="cluster">
<title>cluster_inference</title>
<polygon fill="#fffde7" stroke="#f9a825" points="8,-8 8,-136 253.62,-136 253.62,-8 8,-8"/>
<text xml:space="preserve" text-anchor="middle" x="130.81" y="-121.55" font-family="Arial" font-size="11.00">Inference future</text>
</g>
<!-- EventBus -->
<g id="node1" class="node">
<title>EventBus</title>
<g id="a_node1"><a xlink:href="../scheduler/10_scheduler.svg" xlink:title="EventBus\nobservation only">
<path fill="#ede7f6" stroke="#512da8" d="M92.75,-263C92.75,-263 29.5,-263 29.5,-263 23.5,-263 17.5,-257 17.5,-251 17.5,-251 17.5,-239 17.5,-239 17.5,-233 23.5,-227 29.5,-227 29.5,-227 92.75,-227 92.75,-227 98.75,-227 104.75,-233 104.75,-239 104.75,-239 104.75,-251 104.75,-251 104.75,-257 98.75,-263 92.75,-263"/>
<text xml:space="preserve" text-anchor="middle" x="61.12" y="-247.5" font-family="Arial" font-size="10.00">EventBus</text>
<text xml:space="preserve" text-anchor="middle" x="61.12" y="-235.5" font-family="Arial" font-size="10.00">observation only</text>
</a>
</g>
</g>
<!-- Router -->
<g id="node3" class="node">
<title>Router</title>
<path fill="#e1f5fe" stroke="#0288d1" d="M209.5,-332C209.5,-332 179.5,-332 179.5,-332 173.5,-332 167.5,-326 167.5,-320 167.5,-320 167.5,-308 167.5,-308 167.5,-302 173.5,-296 179.5,-296 179.5,-296 209.5,-296 209.5,-296 215.5,-296 221.5,-302 221.5,-308 221.5,-308 221.5,-320 221.5,-320 221.5,-326 215.5,-332 209.5,-332"/>
<text xml:space="preserve" text-anchor="middle" x="194.5" y="-310.5" font-family="Arial" font-size="10.00">Router</text>
</g>
<!-- EventBus&#45;&gt;Router -->
<g id="edge2" class="edge">
<title>EventBus&#45;&gt;Router</title>
<path fill="none" stroke="black" stroke-dasharray="5,2" d="M105.17,-257C139.46,-257 181.25,-257 181.25,-257 181.25,-257 181.25,-287.14 181.25,-287.14"/>
<polygon fill="black" stroke="black" points="178.8,-287.14 181.25,-294.14 183.7,-287.14 178.8,-287.14"/>
</g>
<!-- SQLiteProd -->
<g id="node4" class="node">
<title>SQLiteProd</title>
<path fill="#e1f5fe" stroke="#0288d1" d="M370.75,-386C370.75,-386 299.25,-386 299.25,-386 293.25,-386 287.25,-380 287.25,-374 287.25,-374 287.25,-362 287.25,-362 287.25,-356 293.25,-350 299.25,-350 299.25,-350 370.75,-350 370.75,-350 376.75,-350 382.75,-356 382.75,-362 382.75,-362 382.75,-374 382.75,-374 382.75,-380 376.75,-386 370.75,-386"/>
<text xml:space="preserve" text-anchor="middle" x="335" y="-364.5" font-family="Arial" font-size="10.00">SQLite Production</text>
</g>
<!-- EventBus&#45;&gt;SQLiteProd -->
<g id="edge3" class="edge">
<title>EventBus&#45;&gt;SQLiteProd</title>
<path fill="none" stroke="black" stroke-dasharray="5,2" d="M105.2,-254C164.94,-254 264.25,-254 264.25,-254 264.25,-254 264.25,-362 264.25,-362 264.25,-362 278.51,-362 278.51,-362"/>
<polygon fill="black" stroke="black" points="278.51,-364.45 285.51,-362 278.51,-359.55 278.51,-364.45"/>
</g>
<!-- SQLiteMaint -->
<g id="node5" class="node">
<title>SQLiteMaint</title>
<path fill="#e1f5fe" stroke="#0288d1" d="M375.25,-332C375.25,-332 294.75,-332 294.75,-332 288.75,-332 282.75,-326 282.75,-320 282.75,-320 282.75,-308 282.75,-308 282.75,-302 288.75,-296 294.75,-296 294.75,-296 375.25,-296 375.25,-296 381.25,-296 387.25,-302 387.25,-308 387.25,-308 387.25,-320 387.25,-320 387.25,-326 381.25,-332 375.25,-332"/>
<text xml:space="preserve" text-anchor="middle" x="335" y="-310.5" font-family="Arial" font-size="10.00">SQLite Maintenance</text>
</g>
<!-- EventBus&#45;&gt;SQLiteMaint -->
<g id="edge4" class="edge">
<title>EventBus&#45;&gt;SQLiteMaint</title>
<path fill="none" stroke="black" stroke-dasharray="5,2" d="M105.16,-251C172.98,-251 295.25,-251 295.25,-251 295.25,-251 295.25,-287.26 295.25,-287.26"/>
<polygon fill="black" stroke="black" points="292.8,-287.26 295.25,-294.26 297.7,-287.26 292.8,-287.26"/>
</g>
<!-- Qdrant -->
<g id="node6" class="node">
<title>Qdrant</title>
<path fill="#e1f5fe" stroke="#0288d1" d="M350,-278C350,-278 320,-278 320,-278 314,-278 308,-272 308,-266 308,-266 308,-254 308,-254 308,-248 314,-242 320,-242 320,-242 350,-242 350,-242 356,-242 362,-248 362,-254 362,-254 362,-266 362,-266 362,-272 356,-278 350,-278"/>
<text xml:space="preserve" text-anchor="middle" x="335" y="-256.5" font-family="Arial" font-size="10.00">Qdrant</text>
</g>
<!-- EventBus&#45;&gt;Qdrant -->
<g id="edge5" class="edge">
<title>EventBus&#45;&gt;Qdrant</title>
<path fill="none" stroke="black" stroke-dasharray="5,2" d="M105.13,-248C105.13,-248 299.24,-248 299.24,-248"/>
<polygon fill="black" stroke="black" points="299.24,-250.45 306.24,-248 299.24,-245.55 299.24,-250.45"/>
</g>
<!-- Cache -->
<g id="node7" class="node">
<title>Cache</title>
<path fill="#e1f5fe" stroke="#0288d1" d="M350,-224C350,-224 320,-224 320,-224 314,-224 308,-218 308,-212 308,-212 308,-200 308,-200 308,-194 314,-188 320,-188 320,-188 350,-188 350,-188 356,-188 362,-194 362,-200 362,-200 362,-212 362,-212 362,-218 356,-224 350,-224"/>
<text xml:space="preserve" text-anchor="middle" x="335" y="-202.5" font-family="Arial" font-size="10.00">Cache</text>
</g>
<!-- EventBus&#45;&gt;Cache -->
<g id="edge6" class="edge">
<title>EventBus&#45;&gt;Cache</title>
<path fill="none" stroke="black" stroke-dasharray="5,2" d="M105.17,-234.5C182.66,-234.5 335.25,-234.5 335.25,-234.5 335.25,-234.5 335.25,-232.72 335.25,-232.72"/>
<polygon fill="black" stroke="black" points="337.7,-232.72 335.25,-225.72 332.8,-232.72 337.7,-232.72"/>
</g>
<!-- Knowledge -->
<g id="node8" class="node">
<title>Knowledge</title>
<path fill="#e1f5fe" stroke="#0288d1" d="M234.75,-386C234.75,-386 154.25,-386 154.25,-386 148.25,-386 142.25,-380 142.25,-374 142.25,-374 142.25,-362 142.25,-362 142.25,-356 148.25,-350 154.25,-350 154.25,-350 234.75,-350 234.75,-350 240.75,-350 246.75,-356 246.75,-362 246.75,-362 246.75,-374 246.75,-374 246.75,-380 240.75,-386 234.75,-386"/>
<text xml:space="preserve" text-anchor="middle" x="194.5" y="-364.5" font-family="Arial" font-size="10.00">Knowledge Manager</text>
</g>
<!-- EventBus&#45;&gt;Knowledge -->
<g id="edge7" class="edge">
<title>EventBus&#45;&gt;Knowledge</title>
<path fill="none" stroke="black" stroke-dasharray="5,2" d="M105.13,-260C128.01,-260 151.25,-260 151.25,-260 151.25,-260 151.25,-341.17 151.25,-341.17"/>
<polygon fill="black" stroke="black" points="148.8,-341.17 151.25,-348.17 153.7,-341.17 148.8,-341.17"/>
</g>
<!-- EventContracts -->
<g id="node2" class="node">
<title>EventContracts</title>
<path fill="#eceff1" stroke="#455a64" d="M91.62,-332C91.62,-332 30.62,-332 30.62,-332 24.62,-332 18.62,-326 18.62,-320 18.62,-320 18.62,-308 18.62,-308 18.62,-302 24.62,-296 30.62,-296 30.62,-296 91.62,-296 91.62,-296 97.62,-296 103.62,-302 103.62,-308 103.62,-308 103.62,-320 103.62,-320 103.62,-326 97.62,-332 91.62,-332"/>
<text xml:space="preserve" text-anchor="middle" x="61.12" y="-310.5" font-family="Arial" font-size="10.00">Event contracts</text>
</g>
<!-- EventContracts&#45;&gt;Router -->
<g id="edge1" class="edge">
<title>EventContracts&#45;&gt;Router</title>
<path fill="none" stroke="black" stroke-dasharray="1,5" d="M104.06,-314C104.06,-314 158.65,-314 158.65,-314"/>
<polygon fill="black" stroke="black" points="158.65,-316.45 165.65,-314 158.65,-311.55 158.65,-316.45"/>
</g>
<!-- Router&#45;&gt;Qdrant -->
<g id="edge12" class="edge">
<title>Router&#45;&gt;Qdrant</title>
<path fill="none" stroke="black" stroke-dasharray="5,2" d="M208.25,-295.56C208.25,-282.76 208.25,-268 208.25,-268 208.25,-268 299.3,-268 299.3,-268"/>
<polygon fill="black" stroke="black" points="299.3,-270.45 306.3,-268 299.3,-265.55 299.3,-270.45"/>
</g>
<!-- Router&#45;&gt;Cache -->
<g id="edge11" class="edge">
<title>Router&#45;&gt;Cache</title>
<path fill="none" stroke="black" stroke-dasharray="5,2" d="M194.25,-295.68C194.25,-264.87 194.25,-206 194.25,-206 194.25,-206 299.01,-206 299.01,-206"/>
<polygon fill="black" stroke="black" points="299.01,-208.45 306.01,-206 299.01,-203.55 299.01,-208.45"/>
</g>
<!-- Knowledge&#45;&gt;SQLiteProd -->
<g id="edge8" class="edge">
<title>Knowledge&#45;&gt;SQLiteProd</title>
<path fill="none" stroke="black" stroke-dasharray="5,2" d="M247.22,-374C247.22,-374 278.57,-374 278.57,-374"/>
<polygon fill="black" stroke="black" points="278.57,-376.45 285.57,-374 278.57,-371.55 278.57,-376.45"/>
</g>
<!-- Knowledge&#45;&gt;SQLiteMaint -->
<g id="edge9" class="edge">
<title>Knowledge&#45;&gt;SQLiteMaint</title>
<path fill="none" stroke="black" stroke-dasharray="5,2" d="M240.25,-349.72C240.25,-334.05 240.25,-314 240.25,-314 240.25,-314 273.85,-314 273.85,-314"/>
<polygon fill="black" stroke="black" points="273.85,-316.45 280.85,-314 273.85,-311.55 273.85,-316.45"/>
</g>
<!-- Knowledge&#45;&gt;Qdrant -->
<g id="edge10" class="edge">
<title>Knowledge&#45;&gt;Qdrant</title>
<path fill="none" stroke="black" stroke-dasharray="5,2" d="M235.25,-349.68C235.25,-322.08 235.25,-273 235.25,-273 235.25,-273 299.23,-273 299.23,-273"/>
<polygon fill="black" stroke="black" points="299.23,-275.45 306.23,-273 299.23,-270.55 299.23,-275.45"/>
</g>
<!-- InferenceAdapter -->
<g id="node9" class="node">
<title>InferenceAdapter</title>
<path fill="#fffde7" stroke="#f9a825" d="M94.25,-79C94.25,-79 28,-79 28,-79 22,-79 16,-73 16,-67 16,-67 16,-55 16,-55 16,-49 22,-43 28,-43 28,-43 94.25,-43 94.25,-43 100.25,-43 106.25,-49 106.25,-55 106.25,-55 106.25,-67 106.25,-67 106.25,-73 100.25,-79 94.25,-79"/>
<text xml:space="preserve" text-anchor="middle" x="61.12" y="-57.5" font-family="Arial" font-size="10.00">InferenceAdapter</text>
</g>
<!-- OpenVINOBackend -->
<g id="node10" class="node">
<title>OpenVINOBackend</title>
<path fill="#fffde7" stroke="#f9a825" d="M233.62,-52C233.62,-52 155.38,-52 155.38,-52 149.38,-52 143.38,-46 143.38,-40 143.38,-40 143.38,-28 143.38,-28 143.38,-22 149.38,-16 155.38,-16 155.38,-16 233.62,-16 233.62,-16 239.62,-16 245.62,-22 245.62,-28 245.62,-28 245.62,-40 245.62,-40 245.62,-46 239.62,-52 233.62,-52"/>
<text xml:space="preserve" text-anchor="middle" x="194.5" y="-30.5" font-family="Arial" font-size="10.00">OpenVINOBackend</text>
</g>
<!-- InferenceAdapter&#45;&gt;OpenVINOBackend -->
<g id="edge13" class="edge">
<title>InferenceAdapter&#45;&gt;OpenVINOBackend</title>
<path fill="none" stroke="black" stroke-dasharray="5,2" d="M106.65,-47.5C106.65,-47.5 134.71,-47.5 134.71,-47.5"/>
<polygon fill="black" stroke="black" points="134.71,-49.95 141.71,-47.5 134.71,-45.05 134.71,-49.95"/>
</g>
<!-- Embeddings -->
<g id="node11" class="node">
<title>Embeddings</title>
<path fill="#fffde7" stroke="#f9a825" d="M217.5,-106C217.5,-106 171.5,-106 171.5,-106 165.5,-106 159.5,-100 159.5,-94 159.5,-94 159.5,-82 159.5,-82 159.5,-76 165.5,-70 171.5,-70 171.5,-70 217.5,-70 217.5,-70 223.5,-70 229.5,-76 229.5,-82 229.5,-82 229.5,-94 229.5,-94 229.5,-100 223.5,-106 217.5,-106"/>
<text xml:space="preserve" text-anchor="middle" x="194.5" y="-84.5" font-family="Arial" font-size="10.00">Embeddings</text>
</g>
<!-- InferenceAdapter&#45;&gt;Embeddings -->
<g id="edge14" class="edge">
<title>InferenceAdapter&#45;&gt;Embeddings</title>
<path fill="none" stroke="black" stroke-dasharray="5,2" d="M106.65,-74.5C106.65,-74.5 150.77,-74.5 150.77,-74.5"/>
<polygon fill="black" stroke="black" points="150.77,-76.95 157.77,-74.5 150.77,-72.05 150.77,-76.95"/>
</g>
<!-- Embeddings&#45;&gt;Qdrant -->
<g id="edge15" class="edge">
<title>Embeddings&#45;&gt;Qdrant</title>
<path fill="none" stroke="black" stroke-dasharray="5,2" d="M225.25,-106.32C225.25,-147.73 225.25,-245 225.25,-245 225.25,-245 299.08,-245 299.08,-245"/>
<polygon fill="black" stroke="black" points="299.08,-247.45 306.08,-245 299.07,-242.55 299.08,-247.45"/>
</g>
<!-- Nav_Global -->
<g id="node12" class="node">
<title>Nav_Global</title>
<g id="a_node12"><a xlink:href="../00_global.svg" xlink:title="Global">
<path fill="lightgrey" stroke="none" d="M350,-460C350,-460 320,-460 320,-460 314,-460 308,-454 308,-448 308,-448 308,-436 308,-436 308,-430 314,-424 320,-424 320,-424 350,-424 350,-424 356,-424 362,-430 362,-436 362,-436 362,-448 362,-448 362,-454 356,-460 350,-460"/>
<text xml:space="preserve" text-anchor="middle" x="335" y="-438.5" font-family="Arial" font-size="10.00">Global</text>
</a>
</g>
</g>
<!-- Nav_Scheduler -->
<g id="node13" class="node">
<title>Nav_Scheduler</title>
<g id="a_node13"><a xlink:href="../scheduler/10_scheduler.svg" xlink:title="Scheduler">
<path fill="lightgrey" stroke="none" d="M352.75,-514C352.75,-514 317.25,-514 317.25,-514 311.25,-514 305.25,-508 305.25,-502 305.25,-502 305.25,-490 305.25,-490 305.25,-484 311.25,-478 317.25,-478 317.25,-478 352.75,-478 352.75,-478 358.75,-478 364.75,-484 364.75,-490 364.75,-490 364.75,-502 364.75,-502 364.75,-508 358.75,-514 352.75,-514"/>
<text xml:space="preserve" text-anchor="middle" x="335" y="-492.5" font-family="Arial" font-size="10.00">Scheduler</text>
</a>
</g>
</g>
</g>
</svg>
