<?xml version="1.0" encoding="UTF-8" standalone="no"?>
<!DOCTYPE svg PUBLIC "-//W3C//DTD SVG 1.1//EN"
 "http://www.w3.org/Graphics/SVG/1.1/DTD/svg11.dtd">
<!-- Generated by graphviz version 14.1.3 (20260303.0454)
 -->
<!-- Title: Tests Pages: 1 -->
<svg width="4120pt" height="311pt"
 viewBox="0.00 0.00 4120.00 311.00" xmlns="http://www.w3.org/2000/svg" xmlns:xlink="http://www.w3.org/1999/xlink">
<g id="graph0" class="graph" transform="scale(1 1) rotate(0) translate(4 306.5)">
<title>Tests</title>
<polygon fill="white" stroke="none" points="-4,4 -4,-306.5 4116,-306.5 4116,4 -4,4"/>
<g id="clust1" class="cluster">
<title>cluster_commands</title>
<polygon fill="#e3f2fd" stroke="#1565c0" points="1919,-138.5 1919,-294.5 2255,-294.5 2255,-138.5 1919,-138.5"/>
<text xml:space="preserve" text-anchor="middle" x="2087" y="-280.05" font-family="Arial" font-size="11.00">Commandes</text>
</g>
<g id="clust2" class="cluster">
<title>cluster_coverage</title>
<polygon fill="#e8f5e9" stroke="#2e7d32" points="8,-46 8,-119.5 4104,-119.5 4104,-46 8,-46"/>
<text xml:space="preserve" text-anchor="middle" x="2056" y="-105.05" font-family="Arial" font-size="11.00">Couverture Phase 2.3</text>
</g>
<!-- Compile -->
<g id="node1" class="node">
<title>Compile</title>
<path fill="#e3f2fd" stroke="#1565c0" d="M2078.88,-265C2078.88,-265 1939.12,-265 1939.12,-265 1933.12,-265 1927.12,-259 1927.12,-253 1927.12,-253 1927.12,-241 1927.12,-241 1927.12,-235 1933.12,-229 1939.12,-229 1939.12,-229 2078.88,-229 2078.88,-229 2084.88,-229 2090.88,-235 2090.88,-241 2090.88,-241 2090.88,-253 2090.88,-253 2090.88,-259 2084.88,-265 2078.88,-265"/>
<text xml:space="preserve" text-anchor="middle" x="2009" y="-243.5" font-family="Arial" font-size="10.00">python3 &#45;m compileall &#45;q src tests</text>
</g>
<!-- Pytest -->
<g id="node2" class="node">
<title>Pytest</title>
<path fill="#e3f2fd" stroke="#1565c0" d="M2024.12,-182.5C2024.12,-182.5 1993.88,-182.5 1993.88,-182.5 1987.88,-182.5 1981.88,-176.5 1981.88,-170.5 1981.88,-170.5 1981.88,-158.5 1981.88,-158.5 1981.88,-152.5 1987.88,-146.5 1993.88,-146.5 1993.88,-146.5 2024.12,-146.5 2024.12,-146.5 2030.12,-146.5 2036.12,-152.5 2036.12,-158.5 2036.12,-158.5 2036.12,-170.5 2036.12,-170.5 2036.12,-176.5 2030.12,-182.5 2024.12,-182.5"/>
<text xml:space="preserve" text-anchor="middle" x="2009" y="-161" font-family="Arial" font-size="10.00">pytest &#45;q</text>
</g>
<!-- Compile&#45;&gt;Pytest -->
<g id="edge1" class="edge">
<title>Compile&#45;&gt;Pytest</title>
<path fill="none" stroke="black" d="M2009,-228.69C2009,-228.69 2009,-191.27 2009,-191.27"/>
<polygon fill="black" stroke="black" points="2011.45,-191.27 2009,-184.27 2006.55,-191.27 2011.45,-191.27"/>
</g>
<!-- EventIds -->
<g id="node4" class="node">
<title>EventIds</title>
<path fill="#e8f5e9" stroke="#2e7d32" d="M92.38,-90C92.38,-90 27.62,-90 27.62,-90 21.63,-90 15.62,-84 15.62,-78 15.62,-78 15.62,-66 15.62,-66 15.62,-60 21.62,-54 27.62,-54 27.62,-54 92.38,-54 92.38,-54 98.38,-54 104.38,-60 104.38,-66 104.38,-66 104.38,-78 104.38,-78 104.38,-84 98.38,-90 92.38,-90"/>
<text xml:space="preserve" text-anchor="middle" x="60" y="-68.5" font-family="Arial" font-size="10.00">Event ids unique</text>
</g>
<!-- Pytest&#45;&gt;EventIds -->
<g id="edge2" class="edge">
<title>Pytest&#45;&gt;EventIds</title>
<path fill="none" stroke="black" d="M1981.45,-181C1744.56,-181 60,-181 60,-181 60,-181 60,-99 60,-99"/>
<polygon fill="black" stroke="black" points="62.45,-99 60,-92 57.55,-99 62.45,-99"/>
</g>
<!-- Dispatcher -->
<g id="node5" class="node">
<title>Dispatcher</title>
<path fill="#e8f5e9" stroke="#2e7d32" d="M237.5,-90C237.5,-90 134.5,-90 134.5,-90 128.5,-90 122.5,-84 122.5,-78 122.5,-78 122.5,-66 122.5,-66 122.5,-60 128.5,-54 134.5,-54 134.5,-54 237.5,-54 237.5,-54 243.5,-54 249.5,-60 249.5,-66 249.5,-66 249.5,-78 249.5,-78 249.5,-84 243.5,-90 237.5,-90"/>
<text xml:space="preserve" text-anchor="middle" x="186" y="-74.5" font-family="Arial" font-size="10.00">Dispatcher</text>
<text xml:space="preserve" text-anchor="middle" x="186" y="-62.5" font-family="Arial" font-size="10.00">unhandled event no block</text>
</g>
<!-- Pytest&#45;&gt;Dispatcher -->
<g id="edge3" class="edge">
<title>Pytest&#45;&gt;Dispatcher</title>
<path fill="none" stroke="black" d="M1981.46,-179C1753.39,-179 186,-179 186,-179 186,-179 186,-98.66 186,-98.66"/>
<polygon fill="black" stroke="black" points="188.45,-98.66 186,-91.66 183.55,-98.66 188.45,-98.66"/>
</g>
<!-- Queue -->
<g id="node6" class="node">
<title>Queue</title>
<path fill="#e8f5e9" stroke="#2e7d32" d="M352.88,-90C352.88,-90 279.12,-90 279.12,-90 273.12,-90 267.12,-84 267.12,-78 267.12,-78 267.12,-66 267.12,-66 267.12,-60 273.12,-54 279.12,-54 279.12,-54 352.88,-54 352.88,-54 358.88,-54 364.88,-60 364.88,-66 364.88,-66 364.88,-78 364.88,-78 364.88,-84 358.88,-90 352.88,-90"/>
<text xml:space="preserve" text-anchor="middle" x="316" y="-74.5" font-family="Arial" font-size="10.00">PriorityQueue</text>
<text xml:space="preserve" text-anchor="middle" x="316" y="-62.5" font-family="Arial" font-size="10.00">FIFO same priority</text>
</g>
<!-- Pytest&#45;&gt;Queue -->
<g id="edge4" class="edge">
<title>Pytest&#45;&gt;Queue</title>
<path fill="none" stroke="black" d="M1981.38,-177C1762.43,-177 316,-177 316,-177 316,-177 316,-98.8 316,-98.8"/>
<polygon fill="black" stroke="black" points="318.45,-98.8 316,-91.8 313.55,-98.8 318.45,-98.8"/>
</g>
<!-- Proxy -->
<g id="node7" class="node">
<title>Proxy</title>
<path fill="#e8f5e9" stroke="#2e7d32" d="M462.88,-90C462.88,-90 395.12,-90 395.12,-90 389.12,-90 383.12,-84 383.12,-78 383.12,-78 383.12,-66 383.12,-66 383.12,-60 389.12,-54 395.12,-54 395.12,-54 462.88,-54 462.88,-54 468.88,-54 474.88,-60 474.88,-66 474.88,-66 474.88,-78 474.88,-78 474.88,-84 468.88,-90 462.88,-90"/>
<text xml:space="preserve" text-anchor="middle" x="429" y="-74.5" font-family="Arial" font-size="10.00">ComponentProxy</text>
<text xml:space="preserve" text-anchor="middle" x="429" y="-62.5" font-family="Arial" font-size="10.00">roundtrip</text>
</g>
<!-- Pytest&#45;&gt;Proxy -->
<g id="edge5" class="edge">
<title>Pytest&#45;&gt;Proxy</title>
<path fill="none" stroke="black" d="M1981.58,-175C1771.77,-175 429,-175 429,-175 429,-175 429,-98.93 429,-98.93"/>
<polygon fill="black" stroke="black" points="431.45,-98.93 429,-91.93 426.55,-98.93 431.45,-98.93"/>
</g>
<!-- Unknown -->
<g id="node8" class="node">
<title>Unknown</title>
<path fill="#e8f5e9" stroke="#2e7d32" d="M565.12,-90C565.12,-90 504.88,-90 504.88,-90 498.88,-90 492.88,-84 492.88,-78 492.88,-78 492.88,-66 492.88,-66 492.88,-60 498.88,-54 504.88,-54 504.88,-54 565.12,-54 565.12,-54 571.12,-54 577.12,-60 577.12,-66 577.12,-66 577.12,-78 577.12,-78 577.12,-84 571.12,-90 565.12,-90"/>
<text xml:space="preserve" text-anchor="middle" x="535" y="-74.5" font-family="Arial" font-size="10.00">Unknown event</text>
<text xml:space="preserve" text-anchor="middle" x="535" y="-62.5" font-family="Arial" font-size="10.00">explicit result</text>
</g>
<!-- Pytest&#45;&gt;Unknown -->
<g id="edge6" class="edge">
<title>Pytest&#45;&gt;Unknown</title>
<path fill="none" stroke="black" d="M1981.52,-173C1779.73,-173 535,-173 535,-173 535,-173 535,-98.57 535,-98.57"/>
<polygon fill="black" stroke="black" points="537.45,-98.57 535,-91.57 532.55,-98.57 537.45,-98.57"/>
</g>
<!-- Failure -->
<g id="node9" class="node">
<title>Failure</title>
<path fill="#e8f5e9" stroke="#2e7d32" d="M684.75,-90C684.75,-90 607.25,-90 607.25,-90 601.25,-90 595.25,-84 595.25,-78 595.25,-78 595.25,-66 595.25,-66 595.25,-60 601.25,-54 607.25,-54 607.25,-54 684.75,-54 684.75,-54 690.75,-54 696.75,-60 696.75,-66 696.75,-66 696.75,-78 696.75,-78 696.75,-84 690.75,-90 684.75,-90"/>
<text xml:space="preserve" text-anchor="middle" x="646" y="-74.5" font-family="Arial" font-size="10.00">Failing component</text>
<text xml:space="preserve" text-anchor="middle" x="646" y="-62.5" font-family="Arial" font-size="10.00">ERROR + no block</text>
</g>
<!-- Pytest&#45;&gt;Failure -->
<g id="edge7" class="edge">
<title>Pytest&#45;&gt;Failure</title>
<path fill="none" stroke="black" d="M1981.47,-171C1788.45,-171 646,-171 646,-171 646,-171 646,-98.67 646,-98.67"/>
<polygon fill="black" stroke="black" points="648.45,-98.67 646,-91.67 643.55,-98.67 648.45,-98.67"/>
</g>
<!-- Context -->
<g id="node10" class="node">
<title>Context</title>
<path fill="#e8f5e9" stroke="#2e7d32" d="M787.12,-90C787.12,-90 726.88,-90 726.88,-90 720.88,-90 714.88,-84 714.88,-78 714.88,-78 714.88,-66 714.88,-66 714.88,-60 720.88,-54 726.88,-54 726.88,-54 787.12,-54 787.12,-54 793.12,-54 799.12,-60 799.12,-66 799.12,-66 799.12,-78 799.12,-78 799.12,-84 793.12,-90 787.12,-90"/>
<text xml:space="preserve" text-anchor="middle" x="757" y="-74.5" font-family="Arial" font-size="10.00">ContextEngine</text>
<text xml:space="preserve" text-anchor="middle" x="757" y="-62.5" font-family="Arial" font-size="10.00">event collection</text>
</g>
<!-- Pytest&#45;&gt;Context -->
<g id="edge8" class="edge">
<title>Pytest&#45;&gt;Context</title>
<path fill="none" stroke="black" d="M1981.39,-169C1797.48,-169 757,-169 757,-169 757,-169 757,-98.76 757,-98.76"/>
<polygon fill="black" stroke="black" points="759.45,-98.76 757,-91.76 754.55,-98.76 759.45,-98.76"/>
</g>
<!-- Inference -->
<g id="node11" class="node">
<title>Inference</title>
<path fill="#e8f5e9" stroke="#2e7d32" d="M934.62,-90C934.62,-90 829.38,-90 829.38,-90 823.38,-90 817.38,-84 817.38,-78 817.38,-78 817.38,-66 817.38,-66 817.38,-60 823.38,-54 829.38,-54 829.38,-54 934.62,-54 934.62,-54 940.62,-54 946.62,-60 946.62,-66 946.62,-66 946.62,-78 946.62,-78 946.62,-84 940.62,-90 934.62,-90"/>
<text xml:space="preserve" text-anchor="middle" x="882" y="-74.5" font-family="Arial" font-size="10.00">DummyInferenceBackend</text>
<text xml:space="preserve" text-anchor="middle" x="882" y="-62.5" font-family="Arial" font-size="10.00">request/result</text>
</g>
<!-- Pytest&#45;&gt;Inference -->
<g id="edge9" class="edge">
<title>Pytest&#45;&gt;Inference</title>
<path fill="none" stroke="black" d="M1981.42,-167C1808.59,-167 882,-167 882,-167 882,-167 882,-98.83 882,-98.83"/>
<polygon fill="black" stroke="black" points="884.45,-98.83 882,-91.83 879.55,-98.83 884.45,-98.83"/>
</g>
<!-- InferenceAdapter -->
<g id="node12" class="node">
<title>InferenceAdapter</title>
<path fill="#e8f5e9" stroke="#2e7d32" d="M1043.12,-90C1043.12,-90 976.88,-90 976.88,-90 970.88,-90 964.88,-84 964.88,-78 964.88,-78 964.88,-66 964.88,-66 964.88,-60 970.88,-54 976.88,-54 976.88,-54 1043.12,-54 1043.12,-54 1049.12,-54 1055.12,-60 1055.12,-66 1055.12,-66 1055.12,-78 1055.12,-78 1055.12,-84 1049.12,-90 1043.12,-90"/>
<text xml:space="preserve" text-anchor="middle" x="1010" y="-74.5" font-family="Arial" font-size="10.00">InferenceAdapter</text>
<text xml:space="preserve" text-anchor="middle" x="1010" y="-62.5" font-family="Arial" font-size="10.00">uses registry</text>
</g>
<!-- Pytest&#45;&gt;InferenceAdapter -->
<g id="edge10" class="edge">
<title>Pytest&#45;&gt;InferenceAdapter</title>
<path fill="none" stroke="black" d="M1981.5,-165C1820.77,-165 1010,-165 1010,-165 1010,-165 1010,-98.89 1010,-98.89"/>
<polygon fill="black" stroke="black" points="1012.45,-98.89 1010,-91.89 1007.55,-98.89 1012.45,-98.89"/>
</g>
<!-- BackendRegistry -->
<g id="node13" class="node">
<title>BackendRegistry</title>
<path fill="#e8f5e9" stroke="#2e7d32" d="M1152.5,-90C1152.5,-90 1085.5,-90 1085.5,-90 1079.5,-90 1073.5,-84 1073.5,-78 1073.5,-78 1073.5,-66 1073.5,-66 1073.5,-60 1079.5,-54 1085.5,-54 1085.5,-54 1152.5,-54 1152.5,-54 1158.5,-54 1164.5,-60 1164.5,-66 1164.5,-66 1164.5,-78 1164.5,-78 1164.5,-84 1158.5,-90 1152.5,-90"/>
<text xml:space="preserve" text-anchor="middle" x="1119" y="-74.5" font-family="Arial" font-size="10.00">BackendRegistry</text>
<text xml:space="preserve" text-anchor="middle" x="1119" y="-62.5" font-family="Arial" font-size="10.00">explicit selection</text>
</g>
<!-- Pytest&#45;&gt;BackendRegistry -->
<g id="edge11" class="edge">
<title>Pytest&#45;&gt;BackendRegistry</title>
<path fill="none" stroke="black" d="M1981.39,-163C1831.17,-163 1119,-163 1119,-163 1119,-163 1119,-98.93 1119,-98.93"/>
<polygon fill="black" stroke="black" points="1121.45,-98.93 1119,-91.93 1116.55,-98.93 1121.45,-98.93"/>
</g>
<!-- InferenceObs -->
<g id="node14" class="node">
<title>InferenceObs</title>
<path fill="#e8f5e9" stroke="#2e7d32" d="M1289.75,-90C1289.75,-90 1194.25,-90 1194.25,-90 1188.25,-90 1182.25,-84 1182.25,-78 1182.25,-78 1182.25,-66 1182.25,-66 1182.25,-60 1188.25,-54 1194.25,-54 1194.25,-54 1289.75,-54 1289.75,-54 1295.75,-54 1301.75,-60 1301.75,-66 1301.75,-66 1301.75,-78 1301.75,-78 1301.75,-84 1295.75,-90 1289.75,-90"/>
<text xml:space="preserve" text-anchor="middle" x="1242" y="-74.5" font-family="Arial" font-size="10.00">INFERENCE_RESULT</text>
<text xml:space="preserve" text-anchor="middle" x="1242" y="-62.5" font-family="Arial" font-size="10.00">observable</text>
</g>
<!-- Pytest&#45;&gt;InferenceObs -->
<g id="edge12" class="edge">
<title>Pytest&#45;&gt;InferenceObs</title>
<path fill="none" stroke="black" d="M1981.7,-161C1845.07,-161 1242,-161 1242,-161 1242,-161 1242,-98.95 1242,-98.95"/>
<polygon fill="black" stroke="black" points="1244.45,-98.95 1242,-91.95 1239.55,-98.95 1244.45,-98.95"/>
</g>
<!-- InferenceProxy -->
<g id="node15" class="node">
<title>InferenceProxy</title>
<path fill="#e8f5e9" stroke="#2e7d32" d="M1404.12,-90C1404.12,-90 1331.88,-90 1331.88,-90 1325.88,-90 1319.88,-84 1319.88,-78 1319.88,-78 1319.88,-66 1319.88,-66 1319.88,-60 1325.88,-54 1331.88,-54 1331.88,-54 1404.12,-54 1404.12,-54 1410.12,-54 1416.12,-60 1416.12,-66 1416.12,-66 1416.12,-78 1416.12,-78 1416.12,-84 1410.12,-90 1404.12,-90"/>
<text xml:space="preserve" text-anchor="middle" x="1368" y="-74.5" font-family="Arial" font-size="10.00">ComponentProxy</text>
<text xml:space="preserve" text-anchor="middle" x="1368" y="-62.5" font-family="Arial" font-size="10.00">inference roundtrip</text>
</g>
<!-- Pytest&#45;&gt;InferenceProxy -->
<g id="edge13" class="edge">
<title>Pytest&#45;&gt;InferenceProxy</title>
<path fill="none" stroke="black" d="M1981.46,-159C1858.77,-159 1368,-159 1368,-159 1368,-159 1368,-98.96 1368,-98.96"/>
<polygon fill="black" stroke="black" points="1370.45,-98.96 1368,-91.96 1365.55,-98.96 1370.45,-98.96"/>
</g>
<!-- PolicyRules -->
<g id="node16" class="node">
<title>PolicyRules</title>
<path fill="#e8f5e9" stroke="#2e7d32" d="M1495.5,-90C1495.5,-90 1446.5,-90 1446.5,-90 1440.5,-90 1434.5,-84 1434.5,-78 1434.5,-78 1434.5,-66 1434.5,-66 1434.5,-60 1440.5,-54 1446.5,-54 1446.5,-54 1495.5,-54 1495.5,-54 1501.5,-54 1507.5,-60 1507.5,-66 1507.5,-66 1507.5,-78 1507.5,-78 1507.5,-84 1501.5,-90 1495.5,-90"/>
<text xml:space="preserve" text-anchor="middle" x="1471" y="-74.5" font-family="Arial" font-size="10.00">PolicyEngine</text>
<text xml:space="preserve" text-anchor="middle" x="1471" y="-62.5" font-family="Arial" font-size="10.00">rules</text>
</g>
<!-- Pytest&#45;&gt;PolicyRules -->
<g id="edge14" class="edge">
<title>Pytest&#45;&gt;PolicyRules</title>
<path fill="none" stroke="black" d="M1981.58,-157C1871.95,-157 1471,-157 1471,-157 1471,-157 1471,-98.96 1471,-98.96"/>
<polygon fill="black" stroke="black" points="1473.45,-98.96 1471,-91.96 1468.55,-98.96 1473.45,-98.96"/>
</g>
<!-- PolicyDenied -->
<g id="node17" class="node">
<title>PolicyDenied</title>
<path fill="#e8f5e9" stroke="#2e7d32" d="M1610.5,-90C1610.5,-90 1537.5,-90 1537.5,-90 1531.5,-90 1525.5,-84 1525.5,-78 1525.5,-78 1525.5,-66 1525.5,-66 1525.5,-60 1531.5,-54 1537.5,-54 1537.5,-54 1610.5,-54 1610.5,-54 1616.5,-54 1622.5,-60 1622.5,-66 1622.5,-66 1622.5,-78 1622.5,-78 1622.5,-84 1616.5,-90 1610.5,-90"/>
<text xml:space="preserve" text-anchor="middle" x="1574" y="-74.5" font-family="Arial" font-size="10.00">POLICY_DENIED</text>
<text xml:space="preserve" text-anchor="middle" x="1574" y="-62.5" font-family="Arial" font-size="10.00">observable</text>
</g>
<!-- Pytest&#45;&gt;PolicyDenied -->
<g id="edge15" class="edge">
<title>Pytest&#45;&gt;PolicyDenied</title>
<path fill="none" stroke="black" d="M1981.46,-155C1885.84,-155 1574,-155 1574,-155 1574,-155 1574,-98.93 1574,-98.93"/>
<polygon fill="black" stroke="black" points="1576.45,-98.93 1574,-91.93 1571.55,-98.93 1576.45,-98.93"/>
</g>
<!-- PolicyProxy -->
<g id="node18" class="node">
<title>PolicyProxy</title>
<path fill="#e8f5e9" stroke="#2e7d32" d="M1719.88,-90C1719.88,-90 1652.12,-90 1652.12,-90 1646.12,-90 1640.12,-84 1640.12,-78 1640.12,-78 1640.12,-66 1640.12,-66 1640.12,-60 1646.12,-54 1652.12,-54 1652.12,-54 1719.88,-54 1719.88,-54 1725.88,-54 1731.88,-60 1731.88,-66 1731.88,-66 1731.88,-78 1731.88,-78 1731.88,-84 1725.88,-90 1719.88,-90"/>
<text xml:space="preserve" text-anchor="middle" x="1686" y="-74.5" font-family="Arial" font-size="10.00">ComponentProxy</text>
<text xml:space="preserve" text-anchor="middle" x="1686" y="-62.5" font-family="Arial" font-size="10.00">Decision denied</text>
</g>
<!-- Pytest&#45;&gt;PolicyProxy -->
<g id="edge16" class="edge">
<title>Pytest&#45;&gt;PolicyProxy</title>
<path fill="none" stroke="black" d="M1981.46,-153C1903.35,-153 1686,-153 1686,-153 1686,-153 1686,-98.89 1686,-98.89"/>
<polygon fill="black" stroke="black" points="1688.45,-98.89 1686,-91.89 1683.55,-98.89 1688.45,-98.89"/>
</g>
<!-- TelemetryRoundtrip -->
<g id="node19" class="node">
<title>TelemetryRoundtrip</title>
<path fill="#e8f5e9" stroke="#2e7d32" d="M1824.25,-90C1824.25,-90 1761.75,-90 1761.75,-90 1755.75,-90 1749.75,-84 1749.75,-78 1749.75,-78 1749.75,-66 1749.75,-66 1749.75,-60 1755.75,-54 1761.75,-54 1761.75,-54 1824.25,-54 1824.25,-54 1830.25,-54 1836.25,-60 1836.25,-66 1836.25,-66 1836.25,-78 1836.25,-78 1836.25,-84 1830.25,-90 1824.25,-90"/>
<text xml:space="preserve" text-anchor="middle" x="1793" y="-74.5" font-family="Arial" font-size="10.00">KernelTelemetry</text>
<text xml:space="preserve" text-anchor="middle" x="1793" y="-62.5" font-family="Arial" font-size="10.00">roundtrip</text>
</g>
<!-- Pytest&#45;&gt;TelemetryRoundtrip -->
<g id="edge17" class="edge">
<title>Pytest&#45;&gt;TelemetryRoundtrip</title>
<path fill="none" stroke="black" d="M1981.64,-151C1923.52,-151 1793,-151 1793,-151 1793,-151 1793,-98.84 1793,-98.84"/>
<polygon fill="black" stroke="black" points="1795.45,-98.84 1793,-91.84 1790.55,-98.84 1795.45,-98.84"/>
</g>
<!-- TelemetryDenied -->
<g id="node20" class="node">
<title>TelemetryDenied</title>
<path fill="#e8f5e9" stroke="#2e7d32" d="M1929.25,-90C1929.25,-90 1866.75,-90 1866.75,-90 1860.75,-90 1854.75,-84 1854.75,-78 1854.75,-78 1854.75,-66 1854.75,-66 1854.75,-60 1860.75,-54 1866.75,-54 1866.75,-54 1929.25,-54 1929.25,-54 1935.25,-54 1941.25,-60 1941.25,-66 1941.25,-66 1941.25,-78 1941.25,-78 1941.25,-84 1935.25,-90 1929.25,-90"/>
<text xml:space="preserve" text-anchor="middle" x="1898" y="-74.5" font-family="Arial" font-size="10.00">KernelTelemetry</text>
<text xml:space="preserve" text-anchor="middle" x="1898" y="-62.5" font-family="Arial" font-size="10.00">policy denied</text>
</g>
<!-- Pytest&#45;&gt;TelemetryDenied -->
<g id="edge18" class="edge">
<title>Pytest&#45;&gt;TelemetryDenied</title>
<path fill="none" stroke="black" d="M1981.57,-149C1960.22,-149 1934.19,-149 1934.19,-149 1934.19,-149 1934.19,-98.76 1934.19,-98.76"/>
<polygon fill="black" stroke="black" points="1936.64,-98.76 1934.19,-91.76 1931.74,-98.76 1936.64,-98.76"/>
</g>
<!-- TelemetrySnapshot -->
<g id="node21" class="node">
<title>TelemetrySnapshot</title>
<path fill="#e8f5e9" stroke="#2e7d32" d="M2047,-90C2047,-90 1971,-90 1971,-90 1965,-90 1959,-84 1959,-78 1959,-78 1959,-66 1959,-66 1959,-60 1965,-54 1971,-54 1971,-54 2047,-54 2047,-54 2053,-54 2059,-60 2059,-66 2059,-66 2059,-78 2059,-78 2059,-84 2053,-90 2047,-90"/>
<text xml:space="preserve" text-anchor="middle" x="2009" y="-74.5" font-family="Arial" font-size="10.00">TelemetrySnapshot</text>
<text xml:space="preserve" text-anchor="middle" x="2009" y="-62.5" font-family="Arial" font-size="10.00">immutable</text>
</g>
<!-- Pytest&#45;&gt;TelemetrySnapshot -->
<g id="edge19" class="edge">
<title>Pytest&#45;&gt;TelemetrySnapshot</title>
<path fill="none" stroke="black" d="M2009,-146.22C2009,-146.22 2009,-98.75 2009,-98.75"/>
<polygon fill="black" stroke="black" points="2011.45,-98.75 2009,-91.75 2006.55,-98.75 2011.45,-98.75"/>
</g>
<!-- EventRecorder -->
<g id="node22" class="node">
<title>EventRecorder</title>
<path fill="#e8f5e9" stroke="#2e7d32" d="M2150.5,-90C2150.5,-90 2089.5,-90 2089.5,-90 2083.5,-90 2077.5,-84 2077.5,-78 2077.5,-78 2077.5,-66 2077.5,-66 2077.5,-60 2083.5,-54 2089.5,-54 2089.5,-54 2150.5,-54 2150.5,-54 2156.5,-54 2162.5,-60 2162.5,-66 2162.5,-66 2162.5,-78 2162.5,-78 2162.5,-84 2156.5,-90 2150.5,-90"/>
<text xml:space="preserve" text-anchor="middle" x="2120" y="-74.5" font-family="Arial" font-size="10.00">EventRecorder</text>
<text xml:space="preserve" text-anchor="middle" x="2120" y="-62.5" font-family="Arial" font-size="10.00">passive capture</text>
</g>
<!-- Pytest&#45;&gt;EventRecorder -->
<g id="edge20" class="edge">
<title>Pytest&#45;&gt;EventRecorder</title>
<path fill="none" stroke="black" d="M2036.57,-149C2058.03,-149 2084.19,-149 2084.19,-149 2084.19,-149 2084.19,-98.76 2084.19,-98.76"/>
<polygon fill="black" stroke="black" points="2086.64,-98.76 2084.19,-91.76 2081.74,-98.76 2086.64,-98.76"/>
</g>
<!-- EventLogSnapshot -->
<g id="node23" class="node">
<title>EventLogSnapshot</title>
<path fill="#e8f5e9" stroke="#2e7d32" d="M2267.25,-90C2267.25,-90 2192.75,-90 2192.75,-90 2186.75,-90 2180.75,-84 2180.75,-78 2180.75,-78 2180.75,-66 2180.75,-66 2180.75,-60 2186.75,-54 2192.75,-54 2192.75,-54 2267.25,-54 2267.25,-54 2273.25,-54 2279.25,-60 2279.25,-66 2279.25,-66 2279.25,-78 2279.25,-78 2279.25,-84 2273.25,-90 2267.25,-90"/>
<text xml:space="preserve" text-anchor="middle" x="2230" y="-74.5" font-family="Arial" font-size="10.00">EventLogSnapshot</text>
<text xml:space="preserve" text-anchor="middle" x="2230" y="-62.5" font-family="Arial" font-size="10.00">immutable</text>
</g>
<!-- Pytest&#45;&gt;EventLogSnapshot -->
<g id="edge21" class="edge">
<title>Pytest&#45;&gt;EventLogSnapshot</title>
<path fill="none" stroke="black" d="M2036.61,-151C2092.5,-151 2213.75,-151 2213.75,-151 2213.75,-151 2213.75,-98.84 2213.75,-98.84"/>
<polygon fill="black" stroke="black" points="2216.2,-98.84 2213.75,-91.84 2211.3,-98.84 2216.2,-98.84"/>
</g>
<!-- ReplayReader -->
<g id="node24" class="node">
<title>ReplayReader</title>
<path fill="#e8f5e9" stroke="#2e7d32" d="M2363.12,-90C2363.12,-90 2308.88,-90 2308.88,-90 2302.88,-90 2296.88,-84 2296.88,-78 2296.88,-78 2296.88,-66 2296.88,-66 2296.88,-60 2302.88,-54 2308.88,-54 2308.88,-54 2363.12,-54 2363.12,-54 2369.12,-54 2375.12,-60 2375.12,-66 2375.12,-66 2375.12,-78 2375.12,-78 2375.12,-84 2369.12,-90 2363.12,-90"/>
<text xml:space="preserve" text-anchor="middle" x="2336" y="-74.5" font-family="Arial" font-size="10.00">ReplayReader</text>
<text xml:space="preserve" text-anchor="middle" x="2336" y="-62.5" font-family="Arial" font-size="10.00">filter/plan</text>
</g>
<!-- Pytest&#45;&gt;ReplayReader -->
<g id="edge22" class="edge">
<title>Pytest&#45;&gt;ReplayReader</title>
<path fill="none" stroke="black" d="M2036.6,-153C2115.43,-153 2336,-153 2336,-153 2336,-153 2336,-98.89 2336,-98.89"/>
<polygon fill="black" stroke="black" points="2338.45,-98.89 2336,-91.89 2333.55,-98.89 2338.45,-98.89"/>
</g>
<!-- ReplayPlan -->
<g id="node25" class="node">
<title>ReplayPlan</title>
<path fill="#e8f5e9" stroke="#2e7d32" d="M2447.12,-90C2447.12,-90 2404.88,-90 2404.88,-90 2398.88,-90 2392.88,-84 2392.88,-78 2392.88,-78 2392.88,-66 2392.88,-66 2392.88,-60 2398.88,-54 2404.88,-54 2404.88,-54 2447.12,-54 2447.12,-54 2453.12,-54 2459.12,-60 2459.12,-66 2459.12,-66 2459.12,-78 2459.12,-78 2459.12,-84 2453.12,-90 2447.12,-90"/>
<text xml:space="preserve" text-anchor="middle" x="2426" y="-74.5" font-family="Arial" font-size="10.00">ReplayPlan</text>
<text xml:space="preserve" text-anchor="middle" x="2426" y="-62.5" font-family="Arial" font-size="10.00">immutable</text>
</g>
<!-- Pytest&#45;&gt;ReplayPlan -->
<g id="edge23" class="edge">
<title>Pytest&#45;&gt;ReplayPlan</title>
<path fill="none" stroke="black" d="M2036.36,-155C2129.13,-155 2426,-155 2426,-155 2426,-155 2426,-98.93 2426,-98.93"/>
<polygon fill="black" stroke="black" points="2428.45,-98.93 2426,-91.93 2423.55,-98.93 2428.45,-98.93"/>
</g>
<!-- ReplaySandbox -->
<g id="node26" class="node">
<title>ReplaySandbox</title>
<path fill="#e8f5e9" stroke="#2e7d32" d="M2550.5,-90C2550.5,-90 2489.5,-90 2489.5,-90 2483.5,-90 2477.5,-84 2477.5,-78 2477.5,-78 2477.5,-66 2477.5,-66 2477.5,-60 2483.5,-54 2489.5,-54 2489.5,-54 2550.5,-54 2550.5,-54 2556.5,-54 2562.5,-60 2562.5,-66 2562.5,-66 2562.5,-78 2562.5,-78 2562.5,-84 2556.5,-90 2550.5,-90"/>
<text xml:space="preserve" text-anchor="middle" x="2520" y="-74.5" font-family="Arial" font-size="10.00">ReplaySandbox</text>
<text xml:space="preserve" text-anchor="middle" x="2520" y="-62.5" font-family="Arial" font-size="10.00">isolated replay</text>
</g>
<!-- Pytest&#45;&gt;ReplaySandbox -->
<g id="edge24" class="edge">
<title>Pytest&#45;&gt;ReplaySandbox</title>
<path fill="none" stroke="black" d="M2036.47,-157C2142.61,-157 2520,-157 2520,-157 2520,-157 2520,-98.96 2520,-98.96"/>
<polygon fill="black" stroke="black" points="2522.45,-98.96 2520,-91.96 2517.55,-98.96 2522.45,-98.96"/>
</g>
<!-- ReplaySandboxDenied -->
<g id="node27" class="node">
<title>ReplaySandboxDenied</title>
<path fill="#e8f5e9" stroke="#2e7d32" d="M2675,-90C2675,-90 2593,-90 2593,-90 2587,-90 2581,-84 2581,-78 2581,-78 2581,-66 2581,-66 2581,-60 2587,-54 2593,-54 2593,-54 2675,-54 2675,-54 2681,-54 2687,-60 2687,-66 2687,-66 2687,-78 2687,-78 2687,-84 2681,-90 2675,-90"/>
<text xml:space="preserve" text-anchor="middle" x="2634" y="-74.5" font-family="Arial" font-size="10.00">ReplaySandbox</text>
<text xml:space="preserve" text-anchor="middle" x="2634" y="-62.5" font-family="Arial" font-size="10.00">refuse SHUTDOWN</text>
</g>
<!-- Pytest&#45;&gt;ReplaySandboxDenied -->
<g id="edge25" class="edge">
<title>Pytest&#45;&gt;ReplaySandboxDenied</title>
<path fill="none" stroke="black" d="M2036.26,-159C2156.55,-159 2634,-159 2634,-159 2634,-159 2634,-98.96 2634,-98.96"/>
<polygon fill="black" stroke="black" points="2636.45,-98.96 2634,-91.96 2631.55,-98.96 2636.45,-98.96"/>
</g>
<!-- ReplaySandboxLimits -->
<g id="node28" class="node">
<title>ReplaySandboxLimits</title>
<path fill="#e8f5e9" stroke="#2e7d32" d="M2829,-90C2829,-90 2717,-90 2717,-90 2711,-90 2705,-84 2705,-78 2705,-78 2705,-66 2705,-66 2705,-60 2711,-54 2717,-54 2717,-54 2829,-54 2829,-54 2835,-54 2841,-60 2841,-66 2841,-66 2841,-78 2841,-78 2841,-84 2835,-90 2829,-90"/>
<text xml:space="preserve" text-anchor="middle" x="2773" y="-74.5" font-family="Arial" font-size="10.00">ReplaySandbox</text>
<text xml:space="preserve" text-anchor="middle" x="2773" y="-62.5" font-family="Arial" font-size="10.00">allowed types / max events</text>
</g>
<!-- Pytest&#45;&gt;ReplaySandboxLimits -->
<g id="edge26" class="edge">
<title>Pytest&#45;&gt;ReplaySandboxLimits</title>
<path fill="none" stroke="black" d="M2036.19,-161C2172.29,-161 2773,-161 2773,-161 2773,-161 2773,-98.95 2773,-98.95"/>
<polygon fill="black" stroke="black" points="2775.45,-98.95 2773,-91.95 2770.55,-98.95 2775.45,-98.95"/>
</g>
<!-- ReplayScenario -->
<g id="node29" class="node">
<title>ReplayScenario</title>
<path fill="#e8f5e9" stroke="#2e7d32" d="M2932.88,-90C2932.88,-90 2871.12,-90 2871.12,-90 2865.12,-90 2859.12,-84 2859.12,-78 2859.12,-78 2859.12,-66 2859.12,-66 2859.12,-60 2865.12,-54 2871.12,-54 2871.12,-54 2932.88,-54 2932.88,-54 2938.88,-54 2944.88,-60 2944.88,-66 2944.88,-66 2944.88,-78 2944.88,-78 2944.88,-84 2938.88,-90 2932.88,-90"/>
<text xml:space="preserve" text-anchor="middle" x="2902" y="-74.5" font-family="Arial" font-size="10.00">ReplayScenario</text>
<text xml:space="preserve" text-anchor="middle" x="2902" y="-62.5" font-family="Arial" font-size="10.00">controlled report</text>
</g>
<!-- Pytest&#45;&gt;ReplayScenario -->
<g id="edge27" class="edge">
<title>Pytest&#45;&gt;ReplayScenario</title>
<path fill="none" stroke="black" d="M2036.21,-163C2185.87,-163 2902,-163 2902,-163 2902,-163 2902,-98.93 2902,-98.93"/>
<polygon fill="black" stroke="black" points="2904.45,-98.93 2902,-91.93 2899.55,-98.93 2904.45,-98.93"/>
</g>
<!-- ReplayReport -->
<g id="node30" class="node">
<title>ReplayReport</title>
<path fill="#e8f5e9" stroke="#2e7d32" d="M3027,-90C3027,-90 2975,-90 2975,-90 2969,-90 2963,-84 2963,-78 2963,-78 2963,-66 2963,-66 2963,-60 2969,-54 2975,-54 2975,-54 3027,-54 3027,-54 3033,-54 3039,-60 3039,-66 3039,-66 3039,-78 3039,-78 3039,-84 3033,-90 3027,-90"/>
<text xml:space="preserve" text-anchor="middle" x="3001" y="-74.5" font-family="Arial" font-size="10.00">ReplayReport</text>
<text xml:space="preserve" text-anchor="middle" x="3001" y="-62.5" font-family="Arial" font-size="10.00">deterministic</text>
</g>
<!-- Pytest&#45;&gt;ReplayReport -->
<g id="edge28" class="edge">
<title>Pytest&#45;&gt;ReplayReport</title>
<path fill="none" stroke="black" d="M2036.57,-165C2196.78,-165 3001,-165 3001,-165 3001,-165 3001,-98.89 3001,-98.89"/>
<polygon fill="black" stroke="black" points="3003.45,-98.89 3001,-91.89 2998.55,-98.89 3003.45,-98.89"/>
</g>
<!-- ReplayScenarioValidation -->
<g id="node31" class="node">
<title>ReplayScenarioValidation</title>
<path fill="#e8f5e9" stroke="#2e7d32" d="M3130.5,-90C3130.5,-90 3069.5,-90 3069.5,-90 3063.5,-90 3057.5,-84 3057.5,-78 3057.5,-78 3057.5,-66 3057.5,-66 3057.5,-60 3063.5,-54 3069.5,-54 3069.5,-54 3130.5,-54 3130.5,-54 3136.5,-54 3142.5,-60 3142.5,-66 3142.5,-66 3142.5,-78 3142.5,-78 3142.5,-84 3136.5,-90 3130.5,-90"/>
<text xml:space="preserve" text-anchor="middle" x="3100" y="-74.5" font-family="Arial" font-size="10.00">ReplayScenario</text>
<text xml:space="preserve" text-anchor="middle" x="3100" y="-62.5" font-family="Arial" font-size="10.00">validation</text>
</g>
<!-- Pytest&#45;&gt;ReplayScenarioValidation -->
<g id="edge29" class="edge">
<title>Pytest&#45;&gt;ReplayScenarioValidation</title>
<path fill="none" stroke="black" d="M2036.51,-167C2205.9,-167 3100,-167 3100,-167 3100,-167 3100,-98.83 3100,-98.83"/>
<polygon fill="black" stroke="black" points="3102.45,-98.83 3100,-91.83 3097.55,-98.83 3102.45,-98.83"/>
</g>
<!-- ReplayReportExporter -->
<g id="node32" class="node">
<title>ReplayReportExporter</title>
<path fill="#e8f5e9" stroke="#2e7d32" d="M3261.38,-90C3261.38,-90 3172.62,-90 3172.62,-90 3166.62,-90 3160.62,-84 3160.62,-78 3160.62,-78 3160.62,-66 3160.62,-66 3160.62,-60 3166.62,-54 3172.62,-54 3172.62,-54 3261.38,-54 3261.38,-54 3267.38,-54 3273.38,-60 3273.38,-66 3273.38,-66 3273.38,-78 3273.38,-78 3273.38,-84 3267.38,-90 3261.38,-90"/>
<text xml:space="preserve" text-anchor="middle" x="3217" y="-74.5" font-family="Arial" font-size="10.00">ReplayReportExporter</text>
<text xml:space="preserve" text-anchor="middle" x="3217" y="-62.5" font-family="Arial" font-size="10.00">text/json</text>
</g>
<!-- Pytest&#45;&gt;ReplayReportExporter -->
<g id="edge30" class="edge">
<title>Pytest&#45;&gt;ReplayReportExporter</title>
<path fill="none" stroke="black" d="M2036.5,-169C2216.31,-169 3217,-169 3217,-169 3217,-169 3217,-98.76 3217,-98.76"/>
<polygon fill="black" stroke="black" points="3219.45,-98.76 3217,-91.76 3214.55,-98.76 3219.45,-98.76"/>
</g>
<!-- ReplayReportExport -->
<g id="node33" class="node">
<title>ReplayReportExport</title>
<path fill="#e8f5e9" stroke="#2e7d32" d="M3384.25,-90C3384.25,-90 3303.75,-90 3303.75,-90 3297.75,-90 3291.75,-84 3291.75,-78 3291.75,-78 3291.75,-66 3291.75,-66 3291.75,-60 3297.75,-54 3303.75,-54 3303.75,-54 3384.25,-54 3384.25,-54 3390.25,-54 3396.25,-60 3396.25,-66 3396.25,-66 3396.25,-78 3396.25,-78 3396.25,-84 3390.25,-90 3384.25,-90"/>
<text xml:space="preserve" text-anchor="middle" x="3344" y="-74.5" font-family="Arial" font-size="10.00">ReplayReportExport</text>
<text xml:space="preserve" text-anchor="middle" x="3344" y="-62.5" font-family="Arial" font-size="10.00">immutable</text>
</g>
<!-- Pytest&#45;&gt;ReplayReportExport -->
<g id="edge31" class="edge">
<title>Pytest&#45;&gt;ReplayReportExport</title>
<path fill="none" stroke="black" d="M2036.58,-171C2227.4,-171 3344,-171 3344,-171 3344,-171 3344,-98.67 3344,-98.67"/>
<polygon fill="black" stroke="black" points="3346.45,-98.67 3344,-91.67 3341.55,-98.67 3346.45,-98.67"/>
</g>
<!-- ReplayReportFileWriter -->
<g id="node34" class="node">
<title>ReplayReportFileWriter</title>
<path fill="#e8f5e9" stroke="#2e7d32" d="M3519.62,-90C3519.62,-90 3426.38,-90 3426.38,-90 3420.38,-90 3414.38,-84 3414.38,-78 3414.38,-78 3414.38,-66 3414.38,-66 3414.38,-60 3420.38,-54 3426.38,-54 3426.38,-54 3519.62,-54 3519.62,-54 3525.62,-54 3531.62,-60 3531.62,-66 3531.62,-66 3531.62,-78 3531.62,-78 3531.62,-84 3525.62,-90 3519.62,-90"/>
<text xml:space="preserve" text-anchor="middle" x="3473" y="-74.5" font-family="Arial" font-size="10.00">ReplayReportFileWriter</text>
<text xml:space="preserve" text-anchor="middle" x="3473" y="-62.5" font-family="Arial" font-size="10.00">controlled files</text>
</g>
<!-- Pytest&#45;&gt;ReplayReportFileWriter -->
<g id="edge32" class="edge">
<title>Pytest&#45;&gt;ReplayReportFileWriter</title>
<path fill="none" stroke="black" d="M2036.62,-173C2238.02,-173 3473,-173 3473,-173 3473,-173 3473,-98.57 3473,-98.57"/>
<polygon fill="black" stroke="black" points="3475.45,-98.57 3473,-91.57 3470.55,-98.57 3475.45,-98.57"/>
</g>
<!-- ReplayReportWriteResult -->
<g id="node35" class="node">
<title>ReplayReportWriteResult</title>
<path fill="#e8f5e9" stroke="#2e7d32" d="M3664.5,-90C3664.5,-90 3561.5,-90 3561.5,-90 3555.5,-90 3549.5,-84 3549.5,-78 3549.5,-78 3549.5,-66 3549.5,-66 3549.5,-60 3555.5,-54 3561.5,-54 3561.5,-54 3664.5,-54 3664.5,-54 3670.5,-54 3676.5,-60 3676.5,-66 3676.5,-66 3676.5,-78 3676.5,-78 3676.5,-84 3670.5,-90 3664.5,-90"/>
<text xml:space="preserve" text-anchor="middle" x="3613" y="-74.5" font-family="Arial" font-size="10.00">ReplayReportWriteResult</text>
<text xml:space="preserve" text-anchor="middle" x="3613" y="-62.5" font-family="Arial" font-size="10.00">sha256</text>
</g>
<!-- Pytest&#45;&gt;ReplayReportWriteResult -->
<g id="edge33" class="edge">
<title>Pytest&#45;&gt;ReplayReportWriteResult</title>
<path fill="none" stroke="black" d="M2036.5,-175C2248.39,-175 3613,-175 3613,-175 3613,-175 3613,-98.93 3613,-98.93"/>
<polygon fill="black" stroke="black" points="3615.45,-98.93 3613,-91.93 3610.55,-98.93 3615.45,-98.93"/>
</g>
<!-- ReplayReportBundleWriter -->
<g id="node36" class="node">
<title>ReplayReportBundleWriter</title>
<path fill="#e8f5e9" stroke="#2e7d32" d="M3813.75,-90C3813.75,-90 3706.25,-90 3706.25,-90 3700.25,-90 3694.25,-84 3694.25,-78 3694.25,-78 3694.25,-66 3694.25,-66 3694.25,-60 3700.25,-54 3706.25,-54 3706.25,-54 3813.75,-54 3813.75,-54 3819.75,-54 3825.75,-60 3825.75,-66 3825.75,-66 3825.75,-78 3825.75,-78 3825.75,-84 3819.75,-90 3813.75,-90"/>
<text xml:space="preserve" text-anchor="middle" x="3760" y="-74.5" font-family="Arial" font-size="10.00">ReplayReportBundleWriter</text>
<text xml:space="preserve" text-anchor="middle" x="3760" y="-62.5" font-family="Arial" font-size="10.00">controlled bundle</text>
</g>
<!-- Pytest&#45;&gt;ReplayReportBundleWriter -->
<g id="edge34" class="edge">
<title>Pytest&#45;&gt;ReplayReportBundleWriter</title>
<path fill="none" stroke="black" d="M2036.5,-177C2259.27,-177 3760,-177 3760,-177 3760,-177 3760,-98.8 3760,-98.8"/>
<polygon fill="black" stroke="black" points="3762.45,-98.8 3760,-91.8 3757.55,-98.8 3762.45,-98.8"/>
</g>
<!-- ReplayBundleWriteResult -->
<g id="node37" class="node">
<title>ReplayBundleWriteResult</title>
<path fill="#e8f5e9" stroke="#2e7d32" d="M3959.88,-90C3959.88,-90 3856.12,-90 3856.12,-90 3850.12,-90 3844.12,-84 3844.12,-78 3844.12,-78 3844.12,-66 3844.12,-66 3844.12,-60 3850.12,-54 3856.12,-54 3856.12,-54 3959.88,-54 3959.88,-54 3965.88,-54 3971.88,-60 3971.88,-66 3971.88,-66 3971.88,-78 3971.88,-78 3971.88,-84 3965.88,-90 3959.88,-90"/>
<text xml:space="preserve" text-anchor="middle" x="3908" y="-74.5" font-family="Arial" font-size="10.00">ReplayBundleWriteResult</text>
<text xml:space="preserve" text-anchor="middle" x="3908" y="-62.5" font-family="Arial" font-size="10.00">manifest + sha256</text>
</g>
<!-- Pytest&#45;&gt;ReplayBundleWriteResult -->
<g id="edge35" class="edge">
<title>Pytest&#45;&gt;ReplayBundleWriteResult</title>
<path fill="none" stroke="black" d="M2036.58,-179C2270.1,-179 3908,-179 3908,-179 3908,-179 3908,-98.66 3908,-98.66"/>
<polygon fill="black" stroke="black" points="3910.45,-98.66 3908,-91.66 3905.55,-98.66 3910.45,-98.66"/>
</g>
<!-- Dot -->
<g id="node3" class="node">
<title>Dot</title>
<path fill="#e3f2fd" stroke="#1565c0" d="M2234.75,-265C2234.75,-265 2121.25,-265 2121.25,-265 2115.25,-265 2109.25,-259 2109.25,-253 2109.25,-253 2109.25,-241 2109.25,-241 2109.25,-235 2115.25,-229 2121.25,-229 2121.25,-229 2234.75,-229 2234.75,-229 2240.75,-229 2246.75,-235 2246.75,-241 2246.75,-241 2246.75,-253 2246.75,-253 2246.75,-259 2240.75,-265 2234.75,-265"/>
<text xml:space="preserve" text-anchor="middle" x="2178" y="-243.5" font-family="Arial" font-size="10.00">cd doc &amp;&amp; make &#45;f makefile</text>
</g>
<!-- Dot&#45;&gt;Pytest -->
<g id="edge37" class="edge">
<title>Dot&#45;&gt;Pytest</title>
<path fill="none" stroke="black" stroke-dasharray="1,5" d="M2135.88,-228.62C2135.88,-209.09 2135.88,-181 2135.88,-181 2135.88,-181 2045.04,-181 2045.04,-181"/>
<polygon fill="black" stroke="black" points="2045.04,-178.55 2038.04,-181 2045.04,-183.45 2045.04,-178.55"/>
<text xml:space="preserve" text-anchor="middle" x="2132.25" y="-202.45" font-family="Arial" font-size="9.00">docs aligned</text>
</g>
<!-- DotLinks -->
<g id="node38" class="node">
<title>DotLinks</title>
<path fill="#e8f5e9" stroke="#2e7d32" d="M4084,-90C4084,-90 4002,-90 4002,-90 3996,-90 3990,-84 3990,-78 3990,-78 3990,-66 3990,-66 3990,-60 3996,-54 4002,-54 4002,-54 4084,-54 4084,-54 4090,-54 4096,-60 4096,-66 4096,-66 4096,-78 4096,-78 4096,-84 4090,-90 4084,-90"/>
<text xml:space="preserve" text-anchor="middle" x="4043" y="-74.5" font-family="Arial" font-size="10.00">DOT links</text>
<text xml:space="preserve" text-anchor="middle" x="4043" y="-62.5" font-family="Arial" font-size="10.00">all URL targets exist</text>
</g>
<!-- Dot&#45;&gt;DotLinks -->
<g id="edge36" class="edge">
<title>Dot&#45;&gt;DotLinks</title>
<path fill="none" stroke="black" d="M2247.15,-247C2584.67,-247 4043,-247 4043,-247 4043,-247 4043,-98.91 4043,-98.91"/>
<polygon fill="black" stroke="black" points="4045.45,-98.91 4043,-91.91 4040.55,-98.91 4045.45,-98.91"/>
</g>
<!-- Nav_Global -->
<g id="node39" class="node">
<title>Nav_Global</title>
<g id="a_node39"><a xlink:href="../00_global.svg" xlink:title="Global">
<path fill="lightgrey" stroke="none" d="M75,-36C75,-36 45,-36 45,-36 39,-36 33,-30 33,-24 33,-24 33,-12 33,-12 33,-6 39,0 45,0 45,0 75,0 75,0 81,0 87,-6 87,-12 87,-12 87,-24 87,-24 87,-30 81,-36 75,-36"/>
<text xml:space="preserve" text-anchor="middle" x="60" y="-14.5" font-family="Arial" font-size="10.00">Global</text>
</a>
</g>
</g>
<!-- Nav_Scheduler -->
<g id="node40" class="node">
<title>Nav_Scheduler</title>
<g id="a_node40"><a xlink:href="../scheduler/10_scheduler.svg" xlink:title="Scheduler">
<path fill="lightgrey" stroke="none" d="M139.75,-36C139.75,-36 104.25,-36 104.25,-36 98.25,-36 92.25,-30 92.25,-24 92.25,-24 92.25,-12 92.25,-12 92.25,-6 98.25,0 104.25,0 104.25,0 139.75,0 139.75,0 145.75,0 151.75,-6 151.75,-12 151.75,-12 151.75,-24 151.75,-24 151.75,-30 145.75,-36 139.75,-36"/>
<text xml:space="preserve" text-anchor="middle" x="122" y="-14.5" font-family="Arial" font-size="10.00">Scheduler</text>
</a>
</g>
</g>
<!-- Nav_Inference -->
<g id="node41" class="node">
<title>Nav_Inference</title>
<g id="a_node41"><a xlink:href="../inference/40_inference.svg" xlink:title="Inference">
<path fill="lightgrey" stroke="none" d="M201.25,-36C201.25,-36 168.75,-36 168.75,-36 162.75,-36 156.75,-30 156.75,-24 156.75,-24 156.75,-12 156.75,-12 156.75,-6 162.75,0 168.75,0 168.75,0 201.25,0 201.25,0 207.25,0 213.25,-6 213.25,-12 213.25,-12 213.25,-24 213.25,-24 213.25,-30 207.25,-36 201.25,-36"/>
<text xml:space="preserve" text-anchor="middle" x="185" y="-14.5" font-family="Arial" font-size="10.00">Inference</text>
</a>
</g>
</g>
<!-- Nav_Policy -->
<g id="node42" class="node">
<title>Nav_Policy</title>
<g id="a_node42"><a xlink:href="../00_global.svg" xlink:title="Policy">
<path fill="lightgrey" stroke="none" d="M260,-36C260,-36 230,-36 230,-36 224,-36 218,-30 218,-24 218,-24 218,-12 218,-12 218,-6 224,0 230,0 230,0 260,0 260,0 266,0 272,-6 272,-12 272,-12 272,-24 272,-24 272,-30 266,-36 260,-36"/>
<text xml:space="preserve" text-anchor="middle" x="245" y="-14.5" font-family="Arial" font-size="10.00">Policy</text>
</a>
</g>
</g>
<!-- Nav_Observability -->
<g id="node43" class="node">
<title>Nav_Observability</title>
<g id="a_node43"><a xlink:href="../observability/70_observability.svg" xlink:title="Observability">
<path fill="lightgrey" stroke="none" d="M338.5,-36C338.5,-36 289.5,-36 289.5,-36 283.5,-36 277.5,-30 277.5,-24 277.5,-24 277.5,-12 277.5,-12 277.5,-6 283.5,0 289.5,0 289.5,0 338.5,0 338.5,0 344.5,0 350.5,-6 350.5,-12 350.5,-12 350.5,-24 350.5,-24 350.5,-30 344.5,-36 338.5,-36"/>
<text xml:space="preserve" text-anchor="middle" x="314" y="-14.5" font-family="Arial" font-size="10.00">Observability</text>
</a>
</g>
</g>
</g>
</svg>
