<?xml version="1.0" encoding="UTF-8" standalone="no"?>
<!DOCTYPE svg PUBLIC "-//W3C//DTD SVG 1.1//EN"
 "http://www.w3.org/Graphics/SVG/1.1/DTD/svg11.dtd">
<!-- Generated by graphviz version 14.1.3 (20260303.0454)
 -->
<!-- Title: Tests Pages: 1 -->
<svg width="5797pt" height="311pt"
 viewBox="0.00 0.00 5797.00 311.00" xmlns="http://www.w3.org/2000/svg" xmlns:xlink="http://www.w3.org/1999/xlink">
<g id="graph0" class="graph" transform="scale(1 1) rotate(0) translate(4 306.5)">
<title>Tests</title>
<polygon fill="white" stroke="none" points="-4,4 -4,-306.5 5793,-306.5 5793,4 -4,4"/>
<g id="clust1" class="cluster">
<title>cluster_commands</title>
<polygon fill="#e3f2fd" stroke="#1565c0" points="2967,-138.5 2967,-294.5 3303,-294.5 3303,-138.5 2967,-138.5"/>
<text xml:space="preserve" text-anchor="middle" x="3135" y="-280.05" font-family="Arial" font-size="11.00">Commandes</text>
</g>
<g id="clust2" class="cluster">
<title>cluster_coverage</title>
<polygon fill="#e8f5e9" stroke="#2e7d32" points="8,-46 8,-119.5 5781,-119.5 5781,-46 8,-46"/>
<text xml:space="preserve" text-anchor="middle" x="2894.5" y="-105.05" font-family="Arial" font-size="11.00">Couverture Phase 3.0</text>
</g>
<!-- Compile -->
<g id="node1" class="node">
<title>Compile</title>
<path fill="#e3f2fd" stroke="#1565c0" d="M3126.88,-265C3126.88,-265 2987.12,-265 2987.12,-265 2981.12,-265 2975.12,-259 2975.12,-253 2975.12,-253 2975.12,-241 2975.12,-241 2975.12,-235 2981.12,-229 2987.12,-229 2987.12,-229 3126.88,-229 3126.88,-229 3132.88,-229 3138.88,-235 3138.88,-241 3138.88,-241 3138.88,-253 3138.88,-253 3138.88,-259 3132.88,-265 3126.88,-265"/>
<text xml:space="preserve" text-anchor="middle" x="3057" y="-243.5" font-family="Arial" font-size="10.00">python3 &#45;m compileall &#45;q src tests</text>
</g>
<!-- Pytest -->
<g id="node2" class="node">
<title>Pytest</title>
<path fill="#e3f2fd" stroke="#1565c0" d="M3072.12,-182.5C3072.12,-182.5 3041.88,-182.5 3041.88,-182.5 3035.88,-182.5 3029.88,-176.5 3029.88,-170.5 3029.88,-170.5 3029.88,-158.5 3029.88,-158.5 3029.88,-152.5 3035.88,-146.5 3041.88,-146.5 3041.88,-146.5 3072.12,-146.5 3072.12,-146.5 3078.12,-146.5 3084.12,-152.5 3084.12,-158.5 3084.12,-158.5 3084.12,-170.5 3084.12,-170.5 3084.12,-176.5 3078.12,-182.5 3072.12,-182.5"/>
<text xml:space="preserve" text-anchor="middle" x="3057" y="-161" font-family="Arial" font-size="10.00">pytest &#45;q</text>
</g>
<!-- Compile&#45;&gt;Pytest -->
<g id="edge1" class="edge">
<title>Compile&#45;&gt;Pytest</title>
<path fill="none" stroke="black" d="M3057,-228.69C3057,-228.69 3057,-191.27 3057,-191.27"/>
<polygon fill="black" stroke="black" points="3059.45,-191.27 3057,-184.27 3054.55,-191.27 3059.45,-191.27"/>
</g>
<!-- EventIds -->
<g id="node4" class="node">
<title>EventIds</title>
<path fill="#e8f5e9" stroke="#2e7d32" d="M92.38,-90C92.38,-90 27.62,-90 27.62,-90 21.63,-90 15.62,-84 15.62,-78 15.62,-78 15.62,-66 15.62,-66 15.62,-60 21.62,-54 27.62,-54 27.62,-54 92.38,-54 92.38,-54 98.38,-54 104.38,-60 104.38,-66 104.38,-66 104.38,-78 104.38,-78 104.38,-84 98.38,-90 92.38,-90"/>
<text xml:space="preserve" text-anchor="middle" x="60" y="-68.5" font-family="Arial" font-size="10.00">Event ids unique</text>
</g>
<!-- Pytest&#45;&gt;EventIds -->
<g id="edge2" class="edge">
<title>Pytest&#45;&gt;EventIds</title>
<path fill="none" stroke="black" d="M3034.4,-146.45C3034.4,-143.29 3034.4,-141 3034.4,-141 3034.4,-141 60,-141 60,-141 60,-141 60,-99 60,-99"/>
<polygon fill="black" stroke="black" points="62.45,-99 60,-92 57.55,-99 62.45,-99"/>
</g>
<!-- Dispatcher -->
<g id="node5" class="node">
<title>Dispatcher</title>
<path fill="#e8f5e9" stroke="#2e7d32" d="M237.5,-90C237.5,-90 134.5,-90 134.5,-90 128.5,-90 122.5,-84 122.5,-78 122.5,-78 122.5,-66 122.5,-66 122.5,-60 128.5,-54 134.5,-54 134.5,-54 237.5,-54 237.5,-54 243.5,-54 249.5,-60 249.5,-66 249.5,-66 249.5,-78 249.5,-78 249.5,-84 243.5,-90 237.5,-90"/>
<text xml:space="preserve" text-anchor="middle" x="186" y="-74.5" font-family="Arial" font-size="10.00">Dispatcher</text>
<text xml:space="preserve" text-anchor="middle" x="186" y="-62.5" font-family="Arial" font-size="10.00">unhandled event no block</text>
</g>
<!-- Pytest&#45;&gt;Dispatcher -->
<g id="edge3" class="edge">
<title>Pytest&#45;&gt;Dispatcher</title>
<path fill="none" stroke="black" d="M3038.92,-146.29C3038.92,-140.7 3038.92,-136 3038.92,-136 3038.92,-136 186,-136 186,-136 186,-136 186,-98.68 186,-98.68"/>
<polygon fill="black" stroke="black" points="188.45,-98.68 186,-91.68 183.55,-98.68 188.45,-98.68"/>
</g>
<!-- Queue -->
<g id="node6" class="node">
<title>Queue</title>
<path fill="#e8f5e9" stroke="#2e7d32" d="M352.88,-90C352.88,-90 279.12,-90 279.12,-90 273.12,-90 267.12,-84 267.12,-78 267.12,-78 267.12,-66 267.12,-66 267.12,-60 273.12,-54 279.12,-54 279.12,-54 352.88,-54 352.88,-54 358.88,-54 364.88,-60 364.88,-66 364.88,-66 364.88,-78 364.88,-78 364.88,-84 358.88,-90 352.88,-90"/>
<text xml:space="preserve" text-anchor="middle" x="316" y="-74.5" font-family="Arial" font-size="10.00">PriorityQueue</text>
<text xml:space="preserve" text-anchor="middle" x="316" y="-62.5" font-family="Arial" font-size="10.00">FIFO same priority</text>
</g>
<!-- Pytest&#45;&gt;Queue -->
<g id="edge4" class="edge">
<title>Pytest&#45;&gt;Queue</title>
<path fill="none" stroke="black" d="M3043.44,-146.18C3043.44,-138.36 3043.44,-131 3043.44,-131 3043.44,-131 316,-131 316,-131 316,-131 316,-98.86 316,-98.86"/>
<polygon fill="black" stroke="black" points="318.45,-98.86 316,-91.86 313.55,-98.86 318.45,-98.86"/>
</g>
<!-- Proxy -->
<g id="node7" class="node">
<title>Proxy</title>
<path fill="#e8f5e9" stroke="#2e7d32" d="M462.88,-90C462.88,-90 395.12,-90 395.12,-90 389.12,-90 383.12,-84 383.12,-78 383.12,-78 383.12,-66 383.12,-66 383.12,-60 389.12,-54 395.12,-54 395.12,-54 462.88,-54 462.88,-54 468.88,-54 474.88,-60 474.88,-66 474.88,-66 474.88,-78 474.88,-78 474.88,-84 468.88,-90 462.88,-90"/>
<text xml:space="preserve" text-anchor="middle" x="429" y="-74.5" font-family="Arial" font-size="10.00">ComponentProxy</text>
<text xml:space="preserve" text-anchor="middle" x="429" y="-62.5" font-family="Arial" font-size="10.00">roundtrip</text>
</g>
<!-- Pytest&#45;&gt;Proxy -->
<g id="edge5" class="edge">
<title>Pytest&#45;&gt;Proxy</title>
<path fill="none" stroke="black" d="M3047.96,-146.15C3047.96,-136.24 3047.96,-126 3047.96,-126 3047.96,-126 429,-126 429,-126 429,-126 429,-98.8 429,-98.8"/>
<polygon fill="black" stroke="black" points="431.45,-98.8 429,-91.8 426.55,-98.8 431.45,-98.8"/>
</g>
<!-- Unknown -->
<g id="node8" class="node">
<title>Unknown</title>
<path fill="#e8f5e9" stroke="#2e7d32" d="M565.12,-90C565.12,-90 504.88,-90 504.88,-90 498.88,-90 492.88,-84 492.88,-78 492.88,-78 492.88,-66 492.88,-66 492.88,-60 498.88,-54 504.88,-54 504.88,-54 565.12,-54 565.12,-54 571.12,-54 577.12,-60 577.12,-66 577.12,-66 577.12,-78 577.12,-78 577.12,-84 571.12,-90 565.12,-90"/>
<text xml:space="preserve" text-anchor="middle" x="535" y="-74.5" font-family="Arial" font-size="10.00">Unknown event</text>
<text xml:space="preserve" text-anchor="middle" x="535" y="-62.5" font-family="Arial" font-size="10.00">explicit result</text>
</g>
<!-- Pytest&#45;&gt;Unknown -->
<g id="edge6" class="edge">
<title>Pytest&#45;&gt;Unknown</title>
<path fill="none" stroke="black" d="M3052.48,-146.16C3052.48,-132.43 3052.48,-116 3052.48,-116 3052.48,-116 535,-116 535,-116 535,-116 535,-98.92 535,-98.92"/>
<polygon fill="black" stroke="black" points="537.45,-98.92 535,-91.92 532.55,-98.92 537.45,-98.92"/>
</g>
<!-- Failure -->
<g id="node9" class="node">
<title>Failure</title>
<path fill="#e8f5e9" stroke="#2e7d32" d="M684.75,-90C684.75,-90 607.25,-90 607.25,-90 601.25,-90 595.25,-84 595.25,-78 595.25,-78 595.25,-66 595.25,-66 595.25,-60 601.25,-54 607.25,-54 607.25,-54 684.75,-54 684.75,-54 690.75,-54 696.75,-60 696.75,-66 696.75,-66 696.75,-78 696.75,-78 696.75,-84 690.75,-90 684.75,-90"/>
<text xml:space="preserve" text-anchor="middle" x="646" y="-74.5" font-family="Arial" font-size="10.00">Failing component</text>
<text xml:space="preserve" text-anchor="middle" x="646" y="-62.5" font-family="Arial" font-size="10.00">ERROR + no block</text>
</g>
<!-- Pytest&#45;&gt;Failure -->
<g id="edge7" class="edge">
<title>Pytest&#45;&gt;Failure</title>
<path fill="none" stroke="black" d="M3029.51,-181C2762.84,-181 646,-181 646,-181 646,-181 646,-99 646,-99"/>
<polygon fill="black" stroke="black" points="648.45,-99 646,-92 643.55,-99 648.45,-99"/>
</g>
<!-- Context -->
<g id="node10" class="node">
<title>Context</title>
<path fill="#e8f5e9" stroke="#2e7d32" d="M787.12,-90C787.12,-90 726.88,-90 726.88,-90 720.88,-90 714.88,-84 714.88,-78 714.88,-78 714.88,-66 714.88,-66 714.88,-60 720.88,-54 726.88,-54 726.88,-54 787.12,-54 787.12,-54 793.12,-54 799.12,-60 799.12,-66 799.12,-66 799.12,-78 799.12,-78 799.12,-84 793.12,-90 787.12,-90"/>
<text xml:space="preserve" text-anchor="middle" x="757" y="-74.5" font-family="Arial" font-size="10.00">ContextEngine</text>
<text xml:space="preserve" text-anchor="middle" x="757" y="-62.5" font-family="Arial" font-size="10.00">event collection</text>
</g>
<!-- Pytest&#45;&gt;Context -->
<g id="edge8" class="edge">
<title>Pytest&#45;&gt;Context</title>
<path fill="none" stroke="black" d="M3029.57,-179C2770.07,-179 757,-179 757,-179 757,-179 757,-98.66 757,-98.66"/>
<polygon fill="black" stroke="black" points="759.45,-98.66 757,-91.66 754.55,-98.66 759.45,-98.66"/>
</g>
<!-- Inference -->
<g id="node11" class="node">
<title>Inference</title>
<path fill="#e8f5e9" stroke="#2e7d32" d="M934.62,-90C934.62,-90 829.38,-90 829.38,-90 823.38,-90 817.38,-84 817.38,-78 817.38,-78 817.38,-66 817.38,-66 817.38,-60 823.38,-54 829.38,-54 829.38,-54 934.62,-54 934.62,-54 940.62,-54 946.62,-60 946.62,-66 946.62,-66 946.62,-78 946.62,-78 946.62,-84 940.62,-90 934.62,-90"/>
<text xml:space="preserve" text-anchor="middle" x="882" y="-74.5" font-family="Arial" font-size="10.00">DummyInferenceBackend</text>
<text xml:space="preserve" text-anchor="middle" x="882" y="-62.5" font-family="Arial" font-size="10.00">request/result</text>
</g>
<!-- Pytest&#45;&gt;Inference -->
<g id="edge9" class="edge">
<title>Pytest&#45;&gt;Inference</title>
<path fill="none" stroke="black" d="M3029.5,-177C2777.72,-177 882,-177 882,-177 882,-177 882,-98.8 882,-98.8"/>
<polygon fill="black" stroke="black" points="884.45,-98.8 882,-91.8 879.55,-98.8 884.45,-98.8"/>
</g>
<!-- InferenceAdapter -->
<g id="node12" class="node">
<title>InferenceAdapter</title>
<path fill="#e8f5e9" stroke="#2e7d32" d="M1043.12,-90C1043.12,-90 976.88,-90 976.88,-90 970.88,-90 964.88,-84 964.88,-78 964.88,-78 964.88,-66 964.88,-66 964.88,-60 970.88,-54 976.88,-54 976.88,-54 1043.12,-54 1043.12,-54 1049.12,-54 1055.12,-60 1055.12,-66 1055.12,-66 1055.12,-78 1055.12,-78 1055.12,-84 1049.12,-90 1043.12,-90"/>
<text xml:space="preserve" text-anchor="middle" x="1010" y="-74.5" font-family="Arial" font-size="10.00">InferenceAdapter</text>
<text xml:space="preserve" text-anchor="middle" x="1010" y="-62.5" font-family="Arial" font-size="10.00">uses registry</text>
</g>
<!-- Pytest&#45;&gt;InferenceAdapter -->
<g id="edge10" class="edge">
<title>Pytest&#45;&gt;InferenceAdapter</title>
<path fill="none" stroke="black" d="M3029.61,-175C2786.7,-175 1010,-175 1010,-175 1010,-175 1010,-98.93 1010,-98.93"/>
<polygon fill="black" stroke="black" points="1012.45,-98.93 1010,-91.93 1007.55,-98.93 1012.45,-98.93"/>
</g>
<!-- BackendRegistry -->
<g id="node13" class="node">
<title>BackendRegistry</title>
<path fill="#e8f5e9" stroke="#2e7d32" d="M1152.5,-90C1152.5,-90 1085.5,-90 1085.5,-90 1079.5,-90 1073.5,-84 1073.5,-78 1073.5,-78 1073.5,-66 1073.5,-66 1073.5,-60 1079.5,-54 1085.5,-54 1085.5,-54 1152.5,-54 1152.5,-54 1158.5,-54 1164.5,-60 1164.5,-66 1164.5,-66 1164.5,-78 1164.5,-78 1164.5,-84 1158.5,-90 1152.5,-90"/>
<text xml:space="preserve" text-anchor="middle" x="1119" y="-74.5" font-family="Arial" font-size="10.00">BackendRegistry</text>
<text xml:space="preserve" text-anchor="middle" x="1119" y="-62.5" font-family="Arial" font-size="10.00">explicit selection</text>
</g>
<!-- Pytest&#45;&gt;BackendRegistry -->
<g id="edge11" class="edge">
<title>Pytest&#45;&gt;BackendRegistry</title>
<path fill="none" stroke="black" d="M3029.6,-173C2794.05,-173 1119,-173 1119,-173 1119,-173 1119,-98.57 1119,-98.57"/>
<polygon fill="black" stroke="black" points="1121.45,-98.57 1119,-91.57 1116.55,-98.57 1121.45,-98.57"/>
</g>
<!-- OpenVINOContract -->
<g id="node14" class="node">
<title>OpenVINOContract</title>
<g id="a_node14"><a xlink:href="../inference/41_openvino_backend.svg" xlink:title="OpenVINOBackend\ncontract + injected runtime">
<path fill="#e8f5e9" stroke="#2e7d32" d="M1303.12,-90C1303.12,-90 1194.88,-90 1194.88,-90 1188.88,-90 1182.88,-84 1182.88,-78 1182.88,-78 1182.88,-66 1182.88,-66 1182.88,-60 1188.88,-54 1194.88,-54 1194.88,-54 1303.12,-54 1303.12,-54 1309.12,-54 1315.12,-60 1315.12,-66 1315.12,-66 1315.12,-78 1315.12,-78 1315.12,-84 1309.12,-90 1303.12,-90"/>
<text xml:space="preserve" text-anchor="middle" x="1249" y="-74.5" font-family="Arial" font-size="10.00">OpenVINOBackend</text>
<text xml:space="preserve" text-anchor="middle" x="1249" y="-62.5" font-family="Arial" font-size="10.00">contract + injected runtime</text>
</a>
</g>
</g>
<!-- Pytest&#45;&gt;OpenVINOContract -->
<g id="edge12" class="edge">
<title>Pytest&#45;&gt;OpenVINOContract</title>
<path fill="none" stroke="black" d="M3029.68,-171C2803.49,-171 1249,-171 1249,-171 1249,-171 1249,-98.67 1249,-98.67"/>
<polygon fill="black" stroke="black" points="1251.45,-98.67 1249,-91.67 1246.55,-98.67 1251.45,-98.67"/>
</g>
<!-- OpenVINORuntime -->
<g id="node15" class="node">
<title>OpenVINORuntime</title>
<g id="a_node15"><a xlink:href="../inference/42_openvino_runtime.svg" xlink:title="RealOpenVINORuntime\noptional openvino import">
<path fill="#e8f5e9" stroke="#2e7d32" d="M1442.88,-90C1442.88,-90 1345.12,-90 1345.12,-90 1339.12,-90 1333.12,-84 1333.12,-78 1333.12,-78 1333.12,-66 1333.12,-66 1333.12,-60 1339.12,-54 1345.12,-54 1345.12,-54 1442.88,-54 1442.88,-54 1448.88,-54 1454.88,-60 1454.88,-66 1454.88,-66 1454.88,-78 1454.88,-78 1454.88,-84 1448.88,-90 1442.88,-90"/>
<text xml:space="preserve" text-anchor="middle" x="1394" y="-74.5" font-family="Arial" font-size="10.00">RealOpenVINORuntime</text>
<text xml:space="preserve" text-anchor="middle" x="1394" y="-62.5" font-family="Arial" font-size="10.00">optional openvino import</text>
</a>
</g>
</g>
<!-- Pytest&#45;&gt;OpenVINORuntime -->
<g id="edge13" class="edge">
<title>Pytest&#45;&gt;OpenVINORuntime</title>
<path fill="none" stroke="black" d="M3029.52,-169C2813.3,-169 1394,-169 1394,-169 1394,-169 1394,-98.76 1394,-98.76"/>
<polygon fill="black" stroke="black" points="1396.45,-98.76 1394,-91.76 1391.55,-98.76 1396.45,-98.76"/>
</g>
<!-- OpenVINOProfile -->
<g id="node16" class="node">
<title>OpenVINOProfile</title>
<g id="a_node16"><a xlink:href="../inference/43_openvino_profiles.svg" xlink:title="OpenVINOModelProfile\ndeclarative">
<path fill="#e8f5e9" stroke="#2e7d32" d="M1579,-90C1579,-90 1485,-90 1485,-90 1479,-90 1473,-84 1473,-78 1473,-78 1473,-66 1473,-66 1473,-60 1479,-54 1485,-54 1485,-54 1579,-54 1579,-54 1585,-54 1591,-60 1591,-66 1591,-66 1591,-78 1591,-78 1591,-84 1585,-90 1579,-90"/>
<text xml:space="preserve" text-anchor="middle" x="1532" y="-74.5" font-family="Arial" font-size="10.00">OpenVINOModelProfile</text>
<text xml:space="preserve" text-anchor="middle" x="1532" y="-62.5" font-family="Arial" font-size="10.00">declarative</text>
</a>
</g>
</g>
<!-- Pytest&#45;&gt;OpenVINOProfile -->
<g id="edge14" class="edge">
<title>Pytest&#45;&gt;OpenVINOProfile</title>
<path fill="none" stroke="black" d="M3029.56,-167C2823.91,-167 1532,-167 1532,-167 1532,-167 1532,-98.83 1532,-98.83"/>
<polygon fill="black" stroke="black" points="1534.45,-98.83 1532,-91.83 1529.55,-98.83 1534.45,-98.83"/>
</g>
<!-- OpenVINOProfileRegistry -->
<g id="node17" class="node">
<title>OpenVINOProfileRegistry</title>
<g id="a_node17"><a xlink:href="../inference/43_openvino_profiles.svg" xlink:title="OpenVINOModelProfileRegistry\nselect/by_task">
<path fill="#e8f5e9" stroke="#2e7d32" d="M1751.38,-90C1751.38,-90 1620.62,-90 1620.62,-90 1614.62,-90 1608.62,-84 1608.62,-78 1608.62,-78 1608.62,-66 1608.62,-66 1608.62,-60 1614.62,-54 1620.62,-54 1620.62,-54 1751.38,-54 1751.38,-54 1757.38,-54 1763.38,-60 1763.38,-66 1763.38,-66 1763.38,-78 1763.38,-78 1763.38,-84 1757.38,-90 1751.38,-90"/>
<text xml:space="preserve" text-anchor="middle" x="1686" y="-74.5" font-family="Arial" font-size="10.00">OpenVINOModelProfileRegistry</text>
<text xml:space="preserve" text-anchor="middle" x="1686" y="-62.5" font-family="Arial" font-size="10.00">select/by_task</text>
</a>
</g>
</g>
<!-- Pytest&#45;&gt;OpenVINOProfileRegistry -->
<g id="edge15" class="edge">
<title>Pytest&#45;&gt;OpenVINOProfileRegistry</title>
<path fill="none" stroke="black" d="M3029.61,-165C2836.39,-165 1686,-165 1686,-165 1686,-165 1686,-98.89 1686,-98.89"/>
<polygon fill="black" stroke="black" points="1688.45,-98.89 1686,-91.89 1683.55,-98.89 1688.45,-98.89"/>
</g>
<!-- OpenVINOBackendFactory -->
<g id="node18" class="node">
<title>OpenVINOBackendFactory</title>
<g id="a_node18"><a xlink:href="../inference/43_openvino_profiles.svg" xlink:title="OpenVINOBackendFactory\nbuild/register">
<path fill="#e8f5e9" stroke="#2e7d32" d="M1904.62,-90C1904.62,-90 1793.38,-90 1793.38,-90 1787.38,-90 1781.38,-84 1781.38,-78 1781.38,-78 1781.38,-66 1781.38,-66 1781.38,-60 1787.38,-54 1793.38,-54 1793.38,-54 1904.62,-54 1904.62,-54 1910.62,-54 1916.62,-60 1916.62,-66 1916.62,-66 1916.62,-78 1916.62,-78 1916.62,-84 1910.62,-90 1904.62,-90"/>
<text xml:space="preserve" text-anchor="middle" x="1849" y="-74.5" font-family="Arial" font-size="10.00">OpenVINOBackendFactory</text>
<text xml:space="preserve" text-anchor="middle" x="1849" y="-62.5" font-family="Arial" font-size="10.00">build/register</text>
</a>
</g>
</g>
<!-- Pytest&#45;&gt;OpenVINOBackendFactory -->
<g id="edge16" class="edge">
<title>Pytest&#45;&gt;OpenVINOBackendFactory</title>
<path fill="none" stroke="black" d="M3029.5,-163C2849.69,-163 1849,-163 1849,-163 1849,-163 1849,-98.93 1849,-98.93"/>
<polygon fill="black" stroke="black" points="1851.45,-98.93 1849,-91.93 1846.55,-98.93 1851.45,-98.93"/>
</g>
<!-- OpenVINOEmbeddingProfile -->
<g id="node19" class="node">
<title>OpenVINOEmbeddingProfile</title>
<g id="a_node19"><a xlink:href="../inference/44_openvino_embedding_profile.svg" xlink:title="OpenVINOEmbeddingProfileConfig\nconfigurable">
<path fill="#e8f5e9" stroke="#2e7d32" d="M2091.5,-90C2091.5,-90 1946.5,-90 1946.5,-90 1940.5,-90 1934.5,-84 1934.5,-78 1934.5,-78 1934.5,-66 1934.5,-66 1934.5,-60 1940.5,-54 1946.5,-54 1946.5,-54 2091.5,-54 2091.5,-54 2097.5,-54 2103.5,-60 2103.5,-66 2103.5,-66 2103.5,-78 2103.5,-78 2103.5,-84 2097.5,-90 2091.5,-90"/>
<text xml:space="preserve" text-anchor="middle" x="2019" y="-74.5" font-family="Arial" font-size="10.00">OpenVINOEmbeddingProfileConfig</text>
<text xml:space="preserve" text-anchor="middle" x="2019" y="-62.5" font-family="Arial" font-size="10.00">configurable</text>
</a>
</g>
</g>
<!-- Pytest&#45;&gt;OpenVINOEmbeddingProfile -->
<g id="edge17" class="edge">
<title>Pytest&#45;&gt;OpenVINOEmbeddingProfile</title>
<path fill="none" stroke="black" d="M3029.5,-161C2865.08,-161 2019,-161 2019,-161 2019,-161 2019,-98.95 2019,-98.95"/>
<polygon fill="black" stroke="black" points="2021.45,-98.95 2019,-91.95 2016.55,-98.95 2021.45,-98.95"/>
</g>
<!-- OpenVINOEmbeddingRaw -->
<g id="node20" class="node">
<title>OpenVINOEmbeddingRaw</title>
<g id="a_node20"><a xlink:href="../inference/45_openvino_embedding_raw.svg" xlink:title="OpenVINOEmbeddingRawInputs\nraw token tensors">
<path fill="#e8f5e9" stroke="#2e7d32" d="M2270,-90C2270,-90 2134,-90 2134,-90 2128,-90 2122,-84 2122,-78 2122,-78 2122,-66 2122,-66 2122,-60 2128,-54 2134,-54 2134,-54 2270,-54 2270,-54 2276,-54 2282,-60 2282,-66 2282,-66 2282,-78 2282,-78 2282,-84 2276,-90 2270,-90"/>
<text xml:space="preserve" text-anchor="middle" x="2202" y="-74.5" font-family="Arial" font-size="10.00">OpenVINOEmbeddingRawInputs</text>
<text xml:space="preserve" text-anchor="middle" x="2202" y="-62.5" font-family="Arial" font-size="10.00">raw token tensors</text>
</a>
</g>
</g>
<!-- Pytest&#45;&gt;OpenVINOEmbeddingRaw -->
<g id="edge18" class="edge">
<title>Pytest&#45;&gt;OpenVINOEmbeddingRaw</title>
<path fill="none" stroke="black" d="M3029.52,-159C2883.17,-159 2202,-159 2202,-159 2202,-159 2202,-98.96 2202,-98.96"/>
<polygon fill="black" stroke="black" points="2204.45,-98.96 2202,-91.96 2199.55,-98.96 2204.45,-98.96"/>
</g>
<!-- OpenVINOEmbeddingVector -->
<g id="node21" class="node">
<title>OpenVINOEmbeddingVector</title>
<g id="a_node21"><a xlink:href="../inference/45_openvino_embedding_raw.svg" xlink:title="OpenVINOEmbeddingVector\npooling/normalize">
<path fill="#e8f5e9" stroke="#2e7d32" d="M2428.25,-90C2428.25,-90 2311.75,-90 2311.75,-90 2305.75,-90 2299.75,-84 2299.75,-78 2299.75,-78 2299.75,-66 2299.75,-66 2299.75,-60 2305.75,-54 2311.75,-54 2311.75,-54 2428.25,-54 2428.25,-54 2434.25,-54 2440.25,-60 2440.25,-66 2440.25,-66 2440.25,-78 2440.25,-78 2440.25,-84 2434.25,-90 2428.25,-90"/>
<text xml:space="preserve" text-anchor="middle" x="2370" y="-74.5" font-family="Arial" font-size="10.00">OpenVINOEmbeddingVector</text>
<text xml:space="preserve" text-anchor="middle" x="2370" y="-62.5" font-family="Arial" font-size="10.00">pooling/normalize</text>
</a>
</g>
</g>
<!-- Pytest&#45;&gt;OpenVINOEmbeddingVector -->
<g id="edge19" class="edge">
<title>Pytest&#45;&gt;OpenVINOEmbeddingVector</title>
<path fill="none" stroke="black" d="M3029.64,-157C2901.87,-157 2370,-157 2370,-157 2370,-157 2370,-98.96 2370,-98.96"/>
<polygon fill="black" stroke="black" points="2372.45,-98.96 2370,-91.96 2367.55,-98.96 2372.45,-98.96"/>
</g>
<!-- TokenizerContract -->
<g id="node22" class="node">
<title>TokenizerContract</title>
<g id="a_node22"><a xlink:href="../inference/46_tokenizer_contract.svg" xlink:title="Tokenizer contract\ntext &#45;&gt; tokens">
<path fill="#e8f5e9" stroke="#2e7d32" d="M2542.12,-90C2542.12,-90 2469.88,-90 2469.88,-90 2463.88,-90 2457.88,-84 2457.88,-78 2457.88,-78 2457.88,-66 2457.88,-66 2457.88,-60 2463.88,-54 2469.88,-54 2469.88,-54 2542.12,-54 2542.12,-54 2548.12,-54 2554.12,-60 2554.12,-66 2554.12,-66 2554.12,-78 2554.12,-78 2554.12,-84 2548.12,-90 2542.12,-90"/>
<text xml:space="preserve" text-anchor="middle" x="2506" y="-74.5" font-family="Arial" font-size="10.00">Tokenizer contract</text>
<text xml:space="preserve" text-anchor="middle" x="2506" y="-62.5" font-family="Arial" font-size="10.00">text &#45;&gt; tokens</text>
</a>
</g>
</g>
<!-- Pytest&#45;&gt;TokenizerContract -->
<g id="edge20" class="edge">
<title>Pytest&#45;&gt;TokenizerContract</title>
<path fill="none" stroke="black" d="M3029.68,-155C2918.5,-155 2506,-155 2506,-155 2506,-155 2506,-98.93 2506,-98.93"/>
<polygon fill="black" stroke="black" points="2508.45,-98.93 2506,-91.93 2503.55,-98.93 2508.45,-98.93"/>
</g>
<!-- TokenizationResult -->
<g id="node23" class="node">
<title>TokenizationResult</title>
<g id="a_node23"><a xlink:href="../inference/46_tokenizer_contract.svg" xlink:title="TokenizationResult\nproject to raw inputs">
<path fill="#e8f5e9" stroke="#2e7d32" d="M2664.25,-90C2664.25,-90 2583.75,-90 2583.75,-90 2577.75,-90 2571.75,-84 2571.75,-78 2571.75,-78 2571.75,-66 2571.75,-66 2571.75,-60 2577.75,-54 2583.75,-54 2583.75,-54 2664.25,-54 2664.25,-54 2670.25,-54 2676.25,-60 2676.25,-66 2676.25,-66 2676.25,-78 2676.25,-78 2676.25,-84 2670.25,-90 2664.25,-90"/>
<text xml:space="preserve" text-anchor="middle" x="2624" y="-74.5" font-family="Arial" font-size="10.00">TokenizationResult</text>
<text xml:space="preserve" text-anchor="middle" x="2624" y="-62.5" font-family="Arial" font-size="10.00">project to raw inputs</text>
</a>
</g>
</g>
<!-- Pytest&#45;&gt;TokenizationResult -->
<g id="edge21" class="edge">
<title>Pytest&#45;&gt;TokenizationResult</title>
<path fill="none" stroke="black" d="M3029.59,-153C2934.4,-153 2624,-153 2624,-153 2624,-153 2624,-98.89 2624,-98.89"/>
<polygon fill="black" stroke="black" points="2626.45,-98.89 2624,-91.89 2621.55,-98.89 2626.45,-98.89"/>
</g>
<!-- OpenVINOEmbeddingPipeline -->
<g id="node24" class="node">
<title>OpenVINOEmbeddingPipeline</title>
<g id="a_node24"><a xlink:href="../inference/47_openvino_embedding_pipeline.svg" xlink:title="OpenVINOEmbeddingPipeline\ntext &#45;&gt; vector">
<path fill="#e8f5e9" stroke="#2e7d32" d="M2829.62,-90C2829.62,-90 2706.38,-90 2706.38,-90 2700.38,-90 2694.38,-84 2694.38,-78 2694.38,-78 2694.38,-66 2694.38,-66 2694.38,-60 2700.38,-54 2706.38,-54 2706.38,-54 2829.62,-54 2829.62,-54 2835.62,-54 2841.62,-60 2841.62,-66 2841.62,-66 2841.62,-78 2841.62,-78 2841.62,-84 2835.62,-90 2829.62,-90"/>
<text xml:space="preserve" text-anchor="middle" x="2768" y="-74.5" font-family="Arial" font-size="10.00">OpenVINOEmbeddingPipeline</text>
<text xml:space="preserve" text-anchor="middle" x="2768" y="-62.5" font-family="Arial" font-size="10.00">text &#45;&gt; vector</text>
</a>
</g>
</g>
<!-- Pytest&#45;&gt;OpenVINOEmbeddingPipeline -->
<g id="edge22" class="edge">
<title>Pytest&#45;&gt;OpenVINOEmbeddingPipeline</title>
<path fill="none" stroke="black" d="M3029.55,-151C2957.41,-151 2768,-151 2768,-151 2768,-151 2768,-98.84 2768,-98.84"/>
<polygon fill="black" stroke="black" points="2770.45,-98.84 2768,-91.84 2765.55,-98.84 2770.45,-98.84"/>
</g>
<!-- InferenceObs -->
<g id="node25" class="node">
<title>InferenceObs</title>
<path fill="#e8f5e9" stroke="#2e7d32" d="M2966.75,-90C2966.75,-90 2871.25,-90 2871.25,-90 2865.25,-90 2859.25,-84 2859.25,-78 2859.25,-78 2859.25,-66 2859.25,-66 2859.25,-60 2865.25,-54 2871.25,-54 2871.25,-54 2966.75,-54 2966.75,-54 2972.75,-54 2978.75,-60 2978.75,-66 2978.75,-66 2978.75,-78 2978.75,-78 2978.75,-84 2972.75,-90 2966.75,-90"/>
<text xml:space="preserve" text-anchor="middle" x="2919" y="-74.5" font-family="Arial" font-size="10.00">INFERENCE_RESULT</text>
<text xml:space="preserve" text-anchor="middle" x="2919" y="-62.5" font-family="Arial" font-size="10.00">observable</text>
</g>
<!-- Pytest&#45;&gt;InferenceObs -->
<g id="edge23" class="edge">
<title>Pytest&#45;&gt;InferenceObs</title>
<path fill="none" stroke="black" d="M3029.38,-149C2988.63,-149 2917.19,-149 2917.19,-149 2917.19,-149 2917.19,-98.76 2917.19,-98.76"/>
<polygon fill="black" stroke="black" points="2919.64,-98.76 2917.19,-91.76 2914.74,-98.76 2919.64,-98.76"/>
</g>
<!-- InferenceProxy -->
<g id="node26" class="node">
<title>InferenceProxy</title>
<path fill="#e8f5e9" stroke="#2e7d32" d="M3081.12,-90C3081.12,-90 3008.88,-90 3008.88,-90 3002.88,-90 2996.88,-84 2996.88,-78 2996.88,-78 2996.88,-66 2996.88,-66 2996.88,-60 3002.88,-54 3008.88,-54 3008.88,-54 3081.12,-54 3081.12,-54 3087.12,-54 3093.12,-60 3093.12,-66 3093.12,-66 3093.12,-78 3093.12,-78 3093.12,-84 3087.12,-90 3081.12,-90"/>
<text xml:space="preserve" text-anchor="middle" x="3045" y="-74.5" font-family="Arial" font-size="10.00">ComponentProxy</text>
<text xml:space="preserve" text-anchor="middle" x="3045" y="-62.5" font-family="Arial" font-size="10.00">inference roundtrip</text>
</g>
<!-- Pytest&#45;&gt;InferenceProxy -->
<g id="edge24" class="edge">
<title>Pytest&#45;&gt;InferenceProxy</title>
<path fill="none" stroke="black" d="M3057,-146.22C3057,-146.22 3057,-98.75 3057,-98.75"/>
<polygon fill="black" stroke="black" points="3059.45,-98.75 3057,-91.75 3054.55,-98.75 3059.45,-98.75"/>
</g>
<!-- PolicyRules -->
<g id="node27" class="node">
<title>PolicyRules</title>
<path fill="#e8f5e9" stroke="#2e7d32" d="M3172.5,-90C3172.5,-90 3123.5,-90 3123.5,-90 3117.5,-90 3111.5,-84 3111.5,-78 3111.5,-78 3111.5,-66 3111.5,-66 3111.5,-60 3117.5,-54 3123.5,-54 3123.5,-54 3172.5,-54 3172.5,-54 3178.5,-54 3184.5,-60 3184.5,-66 3184.5,-66 3184.5,-78 3184.5,-78 3184.5,-84 3178.5,-90 3172.5,-90"/>
<text xml:space="preserve" text-anchor="middle" x="3148" y="-74.5" font-family="Arial" font-size="10.00">PolicyEngine</text>
<text xml:space="preserve" text-anchor="middle" x="3148" y="-62.5" font-family="Arial" font-size="10.00">rules</text>
</g>
<!-- Pytest&#45;&gt;PolicyRules -->
<g id="edge25" class="edge">
<title>Pytest&#45;&gt;PolicyRules</title>
<path fill="none" stroke="black" d="M3084.34,-148C3103.31,-148 3125.19,-148 3125.19,-148 3125.19,-148 3125.19,-98.91 3125.19,-98.91"/>
<polygon fill="black" stroke="black" points="3127.64,-98.91 3125.19,-91.91 3122.74,-98.91 3127.64,-98.91"/>
</g>
<!-- PolicyDenied -->
<g id="node28" class="node">
<title>PolicyDenied</title>
<path fill="#e8f5e9" stroke="#2e7d32" d="M3287.5,-90C3287.5,-90 3214.5,-90 3214.5,-90 3208.5,-90 3202.5,-84 3202.5,-78 3202.5,-78 3202.5,-66 3202.5,-66 3202.5,-60 3208.5,-54 3214.5,-54 3214.5,-54 3287.5,-54 3287.5,-54 3293.5,-54 3299.5,-60 3299.5,-66 3299.5,-66 3299.5,-78 3299.5,-78 3299.5,-84 3293.5,-90 3287.5,-90"/>
<text xml:space="preserve" text-anchor="middle" x="3251" y="-74.5" font-family="Arial" font-size="10.00">POLICY_DENIED</text>
<text xml:space="preserve" text-anchor="middle" x="3251" y="-62.5" font-family="Arial" font-size="10.00">observable</text>
</g>
<!-- Pytest&#45;&gt;PolicyDenied -->
<g id="edge26" class="edge">
<title>Pytest&#45;&gt;PolicyDenied</title>
<path fill="none" stroke="black" d="M3084.46,-150C3137.44,-150 3248.62,-150 3248.62,-150 3248.62,-150 3248.62,-99 3248.62,-99"/>
<polygon fill="black" stroke="black" points="3251.08,-99 3248.63,-92 3246.18,-99 3251.08,-99"/>
</g>
<!-- PolicyProxy -->
<g id="node29" class="node">
<title>PolicyProxy</title>
<path fill="#e8f5e9" stroke="#2e7d32" d="M3396.88,-90C3396.88,-90 3329.12,-90 3329.12,-90 3323.12,-90 3317.12,-84 3317.12,-78 3317.12,-78 3317.12,-66 3317.12,-66 3317.12,-60 3323.12,-54 3329.12,-54 3329.12,-54 3396.88,-54 3396.88,-54 3402.88,-54 3408.88,-60 3408.88,-66 3408.88,-66 3408.88,-78 3408.88,-78 3408.88,-84 3402.88,-90 3396.88,-90"/>
<text xml:space="preserve" text-anchor="middle" x="3363" y="-74.5" font-family="Arial" font-size="10.00">ComponentProxy</text>
<text xml:space="preserve" text-anchor="middle" x="3363" y="-62.5" font-family="Arial" font-size="10.00">Decision denied</text>
</g>
<!-- Pytest&#45;&gt;PolicyProxy -->
<g id="edge27" class="edge">
<title>Pytest&#45;&gt;PolicyProxy</title>
<path fill="none" stroke="black" d="M3084.42,-152C3159.53,-152 3363,-152 3363,-152 3363,-152 3363,-98.67 3363,-98.67"/>
<polygon fill="black" stroke="black" points="3365.45,-98.67 3363,-91.67 3360.55,-98.67 3365.45,-98.67"/>
</g>
<!-- TelemetryRoundtrip -->
<g id="node30" class="node">
<title>TelemetryRoundtrip</title>
<path fill="#e8f5e9" stroke="#2e7d32" d="M3501.25,-90C3501.25,-90 3438.75,-90 3438.75,-90 3432.75,-90 3426.75,-84 3426.75,-78 3426.75,-78 3426.75,-66 3426.75,-66 3426.75,-60 3432.75,-54 3438.75,-54 3438.75,-54 3501.25,-54 3501.25,-54 3507.25,-54 3513.25,-60 3513.25,-66 3513.25,-66 3513.25,-78 3513.25,-78 3513.25,-84 3507.25,-90 3501.25,-90"/>
<text xml:space="preserve" text-anchor="middle" x="3470" y="-74.5" font-family="Arial" font-size="10.00">KernelTelemetry</text>
<text xml:space="preserve" text-anchor="middle" x="3470" y="-62.5" font-family="Arial" font-size="10.00">roundtrip</text>
</g>
<!-- Pytest&#45;&gt;TelemetryRoundtrip -->
<g id="edge28" class="edge">
<title>Pytest&#45;&gt;TelemetryRoundtrip</title>
<path fill="none" stroke="black" d="M3084.42,-154C3176.66,-154 3470,-154 3470,-154 3470,-154 3470,-98.71 3470,-98.71"/>
<polygon fill="black" stroke="black" points="3472.45,-98.71 3470,-91.71 3467.55,-98.71 3472.45,-98.71"/>
</g>
<!-- TelemetryDenied -->
<g id="node31" class="node">
<title>TelemetryDenied</title>
<path fill="#e8f5e9" stroke="#2e7d32" d="M3606.25,-90C3606.25,-90 3543.75,-90 3543.75,-90 3537.75,-90 3531.75,-84 3531.75,-78 3531.75,-78 3531.75,-66 3531.75,-66 3531.75,-60 3537.75,-54 3543.75,-54 3543.75,-54 3606.25,-54 3606.25,-54 3612.25,-54 3618.25,-60 3618.25,-66 3618.25,-66 3618.25,-78 3618.25,-78 3618.25,-84 3612.25,-90 3606.25,-90"/>
<text xml:space="preserve" text-anchor="middle" x="3575" y="-74.5" font-family="Arial" font-size="10.00">KernelTelemetry</text>
<text xml:space="preserve" text-anchor="middle" x="3575" y="-62.5" font-family="Arial" font-size="10.00">policy denied</text>
</g>
<!-- Pytest&#45;&gt;TelemetryDenied -->
<g id="edge29" class="edge">
<title>Pytest&#45;&gt;TelemetryDenied</title>
<path fill="none" stroke="black" d="M3084.48,-156C3191.57,-156 3575,-156 3575,-156 3575,-156 3575,-98.74 3575,-98.74"/>
<polygon fill="black" stroke="black" points="3577.45,-98.74 3575,-91.74 3572.55,-98.74 3577.45,-98.74"/>
</g>
<!-- TelemetrySnapshot -->
<g id="node32" class="node">
<title>TelemetrySnapshot</title>
<path fill="#e8f5e9" stroke="#2e7d32" d="M3724,-90C3724,-90 3648,-90 3648,-90 3642,-90 3636,-84 3636,-78 3636,-78 3636,-66 3636,-66 3636,-60 3642,-54 3648,-54 3648,-54 3724,-54 3724,-54 3730,-54 3736,-60 3736,-66 3736,-66 3736,-78 3736,-78 3736,-84 3730,-90 3724,-90"/>
<text xml:space="preserve" text-anchor="middle" x="3686" y="-74.5" font-family="Arial" font-size="10.00">TelemetrySnapshot</text>
<text xml:space="preserve" text-anchor="middle" x="3686" y="-62.5" font-family="Arial" font-size="10.00">immutable</text>
</g>
<!-- Pytest&#45;&gt;TelemetrySnapshot -->
<g id="edge30" class="edge">
<title>Pytest&#45;&gt;TelemetrySnapshot</title>
<path fill="none" stroke="black" d="M3084.43,-158C3205.5,-158 3686,-158 3686,-158 3686,-158 3686,-98.75 3686,-98.75"/>
<polygon fill="black" stroke="black" points="3688.45,-98.75 3686,-91.75 3683.55,-98.75 3688.45,-98.75"/>
</g>
<!-- EventRecorder -->
<g id="node33" class="node">
<title>EventRecorder</title>
<path fill="#e8f5e9" stroke="#2e7d32" d="M3827.5,-90C3827.5,-90 3766.5,-90 3766.5,-90 3760.5,-90 3754.5,-84 3754.5,-78 3754.5,-78 3754.5,-66 3754.5,-66 3754.5,-60 3760.5,-54 3766.5,-54 3766.5,-54 3827.5,-54 3827.5,-54 3833.5,-54 3839.5,-60 3839.5,-66 3839.5,-66 3839.5,-78 3839.5,-78 3839.5,-84 3833.5,-90 3827.5,-90"/>
<text xml:space="preserve" text-anchor="middle" x="3797" y="-74.5" font-family="Arial" font-size="10.00">EventRecorder</text>
<text xml:space="preserve" text-anchor="middle" x="3797" y="-62.5" font-family="Arial" font-size="10.00">passive capture</text>
</g>
<!-- Pytest&#45;&gt;EventRecorder -->
<g id="edge31" class="edge">
<title>Pytest&#45;&gt;EventRecorder</title>
<path fill="none" stroke="black" d="M3084.21,-160C3217.72,-160 3797,-160 3797,-160 3797,-160 3797,-98.75 3797,-98.75"/>
<polygon fill="black" stroke="black" points="3799.45,-98.75 3797,-91.75 3794.55,-98.75 3799.45,-98.75"/>
</g>
<!-- EventLogSnapshot -->
<g id="node34" class="node">
<title>EventLogSnapshot</title>
<path fill="#e8f5e9" stroke="#2e7d32" d="M3944.25,-90C3944.25,-90 3869.75,-90 3869.75,-90 3863.75,-90 3857.75,-84 3857.75,-78 3857.75,-78 3857.75,-66 3857.75,-66 3857.75,-60 3863.75,-54 3869.75,-54 3869.75,-54 3944.25,-54 3944.25,-54 3950.25,-54 3956.25,-60 3956.25,-66 3956.25,-66 3956.25,-78 3956.25,-78 3956.25,-84 3950.25,-90 3944.25,-90"/>
<text xml:space="preserve" text-anchor="middle" x="3907" y="-74.5" font-family="Arial" font-size="10.00">EventLogSnapshot</text>
<text xml:space="preserve" text-anchor="middle" x="3907" y="-62.5" font-family="Arial" font-size="10.00">immutable</text>
</g>
<!-- Pytest&#45;&gt;EventLogSnapshot -->
<g id="edge32" class="edge">
<title>Pytest&#45;&gt;EventLogSnapshot</title>
<path fill="none" stroke="black" d="M3084.32,-162C3229.81,-162 3907,-162 3907,-162 3907,-162 3907,-98.73 3907,-98.73"/>
<polygon fill="black" stroke="black" points="3909.45,-98.73 3907,-91.73 3904.55,-98.73 3909.45,-98.73"/>
</g>
<!-- ReplayReader -->
<g id="node35" class="node">
<title>ReplayReader</title>
<path fill="#e8f5e9" stroke="#2e7d32" d="M4040.12,-90C4040.12,-90 3985.88,-90 3985.88,-90 3979.88,-90 3973.88,-84 3973.88,-78 3973.88,-78 3973.88,-66 3973.88,-66 3973.88,-60 3979.88,-54 3985.88,-54 3985.88,-54 4040.12,-54 4040.12,-54 4046.12,-54 4052.12,-60 4052.12,-66 4052.12,-66 4052.12,-78 4052.12,-78 4052.12,-84 4046.12,-90 4040.12,-90"/>
<text xml:space="preserve" text-anchor="middle" x="4013" y="-74.5" font-family="Arial" font-size="10.00">ReplayReader</text>
<text xml:space="preserve" text-anchor="middle" x="4013" y="-62.5" font-family="Arial" font-size="10.00">filter/plan</text>
</g>
<!-- Pytest&#45;&gt;ReplayReader -->
<g id="edge33" class="edge">
<title>Pytest&#45;&gt;ReplayReader</title>
<path fill="none" stroke="black" d="M3084.58,-164C3241.33,-164 4013,-164 4013,-164 4013,-164 4013,-98.69 4013,-98.69"/>
<polygon fill="black" stroke="black" points="4015.45,-98.69 4013,-91.69 4010.55,-98.69 4015.45,-98.69"/>
</g>
<!-- ReplayPlan -->
<g id="node36" class="node">
<title>ReplayPlan</title>
<path fill="#e8f5e9" stroke="#2e7d32" d="M4124.12,-90C4124.12,-90 4081.88,-90 4081.88,-90 4075.88,-90 4069.88,-84 4069.88,-78 4069.88,-78 4069.88,-66 4069.88,-66 4069.88,-60 4075.88,-54 4081.88,-54 4081.88,-54 4124.12,-54 4124.12,-54 4130.12,-54 4136.12,-60 4136.12,-66 4136.12,-66 4136.12,-78 4136.12,-78 4136.12,-84 4130.12,-90 4124.12,-90"/>
<text xml:space="preserve" text-anchor="middle" x="4103" y="-74.5" font-family="Arial" font-size="10.00">ReplayPlan</text>
<text xml:space="preserve" text-anchor="middle" x="4103" y="-62.5" font-family="Arial" font-size="10.00">immutable</text>
</g>
<!-- Pytest&#45;&gt;ReplayPlan -->
<g id="edge34" class="edge">
<title>Pytest&#45;&gt;ReplayPlan</title>
<path fill="none" stroke="black" d="M3084.44,-165C3249.48,-165 4103,-165 4103,-165 4103,-165 4103,-98.89 4103,-98.89"/>
<polygon fill="black" stroke="black" points="4105.45,-98.89 4103,-91.89 4100.55,-98.89 4105.45,-98.89"/>
</g>
<!-- ReplaySandbox -->
<g id="node37" class="node">
<title>ReplaySandbox</title>
<path fill="#e8f5e9" stroke="#2e7d32" d="M4227.5,-90C4227.5,-90 4166.5,-90 4166.5,-90 4160.5,-90 4154.5,-84 4154.5,-78 4154.5,-78 4154.5,-66 4154.5,-66 4154.5,-60 4160.5,-54 4166.5,-54 4166.5,-54 4227.5,-54 4227.5,-54 4233.5,-54 4239.5,-60 4239.5,-66 4239.5,-66 4239.5,-78 4239.5,-78 4239.5,-84 4233.5,-90 4227.5,-90"/>
<text xml:space="preserve" text-anchor="middle" x="4197" y="-74.5" font-family="Arial" font-size="10.00">ReplaySandbox</text>
<text xml:space="preserve" text-anchor="middle" x="4197" y="-62.5" font-family="Arial" font-size="10.00">isolated replay</text>
</g>
<!-- Pytest&#45;&gt;ReplaySandbox -->
<g id="edge35" class="edge">
<title>Pytest&#45;&gt;ReplaySandbox</title>
<path fill="none" stroke="black" d="M3084.62,-167C3258.71,-167 4197,-167 4197,-167 4197,-167 4197,-98.83 4197,-98.83"/>
<polygon fill="black" stroke="black" points="4199.45,-98.83 4197,-91.83 4194.55,-98.83 4199.45,-98.83"/>
</g>
<!-- ReplaySandboxDenied -->
<g id="node38" class="node">
<title>ReplaySandboxDenied</title>
<path fill="#e8f5e9" stroke="#2e7d32" d="M4352,-90C4352,-90 4270,-90 4270,-90 4264,-90 4258,-84 4258,-78 4258,-78 4258,-66 4258,-66 4258,-60 4264,-54 4270,-54 4270,-54 4352,-54 4352,-54 4358,-54 4364,-60 4364,-66 4364,-66 4364,-78 4364,-78 4364,-84 4358,-90 4352,-90"/>
<text xml:space="preserve" text-anchor="middle" x="4311" y="-74.5" font-family="Arial" font-size="10.00">ReplaySandbox</text>
<text xml:space="preserve" text-anchor="middle" x="4311" y="-62.5" font-family="Arial" font-size="10.00">refuse SHUTDOWN</text>
</g>
<!-- Pytest&#45;&gt;ReplaySandboxDenied -->
<g id="edge36" class="edge">
<title>Pytest&#45;&gt;ReplaySandboxDenied</title>
<path fill="none" stroke="black" d="M3084.36,-169C3267.74,-169 4311,-169 4311,-169 4311,-169 4311,-98.76 4311,-98.76"/>
<polygon fill="black" stroke="black" points="4313.45,-98.76 4311,-91.76 4308.55,-98.76 4313.45,-98.76"/>
</g>
<!-- ReplaySandboxLimits -->
<g id="node39" class="node">
<title>ReplaySandboxLimits</title>
<path fill="#e8f5e9" stroke="#2e7d32" d="M4506,-90C4506,-90 4394,-90 4394,-90 4388,-90 4382,-84 4382,-78 4382,-78 4382,-66 4382,-66 4382,-60 4388,-54 4394,-54 4394,-54 4506,-54 4506,-54 4512,-54 4518,-60 4518,-66 4518,-66 4518,-78 4518,-78 4518,-84 4512,-90 4506,-90"/>
<text xml:space="preserve" text-anchor="middle" x="4450" y="-74.5" font-family="Arial" font-size="10.00">ReplaySandbox</text>
<text xml:space="preserve" text-anchor="middle" x="4450" y="-62.5" font-family="Arial" font-size="10.00">allowed types / max events</text>
</g>
<!-- Pytest&#45;&gt;ReplaySandboxLimits -->
<g id="edge37" class="edge">
<title>Pytest&#45;&gt;ReplaySandboxLimits</title>
<path fill="none" stroke="black" d="M3084.51,-171C3279.91,-171 4450,-171 4450,-171 4450,-171 4450,-98.67 4450,-98.67"/>
<polygon fill="black" stroke="black" points="4452.45,-98.67 4450,-91.67 4447.55,-98.67 4452.45,-98.67"/>
</g>
<!-- ReplayScenario -->
<g id="node40" class="node">
<title>ReplayScenario</title>
<path fill="#e8f5e9" stroke="#2e7d32" d="M4609.88,-90C4609.88,-90 4548.12,-90 4548.12,-90 4542.12,-90 4536.12,-84 4536.12,-78 4536.12,-78 4536.12,-66 4536.12,-66 4536.12,-60 4542.12,-54 4548.12,-54 4548.12,-54 4609.88,-54 4609.88,-54 4615.88,-54 4621.88,-60 4621.88,-66 4621.88,-66 4621.88,-78 4621.88,-78 4621.88,-84 4615.88,-90 4609.88,-90"/>
<text xml:space="preserve" text-anchor="middle" x="4579" y="-74.5" font-family="Arial" font-size="10.00">ReplayScenario</text>
<text xml:space="preserve" text-anchor="middle" x="4579" y="-62.5" font-family="Arial" font-size="10.00">controlled report</text>
</g>
<!-- Pytest&#45;&gt;ReplayScenario -->
<g id="edge38" class="edge">
<title>Pytest&#45;&gt;ReplayScenario</title>
<path fill="none" stroke="black" d="M3084.39,-173C3289.63,-173 4579,-173 4579,-173 4579,-173 4579,-98.57 4579,-98.57"/>
<polygon fill="black" stroke="black" points="4581.45,-98.57 4579,-91.57 4576.55,-98.57 4581.45,-98.57"/>
</g>
<!-- ReplayReport -->
<g id="node41" class="node">
<title>ReplayReport</title>
<path fill="#e8f5e9" stroke="#2e7d32" d="M4704,-90C4704,-90 4652,-90 4652,-90 4646,-90 4640,-84 4640,-78 4640,-78 4640,-66 4640,-66 4640,-60 4646,-54 4652,-54 4652,-54 4704,-54 4704,-54 4710,-54 4716,-60 4716,-66 4716,-66 4716,-78 4716,-78 4716,-84 4710,-90 4704,-90"/>
<text xml:space="preserve" text-anchor="middle" x="4678" y="-74.5" font-family="Arial" font-size="10.00">ReplayReport</text>
<text xml:space="preserve" text-anchor="middle" x="4678" y="-62.5" font-family="Arial" font-size="10.00">deterministic</text>
</g>
<!-- Pytest&#45;&gt;ReplayReport -->
<g id="edge39" class="edge">
<title>Pytest&#45;&gt;ReplayReport</title>
<path fill="none" stroke="black" d="M3084.46,-175C3297.47,-175 4678,-175 4678,-175 4678,-175 4678,-98.93 4678,-98.93"/>
<polygon fill="black" stroke="black" points="4680.45,-98.93 4678,-91.93 4675.55,-98.93 4680.45,-98.93"/>
</g>
<!-- ReplayScenarioValidation -->
<g id="node42" class="node">
<title>ReplayScenarioValidation</title>
<path fill="#e8f5e9" stroke="#2e7d32" d="M4807.5,-90C4807.5,-90 4746.5,-90 4746.5,-90 4740.5,-90 4734.5,-84 4734.5,-78 4734.5,-78 4734.5,-66 4734.5,-66 4734.5,-60 4740.5,-54 4746.5,-54 4746.5,-54 4807.5,-54 4807.5,-54 4813.5,-54 4819.5,-60 4819.5,-66 4819.5,-66 4819.5,-78 4819.5,-78 4819.5,-84 4813.5,-90 4807.5,-90"/>
<text xml:space="preserve" text-anchor="middle" x="4777" y="-74.5" font-family="Arial" font-size="10.00">ReplayScenario</text>
<text xml:space="preserve" text-anchor="middle" x="4777" y="-62.5" font-family="Arial" font-size="10.00">validation</text>
</g>
<!-- Pytest&#45;&gt;ReplayScenarioValidation -->
<g id="edge40" class="edge">
<title>Pytest&#45;&gt;ReplayScenarioValidation</title>
<path fill="none" stroke="black" d="M3084.36,-177C3304.39,-177 4777,-177 4777,-177 4777,-177 4777,-98.8 4777,-98.8"/>
<polygon fill="black" stroke="black" points="4779.45,-98.8 4777,-91.8 4774.55,-98.8 4779.45,-98.8"/>
</g>
<!-- ReplayReportExporter -->
<g id="node43" class="node">
<title>ReplayReportExporter</title>
<path fill="#e8f5e9" stroke="#2e7d32" d="M4938.38,-90C4938.38,-90 4849.62,-90 4849.62,-90 4843.62,-90 4837.62,-84 4837.62,-78 4837.62,-78 4837.62,-66 4837.62,-66 4837.62,-60 4843.62,-54 4849.62,-54 4849.62,-54 4938.38,-54 4938.38,-54 4944.38,-54 4950.38,-60 4950.38,-66 4950.38,-66 4950.38,-78 4950.38,-78 4950.38,-84 4944.38,-90 4938.38,-90"/>
<text xml:space="preserve" text-anchor="middle" x="4894" y="-74.5" font-family="Arial" font-size="10.00">ReplayReportExporter</text>
<text xml:space="preserve" text-anchor="middle" x="4894" y="-62.5" font-family="Arial" font-size="10.00">text/json</text>
</g>
<!-- Pytest&#45;&gt;ReplayReportExporter -->
<g id="edge41" class="edge">
<title>Pytest&#45;&gt;ReplayReportExporter</title>
<path fill="none" stroke="black" d="M3084.39,-179C3312.91,-179 4894,-179 4894,-179 4894,-179 4894,-98.66 4894,-98.66"/>
<polygon fill="black" stroke="black" points="4896.45,-98.66 4894,-91.66 4891.55,-98.66 4896.45,-98.66"/>
</g>
<!-- ReplayReportExport -->
<g id="node44" class="node">
<title>ReplayReportExport</title>
<path fill="#e8f5e9" stroke="#2e7d32" d="M5061.25,-90C5061.25,-90 4980.75,-90 4980.75,-90 4974.75,-90 4968.75,-84 4968.75,-78 4968.75,-78 4968.75,-66 4968.75,-66 4968.75,-60 4974.75,-54 4980.75,-54 4980.75,-54 5061.25,-54 5061.25,-54 5067.25,-54 5073.25,-60 5073.25,-66 5073.25,-66 5073.25,-78 5073.25,-78 5073.25,-84 5067.25,-90 5061.25,-90"/>
<text xml:space="preserve" text-anchor="middle" x="5021" y="-74.5" font-family="Arial" font-size="10.00">ReplayReportExport</text>
<text xml:space="preserve" text-anchor="middle" x="5021" y="-62.5" font-family="Arial" font-size="10.00">immutable</text>
</g>
<!-- Pytest&#45;&gt;ReplayReportExport -->
<g id="edge42" class="edge">
<title>Pytest&#45;&gt;ReplayReportExport</title>
<path fill="none" stroke="black" d="M3061.52,-146.24C3061.52,-125.65 3061.52,-95 3061.52,-95 3061.52,-95 5021,-95 5021,-95 5021,-95 5021,-94.51 5021,-94.51"/>
<polygon fill="black" stroke="black" points="5023.45,-98.64 5021,-91.64 5018.55,-98.64 5023.45,-98.64"/>
</g>
<!-- ReplayReportFileWriter -->
<g id="node45" class="node">
<title>ReplayReportFileWriter</title>
<path fill="#e8f5e9" stroke="#2e7d32" d="M5196.62,-90C5196.62,-90 5103.38,-90 5103.38,-90 5097.38,-90 5091.38,-84 5091.38,-78 5091.38,-78 5091.38,-66 5091.38,-66 5091.38,-60 5097.38,-54 5103.38,-54 5103.38,-54 5196.62,-54 5196.62,-54 5202.62,-54 5208.62,-60 5208.62,-66 5208.62,-66 5208.62,-78 5208.62,-78 5208.62,-84 5202.62,-90 5196.62,-90"/>
<text xml:space="preserve" text-anchor="middle" x="5150" y="-74.5" font-family="Arial" font-size="10.00">ReplayReportFileWriter</text>
<text xml:space="preserve" text-anchor="middle" x="5150" y="-62.5" font-family="Arial" font-size="10.00">controlled files</text>
</g>
<!-- Pytest&#45;&gt;ReplayReportFileWriter -->
<g id="edge43" class="edge">
<title>Pytest&#45;&gt;ReplayReportFileWriter</title>
<path fill="none" stroke="black" d="M3066.04,-146.19C3066.04,-127.12 3066.04,-100 3066.04,-100 3066.04,-100 5150,-100 5150,-100 5150,-100 5150,-98.72 5150,-98.72"/>
<polygon fill="black" stroke="black" points="5152.45,-98.72 5150,-91.72 5147.55,-98.72 5152.45,-98.72"/>
</g>
<!-- ReplayReportWriteResult -->
<g id="node46" class="node">
<title>ReplayReportWriteResult</title>
<path fill="#e8f5e9" stroke="#2e7d32" d="M5341.5,-90C5341.5,-90 5238.5,-90 5238.5,-90 5232.5,-90 5226.5,-84 5226.5,-78 5226.5,-78 5226.5,-66 5226.5,-66 5226.5,-60 5232.5,-54 5238.5,-54 5238.5,-54 5341.5,-54 5341.5,-54 5347.5,-54 5353.5,-60 5353.5,-66 5353.5,-66 5353.5,-78 5353.5,-78 5353.5,-84 5347.5,-90 5341.5,-90"/>
<text xml:space="preserve" text-anchor="middle" x="5290" y="-74.5" font-family="Arial" font-size="10.00">ReplayReportWriteResult</text>
<text xml:space="preserve" text-anchor="middle" x="5290" y="-62.5" font-family="Arial" font-size="10.00">sha256</text>
</g>
<!-- Pytest&#45;&gt;ReplayReportWriteResult -->
<g id="edge44" class="edge">
<title>Pytest&#45;&gt;ReplayReportWriteResult</title>
<path fill="none" stroke="black" d="M3070.56,-146.32C3070.56,-128.83 3070.56,-105 3070.56,-105 3070.56,-105 5290,-105 5290,-105 5290,-105 5290,-98.94 5290,-98.94"/>
<polygon fill="black" stroke="black" points="5292.45,-98.94 5290,-91.94 5287.55,-98.94 5292.45,-98.94"/>
</g>
<!-- ReplayReportBundleWriter -->
<g id="node47" class="node">
<title>ReplayReportBundleWriter</title>
<path fill="#e8f5e9" stroke="#2e7d32" d="M5490.75,-90C5490.75,-90 5383.25,-90 5383.25,-90 5377.25,-90 5371.25,-84 5371.25,-78 5371.25,-78 5371.25,-66 5371.25,-66 5371.25,-60 5377.25,-54 5383.25,-54 5383.25,-54 5490.75,-54 5490.75,-54 5496.75,-54 5502.75,-60 5502.75,-66 5502.75,-66 5502.75,-78 5502.75,-78 5502.75,-84 5496.75,-90 5490.75,-90"/>
<text xml:space="preserve" text-anchor="middle" x="5437" y="-74.5" font-family="Arial" font-size="10.00">ReplayReportBundleWriter</text>
<text xml:space="preserve" text-anchor="middle" x="5437" y="-62.5" font-family="Arial" font-size="10.00">controlled bundle</text>
</g>
<!-- Pytest&#45;&gt;ReplayReportBundleWriter -->
<g id="edge45" class="edge">
<title>Pytest&#45;&gt;ReplayReportBundleWriter</title>
<path fill="none" stroke="black" d="M3075.08,-146.09C3075.08,-130.61 3075.08,-111 3075.08,-111 3075.08,-111 5437,-111 5437,-111 5437,-111 5437,-98.64 5437,-98.64"/>
<polygon fill="black" stroke="black" points="5439.45,-98.64 5437,-91.64 5434.55,-98.64 5439.45,-98.64"/>
</g>
<!-- ReplayBundleWriteResult -->
<g id="node48" class="node">
<title>ReplayBundleWriteResult</title>
<path fill="#e8f5e9" stroke="#2e7d32" d="M5636.88,-90C5636.88,-90 5533.12,-90 5533.12,-90 5527.12,-90 5521.12,-84 5521.12,-78 5521.12,-78 5521.12,-66 5521.12,-66 5521.12,-60 5527.12,-54 5533.12,-54 5533.12,-54 5636.88,-54 5636.88,-54 5642.88,-54 5648.88,-60 5648.88,-66 5648.88,-66 5648.88,-78 5648.88,-78 5648.88,-84 5642.88,-90 5636.88,-90"/>
<text xml:space="preserve" text-anchor="middle" x="5585" y="-74.5" font-family="Arial" font-size="10.00">ReplayBundleWriteResult</text>
<text xml:space="preserve" text-anchor="middle" x="5585" y="-62.5" font-family="Arial" font-size="10.00">manifest + sha256</text>
</g>
<!-- Pytest&#45;&gt;ReplayBundleWriteResult -->
<g id="edge46" class="edge">
<title>Pytest&#45;&gt;ReplayBundleWriteResult</title>
<path fill="none" stroke="black" d="M3079.6,-146.05C3079.6,-134.2 3079.6,-121 3079.6,-121 3079.6,-121 5585,-121 5585,-121 5585,-121 5585,-98.76 5585,-98.76"/>
<polygon fill="black" stroke="black" points="5587.45,-98.76 5585,-91.76 5582.55,-98.76 5587.45,-98.76"/>
</g>
<!-- Dot -->
<g id="node3" class="node">
<title>Dot</title>
<path fill="#e3f2fd" stroke="#1565c0" d="M3282.75,-265C3282.75,-265 3169.25,-265 3169.25,-265 3163.25,-265 3157.25,-259 3157.25,-253 3157.25,-253 3157.25,-241 3157.25,-241 3157.25,-235 3163.25,-229 3169.25,-229 3169.25,-229 3282.75,-229 3282.75,-229 3288.75,-229 3294.75,-235 3294.75,-241 3294.75,-241 3294.75,-253 3294.75,-253 3294.75,-259 3288.75,-265 3282.75,-265"/>
<text xml:space="preserve" text-anchor="middle" x="3226" y="-243.5" font-family="Arial" font-size="10.00">cd doc &amp;&amp; make &#45;f makefile</text>
</g>
<!-- Dot&#45;&gt;Pytest -->
<g id="edge48" class="edge">
<title>Dot&#45;&gt;Pytest</title>
<path fill="none" stroke="black" stroke-dasharray="1,5" d="M3170.88,-228.62C3170.88,-209.09 3170.88,-181 3170.88,-181 3170.88,-181 3093.08,-181 3093.08,-181"/>
<polygon fill="black" stroke="black" points="3093.08,-178.55 3086.08,-181 3093.08,-183.45 3093.08,-178.55"/>
<text xml:space="preserve" text-anchor="middle" x="3180.25" y="-202.45" font-family="Arial" font-size="9.00">docs aligned</text>
</g>
<!-- DotLinks -->
<g id="node49" class="node">
<title>DotLinks</title>
<path fill="#e8f5e9" stroke="#2e7d32" d="M5761,-90C5761,-90 5679,-90 5679,-90 5673,-90 5667,-84 5667,-78 5667,-78 5667,-66 5667,-66 5667,-60 5673,-54 5679,-54 5679,-54 5761,-54 5761,-54 5767,-54 5773,-60 5773,-66 5773,-66 5773,-78 5773,-78 5773,-84 5767,-90 5761,-90"/>
<text xml:space="preserve" text-anchor="middle" x="5720" y="-74.5" font-family="Arial" font-size="10.00">DOT links</text>
<text xml:space="preserve" text-anchor="middle" x="5720" y="-62.5" font-family="Arial" font-size="10.00">all URL targets exist</text>
</g>
<!-- Dot&#45;&gt;DotLinks -->
<g id="edge47" class="edge">
<title>Dot&#45;&gt;DotLinks</title>
<path fill="none" stroke="black" d="M3294.98,-247C3697.01,-247 5720,-247 5720,-247 5720,-247 5720,-98.91 5720,-98.91"/>
<polygon fill="black" stroke="black" points="5722.45,-98.91 5720,-91.91 5717.55,-98.91 5722.45,-98.91"/>
</g>
<!-- Nav_Global -->
<g id="node50" class="node">
<title>Nav_Global</title>
<g id="a_node50"><a xlink:href="../00_global.svg" xlink:title="Global">
<path fill="lightgrey" stroke="none" d="M75,-36C75,-36 45,-36 45,-36 39,-36 33,-30 33,-24 33,-24 33,-12 33,-12 33,-6 39,0 45,0 45,0 75,0 75,0 81,0 87,-6 87,-12 87,-12 87,-24 87,-24 87,-30 81,-36 75,-36"/>
<text xml:space="preserve" text-anchor="middle" x="60" y="-14.5" font-family="Arial" font-size="10.00">Global</text>
</a>
</g>
</g>
<!-- Nav_Scheduler -->
<g id="node51" class="node">
<title>Nav_Scheduler</title>
<g id="a_node51"><a xlink:href="../scheduler/10_scheduler.svg" xlink:title="Scheduler">
<path fill="lightgrey" stroke="none" d="M139.75,-36C139.75,-36 104.25,-36 104.25,-36 98.25,-36 92.25,-30 92.25,-24 92.25,-24 92.25,-12 92.25,-12 92.25,-6 98.25,0 104.25,0 104.25,0 139.75,0 139.75,0 145.75,0 151.75,-6 151.75,-12 151.75,-12 151.75,-24 151.75,-24 151.75,-30 145.75,-36 139.75,-36"/>
<text xml:space="preserve" text-anchor="middle" x="122" y="-14.5" font-family="Arial" font-size="10.00">Scheduler</text>
</a>
</g>
</g>
<!-- Nav_Inference -->
<g id="node52" class="node">
<title>Nav_Inference</title>
<g id="a_node52"><a xlink:href="../inference/40_inference.svg" xlink:title="Inference">
<path fill="lightgrey" stroke="none" d="M201.25,-36C201.25,-36 168.75,-36 168.75,-36 162.75,-36 156.75,-30 156.75,-24 156.75,-24 156.75,-12 156.75,-12 156.75,-6 162.75,0 168.75,0 168.75,0 201.25,0 201.25,0 207.25,0 213.25,-6 213.25,-12 213.25,-12 213.25,-24 213.25,-24 213.25,-30 207.25,-36 201.25,-36"/>
<text xml:space="preserve" text-anchor="middle" x="185" y="-14.5" font-family="Arial" font-size="10.00">Inference</text>
</a>
</g>
</g>
<!-- Nav_Policy -->
<g id="node53" class="node">
<title>Nav_Policy</title>
<g id="a_node53"><a xlink:href="../00_global.svg" xlink:title="Policy">
<path fill="lightgrey" stroke="none" d="M260,-36C260,-36 230,-36 230,-36 224,-36 218,-30 218,-24 218,-24 218,-12 218,-12 218,-6 224,0 230,0 230,0 260,0 260,0 266,0 272,-6 272,-12 272,-12 272,-24 272,-24 272,-30 266,-36 260,-36"/>
<text xml:space="preserve" text-anchor="middle" x="245" y="-14.5" font-family="Arial" font-size="10.00">Policy</text>
</a>
</g>
</g>
<!-- Nav_Observability -->
<g id="node54" class="node">
<title>Nav_Observability</title>
<g id="a_node54"><a xlink:href="../observability/70_observability.svg" xlink:title="Observability">
<path fill="lightgrey" stroke="none" d="M338.5,-36C338.5,-36 289.5,-36 289.5,-36 283.5,-36 277.5,-30 277.5,-24 277.5,-24 277.5,-12 277.5,-12 277.5,-6 283.5,0 289.5,0 289.5,0 338.5,0 338.5,0 344.5,0 350.5,-6 350.5,-12 350.5,-12 350.5,-24 350.5,-24 350.5,-30 344.5,-36 338.5,-36"/>
<text xml:space="preserve" text-anchor="middle" x="314" y="-14.5" font-family="Arial" font-size="10.00">Observability</text>
</a>
</g>
</g>
</g>
</svg>
