<?xml version="1.0" encoding="UTF-8" standalone="no"?>
<!DOCTYPE svg PUBLIC "-//W3C//DTD SVG 1.1//EN"
 "http://www.w3.org/Graphics/SVG/1.1/DTD/svg11.dtd">
<!-- Generated by graphviz version 14.1.3 (20260303.0454)
 -->
<!-- Title: GitHubProjectOrchestrator Pages: 1 -->
<svg width="2165pt" height="493pt"
 viewBox="0.00 0.00 2165.00 493.00" xmlns="http://www.w3.org/2000/svg" xmlns:xlink="http://www.w3.org/1999/xlink">
<g id="graph0" class="graph" transform="scale(1 1) rotate(0) translate(4 489)">
<title>GitHubProjectOrchestrator</title>
<polygon fill="#ffffff" stroke="none" points="-4,4 -4,-489 2160.75,-489 2160.75,4 -4,4"/>
<text xml:space="preserve" text-anchor="middle" x="1078.38" y="-463.9" font-family="Arial" font-size="18.00">Phase 4.18&#45;r1 — GitHub Project Orchestrator</text>
<g id="clust1" class="cluster">
<title>cluster_github</title>
<path fill="#e3f2fd" stroke="#bbdefb" d="M1316.5,-81C1316.5,-81 1821.12,-81 1821.12,-81 1827.12,-81 1833.12,-87 1833.12,-93 1833.12,-93 1833.12,-204 1833.12,-204 1833.12,-210 1827.12,-216 1821.12,-216 1821.12,-216 1316.5,-216 1316.5,-216 1310.5,-216 1304.5,-210 1304.5,-204 1304.5,-204 1304.5,-93 1304.5,-93 1304.5,-87 1310.5,-81 1316.5,-81"/>
<text xml:space="preserve" text-anchor="middle" x="1568.81" y="-194.9" font-family="Arial" font-size="18.00">Surface GitHub</text>
</g>
<g id="clust2" class="cluster">
<title>cluster_artifact</title>
<path fill="#fff8e1" stroke="#ffe0b2" d="M1713,-224C1713,-224 2136.75,-224 2136.75,-224 2142.75,-224 2148.75,-230 2148.75,-236 2148.75,-236 2148.75,-293 2148.75,-293 2148.75,-299 2142.75,-305 2136.75,-305 2136.75,-305 1713,-305 1713,-305 1707,-305 1701,-299 1701,-293 1701,-293 1701,-236 1701,-236 1701,-230 1707,-224 1713,-224"/>
<text xml:space="preserve" text-anchor="middle" x="1924.88" y="-283.9" font-family="Arial" font-size="18.00">Artefact de travail</text>
</g>
<g id="clust3" class="cluster">
<title>cluster_local</title>
<path fill="#e8f5e9" stroke="#c8e6c9" d="M211,-162C211,-162 837.5,-162 837.5,-162 843.5,-162 849.5,-168 849.5,-174 849.5,-174 849.5,-231 849.5,-231 849.5,-237 843.5,-243 837.5,-243 837.5,-243 211,-243 211,-243 205,-243 199,-237 199,-231 199,-231 199,-174 199,-174 199,-168 205,-162 211,-162"/>
<text xml:space="preserve" text-anchor="middle" x="524.25" y="-221.9" font-family="Arial" font-size="18.00">Serveur autodoc local</text>
</g>
<g id="clust4" class="cluster">
<title>cluster_feedback</title>
<path fill="#ede7f6" stroke="#d1c4e9" d="M963.25,-108C963.25,-108 1207.25,-108 1207.25,-108 1213.25,-108 1219.25,-114 1219.25,-120 1219.25,-120 1219.25,-231 1219.25,-231 1219.25,-237 1213.25,-243 1207.25,-243 1207.25,-243 963.25,-243 963.25,-243 957.25,-243 951.25,-237 951.25,-231 951.25,-231 951.25,-120 951.25,-120 951.25,-114 957.25,-108 963.25,-108"/>
<text xml:space="preserve" text-anchor="middle" x="1085.25" y="-221.9" font-family="Arial" font-size="18.00">Retour contrôlé</text>
</g>
<g id="clust5" class="cluster">
<title>cluster_rules</title>
<path fill="#ffffff" stroke="#b0bec5" stroke-dasharray="5,2" d="M30.88,-8C30.88,-8 155.12,-8 155.12,-8 161.12,-8 167.12,-14 167.12,-20 167.12,-20 167.12,-239 167.12,-239 167.12,-245 161.12,-251 155.12,-251 155.12,-251 30.88,-251 30.88,-251 24.87,-251 18.88,-245 18.88,-239 18.88,-239 18.88,-20 18.88,-20 18.88,-14 24.88,-8 30.88,-8"/>
<text xml:space="preserve" text-anchor="middle" x="93" y="-229.9" font-family="Arial" font-size="18.00">Règles</text>
</g>
<g id="clust6" class="cluster">
<title>cluster_navigation</title>
<path fill="#ffffff" stroke="#90a4ae" stroke-dasharray="5,2" d="M20,-259C20,-259 166,-259 166,-259 172,-259 178,-265 178,-271 178,-271 178,-436 178,-436 178,-442 172,-448 166,-448 166,-448 20,-448 20,-448 14,-448 8,-442 8,-436 8,-436 8,-271 8,-271 8,-265 14,-259 20,-259"/>
<text xml:space="preserve" text-anchor="middle" x="93" y="-426.9" font-family="Arial" font-size="18.00">Navigation</text>
</g>
<!-- Project -->
<g id="node1" class="node">
<title>Project</title>
<path fill="#f5f5f5" stroke="#546e7a" d="M1384,-141C1384,-141 1324.5,-141 1324.5,-141 1318.5,-141 1312.5,-135 1312.5,-129 1312.5,-129 1312.5,-117 1312.5,-117 1312.5,-111 1318.5,-105 1324.5,-105 1324.5,-105 1384,-105 1384,-105 1390,-105 1396,-111 1396,-117 1396,-117 1396,-129 1396,-129 1396,-135 1390,-141 1384,-141"/>
<text xml:space="preserve" text-anchor="middle" x="1354.25" y="-125.5" font-family="Arial" font-size="10.00">GitHub Project</text>
<text xml:space="preserve" text-anchor="middle" x="1354.25" y="-113.5" font-family="Arial" font-size="10.00">kanban / status</text>
</g>
<!-- Issue -->
<g id="node2" class="node">
<title>Issue</title>
<path fill="#f5f5f5" stroke="#546e7a" d="M1518.75,-125C1518.75,-125 1445,-125 1445,-125 1439,-125 1433,-119 1433,-113 1433,-113 1433,-101 1433,-101 1433,-95 1439,-89 1445,-89 1445,-89 1518.75,-89 1518.75,-89 1524.75,-89 1530.75,-95 1530.75,-101 1530.75,-101 1530.75,-113 1530.75,-113 1530.75,-119 1524.75,-125 1518.75,-125"/>
<text xml:space="preserve" text-anchor="middle" x="1481.88" y="-109.5" font-family="Arial" font-size="10.00">Issue / ticket</text>
<text xml:space="preserve" text-anchor="middle" x="1481.88" y="-97.5" font-family="Arial" font-size="10.00">intention utilisateur</text>
</g>
<!-- Project&#45;&gt;Issue -->
<g id="edge1" class="edge">
<title>Project&#45;&gt;Issue</title>
<path fill="none" stroke="#455a64" d="M1396.38,-117.76C1404.35,-116.75 1412.85,-115.66 1421.28,-114.59"/>
<polygon fill="#455a64" stroke="#455a64" points="1421.68,-118.07 1431.16,-113.33 1420.8,-111.12 1421.68,-118.07"/>
</g>
<!-- Action -->
<g id="node4" class="node">
<title>Action</title>
<path fill="#f5f5f5" stroke="#546e7a" d="M1637.75,-179C1637.75,-179 1579.75,-179 1579.75,-179 1573.75,-179 1567.75,-173 1567.75,-167 1567.75,-167 1567.75,-155 1567.75,-155 1567.75,-149 1573.75,-143 1579.75,-143 1579.75,-143 1637.75,-143 1637.75,-143 1643.75,-143 1649.75,-149 1649.75,-155 1649.75,-155 1649.75,-167 1649.75,-167 1649.75,-173 1643.75,-179 1637.75,-179"/>
<text xml:space="preserve" text-anchor="middle" x="1608.75" y="-163.5" font-family="Arial" font-size="10.00">GitHub Action</text>
<text xml:space="preserve" text-anchor="middle" x="1608.75" y="-151.5" font-family="Arial" font-size="10.00">triage + artifact</text>
</g>
<!-- Issue&#45;&gt;Action -->
<g id="edge3" class="edge">
<title>Issue&#45;&gt;Action</title>
<path fill="none" stroke="#455a64" d="M1525.5,-125.43C1535.67,-129.83 1546.63,-134.57 1557.13,-139.11"/>
<polygon fill="#455a64" stroke="#455a64" points="1555.47,-142.2 1566.03,-142.96 1558.24,-135.78 1555.47,-142.2"/>
</g>
<!-- Push -->
<g id="node3" class="node">
<title>Push</title>
<path fill="#f5f5f5" stroke="#546e7a" d="M1510.12,-179C1510.12,-179 1453.62,-179 1453.62,-179 1447.62,-179 1441.62,-173 1441.62,-167 1441.62,-167 1441.62,-155 1441.62,-155 1441.62,-149 1447.62,-143 1453.62,-143 1453.62,-143 1510.12,-143 1510.12,-143 1516.12,-143 1522.12,-149 1522.12,-155 1522.12,-155 1522.12,-167 1522.12,-167 1522.12,-173 1516.12,-179 1510.12,-179"/>
<text xml:space="preserve" text-anchor="middle" x="1481.88" y="-163.5" font-family="Arial" font-size="10.00">push / branche</text>
<text xml:space="preserve" text-anchor="middle" x="1481.88" y="-151.5" font-family="Arial" font-size="10.00">source brute</text>
</g>
<!-- Push&#45;&gt;Action -->
<g id="edge2" class="edge">
<title>Push&#45;&gt;Action</title>
<path fill="none" stroke="#455a64" d="M1522.39,-161C1533.1,-161 1544.86,-161 1556.13,-161"/>
<polygon fill="#455a64" stroke="#455a64" points="1556.12,-164.5 1566.12,-161 1556.12,-157.5 1556.12,-164.5"/>
</g>
<!-- Copilot -->
<g id="node5" class="node">
<title>Copilot</title>
<path fill="#f5f5f5" stroke="#546e7a" d="M1813.12,-179C1813.12,-179 1746.88,-179 1746.88,-179 1740.88,-179 1734.88,-173 1734.88,-167 1734.88,-167 1734.88,-155 1734.88,-155 1734.88,-149 1740.88,-143 1746.88,-143 1746.88,-143 1813.12,-143 1813.12,-143 1819.12,-143 1825.12,-149 1825.12,-155 1825.12,-155 1825.12,-167 1825.12,-167 1825.12,-173 1819.12,-179 1813.12,-179"/>
<text xml:space="preserve" text-anchor="middle" x="1780" y="-163.5" font-family="Arial" font-size="10.00">Copilot metadata</text>
<text xml:space="preserve" text-anchor="middle" x="1780" y="-151.5" font-family="Arial" font-size="10.00">optionnel</text>
</g>
<!-- Action&#45;&gt;Copilot -->
<g id="edge4" class="edge">
<title>Action&#45;&gt;Copilot</title>
<path fill="none" stroke="#455a64" d="M1649.86,-161C1671.7,-161 1699.07,-161 1722.99,-161"/>
<polygon fill="#455a64" stroke="#455a64" points="1722.9,-164.5 1732.9,-161 1722.9,-157.5 1722.9,-164.5"/>
<text xml:space="preserve" text-anchor="middle" x="1679.38" y="-162.95" font-family="Arial" font-size="9.00">triage</text>
</g>
<!-- Artifact -->
<g id="node6" class="node">
<title>Artifact</title>
<path fill="#f5f5f5" stroke="#546e7a" d="M1839,-268C1839,-268 1721,-268 1721,-268 1715,-268 1709,-262 1709,-256 1709,-256 1709,-244 1709,-244 1709,-238 1715,-232 1721,-232 1721,-232 1839,-232 1839,-232 1845,-232 1851,-238 1851,-244 1851,-244 1851,-256 1851,-256 1851,-262 1845,-268 1839,-268"/>
<text xml:space="preserve" text-anchor="middle" x="1780" y="-252.5" font-family="Arial" font-size="10.00">missipy.source_candidate.v1</text>
<text xml:space="preserve" text-anchor="middle" x="1780" y="-240.5" font-family="Arial" font-size="10.00">metadata + raw content</text>
</g>
<!-- Action&#45;&gt;Artifact -->
<g id="edge6" class="edge">
<title>Action&#45;&gt;Artifact</title>
<path fill="none" stroke="#455a64" d="M1634.86,-179.26C1652.73,-191.74 1677.63,-208.11 1701,-220 1705.96,-222.53 1711.19,-224.97 1716.5,-227.3"/>
<polygon fill="#455a64" stroke="#455a64" points="1714.77,-230.37 1725.34,-231.03 1717.49,-223.92 1714.77,-230.37"/>
</g>
<!-- Copilot&#45;&gt;Artifact -->
<g id="edge5" class="edge">
<title>Copilot&#45;&gt;Artifact</title>
<path fill="none" stroke="#455a64" d="M1780,-179.43C1780,-192.99 1780,-206.56 1780,-220.13"/>
<polygon fill="#455a64" stroke="#455a64" points="1776.5,-220.02 1780,-230.02 1783.5,-220.02 1776.5,-220.02"/>
</g>
<!-- Policy -->
<g id="node7" class="node">
<title>Policy</title>
<path fill="#f5f5f5" stroke="#546e7a" d="M2004.5,-268C2004.5,-268 1900,-268 1900,-268 1894,-268 1888,-262 1888,-256 1888,-256 1888,-244 1888,-244 1888,-238 1894,-232 1900,-232 1900,-232 2004.5,-232 2004.5,-232 2010.5,-232 2016.5,-238 2016.5,-244 2016.5,-244 2016.5,-256 2016.5,-256 2016.5,-262 2010.5,-268 2004.5,-268"/>
<text xml:space="preserve" text-anchor="middle" x="1952.25" y="-252.5" font-family="Arial" font-size="10.00">context_policy</text>
<text xml:space="preserve" text-anchor="middle" x="1952.25" y="-240.5" font-family="Arial" font-size="10.00">validation + cross&#45;context</text>
</g>
<!-- Artifact&#45;&gt;Policy -->
<g id="edge7" class="edge">
<title>Artifact&#45;&gt;Policy</title>
<path fill="none" stroke="#455a64" d="M1851.23,-250C1859.54,-250 1868.05,-250 1876.42,-250"/>
<polygon fill="#455a64" stroke="#455a64" points="1876.21,-253.5 1886.21,-250 1876.21,-246.5 1876.21,-253.5"/>
</g>
<!-- Transport -->
<g id="node8" class="node">
<title>Transport</title>
<path fill="#f5f5f5" stroke="#546e7a" d="M2128.75,-268C2128.75,-268 2065.5,-268 2065.5,-268 2059.5,-268 2053.5,-262 2053.5,-256 2053.5,-256 2053.5,-244 2053.5,-244 2053.5,-238 2059.5,-232 2065.5,-232 2065.5,-232 2128.75,-232 2128.75,-232 2134.75,-232 2140.75,-238 2140.75,-244 2140.75,-244 2140.75,-256 2140.75,-256 2140.75,-262 2134.75,-268 2128.75,-268"/>
<text xml:space="preserve" text-anchor="middle" x="2097.12" y="-252.5" font-family="Arial" font-size="10.00">artifact transport</text>
<text xml:space="preserve" text-anchor="middle" x="2097.12" y="-240.5" font-family="Arial" font-size="10.00">GitHub Actions</text>
</g>
<!-- Policy&#45;&gt;Transport -->
<g id="edge8" class="edge">
<title>Policy&#45;&gt;Transport</title>
<path fill="none" stroke="#455a64" d="M2016.75,-250C2025.16,-250 2033.72,-250 2041.95,-250"/>
<polygon fill="#455a64" stroke="#455a64" points="2041.81,-253.5 2051.81,-250 2041.81,-246.5 2041.81,-253.5"/>
</g>
<!-- Polling -->
<g id="node9" class="node">
<title>Polling</title>
<path fill="#f5f5f5" stroke="#546e7a" d="M283.75,-206C283.75,-206 219,-206 219,-206 213,-206 207,-200 207,-194 207,-194 207,-182 207,-182 207,-176 213,-170 219,-170 219,-170 283.75,-170 283.75,-170 289.75,-170 295.75,-176 295.75,-182 295.75,-182 295.75,-194 295.75,-194 295.75,-200 289.75,-206 283.75,-206"/>
<text xml:space="preserve" text-anchor="middle" x="251.38" y="-190.5" font-family="Arial" font-size="10.00">polling / import</text>
<text xml:space="preserve" text-anchor="middle" x="251.38" y="-178.5" font-family="Arial" font-size="10.00">future integration</text>
</g>
<!-- Transport&#45;&gt;Polling -->
<g id="edge9" class="edge">
<title>Transport&#45;&gt;Polling</title>
<path fill="none" stroke="#455a64" d="M2060.15,-268.44C2031.85,-281.24 1991.03,-296 1953.25,-296 382.88,-296 382.88,-296 382.88,-296 332.5,-296 291.12,-247.65 269.24,-215.65"/>
<polygon fill="#455a64" stroke="#455a64" points="272.35,-214.01 263.92,-207.58 266.5,-217.86 272.35,-214.01"/>
</g>
<!-- Intake -->
<g id="node10" class="node">
<title>Intake</title>
<path fill="#f5f5f5" stroke="#546e7a" d="M423,-206C423,-206 344.75,-206 344.75,-206 338.75,-206 332.75,-200 332.75,-194 332.75,-194 332.75,-182 332.75,-182 332.75,-176 338.75,-170 344.75,-170 344.75,-170 423,-170 423,-170 429,-170 435,-176 435,-182 435,-182 435,-194 435,-194 435,-200 429,-206 423,-206"/>
<text xml:space="preserve" text-anchor="middle" x="383.88" y="-184.5" font-family="Arial" font-size="10.00">Work Artifact Intake</text>
</g>
<!-- Polling&#45;&gt;Intake -->
<g id="edge10" class="edge">
<title>Polling&#45;&gt;Intake</title>
<path fill="none" stroke="#455a64" d="M296.19,-188C304.24,-188 312.77,-188 321.22,-188"/>
<polygon fill="#455a64" stroke="#455a64" points="321.13,-191.5 331.13,-188 321.13,-184.5 321.13,-191.5"/>
</g>
<!-- Candidate -->
<g id="node11" class="node">
<title>Candidate</title>
<g id="a_node11"><a xlink:href="91_source_candidate_lifecycle.svg" xlink:title="SourceCandidate">
<path fill="#f5f5f5" stroke="#546e7a" d="M551,-206C551,-206 484,-206 484,-206 478,-206 472,-200 472,-194 472,-194 472,-182 472,-182 472,-176 478,-170 484,-170 484,-170 551,-170 551,-170 557,-170 563,-176 563,-182 563,-182 563,-194 563,-194 563,-200 557,-206 551,-206"/>
<text xml:space="preserve" text-anchor="middle" x="517.5" y="-184.5" font-family="Arial" font-size="10.00">SourceCandidate</text>
</a>
</g>
</g>
<!-- Intake&#45;&gt;Candidate -->
<g id="edge11" class="edge">
<title>Intake&#45;&gt;Candidate</title>
<path fill="none" stroke="#455a64" d="M435.39,-188C443.47,-188 451.88,-188 460.08,-188"/>
<polygon fill="#455a64" stroke="#455a64" points="459.99,-191.5 469.99,-188 459.99,-184.5 459.99,-191.5"/>
</g>
<!-- Engine -->
<g id="node12" class="node">
<title>Engine</title>
<g id="a_node12"><a xlink:href="../inference/72_e5_dry_run_artifact_dir.svg" xlink:title="E5 / context / prompt&#10;enrichissement local">
<path fill="#f5f5f5" stroke="#546e7a" d="M696.25,-206C696.25,-206 612,-206 612,-206 606,-206 600,-200 600,-194 600,-194 600,-182 600,-182 600,-176 606,-170 612,-170 612,-170 696.25,-170 696.25,-170 702.25,-170 708.25,-176 708.25,-182 708.25,-182 708.25,-194 708.25,-194 708.25,-200 702.25,-206 696.25,-206"/>
<text xml:space="preserve" text-anchor="middle" x="654.12" y="-190.5" font-family="Arial" font-size="10.00">E5 / context / prompt</text>
<text xml:space="preserve" text-anchor="middle" x="654.12" y="-178.5" font-family="Arial" font-size="10.00">enrichissement local</text>
</a>
</g>
</g>
<!-- Candidate&#45;&gt;Engine -->
<g id="edge12" class="edge">
<title>Candidate&#45;&gt;Engine</title>
<path fill="none" stroke="#455a64" d="M563.33,-188C571.32,-188 579.79,-188 588.21,-188"/>
<polygon fill="#455a64" stroke="#455a64" points="588.1,-191.5 598.1,-188 588.1,-184.5 588.1,-191.5"/>
</g>
<!-- LocalSource -->
<g id="node13" class="node">
<title>LocalSource</title>
<path fill="#f5f5f5" stroke="#546e7a" d="M829.5,-206C829.5,-206 757.25,-206 757.25,-206 751.25,-206 745.25,-200 745.25,-194 745.25,-194 745.25,-182 745.25,-182 745.25,-176 751.25,-170 757.25,-170 757.25,-170 829.5,-170 829.5,-170 835.5,-170 841.5,-176 841.5,-182 841.5,-182 841.5,-194 841.5,-194 841.5,-200 835.5,-206 829.5,-206"/>
<text xml:space="preserve" text-anchor="middle" x="793.38" y="-190.5" font-family="Arial" font-size="10.00">source autoritative</text>
<text xml:space="preserve" text-anchor="middle" x="793.38" y="-178.5" font-family="Arial" font-size="10.00">serveur local</text>
</g>
<!-- Engine&#45;&gt;LocalSource -->
<g id="edge13" class="edge">
<title>Engine&#45;&gt;LocalSource</title>
<path fill="none" stroke="#455a64" d="M708.58,-188C716.86,-188 725.45,-188 733.84,-188"/>
<polygon fill="#455a64" stroke="#455a64" points="733.58,-191.5 743.58,-188 733.58,-184.5 733.58,-191.5"/>
</g>
<!-- Report -->
<g id="node14" class="node">
<title>Report</title>
<path fill="#f5f5f5" stroke="#546e7a" d="M1024.75,-152C1024.75,-152 971.25,-152 971.25,-152 965.25,-152 959.25,-146 959.25,-140 959.25,-140 959.25,-128 959.25,-128 959.25,-122 965.25,-116 971.25,-116 971.25,-116 1024.75,-116 1024.75,-116 1030.75,-116 1036.75,-122 1036.75,-128 1036.75,-128 1036.75,-140 1036.75,-140 1036.75,-146 1030.75,-152 1024.75,-152"/>
<text xml:space="preserve" text-anchor="middle" x="998" y="-130.5" font-family="Arial" font-size="10.00">rapport enrichi</text>
</g>
<!-- LocalSource&#45;&gt;Report -->
<g id="edge14" class="edge">
<title>LocalSource&#45;&gt;Report</title>
<path fill="none" stroke="#455a64" d="M841.88,-175.34C873.8,-166.83 915.74,-155.65 947.97,-147.07"/>
<polygon fill="#455a64" stroke="#455a64" points="948.71,-150.49 957.47,-144.54 946.9,-143.73 948.71,-150.49"/>
</g>
<!-- PR -->
<g id="node16" class="node">
<title>PR</title>
<path fill="#f5f5f5" stroke="#546e7a" d="M1021.75,-206C1021.75,-206 974.25,-206 974.25,-206 968.25,-206 962.25,-200 962.25,-194 962.25,-194 962.25,-182 962.25,-182 962.25,-176 968.25,-170 974.25,-170 974.25,-170 1021.75,-170 1021.75,-170 1027.75,-170 1033.75,-176 1033.75,-182 1033.75,-182 1033.75,-194 1033.75,-194 1033.75,-200 1027.75,-206 1021.75,-206"/>
<text xml:space="preserve" text-anchor="middle" x="998" y="-190.5" font-family="Arial" font-size="10.00">PR / commit</text>
<text xml:space="preserve" text-anchor="middle" x="998" y="-178.5" font-family="Arial" font-size="10.00">si stabilisé</text>
</g>
<!-- LocalSource&#45;&gt;PR -->
<g id="edge19" class="edge">
<title>LocalSource&#45;&gt;PR</title>
<path fill="none" stroke="#455a64" stroke-dasharray="5,2" d="M841.88,-188C874.59,-188 917.85,-188 950.37,-188"/>
<polygon fill="#455a64" stroke="#455a64" points="950.31,-191.5 960.31,-188 950.31,-184.5 950.31,-191.5"/>
<text xml:space="preserve" text-anchor="middle" x="900.38" y="-189.95" font-family="Arial" font-size="9.00">projection stabilisée</text>
</g>
<!-- Status -->
<g id="node15" class="node">
<title>Status</title>
<path fill="#f5f5f5" stroke="#546e7a" d="M1199.25,-206C1199.25,-206 1085.75,-206 1085.75,-206 1079.75,-206 1073.75,-200 1073.75,-194 1073.75,-194 1073.75,-182 1073.75,-182 1073.75,-176 1079.75,-170 1085.75,-170 1085.75,-170 1199.25,-170 1199.25,-170 1205.25,-170 1211.25,-176 1211.25,-182 1211.25,-182 1211.25,-194 1211.25,-194 1211.25,-200 1205.25,-206 1199.25,-206"/>
<text xml:space="preserve" text-anchor="middle" x="1142.5" y="-184.5" font-family="Arial" font-size="10.00">status / label / commentaire</text>
</g>
<!-- Report&#45;&gt;Status -->
<g id="edge15" class="edge">
<title>Report&#45;&gt;Status</title>
<path fill="none" stroke="#455a64" d="M1037.19,-148.47C1051.05,-153.73 1067.07,-159.79 1082.32,-165.57"/>
<polygon fill="#455a64" stroke="#455a64" points="1080.71,-168.71 1091.3,-168.98 1083.19,-162.16 1080.71,-168.71"/>
</g>
<!-- User -->
<g id="node17" class="node">
<title>User</title>
<path fill="#f5f5f5" stroke="#546e7a" d="M1181.62,-152C1181.62,-152 1103.38,-152 1103.38,-152 1097.38,-152 1091.38,-146 1091.38,-140 1091.38,-140 1091.38,-128 1091.38,-128 1091.38,-122 1097.38,-116 1103.38,-116 1103.38,-116 1181.62,-116 1181.62,-116 1187.62,-116 1193.62,-122 1193.62,-128 1193.62,-128 1193.62,-140 1193.62,-140 1193.62,-146 1187.62,-152 1181.62,-152"/>
<text xml:space="preserve" text-anchor="middle" x="1142.5" y="-130.5" font-family="Arial" font-size="10.00">validation utilisateur</text>
</g>
<!-- Report&#45;&gt;User -->
<g id="edge17" class="edge">
<title>Report&#45;&gt;User</title>
<path fill="none" stroke="#455a64" d="M1037.19,-134C1050.26,-134 1065.25,-134 1079.7,-134"/>
<polygon fill="#455a64" stroke="#455a64" points="1079.62,-137.5 1089.62,-134 1079.62,-130.5 1079.62,-137.5"/>
</g>
<!-- Status&#45;&gt;Project -->
<g id="edge16" class="edge">
<title>Status&#45;&gt;Project</title>
<path fill="none" stroke="#455a64" d="M1209.91,-169.58C1236.35,-162 1266.97,-152.92 1294.5,-144 1296.84,-143.24 1299.24,-142.45 1301.65,-141.64"/>
<polygon fill="#455a64" stroke="#455a64" points="1302.51,-145.04 1310.84,-138.49 1300.24,-138.42 1302.51,-145.04"/>
</g>
<!-- PR&#45;&gt;Push -->
<g id="edge20" class="edge">
<title>PR&#45;&gt;Push</title>
<path fill="none" stroke="#455a64" stroke-dasharray="5,2" d="M1034.05,-203.49C1046.35,-208.16 1060.43,-212.67 1073.75,-215 1201.61,-237.38 1353.5,-200.62 1430.59,-177.52"/>
<polygon fill="#455a64" stroke="#455a64" points="1431.42,-180.93 1439.96,-174.66 1429.37,-174.23 1431.42,-180.93"/>
<text xml:space="preserve" text-anchor="middle" x="1261.88" y="-220.28" font-family="Arial" font-size="9.00">nouvelle boucle</text>
</g>
<!-- User&#45;&gt;Project -->
<g id="edge18" class="edge">
<title>User&#45;&gt;Project</title>
<path fill="none" stroke="#455a64" d="M1194.01,-131.35C1226.43,-129.65 1268.43,-127.45 1301.16,-125.73"/>
<polygon fill="#455a64" stroke="#455a64" points="1301.01,-129.24 1310.81,-125.23 1300.64,-122.25 1301.01,-129.24"/>
<text xml:space="preserve" text-anchor="middle" x="1261.88" y="-131.44" font-family="Arial" font-size="9.00">valide / relance</text>
</g>
<!-- GitHubNotSource -->
<g id="node18" class="node">
<title>GitHubNotSource</title>
<path fill="#f5f5f5" stroke="#546e7a" d="M129.12,-106C129.12,-106 56.88,-106 56.88,-106 50.88,-106 44.88,-100 44.88,-94 44.88,-94 44.88,-82 44.88,-82 44.88,-76 50.88,-70 56.88,-70 56.88,-70 129.12,-70 129.12,-70 135.12,-70 141.12,-76 141.12,-82 141.12,-82 141.12,-94 141.12,-94 141.12,-100 135.12,-106 129.12,-106"/>
<text xml:space="preserve" text-anchor="middle" x="93" y="-90.5" font-family="Arial" font-size="10.00">GitHub n&#39;est pas</text>
<text xml:space="preserve" text-anchor="middle" x="93" y="-78.5" font-family="Arial" font-size="10.00">source autoritative</text>
</g>
<!-- GitHubNotSource&#45;&gt;Project -->
<g id="edge21" class="edge">
<title>GitHubNotSource&#45;&gt;Project</title>
<path fill="none" stroke="#455a64" stroke-dasharray="5,2" d="M141.56,-88C172.55,-88 213.86,-88 250.38,-88 250.38,-88 250.38,-88 1143.5,-88 1197.78,-88 1258.89,-99.54 1301.09,-109.37"/>
<polygon fill="#455a64" stroke="#455a64" points="1300.19,-112.75 1310.73,-111.67 1301.81,-105.95 1300.19,-112.75"/>
</g>
<!-- LocalAuthority -->
<g id="node19" class="node">
<title>LocalAuthority</title>
<path fill="#f5f5f5" stroke="#546e7a" d="M119.38,-160C119.38,-160 66.62,-160 66.62,-160 60.62,-160 54.62,-154 54.62,-148 54.62,-148 54.62,-136 54.62,-136 54.62,-130 60.62,-124 66.62,-124 66.62,-124 119.38,-124 119.38,-124 125.38,-124 131.38,-130 131.38,-136 131.38,-136 131.38,-148 131.38,-148 131.38,-154 125.38,-160 119.38,-160"/>
<text xml:space="preserve" text-anchor="middle" x="93" y="-144.5" font-family="Arial" font-size="10.00">autorité locale</text>
<text xml:space="preserve" text-anchor="middle" x="93" y="-132.5" font-family="Arial" font-size="10.00">serveur</text>
</g>
<!-- LocalAuthority&#45;&gt;LocalSource -->
<g id="edge22" class="edge">
<title>LocalAuthority&#45;&gt;LocalSource</title>
<path fill="none" stroke="#455a64" stroke-dasharray="5,2" d="M131.6,-142C163.28,-142 209.79,-142 250.38,-142 250.38,-142 250.38,-142 655.12,-142 687.15,-142 721.31,-153.4 747.53,-164.85"/>
<polygon fill="#455a64" stroke="#455a64" points="745.96,-167.98 756.52,-168.93 748.86,-161.61 745.96,-167.98"/>
</g>
<!-- OptionalCopilot -->
<g id="node20" class="node">
<title>OptionalCopilot</title>
<path fill="#f5f5f5" stroke="#546e7a" d="M147.12,-52C147.12,-52 38.88,-52 38.88,-52 32.88,-52 26.88,-46 26.88,-40 26.88,-40 26.88,-28 26.88,-28 26.88,-22 32.88,-16 38.88,-16 38.88,-16 147.12,-16 147.12,-16 153.12,-16 159.12,-22 159.12,-28 159.12,-28 159.12,-40 159.12,-40 159.12,-46 153.12,-52 147.12,-52"/>
<text xml:space="preserve" text-anchor="middle" x="93" y="-36.5" font-family="Arial" font-size="10.00">Copilot optionnel</text>
<text xml:space="preserve" text-anchor="middle" x="93" y="-24.5" font-family="Arial" font-size="10.00">pas une dépendance cœur</text>
</g>
<!-- OptionalCopilot&#45;&gt;Copilot -->
<g id="edge23" class="edge">
<title>OptionalCopilot&#45;&gt;Copilot</title>
<path fill="none" stroke="#455a64" stroke-dasharray="5,2" d="M159.39,-38.84C187.4,-40.52 220.47,-42 250.38,-42 250.38,-42 250.38,-42 1609.75,-42 1673.22,-42 1729.71,-98.7 1758.62,-133.82"/>
<polygon fill="#455a64" stroke="#455a64" points="1755.76,-135.86 1764.74,-141.49 1761.23,-131.49 1755.76,-135.86"/>
</g>
<!-- NoRuntime -->
<g id="node21" class="node">
<title>NoRuntime</title>
<path fill="#f5f5f5" stroke="#546e7a" d="M145.62,-214C145.62,-214 40.38,-214 40.38,-214 34.38,-214 28.38,-208 28.38,-202 28.38,-202 28.38,-190 28.38,-190 28.38,-184 34.38,-178 40.38,-178 40.38,-178 145.62,-178 145.62,-178 151.62,-178 157.62,-184 157.62,-190 157.62,-190 157.62,-202 157.62,-202 157.62,-208 151.62,-214 145.62,-214"/>
<text xml:space="preserve" text-anchor="middle" x="93" y="-198.5" font-family="Arial" font-size="10.00">phase documentaire</text>
<text xml:space="preserve" text-anchor="middle" x="93" y="-186.5" font-family="Arial" font-size="10.00">pas d&#39;API / pas de réseau</text>
</g>
<!-- NoRuntime&#45;&gt;Polling -->
<g id="edge24" class="edge">
<title>NoRuntime&#45;&gt;Polling</title>
<path fill="none" stroke="#455a64" stroke-dasharray="5,2" d="M158.05,-192.72C170.46,-192.09 183.35,-191.43 195.42,-190.81"/>
<polygon fill="#455a64" stroke="#455a64" points="195.39,-194.32 205.2,-190.31 195.03,-187.33 195.39,-194.32"/>
</g>
<!-- Global -->
<g id="node22" class="node">
<title>Global</title>
<g id="a_node22"><a xlink:href="../00_global.svg" xlink:title="← Global architecture">
<path fill="#f5f5f5" stroke="none" d="M136.25,-303C136.25,-303 49.75,-303 49.75,-303 43.75,-303 37.75,-297 37.75,-291 37.75,-291 37.75,-279 37.75,-279 37.75,-273 43.75,-267 49.75,-267 49.75,-267 136.25,-267 136.25,-267 142.25,-267 148.25,-273 148.25,-279 148.25,-279 148.25,-291 148.25,-291 148.25,-297 142.25,-303 136.25,-303"/>
<text xml:space="preserve" text-anchor="middle" x="93" y="-281.5" font-family="Arial" font-size="10.00">← Global architecture</text>
</a>
</g>
</g>
<!-- Parent -->
<g id="node23" class="node">
<title>Parent</title>
<g id="a_node23"><a xlink:href="../inference/72_e5_dry_run_artifact_dir.svg" xlink:title="← E5 dry&#45;run artifact dir">
<path fill="#f5f5f5" stroke="none" d="M141.12,-357C141.12,-357 44.88,-357 44.88,-357 38.88,-357 32.88,-351 32.88,-345 32.88,-345 32.88,-333 32.88,-333 32.88,-327 38.88,-321 44.88,-321 44.88,-321 141.12,-321 141.12,-321 147.12,-321 153.12,-327 153.12,-333 153.12,-333 153.12,-345 153.12,-345 153.12,-351 147.12,-357 141.12,-357"/>
<text xml:space="preserve" text-anchor="middle" x="93" y="-335.5" font-family="Arial" font-size="10.00">← E5 dry&#45;run artifact dir</text>
</a>
</g>
</g>
<!-- Next -->
<g id="node24" class="node">
<title>Next</title>
<g id="a_node24"><a xlink:href="91_source_candidate_lifecycle.svg" xlink:title="next: source candidate lifecycle">
<path fill="#f5f5f5" stroke="none" d="M158,-411C158,-411 28,-411 28,-411 22,-411 16,-405 16,-399 16,-399 16,-387 16,-387 16,-381 22,-375 28,-375 28,-375 158,-375 158,-375 164,-375 170,-381 170,-387 170,-387 170,-399 170,-399 170,-405 164,-411 158,-411"/>
<text xml:space="preserve" text-anchor="middle" x="93" y="-389.5" font-family="Arial" font-size="10.00">next: source candidate lifecycle</text>
</a>
</g>
</g>
</g>
</svg>
