<?xml version="1.0" encoding="UTF-8" standalone="no"?>
<!DOCTYPE svg PUBLIC "-//W3C//DTD SVG 1.1//EN"
 "http://www.w3.org/Graphics/SVG/1.1/DTD/svg11.dtd">
<!-- Generated by graphviz version 14.1.3 (20260303.0454)
 -->
<!-- Title: SourceCandidateLifecycle Pages: 1 -->
<svg width="1204pt" height="770pt"
 viewBox="0.00 0.00 1204.00 770.00" xmlns="http://www.w3.org/2000/svg" xmlns:xlink="http://www.w3.org/1999/xlink">
<g id="graph0" class="graph" transform="scale(1 1) rotate(0) translate(4 766)">
<title>SourceCandidateLifecycle</title>
<polygon fill="#ffffff" stroke="none" points="-4,4 -4,-766 1200.25,-766 1200.25,4 -4,4"/>
<text xml:space="preserve" text-anchor="middle" x="598.12" y="-740.9" font-family="Arial" font-size="18.00">Phase 4.18&#45;r1 — Source Candidate Lifecycle</text>
<g id="clust1" class="cluster">
<title>cluster_inputs</title>
<path fill="#e3f2fd" stroke="#bbdefb" d="M19.5,-285C19.5,-285 163.75,-285 163.75,-285 169.75,-285 175.75,-291 175.75,-297 175.75,-297 175.75,-516 175.75,-516 175.75,-522 169.75,-528 163.75,-528 163.75,-528 19.5,-528 19.5,-528 13.5,-528 7.5,-522 7.5,-516 7.5,-516 7.5,-297 7.5,-297 7.5,-291 13.5,-285 19.5,-285"/>
<text xml:space="preserve" text-anchor="middle" x="91.62" y="-506.9" font-family="Arial" font-size="18.00">Entrées candidates</text>
</g>
<g id="clust2" class="cluster">
<title>cluster_states</title>
<path fill="#fff8e1" stroke="#ffe0b2" d="M208.75,-259C208.75,-259 766.75,-259 766.75,-259 772.75,-259 778.75,-265 778.75,-271 778.75,-271 778.75,-436 778.75,-436 778.75,-442 772.75,-448 766.75,-448 766.75,-448 208.75,-448 208.75,-448 202.75,-448 196.75,-442 196.75,-436 196.75,-436 196.75,-271 196.75,-271 196.75,-265 202.75,-259 208.75,-259"/>
<text xml:space="preserve" text-anchor="middle" x="487.75" y="-426.9" font-family="Arial" font-size="18.00">États</text>
</g>
<g id="clust3" class="cluster">
<title>cluster_decision</title>
<path fill="#e8f5e9" stroke="#c8e6c9" d="M811.75,-259C811.75,-259 1176.25,-259 1176.25,-259 1182.25,-259 1188.25,-265 1188.25,-271 1188.25,-271 1188.25,-382 1188.25,-382 1188.25,-388 1182.25,-394 1176.25,-394 1176.25,-394 811.75,-394 811.75,-394 805.75,-394 799.75,-388 799.75,-382 799.75,-382 799.75,-271 799.75,-271 799.75,-265 805.75,-259 811.75,-259"/>
<text xml:space="preserve" text-anchor="middle" x="994" y="-372.9" font-family="Arial" font-size="18.00">Décision de contexte</text>
</g>
<g id="clust4" class="cluster">
<title>cluster_validation</title>
<path fill="#ffffff" stroke="#b0bec5" stroke-dasharray="5,2" d="M481.75,-8C481.75,-8 576,-8 576,-8 582,-8 588,-14 588,-20 588,-20 588,-239 588,-239 588,-245 582,-251 576,-251 576,-251 481.75,-251 481.75,-251 475.75,-251 469.75,-245 469.75,-239 469.75,-239 469.75,-20 469.75,-20 469.75,-14 475.75,-8 481.75,-8"/>
<text xml:space="preserve" text-anchor="middle" x="528.88" y="-229.9" font-family="Arial" font-size="18.00">Validation</text>
</g>
<g id="clust5" class="cluster">
<title>cluster_navigation</title>
<path fill="#ffffff" stroke="#90a4ae" stroke-dasharray="5,2" d="M20,-536C20,-536 162.25,-536 162.25,-536 168.25,-536 174.25,-542 174.25,-548 174.25,-548 174.25,-713 174.25,-713 174.25,-719 168.25,-725 162.25,-725 162.25,-725 20,-725 20,-725 14,-725 8,-719 8,-713 8,-713 8,-548 8,-548 8,-542 14,-536 20,-536"/>
<text xml:space="preserve" text-anchor="middle" x="91.12" y="-703.9" font-family="Arial" font-size="18.00">Navigation</text>
</g>
<!-- Push -->
<g id="node1" class="node">
<title>Push</title>
<path fill="#f5f5f5" stroke="#546e7a" d="M106.12,-383C106.12,-383 76.12,-383 76.12,-383 70.12,-383 64.12,-377 64.12,-371 64.12,-371 64.12,-359 64.12,-359 64.12,-353 70.12,-347 76.12,-347 76.12,-347 106.12,-347 106.12,-347 112.12,-347 118.12,-353 118.12,-359 118.12,-359 118.12,-371 118.12,-371 118.12,-377 112.12,-383 106.12,-383"/>
<text xml:space="preserve" text-anchor="middle" x="91.12" y="-361.5" font-family="Arial" font-size="10.00">push</text>
</g>
<!-- Raw -->
<g id="node5" class="node">
<title>Raw</title>
<path fill="#f5f5f5" stroke="#546e7a" d="M246.75,-383C246.75,-383 216.75,-383 216.75,-383 210.75,-383 204.75,-377 204.75,-371 204.75,-371 204.75,-359 204.75,-359 204.75,-353 210.75,-347 216.75,-347 216.75,-347 246.75,-347 246.75,-347 252.75,-347 258.75,-353 258.75,-359 258.75,-359 258.75,-371 258.75,-371 258.75,-377 252.75,-383 246.75,-383"/>
<text xml:space="preserve" text-anchor="middle" x="231.75" y="-361.5" font-family="Arial" font-size="10.00">raw</text>
</g>
<!-- Push&#45;&gt;Raw -->
<g id="edge1" class="edge">
<title>Push&#45;&gt;Raw</title>
<path fill="none" stroke="#455a64" d="M118.53,-365C139.63,-365 169.48,-365 193.09,-365"/>
<polygon fill="#455a64" stroke="#455a64" points="192.93,-368.5 202.93,-365 192.93,-361.5 192.93,-368.5"/>
</g>
<!-- Issue -->
<g id="node2" class="node">
<title>Issue</title>
<path fill="#f5f5f5" stroke="#546e7a" d="M115.25,-491C115.25,-491 67,-491 67,-491 61,-491 55,-485 55,-479 55,-479 55,-467 55,-467 55,-461 61,-455 67,-455 67,-455 115.25,-455 115.25,-455 121.25,-455 127.25,-461 127.25,-467 127.25,-467 127.25,-479 127.25,-479 127.25,-485 121.25,-491 115.25,-491"/>
<text xml:space="preserve" text-anchor="middle" x="91.12" y="-469.5" font-family="Arial" font-size="10.00">issue / ticket</text>
</g>
<!-- Issue&#45;&gt;Raw -->
<g id="edge2" class="edge">
<title>Issue&#45;&gt;Raw</title>
<path fill="none" stroke="#455a64" d="M127.51,-467.03C143.41,-463.04 161.71,-456.52 175.75,-446 193.88,-432.41 208.05,-411 217.46,-393.61"/>
<polygon fill="#455a64" stroke="#455a64" points="220.55,-395.24 222,-384.75 214.32,-392.05 220.55,-395.24"/>
</g>
<!-- Artifact -->
<g id="node3" class="node">
<title>Artifact</title>
<path fill="#f5f5f5" stroke="#546e7a" d="M119,-329C119,-329 63.25,-329 63.25,-329 57.25,-329 51.25,-323 51.25,-317 51.25,-317 51.25,-305 51.25,-305 51.25,-299 57.25,-293 63.25,-293 63.25,-293 119,-293 119,-293 125,-293 131,-299 131,-305 131,-305 131,-317 131,-317 131,-323 125,-329 119,-329"/>
<text xml:space="preserve" text-anchor="middle" x="91.12" y="-307.5" font-family="Arial" font-size="10.00">artifact GitHub</text>
</g>
<!-- Artifact&#45;&gt;Raw -->
<g id="edge3" class="edge">
<title>Artifact&#45;&gt;Raw</title>
<path fill="none" stroke="#455a64" d="M131.26,-322.35C145.44,-326.8 161.47,-332.22 175.75,-338 181.88,-340.48 188.27,-343.34 194.44,-346.26"/>
<polygon fill="#455a64" stroke="#455a64" points="192.64,-349.28 203.16,-350.51 195.7,-342.99 192.64,-349.28"/>
</g>
<!-- Note -->
<g id="node4" class="node">
<title>Note</title>
<path fill="#f5f5f5" stroke="#546e7a" d="M110,-437C110,-437 72.25,-437 72.25,-437 66.25,-437 60.25,-431 60.25,-425 60.25,-425 60.25,-413 60.25,-413 60.25,-407 66.25,-401 72.25,-401 72.25,-401 110,-401 110,-401 116,-401 122,-407 122,-413 122,-413 122,-425 122,-425 122,-431 116,-437 110,-437"/>
<text xml:space="preserve" text-anchor="middle" x="91.12" y="-415.5" font-family="Arial" font-size="10.00">note projet</text>
</g>
<!-- Note&#45;&gt;Raw -->
<g id="edge4" class="edge">
<title>Note&#45;&gt;Raw</title>
<path fill="none" stroke="#455a64" d="M122.3,-410.41C138.37,-405.54 158.35,-399.04 175.75,-392 181.88,-389.52 188.27,-386.66 194.44,-383.74"/>
<polygon fill="#455a64" stroke="#455a64" points="195.7,-387.01 203.16,-379.49 192.64,-380.72 195.7,-387.01"/>
</g>
<!-- Triaged -->
<g id="node6" class="node">
<title>Triaged</title>
<path fill="#f5f5f5" stroke="#546e7a" d="M337.75,-378C337.75,-378 307.75,-378 307.75,-378 301.75,-378 295.75,-372 295.75,-366 295.75,-366 295.75,-354 295.75,-354 295.75,-348 301.75,-342 307.75,-342 307.75,-342 337.75,-342 337.75,-342 343.75,-342 349.75,-348 349.75,-354 349.75,-354 349.75,-366 349.75,-366 349.75,-372 343.75,-378 337.75,-378"/>
<text xml:space="preserve" text-anchor="middle" x="322.75" y="-356.5" font-family="Arial" font-size="10.00">triaged</text>
</g>
<!-- Raw&#45;&gt;Triaged -->
<g id="edge5" class="edge">
<title>Raw&#45;&gt;Triaged</title>
<path fill="none" stroke="#455a64" d="M258.97,-363.53C266.87,-363.08 275.69,-362.59 284.18,-362.11"/>
<polygon fill="#455a64" stroke="#455a64" points="284.11,-365.62 293.9,-361.56 283.72,-358.63 284.11,-365.62"/>
</g>
<!-- Enriched -->
<g id="node7" class="node">
<title>Enriched</title>
<path fill="#f5f5f5" stroke="#546e7a" d="M428.75,-376C428.75,-376 398.75,-376 398.75,-376 392.75,-376 386.75,-370 386.75,-364 386.75,-364 386.75,-352 386.75,-352 386.75,-346 392.75,-340 398.75,-340 398.75,-340 428.75,-340 428.75,-340 434.75,-340 440.75,-346 440.75,-352 440.75,-352 440.75,-364 440.75,-364 440.75,-370 434.75,-376 428.75,-376"/>
<text xml:space="preserve" text-anchor="middle" x="413.75" y="-354.5" font-family="Arial" font-size="10.00">enriched</text>
</g>
<!-- Triaged&#45;&gt;Enriched -->
<g id="edge6" class="edge">
<title>Triaged&#45;&gt;Enriched</title>
<path fill="none" stroke="#455a64" d="M349.97,-359.41C357.87,-359.23 366.69,-359.03 375.18,-358.84"/>
<polygon fill="#455a64" stroke="#455a64" points="374.98,-362.35 384.9,-358.63 374.82,-355.35 374.98,-362.35"/>
</g>
<!-- CandidateContext -->
<g id="node8" class="node">
<title>CandidateContext</title>
<path fill="#f5f5f5" stroke="#546e7a" d="M564.62,-374C564.62,-374 493.12,-374 493.12,-374 487.12,-374 481.12,-368 481.12,-362 481.12,-362 481.12,-350 481.12,-350 481.12,-344 487.12,-338 493.12,-338 493.12,-338 564.62,-338 564.62,-338 570.62,-338 576.62,-344 576.62,-350 576.62,-350 576.62,-362 576.62,-362 576.62,-368 570.62,-374 564.62,-374"/>
<text xml:space="preserve" text-anchor="middle" x="528.88" y="-352.5" font-family="Arial" font-size="10.00">candidate_context</text>
</g>
<!-- Enriched&#45;&gt;CandidateContext -->
<g id="edge7" class="edge">
<title>Enriched&#45;&gt;CandidateContext</title>
<path fill="none" stroke="#455a64" d="M440.99,-357.54C449.62,-357.38 459.59,-357.21 469.63,-357.03"/>
<polygon fill="#455a64" stroke="#455a64" points="469.47,-360.53 479.41,-356.86 469.35,-353.53 469.47,-360.53"/>
</g>
<!-- Rejected -->
<g id="node11" class="node">
<title>Rejected</title>
<path fill="#f5f5f5" stroke="#546e7a" d="M739.5,-411C739.5,-411 709.5,-411 709.5,-411 703.5,-411 697.5,-405 697.5,-399 697.5,-399 697.5,-387 697.5,-387 697.5,-381 703.5,-375 709.5,-375 709.5,-375 739.5,-375 739.5,-375 745.5,-375 751.5,-381 751.5,-387 751.5,-387 751.5,-399 751.5,-399 751.5,-405 745.5,-411 739.5,-411"/>
<text xml:space="preserve" text-anchor="middle" x="724.5" y="-389.5" font-family="Arial" font-size="10.00">rejected</text>
</g>
<!-- Enriched&#45;&gt;Rejected -->
<g id="edge8" class="edge">
<title>Enriched&#45;&gt;Rejected</title>
<path fill="none" stroke="#455a64" d="M441.15,-372.5C449.98,-376.66 460.05,-380.7 469.75,-383 544.81,-400.81 635.8,-398.95 685.89,-395.98"/>
<polygon fill="#455a64" stroke="#455a64" points="685.85,-399.49 695.6,-395.35 685.4,-392.51 685.85,-399.49"/>
</g>
<!-- Archived -->
<g id="node12" class="node">
<title>Archived</title>
<path fill="#f5f5f5" stroke="#546e7a" d="M543.88,-320C543.88,-320 513.88,-320 513.88,-320 507.88,-320 501.88,-314 501.88,-308 501.88,-308 501.88,-296 501.88,-296 501.88,-290 507.88,-284 513.88,-284 513.88,-284 543.88,-284 543.88,-284 549.88,-284 555.88,-290 555.88,-296 555.88,-296 555.88,-308 555.88,-308 555.88,-314 549.88,-320 543.88,-320"/>
<text xml:space="preserve" text-anchor="middle" x="528.88" y="-298.5" font-family="Arial" font-size="10.00">archived</text>
</g>
<!-- Enriched&#45;&gt;Archived -->
<g id="edge9" class="edge">
<title>Enriched&#45;&gt;Archived</title>
<path fill="none" stroke="#455a64" d="M441.19,-343.72C450.2,-338.94 460.37,-333.65 469.75,-329 476.65,-325.58 484.07,-322.04 491.22,-318.69"/>
<polygon fill="#455a64" stroke="#455a64" points="492.44,-321.98 500.04,-314.59 489.49,-315.63 492.44,-321.98"/>
</g>
<!-- Validated -->
<g id="node9" class="node">
<title>Validated</title>
<path fill="#f5f5f5" stroke="#546e7a" d="M758.75,-303C758.75,-303 690.25,-303 690.25,-303 684.25,-303 678.25,-297 678.25,-291 678.25,-291 678.25,-279 678.25,-279 678.25,-273 684.25,-267 690.25,-267 690.25,-267 758.75,-267 758.75,-267 764.75,-267 770.75,-273 770.75,-279 770.75,-279 770.75,-291 770.75,-291 770.75,-297 764.75,-303 758.75,-303"/>
<text xml:space="preserve" text-anchor="middle" x="724.5" y="-281.5" font-family="Arial" font-size="10.00">validated_context</text>
</g>
<!-- CandidateContext&#45;&gt;Validated -->
<g id="edge10" class="edge">
<title>CandidateContext&#45;&gt;Validated</title>
<path fill="none" stroke="#455a64" d="M576.76,-338.38C583.87,-335.73 591.13,-333.03 598,-330.5 620.6,-322.17 645.54,-313.11 667.19,-305.27"/>
<polygon fill="#455a64" stroke="#455a64" points="668.22,-308.63 676.43,-301.93 665.84,-302.04 668.22,-308.63"/>
<text xml:space="preserve" text-anchor="middle" x="629.12" y="-332.45" font-family="Arial" font-size="9.00">si règle OK</text>
</g>
<!-- Merged -->
<g id="node10" class="node">
<title>Merged</title>
<path fill="#f5f5f5" stroke="#546e7a" d="M755.38,-357C755.38,-357 693.62,-357 693.62,-357 687.62,-357 681.62,-351 681.62,-345 681.62,-345 681.62,-333 681.62,-333 681.62,-327 687.62,-321 693.62,-321 693.62,-321 755.38,-321 755.38,-321 761.38,-321 767.38,-327 767.38,-333 767.38,-333 767.38,-345 767.38,-345 767.38,-351 761.38,-357 755.38,-357"/>
<text xml:space="preserve" text-anchor="middle" x="724.5" y="-335.5" font-family="Arial" font-size="10.00">merged_context</text>
</g>
<!-- CandidateContext&#45;&gt;Merged -->
<g id="edge11" class="edge">
<title>CandidateContext&#45;&gt;Merged</title>
<path fill="none" stroke="#455a64" d="M576.75,-351.88C604.91,-349.41 640.83,-346.26 670.08,-343.69"/>
<polygon fill="#455a64" stroke="#455a64" points="670.18,-347.19 679.84,-342.83 669.57,-340.22 670.18,-347.19"/>
<text xml:space="preserve" text-anchor="middle" x="629.12" y="-351.97" font-family="Arial" font-size="9.00">si rattachement</text>
</g>
<!-- CandidateContext&#45;&gt;Rejected -->
<g id="edge12" class="edge">
<title>CandidateContext&#45;&gt;Rejected</title>
<path fill="none" stroke="#455a64" d="M576.75,-364.96C610.19,-371.35 654.59,-379.83 685.76,-385.79"/>
<polygon fill="#455a64" stroke="#455a64" points="685.04,-389.21 695.52,-387.65 686.35,-382.34 685.04,-389.21"/>
</g>
<!-- NewContext -->
<g id="node13" class="node">
<title>NewContext</title>
<path fill="#f5f5f5" stroke="#546e7a" d="M889,-303C889,-303 819.75,-303 819.75,-303 813.75,-303 807.75,-297 807.75,-291 807.75,-291 807.75,-279 807.75,-279 807.75,-273 813.75,-267 819.75,-267 819.75,-267 889,-267 889,-267 895,-267 901,-273 901,-279 901,-279 901,-291 901,-291 901,-297 895,-303 889,-303"/>
<text xml:space="preserve" text-anchor="middle" x="854.38" y="-287.5" font-family="Arial" font-size="10.00">nouveau contexte</text>
<text xml:space="preserve" text-anchor="middle" x="854.38" y="-275.5" font-family="Arial" font-size="10.00">autonome</text>
</g>
<!-- Validated&#45;&gt;NewContext -->
<g id="edge13" class="edge">
<title>Validated&#45;&gt;NewContext</title>
<path fill="none" stroke="#455a64" d="M770.94,-285C779.14,-285 787.77,-285 796.25,-285"/>
<polygon fill="#455a64" stroke="#455a64" points="796.13,-288.5 806.13,-285 796.13,-281.5 796.13,-288.5"/>
</g>
<!-- MergeContext -->
<g id="node14" class="node">
<title>MergeContext</title>
<path fill="#f5f5f5" stroke="#546e7a" d="M887.88,-357C887.88,-357 820.88,-357 820.88,-357 814.88,-357 808.88,-351 808.88,-345 808.88,-345 808.88,-333 808.88,-333 808.88,-327 814.88,-321 820.88,-321 820.88,-321 887.88,-321 887.88,-321 893.88,-321 899.88,-327 899.88,-333 899.88,-333 899.88,-345 899.88,-345 899.88,-351 893.88,-357 887.88,-357"/>
<text xml:space="preserve" text-anchor="middle" x="854.38" y="-341.5" font-family="Arial" font-size="10.00">fusion dans</text>
<text xml:space="preserve" text-anchor="middle" x="854.38" y="-329.5" font-family="Arial" font-size="10.00">contexte existant</text>
</g>
<!-- Merged&#45;&gt;MergeContext -->
<g id="edge14" class="edge">
<title>Merged&#45;&gt;MergeContext</title>
<path fill="none" stroke="#455a64" d="M767.73,-339C777.14,-339 787.26,-339 797.14,-339"/>
<polygon fill="#455a64" stroke="#455a64" points="797.04,-342.5 807.04,-339 797.04,-335.5 797.04,-342.5"/>
</g>
<!-- StableSource -->
<g id="node15" class="node">
<title>StableSource</title>
<path fill="#f5f5f5" stroke="#546e7a" d="M999.75,-342C999.75,-342 950,-342 950,-342 944,-342 938,-336 938,-330 938,-330 938,-318 938,-318 938,-312 944,-306 950,-306 950,-306 999.75,-306 999.75,-306 1005.75,-306 1011.75,-312 1011.75,-318 1011.75,-318 1011.75,-330 1011.75,-330 1011.75,-336 1005.75,-342 999.75,-342"/>
<text xml:space="preserve" text-anchor="middle" x="974.88" y="-326.5" font-family="Arial" font-size="10.00">source locale</text>
<text xml:space="preserve" text-anchor="middle" x="974.88" y="-314.5" font-family="Arial" font-size="10.00">autoritative</text>
</g>
<!-- NewContext&#45;&gt;StableSource -->
<g id="edge15" class="edge">
<title>NewContext&#45;&gt;StableSource</title>
<path fill="none" stroke="#455a64" d="M901.19,-300.08C909.61,-302.85 918.42,-305.75 926.88,-308.53"/>
<polygon fill="#455a64" stroke="#455a64" points="925.7,-311.83 936.29,-311.63 927.89,-305.18 925.7,-311.83"/>
</g>
<!-- MergeContext&#45;&gt;StableSource -->
<g id="edge16" class="edge">
<title>MergeContext&#45;&gt;StableSource</title>
<path fill="none" stroke="#455a64" d="M900.17,-333.33C908.83,-332.23 917.93,-331.08 926.66,-329.98"/>
<polygon fill="#455a64" stroke="#455a64" points="926.88,-333.48 936.36,-328.75 926,-326.53 926.88,-333.48"/>
</g>
<!-- GitProjection -->
<g id="node16" class="node">
<title>GitProjection</title>
<path fill="#f5f5f5" stroke="#546e7a" d="M1168.25,-357C1168.25,-357 1060.75,-357 1060.75,-357 1054.75,-357 1048.75,-351 1048.75,-345 1048.75,-345 1048.75,-333 1048.75,-333 1048.75,-327 1054.75,-321 1060.75,-321 1060.75,-321 1168.25,-321 1168.25,-321 1174.25,-321 1180.25,-327 1180.25,-333 1180.25,-333 1180.25,-345 1180.25,-345 1180.25,-351 1174.25,-357 1168.25,-357"/>
<text xml:space="preserve" text-anchor="middle" x="1114.5" y="-341.5" font-family="Arial" font-size="10.00">projection GitHub</text>
<text xml:space="preserve" text-anchor="middle" x="1114.5" y="-329.5" font-family="Arial" font-size="10.00">status / commentaire / PR</text>
</g>
<!-- StableSource&#45;&gt;GitProjection -->
<g id="edge17" class="edge">
<title>StableSource&#45;&gt;GitProjection</title>
<path fill="none" stroke="#455a64" d="M1012.03,-327.94C1019.79,-328.79 1028.26,-329.71 1036.9,-330.65"/>
<polygon fill="#455a64" stroke="#455a64" points="1036.48,-334.13 1046.8,-331.73 1037.24,-327.17 1036.48,-334.13"/>
</g>
<!-- GitProjection&#45;&gt;Issue -->
<g id="edge18" class="edge">
<title>GitProjection&#45;&gt;Issue</title>
<path fill="none" stroke="#455a64" stroke-dasharray="5,2" d="M1105.31,-357.49C1087.53,-394.46 1041.64,-474 975.88,-474 230.75,-474 230.75,-474 230.75,-474 200.25,-474 165.97,-473.75 139.13,-473.51"/>
<polygon fill="#455a64" stroke="#455a64" points="139.29,-470.01 129.25,-473.41 139.22,-477.01 139.29,-470.01"/>
<text xml:space="preserve" text-anchor="middle" x="528.88" y="-475.95" font-family="Arial" font-size="9.00">aller&#45;retour</text>
</g>
<!-- UserValidation -->
<g id="node17" class="node">
<title>UserValidation</title>
<path fill="#f5f5f5" stroke="#546e7a" d="M568,-214C568,-214 489.75,-214 489.75,-214 483.75,-214 477.75,-208 477.75,-202 477.75,-202 477.75,-190 477.75,-190 477.75,-184 483.75,-178 489.75,-178 489.75,-178 568,-178 568,-178 574,-178 580,-184 580,-190 580,-190 580,-202 580,-202 580,-208 574,-214 568,-214"/>
<text xml:space="preserve" text-anchor="middle" x="528.88" y="-192.5" font-family="Arial" font-size="10.00">validation utilisateur</text>
</g>
<!-- UserValidation&#45;&gt;Validated -->
<g id="edge19" class="edge">
<title>UserValidation&#45;&gt;Validated</title>
<path fill="none" stroke="#455a64" stroke-dasharray="5,2" d="M552.43,-214.48C565.21,-224.26 581.83,-235.89 598,-244 619.65,-254.85 644.8,-263.73 666.88,-270.42"/>
<polygon fill="#455a64" stroke="#455a64" points="665.75,-273.73 676.33,-273.19 667.72,-267.01 665.75,-273.73"/>
</g>
<!-- Tests -->
<g id="node18" class="node">
<title>Tests</title>
<path fill="#f5f5f5" stroke="#546e7a" d="M553,-160C553,-160 504.75,-160 504.75,-160 498.75,-160 492.75,-154 492.75,-148 492.75,-148 492.75,-136 492.75,-136 492.75,-130 498.75,-124 504.75,-124 504.75,-124 553,-124 553,-124 559,-124 565,-130 565,-136 565,-136 565,-148 565,-148 565,-154 559,-160 553,-160"/>
<text xml:space="preserve" text-anchor="middle" x="528.88" y="-138.5" font-family="Arial" font-size="10.00">tests réussis</text>
</g>
<!-- Tests&#45;&gt;Validated -->
<g id="edge20" class="edge">
<title>Tests&#45;&gt;Validated</title>
<path fill="none" stroke="#455a64" stroke-dasharray="5,2" d="M565.43,-156.64C573.09,-160.3 580.98,-164.49 588,-169 629.19,-195.48 671.19,-233.51 697.29,-258.71"/>
<polygon fill="#455a64" stroke="#455a64" points="694.82,-261.19 704.42,-265.67 699.71,-256.18 694.82,-261.19"/>
</g>
<!-- ProjectRule -->
<g id="node19" class="node">
<title>ProjectRule</title>
<path fill="#f5f5f5" stroke="#546e7a" d="M548.88,-106C548.88,-106 508.88,-106 508.88,-106 502.88,-106 496.88,-100 496.88,-94 496.88,-94 496.88,-82 496.88,-82 496.88,-76 502.88,-70 508.88,-70 508.88,-70 548.88,-70 548.88,-70 554.88,-70 560.88,-76 560.88,-82 560.88,-82 560.88,-94 560.88,-94 560.88,-100 554.88,-106 548.88,-106"/>
<text xml:space="preserve" text-anchor="middle" x="528.88" y="-84.5" font-family="Arial" font-size="10.00">règle projet</text>
</g>
<!-- ProjectRule&#45;&gt;Validated -->
<g id="edge21" class="edge">
<title>ProjectRule&#45;&gt;Validated</title>
<path fill="none" stroke="#455a64" stroke-dasharray="5,2" d="M561.12,-100.72C570.06,-104.83 579.63,-109.71 588,-115 623.28,-137.31 633.37,-143.07 660.25,-175 681.32,-200.02 699.22,-233.02 710.55,-256.33"/>
<polygon fill="#455a64" stroke="#455a64" points="707.33,-257.7 714.77,-265.24 713.65,-254.7 707.33,-257.7"/>
</g>
<!-- MergedPR -->
<g id="node20" class="node">
<title>MergedPR</title>
<path fill="#f5f5f5" stroke="#546e7a" d="M549.62,-52C549.62,-52 508.12,-52 508.12,-52 502.12,-52 496.12,-46 496.12,-40 496.12,-40 496.12,-28 496.12,-28 496.12,-22 502.12,-16 508.12,-16 508.12,-16 549.62,-16 549.62,-16 555.62,-16 561.62,-22 561.62,-28 561.62,-28 561.62,-40 561.62,-40 561.62,-46 555.62,-52 549.62,-52"/>
<text xml:space="preserve" text-anchor="middle" x="528.88" y="-30.5" font-family="Arial" font-size="10.00">PR mergée</text>
</g>
<!-- MergedPR&#45;&gt;StableSource -->
<g id="edge22" class="edge">
<title>MergedPR&#45;&gt;StableSource</title>
<path fill="none" stroke="#455a64" stroke-dasharray="5,2" d="M561.91,-48C570.49,-51.98 579.69,-56.48 588,-61 732.38,-139.56 770.03,-158.68 901,-258 917.07,-270.18 933.82,-285.18 947.21,-297.79"/>
<polygon fill="#455a64" stroke="#455a64" points="944.73,-300.27 954.39,-304.64 949.57,-295.2 944.73,-300.27"/>
</g>
<!-- Global -->
<g id="node21" class="node">
<title>Global</title>
<g id="a_node21"><a xlink:href="../00_global.svg" xlink:title="← Global architecture">
<path fill="#f5f5f5" stroke="none" d="M134.38,-580C134.38,-580 47.88,-580 47.88,-580 41.88,-580 35.88,-574 35.88,-568 35.88,-568 35.88,-556 35.88,-556 35.88,-550 41.88,-544 47.88,-544 47.88,-544 134.38,-544 134.38,-544 140.38,-544 146.38,-550 146.38,-556 146.38,-556 146.38,-568 146.38,-568 146.38,-574 140.38,-580 134.38,-580"/>
<text xml:space="preserve" text-anchor="middle" x="91.12" y="-558.5" font-family="Arial" font-size="10.00">← Global architecture</text>
</a>
</g>
</g>
<!-- Parent -->
<g id="node22" class="node">
<title>Parent</title>
<g id="a_node22"><a xlink:href="90_github_project_orchestrator.svg" xlink:title="← GitHub Project Orchestrator">
<path fill="#f5f5f5" stroke="none" d="M154.25,-634C154.25,-634 28,-634 28,-634 22,-634 16,-628 16,-622 16,-622 16,-610 16,-610 16,-604 22,-598 28,-598 28,-598 154.25,-598 154.25,-598 160.25,-598 166.25,-604 166.25,-610 166.25,-610 166.25,-622 166.25,-622 166.25,-628 160.25,-634 154.25,-634"/>
<text xml:space="preserve" text-anchor="middle" x="91.12" y="-612.5" font-family="Arial" font-size="10.00">← GitHub Project Orchestrator</text>
</a>
</g>
</g>
<!-- Next -->
<g id="node23" class="node">
<title>Next</title>
<path fill="#f5f5f5" stroke="none" d="M139.25,-688C139.25,-688 43,-688 43,-688 37,-688 31,-682 31,-676 31,-676 31,-664 31,-664 31,-658 37,-652 43,-652 43,-652 139.25,-652 139.25,-652 145.25,-652 151.25,-658 151.25,-664 151.25,-664 151.25,-676 151.25,-676 151.25,-682 145.25,-688 139.25,-688"/>
<text xml:space="preserve" text-anchor="middle" x="91.12" y="-666.5" font-family="Arial" font-size="10.00">next: phase 4 final audit</text>
</g>
</g>
</svg>
