<?xml version="1.0" encoding="UTF-8" standalone="no"?>
<!DOCTYPE svg PUBLIC "-//W3C//DTD SVG 1.1//EN"
 "http://www.w3.org/Graphics/SVG/1.1/DTD/svg11.dtd">
<!-- Generated by graphviz version 14.1.3 (20260303.0454)
 -->
<!-- Title: Inference Pages: 1 -->
<svg width="1233pt" height="1154pt"
 viewBox="0.00 0.00 1233.00 1154.00" xmlns="http://www.w3.org/2000/svg" xmlns:xlink="http://www.w3.org/1999/xlink">
<g id="graph0" class="graph" transform="scale(1 1) rotate(0) translate(4 1150)">
<title>Inference</title>
<polygon fill="white" stroke="none" points="-4,4 -4,-1150 1229,-1150 1229,4 -4,4"/>
<g id="clust1" class="cluster">
<title>cluster_contracts</title>
<polygon fill="#eceff1" stroke="#455a64" points="561,-46 561,-148.5 1217,-148.5 1217,-46 561,-46"/>
<text xml:space="preserve" text-anchor="middle" x="889" y="-131.2" font-family="Times,serif" font-size="14.00">Contracts</text>
</g>
<g id="clust2" class="cluster">
<title>cluster_runtime</title>
<polygon fill="#fffde7" stroke="#f9a825" points="213,-46 213,-464.75 553,-464.75 553,-46 213,-46"/>
<text xml:space="preserve" text-anchor="middle" x="383" y="-447.45" font-family="Times,serif" font-size="14.00">Runtime Phase 2.5</text>
</g>
<g id="clust3" class="cluster">
<title>cluster_openvino_contract</title>
<polygon fill="#efebe9" stroke="#6d4c41" points="627,-183.75 627,-1138 1082,-1138 1082,-183.75 627,-183.75"/>
<text xml:space="preserve" text-anchor="middle" x="854.5" y="-1120.7" font-family="Times,serif" font-size="14.00">OpenVINO Phase 2.9</text>
</g>
<!-- InferenceRequest -->
<g id="node1" class="node">
<title>InferenceRequest</title>
<polygon fill="#eceff1" stroke="#455a64" points="1209,-90 1055,-90 1055,-54 1209,-54 1209,-90"/>
<text xml:space="preserve" text-anchor="middle" x="1132" y="-74.5" font-family="Arial" font-size="10.00">InferenceRequest</text>
<text xml:space="preserve" text-anchor="middle" x="1132" y="-62.5" font-family="Arial" font-size="10.00">prompt/context/model/metadata</text>
</g>
<!-- InferenceResult -->
<g id="node2" class="node">
<title>InferenceResult</title>
<polygon fill="#eceff1" stroke="#455a64" points="1037,-90 871,-90 871,-54 1037,-54 1037,-90"/>
<text xml:space="preserve" text-anchor="middle" x="954" y="-74.5" font-family="Arial" font-size="10.00">InferenceResult</text>
<text xml:space="preserve" text-anchor="middle" x="954" y="-62.5" font-family="Arial" font-size="10.00">text/confidence/backend/metadata</text>
</g>
<!-- Adapter -->
<g id="node7" class="node">
<title>Adapter</title>
<polygon fill="#fffde7" stroke="#f9a825" points="357.38,-317 250.62,-317 250.62,-281 357.38,-281 357.38,-317"/>
<text xml:space="preserve" text-anchor="middle" x="304" y="-301.5" font-family="Arial" font-size="10.00">InferenceAdapter</text>
<text xml:space="preserve" text-anchor="middle" x="304" y="-289.5" font-family="Arial" font-size="10.00">execution membrane</text>
</g>
<!-- InferenceResult&#45;&gt;Adapter -->
<g id="edge12" class="edge">
<title>InferenceResult&#45;&gt;Adapter</title>
<path fill="none" stroke="black" d="M938.68,-90.46C921.83,-108.36 893.02,-135.38 862,-148.5 734.29,-202.53 679.77,-129.86 552,-183.75 500.71,-205.38 505.29,-239.12 455,-263 421.9,-278.72 408.15,-272.99 368.76,-280.85"/>
<polygon fill="black" stroke="black" points="368.06,-277.42 359.04,-282.98 369.55,-284.26 368.06,-277.42"/>
</g>
<!-- InferenceBackend -->
<g id="node3" class="node">
<title>InferenceBackend</title>
<polygon fill="#eceff1" stroke="#455a64" points="702.88,-90 569.12,-90 569.12,-54 702.88,-54 702.88,-90"/>
<text xml:space="preserve" text-anchor="middle" x="636" y="-68.5" font-family="Arial" font-size="10.00">InferenceBackend Protocol</text>
</g>
<!-- RegistrySnapshot -->
<g id="node4" class="node">
<title>RegistrySnapshot</title>
<polygon fill="#eceff1" stroke="#455a64" points="853.12,-90 720.88,-90 720.88,-54 853.12,-54 853.12,-90"/>
<text xml:space="preserve" text-anchor="middle" x="787" y="-74.5" font-family="Arial" font-size="10.00">BackendRegistrySnapshot</text>
<text xml:space="preserve" text-anchor="middle" x="787" y="-62.5" font-family="Arial" font-size="10.00">default/name list</text>
</g>
<!-- EventRequest -->
<g id="node5" class="node">
<title>EventRequest</title>
<polygon fill="#fffde7" stroke="#f9a825" points="399.38,-406.25 220.62,-406.25 220.62,-370.25 399.38,-370.25 399.38,-406.25"/>
<text xml:space="preserve" text-anchor="middle" x="310" y="-390.75" font-family="Arial" font-size="10.00">EventType.INFERENCE_REQUEST</text>
<text xml:space="preserve" text-anchor="middle" x="310" y="-378.75" font-family="Arial" font-size="10.00">Request.reply</text>
</g>
<!-- Scheduler -->
<g id="node25" class="node">
<title>Scheduler</title>
<g id="a_node25"><a xlink:href="../scheduler/10_scheduler.svg" xlink:title="Scheduler">
<polygon fill="#ede7f6" stroke="#512da8" points="436.75,-633.25 377.25,-633.25 377.25,-597.25 436.75,-597.25 436.75,-633.25"/>
<text xml:space="preserve" text-anchor="middle" x="407" y="-611.75" font-family="Arial" font-size="10.00">Scheduler</text>
</a>
</g>
</g>
<!-- EventRequest&#45;&gt;Scheduler -->
<g id="edge2" class="edge">
<title>EventRequest&#45;&gt;Scheduler</title>
<path fill="none" stroke="black" d="M317.48,-406.59C334.22,-445.42 374.83,-539.63 395.09,-586.63"/>
<polygon fill="black" stroke="black" points="391.78,-587.78 398.95,-595.58 398.21,-585.01 391.78,-587.78"/>
<text xml:space="preserve" text-anchor="middle" x="392.05" y="-521.33" font-family="Times,serif" font-size="14.00">emit</text>
</g>
<!-- Handler -->
<g id="node6" class="node">
<title>Handler</title>
<polygon fill="#fffde7" stroke="#f9a825" points="544.5,-406.25 417.5,-406.25 417.5,-370.25 544.5,-370.25 544.5,-406.25"/>
<text xml:space="preserve" text-anchor="middle" x="481" y="-384.75" font-family="Arial" font-size="10.00">InferenceRequestHandler</text>
</g>
<!-- Handler&#45;&gt;InferenceRequest -->
<g id="edge5" class="edge">
<title>Handler&#45;&gt;InferenceRequest</title>
<path fill="none" stroke="black" stroke-dasharray="1,5" d="M417.33,-372.27C414.18,-371.57 411.06,-370.9 408,-370.25 332.21,-354.17 294.88,-373.63 242,-317 219.38,-292.78 197.93,-270.48 220,-245.75 243.53,-219.39 343.24,-234.1 378,-227.75 456.47,-213.43 473.24,-196.42 552,-183.75 579.17,-179.38 1020.61,-159.11 1046,-148.5 1071.6,-137.8 1094.86,-116.31 1110.72,-98.98"/>
<polygon fill="black" stroke="black" points="1113.32,-101.33 1117.31,-91.51 1108.07,-96.69 1113.32,-101.33"/>
<text xml:space="preserve" text-anchor="middle" x="278.5" y="-249.7" font-family="Times,serif" font-size="14.00">validate payload</text>
</g>
<!-- Handler&#45;&gt;Adapter -->
<g id="edge6" class="edge">
<title>Handler&#45;&gt;Adapter</title>
<path fill="none" stroke="black" d="M417.26,-372.12C393,-365.74 368.63,-358.38 358,-352.25 346.06,-345.36 334.78,-335.26 325.64,-325.77"/>
<polygon fill="black" stroke="black" points="328.27,-323.45 318.93,-318.45 323.11,-328.19 328.27,-323.45"/>
<text xml:space="preserve" text-anchor="middle" x="407.5" y="-338.95" font-family="Times,serif" font-size="14.00">infer(request)</text>
</g>
<!-- EventResult -->
<g id="node10" class="node">
<title>EventResult</title>
<polygon fill="#fffde7" stroke="#f9a825" points="544.5,-317 375.5,-317 375.5,-281 544.5,-281 544.5,-317"/>
<text xml:space="preserve" text-anchor="middle" x="460" y="-301.5" font-family="Arial" font-size="10.00">EventType.INFERENCE_RESULT</text>
<text xml:space="preserve" text-anchor="middle" x="460" y="-289.5" font-family="Arial" font-size="10.00">observable</text>
</g>
<!-- Handler&#45;&gt;EventResult -->
<g id="edge15" class="edge">
<title>Handler&#45;&gt;EventResult</title>
<path fill="none" stroke="black" d="M471.34,-369.91C468.69,-364.42 466.11,-358.22 464.5,-352.25 462.45,-344.66 461.28,-336.25 460.61,-328.43"/>
<polygon fill="black" stroke="black" points="464.12,-328.5 460.05,-318.72 457.14,-328.91 464.12,-328.5"/>
<text xml:space="preserve" text-anchor="middle" x="490.75" y="-338.95" font-family="Times,serif" font-size="14.00">publish</text>
</g>
<!-- ComponentProxy -->
<g id="node27" class="node">
<title>ComponentProxy</title>
<g id="a_node27"><a xlink:href="../scheduler/component_proxy/14_component_proxy.svg" xlink:title="ComponentProxy">
<polygon fill="#ede7f6" stroke="#512da8" points="511.88,-544 420.12,-544 420.12,-508 511.88,-508 511.88,-544"/>
<text xml:space="preserve" text-anchor="middle" x="466" y="-522.5" font-family="Arial" font-size="10.00">ComponentProxy</text>
</a>
</g>
</g>
<!-- Handler&#45;&gt;ComponentProxy -->
<g id="edge14" class="edge">
<title>Handler&#45;&gt;ComponentProxy</title>
<path fill="none" stroke="black" stroke-dasharray="5,2" d="M479.08,-406.65C476.57,-429.32 472.16,-469.27 469.16,-496.42"/>
<polygon fill="black" stroke="black" points="465.72,-495.7 468.1,-506.03 472.67,-496.47 465.72,-495.7"/>
<text xml:space="preserve" text-anchor="middle" x="521.59" y="-476.7" font-family="Times,serif" font-size="14.00">Request.reply</text>
</g>
<!-- Adapter&#45;&gt;Handler -->
<g id="edge13" class="edge">
<title>Adapter&#45;&gt;Handler</title>
<path fill="none" stroke="black" d="M309.33,-317.06C313.83,-328.68 321.42,-343.48 333,-352.25 333.42,-352.57 369.83,-361.18 406.42,-369.78"/>
<polygon fill="black" stroke="black" points="405.22,-373.09 415.76,-371.97 406.82,-366.28 405.22,-373.09"/>
</g>
<!-- Registry -->
<g id="node8" class="node">
<title>Registry</title>
<polygon fill="#fffde7" stroke="#f9a825" points="369.12,-227.75 266.88,-227.75 266.88,-191.75 369.12,-191.75 369.12,-227.75"/>
<text xml:space="preserve" text-anchor="middle" x="318" y="-212.25" font-family="Arial" font-size="10.00">BackendRegistry</text>
<text xml:space="preserve" text-anchor="middle" x="318" y="-200.25" font-family="Arial" font-size="10.00">explicit backend list</text>
</g>
<!-- Adapter&#45;&gt;Registry -->
<g id="edge7" class="edge">
<title>Adapter&#45;&gt;Registry</title>
<path fill="none" stroke="black" d="M328.07,-280.7C333.31,-275.64 338.13,-269.66 341,-263 344.53,-254.81 342.73,-245.92 338.92,-237.83"/>
<polygon fill="black" stroke="black" points="342.09,-236.32 334.03,-229.44 336.04,-239.84 342.09,-236.32"/>
<text xml:space="preserve" text-anchor="middle" x="396.89" y="-249.7" font-family="Times,serif" font-size="14.00">select_backend</text>
</g>
<!-- Registry&#45;&gt;InferenceBackend -->
<g id="edge9" class="edge">
<title>Registry&#45;&gt;InferenceBackend</title>
<path fill="none" stroke="black" stroke-dasharray="1,5" d="M333.64,-191.28C346.3,-177.64 363.46,-160.36 372.5,-156.5 410.24,-140.37 519.25,-164.6 557,-148.5 581.52,-138.04 602.92,-116.32 617.24,-98.85"/>
<polygon fill="black" stroke="black" points="619.69,-101.4 623.13,-91.37 614.19,-97.07 619.69,-101.4"/>
<text xml:space="preserve" text-anchor="middle" x="401.75" y="-160.45" font-family="Times,serif" font-size="14.00">protocol</text>
</g>
<!-- Registry&#45;&gt;RegistrySnapshot -->
<g id="edge8" class="edge">
<title>Registry&#45;&gt;RegistrySnapshot</title>
<path fill="none" stroke="black" stroke-dasharray="1,5" d="M369.46,-196.71C389.27,-191.09 411.74,-183.45 431,-173.75 442.57,-167.92 442.25,-160.72 454.5,-156.5 481.56,-147.17 685.75,-159.91 712,-148.5 735.59,-138.25 755.7,-116.82 769.15,-99.4"/>
<polygon fill="black" stroke="black" points="771.89,-101.58 775.01,-91.45 766.26,-97.42 771.89,-101.58"/>
<text xml:space="preserve" text-anchor="middle" x="486.75" y="-160.45" font-family="Times,serif" font-size="14.00">snapshot</text>
</g>
<!-- Dummy -->
<g id="node9" class="node">
<title>Dummy</title>
<polygon fill="#fffde7" stroke="#f9a825" points="447.62,-90 318.38,-90 318.38,-54 447.62,-54 447.62,-90"/>
<text xml:space="preserve" text-anchor="middle" x="383" y="-74.5" font-family="Arial" font-size="10.00">DummyInferenceBackend</text>
<text xml:space="preserve" text-anchor="middle" x="383" y="-62.5" font-family="Arial" font-size="10.00">deterministic</text>
</g>
<!-- Registry&#45;&gt;Dummy -->
<g id="edge10" class="edge">
<title>Registry&#45;&gt;Dummy</title>
<path fill="none" stroke="black" d="M266.51,-194.19C246.61,-185.65 230.66,-173.22 240.25,-156.5 256.73,-127.78 287.33,-107.98 315.99,-94.91"/>
<polygon fill="black" stroke="black" points="317.25,-98.17 325.04,-90.99 314.47,-91.75 317.25,-98.17"/>
<text xml:space="preserve" text-anchor="middle" x="294.62" y="-160.45" font-family="Times,serif" font-size="14.00">model=dummy</text>
</g>
<!-- OpenVINO -->
<g id="node11" class="node">
<title>OpenVINO</title>
<g id="a_node11"><a xlink:href="41_openvino_backend.svg" xlink:title="OpenVINOBackend\nbackend membrane">
<polygon fill="#efebe9" stroke="#6d4c41" points="808.12,-722.5 705.88,-722.5 705.88,-686.5 808.12,-686.5 808.12,-722.5"/>
<text xml:space="preserve" text-anchor="middle" x="757" y="-707" font-family="Arial" font-size="10.00">OpenVINOBackend</text>
<text xml:space="preserve" text-anchor="middle" x="757" y="-695" font-family="Arial" font-size="10.00">backend membrane</text>
</a>
</g>
</g>
<!-- Registry&#45;&gt;OpenVINO -->
<g id="edge17" class="edge">
<title>Registry&#45;&gt;OpenVINO</title>
<path fill="none" stroke="black" stroke-dasharray="5,2" d="M266.38,-215.77C216.68,-223.78 149,-244.51 149,-298 149,-616.25 149,-616.25 149,-616.25 149,-670.9 538.86,-693.97 694.21,-701"/>
<polygon fill="black" stroke="black" points="693.77,-704.48 703.91,-701.43 694.08,-697.49 693.77,-704.48"/>
<text xml:space="preserve" text-anchor="middle" x="242.38" y="-476.7" font-family="Times,serif" font-size="14.00">future registered backend</text>
</g>
<!-- Dummy&#45;&gt;InferenceResult -->
<g id="edge11" class="edge">
<title>Dummy&#45;&gt;InferenceResult</title>
<path fill="none" stroke="black" d="M409,-90.48C443.11,-113.49 505.75,-151.54 566,-166.12 627.99,-181.13 793.66,-189.49 853,-166.12 886.91,-152.77 916.17,-122.08 934.34,-99.35"/>
<polygon fill="black" stroke="black" points="936.93,-101.73 940.28,-91.67 931.39,-97.44 936.93,-101.73"/>
</g>
<!-- EventBus -->
<g id="node28" class="node">
<title>EventBus</title>
<g id="a_node28"><a xlink:href="../scheduler/event_bus/12_event_bus.svg" xlink:title="EventBus">
<polygon fill="#ede7f6" stroke="#512da8" points="619.38,-227.75 560.62,-227.75 560.62,-191.75 619.38,-191.75 619.38,-227.75"/>
<text xml:space="preserve" text-anchor="middle" x="590" y="-206.25" font-family="Arial" font-size="10.00">EventBus</text>
</a>
</g>
</g>
<!-- EventResult&#45;&gt;EventBus -->
<g id="edge16" class="edge">
<title>EventResult&#45;&gt;EventBus</title>
<path fill="none" stroke="black" stroke-dasharray="5,2" d="M485.99,-280.55C505.66,-267.36 532.88,-249.09 554.54,-234.55"/>
<polygon fill="black" stroke="black" points="556.44,-237.49 562.79,-229.01 552.54,-231.68 556.44,-237.49"/>
</g>
<!-- OpenVINOConfig -->
<g id="node12" class="node">
<title>OpenVINOConfig</title>
<polygon fill="#efebe9" stroke="#6d4c41" points="1071.38,-633.25 940.62,-633.25 940.62,-597.25 1071.38,-597.25 1071.38,-633.25"/>
<text xml:space="preserve" text-anchor="middle" x="1006" y="-611.75" font-family="Arial" font-size="10.00">OpenVINOBackendConfig</text>
</g>
<!-- OpenVINO&#45;&gt;OpenVINOConfig -->
<g id="edge18" class="edge">
<title>OpenVINO&#45;&gt;OpenVINOConfig</title>
<path fill="none" stroke="black" stroke-dasharray="1,5" d="M808.27,-698.28C841.53,-693.53 885.18,-684.68 921,-668.5 932.73,-663.2 933.47,-658.27 944.25,-651.25 950.5,-647.19 957.24,-643.09 963.89,-639.2"/>
<polygon fill="black" stroke="black" points="965.26,-642.45 972.19,-634.44 961.78,-636.38 965.26,-642.45"/>
<text xml:space="preserve" text-anchor="middle" x="1006.12" y="-655.2" font-family="Times,serif" font-size="14.00">immutable config</text>
</g>
<!-- OpenVINOState -->
<g id="node13" class="node">
<title>OpenVINOState</title>
<polygon fill="#efebe9" stroke="#6d4c41" points="760.75,-633.25 635.25,-633.25 635.25,-597.25 760.75,-597.25 760.75,-633.25"/>
<text xml:space="preserve" text-anchor="middle" x="698" y="-611.75" font-family="Arial" font-size="10.00">OpenVINOBackendState</text>
</g>
<!-- OpenVINO&#45;&gt;OpenVINOState -->
<g id="edge19" class="edge">
<title>OpenVINO&#45;&gt;OpenVINOState</title>
<path fill="none" stroke="black" stroke-dasharray="1,5" d="M705.41,-698.43C686.22,-693.75 666.26,-684.94 654.5,-668.5 647.88,-659.24 652.42,-649.54 660.66,-641.04"/>
<polygon fill="black" stroke="black" points="662.74,-643.88 667.91,-634.63 658.1,-638.63 662.74,-643.88"/>
<text xml:space="preserve" text-anchor="middle" x="713.75" y="-655.2" font-family="Times,serif" font-size="14.00">observable state</text>
</g>
<!-- OpenVINORuntime -->
<g id="node14" class="node">
<title>OpenVINORuntime</title>
<polygon fill="#efebe9" stroke="#6d4c41" points="920.88,-633.25 781.12,-633.25 781.12,-597.25 920.88,-597.25 920.88,-633.25"/>
<text xml:space="preserve" text-anchor="middle" x="851" y="-617.75" font-family="Arial" font-size="10.00">OpenVINORuntime Protocol</text>
<text xml:space="preserve" text-anchor="middle" x="851" y="-605.75" font-family="Arial" font-size="10.00">injected fake/real</text>
</g>
<!-- OpenVINO&#45;&gt;OpenVINORuntime -->
<g id="edge20" class="edge">
<title>OpenVINO&#45;&gt;OpenVINORuntime</title>
<path fill="none" stroke="black" stroke-dasharray="5,2" d="M767.46,-686.23C774.57,-675.38 784.66,-661.55 795.75,-651.25 800.01,-647.29 804.77,-643.52 809.67,-640.01"/>
<polygon fill="black" stroke="black" points="811.56,-642.96 817.9,-634.47 807.65,-637.16 811.56,-642.96"/>
<text xml:space="preserve" text-anchor="middle" x="858.38" y="-655.2" font-family="Times,serif" font-size="14.00">infer via injection</text>
</g>
<!-- RealRuntime -->
<g id="node15" class="node">
<title>RealRuntime</title>
<g id="a_node15"><a xlink:href="42_openvino_runtime.svg" xlink:title="RealOpenVINORuntime\noptional real runtime">
<polygon fill="#efebe9" stroke="#6d4c41" points="913.5,-544 792.5,-544 792.5,-508 913.5,-508 913.5,-544"/>
<text xml:space="preserve" text-anchor="middle" x="853" y="-528.5" font-family="Arial" font-size="10.00">RealOpenVINORuntime</text>
<text xml:space="preserve" text-anchor="middle" x="853" y="-516.5" font-family="Arial" font-size="10.00">optional real runtime</text>
</a>
</g>
</g>
<!-- OpenVINORuntime&#45;&gt;RealRuntime -->
<g id="edge21" class="edge">
<title>OpenVINORuntime&#45;&gt;RealRuntime</title>
<path fill="none" stroke="black" stroke-dasharray="1,5" d="M851.4,-597.01C851.67,-585.18 852.03,-569.2 852.35,-555.5"/>
<polygon fill="black" stroke="black" points="855.84,-555.79 852.57,-545.72 848.84,-555.63 855.84,-555.79"/>
<text xml:space="preserve" text-anchor="middle" x="908.43" y="-565.95" font-family="Times,serif" font-size="14.00">implementation</text>
</g>
<!-- EmbeddingVector -->
<g id="node21" class="node">
<title>EmbeddingVector</title>
<g id="a_node21"><a xlink:href="45_openvino_embedding_raw.svg" xlink:title="OpenVINOEmbeddingVector\npost&#45;processed vector">
<polygon fill="#efebe9" stroke="#6d4c41" points="969.25,-406.25 828.75,-406.25 828.75,-370.25 969.25,-370.25 969.25,-406.25"/>
<text xml:space="preserve" text-anchor="middle" x="899" y="-390.75" font-family="Arial" font-size="10.00">OpenVINOEmbeddingVector</text>
<text xml:space="preserve" text-anchor="middle" x="899" y="-378.75" font-family="Arial" font-size="10.00">post&#45;processed vector</text>
</a>
</g>
</g>
<!-- RealRuntime&#45;&gt;EmbeddingVector -->
<g id="edge29" class="edge">
<title>RealRuntime&#45;&gt;EmbeddingVector</title>
<path fill="none" stroke="black" stroke-dasharray="5,2" d="M858.92,-507.53C866.65,-484.72 880.27,-444.52 889.46,-417.39"/>
<polygon fill="black" stroke="black" points="892.72,-418.68 892.62,-408.09 886.09,-416.43 892.72,-418.68"/>
<text xml:space="preserve" text-anchor="middle" x="939.9" y="-476.7" font-family="Times,serif" font-size="14.00">raw output adapter</text>
</g>
<!-- ModelProfile -->
<g id="node16" class="node">
<title>ModelProfile</title>
<g id="a_node16"><a xlink:href="43_openvino_profiles.svg" xlink:title="OpenVINOModelProfile\ndeclarative model">
<polygon fill="#efebe9" stroke="#6d4c41" points="816,-990.25 698,-990.25 698,-954.25 816,-954.25 816,-990.25"/>
<text xml:space="preserve" text-anchor="middle" x="757" y="-974.75" font-family="Arial" font-size="10.00">OpenVINOModelProfile</text>
<text xml:space="preserve" text-anchor="middle" x="757" y="-962.75" font-family="Arial" font-size="10.00">declarative model</text>
</a>
</g>
</g>
<!-- ProfileRegistry -->
<g id="node17" class="node">
<title>ProfileRegistry</title>
<g id="a_node17"><a xlink:href="43_openvino_profiles.svg" xlink:title="OpenVINOModelProfileRegistry\nprofiles only">
<polygon fill="#efebe9" stroke="#6d4c41" points="834.38,-901 679.62,-901 679.62,-865 834.38,-865 834.38,-901"/>
<text xml:space="preserve" text-anchor="middle" x="757" y="-885.5" font-family="Arial" font-size="10.00">OpenVINOModelProfileRegistry</text>
<text xml:space="preserve" text-anchor="middle" x="757" y="-873.5" font-family="Arial" font-size="10.00">profiles only</text>
</a>
</g>
</g>
<!-- ModelProfile&#45;&gt;ProfileRegistry -->
<g id="edge31" class="edge">
<title>ModelProfile&#45;&gt;ProfileRegistry</title>
<path fill="none" stroke="black" d="M757,-954.01C757,-942.18 757,-926.2 757,-912.5"/>
<polygon fill="black" stroke="black" points="760.5,-912.72 757,-902.72 753.5,-912.72 760.5,-912.72"/>
<text xml:space="preserve" text-anchor="middle" x="810.62" y="-922.95" font-family="Times,serif" font-size="14.00">register profile</text>
</g>
<!-- BackendFactory -->
<g id="node18" class="node">
<title>BackendFactory</title>
<g id="a_node18"><a xlink:href="43_openvino_profiles.svg" xlink:title="OpenVINOBackendFactory\nprofile &#45;&gt; backend">
<polygon fill="#efebe9" stroke="#6d4c41" points="824.62,-811.75 689.38,-811.75 689.38,-775.75 824.62,-775.75 824.62,-811.75"/>
<text xml:space="preserve" text-anchor="middle" x="757" y="-796.25" font-family="Arial" font-size="10.00">OpenVINOBackendFactory</text>
<text xml:space="preserve" text-anchor="middle" x="757" y="-784.25" font-family="Arial" font-size="10.00">profile &#45;&gt; backend</text>
</a>
</g>
</g>
<!-- ProfileRegistry&#45;&gt;BackendFactory -->
<g id="edge32" class="edge">
<title>ProfileRegistry&#45;&gt;BackendFactory</title>
<path fill="none" stroke="black" d="M757,-864.76C757,-852.93 757,-836.95 757,-823.25"/>
<polygon fill="black" stroke="black" points="760.5,-823.47 757,-813.47 753.5,-823.47 760.5,-823.47"/>
<text xml:space="preserve" text-anchor="middle" x="829" y="-833.7" font-family="Times,serif" font-size="14.00">select(profile_name)</text>
</g>
<!-- BackendFactory&#45;&gt;Registry -->
<g id="edge35" class="edge">
<title>BackendFactory&#45;&gt;Registry</title>
<path fill="none" stroke="black" stroke-dasharray="5,2" d="M689.16,-791.99C503.35,-789 0,-774.54 0,-705.5 0,-705.5 0,-705.5 0,-298 0,-245.59 162.7,-223.51 255.34,-215.19"/>
<polygon fill="black" stroke="black" points="255.39,-218.7 265.05,-214.35 254.78,-211.73 255.39,-218.7"/>
<text xml:space="preserve" text-anchor="middle" x="60.38" y="-521.33" font-family="Times,serif" font-size="14.00">register backend</text>
</g>
<!-- BackendFactory&#45;&gt;OpenVINO -->
<g id="edge34" class="edge">
<title>BackendFactory&#45;&gt;OpenVINO</title>
<path fill="none" stroke="black" stroke-dasharray="5,2" d="M757,-775.51C757,-763.68 757,-747.7 757,-734"/>
<polygon fill="black" stroke="black" points="760.5,-734.22 757,-724.22 753.5,-734.22 760.5,-734.22"/>
<text xml:space="preserve" text-anchor="middle" x="806.88" y="-744.45" font-family="Times,serif" font-size="14.00">build backend</text>
</g>
<!-- BackendFactory&#45;&gt;OpenVINOConfig -->
<g id="edge33" class="edge">
<title>BackendFactory&#45;&gt;OpenVINOConfig</title>
<path fill="none" stroke="black" stroke-dasharray="5,2" d="M824.95,-787.46C899.24,-777.61 1014.8,-749.38 1068,-668.5 1075.14,-657.64 1069.07,-647.82 1058.39,-639.7"/>
<polygon fill="black" stroke="black" points="1060.55,-636.93 1050.26,-634.39 1056.72,-642.79 1060.55,-636.93"/>
<text xml:space="preserve" text-anchor="middle" x="1117.94" y="-699.83" font-family="Times,serif" font-size="14.00">to_backend_config</text>
</g>
<!-- EmbeddingConfig -->
<g id="node19" class="node">
<title>EmbeddingConfig</title>
<g id="a_node19"><a xlink:href="44_openvino_embedding_profile.svg" xlink:title="OpenVINOEmbeddingProfileConfig\nembedding config">
<polygon fill="#efebe9" stroke="#6d4c41" points="841.5,-1079.5 672.5,-1079.5 672.5,-1043.5 841.5,-1043.5 841.5,-1079.5"/>
<text xml:space="preserve" text-anchor="middle" x="757" y="-1064" font-family="Arial" font-size="10.00">OpenVINOEmbeddingProfileConfig</text>
<text xml:space="preserve" text-anchor="middle" x="757" y="-1052" font-family="Arial" font-size="10.00">embedding config</text>
</a>
</g>
</g>
<!-- EmbeddingConfig&#45;&gt;ModelProfile -->
<g id="edge22" class="edge">
<title>EmbeddingConfig&#45;&gt;ModelProfile</title>
<path fill="none" stroke="black" d="M757,-1043.26C757,-1031.43 757,-1015.45 757,-1001.75"/>
<polygon fill="black" stroke="black" points="760.5,-1001.97 757,-991.97 753.5,-1001.97 760.5,-1001.97"/>
<text xml:space="preserve" text-anchor="middle" x="815.5" y="-1012.2" font-family="Times,serif" font-size="14.00">to_model_profile</text>
</g>
<!-- EmbeddingRaw -->
<g id="node20" class="node">
<title>EmbeddingRaw</title>
<g id="a_node20"><a xlink:href="45_openvino_embedding_raw.svg" xlink:title="OpenVINOEmbeddingRawInputs\nraw token tensors">
<polygon fill="#efebe9" stroke="#6d4c41" points="1011,-227.75 851,-227.75 851,-191.75 1011,-191.75 1011,-227.75"/>
<text xml:space="preserve" text-anchor="middle" x="931" y="-212.25" font-family="Arial" font-size="10.00">OpenVINOEmbeddingRawInputs</text>
<text xml:space="preserve" text-anchor="middle" x="931" y="-200.25" font-family="Arial" font-size="10.00">raw token tensors</text>
</a>
</g>
</g>
<!-- EmbeddingRaw&#45;&gt;InferenceRequest -->
<g id="edge27" class="edge">
<title>EmbeddingRaw&#45;&gt;InferenceRequest</title>
<path fill="none" stroke="black" stroke-dasharray="5,2" d="M969.86,-191.25C992.79,-180.24 1021.93,-165.02 1046,-148.5 1067.9,-133.47 1090.38,-113.54 1106.86,-97.94"/>
<polygon fill="black" stroke="black" points="1109.02,-100.72 1113.81,-91.27 1104.17,-95.67 1109.02,-100.72"/>
<text xml:space="preserve" text-anchor="middle" x="1082.59" y="-160.45" font-family="Times,serif" font-size="14.00">context inputs</text>
</g>
<!-- EmbeddingPipeline -->
<g id="node24" class="node">
<title>EmbeddingPipeline</title>
<g id="a_node24"><a xlink:href="47_openvino_embedding_pipeline.svg" xlink:title="OpenVINOEmbeddingPipeline\ntext &#45;&gt; vector">
<polygon fill="#efebe9" stroke="#6d4c41" points="1004.62,-317 857.38,-317 857.38,-281 1004.62,-281 1004.62,-317"/>
<text xml:space="preserve" text-anchor="middle" x="931" y="-301.5" font-family="Arial" font-size="10.00">OpenVINOEmbeddingPipeline</text>
<text xml:space="preserve" text-anchor="middle" x="931" y="-289.5" font-family="Arial" font-size="10.00">text &#45;&gt; vector</text>
</a>
</g>
</g>
<!-- EmbeddingVector&#45;&gt;EmbeddingPipeline -->
<g id="edge30" class="edge">
<title>EmbeddingVector&#45;&gt;EmbeddingPipeline</title>
<path fill="none" stroke="black" stroke-dasharray="1,5" d="M905.32,-370.01C909.75,-357.94 915.76,-341.56 920.85,-327.67"/>
<polygon fill="black" stroke="black" points="924.01,-329.22 924.17,-318.62 917.44,-326.81 924.01,-329.22"/>
<text xml:space="preserve" text-anchor="middle" x="963.62" y="-338.95" font-family="Times,serif" font-size="14.00">result vector</text>
</g>
<!-- TokenizerContract -->
<g id="node22" class="node">
<title>TokenizerContract</title>
<g id="a_node22"><a xlink:href="46_tokenizer_contract.svg" xlink:title="Tokenizer contract\ntext &#45;&gt; tokens">
<polygon fill="#efebe9" stroke="#6d4c41" points="761.12,-544 664.88,-544 664.88,-508 761.12,-508 761.12,-544"/>
<text xml:space="preserve" text-anchor="middle" x="713" y="-528.5" font-family="Arial" font-size="10.00">Tokenizer contract</text>
<text xml:space="preserve" text-anchor="middle" x="713" y="-516.5" font-family="Arial" font-size="10.00">text &#45;&gt; tokens</text>
</a>
</g>
</g>
<!-- TokenizationResult -->
<g id="node23" class="node">
<title>TokenizationResult</title>
<g id="a_node23"><a xlink:href="46_tokenizer_contract.svg" xlink:title="TokenizationResult\ninput_ids / attention_mask">
<polygon fill="#efebe9" stroke="#6d4c41" points="778.38,-406.25 647.62,-406.25 647.62,-370.25 778.38,-370.25 778.38,-406.25"/>
<text xml:space="preserve" text-anchor="middle" x="713" y="-390.75" font-family="Arial" font-size="10.00">TokenizationResult</text>
<text xml:space="preserve" text-anchor="middle" x="713" y="-378.75" font-family="Arial" font-size="10.00">input_ids / attention_mask</text>
</a>
</g>
</g>
<!-- TokenizerContract&#45;&gt;TokenizationResult -->
<g id="edge23" class="edge">
<title>TokenizerContract&#45;&gt;TokenizationResult</title>
<path fill="none" stroke="black" d="M713,-507.53C713,-484.93 713,-445.24 713,-418.12"/>
<polygon fill="black" stroke="black" points="716.5,-418.17 713,-408.17 709.5,-418.17 716.5,-418.17"/>
<text xml:space="preserve" text-anchor="middle" x="743" y="-476.7" font-family="Times,serif" font-size="14.00">tokenize</text>
</g>
<!-- TokenizationResult&#45;&gt;EmbeddingRaw -->
<g id="edge24" class="edge">
<title>TokenizationResult&#45;&gt;EmbeddingRaw</title>
<path fill="none" stroke="black" d="M693.57,-369.82C671.26,-347.69 640.36,-309.01 662,-281 683.84,-252.73 770.34,-233.67 839.44,-222.61"/>
<polygon fill="black" stroke="black" points="839.97,-226.07 849.31,-221.08 838.89,-219.16 839.97,-226.07"/>
<text xml:space="preserve" text-anchor="middle" x="755" y="-294.32" font-family="Times,serif" font-size="14.00">to_embedding_raw_inputs</text>
</g>
<!-- TokenizationResult&#45;&gt;EmbeddingPipeline -->
<g id="edge25" class="edge">
<title>TokenizationResult&#45;&gt;EmbeddingPipeline</title>
<path fill="none" stroke="black" stroke-dasharray="5,2" d="M753.75,-369.83C778.17,-359.5 809.89,-346.26 838.25,-335 849.52,-330.53 861.61,-325.86 873.21,-321.46"/>
<polygon fill="black" stroke="black" points="874.16,-324.84 882.28,-318.03 871.69,-318.29 874.16,-324.84"/>
<text xml:space="preserve" text-anchor="middle" x="873.12" y="-338.95" font-family="Times,serif" font-size="14.00">Phase 3.5</text>
</g>
<!-- EmbeddingPipeline&#45;&gt;Adapter -->
<g id="edge28" class="edge">
<title>EmbeddingPipeline&#45;&gt;Adapter</title>
<path fill="none" stroke="black" stroke-dasharray="5,2" d="M856.98,-316.26C774.91,-333.29 638.53,-355.38 520.75,-344.81 454.96,-338.91 436.42,-333.31 368.7,-317.32"/>
<polygon fill="black" stroke="black" points="369.87,-314 359.34,-315.12 368.27,-320.81 369.87,-314"/>
<text xml:space="preserve" text-anchor="middle" x="583" y="-338.95" font-family="Times,serif" font-size="14.00">infer raw request</text>
</g>
<!-- EmbeddingPipeline&#45;&gt;EmbeddingRaw -->
<g id="edge26" class="edge">
<title>EmbeddingPipeline&#45;&gt;EmbeddingRaw</title>
<path fill="none" stroke="black" d="M931,-280.76C931,-268.93 931,-252.95 931,-239.25"/>
<polygon fill="black" stroke="black" points="934.5,-239.47 931,-229.47 927.5,-239.47 934.5,-239.47"/>
<text xml:space="preserve" text-anchor="middle" x="969.25" y="-249.7" font-family="Times,serif" font-size="14.00">raw inputs</text>
</g>
<!-- Dispatcher -->
<g id="node26" class="node">
<title>Dispatcher</title>
<g id="a_node26"><a xlink:href="../scheduler/dispatcher/11_dispatcher.svg" xlink:title="Dispatcher">
<polygon fill="#ede7f6" stroke="#512da8" points="602.62,-544 539.38,-544 539.38,-508 602.62,-508 602.62,-544"/>
<text xml:space="preserve" text-anchor="middle" x="571" y="-522.5" font-family="Arial" font-size="10.00">Dispatcher</text>
</a>
</g>
</g>
<!-- Scheduler&#45;&gt;Dispatcher -->
<g id="edge3" class="edge">
<title>Scheduler&#45;&gt;Dispatcher</title>
<path fill="none" stroke="black" d="M437.08,-598.25C462.86,-584.53 500.26,-564.63 529,-549.35"/>
<polygon fill="black" stroke="black" points="530.63,-552.44 537.82,-544.65 527.34,-546.26 530.63,-552.44"/>
<text xml:space="preserve" text-anchor="middle" x="526.56" y="-565.95" font-family="Times,serif" font-size="14.00">Queue</text>
</g>
<!-- Dispatcher&#45;&gt;Handler -->
<g id="edge4" class="edge">
<title>Dispatcher&#45;&gt;Handler</title>
<path fill="none" stroke="black" d="M576.37,-507.81C578.7,-497.25 579.92,-483.7 575,-472.75 563.88,-448 541.39,-427.6 521.2,-413.15"/>
<polygon fill="black" stroke="black" points="523.32,-410.36 513.09,-407.6 519.36,-416.14 523.32,-410.36"/>
</g>
<!-- ComponentProxy&#45;&gt;EventRequest -->
<g id="edge1" class="edge">
<title>ComponentProxy&#45;&gt;EventRequest</title>
<path fill="none" stroke="black" d="M419.95,-510.01C407.86,-504.81 395.33,-498.17 385,-490 359.31,-469.68 337.95,-438.52 324.68,-416.23"/>
<polygon fill="black" stroke="black" points="327.78,-414.61 319.75,-407.7 321.72,-418.11 327.78,-414.61"/>
<text xml:space="preserve" text-anchor="middle" x="425.5" y="-476.7" font-family="Times,serif" font-size="14.00">yield Event</text>
</g>
<!-- Nav_Global -->
<g id="node29" class="node">
<title>Nav_Global</title>
<g id="a_node29"><a xlink:href="../00_global.svg" xlink:title="Global">
<polygon fill="lightgrey" stroke="none" points="410,-36 356,-36 356,0 410,0 410,-36"/>
<text xml:space="preserve" text-anchor="middle" x="383" y="-14.5" font-family="Arial" font-size="10.00">Global</text>
</a>
</g>
</g>
<!-- Nav_Scheduler -->
<g id="node30" class="node">
<title>Nav_Scheduler</title>
<g id="a_node30"><a xlink:href="../scheduler/10_scheduler.svg" xlink:title="Scheduler">
<polygon fill="lightgrey" stroke="none" points="474.75,-36 415.25,-36 415.25,0 474.75,0 474.75,-36"/>
<text xml:space="preserve" text-anchor="middle" x="445" y="-14.5" font-family="Arial" font-size="10.00">Scheduler</text>
</a>
</g>
</g>
<!-- Nav_Services -->
<g id="node31" class="node">
<title>Nav_Services</title>
<g id="a_node31"><a xlink:href="../services/30_services.svg" xlink:title="Services">
<polygon fill="lightgrey" stroke="none" points="534.12,-36 479.88,-36 479.88,0 534.12,0 534.12,-36"/>
<text xml:space="preserve" text-anchor="middle" x="507" y="-14.5" font-family="Arial" font-size="10.00">Services</text>
</a>
</g>
</g>
<!-- Nav_Profiles -->
<g id="node32" class="node">
<title>Nav_Profiles</title>
<g id="a_node32"><a xlink:href="43_openvino_profiles.svg" xlink:title="OpenVINO profiles">
<polygon fill="lightgrey" stroke="none" points="637.25,-36 538.75,-36 538.75,0 637.25,0 637.25,-36"/>
<text xml:space="preserve" text-anchor="middle" x="588" y="-14.5" font-family="Arial" font-size="10.00">OpenVINO profiles</text>
</a>
</g>
</g>
<!-- Nav_Embedding -->
<g id="node33" class="node">
<title>Nav_Embedding</title>
<g id="a_node33"><a xlink:href="44_openvino_embedding_profile.svg" xlink:title="Embedding profile">
<polygon fill="lightgrey" stroke="none" points="736,-36 642,-36 642,0 736,0 736,-36"/>
<text xml:space="preserve" text-anchor="middle" x="689" y="-14.5" font-family="Arial" font-size="10.00">Embedding profile</text>
</a>
</g>
</g>
<!-- Nav_EmbeddingRaw -->
<g id="node34" class="node">
<title>Nav_EmbeddingRaw</title>
<g id="a_node34"><a xlink:href="45_openvino_embedding_raw.svg" xlink:title="Embedding raw IO">
<polygon fill="lightgrey" stroke="none" points="838.5,-36 741.5,-36 741.5,0 838.5,0 838.5,-36"/>
<text xml:space="preserve" text-anchor="middle" x="790" y="-14.5" font-family="Arial" font-size="10.00">Embedding raw IO</text>
</a>
</g>
</g>
<!-- Nav_Tokenizer -->
<g id="node35" class="node">
<title>Nav_Tokenizer</title>
<g id="a_node35"><a xlink:href="46_tokenizer_contract.svg" xlink:title="Tokenizer contract">
<polygon fill="lightgrey" stroke="none" points="940.12,-36 843.88,-36 843.88,0 940.12,0 940.12,-36"/>
<text xml:space="preserve" text-anchor="middle" x="892" y="-14.5" font-family="Arial" font-size="10.00">Tokenizer contract</text>
</a>
</g>
</g>
<!-- Nav_Pipeline -->
<g id="node36" class="node">
<title>Nav_Pipeline</title>
<g id="a_node36"><a xlink:href="47_openvino_embedding_pipeline.svg" xlink:title="Embedding pipeline">
<polygon fill="lightgrey" stroke="none" points="1046.38,-36 945.62,-36 945.62,0 1046.38,0 1046.38,-36"/>
<text xml:space="preserve" text-anchor="middle" x="996" y="-14.5" font-family="Arial" font-size="10.00">Embedding pipeline</text>
</a>
</g>
</g>
<!-- Nav_TestTokenizer -->
<g id="node37" class="node">
<title>Nav_TestTokenizer</title>
<g id="a_node37"><a xlink:href="48_deterministic_tokenizer.svg" xlink:title="Deterministic tokenizer">
<polygon fill="lightgrey" stroke="none" points="1168.25,-36 1051.75,-36 1051.75,0 1168.25,0 1168.25,-36"/>
<text xml:space="preserve" text-anchor="middle" x="1110" y="-14.5" font-family="Arial" font-size="10.00">Deterministic tokenizer</text>
</a>
</g>
</g>
</g>
</svg>
