<?xml version="1.0" encoding="UTF-8" standalone="no"?>
<!DOCTYPE svg PUBLIC "-//W3C//DTD SVG 1.1//EN"
 "http://www.w3.org/Graphics/SVG/1.1/DTD/svg11.dtd">
<!-- Generated by graphviz version 14.1.3 (20260303.0454)
 -->
<!-- Title: Inference Pages: 1 -->
<svg width="1519pt" height="590pt"
 viewBox="0.00 0.00 1519.00 590.00" xmlns="http://www.w3.org/2000/svg" xmlns:xlink="http://www.w3.org/1999/xlink">
<g id="graph0" class="graph" transform="scale(1 1) rotate(0) translate(4 585.5)">
<title>Inference</title>
<polygon fill="white" stroke="none" points="-4,4 -4,-585.5 1515.5,-585.5 1515.5,4 -4,4"/>
<g id="clust1" class="cluster">
<title>cluster_contracts</title>
<polygon fill="#eceff1" stroke="#455a64" points="847.5,-205.25 847.5,-282.5 1503.5,-282.5 1503.5,-205.25 847.5,-205.25"/>
<text xml:space="preserve" text-anchor="middle" x="1175.5" y="-265.2" font-family="Times,serif" font-size="14.00">Contracts</text>
</g>
<g id="clust2" class="cluster">
<title>cluster_runtime</title>
<polygon fill="#fffde7" stroke="#f9a825" points="499.5,-205.25 499.5,-573.5 839.5,-573.5 839.5,-205.25 499.5,-205.25"/>
<text xml:space="preserve" text-anchor="middle" x="669.5" y="-556.2" font-family="Times,serif" font-size="14.00">Runtime Phase 2.5</text>
</g>
<g id="clust3" class="cluster">
<title>cluster_openvino_contract</title>
<polygon fill="#efebe9" stroke="#6d4c41" points="15.5,-8 15.5,-282.5 463.5,-282.5 463.5,-8 15.5,-8"/>
<text xml:space="preserve" text-anchor="middle" x="239.5" y="-265.2" font-family="Times,serif" font-size="14.00">OpenVINO Phase 2.9</text>
</g>
<!-- InferenceRequest -->
<g id="node1" class="node">
<title>InferenceRequest</title>
<polygon fill="#eceff1" stroke="#455a64" points="1495.5,-249.25 1341.5,-249.25 1341.5,-213.25 1495.5,-213.25 1495.5,-249.25"/>
<text xml:space="preserve" text-anchor="middle" x="1418.5" y="-233.75" font-family="Arial" font-size="10.00">InferenceRequest</text>
<text xml:space="preserve" text-anchor="middle" x="1418.5" y="-221.75" font-family="Arial" font-size="10.00">prompt/context/model/metadata</text>
</g>
<!-- InferenceResult -->
<g id="node2" class="node">
<title>InferenceResult</title>
<polygon fill="#eceff1" stroke="#455a64" points="1323.5,-249.25 1157.5,-249.25 1157.5,-213.25 1323.5,-213.25 1323.5,-249.25"/>
<text xml:space="preserve" text-anchor="middle" x="1240.5" y="-233.75" font-family="Arial" font-size="10.00">InferenceResult</text>
<text xml:space="preserve" text-anchor="middle" x="1240.5" y="-221.75" font-family="Arial" font-size="10.00">text/confidence/backend/metadata</text>
</g>
<!-- Adapter -->
<g id="node7" class="node">
<title>Adapter</title>
<polygon fill="#fffde7" stroke="#f9a825" points="801.87,-451 695.12,-451 695.12,-415 801.87,-415 801.87,-451"/>
<text xml:space="preserve" text-anchor="middle" x="748.5" y="-435.5" font-family="Arial" font-size="10.00">InferenceAdapter</text>
<text xml:space="preserve" text-anchor="middle" x="748.5" y="-423.5" font-family="Arial" font-size="10.00">execution membrane</text>
</g>
<!-- InferenceResult&#45;&gt;Adapter -->
<g id="edge12" class="edge">
<title>InferenceResult&#45;&gt;Adapter</title>
<path fill="none" stroke="black" d="M1216.09,-249.75C1198.3,-261.44 1173.09,-275.84 1148.5,-282.5 1118.99,-290.49 899.83,-274.97 873.5,-290.5 826.13,-318.44 849.78,-358.51 810.5,-397 806.19,-401.22 801.28,-405.1 796.15,-408.62"/>
<polygon fill="black" stroke="black" points="794.61,-405.45 788.03,-413.75 798.35,-411.36 794.61,-405.45"/>
</g>
<!-- InferenceBackend -->
<g id="node3" class="node">
<title>InferenceBackend</title>
<polygon fill="#eceff1" stroke="#455a64" points="989.37,-249.25 855.62,-249.25 855.62,-213.25 989.37,-213.25 989.37,-249.25"/>
<text xml:space="preserve" text-anchor="middle" x="922.5" y="-227.75" font-family="Arial" font-size="10.00">InferenceBackend Protocol</text>
</g>
<!-- RegistrySnapshot -->
<g id="node4" class="node">
<title>RegistrySnapshot</title>
<polygon fill="#eceff1" stroke="#455a64" points="1139.62,-249.25 1007.37,-249.25 1007.37,-213.25 1139.62,-213.25 1139.62,-249.25"/>
<text xml:space="preserve" text-anchor="middle" x="1073.5" y="-233.75" font-family="Arial" font-size="10.00">BackendRegistrySnapshot</text>
<text xml:space="preserve" text-anchor="middle" x="1073.5" y="-221.75" font-family="Arial" font-size="10.00">default/name list</text>
</g>
<!-- EventRequest -->
<g id="node5" class="node">
<title>EventRequest</title>
<polygon fill="#fffde7" stroke="#f9a825" points="831.87,-540.25 653.12,-540.25 653.12,-504.25 831.87,-504.25 831.87,-540.25"/>
<text xml:space="preserve" text-anchor="middle" x="742.5" y="-524.75" font-family="Arial" font-size="10.00">EventType.INFERENCE_REQUEST</text>
<text xml:space="preserve" text-anchor="middle" x="742.5" y="-512.75" font-family="Arial" font-size="10.00">Request.reply</text>
</g>
<!-- Scheduler -->
<g id="node16" class="node">
<title>Scheduler</title>
<g id="a_node16"><a xlink:href="../scheduler/10_scheduler.svg" xlink:title="Scheduler">
<polygon fill="#ede7f6" stroke="#512da8" points="1139.25,-451 1079.75,-451 1079.75,-415 1139.25,-415 1139.25,-451"/>
<text xml:space="preserve" text-anchor="middle" x="1109.5" y="-429.5" font-family="Arial" font-size="10.00">Scheduler</text>
</a>
</g>
</g>
<!-- EventRequest&#45;&gt;Scheduler -->
<g id="edge2" class="edge">
<title>EventRequest&#45;&gt;Scheduler</title>
<path fill="none" stroke="black" d="M831.97,-517.62C929.92,-512.83 1075.78,-502.99 1095.5,-486.25 1102.42,-480.38 1106.11,-471.49 1108.02,-462.7"/>
<polygon fill="black" stroke="black" points="1111.46,-463.37 1109.42,-452.97 1104.53,-462.37 1111.46,-463.37"/>
<text xml:space="preserve" text-anchor="middle" x="1122.28" y="-472.95" font-family="Times,serif" font-size="14.00">emit</text>
</g>
<!-- Handler -->
<g id="node6" class="node">
<title>Handler</title>
<polygon fill="#fffde7" stroke="#f9a825" points="635,-540.25 508,-540.25 508,-504.25 635,-504.25 635,-540.25"/>
<text xml:space="preserve" text-anchor="middle" x="571.5" y="-518.75" font-family="Arial" font-size="10.00">InferenceRequestHandler</text>
</g>
<!-- Handler&#45;&gt;InferenceRequest -->
<g id="edge5" class="edge">
<title>Handler&#45;&gt;InferenceRequest</title>
<path fill="none" stroke="black" stroke-dasharray="1,5" d="M635.1,-505.95C638.27,-505.34 641.42,-504.77 644.5,-504.25 718.98,-491.66 745.52,-519.19 813.5,-486.25 903.29,-442.73 880.98,-369.84 970.5,-325.75 1115.85,-254.15 1178.89,-334.06 1332.5,-282.5 1351.05,-276.27 1370.02,-265.72 1385.4,-255.9"/>
<polygon fill="black" stroke="black" points="1387.26,-258.86 1393.68,-250.43 1383.41,-253.02 1387.26,-258.86"/>
<text xml:space="preserve" text-anchor="middle" x="966.06" y="-383.7" font-family="Times,serif" font-size="14.00">validate payload</text>
</g>
<!-- Handler&#45;&gt;Adapter -->
<g id="edge6" class="edge">
<title>Handler&#45;&gt;Adapter</title>
<path fill="none" stroke="black" d="M615.96,-503.86C628.85,-498.51 642.86,-492.41 655.5,-486.25 673.7,-477.38 693.31,-466.56 709.81,-457.07"/>
<polygon fill="black" stroke="black" points="711.44,-460.17 718.33,-452.12 707.93,-454.12 711.44,-460.17"/>
<text xml:space="preserve" text-anchor="middle" x="736.22" y="-472.95" font-family="Times,serif" font-size="14.00">infer(request)</text>
</g>
<!-- EventResult -->
<g id="node10" class="node">
<title>EventResult</title>
<polygon fill="#fffde7" stroke="#f9a825" points="677,-451 508,-451 508,-415 677,-415 677,-451"/>
<text xml:space="preserve" text-anchor="middle" x="592.5" y="-435.5" font-family="Arial" font-size="10.00">EventType.INFERENCE_RESULT</text>
<text xml:space="preserve" text-anchor="middle" x="592.5" y="-423.5" font-family="Arial" font-size="10.00">observable</text>
</g>
<!-- Handler&#45;&gt;EventResult -->
<g id="edge15" class="edge">
<title>Handler&#45;&gt;EventResult</title>
<path fill="none" stroke="black" d="M575.65,-504.01C578.52,-492.06 582.42,-475.88 585.74,-462.08"/>
<polygon fill="black" stroke="black" points="589.06,-463.21 588,-452.67 582.26,-461.58 589.06,-463.21"/>
<text xml:space="preserve" text-anchor="middle" x="610.13" y="-472.95" font-family="Times,serif" font-size="14.00">publish</text>
</g>
<!-- ComponentProxy -->
<g id="node18" class="node">
<title>ComponentProxy</title>
<g id="a_node18"><a xlink:href="../scheduler/component_proxy/14_component_proxy.svg" xlink:title="ComponentProxy">
<polygon fill="#ede7f6" stroke="#512da8" points="1039.37,-451 947.62,-451 947.62,-415 1039.37,-415 1039.37,-451"/>
<text xml:space="preserve" text-anchor="middle" x="993.5" y="-429.5" font-family="Arial" font-size="10.00">ComponentProxy</text>
</a>
</g>
</g>
<!-- Handler&#45;&gt;ComponentProxy -->
<g id="edge14" class="edge">
<title>Handler&#45;&gt;ComponentProxy</title>
<path fill="none" stroke="black" stroke-dasharray="5,2" d="M635.48,-505.76C638.52,-505.21 641.54,-504.7 644.5,-504.25 696.92,-496.21 833.71,-507.05 882.5,-486.25 893.06,-481.74 891.94,-474.98 901.75,-469 912.44,-462.48 924.56,-456.81 936.4,-452.06"/>
<polygon fill="black" stroke="black" points="937.65,-455.33 945.74,-448.48 935.15,-448.79 937.65,-455.33"/>
<text xml:space="preserve" text-anchor="middle" x="951.62" y="-472.95" font-family="Times,serif" font-size="14.00">Request.reply</text>
</g>
<!-- Adapter&#45;&gt;Handler -->
<g id="edge13" class="edge">
<title>Adapter&#45;&gt;Handler</title>
<path fill="none" stroke="black" d="M695.08,-448.97C681.5,-454.12 667.39,-460.73 655.5,-469 647.15,-474.8 648.51,-480 640.5,-486.25 634.87,-490.64 628.6,-494.72 622.2,-498.42"/>
<polygon fill="black" stroke="black" points="620.55,-495.34 613.44,-503.2 623.9,-501.48 620.55,-495.34"/>
</g>
<!-- Registry -->
<g id="node8" class="node">
<title>Registry</title>
<polygon fill="#fffde7" stroke="#f9a825" points="748.62,-361.75 646.37,-361.75 646.37,-325.75 748.62,-325.75 748.62,-361.75"/>
<text xml:space="preserve" text-anchor="middle" x="697.5" y="-346.25" font-family="Arial" font-size="10.00">BackendRegistry</text>
<text xml:space="preserve" text-anchor="middle" x="697.5" y="-334.25" font-family="Arial" font-size="10.00">explicit backend list</text>
</g>
<!-- Adapter&#45;&gt;Registry -->
<g id="edge7" class="edge">
<title>Adapter&#45;&gt;Registry</title>
<path fill="none" stroke="black" d="M718.23,-414.69C712.06,-409.76 706.3,-403.84 702.5,-397 698.51,-389.83 696.7,-381.24 696.04,-373.12"/>
<polygon fill="black" stroke="black" points="699.55,-373.2 695.81,-363.28 692.55,-373.36 699.55,-373.2"/>
<text xml:space="preserve" text-anchor="middle" x="756.5" y="-383.7" font-family="Times,serif" font-size="14.00">select_backend</text>
</g>
<!-- Registry&#45;&gt;InferenceBackend -->
<g id="edge9" class="edge">
<title>Registry&#45;&gt;InferenceBackend</title>
<path fill="none" stroke="black" stroke-dasharray="1,5" d="M692.59,-325.4C690.51,-313.95 690.26,-299.47 699,-290.5 710.21,-278.98 828.19,-287.42 843.5,-282.5 861.1,-276.84 878.66,-266.29 892.73,-256.31"/>
<polygon fill="black" stroke="black" points="894.69,-259.22 900.66,-250.46 890.54,-253.58 894.69,-259.22"/>
<text xml:space="preserve" text-anchor="middle" x="728.25" y="-294.45" font-family="Times,serif" font-size="14.00">protocol</text>
</g>
<!-- Registry&#45;&gt;RegistrySnapshot -->
<g id="edge8" class="edge">
<title>Registry&#45;&gt;RegistrySnapshot</title>
<path fill="none" stroke="black" stroke-dasharray="1,5" d="M728.71,-325.38C738.09,-319.93 748.32,-313.77 757.5,-307.75 768.33,-300.64 768.76,-294.76 781,-290.5 826.67,-274.6 952.49,-297.42 998.5,-282.5 1015.29,-277.05 1031.83,-266.67 1045.08,-256.75"/>
<polygon fill="black" stroke="black" points="1047.2,-259.54 1052.92,-250.62 1042.89,-254.02 1047.2,-259.54"/>
<text xml:space="preserve" text-anchor="middle" x="813.25" y="-294.45" font-family="Times,serif" font-size="14.00">snapshot</text>
</g>
<!-- Dummy -->
<g id="node9" class="node">
<title>Dummy</title>
<polygon fill="#fffde7" stroke="#f9a825" points="646.12,-249.25 516.87,-249.25 516.87,-213.25 646.12,-213.25 646.12,-249.25"/>
<text xml:space="preserve" text-anchor="middle" x="581.5" y="-233.75" font-family="Arial" font-size="10.00">DummyInferenceBackend</text>
<text xml:space="preserve" text-anchor="middle" x="581.5" y="-221.75" font-family="Arial" font-size="10.00">deterministic</text>
</g>
<!-- Registry&#45;&gt;Dummy -->
<g id="edge10" class="edge">
<title>Registry&#45;&gt;Dummy</title>
<path fill="none" stroke="black" d="M646.06,-335.49C613.84,-329.78 576.62,-320.61 566.75,-307.75 556.31,-294.15 560.05,-275.2 566.37,-259.69"/>
<polygon fill="black" stroke="black" points="569.38,-261.53 570.38,-250.99 563.02,-258.6 569.38,-261.53"/>
<text xml:space="preserve" text-anchor="middle" x="621.12" y="-294.45" font-family="Times,serif" font-size="14.00">model=dummy</text>
</g>
<!-- OpenVINO -->
<g id="node11" class="node">
<title>OpenVINO</title>
<g id="a_node11"><a xlink:href="41_openvino_backend.svg" xlink:title="OpenVINOBackend\nbackend membrane">
<polygon fill="#efebe9" stroke="#6d4c41" points="239.62,-249.25 137.37,-249.25 137.37,-213.25 239.62,-213.25 239.62,-249.25"/>
<text xml:space="preserve" text-anchor="middle" x="188.5" y="-233.75" font-family="Arial" font-size="10.00">OpenVINOBackend</text>
<text xml:space="preserve" text-anchor="middle" x="188.5" y="-221.75" font-family="Arial" font-size="10.00">backend membrane</text>
</a>
</g>
</g>
<!-- Registry&#45;&gt;OpenVINO -->
<g id="edge17" class="edge">
<title>Registry&#45;&gt;OpenVINO</title>
<path fill="none" stroke="black" stroke-dasharray="5,2" d="M645.91,-338.09C560.33,-330.24 395.77,-314.55 369.75,-307.75 350.92,-302.83 347.43,-298.05 329.5,-290.5 300.53,-278.31 268.13,-264.91 241.69,-254.03"/>
<polygon fill="black" stroke="black" points="243.11,-250.83 232.53,-250.27 240.45,-257.31 243.11,-250.83"/>
<text xml:space="preserve" text-anchor="middle" x="463.12" y="-294.45" font-family="Times,serif" font-size="14.00">future registered backend</text>
</g>
<!-- Dummy&#45;&gt;InferenceResult -->
<g id="edge11" class="edge">
<title>Dummy&#45;&gt;InferenceResult</title>
<path fill="none" stroke="black" d="M633.88,-249.75C687.86,-267.76 774.85,-293.87 852.5,-304.12 915.72,-312.48 1078.81,-323.73 1139.5,-304.12 1168.09,-294.89 1195.41,-274.2 1214.41,-257.22"/>
<polygon fill="black" stroke="black" points="1216.69,-259.87 1221.67,-250.51 1211.94,-254.73 1216.69,-259.87"/>
</g>
<!-- EventBus -->
<g id="node19" class="node">
<title>EventBus</title>
<g id="a_node19"><a xlink:href="../scheduler/event_bus/12_event_bus.svg" xlink:title="EventBus">
<polygon fill="#ede7f6" stroke="#512da8" points="491.87,-361.75 433.12,-361.75 433.12,-325.75 491.87,-325.75 491.87,-361.75"/>
<text xml:space="preserve" text-anchor="middle" x="462.5" y="-340.25" font-family="Arial" font-size="10.00">EventBus</text>
</a>
</g>
</g>
<!-- EventResult&#45;&gt;EventBus -->
<g id="edge16" class="edge">
<title>EventResult&#45;&gt;EventBus</title>
<path fill="none" stroke="black" stroke-dasharray="5,2" d="M566.5,-414.55C546.84,-401.36 519.62,-383.09 497.96,-368.55"/>
<polygon fill="black" stroke="black" points="499.96,-365.68 489.7,-363.01 496.06,-371.49 499.96,-365.68"/>
</g>
<!-- OpenVINOConfig -->
<g id="node12" class="node">
<title>OpenVINOConfig</title>
<polygon fill="#efebe9" stroke="#6d4c41" points="153.87,-141.25 23.12,-141.25 23.12,-105.25 153.87,-105.25 153.87,-141.25"/>
<text xml:space="preserve" text-anchor="middle" x="88.5" y="-119.75" font-family="Arial" font-size="10.00">OpenVINOBackendConfig</text>
</g>
<!-- OpenVINO&#45;&gt;OpenVINOConfig -->
<g id="edge18" class="edge">
<title>OpenVINO&#45;&gt;OpenVINOConfig</title>
<path fill="none" stroke="black" stroke-dasharray="1,5" d="M136.99,-223.22C104.12,-217.56 65.86,-208.37 55.75,-195.25 45.98,-182.58 49.87,-174.13 55.75,-159.25 56.95,-156.2 58.56,-153.26 60.42,-150.47"/>
<polygon fill="black" stroke="black" points="63.04,-152.8 66.54,-142.8 57.57,-148.43 63.04,-152.8"/>
<text xml:space="preserve" text-anchor="middle" x="117.62" y="-172.57" font-family="Times,serif" font-size="14.00">immutable config</text>
</g>
<!-- OpenVINOState -->
<g id="node13" class="node">
<title>OpenVINOState</title>
<polygon fill="#efebe9" stroke="#6d4c41" points="297.25,-141.25 171.75,-141.25 171.75,-105.25 297.25,-105.25 297.25,-141.25"/>
<text xml:space="preserve" text-anchor="middle" x="234.5" y="-119.75" font-family="Arial" font-size="10.00">OpenVINOBackendState</text>
</g>
<!-- OpenVINO&#45;&gt;OpenVINOState -->
<g id="edge19" class="edge">
<title>OpenVINO&#45;&gt;OpenVINOState</title>
<path fill="none" stroke="black" stroke-dasharray="1,5" d="M184.9,-212.92C182.67,-197.91 181.63,-176.02 190,-159.25 191.76,-155.71 194.07,-152.42 196.71,-149.39"/>
<polygon fill="black" stroke="black" points="198.99,-152.05 203.75,-142.58 194.13,-147.02 198.99,-152.05"/>
<text xml:space="preserve" text-anchor="middle" x="249.25" y="-172.57" font-family="Times,serif" font-size="14.00">observable state</text>
</g>
<!-- OpenVINORuntime -->
<g id="node14" class="node">
<title>OpenVINORuntime</title>
<polygon fill="#efebe9" stroke="#6d4c41" points="455.37,-141.25 315.62,-141.25 315.62,-105.25 455.37,-105.25 455.37,-141.25"/>
<text xml:space="preserve" text-anchor="middle" x="385.5" y="-125.75" font-family="Arial" font-size="10.00">OpenVINORuntime Protocol</text>
<text xml:space="preserve" text-anchor="middle" x="385.5" y="-113.75" font-family="Arial" font-size="10.00">injected fake/real</text>
</g>
<!-- OpenVINO&#45;&gt;OpenVINORuntime -->
<g id="edge20" class="edge">
<title>OpenVINO&#45;&gt;OpenVINORuntime</title>
<path fill="none" stroke="black" stroke-dasharray="5,2" d="M239.92,-222.47C262.36,-217.32 288.12,-208.9 308.5,-195.25 325.51,-183.85 322.44,-173.39 337.25,-159.25 341.11,-155.56 345.38,-151.93 349.74,-148.49"/>
<polygon fill="black" stroke="black" points="351.61,-151.47 357.48,-142.65 347.39,-145.88 351.61,-151.47"/>
<text xml:space="preserve" text-anchor="middle" x="399.87" y="-172.57" font-family="Times,serif" font-size="14.00">infer via injection</text>
</g>
<!-- RealRuntime -->
<g id="node15" class="node">
<title>RealRuntime</title>
<g id="a_node15"><a xlink:href="42_openvino_runtime.svg" xlink:title="RealOpenVINORuntime\noptional real runtime">
<polygon fill="#efebe9" stroke="#6d4c41" points="403,-52 282,-52 282,-16 403,-16 403,-52"/>
<text xml:space="preserve" text-anchor="middle" x="342.5" y="-36.5" font-family="Arial" font-size="10.00">RealOpenVINORuntime</text>
<text xml:space="preserve" text-anchor="middle" x="342.5" y="-24.5" font-family="Arial" font-size="10.00">optional real runtime</text>
</a>
</g>
</g>
<!-- OpenVINORuntime&#45;&gt;RealRuntime -->
<g id="edge21" class="edge">
<title>OpenVINORuntime&#45;&gt;RealRuntime</title>
<path fill="none" stroke="black" stroke-dasharray="1,5" d="M377,-105.01C370.99,-92.82 362.82,-76.23 355.93,-62.26"/>
<polygon fill="black" stroke="black" points="359.2,-60.98 351.64,-53.56 352.92,-64.08 359.2,-60.98"/>
<text xml:space="preserve" text-anchor="middle" x="424.1" y="-73.95" font-family="Times,serif" font-size="14.00">implementation</text>
</g>
<!-- Dispatcher -->
<g id="node17" class="node">
<title>Dispatcher</title>
<g id="a_node17"><a xlink:href="../scheduler/dispatcher/11_dispatcher.svg" xlink:title="Dispatcher">
<polygon fill="#ede7f6" stroke="#512da8" points="1043.12,-361.75 979.87,-361.75 979.87,-325.75 1043.12,-325.75 1043.12,-361.75"/>
<text xml:space="preserve" text-anchor="middle" x="1011.5" y="-340.25" font-family="Arial" font-size="10.00">Dispatcher</text>
</a>
</g>
</g>
<!-- Scheduler&#45;&gt;Dispatcher -->
<g id="edge3" class="edge">
<title>Scheduler&#45;&gt;Dispatcher</title>
<path fill="none" stroke="black" d="M1090.13,-414.76C1075.64,-401.86 1055.6,-384.01 1039.38,-369.57"/>
<polygon fill="black" stroke="black" points="1041.74,-366.99 1031.95,-362.96 1037.09,-372.22 1041.74,-366.99"/>
<text xml:space="preserve" text-anchor="middle" x="1092.15" y="-383.7" font-family="Times,serif" font-size="14.00">Queue</text>
</g>
<!-- Dispatcher&#45;&gt;Handler -->
<g id="edge4" class="edge">
<title>Dispatcher&#45;&gt;Handler</title>
<path fill="none" stroke="black" d="M979.4,-345.79C947.5,-348.24 898.41,-355.97 863.5,-379.75 815.86,-412.19 838.83,-456.44 789.5,-486.25 736.85,-518.06 711.2,-495.55 646.33,-504.26"/>
<polygon fill="black" stroke="black" points="645.95,-500.78 636.61,-505.78 647.03,-507.69 645.95,-500.78"/>
</g>
<!-- ComponentProxy&#45;&gt;EventRequest -->
<g id="edge1" class="edge">
<title>ComponentProxy&#45;&gt;EventRequest</title>
<path fill="none" stroke="black" d="M1004.43,-451.4C1009.93,-462.58 1013.84,-476.73 1005.5,-486.25 984.34,-510.41 908.21,-518.63 843.26,-521.12"/>
<polygon fill="black" stroke="black" points="843.51,-517.6 833.63,-521.44 843.74,-524.6 843.51,-517.6"/>
<text xml:space="preserve" text-anchor="middle" x="1050.81" y="-472.95" font-family="Times,serif" font-size="14.00">yield Event</text>
</g>
<!-- ModelProfile -->
<g id="node20" class="node">
<title>ModelProfile</title>
<polygon fill="lightgrey" stroke="black" points="119.5,-451 49.5,-451 49.5,-415 119.5,-415 119.5,-451"/>
<text xml:space="preserve" text-anchor="middle" x="84.5" y="-429.5" font-family="Arial" font-size="10.00">ModelProfile</text>
</g>
<!-- ModelProfile&#45;&gt;OpenVINOConfig -->
<g id="edge22" class="edge">
<title>ModelProfile&#45;&gt;OpenVINOConfig</title>
<path fill="none" stroke="black" stroke-dasharray="5,2" d="M70.2,-414.88C52.22,-392.12 22.3,-349.84 10.75,-307.75 -2.67,-258.86 -11.81,-248.02 45.5,-159.25 47.77,-155.73 50.52,-152.39 53.51,-149.28"/>
<polygon fill="black" stroke="black" points="55.75,-151.97 60.73,-142.61 51,-146.82 55.75,-151.97"/>
<text xml:space="preserve" text-anchor="middle" x="75.62" y="-294.45" font-family="Times,serif" font-size="14.00">to_backend_config</text>
</g>
<!-- ProfileRegistry -->
<g id="node21" class="node">
<title>ProfileRegistry</title>
<polygon fill="lightgrey" stroke="black" points="163.75,-361.75 83.25,-361.75 83.25,-325.75 163.75,-325.75 163.75,-361.75"/>
<text xml:space="preserve" text-anchor="middle" x="123.5" y="-340.25" font-family="Arial" font-size="10.00">ProfileRegistry</text>
</g>
<!-- ModelProfile&#45;&gt;ProfileRegistry -->
<g id="edge23" class="edge">
<title>ModelProfile&#45;&gt;ProfileRegistry</title>
<path fill="none" stroke="black" d="M92.2,-414.76C97.6,-402.69 104.92,-386.31 111.13,-372.42"/>
<polygon fill="black" stroke="black" points="114.3,-373.89 115.19,-363.33 107.91,-371.03 114.3,-373.89"/>
<text xml:space="preserve" text-anchor="middle" x="161.11" y="-383.7" font-family="Times,serif" font-size="14.00">register profile</text>
</g>
<!-- ProfileRegistry&#45;&gt;OpenVINO -->
<g id="edge24" class="edge">
<title>ProfileRegistry&#45;&gt;OpenVINO</title>
<path fill="none" stroke="black" stroke-dasharray="5,2" d="M133.65,-325.48C144.1,-307.73 160.51,-279.82 172.67,-259.16"/>
<polygon fill="black" stroke="black" points="175.59,-261.09 177.64,-250.7 169.56,-257.54 175.59,-261.09"/>
<text xml:space="preserve" text-anchor="middle" x="239.55" y="-294.45" font-family="Times,serif" font-size="14.00">future backend creation</text>
</g>
<!-- Nav_Global -->
<g id="node22" class="node">
<title>Nav_Global</title>
<g id="a_node22"><a xlink:href="../00_global.svg" xlink:title="Global">
<polygon fill="lightgrey" stroke="none" points="525.5,-195.25 471.5,-195.25 471.5,-159.25 525.5,-159.25 525.5,-195.25"/>
<text xml:space="preserve" text-anchor="middle" x="498.5" y="-173.75" font-family="Arial" font-size="10.00">Global</text>
</a>
</g>
</g>
<!-- Nav_Scheduler -->
<g id="node23" class="node">
<title>Nav_Scheduler</title>
<g id="a_node23"><a xlink:href="../scheduler/10_scheduler.svg" xlink:title="Scheduler">
<polygon fill="lightgrey" stroke="none" points="590.25,-195.25 530.75,-195.25 530.75,-159.25 590.25,-159.25 590.25,-195.25"/>
<text xml:space="preserve" text-anchor="middle" x="560.5" y="-173.75" font-family="Arial" font-size="10.00">Scheduler</text>
</a>
</g>
</g>
<!-- Nav_Services -->
<g id="node24" class="node">
<title>Nav_Services</title>
<g id="a_node24"><a xlink:href="../services/30_services.svg" xlink:title="Services">
<polygon fill="lightgrey" stroke="none" points="649.62,-195.25 595.37,-195.25 595.37,-159.25 649.62,-159.25 649.62,-195.25"/>
<text xml:space="preserve" text-anchor="middle" x="622.5" y="-173.75" font-family="Arial" font-size="10.00">Services</text>
</a>
</g>
</g>
<!-- Nav_Profiles -->
<g id="node25" class="node">
<title>Nav_Profiles</title>
<g id="a_node25"><a xlink:href="43_openvino_profiles.svg" xlink:title="OpenVINO profiles">
<polygon fill="lightgrey" stroke="none" points="752.75,-195.25 654.25,-195.25 654.25,-159.25 752.75,-159.25 752.75,-195.25"/>
<text xml:space="preserve" text-anchor="middle" x="703.5" y="-173.75" font-family="Arial" font-size="10.00">OpenVINO profiles</text>
</a>
</g>
</g>
</g>
</svg>
