<?xml version="1.0" encoding="UTF-8" standalone="no"?>
<!DOCTYPE svg PUBLIC "-//W3C//DTD SVG 1.1//EN"
 "http://www.w3.org/Graphics/SVG/1.1/DTD/svg11.dtd">
<!-- Generated by graphviz version 14.1.3 (20260303.0454)
 -->
<!-- Title: Inference Pages: 1 -->
<svg width="1170pt" height="573pt"
 viewBox="0.00 0.00 1170.00 573.00" xmlns="http://www.w3.org/2000/svg" xmlns:xlink="http://www.w3.org/1999/xlink">
<g id="graph0" class="graph" transform="scale(1 1) rotate(0) translate(4 569.25)">
<title>Inference</title>
<polygon fill="white" stroke="none" points="-4,4 -4,-569.25 1166,-569.25 1166,4 -4,4"/>
<g id="clust1" class="cluster">
<title>cluster_contracts</title>
<polygon fill="#eceff1" stroke="#455a64" points="498,-189 498,-266.25 1154,-266.25 1154,-189 498,-189"/>
<text xml:space="preserve" text-anchor="middle" x="826" y="-248.95" font-family="Times,serif" font-size="14.00">Contracts</text>
</g>
<g id="clust2" class="cluster">
<title>cluster_runtime</title>
<polygon fill="#fffde7" stroke="#f9a825" points="150,-189 150,-557.25 490,-557.25 490,-189 150,-189"/>
<text xml:space="preserve" text-anchor="middle" x="320" y="-539.95" font-family="Times,serif" font-size="14.00">Runtime Phase 2.5</text>
</g>
<g id="clust3" class="cluster">
<title>cluster_future</title>
<polygon fill="#efebe9" stroke="#6d4c41" points="8,-8 8,-266.25 141,-266.25 141,-8 8,-8"/>
<text xml:space="preserve" text-anchor="middle" x="74.5" y="-248.95" font-family="Times,serif" font-size="14.00">Backends future</text>
</g>
<!-- InferenceRequest -->
<g id="node1" class="node">
<title>InferenceRequest</title>
<polygon fill="#eceff1" stroke="#455a64" points="1146,-233 992,-233 992,-197 1146,-197 1146,-233"/>
<text xml:space="preserve" text-anchor="middle" x="1069" y="-217.5" font-family="Arial" font-size="10.00">InferenceRequest</text>
<text xml:space="preserve" text-anchor="middle" x="1069" y="-205.5" font-family="Arial" font-size="10.00">prompt/context/model/metadata</text>
</g>
<!-- InferenceResult -->
<g id="node2" class="node">
<title>InferenceResult</title>
<polygon fill="#eceff1" stroke="#455a64" points="974,-233 808,-233 808,-197 974,-197 974,-233"/>
<text xml:space="preserve" text-anchor="middle" x="891" y="-217.5" font-family="Arial" font-size="10.00">InferenceResult</text>
<text xml:space="preserve" text-anchor="middle" x="891" y="-205.5" font-family="Arial" font-size="10.00">text/confidence/backend/metadata</text>
</g>
<!-- Adapter -->
<g id="node7" class="node">
<title>Adapter</title>
<polygon fill="#fffde7" stroke="#f9a825" points="455.38,-434.75 348.62,-434.75 348.62,-398.75 455.38,-398.75 455.38,-434.75"/>
<text xml:space="preserve" text-anchor="middle" x="402" y="-419.25" font-family="Arial" font-size="10.00">InferenceAdapter</text>
<text xml:space="preserve" text-anchor="middle" x="402" y="-407.25" font-family="Arial" font-size="10.00">execution membrane</text>
</g>
<!-- InferenceResult&#45;&gt;Adapter -->
<g id="edge12" class="edge">
<title>InferenceResult&#45;&gt;Adapter</title>
<path fill="none" stroke="black" d="M866.57,-233.4C848.76,-245.04 823.55,-259.43 799,-266.25 778.53,-271.93 626.27,-263.42 608,-274.25 576.18,-293.1 588.88,-317.25 565,-345.5 549.49,-363.85 545.15,-369.34 524,-380.75 506.33,-390.28 485.78,-397.46 466.65,-402.76"/>
<polygon fill="black" stroke="black" points="465.82,-399.36 457.04,-405.28 467.6,-406.13 465.82,-399.36"/>
</g>
<!-- InferenceBackend -->
<g id="node3" class="node">
<title>InferenceBackend</title>
<polygon fill="#eceff1" stroke="#455a64" points="789.88,-233 656.12,-233 656.12,-197 789.88,-197 789.88,-233"/>
<text xml:space="preserve" text-anchor="middle" x="723" y="-211.5" font-family="Arial" font-size="10.00">InferenceBackend Protocol</text>
</g>
<!-- RegistrySnapshot -->
<g id="node4" class="node">
<title>RegistrySnapshot</title>
<polygon fill="#eceff1" stroke="#455a64" points="638.12,-233 505.88,-233 505.88,-197 638.12,-197 638.12,-233"/>
<text xml:space="preserve" text-anchor="middle" x="572" y="-217.5" font-family="Arial" font-size="10.00">BackendRegistrySnapshot</text>
<text xml:space="preserve" text-anchor="middle" x="572" y="-205.5" font-family="Arial" font-size="10.00">default/name list</text>
</g>
<!-- EventRequest -->
<g id="node5" class="node">
<title>EventRequest</title>
<polygon fill="#fffde7" stroke="#f9a825" points="482.38,-524 303.62,-524 303.62,-488 482.38,-488 482.38,-524"/>
<text xml:space="preserve" text-anchor="middle" x="393" y="-508.5" font-family="Arial" font-size="10.00">EventType.INFERENCE_REQUEST</text>
<text xml:space="preserve" text-anchor="middle" x="393" y="-496.5" font-family="Arial" font-size="10.00">Request.reply</text>
</g>
<!-- Scheduler -->
<g id="node14" class="node">
<title>Scheduler</title>
<g id="a_node14"><a xlink:href="../scheduler/10_scheduler.svg" xlink:title="Scheduler">
<polygon fill="#ede7f6" stroke="#512da8" points="918.75,-434.75 859.25,-434.75 859.25,-398.75 918.75,-398.75 918.75,-434.75"/>
<text xml:space="preserve" text-anchor="middle" x="889" y="-413.25" font-family="Arial" font-size="10.00">Scheduler</text>
</a>
</g>
</g>
<!-- EventRequest&#45;&gt;Scheduler -->
<g id="edge2" class="edge">
<title>EventRequest&#45;&gt;Scheduler</title>
<path fill="none" stroke="black" d="M482.81,-503.53C612.17,-500.65 838.83,-492.43 869,-470 876.67,-464.3 881.4,-455.25 884.32,-446.28"/>
<polygon fill="black" stroke="black" points="887.69,-447.24 886.75,-436.68 880.9,-445.51 887.69,-447.24"/>
<text xml:space="preserve" text-anchor="middle" x="897.64" y="-456.7" font-family="Times,serif" font-size="14.00">emit</text>
</g>
<!-- Handler -->
<g id="node6" class="node">
<title>Handler</title>
<polygon fill="#fffde7" stroke="#f9a825" points="285.5,-524 158.5,-524 158.5,-488 285.5,-488 285.5,-524"/>
<text xml:space="preserve" text-anchor="middle" x="222" y="-502.5" font-family="Arial" font-size="10.00">InferenceRequestHandler</text>
</g>
<!-- Handler&#45;&gt;InferenceRequest -->
<g id="edge5" class="edge">
<title>Handler&#45;&gt;InferenceRequest</title>
<path fill="none" stroke="black" stroke-dasharray="1,5" d="M285.65,-489.91C288.8,-489.25 291.94,-488.6 295,-488 344.03,-478.33 358.47,-485.44 406,-470 505.91,-437.55 521.09,-406.35 617,-363.5 677.13,-336.63 691.71,-327.72 755,-309.5 854.12,-280.97 886.4,-302.4 983,-266.25 1001.07,-259.49 1019.72,-249.08 1035.02,-239.48"/>
<polygon fill="black" stroke="black" points="1036.76,-242.52 1043.27,-234.16 1032.97,-236.63 1036.76,-242.52"/>
<text xml:space="preserve" text-anchor="middle" x="675.5" y="-367.45" font-family="Times,serif" font-size="14.00">validate payload</text>
</g>
<!-- Handler&#45;&gt;Adapter -->
<g id="edge6" class="edge">
<title>Handler&#45;&gt;Adapter</title>
<path fill="none" stroke="black" d="M249.17,-487.5C257.53,-482 266.71,-475.84 275,-470 285.45,-462.64 286.69,-458.7 298,-452.75 310.37,-446.24 324.2,-440.59 337.63,-435.84"/>
<polygon fill="black" stroke="black" points="338.5,-439.24 346.84,-432.71 336.25,-432.61 338.5,-439.24"/>
<text xml:space="preserve" text-anchor="middle" x="347.5" y="-456.7" font-family="Times,serif" font-size="14.00">infer(request)</text>
</g>
<!-- EventResult -->
<g id="node10" class="node">
<title>EventResult</title>
<polygon fill="#fffde7" stroke="#f9a825" points="329.5,-434.75 160.5,-434.75 160.5,-398.75 329.5,-398.75 329.5,-434.75"/>
<text xml:space="preserve" text-anchor="middle" x="245" y="-419.25" font-family="Arial" font-size="10.00">EventType.INFERENCE_RESULT</text>
<text xml:space="preserve" text-anchor="middle" x="245" y="-407.25" font-family="Arial" font-size="10.00">observable</text>
</g>
<!-- Handler&#45;&gt;EventResult -->
<g id="edge15" class="edge">
<title>Handler&#45;&gt;EventResult</title>
<path fill="none" stroke="black" d="M219.79,-487.7C219.05,-477.35 219.12,-464.05 222.5,-452.75 223.29,-450.12 224.33,-447.5 225.55,-444.95"/>
<polygon fill="black" stroke="black" points="228.58,-446.69 230.49,-436.27 222.5,-443.23 228.58,-446.69"/>
<text xml:space="preserve" text-anchor="middle" x="248.75" y="-456.7" font-family="Times,serif" font-size="14.00">publish</text>
</g>
<!-- ComponentProxy -->
<g id="node16" class="node">
<title>ComponentProxy</title>
<g id="a_node16"><a xlink:href="../scheduler/component_proxy/14_component_proxy.svg" xlink:title="ComponentProxy">
<polygon fill="#ede7f6" stroke="#512da8" points="826.88,-434.75 735.12,-434.75 735.12,-398.75 826.88,-398.75 826.88,-434.75"/>
<text xml:space="preserve" text-anchor="middle" x="781" y="-413.25" font-family="Arial" font-size="10.00">ComponentProxy</text>
</a>
</g>
</g>
<!-- Handler&#45;&gt;ComponentProxy -->
<g id="edge14" class="edge">
<title>Handler&#45;&gt;ComponentProxy</title>
<path fill="none" stroke="black" stroke-dasharray="5,2" d="M285.97,-489.42C289.02,-488.89 292.04,-488.42 295,-488 373.88,-476.92 579.34,-500.32 653,-470 663.62,-465.63 662.29,-458.47 672.25,-452.75 688.21,-443.59 706.87,-436.48 724.2,-431.13"/>
<polygon fill="black" stroke="black" points="724.71,-434.62 733.32,-428.45 722.74,-427.91 724.71,-434.62"/>
<text xml:space="preserve" text-anchor="middle" x="722.12" y="-456.7" font-family="Times,serif" font-size="14.00">Request.reply</text>
</g>
<!-- Adapter&#45;&gt;Handler -->
<g id="edge13" class="edge">
<title>Adapter&#45;&gt;Handler</title>
<path fill="none" stroke="black" d="M405.23,-434.93C406.32,-446.3 405.53,-460.76 397,-470 383.03,-485.12 330.48,-483.9 296.72,-488.18"/>
<polygon fill="black" stroke="black" points="296.47,-484.68 287.15,-489.72 297.58,-491.59 296.47,-484.68"/>
</g>
<!-- Registry -->
<g id="node8" class="node">
<title>Registry</title>
<polygon fill="#fffde7" stroke="#f9a825" points="425.12,-345.5 322.88,-345.5 322.88,-309.5 425.12,-309.5 425.12,-345.5"/>
<text xml:space="preserve" text-anchor="middle" x="374" y="-330" font-family="Arial" font-size="10.00">BackendRegistry</text>
<text xml:space="preserve" text-anchor="middle" x="374" y="-318" font-family="Arial" font-size="10.00">explicit backend list</text>
</g>
<!-- Adapter&#45;&gt;Registry -->
<g id="edge7" class="edge">
<title>Adapter&#45;&gt;Registry</title>
<path fill="none" stroke="black" d="M396.47,-398.51C392.63,-386.56 387.44,-370.38 383.01,-356.58"/>
<polygon fill="black" stroke="black" points="386.37,-355.6 379.98,-347.14 379.71,-357.73 386.37,-355.6"/>
<text xml:space="preserve" text-anchor="middle" x="444.51" y="-367.45" font-family="Times,serif" font-size="14.00">select_backend</text>
</g>
<!-- Registry&#45;&gt;InferenceBackend -->
<g id="edge9" class="edge">
<title>Registry&#45;&gt;InferenceBackend</title>
<path fill="none" stroke="black" stroke-dasharray="1,5" d="M425.52,-314.82C445.89,-309.18 469.13,-301.45 489,-291.5 500.58,-285.7 500.31,-278.65 512.5,-274.25 568.83,-253.92 590.19,-285.19 647,-266.25 664.07,-260.56 680.97,-250 694.49,-240.03"/>
<polygon fill="black" stroke="black" points="696.27,-243.08 702.07,-234.21 692.01,-237.53 696.27,-243.08"/>
<text xml:space="preserve" text-anchor="middle" x="541.75" y="-278.2" font-family="Times,serif" font-size="14.00">protocol</text>
</g>
<!-- Registry&#45;&gt;RegistrySnapshot -->
<g id="edge8" class="edge">
<title>Registry&#45;&gt;RegistrySnapshot</title>
<path fill="none" stroke="black" stroke-dasharray="1,5" d="M385.76,-309.11C394.85,-297.17 408.55,-282.12 424.5,-274.25 452.38,-260.49 464.72,-276.72 494,-266.25 511.01,-260.17 528.08,-249.77 541.9,-240.01"/>
<polygon fill="black" stroke="black" points="543.68,-243.04 549.68,-234.31 539.55,-237.4 543.68,-243.04"/>
<text xml:space="preserve" text-anchor="middle" x="456.75" y="-278.2" font-family="Times,serif" font-size="14.00">snapshot</text>
</g>
<!-- Dummy -->
<g id="node9" class="node">
<title>Dummy</title>
<polygon fill="#fffde7" stroke="#f9a825" points="417.62,-233 288.38,-233 288.38,-197 417.62,-197 417.62,-233"/>
<text xml:space="preserve" text-anchor="middle" x="353" y="-217.5" font-family="Arial" font-size="10.00">DummyInferenceBackend</text>
<text xml:space="preserve" text-anchor="middle" x="353" y="-205.5" font-family="Arial" font-size="10.00">deterministic</text>
</g>
<!-- Registry&#45;&gt;Dummy -->
<g id="edge10" class="edge">
<title>Registry&#45;&gt;Dummy</title>
<path fill="none" stroke="black" d="M322.55,-314.99C310.65,-309.81 299.39,-302.33 292.25,-291.5 280.31,-273.4 295.8,-254.38 314.12,-239.96"/>
<polygon fill="black" stroke="black" points="316.02,-242.91 322.01,-234.17 311.88,-237.27 316.02,-242.91"/>
<text xml:space="preserve" text-anchor="middle" x="346.62" y="-278.2" font-family="Times,serif" font-size="14.00">model=dummy</text>
</g>
<!-- OpenVINO -->
<g id="node11" class="node">
<title>OpenVINO</title>
<polygon fill="#efebe9" stroke="#6d4c41" points="132.12,-233 29.88,-233 29.88,-197 132.12,-197 132.12,-233"/>
<text xml:space="preserve" text-anchor="middle" x="81" y="-211.5" font-family="Arial" font-size="10.00">OpenVINOBackend</text>
</g>
<!-- Registry&#45;&gt;OpenVINO -->
<g id="edge19" class="edge">
<title>Registry&#45;&gt;OpenVINO</title>
<path fill="none" stroke="black" stroke-dasharray="5,2" d="M322.62,-326.86C251.77,-326.24 129.19,-320.8 97.25,-291.5 84.57,-279.87 80.52,-260.94 79.63,-244.94"/>
<polygon fill="black" stroke="black" points="83.13,-244.91 79.5,-234.96 76.13,-245.01 83.13,-244.91"/>
<text xml:space="preserve" text-anchor="middle" x="190.62" y="-278.2" font-family="Times,serif" font-size="14.00">future registered backend</text>
</g>
<!-- Dummy&#45;&gt;InferenceResult -->
<g id="edge11" class="edge">
<title>Dummy&#45;&gt;InferenceResult</title>
<path fill="none" stroke="black" d="M380.87,-233.34C409.96,-251.29 457.57,-277.42 503,-287.88 565.15,-302.17 729.31,-307.48 790,-287.88 818.6,-278.64 845.91,-257.95 864.91,-240.97"/>
<polygon fill="black" stroke="black" points="867.2,-243.62 872.17,-234.26 862.45,-238.48 867.2,-243.62"/>
</g>
<!-- EventBus -->
<g id="node17" class="node">
<title>EventBus</title>
<g id="a_node17"><a xlink:href="../scheduler/event_bus/12_event_bus.svg" xlink:title="EventBus">
<polygon fill="#ede7f6" stroke="#512da8" points="556.38,-345.5 497.62,-345.5 497.62,-309.5 556.38,-309.5 556.38,-345.5"/>
<text xml:space="preserve" text-anchor="middle" x="527" y="-324" font-family="Arial" font-size="10.00">EventBus</text>
</a>
</g>
</g>
<!-- EventResult&#45;&gt;EventBus -->
<g id="edge16" class="edge">
<title>EventResult&#45;&gt;EventBus</title>
<path fill="none" stroke="black" stroke-dasharray="5,2" d="M329.9,-400.27C333.31,-399.74 336.68,-399.23 340,-398.75 376.07,-393.54 473.45,-402.08 503,-380.75 511.06,-374.94 516.48,-365.74 520.09,-356.68"/>
<polygon fill="black" stroke="black" points="523.36,-357.95 523.19,-347.36 516.71,-355.75 523.36,-357.95"/>
</g>
<!-- CompiledModel -->
<g id="node12" class="node">
<title>CompiledModel</title>
<polygon fill="#efebe9" stroke="#6d4c41" points="122.75,-125 39.25,-125 39.25,-89 122.75,-89 122.75,-125"/>
<text xml:space="preserve" text-anchor="middle" x="81" y="-103.5" font-family="Arial" font-size="10.00">CompiledModel</text>
</g>
<!-- OpenVINO&#45;&gt;CompiledModel -->
<g id="edge17" class="edge">
<title>OpenVINO&#45;&gt;CompiledModel</title>
<path fill="none" stroke="black" stroke-dasharray="5,2" d="M81,-196.97C81,-180.76 81,-156.06 81,-136.79"/>
<polygon fill="black" stroke="black" points="84.5,-136.85 81,-126.85 77.5,-136.85 84.5,-136.85"/>
</g>
<!-- InferPool -->
<g id="node13" class="node">
<title>InferPool</title>
<polygon fill="#efebe9" stroke="#6d4c41" points="126.88,-52 35.12,-52 35.12,-16 126.88,-16 126.88,-52"/>
<text xml:space="preserve" text-anchor="middle" x="81" y="-30.5" font-family="Arial" font-size="10.00">InferRequestPool</text>
</g>
<!-- CompiledModel&#45;&gt;InferPool -->
<g id="edge18" class="edge">
<title>CompiledModel&#45;&gt;InferPool</title>
<path fill="none" stroke="black" stroke-dasharray="5,2" d="M81,-88.81C81,-81.23 81,-72.1 81,-63.54"/>
<polygon fill="black" stroke="black" points="84.5,-63.54 81,-53.54 77.5,-63.54 84.5,-63.54"/>
</g>
<!-- Dispatcher -->
<g id="node15" class="node">
<title>Dispatcher</title>
<g id="a_node15"><a xlink:href="../scheduler/dispatcher/11_dispatcher.svg" xlink:title="Dispatcher">
<polygon fill="#ede7f6" stroke="#512da8" points="827.62,-345.5 764.38,-345.5 764.38,-309.5 827.62,-309.5 827.62,-345.5"/>
<text xml:space="preserve" text-anchor="middle" x="796" y="-324" font-family="Arial" font-size="10.00">Dispatcher</text>
</a>
</g>
</g>
<!-- Scheduler&#45;&gt;Dispatcher -->
<g id="edge3" class="edge">
<title>Scheduler&#45;&gt;Dispatcher</title>
<path fill="none" stroke="black" d="M870.63,-398.51C856.87,-385.61 837.85,-367.76 822.46,-353.32"/>
<polygon fill="black" stroke="black" points="825.13,-351.03 815.44,-346.74 820.34,-356.13 825.13,-351.03"/>
<text xml:space="preserve" text-anchor="middle" x="873.7" y="-367.45" font-family="Times,serif" font-size="14.00">Queue</text>
</g>
<!-- Dispatcher&#45;&gt;Handler -->
<g id="edge4" class="edge">
<title>Dispatcher&#45;&gt;Handler</title>
<path fill="none" stroke="black" d="M776.74,-345.94C736.46,-382.22 645.57,-463.09 628,-470 561.99,-495.95 384.53,-479.15 297.18,-488.07"/>
<polygon fill="black" stroke="black" points="296.98,-484.57 287.48,-489.25 297.83,-491.52 296.98,-484.57"/>
</g>
<!-- ComponentProxy&#45;&gt;EventRequest -->
<g id="edge1" class="edge">
<title>ComponentProxy&#45;&gt;EventRequest</title>
<path fill="none" stroke="black" d="M784.47,-435.16C785.67,-446.64 784.91,-461.13 776,-470 756.34,-489.57 600.79,-498.48 494.07,-502.33"/>
<polygon fill="black" stroke="black" points="494,-498.83 484.12,-502.67 494.24,-505.82 494,-498.83"/>
<text xml:space="preserve" text-anchor="middle" x="824.65" y="-456.7" font-family="Times,serif" font-size="14.00">yield Event</text>
</g>
<!-- Nav_Global -->
<g id="node18" class="node">
<title>Nav_Global</title>
<g id="a_node18"><a xlink:href="../00_global.svg" xlink:title="Global">
<polygon fill="lightgrey" stroke="none" points="203,-179 149,-179 149,-143 203,-143 203,-179"/>
<text xml:space="preserve" text-anchor="middle" x="176" y="-157.5" font-family="Arial" font-size="10.00">Global</text>
</a>
</g>
</g>
<!-- Nav_Scheduler -->
<g id="node19" class="node">
<title>Nav_Scheduler</title>
<g id="a_node19"><a xlink:href="../scheduler/10_scheduler.svg" xlink:title="Scheduler">
<polygon fill="lightgrey" stroke="none" points="267.75,-179 208.25,-179 208.25,-143 267.75,-143 267.75,-179"/>
<text xml:space="preserve" text-anchor="middle" x="238" y="-157.5" font-family="Arial" font-size="10.00">Scheduler</text>
</a>
</g>
</g>
<!-- Nav_Services -->
<g id="node20" class="node">
<title>Nav_Services</title>
<g id="a_node20"><a xlink:href="../services/30_services.svg" xlink:title="Services">
<polygon fill="lightgrey" stroke="none" points="327.12,-179 272.88,-179 272.88,-143 327.12,-143 327.12,-179"/>
<text xml:space="preserve" text-anchor="middle" x="300" y="-157.5" font-family="Arial" font-size="10.00">Services</text>
</a>
</g>
</g>
</g>
</svg>
