<?xml version="1.0" encoding="UTF-8" standalone="no"?>
<!DOCTYPE svg PUBLIC "-//W3C//DTD SVG 1.1//EN"
 "http://www.w3.org/Graphics/SVG/1.1/DTD/svg11.dtd">
<!-- Generated by graphviz version 14.1.3 (20260303.0454)
 -->
<!-- Title: Inference Pages: 1 -->
<svg width="1164pt" height="484pt"
 viewBox="0.00 0.00 1164.00 484.00" xmlns="http://www.w3.org/2000/svg" xmlns:xlink="http://www.w3.org/1999/xlink">
<g id="graph0" class="graph" transform="scale(1 1) rotate(0) translate(4 480)">
<title>Inference</title>
<polygon fill="white" stroke="none" points="-4,4 -4,-480 1159.63,-480 1159.63,4 -4,4"/>
<g id="clust1" class="cluster">
<title>cluster_contracts</title>
<polygon fill="#eceff1" stroke="#455a64" points="564,-189 564,-266.25 1070,-266.25 1070,-189 564,-189"/>
<text xml:space="preserve" text-anchor="middle" x="817" y="-248.95" font-family="Times,serif" font-size="14.00">Contracts</text>
</g>
<g id="clust2" class="cluster">
<title>cluster_runtime</title>
<polygon fill="#fffde7" stroke="#f9a825" points="216,-189 216,-468 556,-468 556,-189 216,-189"/>
<text xml:space="preserve" text-anchor="middle" x="386" y="-450.7" font-family="Times,serif" font-size="14.00">Runtime Phase 1.5</text>
</g>
<g id="clust3" class="cluster">
<title>cluster_future</title>
<polygon fill="#efebe9" stroke="#6d4c41" points="8,-8 8,-266.25 141,-266.25 141,-8 8,-8"/>
<text xml:space="preserve" text-anchor="middle" x="74.5" y="-248.95" font-family="Times,serif" font-size="14.00">Backends future</text>
</g>
<!-- InferenceRequest -->
<g id="node1" class="node">
<title>InferenceRequest</title>
<polygon fill="#eceff1" stroke="#455a64" points="1062,-233 908,-233 908,-197 1062,-197 1062,-233"/>
<text xml:space="preserve" text-anchor="middle" x="985" y="-217.5" font-family="Arial" font-size="10.00">InferenceRequest</text>
<text xml:space="preserve" text-anchor="middle" x="985" y="-205.5" font-family="Arial" font-size="10.00">prompt/context/model/metadata</text>
</g>
<!-- InferenceResult -->
<g id="node2" class="node">
<title>InferenceResult</title>
<polygon fill="#eceff1" stroke="#455a64" points="738,-233 572,-233 572,-197 738,-197 738,-233"/>
<text xml:space="preserve" text-anchor="middle" x="655" y="-217.5" font-family="Arial" font-size="10.00">InferenceResult</text>
<text xml:space="preserve" text-anchor="middle" x="655" y="-205.5" font-family="Arial" font-size="10.00">text/confidence/backend/metadata</text>
</g>
<!-- Adapter -->
<g id="node6" class="node">
<title>Adapter</title>
<polygon fill="#fffde7" stroke="#f9a825" points="514.75,-345.5 413.25,-345.5 413.25,-309.5 514.75,-309.5 514.75,-345.5"/>
<text xml:space="preserve" text-anchor="middle" x="464" y="-330" font-family="Arial" font-size="10.00">InferenceAdapter</text>
<text xml:space="preserve" text-anchor="middle" x="464" y="-318" font-family="Arial" font-size="10.00">backend membrane</text>
</g>
<!-- InferenceResult&#45;&gt;Adapter -->
<g id="edge10" class="edge">
<title>InferenceResult&#45;&gt;Adapter</title>
<path fill="none" stroke="black" d="M627.39,-233.47C593.43,-254.95 539.67,-288.89 535,-291.5 527.49,-295.7 519.41,-299.93 511.49,-303.94"/>
<polygon fill="black" stroke="black" points="509.97,-300.78 502.58,-308.38 513.09,-307.05 509.97,-300.78"/>
</g>
<!-- InferenceBackend -->
<g id="node3" class="node">
<title>InferenceBackend</title>
<polygon fill="#eceff1" stroke="#455a64" points="889.88,-233 756.12,-233 756.12,-197 889.88,-197 889.88,-233"/>
<text xml:space="preserve" text-anchor="middle" x="823" y="-211.5" font-family="Arial" font-size="10.00">InferenceBackend Protocol</text>
</g>
<!-- EventRequest -->
<g id="node4" class="node">
<title>EventRequest</title>
<polygon fill="#fffde7" stroke="#f9a825" points="548.38,-434.75 369.62,-434.75 369.62,-398.75 548.38,-398.75 548.38,-434.75"/>
<text xml:space="preserve" text-anchor="middle" x="459" y="-419.25" font-family="Arial" font-size="10.00">EventType.INFERENCE_REQUEST</text>
<text xml:space="preserve" text-anchor="middle" x="459" y="-407.25" font-family="Arial" font-size="10.00">Request.reply</text>
</g>
<!-- Scheduler -->
<g id="node12" class="node">
<title>Scheduler</title>
<g id="a_node12"><a xlink:href="../scheduler/10_scheduler.svg" xlink:title="Scheduler">
<polygon fill="#ede7f6" stroke="#512da8" points="1137.75,-345.5 1078.25,-345.5 1078.25,-309.5 1137.75,-309.5 1137.75,-345.5"/>
<text xml:space="preserve" text-anchor="middle" x="1108" y="-324" font-family="Arial" font-size="10.00">Scheduler</text>
</a>
</g>
</g>
<!-- EventRequest&#45;&gt;Scheduler -->
<g id="edge2" class="edge">
<title>EventRequest&#45;&gt;Scheduler</title>
<path fill="none" stroke="black" d="M548.61,-415.52C685.05,-414.27 938.1,-408.19 1024,-380.75 1043.24,-374.61 1062.53,-363.08 1077.76,-352.42"/>
<polygon fill="black" stroke="black" points="1079.42,-355.54 1085.46,-346.83 1075.31,-349.87 1079.42,-355.54"/>
<text xml:space="preserve" text-anchor="middle" x="1076.74" y="-367.45" font-family="Times,serif" font-size="14.00">emit</text>
</g>
<!-- Handler -->
<g id="node5" class="node">
<title>Handler</title>
<polygon fill="#fffde7" stroke="#f9a825" points="351.5,-434.75 224.5,-434.75 224.5,-398.75 351.5,-398.75 351.5,-434.75"/>
<text xml:space="preserve" text-anchor="middle" x="288" y="-413.25" font-family="Arial" font-size="10.00">InferenceRequestHandler</text>
</g>
<!-- Handler&#45;&gt;InferenceRequest -->
<g id="edge5" class="edge">
<title>Handler&#45;&gt;InferenceRequest</title>
<path fill="none" stroke="black" stroke-dasharray="1,5" d="M351.65,-400.67C354.81,-400 357.94,-399.36 361,-398.75 409.16,-389.18 422.46,-393.04 470,-380.75 613.9,-343.55 640.83,-301.15 787,-274.25 836.08,-265.22 851.33,-281 899,-266.25 917.84,-260.42 936.95,-249.82 952.37,-239.85"/>
<polygon fill="black" stroke="black" points="954.3,-242.76 960.66,-234.29 950.41,-236.95 954.3,-242.76"/>
<text xml:space="preserve" text-anchor="middle" x="718.16" y="-322.82" font-family="Times,serif" font-size="14.00">validate payload</text>
</g>
<!-- Handler&#45;&gt;Adapter -->
<g id="edge6" class="edge">
<title>Handler&#45;&gt;Adapter</title>
<path fill="none" stroke="black" d="M313.83,-398.33C321.94,-392.78 330.89,-386.57 339,-380.75 349.38,-373.3 350.71,-369.48 362,-363.5 374.53,-356.86 388.58,-351.09 402.15,-346.25"/>
<polygon fill="black" stroke="black" points="403.13,-349.61 411.45,-343.06 400.86,-342.99 403.13,-349.61"/>
<text xml:space="preserve" text-anchor="middle" x="411.5" y="-367.45" font-family="Times,serif" font-size="14.00">infer(request)</text>
</g>
<!-- EventResult -->
<g id="node8" class="node">
<title>EventResult</title>
<polygon fill="#fffde7" stroke="#f9a825" points="393.5,-345.5 224.5,-345.5 224.5,-309.5 393.5,-309.5 393.5,-345.5"/>
<text xml:space="preserve" text-anchor="middle" x="309" y="-330" font-family="Arial" font-size="10.00">EventType.INFERENCE_RESULT</text>
<text xml:space="preserve" text-anchor="middle" x="309" y="-318" font-family="Arial" font-size="10.00">observable</text>
</g>
<!-- Handler&#45;&gt;EventResult -->
<g id="edge13" class="edge">
<title>Handler&#45;&gt;EventResult</title>
<path fill="none" stroke="black" d="M284.85,-398.46C283.61,-388.12 283.18,-374.82 286.5,-363.5 287.27,-360.87 288.31,-358.25 289.52,-355.69"/>
<polygon fill="black" stroke="black" points="292.55,-357.44 294.45,-347.01 286.47,-353.98 292.55,-357.44"/>
<text xml:space="preserve" text-anchor="middle" x="312.75" y="-367.45" font-family="Times,serif" font-size="14.00">publish</text>
</g>
<!-- ComponentProxy -->
<g id="node14" class="node">
<title>ComponentProxy</title>
<g id="a_node14"><a xlink:href="../scheduler/component_proxy/14_component_proxy.svg" xlink:title="ComponentProxy">
<polygon fill="#ede7f6" stroke="#512da8" points="961.88,-345.5 870.12,-345.5 870.12,-309.5 961.88,-309.5 961.88,-345.5"/>
<text xml:space="preserve" text-anchor="middle" x="916" y="-324" font-family="Arial" font-size="10.00">ComponentProxy</text>
</a>
</g>
</g>
<!-- Handler&#45;&gt;ComponentProxy -->
<g id="edge12" class="edge">
<title>Handler&#45;&gt;ComponentProxy</title>
<path fill="none" stroke="black" stroke-dasharray="5,2" d="M351.97,-400.13C355.01,-399.62 358.03,-399.15 361,-398.75 410.7,-392.03 765.53,-399.6 812,-380.75 822.65,-376.43 821.52,-369.61 831.25,-363.5 839.96,-358.03 849.67,-353.08 859.33,-348.76"/>
<polygon fill="black" stroke="black" points="860.52,-352.05 868.34,-344.9 857.77,-345.62 860.52,-352.05"/>
<text xml:space="preserve" text-anchor="middle" x="881.12" y="-367.45" font-family="Times,serif" font-size="14.00">Request.reply</text>
</g>
<!-- Adapter&#45;&gt;InferenceBackend -->
<g id="edge7" class="edge">
<title>Adapter&#45;&gt;InferenceBackend</title>
<path fill="none" stroke="black" stroke-dasharray="1,5" d="M514.99,-310.94C529.88,-305.6 545.92,-299.03 560,-291.5 571.42,-285.39 571.29,-278.58 583.5,-274.25 617.78,-262.08 712.43,-277.57 747,-266.25 764.1,-260.65 781.01,-250.1 794.52,-240.12"/>
<polygon fill="black" stroke="black" points="796.31,-243.16 802.09,-234.28 792.03,-237.61 796.31,-243.16"/>
<text xml:space="preserve" text-anchor="middle" x="612.75" y="-278.2" font-family="Times,serif" font-size="14.00">protocol</text>
</g>
<!-- Adapter&#45;&gt;Handler -->
<g id="edge11" class="edge">
<title>Adapter&#45;&gt;Handler</title>
<path fill="none" stroke="black" d="M467.98,-345.59C469.54,-356.91 469.32,-371.36 461,-380.75 447.66,-395.8 396.3,-394.7 363.01,-398.9"/>
<polygon fill="black" stroke="black" points="362.47,-395.44 353.15,-400.48 363.58,-402.35 362.47,-395.44"/>
</g>
<!-- Dummy -->
<g id="node7" class="node">
<title>Dummy</title>
<polygon fill="#fffde7" stroke="#f9a825" points="517.62,-233 388.38,-233 388.38,-197 517.62,-197 517.62,-233"/>
<text xml:space="preserve" text-anchor="middle" x="453" y="-217.5" font-family="Arial" font-size="10.00">DummyInferenceBackend</text>
<text xml:space="preserve" text-anchor="middle" x="453" y="-205.5" font-family="Arial" font-size="10.00">deterministic</text>
</g>
<!-- Adapter&#45;&gt;Dummy -->
<g id="edge8" class="edge">
<title>Adapter&#45;&gt;Dummy</title>
<path fill="none" stroke="black" d="M445.82,-309.12C441.52,-303.91 437.53,-297.87 435.25,-291.5 429.72,-276.04 433.48,-258.19 438.94,-243.72"/>
<polygon fill="black" stroke="black" points="442.04,-245.38 442.73,-234.8 435.59,-242.64 442.04,-245.38"/>
<text xml:space="preserve" text-anchor="middle" x="485.12" y="-278.2" font-family="Times,serif" font-size="14.00">select dummy</text>
</g>
<!-- OpenVINO -->
<g id="node9" class="node">
<title>OpenVINO</title>
<polygon fill="#efebe9" stroke="#6d4c41" points="131.12,-233 28.88,-233 28.88,-197 131.12,-197 131.12,-233"/>
<text xml:space="preserve" text-anchor="middle" x="80" y="-211.5" font-family="Arial" font-size="10.00">OpenVINOBackend</text>
</g>
<!-- Adapter&#45;&gt;OpenVINO -->
<g id="edge17" class="edge">
<title>Adapter&#45;&gt;OpenVINO</title>
<path fill="none" stroke="black" stroke-dasharray="5,2" d="M412.89,-311.61C409.55,-310.84 406.24,-310.13 403,-309.5 287.14,-287.02 246.4,-319.36 141,-266.25 128.21,-259.8 115.7,-250.26 105.38,-241.21"/>
<polygon fill="black" stroke="black" points="107.78,-238.66 98.03,-234.5 103.05,-243.83 107.78,-238.66"/>
<text xml:space="preserve" text-anchor="middle" x="296.04" y="-278.2" font-family="Times,serif" font-size="14.00">future registered backend</text>
</g>
<!-- Dummy&#45;&gt;InferenceResult -->
<g id="edge9" class="edge">
<title>Dummy&#45;&gt;InferenceResult</title>
<path fill="none" stroke="black" d="M518.1,-215C532.16,-215 546.23,-215 560.29,-215"/>
<polygon fill="black" stroke="black" points="560.06,-218.5 570.06,-215 560.06,-211.5 560.06,-218.5"/>
</g>
<!-- EventBus -->
<g id="node15" class="node">
<title>EventBus</title>
<g id="a_node15"><a xlink:href="../scheduler/event_bus/12_event_bus.svg" xlink:title="EventBus">
<polygon fill="#ede7f6" stroke="#512da8" points="208.38,-233 149.62,-233 149.62,-197 208.38,-197 208.38,-233"/>
<text xml:space="preserve" text-anchor="middle" x="179" y="-211.5" font-family="Arial" font-size="10.00">EventBus</text>
</a>
</g>
</g>
<!-- EventResult&#45;&gt;EventBus -->
<g id="edge14" class="edge">
<title>EventResult&#45;&gt;EventBus</title>
<path fill="none" stroke="black" stroke-dasharray="5,2" d="M224.16,-310.08C214.41,-305.36 205.35,-299.29 198,-291.5 186.18,-278.96 181.42,-260.18 179.62,-244.49"/>
<polygon fill="black" stroke="black" points="183.13,-244.46 178.87,-234.76 176.15,-245 183.13,-244.46"/>
</g>
<!-- CompiledModel -->
<g id="node10" class="node">
<title>CompiledModel</title>
<polygon fill="#efebe9" stroke="#6d4c41" points="121.75,-125 38.25,-125 38.25,-89 121.75,-89 121.75,-125"/>
<text xml:space="preserve" text-anchor="middle" x="80" y="-103.5" font-family="Arial" font-size="10.00">CompiledModel</text>
</g>
<!-- OpenVINO&#45;&gt;CompiledModel -->
<g id="edge15" class="edge">
<title>OpenVINO&#45;&gt;CompiledModel</title>
<path fill="none" stroke="black" stroke-dasharray="5,2" d="M80,-196.97C80,-180.76 80,-156.06 80,-136.79"/>
<polygon fill="black" stroke="black" points="83.5,-136.85 80,-126.85 76.5,-136.85 83.5,-136.85"/>
</g>
<!-- InferPool -->
<g id="node11" class="node">
<title>InferPool</title>
<polygon fill="#efebe9" stroke="#6d4c41" points="125.88,-52 34.12,-52 34.12,-16 125.88,-16 125.88,-52"/>
<text xml:space="preserve" text-anchor="middle" x="80" y="-30.5" font-family="Arial" font-size="10.00">InferRequestPool</text>
</g>
<!-- CompiledModel&#45;&gt;InferPool -->
<g id="edge16" class="edge">
<title>CompiledModel&#45;&gt;InferPool</title>
<path fill="none" stroke="black" stroke-dasharray="5,2" d="M80,-88.81C80,-81.23 80,-72.1 80,-63.54"/>
<polygon fill="black" stroke="black" points="83.5,-63.54 80,-53.54 76.5,-63.54 83.5,-63.54"/>
</g>
<!-- Dispatcher -->
<g id="node13" class="node">
<title>Dispatcher</title>
<g id="a_node13"><a xlink:href="../scheduler/dispatcher/11_dispatcher.svg" xlink:title="Dispatcher">
<polygon fill="#ede7f6" stroke="#512da8" points="1143.62,-233 1080.38,-233 1080.38,-197 1143.62,-197 1143.62,-233"/>
<text xml:space="preserve" text-anchor="middle" x="1112" y="-211.5" font-family="Arial" font-size="10.00">Dispatcher</text>
</a>
</g>
</g>
<!-- Scheduler&#45;&gt;Dispatcher -->
<g id="edge3" class="edge">
<title>Scheduler&#45;&gt;Dispatcher</title>
<path fill="none" stroke="black" d="M1108.62,-309.23C1109.25,-291.96 1110.22,-265.09 1110.96,-244.62"/>
<polygon fill="black" stroke="black" points="1114.46,-244.78 1111.32,-234.66 1107.47,-244.52 1114.46,-244.78"/>
<text xml:space="preserve" text-anchor="middle" x="1132.76" y="-278.2" font-family="Times,serif" font-size="14.00">Queue</text>
</g>
<!-- Dispatcher&#45;&gt;Handler -->
<g id="edge4" class="edge">
<title>Dispatcher&#45;&gt;Handler</title>
<path fill="none" stroke="black" d="M1103.36,-233.06C1096.82,-244.24 1086.77,-258.21 1074,-266.25 992.25,-317.71 952.95,-279.89 861,-309.5 823.89,-321.45 818.51,-334.85 781,-345.5 665,-378.43 631.64,-365.78 512,-380.75 448.34,-388.71 429.46,-387.25 362.75,-398.57"/>
<polygon fill="black" stroke="black" points="362.36,-395.08 353.11,-400.24 363.56,-401.98 362.36,-395.08"/>
</g>
<!-- ComponentProxy&#45;&gt;EventRequest -->
<g id="edge1" class="edge">
<title>ComponentProxy&#45;&gt;EventRequest</title>
<path fill="none" stroke="black" d="M930.5,-345.84C938.01,-356.99 943.94,-371.13 935,-380.75 910.05,-407.61 692.13,-414.06 559.95,-415.48"/>
<polygon fill="black" stroke="black" points="560.1,-411.98 550.14,-415.58 560.17,-418.98 560.1,-411.98"/>
<text xml:space="preserve" text-anchor="middle" x="979.98" y="-367.45" font-family="Times,serif" font-size="14.00">yield Event</text>
</g>
<!-- Nav_Global -->
<g id="node16" class="node">
<title>Nav_Global</title>
<g id="a_node16"><a xlink:href="../00_global.svg" xlink:title="Global">
<polygon fill="lightgrey" stroke="none" points="203,-179 149,-179 149,-143 203,-143 203,-179"/>
<text xml:space="preserve" text-anchor="middle" x="176" y="-157.5" font-family="Arial" font-size="10.00">Global</text>
</a>
</g>
</g>
<!-- Nav_Scheduler -->
<g id="node17" class="node">
<title>Nav_Scheduler</title>
<g id="a_node17"><a xlink:href="../scheduler/10_scheduler.svg" xlink:title="Scheduler">
<polygon fill="lightgrey" stroke="none" points="267.75,-179 208.25,-179 208.25,-143 267.75,-143 267.75,-179"/>
<text xml:space="preserve" text-anchor="middle" x="238" y="-157.5" font-family="Arial" font-size="10.00">Scheduler</text>
</a>
</g>
</g>
<!-- Nav_Services -->
<g id="node18" class="node">
<title>Nav_Services</title>
<g id="a_node18"><a xlink:href="../services/30_services.svg" xlink:title="Services">
<polygon fill="lightgrey" stroke="none" points="327.12,-179 272.88,-179 272.88,-143 327.12,-143 327.12,-179"/>
<text xml:space="preserve" text-anchor="middle" x="300" y="-157.5" font-family="Arial" font-size="10.00">Services</text>
</a>
</g>
</g>
</g>
</svg>
