<?xml version="1.0" encoding="UTF-8" standalone="no"?>
<!DOCTYPE svg PUBLIC "-//W3C//DTD SVG 1.1//EN"
 "http://www.w3.org/Graphics/SVG/1.1/DTD/svg11.dtd">
<!-- Generated by graphviz version 14.1.3 (20260303.0454)
 -->
<!-- Title: Inference Pages: 1 -->
<svg width="1484pt" height="590pt"
 viewBox="0.00 0.00 1484.00 590.00" xmlns="http://www.w3.org/2000/svg" xmlns:xlink="http://www.w3.org/1999/xlink">
<g id="graph0" class="graph" transform="scale(1 1) rotate(0) translate(4 585.5)">
<title>Inference</title>
<polygon fill="white" stroke="none" points="-4,4 -4,-585.5 1480,-585.5 1480,4 -4,4"/>
<g id="clust1" class="cluster">
<title>cluster_contracts</title>
<polygon fill="#eceff1" stroke="#455a64" points="812,-205.25 812,-282.5 1468,-282.5 1468,-205.25 812,-205.25"/>
<text xml:space="preserve" text-anchor="middle" x="1140" y="-265.2" font-family="Times,serif" font-size="14.00">Contracts</text>
</g>
<g id="clust2" class="cluster">
<title>cluster_runtime</title>
<polygon fill="#fffde7" stroke="#f9a825" points="464,-205.25 464,-573.5 804,-573.5 804,-205.25 464,-205.25"/>
<text xml:space="preserve" text-anchor="middle" x="634" y="-556.2" font-family="Times,serif" font-size="14.00">Runtime Phase 2.5</text>
</g>
<g id="clust3" class="cluster">
<title>cluster_openvino_contract</title>
<polygon fill="#efebe9" stroke="#6d4c41" points="8,-8 8,-282.5 456,-282.5 456,-8 8,-8"/>
<text xml:space="preserve" text-anchor="middle" x="232" y="-265.2" font-family="Times,serif" font-size="14.00">OpenVINO Phase 2.9</text>
</g>
<!-- InferenceRequest -->
<g id="node1" class="node">
<title>InferenceRequest</title>
<polygon fill="#eceff1" stroke="#455a64" points="1460,-249.25 1306,-249.25 1306,-213.25 1460,-213.25 1460,-249.25"/>
<text xml:space="preserve" text-anchor="middle" x="1383" y="-233.75" font-family="Arial" font-size="10.00">InferenceRequest</text>
<text xml:space="preserve" text-anchor="middle" x="1383" y="-221.75" font-family="Arial" font-size="10.00">prompt/context/model/metadata</text>
</g>
<!-- InferenceResult -->
<g id="node2" class="node">
<title>InferenceResult</title>
<polygon fill="#eceff1" stroke="#455a64" points="1288,-249.25 1122,-249.25 1122,-213.25 1288,-213.25 1288,-249.25"/>
<text xml:space="preserve" text-anchor="middle" x="1205" y="-233.75" font-family="Arial" font-size="10.00">InferenceResult</text>
<text xml:space="preserve" text-anchor="middle" x="1205" y="-221.75" font-family="Arial" font-size="10.00">text/confidence/backend/metadata</text>
</g>
<!-- Adapter -->
<g id="node7" class="node">
<title>Adapter</title>
<polygon fill="#fffde7" stroke="#f9a825" points="769.38,-451 662.62,-451 662.62,-415 769.38,-415 769.38,-451"/>
<text xml:space="preserve" text-anchor="middle" x="716" y="-435.5" font-family="Arial" font-size="10.00">InferenceAdapter</text>
<text xml:space="preserve" text-anchor="middle" x="716" y="-423.5" font-family="Arial" font-size="10.00">execution membrane</text>
</g>
<!-- InferenceResult&#45;&gt;Adapter -->
<g id="edge12" class="edge">
<title>InferenceResult&#45;&gt;Adapter</title>
<path fill="none" stroke="black" d="M1180.57,-249.65C1162.76,-261.29 1137.55,-275.68 1113,-282.5 1092.53,-288.18 940.27,-279.67 922,-290.5 890.18,-309.35 902.88,-333.5 879,-361.75 863.49,-380.1 859.15,-385.59 838,-397 820.33,-406.53 799.78,-413.71 780.65,-419.01"/>
<polygon fill="black" stroke="black" points="779.82,-415.61 771.04,-421.53 781.6,-422.38 779.82,-415.61"/>
</g>
<!-- InferenceBackend -->
<g id="node3" class="node">
<title>InferenceBackend</title>
<polygon fill="#eceff1" stroke="#455a64" points="1103.88,-249.25 970.12,-249.25 970.12,-213.25 1103.88,-213.25 1103.88,-249.25"/>
<text xml:space="preserve" text-anchor="middle" x="1037" y="-227.75" font-family="Arial" font-size="10.00">InferenceBackend Protocol</text>
</g>
<!-- RegistrySnapshot -->
<g id="node4" class="node">
<title>RegistrySnapshot</title>
<polygon fill="#eceff1" stroke="#455a64" points="952.12,-249.25 819.88,-249.25 819.88,-213.25 952.12,-213.25 952.12,-249.25"/>
<text xml:space="preserve" text-anchor="middle" x="886" y="-233.75" font-family="Arial" font-size="10.00">BackendRegistrySnapshot</text>
<text xml:space="preserve" text-anchor="middle" x="886" y="-221.75" font-family="Arial" font-size="10.00">default/name list</text>
</g>
<!-- EventRequest -->
<g id="node5" class="node">
<title>EventRequest</title>
<polygon fill="#fffde7" stroke="#f9a825" points="796.38,-540.25 617.62,-540.25 617.62,-504.25 796.38,-504.25 796.38,-540.25"/>
<text xml:space="preserve" text-anchor="middle" x="707" y="-524.75" font-family="Arial" font-size="10.00">EventType.INFERENCE_REQUEST</text>
<text xml:space="preserve" text-anchor="middle" x="707" y="-512.75" font-family="Arial" font-size="10.00">Request.reply</text>
</g>
<!-- Scheduler -->
<g id="node16" class="node">
<title>Scheduler</title>
<g id="a_node16"><a xlink:href="../scheduler/10_scheduler.svg" xlink:title="Scheduler">
<polygon fill="#ede7f6" stroke="#512da8" points="1232.75,-451 1173.25,-451 1173.25,-415 1232.75,-415 1232.75,-451"/>
<text xml:space="preserve" text-anchor="middle" x="1203" y="-429.5" font-family="Arial" font-size="10.00">Scheduler</text>
</a>
</g>
</g>
<!-- EventRequest&#45;&gt;Scheduler -->
<g id="edge2" class="edge">
<title>EventRequest&#45;&gt;Scheduler</title>
<path fill="none" stroke="black" d="M796.81,-519.78C926.17,-516.9 1152.83,-508.68 1183,-486.25 1190.67,-480.55 1195.4,-471.5 1198.32,-462.53"/>
<polygon fill="black" stroke="black" points="1201.69,-463.49 1200.75,-452.93 1194.9,-461.76 1201.69,-463.49"/>
<text xml:space="preserve" text-anchor="middle" x="1211.64" y="-472.95" font-family="Times,serif" font-size="14.00">emit</text>
</g>
<!-- Handler -->
<g id="node6" class="node">
<title>Handler</title>
<polygon fill="#fffde7" stroke="#f9a825" points="599.5,-540.25 472.5,-540.25 472.5,-504.25 599.5,-504.25 599.5,-540.25"/>
<text xml:space="preserve" text-anchor="middle" x="536" y="-518.75" font-family="Arial" font-size="10.00">InferenceRequestHandler</text>
</g>
<!-- Handler&#45;&gt;InferenceRequest -->
<g id="edge5" class="edge">
<title>Handler&#45;&gt;InferenceRequest</title>
<path fill="none" stroke="black" stroke-dasharray="1,5" d="M599.65,-506.16C602.8,-505.5 605.94,-504.85 609,-504.25 658.03,-494.58 672.47,-501.69 720,-486.25 819.91,-453.8 835.09,-422.6 931,-379.75 991.13,-352.88 1005.71,-343.97 1069,-325.75 1168.12,-297.22 1200.4,-318.65 1297,-282.5 1315.07,-275.74 1333.72,-265.33 1349.02,-255.73"/>
<polygon fill="black" stroke="black" points="1350.76,-258.77 1357.27,-250.41 1346.97,-252.88 1350.76,-258.77"/>
<text xml:space="preserve" text-anchor="middle" x="989.5" y="-383.7" font-family="Times,serif" font-size="14.00">validate payload</text>
</g>
<!-- Handler&#45;&gt;Adapter -->
<g id="edge6" class="edge">
<title>Handler&#45;&gt;Adapter</title>
<path fill="none" stroke="black" d="M563.17,-503.75C571.53,-498.25 580.71,-492.09 589,-486.25 599.45,-478.89 600.69,-474.95 612,-469 624.37,-462.49 638.2,-456.84 651.63,-452.09"/>
<polygon fill="black" stroke="black" points="652.5,-455.49 660.84,-448.96 650.25,-448.86 652.5,-455.49"/>
<text xml:space="preserve" text-anchor="middle" x="661.5" y="-472.95" font-family="Times,serif" font-size="14.00">infer(request)</text>
</g>
<!-- EventResult -->
<g id="node10" class="node">
<title>EventResult</title>
<polygon fill="#fffde7" stroke="#f9a825" points="643.5,-451 474.5,-451 474.5,-415 643.5,-415 643.5,-451"/>
<text xml:space="preserve" text-anchor="middle" x="559" y="-435.5" font-family="Arial" font-size="10.00">EventType.INFERENCE_RESULT</text>
<text xml:space="preserve" text-anchor="middle" x="559" y="-423.5" font-family="Arial" font-size="10.00">observable</text>
</g>
<!-- Handler&#45;&gt;EventResult -->
<g id="edge15" class="edge">
<title>Handler&#45;&gt;EventResult</title>
<path fill="none" stroke="black" d="M533.79,-503.95C533.05,-493.6 533.12,-480.3 536.5,-469 537.29,-466.37 538.33,-463.75 539.55,-461.2"/>
<polygon fill="black" stroke="black" points="542.58,-462.94 544.49,-452.52 536.5,-459.48 542.58,-462.94"/>
<text xml:space="preserve" text-anchor="middle" x="562.75" y="-472.95" font-family="Times,serif" font-size="14.00">publish</text>
</g>
<!-- ComponentProxy -->
<g id="node18" class="node">
<title>ComponentProxy</title>
<g id="a_node18"><a xlink:href="../scheduler/component_proxy/14_component_proxy.svg" xlink:title="ComponentProxy">
<polygon fill="#ede7f6" stroke="#512da8" points="1140.88,-451 1049.12,-451 1049.12,-415 1140.88,-415 1140.88,-451"/>
<text xml:space="preserve" text-anchor="middle" x="1095" y="-429.5" font-family="Arial" font-size="10.00">ComponentProxy</text>
</a>
</g>
</g>
<!-- Handler&#45;&gt;ComponentProxy -->
<g id="edge14" class="edge">
<title>Handler&#45;&gt;ComponentProxy</title>
<path fill="none" stroke="black" stroke-dasharray="5,2" d="M599.97,-505.67C603.02,-505.14 606.04,-504.67 609,-504.25 687.88,-493.17 893.34,-516.57 967,-486.25 977.62,-481.88 976.29,-474.72 986.25,-469 1002.21,-459.84 1020.87,-452.73 1038.2,-447.38"/>
<polygon fill="black" stroke="black" points="1038.71,-450.87 1047.32,-444.7 1036.74,-444.16 1038.71,-450.87"/>
<text xml:space="preserve" text-anchor="middle" x="1036.12" y="-472.95" font-family="Times,serif" font-size="14.00">Request.reply</text>
</g>
<!-- Adapter&#45;&gt;Handler -->
<g id="edge13" class="edge">
<title>Adapter&#45;&gt;Handler</title>
<path fill="none" stroke="black" d="M719.23,-451.18C720.32,-462.55 719.53,-477.01 711,-486.25 697.03,-501.37 644.48,-500.15 610.72,-504.43"/>
<polygon fill="black" stroke="black" points="610.47,-500.93 601.15,-505.97 611.58,-507.84 610.47,-500.93"/>
</g>
<!-- Registry -->
<g id="node8" class="node">
<title>Registry</title>
<polygon fill="#fffde7" stroke="#f9a825" points="739.12,-361.75 636.88,-361.75 636.88,-325.75 739.12,-325.75 739.12,-361.75"/>
<text xml:space="preserve" text-anchor="middle" x="688" y="-346.25" font-family="Arial" font-size="10.00">BackendRegistry</text>
<text xml:space="preserve" text-anchor="middle" x="688" y="-334.25" font-family="Arial" font-size="10.00">explicit backend list</text>
</g>
<!-- Adapter&#45;&gt;Registry -->
<g id="edge7" class="edge">
<title>Adapter&#45;&gt;Registry</title>
<path fill="none" stroke="black" d="M710.47,-414.76C706.63,-402.81 701.44,-386.63 697.01,-372.83"/>
<polygon fill="black" stroke="black" points="700.37,-371.85 693.98,-363.39 693.71,-373.98 700.37,-371.85"/>
<text xml:space="preserve" text-anchor="middle" x="758.51" y="-383.7" font-family="Times,serif" font-size="14.00">select_backend</text>
</g>
<!-- Registry&#45;&gt;InferenceBackend -->
<g id="edge9" class="edge">
<title>Registry&#45;&gt;InferenceBackend</title>
<path fill="none" stroke="black" stroke-dasharray="1,5" d="M739.35,-330.93C759.47,-325.3 782.39,-317.6 802,-307.75 813.58,-301.93 813.31,-294.9 825.5,-290.5 882.25,-270.04 903.77,-301.57 961,-282.5 978.07,-276.81 994.98,-266.26 1008.49,-256.29"/>
<polygon fill="black" stroke="black" points="1010.27,-259.33 1016.07,-250.46 1006.01,-253.78 1010.27,-259.33"/>
<text xml:space="preserve" text-anchor="middle" x="854.75" y="-294.45" font-family="Times,serif" font-size="14.00">protocol</text>
</g>
<!-- Registry&#45;&gt;RegistrySnapshot -->
<g id="edge8" class="edge">
<title>Registry&#45;&gt;RegistrySnapshot</title>
<path fill="none" stroke="black" stroke-dasharray="1,5" d="M699.45,-325.35C708.32,-313.42 721.73,-298.36 737.5,-290.5 765.72,-276.42 778.3,-293.1 808,-282.5 825.01,-276.43 842.08,-266.04 855.9,-256.27"/>
<polygon fill="black" stroke="black" points="857.69,-259.3 863.69,-250.57 853.55,-253.66 857.69,-259.3"/>
<text xml:space="preserve" text-anchor="middle" x="769.75" y="-294.45" font-family="Times,serif" font-size="14.00">snapshot</text>
</g>
<!-- Dummy -->
<g id="node9" class="node">
<title>Dummy</title>
<polygon fill="#fffde7" stroke="#f9a825" points="731.62,-249.25 602.38,-249.25 602.38,-213.25 731.62,-213.25 731.62,-249.25"/>
<text xml:space="preserve" text-anchor="middle" x="667" y="-233.75" font-family="Arial" font-size="10.00">DummyInferenceBackend</text>
<text xml:space="preserve" text-anchor="middle" x="667" y="-221.75" font-family="Arial" font-size="10.00">deterministic</text>
</g>
<!-- Registry&#45;&gt;Dummy -->
<g id="edge10" class="edge">
<title>Registry&#45;&gt;Dummy</title>
<path fill="none" stroke="black" d="M636.8,-331.74C624.43,-326.55 612.66,-318.93 605.25,-307.75 593.19,-289.56 608.93,-270.54 627.54,-256.15"/>
<polygon fill="black" stroke="black" points="629.5,-259.05 635.56,-250.36 625.4,-253.37 629.5,-259.05"/>
<text xml:space="preserve" text-anchor="middle" x="659.62" y="-294.45" font-family="Times,serif" font-size="14.00">model=dummy</text>
</g>
<!-- OpenVINO -->
<g id="node11" class="node">
<title>OpenVINO</title>
<g id="a_node11"><a xlink:href="41_openvino_backend.svg" xlink:title="OpenVINOBackend\nbackend membrane">
<polygon fill="#efebe9" stroke="#6d4c41" points="285.12,-249.25 182.88,-249.25 182.88,-213.25 285.12,-213.25 285.12,-249.25"/>
<text xml:space="preserve" text-anchor="middle" x="234" y="-233.75" font-family="Arial" font-size="10.00">OpenVINOBackend</text>
<text xml:space="preserve" text-anchor="middle" x="234" y="-221.75" font-family="Arial" font-size="10.00">backend membrane</text>
</a>
</g>
</g>
<!-- Registry&#45;&gt;OpenVINO -->
<g id="edge17" class="edge">
<title>Registry&#45;&gt;OpenVINO</title>
<path fill="none" stroke="black" stroke-dasharray="5,2" d="M636.49,-340.56C580.09,-337.17 487.41,-328.69 410.25,-307.75 362.88,-294.89 311.61,-271.8 276.65,-254.53"/>
<polygon fill="black" stroke="black" points="278.65,-251.62 268.14,-250.28 275.52,-257.88 278.65,-251.62"/>
<text xml:space="preserve" text-anchor="middle" x="503.62" y="-294.45" font-family="Times,serif" font-size="14.00">future registered backend</text>
</g>
<!-- Dummy&#45;&gt;InferenceResult -->
<g id="edge11" class="edge">
<title>Dummy&#45;&gt;InferenceResult</title>
<path fill="none" stroke="black" d="M694.87,-249.59C723.96,-267.54 771.57,-293.67 817,-304.12 879.15,-318.42 1043.31,-323.73 1104,-304.12 1132.6,-294.89 1159.91,-274.2 1178.91,-257.22"/>
<polygon fill="black" stroke="black" points="1181.2,-259.87 1186.17,-250.51 1176.45,-254.73 1181.2,-259.87"/>
</g>
<!-- EventBus -->
<g id="node19" class="node">
<title>EventBus</title>
<g id="a_node19"><a xlink:href="../scheduler/event_bus/12_event_bus.svg" xlink:title="EventBus">
<polygon fill="#ede7f6" stroke="#512da8" points="870.38,-361.75 811.62,-361.75 811.62,-325.75 870.38,-325.75 870.38,-361.75"/>
<text xml:space="preserve" text-anchor="middle" x="841" y="-340.25" font-family="Arial" font-size="10.00">EventBus</text>
</a>
</g>
</g>
<!-- EventResult&#45;&gt;EventBus -->
<g id="edge16" class="edge">
<title>EventResult&#45;&gt;EventBus</title>
<path fill="none" stroke="black" stroke-dasharray="5,2" d="M643.9,-416.52C647.31,-415.99 650.68,-415.48 654,-415 690.07,-409.79 787.45,-418.33 817,-397 825.06,-391.19 830.48,-381.99 834.09,-372.93"/>
<polygon fill="black" stroke="black" points="837.36,-374.2 837.19,-363.61 830.71,-372 837.36,-374.2"/>
</g>
<!-- OpenVINOConfig -->
<g id="node12" class="node">
<title>OpenVINOConfig</title>
<polygon fill="#efebe9" stroke="#6d4c41" points="146.38,-141.25 15.62,-141.25 15.62,-105.25 146.38,-105.25 146.38,-141.25"/>
<text xml:space="preserve" text-anchor="middle" x="81" y="-119.75" font-family="Arial" font-size="10.00">OpenVINOBackendConfig</text>
</g>
<!-- OpenVINO&#45;&gt;OpenVINOConfig -->
<g id="edge18" class="edge">
<title>OpenVINO&#45;&gt;OpenVINOConfig</title>
<path fill="none" stroke="black" stroke-dasharray="1,5" d="M182.57,-227.66C133.91,-224.01 65.91,-215.36 49.25,-195.25 39.04,-182.93 43.49,-174.18 49.25,-159.25 50.37,-156.34 51.87,-153.52 53.59,-150.83"/>
<polygon fill="black" stroke="black" points="56.36,-152.97 59.7,-142.91 50.82,-148.69 56.36,-152.97"/>
<text xml:space="preserve" text-anchor="middle" x="111.12" y="-172.57" font-family="Times,serif" font-size="14.00">immutable config</text>
</g>
<!-- OpenVINOState -->
<g id="node13" class="node">
<title>OpenVINOState</title>
<polygon fill="#efebe9" stroke="#6d4c41" points="289.75,-141.25 164.25,-141.25 164.25,-105.25 289.75,-105.25 289.75,-141.25"/>
<text xml:space="preserve" text-anchor="middle" x="227" y="-119.75" font-family="Arial" font-size="10.00">OpenVINOBackendState</text>
</g>
<!-- OpenVINO&#45;&gt;OpenVINOState -->
<g id="edge19" class="edge">
<title>OpenVINO&#45;&gt;OpenVINOState</title>
<path fill="none" stroke="black" stroke-dasharray="1,5" d="M198.34,-212.86C191.97,-208.07 186.19,-202.22 182.5,-195.25 175.01,-181.11 175.51,-173.64 182.5,-159.25 184.23,-155.69 186.51,-152.39 189.13,-149.35"/>
<polygon fill="black" stroke="black" points="191.41,-152.01 196.15,-142.53 186.54,-146.99 191.41,-152.01"/>
<text xml:space="preserve" text-anchor="middle" x="241.75" y="-172.57" font-family="Times,serif" font-size="14.00">observable state</text>
</g>
<!-- OpenVINORuntime -->
<g id="node14" class="node">
<title>OpenVINORuntime</title>
<polygon fill="#efebe9" stroke="#6d4c41" points="447.88,-141.25 308.12,-141.25 308.12,-105.25 447.88,-105.25 447.88,-141.25"/>
<text xml:space="preserve" text-anchor="middle" x="378" y="-125.75" font-family="Arial" font-size="10.00">OpenVINORuntime Protocol</text>
<text xml:space="preserve" text-anchor="middle" x="378" y="-113.75" font-family="Arial" font-size="10.00">injected fake/real</text>
</g>
<!-- OpenVINO&#45;&gt;OpenVINORuntime -->
<g id="edge20" class="edge">
<title>OpenVINO&#45;&gt;OpenVINORuntime</title>
<path fill="none" stroke="black" stroke-dasharray="5,2" d="M273.97,-212.83C283.32,-207.85 292.9,-201.93 301,-195.25 316.8,-182.23 314.94,-173.39 329.75,-159.25 333.62,-155.56 337.89,-151.93 342.24,-148.49"/>
<polygon fill="black" stroke="black" points="344.11,-151.47 349.99,-142.65 339.89,-145.88 344.11,-151.47"/>
<text xml:space="preserve" text-anchor="middle" x="392.38" y="-172.57" font-family="Times,serif" font-size="14.00">infer via injection</text>
</g>
<!-- RealRuntime -->
<g id="node15" class="node">
<title>RealRuntime</title>
<g id="a_node15"><a xlink:href="42_openvino_runtime.svg" xlink:title="RealOpenVINORuntime\noptional real runtime">
<polygon fill="#efebe9" stroke="#6d4c41" points="395.5,-52 274.5,-52 274.5,-16 395.5,-16 395.5,-52"/>
<text xml:space="preserve" text-anchor="middle" x="335" y="-36.5" font-family="Arial" font-size="10.00">RealOpenVINORuntime</text>
<text xml:space="preserve" text-anchor="middle" x="335" y="-24.5" font-family="Arial" font-size="10.00">optional real runtime</text>
</a>
</g>
</g>
<!-- OpenVINORuntime&#45;&gt;RealRuntime -->
<g id="edge21" class="edge">
<title>OpenVINORuntime&#45;&gt;RealRuntime</title>
<path fill="none" stroke="black" stroke-dasharray="1,5" d="M369.5,-105.01C363.5,-92.82 355.32,-76.23 348.43,-62.26"/>
<polygon fill="black" stroke="black" points="351.71,-60.98 344.15,-53.56 345.43,-64.08 351.71,-60.98"/>
<text xml:space="preserve" text-anchor="middle" x="416.6" y="-73.95" font-family="Times,serif" font-size="14.00">implementation</text>
</g>
<!-- Dispatcher -->
<g id="node17" class="node">
<title>Dispatcher</title>
<g id="a_node17"><a xlink:href="../scheduler/dispatcher/11_dispatcher.svg" xlink:title="Dispatcher">
<polygon fill="#ede7f6" stroke="#512da8" points="1141.62,-361.75 1078.38,-361.75 1078.38,-325.75 1141.62,-325.75 1141.62,-361.75"/>
<text xml:space="preserve" text-anchor="middle" x="1110" y="-340.25" font-family="Arial" font-size="10.00">Dispatcher</text>
</a>
</g>
</g>
<!-- Scheduler&#45;&gt;Dispatcher -->
<g id="edge3" class="edge">
<title>Scheduler&#45;&gt;Dispatcher</title>
<path fill="none" stroke="black" d="M1184.63,-414.76C1170.87,-401.86 1151.85,-384.01 1136.46,-369.57"/>
<polygon fill="black" stroke="black" points="1139.13,-367.28 1129.44,-362.99 1134.34,-372.38 1139.13,-367.28"/>
<text xml:space="preserve" text-anchor="middle" x="1187.7" y="-383.7" font-family="Times,serif" font-size="14.00">Queue</text>
</g>
<!-- Dispatcher&#45;&gt;Handler -->
<g id="edge4" class="edge">
<title>Dispatcher&#45;&gt;Handler</title>
<path fill="none" stroke="black" d="M1090.74,-362.19C1050.46,-398.47 959.57,-479.34 942,-486.25 875.99,-512.2 698.53,-495.4 611.18,-504.32"/>
<polygon fill="black" stroke="black" points="610.98,-500.82 601.48,-505.5 611.83,-507.77 610.98,-500.82"/>
</g>
<!-- ComponentProxy&#45;&gt;EventRequest -->
<g id="edge1" class="edge">
<title>ComponentProxy&#45;&gt;EventRequest</title>
<path fill="none" stroke="black" d="M1098.47,-451.41C1099.67,-462.89 1098.91,-477.38 1090,-486.25 1070.34,-505.82 914.79,-514.73 808.07,-518.58"/>
<polygon fill="black" stroke="black" points="808,-515.08 798.12,-518.92 808.24,-522.07 808,-515.08"/>
<text xml:space="preserve" text-anchor="middle" x="1138.65" y="-472.95" font-family="Times,serif" font-size="14.00">yield Event</text>
</g>
<!-- Nav_Global -->
<g id="node20" class="node">
<title>Nav_Global</title>
<g id="a_node20"><a xlink:href="../00_global.svg" xlink:title="Global">
<polygon fill="lightgrey" stroke="none" points="518,-195.25 464,-195.25 464,-159.25 518,-159.25 518,-195.25"/>
<text xml:space="preserve" text-anchor="middle" x="491" y="-173.75" font-family="Arial" font-size="10.00">Global</text>
</a>
</g>
</g>
<!-- Nav_Scheduler -->
<g id="node21" class="node">
<title>Nav_Scheduler</title>
<g id="a_node21"><a xlink:href="../scheduler/10_scheduler.svg" xlink:title="Scheduler">
<polygon fill="lightgrey" stroke="none" points="582.75,-195.25 523.25,-195.25 523.25,-159.25 582.75,-159.25 582.75,-195.25"/>
<text xml:space="preserve" text-anchor="middle" x="553" y="-173.75" font-family="Arial" font-size="10.00">Scheduler</text>
</a>
</g>
</g>
<!-- Nav_Services -->
<g id="node22" class="node">
<title>Nav_Services</title>
<g id="a_node22"><a xlink:href="../services/30_services.svg" xlink:title="Services">
<polygon fill="lightgrey" stroke="none" points="642.12,-195.25 587.88,-195.25 587.88,-159.25 642.12,-159.25 642.12,-195.25"/>
<text xml:space="preserve" text-anchor="middle" x="615" y="-173.75" font-family="Arial" font-size="10.00">Services</text>
</a>
</g>
</g>
</g>
</svg>
