<?xml version="1.0" encoding="UTF-8" standalone="no"?>
<!DOCTYPE svg PUBLIC "-//W3C//DTD SVG 1.1//EN"
 "http://www.w3.org/Graphics/SVG/1.1/DTD/svg11.dtd">
<!-- Generated by graphviz version 14.1.3 (20260303.0454)
 -->
<!-- Title: Inference Pages: 1 -->
<svg width="1232pt" height="411pt"
 viewBox="0.00 0.00 1232.00 411.00" xmlns="http://www.w3.org/2000/svg" xmlns:xlink="http://www.w3.org/1999/xlink">
<g id="graph0" class="graph" transform="scale(1 1) rotate(0) translate(4 407)">
<title>Inference</title>
<polygon fill="white" stroke="none" points="-4,4 -4,-407 1227.75,-407 1227.75,4 -4,4"/>
<g id="clust1" class="cluster">
<title>cluster_contracts</title>
<polygon fill="#eceff1" stroke="#455a64" points="356,-205.25 356,-282.5 862,-282.5 862,-205.25 356,-205.25"/>
<text xml:space="preserve" text-anchor="middle" x="609" y="-265.2" font-family="Times,serif" font-size="14.00">Contracts</text>
</g>
<g id="clust2" class="cluster">
<title>cluster_runtime</title>
<polygon fill="#fffde7" stroke="#f9a825" points="8,-205.25 8,-395 348,-395 348,-205.25 8,-205.25"/>
<text xml:space="preserve" text-anchor="middle" x="178" y="-377.7" font-family="Times,serif" font-size="14.00">Runtime Phase 1.4</text>
</g>
<g id="clust3" class="cluster">
<title>cluster_future</title>
<polygon fill="#efebe9" stroke="#6d4c41" points="870,-8 870,-282.5 1003,-282.5 1003,-8 870,-8"/>
<text xml:space="preserve" text-anchor="middle" x="936.5" y="-265.2" font-family="Times,serif" font-size="14.00">Backends future</text>
</g>
<!-- InferenceRequest -->
<g id="node1" class="node">
<title>InferenceRequest</title>
<polygon fill="#eceff1" stroke="#455a64" points="702,-249.25 548,-249.25 548,-213.25 702,-213.25 702,-249.25"/>
<text xml:space="preserve" text-anchor="middle" x="625" y="-233.75" font-family="Arial" font-size="10.00">InferenceRequest</text>
<text xml:space="preserve" text-anchor="middle" x="625" y="-221.75" font-family="Arial" font-size="10.00">prompt/context/model/metadata</text>
</g>
<!-- InferenceResult -->
<g id="node2" class="node">
<title>InferenceResult</title>
<polygon fill="#eceff1" stroke="#455a64" points="530,-249.25 364,-249.25 364,-213.25 530,-213.25 530,-249.25"/>
<text xml:space="preserve" text-anchor="middle" x="447" y="-233.75" font-family="Arial" font-size="10.00">InferenceResult</text>
<text xml:space="preserve" text-anchor="middle" x="447" y="-221.75" font-family="Arial" font-size="10.00">text/confidence/backend/metadata</text>
</g>
<!-- Handler -->
<g id="node5" class="node">
<title>Handler</title>
<polygon fill="#fffde7" stroke="#f9a825" points="143.5,-361.75 16.5,-361.75 16.5,-325.75 143.5,-325.75 143.5,-361.75"/>
<text xml:space="preserve" text-anchor="middle" x="80" y="-340.25" font-family="Arial" font-size="10.00">InferenceRequestHandler</text>
</g>
<!-- InferenceResult&#45;&gt;Handler -->
<g id="edge9" class="edge">
<title>InferenceResult&#45;&gt;Handler</title>
<path fill="none" stroke="black" d="M419.25,-249.52C400.78,-260.36 375.66,-273.86 352,-282.5 270.31,-312.35 243.4,-306.42 154.81,-325.42"/>
<polygon fill="black" stroke="black" points="154.18,-321.97 145.17,-327.53 155.69,-328.81 154.18,-321.97"/>
</g>
<!-- InferenceBackend -->
<g id="node3" class="node">
<title>InferenceBackend</title>
<polygon fill="#eceff1" stroke="#455a64" points="853.88,-249.25 720.12,-249.25 720.12,-213.25 853.88,-213.25 853.88,-249.25"/>
<text xml:space="preserve" text-anchor="middle" x="787" y="-227.75" font-family="Arial" font-size="10.00">InferenceBackend Protocol</text>
</g>
<!-- EventRequest -->
<g id="node4" class="node">
<title>EventRequest</title>
<polygon fill="#fffde7" stroke="#f9a825" points="340.38,-361.75 161.62,-361.75 161.62,-325.75 340.38,-325.75 340.38,-361.75"/>
<text xml:space="preserve" text-anchor="middle" x="251" y="-346.25" font-family="Arial" font-size="10.00">EventType.INFERENCE_REQUEST</text>
<text xml:space="preserve" text-anchor="middle" x="251" y="-334.25" font-family="Arial" font-size="10.00">Request.reply</text>
</g>
<!-- Scheduler -->
<g id="node11" class="node">
<title>Scheduler</title>
<g id="a_node11"><a xlink:href="../scheduler/10_scheduler.svg" xlink:title="Scheduler">
<polygon fill="#ede7f6" stroke="#512da8" points="1223.75,-249.25 1164.25,-249.25 1164.25,-213.25 1223.75,-213.25 1223.75,-249.25"/>
<text xml:space="preserve" text-anchor="middle" x="1194" y="-227.75" font-family="Arial" font-size="10.00">Scheduler</text>
</a>
</g>
</g>
<!-- EventRequest&#45;&gt;Scheduler -->
<g id="edge2" class="edge">
<title>EventRequest&#45;&gt;Scheduler</title>
<path fill="none" stroke="black" d="M340.48,-342.13C565.34,-340.19 1138.48,-332.81 1171,-307.75 1185.24,-296.78 1190.92,-277.23 1193.08,-260.77"/>
<polygon fill="black" stroke="black" points="1196.55,-261.29 1193.97,-251.01 1189.58,-260.66 1196.55,-261.29"/>
<text xml:space="preserve" text-anchor="middle" x="1200.19" y="-294.45" font-family="Times,serif" font-size="14.00">emit</text>
</g>
<!-- Handler&#45;&gt;InferenceRequest -->
<g id="edge5" class="edge">
<title>Handler&#45;&gt;InferenceRequest</title>
<path fill="none" stroke="black" stroke-dasharray="1,5" d="M143.61,-327.47C146.78,-326.86 149.92,-326.28 153,-325.75 195.53,-318.44 498.04,-296.08 539,-282.5 557.58,-276.34 576.55,-265.8 591.92,-255.96"/>
<polygon fill="black" stroke="black" points="593.79,-258.92 600.2,-250.48 589.93,-253.08 593.79,-258.92"/>
<text xml:space="preserve" text-anchor="middle" x="553" y="-294.45" font-family="Times,serif" font-size="14.00">validate payload</text>
</g>
<!-- Handler&#45;&gt;InferenceBackend -->
<g id="edge6" class="edge">
<title>Handler&#45;&gt;InferenceBackend</title>
<path fill="none" stroke="black" stroke-dasharray="1,5" d="M143.97,-327.13C147.01,-326.61 150.03,-326.15 153,-325.75 356.65,-298.32 411.76,-338.07 615,-307.75 620.45,-306.94 705.97,-284.75 711,-282.5 726.57,-275.53 742.51,-265.52 755.74,-256.26"/>
<polygon fill="black" stroke="black" points="757.55,-259.27 763.62,-250.6 753.46,-253.59 757.55,-259.27"/>
<text xml:space="preserve" text-anchor="middle" x="711.01" y="-294.45" font-family="Times,serif" font-size="14.00">protocol</text>
</g>
<!-- Dummy -->
<g id="node6" class="node">
<title>Dummy</title>
<polygon fill="#fffde7" stroke="#f9a825" points="145.62,-249.25 16.38,-249.25 16.38,-213.25 145.62,-213.25 145.62,-249.25"/>
<text xml:space="preserve" text-anchor="middle" x="81" y="-233.75" font-family="Arial" font-size="10.00">DummyInferenceBackend</text>
<text xml:space="preserve" text-anchor="middle" x="81" y="-221.75" font-family="Arial" font-size="10.00">deterministic</text>
</g>
<!-- Handler&#45;&gt;Dummy -->
<g id="edge7" class="edge">
<title>Handler&#45;&gt;Dummy</title>
<path fill="none" stroke="black" d="M80.16,-325.48C80.31,-308.21 80.56,-281.34 80.74,-260.87"/>
<polygon fill="black" stroke="black" points="84.24,-260.94 80.83,-250.91 77.24,-260.88 84.24,-260.94"/>
<text xml:space="preserve" text-anchor="middle" x="97.35" y="-294.45" font-family="Times,serif" font-size="14.00">infer</text>
</g>
<!-- EventResult -->
<g id="node7" class="node">
<title>EventResult</title>
<polygon fill="#fffde7" stroke="#f9a825" points="332.5,-249.25 163.5,-249.25 163.5,-213.25 332.5,-213.25 332.5,-249.25"/>
<text xml:space="preserve" text-anchor="middle" x="248" y="-233.75" font-family="Arial" font-size="10.00">EventType.INFERENCE_RESULT</text>
<text xml:space="preserve" text-anchor="middle" x="248" y="-221.75" font-family="Arial" font-size="10.00">observable</text>
</g>
<!-- Handler&#45;&gt;EventResult -->
<g id="edge11" class="edge">
<title>Handler&#45;&gt;EventResult</title>
<path fill="none" stroke="black" d="M106.25,-325.48C134.77,-306.73 180.5,-276.65 212.28,-255.75"/>
<polygon fill="black" stroke="black" points="213.96,-258.83 220.39,-250.41 210.11,-252.98 213.96,-258.83"/>
<text xml:space="preserve" text-anchor="middle" x="185.21" y="-294.45" font-family="Times,serif" font-size="14.00">publish</text>
</g>
<!-- OpenVINO -->
<g id="node8" class="node">
<title>OpenVINO</title>
<polygon fill="#efebe9" stroke="#6d4c41" points="980.12,-249.25 877.88,-249.25 877.88,-213.25 980.12,-213.25 980.12,-249.25"/>
<text xml:space="preserve" text-anchor="middle" x="929" y="-227.75" font-family="Arial" font-size="10.00">OpenVINOBackend</text>
</g>
<!-- Handler&#45;&gt;OpenVINO -->
<g id="edge15" class="edge">
<title>Handler&#45;&gt;OpenVINO</title>
<path fill="none" stroke="black" stroke-dasharray="5,2" d="M143.96,-327.1C147.01,-326.59 150.03,-326.14 153,-325.75 282.85,-308.82 613.62,-333.55 742,-307.75 763,-303.53 766.16,-295.46 787,-290.5 821.33,-282.33 833.32,-295.82 866,-282.5 880.07,-276.76 893.54,-266.85 904.38,-257.34"/>
<polygon fill="black" stroke="black" points="906.75,-259.92 911.72,-250.57 902,-254.78 906.75,-259.92"/>
<text xml:space="preserve" text-anchor="middle" x="856" y="-294.45" font-family="Times,serif" font-size="14.00">future replacement</text>
</g>
<!-- ComponentProxy -->
<g id="node13" class="node">
<title>ComponentProxy</title>
<g id="a_node13"><a xlink:href="../scheduler/component_proxy/14_component_proxy.svg" xlink:title="ComponentProxy">
<polygon fill="#ede7f6" stroke="#512da8" points="1140.88,-249.25 1049.12,-249.25 1049.12,-213.25 1140.88,-213.25 1140.88,-249.25"/>
<text xml:space="preserve" text-anchor="middle" x="1095" y="-227.75" font-family="Arial" font-size="10.00">ComponentProxy</text>
</a>
</g>
</g>
<!-- Handler&#45;&gt;ComponentProxy -->
<g id="edge10" class="edge">
<title>Handler&#45;&gt;ComponentProxy</title>
<path fill="none" stroke="black" stroke-dasharray="5,2" d="M143.96,-327.07C147.01,-326.57 150.03,-326.13 153,-325.75 240.88,-314.65 867.63,-340.33 950,-307.75 960.68,-303.52 958.79,-295.25 969.25,-290.5 996.06,-278.34 1007.99,-294.21 1035,-282.5 1048.44,-276.67 1061.2,-266.84 1071.47,-257.41"/>
<polygon fill="black" stroke="black" points="1073.62,-260.2 1078.38,-250.73 1068.76,-255.16 1073.62,-260.2"/>
<text xml:space="preserve" text-anchor="middle" x="1019.12" y="-294.45" font-family="Times,serif" font-size="14.00">Request.reply</text>
</g>
<!-- Dummy&#45;&gt;InferenceResult -->
<g id="edge8" class="edge">
<title>Dummy&#45;&gt;InferenceResult</title>
<path fill="none" stroke="black" d="M95.15,-249.75C110.04,-267.55 135.29,-293.31 164,-304.12 238.45,-332.17 267.13,-328.06 343,-304.12 372.36,-294.86 400.62,-274.03 420.26,-257"/>
<polygon fill="black" stroke="black" points="422.4,-259.78 427.52,-250.51 417.73,-254.56 422.4,-259.78"/>
</g>
<!-- EventBus -->
<g id="node14" class="node">
<title>EventBus</title>
<g id="a_node14"><a xlink:href="../scheduler/event_bus/12_event_bus.svg" xlink:title="EventBus">
<polygon fill="#ede7f6" stroke="#512da8" points="277.38,-160 218.62,-160 218.62,-124 277.38,-124 277.38,-160"/>
<text xml:space="preserve" text-anchor="middle" x="248" y="-138.5" font-family="Arial" font-size="10.00">EventBus</text>
</a>
</g>
</g>
<!-- EventResult&#45;&gt;EventBus -->
<g id="edge12" class="edge">
<title>EventResult&#45;&gt;EventBus</title>
<path fill="none" stroke="black" stroke-dasharray="5,2" d="M248,-213.01C248,-201.18 248,-185.2 248,-171.5"/>
<polygon fill="black" stroke="black" points="251.5,-171.72 248,-161.72 244.5,-171.72 251.5,-171.72"/>
</g>
<!-- CompiledModel -->
<g id="node9" class="node">
<title>CompiledModel</title>
<polygon fill="#efebe9" stroke="#6d4c41" points="970.75,-160 887.25,-160 887.25,-124 970.75,-124 970.75,-160"/>
<text xml:space="preserve" text-anchor="middle" x="929" y="-138.5" font-family="Arial" font-size="10.00">CompiledModel</text>
</g>
<!-- OpenVINO&#45;&gt;CompiledModel -->
<g id="edge13" class="edge">
<title>OpenVINO&#45;&gt;CompiledModel</title>
<path fill="none" stroke="black" stroke-dasharray="5,2" d="M929,-213.01C929,-201.18 929,-185.2 929,-171.5"/>
<polygon fill="black" stroke="black" points="932.5,-171.72 929,-161.72 925.5,-171.72 932.5,-171.72"/>
</g>
<!-- InferPool -->
<g id="node10" class="node">
<title>InferPool</title>
<polygon fill="#efebe9" stroke="#6d4c41" points="974.88,-52 883.12,-52 883.12,-16 974.88,-16 974.88,-52"/>
<text xml:space="preserve" text-anchor="middle" x="929" y="-30.5" font-family="Arial" font-size="10.00">InferRequestPool</text>
</g>
<!-- CompiledModel&#45;&gt;InferPool -->
<g id="edge14" class="edge">
<title>CompiledModel&#45;&gt;InferPool</title>
<path fill="none" stroke="black" stroke-dasharray="5,2" d="M929,-123.97C929,-107.76 929,-83.06 929,-63.79"/>
<polygon fill="black" stroke="black" points="932.5,-63.85 929,-53.85 925.5,-63.85 932.5,-63.85"/>
</g>
<!-- Dispatcher -->
<g id="node12" class="node">
<title>Dispatcher</title>
<g id="a_node12"><a xlink:href="../scheduler/10_scheduler.svg" xlink:title="Dispatcher">
<polygon fill="#ede7f6" stroke="#512da8" points="1115.62,-160 1052.38,-160 1052.38,-124 1115.62,-124 1115.62,-160"/>
<text xml:space="preserve" text-anchor="middle" x="1084" y="-138.5" font-family="Arial" font-size="10.00">Dispatcher</text>
</a>
</g>
</g>
<!-- Scheduler&#45;&gt;Dispatcher -->
<g id="edge3" class="edge">
<title>Scheduler&#45;&gt;Dispatcher</title>
<path fill="none" stroke="black" d="M1172,-212.8C1155.52,-199.73 1132.75,-181.67 1114.5,-167.2"/>
<polygon fill="black" stroke="black" points="1117.15,-164.83 1107.14,-161.36 1112.8,-170.31 1117.15,-164.83"/>
<text xml:space="preserve" text-anchor="middle" x="1171.73" y="-181.95" font-family="Times,serif" font-size="14.00">Queue</text>
</g>
<!-- Dispatcher&#45;&gt;Handler -->
<g id="edge4" class="edge">
<title>Dispatcher&#45;&gt;Handler</title>
<path fill="none" stroke="black" d="M1070.25,-160.32C1061,-172.46 1048.91,-189.31 1040,-205.25 1021.79,-237.84 1036.56,-259.7 1007,-282.5 987.79,-297.32 975.79,-282.19 953,-290.5 939.27,-295.51 939.02,-303.6 925,-307.75 845.54,-331.27 278.84,-316.09 155.36,-325.93"/>
<polygon fill="black" stroke="black" points="155.07,-322.44 145.47,-326.92 155.76,-329.41 155.07,-322.44"/>
</g>
<!-- ComponentProxy&#45;&gt;EventRequest -->
<g id="edge1" class="edge">
<title>ComponentProxy&#45;&gt;EventRequest</title>
<path fill="none" stroke="black" d="M1095.33,-249.47C1094.64,-267.17 1090.51,-294.02 1073,-307.75 1045.08,-329.64 565.32,-338.63 351.93,-341.56"/>
<polygon fill="black" stroke="black" points="352.2,-338.06 342.25,-341.7 352.3,-345.06 352.2,-338.06"/>
<text xml:space="preserve" text-anchor="middle" x="1126.35" y="-294.45" font-family="Times,serif" font-size="14.00">yield Event</text>
</g>
<!-- Nav_Global -->
<g id="node15" class="node">
<title>Nav_Global</title>
<g id="a_node15"><a xlink:href="../00_global.svg" xlink:title="Global">
<polygon fill="lightgrey" stroke="none" points="1065,-106 1011,-106 1011,-70 1065,-70 1065,-106"/>
<text xml:space="preserve" text-anchor="middle" x="1038" y="-84.5" font-family="Arial" font-size="10.00">Global</text>
</a>
</g>
</g>
<!-- Nav_Scheduler -->
<g id="node16" class="node">
<title>Nav_Scheduler</title>
<g id="a_node16"><a xlink:href="../scheduler/10_scheduler.svg" xlink:title="Scheduler">
<polygon fill="lightgrey" stroke="none" points="1129.75,-106 1070.25,-106 1070.25,-70 1129.75,-70 1129.75,-106"/>
<text xml:space="preserve" text-anchor="middle" x="1100" y="-84.5" font-family="Arial" font-size="10.00">Scheduler</text>
</a>
</g>
</g>
<!-- Nav_Services -->
<g id="node17" class="node">
<title>Nav_Services</title>
<g id="a_node17"><a xlink:href="../services/30_services.svg" xlink:title="Services">
<polygon fill="lightgrey" stroke="none" points="1189.12,-106 1134.88,-106 1134.88,-70 1189.12,-70 1189.12,-106"/>
<text xml:space="preserve" text-anchor="middle" x="1162" y="-84.5" font-family="Arial" font-size="10.00">Services</text>
</a>
</g>
</g>
</g>
</svg>
