<?xml version="1.0" encoding="UTF-8" standalone="no"?>
<!DOCTYPE svg PUBLIC "-//W3C//DTD SVG 1.1//EN"
 "http://www.w3.org/Graphics/SVG/1.1/DTD/svg11.dtd">
<!-- Generated by graphviz version 14.1.3 (20260303.0454)
 -->
<!-- Title: Inference Pages: 1 -->
<svg width="1484pt" height="500pt"
 viewBox="0.00 0.00 1484.00 500.00" xmlns="http://www.w3.org/2000/svg" xmlns:xlink="http://www.w3.org/1999/xlink">
<g id="graph0" class="graph" transform="scale(1 1) rotate(0) translate(4 496.25)">
<title>Inference</title>
<polygon fill="white" stroke="none" points="-4,4 -4,-496.25 1480,-496.25 1480,4 -4,4"/>
<g id="clust1" class="cluster">
<title>cluster_contracts</title>
<polygon fill="#eceff1" stroke="#455a64" points="812,-116 812,-193.25 1468,-193.25 1468,-116 812,-116"/>
<text xml:space="preserve" text-anchor="middle" x="1140" y="-175.95" font-family="Times,serif" font-size="14.00">Contracts</text>
</g>
<g id="clust2" class="cluster">
<title>cluster_runtime</title>
<polygon fill="#fffde7" stroke="#f9a825" points="464,-116 464,-484.25 804,-484.25 804,-116 464,-116"/>
<text xml:space="preserve" text-anchor="middle" x="634" y="-466.95" font-family="Times,serif" font-size="14.00">Runtime Phase 2.5</text>
</g>
<g id="clust3" class="cluster">
<title>cluster_openvino_contract</title>
<polygon fill="#efebe9" stroke="#6d4c41" points="8,-8 8,-193.25 456,-193.25 456,-8 8,-8"/>
<text xml:space="preserve" text-anchor="middle" x="232" y="-175.95" font-family="Times,serif" font-size="14.00">OpenVINO contract Phase 2.6</text>
</g>
<!-- InferenceRequest -->
<g id="node1" class="node">
<title>InferenceRequest</title>
<polygon fill="#eceff1" stroke="#455a64" points="1460,-160 1306,-160 1306,-124 1460,-124 1460,-160"/>
<text xml:space="preserve" text-anchor="middle" x="1383" y="-144.5" font-family="Arial" font-size="10.00">InferenceRequest</text>
<text xml:space="preserve" text-anchor="middle" x="1383" y="-132.5" font-family="Arial" font-size="10.00">prompt/context/model/metadata</text>
</g>
<!-- InferenceResult -->
<g id="node2" class="node">
<title>InferenceResult</title>
<polygon fill="#eceff1" stroke="#455a64" points="1288,-160 1122,-160 1122,-124 1288,-124 1288,-160"/>
<text xml:space="preserve" text-anchor="middle" x="1205" y="-144.5" font-family="Arial" font-size="10.00">InferenceResult</text>
<text xml:space="preserve" text-anchor="middle" x="1205" y="-132.5" font-family="Arial" font-size="10.00">text/confidence/backend/metadata</text>
</g>
<!-- Adapter -->
<g id="node7" class="node">
<title>Adapter</title>
<polygon fill="#fffde7" stroke="#f9a825" points="769.38,-361.75 662.62,-361.75 662.62,-325.75 769.38,-325.75 769.38,-361.75"/>
<text xml:space="preserve" text-anchor="middle" x="716" y="-346.25" font-family="Arial" font-size="10.00">InferenceAdapter</text>
<text xml:space="preserve" text-anchor="middle" x="716" y="-334.25" font-family="Arial" font-size="10.00">execution membrane</text>
</g>
<!-- InferenceResult&#45;&gt;Adapter -->
<g id="edge12" class="edge">
<title>InferenceResult&#45;&gt;Adapter</title>
<path fill="none" stroke="black" d="M1180.57,-160.4C1162.76,-172.04 1137.55,-186.43 1113,-193.25 1092.53,-198.93 940.27,-190.42 922,-201.25 890.18,-220.1 902.88,-244.25 879,-272.5 863.49,-290.85 859.15,-296.34 838,-307.75 820.33,-317.28 799.78,-324.46 780.65,-329.76"/>
<polygon fill="black" stroke="black" points="779.82,-326.36 771.04,-332.28 781.6,-333.13 779.82,-326.36"/>
</g>
<!-- InferenceBackend -->
<g id="node3" class="node">
<title>InferenceBackend</title>
<polygon fill="#eceff1" stroke="#455a64" points="1103.88,-160 970.12,-160 970.12,-124 1103.88,-124 1103.88,-160"/>
<text xml:space="preserve" text-anchor="middle" x="1037" y="-138.5" font-family="Arial" font-size="10.00">InferenceBackend Protocol</text>
</g>
<!-- RegistrySnapshot -->
<g id="node4" class="node">
<title>RegistrySnapshot</title>
<polygon fill="#eceff1" stroke="#455a64" points="952.12,-160 819.88,-160 819.88,-124 952.12,-124 952.12,-160"/>
<text xml:space="preserve" text-anchor="middle" x="886" y="-144.5" font-family="Arial" font-size="10.00">BackendRegistrySnapshot</text>
<text xml:space="preserve" text-anchor="middle" x="886" y="-132.5" font-family="Arial" font-size="10.00">default/name list</text>
</g>
<!-- EventRequest -->
<g id="node5" class="node">
<title>EventRequest</title>
<polygon fill="#fffde7" stroke="#f9a825" points="796.38,-451 617.62,-451 617.62,-415 796.38,-415 796.38,-451"/>
<text xml:space="preserve" text-anchor="middle" x="707" y="-435.5" font-family="Arial" font-size="10.00">EventType.INFERENCE_REQUEST</text>
<text xml:space="preserve" text-anchor="middle" x="707" y="-423.5" font-family="Arial" font-size="10.00">Request.reply</text>
</g>
<!-- Scheduler -->
<g id="node15" class="node">
<title>Scheduler</title>
<g id="a_node15"><a xlink:href="../scheduler/10_scheduler.svg" xlink:title="Scheduler">
<polygon fill="#ede7f6" stroke="#512da8" points="1232.75,-361.75 1173.25,-361.75 1173.25,-325.75 1232.75,-325.75 1232.75,-361.75"/>
<text xml:space="preserve" text-anchor="middle" x="1203" y="-340.25" font-family="Arial" font-size="10.00">Scheduler</text>
</a>
</g>
</g>
<!-- EventRequest&#45;&gt;Scheduler -->
<g id="edge2" class="edge">
<title>EventRequest&#45;&gt;Scheduler</title>
<path fill="none" stroke="black" d="M796.81,-430.53C926.17,-427.65 1152.83,-419.43 1183,-397 1190.67,-391.3 1195.4,-382.25 1198.32,-373.28"/>
<polygon fill="black" stroke="black" points="1201.69,-374.24 1200.75,-363.68 1194.9,-372.51 1201.69,-374.24"/>
<text xml:space="preserve" text-anchor="middle" x="1211.64" y="-383.7" font-family="Times,serif" font-size="14.00">emit</text>
</g>
<!-- Handler -->
<g id="node6" class="node">
<title>Handler</title>
<polygon fill="#fffde7" stroke="#f9a825" points="599.5,-451 472.5,-451 472.5,-415 599.5,-415 599.5,-451"/>
<text xml:space="preserve" text-anchor="middle" x="536" y="-429.5" font-family="Arial" font-size="10.00">InferenceRequestHandler</text>
</g>
<!-- Handler&#45;&gt;InferenceRequest -->
<g id="edge5" class="edge">
<title>Handler&#45;&gt;InferenceRequest</title>
<path fill="none" stroke="black" stroke-dasharray="1,5" d="M599.65,-416.91C602.8,-416.25 605.94,-415.6 609,-415 658.03,-405.33 672.47,-412.44 720,-397 819.91,-364.55 835.09,-333.35 931,-290.5 991.13,-263.63 1005.71,-254.72 1069,-236.5 1168.12,-207.97 1200.4,-229.4 1297,-193.25 1315.07,-186.49 1333.72,-176.08 1349.02,-166.48"/>
<polygon fill="black" stroke="black" points="1350.76,-169.52 1357.27,-161.16 1346.97,-163.63 1350.76,-169.52"/>
<text xml:space="preserve" text-anchor="middle" x="989.5" y="-294.45" font-family="Times,serif" font-size="14.00">validate payload</text>
</g>
<!-- Handler&#45;&gt;Adapter -->
<g id="edge6" class="edge">
<title>Handler&#45;&gt;Adapter</title>
<path fill="none" stroke="black" d="M563.17,-414.5C571.53,-409 580.71,-402.84 589,-397 599.45,-389.64 600.69,-385.7 612,-379.75 624.37,-373.24 638.2,-367.59 651.63,-362.84"/>
<polygon fill="black" stroke="black" points="652.5,-366.24 660.84,-359.71 650.25,-359.61 652.5,-366.24"/>
<text xml:space="preserve" text-anchor="middle" x="661.5" y="-383.7" font-family="Times,serif" font-size="14.00">infer(request)</text>
</g>
<!-- EventResult -->
<g id="node10" class="node">
<title>EventResult</title>
<polygon fill="#fffde7" stroke="#f9a825" points="643.5,-361.75 474.5,-361.75 474.5,-325.75 643.5,-325.75 643.5,-361.75"/>
<text xml:space="preserve" text-anchor="middle" x="559" y="-346.25" font-family="Arial" font-size="10.00">EventType.INFERENCE_RESULT</text>
<text xml:space="preserve" text-anchor="middle" x="559" y="-334.25" font-family="Arial" font-size="10.00">observable</text>
</g>
<!-- Handler&#45;&gt;EventResult -->
<g id="edge15" class="edge">
<title>Handler&#45;&gt;EventResult</title>
<path fill="none" stroke="black" d="M533.79,-414.7C533.05,-404.35 533.12,-391.05 536.5,-379.75 537.29,-377.12 538.33,-374.5 539.55,-371.95"/>
<polygon fill="black" stroke="black" points="542.58,-373.69 544.49,-363.27 536.5,-370.23 542.58,-373.69"/>
<text xml:space="preserve" text-anchor="middle" x="562.75" y="-383.7" font-family="Times,serif" font-size="14.00">publish</text>
</g>
<!-- ComponentProxy -->
<g id="node17" class="node">
<title>ComponentProxy</title>
<g id="a_node17"><a xlink:href="../scheduler/component_proxy/14_component_proxy.svg" xlink:title="ComponentProxy">
<polygon fill="#ede7f6" stroke="#512da8" points="1140.88,-361.75 1049.12,-361.75 1049.12,-325.75 1140.88,-325.75 1140.88,-361.75"/>
<text xml:space="preserve" text-anchor="middle" x="1095" y="-340.25" font-family="Arial" font-size="10.00">ComponentProxy</text>
</a>
</g>
</g>
<!-- Handler&#45;&gt;ComponentProxy -->
<g id="edge14" class="edge">
<title>Handler&#45;&gt;ComponentProxy</title>
<path fill="none" stroke="black" stroke-dasharray="5,2" d="M599.97,-416.42C603.02,-415.89 606.04,-415.42 609,-415 687.88,-403.92 893.34,-427.32 967,-397 977.62,-392.63 976.29,-385.47 986.25,-379.75 1002.21,-370.59 1020.87,-363.48 1038.2,-358.13"/>
<polygon fill="black" stroke="black" points="1038.71,-361.62 1047.32,-355.45 1036.74,-354.91 1038.71,-361.62"/>
<text xml:space="preserve" text-anchor="middle" x="1036.12" y="-383.7" font-family="Times,serif" font-size="14.00">Request.reply</text>
</g>
<!-- Adapter&#45;&gt;Handler -->
<g id="edge13" class="edge">
<title>Adapter&#45;&gt;Handler</title>
<path fill="none" stroke="black" d="M719.23,-361.93C720.32,-373.3 719.53,-387.76 711,-397 697.03,-412.12 644.48,-410.9 610.72,-415.18"/>
<polygon fill="black" stroke="black" points="610.47,-411.68 601.15,-416.72 611.58,-418.59 610.47,-411.68"/>
</g>
<!-- Registry -->
<g id="node8" class="node">
<title>Registry</title>
<polygon fill="#fffde7" stroke="#f9a825" points="739.12,-272.5 636.88,-272.5 636.88,-236.5 739.12,-236.5 739.12,-272.5"/>
<text xml:space="preserve" text-anchor="middle" x="688" y="-257" font-family="Arial" font-size="10.00">BackendRegistry</text>
<text xml:space="preserve" text-anchor="middle" x="688" y="-245" font-family="Arial" font-size="10.00">explicit backend list</text>
</g>
<!-- Adapter&#45;&gt;Registry -->
<g id="edge7" class="edge">
<title>Adapter&#45;&gt;Registry</title>
<path fill="none" stroke="black" d="M710.47,-325.51C706.63,-313.56 701.44,-297.38 697.01,-283.58"/>
<polygon fill="black" stroke="black" points="700.37,-282.6 693.98,-274.14 693.71,-284.73 700.37,-282.6"/>
<text xml:space="preserve" text-anchor="middle" x="758.51" y="-294.45" font-family="Times,serif" font-size="14.00">select_backend</text>
</g>
<!-- Registry&#45;&gt;InferenceBackend -->
<g id="edge9" class="edge">
<title>Registry&#45;&gt;InferenceBackend</title>
<path fill="none" stroke="black" stroke-dasharray="1,5" d="M739.35,-241.68C759.47,-236.05 782.39,-228.35 802,-218.5 813.58,-212.68 813.31,-205.65 825.5,-201.25 882.25,-180.79 903.77,-212.32 961,-193.25 978.07,-187.56 994.98,-177.01 1008.49,-167.04"/>
<polygon fill="black" stroke="black" points="1010.27,-170.08 1016.07,-161.21 1006.01,-164.53 1010.27,-170.08"/>
<text xml:space="preserve" text-anchor="middle" x="854.75" y="-205.2" font-family="Times,serif" font-size="14.00">protocol</text>
</g>
<!-- Registry&#45;&gt;RegistrySnapshot -->
<g id="edge8" class="edge">
<title>Registry&#45;&gt;RegistrySnapshot</title>
<path fill="none" stroke="black" stroke-dasharray="1,5" d="M699.45,-236.1C708.32,-224.17 721.73,-209.11 737.5,-201.25 765.72,-187.17 778.3,-203.85 808,-193.25 825.01,-187.18 842.08,-176.79 855.9,-167.02"/>
<polygon fill="black" stroke="black" points="857.69,-170.05 863.69,-161.32 853.55,-164.41 857.69,-170.05"/>
<text xml:space="preserve" text-anchor="middle" x="769.75" y="-205.2" font-family="Times,serif" font-size="14.00">snapshot</text>
</g>
<!-- Dummy -->
<g id="node9" class="node">
<title>Dummy</title>
<polygon fill="#fffde7" stroke="#f9a825" points="731.62,-160 602.38,-160 602.38,-124 731.62,-124 731.62,-160"/>
<text xml:space="preserve" text-anchor="middle" x="667" y="-144.5" font-family="Arial" font-size="10.00">DummyInferenceBackend</text>
<text xml:space="preserve" text-anchor="middle" x="667" y="-132.5" font-family="Arial" font-size="10.00">deterministic</text>
</g>
<!-- Registry&#45;&gt;Dummy -->
<g id="edge10" class="edge">
<title>Registry&#45;&gt;Dummy</title>
<path fill="none" stroke="black" d="M636.8,-242.49C624.43,-237.3 612.66,-229.68 605.25,-218.5 593.19,-200.31 608.93,-181.29 627.54,-166.9"/>
<polygon fill="black" stroke="black" points="629.5,-169.8 635.56,-161.11 625.4,-164.12 629.5,-169.8"/>
<text xml:space="preserve" text-anchor="middle" x="659.62" y="-205.2" font-family="Times,serif" font-size="14.00">model=dummy</text>
</g>
<!-- OpenVINO -->
<g id="node11" class="node">
<title>OpenVINO</title>
<g id="a_node11"><a xlink:href="41_openvino_backend.svg" xlink:title="OpenVINOBackend\ncontract only">
<polygon fill="#efebe9" stroke="#6d4c41" points="285.12,-160 182.88,-160 182.88,-124 285.12,-124 285.12,-160"/>
<text xml:space="preserve" text-anchor="middle" x="234" y="-144.5" font-family="Arial" font-size="10.00">OpenVINOBackend</text>
<text xml:space="preserve" text-anchor="middle" x="234" y="-132.5" font-family="Arial" font-size="10.00">contract only</text>
</a>
</g>
</g>
<!-- Registry&#45;&gt;OpenVINO -->
<g id="edge17" class="edge">
<title>Registry&#45;&gt;OpenVINO</title>
<path fill="none" stroke="black" stroke-dasharray="5,2" d="M636.49,-251.31C580.09,-247.92 487.41,-239.44 410.25,-218.5 362.88,-205.64 311.61,-182.55 276.65,-165.28"/>
<polygon fill="black" stroke="black" points="278.65,-162.37 268.14,-161.03 275.52,-168.63 278.65,-162.37"/>
<text xml:space="preserve" text-anchor="middle" x="503.62" y="-205.2" font-family="Times,serif" font-size="14.00">future registered backend</text>
</g>
<!-- Dummy&#45;&gt;InferenceResult -->
<g id="edge11" class="edge">
<title>Dummy&#45;&gt;InferenceResult</title>
<path fill="none" stroke="black" d="M694.87,-160.34C723.96,-178.29 771.57,-204.42 817,-214.88 879.15,-229.17 1043.31,-234.48 1104,-214.88 1132.6,-205.64 1159.91,-184.95 1178.91,-167.97"/>
<polygon fill="black" stroke="black" points="1181.2,-170.62 1186.17,-161.26 1176.45,-165.48 1181.2,-170.62"/>
</g>
<!-- EventBus -->
<g id="node18" class="node">
<title>EventBus</title>
<g id="a_node18"><a xlink:href="../scheduler/event_bus/12_event_bus.svg" xlink:title="EventBus">
<polygon fill="#ede7f6" stroke="#512da8" points="870.38,-272.5 811.62,-272.5 811.62,-236.5 870.38,-236.5 870.38,-272.5"/>
<text xml:space="preserve" text-anchor="middle" x="841" y="-251" font-family="Arial" font-size="10.00">EventBus</text>
</a>
</g>
</g>
<!-- EventResult&#45;&gt;EventBus -->
<g id="edge16" class="edge">
<title>EventResult&#45;&gt;EventBus</title>
<path fill="none" stroke="black" stroke-dasharray="5,2" d="M643.9,-327.27C647.31,-326.74 650.68,-326.23 654,-325.75 690.07,-320.54 787.45,-329.08 817,-307.75 825.06,-301.94 830.48,-292.74 834.09,-283.68"/>
<polygon fill="black" stroke="black" points="837.36,-284.95 837.19,-274.36 830.71,-282.75 837.36,-284.95"/>
</g>
<!-- OpenVINOConfig -->
<g id="node12" class="node">
<title>OpenVINOConfig</title>
<polygon fill="#efebe9" stroke="#6d4c41" points="146.38,-52 15.62,-52 15.62,-16 146.38,-16 146.38,-52"/>
<text xml:space="preserve" text-anchor="middle" x="81" y="-30.5" font-family="Arial" font-size="10.00">OpenVINOBackendConfig</text>
</g>
<!-- OpenVINO&#45;&gt;OpenVINOConfig -->
<g id="edge18" class="edge">
<title>OpenVINO&#45;&gt;OpenVINOConfig</title>
<path fill="none" stroke="black" stroke-dasharray="1,5" d="M182.57,-138.41C133.91,-134.76 65.91,-126.11 49.25,-106 39.04,-93.68 43.49,-84.93 49.25,-70 50.37,-67.09 51.87,-64.27 53.59,-61.58"/>
<polygon fill="black" stroke="black" points="56.36,-63.72 59.7,-53.66 50.82,-59.44 56.36,-63.72"/>
<text xml:space="preserve" text-anchor="middle" x="111.12" y="-83.33" font-family="Times,serif" font-size="14.00">immutable config</text>
</g>
<!-- OpenVINOState -->
<g id="node13" class="node">
<title>OpenVINOState</title>
<polygon fill="#efebe9" stroke="#6d4c41" points="289.75,-52 164.25,-52 164.25,-16 289.75,-16 289.75,-52"/>
<text xml:space="preserve" text-anchor="middle" x="227" y="-30.5" font-family="Arial" font-size="10.00">OpenVINOBackendState</text>
</g>
<!-- OpenVINO&#45;&gt;OpenVINOState -->
<g id="edge19" class="edge">
<title>OpenVINO&#45;&gt;OpenVINOState</title>
<path fill="none" stroke="black" stroke-dasharray="1,5" d="M198.34,-123.61C191.97,-118.82 186.19,-112.97 182.5,-106 175.01,-91.86 175.51,-84.39 182.5,-70 184.23,-66.44 186.51,-63.14 189.13,-60.1"/>
<polygon fill="black" stroke="black" points="191.41,-62.76 196.15,-53.28 186.54,-57.74 191.41,-62.76"/>
<text xml:space="preserve" text-anchor="middle" x="241.75" y="-83.33" font-family="Times,serif" font-size="14.00">observable state</text>
</g>
<!-- OpenVINORuntime -->
<g id="node14" class="node">
<title>OpenVINORuntime</title>
<polygon fill="#efebe9" stroke="#6d4c41" points="447.88,-52 308.12,-52 308.12,-16 447.88,-16 447.88,-52"/>
<text xml:space="preserve" text-anchor="middle" x="378" y="-36.5" font-family="Arial" font-size="10.00">OpenVINORuntime Protocol</text>
<text xml:space="preserve" text-anchor="middle" x="378" y="-24.5" font-family="Arial" font-size="10.00">injected fake/real</text>
</g>
<!-- OpenVINO&#45;&gt;OpenVINORuntime -->
<g id="edge20" class="edge">
<title>OpenVINO&#45;&gt;OpenVINORuntime</title>
<path fill="none" stroke="black" stroke-dasharray="5,2" d="M273.97,-123.58C283.32,-118.6 292.9,-112.68 301,-106 316.8,-92.98 314.94,-84.14 329.75,-70 333.62,-66.31 337.89,-62.68 342.24,-59.24"/>
<polygon fill="black" stroke="black" points="344.11,-62.22 349.99,-53.4 339.89,-56.63 344.11,-62.22"/>
<text xml:space="preserve" text-anchor="middle" x="392.38" y="-83.33" font-family="Times,serif" font-size="14.00">infer via injection</text>
</g>
<!-- Dispatcher -->
<g id="node16" class="node">
<title>Dispatcher</title>
<g id="a_node16"><a xlink:href="../scheduler/dispatcher/11_dispatcher.svg" xlink:title="Dispatcher">
<polygon fill="#ede7f6" stroke="#512da8" points="1141.62,-272.5 1078.38,-272.5 1078.38,-236.5 1141.62,-236.5 1141.62,-272.5"/>
<text xml:space="preserve" text-anchor="middle" x="1110" y="-251" font-family="Arial" font-size="10.00">Dispatcher</text>
</a>
</g>
</g>
<!-- Scheduler&#45;&gt;Dispatcher -->
<g id="edge3" class="edge">
<title>Scheduler&#45;&gt;Dispatcher</title>
<path fill="none" stroke="black" d="M1184.63,-325.51C1170.87,-312.61 1151.85,-294.76 1136.46,-280.32"/>
<polygon fill="black" stroke="black" points="1139.13,-278.03 1129.44,-273.74 1134.34,-283.13 1139.13,-278.03"/>
<text xml:space="preserve" text-anchor="middle" x="1187.7" y="-294.45" font-family="Times,serif" font-size="14.00">Queue</text>
</g>
<!-- Dispatcher&#45;&gt;Handler -->
<g id="edge4" class="edge">
<title>Dispatcher&#45;&gt;Handler</title>
<path fill="none" stroke="black" d="M1090.74,-272.94C1050.46,-309.22 959.57,-390.09 942,-397 875.99,-422.95 698.53,-406.15 611.18,-415.07"/>
<polygon fill="black" stroke="black" points="610.98,-411.57 601.48,-416.25 611.83,-418.52 610.98,-411.57"/>
</g>
<!-- ComponentProxy&#45;&gt;EventRequest -->
<g id="edge1" class="edge">
<title>ComponentProxy&#45;&gt;EventRequest</title>
<path fill="none" stroke="black" d="M1098.47,-362.16C1099.67,-373.64 1098.91,-388.13 1090,-397 1070.34,-416.57 914.79,-425.48 808.07,-429.33"/>
<polygon fill="black" stroke="black" points="808,-425.83 798.12,-429.67 808.24,-432.82 808,-425.83"/>
<text xml:space="preserve" text-anchor="middle" x="1138.65" y="-383.7" font-family="Times,serif" font-size="14.00">yield Event</text>
</g>
<!-- Nav_Global -->
<g id="node19" class="node">
<title>Nav_Global</title>
<g id="a_node19"><a xlink:href="../00_global.svg" xlink:title="Global">
<polygon fill="lightgrey" stroke="none" points="518,-106 464,-106 464,-70 518,-70 518,-106"/>
<text xml:space="preserve" text-anchor="middle" x="491" y="-84.5" font-family="Arial" font-size="10.00">Global</text>
</a>
</g>
</g>
<!-- Nav_Scheduler -->
<g id="node20" class="node">
<title>Nav_Scheduler</title>
<g id="a_node20"><a xlink:href="../scheduler/10_scheduler.svg" xlink:title="Scheduler">
<polygon fill="lightgrey" stroke="none" points="582.75,-106 523.25,-106 523.25,-70 582.75,-70 582.75,-106"/>
<text xml:space="preserve" text-anchor="middle" x="553" y="-84.5" font-family="Arial" font-size="10.00">Scheduler</text>
</a>
</g>
</g>
<!-- Nav_Services -->
<g id="node21" class="node">
<title>Nav_Services</title>
<g id="a_node21"><a xlink:href="../services/30_services.svg" xlink:title="Services">
<polygon fill="lightgrey" stroke="none" points="642.12,-106 587.88,-106 587.88,-70 642.12,-70 642.12,-106"/>
<text xml:space="preserve" text-anchor="middle" x="615" y="-84.5" font-family="Arial" font-size="10.00">Services</text>
</a>
</g>
</g>
</g>
</svg>
