<?xml version="1.0" encoding="UTF-8" standalone="no"?>
<!DOCTYPE svg PUBLIC "-//W3C//DTD SVG 1.1//EN"
 "http://www.w3.org/Graphics/SVG/1.1/DTD/svg11.dtd">
<!-- Generated by graphviz version 14.1.3 (20260303.0454)
 -->
<!-- Title: Inference Pages: 1 -->
<svg width="1527pt" height="689pt"
 viewBox="0.00 0.00 1527.00 689.00" xmlns="http://www.w3.org/2000/svg" xmlns:xlink="http://www.w3.org/1999/xlink">
<g id="graph0" class="graph" transform="scale(1 1) rotate(0) translate(4 684.5)">
<title>Inference</title>
<polygon fill="white" stroke="none" points="-4,4 -4,-684.5 1523,-684.5 1523,4 -4,4"/>
<g id="clust1" class="cluster">
<title>cluster_contracts</title>
<polygon fill="#eceff1" stroke="#455a64" points="855,-116 855,-218.5 1511,-218.5 1511,-116 855,-116"/>
<text xml:space="preserve" text-anchor="middle" x="1183" y="-201.2" font-family="Times,serif" font-size="14.00">Contracts</text>
</g>
<g id="clust2" class="cluster">
<title>cluster_runtime</title>
<polygon fill="#fffde7" stroke="#f9a825" points="507,-116 507,-534.75 847,-534.75 847,-116 507,-116"/>
<text xml:space="preserve" text-anchor="middle" x="677" y="-517.45" font-family="Times,serif" font-size="14.00">Runtime Phase 2.5</text>
</g>
<g id="clust3" class="cluster">
<title>cluster_openvino_contract</title>
<polygon fill="#efebe9" stroke="#6d4c41" points="8,-8 8,-672.5 463,-672.5 463,-8 8,-8"/>
<text xml:space="preserve" text-anchor="middle" x="235.5" y="-655.2" font-family="Times,serif" font-size="14.00">OpenVINO Phase 2.9</text>
</g>
<!-- InferenceRequest -->
<g id="node1" class="node">
<title>InferenceRequest</title>
<polygon fill="#eceff1" stroke="#455a64" points="1503,-160 1349,-160 1349,-124 1503,-124 1503,-160"/>
<text xml:space="preserve" text-anchor="middle" x="1426" y="-144.5" font-family="Arial" font-size="10.00">InferenceRequest</text>
<text xml:space="preserve" text-anchor="middle" x="1426" y="-132.5" font-family="Arial" font-size="10.00">prompt/context/model/metadata</text>
</g>
<!-- InferenceResult -->
<g id="node2" class="node">
<title>InferenceResult</title>
<polygon fill="#eceff1" stroke="#455a64" points="1331,-160 1165,-160 1165,-124 1331,-124 1331,-160"/>
<text xml:space="preserve" text-anchor="middle" x="1248" y="-144.5" font-family="Arial" font-size="10.00">InferenceResult</text>
<text xml:space="preserve" text-anchor="middle" x="1248" y="-132.5" font-family="Arial" font-size="10.00">text/confidence/backend/metadata</text>
</g>
<!-- Adapter -->
<g id="node7" class="node">
<title>Adapter</title>
<polygon fill="#fffde7" stroke="#f9a825" points="651.38,-387 544.62,-387 544.62,-351 651.38,-351 651.38,-387"/>
<text xml:space="preserve" text-anchor="middle" x="598" y="-371.5" font-family="Arial" font-size="10.00">InferenceAdapter</text>
<text xml:space="preserve" text-anchor="middle" x="598" y="-359.5" font-family="Arial" font-size="10.00">execution membrane</text>
</g>
<!-- InferenceResult&#45;&gt;Adapter -->
<g id="edge12" class="edge">
<title>InferenceResult&#45;&gt;Adapter</title>
<path fill="none" stroke="black" d="M1233.48,-160.27C1216.89,-178.57 1187.89,-206.46 1156,-218.5 1108.36,-236.49 976.66,-215.25 927,-226.5 888.71,-235.17 878.27,-239.39 846,-261.75 809.77,-286.86 816.15,-312.73 777,-333 733.65,-355.44 714.56,-342.18 663,-350.91"/>
<polygon fill="black" stroke="black" points="662.51,-347.44 653.35,-352.76 663.83,-354.32 662.51,-347.44"/>
</g>
<!-- InferenceBackend -->
<g id="node3" class="node">
<title>InferenceBackend</title>
<polygon fill="#eceff1" stroke="#455a64" points="1146.88,-160 1013.12,-160 1013.12,-124 1146.88,-124 1146.88,-160"/>
<text xml:space="preserve" text-anchor="middle" x="1080" y="-138.5" font-family="Arial" font-size="10.00">InferenceBackend Protocol</text>
</g>
<!-- RegistrySnapshot -->
<g id="node4" class="node">
<title>RegistrySnapshot</title>
<polygon fill="#eceff1" stroke="#455a64" points="995.12,-160 862.88,-160 862.88,-124 995.12,-124 995.12,-160"/>
<text xml:space="preserve" text-anchor="middle" x="929" y="-144.5" font-family="Arial" font-size="10.00">BackendRegistrySnapshot</text>
<text xml:space="preserve" text-anchor="middle" x="929" y="-132.5" font-family="Arial" font-size="10.00">default/name list</text>
</g>
<!-- EventRequest -->
<g id="node5" class="node">
<title>EventRequest</title>
<polygon fill="#fffde7" stroke="#f9a825" points="839.38,-476.25 660.62,-476.25 660.62,-440.25 839.38,-440.25 839.38,-476.25"/>
<text xml:space="preserve" text-anchor="middle" x="750" y="-460.75" font-family="Arial" font-size="10.00">EventType.INFERENCE_REQUEST</text>
<text xml:space="preserve" text-anchor="middle" x="750" y="-448.75" font-family="Arial" font-size="10.00">Request.reply</text>
</g>
<!-- Scheduler -->
<g id="node19" class="node">
<title>Scheduler</title>
<g id="a_node19"><a xlink:href="../scheduler/10_scheduler.svg" xlink:title="Scheduler">
<polygon fill="#ede7f6" stroke="#512da8" points="1202.75,-387 1143.25,-387 1143.25,-351 1202.75,-351 1202.75,-387"/>
<text xml:space="preserve" text-anchor="middle" x="1173" y="-365.5" font-family="Arial" font-size="10.00">Scheduler</text>
</a>
</g>
</g>
<!-- EventRequest&#45;&gt;Scheduler -->
<g id="edge2" class="edge">
<title>EventRequest&#45;&gt;Scheduler</title>
<path fill="none" stroke="black" d="M839.57,-454.46C950.69,-450.23 1128.57,-440.67 1153,-422.25 1160.64,-416.49 1165.36,-407.44 1168.27,-398.47"/>
<polygon fill="black" stroke="black" points="1171.64,-399.44 1170.72,-388.89 1164.86,-397.71 1171.64,-399.44"/>
<text xml:space="preserve" text-anchor="middle" x="1181.6" y="-408.95" font-family="Times,serif" font-size="14.00">emit</text>
</g>
<!-- Handler -->
<g id="node6" class="node">
<title>Handler</title>
<polygon fill="#fffde7" stroke="#f9a825" points="642.5,-476.25 515.5,-476.25 515.5,-440.25 642.5,-440.25 642.5,-476.25"/>
<text xml:space="preserve" text-anchor="middle" x="579" y="-454.75" font-family="Arial" font-size="10.00">InferenceRequestHandler</text>
</g>
<!-- Handler&#45;&gt;InferenceRequest -->
<g id="edge5" class="edge">
<title>Handler&#45;&gt;InferenceRequest</title>
<path fill="none" stroke="black" stroke-dasharray="1,5" d="M642.66,-442.25C645.82,-441.56 648.94,-440.89 652,-440.25 694.92,-431.28 706.66,-433.64 749,-422.25 794.1,-410.12 810.44,-414.77 848,-387 879.74,-363.54 869.63,-339.7 901,-315.75 953.35,-275.78 975.32,-278.54 1039,-261.75 1169.68,-227.29 1217.24,-275.04 1340,-218.5 1365.05,-206.96 1388.22,-185.74 1404.18,-168.73"/>
<polygon fill="black" stroke="black" points="1406.69,-171.17 1410.83,-161.41 1401.51,-166.46 1406.69,-171.17"/>
<text xml:space="preserve" text-anchor="middle" x="959.5" y="-319.7" font-family="Times,serif" font-size="14.00">validate payload</text>
</g>
<!-- Handler&#45;&gt;Adapter -->
<g id="edge6" class="edge">
<title>Handler&#45;&gt;Adapter</title>
<path fill="none" stroke="black" d="M564.36,-440.18C557.4,-429.91 551.64,-416.62 557,-405 558.57,-401.6 560.65,-398.41 563.04,-395.44"/>
<polygon fill="black" stroke="black" points="565.48,-397.96 569.9,-388.33 560.44,-393.09 565.48,-397.96"/>
<text xml:space="preserve" text-anchor="middle" x="606.5" y="-408.95" font-family="Times,serif" font-size="14.00">infer(request)</text>
</g>
<!-- EventResult -->
<g id="node10" class="node">
<title>EventResult</title>
<polygon fill="#fffde7" stroke="#f9a825" points="838.5,-387 669.5,-387 669.5,-351 838.5,-351 838.5,-387"/>
<text xml:space="preserve" text-anchor="middle" x="754" y="-371.5" font-family="Arial" font-size="10.00">EventType.INFERENCE_RESULT</text>
<text xml:space="preserve" text-anchor="middle" x="754" y="-359.5" font-family="Arial" font-size="10.00">observable</text>
</g>
<!-- Handler&#45;&gt;EventResult -->
<g id="edge15" class="edge">
<title>Handler&#45;&gt;EventResult</title>
<path fill="none" stroke="black" d="M622.94,-439.85C635.68,-434.51 649.51,-428.4 662,-422.25 680.01,-413.38 699.42,-402.55 715.74,-393.06"/>
<polygon fill="black" stroke="black" points="717.31,-396.2 724.16,-388.12 713.76,-390.17 717.31,-396.2"/>
<text xml:space="preserve" text-anchor="middle" x="719.15" y="-408.95" font-family="Times,serif" font-size="14.00">publish</text>
</g>
<!-- ComponentProxy -->
<g id="node21" class="node">
<title>ComponentProxy</title>
<g id="a_node21"><a xlink:href="../scheduler/component_proxy/14_component_proxy.svg" xlink:title="ComponentProxy">
<polygon fill="#ede7f6" stroke="#512da8" points="1110.88,-387 1019.12,-387 1019.12,-351 1110.88,-351 1110.88,-387"/>
<text xml:space="preserve" text-anchor="middle" x="1065" y="-365.5" font-family="Arial" font-size="10.00">ComponentProxy</text>
</a>
</g>
</g>
<!-- Handler&#45;&gt;ComponentProxy -->
<g id="edge14" class="edge">
<title>Handler&#45;&gt;ComponentProxy</title>
<path fill="none" stroke="black" stroke-dasharray="5,2" d="M642.98,-441.72C646.02,-441.18 649.04,-440.69 652,-440.25 714.78,-431.02 878.47,-446.78 937,-422.25 947.6,-417.81 946.29,-410.72 956.25,-405 972.21,-395.84 990.87,-388.73 1008.2,-383.38"/>
<polygon fill="black" stroke="black" points="1008.71,-386.87 1017.32,-380.7 1006.74,-380.16 1008.71,-386.87"/>
<text xml:space="preserve" text-anchor="middle" x="1006.12" y="-408.95" font-family="Times,serif" font-size="14.00">Request.reply</text>
</g>
<!-- Adapter&#45;&gt;Handler -->
<g id="edge13" class="edge">
<title>Adapter&#45;&gt;Handler</title>
<path fill="none" stroke="black" d="M637.94,-387.46C653.01,-396.65 664.66,-408.8 656,-422.25 653.36,-426.35 650.11,-429.97 646.46,-433.17"/>
<polygon fill="black" stroke="black" points="644.49,-430.28 638.5,-439.02 648.63,-435.92 644.49,-430.28"/>
</g>
<!-- Registry -->
<g id="node8" class="node">
<title>Registry</title>
<polygon fill="#fffde7" stroke="#f9a825" points="638.12,-297.75 535.88,-297.75 535.88,-261.75 638.12,-261.75 638.12,-297.75"/>
<text xml:space="preserve" text-anchor="middle" x="587" y="-282.25" font-family="Arial" font-size="10.00">BackendRegistry</text>
<text xml:space="preserve" text-anchor="middle" x="587" y="-270.25" font-family="Arial" font-size="10.00">explicit backend list</text>
</g>
<!-- Adapter&#45;&gt;Registry -->
<g id="edge7" class="edge">
<title>Adapter&#45;&gt;Registry</title>
<path fill="none" stroke="black" d="M642.92,-350.57C658.85,-341.62 670.86,-329.66 662,-315.75 658.39,-310.08 653.6,-305.32 648.17,-301.31"/>
<polygon fill="black" stroke="black" points="650.16,-298.43 639.83,-296.08 646.44,-304.36 650.16,-298.43"/>
<text xml:space="preserve" text-anchor="middle" x="719" y="-319.7" font-family="Times,serif" font-size="14.00">select_backend</text>
</g>
<!-- Registry&#45;&gt;InferenceBackend -->
<g id="edge9" class="edge">
<title>Registry&#45;&gt;InferenceBackend</title>
<path fill="none" stroke="black" stroke-dasharray="1,5" d="M638.29,-271.36C666.55,-266.06 701.73,-257.38 731,-243.75 742.75,-238.28 742.25,-230.73 754.5,-226.5 780.72,-217.44 978.53,-229.48 1004,-218.5 1027.78,-208.25 1048.17,-186.82 1061.83,-169.4"/>
<polygon fill="black" stroke="black" points="1064.59,-171.54 1067.79,-161.44 1058.99,-167.34 1064.59,-171.54"/>
<text xml:space="preserve" text-anchor="middle" x="783.75" y="-230.45" font-family="Times,serif" font-size="14.00">protocol</text>
</g>
<!-- Registry&#45;&gt;RegistrySnapshot -->
<g id="edge8" class="edge">
<title>Registry&#45;&gt;RegistrySnapshot</title>
<path fill="none" stroke="black" stroke-dasharray="1,5" d="M615.75,-261.35C624.58,-255.86 634.27,-249.67 643,-243.75 653.72,-236.48 654.28,-230.8 666.5,-226.5 705.21,-212.88 813.3,-234.72 851,-218.5 875.33,-208.04 896.45,-186.31 910.55,-168.85"/>
<polygon fill="black" stroke="black" points="912.98,-171.42 916.34,-161.38 907.45,-167.14 912.98,-171.42"/>
<text xml:space="preserve" text-anchor="middle" x="698.75" y="-230.45" font-family="Times,serif" font-size="14.00">snapshot</text>
</g>
<!-- Dummy -->
<g id="node9" class="node">
<title>Dummy</title>
<polygon fill="#fffde7" stroke="#f9a825" points="741.62,-160 612.38,-160 612.38,-124 741.62,-124 741.62,-160"/>
<text xml:space="preserve" text-anchor="middle" x="677" y="-144.5" font-family="Arial" font-size="10.00">DummyInferenceBackend</text>
<text xml:space="preserve" text-anchor="middle" x="677" y="-132.5" font-family="Arial" font-size="10.00">deterministic</text>
</g>
<!-- Registry&#45;&gt;Dummy -->
<g id="edge10" class="edge">
<title>Registry&#45;&gt;Dummy</title>
<path fill="none" stroke="black" d="M551.29,-261.31C537.48,-252.03 526.62,-239.81 534.25,-226.5 550.73,-197.78 581.33,-177.98 609.99,-164.91"/>
<polygon fill="black" stroke="black" points="611.25,-168.17 619.04,-160.99 608.47,-161.75 611.25,-168.17"/>
<text xml:space="preserve" text-anchor="middle" x="588.62" y="-230.45" font-family="Times,serif" font-size="14.00">model=dummy</text>
</g>
<!-- OpenVINO -->
<g id="node11" class="node">
<title>OpenVINO</title>
<g id="a_node11"><a xlink:href="41_openvino_backend.svg" xlink:title="OpenVINOBackend\nbackend membrane">
<polygon fill="#efebe9" stroke="#6d4c41" points="279.12,-297.75 176.88,-297.75 176.88,-261.75 279.12,-261.75 279.12,-297.75"/>
<text xml:space="preserve" text-anchor="middle" x="228" y="-282.25" font-family="Arial" font-size="10.00">OpenVINOBackend</text>
<text xml:space="preserve" text-anchor="middle" x="228" y="-270.25" font-family="Arial" font-size="10.00">backend membrane</text>
</a>
</g>
</g>
<!-- Registry&#45;&gt;OpenVINO -->
<g id="edge17" class="edge">
<title>Registry&#45;&gt;OpenVINO</title>
<path fill="none" stroke="black" stroke-dasharray="5,2" d="M566.1,-298.2C553.07,-308.44 535.39,-320.17 517.38,-325.56 497.5,-331.52 350.92,-329.89 330.62,-325.56 309.73,-321.11 287.93,-312.08 269.83,-303.21"/>
<polygon fill="black" stroke="black" points="271.48,-300.13 260.98,-298.73 268.31,-306.37 271.48,-300.13"/>
<text xml:space="preserve" text-anchor="middle" x="424" y="-319.7" font-family="Times,serif" font-size="14.00">future registered backend</text>
</g>
<!-- Dummy&#45;&gt;InferenceResult -->
<g id="edge11" class="edge">
<title>Dummy&#45;&gt;InferenceResult</title>
<path fill="none" stroke="black" d="M701.7,-160.43C735.4,-184.32 798.64,-224.71 860,-240.12 921.86,-255.66 1087.9,-264.11 1147,-240.12 1181.84,-225.99 1211.28,-193.42 1229.22,-169.67"/>
<polygon fill="black" stroke="black" points="1232.01,-171.79 1235.08,-161.65 1226.36,-167.66 1232.01,-171.79"/>
</g>
<!-- EventBus -->
<g id="node22" class="node">
<title>EventBus</title>
<g id="a_node22"><a xlink:href="../scheduler/event_bus/12_event_bus.svg" xlink:title="EventBus">
<polygon fill="#ede7f6" stroke="#512da8" points="913.38,-297.75 854.62,-297.75 854.62,-261.75 913.38,-261.75 913.38,-297.75"/>
<text xml:space="preserve" text-anchor="middle" x="884" y="-276.25" font-family="Arial" font-size="10.00">EventBus</text>
</a>
</g>
</g>
<!-- EventResult&#45;&gt;EventBus -->
<g id="edge16" class="edge">
<title>EventResult&#45;&gt;EventBus</title>
<path fill="none" stroke="black" stroke-dasharray="5,2" d="M809.11,-350.68C820.22,-345.89 831.41,-340.02 841,-333 850.57,-325.99 859.27,-316.39 866.31,-307.32"/>
<polygon fill="black" stroke="black" points="869.01,-309.56 872.11,-299.42 863.37,-305.41 869.01,-309.56"/>
</g>
<!-- OpenVINOConfig -->
<g id="node12" class="node">
<title>OpenVINOConfig</title>
<polygon fill="#efebe9" stroke="#6d4c41" points="290.38,-160 159.62,-160 159.62,-124 290.38,-124 290.38,-160"/>
<text xml:space="preserve" text-anchor="middle" x="225" y="-138.5" font-family="Arial" font-size="10.00">OpenVINOBackendConfig</text>
</g>
<!-- OpenVINO&#45;&gt;OpenVINOConfig -->
<g id="edge18" class="edge">
<title>OpenVINO&#45;&gt;OpenVINOConfig</title>
<path fill="none" stroke="black" stroke-dasharray="1,5" d="M192.84,-261.27C186.57,-256.49 180.88,-250.67 177.25,-243.75 164.08,-218.67 181.57,-189.34 198.97,-168.82"/>
<polygon fill="black" stroke="black" points="201.51,-171.23 205.58,-161.45 196.3,-166.56 201.51,-171.23"/>
<text xml:space="preserve" text-anchor="middle" x="239.12" y="-230.45" font-family="Times,serif" font-size="14.00">immutable config</text>
</g>
<!-- OpenVINOState -->
<g id="node13" class="node">
<title>OpenVINOState</title>
<polygon fill="#efebe9" stroke="#6d4c41" points="141.75,-160 16.25,-160 16.25,-124 141.75,-124 141.75,-160"/>
<text xml:space="preserve" text-anchor="middle" x="79" y="-138.5" font-family="Arial" font-size="10.00">OpenVINOBackendState</text>
</g>
<!-- OpenVINO&#45;&gt;OpenVINOState -->
<g id="edge19" class="edge">
<title>OpenVINO&#45;&gt;OpenVINOState</title>
<path fill="none" stroke="black" stroke-dasharray="1,5" d="M176.81,-275.72C130.18,-271.76 66.26,-262.92 50.5,-243.75 33.18,-222.68 45.95,-191.71 59.49,-169.67"/>
<polygon fill="black" stroke="black" points="62.28,-171.79 64.83,-161.51 56.42,-167.96 62.28,-171.79"/>
<text xml:space="preserve" text-anchor="middle" x="109.75" y="-230.45" font-family="Times,serif" font-size="14.00">observable state</text>
</g>
<!-- OpenVINORuntime -->
<g id="node14" class="node">
<title>OpenVINORuntime</title>
<polygon fill="#efebe9" stroke="#6d4c41" points="447.88,-160 308.12,-160 308.12,-124 447.88,-124 447.88,-160"/>
<text xml:space="preserve" text-anchor="middle" x="378" y="-144.5" font-family="Arial" font-size="10.00">OpenVINORuntime Protocol</text>
<text xml:space="preserve" text-anchor="middle" x="378" y="-132.5" font-family="Arial" font-size="10.00">injected fake/real</text>
</g>
<!-- OpenVINO&#45;&gt;OpenVINORuntime -->
<g id="edge20" class="edge">
<title>OpenVINO&#45;&gt;OpenVINORuntime</title>
<path fill="none" stroke="black" stroke-dasharray="5,2" d="M272.84,-261.36C282.65,-256.46 292.6,-250.58 301,-243.75 326.51,-223.01 348.46,-192.18 362.33,-170.09"/>
<polygon fill="black" stroke="black" points="365.27,-171.98 367.5,-161.62 359.3,-168.33 365.27,-171.98"/>
<text xml:space="preserve" text-anchor="middle" x="381.31" y="-230.45" font-family="Times,serif" font-size="14.00">infer via injection</text>
</g>
<!-- RealRuntime -->
<g id="node15" class="node">
<title>RealRuntime</title>
<g id="a_node15"><a xlink:href="42_openvino_runtime.svg" xlink:title="RealOpenVINORuntime\noptional real runtime">
<polygon fill="#efebe9" stroke="#6d4c41" points="402.5,-52 281.5,-52 281.5,-16 402.5,-16 402.5,-52"/>
<text xml:space="preserve" text-anchor="middle" x="342" y="-36.5" font-family="Arial" font-size="10.00">RealOpenVINORuntime</text>
<text xml:space="preserve" text-anchor="middle" x="342" y="-24.5" font-family="Arial" font-size="10.00">optional real runtime</text>
</a>
</g>
</g>
<!-- OpenVINORuntime&#45;&gt;RealRuntime -->
<g id="edge21" class="edge">
<title>OpenVINORuntime&#45;&gt;RealRuntime</title>
<path fill="none" stroke="black" stroke-dasharray="1,5" d="M360.71,-123.79C356.34,-118.49 352.15,-112.37 349.5,-106 343.99,-92.77 341.93,-77.01 341.33,-63.7"/>
<polygon fill="black" stroke="black" points="344.83,-63.76 341.15,-53.83 337.83,-63.89 344.83,-63.76"/>
<text xml:space="preserve" text-anchor="middle" x="405.75" y="-83.33" font-family="Times,serif" font-size="14.00">implementation</text>
</g>
<!-- ModelProfile -->
<g id="node16" class="node">
<title>ModelProfile</title>
<g id="a_node16"><a xlink:href="43_openvino_profiles.svg" xlink:title="OpenVINOModelProfile\ndeclarative model">
<polygon fill="#efebe9" stroke="#6d4c41" points="370,-614 252,-614 252,-578 370,-578 370,-614"/>
<text xml:space="preserve" text-anchor="middle" x="311" y="-598.5" font-family="Arial" font-size="10.00">OpenVINOModelProfile</text>
<text xml:space="preserve" text-anchor="middle" x="311" y="-586.5" font-family="Arial" font-size="10.00">declarative model</text>
</a>
</g>
</g>
<!-- ProfileRegistry -->
<g id="node17" class="node">
<title>ProfileRegistry</title>
<g id="a_node17"><a xlink:href="43_openvino_profiles.svg" xlink:title="OpenVINOModelProfileRegistry\nprofiles only">
<polygon fill="#efebe9" stroke="#6d4c41" points="388.38,-476.25 233.62,-476.25 233.62,-440.25 388.38,-440.25 388.38,-476.25"/>
<text xml:space="preserve" text-anchor="middle" x="311" y="-460.75" font-family="Arial" font-size="10.00">OpenVINOModelProfileRegistry</text>
<text xml:space="preserve" text-anchor="middle" x="311" y="-448.75" font-family="Arial" font-size="10.00">profiles only</text>
</a>
</g>
</g>
<!-- ModelProfile&#45;&gt;ProfileRegistry -->
<g id="edge22" class="edge">
<title>ModelProfile&#45;&gt;ProfileRegistry</title>
<path fill="none" stroke="black" d="M311,-577.53C311,-554.93 311,-515.24 311,-488.12"/>
<polygon fill="black" stroke="black" points="314.5,-488.17 311,-478.17 307.5,-488.17 314.5,-488.17"/>
<text xml:space="preserve" text-anchor="middle" x="364.62" y="-546.7" font-family="Times,serif" font-size="14.00">register profile</text>
</g>
<!-- BackendFactory -->
<g id="node18" class="node">
<title>BackendFactory</title>
<g id="a_node18"><a xlink:href="43_openvino_profiles.svg" xlink:title="OpenVINOBackendFactory\nprofile &#45;&gt; backend">
<polygon fill="#efebe9" stroke="#6d4c41" points="385.62,-387 250.38,-387 250.38,-351 385.62,-351 385.62,-387"/>
<text xml:space="preserve" text-anchor="middle" x="318" y="-371.5" font-family="Arial" font-size="10.00">OpenVINOBackendFactory</text>
<text xml:space="preserve" text-anchor="middle" x="318" y="-359.5" font-family="Arial" font-size="10.00">profile &#45;&gt; backend</text>
</a>
</g>
</g>
<!-- ProfileRegistry&#45;&gt;BackendFactory -->
<g id="edge23" class="edge">
<title>ProfileRegistry&#45;&gt;BackendFactory</title>
<path fill="none" stroke="black" d="M312.38,-440.01C313.33,-428.18 314.61,-412.2 315.71,-398.5"/>
<polygon fill="black" stroke="black" points="319.19,-398.96 316.5,-388.71 312.21,-398.4 319.19,-398.96"/>
<text xml:space="preserve" text-anchor="middle" x="387.13" y="-408.95" font-family="Times,serif" font-size="14.00">select(profile_name)</text>
</g>
<!-- BackendFactory&#45;&gt;Registry -->
<g id="edge26" class="edge">
<title>BackendFactory&#45;&gt;Registry</title>
<path fill="none" stroke="black" stroke-dasharray="5,2" d="M385.7,-365.45C425.85,-361.73 476.78,-353.01 518,-333 528.33,-327.98 528.26,-322.9 537.25,-315.75 541.83,-312.1 546.77,-308.4 551.68,-304.82"/>
<polygon fill="black" stroke="black" points="553.67,-307.7 559.78,-299.05 549.61,-302 553.67,-307.7"/>
<text xml:space="preserve" text-anchor="middle" x="597.62" y="-319.7" font-family="Times,serif" font-size="14.00">register backend</text>
</g>
<!-- BackendFactory&#45;&gt;OpenVINO -->
<g id="edge25" class="edge">
<title>BackendFactory&#45;&gt;OpenVINO</title>
<path fill="none" stroke="black" stroke-dasharray="5,2" d="M250.18,-355.98C238.42,-350.82 227.62,-343.46 220.25,-333 215.39,-326.09 215.03,-317.39 216.56,-309.08"/>
<polygon fill="black" stroke="black" points="219.87,-310.22 219.17,-299.65 213.13,-308.35 219.87,-310.22"/>
<text xml:space="preserve" text-anchor="middle" x="270.12" y="-319.7" font-family="Times,serif" font-size="14.00">build backend</text>
</g>
<!-- BackendFactory&#45;&gt;OpenVINOConfig -->
<g id="edge24" class="edge">
<title>BackendFactory&#45;&gt;OpenVINOConfig</title>
<path fill="none" stroke="black" stroke-dasharray="5,2" d="M319.95,-350.88C321.63,-340.36 324.65,-326.81 330,-315.75 343.39,-288.07 347.29,-278.24 373.25,-261.75 402.09,-243.43 426.85,-270.59 448,-243.75 452.74,-237.73 453.27,-232.06 448,-226.5 436.6,-214.47 314.11,-225.33 299,-218.5 275.86,-208.04 256.11,-186.83 242.85,-169.54"/>
<polygon fill="black" stroke="black" points="245.81,-167.65 237.07,-161.66 240.16,-171.79 245.81,-167.65"/>
<text xml:space="preserve" text-anchor="middle" x="438.12" y="-275.07" font-family="Times,serif" font-size="14.00">to_backend_config</text>
</g>
<!-- Dispatcher -->
<g id="node20" class="node">
<title>Dispatcher</title>
<g id="a_node20"><a xlink:href="../scheduler/dispatcher/11_dispatcher.svg" xlink:title="Dispatcher">
<polygon fill="#ede7f6" stroke="#512da8" points="1111.62,-297.75 1048.38,-297.75 1048.38,-261.75 1111.62,-261.75 1111.62,-297.75"/>
<text xml:space="preserve" text-anchor="middle" x="1080" y="-276.25" font-family="Arial" font-size="10.00">Dispatcher</text>
</a>
</g>
</g>
<!-- Scheduler&#45;&gt;Dispatcher -->
<g id="edge3" class="edge">
<title>Scheduler&#45;&gt;Dispatcher</title>
<path fill="none" stroke="black" d="M1154.63,-350.76C1140.87,-337.86 1121.85,-320.01 1106.46,-305.57"/>
<polygon fill="black" stroke="black" points="1109.13,-303.28 1099.44,-298.99 1104.34,-308.38 1109.13,-303.28"/>
<text xml:space="preserve" text-anchor="middle" x="1157.7" y="-319.7" font-family="Times,serif" font-size="14.00">Queue</text>
</g>
<!-- Dispatcher&#45;&gt;Handler -->
<g id="edge4" class="edge">
<title>Dispatcher&#45;&gt;Handler</title>
<path fill="none" stroke="black" d="M1060.73,-298.16C1020.43,-334.41 929.51,-415.21 912,-422.25 861.1,-442.71 724.72,-432.85 654.13,-440.32"/>
<polygon fill="black" stroke="black" points="653.96,-436.82 644.48,-441.55 654.85,-443.76 653.96,-436.82"/>
</g>
<!-- ComponentProxy&#45;&gt;EventRequest -->
<g id="edge1" class="edge">
<title>ComponentProxy&#45;&gt;EventRequest</title>
<path fill="none" stroke="black" d="M1068.41,-387.35C1069.58,-398.8 1068.82,-413.28 1060,-422.25 1045.35,-437.15 935.71,-446.81 850.93,-452.12"/>
<polygon fill="black" stroke="black" points="850.95,-448.62 841.18,-452.72 851.38,-455.6 850.95,-448.62"/>
<text xml:space="preserve" text-anchor="middle" x="1108.58" y="-408.95" font-family="Times,serif" font-size="14.00">yield Event</text>
</g>
<!-- Nav_Global -->
<g id="node23" class="node">
<title>Nav_Global</title>
<g id="a_node23"><a xlink:href="../00_global.svg" xlink:title="Global">
<polygon fill="lightgrey" stroke="none" points="525,-106 471,-106 471,-70 525,-70 525,-106"/>
<text xml:space="preserve" text-anchor="middle" x="498" y="-84.5" font-family="Arial" font-size="10.00">Global</text>
</a>
</g>
</g>
<!-- Nav_Scheduler -->
<g id="node24" class="node">
<title>Nav_Scheduler</title>
<g id="a_node24"><a xlink:href="../scheduler/10_scheduler.svg" xlink:title="Scheduler">
<polygon fill="lightgrey" stroke="none" points="589.75,-106 530.25,-106 530.25,-70 589.75,-70 589.75,-106"/>
<text xml:space="preserve" text-anchor="middle" x="560" y="-84.5" font-family="Arial" font-size="10.00">Scheduler</text>
</a>
</g>
</g>
<!-- Nav_Services -->
<g id="node25" class="node">
<title>Nav_Services</title>
<g id="a_node25"><a xlink:href="../services/30_services.svg" xlink:title="Services">
<polygon fill="lightgrey" stroke="none" points="649.12,-106 594.88,-106 594.88,-70 649.12,-70 649.12,-106"/>
<text xml:space="preserve" text-anchor="middle" x="622" y="-84.5" font-family="Arial" font-size="10.00">Services</text>
</a>
</g>
</g>
<!-- Nav_Profiles -->
<g id="node26" class="node">
<title>Nav_Profiles</title>
<g id="a_node26"><a xlink:href="43_openvino_profiles.svg" xlink:title="OpenVINO profiles">
<polygon fill="lightgrey" stroke="none" points="752.25,-106 653.75,-106 653.75,-70 752.25,-70 752.25,-106"/>
<text xml:space="preserve" text-anchor="middle" x="703" y="-84.5" font-family="Arial" font-size="10.00">OpenVINO profiles</text>
</a>
</g>
</g>
</g>
</svg>
