<?xml version="1.0" encoding="UTF-8" standalone="no"?>
<!DOCTYPE svg PUBLIC "-//W3C//DTD SVG 1.1//EN"
 "http://www.w3.org/Graphics/SVG/1.1/DTD/svg11.dtd">
<!-- Generated by graphviz version 14.1.3 (20260303.0454)
 -->
<!-- Title: OpenVINOBackend Pages: 1 -->
<svg width="1118pt" height="433pt"
 viewBox="0.00 0.00 1118.00 433.00" xmlns="http://www.w3.org/2000/svg" xmlns:xlink="http://www.w3.org/1999/xlink">
<g id="graph0" class="graph" transform="scale(1 1) rotate(0) translate(4 429)">
<title>OpenVINOBackend</title>
<polygon fill="white" stroke="none" points="-4,4 -4,-429 1114,-429 1114,4 -4,4"/>
<g id="clust1" class="cluster">
<title>cluster_contract</title>
<polygon fill="#eceff1" stroke="#455a64" points="166,-8 166,-293.5 506,-293.5 506,-8 166,-8"/>
<text xml:space="preserve" text-anchor="middle" x="336" y="-279.05" font-family="Arial" font-size="11.00">Contrat Phase 2.6</text>
</g>
<g id="clust2" class="cluster">
<title>cluster_test</title>
<polygon fill="#e8f5e9" stroke="#2e7d32" points="514,-90.5 514,-293.5 762,-293.5 762,-90.5 514,-90.5"/>
<text xml:space="preserve" text-anchor="middle" x="638" y="-279.05" font-family="Arial" font-size="11.00">Tests sans runtime OpenVINO</text>
</g>
<g id="clust3" class="cluster">
<title>cluster_future</title>
<polygon fill="#efebe9" stroke="#6d4c41" points="8,-90.5 8,-417 158,-417 158,-90.5 8,-90.5"/>
<text xml:space="preserve" text-anchor="middle" x="83" y="-402.55" font-family="Arial" font-size="11.00">Runtime réel optionnel</text>
</g>
<!-- Config -->
<g id="node1" class="node">
<title>Config</title>
<path fill="#eceff1" stroke="#455a64" d="M486.38,-242.5C486.38,-242.5 343.62,-242.5 343.62,-242.5 337.62,-242.5 331.62,-236.5 331.62,-230.5 331.62,-230.5 331.62,-218.5 331.62,-218.5 331.62,-212.5 337.62,-206.5 343.62,-206.5 343.62,-206.5 486.38,-206.5 486.38,-206.5 492.38,-206.5 498.38,-212.5 498.38,-218.5 498.38,-218.5 498.38,-230.5 498.38,-230.5 498.38,-236.5 492.38,-242.5 486.38,-242.5"/>
<text xml:space="preserve" text-anchor="middle" x="415" y="-227" font-family="Arial" font-size="10.00">OpenVINOBackendConfig</text>
<text xml:space="preserve" text-anchor="middle" x="415" y="-215" font-family="Arial" font-size="10.00">model_path/device/backend_name</text>
</g>
<!-- Backend -->
<g id="node3" class="node">
<title>Backend</title>
<path fill="#eceff1" stroke="#455a64" d="M475.5,-134.5C475.5,-134.5 354.5,-134.5 354.5,-134.5 348.5,-134.5 342.5,-128.5 342.5,-122.5 342.5,-122.5 342.5,-110.5 342.5,-110.5 342.5,-104.5 348.5,-98.5 354.5,-98.5 354.5,-98.5 475.5,-98.5 475.5,-98.5 481.5,-98.5 487.5,-104.5 487.5,-110.5 487.5,-110.5 487.5,-122.5 487.5,-122.5 487.5,-128.5 481.5,-134.5 475.5,-134.5"/>
<text xml:space="preserve" text-anchor="middle" x="415" y="-119" font-family="Arial" font-size="10.00">OpenVINOBackend</text>
<text xml:space="preserve" text-anchor="middle" x="415" y="-107" font-family="Arial" font-size="10.00">InferenceBackend compatible</text>
</g>
<!-- Config&#45;&gt;Backend -->
<g id="edge1" class="edge">
<title>Config&#45;&gt;Backend</title>
<path fill="none" stroke="black" d="M439.17,-206.18C439.17,-206.18 439.17,-143.42 439.17,-143.42"/>
<polygon fill="black" stroke="black" points="441.62,-143.42 439.17,-136.42 436.72,-143.42 441.62,-143.42"/>
</g>
<!-- Runtime -->
<g id="node2" class="node">
<title>Runtime</title>
<path fill="#eceff1" stroke="#455a64" d="M301.88,-242.5C301.88,-242.5 186.12,-242.5 186.12,-242.5 180.12,-242.5 174.12,-236.5 174.12,-230.5 174.12,-230.5 174.12,-218.5 174.12,-218.5 174.12,-212.5 180.12,-206.5 186.12,-206.5 186.12,-206.5 301.88,-206.5 301.88,-206.5 307.88,-206.5 313.88,-212.5 313.88,-218.5 313.88,-218.5 313.88,-230.5 313.88,-230.5 313.88,-236.5 307.88,-242.5 301.88,-242.5"/>
<text xml:space="preserve" text-anchor="middle" x="244" y="-227" font-family="Arial" font-size="10.00">OpenVINORuntime Protocol</text>
<text xml:space="preserve" text-anchor="middle" x="244" y="-215" font-family="Arial" font-size="10.00">infer(request, config)</text>
</g>
<!-- Runtime&#45;&gt;Backend -->
<g id="edge2" class="edge">
<title>Runtime&#45;&gt;Backend</title>
<path fill="none" stroke="black" d="M280.58,-206.26C280.58,-175.59 280.58,-117 280.58,-117 280.58,-117 333.77,-117 333.77,-117"/>
<polygon fill="black" stroke="black" points="333.77,-119.45 340.77,-117 333.77,-114.55 333.77,-119.45"/>
<text xml:space="preserve" text-anchor="middle" x="326.12" y="-167.2" font-family="Arial" font-size="9.00">injected</text>
</g>
<!-- State -->
<g id="node4" class="node">
<title>State</title>
<path fill="#eceff1" stroke="#455a64" d="M338,-52C338,-52 226,-52 226,-52 220,-52 214,-46 214,-40 214,-40 214,-28 214,-28 214,-22 220,-16 226,-16 226,-16 338,-16 338,-16 344,-16 350,-22 350,-28 350,-28 350,-40 350,-40 350,-46 344,-52 338,-52"/>
<text xml:space="preserve" text-anchor="middle" x="282" y="-36.5" font-family="Arial" font-size="10.00">OpenVINOBackendState</text>
<text xml:space="preserve" text-anchor="middle" x="282" y="-24.5" font-family="Arial" font-size="10.00">ready/request_count/device</text>
</g>
<!-- Backend&#45;&gt;State -->
<g id="edge3" class="edge">
<title>Backend&#45;&gt;State</title>
<path fill="none" stroke="black" d="M346.25,-98.19C346.25,-98.19 346.25,-60.77 346.25,-60.77"/>
<polygon fill="black" stroke="black" points="348.7,-60.77 346.25,-53.77 343.8,-60.77 348.7,-60.77"/>
<text xml:space="preserve" text-anchor="middle" x="338.75" y="-71.95" font-family="Arial" font-size="9.00">state()</text>
</g>
<!-- Error -->
<g id="node5" class="node">
<title>Error</title>
<path fill="#eceff1" stroke="#455a64" d="M479.62,-52C479.62,-52 380.38,-52 380.38,-52 374.38,-52 368.38,-46 368.38,-40 368.38,-40 368.38,-28 368.38,-28 368.38,-22 374.38,-16 380.38,-16 380.38,-16 479.62,-16 479.62,-16 485.62,-16 491.62,-22 491.62,-28 491.62,-28 491.62,-40 491.62,-40 491.62,-46 485.62,-52 479.62,-52"/>
<text xml:space="preserve" text-anchor="middle" x="430" y="-30.5" font-family="Arial" font-size="10.00">OpenVINOBackendError</text>
</g>
<!-- Backend&#45;&gt;Error -->
<g id="edge4" class="edge">
<title>Backend&#45;&gt;Error</title>
<path fill="none" stroke="black" stroke-dasharray="5,2" d="M427.94,-98.19C427.94,-98.19 427.94,-60.77 427.94,-60.77"/>
<polygon fill="black" stroke="black" points="430.39,-60.77 427.94,-53.77 425.49,-60.77 430.39,-60.77"/>
<text xml:space="preserve" text-anchor="middle" x="444.38" y="-71.95" font-family="Arial" font-size="9.00">closed/error</text>
</g>
<!-- Registry -->
<g id="node7" class="node">
<title>Registry</title>
<path fill="#e8f5e9" stroke="#2e7d32" d="M741.5,-242.5C741.5,-242.5 674.5,-242.5 674.5,-242.5 668.5,-242.5 662.5,-236.5 662.5,-230.5 662.5,-230.5 662.5,-218.5 662.5,-218.5 662.5,-212.5 668.5,-206.5 674.5,-206.5 674.5,-206.5 741.5,-206.5 741.5,-206.5 747.5,-206.5 753.5,-212.5 753.5,-218.5 753.5,-218.5 753.5,-230.5 753.5,-230.5 753.5,-236.5 747.5,-242.5 741.5,-242.5"/>
<text xml:space="preserve" text-anchor="middle" x="708" y="-227" font-family="Arial" font-size="10.00">BackendRegistry</text>
<text xml:space="preserve" text-anchor="middle" x="708" y="-215" font-family="Arial" font-size="10.00">register openvino</text>
</g>
<!-- Backend&#45;&gt;Registry -->
<g id="edge6" class="edge">
<title>Backend&#45;&gt;Registry</title>
<path fill="none" stroke="black" d="M390.83,-135C390.83,-139.97 390.83,-144 390.83,-144 390.83,-144 683.38,-144 683.38,-144 683.38,-144 683.38,-197.72 683.38,-197.72"/>
<polygon fill="black" stroke="black" points="680.93,-197.72 683.38,-204.72 685.83,-197.72 680.93,-197.72"/>
<text xml:space="preserve" text-anchor="middle" x="547.38" y="-167.2" font-family="Arial" font-size="9.00">register</text>
</g>
<!-- FakeRuntime -->
<g id="node6" class="node">
<title>FakeRuntime</title>
<path fill="#e8f5e9" stroke="#2e7d32" d="M632.25,-242.5C632.25,-242.5 533.75,-242.5 533.75,-242.5 527.75,-242.5 521.75,-236.5 521.75,-230.5 521.75,-230.5 521.75,-218.5 521.75,-218.5 521.75,-212.5 527.75,-206.5 533.75,-206.5 533.75,-206.5 632.25,-206.5 632.25,-206.5 638.25,-206.5 644.25,-212.5 644.25,-218.5 644.25,-218.5 644.25,-230.5 644.25,-230.5 644.25,-236.5 638.25,-242.5 632.25,-242.5"/>
<text xml:space="preserve" text-anchor="middle" x="583" y="-227" font-family="Arial" font-size="10.00">FakeOpenVINORuntime</text>
<text xml:space="preserve" text-anchor="middle" x="583" y="-215" font-family="Arial" font-size="10.00">deterministic</text>
</g>
<!-- FakeRuntime&#45;&gt;Runtime -->
<g id="edge5" class="edge">
<title>FakeRuntime&#45;&gt;Runtime</title>
<path fill="none" stroke="black" stroke-dasharray="1,5" d="M578.31,-206.09C578.31,-201.57 578.31,-198 578.31,-198 578.31,-198 247.29,-198 247.29,-198 247.29,-198 247.29,-198.81 247.29,-198.81"/>
<polygon fill="black" stroke="black" points="244.84,-197.58 247.29,-204.58 249.74,-197.58 244.84,-197.58"/>
<text xml:space="preserve" text-anchor="middle" x="418" y="-303.45" font-family="Arial" font-size="9.00">test implementation</text>
</g>
<!-- Adapter -->
<g id="node8" class="node">
<title>Adapter</title>
<path fill="#e8f5e9" stroke="#2e7d32" d="M713.12,-134.5C713.12,-134.5 646.88,-134.5 646.88,-134.5 640.88,-134.5 634.88,-128.5 634.88,-122.5 634.88,-122.5 634.88,-110.5 634.88,-110.5 634.88,-104.5 640.88,-98.5 646.88,-98.5 646.88,-98.5 713.12,-98.5 713.12,-98.5 719.12,-98.5 725.12,-104.5 725.12,-110.5 725.12,-110.5 725.12,-122.5 725.12,-122.5 725.12,-128.5 719.12,-134.5 713.12,-134.5"/>
<text xml:space="preserve" text-anchor="middle" x="680" y="-119" font-family="Arial" font-size="10.00">InferenceAdapter</text>
<text xml:space="preserve" text-anchor="middle" x="680" y="-107" font-family="Arial" font-size="10.00">select openvino</text>
</g>
<!-- Registry&#45;&gt;Adapter -->
<g id="edge7" class="edge">
<title>Registry&#45;&gt;Adapter</title>
<path fill="none" stroke="black" d="M704.25,-206.18C704.25,-206.18 704.25,-143.42 704.25,-143.42"/>
<polygon fill="black" stroke="black" points="706.7,-143.42 704.25,-136.42 701.8,-143.42 706.7,-143.42"/>
<text xml:space="preserve" text-anchor="middle" x="717.12" y="-167.2" font-family="Arial" font-size="9.00">selected by model</text>
</g>
<!-- RealRuntime -->
<g id="node9" class="node">
<title>RealRuntime</title>
<g id="a_node9"><a xlink:href="42_openvino_runtime.svg" xlink:title="RealOpenVINORuntime\nimports openvino only here">
<path fill="#efebe9" stroke="#6d4c41" d="M137.5,-366C137.5,-366 28.5,-366 28.5,-366 22.5,-366 16.5,-360 16.5,-354 16.5,-354 16.5,-342 16.5,-342 16.5,-336 22.5,-330 28.5,-330 28.5,-330 137.5,-330 137.5,-330 143.5,-330 149.5,-336 149.5,-342 149.5,-342 149.5,-354 149.5,-354 149.5,-360 143.5,-366 137.5,-366"/>
<text xml:space="preserve" text-anchor="middle" x="83" y="-350.5" font-family="Arial" font-size="10.00">RealOpenVINORuntime</text>
<text xml:space="preserve" text-anchor="middle" x="83" y="-338.5" font-family="Arial" font-size="10.00">imports openvino only here</text>
</a>
</g>
</g>
<!-- RealRuntime&#45;&gt;Runtime -->
<g id="edge8" class="edge">
<title>RealRuntime&#45;&gt;Runtime</title>
<path fill="none" stroke="black" stroke-dasharray="1,5" d="M145.38,-329.59C145.38,-295.27 145.38,-225 145.38,-225 145.38,-225 165.12,-225 165.12,-225"/>
<polygon fill="black" stroke="black" points="165.12,-227.45 172.12,-225 165.12,-222.55 165.12,-227.45"/>
<text xml:space="preserve" text-anchor="middle" x="232.5" y="-303.45" font-family="Arial" font-size="9.00">implementation</text>
</g>
<!-- Core -->
<g id="node10" class="node">
<title>Core</title>
<path fill="#efebe9" stroke="#6d4c41" d="M121.38,-242.5C121.38,-242.5 44.62,-242.5 44.62,-242.5 38.62,-242.5 32.62,-236.5 32.62,-230.5 32.62,-230.5 32.62,-218.5 32.62,-218.5 32.62,-212.5 38.62,-206.5 44.62,-206.5 44.62,-206.5 121.38,-206.5 121.38,-206.5 127.38,-206.5 133.38,-212.5 133.38,-218.5 133.38,-218.5 133.38,-230.5 133.38,-230.5 133.38,-236.5 127.38,-242.5 121.38,-242.5"/>
<text xml:space="preserve" text-anchor="middle" x="83" y="-227" font-family="Arial" font-size="10.00">ov.Core</text>
<text xml:space="preserve" text-anchor="middle" x="83" y="-215" font-family="Arial" font-size="10.00">read/compile model</text>
</g>
<!-- RealRuntime&#45;&gt;Core -->
<g id="edge9" class="edge">
<title>RealRuntime&#45;&gt;Core</title>
<path fill="none" stroke="black" stroke-dasharray="5,2" d="M83,-329.51C83,-329.51 83,-251.23 83,-251.23"/>
<polygon fill="black" stroke="black" points="85.45,-251.23 83,-244.23 80.55,-251.23 85.45,-251.23"/>
<text xml:space="preserve" text-anchor="middle" x="109.25" y="-303.45" font-family="Arial" font-size="9.00">load/compile</text>
</g>
<!-- CompiledModel -->
<g id="node11" class="node">
<title>CompiledModel</title>
<path fill="#efebe9" stroke="#6d4c41" d="M129.25,-134.5C129.25,-134.5 36.75,-134.5 36.75,-134.5 30.75,-134.5 24.75,-128.5 24.75,-122.5 24.75,-122.5 24.75,-110.5 24.75,-110.5 24.75,-104.5 30.75,-98.5 36.75,-98.5 36.75,-98.5 129.25,-98.5 129.25,-98.5 135.25,-98.5 141.25,-104.5 141.25,-110.5 141.25,-110.5 141.25,-122.5 141.25,-122.5 141.25,-128.5 135.25,-134.5 129.25,-134.5"/>
<text xml:space="preserve" text-anchor="middle" x="83" y="-119" font-family="Arial" font-size="10.00">CompiledModel</text>
<text xml:space="preserve" text-anchor="middle" x="83" y="-107" font-family="Arial" font-size="10.00">cache by model/device</text>
</g>
<!-- Core&#45;&gt;CompiledModel -->
<g id="edge12" class="edge">
<title>Core&#45;&gt;CompiledModel</title>
<path fill="none" stroke="black" stroke-dasharray="5,2" d="M83,-206.18C83,-206.18 83,-143.42 83,-143.42"/>
<polygon fill="black" stroke="black" points="85.45,-143.42 83,-136.42 80.55,-143.42 85.45,-143.42"/>
</g>
<!-- Profile -->
<g id="node12" class="node">
<title>Profile</title>
<path fill="lightgrey" stroke="black" d="M719,-366C719,-366 689,-366 689,-366 683,-366 677,-360 677,-354 677,-354 677,-342 677,-342 677,-336 683,-330 689,-330 689,-330 719,-330 719,-330 725,-330 731,-336 731,-342 731,-342 731,-354 731,-354 731,-360 725,-366 719,-366"/>
<text xml:space="preserve" text-anchor="middle" x="704" y="-344.5" font-family="Arial" font-size="10.00">Profile</text>
</g>
<!-- Profile&#45;&gt;Config -->
<g id="edge10" class="edge">
<title>Profile&#45;&gt;Config</title>
<path fill="none" stroke="black" d="M676.55,-348C604.41,-348 415,-348 415,-348 415,-348 415,-251.5 415,-251.5"/>
<polygon fill="black" stroke="black" points="417.45,-251.5 415,-244.5 412.55,-251.5 417.45,-251.5"/>
<text xml:space="preserve" text-anchor="middle" x="635" y="-303.45" font-family="Arial" font-size="9.00">to_backend_config</text>
</g>
<!-- ProfileRegistry -->
<g id="node13" class="node">
<title>ProfileRegistry</title>
<path fill="lightgrey" stroke="black" d="M840.25,-242.5C840.25,-242.5 783.75,-242.5 783.75,-242.5 777.75,-242.5 771.75,-236.5 771.75,-230.5 771.75,-230.5 771.75,-218.5 771.75,-218.5 771.75,-212.5 777.75,-206.5 783.75,-206.5 783.75,-206.5 840.25,-206.5 840.25,-206.5 846.25,-206.5 852.25,-212.5 852.25,-218.5 852.25,-218.5 852.25,-230.5 852.25,-230.5 852.25,-236.5 846.25,-242.5 840.25,-242.5"/>
<text xml:space="preserve" text-anchor="middle" x="812" y="-221" font-family="Arial" font-size="10.00">ProfileRegistry</text>
</g>
<!-- Profile&#45;&gt;ProfileRegistry -->
<g id="edge11" class="edge">
<title>Profile&#45;&gt;ProfileRegistry</title>
<path fill="none" stroke="black" d="M731.25,-348C763.25,-348 812,-348 812,-348 812,-348 812,-251.5 812,-251.5"/>
<polygon fill="black" stroke="black" points="814.45,-251.5 812,-244.5 809.55,-251.5 814.45,-251.5"/>
<text xml:space="preserve" text-anchor="middle" x="827.38" y="-303.45" font-family="Arial" font-size="9.00">register</text>
</g>
<!-- Nav_Inference -->
<g id="node14" class="node">
<title>Nav_Inference</title>
<g id="a_node14"><a xlink:href="40_inference.svg" xlink:title="Inference">
<path fill="lightgrey" stroke="none" d="M814.25,-188.5C814.25,-188.5 781.75,-188.5 781.75,-188.5 775.75,-188.5 769.75,-182.5 769.75,-176.5 769.75,-176.5 769.75,-164.5 769.75,-164.5 769.75,-158.5 775.75,-152.5 781.75,-152.5 781.75,-152.5 814.25,-152.5 814.25,-152.5 820.25,-152.5 826.25,-158.5 826.25,-164.5 826.25,-164.5 826.25,-176.5 826.25,-176.5 826.25,-182.5 820.25,-188.5 814.25,-188.5"/>
<text xml:space="preserve" text-anchor="middle" x="798" y="-167" font-family="Arial" font-size="10.00">Inference</text>
</a>
</g>
</g>
<!-- Nav_Global -->
<g id="node15" class="node">
<title>Nav_Global</title>
<g id="a_node15"><a xlink:href="../00_global.svg" xlink:title="Global">
<path fill="lightgrey" stroke="none" d="M873,-188.5C873,-188.5 843,-188.5 843,-188.5 837,-188.5 831,-182.5 831,-176.5 831,-176.5 831,-164.5 831,-164.5 831,-158.5 837,-152.5 843,-152.5 843,-152.5 873,-152.5 873,-152.5 879,-152.5 885,-158.5 885,-164.5 885,-164.5 885,-176.5 885,-176.5 885,-182.5 879,-188.5 873,-188.5"/>
<text xml:space="preserve" text-anchor="middle" x="858" y="-167" font-family="Arial" font-size="10.00">Global</text>
</a>
</g>
</g>
<!-- Nav_Runtime -->
<g id="node16" class="node">
<title>Nav_Runtime</title>
<g id="a_node16"><a xlink:href="42_openvino_runtime.svg" xlink:title="Runtime réel">
<path fill="lightgrey" stroke="none" d="M949.75,-188.5C949.75,-188.5 902.25,-188.5 902.25,-188.5 896.25,-188.5 890.25,-182.5 890.25,-176.5 890.25,-176.5 890.25,-164.5 890.25,-164.5 890.25,-158.5 896.25,-152.5 902.25,-152.5 902.25,-152.5 949.75,-152.5 949.75,-152.5 955.75,-152.5 961.75,-158.5 961.75,-164.5 961.75,-164.5 961.75,-176.5 961.75,-176.5 961.75,-182.5 955.75,-188.5 949.75,-188.5"/>
<text xml:space="preserve" text-anchor="middle" x="926" y="-167" font-family="Arial" font-size="10.00">Runtime réel</text>
</a>
</g>
</g>
<!-- Nav_Profiles -->
<g id="node17" class="node">
<title>Nav_Profiles</title>
<g id="a_node17"><a xlink:href="43_openvino_profiles.svg" xlink:title="Profils modèles">
<path fill="lightgrey" stroke="none" d="M1038.75,-188.5C1038.75,-188.5 979.25,-188.5 979.25,-188.5 973.25,-188.5 967.25,-182.5 967.25,-176.5 967.25,-176.5 967.25,-164.5 967.25,-164.5 967.25,-158.5 973.25,-152.5 979.25,-152.5 979.25,-152.5 1038.75,-152.5 1038.75,-152.5 1044.75,-152.5 1050.75,-158.5 1050.75,-164.5 1050.75,-164.5 1050.75,-176.5 1050.75,-176.5 1050.75,-182.5 1044.75,-188.5 1038.75,-188.5"/>
<text xml:space="preserve" text-anchor="middle" x="1009" y="-167" font-family="Arial" font-size="10.00">Profils modèles</text>
</a>
</g>
</g>
<!-- Nav_Tests -->
<g id="node18" class="node">
<title>Nav_Tests</title>
<g id="a_node18"><a xlink:href="../tests/80_tests.svg" xlink:title="Tests">
<path fill="lightgrey" stroke="none" d="M1098,-188.5C1098,-188.5 1068,-188.5 1068,-188.5 1062,-188.5 1056,-182.5 1056,-176.5 1056,-176.5 1056,-164.5 1056,-164.5 1056,-158.5 1062,-152.5 1068,-152.5 1068,-152.5 1098,-152.5 1098,-152.5 1104,-152.5 1110,-158.5 1110,-164.5 1110,-164.5 1110,-176.5 1110,-176.5 1110,-182.5 1104,-188.5 1098,-188.5"/>
<text xml:space="preserve" text-anchor="middle" x="1083" y="-167" font-family="Arial" font-size="10.00">Tests</text>
</a>
</g>
</g>
</g>
</svg>
