<?xml version="1.0" encoding="UTF-8" standalone="no"?>
<!DOCTYPE svg PUBLIC "-//W3C//DTD SVG 1.1//EN"
 "http://www.w3.org/Graphics/SVG/1.1/DTD/svg11.dtd">
<!-- Generated by graphviz version 14.1.3 (20260303.0454)
 -->
<!-- Title: OpenVINOBackend Pages: 1 -->
<svg width="1271pt" height="537pt"
 viewBox="0.00 0.00 1271.00 537.00" xmlns="http://www.w3.org/2000/svg" xmlns:xlink="http://www.w3.org/1999/xlink">
<g id="graph0" class="graph" transform="scale(1 1) rotate(0) translate(4 533)">
<title>OpenVINOBackend</title>
<polygon fill="white" stroke="none" points="-4,4 -4,-533 1267,-533 1267,4 -4,4"/>
<g id="clust1" class="cluster">
<title>cluster_contract</title>
<polygon fill="#eceff1" stroke="#455a64" points="417,-8 417,-272 757,-272 757,-8 417,-8"/>
<text xml:space="preserve" text-anchor="middle" x="587" y="-257.55" font-family="Arial" font-size="11.00">Contrat Phase 2.6</text>
</g>
<g id="clust2" class="cluster">
<title>cluster_test</title>
<polygon fill="#e8f5e9" stroke="#2e7d32" points="8,-198.5 8,-374 409,-374 409,-198.5 8,-198.5"/>
<text xml:space="preserve" text-anchor="middle" x="208.5" y="-359.55" font-family="Arial" font-size="11.00">Tests sans runtime OpenVINO</text>
</g>
<g id="clust3" class="cluster">
<title>cluster_future</title>
<polygon fill="#efebe9" stroke="#6d4c41" points="765,-90.5 765,-374 915,-374 915,-90.5 765,-90.5"/>
<text xml:space="preserve" text-anchor="middle" x="840" y="-359.55" font-family="Arial" font-size="11.00">Runtime réel optionnel</text>
</g>
<!-- Config -->
<g id="node1" class="node">
<title>Config</title>
<path fill="#eceff1" stroke="#455a64" d="M579.38,-242.5C579.38,-242.5 436.62,-242.5 436.62,-242.5 430.62,-242.5 424.62,-236.5 424.62,-230.5 424.62,-230.5 424.62,-218.5 424.62,-218.5 424.62,-212.5 430.62,-206.5 436.62,-206.5 436.62,-206.5 579.38,-206.5 579.38,-206.5 585.38,-206.5 591.38,-212.5 591.38,-218.5 591.38,-218.5 591.38,-230.5 591.38,-230.5 591.38,-236.5 585.38,-242.5 579.38,-242.5"/>
<text xml:space="preserve" text-anchor="middle" x="508" y="-227" font-family="Arial" font-size="10.00">OpenVINOBackendConfig</text>
<text xml:space="preserve" text-anchor="middle" x="508" y="-215" font-family="Arial" font-size="10.00">model_path/device/backend_name</text>
</g>
<!-- Backend -->
<g id="node3" class="node">
<title>Backend</title>
<path fill="#eceff1" stroke="#455a64" d="M562.5,-134.5C562.5,-134.5 441.5,-134.5 441.5,-134.5 435.5,-134.5 429.5,-128.5 429.5,-122.5 429.5,-122.5 429.5,-110.5 429.5,-110.5 429.5,-104.5 435.5,-98.5 441.5,-98.5 441.5,-98.5 562.5,-98.5 562.5,-98.5 568.5,-98.5 574.5,-104.5 574.5,-110.5 574.5,-110.5 574.5,-122.5 574.5,-122.5 574.5,-128.5 568.5,-134.5 562.5,-134.5"/>
<text xml:space="preserve" text-anchor="middle" x="502" y="-119" font-family="Arial" font-size="10.00">OpenVINOBackend</text>
<text xml:space="preserve" text-anchor="middle" x="502" y="-107" font-family="Arial" font-size="10.00">InferenceBackend compatible</text>
</g>
<!-- Config&#45;&gt;Backend -->
<g id="edge1" class="edge">
<title>Config&#45;&gt;Backend</title>
<path fill="none" stroke="black" d="M502,-206.18C502,-206.18 502,-143.42 502,-143.42"/>
<polygon fill="black" stroke="black" points="504.45,-143.42 502,-136.42 499.55,-143.42 504.45,-143.42"/>
</g>
<!-- Runtime -->
<g id="node2" class="node">
<title>Runtime</title>
<path fill="#eceff1" stroke="#455a64" d="M736.88,-242.5C736.88,-242.5 621.12,-242.5 621.12,-242.5 615.12,-242.5 609.12,-236.5 609.12,-230.5 609.12,-230.5 609.12,-218.5 609.12,-218.5 609.12,-212.5 615.12,-206.5 621.12,-206.5 621.12,-206.5 736.88,-206.5 736.88,-206.5 742.88,-206.5 748.88,-212.5 748.88,-218.5 748.88,-218.5 748.88,-230.5 748.88,-230.5 748.88,-236.5 742.88,-242.5 736.88,-242.5"/>
<text xml:space="preserve" text-anchor="middle" x="679" y="-227" font-family="Arial" font-size="10.00">OpenVINORuntime Protocol</text>
<text xml:space="preserve" text-anchor="middle" x="679" y="-215" font-family="Arial" font-size="10.00">infer(request, config)</text>
</g>
<!-- Runtime&#45;&gt;Backend -->
<g id="edge2" class="edge">
<title>Runtime&#45;&gt;Backend</title>
<path fill="none" stroke="black" d="M658.38,-206.35C658.38,-177.16 658.38,-123 658.38,-123 658.38,-123 583.21,-123 583.21,-123"/>
<polygon fill="black" stroke="black" points="583.21,-120.55 576.21,-123 583.21,-125.45 583.21,-120.55"/>
<text xml:space="preserve" text-anchor="middle" x="616.12" y="-167.2" font-family="Arial" font-size="9.00">injected</text>
</g>
<!-- State -->
<g id="node4" class="node">
<title>State</title>
<path fill="#eceff1" stroke="#455a64" d="M554,-52C554,-52 442,-52 442,-52 436,-52 430,-46 430,-40 430,-40 430,-28 430,-28 430,-22 436,-16 442,-16 442,-16 554,-16 554,-16 560,-16 566,-22 566,-28 566,-28 566,-40 566,-40 566,-46 560,-52 554,-52"/>
<text xml:space="preserve" text-anchor="middle" x="498" y="-36.5" font-family="Arial" font-size="10.00">OpenVINOBackendState</text>
<text xml:space="preserve" text-anchor="middle" x="498" y="-24.5" font-family="Arial" font-size="10.00">ready/request_count/device</text>
</g>
<!-- Backend&#45;&gt;State -->
<g id="edge3" class="edge">
<title>Backend&#45;&gt;State</title>
<path fill="none" stroke="black" d="M498,-98.19C498,-98.19 498,-60.77 498,-60.77"/>
<polygon fill="black" stroke="black" points="500.45,-60.77 498,-53.77 495.55,-60.77 500.45,-60.77"/>
<text xml:space="preserve" text-anchor="middle" x="512.75" y="-71.95" font-family="Arial" font-size="9.00">state()</text>
</g>
<!-- Error -->
<g id="node5" class="node">
<title>Error</title>
<path fill="#eceff1" stroke="#455a64" d="M695.62,-52C695.62,-52 596.38,-52 596.38,-52 590.38,-52 584.38,-46 584.38,-40 584.38,-40 584.38,-28 584.38,-28 584.38,-22 590.38,-16 596.38,-16 596.38,-16 695.62,-16 695.62,-16 701.62,-16 707.62,-22 707.62,-28 707.62,-28 707.62,-40 707.62,-40 707.62,-46 701.62,-52 695.62,-52"/>
<text xml:space="preserve" text-anchor="middle" x="646" y="-30.5" font-family="Arial" font-size="10.00">OpenVINOBackendError</text>
</g>
<!-- Backend&#45;&gt;Error -->
<g id="edge4" class="edge">
<title>Backend&#45;&gt;Error</title>
<path fill="none" stroke="black" stroke-dasharray="5,2" d="M574.83,-111C582.67,-111 587.88,-111 587.88,-111 587.88,-111 587.88,-60.76 587.88,-60.76"/>
<polygon fill="black" stroke="black" points="590.33,-60.76 587.88,-53.76 585.43,-60.76 590.33,-60.76"/>
<text xml:space="preserve" text-anchor="middle" x="622.38" y="-71.95" font-family="Arial" font-size="9.00">closed/error</text>
</g>
<!-- Registry -->
<g id="node7" class="node">
<title>Registry</title>
<path fill="#e8f5e9" stroke="#2e7d32" d="M95.5,-344.5C95.5,-344.5 28.5,-344.5 28.5,-344.5 22.5,-344.5 16.5,-338.5 16.5,-332.5 16.5,-332.5 16.5,-320.5 16.5,-320.5 16.5,-314.5 22.5,-308.5 28.5,-308.5 28.5,-308.5 95.5,-308.5 95.5,-308.5 101.5,-308.5 107.5,-314.5 107.5,-320.5 107.5,-320.5 107.5,-332.5 107.5,-332.5 107.5,-338.5 101.5,-344.5 95.5,-344.5"/>
<text xml:space="preserve" text-anchor="middle" x="62" y="-329" font-family="Arial" font-size="10.00">BackendRegistry</text>
<text xml:space="preserve" text-anchor="middle" x="62" y="-317" font-family="Arial" font-size="10.00">register openvino</text>
</g>
<!-- Backend&#45;&gt;Registry -->
<g id="edge7" class="edge">
<title>Backend&#45;&gt;Registry</title>
<path fill="none" stroke="black" d="M429.12,-111C300.54,-111 46.83,-111 46.83,-111 46.83,-111 46.83,-299.61 46.83,-299.61"/>
<polygon fill="black" stroke="black" points="44.38,-299.61 46.83,-306.61 49.28,-299.61 44.38,-299.61"/>
<text xml:space="preserve" text-anchor="middle" x="109.38" y="-221.2" font-family="Arial" font-size="9.00">register</text>
</g>
<!-- FakeRuntime -->
<g id="node6" class="node">
<title>FakeRuntime</title>
<path fill="#e8f5e9" stroke="#2e7d32" d="M389.25,-344.5C389.25,-344.5 290.75,-344.5 290.75,-344.5 284.75,-344.5 278.75,-338.5 278.75,-332.5 278.75,-332.5 278.75,-320.5 278.75,-320.5 278.75,-314.5 284.75,-308.5 290.75,-308.5 290.75,-308.5 389.25,-308.5 389.25,-308.5 395.25,-308.5 401.25,-314.5 401.25,-320.5 401.25,-320.5 401.25,-332.5 401.25,-332.5 401.25,-338.5 395.25,-344.5 389.25,-344.5"/>
<text xml:space="preserve" text-anchor="middle" x="340" y="-329" font-family="Arial" font-size="10.00">FakeOpenVINORuntime</text>
<text xml:space="preserve" text-anchor="middle" x="340" y="-317" font-family="Arial" font-size="10.00">deterministic</text>
</g>
<!-- FakeRuntime&#45;&gt;Runtime -->
<g id="edge5" class="edge">
<title>FakeRuntime&#45;&gt;Runtime</title>
<path fill="none" stroke="black" stroke-dasharray="1,5" d="M401.39,-327C499.08,-327 679,-327 679,-327 679,-327 679,-251.34 679,-251.34"/>
<polygon fill="black" stroke="black" points="681.45,-251.34 679,-244.34 676.55,-251.34 681.45,-251.34"/>
<text xml:space="preserve" text-anchor="middle" x="583.75" y="-281.95" font-family="Arial" font-size="9.00">test implementation</text>
</g>
<!-- Adapter -->
<g id="node8" class="node">
<title>Adapter</title>
<path fill="#e8f5e9" stroke="#2e7d32" d="M309.12,-242.5C309.12,-242.5 242.88,-242.5 242.88,-242.5 236.88,-242.5 230.88,-236.5 230.88,-230.5 230.88,-230.5 230.88,-218.5 230.88,-218.5 230.88,-212.5 236.88,-206.5 242.88,-206.5 242.88,-206.5 309.12,-206.5 309.12,-206.5 315.12,-206.5 321.12,-212.5 321.12,-218.5 321.12,-218.5 321.12,-230.5 321.12,-230.5 321.12,-236.5 315.12,-242.5 309.12,-242.5"/>
<text xml:space="preserve" text-anchor="middle" x="276" y="-227" font-family="Arial" font-size="10.00">InferenceAdapter</text>
<text xml:space="preserve" text-anchor="middle" x="276" y="-215" font-family="Arial" font-size="10.00">select openvino</text>
</g>
<!-- Registry&#45;&gt;Adapter -->
<g id="edge8" class="edge">
<title>Registry&#45;&gt;Adapter</title>
<path fill="none" stroke="black" d="M77.17,-308.35C77.17,-279.16 77.17,-225 77.17,-225 77.17,-225 221.87,-225 221.87,-225"/>
<polygon fill="black" stroke="black" points="221.87,-227.45 228.87,-225 221.87,-222.55 221.87,-227.45"/>
<text xml:space="preserve" text-anchor="middle" x="288.12" y="-281.95" font-family="Arial" font-size="9.00">selected by model</text>
</g>
<!-- Factory -->
<g id="node9" class="node">
<title>Factory</title>
<g id="a_node9"><a xlink:href="43_openvino_profiles.svg" xlink:title="OpenVINOBackendFactory\nbuild/register">
<path fill="#e8f5e9" stroke="#2e7d32" d="M248.62,-344.5C248.62,-344.5 137.38,-344.5 137.38,-344.5 131.38,-344.5 125.38,-338.5 125.38,-332.5 125.38,-332.5 125.38,-320.5 125.38,-320.5 125.38,-314.5 131.38,-308.5 137.38,-308.5 137.38,-308.5 248.62,-308.5 248.62,-308.5 254.62,-308.5 260.62,-314.5 260.62,-320.5 260.62,-320.5 260.62,-332.5 260.62,-332.5 260.62,-338.5 254.62,-344.5 248.62,-344.5"/>
<text xml:space="preserve" text-anchor="middle" x="193" y="-329" font-family="Arial" font-size="10.00">OpenVINOBackendFactory</text>
<text xml:space="preserve" text-anchor="middle" x="193" y="-317" font-family="Arial" font-size="10.00">build/register</text>
</a>
</g>
</g>
<!-- Factory&#45;&gt;Config -->
<g id="edge13" class="edge">
<title>Factory&#45;&gt;Config</title>
<path fill="none" stroke="black" d="M245.75,-308.27C245.75,-293.8 245.75,-276 245.75,-276 245.75,-276 508,-276 508,-276 508,-276 508,-251.32 508,-251.32"/>
<polygon fill="black" stroke="black" points="510.45,-251.32 508,-244.32 505.55,-251.32 510.45,-251.32"/>
<text xml:space="preserve" text-anchor="middle" x="450" y="-281.95" font-family="Arial" font-size="9.00">to_backend_config</text>
</g>
<!-- Factory&#45;&gt;Backend -->
<g id="edge6" class="edge">
<title>Factory&#45;&gt;Backend</title>
<path fill="none" stroke="black" d="M178.12,-308.08C178.12,-257.99 178.12,-123 178.12,-123 178.12,-123 420.8,-123 420.8,-123"/>
<polygon fill="black" stroke="black" points="420.8,-125.45 427.8,-123 420.8,-120.55 420.8,-125.45"/>
<text xml:space="preserve" text-anchor="middle" x="203.12" y="-221.2" font-family="Arial" font-size="9.00">build</text>
</g>
<!-- RealRuntime -->
<g id="node10" class="node">
<title>RealRuntime</title>
<g id="a_node10"><a xlink:href="42_openvino_runtime.svg" xlink:title="RealOpenVINORuntime\nimports openvino only here">
<path fill="#efebe9" stroke="#6d4c41" d="M894.5,-344.5C894.5,-344.5 785.5,-344.5 785.5,-344.5 779.5,-344.5 773.5,-338.5 773.5,-332.5 773.5,-332.5 773.5,-320.5 773.5,-320.5 773.5,-314.5 779.5,-308.5 785.5,-308.5 785.5,-308.5 894.5,-308.5 894.5,-308.5 900.5,-308.5 906.5,-314.5 906.5,-320.5 906.5,-320.5 906.5,-332.5 906.5,-332.5 906.5,-338.5 900.5,-344.5 894.5,-344.5"/>
<text xml:space="preserve" text-anchor="middle" x="840" y="-329" font-family="Arial" font-size="10.00">RealOpenVINORuntime</text>
<text xml:space="preserve" text-anchor="middle" x="840" y="-317" font-family="Arial" font-size="10.00">imports openvino only here</text>
</a>
</g>
</g>
<!-- RealRuntime&#45;&gt;Runtime -->
<g id="edge9" class="edge">
<title>RealRuntime&#45;&gt;Runtime</title>
<path fill="none" stroke="black" stroke-dasharray="1,5" d="M777.62,-308.35C777.62,-279.16 777.62,-225 777.62,-225 777.62,-225 757.88,-225 757.88,-225"/>
<polygon fill="black" stroke="black" points="757.88,-222.55 750.88,-225 757.88,-227.45 757.88,-222.55"/>
<text xml:space="preserve" text-anchor="middle" x="747.5" y="-281.95" font-family="Arial" font-size="9.00">implementation</text>
</g>
<!-- Core -->
<g id="node11" class="node">
<title>Core</title>
<path fill="#efebe9" stroke="#6d4c41" d="M878.38,-242.5C878.38,-242.5 801.62,-242.5 801.62,-242.5 795.62,-242.5 789.62,-236.5 789.62,-230.5 789.62,-230.5 789.62,-218.5 789.62,-218.5 789.62,-212.5 795.62,-206.5 801.62,-206.5 801.62,-206.5 878.38,-206.5 878.38,-206.5 884.38,-206.5 890.38,-212.5 890.38,-218.5 890.38,-218.5 890.38,-230.5 890.38,-230.5 890.38,-236.5 884.38,-242.5 878.38,-242.5"/>
<text xml:space="preserve" text-anchor="middle" x="840" y="-227" font-family="Arial" font-size="10.00">ov.Core</text>
<text xml:space="preserve" text-anchor="middle" x="840" y="-215" font-family="Arial" font-size="10.00">read/compile model</text>
</g>
<!-- RealRuntime&#45;&gt;Core -->
<g id="edge10" class="edge">
<title>RealRuntime&#45;&gt;Core</title>
<path fill="none" stroke="black" stroke-dasharray="5,2" d="M840,-308.26C840,-308.26 840,-251.44 840,-251.44"/>
<polygon fill="black" stroke="black" points="842.45,-251.44 840,-244.44 837.55,-251.44 842.45,-251.44"/>
<text xml:space="preserve" text-anchor="middle" x="866.25" y="-281.95" font-family="Arial" font-size="9.00">load/compile</text>
</g>
<!-- CompiledModel -->
<g id="node12" class="node">
<title>CompiledModel</title>
<path fill="#efebe9" stroke="#6d4c41" d="M886.25,-134.5C886.25,-134.5 793.75,-134.5 793.75,-134.5 787.75,-134.5 781.75,-128.5 781.75,-122.5 781.75,-122.5 781.75,-110.5 781.75,-110.5 781.75,-104.5 787.75,-98.5 793.75,-98.5 793.75,-98.5 886.25,-98.5 886.25,-98.5 892.25,-98.5 898.25,-104.5 898.25,-110.5 898.25,-110.5 898.25,-122.5 898.25,-122.5 898.25,-128.5 892.25,-134.5 886.25,-134.5"/>
<text xml:space="preserve" text-anchor="middle" x="840" y="-119" font-family="Arial" font-size="10.00">CompiledModel</text>
<text xml:space="preserve" text-anchor="middle" x="840" y="-107" font-family="Arial" font-size="10.00">cache by model/device</text>
</g>
<!-- Core&#45;&gt;CompiledModel -->
<g id="edge14" class="edge">
<title>Core&#45;&gt;CompiledModel</title>
<path fill="none" stroke="black" stroke-dasharray="5,2" d="M840,-206.18C840,-206.18 840,-143.42 840,-143.42"/>
<polygon fill="black" stroke="black" points="842.45,-143.42 840,-136.42 837.55,-143.42 842.45,-143.42"/>
</g>
<!-- Profile -->
<g id="node13" class="node">
<title>Profile</title>
<path fill="lightgrey" stroke="black" d="M208,-529C208,-529 178,-529 178,-529 172,-529 166,-523 166,-517 166,-517 166,-505 166,-505 166,-499 172,-493 178,-493 178,-493 208,-493 208,-493 214,-493 220,-499 220,-505 220,-505 220,-517 220,-517 220,-523 214,-529 208,-529"/>
<text xml:space="preserve" text-anchor="middle" x="193" y="-507.5" font-family="Arial" font-size="10.00">Profile</text>
</g>
<!-- ProfileRegistry -->
<g id="node14" class="node">
<title>ProfileRegistry</title>
<path fill="lightgrey" stroke="black" d="M221.25,-446.5C221.25,-446.5 164.75,-446.5 164.75,-446.5 158.75,-446.5 152.75,-440.5 152.75,-434.5 152.75,-434.5 152.75,-422.5 152.75,-422.5 152.75,-416.5 158.75,-410.5 164.75,-410.5 164.75,-410.5 221.25,-410.5 221.25,-410.5 227.25,-410.5 233.25,-416.5 233.25,-422.5 233.25,-422.5 233.25,-434.5 233.25,-434.5 233.25,-440.5 227.25,-446.5 221.25,-446.5"/>
<text xml:space="preserve" text-anchor="middle" x="193" y="-425" font-family="Arial" font-size="10.00">ProfileRegistry</text>
</g>
<!-- Profile&#45;&gt;ProfileRegistry -->
<g id="edge11" class="edge">
<title>Profile&#45;&gt;ProfileRegistry</title>
<path fill="none" stroke="black" d="M193,-492.69C193,-492.69 193,-455.27 193,-455.27"/>
<polygon fill="black" stroke="black" points="195.45,-455.27 193,-448.27 190.55,-455.27 195.45,-455.27"/>
<text xml:space="preserve" text-anchor="middle" x="208.38" y="-466.45" font-family="Arial" font-size="9.00">register</text>
</g>
<!-- ProfileRegistry&#45;&gt;Factory -->
<g id="edge12" class="edge">
<title>ProfileRegistry&#45;&gt;Factory</title>
<path fill="none" stroke="black" d="M193,-410.26C193,-410.26 193,-353.44 193,-353.44"/>
<polygon fill="black" stroke="black" points="195.45,-353.44 193,-346.44 190.55,-353.44 195.45,-353.44"/>
<text xml:space="preserve" text-anchor="middle" x="218.88" y="-383.95" font-family="Arial" font-size="9.00">select profile</text>
</g>
<!-- Nav_Inference -->
<g id="node15" class="node">
<title>Nav_Inference</title>
<g id="a_node15"><a xlink:href="40_inference.svg" xlink:title="Inference">
<path fill="lightgrey" stroke="none" d="M967.25,-188.5C967.25,-188.5 934.75,-188.5 934.75,-188.5 928.75,-188.5 922.75,-182.5 922.75,-176.5 922.75,-176.5 922.75,-164.5 922.75,-164.5 922.75,-158.5 928.75,-152.5 934.75,-152.5 934.75,-152.5 967.25,-152.5 967.25,-152.5 973.25,-152.5 979.25,-158.5 979.25,-164.5 979.25,-164.5 979.25,-176.5 979.25,-176.5 979.25,-182.5 973.25,-188.5 967.25,-188.5"/>
<text xml:space="preserve" text-anchor="middle" x="951" y="-167" font-family="Arial" font-size="10.00">Inference</text>
</a>
</g>
</g>
<!-- Nav_Global -->
<g id="node16" class="node">
<title>Nav_Global</title>
<g id="a_node16"><a xlink:href="../00_global.svg" xlink:title="Global">
<path fill="lightgrey" stroke="none" d="M1026,-188.5C1026,-188.5 996,-188.5 996,-188.5 990,-188.5 984,-182.5 984,-176.5 984,-176.5 984,-164.5 984,-164.5 984,-158.5 990,-152.5 996,-152.5 996,-152.5 1026,-152.5 1026,-152.5 1032,-152.5 1038,-158.5 1038,-164.5 1038,-164.5 1038,-176.5 1038,-176.5 1038,-182.5 1032,-188.5 1026,-188.5"/>
<text xml:space="preserve" text-anchor="middle" x="1011" y="-167" font-family="Arial" font-size="10.00">Global</text>
</a>
</g>
</g>
<!-- Nav_Runtime -->
<g id="node17" class="node">
<title>Nav_Runtime</title>
<g id="a_node17"><a xlink:href="42_openvino_runtime.svg" xlink:title="Runtime réel">
<path fill="lightgrey" stroke="none" d="M1102.75,-188.5C1102.75,-188.5 1055.25,-188.5 1055.25,-188.5 1049.25,-188.5 1043.25,-182.5 1043.25,-176.5 1043.25,-176.5 1043.25,-164.5 1043.25,-164.5 1043.25,-158.5 1049.25,-152.5 1055.25,-152.5 1055.25,-152.5 1102.75,-152.5 1102.75,-152.5 1108.75,-152.5 1114.75,-158.5 1114.75,-164.5 1114.75,-164.5 1114.75,-176.5 1114.75,-176.5 1114.75,-182.5 1108.75,-188.5 1102.75,-188.5"/>
<text xml:space="preserve" text-anchor="middle" x="1079" y="-167" font-family="Arial" font-size="10.00">Runtime réel</text>
</a>
</g>
</g>
<!-- Nav_Profiles -->
<g id="node18" class="node">
<title>Nav_Profiles</title>
<g id="a_node18"><a xlink:href="43_openvino_profiles.svg" xlink:title="Profils modèles">
<path fill="lightgrey" stroke="none" d="M1191.75,-188.5C1191.75,-188.5 1132.25,-188.5 1132.25,-188.5 1126.25,-188.5 1120.25,-182.5 1120.25,-176.5 1120.25,-176.5 1120.25,-164.5 1120.25,-164.5 1120.25,-158.5 1126.25,-152.5 1132.25,-152.5 1132.25,-152.5 1191.75,-152.5 1191.75,-152.5 1197.75,-152.5 1203.75,-158.5 1203.75,-164.5 1203.75,-164.5 1203.75,-176.5 1203.75,-176.5 1203.75,-182.5 1197.75,-188.5 1191.75,-188.5"/>
<text xml:space="preserve" text-anchor="middle" x="1162" y="-167" font-family="Arial" font-size="10.00">Profils modèles</text>
</a>
</g>
</g>
<!-- Nav_Tests -->
<g id="node19" class="node">
<title>Nav_Tests</title>
<g id="a_node19"><a xlink:href="../tests/80_tests.svg" xlink:title="Tests">
<path fill="lightgrey" stroke="none" d="M1251,-188.5C1251,-188.5 1221,-188.5 1221,-188.5 1215,-188.5 1209,-182.5 1209,-176.5 1209,-176.5 1209,-164.5 1209,-164.5 1209,-158.5 1215,-152.5 1221,-152.5 1221,-152.5 1251,-152.5 1251,-152.5 1257,-152.5 1263,-158.5 1263,-164.5 1263,-164.5 1263,-176.5 1263,-176.5 1263,-182.5 1257,-188.5 1251,-188.5"/>
<text xml:space="preserve" text-anchor="middle" x="1236" y="-167" font-family="Arial" font-size="10.00">Tests</text>
</a>
</g>
</g>
</g>
</svg>
