<?xml version="1.0" encoding="UTF-8" standalone="no"?>
<!DOCTYPE svg PUBLIC "-//W3C//DTD SVG 1.1//EN"
 "http://www.w3.org/Graphics/SVG/1.1/DTD/svg11.dtd">
<!-- Generated by graphviz version 14.1.3 (20260303.0454)
 -->
<!-- Title: OpenVINOBackend Pages: 1 -->
<svg width="940pt" height="433pt"
 viewBox="0.00 0.00 940.00 433.00" xmlns="http://www.w3.org/2000/svg" xmlns:xlink="http://www.w3.org/1999/xlink">
<g id="graph0" class="graph" transform="scale(1 1) rotate(0) translate(4 429)">
<title>OpenVINOBackend</title>
<polygon fill="white" stroke="none" points="-4,4 -4,-429 936,-429 936,4 -4,4"/>
<g id="clust1" class="cluster">
<title>cluster_contract</title>
<polygon fill="#eceff1" stroke="#455a64" points="264,-8 264,-293.5 604,-293.5 604,-8 264,-8"/>
<text xml:space="preserve" text-anchor="middle" x="434" y="-279.05" font-family="Arial" font-size="11.00">Contrat Phase 2.6</text>
</g>
<g id="clust2" class="cluster">
<title>cluster_test</title>
<polygon fill="#e8f5e9" stroke="#2e7d32" points="8,-90.5 8,-293.5 256,-293.5 256,-90.5 8,-90.5"/>
<text xml:space="preserve" text-anchor="middle" x="132" y="-279.05" font-family="Arial" font-size="11.00">Tests sans runtime OpenVINO</text>
</g>
<g id="clust3" class="cluster">
<title>cluster_future</title>
<polygon fill="#efebe9" stroke="#6d4c41" points="612,-90.5 612,-417 750,-417 750,-90.5 612,-90.5"/>
<text xml:space="preserve" text-anchor="middle" x="681" y="-402.55" font-family="Arial" font-size="11.00">Intégration future</text>
</g>
<!-- Config -->
<g id="node1" class="node">
<title>Config</title>
<path fill="#eceff1" stroke="#455a64" d="M426.38,-242.5C426.38,-242.5 283.62,-242.5 283.62,-242.5 277.62,-242.5 271.62,-236.5 271.62,-230.5 271.62,-230.5 271.62,-218.5 271.62,-218.5 271.62,-212.5 277.62,-206.5 283.62,-206.5 283.62,-206.5 426.38,-206.5 426.38,-206.5 432.38,-206.5 438.38,-212.5 438.38,-218.5 438.38,-218.5 438.38,-230.5 438.38,-230.5 438.38,-236.5 432.38,-242.5 426.38,-242.5"/>
<text xml:space="preserve" text-anchor="middle" x="355" y="-227" font-family="Arial" font-size="10.00">OpenVINOBackendConfig</text>
<text xml:space="preserve" text-anchor="middle" x="355" y="-215" font-family="Arial" font-size="10.00">model_path/device/backend_name</text>
</g>
<!-- Backend -->
<g id="node3" class="node">
<title>Backend</title>
<path fill="#eceff1" stroke="#455a64" d="M415.5,-134.5C415.5,-134.5 294.5,-134.5 294.5,-134.5 288.5,-134.5 282.5,-128.5 282.5,-122.5 282.5,-122.5 282.5,-110.5 282.5,-110.5 282.5,-104.5 288.5,-98.5 294.5,-98.5 294.5,-98.5 415.5,-98.5 415.5,-98.5 421.5,-98.5 427.5,-104.5 427.5,-110.5 427.5,-110.5 427.5,-122.5 427.5,-122.5 427.5,-128.5 421.5,-134.5 415.5,-134.5"/>
<text xml:space="preserve" text-anchor="middle" x="355" y="-119" font-family="Arial" font-size="10.00">OpenVINOBackend</text>
<text xml:space="preserve" text-anchor="middle" x="355" y="-107" font-family="Arial" font-size="10.00">InferenceBackend compatible</text>
</g>
<!-- Config&#45;&gt;Backend -->
<g id="edge1" class="edge">
<title>Config&#45;&gt;Backend</title>
<path fill="none" stroke="black" d="M355,-206.18C355,-206.18 355,-143.42 355,-143.42"/>
<polygon fill="black" stroke="black" points="357.45,-143.42 355,-136.42 352.55,-143.42 357.45,-143.42"/>
</g>
<!-- Runtime -->
<g id="node2" class="node">
<title>Runtime</title>
<path fill="#eceff1" stroke="#455a64" d="M583.88,-242.5C583.88,-242.5 468.12,-242.5 468.12,-242.5 462.12,-242.5 456.12,-236.5 456.12,-230.5 456.12,-230.5 456.12,-218.5 456.12,-218.5 456.12,-212.5 462.12,-206.5 468.12,-206.5 468.12,-206.5 583.88,-206.5 583.88,-206.5 589.88,-206.5 595.88,-212.5 595.88,-218.5 595.88,-218.5 595.88,-230.5 595.88,-230.5 595.88,-236.5 589.88,-242.5 583.88,-242.5"/>
<text xml:space="preserve" text-anchor="middle" x="526" y="-227" font-family="Arial" font-size="10.00">OpenVINORuntime Protocol</text>
<text xml:space="preserve" text-anchor="middle" x="526" y="-215" font-family="Arial" font-size="10.00">infer(request, config)</text>
</g>
<!-- Runtime&#45;&gt;Backend -->
<g id="edge2" class="edge">
<title>Runtime&#45;&gt;Backend</title>
<path fill="none" stroke="black" d="M523.12,-206.26C523.12,-175.59 523.12,-117 523.12,-117 523.12,-117 436.28,-117 436.28,-117"/>
<polygon fill="black" stroke="black" points="436.28,-114.55 429.28,-117 436.28,-119.45 436.28,-114.55"/>
<text xml:space="preserve" text-anchor="middle" x="468.12" y="-167.2" font-family="Arial" font-size="9.00">injected</text>
</g>
<!-- State -->
<g id="node4" class="node">
<title>State</title>
<path fill="#eceff1" stroke="#455a64" d="M403,-52C403,-52 291,-52 291,-52 285,-52 279,-46 279,-40 279,-40 279,-28 279,-28 279,-22 285,-16 291,-16 291,-16 403,-16 403,-16 409,-16 415,-22 415,-28 415,-28 415,-40 415,-40 415,-46 409,-52 403,-52"/>
<text xml:space="preserve" text-anchor="middle" x="347" y="-36.5" font-family="Arial" font-size="10.00">OpenVINOBackendState</text>
<text xml:space="preserve" text-anchor="middle" x="347" y="-24.5" font-family="Arial" font-size="10.00">ready/request_count/device</text>
</g>
<!-- Backend&#45;&gt;State -->
<g id="edge3" class="edge">
<title>Backend&#45;&gt;State</title>
<path fill="none" stroke="black" d="M348.75,-98.19C348.75,-98.19 348.75,-60.77 348.75,-60.77"/>
<polygon fill="black" stroke="black" points="351.2,-60.77 348.75,-53.77 346.3,-60.77 351.2,-60.77"/>
<text xml:space="preserve" text-anchor="middle" x="363.75" y="-71.95" font-family="Arial" font-size="9.00">state()</text>
</g>
<!-- Error -->
<g id="node5" class="node">
<title>Error</title>
<path fill="#eceff1" stroke="#455a64" d="M544.62,-52C544.62,-52 445.38,-52 445.38,-52 439.38,-52 433.38,-46 433.38,-40 433.38,-40 433.38,-28 433.38,-28 433.38,-22 439.38,-16 445.38,-16 445.38,-16 544.62,-16 544.62,-16 550.62,-16 556.62,-22 556.62,-28 556.62,-28 556.62,-40 556.62,-40 556.62,-46 550.62,-52 544.62,-52"/>
<text xml:space="preserve" text-anchor="middle" x="495" y="-30.5" font-family="Arial" font-size="10.00">OpenVINOBackendError</text>
</g>
<!-- Backend&#45;&gt;Error -->
<g id="edge4" class="edge">
<title>Backend&#45;&gt;Error</title>
<path fill="none" stroke="black" stroke-dasharray="5,2" d="M421.25,-98.19C421.25,-73.89 421.25,-34 421.25,-34 421.25,-34 424.59,-34 424.59,-34"/>
<polygon fill="black" stroke="black" points="424.59,-36.45 431.59,-34 424.59,-31.55 424.59,-36.45"/>
<text xml:space="preserve" text-anchor="middle" x="473.38" y="-71.95" font-family="Arial" font-size="9.00">closed/error</text>
</g>
<!-- Registry -->
<g id="node7" class="node">
<title>Registry</title>
<path fill="#e8f5e9" stroke="#2e7d32" d="M235.5,-242.5C235.5,-242.5 168.5,-242.5 168.5,-242.5 162.5,-242.5 156.5,-236.5 156.5,-230.5 156.5,-230.5 156.5,-218.5 156.5,-218.5 156.5,-212.5 162.5,-206.5 168.5,-206.5 168.5,-206.5 235.5,-206.5 235.5,-206.5 241.5,-206.5 247.5,-212.5 247.5,-218.5 247.5,-218.5 247.5,-230.5 247.5,-230.5 247.5,-236.5 241.5,-242.5 235.5,-242.5"/>
<text xml:space="preserve" text-anchor="middle" x="202" y="-227" font-family="Arial" font-size="10.00">BackendRegistry</text>
<text xml:space="preserve" text-anchor="middle" x="202" y="-215" font-family="Arial" font-size="10.00">register openvino</text>
</g>
<!-- Backend&#45;&gt;Registry -->
<g id="edge6" class="edge">
<title>Backend&#45;&gt;Registry</title>
<path fill="none" stroke="black" d="M282.11,-117C256.19,-117 233.31,-117 233.31,-117 233.31,-117 233.31,-197.75 233.31,-197.75"/>
<polygon fill="black" stroke="black" points="230.86,-197.75 233.31,-204.75 235.76,-197.75 230.86,-197.75"/>
<text xml:space="preserve" text-anchor="middle" x="309.38" y="-167.2" font-family="Arial" font-size="9.00">register</text>
</g>
<!-- FakeRuntime -->
<g id="node6" class="node">
<title>FakeRuntime</title>
<path fill="#e8f5e9" stroke="#2e7d32" d="M126.25,-242.5C126.25,-242.5 27.75,-242.5 27.75,-242.5 21.75,-242.5 15.75,-236.5 15.75,-230.5 15.75,-230.5 15.75,-218.5 15.75,-218.5 15.75,-212.5 21.75,-206.5 27.75,-206.5 27.75,-206.5 126.25,-206.5 126.25,-206.5 132.25,-206.5 138.25,-212.5 138.25,-218.5 138.25,-218.5 138.25,-230.5 138.25,-230.5 138.25,-236.5 132.25,-242.5 126.25,-242.5"/>
<text xml:space="preserve" text-anchor="middle" x="77" y="-227" font-family="Arial" font-size="10.00">FakeOpenVINORuntime</text>
<text xml:space="preserve" text-anchor="middle" x="77" y="-215" font-family="Arial" font-size="10.00">deterministic</text>
</g>
<!-- FakeRuntime&#45;&gt;Runtime -->
<g id="edge5" class="edge">
<title>FakeRuntime&#45;&gt;Runtime</title>
<path fill="none" stroke="black" stroke-dasharray="1,5" d="M133.56,-206.09C133.56,-201.57 133.56,-198 133.56,-198 133.56,-198 489.62,-198 489.62,-198 489.62,-198 489.62,-198.81 489.62,-198.81"/>
<polygon fill="black" stroke="black" points="487.18,-197.58 489.63,-204.58 492.08,-197.58 487.18,-197.58"/>
<text xml:space="preserve" text-anchor="middle" x="297" y="-303.45" font-family="Arial" font-size="9.00">test implementation</text>
</g>
<!-- Adapter -->
<g id="node8" class="node">
<title>Adapter</title>
<path fill="#e8f5e9" stroke="#2e7d32" d="M207.12,-134.5C207.12,-134.5 140.88,-134.5 140.88,-134.5 134.88,-134.5 128.88,-128.5 128.88,-122.5 128.88,-122.5 128.88,-110.5 128.88,-110.5 128.88,-104.5 134.88,-98.5 140.88,-98.5 140.88,-98.5 207.12,-98.5 207.12,-98.5 213.12,-98.5 219.12,-104.5 219.12,-110.5 219.12,-110.5 219.12,-122.5 219.12,-122.5 219.12,-128.5 213.12,-134.5 207.12,-134.5"/>
<text xml:space="preserve" text-anchor="middle" x="174" y="-119" font-family="Arial" font-size="10.00">InferenceAdapter</text>
<text xml:space="preserve" text-anchor="middle" x="174" y="-107" font-family="Arial" font-size="10.00">select openvino</text>
</g>
<!-- Registry&#45;&gt;Adapter -->
<g id="edge7" class="edge">
<title>Registry&#45;&gt;Adapter</title>
<path fill="none" stroke="black" d="M187.81,-206.18C187.81,-206.18 187.81,-143.42 187.81,-143.42"/>
<polygon fill="black" stroke="black" points="190.26,-143.42 187.81,-136.42 185.36,-143.42 190.26,-143.42"/>
<text xml:space="preserve" text-anchor="middle" x="211.12" y="-167.2" font-family="Arial" font-size="9.00">selected by model</text>
</g>
<!-- RealRuntime -->
<g id="node9" class="node">
<title>RealRuntime</title>
<path fill="#efebe9" stroke="#6d4c41" d="M729.5,-366C729.5,-366 632.5,-366 632.5,-366 626.5,-366 620.5,-360 620.5,-354 620.5,-354 620.5,-342 620.5,-342 620.5,-336 626.5,-330 632.5,-330 632.5,-330 729.5,-330 729.5,-330 735.5,-330 741.5,-336 741.5,-342 741.5,-342 741.5,-354 741.5,-354 741.5,-360 735.5,-366 729.5,-366"/>
<text xml:space="preserve" text-anchor="middle" x="681" y="-350.5" font-family="Arial" font-size="10.00">RealOpenVINORuntime</text>
<text xml:space="preserve" text-anchor="middle" x="681" y="-338.5" font-family="Arial" font-size="10.00">future</text>
</g>
<!-- RealRuntime&#45;&gt;Runtime -->
<g id="edge8" class="edge">
<title>RealRuntime&#45;&gt;Runtime</title>
<path fill="none" stroke="black" stroke-dasharray="1,5" d="M627.81,-329.59C627.81,-295.27 627.81,-225 627.81,-225 627.81,-225 604.67,-225 604.67,-225"/>
<polygon fill="black" stroke="black" points="604.67,-222.55 597.67,-225 604.67,-227.45 604.67,-222.55"/>
<text xml:space="preserve" text-anchor="middle" x="600.25" y="-303.45" font-family="Arial" font-size="9.00">future implementation</text>
</g>
<!-- CompiledModel -->
<g id="node10" class="node">
<title>CompiledModel</title>
<path fill="#efebe9" stroke="#6d4c41" d="M710.75,-242.5C710.75,-242.5 651.25,-242.5 651.25,-242.5 645.25,-242.5 639.25,-236.5 639.25,-230.5 639.25,-230.5 639.25,-218.5 639.25,-218.5 639.25,-212.5 645.25,-206.5 651.25,-206.5 651.25,-206.5 710.75,-206.5 710.75,-206.5 716.75,-206.5 722.75,-212.5 722.75,-218.5 722.75,-218.5 722.75,-230.5 722.75,-230.5 722.75,-236.5 716.75,-242.5 710.75,-242.5"/>
<text xml:space="preserve" text-anchor="middle" x="681" y="-227" font-family="Arial" font-size="10.00">CompiledModel</text>
<text xml:space="preserve" text-anchor="middle" x="681" y="-215" font-family="Arial" font-size="10.00">future</text>
</g>
<!-- RealRuntime&#45;&gt;CompiledModel -->
<g id="edge9" class="edge">
<title>RealRuntime&#45;&gt;CompiledModel</title>
<path fill="none" stroke="black" stroke-dasharray="5,2" d="M681,-329.51C681,-329.51 681,-251.23 681,-251.23"/>
<polygon fill="black" stroke="black" points="683.45,-251.23 681,-244.23 678.55,-251.23 683.45,-251.23"/>
</g>
<!-- InferRequestPool -->
<g id="node11" class="node">
<title>InferRequestPool</title>
<path fill="#efebe9" stroke="#6d4c41" d="M714.88,-134.5C714.88,-134.5 647.12,-134.5 647.12,-134.5 641.12,-134.5 635.12,-128.5 635.12,-122.5 635.12,-122.5 635.12,-110.5 635.12,-110.5 635.12,-104.5 641.12,-98.5 647.12,-98.5 647.12,-98.5 714.88,-98.5 714.88,-98.5 720.88,-98.5 726.88,-104.5 726.88,-110.5 726.88,-110.5 726.88,-122.5 726.88,-122.5 726.88,-128.5 720.88,-134.5 714.88,-134.5"/>
<text xml:space="preserve" text-anchor="middle" x="681" y="-119" font-family="Arial" font-size="10.00">InferRequestPool</text>
<text xml:space="preserve" text-anchor="middle" x="681" y="-107" font-family="Arial" font-size="10.00">future</text>
</g>
<!-- CompiledModel&#45;&gt;InferRequestPool -->
<g id="edge10" class="edge">
<title>CompiledModel&#45;&gt;InferRequestPool</title>
<path fill="none" stroke="black" stroke-dasharray="5,2" d="M681,-206.18C681,-206.18 681,-143.42 681,-143.42"/>
<polygon fill="black" stroke="black" points="683.45,-143.42 681,-136.42 678.55,-143.42 683.45,-143.42"/>
</g>
<!-- Nav_Inference -->
<g id="node12" class="node">
<title>Nav_Inference</title>
<g id="a_node12"><a xlink:href="40_inference.svg" xlink:title="Inference">
<path fill="lightgrey" stroke="none" d="M802.25,-188.5C802.25,-188.5 769.75,-188.5 769.75,-188.5 763.75,-188.5 757.75,-182.5 757.75,-176.5 757.75,-176.5 757.75,-164.5 757.75,-164.5 757.75,-158.5 763.75,-152.5 769.75,-152.5 769.75,-152.5 802.25,-152.5 802.25,-152.5 808.25,-152.5 814.25,-158.5 814.25,-164.5 814.25,-164.5 814.25,-176.5 814.25,-176.5 814.25,-182.5 808.25,-188.5 802.25,-188.5"/>
<text xml:space="preserve" text-anchor="middle" x="786" y="-167" font-family="Arial" font-size="10.00">Inference</text>
</a>
</g>
</g>
<!-- Nav_Global -->
<g id="node13" class="node">
<title>Nav_Global</title>
<g id="a_node13"><a xlink:href="../00_global.svg" xlink:title="Global">
<path fill="lightgrey" stroke="none" d="M861,-188.5C861,-188.5 831,-188.5 831,-188.5 825,-188.5 819,-182.5 819,-176.5 819,-176.5 819,-164.5 819,-164.5 819,-158.5 825,-152.5 831,-152.5 831,-152.5 861,-152.5 861,-152.5 867,-152.5 873,-158.5 873,-164.5 873,-164.5 873,-176.5 873,-176.5 873,-182.5 867,-188.5 861,-188.5"/>
<text xml:space="preserve" text-anchor="middle" x="846" y="-167" font-family="Arial" font-size="10.00">Global</text>
</a>
</g>
</g>
<!-- Nav_Tests -->
<g id="node14" class="node">
<title>Nav_Tests</title>
<g id="a_node14"><a xlink:href="../tests/80_tests.svg" xlink:title="Tests">
<path fill="lightgrey" stroke="none" d="M920,-188.5C920,-188.5 890,-188.5 890,-188.5 884,-188.5 878,-182.5 878,-176.5 878,-176.5 878,-164.5 878,-164.5 878,-158.5 884,-152.5 890,-152.5 890,-152.5 920,-152.5 920,-152.5 926,-152.5 932,-158.5 932,-164.5 932,-164.5 932,-176.5 932,-176.5 932,-182.5 926,-188.5 920,-188.5"/>
<text xml:space="preserve" text-anchor="middle" x="905" y="-167" font-family="Arial" font-size="10.00">Tests</text>
</a>
</g>
</g>
</g>
</svg>
