<?xml version="1.0" encoding="UTF-8" standalone="no"?>
<!DOCTYPE svg PUBLIC "-//W3C//DTD SVG 1.1//EN"
 "http://www.w3.org/Graphics/SVG/1.1/DTD/svg11.dtd">
<!-- Generated by graphviz version 14.1.3 (20260303.0454)
 -->
<!-- Title: OpenVINORuntime Pages: 1 -->
<svg width="1272pt" height="600pt"
 viewBox="0.00 0.00 1272.00 600.00" xmlns="http://www.w3.org/2000/svg" xmlns:xlink="http://www.w3.org/1999/xlink">
<g id="graph0" class="graph" transform="scale(1 1) rotate(0) translate(4 595.5)">
<title>OpenVINORuntime</title>
<polygon fill="white" stroke="none" points="-4,4 -4,-595.5 1268,-595.5 1268,4 -4,4"/>
<g id="clust1" class="cluster">
<title>cluster_contract</title>
<polygon fill="#eceff1" stroke="#455a64" points="202,-408 202,-481.5 887,-481.5 887,-408 202,-408"/>
<text xml:space="preserve" text-anchor="middle" x="544.5" y="-467.05" font-family="Arial" font-size="11.00">Contrat stable</text>
</g>
<g id="clust2" class="cluster">
<title>cluster_runtime</title>
<polygon fill="#efebe9" stroke="#6d4c41" points="8,-8 8,-583.5 194,-583.5 194,-8 8,-8"/>
<text xml:space="preserve" text-anchor="middle" x="101" y="-569.05" font-family="Arial" font-size="11.00">Runtime réel optionnel</text>
</g>
<g id="clust3" class="cluster">
<title>cluster_limits</title>
<polygon fill="#ffebee" stroke="#b71c1c" points="895,-408 895,-481.5 1256,-481.5 1256,-408 895,-408"/>
<text xml:space="preserve" text-anchor="middle" x="1075.5" y="-467.05" font-family="Arial" font-size="11.00">Limites volontairement gardées</text>
</g>
<!-- Request -->
<g id="node1" class="node">
<title>Request</title>
<path fill="#eceff1" stroke="#455a64" d="M376.38,-452C376.38,-452 221.62,-452 221.62,-452 215.62,-452 209.62,-446 209.62,-440 209.62,-440 209.62,-428 209.62,-428 209.62,-422 215.62,-416 221.62,-416 221.62,-416 376.38,-416 376.38,-416 382.38,-416 388.38,-422 388.38,-428 388.38,-428 388.38,-440 388.38,-440 388.38,-446 382.38,-452 376.38,-452"/>
<text xml:space="preserve" text-anchor="middle" x="299" y="-436.5" font-family="Arial" font-size="10.00">InferenceRequest</text>
<text xml:space="preserve" text-anchor="middle" x="299" y="-424.5" font-family="Arial" font-size="10.00">context[&#39;inputs&#39;] ou metadata[&#39;inputs&#39;]</text>
</g>
<!-- Runtime -->
<g id="node5" class="node">
<title>Runtime</title>
<path fill="#efebe9" stroke="#6d4c41" d="M173.5,-554C173.5,-554 76.5,-554 76.5,-554 70.5,-554 64.5,-548 64.5,-542 64.5,-542 64.5,-530 64.5,-530 64.5,-524 70.5,-518 76.5,-518 76.5,-518 173.5,-518 173.5,-518 179.5,-518 185.5,-524 185.5,-530 185.5,-530 185.5,-542 185.5,-542 185.5,-548 179.5,-554 173.5,-554"/>
<text xml:space="preserve" text-anchor="middle" x="125" y="-538.5" font-family="Arial" font-size="10.00">RealOpenVINORuntime</text>
<text xml:space="preserve" text-anchor="middle" x="125" y="-526.5" font-family="Arial" font-size="10.00">seul import openvino</text>
</g>
<!-- Request&#45;&gt;Runtime -->
<g id="edge1" class="edge">
<title>Request&#45;&gt;Runtime</title>
<path fill="none" stroke="black" d="M209.27,-434C192.34,-434 179.81,-434 179.81,-434 179.81,-434 179.81,-509.25 179.81,-509.25"/>
<polygon fill="black" stroke="black" points="177.36,-509.25 179.81,-516.25 182.26,-509.25 177.36,-509.25"/>
</g>
<!-- Config -->
<g id="node2" class="node">
<title>Config</title>
<path fill="#eceff1" stroke="#455a64" d="M561.38,-452C561.38,-452 418.62,-452 418.62,-452 412.62,-452 406.62,-446 406.62,-440 406.62,-440 406.62,-428 406.62,-428 406.62,-422 412.62,-416 418.62,-416 418.62,-416 561.38,-416 561.38,-416 567.38,-416 573.38,-422 573.38,-428 573.38,-428 573.38,-440 573.38,-440 573.38,-446 567.38,-452 561.38,-452"/>
<text xml:space="preserve" text-anchor="middle" x="490" y="-436.5" font-family="Arial" font-size="10.00">OpenVINOBackendConfig</text>
<text xml:space="preserve" text-anchor="middle" x="490" y="-424.5" font-family="Arial" font-size="10.00">model_path/device/backend_name</text>
</g>
<!-- Config&#45;&gt;Runtime -->
<g id="edge2" class="edge">
<title>Config&#45;&gt;Runtime</title>
<path fill="none" stroke="black" d="M490,-452.21C490,-478.51 490,-524 490,-524 490,-524 194.2,-524 194.2,-524"/>
<polygon fill="black" stroke="black" points="194.2,-521.55 187.2,-524 194.2,-526.45 194.2,-521.55"/>
</g>
<!-- Result -->
<g id="node3" class="node">
<title>Result</title>
<path fill="#eceff1" stroke="#455a64" d="M704.75,-452C704.75,-452 603.25,-452 603.25,-452 597.25,-452 591.25,-446 591.25,-440 591.25,-440 591.25,-428 591.25,-428 591.25,-422 597.25,-416 603.25,-416 603.25,-416 704.75,-416 704.75,-416 710.75,-416 716.75,-422 716.75,-428 716.75,-428 716.75,-440 716.75,-440 716.75,-446 710.75,-452 704.75,-452"/>
<text xml:space="preserve" text-anchor="middle" x="654" y="-436.5" font-family="Arial" font-size="10.00">InferenceResult</text>
<text xml:space="preserve" text-anchor="middle" x="654" y="-424.5" font-family="Arial" font-size="10.00">backend/config metadata</text>
</g>
<!-- State -->
<g id="node4" class="node">
<title>State</title>
<path fill="#eceff1" stroke="#455a64" d="M867.12,-452C867.12,-452 746.88,-452 746.88,-452 740.88,-452 734.88,-446 734.88,-440 734.88,-440 734.88,-428 734.88,-428 734.88,-422 740.88,-416 746.88,-416 746.88,-416 867.12,-416 867.12,-416 873.12,-416 879.12,-422 879.12,-428 879.12,-428 879.12,-440 879.12,-440 879.12,-446 873.12,-452 867.12,-452"/>
<text xml:space="preserve" text-anchor="middle" x="807" y="-436.5" font-family="Arial" font-size="10.00">RealOpenVINORuntimeState</text>
<text xml:space="preserve" text-anchor="middle" x="807" y="-424.5" font-family="Arial" font-size="10.00">available/cache/infer_count</text>
</g>
<!-- Runtime&#45;&gt;State -->
<g id="edge10" class="edge">
<title>Runtime&#45;&gt;State</title>
<path fill="none" stroke="black" stroke-dasharray="1,5" d="M185.82,-530C352.98,-530 807,-530 807,-530 807,-530 807,-460.57 807,-460.57"/>
<polygon fill="black" stroke="black" points="809.45,-460.57 807,-453.57 804.55,-460.57 809.45,-460.57"/>
<text xml:space="preserve" text-anchor="middle" x="602.75" y="-491.45" font-family="Arial" font-size="9.00">state()</text>
</g>
<!-- Import -->
<g id="node6" class="node">
<title>Import</title>
<path fill="#efebe9" stroke="#6d4c41" d="M159,-452C159,-452 71,-452 71,-452 65,-452 59,-446 59,-440 59,-440 59,-428 59,-428 59,-422 65,-416 71,-416 71,-416 159,-416 159,-416 165,-416 171,-422 171,-428 171,-428 171,-440 171,-440 171,-446 165,-452 159,-452"/>
<text xml:space="preserve" text-anchor="middle" x="115" y="-436.5" font-family="Arial" font-size="10.00">import openvino as ov</text>
<text xml:space="preserve" text-anchor="middle" x="115" y="-424.5" font-family="Arial" font-size="10.00">only here</text>
</g>
<!-- Runtime&#45;&gt;Import -->
<g id="edge3" class="edge">
<title>Runtime&#45;&gt;Import</title>
<path fill="none" stroke="black" stroke-dasharray="5,2" d="M117.75,-517.76C117.75,-517.76 117.75,-460.94 117.75,-460.94"/>
<polygon fill="black" stroke="black" points="120.2,-460.94 117.75,-453.94 115.3,-460.94 120.2,-460.94"/>
</g>
<!-- NoTokenizer -->
<g id="node12" class="node">
<title>NoTokenizer</title>
<path fill="#ffebee" stroke="#b71c1c" d="M979,-452C979,-452 915,-452 915,-452 909,-452 903,-446 903,-440 903,-440 903,-428 903,-428 903,-422 909,-416 915,-416 915,-416 979,-416 979,-416 985,-416 991,-422 991,-428 991,-428 991,-440 991,-440 991,-446 985,-452 979,-452"/>
<text xml:space="preserve" text-anchor="middle" x="947" y="-430.5" font-family="Arial" font-size="10.00">pas de tokenizer</text>
</g>
<!-- Runtime&#45;&gt;NoTokenizer -->
<g id="edge11" class="edge">
<title>Runtime&#45;&gt;NoTokenizer</title>
<path fill="none" stroke="black" stroke-dasharray="1,5" d="M185.78,-536C375.94,-536 947,-536 947,-536 947,-536 947,-460.75 947,-460.75"/>
<polygon fill="black" stroke="black" points="949.45,-460.75 947,-453.75 944.55,-460.75 949.45,-460.75"/>
</g>
<!-- NoModelChoice -->
<g id="node13" class="node">
<title>NoModelChoice</title>
<path fill="#ffebee" stroke="#b71c1c" d="M1111.12,-452C1111.12,-452 1020.88,-452 1020.88,-452 1014.88,-452 1008.88,-446 1008.88,-440 1008.88,-440 1008.88,-428 1008.88,-428 1008.88,-422 1014.88,-416 1020.88,-416 1020.88,-416 1111.12,-416 1111.12,-416 1117.12,-416 1123.12,-422 1123.12,-428 1123.12,-428 1123.12,-440 1123.12,-440 1123.12,-446 1117.12,-452 1111.12,-452"/>
<text xml:space="preserve" text-anchor="middle" x="1066" y="-430.5" font-family="Arial" font-size="10.00">pas de modèle imposé</text>
</g>
<!-- Runtime&#45;&gt;NoModelChoice -->
<g id="edge12" class="edge">
<title>Runtime&#45;&gt;NoModelChoice</title>
<path fill="none" stroke="black" stroke-dasharray="1,5" d="M185.66,-542C393.76,-542 1066,-542 1066,-542 1066,-542 1066,-460.83 1066,-460.83"/>
<polygon fill="black" stroke="black" points="1068.45,-460.83 1066,-453.83 1063.55,-460.83 1068.45,-460.83"/>
</g>
<!-- NoScheduler -->
<g id="node14" class="node">
<title>NoScheduler</title>
<path fill="#ffebee" stroke="#b71c1c" d="M1236.38,-452C1236.38,-452 1153.62,-452 1153.62,-452 1147.62,-452 1141.62,-446 1141.62,-440 1141.62,-440 1141.62,-428 1141.62,-428 1141.62,-422 1147.62,-416 1153.62,-416 1153.62,-416 1236.38,-416 1236.38,-416 1242.38,-416 1248.38,-422 1248.38,-428 1248.38,-428 1248.38,-440 1248.38,-440 1248.38,-446 1242.38,-452 1236.38,-452"/>
<text xml:space="preserve" text-anchor="middle" x="1195" y="-430.5" font-family="Arial" font-size="10.00">aucun lien Scheduler</text>
</g>
<!-- Runtime&#45;&gt;NoScheduler -->
<g id="edge13" class="edge">
<title>Runtime&#45;&gt;NoScheduler</title>
<path fill="none" stroke="black" stroke-dasharray="1,5" d="M185.98,-548C412.84,-548 1195,-548 1195,-548 1195,-548 1195,-460.83 1195,-460.83"/>
<polygon fill="black" stroke="black" points="1197.45,-460.83 1195,-453.83 1192.55,-460.83 1197.45,-460.83"/>
</g>
<!-- Core -->
<g id="node7" class="node">
<title>Core</title>
<path fill="#efebe9" stroke="#6d4c41" d="M128.88,-344C128.88,-344 97.12,-344 97.12,-344 91.12,-344 85.12,-338 85.12,-332 85.12,-332 85.12,-320 85.12,-320 85.12,-314 91.12,-308 97.12,-308 97.12,-308 128.88,-308 128.88,-308 134.88,-308 140.88,-314 140.88,-320 140.88,-320 140.88,-332 140.88,-332 140.88,-338 134.88,-344 128.88,-344"/>
<text xml:space="preserve" text-anchor="middle" x="113" y="-322.5" font-family="Arial" font-size="10.00">ov.Core()</text>
</g>
<!-- Import&#45;&gt;Core -->
<g id="edge4" class="edge">
<title>Import&#45;&gt;Core</title>
<path fill="none" stroke="black" d="M113,-415.68C113,-415.68 113,-352.92 113,-352.92"/>
<polygon fill="black" stroke="black" points="115.45,-352.92 113,-345.92 110.55,-352.92 115.45,-352.92"/>
</g>
<!-- ReadModel -->
<g id="node8" class="node">
<title>ReadModel</title>
<path fill="#efebe9" stroke="#6d4c41" d="M162.12,-271C162.12,-271 41.88,-271 41.88,-271 35.88,-271 29.88,-265 29.88,-259 29.88,-259 29.88,-247 29.88,-247 29.88,-241 35.88,-235 41.88,-235 41.88,-235 162.12,-235 162.12,-235 168.12,-235 174.12,-241 174.12,-247 174.12,-247 174.12,-259 174.12,-259 174.12,-265 168.12,-271 162.12,-271"/>
<text xml:space="preserve" text-anchor="middle" x="102" y="-249.5" font-family="Arial" font-size="10.00">core.read_model(model_path)</text>
</g>
<!-- Core&#45;&gt;ReadModel -->
<g id="edge5" class="edge">
<title>Core&#45;&gt;ReadModel</title>
<path fill="none" stroke="black" d="M113,-307.58C113,-307.58 113,-279.93 113,-279.93"/>
<polygon fill="black" stroke="black" points="115.45,-279.93 113,-272.93 110.55,-279.93 115.45,-279.93"/>
</g>
<!-- Compile -->
<g id="node9" class="node">
<title>Compile</title>
<path fill="#efebe9" stroke="#6d4c41" d="M173.88,-198C173.88,-198 28.12,-198 28.12,-198 22.12,-198 16.12,-192 16.12,-186 16.12,-186 16.12,-174 16.12,-174 16.12,-168 22.12,-162 28.12,-162 28.12,-162 173.88,-162 173.88,-162 179.88,-162 185.88,-168 185.88,-174 185.88,-174 185.88,-186 185.88,-186 185.88,-192 179.88,-198 173.88,-198"/>
<text xml:space="preserve" text-anchor="middle" x="101" y="-176.5" font-family="Arial" font-size="10.00">core.compile_model(model, device)</text>
</g>
<!-- ReadModel&#45;&gt;Compile -->
<g id="edge6" class="edge">
<title>ReadModel&#45;&gt;Compile</title>
<path fill="none" stroke="black" d="M102,-234.58C102,-234.58 102,-206.93 102,-206.93"/>
<polygon fill="black" stroke="black" points="104.45,-206.93 102,-199.93 99.55,-206.93 104.45,-206.93"/>
</g>
<!-- Cache -->
<g id="node10" class="node">
<title>Cache</title>
<path fill="#efebe9" stroke="#6d4c41" d="M147.75,-125C147.75,-125 58.25,-125 58.25,-125 52.25,-125 46.25,-119 46.25,-113 46.25,-113 46.25,-101 46.25,-101 46.25,-95 52.25,-89 58.25,-89 58.25,-89 147.75,-89 147.75,-89 153.75,-89 159.75,-95 159.75,-101 159.75,-101 159.75,-113 159.75,-113 159.75,-119 153.75,-125 147.75,-125"/>
<text xml:space="preserve" text-anchor="middle" x="103" y="-109.5" font-family="Arial" font-size="10.00">compiled model cache</text>
<text xml:space="preserve" text-anchor="middle" x="103" y="-97.5" font-family="Arial" font-size="10.00">(model_path, device)</text>
</g>
<!-- Compile&#45;&gt;Cache -->
<g id="edge7" class="edge">
<title>Compile&#45;&gt;Cache</title>
<path fill="none" stroke="black" d="M103,-161.58C103,-161.58 103,-133.93 103,-133.93"/>
<polygon fill="black" stroke="black" points="105.45,-133.93 103,-126.93 100.55,-133.93 105.45,-133.93"/>
</g>
<!-- Infer -->
<g id="node11" class="node">
<title>Infer</title>
<path fill="#efebe9" stroke="#6d4c41" d="M169.75,-52C169.75,-52 56.25,-52 56.25,-52 50.25,-52 44.25,-46 44.25,-40 44.25,-40 44.25,-28 44.25,-28 44.25,-22 50.25,-16 56.25,-16 56.25,-16 169.75,-16 169.75,-16 175.75,-16 181.75,-22 181.75,-28 181.75,-28 181.75,-40 181.75,-40 181.75,-46 175.75,-52 169.75,-52"/>
<text xml:space="preserve" text-anchor="middle" x="113" y="-36.5" font-family="Arial" font-size="10.00">compiled_model(inputs)</text>
<text xml:space="preserve" text-anchor="middle" x="113" y="-24.5" font-family="Arial" font-size="10.00">or infer_request.infer(inputs)</text>
</g>
<!-- Cache&#45;&gt;Infer -->
<g id="edge8" class="edge">
<title>Cache&#45;&gt;Infer</title>
<path fill="none" stroke="black" d="M103,-88.58C103,-88.58 103,-60.93 103,-60.93"/>
<polygon fill="black" stroke="black" points="105.45,-60.93 103,-53.93 100.55,-60.93 105.45,-60.93"/>
</g>
<!-- Infer&#45;&gt;Result -->
<g id="edge9" class="edge">
<title>Infer&#45;&gt;Result</title>
<path fill="none" stroke="black" d="M182.2,-34C336.23,-34 693.88,-34 693.88,-34 693.88,-34 693.88,-407 693.88,-407"/>
<polygon fill="black" stroke="black" points="691.43,-407 693.88,-414 696.33,-407 691.43,-407"/>
</g>
<!-- Nav_Backend -->
<g id="node15" class="node">
<title>Nav_Backend</title>
<g id="a_node15"><a xlink:href="41_openvino_backend.svg" xlink:title="OpenVINOBackend">
<path fill="lightgrey" stroke="none" d="M539.12,-398C539.12,-398 460.88,-398 460.88,-398 454.88,-398 448.88,-392 448.88,-386 448.88,-386 448.88,-374 448.88,-374 448.88,-368 454.88,-362 460.88,-362 460.88,-362 539.12,-362 539.12,-362 545.12,-362 551.12,-368 551.12,-374 551.12,-374 551.12,-386 551.12,-386 551.12,-392 545.12,-398 539.12,-398"/>
<text xml:space="preserve" text-anchor="middle" x="500" y="-376.5" font-family="Arial" font-size="10.00">OpenVINOBackend</text>
</a>
</g>
</g>
<!-- Nav_Inference -->
<g id="node16" class="node">
<title>Nav_Inference</title>
<g id="a_node16"><a xlink:href="40_inference.svg" xlink:title="Inference">
<path fill="lightgrey" stroke="none" d="M600.25,-398C600.25,-398 567.75,-398 567.75,-398 561.75,-398 555.75,-392 555.75,-386 555.75,-386 555.75,-374 555.75,-374 555.75,-368 561.75,-362 567.75,-362 567.75,-362 600.25,-362 600.25,-362 606.25,-362 612.25,-368 612.25,-374 612.25,-374 612.25,-386 612.25,-386 612.25,-392 606.25,-398 600.25,-398"/>
<text xml:space="preserve" text-anchor="middle" x="584" y="-376.5" font-family="Arial" font-size="10.00">Inference</text>
</a>
</g>
</g>
<!-- Nav_Global -->
<g id="node17" class="node">
<title>Nav_Global</title>
<g id="a_node17"><a xlink:href="../00_global.svg" xlink:title="Global">
<path fill="lightgrey" stroke="none" d="M659,-398C659,-398 629,-398 629,-398 623,-398 617,-392 617,-386 617,-386 617,-374 617,-374 617,-368 623,-362 629,-362 629,-362 659,-362 659,-362 665,-362 671,-368 671,-374 671,-374 671,-386 671,-386 671,-392 665,-398 659,-398"/>
<text xml:space="preserve" text-anchor="middle" x="644" y="-376.5" font-family="Arial" font-size="10.00">Global</text>
</a>
</g>
</g>
</g>
</svg>
