<?xml version="1.0" encoding="UTF-8" standalone="no"?>
<!DOCTYPE svg PUBLIC "-//W3C//DTD SVG 1.1//EN"
 "http://www.w3.org/Graphics/SVG/1.1/DTD/svg11.dtd">
<!-- Generated by graphviz version 14.1.3 (20260303.0454)
 -->
<!-- Title: OpenVINOProfiles Pages: 1 -->
<svg width="1036pt" height="565pt"
 viewBox="0.00 0.00 1036.00 565.00" xmlns="http://www.w3.org/2000/svg" xmlns:xlink="http://www.w3.org/1999/xlink">
<g id="graph0" class="graph" transform="scale(1 1) rotate(0) translate(4 561)">
<title>OpenVINOProfiles</title>
<polygon fill="white" stroke="none" points="-4,4 -4,-561 1032,-561 1032,4 -4,4"/>
<g id="clust1" class="cluster">
<title>cluster_profiles</title>
<polygon fill="#e0f7fa" stroke="#00838f" points="8,-198.5 8,-549 220,-549 220,-198.5 8,-198.5"/>
<text xml:space="preserve" text-anchor="middle" x="114" y="-534.55" font-family="Arial" font-size="11.00">Profils déclaratifs Phase 3.0</text>
</g>
<g id="clust2" class="cluster">
<title>cluster_backend_bridge</title>
<polygon fill="#efebe9" stroke="#6d4c41" points="228,-8 228,-272 671,-272 671,-8 228,-8"/>
<text xml:space="preserve" text-anchor="middle" x="449.5" y="-257.55" font-family="Arial" font-size="11.00">Pont vers backend réel</text>
</g>
<g id="clust3" class="cluster">
<title>cluster_decision</title>
<polygon fill="#ffebee" stroke="#b71c1c" points="228,-300.5 228,-374 623,-374 623,-300.5 228,-300.5"/>
<text xml:space="preserve" text-anchor="middle" x="425.5" y="-359.55" font-family="Arial" font-size="11.00">Choix non imposé</text>
</g>
<!-- Profile -->
<g id="node1" class="node">
<title>Profile</title>
<path fill="#e0f7fa" stroke="#00838f" d="M200.25,-446.5C200.25,-446.5 77.75,-446.5 77.75,-446.5 71.75,-446.5 65.75,-440.5 65.75,-434.5 65.75,-434.5 65.75,-422.5 65.75,-422.5 65.75,-416.5 71.75,-410.5 77.75,-410.5 77.75,-410.5 200.25,-410.5 200.25,-410.5 206.25,-410.5 212.25,-416.5 212.25,-422.5 212.25,-422.5 212.25,-434.5 212.25,-434.5 212.25,-440.5 206.25,-446.5 200.25,-446.5"/>
<text xml:space="preserve" text-anchor="middle" x="139" y="-431" font-family="Arial" font-size="10.00">OpenVINOModelProfile</text>
<text xml:space="preserve" text-anchor="middle" x="139" y="-419" font-family="Arial" font-size="10.00">name/model_path/task/device</text>
</g>
<!-- ProfileRegistry -->
<g id="node2" class="node">
<title>ProfileRegistry</title>
<path fill="#e0f7fa" stroke="#00838f" d="M200.38,-344.5C200.38,-344.5 69.62,-344.5 69.62,-344.5 63.62,-344.5 57.62,-338.5 57.62,-332.5 57.62,-332.5 57.62,-320.5 57.62,-320.5 57.62,-314.5 63.62,-308.5 69.62,-308.5 69.62,-308.5 200.38,-308.5 200.38,-308.5 206.38,-308.5 212.38,-314.5 212.38,-320.5 212.38,-320.5 212.38,-332.5 212.38,-332.5 212.38,-338.5 206.38,-344.5 200.38,-344.5"/>
<text xml:space="preserve" text-anchor="middle" x="135" y="-329" font-family="Arial" font-size="10.00">OpenVINOModelProfileRegistry</text>
<text xml:space="preserve" text-anchor="middle" x="135" y="-317" font-family="Arial" font-size="10.00">profiles only, no runtime</text>
</g>
<!-- Profile&#45;&gt;ProfileRegistry -->
<g id="edge2" class="edge">
<title>Profile&#45;&gt;ProfileRegistry</title>
<path fill="none" stroke="black" d="M139,-410.26C139,-410.26 139,-353.44 139,-353.44"/>
<polygon fill="black" stroke="black" points="141.45,-353.44 139,-346.44 136.55,-353.44 141.45,-353.44"/>
<text xml:space="preserve" text-anchor="middle" x="152.38" y="-383.95" font-family="Arial" font-size="9.00">register</text>
</g>
<!-- NoDefaultModel -->
<g id="node10" class="node">
<title>NoDefaultModel</title>
<path fill="#ffebee" stroke="#b71c1c" d="M375.5,-344.5C375.5,-344.5 248.5,-344.5 248.5,-344.5 242.5,-344.5 236.5,-338.5 236.5,-332.5 236.5,-332.5 236.5,-320.5 236.5,-320.5 236.5,-314.5 242.5,-308.5 248.5,-308.5 248.5,-308.5 375.5,-308.5 375.5,-308.5 381.5,-308.5 387.5,-314.5 387.5,-320.5 387.5,-320.5 387.5,-332.5 387.5,-332.5 387.5,-338.5 381.5,-344.5 375.5,-344.5"/>
<text xml:space="preserve" text-anchor="middle" x="312" y="-323" font-family="Arial" font-size="10.00">pas de modèle par défaut forcé</text>
</g>
<!-- Profile&#45;&gt;NoDefaultModel -->
<g id="edge12" class="edge">
<title>Profile&#45;&gt;NoDefaultModel</title>
<path fill="none" stroke="black" stroke-dasharray="1,5" d="M212.62,-420C259.7,-420 312,-420 312,-420 312,-420 312,-353.49 312,-353.49"/>
<polygon fill="black" stroke="black" points="314.45,-353.49 312,-346.49 309.55,-353.49 314.45,-353.49"/>
</g>
<!-- NoTokenizer -->
<g id="node11" class="node">
<title>NoTokenizer</title>
<path fill="#ffebee" stroke="#b71c1c" d="M494.38,-344.5C494.38,-344.5 417.62,-344.5 417.62,-344.5 411.62,-344.5 405.62,-338.5 405.62,-332.5 405.62,-332.5 405.62,-320.5 405.62,-320.5 405.62,-314.5 411.62,-308.5 417.62,-308.5 417.62,-308.5 494.38,-308.5 494.38,-308.5 500.38,-308.5 506.38,-314.5 506.38,-320.5 506.38,-320.5 506.38,-332.5 506.38,-332.5 506.38,-338.5 500.38,-344.5 494.38,-344.5"/>
<text xml:space="preserve" text-anchor="middle" x="456" y="-323" font-family="Arial" font-size="10.00">pas de tokenizer ici</text>
</g>
<!-- Profile&#45;&gt;NoTokenizer -->
<g id="edge13" class="edge">
<title>Profile&#45;&gt;NoTokenizer</title>
<path fill="none" stroke="black" stroke-dasharray="1,5" d="M212.52,-429C306.17,-429 456,-429 456,-429 456,-429 456,-353.34 456,-353.34"/>
<polygon fill="black" stroke="black" points="458.45,-353.34 456,-346.34 453.55,-353.34 458.45,-353.34"/>
</g>
<!-- NoQdrant -->
<g id="node12" class="node">
<title>NoQdrant</title>
<path fill="#ffebee" stroke="#b71c1c" d="M603.12,-344.5C603.12,-344.5 536.88,-344.5 536.88,-344.5 530.88,-344.5 524.88,-338.5 524.88,-332.5 524.88,-332.5 524.88,-320.5 524.88,-320.5 524.88,-314.5 530.88,-308.5 536.88,-308.5 536.88,-308.5 603.12,-308.5 603.12,-308.5 609.12,-308.5 615.12,-314.5 615.12,-320.5 615.12,-320.5 615.12,-332.5 615.12,-332.5 615.12,-338.5 609.12,-344.5 603.12,-344.5"/>
<text xml:space="preserve" text-anchor="middle" x="570" y="-323" font-family="Arial" font-size="10.00">pas de Qdrant ici</text>
</g>
<!-- Profile&#45;&gt;NoQdrant -->
<g id="edge14" class="edge">
<title>Profile&#45;&gt;NoQdrant</title>
<path fill="none" stroke="black" stroke-dasharray="1,5" d="M212.6,-438C335.7,-438 570,-438 570,-438 570,-438 570,-353.43 570,-353.43"/>
<polygon fill="black" stroke="black" points="572.45,-353.43 570,-346.43 567.55,-353.43 572.45,-353.43"/>
</g>
<!-- ProfileSnapshot -->
<g id="node3" class="node">
<title>ProfileSnapshot</title>
<path fill="#e0f7fa" stroke="#00838f" d="M200,-242.5C200,-242.5 28,-242.5 28,-242.5 22,-242.5 16,-236.5 16,-230.5 16,-230.5 16,-218.5 16,-218.5 16,-212.5 22,-206.5 28,-206.5 28,-206.5 200,-206.5 200,-206.5 206,-206.5 212,-212.5 212,-218.5 212,-218.5 212,-230.5 212,-230.5 212,-236.5 206,-242.5 200,-242.5"/>
<text xml:space="preserve" text-anchor="middle" x="114" y="-227" font-family="Arial" font-size="10.00">OpenVINOModelProfileRegistrySnapshot</text>
<text xml:space="preserve" text-anchor="middle" x="114" y="-215" font-family="Arial" font-size="10.00">profile_names/tasks/count</text>
</g>
<!-- ProfileRegistry&#45;&gt;ProfileSnapshot -->
<g id="edge3" class="edge">
<title>ProfileRegistry&#45;&gt;ProfileSnapshot</title>
<path fill="none" stroke="black" d="M88.5,-308.26C88.5,-308.26 88.5,-251.44 88.5,-251.44"/>
<polygon fill="black" stroke="black" points="90.95,-251.44 88.5,-244.44 86.05,-251.44 90.95,-251.44"/>
<text xml:space="preserve" text-anchor="middle" x="143.75" y="-281.95" font-family="Arial" font-size="9.00">snapshot</text>
</g>
<!-- BackendFactory -->
<g id="node6" class="node">
<title>BackendFactory</title>
<path fill="#efebe9" stroke="#6d4c41" d="M408.62,-242.5C408.62,-242.5 297.38,-242.5 297.38,-242.5 291.38,-242.5 285.38,-236.5 285.38,-230.5 285.38,-230.5 285.38,-218.5 285.38,-218.5 285.38,-212.5 291.38,-206.5 297.38,-206.5 297.38,-206.5 408.62,-206.5 408.62,-206.5 414.62,-206.5 420.62,-212.5 420.62,-218.5 420.62,-218.5 420.62,-230.5 420.62,-230.5 420.62,-236.5 414.62,-242.5 408.62,-242.5"/>
<text xml:space="preserve" text-anchor="middle" x="353" y="-227" font-family="Arial" font-size="10.00">OpenVINOBackendFactory</text>
<text xml:space="preserve" text-anchor="middle" x="353" y="-215" font-family="Arial" font-size="10.00">explicit activation</text>
</g>
<!-- ProfileRegistry&#45;&gt;BackendFactory -->
<g id="edge7" class="edge">
<title>ProfileRegistry&#45;&gt;BackendFactory</title>
<path fill="none" stroke="black" d="M212.73,-327C219.59,-327 224,-327 224,-327 224,-327 224,-225 224,-225 224,-225 276.59,-225 276.59,-225"/>
<polygon fill="black" stroke="black" points="276.59,-227.45 283.59,-225 276.59,-222.55 276.59,-227.45"/>
<text xml:space="preserve" text-anchor="middle" x="336" y="-281.95" font-family="Arial" font-size="9.00">select(profile_name)</text>
</g>
<!-- Embedding -->
<g id="node13" class="node">
<title>Embedding</title>
<path fill="#f1f8e9" stroke="#558b2f" d="M772.62,-242.5C772.62,-242.5 691.38,-242.5 691.38,-242.5 685.38,-242.5 679.38,-236.5 679.38,-230.5 679.38,-230.5 679.38,-218.5 679.38,-218.5 679.38,-212.5 685.38,-206.5 691.38,-206.5 691.38,-206.5 772.62,-206.5 772.62,-206.5 778.62,-206.5 784.62,-212.5 784.62,-218.5 784.62,-218.5 784.62,-230.5 784.62,-230.5 784.62,-236.5 778.62,-242.5 772.62,-242.5"/>
<text xml:space="preserve" text-anchor="middle" x="732" y="-227" font-family="Arial" font-size="10.00">profil possible</text>
<text xml:space="preserve" text-anchor="middle" x="732" y="-215" font-family="Arial" font-size="10.00">openvino.embedding</text>
</g>
<!-- ProfileRegistry&#45;&gt;Embedding -->
<g id="edge4" class="edge">
<title>ProfileRegistry&#45;&gt;Embedding</title>
<path fill="none" stroke="black" stroke-dasharray="1,5" d="M119.38,-308.06C119.38,-288.07 119.38,-259 119.38,-259 119.38,-259 732,-259 732,-259 732,-259 732,-251.48 732,-251.48"/>
<polygon fill="black" stroke="black" points="734.45,-251.48 732,-244.48 729.55,-251.48 734.45,-251.48"/>
<text xml:space="preserve" text-anchor="middle" x="775.5" y="-281.95" font-family="Arial" font-size="9.00">by_task(&#39;embedding&#39;)</text>
</g>
<!-- Generation -->
<g id="node14" class="node">
<title>Generation</title>
<path fill="#f1f8e9" stroke="#558b2f" d="M893.5,-242.5C893.5,-242.5 814.5,-242.5 814.5,-242.5 808.5,-242.5 802.5,-236.5 802.5,-230.5 802.5,-230.5 802.5,-218.5 802.5,-218.5 802.5,-212.5 808.5,-206.5 814.5,-206.5 814.5,-206.5 893.5,-206.5 893.5,-206.5 899.5,-206.5 905.5,-212.5 905.5,-218.5 905.5,-218.5 905.5,-230.5 905.5,-230.5 905.5,-236.5 899.5,-242.5 893.5,-242.5"/>
<text xml:space="preserve" text-anchor="middle" x="854" y="-227" font-family="Arial" font-size="10.00">profil possible</text>
<text xml:space="preserve" text-anchor="middle" x="854" y="-215" font-family="Arial" font-size="10.00">openvino.generation</text>
</g>
<!-- ProfileRegistry&#45;&gt;Generation -->
<g id="edge5" class="edge">
<title>ProfileRegistry&#45;&gt;Generation</title>
<path fill="none" stroke="black" stroke-dasharray="1,5" d="M150.25,-308.27C150.25,-293.8 150.25,-276 150.25,-276 150.25,-276 854,-276 854,-276 854,-276 854,-251.32 854,-251.32"/>
<polygon fill="black" stroke="black" points="856.45,-251.32 854,-244.32 851.55,-251.32 856.45,-251.32"/>
<text xml:space="preserve" text-anchor="middle" x="896.38" y="-281.95" font-family="Arial" font-size="9.00">by_task(&#39;generation&#39;)</text>
</g>
<!-- Raw -->
<g id="node15" class="node">
<title>Raw</title>
<path fill="#f1f8e9" stroke="#558b2f" d="M988,-242.5C988,-242.5 936,-242.5 936,-242.5 930,-242.5 924,-236.5 924,-230.5 924,-230.5 924,-218.5 924,-218.5 924,-212.5 930,-206.5 936,-206.5 936,-206.5 988,-206.5 988,-206.5 994,-206.5 1000,-212.5 1000,-218.5 1000,-218.5 1000,-230.5 1000,-230.5 1000,-236.5 994,-242.5 988,-242.5"/>
<text xml:space="preserve" text-anchor="middle" x="962" y="-227" font-family="Arial" font-size="10.00">profil possible</text>
<text xml:space="preserve" text-anchor="middle" x="962" y="-215" font-family="Arial" font-size="10.00">openvino.raw</text>
</g>
<!-- ProfileRegistry&#45;&gt;Raw -->
<g id="edge6" class="edge">
<title>ProfileRegistry&#45;&gt;Raw</title>
<path fill="none" stroke="black" stroke-dasharray="1,5" d="M181.12,-308.04C181.12,-299.84 181.12,-292 181.12,-292 181.12,-292 962,-292 962,-292 962,-292 962,-251.46 962,-251.46"/>
<polygon fill="black" stroke="black" points="964.45,-251.46 962,-244.46 959.55,-251.46 964.45,-251.46"/>
<text xml:space="preserve" text-anchor="middle" x="989.75" y="-281.95" font-family="Arial" font-size="9.00">by_task(&#39;raw&#39;)</text>
</g>
<!-- SupportedTasks -->
<g id="node4" class="node">
<title>SupportedTasks</title>
<path fill="#e0f7fa" stroke="#00838f" d="M200.12,-519.5C200.12,-519.5 49.88,-519.5 49.88,-519.5 43.88,-519.5 37.88,-513.5 37.88,-507.5 37.88,-507.5 37.88,-495.5 37.88,-495.5 37.88,-489.5 43.88,-483.5 49.88,-483.5 49.88,-483.5 200.12,-483.5 200.12,-483.5 206.12,-483.5 212.12,-489.5 212.12,-495.5 212.12,-495.5 212.12,-507.5 212.12,-507.5 212.12,-513.5 206.12,-519.5 200.12,-519.5"/>
<text xml:space="preserve" text-anchor="middle" x="125" y="-504" font-family="Arial" font-size="10.00">SUPPORTED_OPENVINO_TASKS</text>
<text xml:space="preserve" text-anchor="middle" x="125" y="-492" font-family="Arial" font-size="10.00">embedding / generation / raw</text>
</g>
<!-- SupportedTasks&#45;&gt;Profile -->
<g id="edge1" class="edge">
<title>SupportedTasks&#45;&gt;Profile</title>
<path fill="none" stroke="black" d="M138.94,-483.08C138.94,-483.08 138.94,-455.43 138.94,-455.43"/>
<polygon fill="black" stroke="black" points="141.39,-455.43 138.94,-448.43 136.49,-455.43 141.39,-455.43"/>
</g>
<!-- BackendConfig -->
<g id="node5" class="node">
<title>BackendConfig</title>
<g id="a_node5"><a xlink:href="41_openvino_backend.svg" xlink:title="OpenVINOBackendConfig\nfrom profile">
<path fill="#efebe9" stroke="#6d4c41" d="M354.38,-134.5C354.38,-134.5 247.62,-134.5 247.62,-134.5 241.62,-134.5 235.62,-128.5 235.62,-122.5 235.62,-122.5 235.62,-110.5 235.62,-110.5 235.62,-104.5 241.62,-98.5 247.62,-98.5 247.62,-98.5 354.38,-98.5 354.38,-98.5 360.38,-98.5 366.38,-104.5 366.38,-110.5 366.38,-110.5 366.38,-122.5 366.38,-122.5 366.38,-128.5 360.38,-134.5 354.38,-134.5"/>
<text xml:space="preserve" text-anchor="middle" x="301" y="-119" font-family="Arial" font-size="10.00">OpenVINOBackendConfig</text>
<text xml:space="preserve" text-anchor="middle" x="301" y="-107" font-family="Arial" font-size="10.00">from profile</text>
</a>
</g>
</g>
<!-- BackendFactory&#45;&gt;BackendConfig -->
<g id="edge8" class="edge">
<title>BackendFactory&#45;&gt;BackendConfig</title>
<path fill="none" stroke="black" d="M325.88,-206.18C325.88,-206.18 325.88,-143.42 325.88,-143.42"/>
<polygon fill="black" stroke="black" points="328.33,-143.42 325.88,-136.42 323.43,-143.42 328.33,-143.42"/>
<text xml:space="preserve" text-anchor="middle" x="355" y="-167.2" font-family="Arial" font-size="9.00">to_backend_config</text>
</g>
<!-- BuildResult -->
<g id="node7" class="node">
<title>BuildResult</title>
<path fill="#efebe9" stroke="#6d4c41" d="M525.25,-134.5C525.25,-134.5 396.75,-134.5 396.75,-134.5 390.75,-134.5 384.75,-128.5 384.75,-122.5 384.75,-122.5 384.75,-110.5 384.75,-110.5 384.75,-104.5 390.75,-98.5 396.75,-98.5 396.75,-98.5 525.25,-98.5 525.25,-98.5 531.25,-98.5 537.25,-104.5 537.25,-110.5 537.25,-110.5 537.25,-122.5 537.25,-122.5 537.25,-128.5 531.25,-134.5 525.25,-134.5"/>
<text xml:space="preserve" text-anchor="middle" x="461" y="-119" font-family="Arial" font-size="10.00">OpenVINOBackendBuildResult</text>
<text xml:space="preserve" text-anchor="middle" x="461" y="-107" font-family="Arial" font-size="10.00">immutable trace</text>
</g>
<!-- BackendFactory&#45;&gt;BuildResult -->
<g id="edge10" class="edge">
<title>BackendFactory&#45;&gt;BuildResult</title>
<path fill="none" stroke="black" stroke-dasharray="1,5" d="M402.69,-206.18C402.69,-206.18 402.69,-143.42 402.69,-143.42"/>
<polygon fill="black" stroke="black" points="405.14,-143.42 402.69,-136.42 400.24,-143.42 405.14,-143.42"/>
<text xml:space="preserve" text-anchor="middle" x="456.12" y="-167.2" font-family="Arial" font-size="9.00">trace</text>
</g>
<!-- BackendRegistry -->
<g id="node8" class="node">
<title>BackendRegistry</title>
<g id="a_node8"><a xlink:href="40_inference.svg" xlink:title="BackendRegistry\nexecutable backends">
<path fill="#efebe9" stroke="#6d4c41" d="M651.12,-134.5C651.12,-134.5 566.88,-134.5 566.88,-134.5 560.88,-134.5 554.88,-128.5 554.88,-122.5 554.88,-122.5 554.88,-110.5 554.88,-110.5 554.88,-104.5 560.88,-98.5 566.88,-98.5 566.88,-98.5 651.12,-98.5 651.12,-98.5 657.12,-98.5 663.12,-104.5 663.12,-110.5 663.12,-110.5 663.12,-122.5 663.12,-122.5 663.12,-128.5 657.12,-134.5 651.12,-134.5"/>
<text xml:space="preserve" text-anchor="middle" x="609" y="-119" font-family="Arial" font-size="10.00">BackendRegistry</text>
<text xml:space="preserve" text-anchor="middle" x="609" y="-107" font-family="Arial" font-size="10.00">executable backends</text>
</a>
</g>
</g>
<!-- BackendFactory&#45;&gt;BackendRegistry -->
<g id="edge9" class="edge">
<title>BackendFactory&#45;&gt;BackendRegistry</title>
<path fill="none" stroke="black" stroke-dasharray="5,2" d="M421.04,-225C489.5,-225 585,-225 585,-225 585,-225 585,-143.42 585,-143.42"/>
<polygon fill="black" stroke="black" points="587.45,-143.42 585,-136.42 582.55,-143.42 587.45,-143.42"/>
<text xml:space="preserve" text-anchor="middle" x="583.12" y="-167.2" font-family="Arial" font-size="9.00">register backend</text>
</g>
<!-- Runtime -->
<g id="node9" class="node">
<title>Runtime</title>
<g id="a_node9"><a xlink:href="42_openvino_runtime.svg" xlink:title="RealOpenVINORuntime\nraw&#45;input execution">
<path fill="#efebe9" stroke="#6d4c41" d="M611.5,-52C611.5,-52 514.5,-52 514.5,-52 508.5,-52 502.5,-46 502.5,-40 502.5,-40 502.5,-28 502.5,-28 502.5,-22 508.5,-16 514.5,-16 514.5,-16 611.5,-16 611.5,-16 617.5,-16 623.5,-22 623.5,-28 623.5,-28 623.5,-40 623.5,-40 623.5,-46 617.5,-52 611.5,-52"/>
<text xml:space="preserve" text-anchor="middle" x="563" y="-36.5" font-family="Arial" font-size="10.00">RealOpenVINORuntime</text>
<text xml:space="preserve" text-anchor="middle" x="563" y="-24.5" font-family="Arial" font-size="10.00">raw&#45;input execution</text>
</a>
</g>
</g>
<!-- BackendRegistry&#45;&gt;Runtime -->
<g id="edge11" class="edge">
<title>BackendRegistry&#45;&gt;Runtime</title>
<path fill="none" stroke="black" stroke-dasharray="5,2" d="M589.19,-98.19C589.19,-98.19 589.19,-60.77 589.19,-60.77"/>
<polygon fill="black" stroke="black" points="591.64,-60.77 589.19,-53.77 586.74,-60.77 591.64,-60.77"/>
<text xml:space="preserve" text-anchor="middle" x="612.88" y="-71.95" font-family="Arial" font-size="9.00">selected profile backend</text>
</g>
<!-- Nav_Inference -->
<g id="node16" class="node">
<title>Nav_Inference</title>
<g id="a_node16"><a xlink:href="40_inference.svg" xlink:title="Inference">
<path fill="lightgrey" stroke="none" d="M723.25,-188.5C723.25,-188.5 690.75,-188.5 690.75,-188.5 684.75,-188.5 678.75,-182.5 678.75,-176.5 678.75,-176.5 678.75,-164.5 678.75,-164.5 678.75,-158.5 684.75,-152.5 690.75,-152.5 690.75,-152.5 723.25,-152.5 723.25,-152.5 729.25,-152.5 735.25,-158.5 735.25,-164.5 735.25,-164.5 735.25,-176.5 735.25,-176.5 735.25,-182.5 729.25,-188.5 723.25,-188.5"/>
<text xml:space="preserve" text-anchor="middle" x="707" y="-167" font-family="Arial" font-size="10.00">Inference</text>
</a>
</g>
</g>
<!-- Nav_Backend -->
<g id="node17" class="node">
<title>Nav_Backend</title>
<g id="a_node17"><a xlink:href="41_openvino_backend.svg" xlink:title="OpenVINOBackend">
<path fill="lightgrey" stroke="none" d="M830.12,-188.5C830.12,-188.5 751.88,-188.5 751.88,-188.5 745.88,-188.5 739.88,-182.5 739.88,-176.5 739.88,-176.5 739.88,-164.5 739.88,-164.5 739.88,-158.5 745.88,-152.5 751.88,-152.5 751.88,-152.5 830.12,-152.5 830.12,-152.5 836.12,-152.5 842.12,-158.5 842.12,-164.5 842.12,-164.5 842.12,-176.5 842.12,-176.5 842.12,-182.5 836.12,-188.5 830.12,-188.5"/>
<text xml:space="preserve" text-anchor="middle" x="791" y="-167" font-family="Arial" font-size="10.00">OpenVINOBackend</text>
</a>
</g>
</g>
<!-- Nav_Runtime -->
<g id="node18" class="node">
<title>Nav_Runtime</title>
<g id="a_node18"><a xlink:href="42_openvino_runtime.svg" xlink:title="RealOpenVINORuntime">
<path fill="lightgrey" stroke="none" d="M956.5,-188.5C956.5,-188.5 859.5,-188.5 859.5,-188.5 853.5,-188.5 847.5,-182.5 847.5,-176.5 847.5,-176.5 847.5,-164.5 847.5,-164.5 847.5,-158.5 853.5,-152.5 859.5,-152.5 859.5,-152.5 956.5,-152.5 956.5,-152.5 962.5,-152.5 968.5,-158.5 968.5,-164.5 968.5,-164.5 968.5,-176.5 968.5,-176.5 968.5,-182.5 962.5,-188.5 956.5,-188.5"/>
<text xml:space="preserve" text-anchor="middle" x="908" y="-167" font-family="Arial" font-size="10.00">RealOpenVINORuntime</text>
</a>
</g>
</g>
<!-- Nav_Global -->
<g id="node19" class="node">
<title>Nav_Global</title>
<g id="a_node19"><a xlink:href="../00_global.svg" xlink:title="Global">
<path fill="lightgrey" stroke="none" d="M1016,-188.5C1016,-188.5 986,-188.5 986,-188.5 980,-188.5 974,-182.5 974,-176.5 974,-176.5 974,-164.5 974,-164.5 974,-158.5 980,-152.5 986,-152.5 986,-152.5 1016,-152.5 1016,-152.5 1022,-152.5 1028,-158.5 1028,-164.5 1028,-164.5 1028,-176.5 1028,-176.5 1028,-182.5 1022,-188.5 1016,-188.5"/>
<text xml:space="preserve" text-anchor="middle" x="1001" y="-167" font-family="Arial" font-size="10.00">Global</text>
</a>
</g>
</g>
</g>
</svg>
