<?xml version="1.0" encoding="UTF-8" standalone="no"?>
<!DOCTYPE svg PUBLIC "-//W3C//DTD SVG 1.1//EN"
 "http://www.w3.org/Graphics/SVG/1.1/DTD/svg11.dtd">
<!-- Generated by graphviz version 14.1.3 (20260303.0454)
 -->
<!-- Title: OpenVINOProfiles Pages: 1 -->
<svg width="1127pt" height="463pt"
 viewBox="0.00 0.00 1127.00 463.00" xmlns="http://www.w3.org/2000/svg" xmlns:xlink="http://www.w3.org/1999/xlink">
<g id="graph0" class="graph" transform="scale(1 1) rotate(0) translate(4 459)">
<title>OpenVINOProfiles</title>
<polygon fill="white" stroke="none" points="-4,4 -4,-459 1123,-459 1123,4 -4,4"/>
<g id="clust1" class="cluster">
<title>cluster_profiles</title>
<polygon fill="#e0f7fa" stroke="#00838f" points="8,-116 8,-447 220,-447 220,-116 8,-116"/>
<text xml:space="preserve" text-anchor="middle" x="114" y="-432.55" font-family="Arial" font-size="11.00">Profils déclaratifs Phase 3.0</text>
</g>
<g id="clust2" class="cluster">
<title>cluster_backend_bridge</title>
<polygon fill="#efebe9" stroke="#6d4c41" points="561,-8 561,-272 708,-272 708,-8 561,-8"/>
<text xml:space="preserve" text-anchor="middle" x="634.5" y="-257.55" font-family="Arial" font-size="11.00">Pont vers backend réel</text>
</g>
<g id="clust3" class="cluster">
<title>cluster_decision</title>
<polygon fill="#ffebee" stroke="#b71c1c" points="716,-198.5 716,-272 1111,-272 1111,-198.5 716,-198.5"/>
<text xml:space="preserve" text-anchor="middle" x="913.5" y="-257.55" font-family="Arial" font-size="11.00">Choix non imposé</text>
</g>
<!-- Profile -->
<g id="node1" class="node">
<title>Profile</title>
<path fill="#e0f7fa" stroke="#00838f" d="M200.25,-344.5C200.25,-344.5 77.75,-344.5 77.75,-344.5 71.75,-344.5 65.75,-338.5 65.75,-332.5 65.75,-332.5 65.75,-320.5 65.75,-320.5 65.75,-314.5 71.75,-308.5 77.75,-308.5 77.75,-308.5 200.25,-308.5 200.25,-308.5 206.25,-308.5 212.25,-314.5 212.25,-320.5 212.25,-320.5 212.25,-332.5 212.25,-332.5 212.25,-338.5 206.25,-344.5 200.25,-344.5"/>
<text xml:space="preserve" text-anchor="middle" x="139" y="-329" font-family="Arial" font-size="10.00">OpenVINOModelProfile</text>
<text xml:space="preserve" text-anchor="middle" x="139" y="-317" font-family="Arial" font-size="10.00">name/model_path/task/device</text>
</g>
<!-- ProfileRegistry -->
<g id="node2" class="node">
<title>ProfileRegistry</title>
<path fill="#e0f7fa" stroke="#00838f" d="M200.38,-242.5C200.38,-242.5 69.62,-242.5 69.62,-242.5 63.62,-242.5 57.62,-236.5 57.62,-230.5 57.62,-230.5 57.62,-218.5 57.62,-218.5 57.62,-212.5 63.62,-206.5 69.62,-206.5 69.62,-206.5 200.38,-206.5 200.38,-206.5 206.38,-206.5 212.38,-212.5 212.38,-218.5 212.38,-218.5 212.38,-230.5 212.38,-230.5 212.38,-236.5 206.38,-242.5 200.38,-242.5"/>
<text xml:space="preserve" text-anchor="middle" x="135" y="-227" font-family="Arial" font-size="10.00">OpenVINOModelProfileRegistry</text>
<text xml:space="preserve" text-anchor="middle" x="135" y="-215" font-family="Arial" font-size="10.00">profiles only, no runtime</text>
</g>
<!-- Profile&#45;&gt;ProfileRegistry -->
<g id="edge2" class="edge">
<title>Profile&#45;&gt;ProfileRegistry</title>
<path fill="none" stroke="black" d="M139,-308.26C139,-308.26 139,-251.44 139,-251.44"/>
<polygon fill="black" stroke="black" points="141.45,-251.44 139,-244.44 136.55,-251.44 141.45,-251.44"/>
<text xml:space="preserve" text-anchor="middle" x="152.38" y="-281.95" font-family="Arial" font-size="9.00">register</text>
</g>
<!-- BackendConfig -->
<g id="node5" class="node">
<title>BackendConfig</title>
<g id="a_node5"><a xlink:href="41_openvino_backend.svg" xlink:title="OpenVINOBackendConfig\nfrom profile">
<path fill="#efebe9" stroke="#6d4c41" d="M687.38,-242.5C687.38,-242.5 580.62,-242.5 580.62,-242.5 574.62,-242.5 568.62,-236.5 568.62,-230.5 568.62,-230.5 568.62,-218.5 568.62,-218.5 568.62,-212.5 574.62,-206.5 580.62,-206.5 580.62,-206.5 687.38,-206.5 687.38,-206.5 693.38,-206.5 699.38,-212.5 699.38,-218.5 699.38,-218.5 699.38,-230.5 699.38,-230.5 699.38,-236.5 693.38,-242.5 687.38,-242.5"/>
<text xml:space="preserve" text-anchor="middle" x="634" y="-227" font-family="Arial" font-size="10.00">OpenVINOBackendConfig</text>
<text xml:space="preserve" text-anchor="middle" x="634" y="-215" font-family="Arial" font-size="10.00">from profile</text>
</a>
</g>
</g>
<!-- Profile&#45;&gt;BackendConfig -->
<g id="edge7" class="edge">
<title>Profile&#45;&gt;BackendConfig</title>
<path fill="none" stroke="black" d="M212.57,-316C350.46,-316 634,-316 634,-316 634,-316 634,-251.09 634,-251.09"/>
<polygon fill="black" stroke="black" points="636.45,-251.09 634,-244.09 631.55,-251.09 636.45,-251.09"/>
<text xml:space="preserve" text-anchor="middle" x="452" y="-281.95" font-family="Arial" font-size="9.00">to_backend_config</text>
</g>
<!-- NoDefaultModel -->
<g id="node8" class="node">
<title>NoDefaultModel</title>
<path fill="#ffebee" stroke="#b71c1c" d="M863.5,-242.5C863.5,-242.5 736.5,-242.5 736.5,-242.5 730.5,-242.5 724.5,-236.5 724.5,-230.5 724.5,-230.5 724.5,-218.5 724.5,-218.5 724.5,-212.5 730.5,-206.5 736.5,-206.5 736.5,-206.5 863.5,-206.5 863.5,-206.5 869.5,-206.5 875.5,-212.5 875.5,-218.5 875.5,-218.5 875.5,-230.5 875.5,-230.5 875.5,-236.5 869.5,-242.5 863.5,-242.5"/>
<text xml:space="preserve" text-anchor="middle" x="800" y="-221" font-family="Arial" font-size="10.00">pas de modèle par défaut forcé</text>
</g>
<!-- Profile&#45;&gt;NoDefaultModel -->
<g id="edge10" class="edge">
<title>Profile&#45;&gt;NoDefaultModel</title>
<path fill="none" stroke="black" stroke-dasharray="1,5" d="M212.58,-323C384.88,-323 800,-323 800,-323 800,-323 800,-251.08 800,-251.08"/>
<polygon fill="black" stroke="black" points="802.45,-251.08 800,-244.08 797.55,-251.08 802.45,-251.08"/>
</g>
<!-- NoTokenizer -->
<g id="node9" class="node">
<title>NoTokenizer</title>
<path fill="#ffebee" stroke="#b71c1c" d="M982.38,-242.5C982.38,-242.5 905.62,-242.5 905.62,-242.5 899.62,-242.5 893.62,-236.5 893.62,-230.5 893.62,-230.5 893.62,-218.5 893.62,-218.5 893.62,-212.5 899.62,-206.5 905.62,-206.5 905.62,-206.5 982.38,-206.5 982.38,-206.5 988.38,-206.5 994.38,-212.5 994.38,-218.5 994.38,-218.5 994.38,-230.5 994.38,-230.5 994.38,-236.5 988.38,-242.5 982.38,-242.5"/>
<text xml:space="preserve" text-anchor="middle" x="944" y="-221" font-family="Arial" font-size="10.00">pas de tokenizer ici</text>
</g>
<!-- Profile&#45;&gt;NoTokenizer -->
<g id="edge11" class="edge">
<title>Profile&#45;&gt;NoTokenizer</title>
<path fill="none" stroke="black" stroke-dasharray="1,5" d="M212.57,-330C411.3,-330 944,-330 944,-330 944,-330 944,-251.39 944,-251.39"/>
<polygon fill="black" stroke="black" points="946.45,-251.39 944,-244.39 941.55,-251.39 946.45,-251.39"/>
</g>
<!-- NoQdrant -->
<g id="node10" class="node">
<title>NoQdrant</title>
<path fill="#ffebee" stroke="#b71c1c" d="M1091.12,-242.5C1091.12,-242.5 1024.88,-242.5 1024.88,-242.5 1018.88,-242.5 1012.88,-236.5 1012.88,-230.5 1012.88,-230.5 1012.88,-218.5 1012.88,-218.5 1012.88,-212.5 1018.88,-206.5 1024.88,-206.5 1024.88,-206.5 1091.12,-206.5 1091.12,-206.5 1097.12,-206.5 1103.12,-212.5 1103.12,-218.5 1103.12,-218.5 1103.12,-230.5 1103.12,-230.5 1103.12,-236.5 1097.12,-242.5 1091.12,-242.5"/>
<text xml:space="preserve" text-anchor="middle" x="1058" y="-221" font-family="Arial" font-size="10.00">pas de Qdrant ici</text>
</g>
<!-- Profile&#45;&gt;NoQdrant -->
<g id="edge12" class="edge">
<title>Profile&#45;&gt;NoQdrant</title>
<path fill="none" stroke="black" stroke-dasharray="1,5" d="M212.65,-337C430.73,-337 1058,-337 1058,-337 1058,-337 1058,-251.34 1058,-251.34"/>
<polygon fill="black" stroke="black" points="1060.45,-251.34 1058,-244.34 1055.55,-251.34 1060.45,-251.34"/>
</g>
<!-- ProfileSnapshot -->
<g id="node3" class="node">
<title>ProfileSnapshot</title>
<path fill="#e0f7fa" stroke="#00838f" d="M200,-160C200,-160 28,-160 28,-160 22,-160 16,-154 16,-148 16,-148 16,-136 16,-136 16,-130 22,-124 28,-124 28,-124 200,-124 200,-124 206,-124 212,-130 212,-136 212,-136 212,-148 212,-148 212,-154 206,-160 200,-160"/>
<text xml:space="preserve" text-anchor="middle" x="114" y="-144.5" font-family="Arial" font-size="10.00">OpenVINOModelProfileRegistrySnapshot</text>
<text xml:space="preserve" text-anchor="middle" x="114" y="-132.5" font-family="Arial" font-size="10.00">profile_names/tasks/count</text>
</g>
<!-- ProfileRegistry&#45;&gt;ProfileSnapshot -->
<g id="edge3" class="edge">
<title>ProfileRegistry&#45;&gt;ProfileSnapshot</title>
<path fill="none" stroke="black" d="M134.81,-206.19C134.81,-206.19 134.81,-168.77 134.81,-168.77"/>
<polygon fill="black" stroke="black" points="137.26,-168.77 134.81,-161.77 132.36,-168.77 137.26,-168.77"/>
<text xml:space="preserve" text-anchor="middle" x="143.75" y="-179.95" font-family="Arial" font-size="9.00">snapshot</text>
</g>
<!-- Embedding -->
<g id="node11" class="node">
<title>Embedding</title>
<path fill="#f1f8e9" stroke="#558b2f" d="M323.62,-160C323.62,-160 242.38,-160 242.38,-160 236.38,-160 230.38,-154 230.38,-148 230.38,-148 230.38,-136 230.38,-136 230.38,-130 236.38,-124 242.38,-124 242.38,-124 323.62,-124 323.62,-124 329.62,-124 335.62,-130 335.62,-136 335.62,-136 335.62,-148 335.62,-148 335.62,-154 329.62,-160 323.62,-160"/>
<text xml:space="preserve" text-anchor="middle" x="283" y="-144.5" font-family="Arial" font-size="10.00">profil possible</text>
<text xml:space="preserve" text-anchor="middle" x="283" y="-132.5" font-family="Arial" font-size="10.00">openvino.embedding</text>
</g>
<!-- ProfileRegistry&#45;&gt;Embedding -->
<g id="edge4" class="edge">
<title>ProfileRegistry&#45;&gt;Embedding</title>
<path fill="none" stroke="black" stroke-dasharray="1,5" d="M212.47,-216C248.28,-216 283,-216 283,-216 283,-216 283,-168.81 283,-168.81"/>
<polygon fill="black" stroke="black" points="285.45,-168.81 283,-161.81 280.55,-168.81 285.45,-168.81"/>
<text xml:space="preserve" text-anchor="middle" x="322.5" y="-179.95" font-family="Arial" font-size="9.00">by_task(&#39;embedding&#39;)</text>
</g>
<!-- Generation -->
<g id="node12" class="node">
<title>Generation</title>
<path fill="#f1f8e9" stroke="#558b2f" d="M444.5,-160C444.5,-160 365.5,-160 365.5,-160 359.5,-160 353.5,-154 353.5,-148 353.5,-148 353.5,-136 353.5,-136 353.5,-130 359.5,-124 365.5,-124 365.5,-124 444.5,-124 444.5,-124 450.5,-124 456.5,-130 456.5,-136 456.5,-136 456.5,-148 456.5,-148 456.5,-154 450.5,-160 444.5,-160"/>
<text xml:space="preserve" text-anchor="middle" x="405" y="-144.5" font-family="Arial" font-size="10.00">profil possible</text>
<text xml:space="preserve" text-anchor="middle" x="405" y="-132.5" font-family="Arial" font-size="10.00">openvino.generation</text>
</g>
<!-- ProfileRegistry&#45;&gt;Generation -->
<g id="edge5" class="edge">
<title>ProfileRegistry&#45;&gt;Generation</title>
<path fill="none" stroke="black" stroke-dasharray="1,5" d="M212.73,-225C292.5,-225 405,-225 405,-225 405,-225 405,-168.93 405,-168.93"/>
<polygon fill="black" stroke="black" points="407.45,-168.93 405,-161.93 402.55,-168.93 407.45,-168.93"/>
<text xml:space="preserve" text-anchor="middle" x="431.38" y="-179.95" font-family="Arial" font-size="9.00">by_task(&#39;generation&#39;)</text>
</g>
<!-- Raw -->
<g id="node13" class="node">
<title>Raw</title>
<path fill="#f1f8e9" stroke="#558b2f" d="M539,-160C539,-160 487,-160 487,-160 481,-160 475,-154 475,-148 475,-148 475,-136 475,-136 475,-130 481,-124 487,-124 487,-124 539,-124 539,-124 545,-124 551,-130 551,-136 551,-136 551,-148 551,-148 551,-154 545,-160 539,-160"/>
<text xml:space="preserve" text-anchor="middle" x="513" y="-144.5" font-family="Arial" font-size="10.00">profil possible</text>
<text xml:space="preserve" text-anchor="middle" x="513" y="-132.5" font-family="Arial" font-size="10.00">openvino.raw</text>
</g>
<!-- ProfileRegistry&#45;&gt;Raw -->
<g id="edge6" class="edge">
<title>ProfileRegistry&#45;&gt;Raw</title>
<path fill="none" stroke="black" stroke-dasharray="1,5" d="M212.86,-234C323.52,-234 513,-234 513,-234 513,-234 513,-168.69 513,-168.69"/>
<polygon fill="black" stroke="black" points="515.45,-168.69 513,-161.69 510.55,-168.69 515.45,-168.69"/>
<text xml:space="preserve" text-anchor="middle" x="524.75" y="-179.95" font-family="Arial" font-size="9.00">by_task(&#39;raw&#39;)</text>
</g>
<!-- SupportedTasks -->
<g id="node4" class="node">
<title>SupportedTasks</title>
<path fill="#e0f7fa" stroke="#00838f" d="M200.12,-417.5C200.12,-417.5 49.88,-417.5 49.88,-417.5 43.88,-417.5 37.88,-411.5 37.88,-405.5 37.88,-405.5 37.88,-393.5 37.88,-393.5 37.88,-387.5 43.88,-381.5 49.88,-381.5 49.88,-381.5 200.12,-381.5 200.12,-381.5 206.12,-381.5 212.12,-387.5 212.12,-393.5 212.12,-393.5 212.12,-405.5 212.12,-405.5 212.12,-411.5 206.12,-417.5 200.12,-417.5"/>
<text xml:space="preserve" text-anchor="middle" x="125" y="-402" font-family="Arial" font-size="10.00">SUPPORTED_OPENVINO_TASKS</text>
<text xml:space="preserve" text-anchor="middle" x="125" y="-390" font-family="Arial" font-size="10.00">embedding / generation / raw</text>
</g>
<!-- SupportedTasks&#45;&gt;Profile -->
<g id="edge1" class="edge">
<title>SupportedTasks&#45;&gt;Profile</title>
<path fill="none" stroke="black" d="M138.94,-381.08C138.94,-381.08 138.94,-353.43 138.94,-353.43"/>
<polygon fill="black" stroke="black" points="141.39,-353.43 138.94,-346.43 136.49,-353.43 141.39,-353.43"/>
</g>
<!-- BackendRegistry -->
<g id="node6" class="node">
<title>BackendRegistry</title>
<g id="a_node6"><a xlink:href="40_inference.svg" xlink:title="BackendRegistry\nexecutable backends">
<path fill="#efebe9" stroke="#6d4c41" d="M665.12,-160C665.12,-160 580.88,-160 580.88,-160 574.88,-160 568.88,-154 568.88,-148 568.88,-148 568.88,-136 568.88,-136 568.88,-130 574.88,-124 580.88,-124 580.88,-124 665.12,-124 665.12,-124 671.12,-124 677.12,-130 677.12,-136 677.12,-136 677.12,-148 677.12,-148 677.12,-154 671.12,-160 665.12,-160"/>
<text xml:space="preserve" text-anchor="middle" x="623" y="-144.5" font-family="Arial" font-size="10.00">BackendRegistry</text>
<text xml:space="preserve" text-anchor="middle" x="623" y="-132.5" font-family="Arial" font-size="10.00">executable backends</text>
</a>
</g>
</g>
<!-- BackendConfig&#45;&gt;BackendRegistry -->
<g id="edge8" class="edge">
<title>BackendConfig&#45;&gt;BackendRegistry</title>
<path fill="none" stroke="black" stroke-dasharray="5,2" d="M623,-206.19C623,-206.19 623,-168.77 623,-168.77"/>
<polygon fill="black" stroke="black" points="625.45,-168.77 623,-161.77 620.55,-168.77 625.45,-168.77"/>
<text xml:space="preserve" text-anchor="middle" x="643.25" y="-179.95" font-family="Arial" font-size="9.00">future backend construction</text>
</g>
<!-- Runtime -->
<g id="node7" class="node">
<title>Runtime</title>
<g id="a_node7"><a xlink:href="42_openvino_runtime.svg" xlink:title="RealOpenVINORuntime\nraw&#45;input execution">
<path fill="#efebe9" stroke="#6d4c41" d="M678.5,-52C678.5,-52 581.5,-52 581.5,-52 575.5,-52 569.5,-46 569.5,-40 569.5,-40 569.5,-28 569.5,-28 569.5,-22 575.5,-16 581.5,-16 581.5,-16 678.5,-16 678.5,-16 684.5,-16 690.5,-22 690.5,-28 690.5,-28 690.5,-40 690.5,-40 690.5,-46 684.5,-52 678.5,-52"/>
<text xml:space="preserve" text-anchor="middle" x="630" y="-36.5" font-family="Arial" font-size="10.00">RealOpenVINORuntime</text>
<text xml:space="preserve" text-anchor="middle" x="630" y="-24.5" font-family="Arial" font-size="10.00">raw&#45;input execution</text>
</a>
</g>
</g>
<!-- BackendRegistry&#45;&gt;Runtime -->
<g id="edge9" class="edge">
<title>BackendRegistry&#45;&gt;Runtime</title>
<path fill="none" stroke="black" stroke-dasharray="5,2" d="M623.31,-123.68C623.31,-123.68 623.31,-60.92 623.31,-60.92"/>
<polygon fill="black" stroke="black" points="625.76,-60.92 623.31,-53.92 620.86,-60.92 625.76,-60.92"/>
<text xml:space="preserve" text-anchor="middle" x="649.88" y="-84.7" font-family="Arial" font-size="9.00">selected profile backend</text>
</g>
<!-- Nav_Inference -->
<g id="node14" class="node">
<title>Nav_Inference</title>
<g id="a_node14"><a xlink:href="40_inference.svg" xlink:title="Inference">
<path fill="lightgrey" stroke="none" d="M760.25,-106C760.25,-106 727.75,-106 727.75,-106 721.75,-106 715.75,-100 715.75,-94 715.75,-94 715.75,-82 715.75,-82 715.75,-76 721.75,-70 727.75,-70 727.75,-70 760.25,-70 760.25,-70 766.25,-70 772.25,-76 772.25,-82 772.25,-82 772.25,-94 772.25,-94 772.25,-100 766.25,-106 760.25,-106"/>
<text xml:space="preserve" text-anchor="middle" x="744" y="-84.5" font-family="Arial" font-size="10.00">Inference</text>
</a>
</g>
</g>
<!-- Nav_Backend -->
<g id="node15" class="node">
<title>Nav_Backend</title>
<g id="a_node15"><a xlink:href="41_openvino_backend.svg" xlink:title="OpenVINOBackend">
<path fill="lightgrey" stroke="none" d="M867.12,-106C867.12,-106 788.88,-106 788.88,-106 782.88,-106 776.88,-100 776.88,-94 776.88,-94 776.88,-82 776.88,-82 776.88,-76 782.88,-70 788.88,-70 788.88,-70 867.12,-70 867.12,-70 873.12,-70 879.12,-76 879.12,-82 879.12,-82 879.12,-94 879.12,-94 879.12,-100 873.12,-106 867.12,-106"/>
<text xml:space="preserve" text-anchor="middle" x="828" y="-84.5" font-family="Arial" font-size="10.00">OpenVINOBackend</text>
</a>
</g>
</g>
<!-- Nav_Runtime -->
<g id="node16" class="node">
<title>Nav_Runtime</title>
<g id="a_node16"><a xlink:href="42_openvino_runtime.svg" xlink:title="RealOpenVINORuntime">
<path fill="lightgrey" stroke="none" d="M993.5,-106C993.5,-106 896.5,-106 896.5,-106 890.5,-106 884.5,-100 884.5,-94 884.5,-94 884.5,-82 884.5,-82 884.5,-76 890.5,-70 896.5,-70 896.5,-70 993.5,-70 993.5,-70 999.5,-70 1005.5,-76 1005.5,-82 1005.5,-82 1005.5,-94 1005.5,-94 1005.5,-100 999.5,-106 993.5,-106"/>
<text xml:space="preserve" text-anchor="middle" x="945" y="-84.5" font-family="Arial" font-size="10.00">RealOpenVINORuntime</text>
</a>
</g>
</g>
<!-- Nav_Global -->
<g id="node17" class="node">
<title>Nav_Global</title>
<g id="a_node17"><a xlink:href="../00_global.svg" xlink:title="Global">
<path fill="lightgrey" stroke="none" d="M1053,-106C1053,-106 1023,-106 1023,-106 1017,-106 1011,-100 1011,-94 1011,-94 1011,-82 1011,-82 1011,-76 1017,-70 1023,-70 1023,-70 1053,-70 1053,-70 1059,-70 1065,-76 1065,-82 1065,-82 1065,-94 1065,-94 1065,-100 1059,-106 1053,-106"/>
<text xml:space="preserve" text-anchor="middle" x="1038" y="-84.5" font-family="Arial" font-size="10.00">Global</text>
</a>
</g>
</g>
</g>
</svg>
