<?xml version="1.0" encoding="UTF-8" standalone="no"?>
<!DOCTYPE svg PUBLIC "-//W3C//DTD SVG 1.1//EN"
 "http://www.w3.org/Graphics/SVG/1.1/DTD/svg11.dtd">
<!-- Generated by graphviz version 14.1.3 (20260303.0454)
 -->
<!-- Title: OpenVINOEmbeddingProfile Pages: 1 -->
<svg width="1328pt" height="639pt"
 viewBox="0.00 0.00 1328.00 639.00" xmlns="http://www.w3.org/2000/svg" xmlns:xlink="http://www.w3.org/1999/xlink">
<g id="graph0" class="graph" transform="scale(1 1) rotate(0) translate(4 635)">
<title>OpenVINOEmbeddingProfile</title>
<polygon fill="white" stroke="none" points="-4,4 -4,-635 1323.75,-635 1323.75,4 -4,4"/>
<g id="clust1" class="cluster">
<title>cluster_config</title>
<polygon fill="#e8f5e9" stroke="#2e7d32" points="8,-366.5 8,-623 480,-623 480,-366.5 8,-366.5"/>
<text xml:space="preserve" text-anchor="middle" x="244" y="-608.55" font-family="Arial" font-size="11.00">Configuration embedding Phase 3.2</text>
</g>
<g id="clust2" class="cluster">
<title>cluster_generic_profile</title>
<polygon fill="#e0f7fa" stroke="#00838f" points="488,-211 488,-440 658,-440 658,-211 488,-211"/>
<text xml:space="preserve" text-anchor="middle" x="573" y="-425.55" font-family="Arial" font-size="11.00">Projection vers profil générique</text>
</g>
<g id="clust3" class="cluster">
<title>cluster_not_yet</title>
<polygon fill="#ffebee" stroke="#b71c1c" points="666,-366.5 666,-440 1161,-440 1161,-366.5 666,-366.5"/>
<text xml:space="preserve" text-anchor="middle" x="913.5" y="-425.55" font-family="Arial" font-size="11.00">Non exécuté ici</text>
</g>
<!-- Config -->
<g id="node1" class="node">
<title>Config</title>
<path fill="#e8f5e9" stroke="#2e7d32" d="M459.5,-512.5C459.5,-512.5 314.5,-512.5 314.5,-512.5 308.5,-512.5 302.5,-506.5 302.5,-500.5 302.5,-500.5 302.5,-488.5 302.5,-488.5 302.5,-482.5 308.5,-476.5 314.5,-476.5 314.5,-476.5 459.5,-476.5 459.5,-476.5 465.5,-476.5 471.5,-482.5 471.5,-488.5 471.5,-488.5 471.5,-500.5 471.5,-500.5 471.5,-506.5 465.5,-512.5 459.5,-512.5"/>
<text xml:space="preserve" text-anchor="middle" x="387" y="-497" font-family="Arial" font-size="10.00">OpenVINOEmbeddingProfileConfig</text>
<text xml:space="preserve" text-anchor="middle" x="387" y="-485" font-family="Arial" font-size="10.00">model_path/name/device</text>
</g>
<!-- Register -->
<g id="node5" class="node">
<title>Register</title>
<path fill="#e8f5e9" stroke="#2e7d32" d="M460.25,-410.5C460.25,-410.5 301.75,-410.5 301.75,-410.5 295.75,-410.5 289.75,-404.5 289.75,-398.5 289.75,-398.5 289.75,-386.5 289.75,-386.5 289.75,-380.5 295.75,-374.5 301.75,-374.5 301.75,-374.5 460.25,-374.5 460.25,-374.5 466.25,-374.5 472.25,-380.5 472.25,-386.5 472.25,-386.5 472.25,-398.5 472.25,-398.5 472.25,-404.5 466.25,-410.5 460.25,-410.5"/>
<text xml:space="preserve" text-anchor="middle" x="381" y="-389" font-family="Arial" font-size="10.00">register_openvino_embedding_profile()</text>
</g>
<!-- Config&#45;&gt;Register -->
<g id="edge6" class="edge">
<title>Config&#45;&gt;Register</title>
<path fill="none" stroke="black" d="M387,-476.26C387,-476.26 387,-419.44 387,-419.44"/>
<polygon fill="black" stroke="black" points="389.45,-419.44 387,-412.44 384.55,-419.44 389.45,-419.44"/>
</g>
<!-- ToProfile -->
<g id="node6" class="node">
<title>ToProfile</title>
<path fill="#e0f7fa" stroke="#00838f" d="M583.62,-410.5C583.62,-410.5 514.38,-410.5 514.38,-410.5 508.38,-410.5 502.38,-404.5 502.38,-398.5 502.38,-398.5 502.38,-386.5 502.38,-386.5 502.38,-380.5 508.38,-374.5 514.38,-374.5 514.38,-374.5 583.62,-374.5 583.62,-374.5 589.62,-374.5 595.62,-380.5 595.62,-386.5 595.62,-386.5 595.62,-398.5 595.62,-398.5 595.62,-404.5 589.62,-410.5 583.62,-410.5"/>
<text xml:space="preserve" text-anchor="middle" x="549" y="-389" font-family="Arial" font-size="10.00">to_model_profile()</text>
</g>
<!-- Config&#45;&gt;ToProfile -->
<g id="edge4" class="edge">
<title>Config&#45;&gt;ToProfile</title>
<path fill="none" stroke="black" d="M471.8,-482C510.99,-482 549,-482 549,-482 549,-482 549,-419.13 549,-419.13"/>
<polygon fill="black" stroke="black" points="551.45,-419.13 549,-412.13 546.55,-419.13 551.45,-419.13"/>
</g>
<!-- NoTokenizer -->
<g id="node9" class="node">
<title>NoTokenizer</title>
<path fill="#ffebee" stroke="#b71c1c" d="M750,-410.5C750,-410.5 686,-410.5 686,-410.5 680,-410.5 674,-404.5 674,-398.5 674,-398.5 674,-386.5 674,-386.5 674,-380.5 680,-374.5 686,-374.5 686,-374.5 750,-374.5 750,-374.5 756,-374.5 762,-380.5 762,-386.5 762,-386.5 762,-398.5 762,-398.5 762,-404.5 756,-410.5 750,-410.5"/>
<text xml:space="preserve" text-anchor="middle" x="718" y="-389" font-family="Arial" font-size="10.00">pas de tokenizer</text>
</g>
<!-- Config&#45;&gt;NoTokenizer -->
<g id="edge12" class="edge">
<title>Config&#45;&gt;NoTokenizer</title>
<path fill="none" stroke="black" stroke-dasharray="1,5" d="M471.81,-487C569.88,-487 718,-487 718,-487 718,-487 718,-419.23 718,-419.23"/>
<polygon fill="black" stroke="black" points="720.45,-419.23 718,-412.23 715.55,-419.23 720.45,-419.23"/>
</g>
<!-- NoPoolingRuntime -->
<g id="node10" class="node">
<title>NoPoolingRuntime</title>
<g id="a_node10"><a xlink:href="45_openvino_embedding_raw.svg" xlink:title="pooling réel détaillé en raw IO">
<path fill="#ffebee" stroke="#b71c1c" d="M913.5,-410.5C913.5,-410.5 792.5,-410.5 792.5,-410.5 786.5,-410.5 780.5,-404.5 780.5,-398.5 780.5,-398.5 780.5,-386.5 780.5,-386.5 780.5,-380.5 786.5,-374.5 792.5,-374.5 792.5,-374.5 913.5,-374.5 913.5,-374.5 919.5,-374.5 925.5,-380.5 925.5,-386.5 925.5,-386.5 925.5,-398.5 925.5,-398.5 925.5,-404.5 919.5,-410.5 913.5,-410.5"/>
<text xml:space="preserve" text-anchor="middle" x="853" y="-389" font-family="Arial" font-size="10.00">pooling réel détaillé en raw IO</text>
</a>
</g>
</g>
<!-- Config&#45;&gt;NoPoolingRuntime -->
<g id="edge13" class="edge">
<title>Config&#45;&gt;NoPoolingRuntime</title>
<path fill="none" stroke="black" stroke-dasharray="1,5" d="M471.93,-492C606.34,-492 853,-492 853,-492 853,-492 853,-419.26 853,-419.26"/>
<polygon fill="black" stroke="black" points="855.45,-419.26 853,-412.26 850.55,-419.26 855.45,-419.26"/>
</g>
<!-- NoQdrant -->
<g id="node11" class="node">
<title>NoQdrant</title>
<path fill="#ffebee" stroke="#b71c1c" d="M1008.75,-410.5C1008.75,-410.5 955.25,-410.5 955.25,-410.5 949.25,-410.5 943.25,-404.5 943.25,-398.5 943.25,-398.5 943.25,-386.5 943.25,-386.5 943.25,-380.5 949.25,-374.5 955.25,-374.5 955.25,-374.5 1008.75,-374.5 1008.75,-374.5 1014.75,-374.5 1020.75,-380.5 1020.75,-386.5 1020.75,-386.5 1020.75,-398.5 1020.75,-398.5 1020.75,-404.5 1014.75,-410.5 1008.75,-410.5"/>
<text xml:space="preserve" text-anchor="middle" x="982" y="-389" font-family="Arial" font-size="10.00">pas de Qdrant</text>
</g>
<!-- Config&#45;&gt;NoQdrant -->
<g id="edge14" class="edge">
<title>Config&#45;&gt;NoQdrant</title>
<path fill="none" stroke="black" stroke-dasharray="1,5" d="M471.93,-497C636.33,-497 982,-497 982,-497 982,-497 982,-419.22 982,-419.22"/>
<polygon fill="black" stroke="black" points="984.45,-419.22 982,-412.22 979.55,-419.22 984.45,-419.22"/>
</g>
<!-- NoModelChoice -->
<g id="node12" class="node">
<title>NoModelChoice</title>
<path fill="#ffebee" stroke="#b71c1c" d="M1141.12,-410.5C1141.12,-410.5 1050.88,-410.5 1050.88,-410.5 1044.88,-410.5 1038.88,-404.5 1038.88,-398.5 1038.88,-398.5 1038.88,-386.5 1038.88,-386.5 1038.88,-380.5 1044.88,-374.5 1050.88,-374.5 1050.88,-374.5 1141.12,-374.5 1141.12,-374.5 1147.12,-374.5 1153.12,-380.5 1153.12,-386.5 1153.12,-386.5 1153.12,-398.5 1153.12,-398.5 1153.12,-404.5 1147.12,-410.5 1141.12,-410.5"/>
<text xml:space="preserve" text-anchor="middle" x="1096" y="-389" font-family="Arial" font-size="10.00">pas de modèle imposé</text>
</g>
<!-- Config&#45;&gt;NoModelChoice -->
<g id="edge15" class="edge">
<title>Config&#45;&gt;NoModelChoice</title>
<path fill="none" stroke="black" stroke-dasharray="1,5" d="M471.82,-502C660.01,-502 1096,-502 1096,-502 1096,-502 1096,-419.1 1096,-419.1"/>
<polygon fill="black" stroke="black" points="1098.45,-419.1 1096,-412.1 1093.55,-419.1 1098.45,-419.1"/>
</g>
<!-- RawIO -->
<g id="node15" class="node">
<title>RawIO</title>
<g id="a_node15"><a xlink:href="45_openvino_embedding_raw.svg" xlink:title="Embedding raw IO\ntokens &#45;&gt; vector">
<path fill="#e0f7fa" stroke="#00838f" d="M1256.5,-410.5C1256.5,-410.5 1183.5,-410.5 1183.5,-410.5 1177.5,-410.5 1171.5,-404.5 1171.5,-398.5 1171.5,-398.5 1171.5,-386.5 1171.5,-386.5 1171.5,-380.5 1177.5,-374.5 1183.5,-374.5 1183.5,-374.5 1256.5,-374.5 1256.5,-374.5 1262.5,-374.5 1268.5,-380.5 1268.5,-386.5 1268.5,-386.5 1268.5,-398.5 1268.5,-398.5 1268.5,-404.5 1262.5,-410.5 1256.5,-410.5"/>
<text xml:space="preserve" text-anchor="middle" x="1220" y="-395" font-family="Arial" font-size="10.00">Embedding raw IO</text>
<text xml:space="preserve" text-anchor="middle" x="1220" y="-383" font-family="Arial" font-size="10.00">tokens &#45;&gt; vector</text>
</a>
</g>
</g>
<!-- Config&#45;&gt;RawIO -->
<g id="edge11" class="edge">
<title>Config&#45;&gt;RawIO</title>
<path fill="none" stroke="black" stroke-dasharray="5,2" d="M471.84,-507C683.88,-507 1220,-507 1220,-507 1220,-507 1220,-419.41 1220,-419.41"/>
<polygon fill="black" stroke="black" points="1222.45,-419.41 1220,-412.41 1217.55,-419.41 1222.45,-419.41"/>
<text xml:space="preserve" text-anchor="middle" x="1269.88" y="-449.95" font-family="Arial" font-size="9.00">uses input/output names</text>
</g>
<!-- Defaults -->
<g id="node2" class="node">
<title>Defaults</title>
<path fill="#e8f5e9" stroke="#2e7d32" d="M137.88,-593.5C137.88,-593.5 28.12,-593.5 28.12,-593.5 22.12,-593.5 16.12,-587.5 16.12,-581.5 16.12,-581.5 16.12,-561.5 16.12,-561.5 16.12,-555.5 22.12,-549.5 28.12,-549.5 28.12,-549.5 137.88,-549.5 137.88,-549.5 143.88,-549.5 149.88,-555.5 149.88,-561.5 149.88,-561.5 149.88,-581.5 149.88,-581.5 149.88,-587.5 143.88,-593.5 137.88,-593.5"/>
<text xml:space="preserve" text-anchor="middle" x="83" y="-580" font-family="Arial" font-size="10.00">defaults</text>
<text xml:space="preserve" text-anchor="middle" x="83" y="-568" font-family="Arial" font-size="10.00">input_ids + attention_mask</text>
<text xml:space="preserve" text-anchor="middle" x="83" y="-556" font-family="Arial" font-size="10.00">output=embedding</text>
</g>
<!-- Defaults&#45;&gt;Config -->
<g id="edge2" class="edge">
<title>Defaults&#45;&gt;Config</title>
<path fill="none" stroke="black" d="M83,-549.37C83,-526.78 83,-495 83,-495 83,-495 293.81,-495 293.81,-495"/>
<polygon fill="black" stroke="black" points="293.81,-497.45 300.81,-495 293.81,-492.55 293.81,-497.45"/>
</g>
<!-- Pooling -->
<g id="node3" class="node">
<title>Pooling</title>
<path fill="#e8f5e9" stroke="#2e7d32" d="M351.62,-589.5C351.62,-589.5 180.38,-589.5 180.38,-589.5 174.38,-589.5 168.38,-583.5 168.38,-577.5 168.38,-577.5 168.38,-565.5 168.38,-565.5 168.38,-559.5 174.38,-553.5 180.38,-553.5 180.38,-553.5 351.62,-553.5 351.62,-553.5 357.62,-553.5 363.62,-559.5 363.62,-565.5 363.62,-565.5 363.62,-577.5 363.62,-577.5 363.62,-583.5 357.62,-589.5 351.62,-589.5"/>
<text xml:space="preserve" text-anchor="middle" x="266" y="-574" font-family="Arial" font-size="10.00">SUPPORTED_EMBEDDING_POOLING</text>
<text xml:space="preserve" text-anchor="middle" x="266" y="-562" font-family="Arial" font-size="10.00">model / cls / mean / none</text>
</g>
<!-- Pooling&#45;&gt;Config -->
<g id="edge3" class="edge">
<title>Pooling&#45;&gt;Config</title>
<path fill="none" stroke="black" d="M333.06,-553.25C333.06,-553.25 333.06,-521.4 333.06,-521.4"/>
<polygon fill="black" stroke="black" points="335.51,-521.4 333.06,-514.4 330.61,-521.4 335.51,-521.4"/>
</g>
<!-- Mapping -->
<g id="node4" class="node">
<title>Mapping</title>
<path fill="#e8f5e9" stroke="#2e7d32" d="M460.12,-589.5C460.12,-589.5 393.88,-589.5 393.88,-589.5 387.88,-589.5 381.88,-583.5 381.88,-577.5 381.88,-577.5 381.88,-565.5 381.88,-565.5 381.88,-559.5 387.88,-553.5 393.88,-553.5 393.88,-553.5 460.12,-553.5 460.12,-553.5 466.12,-553.5 472.12,-559.5 472.12,-565.5 472.12,-565.5 472.12,-577.5 472.12,-577.5 472.12,-583.5 466.12,-589.5 460.12,-589.5"/>
<text xml:space="preserve" text-anchor="middle" x="427" y="-574" font-family="Arial" font-size="10.00">from_mapping()</text>
<text xml:space="preserve" text-anchor="middle" x="427" y="-562" font-family="Arial" font-size="10.00">JSON&#45;like config</text>
</g>
<!-- Mapping&#45;&gt;Config -->
<g id="edge1" class="edge">
<title>Mapping&#45;&gt;Config</title>
<path fill="none" stroke="black" d="M426.69,-553.25C426.69,-553.25 426.69,-521.4 426.69,-521.4"/>
<polygon fill="black" stroke="black" points="429.14,-521.4 426.69,-514.4 424.24,-521.4 429.14,-521.4"/>
</g>
<!-- ProfileRegistry -->
<g id="node8" class="node">
<title>ProfileRegistry</title>
<g id="a_node8"><a xlink:href="43_openvino_profiles.svg" xlink:title="OpenVINOModelProfileRegistry">
<path fill="#e0f7fa" stroke="#00838f" d="M638.38,-255C638.38,-255 507.62,-255 507.62,-255 501.62,-255 495.62,-249 495.62,-243 495.62,-243 495.62,-231 495.62,-231 495.62,-225 501.62,-219 507.62,-219 507.62,-219 638.38,-219 638.38,-219 644.38,-219 650.38,-225 650.38,-231 650.38,-231 650.38,-243 650.38,-243 650.38,-249 644.38,-255 638.38,-255"/>
<text xml:space="preserve" text-anchor="middle" x="573" y="-233.5" font-family="Arial" font-size="10.00">OpenVINOModelProfileRegistry</text>
</a>
</g>
</g>
<!-- Register&#45;&gt;ProfileRegistry -->
<g id="edge7" class="edge">
<title>Register&#45;&gt;ProfileRegistry</title>
<path fill="none" stroke="black" d="M381,-374.05C381,-332.86 381,-237 381,-237 381,-237 486.67,-237 486.67,-237"/>
<polygon fill="black" stroke="black" points="486.67,-239.45 493.67,-237 486.67,-234.55 486.67,-239.45"/>
</g>
<!-- ModelProfile -->
<g id="node7" class="node">
<title>ModelProfile</title>
<g id="a_node7"><a xlink:href="43_openvino_profiles.svg" xlink:title="OpenVINOModelProfile\ntask=embedding">
<path fill="#e0f7fa" stroke="#00838f" d="M611,-337.5C611,-337.5 517,-337.5 517,-337.5 511,-337.5 505,-331.5 505,-325.5 505,-325.5 505,-313.5 505,-313.5 505,-307.5 511,-301.5 517,-301.5 517,-301.5 611,-301.5 611,-301.5 617,-301.5 623,-307.5 623,-313.5 623,-313.5 623,-325.5 623,-325.5 623,-331.5 617,-337.5 611,-337.5"/>
<text xml:space="preserve" text-anchor="middle" x="564" y="-322" font-family="Arial" font-size="10.00">OpenVINOModelProfile</text>
<text xml:space="preserve" text-anchor="middle" x="564" y="-310" font-family="Arial" font-size="10.00">task=embedding</text>
</a>
</g>
</g>
<!-- ToProfile&#45;&gt;ModelProfile -->
<g id="edge5" class="edge">
<title>ToProfile&#45;&gt;ModelProfile</title>
<path fill="none" stroke="black" d="M550.31,-374.08C550.31,-374.08 550.31,-346.43 550.31,-346.43"/>
<polygon fill="black" stroke="black" points="552.76,-346.43 550.31,-339.43 547.86,-346.43 552.76,-346.43"/>
</g>
<!-- ModelProfile&#45;&gt;ProfileRegistry -->
<g id="edge8" class="edge">
<title>ModelProfile&#45;&gt;ProfileRegistry</title>
<path fill="none" stroke="black" d="M564,-301.19C564,-301.19 564,-263.77 564,-263.77"/>
<polygon fill="black" stroke="black" points="566.45,-263.77 564,-256.77 561.55,-263.77 566.45,-263.77"/>
<text xml:space="preserve" text-anchor="middle" x="583.38" y="-274.95" font-family="Arial" font-size="9.00">register</text>
</g>
<!-- BackendFactory -->
<g id="node13" class="node">
<title>BackendFactory</title>
<g id="a_node13"><a xlink:href="43_openvino_profiles.svg" xlink:title="OpenVINOBackendFactory\nprofile &#45;&gt; backend">
<path fill="#efebe9" stroke="#6d4c41" d="M628.62,-172.5C628.62,-172.5 517.38,-172.5 517.38,-172.5 511.38,-172.5 505.38,-166.5 505.38,-160.5 505.38,-160.5 505.38,-148.5 505.38,-148.5 505.38,-142.5 511.38,-136.5 517.38,-136.5 517.38,-136.5 628.62,-136.5 628.62,-136.5 634.62,-136.5 640.62,-142.5 640.62,-148.5 640.62,-148.5 640.62,-160.5 640.62,-160.5 640.62,-166.5 634.62,-172.5 628.62,-172.5"/>
<text xml:space="preserve" text-anchor="middle" x="573" y="-157" font-family="Arial" font-size="10.00">OpenVINOBackendFactory</text>
<text xml:space="preserve" text-anchor="middle" x="573" y="-145" font-family="Arial" font-size="10.00">profile &#45;&gt; backend</text>
</a>
</g>
</g>
<!-- ProfileRegistry&#45;&gt;BackendFactory -->
<g id="edge9" class="edge">
<title>ProfileRegistry&#45;&gt;BackendFactory</title>
<path fill="none" stroke="black" stroke-dasharray="5,2" d="M573,-218.69C573,-218.69 573,-181.27 573,-181.27"/>
<polygon fill="black" stroke="black" points="575.45,-181.27 573,-174.27 570.55,-181.27 575.45,-181.27"/>
<text xml:space="preserve" text-anchor="middle" x="600.38" y="-192.45" font-family="Arial" font-size="9.00">selected later</text>
</g>
<!-- Runtime -->
<g id="node14" class="node">
<title>Runtime</title>
<g id="a_node14"><a xlink:href="42_openvino_runtime.svg" xlink:title="RealOpenVINORuntime\nraw&#45;input only">
<path fill="#efebe9" stroke="#6d4c41" d="M621.5,-90C621.5,-90 524.5,-90 524.5,-90 518.5,-90 512.5,-84 512.5,-78 512.5,-78 512.5,-66 512.5,-66 512.5,-60 518.5,-54 524.5,-54 524.5,-54 621.5,-54 621.5,-54 627.5,-54 633.5,-60 633.5,-66 633.5,-66 633.5,-78 633.5,-78 633.5,-84 627.5,-90 621.5,-90"/>
<text xml:space="preserve" text-anchor="middle" x="573" y="-74.5" font-family="Arial" font-size="10.00">RealOpenVINORuntime</text>
<text xml:space="preserve" text-anchor="middle" x="573" y="-62.5" font-family="Arial" font-size="10.00">raw&#45;input only</text>
</a>
</g>
</g>
<!-- BackendFactory&#45;&gt;Runtime -->
<g id="edge10" class="edge">
<title>BackendFactory&#45;&gt;Runtime</title>
<path fill="none" stroke="black" stroke-dasharray="5,2" d="M573,-136.19C573,-136.19 573,-98.77 573,-98.77"/>
<polygon fill="black" stroke="black" points="575.45,-98.77 573,-91.77 570.55,-98.77 575.45,-98.77"/>
<text xml:space="preserve" text-anchor="middle" x="602.62" y="-109.95" font-family="Arial" font-size="9.00">after activation</text>
</g>
<!-- Nav_Profiles -->
<g id="node16" class="node">
<title>Nav_Profiles</title>
<g id="a_node16"><a xlink:href="43_openvino_profiles.svg" xlink:title="OpenVINO profiles">
<path fill="lightgrey" stroke="none" d="M610.25,-36C610.25,-36 535.75,-36 535.75,-36 529.75,-36 523.75,-30 523.75,-24 523.75,-24 523.75,-12 523.75,-12 523.75,-6 529.75,0 535.75,0 535.75,0 610.25,0 610.25,0 616.25,0 622.25,-6 622.25,-12 622.25,-12 622.25,-24 622.25,-24 622.25,-30 616.25,-36 610.25,-36"/>
<text xml:space="preserve" text-anchor="middle" x="573" y="-14.5" font-family="Arial" font-size="10.00">OpenVINO profiles</text>
</a>
</g>
</g>
<!-- Nav_Inference -->
<g id="node17" class="node">
<title>Nav_Inference</title>
<g id="a_node17"><a xlink:href="40_inference.svg" xlink:title="Inference">
<path fill="lightgrey" stroke="none" d="M672.25,-36C672.25,-36 639.75,-36 639.75,-36 633.75,-36 627.75,-30 627.75,-24 627.75,-24 627.75,-12 627.75,-12 627.75,-6 633.75,0 639.75,0 639.75,0 672.25,0 672.25,0 678.25,0 684.25,-6 684.25,-12 684.25,-12 684.25,-24 684.25,-24 684.25,-30 678.25,-36 672.25,-36"/>
<text xml:space="preserve" text-anchor="middle" x="656" y="-14.5" font-family="Arial" font-size="10.00">Inference</text>
</a>
</g>
</g>
<!-- Nav_Runtime -->
<g id="node18" class="node">
<title>Nav_Runtime</title>
<g id="a_node18"><a xlink:href="42_openvino_runtime.svg" xlink:title="RealOpenVINORuntime">
<path fill="lightgrey" stroke="none" d="M798.5,-36C798.5,-36 701.5,-36 701.5,-36 695.5,-36 689.5,-30 689.5,-24 689.5,-24 689.5,-12 689.5,-12 689.5,-6 695.5,0 701.5,0 701.5,0 798.5,0 798.5,0 804.5,0 810.5,-6 810.5,-12 810.5,-12 810.5,-24 810.5,-24 810.5,-30 804.5,-36 798.5,-36"/>
<text xml:space="preserve" text-anchor="middle" x="750" y="-14.5" font-family="Arial" font-size="10.00">RealOpenVINORuntime</text>
</a>
</g>
</g>
<!-- Nav_RawIO -->
<g id="node19" class="node">
<title>Nav_RawIO</title>
<g id="a_node19"><a xlink:href="45_openvino_embedding_raw.svg" xlink:title="Embedding raw IO">
<path fill="lightgrey" stroke="none" d="M900.5,-36C900.5,-36 827.5,-36 827.5,-36 821.5,-36 815.5,-30 815.5,-24 815.5,-24 815.5,-12 815.5,-12 815.5,-6 821.5,0 827.5,0 827.5,0 900.5,0 900.5,0 906.5,0 912.5,-6 912.5,-12 912.5,-12 912.5,-24 912.5,-24 912.5,-30 906.5,-36 900.5,-36"/>
<text xml:space="preserve" text-anchor="middle" x="864" y="-14.5" font-family="Arial" font-size="10.00">Embedding raw IO</text>
</a>
</g>
</g>
<!-- Nav_Global -->
<g id="node20" class="node">
<title>Nav_Global</title>
<g id="a_node20"><a xlink:href="../00_global.svg" xlink:title="Global">
<path fill="lightgrey" stroke="none" d="M960,-36C960,-36 930,-36 930,-36 924,-36 918,-30 918,-24 918,-24 918,-12 918,-12 918,-6 924,0 930,0 930,0 960,0 960,0 966,0 972,-6 972,-12 972,-12 972,-24 972,-24 972,-30 966,-36 960,-36"/>
<text xml:space="preserve" text-anchor="middle" x="945" y="-14.5" font-family="Arial" font-size="10.00">Global</text>
</a>
</g>
</g>
</g>
</svg>
