<?xml version="1.0" encoding="UTF-8" standalone="no"?>
<!DOCTYPE svg PUBLIC "-//W3C//DTD SVG 1.1//EN"
 "http://www.w3.org/Graphics/SVG/1.1/DTD/svg11.dtd">
<!-- Generated by graphviz version 14.1.3 (20260303.0454)
 -->
<!-- Title: OpenVINOEmbeddingRaw Pages: 1 -->
<svg width="1806pt" height="473pt"
 viewBox="0.00 0.00 1806.00 473.00" xmlns="http://www.w3.org/2000/svg" xmlns:xlink="http://www.w3.org/1999/xlink">
<g id="graph0" class="graph" transform="scale(1 1) rotate(0) translate(4 469)">
<title>OpenVINOEmbeddingRaw</title>
<polygon fill="white" stroke="none" points="-4,4 -4,-469 1802,-469 1802,4 -4,4"/>
<g id="clust1" class="cluster">
<title>cluster_inputs</title>
<polygon fill="#e8f5e9" stroke="#2e7d32" points="8,-189 8,-355 424,-355 424,-189 8,-189"/>
<text xml:space="preserve" text-anchor="middle" x="216" y="-340.55" font-family="Arial" font-size="11.00">Entrées déjà tokenisées</text>
</g>
<g id="clust2" class="cluster">
<title>cluster_runtime_bridge</title>
<polygon fill="#efebe9" stroke="#6d4c41" points="1206,-8 1206,-262.5 1364,-262.5 1364,-8 1206,-8"/>
<text xml:space="preserve" text-anchor="middle" x="1285" y="-248.05" font-family="Arial" font-size="11.00">Pont runtime brut</text>
</g>
<g id="clust3" class="cluster">
<title>cluster_outputs</title>
<polygon fill="#e0f7fa" stroke="#00838f" points="846,-81 846,-457 1198,-457 1198,-81 846,-81"/>
<text xml:space="preserve" text-anchor="middle" x="1022" y="-442.55" font-family="Arial" font-size="11.00">Sortie vecteur</text>
</g>
<g id="clust4" class="cluster">
<title>cluster_not_here</title>
<polygon fill="#ffebee" stroke="#b71c1c" points="432,-189 432,-262.5 838,-262.5 838,-189 432,-189"/>
<text xml:space="preserve" text-anchor="middle" x="635" y="-248.05" font-family="Arial" font-size="11.00">Toujours hors phase</text>
</g>
<!-- RawInputs -->
<g id="node1" class="node">
<title>RawInputs</title>
<path fill="#e8f5e9" stroke="#2e7d32" d="M403.5,-325.5C403.5,-325.5 216.5,-325.5 216.5,-325.5 210.5,-325.5 204.5,-319.5 204.5,-313.5 204.5,-313.5 204.5,-301.5 204.5,-301.5 204.5,-295.5 210.5,-289.5 216.5,-289.5 216.5,-289.5 403.5,-289.5 403.5,-289.5 409.5,-289.5 415.5,-295.5 415.5,-301.5 415.5,-301.5 415.5,-313.5 415.5,-313.5 415.5,-319.5 409.5,-325.5 403.5,-325.5"/>
<text xml:space="preserve" text-anchor="middle" x="310" y="-310" font-family="Arial" font-size="10.00">OpenVINOEmbeddingRawInputs</text>
<text xml:space="preserve" text-anchor="middle" x="310" y="-298" font-family="Arial" font-size="10.00">input_ids / attention_mask / token_type_ids?</text>
</g>
<!-- ShapeChecks -->
<g id="node2" class="node">
<title>ShapeChecks</title>
<path fill="#e8f5e9" stroke="#2e7d32" d="M149.5,-233C149.5,-233 28.5,-233 28.5,-233 22.5,-233 16.5,-227 16.5,-221 16.5,-221 16.5,-209 16.5,-209 16.5,-203 22.5,-197 28.5,-197 28.5,-197 149.5,-197 149.5,-197 155.5,-197 161.5,-203 161.5,-209 161.5,-209 161.5,-221 161.5,-221 161.5,-227 155.5,-233 149.5,-233"/>
<text xml:space="preserve" text-anchor="middle" x="89" y="-217.5" font-family="Arial" font-size="10.00">shape checks</text>
<text xml:space="preserve" text-anchor="middle" x="89" y="-205.5" font-family="Arial" font-size="10.00">2D rectangular + same shape</text>
</g>
<!-- RawInputs&#45;&gt;ShapeChecks -->
<g id="edge1" class="edge">
<title>RawInputs&#45;&gt;ShapeChecks</title>
<path fill="none" stroke="black" d="M204.03,-308C147.31,-308 89,-308 89,-308 89,-308 89,-241.89 89,-241.89"/>
<polygon fill="black" stroke="black" points="91.45,-241.89 89,-234.89 86.55,-241.89 91.45,-241.89"/>
</g>
<!-- ToInputs -->
<g id="node3" class="node">
<title>ToInputs</title>
<path fill="#e8f5e9" stroke="#2e7d32" d="M274,-233C274,-233 192,-233 192,-233 186,-233 180,-227 180,-221 180,-221 180,-209 180,-209 180,-203 186,-197 192,-197 192,-197 274,-197 274,-197 280,-197 286,-203 286,-209 286,-209 286,-221 286,-221 286,-227 280,-233 274,-233"/>
<text xml:space="preserve" text-anchor="middle" x="233" y="-217.5" font-family="Arial" font-size="10.00">to_openvino_inputs()</text>
<text xml:space="preserve" text-anchor="middle" x="233" y="-205.5" font-family="Arial" font-size="10.00">profile input names</text>
</g>
<!-- RawInputs&#45;&gt;ToInputs -->
<g id="edge2" class="edge">
<title>RawInputs&#45;&gt;ToInputs</title>
<path fill="none" stroke="black" d="M245.25,-289.22C245.25,-289.22 245.25,-241.75 245.25,-241.75"/>
<polygon fill="black" stroke="black" points="247.7,-241.75 245.25,-234.75 242.8,-241.75 247.7,-241.75"/>
</g>
<!-- ToRequest -->
<g id="node4" class="node">
<title>ToRequest</title>
<path fill="#e8f5e9" stroke="#2e7d32" d="M404.38,-233C404.38,-233 315.62,-233 315.62,-233 309.62,-233 303.62,-227 303.62,-221 303.62,-221 303.62,-209 303.62,-209 303.62,-203 309.62,-197 315.62,-197 315.62,-197 404.38,-197 404.38,-197 410.38,-197 416.38,-203 416.38,-209 416.38,-209 416.38,-221 416.38,-221 416.38,-227 410.38,-233 404.38,-233"/>
<text xml:space="preserve" text-anchor="middle" x="360" y="-217.5" font-family="Arial" font-size="10.00">to_inference_request()</text>
<text xml:space="preserve" text-anchor="middle" x="360" y="-205.5" font-family="Arial" font-size="10.00">context[&#39;inputs&#39;]</text>
</g>
<!-- RawInputs&#45;&gt;ToRequest -->
<g id="edge3" class="edge">
<title>RawInputs&#45;&gt;ToRequest</title>
<path fill="none" stroke="black" d="M359.56,-289.22C359.56,-289.22 359.56,-241.75 359.56,-241.75"/>
<polygon fill="black" stroke="black" points="362.01,-241.75 359.56,-234.75 357.11,-241.75 362.01,-241.75"/>
</g>
<!-- NoConcreteTokenizer -->
<g id="node13" class="node">
<title>NoConcreteTokenizer</title>
<path fill="#ffebee" stroke="#b71c1c" d="M722.62,-233C722.62,-233 623.38,-233 623.38,-233 617.38,-233 611.38,-227 611.38,-221 611.38,-221 611.38,-209 611.38,-209 611.38,-203 617.38,-197 623.38,-197 623.38,-197 722.62,-197 722.62,-197 728.62,-197 734.62,-203 734.62,-209 734.62,-209 734.62,-221 734.62,-221 734.62,-227 728.62,-233 722.62,-233"/>
<text xml:space="preserve" text-anchor="middle" x="673" y="-211.5" font-family="Arial" font-size="10.00">pas de tokenizer concret</text>
</g>
<!-- RawInputs&#45;&gt;NoConcreteTokenizer -->
<g id="edge14" class="edge">
<title>RawInputs&#45;&gt;NoConcreteTokenizer</title>
<path fill="none" stroke="black" stroke-dasharray="1,5" d="M415.97,-314C523.11,-314 673,-314 673,-314 673,-314 673,-241.67 673,-241.67"/>
<polygon fill="black" stroke="black" points="675.45,-241.67 673,-234.67 670.55,-241.67 675.45,-241.67"/>
</g>
<!-- NoModelChoice -->
<g id="node15" class="node">
<title>NoModelChoice</title>
<path fill="#ffebee" stroke="#b71c1c" d="M581.62,-233C581.62,-233 452.38,-233 452.38,-233 446.38,-233 440.38,-227 440.38,-221 440.38,-221 440.38,-209 440.38,-209 440.38,-203 446.38,-197 452.38,-197 452.38,-197 581.62,-197 581.62,-197 587.62,-197 593.62,-203 593.62,-209 593.62,-209 593.62,-221 593.62,-221 593.62,-227 587.62,-233 581.62,-233"/>
<text xml:space="preserve" text-anchor="middle" x="517" y="-211.5" font-family="Arial" font-size="10.00">pas de BGE/E5/MiniLM imposé</text>
</g>
<!-- RawInputs&#45;&gt;NoModelChoice -->
<g id="edge16" class="edge">
<title>RawInputs&#45;&gt;NoModelChoice</title>
<path fill="none" stroke="black" stroke-dasharray="1,5" d="M415.93,-302C466.85,-302 517,-302 517,-302 517,-302 517,-241.96 517,-241.96"/>
<polygon fill="black" stroke="black" points="519.45,-241.96 517,-234.96 514.55,-241.96 519.45,-241.96"/>
</g>
<!-- Request -->
<g id="node5" class="node">
<title>Request</title>
<g id="a_node5"><a xlink:href="40_inference.svg" xlink:title="InferenceRequest\nraw inputs">
<path fill="#efebe9" stroke="#6d4c41" d="M1297.62,-233C1297.62,-233 1228.38,-233 1228.38,-233 1222.38,-233 1216.38,-227 1216.38,-221 1216.38,-221 1216.38,-209 1216.38,-209 1216.38,-203 1222.38,-197 1228.38,-197 1228.38,-197 1297.62,-197 1297.62,-197 1303.62,-197 1309.62,-203 1309.62,-209 1309.62,-209 1309.62,-221 1309.62,-221 1309.62,-227 1303.62,-233 1297.62,-233"/>
<text xml:space="preserve" text-anchor="middle" x="1263" y="-217.5" font-family="Arial" font-size="10.00">InferenceRequest</text>
<text xml:space="preserve" text-anchor="middle" x="1263" y="-205.5" font-family="Arial" font-size="10.00">raw inputs</text>
</a>
</g>
</g>
<!-- ToRequest&#45;&gt;Request -->
<g id="edge4" class="edge">
<title>ToRequest&#45;&gt;Request</title>
<path fill="none" stroke="black" d="M360,-196.54C360,-191.8 360,-188 360,-188 360,-188 1247.46,-188 1247.46,-188 1247.46,-188 1247.46,-188.85 1247.46,-188.85"/>
<polygon fill="black" stroke="black" points="1245.01,-188.03 1247.46,-195.03 1249.91,-188.03 1245.01,-188.03"/>
</g>
<!-- Runtime -->
<g id="node6" class="node">
<title>Runtime</title>
<g id="a_node6"><a xlink:href="42_openvino_runtime.svg" xlink:title="RealOpenVINORuntime\ncompiled_model(inputs)">
<path fill="#efebe9" stroke="#6d4c41" d="M1323.5,-125C1323.5,-125 1226.5,-125 1226.5,-125 1220.5,-125 1214.5,-119 1214.5,-113 1214.5,-113 1214.5,-101 1214.5,-101 1214.5,-95 1220.5,-89 1226.5,-89 1226.5,-89 1323.5,-89 1323.5,-89 1329.5,-89 1335.5,-95 1335.5,-101 1335.5,-101 1335.5,-113 1335.5,-113 1335.5,-119 1329.5,-125 1323.5,-125"/>
<text xml:space="preserve" text-anchor="middle" x="1275" y="-109.5" font-family="Arial" font-size="10.00">RealOpenVINORuntime</text>
<text xml:space="preserve" text-anchor="middle" x="1275" y="-97.5" font-family="Arial" font-size="10.00">compiled_model(inputs)</text>
</a>
</g>
</g>
<!-- Request&#45;&gt;Runtime -->
<g id="edge5" class="edge">
<title>Request&#45;&gt;Runtime</title>
<path fill="none" stroke="black" stroke-dasharray="5,2" d="M1278.54,-196.68C1278.54,-196.68 1278.54,-133.92 1278.54,-133.92"/>
<polygon fill="black" stroke="black" points="1280.99,-133.92 1278.54,-126.92 1276.09,-133.92 1280.99,-133.92"/>
<text xml:space="preserve" text-anchor="middle" x="1304.88" y="-157.7" font-family="Arial" font-size="9.00">backend active later</text>
</g>
<!-- RawOutputs -->
<g id="node7" class="node">
<title>RawOutputs</title>
<path fill="#efebe9" stroke="#6d4c41" d="M1344.38,-52C1344.38,-52 1225.62,-52 1225.62,-52 1219.62,-52 1213.62,-46 1213.62,-40 1213.62,-40 1213.62,-28 1213.62,-28 1213.62,-22 1219.62,-16 1225.62,-16 1225.62,-16 1344.38,-16 1344.38,-16 1350.38,-16 1356.38,-22 1356.38,-28 1356.38,-28 1356.38,-40 1356.38,-40 1356.38,-46 1350.38,-52 1344.38,-52"/>
<text xml:space="preserve" text-anchor="middle" x="1285" y="-36.5" font-family="Arial" font-size="10.00">raw OpenVINO outputs</text>
<text xml:space="preserve" text-anchor="middle" x="1285" y="-24.5" font-family="Arial" font-size="10.00">mapping / vector / tensor&#45;like</text>
</g>
<!-- Runtime&#45;&gt;RawOutputs -->
<g id="edge6" class="edge">
<title>Runtime&#45;&gt;RawOutputs</title>
<path fill="none" stroke="black" stroke-dasharray="5,2" d="M1275,-88.58C1275,-88.58 1275,-60.93 1275,-60.93"/>
<polygon fill="black" stroke="black" points="1277.45,-60.93 1275,-53.93 1272.55,-60.93 1277.45,-60.93"/>
</g>
<!-- OutputAdapter -->
<g id="node9" class="node">
<title>OutputAdapter</title>
<path fill="#e0f7fa" stroke="#00838f" d="M1099.88,-325.5C1099.88,-325.5 948.12,-325.5 948.12,-325.5 942.12,-325.5 936.12,-319.5 936.12,-313.5 936.12,-313.5 936.12,-301.5 936.12,-301.5 936.12,-295.5 942.12,-289.5 948.12,-289.5 948.12,-289.5 1099.88,-289.5 1099.88,-289.5 1105.88,-289.5 1111.88,-295.5 1111.88,-301.5 1111.88,-301.5 1111.88,-313.5 1111.88,-313.5 1111.88,-319.5 1105.88,-325.5 1099.88,-325.5"/>
<text xml:space="preserve" text-anchor="middle" x="1024" y="-310" font-family="Arial" font-size="10.00">OpenVINOEmbeddingOutputAdapter</text>
<text xml:space="preserve" text-anchor="middle" x="1024" y="-298" font-family="Arial" font-size="10.00">extract(raw_outputs)</text>
</g>
<!-- RawOutputs&#45;&gt;OutputAdapter -->
<g id="edge7" class="edge">
<title>RawOutputs&#45;&gt;OutputAdapter</title>
<path fill="none" stroke="black" d="M1213.17,-34C1162.37,-34 1103.25,-34 1103.25,-34 1103.25,-34 1103.25,-280.62 1103.25,-280.62"/>
<polygon fill="black" stroke="black" points="1100.8,-280.62 1103.25,-287.62 1105.7,-280.62 1100.8,-280.62"/>
</g>
<!-- OutputConfig -->
<g id="node8" class="node">
<title>OutputConfig</title>
<path fill="#e0f7fa" stroke="#00838f" d="M1178.25,-427.5C1178.25,-427.5 1031.75,-427.5 1031.75,-427.5 1025.75,-427.5 1019.75,-421.5 1019.75,-415.5 1019.75,-415.5 1019.75,-403.5 1019.75,-403.5 1019.75,-397.5 1025.75,-391.5 1031.75,-391.5 1031.75,-391.5 1178.25,-391.5 1178.25,-391.5 1184.25,-391.5 1190.25,-397.5 1190.25,-403.5 1190.25,-403.5 1190.25,-415.5 1190.25,-415.5 1190.25,-421.5 1184.25,-427.5 1178.25,-427.5"/>
<text xml:space="preserve" text-anchor="middle" x="1105" y="-412" font-family="Arial" font-size="10.00">OpenVINOEmbeddingOutputConfig</text>
<text xml:space="preserve" text-anchor="middle" x="1105" y="-400" font-family="Arial" font-size="10.00">output_names / pooling / normalize</text>
</g>
<!-- OutputConfig&#45;&gt;OutputAdapter -->
<g id="edge8" class="edge">
<title>OutputConfig&#45;&gt;OutputAdapter</title>
<path fill="none" stroke="black" d="M1065.81,-391.26C1065.81,-391.26 1065.81,-334.44 1065.81,-334.44"/>
<polygon fill="black" stroke="black" points="1068.26,-334.44 1065.81,-327.44 1063.36,-334.44 1068.26,-334.44"/>
</g>
<!-- Pooling -->
<g id="node11" class="node">
<title>Pooling</title>
<path fill="#e0f7fa" stroke="#00838f" d="M1075.5,-233C1075.5,-233 972.5,-233 972.5,-233 966.5,-233 960.5,-227 960.5,-221 960.5,-221 960.5,-209 960.5,-209 960.5,-203 966.5,-197 972.5,-197 972.5,-197 1075.5,-197 1075.5,-197 1081.5,-197 1087.5,-203 1087.5,-209 1087.5,-209 1087.5,-221 1087.5,-221 1087.5,-227 1081.5,-233 1075.5,-233"/>
<text xml:space="preserve" text-anchor="middle" x="1024" y="-217.5" font-family="Arial" font-size="10.00">pooling</text>
<text xml:space="preserve" text-anchor="middle" x="1024" y="-205.5" font-family="Arial" font-size="10.00">model / none / cls / mean</text>
</g>
<!-- OutputAdapter&#45;&gt;Pooling -->
<g id="edge11" class="edge">
<title>OutputAdapter&#45;&gt;Pooling</title>
<path fill="none" stroke="black" d="M1024,-289.22C1024,-289.22 1024,-241.75 1024,-241.75"/>
<polygon fill="black" stroke="black" points="1026.45,-241.75 1024,-234.75 1021.55,-241.75 1026.45,-241.75"/>
</g>
<!-- NoQdrant -->
<g id="node14" class="node">
<title>NoQdrant</title>
<path fill="#ffebee" stroke="#b71c1c" d="M817.75,-233C817.75,-233 764.25,-233 764.25,-233 758.25,-233 752.25,-227 752.25,-221 752.25,-221 752.25,-209 752.25,-209 752.25,-203 758.25,-197 764.25,-197 764.25,-197 817.75,-197 817.75,-197 823.75,-197 829.75,-203 829.75,-209 829.75,-209 829.75,-221 829.75,-221 829.75,-227 823.75,-233 817.75,-233"/>
<text xml:space="preserve" text-anchor="middle" x="791" y="-211.5" font-family="Arial" font-size="10.00">pas de Qdrant</text>
</g>
<!-- OutputAdapter&#45;&gt;NoQdrant -->
<g id="edge15" class="edge">
<title>OutputAdapter&#45;&gt;NoQdrant</title>
<path fill="none" stroke="black" stroke-dasharray="1,5" d="M944.75,-289.22C944.75,-262.27 944.75,-215 944.75,-215 944.75,-215 838.71,-215 838.71,-215"/>
<polygon fill="black" stroke="black" points="838.71,-212.55 831.71,-215 838.71,-217.45 838.71,-212.55"/>
</g>
<!-- Pipeline -->
<g id="node10" class="node">
<title>Pipeline</title>
<g id="a_node10"><a xlink:href="47_openvino_embedding_pipeline.svg" xlink:title="OpenVINOEmbeddingPipeline\nuses raw IO">
<path fill="#e0f7fa" stroke="#00838f" d="M989.62,-427.5C989.62,-427.5 866.38,-427.5 866.38,-427.5 860.38,-427.5 854.38,-421.5 854.38,-415.5 854.38,-415.5 854.38,-403.5 854.38,-403.5 854.38,-397.5 860.38,-391.5 866.38,-391.5 866.38,-391.5 989.62,-391.5 989.62,-391.5 995.62,-391.5 1001.62,-397.5 1001.62,-403.5 1001.62,-403.5 1001.62,-415.5 1001.62,-415.5 1001.62,-421.5 995.62,-427.5 989.62,-427.5"/>
<text xml:space="preserve" text-anchor="middle" x="928" y="-412" font-family="Arial" font-size="10.00">OpenVINOEmbeddingPipeline</text>
<text xml:space="preserve" text-anchor="middle" x="928" y="-400" font-family="Arial" font-size="10.00">uses raw IO</text>
</a>
</g>
</g>
<!-- Pipeline&#45;&gt;RawInputs -->
<g id="edge9" class="edge">
<title>Pipeline&#45;&gt;RawInputs</title>
<path fill="none" stroke="black" stroke-dasharray="5,2" d="M854.02,-410C706.94,-410 391.88,-410 391.88,-410 391.88,-410 391.88,-334.34 391.88,-334.34"/>
<polygon fill="black" stroke="black" points="394.33,-334.34 391.88,-327.34 389.43,-334.34 394.33,-334.34"/>
<text xml:space="preserve" text-anchor="middle" x="674.12" y="-364.95" font-family="Arial" font-size="9.00">tokenized input</text>
</g>
<!-- Pipeline&#45;&gt;OutputAdapter -->
<g id="edge10" class="edge">
<title>Pipeline&#45;&gt;OutputAdapter</title>
<path fill="none" stroke="black" stroke-dasharray="5,2" d="M968.88,-391.26C968.88,-391.26 968.88,-334.44 968.88,-334.44"/>
<polygon fill="black" stroke="black" points="971.33,-334.44 968.88,-327.44 966.43,-334.44 971.33,-334.44"/>
<text xml:space="preserve" text-anchor="middle" x="982.38" y="-364.95" font-family="Arial" font-size="9.00">raw output</text>
</g>
<!-- Vector -->
<g id="node12" class="node">
<title>Vector</title>
<path fill="#e0f7fa" stroke="#00838f" d="M1082.62,-125C1082.62,-125 965.38,-125 965.38,-125 959.38,-125 953.38,-119 953.38,-113 953.38,-113 953.38,-101 953.38,-101 953.38,-95 959.38,-89 965.38,-89 965.38,-89 1082.62,-89 1082.62,-89 1088.62,-89 1094.62,-95 1094.62,-101 1094.62,-101 1094.62,-113 1094.62,-113 1094.62,-119 1088.62,-125 1082.62,-125"/>
<text xml:space="preserve" text-anchor="middle" x="1024" y="-109.5" font-family="Arial" font-size="10.00">OpenVINOEmbeddingVector</text>
<text xml:space="preserve" text-anchor="middle" x="1024" y="-97.5" font-family="Arial" font-size="10.00">values / dimension / l2_norm</text>
</g>
<!-- Pooling&#45;&gt;Vector -->
<g id="edge12" class="edge">
<title>Pooling&#45;&gt;Vector</title>
<path fill="none" stroke="black" d="M1024,-196.68C1024,-196.68 1024,-133.92 1024,-133.92"/>
<polygon fill="black" stroke="black" points="1026.45,-133.92 1024,-126.92 1021.55,-133.92 1026.45,-133.92"/>
</g>
<!-- TokenizationResult -->
<g id="node16" class="node">
<title>TokenizationResult</title>
<g id="a_node16"><a xlink:href="46_tokenizer_contract.svg" xlink:title="TokenizationResult\nfrom tokenizer contract">
<path fill="#e0f7fa" stroke="#00838f" d="M356.25,-427.5C356.25,-427.5 263.75,-427.5 263.75,-427.5 257.75,-427.5 251.75,-421.5 251.75,-415.5 251.75,-415.5 251.75,-403.5 251.75,-403.5 251.75,-397.5 257.75,-391.5 263.75,-391.5 263.75,-391.5 356.25,-391.5 356.25,-391.5 362.25,-391.5 368.25,-397.5 368.25,-403.5 368.25,-403.5 368.25,-415.5 368.25,-415.5 368.25,-421.5 362.25,-427.5 356.25,-427.5"/>
<text xml:space="preserve" text-anchor="middle" x="310" y="-412" font-family="Arial" font-size="10.00">TokenizationResult</text>
<text xml:space="preserve" text-anchor="middle" x="310" y="-400" font-family="Arial" font-size="10.00">from tokenizer contract</text>
</a>
</g>
</g>
<!-- TokenizationResult&#45;&gt;RawInputs -->
<g id="edge13" class="edge">
<title>TokenizationResult&#45;&gt;RawInputs</title>
<path fill="none" stroke="black" d="M310,-391.26C310,-391.26 310,-334.44 310,-334.44"/>
<polygon fill="black" stroke="black" points="312.45,-334.44 310,-327.44 307.55,-334.44 312.45,-334.44"/>
<text xml:space="preserve" text-anchor="middle" x="364.75" y="-364.95" font-family="Arial" font-size="9.00">to_embedding_raw_inputs</text>
</g>
<!-- Nav_EmbeddingProfile -->
<g id="node17" class="node">
<title>Nav_EmbeddingProfile</title>
<g id="a_node17"><a xlink:href="44_openvino_embedding_profile.svg" xlink:title="Embedding profile">
<path fill="lightgrey" stroke="none" d="M1461,-179C1461,-179 1391,-179 1391,-179 1385,-179 1379,-173 1379,-167 1379,-167 1379,-155 1379,-155 1379,-149 1385,-143 1391,-143 1391,-143 1461,-143 1461,-143 1467,-143 1473,-149 1473,-155 1473,-155 1473,-167 1473,-167 1473,-173 1467,-179 1461,-179"/>
<text xml:space="preserve" text-anchor="middle" x="1426" y="-157.5" font-family="Arial" font-size="10.00">Embedding profile</text>
</a>
</g>
</g>
<!-- Nav_Profiles -->
<g id="node18" class="node">
<title>Nav_Profiles</title>
<g id="a_node18"><a xlink:href="43_openvino_profiles.svg" xlink:title="OpenVINO profiles">
<path fill="lightgrey" stroke="none" d="M1564.25,-179C1564.25,-179 1489.75,-179 1489.75,-179 1483.75,-179 1477.75,-173 1477.75,-167 1477.75,-167 1477.75,-155 1477.75,-155 1477.75,-149 1483.75,-143 1489.75,-143 1489.75,-143 1564.25,-143 1564.25,-143 1570.25,-143 1576.25,-149 1576.25,-155 1576.25,-155 1576.25,-167 1576.25,-167 1576.25,-173 1570.25,-179 1564.25,-179"/>
<text xml:space="preserve" text-anchor="middle" x="1527" y="-157.5" font-family="Arial" font-size="10.00">OpenVINO profiles</text>
</a>
</g>
</g>
<!-- Nav_Inference -->
<g id="node19" class="node">
<title>Nav_Inference</title>
<g id="a_node19"><a xlink:href="40_inference.svg" xlink:title="Inference">
<path fill="lightgrey" stroke="none" d="M1626.25,-179C1626.25,-179 1593.75,-179 1593.75,-179 1587.75,-179 1581.75,-173 1581.75,-167 1581.75,-167 1581.75,-155 1581.75,-155 1581.75,-149 1587.75,-143 1593.75,-143 1593.75,-143 1626.25,-143 1626.25,-143 1632.25,-143 1638.25,-149 1638.25,-155 1638.25,-155 1638.25,-167 1638.25,-167 1638.25,-173 1632.25,-179 1626.25,-179"/>
<text xml:space="preserve" text-anchor="middle" x="1610" y="-157.5" font-family="Arial" font-size="10.00">Inference</text>
</a>
</g>
</g>
<!-- Nav_Tokenizer -->
<g id="node20" class="node">
<title>Nav_Tokenizer</title>
<g id="a_node20"><a xlink:href="46_tokenizer_contract.svg" xlink:title="Tokenizer contract">
<path fill="lightgrey" stroke="none" d="M1727.12,-179C1727.12,-179 1654.88,-179 1654.88,-179 1648.88,-179 1642.88,-173 1642.88,-167 1642.88,-167 1642.88,-155 1642.88,-155 1642.88,-149 1648.88,-143 1654.88,-143 1654.88,-143 1727.12,-143 1727.12,-143 1733.12,-143 1739.12,-149 1739.12,-155 1739.12,-155 1739.12,-167 1739.12,-167 1739.12,-173 1733.12,-179 1727.12,-179"/>
<text xml:space="preserve" text-anchor="middle" x="1691" y="-157.5" font-family="Arial" font-size="10.00">Tokenizer contract</text>
</a>
</g>
</g>
<!-- Nav_Pipeline -->
<g id="node21" class="node">
<title>Nav_Pipeline</title>
<g id="a_node21"><a xlink:href="47_openvino_embedding_pipeline.svg" xlink:title="Embedding pipeline">
<path fill="lightgrey" stroke="none" d="M1480.38,-233C1480.38,-233 1403.62,-233 1403.62,-233 1397.62,-233 1391.62,-227 1391.62,-221 1391.62,-221 1391.62,-209 1391.62,-209 1391.62,-203 1397.62,-197 1403.62,-197 1403.62,-197 1480.38,-197 1480.38,-197 1486.38,-197 1492.38,-203 1492.38,-209 1492.38,-209 1492.38,-221 1492.38,-221 1492.38,-227 1486.38,-233 1480.38,-233"/>
<text xml:space="preserve" text-anchor="middle" x="1442" y="-211.5" font-family="Arial" font-size="10.00">Embedding pipeline</text>
</a>
</g>
</g>
<!-- Nav_Global -->
<g id="node22" class="node">
<title>Nav_Global</title>
<g id="a_node22"><a xlink:href="../00_global.svg" xlink:title="Global">
<path fill="lightgrey" stroke="none" d="M1786,-179C1786,-179 1756,-179 1756,-179 1750,-179 1744,-173 1744,-167 1744,-167 1744,-155 1744,-155 1744,-149 1750,-143 1756,-143 1756,-143 1786,-143 1786,-143 1792,-143 1798,-149 1798,-155 1798,-155 1798,-167 1798,-167 1798,-173 1792,-179 1786,-179"/>
<text xml:space="preserve" text-anchor="middle" x="1771" y="-157.5" font-family="Arial" font-size="10.00">Global</text>
</a>
</g>
</g>
</g>
</svg>
