<?xml version="1.0" encoding="UTF-8" standalone="no"?>
<!DOCTYPE svg PUBLIC "-//W3C//DTD SVG 1.1//EN"
 "http://www.w3.org/Graphics/SVG/1.1/DTD/svg11.dtd">
<!-- Generated by graphviz version 14.1.3 (20260303.0454)
 -->
<!-- Title: TokenizerContract Pages: 1 -->
<svg width="1408pt" height="381pt"
 viewBox="0.00 0.00 1408.00 381.00" xmlns="http://www.w3.org/2000/svg" xmlns:xlink="http://www.w3.org/1999/xlink">
<g id="graph0" class="graph" transform="scale(1 1) rotate(0) translate(4 376.5)">
<title>TokenizerContract</title>
<polygon fill="white" stroke="none" points="-4,4 -4,-376.5 1404,-376.5 1404,4 -4,4"/>
<g id="clust1" class="cluster">
<title>cluster_request</title>
<polygon fill="#e3f2fd" stroke="#1565c0" points="624,-218 624,-364.5 996,-364.5 996,-218 624,-218"/>
<text xml:space="preserve" text-anchor="middle" x="810" y="-350.05" font-family="Arial" font-size="11.00">Entrée texte</text>
</g>
<g id="clust2" class="cluster">
<title>cluster_result</title>
<polygon fill="#e8f5e9" stroke="#2e7d32" points="8,-8 8,-189.5 513,-189.5 513,-8 8,-8"/>
<text xml:space="preserve" text-anchor="middle" x="260.5" y="-175.05" font-family="Arial" font-size="11.00">Sortie tokenisée</text>
</g>
<g id="clust3" class="cluster">
<title>cluster_registry</title>
<polygon fill="#efebe9" stroke="#6d4c41" points="521,-8 521,-189.5 673,-189.5 673,-8 521,-8"/>
<text xml:space="preserve" text-anchor="middle" x="597" y="-175.05" font-family="Arial" font-size="11.00">Registre explicite</text>
</g>
<g id="clust4" class="cluster">
<title>cluster_not_here</title>
<polygon fill="#ffebee" stroke="#b71c1c" points="681,-116 681,-189.5 1392,-189.5 1392,-116 681,-116"/>
<text xml:space="preserve" text-anchor="middle" x="1036.5" y="-175.05" font-family="Arial" font-size="11.00">Non imposé ici</text>
</g>
<!-- Config -->
<g id="node1" class="node">
<title>Config</title>
<path fill="#e3f2fd" stroke="#1565c0" d="M813.88,-335C813.88,-335 644.12,-335 644.12,-335 638.12,-335 632.12,-329 632.12,-323 632.12,-323 632.12,-311 632.12,-311 632.12,-305 638.12,-299 644.12,-299 644.12,-299 813.88,-299 813.88,-299 819.88,-299 825.88,-305 825.88,-311 825.88,-311 825.88,-323 825.88,-323 825.88,-329 819.88,-335 813.88,-335"/>
<text xml:space="preserve" text-anchor="middle" x="729" y="-319.5" font-family="Arial" font-size="10.00">TokenizerConfig</text>
<text xml:space="preserve" text-anchor="middle" x="729" y="-307.5" font-family="Arial" font-size="10.00">name / max_length / padding / truncation</text>
</g>
<!-- Protocol -->
<g id="node3" class="node">
<title>Protocol</title>
<path fill="#e3f2fd" stroke="#1565c0" d="M872.62,-262C872.62,-262 773.38,-262 773.38,-262 767.38,-262 761.38,-256 761.38,-250 761.38,-250 761.38,-238 761.38,-238 761.38,-232 767.38,-226 773.38,-226 773.38,-226 872.62,-226 872.62,-226 878.62,-226 884.62,-232 884.62,-238 884.62,-238 884.62,-250 884.62,-250 884.62,-256 878.62,-262 872.62,-262"/>
<text xml:space="preserve" text-anchor="middle" x="823" y="-246.5" font-family="Arial" font-size="10.00">TextTokenizer Protocol</text>
<text xml:space="preserve" text-anchor="middle" x="823" y="-234.5" font-family="Arial" font-size="10.00">tokenize(request, config)</text>
</g>
<!-- Config&#45;&gt;Protocol -->
<g id="edge1" class="edge">
<title>Config&#45;&gt;Protocol</title>
<path fill="none" stroke="black" d="M793.62,-298.58C793.62,-298.58 793.62,-270.93 793.62,-270.93"/>
<polygon fill="black" stroke="black" points="796.08,-270.93 793.63,-263.93 791.18,-270.93 796.08,-270.93"/>
</g>
<!-- Request -->
<g id="node2" class="node">
<title>Request</title>
<path fill="#e3f2fd" stroke="#1565c0" d="M976.12,-335C976.12,-335 855.88,-335 855.88,-335 849.88,-335 843.88,-329 843.88,-323 843.88,-323 843.88,-311 843.88,-311 843.88,-305 849.88,-299 855.88,-299 855.88,-299 976.12,-299 976.12,-299 982.12,-299 988.12,-305 988.12,-311 988.12,-311 988.12,-323 988.12,-323 988.12,-329 982.12,-335 976.12,-335"/>
<text xml:space="preserve" text-anchor="middle" x="916" y="-319.5" font-family="Arial" font-size="10.00">TokenizationRequest</text>
<text xml:space="preserve" text-anchor="middle" x="916" y="-307.5" font-family="Arial" font-size="10.00">texts / text_pairs? / metadata</text>
</g>
<!-- Request&#45;&gt;Protocol -->
<g id="edge2" class="edge">
<title>Request&#45;&gt;Protocol</title>
<path fill="none" stroke="black" d="M864.25,-298.58C864.25,-298.58 864.25,-270.93 864.25,-270.93"/>
<polygon fill="black" stroke="black" points="866.7,-270.93 864.25,-263.93 861.8,-270.93 866.7,-270.93"/>
</g>
<!-- Result -->
<g id="node4" class="node">
<title>Result</title>
<path fill="#e8f5e9" stroke="#2e7d32" d="M403.5,-160C403.5,-160 216.5,-160 216.5,-160 210.5,-160 204.5,-154 204.5,-148 204.5,-148 204.5,-136 204.5,-136 204.5,-130 210.5,-124 216.5,-124 216.5,-124 403.5,-124 403.5,-124 409.5,-124 415.5,-130 415.5,-136 415.5,-136 415.5,-148 415.5,-148 415.5,-154 409.5,-160 403.5,-160"/>
<text xml:space="preserve" text-anchor="middle" x="310" y="-144.5" font-family="Arial" font-size="10.00">TokenizationResult</text>
<text xml:space="preserve" text-anchor="middle" x="310" y="-132.5" font-family="Arial" font-size="10.00">input_ids / attention_mask / token_type_ids?</text>
</g>
<!-- Protocol&#45;&gt;Result -->
<g id="edge3" class="edge">
<title>Protocol&#45;&gt;Result</title>
<path fill="none" stroke="black" d="M761.12,-253C624.68,-253 310,-253 310,-253 310,-253 310,-168.84 310,-168.84"/>
<polygon fill="black" stroke="black" points="312.45,-168.84 310,-161.84 307.55,-168.84 312.45,-168.84"/>
<text xml:space="preserve" text-anchor="middle" x="473.25" y="-199.45" font-family="Arial" font-size="9.00">tokenize</text>
</g>
<!-- Registry -->
<g id="node8" class="node">
<title>Registry</title>
<path fill="#efebe9" stroke="#6d4c41" d="M652.88,-160C652.88,-160 561.12,-160 561.12,-160 555.12,-160 549.12,-154 549.12,-148 549.12,-148 549.12,-136 549.12,-136 549.12,-130 555.12,-124 561.12,-124 561.12,-124 652.88,-124 652.88,-124 658.88,-124 664.88,-130 664.88,-136 664.88,-136 664.88,-148 664.88,-148 664.88,-154 658.88,-160 652.88,-160"/>
<text xml:space="preserve" text-anchor="middle" x="607" y="-144.5" font-family="Arial" font-size="10.00">TokenizerRegistry</text>
<text xml:space="preserve" text-anchor="middle" x="607" y="-132.5" font-family="Arial" font-size="10.00">explicit tokenizers only</text>
</g>
<!-- Protocol&#45;&gt;Registry -->
<g id="edge7" class="edge">
<title>Protocol&#45;&gt;Registry</title>
<path fill="none" stroke="black" stroke-dasharray="5,2" d="M761.07,-244C709.01,-244 643.04,-244 643.04,-244 643.04,-244 643.04,-168.75 643.04,-168.75"/>
<polygon fill="black" stroke="black" points="645.49,-168.75 643.04,-161.75 640.59,-168.75 645.49,-168.75"/>
<text xml:space="preserve" text-anchor="middle" x="635.38" y="-199.45" font-family="Arial" font-size="9.00">register</text>
</g>
<!-- NoHF -->
<g id="node10" class="node">
<title>NoHF</title>
<path fill="#ffebee" stroke="#b71c1c" d="M804.5,-160C804.5,-160 701.5,-160 701.5,-160 695.5,-160 689.5,-154 689.5,-148 689.5,-148 689.5,-136 689.5,-136 689.5,-130 695.5,-124 701.5,-124 701.5,-124 804.5,-124 804.5,-124 810.5,-124 816.5,-130 816.5,-136 816.5,-136 816.5,-148 816.5,-148 816.5,-154 810.5,-160 804.5,-160"/>
<text xml:space="preserve" text-anchor="middle" x="753" y="-138.5" font-family="Arial" font-size="10.00">pas d&#39;import transformers</text>
</g>
<!-- Protocol&#45;&gt;NoHF -->
<g id="edge10" class="edge">
<title>Protocol&#45;&gt;NoHF</title>
<path fill="none" stroke="black" stroke-dasharray="1,5" d="M788.94,-225.76C788.94,-225.76 788.94,-168.94 788.94,-168.94"/>
<polygon fill="black" stroke="black" points="791.39,-168.94 788.94,-161.94 786.49,-168.94 791.39,-168.94"/>
</g>
<!-- NoTokenizers -->
<g id="node11" class="node">
<title>NoTokenizers</title>
<path fill="#ffebee" stroke="#b71c1c" d="M939.62,-160C939.62,-160 846.38,-160 846.38,-160 840.38,-160 834.38,-154 834.38,-148 834.38,-148 834.38,-136 834.38,-136 834.38,-130 840.38,-124 846.38,-124 846.38,-124 939.62,-124 939.62,-124 945.62,-124 951.62,-130 951.62,-136 951.62,-136 951.62,-148 951.62,-148 951.62,-154 945.62,-160 939.62,-160"/>
<text xml:space="preserve" text-anchor="middle" x="893" y="-138.5" font-family="Arial" font-size="10.00">pas d&#39;import tokenizers</text>
</g>
<!-- Protocol&#45;&gt;NoTokenizers -->
<g id="edge11" class="edge">
<title>Protocol&#45;&gt;NoTokenizers</title>
<path fill="none" stroke="black" stroke-dasharray="1,5" d="M859.5,-225.76C859.5,-225.76 859.5,-168.94 859.5,-168.94"/>
<polygon fill="black" stroke="black" points="861.95,-168.94 859.5,-161.94 857.05,-168.94 861.95,-168.94"/>
</g>
<!-- NoSentencePiece -->
<g id="node12" class="node">
<title>NoSentencePiece</title>
<path fill="#ffebee" stroke="#b71c1c" d="M1106.38,-160C1106.38,-160 981.62,-160 981.62,-160 975.62,-160 969.62,-154 969.62,-148 969.62,-148 969.62,-136 969.62,-136 969.62,-130 975.62,-124 981.62,-124 981.62,-124 1106.38,-124 1106.38,-124 1112.38,-124 1118.38,-130 1118.38,-136 1118.38,-136 1118.38,-148 1118.38,-148 1118.38,-154 1112.38,-160 1106.38,-160"/>
<text xml:space="preserve" text-anchor="middle" x="1044" y="-138.5" font-family="Arial" font-size="10.00">pas de SentencePiece imposé</text>
</g>
<!-- Protocol&#45;&gt;NoSentencePiece -->
<g id="edge12" class="edge">
<title>Protocol&#45;&gt;NoSentencePiece</title>
<path fill="none" stroke="black" stroke-dasharray="1,5" d="M885.05,-235C928.52,-235 978.88,-235 978.88,-235 978.88,-235 978.88,-168.89 978.88,-168.89"/>
<polygon fill="black" stroke="black" points="981.33,-168.89 978.88,-161.89 976.43,-168.89 981.33,-168.89"/>
</g>
<!-- NoDownload -->
<g id="node13" class="node">
<title>NoDownload</title>
<path fill="#ffebee" stroke="#b71c1c" d="M1239.5,-160C1239.5,-160 1148.5,-160 1148.5,-160 1142.5,-160 1136.5,-154 1136.5,-148 1136.5,-148 1136.5,-136 1136.5,-136 1136.5,-130 1142.5,-124 1148.5,-124 1148.5,-124 1239.5,-124 1239.5,-124 1245.5,-124 1251.5,-130 1251.5,-136 1251.5,-136 1251.5,-148 1251.5,-148 1251.5,-154 1245.5,-160 1239.5,-160"/>
<text xml:space="preserve" text-anchor="middle" x="1194" y="-138.5" font-family="Arial" font-size="10.00">pas de téléchargement</text>
</g>
<!-- Protocol&#45;&gt;NoDownload -->
<g id="edge13" class="edge">
<title>Protocol&#45;&gt;NoDownload</title>
<path fill="none" stroke="black" stroke-dasharray="1,5" d="M885.1,-244C990.71,-244 1194,-244 1194,-244 1194,-244 1194,-168.75 1194,-168.75"/>
<polygon fill="black" stroke="black" points="1196.45,-168.75 1194,-161.75 1191.55,-168.75 1196.45,-168.75"/>
</g>
<!-- NoModel -->
<g id="node14" class="node">
<title>NoModel</title>
<path fill="#ffebee" stroke="#b71c1c" d="M1372.12,-160C1372.12,-160 1281.88,-160 1281.88,-160 1275.88,-160 1269.88,-154 1269.88,-148 1269.88,-148 1269.88,-136 1269.88,-136 1269.88,-130 1275.88,-124 1281.88,-124 1281.88,-124 1372.12,-124 1372.12,-124 1378.12,-124 1384.12,-130 1384.12,-136 1384.12,-136 1384.12,-148 1384.12,-148 1384.12,-154 1378.12,-160 1372.12,-160"/>
<text xml:space="preserve" text-anchor="middle" x="1327" y="-138.5" font-family="Arial" font-size="10.00">pas de modèle imposé</text>
</g>
<!-- Protocol&#45;&gt;NoModel -->
<g id="edge14" class="edge">
<title>Protocol&#45;&gt;NoModel</title>
<path fill="none" stroke="black" stroke-dasharray="1,5" d="M885.05,-253C1019.77,-253 1327,-253 1327,-253 1327,-253 1327,-168.84 1327,-168.84"/>
<polygon fill="black" stroke="black" points="1329.45,-168.84 1327,-161.84 1324.55,-168.84 1329.45,-168.84"/>
</g>
<!-- Pipeline -->
<g id="node5" class="node">
<title>Pipeline</title>
<g id="a_node5"><a xlink:href="47_openvino_embedding_pipeline.svg" xlink:title="OpenVINOEmbeddingPipeline\nconsumes tokenizer">
<path fill="#e8f5e9" stroke="#2e7d32" d="M151.62,-52C151.62,-52 28.38,-52 28.38,-52 22.38,-52 16.38,-46 16.38,-40 16.38,-40 16.38,-28 16.38,-28 16.38,-22 22.38,-16 28.38,-16 28.38,-16 151.62,-16 151.62,-16 157.62,-16 163.62,-22 163.62,-28 163.62,-28 163.62,-40 163.62,-40 163.62,-46 157.62,-52 151.62,-52"/>
<text xml:space="preserve" text-anchor="middle" x="90" y="-36.5" font-family="Arial" font-size="10.00">OpenVINOEmbeddingPipeline</text>
<text xml:space="preserve" text-anchor="middle" x="90" y="-24.5" font-family="Arial" font-size="10.00">consumes tokenizer</text>
</a>
</g>
</g>
<!-- Result&#45;&gt;Pipeline -->
<g id="edge6" class="edge">
<title>Result&#45;&gt;Pipeline</title>
<path fill="none" stroke="black" stroke-dasharray="5,2" d="M204.19,-142C147.83,-142 90,-142 90,-142 90,-142 90,-60.83 90,-60.83"/>
<polygon fill="black" stroke="black" points="92.45,-60.83 90,-53.83 87.55,-60.83 92.45,-60.83"/>
<text xml:space="preserve" text-anchor="middle" x="183.62" y="-84.7" font-family="Arial" font-size="9.00">Phase 3.5</text>
</g>
<!-- ShapeChecks -->
<g id="node6" class="node">
<title>ShapeChecks</title>
<path fill="#e8f5e9" stroke="#2e7d32" d="M314.5,-52C314.5,-52 193.5,-52 193.5,-52 187.5,-52 181.5,-46 181.5,-40 181.5,-40 181.5,-28 181.5,-28 181.5,-22 187.5,-16 193.5,-16 193.5,-16 314.5,-16 314.5,-16 320.5,-16 326.5,-22 326.5,-28 326.5,-28 326.5,-40 326.5,-40 326.5,-46 320.5,-52 314.5,-52"/>
<text xml:space="preserve" text-anchor="middle" x="254" y="-36.5" font-family="Arial" font-size="10.00">shape checks</text>
<text xml:space="preserve" text-anchor="middle" x="254" y="-24.5" font-family="Arial" font-size="10.00">2D rectangular + same shape</text>
</g>
<!-- Result&#45;&gt;ShapeChecks -->
<g id="edge4" class="edge">
<title>Result&#45;&gt;ShapeChecks</title>
<path fill="none" stroke="black" d="M265.5,-123.68C265.5,-123.68 265.5,-60.92 265.5,-60.92"/>
<polygon fill="black" stroke="black" points="267.95,-60.92 265.5,-53.92 263.05,-60.92 267.95,-60.92"/>
</g>
<!-- RawInputs -->
<g id="node7" class="node">
<title>RawInputs</title>
<g id="a_node7"><a xlink:href="45_openvino_embedding_raw.svg" xlink:title="OpenVINOEmbeddingRawInputs">
<path fill="#e8f5e9" stroke="#2e7d32" d="M493,-52C493,-52 357,-52 357,-52 351,-52 345,-46 345,-40 345,-40 345,-28 345,-28 345,-22 351,-16 357,-16 357,-16 493,-16 493,-16 499,-16 505,-22 505,-28 505,-28 505,-40 505,-40 505,-46 499,-52 493,-52"/>
<text xml:space="preserve" text-anchor="middle" x="425" y="-30.5" font-family="Arial" font-size="10.00">OpenVINOEmbeddingRawInputs</text>
</a>
</g>
</g>
<!-- Result&#45;&gt;RawInputs -->
<g id="edge5" class="edge">
<title>Result&#45;&gt;RawInputs</title>
<path fill="none" stroke="black" d="M380.25,-123.68C380.25,-123.68 380.25,-60.92 380.25,-60.92"/>
<polygon fill="black" stroke="black" points="382.7,-60.92 380.25,-53.92 377.8,-60.92 382.7,-60.92"/>
<text xml:space="preserve" text-anchor="middle" x="391.75" y="-84.7" font-family="Arial" font-size="9.00">to_embedding_raw_inputs</text>
</g>
<!-- Registry&#45;&gt;Protocol -->
<g id="edge8" class="edge">
<title>Registry&#45;&gt;Protocol</title>
<path fill="none" stroke="black" stroke-dasharray="5,2" d="M653.96,-160.37C653.96,-187.48 653.96,-235 653.96,-235 653.96,-235 752.5,-235 752.5,-235"/>
<polygon fill="black" stroke="black" points="752.5,-237.45 759.5,-235 752.5,-232.55 752.5,-237.45"/>
<text xml:space="preserve" text-anchor="middle" x="729" y="-199.45" font-family="Arial" font-size="9.00">select</text>
</g>
<!-- Snapshot -->
<g id="node9" class="node">
<title>Snapshot</title>
<path fill="#efebe9" stroke="#6d4c41" d="M653,-52C653,-52 541,-52 541,-52 535,-52 529,-46 529,-40 529,-40 529,-28 529,-28 529,-22 535,-16 541,-16 541,-16 653,-16 653,-16 659,-16 665,-22 665,-28 665,-28 665,-40 665,-40 665,-46 659,-52 653,-52"/>
<text xml:space="preserve" text-anchor="middle" x="597" y="-36.5" font-family="Arial" font-size="10.00">TokenizerRegistrySnapshot</text>
<text xml:space="preserve" text-anchor="middle" x="597" y="-24.5" font-family="Arial" font-size="10.00">names/default/count</text>
</g>
<!-- Registry&#45;&gt;Snapshot -->
<g id="edge9" class="edge">
<title>Registry&#45;&gt;Snapshot</title>
<path fill="none" stroke="black" d="M607,-123.68C607,-123.68 607,-60.92 607,-60.92"/>
<polygon fill="black" stroke="black" points="609.45,-60.92 607,-53.92 604.55,-60.92 609.45,-60.92"/>
<text xml:space="preserve" text-anchor="middle" x="620.75" y="-84.7" font-family="Arial" font-size="9.00">snapshot</text>
</g>
<!-- Nav_RawIO -->
<g id="node15" class="node">
<title>Nav_RawIO</title>
<g id="a_node15"><a xlink:href="45_openvino_embedding_raw.svg" xlink:title="Embedding raw IO">
<path fill="lightgrey" stroke="none" d="M766.5,-106C766.5,-106 693.5,-106 693.5,-106 687.5,-106 681.5,-100 681.5,-94 681.5,-94 681.5,-82 681.5,-82 681.5,-76 687.5,-70 693.5,-70 693.5,-70 766.5,-70 766.5,-70 772.5,-70 778.5,-76 778.5,-82 778.5,-82 778.5,-94 778.5,-94 778.5,-100 772.5,-106 766.5,-106"/>
<text xml:space="preserve" text-anchor="middle" x="730" y="-84.5" font-family="Arial" font-size="10.00">Embedding raw IO</text>
</a>
</g>
</g>
<!-- Nav_EmbeddingProfile -->
<g id="node16" class="node">
<title>Nav_EmbeddingProfile</title>
<g id="a_node16"><a xlink:href="44_openvino_embedding_profile.svg" xlink:title="Embedding profile">
<path fill="lightgrey" stroke="none" d="M866,-106C866,-106 796,-106 796,-106 790,-106 784,-100 784,-94 784,-94 784,-82 784,-82 784,-76 790,-70 796,-70 796,-70 866,-70 866,-70 872,-70 878,-76 878,-82 878,-82 878,-94 878,-94 878,-100 872,-106 866,-106"/>
<text xml:space="preserve" text-anchor="middle" x="831" y="-84.5" font-family="Arial" font-size="10.00">Embedding profile</text>
</a>
</g>
</g>
<!-- Nav_Profiles -->
<g id="node17" class="node">
<title>Nav_Profiles</title>
<g id="a_node17"><a xlink:href="43_openvino_profiles.svg" xlink:title="OpenVINO profiles">
<path fill="lightgrey" stroke="none" d="M969.25,-106C969.25,-106 894.75,-106 894.75,-106 888.75,-106 882.75,-100 882.75,-94 882.75,-94 882.75,-82 882.75,-82 882.75,-76 888.75,-70 894.75,-70 894.75,-70 969.25,-70 969.25,-70 975.25,-70 981.25,-76 981.25,-82 981.25,-82 981.25,-94 981.25,-94 981.25,-100 975.25,-106 969.25,-106"/>
<text xml:space="preserve" text-anchor="middle" x="932" y="-84.5" font-family="Arial" font-size="10.00">OpenVINO profiles</text>
</a>
</g>
</g>
<!-- Nav_Inference -->
<g id="node18" class="node">
<title>Nav_Inference</title>
<g id="a_node18"><a xlink:href="40_inference.svg" xlink:title="Inference">
<path fill="lightgrey" stroke="none" d="M1031.25,-106C1031.25,-106 998.75,-106 998.75,-106 992.75,-106 986.75,-100 986.75,-94 986.75,-94 986.75,-82 986.75,-82 986.75,-76 992.75,-70 998.75,-70 998.75,-70 1031.25,-70 1031.25,-70 1037.25,-70 1043.25,-76 1043.25,-82 1043.25,-82 1043.25,-94 1043.25,-94 1043.25,-100 1037.25,-106 1031.25,-106"/>
<text xml:space="preserve" text-anchor="middle" x="1015" y="-84.5" font-family="Arial" font-size="10.00">Inference</text>
</a>
</g>
</g>
<!-- Nav_Global -->
<g id="node19" class="node">
<title>Nav_Global</title>
<g id="a_node19"><a xlink:href="../00_global.svg" xlink:title="Global">
<path fill="lightgrey" stroke="none" d="M1090,-106C1090,-106 1060,-106 1060,-106 1054,-106 1048,-100 1048,-94 1048,-94 1048,-82 1048,-82 1048,-76 1054,-70 1060,-70 1060,-70 1090,-70 1090,-70 1096,-70 1102,-76 1102,-82 1102,-82 1102,-94 1102,-94 1102,-100 1096,-106 1090,-106"/>
<text xml:space="preserve" text-anchor="middle" x="1075" y="-84.5" font-family="Arial" font-size="10.00">Global</text>
</a>
</g>
</g>
<!-- Nav_Pipeline -->
<g id="node20" class="node">
<title>Nav_Pipeline</title>
<g id="a_node20"><a xlink:href="47_openvino_embedding_pipeline.svg" xlink:title="Embedding pipeline">
<path fill="lightgrey" stroke="none" d="M1195.38,-106C1195.38,-106 1118.62,-106 1118.62,-106 1112.62,-106 1106.62,-100 1106.62,-94 1106.62,-94 1106.62,-82 1106.62,-82 1106.62,-76 1112.62,-70 1118.62,-70 1118.62,-70 1195.38,-70 1195.38,-70 1201.38,-70 1207.38,-76 1207.38,-82 1207.38,-82 1207.38,-94 1207.38,-94 1207.38,-100 1201.38,-106 1195.38,-106"/>
<text xml:space="preserve" text-anchor="middle" x="1157" y="-84.5" font-family="Arial" font-size="10.00">Embedding pipeline</text>
</a>
</g>
</g>
<!-- Nav_TestTokenizer -->
<g id="node21" class="node">
<title>Nav_TestTokenizer</title>
<g id="a_node21"><a xlink:href="48_deterministic_tokenizer.svg" xlink:title="Deterministic tokenizer">
<path fill="lightgrey" stroke="none" d="M1317.25,-106C1317.25,-106 1224.75,-106 1224.75,-106 1218.75,-106 1212.75,-100 1212.75,-94 1212.75,-94 1212.75,-82 1212.75,-82 1212.75,-76 1218.75,-70 1224.75,-70 1224.75,-70 1317.25,-70 1317.25,-70 1323.25,-70 1329.25,-76 1329.25,-82 1329.25,-82 1329.25,-94 1329.25,-94 1329.25,-100 1323.25,-106 1317.25,-106"/>
<text xml:space="preserve" text-anchor="middle" x="1271" y="-84.5" font-family="Arial" font-size="10.00">Deterministic tokenizer</text>
</a>
</g>
</g>
</g>
</svg>
