<?xml version="1.0" encoding="UTF-8" standalone="no"?>
<!DOCTYPE svg PUBLIC "-//W3C//DTD SVG 1.1//EN"
 "http://www.w3.org/Graphics/SVG/1.1/DTD/svg11.dtd">
<!-- Generated by graphviz version 14.1.3 (20260303.0454)
 -->
<!-- Title: OpenVINOEmbeddingPipeline Pages: 1 -->
<svg width="561pt" height="1328pt"
 viewBox="0.00 0.00 561.00 1328.00" xmlns="http://www.w3.org/2000/svg" xmlns:xlink="http://www.w3.org/1999/xlink">
<g id="graph0" class="graph" transform="scale(1 1) rotate(0) translate(4 1323.5)">
<title>OpenVINOEmbeddingPipeline</title>
<polygon fill="white" stroke="none" points="-4,4 -4,-1323.5 557,-1323.5 557,4 -4,4"/>
<g id="clust1" class="cluster">
<title>cluster_text</title>
<polygon fill="#e3f2fd" stroke="#1565c0" points="145,-946 145,-1311.5 291,-1311.5 291,-946 145,-946"/>
<text xml:space="preserve" text-anchor="middle" x="218" y="-1297.05" font-family="Arial" font-size="11.00">Texte et tokenization</text>
</g>
<g id="clust2" class="cluster">
<title>cluster_raw</title>
<polygon fill="#e8f5e9" stroke="#2e7d32" points="130,-780.5 130,-927 306,-927 306,-780.5 130,-780.5"/>
<text xml:space="preserve" text-anchor="middle" x="218" y="-912.55" font-family="Arial" font-size="11.00">Projection raw OpenVINO</text>
</g>
<g id="clust3" class="cluster">
<title>cluster_execution</title>
<polygon fill="#efebe9" stroke="#6d4c41" points="106,-386.5 106,-761.5 244,-761.5 244,-386.5 106,-386.5"/>
<text xml:space="preserve" text-anchor="middle" x="175" y="-747.05" font-family="Arial" font-size="11.00">Exécution backend</text>
</g>
<g id="clust4" class="cluster">
<title>cluster_vector</title>
<polygon fill="#e0f7fa" stroke="#00838f" points="134,-138.5 134,-358 326,-358 326,-138.5 134,-138.5"/>
<text xml:space="preserve" text-anchor="middle" x="230" y="-343.55" font-family="Arial" font-size="11.00">Post&#45;traitement embedding</text>
</g>
<g id="clust5" class="cluster">
<title>cluster_not_here</title>
<polygon fill="#ffebee" stroke="#b71c1c" points="8,-46 8,-119.5 545,-119.5 545,-46 8,-46"/>
<text xml:space="preserve" text-anchor="middle" x="276.5" y="-105.05" font-family="Arial" font-size="11.00">Hors phase</text>
</g>
<!-- Text -->
<g id="node1" class="node">
<title>Text</title>
<path fill="#e3f2fd" stroke="#1565c0" d="M264.62,-1282C264.62,-1282 171.38,-1282 171.38,-1282 165.38,-1282 159.38,-1276 159.38,-1270 159.38,-1270 159.38,-1258 159.38,-1258 159.38,-1252 165.38,-1246 171.38,-1246 171.38,-1246 264.62,-1246 264.62,-1246 270.62,-1246 276.62,-1252 276.62,-1258 276.62,-1258 276.62,-1270 276.62,-1270 276.62,-1276 270.62,-1282 264.62,-1282"/>
<text xml:space="preserve" text-anchor="middle" x="218" y="-1266.5" font-family="Arial" font-size="10.00">texte unique</text>
<text xml:space="preserve" text-anchor="middle" x="218" y="-1254.5" font-family="Arial" font-size="10.00">Phase 3.5 mono&#45;vector</text>
</g>
<!-- TokenizationRequest -->
<g id="node2" class="node">
<title>TokenizationRequest</title>
<g id="a_node2"><a xlink:href="46_tokenizer_contract.svg" xlink:title="TokenizationRequest">
<path fill="#e3f2fd" stroke="#1565c0" d="M259.75,-1209C259.75,-1209 176.25,-1209 176.25,-1209 170.25,-1209 164.25,-1203 164.25,-1197 164.25,-1197 164.25,-1185 164.25,-1185 164.25,-1179 170.25,-1173 176.25,-1173 176.25,-1173 259.75,-1173 259.75,-1173 265.75,-1173 271.75,-1179 271.75,-1185 271.75,-1185 271.75,-1197 271.75,-1197 271.75,-1203 265.75,-1209 259.75,-1209"/>
<text xml:space="preserve" text-anchor="middle" x="218" y="-1187.5" font-family="Arial" font-size="10.00">TokenizationRequest</text>
</a>
</g>
</g>
<!-- Text&#45;&gt;TokenizationRequest -->
<g id="edge1" class="edge">
<title>Text&#45;&gt;TokenizationRequest</title>
<path fill="none" stroke="black" d="M218,-1245.58C218,-1245.58 218,-1217.93 218,-1217.93"/>
<polygon fill="black" stroke="black" points="220.45,-1217.93 218,-1210.93 215.55,-1217.93 220.45,-1217.93"/>
</g>
<!-- TokenizerRegistry -->
<g id="node3" class="node">
<title>TokenizerRegistry</title>
<g id="a_node3"><a xlink:href="46_tokenizer_contract.svg" xlink:title="TokenizerRegistry\nselect(tokenizer_name)">
<path fill="#e3f2fd" stroke="#1565c0" d="M264.62,-1136C264.62,-1136 171.38,-1136 171.38,-1136 165.38,-1136 159.38,-1130 159.38,-1124 159.38,-1124 159.38,-1112 159.38,-1112 159.38,-1106 165.38,-1100 171.38,-1100 171.38,-1100 264.62,-1100 264.62,-1100 270.62,-1100 276.62,-1106 276.62,-1112 276.62,-1112 276.62,-1124 276.62,-1124 276.62,-1130 270.62,-1136 264.62,-1136"/>
<text xml:space="preserve" text-anchor="middle" x="218" y="-1120.5" font-family="Arial" font-size="10.00">TokenizerRegistry</text>
<text xml:space="preserve" text-anchor="middle" x="218" y="-1108.5" font-family="Arial" font-size="10.00">select(tokenizer_name)</text>
</a>
</g>
</g>
<!-- TokenizationRequest&#45;&gt;TokenizerRegistry -->
<g id="edge2" class="edge">
<title>TokenizationRequest&#45;&gt;TokenizerRegistry</title>
<path fill="none" stroke="black" d="M218,-1172.58C218,-1172.58 218,-1144.93 218,-1144.93"/>
<polygon fill="black" stroke="black" points="220.45,-1144.93 218,-1137.93 215.55,-1144.93 220.45,-1144.93"/>
</g>
<!-- TextTokenizer -->
<g id="node4" class="node">
<title>TextTokenizer</title>
<g id="a_node4"><a xlink:href="46_tokenizer_contract.svg" xlink:title="TextTokenizer Protocol\ninjectable">
<path fill="#e3f2fd" stroke="#1565c0" d="M263.88,-1063C263.88,-1063 172.12,-1063 172.12,-1063 166.12,-1063 160.12,-1057 160.12,-1051 160.12,-1051 160.12,-1039 160.12,-1039 160.12,-1033 166.12,-1027 172.12,-1027 172.12,-1027 263.88,-1027 263.88,-1027 269.88,-1027 275.88,-1033 275.88,-1039 275.88,-1039 275.88,-1051 275.88,-1051 275.88,-1057 269.88,-1063 263.88,-1063"/>
<text xml:space="preserve" text-anchor="middle" x="218" y="-1047.5" font-family="Arial" font-size="10.00">TextTokenizer Protocol</text>
<text xml:space="preserve" text-anchor="middle" x="218" y="-1035.5" font-family="Arial" font-size="10.00">injectable</text>
</a>
</g>
</g>
<!-- TokenizerRegistry&#45;&gt;TextTokenizer -->
<g id="edge3" class="edge">
<title>TokenizerRegistry&#45;&gt;TextTokenizer</title>
<path fill="none" stroke="black" d="M218,-1099.58C218,-1099.58 218,-1071.93 218,-1071.93"/>
<polygon fill="black" stroke="black" points="220.45,-1071.93 218,-1064.93 215.55,-1071.93 220.45,-1071.93"/>
</g>
<!-- TokenizationResult -->
<g id="node5" class="node">
<title>TokenizationResult</title>
<g id="a_node5"><a xlink:href="46_tokenizer_contract.svg" xlink:title="TokenizationResult\ninput_ids / attention_mask">
<path fill="#e3f2fd" stroke="#1565c0" d="M271.38,-990C271.38,-990 164.62,-990 164.62,-990 158.62,-990 152.62,-984 152.62,-978 152.62,-978 152.62,-966 152.62,-966 152.62,-960 158.62,-954 164.62,-954 164.62,-954 271.38,-954 271.38,-954 277.38,-954 283.38,-960 283.38,-966 283.38,-966 283.38,-978 283.38,-978 283.38,-984 277.38,-990 271.38,-990"/>
<text xml:space="preserve" text-anchor="middle" x="218" y="-974.5" font-family="Arial" font-size="10.00">TokenizationResult</text>
<text xml:space="preserve" text-anchor="middle" x="218" y="-962.5" font-family="Arial" font-size="10.00">input_ids / attention_mask</text>
</a>
</g>
</g>
<!-- TextTokenizer&#45;&gt;TokenizationResult -->
<g id="edge4" class="edge">
<title>TextTokenizer&#45;&gt;TokenizationResult</title>
<path fill="none" stroke="black" d="M218,-1026.58C218,-1026.58 218,-998.93 218,-998.93"/>
<polygon fill="black" stroke="black" points="220.45,-998.93 218,-991.93 215.55,-998.93 220.45,-998.93"/>
</g>
<!-- RawInputs -->
<g id="node6" class="node">
<title>RawInputs</title>
<g id="a_node6"><a xlink:href="45_openvino_embedding_raw.svg" xlink:title="OpenVINOEmbeddingRawInputs">
<path fill="#e8f5e9" stroke="#2e7d32" d="M286,-897.5C286,-897.5 150,-897.5 150,-897.5 144,-897.5 138,-891.5 138,-885.5 138,-885.5 138,-873.5 138,-873.5 138,-867.5 144,-861.5 150,-861.5 150,-861.5 286,-861.5 286,-861.5 292,-861.5 298,-867.5 298,-873.5 298,-873.5 298,-885.5 298,-885.5 298,-891.5 292,-897.5 286,-897.5"/>
<text xml:space="preserve" text-anchor="middle" x="218" y="-876" font-family="Arial" font-size="10.00">OpenVINOEmbeddingRawInputs</text>
</a>
</g>
</g>
<!-- TokenizationResult&#45;&gt;RawInputs -->
<g id="edge5" class="edge">
<title>TokenizationResult&#45;&gt;RawInputs</title>
<path fill="none" stroke="black" d="M218,-953.72C218,-953.72 218,-906.25 218,-906.25"/>
<polygon fill="black" stroke="black" points="220.45,-906.25 218,-899.25 215.55,-906.25 220.45,-906.25"/>
</g>
<!-- InferenceRequest -->
<g id="node7" class="node">
<title>InferenceRequest</title>
<g id="a_node7"><a xlink:href="40_inference.svg" xlink:title="InferenceRequest\ncontext[&#39;inputs&#39;]">
<path fill="#e8f5e9" stroke="#2e7d32" d="M228.62,-824.5C228.62,-824.5 159.38,-824.5 159.38,-824.5 153.38,-824.5 147.38,-818.5 147.38,-812.5 147.38,-812.5 147.38,-800.5 147.38,-800.5 147.38,-794.5 153.38,-788.5 159.38,-788.5 159.38,-788.5 228.62,-788.5 228.62,-788.5 234.62,-788.5 240.62,-794.5 240.62,-800.5 240.62,-800.5 240.62,-812.5 240.62,-812.5 240.62,-818.5 234.62,-824.5 228.62,-824.5"/>
<text xml:space="preserve" text-anchor="middle" x="194" y="-809" font-family="Arial" font-size="10.00">InferenceRequest</text>
<text xml:space="preserve" text-anchor="middle" x="194" y="-797" font-family="Arial" font-size="10.00">context[&#39;inputs&#39;]</text>
</a>
</g>
</g>
<!-- RawInputs&#45;&gt;InferenceRequest -->
<g id="edge6" class="edge">
<title>RawInputs&#45;&gt;InferenceRequest</title>
<path fill="none" stroke="black" d="M194,-861.08C194,-861.08 194,-833.43 194,-833.43"/>
<polygon fill="black" stroke="black" points="196.45,-833.43 194,-826.43 191.55,-833.43 196.45,-833.43"/>
</g>
<!-- OutputAdapter -->
<g id="node13" class="node">
<title>OutputAdapter</title>
<g id="a_node13"><a xlink:href="45_openvino_embedding_raw.svg" xlink:title="OpenVINOEmbeddingOutputAdapter">
<path fill="#e0f7fa" stroke="#00838f" d="M305.88,-328.5C305.88,-328.5 154.12,-328.5 154.12,-328.5 148.12,-328.5 142.12,-322.5 142.12,-316.5 142.12,-316.5 142.12,-304.5 142.12,-304.5 142.12,-298.5 148.12,-292.5 154.12,-292.5 154.12,-292.5 305.88,-292.5 305.88,-292.5 311.88,-292.5 317.88,-298.5 317.88,-304.5 317.88,-304.5 317.88,-316.5 317.88,-316.5 317.88,-322.5 311.88,-328.5 305.88,-328.5"/>
<text xml:space="preserve" text-anchor="middle" x="230" y="-307" font-family="Arial" font-size="10.00">OpenVINOEmbeddingOutputAdapter</text>
</a>
</g>
</g>
<!-- RawInputs&#45;&gt;OutputAdapter -->
<g id="edge13" class="edge">
<title>RawInputs&#45;&gt;OutputAdapter</title>
<path fill="none" stroke="black" stroke-dasharray="5,2" d="M269.31,-861.21C269.31,-861.21 269.31,-337.23 269.31,-337.23"/>
<polygon fill="black" stroke="black" points="271.76,-337.23 269.31,-330.23 266.86,-337.23 271.76,-337.23"/>
<text xml:space="preserve" text-anchor="middle" x="301.12" y="-596.45" font-family="Arial" font-size="9.00">attention_mask</text>
</g>
<!-- InferenceAdapter -->
<g id="node8" class="node">
<title>InferenceAdapter</title>
<g id="a_node8"><a xlink:href="40_inference.svg" xlink:title="InferenceAdapter">
<path fill="#efebe9" stroke="#6d4c41" d="M217.12,-732C217.12,-732 150.88,-732 150.88,-732 144.88,-732 138.88,-726 138.88,-720 138.88,-720 138.88,-708 138.88,-708 138.88,-702 144.88,-696 150.88,-696 150.88,-696 217.12,-696 217.12,-696 223.12,-696 229.12,-702 229.12,-708 229.12,-708 229.12,-720 229.12,-720 229.12,-726 223.12,-732 217.12,-732"/>
<text xml:space="preserve" text-anchor="middle" x="184" y="-710.5" font-family="Arial" font-size="10.00">InferenceAdapter</text>
</a>
</g>
</g>
<!-- InferenceRequest&#45;&gt;InferenceAdapter -->
<g id="edge7" class="edge">
<title>InferenceRequest&#45;&gt;InferenceAdapter</title>
<path fill="none" stroke="black" d="M188.25,-788.22C188.25,-788.22 188.25,-740.75 188.25,-740.75"/>
<polygon fill="black" stroke="black" points="190.7,-740.75 188.25,-733.75 185.8,-740.75 190.7,-740.75"/>
</g>
<!-- BackendRegistry -->
<g id="node9" class="node">
<title>BackendRegistry</title>
<g id="a_node9"><a xlink:href="40_inference.svg" xlink:title="BackendRegistry">
<path fill="#efebe9" stroke="#6d4c41" d="M210.5,-659C210.5,-659 143.5,-659 143.5,-659 137.5,-659 131.5,-653 131.5,-647 131.5,-647 131.5,-635 131.5,-635 131.5,-629 137.5,-623 143.5,-623 143.5,-623 210.5,-623 210.5,-623 216.5,-623 222.5,-629 222.5,-635 222.5,-635 222.5,-647 222.5,-647 222.5,-653 216.5,-659 210.5,-659"/>
<text xml:space="preserve" text-anchor="middle" x="177" y="-637.5" font-family="Arial" font-size="10.00">BackendRegistry</text>
</a>
</g>
</g>
<!-- InferenceAdapter&#45;&gt;BackendRegistry -->
<g id="edge8" class="edge">
<title>InferenceAdapter&#45;&gt;BackendRegistry</title>
<path fill="none" stroke="black" d="M180.69,-695.58C180.69,-695.58 180.69,-667.93 180.69,-667.93"/>
<polygon fill="black" stroke="black" points="183.14,-667.93 180.69,-660.93 178.24,-667.93 183.14,-667.93"/>
</g>
<!-- OpenVINOBackend -->
<g id="node10" class="node">
<title>OpenVINOBackend</title>
<g id="a_node10"><a xlink:href="41_openvino_backend.svg" xlink:title="OpenVINOBackend">
<path fill="#efebe9" stroke="#6d4c41" d="M214.12,-576.5C214.12,-576.5 135.88,-576.5 135.88,-576.5 129.88,-576.5 123.88,-570.5 123.88,-564.5 123.88,-564.5 123.88,-552.5 123.88,-552.5 123.88,-546.5 129.88,-540.5 135.88,-540.5 135.88,-540.5 214.12,-540.5 214.12,-540.5 220.12,-540.5 226.12,-546.5 226.12,-552.5 226.12,-552.5 226.12,-564.5 226.12,-564.5 226.12,-570.5 220.12,-576.5 214.12,-576.5"/>
<text xml:space="preserve" text-anchor="middle" x="175" y="-555" font-family="Arial" font-size="10.00">OpenVINOBackend</text>
</a>
</g>
</g>
<!-- BackendRegistry&#45;&gt;OpenVINOBackend -->
<g id="edge9" class="edge">
<title>BackendRegistry&#45;&gt;OpenVINOBackend</title>
<path fill="none" stroke="black" d="M177,-622.69C177,-622.69 177,-585.27 177,-585.27"/>
<polygon fill="black" stroke="black" points="179.45,-585.27 177,-578.27 174.55,-585.27 179.45,-585.27"/>
</g>
<!-- Runtime -->
<g id="node11" class="node">
<title>Runtime</title>
<g id="a_node11"><a xlink:href="42_openvino_runtime.svg" xlink:title="RealOpenVINORuntime">
<path fill="#efebe9" stroke="#6d4c41" d="M223.5,-503.5C223.5,-503.5 126.5,-503.5 126.5,-503.5 120.5,-503.5 114.5,-497.5 114.5,-491.5 114.5,-491.5 114.5,-479.5 114.5,-479.5 114.5,-473.5 120.5,-467.5 126.5,-467.5 126.5,-467.5 223.5,-467.5 223.5,-467.5 229.5,-467.5 235.5,-473.5 235.5,-479.5 235.5,-479.5 235.5,-491.5 235.5,-491.5 235.5,-497.5 229.5,-503.5 223.5,-503.5"/>
<text xml:space="preserve" text-anchor="middle" x="175" y="-482" font-family="Arial" font-size="10.00">RealOpenVINORuntime</text>
</a>
</g>
</g>
<!-- OpenVINOBackend&#45;&gt;Runtime -->
<g id="edge10" class="edge">
<title>OpenVINOBackend&#45;&gt;Runtime</title>
<path fill="none" stroke="black" d="M175,-540.08C175,-540.08 175,-512.43 175,-512.43"/>
<polygon fill="black" stroke="black" points="177.45,-512.43 175,-505.43 172.55,-512.43 177.45,-512.43"/>
</g>
<!-- InferenceResult -->
<g id="node12" class="node">
<title>InferenceResult</title>
<g id="a_node12"><a xlink:href="40_inference.svg" xlink:title="InferenceResult\nmetadata[&#39;raw_outputs&#39;]">
<path fill="#efebe9" stroke="#6d4c41" d="M224.12,-430.5C224.12,-430.5 127.88,-430.5 127.88,-430.5 121.88,-430.5 115.88,-424.5 115.88,-418.5 115.88,-418.5 115.88,-406.5 115.88,-406.5 115.88,-400.5 121.88,-394.5 127.88,-394.5 127.88,-394.5 224.12,-394.5 224.12,-394.5 230.12,-394.5 236.12,-400.5 236.12,-406.5 236.12,-406.5 236.12,-418.5 236.12,-418.5 236.12,-424.5 230.12,-430.5 224.12,-430.5"/>
<text xml:space="preserve" text-anchor="middle" x="176" y="-415" font-family="Arial" font-size="10.00">InferenceResult</text>
<text xml:space="preserve" text-anchor="middle" x="176" y="-403" font-family="Arial" font-size="10.00">metadata[&#39;raw_outputs&#39;]</text>
</a>
</g>
</g>
<!-- Runtime&#45;&gt;InferenceResult -->
<g id="edge11" class="edge">
<title>Runtime&#45;&gt;InferenceResult</title>
<path fill="none" stroke="black" d="M175.69,-467.08C175.69,-467.08 175.69,-439.43 175.69,-439.43"/>
<polygon fill="black" stroke="black" points="178.14,-439.43 175.69,-432.43 173.24,-439.43 178.14,-439.43"/>
</g>
<!-- InferenceResult&#45;&gt;OutputAdapter -->
<g id="edge12" class="edge">
<title>InferenceResult&#45;&gt;OutputAdapter</title>
<path fill="none" stroke="black" d="M189.12,-394.26C189.12,-394.26 189.12,-337.44 189.12,-337.44"/>
<polygon fill="black" stroke="black" points="191.58,-337.44 189.13,-330.44 186.68,-337.44 191.58,-337.44"/>
<text xml:space="preserve" text-anchor="middle" x="215.12" y="-367.95" font-family="Arial" font-size="9.00">raw_outputs</text>
</g>
<!-- Vector -->
<g id="node14" class="node">
<title>Vector</title>
<g id="a_node14"><a xlink:href="45_openvino_embedding_raw.svg" xlink:title="OpenVINOEmbeddingVector">
<path fill="#e0f7fa" stroke="#00838f" d="M288.25,-255.5C288.25,-255.5 171.75,-255.5 171.75,-255.5 165.75,-255.5 159.75,-249.5 159.75,-243.5 159.75,-243.5 159.75,-231.5 159.75,-231.5 159.75,-225.5 165.75,-219.5 171.75,-219.5 171.75,-219.5 288.25,-219.5 288.25,-219.5 294.25,-219.5 300.25,-225.5 300.25,-231.5 300.25,-231.5 300.25,-243.5 300.25,-243.5 300.25,-249.5 294.25,-255.5 288.25,-255.5"/>
<text xml:space="preserve" text-anchor="middle" x="230" y="-234" font-family="Arial" font-size="10.00">OpenVINOEmbeddingVector</text>
</a>
</g>
</g>
<!-- OutputAdapter&#45;&gt;Vector -->
<g id="edge14" class="edge">
<title>OutputAdapter&#45;&gt;Vector</title>
<path fill="none" stroke="black" d="M230,-292.08C230,-292.08 230,-264.43 230,-264.43"/>
<polygon fill="black" stroke="black" points="232.45,-264.43 230,-257.43 227.55,-264.43 232.45,-264.43"/>
</g>
<!-- PipelineResult -->
<g id="node15" class="node">
<title>PipelineResult</title>
<path fill="#e0f7fa" stroke="#00838f" d="M305.88,-182.5C305.88,-182.5 154.12,-182.5 154.12,-182.5 148.12,-182.5 142.12,-176.5 142.12,-170.5 142.12,-170.5 142.12,-158.5 142.12,-158.5 142.12,-152.5 148.12,-146.5 154.12,-146.5 154.12,-146.5 305.88,-146.5 305.88,-146.5 311.88,-146.5 317.88,-152.5 317.88,-158.5 317.88,-158.5 317.88,-170.5 317.88,-170.5 317.88,-176.5 311.88,-182.5 305.88,-182.5"/>
<text xml:space="preserve" text-anchor="middle" x="230" y="-167" font-family="Arial" font-size="10.00">OpenVINOEmbeddingPipelineResult</text>
<text xml:space="preserve" text-anchor="middle" x="230" y="-155" font-family="Arial" font-size="10.00">text/model/backend/vector</text>
</g>
<!-- Vector&#45;&gt;PipelineResult -->
<g id="edge15" class="edge">
<title>Vector&#45;&gt;PipelineResult</title>
<path fill="none" stroke="black" d="M230,-219.08C230,-219.08 230,-191.43 230,-191.43"/>
<polygon fill="black" stroke="black" points="232.45,-191.43 230,-184.43 227.55,-191.43 232.45,-191.43"/>
</g>
<!-- NoConcreteTokenizer -->
<g id="node16" class="node">
<title>NoConcreteTokenizer</title>
<path fill="#ffebee" stroke="#b71c1c" d="M127.62,-90C127.62,-90 28.38,-90 28.38,-90 22.38,-90 16.38,-84 16.38,-78 16.38,-78 16.38,-66 16.38,-66 16.38,-60 22.38,-54 28.38,-54 28.38,-54 127.62,-54 127.62,-54 133.62,-54 139.62,-60 139.62,-66 139.62,-66 139.62,-78 139.62,-78 139.62,-84 133.62,-90 127.62,-90"/>
<text xml:space="preserve" text-anchor="middle" x="78" y="-68.5" font-family="Arial" font-size="10.00">pas de tokenizer concret</text>
</g>
<!-- PipelineResult&#45;&gt;NoConcreteTokenizer -->
<g id="edge16" class="edge">
<title>PipelineResult&#45;&gt;NoConcreteTokenizer</title>
<path fill="none" stroke="black" stroke-dasharray="1,5" d="M149.69,-146.22C149.69,-119.27 149.69,-72 149.69,-72 149.69,-72 148.53,-72 148.53,-72"/>
<polygon fill="black" stroke="black" points="148.53,-69.55 141.53,-72 148.53,-74.45 148.53,-69.55"/>
</g>
<!-- NoQdrant -->
<g id="node17" class="node">
<title>NoQdrant</title>
<path fill="#ffebee" stroke="#b71c1c" d="M222.75,-90C222.75,-90 169.25,-90 169.25,-90 163.25,-90 157.25,-84 157.25,-78 157.25,-78 157.25,-66 157.25,-66 157.25,-60 163.25,-54 169.25,-54 169.25,-54 222.75,-54 222.75,-54 228.75,-54 234.75,-60 234.75,-66 234.75,-66 234.75,-78 234.75,-78 234.75,-84 228.75,-90 222.75,-90"/>
<text xml:space="preserve" text-anchor="middle" x="196" y="-68.5" font-family="Arial" font-size="10.00">pas de Qdrant</text>
</g>
<!-- PipelineResult&#45;&gt;NoQdrant -->
<g id="edge17" class="edge">
<title>PipelineResult&#45;&gt;NoQdrant</title>
<path fill="none" stroke="black" stroke-dasharray="1,5" d="M196,-146.22C196,-146.22 196,-98.75 196,-98.75"/>
<polygon fill="black" stroke="black" points="198.45,-98.75 196,-91.75 193.55,-98.75 198.45,-98.75"/>
</g>
<!-- NoBatch -->
<g id="node18" class="node">
<title>NoBatch</title>
<path fill="#ffebee" stroke="#b71c1c" d="M353,-90C353,-90 265,-90 265,-90 259,-90 253,-84 253,-78 253,-78 253,-66 253,-66 253,-60 259,-54 265,-54 265,-54 353,-54 353,-54 359,-54 365,-60 365,-66 365,-66 365,-78 365,-78 365,-84 359,-90 353,-90"/>
<text xml:space="preserve" text-anchor="middle" x="309" y="-68.5" font-family="Arial" font-size="10.00">pas de batch vectoriel</text>
</g>
<!-- PipelineResult&#45;&gt;NoBatch -->
<g id="edge18" class="edge">
<title>PipelineResult&#45;&gt;NoBatch</title>
<path fill="none" stroke="black" stroke-dasharray="1,5" d="M285.44,-146.22C285.44,-146.22 285.44,-98.75 285.44,-98.75"/>
<polygon fill="black" stroke="black" points="287.89,-98.75 285.44,-91.75 282.99,-98.75 287.89,-98.75"/>
</g>
<!-- NoScheduler -->
<g id="node19" class="node">
<title>NoScheduler</title>
<g id="a_node19"><a xlink:href="../scheduler/10_scheduler.svg" xlink:title="pas de responsabilité Scheduler">
<path fill="#ffebee" stroke="#b71c1c" d="M525.38,-90C525.38,-90 394.62,-90 394.62,-90 388.62,-90 382.62,-84 382.62,-78 382.62,-78 382.62,-66 382.62,-66 382.62,-60 388.62,-54 394.62,-54 394.62,-54 525.38,-54 525.38,-54 531.38,-54 537.38,-60 537.38,-66 537.38,-66 537.38,-78 537.38,-78 537.38,-84 531.38,-90 525.38,-90"/>
<text xml:space="preserve" text-anchor="middle" x="460" y="-68.5" font-family="Arial" font-size="10.00">pas de responsabilité Scheduler</text>
</a>
</g>
</g>
<!-- PipelineResult&#45;&gt;NoScheduler -->
<g id="edge19" class="edge">
<title>PipelineResult&#45;&gt;NoScheduler</title>
<path fill="none" stroke="black" stroke-dasharray="1,5" d="M318.27,-165C383.13,-165 460,-165 460,-165 460,-165 460,-98.89 460,-98.89"/>
<polygon fill="black" stroke="black" points="462.45,-98.89 460,-91.89 457.55,-98.89 462.45,-98.89"/>
</g>
<!-- Nav_Inference -->
<g id="node20" class="node">
<title>Nav_Inference</title>
<g id="a_node20"><a xlink:href="40_inference.svg" xlink:title="Inference">
<path fill="lightgrey" stroke="none" d="M94.25,-36C94.25,-36 61.75,-36 61.75,-36 55.75,-36 49.75,-30 49.75,-24 49.75,-24 49.75,-12 49.75,-12 49.75,-6 55.75,0 61.75,0 61.75,0 94.25,0 94.25,0 100.25,0 106.25,-6 106.25,-12 106.25,-12 106.25,-24 106.25,-24 106.25,-30 100.25,-36 94.25,-36"/>
<text xml:space="preserve" text-anchor="middle" x="78" y="-14.5" font-family="Arial" font-size="10.00">Inference</text>
</a>
</g>
</g>
<!-- Nav_Raw -->
<g id="node21" class="node">
<title>Nav_Raw</title>
<g id="a_node21"><a xlink:href="45_openvino_embedding_raw.svg" xlink:title="Embedding raw">
<path fill="lightgrey" stroke="none" d="M182.75,-36C182.75,-36 123.25,-36 123.25,-36 117.25,-36 111.25,-30 111.25,-24 111.25,-24 111.25,-12 111.25,-12 111.25,-6 117.25,0 123.25,0 123.25,0 182.75,0 182.75,0 188.75,0 194.75,-6 194.75,-12 194.75,-12 194.75,-24 194.75,-24 194.75,-30 188.75,-36 182.75,-36"/>
<text xml:space="preserve" text-anchor="middle" x="153" y="-14.5" font-family="Arial" font-size="10.00">Embedding raw</text>
</a>
</g>
</g>
<!-- Nav_Tokenizer -->
<g id="node22" class="node">
<title>Nav_Tokenizer</title>
<g id="a_node22"><a xlink:href="46_tokenizer_contract.svg" xlink:title="Tokenizer contract">
<path fill="lightgrey" stroke="none" d="M284.12,-36C284.12,-36 211.88,-36 211.88,-36 205.88,-36 199.88,-30 199.88,-24 199.88,-24 199.88,-12 199.88,-12 199.88,-6 205.88,0 211.88,0 211.88,0 284.12,0 284.12,0 290.12,0 296.12,-6 296.12,-12 296.12,-12 296.12,-24 296.12,-24 296.12,-30 290.12,-36 284.12,-36"/>
<text xml:space="preserve" text-anchor="middle" x="248" y="-14.5" font-family="Arial" font-size="10.00">Tokenizer contract</text>
</a>
</g>
</g>
<!-- Nav_TestTokenizer -->
<g id="node23" class="node">
<title>Nav_TestTokenizer</title>
<g id="a_node23"><a xlink:href="48_deterministic_tokenizer.svg" xlink:title="Deterministic tokenizer">
<path fill="lightgrey" stroke="none" d="M405.25,-36C405.25,-36 312.75,-36 312.75,-36 306.75,-36 300.75,-30 300.75,-24 300.75,-24 300.75,-12 300.75,-12 300.75,-6 306.75,0 312.75,0 312.75,0 405.25,0 405.25,0 411.25,0 417.25,-6 417.25,-12 417.25,-12 417.25,-24 417.25,-24 417.25,-30 411.25,-36 405.25,-36"/>
<text xml:space="preserve" text-anchor="middle" x="359" y="-14.5" font-family="Arial" font-size="10.00">Deterministic tokenizer</text>
</a>
</g>
</g>
<!-- Nav_Global -->
<g id="node24" class="node">
<title>Nav_Global</title>
<g id="a_node24"><a xlink:href="../00_global.svg" xlink:title="Global">
<path fill="lightgrey" stroke="none" d="M464,-36C464,-36 434,-36 434,-36 428,-36 422,-30 422,-24 422,-24 422,-12 422,-12 422,-6 428,0 434,0 434,0 464,0 464,0 470,0 476,-6 476,-12 476,-12 476,-24 476,-24 476,-30 470,-36 464,-36"/>
<text xml:space="preserve" text-anchor="middle" x="449" y="-14.5" font-family="Arial" font-size="10.00">Global</text>
</a>
</g>
</g>
</g>
</svg>
