<?xml version="1.0" encoding="UTF-8" standalone="no"?>
<!DOCTYPE svg PUBLIC "-//W3C//DTD SVG 1.1//EN"
 "http://www.w3.org/Graphics/SVG/1.1/DTD/svg11.dtd">
<!-- Generated by graphviz version 14.1.3 (20260303.0454)
 -->
<!-- Title: DeterministicTokenizer Pages: 1 -->
<svg width="900pt" height="785pt"
 viewBox="0.00 0.00 900.00 785.00" xmlns="http://www.w3.org/2000/svg" xmlns:xlink="http://www.w3.org/1999/xlink">
<g id="graph0" class="graph" transform="scale(1 1) rotate(0) translate(4 780.5)">
<title>DeterministicTokenizer</title>
<polygon fill="white" stroke="none" points="-4,4 -4,-780.5 896,-780.5 896,4 -4,4"/>
<g id="clust1" class="cluster">
<title>cluster_input</title>
<polygon fill="#e3f2fd" stroke="#1565c0" points="8,-695 8,-768.5 426,-768.5 426,-695 8,-695"/>
<text xml:space="preserve" text-anchor="middle" x="217" y="-754.05" font-family="Arial" font-size="11.00">Entrée contractuelle</text>
</g>
<g id="clust2" class="cluster">
<title>cluster_tokenizer</title>
<polygon fill="#e8f5e9" stroke="#2e7d32" points="136,-281.5 136,-666.5 288,-666.5 288,-281.5 136,-281.5"/>
<text xml:space="preserve" text-anchor="middle" x="212" y="-652.05" font-family="Arial" font-size="11.00">Tokenizer déterministe</text>
</g>
<g id="clust3" class="cluster">
<title>cluster_output</title>
<polygon fill="#e0f7fa" stroke="#00838f" points="101,-8 101,-262.5 323,-262.5 323,-8 101,-8"/>
<text xml:space="preserve" text-anchor="middle" x="212" y="-248.05" font-family="Arial" font-size="11.00">Sortie compatible pipeline</text>
</g>
<g id="clust4" class="cluster">
<title>cluster_not_production</title>
<polygon fill="#ffebee" stroke="#b71c1c" points="296,-500.5 296,-574 884,-574 884,-500.5 296,-500.5"/>
<text xml:space="preserve" text-anchor="middle" x="590" y="-559.55" font-family="Arial" font-size="11.00">Limites volontaires</text>
</g>
<!-- Request -->
<g id="node1" class="node">
<title>Request</title>
<g id="a_node1"><a xlink:href="46_tokenizer_contract.svg" xlink:title="TokenizationRequest\ntexts / text_pairs">
<path fill="#e3f2fd" stroke="#1565c0" d="M111.75,-739C111.75,-739 28.25,-739 28.25,-739 22.25,-739 16.25,-733 16.25,-727 16.25,-727 16.25,-715 16.25,-715 16.25,-709 22.25,-703 28.25,-703 28.25,-703 111.75,-703 111.75,-703 117.75,-703 123.75,-709 123.75,-715 123.75,-715 123.75,-727 123.75,-727 123.75,-733 117.75,-739 111.75,-739"/>
<text xml:space="preserve" text-anchor="middle" x="70" y="-723.5" font-family="Arial" font-size="10.00">TokenizationRequest</text>
<text xml:space="preserve" text-anchor="middle" x="70" y="-711.5" font-family="Arial" font-size="10.00">texts / text_pairs</text>
</a>
</g>
</g>
<!-- Tokenizer -->
<g id="node4" class="node">
<title>Tokenizer</title>
<path fill="#e8f5e9" stroke="#2e7d32" d="M267.88,-637C267.88,-637 176.12,-637 176.12,-637 170.12,-637 164.12,-631 164.12,-625 164.12,-625 164.12,-613 164.12,-613 164.12,-607 170.12,-601 176.12,-601 176.12,-601 267.88,-601 267.88,-601 273.88,-601 279.88,-607 279.88,-613 279.88,-613 279.88,-625 279.88,-625 279.88,-631 273.88,-637 267.88,-637"/>
<text xml:space="preserve" text-anchor="middle" x="222" y="-621.5" font-family="Arial" font-size="10.00">DeterministicTokenizer</text>
<text xml:space="preserve" text-anchor="middle" x="222" y="-609.5" font-family="Arial" font-size="10.00">pure stdlib</text>
</g>
<!-- Request&#45;&gt;Tokenizer -->
<g id="edge2" class="edge">
<title>Request&#45;&gt;Tokenizer</title>
<path fill="none" stroke="black" d="M116.44,-702.76C116.44,-673.43 116.44,-619 116.44,-619 116.44,-619 155.15,-619 155.15,-619"/>
<polygon fill="black" stroke="black" points="155.15,-621.45 162.15,-619 155.15,-616.55 155.15,-621.45"/>
</g>
<!-- Config -->
<g id="node2" class="node">
<title>Config</title>
<g id="a_node2"><a xlink:href="46_tokenizer_contract.svg" xlink:title="TokenizerConfig\npadding / truncation / max_length">
<path fill="#e3f2fd" stroke="#1565c0" d="M290.38,-739C290.38,-739 153.62,-739 153.62,-739 147.62,-739 141.62,-733 141.62,-727 141.62,-727 141.62,-715 141.62,-715 141.62,-709 147.62,-703 153.62,-703 153.62,-703 290.38,-703 290.38,-703 296.38,-703 302.38,-709 302.38,-715 302.38,-715 302.38,-727 302.38,-727 302.38,-733 296.38,-739 290.38,-739"/>
<text xml:space="preserve" text-anchor="middle" x="222" y="-723.5" font-family="Arial" font-size="10.00">TokenizerConfig</text>
<text xml:space="preserve" text-anchor="middle" x="222" y="-711.5" font-family="Arial" font-size="10.00">padding / truncation / max_length</text>
</a>
</g>
</g>
<!-- Config&#45;&gt;Tokenizer -->
<g id="edge3" class="edge">
<title>Config&#45;&gt;Tokenizer</title>
<path fill="none" stroke="black" d="M222,-702.76C222,-702.76 222,-645.94 222,-645.94"/>
<polygon fill="black" stroke="black" points="224.45,-645.94 222,-638.94 219.55,-645.94 224.45,-645.94"/>
</g>
<!-- Registry -->
<g id="node3" class="node">
<title>Registry</title>
<g id="a_node3"><a xlink:href="46_tokenizer_contract.svg" xlink:title="TokenizerRegistry\nexplicit registration">
<path fill="#e3f2fd" stroke="#1565c0" d="M405.88,-739C405.88,-739 332.12,-739 332.12,-739 326.12,-739 320.12,-733 320.12,-727 320.12,-727 320.12,-715 320.12,-715 320.12,-709 326.12,-703 332.12,-703 332.12,-703 405.88,-703 405.88,-703 411.88,-703 417.88,-709 417.88,-715 417.88,-715 417.88,-727 417.88,-727 417.88,-733 411.88,-739 405.88,-739"/>
<text xml:space="preserve" text-anchor="middle" x="369" y="-723.5" font-family="Arial" font-size="10.00">TokenizerRegistry</text>
<text xml:space="preserve" text-anchor="middle" x="369" y="-711.5" font-family="Arial" font-size="10.00">explicit registration</text>
</a>
</g>
</g>
<!-- Registry&#45;&gt;Tokenizer -->
<g id="edge1" class="edge">
<title>Registry&#45;&gt;Tokenizer</title>
<path fill="none" stroke="black" d="M369,-702.58C369,-675.99 369,-630 369,-630 369,-630 288.61,-630 288.61,-630"/>
<polygon fill="black" stroke="black" points="288.61,-627.55 281.61,-630 288.61,-632.45 288.61,-627.55"/>
<text xml:space="preserve" text-anchor="middle" x="327.38" y="-676.45" font-family="Arial" font-size="9.00">register</text>
</g>
<!-- Split -->
<g id="node5" class="node">
<title>Split</title>
<path fill="#e8f5e9" stroke="#2e7d32" d="M257.5,-544.5C257.5,-544.5 184.5,-544.5 184.5,-544.5 178.5,-544.5 172.5,-538.5 172.5,-532.5 172.5,-532.5 172.5,-520.5 172.5,-520.5 172.5,-514.5 178.5,-508.5 184.5,-508.5 184.5,-508.5 257.5,-508.5 257.5,-508.5 263.5,-508.5 269.5,-514.5 269.5,-520.5 269.5,-520.5 269.5,-532.5 269.5,-532.5 269.5,-538.5 263.5,-544.5 257.5,-544.5"/>
<text xml:space="preserve" text-anchor="middle" x="221" y="-529" font-family="Arial" font-size="10.00">whitespace split</text>
<text xml:space="preserve" text-anchor="middle" x="221" y="-517" font-family="Arial" font-size="10.00">optional lowercase</text>
</g>
<!-- Tokenizer&#45;&gt;Split -->
<g id="edge4" class="edge">
<title>Tokenizer&#45;&gt;Split</title>
<path fill="none" stroke="black" d="M221,-600.72C221,-600.72 221,-553.25 221,-553.25"/>
<polygon fill="black" stroke="black" points="223.45,-553.25 221,-546.25 218.55,-553.25 223.45,-553.25"/>
</g>
<!-- NoVocab -->
<g id="node12" class="node">
<title>NoVocab</title>
<path fill="#ffebee" stroke="#b71c1c" d="M408.25,-544.5C408.25,-544.5 315.75,-544.5 315.75,-544.5 309.75,-544.5 303.75,-538.5 303.75,-532.5 303.75,-532.5 303.75,-520.5 303.75,-520.5 303.75,-514.5 309.75,-508.5 315.75,-508.5 315.75,-508.5 408.25,-508.5 408.25,-508.5 414.25,-508.5 420.25,-514.5 420.25,-520.5 420.25,-520.5 420.25,-532.5 420.25,-532.5 420.25,-538.5 414.25,-544.5 408.25,-544.5"/>
<text xml:space="preserve" text-anchor="middle" x="362" y="-523" font-family="Arial" font-size="10.00">pas de vocabulaire réel</text>
</g>
<!-- Tokenizer&#45;&gt;NoVocab -->
<g id="edge11" class="edge">
<title>Tokenizer&#45;&gt;NoVocab</title>
<path fill="none" stroke="black" stroke-dasharray="1,5" d="M274.94,-600.82C274.94,-574.01 274.94,-527 274.94,-527 274.94,-527 294.93,-527 294.93,-527"/>
<polygon fill="black" stroke="black" points="294.93,-529.45 301.93,-527 294.93,-524.55 294.93,-529.45"/>
</g>
<!-- NoHF -->
<g id="node13" class="node">
<title>NoHF</title>
<path fill="#ffebee" stroke="#b71c1c" d="M577.5,-544.5C577.5,-544.5 450.5,-544.5 450.5,-544.5 444.5,-544.5 438.5,-538.5 438.5,-532.5 438.5,-532.5 438.5,-520.5 438.5,-520.5 438.5,-514.5 444.5,-508.5 450.5,-508.5 450.5,-508.5 577.5,-508.5 577.5,-508.5 583.5,-508.5 589.5,-514.5 589.5,-520.5 589.5,-520.5 589.5,-532.5 589.5,-532.5 589.5,-538.5 583.5,-544.5 577.5,-544.5"/>
<text xml:space="preserve" text-anchor="middle" x="514" y="-523" font-family="Arial" font-size="10.00">pas de transformers/tokenizers</text>
</g>
<!-- Tokenizer&#45;&gt;NoHF -->
<g id="edge12" class="edge">
<title>Tokenizer&#45;&gt;NoHF</title>
<path fill="none" stroke="black" stroke-dasharray="1,5" d="M280.04,-608C365.19,-608 514,-608 514,-608 514,-608 514,-553.51 514,-553.51"/>
<polygon fill="black" stroke="black" points="516.45,-553.51 514,-546.51 511.55,-553.51 516.45,-553.51"/>
</g>
<!-- NoModelCompat -->
<g id="node14" class="node">
<title>NoModelCompat</title>
<path fill="#ffebee" stroke="#b71c1c" d="M730.62,-544.5C730.62,-544.5 619.38,-544.5 619.38,-544.5 613.38,-544.5 607.38,-538.5 607.38,-532.5 607.38,-532.5 607.38,-520.5 607.38,-520.5 607.38,-514.5 613.38,-508.5 619.38,-508.5 619.38,-508.5 730.62,-508.5 730.62,-508.5 736.62,-508.5 742.62,-514.5 742.62,-520.5 742.62,-520.5 742.62,-532.5 742.62,-532.5 742.62,-538.5 736.62,-544.5 730.62,-544.5"/>
<text xml:space="preserve" text-anchor="middle" x="675" y="-523" font-family="Arial" font-size="10.00">pas compatible modèle réel</text>
</g>
<!-- Tokenizer&#45;&gt;NoModelCompat -->
<g id="edge13" class="edge">
<title>Tokenizer&#45;&gt;NoModelCompat</title>
<path fill="none" stroke="black" stroke-dasharray="1,5" d="M280.29,-615C402.64,-615 675,-615 675,-615 675,-615 675,-553.35 675,-553.35"/>
<polygon fill="black" stroke="black" points="677.45,-553.35 675,-546.35 672.55,-553.35 677.45,-553.35"/>
</g>
<!-- NoDownload -->
<g id="node15" class="node">
<title>NoDownload</title>
<path fill="#ffebee" stroke="#b71c1c" d="M863.5,-544.5C863.5,-544.5 772.5,-544.5 772.5,-544.5 766.5,-544.5 760.5,-538.5 760.5,-532.5 760.5,-532.5 760.5,-520.5 760.5,-520.5 760.5,-514.5 766.5,-508.5 772.5,-508.5 772.5,-508.5 863.5,-508.5 863.5,-508.5 869.5,-508.5 875.5,-514.5 875.5,-520.5 875.5,-520.5 875.5,-532.5 875.5,-532.5 875.5,-538.5 869.5,-544.5 863.5,-544.5"/>
<text xml:space="preserve" text-anchor="middle" x="818" y="-523" font-family="Arial" font-size="10.00">pas de téléchargement</text>
</g>
<!-- Tokenizer&#45;&gt;NoDownload -->
<g id="edge14" class="edge">
<title>Tokenizer&#45;&gt;NoDownload</title>
<path fill="none" stroke="black" stroke-dasharray="1,5" d="M280.23,-623C430.2,-623 818,-623 818,-623 818,-623 818,-553.16 818,-553.16"/>
<polygon fill="black" stroke="black" points="820.45,-553.16 818,-546.16 815.55,-553.16 820.45,-553.16"/>
</g>
<!-- HashIds -->
<g id="node6" class="node">
<title>HashIds</title>
<path fill="#e8f5e9" stroke="#2e7d32" d="M248.38,-471.5C248.38,-471.5 183.62,-471.5 183.62,-471.5 177.62,-471.5 171.62,-465.5 171.62,-459.5 171.62,-459.5 171.62,-447.5 171.62,-447.5 171.62,-441.5 177.62,-435.5 183.62,-435.5 183.62,-435.5 248.38,-435.5 248.38,-435.5 254.38,-435.5 260.38,-441.5 260.38,-447.5 260.38,-447.5 260.38,-459.5 260.38,-459.5 260.38,-465.5 254.38,-471.5 248.38,-471.5"/>
<text xml:space="preserve" text-anchor="middle" x="216" y="-456" font-family="Arial" font-size="10.00">SHA&#45;256 ids</text>
<text xml:space="preserve" text-anchor="middle" x="216" y="-444" font-family="Arial" font-size="10.00">stable, no hash()</text>
</g>
<!-- Split&#45;&gt;HashIds -->
<g id="edge5" class="edge">
<title>Split&#45;&gt;HashIds</title>
<path fill="none" stroke="black" d="M216.44,-508.08C216.44,-508.08 216.44,-480.43 216.44,-480.43"/>
<polygon fill="black" stroke="black" points="218.89,-480.43 216.44,-473.43 213.99,-480.43 218.89,-480.43"/>
</g>
<!-- Specials -->
<g id="node7" class="node">
<title>Specials</title>
<path fill="#e8f5e9" stroke="#2e7d32" d="M258,-398.5C258,-398.5 170,-398.5 170,-398.5 164,-398.5 158,-392.5 158,-386.5 158,-386.5 158,-374.5 158,-374.5 158,-368.5 164,-362.5 170,-362.5 170,-362.5 258,-362.5 258,-362.5 264,-362.5 270,-368.5 270,-374.5 270,-374.5 270,-386.5 270,-386.5 270,-392.5 264,-398.5 258,-398.5"/>
<text xml:space="preserve" text-anchor="middle" x="214" y="-377" font-family="Arial" font-size="10.00">CLS / SEP optionnels</text>
</g>
<!-- HashIds&#45;&gt;Specials -->
<g id="edge6" class="edge">
<title>HashIds&#45;&gt;Specials</title>
<path fill="none" stroke="black" d="M216,-435.08C216,-435.08 216,-407.43 216,-407.43"/>
<polygon fill="black" stroke="black" points="218.45,-407.43 216,-400.43 213.55,-407.43 218.45,-407.43"/>
</g>
<!-- Padding -->
<g id="node8" class="node">
<title>Padding</title>
<path fill="#e8f5e9" stroke="#2e7d32" d="M268.38,-325.5C268.38,-325.5 155.62,-325.5 155.62,-325.5 149.62,-325.5 143.62,-319.5 143.62,-313.5 143.62,-313.5 143.62,-301.5 143.62,-301.5 143.62,-295.5 149.62,-289.5 155.62,-289.5 155.62,-289.5 268.38,-289.5 268.38,-289.5 274.38,-289.5 280.38,-295.5 280.38,-301.5 280.38,-301.5 280.38,-313.5 280.38,-313.5 280.38,-319.5 274.38,-325.5 268.38,-325.5"/>
<text xml:space="preserve" text-anchor="middle" x="212" y="-310" font-family="Arial" font-size="10.00">padding</text>
<text xml:space="preserve" text-anchor="middle" x="212" y="-298" font-family="Arial" font-size="10.00">none / longest / max_length</text>
</g>
<!-- Specials&#45;&gt;Padding -->
<g id="edge7" class="edge">
<title>Specials&#45;&gt;Padding</title>
<path fill="none" stroke="black" d="M214,-362.08C214,-362.08 214,-334.43 214,-334.43"/>
<polygon fill="black" stroke="black" points="216.45,-334.43 214,-327.43 211.55,-334.43 216.45,-334.43"/>
</g>
<!-- Result -->
<g id="node9" class="node">
<title>Result</title>
<g id="a_node9"><a xlink:href="46_tokenizer_contract.svg" xlink:title="TokenizationResult\ninput_ids / attention_mask / token_type_ids">
<path fill="#e0f7fa" stroke="#00838f" d="M302.88,-233C302.88,-233 121.12,-233 121.12,-233 115.12,-233 109.12,-227 109.12,-221 109.12,-221 109.12,-209 109.12,-209 109.12,-203 115.12,-197 121.12,-197 121.12,-197 302.88,-197 302.88,-197 308.88,-197 314.88,-203 314.88,-209 314.88,-209 314.88,-221 314.88,-221 314.88,-227 308.88,-233 302.88,-233"/>
<text xml:space="preserve" text-anchor="middle" x="212" y="-217.5" font-family="Arial" font-size="10.00">TokenizationResult</text>
<text xml:space="preserve" text-anchor="middle" x="212" y="-205.5" font-family="Arial" font-size="10.00">input_ids / attention_mask / token_type_ids</text>
</a>
</g>
</g>
<!-- Padding&#45;&gt;Result -->
<g id="edge8" class="edge">
<title>Padding&#45;&gt;Result</title>
<path fill="none" stroke="black" d="M212,-289.22C212,-289.22 212,-241.75 212,-241.75"/>
<polygon fill="black" stroke="black" points="214.45,-241.75 212,-234.75 209.55,-241.75 214.45,-241.75"/>
</g>
<!-- RawInputs -->
<g id="node10" class="node">
<title>RawInputs</title>
<g id="a_node10"><a xlink:href="45_openvino_embedding_raw.svg" xlink:title="OpenVINOEmbeddingRawInputs">
<path fill="#e0f7fa" stroke="#00838f" d="M280,-125C280,-125 144,-125 144,-125 138,-125 132,-119 132,-113 132,-113 132,-101 132,-101 132,-95 138,-89 144,-89 144,-89 280,-89 280,-89 286,-89 292,-95 292,-101 292,-101 292,-113 292,-113 292,-119 286,-125 280,-125"/>
<text xml:space="preserve" text-anchor="middle" x="212" y="-103.5" font-family="Arial" font-size="10.00">OpenVINOEmbeddingRawInputs</text>
</a>
</g>
</g>
<!-- Result&#45;&gt;RawInputs -->
<g id="edge9" class="edge">
<title>Result&#45;&gt;RawInputs</title>
<path fill="none" stroke="black" d="M212,-196.68C212,-196.68 212,-133.92 212,-133.92"/>
<polygon fill="black" stroke="black" points="214.45,-133.92 212,-126.92 209.55,-133.92 214.45,-133.92"/>
</g>
<!-- Pipeline -->
<g id="node11" class="node">
<title>Pipeline</title>
<g id="a_node11"><a xlink:href="47_openvino_embedding_pipeline.svg" xlink:title="OpenVINOEmbeddingPipeline">
<path fill="#e0f7fa" stroke="#00838f" d="M273.62,-52C273.62,-52 150.38,-52 150.38,-52 144.38,-52 138.38,-46 138.38,-40 138.38,-40 138.38,-28 138.38,-28 138.38,-22 144.38,-16 150.38,-16 150.38,-16 273.62,-16 273.62,-16 279.62,-16 285.62,-22 285.62,-28 285.62,-28 285.62,-40 285.62,-40 285.62,-46 279.62,-52 273.62,-52"/>
<text xml:space="preserve" text-anchor="middle" x="212" y="-30.5" font-family="Arial" font-size="10.00">OpenVINOEmbeddingPipeline</text>
</a>
</g>
</g>
<!-- RawInputs&#45;&gt;Pipeline -->
<g id="edge10" class="edge">
<title>RawInputs&#45;&gt;Pipeline</title>
<path fill="none" stroke="black" d="M212,-88.58C212,-88.58 212,-60.93 212,-60.93"/>
<polygon fill="black" stroke="black" points="214.45,-60.93 212,-53.93 209.55,-60.93 214.45,-60.93"/>
</g>
<!-- Nav_Tokenizer -->
<g id="node16" class="node">
<title>Nav_Tokenizer</title>
<g id="a_node16"><a xlink:href="46_tokenizer_contract.svg" xlink:title="Tokenizer contract">
<path fill="lightgrey" stroke="none" d="M415.12,-179C415.12,-179 342.88,-179 342.88,-179 336.88,-179 330.88,-173 330.88,-167 330.88,-167 330.88,-155 330.88,-155 330.88,-149 336.88,-143 342.88,-143 342.88,-143 415.12,-143 415.12,-143 421.12,-143 427.12,-149 427.12,-155 427.12,-155 427.12,-167 427.12,-167 427.12,-173 421.12,-179 415.12,-179"/>
<text xml:space="preserve" text-anchor="middle" x="379" y="-157.5" font-family="Arial" font-size="10.00">Tokenizer contract</text>
</a>
</g>
</g>
<!-- Nav_Pipeline -->
<g id="node17" class="node">
<title>Nav_Pipeline</title>
<g id="a_node17"><a xlink:href="47_openvino_embedding_pipeline.svg" xlink:title="Embedding pipeline">
<path fill="lightgrey" stroke="none" d="M521.38,-179C521.38,-179 444.62,-179 444.62,-179 438.62,-179 432.62,-173 432.62,-167 432.62,-167 432.62,-155 432.62,-155 432.62,-149 438.62,-143 444.62,-143 444.62,-143 521.38,-143 521.38,-143 527.38,-143 533.38,-149 533.38,-155 533.38,-155 533.38,-167 533.38,-167 533.38,-173 527.38,-179 521.38,-179"/>
<text xml:space="preserve" text-anchor="middle" x="483" y="-157.5" font-family="Arial" font-size="10.00">Embedding pipeline</text>
</a>
</g>
</g>
<!-- Nav_Inference -->
<g id="node18" class="node">
<title>Nav_Inference</title>
<g id="a_node18"><a xlink:href="40_inference.svg" xlink:title="Inference">
<path fill="lightgrey" stroke="none" d="M583.25,-179C583.25,-179 550.75,-179 550.75,-179 544.75,-179 538.75,-173 538.75,-167 538.75,-167 538.75,-155 538.75,-155 538.75,-149 544.75,-143 550.75,-143 550.75,-143 583.25,-143 583.25,-143 589.25,-143 595.25,-149 595.25,-155 595.25,-155 595.25,-167 595.25,-167 595.25,-173 589.25,-179 583.25,-179"/>
<text xml:space="preserve" text-anchor="middle" x="567" y="-157.5" font-family="Arial" font-size="10.00">Inference</text>
</a>
</g>
</g>
<!-- Nav_Global -->
<g id="node19" class="node">
<title>Nav_Global</title>
<g id="a_node19"><a xlink:href="../00_global.svg" xlink:title="Global">
<path fill="lightgrey" stroke="none" d="M642,-179C642,-179 612,-179 612,-179 606,-179 600,-173 600,-167 600,-167 600,-155 600,-155 600,-149 606,-143 612,-143 612,-143 642,-143 642,-143 648,-143 654,-149 654,-155 654,-155 654,-167 654,-167 654,-173 648,-179 642,-179"/>
<text xml:space="preserve" text-anchor="middle" x="627" y="-157.5" font-family="Arial" font-size="10.00">Global</text>
</a>
</g>
</g>
</g>
</svg>
