<?xml version="1.0" encoding="UTF-8" standalone="no"?>
<!DOCTYPE svg PUBLIC "-//W3C//DTD SVG 1.1//EN"
 "http://www.w3.org/Graphics/SVG/1.1/DTD/svg11.dtd">
<!-- Generated by graphviz version 14.1.3 (20260303.0454)
 -->
<!-- Title: E5QueryPassage Pages: 1 -->
<svg width="363pt" height="715pt"
 viewBox="0.00 0.00 363.00 715.00" xmlns="http://www.w3.org/2000/svg" xmlns:xlink="http://www.w3.org/1999/xlink">
<g id="graph0" class="graph" transform="scale(1 1) rotate(0) translate(4 710.5)">
<title>E5QueryPassage</title>
<polygon fill="white" stroke="none" points="-4,4 -4,-710.5 359,-710.5 359,4 -4,4"/>
<g id="clust1" class="cluster">
<title>cluster_roles</title>
<polygon fill="#e3f2fd" stroke="#1565c0" points="97,-542.5 97,-698.5 347,-698.5 347,-542.5 97,-542.5"/>
<text xml:space="preserve" text-anchor="middle" x="222" y="-684.05" font-family="Arial" font-size="11.00">Rôles E5</text>
</g>
<g id="clust2" class="cluster">
<title>cluster_embedding</title>
<polygon fill="#e8f5e9" stroke="#2e7d32" points="98,-377 98,-523.5 284,-523.5 284,-377 98,-377"/>
<text xml:space="preserve" text-anchor="middle" x="191" y="-509.05" font-family="Arial" font-size="11.00">Embeddings</text>
</g>
<g id="clust3" class="cluster">
<title>cluster_ranker</title>
<polygon fill="#efebe9" stroke="#6d4c41" points="95,-138.5 95,-358 241,-358 241,-138.5 95,-138.5"/>
<text xml:space="preserve" text-anchor="middle" x="168" y="-343.55" font-family="Arial" font-size="11.00">Ranking local avant Qdrant</text>
</g>
<g id="clust4" class="cluster">
<title>cluster_not_here</title>
<polygon fill="#ffebee" stroke="#b71c1c" points="8,-46 8,-119.5 342,-119.5 342,-46 8,-46"/>
<text xml:space="preserve" text-anchor="middle" x="175" y="-105.05" font-family="Arial" font-size="11.00">Hors phase</text>
</g>
<!-- RawQuery -->
<g id="node1" class="node">
<title>RawQuery</title>
<path fill="#e3f2fd" stroke="#1565c0" d="M195.12,-669C195.12,-669 116.88,-669 116.88,-669 110.88,-669 104.88,-663 104.88,-657 104.88,-657 104.88,-645 104.88,-645 104.88,-639 110.88,-633 116.88,-633 116.88,-633 195.12,-633 195.12,-633 201.12,-633 207.12,-639 207.12,-645 207.12,-645 207.12,-657 207.12,-657 207.12,-663 201.12,-669 195.12,-669"/>
<text xml:space="preserve" text-anchor="middle" x="156" y="-647.5" font-family="Arial" font-size="10.00">texte utilisateur brut</text>
</g>
<!-- E5Query -->
<g id="node3" class="node">
<title>E5Query</title>
<path fill="#e3f2fd" stroke="#1565c0" d="M181.88,-586.5C181.88,-586.5 132.12,-586.5 132.12,-586.5 126.12,-586.5 120.12,-580.5 120.12,-574.5 120.12,-574.5 120.12,-562.5 120.12,-562.5 120.12,-556.5 126.12,-550.5 132.12,-550.5 132.12,-550.5 181.88,-550.5 181.88,-550.5 187.88,-550.5 193.88,-556.5 193.88,-562.5 193.88,-562.5 193.88,-574.5 193.88,-574.5 193.88,-580.5 187.88,-586.5 181.88,-586.5"/>
<text xml:space="preserve" text-anchor="middle" x="157" y="-571" font-family="Arial" font-size="10.00">E5Text.query</text>
<text xml:space="preserve" text-anchor="middle" x="157" y="-559" font-family="Arial" font-size="10.00">query: ...</text>
</g>
<!-- RawQuery&#45;&gt;E5Query -->
<g id="edge1" class="edge">
<title>RawQuery&#45;&gt;E5Query</title>
<path fill="none" stroke="black" d="M157,-632.69C157,-632.69 157,-595.27 157,-595.27"/>
<polygon fill="black" stroke="black" points="159.45,-595.27 157,-588.27 154.55,-595.27 159.45,-595.27"/>
<text xml:space="preserve" text-anchor="middle" x="191.62" y="-606.45" font-family="Arial" font-size="9.00">default role query</text>
</g>
<!-- RawPassage -->
<g id="node2" class="node">
<title>RawPassage</title>
<path fill="#e3f2fd" stroke="#1565c0" d="M326.75,-669C326.75,-669 237.25,-669 237.25,-669 231.25,-669 225.25,-663 225.25,-657 225.25,-657 225.25,-645 225.25,-645 225.25,-639 231.25,-633 237.25,-633 237.25,-633 326.75,-633 326.75,-633 332.75,-633 338.75,-639 338.75,-645 338.75,-645 338.75,-657 338.75,-657 338.75,-663 332.75,-669 326.75,-669"/>
<text xml:space="preserve" text-anchor="middle" x="282" y="-647.5" font-family="Arial" font-size="10.00">document / chunk brut</text>
</g>
<!-- E5Passage -->
<g id="node4" class="node">
<title>E5Passage</title>
<path fill="#e3f2fd" stroke="#1565c0" d="M286.25,-586.5C286.25,-586.5 223.75,-586.5 223.75,-586.5 217.75,-586.5 211.75,-580.5 211.75,-574.5 211.75,-574.5 211.75,-562.5 211.75,-562.5 211.75,-556.5 217.75,-550.5 223.75,-550.5 223.75,-550.5 286.25,-550.5 286.25,-550.5 292.25,-550.5 298.25,-556.5 298.25,-562.5 298.25,-562.5 298.25,-574.5 298.25,-574.5 298.25,-580.5 292.25,-586.5 286.25,-586.5"/>
<text xml:space="preserve" text-anchor="middle" x="255" y="-571" font-family="Arial" font-size="10.00">E5Text.passage</text>
<text xml:space="preserve" text-anchor="middle" x="255" y="-559" font-family="Arial" font-size="10.00">passage: ...</text>
</g>
<!-- RawPassage&#45;&gt;E5Passage -->
<g id="edge2" class="edge">
<title>RawPassage&#45;&gt;E5Passage</title>
<path fill="none" stroke="black" d="M261.75,-632.69C261.75,-632.69 261.75,-595.27 261.75,-595.27"/>
<polygon fill="black" stroke="black" points="264.2,-595.27 261.75,-588.27 259.3,-595.27 264.2,-595.27"/>
<text xml:space="preserve" text-anchor="middle" x="296.62" y="-606.45" font-family="Arial" font-size="9.00">default role passage</text>
</g>
<!-- Pipeline -->
<g id="node5" class="node">
<title>Pipeline</title>
<g id="a_node5"><a xlink:href="47_openvino_embedding_pipeline.svg" xlink:title="OpenVINOEmbeddingPipeline">
<path fill="#e8f5e9" stroke="#2e7d32" d="M252.62,-494C252.62,-494 129.38,-494 129.38,-494 123.38,-494 117.38,-488 117.38,-482 117.38,-482 117.38,-470 117.38,-470 117.38,-464 123.38,-458 129.38,-458 129.38,-458 252.62,-458 252.62,-458 258.62,-458 264.62,-464 264.62,-470 264.62,-470 264.62,-482 264.62,-482 264.62,-488 258.62,-494 252.62,-494"/>
<text xml:space="preserve" text-anchor="middle" x="191" y="-472.5" font-family="Arial" font-size="10.00">OpenVINOEmbeddingPipeline</text>
</a>
</g>
</g>
<!-- E5Query&#45;&gt;Pipeline -->
<g id="edge3" class="edge">
<title>E5Query&#45;&gt;Pipeline</title>
<path fill="none" stroke="black" d="M157,-550.22C157,-550.22 157,-502.75 157,-502.75"/>
<polygon fill="black" stroke="black" points="159.45,-502.75 157,-495.75 154.55,-502.75 159.45,-502.75"/>
</g>
<!-- E5Passage&#45;&gt;Pipeline -->
<g id="edge4" class="edge">
<title>E5Passage&#45;&gt;Pipeline</title>
<path fill="none" stroke="black" d="M238.19,-550.22C238.19,-550.22 238.19,-502.75 238.19,-502.75"/>
<polygon fill="black" stroke="black" points="240.64,-502.75 238.19,-495.75 235.74,-502.75 240.64,-502.75"/>
</g>
<!-- QueryVector -->
<g id="node6" class="node">
<title>QueryVector</title>
<path fill="#e8f5e9" stroke="#2e7d32" d="M164,-421C164,-421 118,-421 118,-421 112,-421 106,-415 106,-409 106,-409 106,-397 106,-397 106,-391 112,-385 118,-385 118,-385 164,-385 164,-385 170,-385 176,-391 176,-397 176,-397 176,-409 176,-409 176,-415 170,-421 164,-421"/>
<text xml:space="preserve" text-anchor="middle" x="141" y="-405.5" font-family="Arial" font-size="10.00">query vector</text>
<text xml:space="preserve" text-anchor="middle" x="141" y="-393.5" font-family="Arial" font-size="10.00">normalisé</text>
</g>
<!-- Pipeline&#45;&gt;QueryVector -->
<g id="edge5" class="edge">
<title>Pipeline&#45;&gt;QueryVector</title>
<path fill="none" stroke="black" d="M146.69,-457.58C146.69,-457.58 146.69,-429.93 146.69,-429.93"/>
<polygon fill="black" stroke="black" points="149.14,-429.93 146.69,-422.93 144.24,-429.93 149.14,-429.93"/>
</g>
<!-- PassageVector -->
<g id="node7" class="node">
<title>PassageVector</title>
<path fill="#e8f5e9" stroke="#2e7d32" d="M264.38,-421C264.38,-421 205.62,-421 205.62,-421 199.62,-421 193.62,-415 193.62,-409 193.62,-409 193.62,-397 193.62,-397 193.62,-391 199.62,-385 205.62,-385 205.62,-385 264.38,-385 264.38,-385 270.38,-385 276.38,-391 276.38,-397 276.38,-397 276.38,-409 276.38,-409 276.38,-415 270.38,-421 264.38,-421"/>
<text xml:space="preserve" text-anchor="middle" x="235" y="-405.5" font-family="Arial" font-size="10.00">passage vector</text>
<text xml:space="preserve" text-anchor="middle" x="235" y="-393.5" font-family="Arial" font-size="10.00">normalisé</text>
</g>
<!-- Pipeline&#45;&gt;PassageVector -->
<g id="edge6" class="edge">
<title>Pipeline&#45;&gt;PassageVector</title>
<path fill="none" stroke="black" d="M229.12,-457.58C229.12,-457.58 229.12,-429.93 229.12,-429.93"/>
<polygon fill="black" stroke="black" points="231.58,-429.93 229.13,-422.93 226.68,-429.93 231.58,-429.93"/>
</g>
<!-- DotProduct -->
<g id="node8" class="node">
<title>DotProduct</title>
<path fill="#efebe9" stroke="#6d4c41" d="M210.5,-328.5C210.5,-328.5 125.5,-328.5 125.5,-328.5 119.5,-328.5 113.5,-322.5 113.5,-316.5 113.5,-316.5 113.5,-304.5 113.5,-304.5 113.5,-298.5 119.5,-292.5 125.5,-292.5 125.5,-292.5 210.5,-292.5 210.5,-292.5 216.5,-292.5 222.5,-298.5 222.5,-304.5 222.5,-304.5 222.5,-316.5 222.5,-316.5 222.5,-322.5 216.5,-328.5 210.5,-328.5"/>
<text xml:space="preserve" text-anchor="middle" x="168" y="-313" font-family="Arial" font-size="10.00">dot_product</text>
<text xml:space="preserve" text-anchor="middle" x="168" y="-301" font-family="Arial" font-size="10.00">= cosine si normalisé</text>
</g>
<!-- QueryVector&#45;&gt;DotProduct -->
<g id="edge7" class="edge">
<title>QueryVector&#45;&gt;DotProduct</title>
<path fill="none" stroke="black" d="M144.75,-384.72C144.75,-384.72 144.75,-337.25 144.75,-337.25"/>
<polygon fill="black" stroke="black" points="147.2,-337.25 144.75,-330.25 142.3,-337.25 147.2,-337.25"/>
</g>
<!-- PassageVector&#45;&gt;DotProduct -->
<g id="edge8" class="edge">
<title>PassageVector&#45;&gt;DotProduct</title>
<path fill="none" stroke="black" d="M208.06,-384.72C208.06,-384.72 208.06,-337.25 208.06,-337.25"/>
<polygon fill="black" stroke="black" points="210.51,-337.25 208.06,-330.25 205.61,-337.25 210.51,-337.25"/>
</g>
<!-- Ranker -->
<g id="node9" class="node">
<title>Ranker</title>
<path fill="#efebe9" stroke="#6d4c41" d="M197.38,-255.5C197.38,-255.5 138.62,-255.5 138.62,-255.5 132.62,-255.5 126.62,-249.5 126.62,-243.5 126.62,-243.5 126.62,-231.5 126.62,-231.5 126.62,-225.5 132.62,-219.5 138.62,-219.5 138.62,-219.5 197.38,-219.5 197.38,-219.5 203.38,-219.5 209.38,-225.5 209.38,-231.5 209.38,-231.5 209.38,-243.5 209.38,-243.5 209.38,-249.5 203.38,-255.5 197.38,-255.5"/>
<text xml:space="preserve" text-anchor="middle" x="168" y="-234" font-family="Arial" font-size="10.00">E5LocalRanker</text>
</g>
<!-- DotProduct&#45;&gt;Ranker -->
<g id="edge9" class="edge">
<title>DotProduct&#45;&gt;Ranker</title>
<path fill="none" stroke="black" d="M168,-292.08C168,-292.08 168,-264.43 168,-264.43"/>
<polygon fill="black" stroke="black" points="170.45,-264.43 168,-257.43 165.55,-264.43 170.45,-264.43"/>
</g>
<!-- Results -->
<g id="node10" class="node">
<title>Results</title>
<path fill="#efebe9" stroke="#6d4c41" d="M203.75,-182.5C203.75,-182.5 132.25,-182.5 132.25,-182.5 126.25,-182.5 120.25,-176.5 120.25,-170.5 120.25,-170.5 120.25,-158.5 120.25,-158.5 120.25,-152.5 126.25,-146.5 132.25,-146.5 132.25,-146.5 203.75,-146.5 203.75,-146.5 209.75,-146.5 215.75,-152.5 215.75,-158.5 215.75,-158.5 215.75,-170.5 215.75,-170.5 215.75,-176.5 209.75,-182.5 203.75,-182.5"/>
<text xml:space="preserve" text-anchor="middle" x="168" y="-167" font-family="Arial" font-size="10.00">E5RankedResults</text>
<text xml:space="preserve" text-anchor="middle" x="168" y="-155" font-family="Arial" font-size="10.00">score décroissant</text>
</g>
<!-- Ranker&#45;&gt;Results -->
<g id="edge10" class="edge">
<title>Ranker&#45;&gt;Results</title>
<path fill="none" stroke="black" d="M168,-219.08C168,-219.08 168,-191.43 168,-191.43"/>
<polygon fill="black" stroke="black" points="170.45,-191.43 168,-184.43 165.55,-191.43 170.45,-191.43"/>
</g>
<!-- NoQdrant -->
<g id="node11" class="node">
<title>NoQdrant</title>
<path fill="#ffebee" stroke="#b71c1c" d="M81.75,-90C81.75,-90 28.25,-90 28.25,-90 22.25,-90 16.25,-84 16.25,-78 16.25,-78 16.25,-66 16.25,-66 16.25,-60 22.25,-54 28.25,-54 28.25,-54 81.75,-54 81.75,-54 87.75,-54 93.75,-60 93.75,-66 93.75,-66 93.75,-78 93.75,-78 93.75,-84 87.75,-90 81.75,-90"/>
<text xml:space="preserve" text-anchor="middle" x="55" y="-68.5" font-family="Arial" font-size="10.00">pas de Qdrant</text>
</g>
<!-- Results&#45;&gt;NoQdrant -->
<g id="edge11" class="edge">
<title>Results&#45;&gt;NoQdrant</title>
<path fill="none" stroke="black" stroke-dasharray="1,5" d="M119.75,-165C89.04,-165 55,-165 55,-165 55,-165 55,-98.89 55,-98.89"/>
<polygon fill="black" stroke="black" points="57.45,-98.89 55,-91.89 52.55,-98.89 57.45,-98.89"/>
</g>
<!-- NoBatch -->
<g id="node12" class="node">
<title>NoBatch</title>
<path fill="#ffebee" stroke="#b71c1c" d="M212,-90C212,-90 124,-90 124,-90 118,-90 112,-84 112,-78 112,-78 112,-66 112,-66 112,-60 118,-54 124,-54 124,-54 212,-54 212,-54 218,-54 224,-60 224,-66 224,-66 224,-78 224,-78 224,-84 218,-90 212,-90"/>
<text xml:space="preserve" text-anchor="middle" x="168" y="-68.5" font-family="Arial" font-size="10.00">pas de batch optimisé</text>
</g>
<!-- Results&#45;&gt;NoBatch -->
<g id="edge12" class="edge">
<title>Results&#45;&gt;NoBatch</title>
<path fill="none" stroke="black" stroke-dasharray="1,5" d="M168,-146.22C168,-146.22 168,-98.75 168,-98.75"/>
<polygon fill="black" stroke="black" points="170.45,-98.75 168,-91.75 165.55,-98.75 170.45,-98.75"/>
</g>
<!-- NoScheduler -->
<g id="node13" class="node">
<title>NoScheduler</title>
<g id="a_node13"><a xlink:href="../scheduler/10_scheduler.svg" xlink:title="pas de Scheduler">
<path fill="#ffebee" stroke="#b71c1c" d="M321.88,-90C321.88,-90 254.12,-90 254.12,-90 248.12,-90 242.12,-84 242.12,-78 242.12,-78 242.12,-66 242.12,-66 242.12,-60 248.12,-54 254.12,-54 254.12,-54 321.88,-54 321.88,-54 327.88,-54 333.88,-60 333.88,-66 333.88,-66 333.88,-78 333.88,-78 333.88,-84 327.88,-90 321.88,-90"/>
<text xml:space="preserve" text-anchor="middle" x="288" y="-68.5" font-family="Arial" font-size="10.00">pas de Scheduler</text>
</a>
</g>
</g>
<!-- Results&#45;&gt;NoScheduler -->
<g id="edge13" class="edge">
<title>Results&#45;&gt;NoScheduler</title>
<path fill="none" stroke="black" stroke-dasharray="1,5" d="M216.03,-165C238.01,-165 259.25,-165 259.25,-165 259.25,-165 259.25,-98.89 259.25,-98.89"/>
<polygon fill="black" stroke="black" points="261.7,-98.89 259.25,-91.89 256.8,-98.89 261.7,-98.89"/>
</g>
<!-- Nav_Inference -->
<g id="node14" class="node">
<title>Nav_Inference</title>
<g id="a_node14"><a xlink:href="40_inference.svg" xlink:title="Inference">
<path fill="lightgrey" stroke="none" d="M71.25,-36C71.25,-36 38.75,-36 38.75,-36 32.75,-36 26.75,-30 26.75,-24 26.75,-24 26.75,-12 26.75,-12 26.75,-6 32.75,0 38.75,0 38.75,0 71.25,0 71.25,0 77.25,0 83.25,-6 83.25,-12 83.25,-12 83.25,-24 83.25,-24 83.25,-30 77.25,-36 71.25,-36"/>
<text xml:space="preserve" text-anchor="middle" x="55" y="-14.5" font-family="Arial" font-size="10.00">Inference</text>
</a>
</g>
</g>
<!-- Nav_Pipeline -->
<g id="node15" class="node">
<title>Nav_Pipeline</title>
<g id="a_node15"><a xlink:href="47_openvino_embedding_pipeline.svg" xlink:title="Embedding pipeline">
<path fill="lightgrey" stroke="none" d="M177.38,-36C177.38,-36 100.62,-36 100.62,-36 94.62,-36 88.62,-30 88.62,-24 88.62,-24 88.62,-12 88.62,-12 88.62,-6 94.62,0 100.62,0 100.62,0 177.38,0 177.38,0 183.38,0 189.38,-6 189.38,-12 189.38,-12 189.38,-24 189.38,-24 189.38,-30 183.38,-36 177.38,-36"/>
<text xml:space="preserve" text-anchor="middle" x="139" y="-14.5" font-family="Arial" font-size="10.00">Embedding pipeline</text>
</a>
</g>
</g>
<!-- Nav_CLI -->
<g id="node16" class="node">
<title>Nav_CLI</title>
<g id="a_node16"><a xlink:href="40_inference.svg" xlink:title="E5 CLI">
<path fill="lightgrey" stroke="none" d="M236,-36C236,-36 206,-36 206,-36 200,-36 194,-30 194,-24 194,-24 194,-12 194,-12 194,-6 200,0 206,0 206,0 236,0 236,0 242,0 248,-6 248,-12 248,-12 248,-24 248,-24 248,-30 242,-36 236,-36"/>
<text xml:space="preserve" text-anchor="middle" x="221" y="-14.5" font-family="Arial" font-size="10.00">E5 CLI</text>
</a>
</g>
</g>
<!-- Nav_Global -->
<g id="node17" class="node">
<title>Nav_Global</title>
<g id="a_node17"><a xlink:href="../00_global.svg" xlink:title="Global">
<path fill="lightgrey" stroke="none" d="M295,-36C295,-36 265,-36 265,-36 259,-36 253,-30 253,-24 253,-24 253,-12 253,-12 253,-6 259,0 265,0 265,0 295,0 295,0 301,0 307,-6 307,-12 307,-12 307,-24 307,-24 307,-30 301,-36 295,-36"/>
<text xml:space="preserve" text-anchor="middle" x="280" y="-14.5" font-family="Arial" font-size="10.00">Global</text>
</a>
</g>
</g>
</g>
</svg>
