<?xml version="1.0" encoding="UTF-8" standalone="no"?>
<!DOCTYPE svg PUBLIC "-//W3C//DTD SVG 1.1//EN"
 "http://www.w3.org/Graphics/SVG/1.1/DTD/svg11.dtd">
<!-- Generated by graphviz version 14.1.3 (20260303.0454)
 -->
<!-- Title: E5Corpus Pages: 1 -->
<svg width="1060pt" height="410pt"
 viewBox="0.00 0.00 1060.00 410.00" xmlns="http://www.w3.org/2000/svg" xmlns:xlink="http://www.w3.org/1999/xlink">
<g id="graph0" class="graph" transform="scale(1 1) rotate(0) translate(4 406)">
<title>E5Corpus</title>
<polygon fill="white" stroke="none" points="-4,4 -4,-406 1055.75,-406 1055.75,4 -4,4"/>
<g id="clust1" class="cluster">
<title>cluster_inputs</title>
<polygon fill="#e3f2fd" stroke="#1565c0" points="691.5,-316.75 691.5,-394 1039.5,-394 1039.5,-316.75 691.5,-316.75"/>
<text xml:space="preserve" text-anchor="middle" x="865.5" y="-376.7" font-family="Times,serif" font-size="14.00">Entrées</text>
</g>
<g id="clust2" class="cluster">
<title>cluster_corpus</title>
<polygon fill="#e8f5e9" stroke="#2e7d32" points="136.5,-128.5 136.5,-288.25 644.5,-288.25 644.5,-128.5 136.5,-128.5"/>
<text xml:space="preserve" text-anchor="middle" x="390.5" y="-270.95" font-family="Times,serif" font-size="14.00">Corpus local Phase 3.12</text>
</g>
<g id="clust3" class="cluster">
<title>cluster_existing</title>
<polygon fill="#efebe9" stroke="#6d4c41" points="652.5,-211 652.5,-288.25 1034.5,-288.25 1034.5,-211 652.5,-211"/>
<text xml:space="preserve" text-anchor="middle" x="843.5" y="-270.95" font-family="Times,serif" font-size="14.00">Briques existantes</text>
</g>
<!-- PassageFile -->
<g id="node1" class="node">
<title>PassageFile</title>
<polygon fill="#e3f2fd" stroke="#1565c0" points="1031.62,-360.75 941.38,-360.75 941.38,-324.75 1031.62,-324.75 1031.62,-360.75"/>
<text xml:space="preserve" text-anchor="middle" x="986.5" y="-345.25" font-family="Arial" font-size="10.00">passages.txt</text>
<text xml:space="preserve" text-anchor="middle" x="986.5" y="-333.25" font-family="Arial" font-size="10.00">1 passage / ligne</text>
</g>
<!-- E5Text -->
<g id="node11" class="node">
<title>E5Text</title>
<g id="a_node11"><a xlink:href="49_e5_query_passage.svg" xlink:title="E5Text\nquery/passage">
<polygon fill="#efebe9" stroke="#6d4c41" points="1026.38,-255 946.62,-255 946.62,-219 1026.38,-219 1026.38,-255"/>
<text xml:space="preserve" text-anchor="middle" x="986.5" y="-239.5" font-family="Arial" font-size="10.00">E5Text</text>
<text xml:space="preserve" text-anchor="middle" x="986.5" y="-227.5" font-family="Arial" font-size="10.00">query/passage</text>
</a>
</g>
</g>
<!-- PassageFile&#45;&gt;E5Text -->
<g id="edge1" class="edge">
<title>PassageFile&#45;&gt;E5Text</title>
<path fill="none" stroke="black" d="M986.5,-324.62C986.5,-308.85 986.5,-285.15 986.5,-266.53"/>
<polygon fill="black" stroke="black" points="990,-266.67 986.5,-256.67 983,-266.67 990,-266.67"/>
<text xml:space="preserve" text-anchor="middle" x="1019.12" y="-298.2" font-family="Arial" font-size="9.00">default passage</text>
</g>
<!-- SourceFiles -->
<g id="node2" class="node">
<title>SourceFiles</title>
<g id="a_node2"><a xlink:href="51_e5_sources.svg" xlink:title="TXT/Markdown sources\nchunks">
<polygon fill="#e3f2fd" stroke="#1565c0" points="819.62,-360.75 699.38,-360.75 699.38,-324.75 819.62,-324.75 819.62,-360.75"/>
<text xml:space="preserve" text-anchor="middle" x="759.5" y="-345.25" font-family="Arial" font-size="10.00">TXT/Markdown sources</text>
<text xml:space="preserve" text-anchor="middle" x="759.5" y="-333.25" font-family="Arial" font-size="10.00">chunks</text>
</a>
</g>
</g>
<!-- E5Document -->
<g id="node4" class="node">
<title>E5Document</title>
<polygon fill="#e8f5e9" stroke="#2e7d32" points="344.75,-255 240.25,-255 240.25,-219 344.75,-219 344.75,-255"/>
<text xml:space="preserve" text-anchor="middle" x="292.5" y="-239.5" font-family="Arial" font-size="10.00">E5CorpusDocument</text>
<text xml:space="preserve" text-anchor="middle" x="292.5" y="-227.5" font-family="Arial" font-size="10.00">id + passage</text>
</g>
<!-- SourceFiles&#45;&gt;E5Document -->
<g id="edge2" class="edge">
<title>SourceFiles&#45;&gt;E5Document</title>
<path fill="none" stroke="black" d="M699.03,-337.88C601.49,-330.95 414.22,-314.64 353.5,-288.25 339.93,-282.35 326.97,-272.51 316.52,-263.09"/>
<polygon fill="black" stroke="black" points="319.13,-260.75 309.46,-256.42 314.32,-265.83 319.13,-260.75"/>
<text xml:space="preserve" text-anchor="middle" x="475.91" y="-298.2" font-family="Arial" font-size="9.00">E5CorpusDocument chunks</text>
</g>
<!-- Query -->
<g id="node3" class="node">
<title>Query</title>
<polygon fill="#e3f2fd" stroke="#1565c0" points="923,-360.75 838,-360.75 838,-324.75 923,-324.75 923,-360.75"/>
<text xml:space="preserve" text-anchor="middle" x="880.5" y="-339.25" font-family="Arial" font-size="10.00">query utilisateur</text>
</g>
<!-- Query&#45;&gt;E5Text -->
<g id="edge12" class="edge">
<title>Query&#45;&gt;E5Text</title>
<path fill="none" stroke="black" d="M898.87,-324.3C907.94,-315.76 919.09,-305.38 929.25,-296.25 933.29,-292.62 934.56,-292 938.5,-288.25 946.71,-280.43 955.37,-271.58 963.03,-263.51"/>
<polygon fill="black" stroke="black" points="965.56,-265.93 969.85,-256.24 960.46,-261.14 965.56,-265.93"/>
<text xml:space="preserve" text-anchor="middle" x="955.88" y="-298.2" font-family="Arial" font-size="9.00">default query</text>
</g>
<!-- Builder -->
<g id="node5" class="node">
<title>Builder</title>
<polygon fill="#e8f5e9" stroke="#2e7d32" points="380.62,-172.5 266.38,-172.5 266.38,-136.5 380.62,-136.5 380.62,-172.5"/>
<text xml:space="preserve" text-anchor="middle" x="323.5" y="-157" font-family="Arial" font-size="10.00">E5CorpusBuilder</text>
<text xml:space="preserve" text-anchor="middle" x="323.5" y="-145" font-family="Arial" font-size="10.00">embed passages once</text>
</g>
<!-- E5Document&#45;&gt;Builder -->
<g id="edge4" class="edge">
<title>E5Document&#45;&gt;Builder</title>
<path fill="none" stroke="black" d="M292.28,-218.64C292.7,-209.93 294.01,-199.38 297.5,-190.5 298.57,-187.79 299.9,-185.1 301.39,-182.49"/>
<polygon fill="black" stroke="black" points="304.29,-184.45 306.91,-174.19 298.46,-180.58 304.29,-184.45"/>
</g>
<!-- Incremental -->
<g id="node14" class="node">
<title>Incremental</title>
<polygon fill="lightgrey" stroke="black" points="67,-172.5 0,-172.5 0,-136.5 67,-136.5 67,-172.5"/>
<text xml:space="preserve" text-anchor="middle" x="33.5" y="-151" font-family="Arial" font-size="10.00">Incremental</text>
</g>
<!-- E5Document&#45;&gt;Incremental -->
<g id="edge10" class="edge">
<title>E5Document&#45;&gt;Incremental</title>
<path fill="none" stroke="black" d="M239.93,-233C199.39,-229.2 142.64,-220.57 96.5,-201 84.23,-195.8 72.05,-187.84 61.72,-180.02"/>
<polygon fill="black" stroke="black" points="64,-177.36 53.99,-173.91 59.66,-182.85 64,-177.36"/>
<text xml:space="preserve" text-anchor="middle" x="131" y="-192.45" font-family="Arial" font-size="9.00">new corpus docs</text>
</g>
<!-- Pipeline -->
<g id="node12" class="node">
<title>Pipeline</title>
<g id="a_node12"><a xlink:href="47_openvino_embedding_pipeline.svg" xlink:title="OpenVINOEmbeddingPipeline\ntext &#45;&gt; vector">
<polygon fill="#efebe9" stroke="#6d4c41" points="808.12,-255 660.88,-255 660.88,-219 808.12,-219 808.12,-255"/>
<text xml:space="preserve" text-anchor="middle" x="734.5" y="-239.5" font-family="Arial" font-size="10.00">OpenVINOEmbeddingPipeline</text>
<text xml:space="preserve" text-anchor="middle" x="734.5" y="-227.5" font-family="Arial" font-size="10.00">text &#45;&gt; vector</text>
</a>
</g>
</g>
<!-- Builder&#45;&gt;Pipeline -->
<g id="edge5" class="edge">
<title>Builder&#45;&gt;Pipeline</title>
<path fill="none" stroke="black" d="M380.97,-170.93C383.84,-171.51 386.7,-172.04 389.5,-172.5 492.4,-189.57 522.61,-164.02 623.5,-190.5 634.17,-193.3 635.86,-196.64 646,-201 656.36,-205.46 667.48,-210.03 678.23,-214.33"/>
<polygon fill="black" stroke="black" points="676.82,-217.54 687.4,-217.98 679.4,-211.03 676.82,-217.54"/>
<text xml:space="preserve" text-anchor="middle" x="690.25" y="-192.45" font-family="Arial" font-size="9.00">passage embeddings</text>
</g>
<!-- Index -->
<g id="node6" class="node">
<title>Index</title>
<polygon fill="#e8f5e9" stroke="#2e7d32" points="474.12,-255 362.88,-255 362.88,-219 474.12,-219 474.12,-255"/>
<text xml:space="preserve" text-anchor="middle" x="418.5" y="-239.5" font-family="Arial" font-size="10.00">E5CorpusIndex</text>
<text xml:space="preserve" text-anchor="middle" x="418.5" y="-227.5" font-family="Arial" font-size="10.00">embeddings persistés</text>
</g>
<!-- Store -->
<g id="node7" class="node">
<title>Store</title>
<polygon fill="#e8f5e9" stroke="#2e7d32" points="248.38,-172.5 144.62,-172.5 144.62,-136.5 248.38,-136.5 248.38,-172.5"/>
<text xml:space="preserve" text-anchor="middle" x="196.5" y="-157" font-family="Arial" font-size="10.00">E5CorpusJsonStore</text>
<text xml:space="preserve" text-anchor="middle" x="196.5" y="-145" font-family="Arial" font-size="10.00">read/write JSON</text>
</g>
<!-- Index&#45;&gt;Store -->
<g id="edge7" class="edge">
<title>Index&#45;&gt;Store</title>
<path fill="none" stroke="black" d="M401.58,-218.69C390.98,-208.88 376.51,-197.25 361.5,-190.5 321.81,-172.65 305.64,-181.3 259.91,-172.74"/>
<polygon fill="black" stroke="black" points="260.64,-169.32 250.14,-170.71 259.22,-176.17 260.64,-169.32"/>
<text xml:space="preserve" text-anchor="middle" x="405.41" y="-192.45" font-family="Arial" font-size="9.00">persist JSON</text>
</g>
<!-- Searcher -->
<g id="node8" class="node">
<title>Searcher</title>
<polygon fill="#e8f5e9" stroke="#2e7d32" points="636.75,-172.5 538.25,-172.5 538.25,-136.5 636.75,-136.5 636.75,-172.5"/>
<text xml:space="preserve" text-anchor="middle" x="587.5" y="-157" font-family="Arial" font-size="10.00">E5CorpusSearcher</text>
<text xml:space="preserve" text-anchor="middle" x="587.5" y="-145" font-family="Arial" font-size="10.00">query &#45;&gt; scores</text>
</g>
<!-- Index&#45;&gt;Searcher -->
<g id="edge15" class="edge">
<title>Index&#45;&gt;Searcher</title>
<path fill="none" stroke="black" d="M468.75,-218.62C476.99,-215.95 485.45,-213.32 493.5,-211 511.52,-205.81 517.81,-209.57 534.5,-201 544.75,-195.74 554.69,-188.12 563.14,-180.61"/>
<polygon fill="black" stroke="black" points="565.33,-183.35 570.25,-173.97 560.55,-178.24 565.33,-183.35"/>
<text xml:space="preserve" text-anchor="middle" x="585.12" y="-192.45" font-family="Arial" font-size="9.00">persisted vectors</text>
</g>
<!-- Store&#45;&gt;Index -->
<g id="edge8" class="edge">
<title>Store&#45;&gt;Index</title>
<path fill="none" stroke="black" d="M237.37,-172.91C259.57,-181.99 287.64,-192.87 313.25,-201 330.82,-206.58 335.92,-205.46 353.5,-211 357.19,-212.16 360.97,-213.42 364.76,-214.74"/>
<polygon fill="black" stroke="black" points="363.39,-217.97 373.98,-218.06 365.76,-211.38 363.39,-217.97"/>
<text xml:space="preserve" text-anchor="middle" x="335.38" y="-192.45" font-family="Arial" font-size="9.00">load JSON</text>
</g>
<!-- Store&#45;&gt;Incremental -->
<g id="edge9" class="edge">
<title>Store&#45;&gt;Incremental</title>
<path fill="none" stroke="black" d="M144.15,-154.5C123.09,-154.5 99.03,-154.5 78.73,-154.5"/>
<polygon fill="black" stroke="black" points="78.79,-151 68.79,-154.5 78.79,-158 78.79,-151"/>
<text xml:space="preserve" text-anchor="middle" x="105.81" y="-159.45" font-family="Arial" font-size="9.00">previous index</text>
</g>
<!-- SafeRebuild -->
<g id="node15" class="node">
<title>SafeRebuild</title>
<polygon fill="lightgrey" stroke="black" points="156.12,-90 86.88,-90 86.88,-54 156.12,-54 156.12,-90"/>
<text xml:space="preserve" text-anchor="middle" x="121.5" y="-68.5" font-family="Arial" font-size="10.00">SafeRebuild</text>
</g>
<!-- Store&#45;&gt;SafeRebuild -->
<g id="edge20" class="edge">
<title>Store&#45;&gt;SafeRebuild</title>
<path fill="none" stroke="black" d="M144.44,-138.19C135.67,-133.29 127.66,-126.88 122.25,-118.5 119.01,-113.49 117.62,-107.47 117.27,-101.47"/>
<polygon fill="black" stroke="black" points="120.75,-101.88 117.6,-91.76 113.76,-101.64 120.75,-101.88"/>
<text xml:space="preserve" text-anchor="middle" x="150.38" y="-109.95" font-family="Arial" font-size="9.00">staging JSON</text>
</g>
<!-- Searcher&#45;&gt;Pipeline -->
<g id="edge14" class="edge">
<title>Searcher&#45;&gt;Pipeline</title>
<path fill="none" stroke="black" d="M636.88,-160.36C675.93,-165.34 725.9,-174.65 738.5,-190.5 742.39,-195.39 743.5,-201.58 743.19,-207.8"/>
<polygon fill="black" stroke="black" points="739.8,-206.84 741.6,-217.28 746.7,-207.99 739.8,-206.84"/>
<text xml:space="preserve" text-anchor="middle" x="788.49" y="-192.45" font-family="Arial" font-size="9.00">query embedding only</text>
</g>
<!-- Ranker -->
<g id="node13" class="node">
<title>Ranker</title>
<g id="a_node13"><a xlink:href="49_e5_query_passage.svg" xlink:title="dot_product\ncosine if normalized">
<polygon fill="#efebe9" stroke="#6d4c41" points="929,-255 826,-255 826,-219 929,-219 929,-255"/>
<text xml:space="preserve" text-anchor="middle" x="877.5" y="-239.5" font-family="Arial" font-size="10.00">dot_product</text>
<text xml:space="preserve" text-anchor="middle" x="877.5" y="-227.5" font-family="Arial" font-size="10.00">cosine if normalized</text>
</a>
</g>
</g>
<!-- Searcher&#45;&gt;Ranker -->
<g id="edge16" class="edge">
<title>Searcher&#45;&gt;Ranker</title>
<path fill="none" stroke="black" d="M637.11,-158.27C700.13,-162.48 804.77,-172.06 838.5,-190.5 846.97,-195.13 854.43,-202.39 860.49,-209.75"/>
<polygon fill="black" stroke="black" points="857.68,-211.85 866.49,-217.74 863.28,-207.64 857.68,-211.85"/>
</g>
<!-- Hits -->
<g id="node9" class="node">
<title>Hits</title>
<polygon fill="#e8f5e9" stroke="#2e7d32" points="626.5,-255 502.5,-255 502.5,-219 626.5,-219 626.5,-255"/>
<text xml:space="preserve" text-anchor="middle" x="564.5" y="-239.5" font-family="Arial" font-size="10.00">E5CorpusSearchResults</text>
<text xml:space="preserve" text-anchor="middle" x="564.5" y="-227.5" font-family="Arial" font-size="10.00">hits ranked</text>
</g>
<!-- Report -->
<g id="node10" class="node">
<title>Report</title>
<g id="a_node10"><a xlink:href="52_e5_search_report.svg" xlink:title="E5SearchReport\nsource + lines + excerpt">
<polygon fill="#e8f5e9" stroke="#2e7d32" points="520.38,-172.5 398.62,-172.5 398.62,-136.5 520.38,-136.5 520.38,-172.5"/>
<text xml:space="preserve" text-anchor="middle" x="459.5" y="-157" font-family="Arial" font-size="10.00">E5SearchReport</text>
<text xml:space="preserve" text-anchor="middle" x="459.5" y="-145" font-family="Arial" font-size="10.00">source + lines + excerpt</text>
</a>
</g>
</g>
<!-- Hits&#45;&gt;Report -->
<g id="edge18" class="edge">
<title>Hits&#45;&gt;Report</title>
<path fill="none" stroke="black" d="M508.03,-218.53C484.38,-210.95 461.92,-203.28 460.25,-201 456.67,-196.1 455.17,-190.05 454.82,-183.98"/>
<polygon fill="black" stroke="black" points="458.31,-184.23 455.27,-174.08 451.32,-183.91 458.31,-184.23"/>
<text xml:space="preserve" text-anchor="middle" x="497.38" y="-192.45" font-family="Arial" font-size="9.00">human/json report</text>
</g>
<!-- E5Text&#45;&gt;E5Document -->
<g id="edge3" class="edge">
<title>E5Text&#45;&gt;E5Document</title>
<path fill="none" stroke="black" d="M976.63,-255.33C966.96,-271.13 950.63,-292.88 929.5,-302.5 900.83,-315.56 391.8,-314.07 362.5,-302.5 342.76,-294.7 325.31,-278.42 312.78,-264.04"/>
<polygon fill="black" stroke="black" points="315.67,-262.05 306.6,-256.59 310.29,-266.52 315.67,-262.05"/>
</g>
<!-- E5Text&#45;&gt;Searcher -->
<g id="edge13" class="edge">
<title>E5Text&#45;&gt;Searcher</title>
<path fill="none" stroke="black" d="M955.47,-218.55C949.92,-215.8 944.11,-213.16 938.5,-211 841.54,-173.72 720.28,-161.47 648.64,-157.45"/>
<polygon fill="black" stroke="black" points="648.82,-153.96 638.66,-156.93 648.46,-160.95 648.82,-153.96"/>
</g>
<!-- Pipeline&#45;&gt;Index -->
<g id="edge6" class="edge">
<title>Pipeline&#45;&gt;Index</title>
<path fill="none" stroke="black" d="M715.65,-255.23C697.72,-271.21 669.15,-293.27 639.5,-302.5 581.36,-320.6 560.08,-322.3 502.5,-302.5 479.78,-294.69 458.48,-277.93 443.02,-263.32"/>
<polygon fill="black" stroke="black" points="445.72,-261.07 436.13,-256.56 440.81,-266.06 445.72,-261.07"/>
</g>
<!-- Ranker&#45;&gt;Hits -->
<g id="edge17" class="edge">
<title>Ranker&#45;&gt;Hits</title>
<path fill="none" stroke="black" d="M864.62,-255.42C852.3,-271.28 832.12,-293.07 808.5,-302.5 777.33,-314.94 689.49,-312.63 657.5,-302.5 632.65,-294.63 608.7,-277.46 591.33,-262.68"/>
<polygon fill="black" stroke="black" points="593.83,-260.21 584.01,-256.23 589.2,-265.46 593.83,-260.21"/>
</g>
<!-- Incremental&#45;&gt;Index -->
<g id="edge11" class="edge">
<title>Incremental&#45;&gt;Index</title>
<path fill="none" stroke="black" d="M67.49,-164.21C94.19,-171.13 132.29,-181.15 165.5,-190.5 181.24,-194.93 184.66,-198.11 200.75,-201 267.72,-213.01 287.05,-196.4 353.5,-211 358.35,-212.06 363.31,-213.43 368.23,-214.97"/>
<polygon fill="black" stroke="black" points="366.83,-218.2 377.43,-218.1 369.09,-211.57 366.83,-218.2"/>
<text xml:space="preserve" text-anchor="middle" x="240.12" y="-192.45" font-family="Arial" font-size="9.00">reuse/embed result</text>
</g>
<!-- Incremental&#45;&gt;SafeRebuild -->
<g id="edge19" class="edge">
<title>Incremental&#45;&gt;SafeRebuild</title>
<path fill="none" stroke="black" d="M36.15,-136.31C38.33,-127.02 42.25,-115.87 49.25,-108 56.6,-99.73 66.35,-93.22 76.29,-88.17"/>
<polygon fill="black" stroke="black" points="77.62,-91.41 85.26,-84.07 74.71,-85.05 77.62,-91.41"/>
<text xml:space="preserve" text-anchor="middle" x="81.88" y="-109.95" font-family="Arial" font-size="9.00">candidate index</text>
</g>
<!-- SafeRebuild&#45;&gt;Store -->
<g id="edge21" class="edge">
<title>SafeRebuild&#45;&gt;Store</title>
<path fill="none" stroke="black" d="M156.51,-89.61C164.52,-94.65 172.45,-100.8 178.5,-108 182.73,-113.04 186.05,-119.2 188.62,-125.34"/>
<polygon fill="black" stroke="black" points="185.31,-126.46 191.97,-134.69 191.9,-124.1 185.31,-126.46"/>
<text xml:space="preserve" text-anchor="middle" x="211.74" y="-109.95" font-family="Arial" font-size="9.00">promote final</text>
</g>
<!-- Nav_Inference -->
<g id="node16" class="node">
<title>Nav_Inference</title>
<g id="a_node16"><a xlink:href="40_inference.svg" xlink:title="Inference">
<polygon fill="lightgrey" stroke="none" points="149.75,-36 93.25,-36 93.25,0 149.75,0 149.75,-36"/>
<text xml:space="preserve" text-anchor="middle" x="121.5" y="-14.5" font-family="Arial" font-size="10.00">Inference</text>
</a>
</g>
</g>
<!-- Nav_QueryPassage -->
<g id="node17" class="node">
<title>Nav_QueryPassage</title>
<g id="a_node17"><a xlink:href="49_e5_query_passage.svg" xlink:title="E5 query/passage">
<polygon fill="lightgrey" stroke="none" points="249.88,-36 155.12,-36 155.12,0 249.88,0 249.88,-36"/>
<text xml:space="preserve" text-anchor="middle" x="202.5" y="-14.5" font-family="Arial" font-size="10.00">E5 query/passage</text>
</a>
</g>
</g>
<!-- Nav_Pipeline -->
<g id="node18" class="node">
<title>Nav_Pipeline</title>
<g id="a_node18"><a xlink:href="47_openvino_embedding_pipeline.svg" xlink:title="Embedding pipeline">
<polygon fill="lightgrey" stroke="none" points="355.88,-36 255.12,-36 255.12,0 355.88,0 355.88,-36"/>
<text xml:space="preserve" text-anchor="middle" x="305.5" y="-14.5" font-family="Arial" font-size="10.00">Embedding pipeline</text>
</a>
</g>
</g>
<!-- Nav_Sources -->
<g id="node19" class="node">
<title>Nav_Sources</title>
<g id="a_node19"><a xlink:href="51_e5_sources.svg" xlink:title="E5 sources">
<polygon fill="lightgrey" stroke="none" points="426.25,-36 360.75,-36 360.75,0 426.25,0 426.25,-36"/>
<text xml:space="preserve" text-anchor="middle" x="393.5" y="-14.5" font-family="Arial" font-size="10.00">E5 sources</text>
</a>
</g>
</g>
<!-- Nav_Report -->
<g id="node20" class="node">
<title>Nav_Report</title>
<g id="a_node20"><a xlink:href="52_e5_search_report.svg" xlink:title="E5 search report">
<polygon fill="lightgrey" stroke="none" points="519.5,-36 431.5,-36 431.5,0 519.5,0 519.5,-36"/>
<text xml:space="preserve" text-anchor="middle" x="475.5" y="-14.5" font-family="Arial" font-size="10.00">E5 search report</text>
</a>
</g>
</g>
<!-- Nav_Incremental -->
<g id="node21" class="node">
<title>Nav_Incremental</title>
<g id="a_node21"><a xlink:href="53_e5_incremental.svg" xlink:title="E5 incremental">
<polygon fill="lightgrey" stroke="none" points="606.12,-36 524.88,-36 524.88,0 606.12,0 606.12,-36"/>
<text xml:space="preserve" text-anchor="middle" x="565.5" y="-14.5" font-family="Arial" font-size="10.00">E5 incremental</text>
</a>
</g>
</g>
<!-- Nav_SafeRebuild -->
<g id="node22" class="node">
<title>Nav_SafeRebuild</title>
<g id="a_node22"><a xlink:href="56_e5_safe_rebuild.svg" xlink:title="E5 safe rebuild">
<polygon fill="lightgrey" stroke="none" points="692.12,-36 610.88,-36 610.88,0 692.12,0 692.12,-36"/>
<text xml:space="preserve" text-anchor="middle" x="651.5" y="-14.5" font-family="Arial" font-size="10.00">E5 safe rebuild</text>
</a>
</g>
</g>
</g>
</svg>
