<?xml version="1.0" encoding="UTF-8" standalone="no"?>
<!DOCTYPE svg PUBLIC "-//W3C//DTD SVG 1.1//EN"
 "http://www.w3.org/Graphics/SVG/1.1/DTD/svg11.dtd">
<!-- Generated by graphviz version 14.1.3 (20260303.0454)
 -->
<!-- Title: E5Sources Pages: 1 -->
<svg width="748pt" height="630pt"
 viewBox="0.00 0.00 748.00 630.00" xmlns="http://www.w3.org/2000/svg" xmlns:xlink="http://www.w3.org/1999/xlink">
<g id="graph0" class="graph" transform="scale(1 1) rotate(0) translate(4 626.25)">
<title>E5Sources</title>
<polygon fill="white" stroke="none" points="-4,4 -4,-626.25 744.38,-626.25 744.38,4 -4,4"/>
<g id="clust1" class="cluster">
<title>cluster_files</title>
<polygon fill="#e3f2fd" stroke="#1565c0" points="8,-537 8,-614.25 377,-614.25 377,-537 8,-537"/>
<text xml:space="preserve" text-anchor="middle" x="192.5" y="-596.95" font-family="Times,serif" font-size="14.00">Sources locales</text>
</g>
<g id="clust2" class="cluster">
<title>cluster_loader</title>
<polygon fill="#e8f5e9" stroke="#2e7d32" points="126,-116 126,-518 282,-518 282,-116 126,-116"/>
<text xml:space="preserve" text-anchor="middle" x="204" y="-500.7" font-family="Times,serif" font-size="14.00">Loader Phase 3.13</text>
</g>
<g id="clust3" class="cluster">
<title>cluster_existing</title>
<polygon fill="#efebe9" stroke="#6d4c41" points="291,-8 291,-193.25 511,-193.25 511,-8 291,-8"/>
<text xml:space="preserve" text-anchor="middle" x="401" y="-175.95" font-family="Times,serif" font-size="14.00">Briques existantes</text>
</g>
<!-- SourceFile -->
<g id="node1" class="node">
<title>SourceFile</title>
<polygon fill="#e3f2fd" stroke="#1565c0" points="140,-581 16,-581 16,-545 140,-545 140,-581"/>
<text xml:space="preserve" text-anchor="middle" x="78" y="-559.5" font-family="Arial" font-size="10.00">*.md / *.markdown / *.txt</text>
</g>
<!-- Discover -->
<g id="node4" class="node">
<title>Discover</title>
<polygon fill="#e8f5e9" stroke="#2e7d32" points="267.12,-484.75 140.88,-484.75 140.88,-448.75 267.12,-448.75 267.12,-484.75"/>
<text xml:space="preserve" text-anchor="middle" x="204" y="-469.25" font-family="Arial" font-size="10.00">discover_e5_source_files</text>
<text xml:space="preserve" text-anchor="middle" x="204" y="-457.25" font-family="Arial" font-size="10.00">stable sorted paths</text>
</g>
<!-- SourceFile&#45;&gt;Discover -->
<g id="edge1" class="edge">
<title>SourceFile&#45;&gt;Discover</title>
<path fill="none" stroke="black" d="M101.11,-544.71C120.88,-529.93 149.55,-508.48 171.61,-491.98"/>
<polygon fill="black" stroke="black" points="173.49,-494.95 179.4,-486.15 169.29,-489.34 173.49,-494.95"/>
</g>
<!-- SourceDir -->
<g id="node2" class="node">
<title>SourceDir</title>
<polygon fill="#e3f2fd" stroke="#1565c0" points="250.25,-581 157.75,-581 157.75,-545 250.25,-545 250.25,-581"/>
<text xml:space="preserve" text-anchor="middle" x="204" y="-565.5" font-family="Arial" font-size="10.00">source directory</text>
<text xml:space="preserve" text-anchor="middle" x="204" y="-553.5" font-family="Arial" font-size="10.00">recursive optional</text>
</g>
<!-- SourceDir&#45;&gt;Discover -->
<g id="edge2" class="edge">
<title>SourceDir&#45;&gt;Discover</title>
<path fill="none" stroke="black" d="M204,-544.71C204,-531.25 204,-512.26 204,-496.51"/>
<polygon fill="black" stroke="black" points="207.5,-496.76 204,-486.76 200.5,-496.76 207.5,-496.76"/>
</g>
<!-- Extensions -->
<g id="node3" class="node">
<title>Extensions</title>
<polygon fill="#e3f2fd" stroke="#1565c0" points="369.38,-581 268.62,-581 268.62,-545 369.38,-545 369.38,-581"/>
<text xml:space="preserve" text-anchor="middle" x="319" y="-565.5" font-family="Arial" font-size="10.00">extension filter</text>
<text xml:space="preserve" text-anchor="middle" x="319" y="-553.5" font-family="Arial" font-size="10.00">.md,.markdown,.txt</text>
</g>
<!-- Extensions&#45;&gt;Discover -->
<g id="edge3" class="edge">
<title>Extensions&#45;&gt;Discover</title>
<path fill="none" stroke="black" stroke-dasharray="1,5" d="M297.91,-544.71C280.03,-530.06 254.16,-508.86 234.11,-492.42"/>
<polygon fill="black" stroke="black" points="236.47,-489.84 226.52,-486.21 232.03,-495.25 236.47,-489.84"/>
</g>
<!-- SourceDocument -->
<g id="node5" class="node">
<title>SourceDocument</title>
<polygon fill="#e8f5e9" stroke="#2e7d32" points="261.88,-411.75 146.12,-411.75 146.12,-375.75 261.88,-375.75 261.88,-411.75"/>
<text xml:space="preserve" text-anchor="middle" x="204" y="-396.25" font-family="Arial" font-size="10.00">E5SourceDocument</text>
<text xml:space="preserve" text-anchor="middle" x="204" y="-384.25" font-family="Arial" font-size="10.00">path + text + metadata</text>
</g>
<!-- Discover&#45;&gt;SourceDocument -->
<g id="edge4" class="edge">
<title>Discover&#45;&gt;SourceDocument</title>
<path fill="none" stroke="black" d="M204,-448.56C204,-440.98 204,-431.85 204,-423.29"/>
<polygon fill="black" stroke="black" points="207.5,-423.29 204,-413.29 200.5,-423.29 207.5,-423.29"/>
</g>
<!-- Chunker -->
<g id="node6" class="node">
<title>Chunker</title>
<polygon fill="#e8f5e9" stroke="#2e7d32" points="274.25,-338.75 133.75,-338.75 133.75,-302.75 274.25,-302.75 274.25,-338.75"/>
<text xml:space="preserve" text-anchor="middle" x="204" y="-323.25" font-family="Arial" font-size="10.00">chunk_e5_source_document</text>
<text xml:space="preserve" text-anchor="middle" x="204" y="-311.25" font-family="Arial" font-size="10.00">paragraph chunks</text>
</g>
<!-- SourceDocument&#45;&gt;Chunker -->
<g id="edge5" class="edge">
<title>SourceDocument&#45;&gt;Chunker</title>
<path fill="none" stroke="black" d="M204,-375.56C204,-367.98 204,-358.85 204,-350.29"/>
<polygon fill="black" stroke="black" points="207.5,-350.29 204,-340.29 200.5,-350.29 207.5,-350.29"/>
</g>
<!-- Chunk -->
<g id="node7" class="node">
<title>Chunk</title>
<polygon fill="#e8f5e9" stroke="#2e7d32" points="265.62,-265.75 142.38,-265.75 142.38,-229.75 265.62,-229.75 265.62,-265.75"/>
<text xml:space="preserve" text-anchor="middle" x="204" y="-250.25" font-family="Arial" font-size="10.00">E5TextChunk</text>
<text xml:space="preserve" text-anchor="middle" x="204" y="-238.25" font-family="Arial" font-size="10.00">source_path + line range</text>
</g>
<!-- Chunker&#45;&gt;Chunk -->
<g id="edge6" class="edge">
<title>Chunker&#45;&gt;Chunk</title>
<path fill="none" stroke="black" d="M204,-302.56C204,-294.98 204,-285.85 204,-277.29"/>
<polygon fill="black" stroke="black" points="207.5,-277.29 204,-267.29 200.5,-277.29 207.5,-277.29"/>
</g>
<!-- CorpusDocument -->
<g id="node8" class="node">
<title>CorpusDocument</title>
<polygon fill="#e8f5e9" stroke="#2e7d32" points="264,-160 140,-160 140,-124 264,-124 264,-160"/>
<text xml:space="preserve" text-anchor="middle" x="202" y="-144.5" font-family="Arial" font-size="10.00">E5CorpusDocument</text>
<text xml:space="preserve" text-anchor="middle" x="202" y="-132.5" font-family="Arial" font-size="10.00">passage role + metadata</text>
</g>
<!-- Chunk&#45;&gt;CorpusDocument -->
<g id="edge9" class="edge">
<title>Chunk&#45;&gt;CorpusDocument</title>
<path fill="none" stroke="black" d="M203.67,-229.62C203.37,-213.85 202.91,-190.15 202.55,-171.53"/>
<polygon fill="black" stroke="black" points="206.05,-171.6 202.36,-161.67 199.05,-171.74 206.05,-171.6"/>
<text xml:space="preserve" text-anchor="middle" x="222.42" y="-203.2" font-family="Arial" font-size="9.00">metadata</text>
</g>
<!-- E5Text -->
<g id="node9" class="node">
<title>E5Text</title>
<g id="a_node9"><a xlink:href="49_e5_query_passage.svg" xlink:title="E5Text\npassage role">
<polygon fill="#efebe9" stroke="#6d4c41" points="370.75,-160 299.25,-160 299.25,-124 370.75,-124 370.75,-160"/>
<text xml:space="preserve" text-anchor="middle" x="335" y="-144.5" font-family="Arial" font-size="10.00">E5Text</text>
<text xml:space="preserve" text-anchor="middle" x="335" y="-132.5" font-family="Arial" font-size="10.00">passage role</text>
</a>
</g>
</g>
<!-- Chunk&#45;&gt;E5Text -->
<g id="edge7" class="edge">
<title>Chunk&#45;&gt;E5Text</title>
<path fill="none" stroke="black" d="M233.93,-229.42C249.97,-219.61 269.72,-206.63 286,-193.25 295.08,-185.78 304.28,-176.81 312.21,-168.52"/>
<polygon fill="black" stroke="black" points="314.66,-171.03 318.93,-161.33 309.55,-166.25 314.66,-171.03"/>
<text xml:space="preserve" text-anchor="middle" x="294.29" y="-203.2" font-family="Arial" font-size="9.00">passage:</text>
</g>
<!-- Corpus -->
<g id="node10" class="node">
<title>Corpus</title>
<g id="a_node10"><a xlink:href="50_e5_corpus.svg" xlink:title="E5CorpusBuilder\nembed passages once">
<polygon fill="#efebe9" stroke="#6d4c41" points="503.12,-160 388.88,-160 388.88,-124 503.12,-124 503.12,-160"/>
<text xml:space="preserve" text-anchor="middle" x="446" y="-144.5" font-family="Arial" font-size="10.00">E5CorpusBuilder</text>
<text xml:space="preserve" text-anchor="middle" x="446" y="-132.5" font-family="Arial" font-size="10.00">embed passages once</text>
</a>
</g>
</g>
<!-- CorpusDocument&#45;&gt;Corpus -->
<g id="edge10" class="edge">
<title>CorpusDocument&#45;&gt;Corpus</title>
<path fill="none" stroke="black" d="M219.39,-160.34C236.88,-177.34 265.54,-201.46 296,-211.5 327.66,-221.93 339.97,-223.67 371,-211.5 392.83,-202.94 412.1,-184.71 425.64,-169.07"/>
<polygon fill="black" stroke="black" points="428.29,-171.36 431.96,-161.42 422.89,-166.9 428.29,-171.36"/>
</g>
<!-- E5Text&#45;&gt;CorpusDocument -->
<g id="edge8" class="edge">
<title>E5Text&#45;&gt;CorpusDocument</title>
<path fill="none" stroke="black" d="M298.84,-142C291.12,-142 283.39,-142 275.66,-142"/>
<polygon fill="black" stroke="black" points="275.86,-138.5 265.86,-142 275.86,-145.5 275.86,-138.5"/>
</g>
<!-- Store -->
<g id="node11" class="node">
<title>Store</title>
<g id="a_node11"><a xlink:href="50_e5_corpus.svg" xlink:title="E5CorpusJsonStore\ncorpus.json">
<polygon fill="#efebe9" stroke="#6d4c41" points="497.88,-52 394.12,-52 394.12,-16 497.88,-16 497.88,-52"/>
<text xml:space="preserve" text-anchor="middle" x="446" y="-36.5" font-family="Arial" font-size="10.00">E5CorpusJsonStore</text>
<text xml:space="preserve" text-anchor="middle" x="446" y="-24.5" font-family="Arial" font-size="10.00">corpus.json</text>
</a>
</g>
</g>
<!-- Corpus&#45;&gt;Store -->
<g id="edge11" class="edge">
<title>Corpus&#45;&gt;Store</title>
<path fill="none" stroke="black" d="M446,-123.97C446,-107.76 446,-83.06 446,-63.79"/>
<polygon fill="black" stroke="black" points="449.5,-63.85 446,-53.85 442.5,-63.85 449.5,-63.85"/>
</g>
<!-- Nav_Inference -->
<g id="node12" class="node">
<title>Nav_Inference</title>
<g id="a_node12"><a xlink:href="40_inference.svg" xlink:title="Inference">
<polygon fill="lightgrey" stroke="none" points="575.25,-106 518.75,-106 518.75,-70 575.25,-70 575.25,-106"/>
<text xml:space="preserve" text-anchor="middle" x="547" y="-84.5" font-family="Arial" font-size="10.00">Inference</text>
</a>
</g>
</g>
<!-- Nav_E5Corpus -->
<g id="node13" class="node">
<title>Nav_E5Corpus</title>
<g id="a_node13"><a xlink:href="50_e5_corpus.svg" xlink:title="E5 corpus">
<polygon fill="lightgrey" stroke="none" points="640.12,-106 579.88,-106 579.88,-70 640.12,-70 640.12,-106"/>
<text xml:space="preserve" text-anchor="middle" x="610" y="-84.5" font-family="Arial" font-size="10.00">E5 corpus</text>
</a>
</g>
</g>
<!-- Nav_QueryPassage -->
<g id="node14" class="node">
<title>Nav_QueryPassage</title>
<g id="a_node14"><a xlink:href="49_e5_query_passage.svg" xlink:title="E5 query/passage">
<polygon fill="lightgrey" stroke="none" points="740.38,-106 645.62,-106 645.62,-70 740.38,-70 740.38,-106"/>
<text xml:space="preserve" text-anchor="middle" x="693" y="-84.5" font-family="Arial" font-size="10.00">E5 query/passage</text>
</a>
</g>
</g>
</g>
</svg>
