<?xml version="1.0" encoding="UTF-8" standalone="no"?>
<!DOCTYPE svg PUBLIC "-//W3C//DTD SVG 1.1//EN"
 "http://www.w3.org/Graphics/SVG/1.1/DTD/svg11.dtd">
<!-- Generated by graphviz version 14.1.3 (20260303.0454)
 -->
<!-- Title: E5Sources Pages: 1 -->
<svg width="949pt" height="764pt"
 viewBox="0.00 0.00 949.00 764.00" xmlns="http://www.w3.org/2000/svg" xmlns:xlink="http://www.w3.org/1999/xlink">
<g id="graph0" class="graph" transform="scale(1 1) rotate(0) translate(18 746.28)">
<title>E5Sources</title>
<polygon fill="white" stroke="none" points="-18,18 -18,-746.28 931.11,-746.28 931.11,18 -18,18"/>
<text xml:space="preserve" text-anchor="middle" x="456.55" y="-714.78" font-family="Arial" font-size="10.00">E5 sources — découverte, hygiène et chunking local</text>
<g id="clust1" class="cluster">
<title>cluster_files</title>
<polygon fill="#e3f2fd" stroke="#1565c0" stroke-width="1.5" points="167,-493.5 167,-565.5 551,-565.5 551,-493.5 167,-493.5"/>
<text xml:space="preserve" text-anchor="middle" x="359" y="-552" font-family="Arial" font-size="10.00">Sources locales</text>
</g>
<g id="clust2" class="cluster">
<title>cluster_hygiene</title>
<polygon fill="#fce4ec" stroke="#ad1457" stroke-width="1.7" points="565,-397.5 565,-700.28 875,-700.28 875,-397.5 565,-397.5"/>
<text xml:space="preserve" text-anchor="middle" x="720" y="-686.78" font-family="Arial" font-size="10.00">Hygiène Phase 4.4</text>
</g>
<g id="clust3" class="cluster">
<title>cluster_loader</title>
<polygon fill="#e8f5e9" stroke="#2e7d32" stroke-width="1.5" points="8,-126 8,-469.5 290,-469.5 290,-126 8,-126"/>
<text xml:space="preserve" text-anchor="middle" x="149" y="-456" font-family="Arial" font-size="10.00">Loader / chunker</text>
</g>
<g id="clust4" class="cluster">
<title>cluster_existing</title>
<polygon fill="#efebe9" stroke="#6d4c41" stroke-width="1.5" points="298,-8 298,-198 524,-198 524,-8 298,-8"/>
<text xml:space="preserve" text-anchor="middle" x="411" y="-184.5" font-family="Arial" font-size="10.00">Briques existantes</text>
</g>
<!-- SourceFile -->
<g id="node1" class="node">
<title>SourceFile</title>
<path fill="#e3f2fd" stroke="#1565c0" d="M403.48,-537.5C403.48,-537.5 306.52,-537.5 306.52,-537.5 300.52,-537.5 294.52,-531.5 294.52,-525.5 294.52,-525.5 294.52,-513.5 294.52,-513.5 294.52,-507.5 300.52,-501.5 306.52,-501.5 306.52,-501.5 403.48,-501.5 403.48,-501.5 409.48,-501.5 415.48,-507.5 415.48,-513.5 415.48,-513.5 415.48,-525.5 415.48,-525.5 415.48,-531.5 409.48,-537.5 403.48,-537.5"/>
<text xml:space="preserve" text-anchor="middle" x="355" y="-522" font-family="Arial" font-size="10.00">*.md / *.markdown / *.txt</text>
<text xml:space="preserve" text-anchor="middle" x="355" y="-510" font-family="Arial" font-size="10.00">source&#45;file</text>
</g>
<!-- Discover -->
<g id="node8" class="node">
<title>Discover</title>
<path fill="#e8f5e9" stroke="#2e7d32" d="M269.61,-441.5C269.61,-441.5 170.39,-441.5 170.39,-441.5 164.4,-441.5 158.4,-435.5 158.4,-429.5 158.4,-429.5 158.4,-417.5 158.4,-417.5 158.4,-411.5 164.4,-405.5 170.4,-405.5 170.4,-405.5 269.61,-405.5 269.61,-405.5 275.61,-405.5 281.61,-411.5 281.61,-417.5 281.61,-417.5 281.61,-429.5 281.61,-429.5 281.61,-435.5 275.61,-441.5 269.61,-441.5"/>
<text xml:space="preserve" text-anchor="middle" x="220" y="-426" font-family="Arial" font-size="10.00">discover_e5_source_files</text>
<text xml:space="preserve" text-anchor="middle" x="220" y="-414" font-family="Arial" font-size="10.00">stable sorted paths</text>
</g>
<!-- SourceFile&#45;&gt;Discover -->
<g id="edge1" class="edge">
<title>SourceFile&#45;&gt;Discover</title>
<path fill="none" stroke="#455a64" d="M329.92,-501.04C308.14,-485.87 276.44,-463.8 252.67,-447.25"/>
<polygon fill="#455a64" stroke="#455a64" points="254.35,-445.01 246.18,-442.73 251.15,-449.6 254.35,-445.01"/>
</g>
<!-- SourceDir -->
<g id="node2" class="node">
<title>SourceDir</title>
<path fill="#e3f2fd" stroke="#1565c0" d="M252.73,-537.5C252.73,-537.5 187.27,-537.5 187.27,-537.5 181.27,-537.5 175.27,-531.5 175.27,-525.5 175.27,-525.5 175.27,-513.5 175.27,-513.5 175.27,-507.5 181.27,-501.5 187.27,-501.5 187.27,-501.5 252.73,-501.5 252.73,-501.5 258.73,-501.5 264.73,-507.5 264.73,-513.5 264.73,-513.5 264.73,-525.5 264.73,-525.5 264.73,-531.5 258.73,-537.5 252.73,-537.5"/>
<text xml:space="preserve" text-anchor="middle" x="220" y="-522" font-family="Arial" font-size="10.00">source directory</text>
<text xml:space="preserve" text-anchor="middle" x="220" y="-510" font-family="Arial" font-size="10.00">recursive optional</text>
</g>
<!-- SourceDir&#45;&gt;Discover -->
<g id="edge2" class="edge">
<title>SourceDir&#45;&gt;Discover</title>
<path fill="none" stroke="#455a64" d="M220,-501.26C220,-487.3 220,-467.4 220,-451.35"/>
<polygon fill="#455a64" stroke="#455a64" points="222.8,-451.46 220,-443.46 217.2,-451.46 222.8,-451.46"/>
</g>
<!-- Extensions -->
<g id="node3" class="node">
<title>Extensions</title>
<path fill="#e3f2fd" stroke="#1565c0" d="M530.86,-537.5C530.86,-537.5 457.14,-537.5 457.14,-537.5 451.14,-537.5 445.14,-531.5 445.14,-525.5 445.14,-525.5 445.14,-513.5 445.14,-513.5 445.14,-507.5 451.14,-501.5 457.14,-501.5 457.14,-501.5 530.86,-501.5 530.86,-501.5 536.86,-501.5 542.86,-507.5 542.86,-513.5 542.86,-513.5 542.86,-525.5 542.86,-525.5 542.86,-531.5 536.86,-537.5 530.86,-537.5"/>
<text xml:space="preserve" text-anchor="middle" x="494" y="-522" font-family="Arial" font-size="10.00">extension filter</text>
<text xml:space="preserve" text-anchor="middle" x="494" y="-510" font-family="Arial" font-size="10.00">.md,.markdown,.txt</text>
</g>
<!-- Config -->
<g id="node4" class="node">
<title>Config</title>
<g id="a_node4"><a xlink:href="58_e5_source_hygiene.svg" xlink:title="E5SourceDiscoveryConfig\nextensions + recursive + exclusions">
<path fill="#fce4ec" stroke="#ad1457" d="M731.23,-441.5C731.23,-441.5 584.77,-441.5 584.77,-441.5 578.77,-441.5 572.77,-435.5 572.77,-429.5 572.77,-429.5 572.77,-417.5 572.77,-417.5 572.77,-411.5 578.77,-405.5 584.77,-405.5 584.77,-405.5 731.23,-405.5 731.23,-405.5 737.23,-405.5 743.23,-411.5 743.23,-417.5 743.23,-417.5 743.23,-429.5 743.23,-429.5 743.23,-435.5 737.23,-441.5 731.23,-441.5"/>
<text xml:space="preserve" text-anchor="middle" x="658" y="-426" font-family="Arial" font-size="10.00">E5SourceDiscoveryConfig</text>
<text xml:space="preserve" text-anchor="middle" x="658" y="-414" font-family="Arial" font-size="10.00">extensions + recursive + exclusions</text>
</a>
</g>
</g>
<!-- Extensions&#45;&gt;Config -->
<g id="edge3" class="edge">
<title>Extensions&#45;&gt;Config</title>
<path fill="none" stroke="#455a64" stroke-dasharray="1,5" d="M524.46,-501.04C551.39,-485.61 590.78,-463.03 619.81,-446.39"/>
<polygon fill="#455a64" stroke="#455a64" points="620.84,-449.03 626.39,-442.62 618.05,-444.17 620.84,-449.03"/>
</g>
<!-- Config&#45;&gt;Discover -->
<g id="edge6" class="edge">
<title>Config&#45;&gt;Discover</title>
<path fill="none" stroke="#455a64" d="M572.41,-423.5C490.3,-423.5 367.78,-423.5 290.96,-423.5"/>
<polygon fill="#455a64" stroke="#455a64" points="291.34,-420.7 283.34,-423.5 291.34,-426.3 291.34,-420.7"/>
<text xml:space="preserve" text-anchor="middle" x="427.19" y="-428.45" font-family="Arial" font-size="9.00">normalized</text>
</g>
<!-- ExcludedDirs -->
<g id="node5" class="node">
<title>ExcludedDirs</title>
<g id="a_node5"><a xlink:href="58_e5_source_hygiene.svg" xlink:title="excluded dir names\n.git, __pycache__, caches, build, dist">
<path fill="#fce4ec" stroke="#ad1457" d="M854.86,-537.5C854.86,-537.5 703.14,-537.5 703.14,-537.5 697.14,-537.5 691.14,-531.5 691.14,-525.5 691.14,-525.5 691.14,-513.5 691.14,-513.5 691.14,-507.5 697.14,-501.5 703.14,-501.5 703.14,-501.5 854.86,-501.5 854.86,-501.5 860.86,-501.5 866.86,-507.5 866.86,-513.5 866.86,-513.5 866.86,-525.5 866.86,-525.5 866.86,-531.5 860.86,-537.5 854.86,-537.5"/>
<text xml:space="preserve" text-anchor="middle" x="779" y="-522" font-family="Arial" font-size="10.00">excluded dir names</text>
<text xml:space="preserve" text-anchor="middle" x="779" y="-510" font-family="Arial" font-size="10.00">.git, __pycache__, caches, build, dist</text>
</a>
</g>
</g>
<!-- ExcludedDirs&#45;&gt;Config -->
<g id="edge4" class="edge">
<title>ExcludedDirs&#45;&gt;Config</title>
<path fill="none" stroke="#455a64" stroke-dasharray="1,5" d="M756.52,-501.04C737.17,-486 709.08,-464.18 687.84,-447.68"/>
<polygon fill="#455a64" stroke="#455a64" points="689.59,-445.49 681.55,-442.8 686.15,-449.91 689.59,-445.49"/>
</g>
<!-- ExcludedSuffixes -->
<g id="node6" class="node">
<title>ExcludedSuffixes</title>
<g id="a_node6"><a xlink:href="58_e5_source_hygiene.svg" xlink:title="excluded suffixes\n.pyc, .pyo, .svg">
<path fill="#fce4ec" stroke="#ad1457" d="M649.36,-537.5C649.36,-537.5 584.64,-537.5 584.64,-537.5 578.64,-537.5 572.64,-531.5 572.64,-525.5 572.64,-525.5 572.64,-513.5 572.64,-513.5 572.64,-507.5 578.64,-501.5 584.64,-501.5 584.64,-501.5 649.36,-501.5 649.36,-501.5 655.36,-501.5 661.36,-507.5 661.36,-513.5 661.36,-513.5 661.36,-525.5 661.36,-525.5 661.36,-531.5 655.36,-537.5 649.36,-537.5"/>
<text xml:space="preserve" text-anchor="middle" x="617" y="-522" font-family="Arial" font-size="10.00">excluded suffixes</text>
<text xml:space="preserve" text-anchor="middle" x="617" y="-510" font-family="Arial" font-size="10.00">.pyc, .pyo, .svg</text>
</a>
</g>
</g>
<!-- ExcludedSuffixes&#45;&gt;Config -->
<g id="edge5" class="edge">
<title>ExcludedSuffixes&#45;&gt;Config</title>
<path fill="none" stroke="#455a64" stroke-dasharray="1,5" d="M624.52,-501.26C630.72,-487.04 639.62,-466.64 646.68,-450.45"/>
<polygon fill="#455a64" stroke="#455a64" points="649.15,-451.79 649.78,-443.34 644.02,-449.55 649.15,-451.79"/>
</g>
<!-- Supported -->
<g id="node7" class="node">
<title>Supported</title>
<path fill="#fce4ec" stroke="#ad1457" d="M656.65,-668.4C656.65,-668.4 583.89,-643.52 583.89,-643.52 578.22,-641.58 578.22,-637.7 583.89,-635.76 583.89,-635.76 656.65,-610.88 656.65,-610.88 662.32,-608.94 673.68,-608.94 679.35,-610.88 679.35,-610.88 752.11,-635.76 752.11,-635.76 757.78,-637.7 757.78,-641.58 752.11,-643.52 752.11,-643.52 679.35,-668.4 679.35,-668.4 673.68,-670.34 662.32,-670.34 656.65,-668.4"/>
<text xml:space="preserve" text-anchor="middle" x="668" y="-642.14" font-family="Arial" font-size="10.00">source supported</text>
<text xml:space="preserve" text-anchor="middle" x="668" y="-630.14" font-family="Arial" font-size="10.00">and not excluded ?</text>
</g>
<!-- Supported&#45;&gt;ExcludedDirs -->
<g id="edge9" class="edge">
<title>Supported&#45;&gt;ExcludedDirs</title>
<path fill="none" stroke="#ad1457" stroke-dasharray="5,2" d="M690.73,-614.45C709.91,-594.04 737.22,-564.97 756.37,-544.59"/>
<polygon fill="#ad1457" stroke="#ad1457" points="758.3,-546.62 761.74,-538.87 754.22,-542.79 758.3,-546.62"/>
<text xml:space="preserve" text-anchor="middle" x="734.7" y="-575.45" font-family="Arial" font-size="9.00">non</text>
</g>
<!-- SourceDocument -->
<g id="node9" class="node">
<title>SourceDocument</title>
<path fill="#e8f5e9" stroke="#2e7d32" d="M116.35,-441.5C116.35,-441.5 27.65,-441.5 27.65,-441.5 21.65,-441.5 15.65,-435.5 15.65,-429.5 15.65,-429.5 15.65,-417.5 15.65,-417.5 15.65,-411.5 21.65,-405.5 27.65,-405.5 27.65,-405.5 116.35,-405.5 116.35,-405.5 122.35,-405.5 128.35,-411.5 128.35,-417.5 128.35,-417.5 128.35,-429.5 128.35,-429.5 128.35,-435.5 122.35,-441.5 116.35,-441.5"/>
<text xml:space="preserve" text-anchor="middle" x="72" y="-426" font-family="Arial" font-size="10.00">E5SourceDocument</text>
<text xml:space="preserve" text-anchor="middle" x="72" y="-414" font-family="Arial" font-size="10.00">path + text + metadata</text>
</g>
<!-- Supported&#45;&gt;SourceDocument -->
<g id="edge8" class="edge">
<title>Supported&#45;&gt;SourceDocument</title>
<path fill="none" stroke="#2e7d32" d="M588.34,-633.86C466.4,-625.89 239.44,-608.34 162,-584 145.68,-578.87 139.59,-578.31 128.25,-565.5 98.78,-532.2 83.72,-481.54 76.88,-450.87"/>
<polygon fill="#2e7d32" stroke="#2e7d32" points="79.64,-450.4 75.25,-443.15 74.16,-451.55 79.64,-450.4"/>
<text xml:space="preserve" text-anchor="middle" x="134.62" y="-516.2" font-family="Arial" font-size="9.00">oui</text>
</g>
<!-- Discover&#45;&gt;Supported -->
<g id="edge7" class="edge">
<title>Discover&#45;&gt;Supported</title>
<path fill="none" stroke="#455a64" d="M198.4,-441.89C184.51,-454.53 167.67,-472.98 160,-493.5 148.79,-523.47 139.05,-541.31 160,-565.5 211.07,-624.44 429.82,-636.98 563.06,-639.01"/>
<polygon fill="#455a64" stroke="#455a64" points="562.95,-641.81 570.98,-639.11 563.02,-636.21 562.95,-641.81"/>
</g>
<!-- Chunker -->
<g id="node10" class="node">
<title>Chunker</title>
<path fill="#e8f5e9" stroke="#2e7d32" d="M167.73,-358.5C167.73,-358.5 54.27,-358.5 54.27,-358.5 48.27,-358.5 42.27,-352.5 42.27,-346.5 42.27,-346.5 42.27,-334.5 42.27,-334.5 42.27,-328.5 48.27,-322.5 54.27,-322.5 54.27,-322.5 167.73,-322.5 167.73,-322.5 173.73,-322.5 179.73,-328.5 179.73,-334.5 179.73,-334.5 179.73,-346.5 179.73,-346.5 179.73,-352.5 173.73,-358.5 167.73,-358.5"/>
<text xml:space="preserve" text-anchor="middle" x="111" y="-343" font-family="Arial" font-size="10.00">chunk_e5_source_document</text>
<text xml:space="preserve" text-anchor="middle" x="111" y="-331" font-family="Arial" font-size="10.00">paragraph chunks</text>
</g>
<!-- SourceDocument&#45;&gt;Chunker -->
<g id="edge10" class="edge">
<title>SourceDocument&#45;&gt;Chunker</title>
<path fill="none" stroke="#455a64" d="M80.27,-405.32C85.56,-394.34 92.52,-379.88 98.48,-367.5"/>
<polygon fill="#455a64" stroke="#455a64" points="101,-368.72 101.95,-360.3 95.96,-366.29 101,-368.72"/>
</g>
<!-- Chunk -->
<g id="node11" class="node">
<title>Chunk</title>
<path fill="#e8f5e9" stroke="#2e7d32" d="M234.1,-275.5C234.1,-275.5 137.9,-275.5 137.9,-275.5 131.9,-275.5 125.9,-269.5 125.9,-263.5 125.9,-263.5 125.9,-251.5 125.9,-251.5 125.9,-245.5 131.9,-239.5 137.9,-239.5 137.9,-239.5 234.1,-239.5 234.1,-239.5 240.1,-239.5 246.1,-245.5 246.1,-251.5 246.1,-251.5 246.1,-263.5 246.1,-263.5 246.1,-269.5 240.1,-275.5 234.1,-275.5"/>
<text xml:space="preserve" text-anchor="middle" x="186" y="-260" font-family="Arial" font-size="10.00">E5TextChunk</text>
<text xml:space="preserve" text-anchor="middle" x="186" y="-248" font-family="Arial" font-size="10.00">source_path + line range</text>
</g>
<!-- Chunker&#45;&gt;Chunk -->
<g id="edge11" class="edge">
<title>Chunker&#45;&gt;Chunk</title>
<path fill="none" stroke="#455a64" d="M126.91,-322.32C137.57,-310.8 151.77,-295.46 163.58,-282.71"/>
<polygon fill="#455a64" stroke="#455a64" points="165.45,-284.82 168.83,-277.04 161.34,-281.01 165.45,-284.82"/>
</g>
<!-- CorpusDocument -->
<g id="node12" class="node">
<title>CorpusDocument</title>
<path fill="#e8f5e9" stroke="#2e7d32" d="M234.48,-170C234.48,-170 137.52,-170 137.52,-170 131.52,-170 125.52,-164 125.52,-158 125.52,-158 125.52,-146 125.52,-146 125.52,-140 131.52,-134 137.52,-134 137.52,-134 234.48,-134 234.48,-134 240.48,-134 246.48,-140 246.48,-146 246.48,-146 246.48,-158 246.48,-158 246.48,-164 240.48,-170 234.48,-170"/>
<text xml:space="preserve" text-anchor="middle" x="186" y="-154.5" font-family="Arial" font-size="10.00">E5CorpusDocument</text>
<text xml:space="preserve" text-anchor="middle" x="186" y="-142.5" font-family="Arial" font-size="10.00">passage role + metadata</text>
</g>
<!-- Chunk&#45;&gt;CorpusDocument -->
<g id="edge14" class="edge">
<title>Chunk&#45;&gt;CorpusDocument</title>
<path fill="none" stroke="#455a64" d="M186,-239.41C186,-223.25 186,-198.75 186,-179.96"/>
<polygon fill="#455a64" stroke="#455a64" points="188.8,-179.98 186,-171.98 183.2,-179.98 188.8,-179.98"/>
<text xml:space="preserve" text-anchor="middle" x="205.12" y="-207.95" font-family="Arial" font-size="9.00">metadata</text>
</g>
<!-- E5Text -->
<g id="node13" class="node">
<title>E5Text</title>
<g id="a_node13"><a xlink:href="49_e5_query_passage.svg" xlink:title="E5Text\npassage role">
<path fill="#efebe9" stroke="#6d4c41" d="M362.23,-170C362.23,-170 317.77,-170 317.77,-170 311.77,-170 305.77,-164 305.77,-158 305.77,-158 305.77,-146 305.77,-146 305.77,-140 311.77,-134 317.77,-134 317.77,-134 362.23,-134 362.23,-134 368.23,-134 374.23,-140 374.23,-146 374.23,-146 374.23,-158 374.23,-158 374.23,-164 368.23,-170 362.23,-170"/>
<text xml:space="preserve" text-anchor="middle" x="340" y="-154.5" font-family="Arial" font-size="10.00">E5Text</text>
<text xml:space="preserve" text-anchor="middle" x="340" y="-142.5" font-family="Arial" font-size="10.00">passage role</text>
</a>
</g>
</g>
<!-- Chunk&#45;&gt;E5Text -->
<g id="edge12" class="edge">
<title>Chunk&#45;&gt;E5Text</title>
<path fill="none" stroke="#455a64" d="M226.38,-239.11C248.29,-228.74 275.27,-214.4 297,-198 305.02,-191.95 312.89,-184.35 319.66,-177.14"/>
<polygon fill="#455a64" stroke="#455a64" points="321.71,-179.04 325.01,-171.24 317.56,-175.28 321.71,-179.04"/>
<text xml:space="preserve" text-anchor="middle" x="301.83" y="-207.95" font-family="Arial" font-size="9.00">passage:</text>
</g>
<!-- Corpus -->
<g id="node14" class="node">
<title>Corpus</title>
<g id="a_node14"><a xlink:href="50_e5_corpus.svg" xlink:title="E5CorpusBuilder\nembed passages once">
<path fill="#efebe9" stroke="#6d4c41" d="M503.61,-170C503.61,-170 416.39,-170 416.39,-170 410.39,-170 404.39,-164 404.39,-158 404.39,-158 404.39,-146 404.39,-146 404.39,-140 410.39,-134 416.39,-134 416.39,-134 503.61,-134 503.61,-134 509.61,-134 515.61,-140 515.61,-146 515.61,-146 515.61,-158 515.61,-158 515.61,-164 509.61,-170 503.61,-170"/>
<text xml:space="preserve" text-anchor="middle" x="460" y="-154.5" font-family="Arial" font-size="10.00">E5CorpusBuilder</text>
<text xml:space="preserve" text-anchor="middle" x="460" y="-142.5" font-family="Arial" font-size="10.00">embed passages once</text>
</a>
</g>
</g>
<!-- CorpusDocument&#45;&gt;Corpus -->
<g id="edge15" class="edge">
<title>CorpusDocument&#45;&gt;Corpus</title>
<path fill="none" stroke="#455a64" d="M208.8,-170.41C244.12,-196.59 314.2,-239.23 374,-218.75 398.41,-210.39 421.24,-191.97 437.23,-176.59"/>
<polygon fill="#455a64" stroke="#455a64" points="438.87,-178.91 442.58,-171.29 434.93,-174.93 438.87,-178.91"/>
</g>
<!-- E5Text&#45;&gt;CorpusDocument -->
<g id="edge13" class="edge">
<title>E5Text&#45;&gt;CorpusDocument</title>
<path fill="none" stroke="#455a64" d="M305.4,-152C288.91,-152 272.41,-152 255.92,-152"/>
<polygon fill="#455a64" stroke="#455a64" points="256.27,-149.2 248.27,-152 256.27,-154.8 256.27,-149.2"/>
</g>
<!-- Store -->
<g id="node15" class="node">
<title>Store</title>
<g id="a_node15"><a xlink:href="50_e5_corpus.svg" xlink:title="E5CorpusJsonStore\ncorpus.json">
<path fill="#efebe9" stroke="#6d4c41" d="M498.36,-52C498.36,-52 421.64,-52 421.64,-52 415.64,-52 409.64,-46 409.64,-40 409.64,-40 409.64,-28 409.64,-28 409.64,-22 415.64,-16 421.64,-16 421.64,-16 498.36,-16 498.36,-16 504.36,-16 510.36,-22 510.36,-28 510.36,-28 510.36,-40 510.36,-40 510.36,-46 504.36,-52 498.36,-52"/>
<text xml:space="preserve" text-anchor="middle" x="460" y="-36.5" font-family="Arial" font-size="10.00">E5CorpusJsonStore</text>
<text xml:space="preserve" text-anchor="middle" x="460" y="-24.5" font-family="Arial" font-size="10.00">corpus.json</text>
</a>
</g>
</g>
<!-- Corpus&#45;&gt;Store -->
<g id="edge16" class="edge">
<title>Corpus&#45;&gt;Store</title>
<path fill="none" stroke="#455a64" d="M460,-133.63C460,-114.67 460,-84.06 460,-61.96"/>
<polygon fill="#455a64" stroke="#455a64" points="462.8,-62 460,-54 457.2,-62 462.8,-62"/>
</g>
<!-- Nav_Inference -->
<g id="node16" class="node">
<title>Nav_Inference</title>
<g id="a_node16"><a xlink:href="40_inference.svg" xlink:title="Inference">
<path fill="lightgrey" stroke="none" d="M574,-111C574,-111 544,-111 544,-111 538,-111 532,-105 532,-99 532,-99 532,-87 532,-87 532,-81 538,-75 544,-75 544,-75 574,-75 574,-75 580,-75 586,-81 586,-87 586,-87 586,-99 586,-99 586,-105 580,-111 574,-111"/>
<text xml:space="preserve" text-anchor="middle" x="559" y="-89.5" font-family="Arial" font-size="10.00">Inference</text>
</a>
</g>
</g>
<!-- Nav_E5Corpus -->
<g id="node17" class="node">
<title>Nav_E5Corpus</title>
<g id="a_node17"><a xlink:href="50_e5_corpus.svg" xlink:title="E5 corpus">
<path fill="lightgrey" stroke="none" d="M636.61,-111C636.61,-111 603.39,-111 603.39,-111 597.39,-111 591.39,-105 591.39,-99 591.39,-99 591.39,-87 591.39,-87 591.39,-81 597.39,-75 603.39,-75 603.39,-75 636.61,-75 636.61,-75 642.61,-75 648.61,-81 648.61,-87 648.61,-87 648.61,-99 648.61,-99 648.61,-105 642.61,-111 636.61,-111"/>
<text xml:space="preserve" text-anchor="middle" x="620" y="-89.5" font-family="Arial" font-size="10.00">E5 corpus</text>
</a>
</g>
</g>
<!-- Nav_QueryPassage -->
<g id="node18" class="node">
<title>Nav_QueryPassage</title>
<g id="a_node18"><a xlink:href="49_e5_query_passage.svg" xlink:title="E5 query/passage">
<path fill="lightgrey" stroke="none" d="M732.86,-111C732.86,-111 665.14,-111 665.14,-111 659.14,-111 653.14,-105 653.14,-99 653.14,-99 653.14,-87 653.14,-87 653.14,-81 659.14,-75 665.14,-75 665.14,-75 732.86,-75 732.86,-75 738.86,-75 744.86,-81 744.86,-87 744.86,-87 744.86,-99 744.86,-99 744.86,-105 738.86,-111 732.86,-111"/>
<text xml:space="preserve" text-anchor="middle" x="699" y="-89.5" font-family="Arial" font-size="10.00">E5 query/passage</text>
</a>
</g>
</g>
<!-- Nav_SourceHygiene -->
<g id="node19" class="node">
<title>Nav_SourceHygiene</title>
<g id="a_node19"><a xlink:href="58_e5_source_hygiene.svg" xlink:title="Source hygiene">
<path fill="lightgrey" stroke="none" d="M818.23,-111C818.23,-111 761.77,-111 761.77,-111 755.77,-111 749.77,-105 749.77,-99 749.77,-99 749.77,-87 749.77,-87 749.77,-81 755.77,-75 761.77,-75 761.77,-75 818.23,-75 818.23,-75 824.23,-75 830.23,-81 830.23,-87 830.23,-87 830.23,-99 830.23,-99 830.23,-105 824.23,-111 818.23,-111"/>
<text xml:space="preserve" text-anchor="middle" x="790" y="-89.5" font-family="Arial" font-size="10.00">Source hygiene</text>
</a>
</g>
</g>
<!-- Nav_SafeRebuild -->
<g id="node20" class="node">
<title>Nav_SafeRebuild</title>
<g id="a_node20"><a xlink:href="56_e5_safe_rebuild.svg" xlink:title="E5 safe rebuild">
<path fill="lightgrey" stroke="none" d="M901.11,-111C901.11,-111 846.89,-111 846.89,-111 840.89,-111 834.89,-105 834.89,-99 834.89,-99 834.89,-87 834.89,-87 834.89,-81 840.89,-75 846.89,-75 846.89,-75 901.11,-75 901.11,-75 907.11,-75 913.11,-81 913.11,-87 913.11,-87 913.11,-99 913.11,-99 913.11,-105 907.11,-111 901.11,-111"/>
<text xml:space="preserve" text-anchor="middle" x="874" y="-89.5" font-family="Arial" font-size="10.00">E5 safe rebuild</text>
</a>
</g>
</g>
</g>
</svg>
