<?xml version="1.0" encoding="UTF-8" standalone="no"?>
<!DOCTYPE svg PUBLIC "-//W3C//DTD SVG 1.1//EN"
 "http://www.w3.org/Graphics/SVG/1.1/DTD/svg11.dtd">
<!-- Generated by graphviz version 14.1.3 (20260303.0454)
 -->
<!-- Title: E5SearchReport Pages: 1 -->
<svg width="801pt" height="832pt"
 viewBox="0.00 0.00 801.00 832.00" xmlns="http://www.w3.org/2000/svg" xmlns:xlink="http://www.w3.org/1999/xlink">
<g id="graph0" class="graph" transform="scale(1 1) rotate(0) translate(18 814.42)">
<title>E5SearchReport</title>
<polygon fill="white" stroke="none" points="-18,18 -18,-814.42 783.48,-814.42 783.48,18 -18,18"/>
<text xml:space="preserve" text-anchor="middle" x="382.74" y="-782.92" font-family="Arial" font-size="10.00">E5 search report — rendu local avec garde&#45;fou de score</text>
<g id="clust1" class="cluster">
<title>cluster_input</title>
<polygon fill="#e3f2fd" stroke="#1565c0" stroke-width="1.4" points="129,-593.92 129,-768.42 265,-768.42 265,-593.92 129,-593.92"/>
<text xml:space="preserve" text-anchor="middle" x="197" y="-754.92" font-family="Arial" font-size="10.00">Entrée recherche</text>
</g>
<g id="clust2" class="cluster">
<title>cluster_guard</title>
<polygon fill="#fce4ec" stroke="#ad1457" stroke-width="1.6" points="296,-375.64 296,-665.92 512,-665.92 512,-375.64 296,-375.64"/>
<text xml:space="preserve" text-anchor="middle" x="404" y="-652.42" font-family="Arial" font-size="10.00">Garde&#45;fou Phase 4.3</text>
</g>
<g id="clust3" class="cluster">
<title>cluster_report</title>
<polygon fill="#e8f5e9" stroke="#2e7d32" stroke-width="1.4" points="8,-221.64 8,-447.64 288,-447.64 288,-221.64 8,-221.64"/>
<text xml:space="preserve" text-anchor="middle" x="148" y="-434.14" font-family="Arial" font-size="10.00">Rapport Phase 3.14</text>
</g>
<g id="clust4" class="cluster">
<title>cluster_cli</title>
<polygon fill="#efebe9" stroke="#6d4c41" stroke-width="1.4" points="45,-8 45,-200.64 263,-200.64 263,-8 45,-8"/>
<text xml:space="preserve" text-anchor="middle" x="154" y="-187.14" font-family="Arial" font-size="10.00">CLI</text>
</g>
<g id="clust5" class="cluster">
<title>cluster_legend</title>
<polygon fill="#fafafa" stroke="#78909c" points="329,-8 329,-196.32 489,-196.32 489,-8 329,-8"/>
<text xml:space="preserve" text-anchor="middle" x="409" y="-182.82" font-family="Arial" font-size="10.00">Légende</text>
</g>
<!-- Results -->
<g id="node1" class="node">
<title>Results</title>
<g id="a_node1"><a xlink:href="50_e5_corpus.svg" xlink:title="E5CorpusSearchResults\nhits ranked">
<path fill="#e3f2fd" stroke="#1565c0" d="M245.48,-740.42C245.48,-740.42 148.52,-740.42 148.52,-740.42 142.52,-740.42 136.52,-734.42 136.52,-728.42 136.52,-728.42 136.52,-716.42 136.52,-716.42 136.52,-710.42 142.52,-704.42 148.52,-704.42 148.52,-704.42 245.48,-704.42 245.48,-704.42 251.48,-704.42 257.48,-710.42 257.48,-716.42 257.48,-716.42 257.48,-728.42 257.48,-728.42 257.48,-734.42 251.48,-740.42 245.48,-740.42"/>
<text xml:space="preserve" text-anchor="middle" x="197" y="-724.92" font-family="Arial" font-size="10.00">E5CorpusSearchResults</text>
<text xml:space="preserve" text-anchor="middle" x="197" y="-712.92" font-family="Arial" font-size="10.00">hits ranked</text>
</a>
</g>
</g>
<!-- Hit -->
<g id="node2" class="node">
<title>Hit</title>
<g id="a_node2"><a xlink:href="50_e5_corpus.svg" xlink:title="E5CorpusSearchHit\nscore + metadata">
<path fill="#e3f2fd" stroke="#1565c0" d="M234.98,-637.92C234.98,-637.92 159.02,-637.92 159.02,-637.92 153.02,-637.92 147.02,-631.92 147.02,-625.92 147.02,-625.92 147.02,-613.92 147.02,-613.92 147.02,-607.92 153.02,-601.92 159.02,-601.92 159.02,-601.92 234.98,-601.92 234.98,-601.92 240.98,-601.92 246.98,-607.92 246.98,-613.92 246.98,-613.92 246.98,-625.92 246.98,-625.92 246.98,-631.92 240.98,-637.92 234.98,-637.92"/>
<text xml:space="preserve" text-anchor="middle" x="197" y="-622.42" font-family="Arial" font-size="10.00">E5CorpusSearchHit</text>
<text xml:space="preserve" text-anchor="middle" x="197" y="-610.42" font-family="Arial" font-size="10.00">score + metadata</text>
</a>
</g>
</g>
<!-- Results&#45;&gt;Hit -->
<g id="edge1" class="edge">
<title>Results&#45;&gt;Hit</title>
<path fill="none" stroke="#546e7a" d="M197,-704.37C197,-688.87 197,-665.75 197,-647.77"/>
<polygon fill="#546e7a" stroke="#546e7a" points="199.8,-647.9 197,-639.9 194.2,-647.9 199.8,-647.9"/>
<text xml:space="preserve" text-anchor="middle" x="219.5" y="-675.87" font-family="Arial" font-size="9.00">ranked hits</text>
</g>
<!-- GuardDecision -->
<g id="node4" class="node">
<title>GuardDecision</title>
<g id="a_node4"><a xlink:href="57_e5_score_guard.svg" xlink:title="hit conservé ?\nscore &gt;= min_score">
<path fill="#fce4ec" stroke="#ad1457" d="M392.59,-547.7C392.59,-547.7 315.45,-522.5 315.45,-522.5 309.74,-520.64 309.74,-516.92 315.45,-515.06 315.45,-515.06 392.59,-489.86 392.59,-489.86 398.3,-488 409.7,-488 415.41,-489.86 415.41,-489.86 492.55,-515.06 492.55,-515.06 498.26,-516.92 498.26,-520.64 492.55,-522.5 492.55,-522.5 415.41,-547.7 415.41,-547.7 409.7,-549.56 398.3,-549.56 392.59,-547.7"/>
<text xml:space="preserve" text-anchor="middle" x="404" y="-521.28" font-family="Arial" font-size="10.00">hit conservé ?</text>
<text xml:space="preserve" text-anchor="middle" x="404" y="-509.28" font-family="Arial" font-size="10.00">score &gt;= min_score</text>
</a>
</g>
</g>
<!-- Hit&#45;&gt;GuardDecision -->
<g id="edge2" class="edge">
<title>Hit&#45;&gt;GuardDecision</title>
<path fill="none" stroke="#546e7a" d="M233.53,-601.42C267.63,-585.09 318.72,-560.62 356.08,-542.73"/>
<polygon fill="#546e7a" stroke="#546e7a" points="356.94,-545.43 362.94,-539.44 354.52,-540.37 356.94,-545.43"/>
<text xml:space="preserve" text-anchor="middle" x="305.54" y="-573.37" font-family="Arial" font-size="9.00">score</text>
</g>
<!-- Excerpt -->
<g id="node8" class="node">
<title>Excerpt</title>
<path fill="#e8f5e9" stroke="#2e7d32" d="M115.6,-419.64C115.6,-419.64 28.4,-419.64 28.4,-419.64 22.4,-419.64 16.4,-413.64 16.4,-407.64 16.4,-407.64 16.4,-395.64 16.4,-395.64 16.4,-389.64 22.4,-383.64 28.4,-383.64 28.4,-383.64 115.6,-383.64 115.6,-383.64 121.6,-383.64 127.6,-389.64 127.6,-395.64 127.6,-395.64 127.6,-407.64 127.6,-407.64 127.6,-413.64 121.6,-419.64 115.6,-419.64"/>
<text xml:space="preserve" text-anchor="middle" x="72" y="-404.14" font-family="Arial" font-size="10.00">make_excerpt</text>
<text xml:space="preserve" text-anchor="middle" x="72" y="-392.14" font-family="Arial" font-size="10.00">stable one&#45;line excerpt</text>
</g>
<!-- Hit&#45;&gt;Excerpt -->
<g id="edge7" class="edge">
<title>Hit&#45;&gt;Excerpt</title>
<path fill="none" stroke="#546e7a" d="M186.98,-601.59C164.99,-563.54 112.42,-472.58 86.69,-428.06"/>
<polygon fill="#546e7a" stroke="#546e7a" points="89.25,-426.89 82.82,-421.37 84.4,-429.69 89.25,-426.89"/>
<text xml:space="preserve" text-anchor="middle" x="164.09" y="-515.48" font-family="Arial" font-size="9.00">text</text>
</g>
<!-- MinScore -->
<g id="node3" class="node">
<title>MinScore</title>
<g id="a_node3"><a xlink:href="57_e5_score_guard.svg" xlink:title="&#45;&#45;min&#45;score FLOAT\nscore &gt;= threshold">
<path fill="#fce4ec" stroke="#ad1457" d="M439.73,-637.92C439.73,-637.92 368.27,-637.92 368.27,-637.92 362.27,-637.92 356.27,-631.92 356.27,-625.92 356.27,-625.92 356.27,-613.92 356.27,-613.92 356.27,-607.92 362.27,-601.92 368.27,-601.92 368.27,-601.92 439.73,-601.92 439.73,-601.92 445.73,-601.92 451.73,-607.92 451.73,-613.92 451.73,-613.92 451.73,-625.92 451.73,-625.92 451.73,-631.92 445.73,-637.92 439.73,-637.92"/>
<text xml:space="preserve" text-anchor="middle" x="404" y="-622.42" font-family="Arial" font-size="10.00">&#45;&#45;min&#45;score FLOAT</text>
<text xml:space="preserve" text-anchor="middle" x="404" y="-610.42" font-family="Arial" font-size="10.00">score &gt;= threshold</text>
</a>
</g>
</g>
<!-- MinScore&#45;&gt;GuardDecision -->
<g id="edge3" class="edge">
<title>MinScore&#45;&gt;GuardDecision</title>
<path fill="none" stroke="#546e7a" d="M404,-601.65C404,-590.37 404,-575.12 404,-560.85"/>
<polygon fill="#546e7a" stroke="#546e7a" points="406.8,-561.17 404,-553.17 401.2,-561.17 406.8,-561.17"/>
<text xml:space="preserve" text-anchor="middle" x="443.38" y="-573.37" font-family="Arial" font-size="9.00">threshold optionnel</text>
</g>
<!-- Empty -->
<g id="node5" class="node">
<title>Empty</title>
<g id="a_node5"><a xlink:href="57_e5_score_guard.svg" xlink:title="hit_count: 0\naucun résultat utile">
<path fill="#fce4ec" stroke="#ad1457" stroke-dasharray="5,2" d="M439.73,-419.64C439.73,-419.64 368.27,-419.64 368.27,-419.64 362.27,-419.64 356.27,-413.64 356.27,-407.64 356.27,-407.64 356.27,-395.64 356.27,-395.64 356.27,-389.64 362.27,-383.64 368.27,-383.64 368.27,-383.64 439.73,-383.64 439.73,-383.64 445.73,-383.64 451.73,-389.64 451.73,-395.64 451.73,-395.64 451.73,-407.64 451.73,-407.64 451.73,-413.64 445.73,-419.64 439.73,-419.64"/>
<text xml:space="preserve" text-anchor="middle" x="404" y="-404.14" font-family="Arial" font-size="10.00">hit_count: 0</text>
<text xml:space="preserve" text-anchor="middle" x="404" y="-392.14" font-family="Arial" font-size="10.00">aucun résultat utile</text>
</a>
</g>
</g>
<!-- GuardDecision&#45;&gt;Empty -->
<g id="edge5" class="edge">
<title>GuardDecision&#45;&gt;Empty</title>
<path fill="none" stroke="#ad1457" stroke-dasharray="5,2" d="M404,-485.71C404,-467.91 404,-446.03 404,-429.2"/>
<polygon fill="#ad1457" stroke="#ad1457" points="406.8,-429.45 404,-421.45 401.2,-429.45 406.8,-429.45"/>
<text xml:space="preserve" text-anchor="middle" x="411.88" y="-457.59" font-family="Arial" font-size="9.00">non</text>
</g>
<!-- SourceContext -->
<g id="node7" class="node">
<title>SourceContext</title>
<path fill="#e8f5e9" stroke="#2e7d32" d="M268.48,-419.64C268.48,-419.64 171.52,-419.64 171.52,-419.64 165.52,-419.64 159.52,-413.64 159.52,-407.64 159.52,-407.64 159.52,-395.64 159.52,-395.64 159.52,-389.64 165.52,-383.64 171.52,-383.64 171.52,-383.64 268.48,-383.64 268.48,-383.64 274.48,-383.64 280.48,-389.64 280.48,-395.64 280.48,-395.64 280.48,-407.64 280.48,-407.64 280.48,-413.64 274.48,-419.64 268.48,-419.64"/>
<text xml:space="preserve" text-anchor="middle" x="220" y="-404.14" font-family="Arial" font-size="10.00">E5SearchSourceContext</text>
<text xml:space="preserve" text-anchor="middle" x="220" y="-392.14" font-family="Arial" font-size="10.00">source_path + lines</text>
</g>
<!-- GuardDecision&#45;&gt;SourceContext -->
<g id="edge4" class="edge">
<title>GuardDecision&#45;&gt;SourceContext</title>
<path fill="none" stroke="#546e7a" d="M369,-497.12C345.87,-483.34 314.95,-464.69 288,-447.64 276.64,-440.45 264.35,-432.41 253.39,-425.13"/>
<polygon fill="#546e7a" stroke="#546e7a" points="255.14,-422.93 246.93,-420.82 252.04,-427.59 255.14,-422.93"/>
<text xml:space="preserve" text-anchor="middle" x="322.78" y="-457.59" font-family="Arial" font-size="9.00">oui</text>
</g>
<!-- Config -->
<g id="node6" class="node">
<title>Config</title>
<path fill="#e8f5e9" stroke="#2e7d32" d="M117.73,-342.64C117.73,-342.64 28.27,-342.64 28.27,-342.64 22.27,-342.64 16.27,-336.64 16.27,-330.64 16.27,-330.64 16.27,-318.64 16.27,-318.64 16.27,-312.64 22.27,-306.64 28.27,-306.64 28.27,-306.64 117.73,-306.64 117.73,-306.64 123.73,-306.64 129.73,-312.64 129.73,-318.64 129.73,-318.64 129.73,-330.64 129.73,-330.64 129.73,-336.64 123.73,-342.64 117.73,-342.64"/>
<text xml:space="preserve" text-anchor="middle" x="73" y="-327.14" font-family="Arial" font-size="10.00">E5SearchReportConfig</text>
<text xml:space="preserve" text-anchor="middle" x="73" y="-315.14" font-family="Arial" font-size="10.00">excerpt/full text</text>
</g>
<!-- Report -->
<g id="node10" class="node">
<title>Report</title>
<path fill="#e8f5e9" stroke="#2e7d32" d="M146.48,-265.64C146.48,-265.64 85.52,-265.64 85.52,-265.64 79.52,-265.64 73.52,-259.64 73.52,-253.64 73.52,-253.64 73.52,-241.64 73.52,-241.64 73.52,-235.64 79.52,-229.64 85.52,-229.64 85.52,-229.64 146.48,-229.64 146.48,-229.64 152.48,-229.64 158.48,-235.64 158.48,-241.64 158.48,-241.64 158.48,-253.64 158.48,-253.64 158.48,-259.64 152.48,-265.64 146.48,-265.64"/>
<text xml:space="preserve" text-anchor="middle" x="116" y="-250.14" font-family="Arial" font-size="10.00">E5SearchReport</text>
<text xml:space="preserve" text-anchor="middle" x="116" y="-238.14" font-family="Arial" font-size="10.00">text/json output</text>
</g>
<!-- Config&#45;&gt;Report -->
<g id="edge6" class="edge">
<title>Config&#45;&gt;Report</title>
<path fill="none" stroke="#546e7a" d="M82.97,-306.24C88.45,-296.68 95.36,-284.65 101.43,-274.05"/>
<polygon fill="#546e7a" stroke="#546e7a" points="103.78,-275.59 105.33,-267.25 98.92,-272.8 103.78,-275.59"/>
</g>
<!-- ReportHit -->
<g id="node9" class="node">
<title>ReportHit</title>
<path fill="#e8f5e9" stroke="#2e7d32" d="M266.61,-342.64C266.61,-342.64 173.4,-342.64 173.4,-342.64 167.4,-342.64 161.4,-336.64 161.4,-330.64 161.4,-330.64 161.4,-318.64 161.4,-318.64 161.4,-312.64 167.4,-306.64 173.4,-306.64 173.4,-306.64 266.61,-306.64 266.61,-306.64 272.61,-306.64 278.61,-312.64 278.61,-318.64 278.61,-318.64 278.61,-330.64 278.61,-330.64 278.61,-336.64 272.61,-342.64 266.61,-342.64"/>
<text xml:space="preserve" text-anchor="middle" x="220" y="-327.14" font-family="Arial" font-size="10.00">E5SearchReportHit</text>
<text xml:space="preserve" text-anchor="middle" x="220" y="-315.14" font-family="Arial" font-size="10.00">rank + source + excerpt</text>
</g>
<!-- SourceContext&#45;&gt;ReportHit -->
<g id="edge8" class="edge">
<title>SourceContext&#45;&gt;ReportHit</title>
<path fill="none" stroke="#546e7a" d="M220,-383.24C220,-374.06 220,-362.6 220,-352.32"/>
<polygon fill="#546e7a" stroke="#546e7a" points="222.8,-352.45 220,-344.45 217.2,-352.45 222.8,-352.45"/>
</g>
<!-- Excerpt&#45;&gt;ReportHit -->
<g id="edge9" class="edge">
<title>Excerpt&#45;&gt;ReportHit</title>
<path fill="none" stroke="#546e7a" d="M106.33,-383.24C127.45,-372.54 154.7,-358.73 177.23,-347.32"/>
<polygon fill="#546e7a" stroke="#546e7a" points="178.38,-349.87 184.25,-343.75 175.85,-344.87 178.38,-349.87"/>
</g>
<!-- ReportHit&#45;&gt;Report -->
<g id="edge10" class="edge">
<title>ReportHit&#45;&gt;Report</title>
<path fill="none" stroke="#546e7a" d="M195.88,-306.24C181.44,-295.83 162.93,-282.48 147.36,-271.26"/>
<polygon fill="#546e7a" stroke="#546e7a" points="149.34,-269.23 141.22,-266.83 146.07,-273.78 149.34,-269.23"/>
</g>
<!-- SearchCli -->
<g id="node11" class="node">
<title>SearchCli</title>
<g id="a_node11"><a xlink:href="57_e5_score_guard.svg" xlink:title="search_e5_corpus.py\n&#45;&#45;excerpt&#45;chars / &#45;&#45;full&#45;text\n&#45;&#45;min&#45;score">
<path fill="#efebe9" stroke="#6d4c41" d="M166.73,-172.64C166.73,-172.64 65.27,-172.64 65.27,-172.64 59.27,-172.64 53.27,-166.64 53.27,-160.64 53.27,-160.64 53.27,-140 53.27,-140 53.27,-134 59.27,-128 65.27,-128 65.27,-128 166.73,-128 166.73,-128 172.73,-128 178.73,-134 178.73,-140 178.73,-140 178.73,-160.64 178.73,-160.64 178.73,-166.64 172.73,-172.64 166.73,-172.64"/>
<text xml:space="preserve" text-anchor="middle" x="116" y="-158.82" font-family="Arial" font-size="10.00">search_e5_corpus.py</text>
<text xml:space="preserve" text-anchor="middle" x="116" y="-146.82" font-family="Arial" font-size="10.00">&#45;&#45;excerpt&#45;chars / &#45;&#45;full&#45;text</text>
<text xml:space="preserve" text-anchor="middle" x="116" y="-134.82" font-family="Arial" font-size="10.00">&#45;&#45;min&#45;score</text>
</a>
</g>
</g>
<!-- Report&#45;&gt;SearchCli -->
<g id="edge11" class="edge">
<title>Report&#45;&gt;SearchCli</title>
<path fill="none" stroke="#546e7a" d="M116,-229.16C116,-216.07 116,-197.83 116,-182.3"/>
<polygon fill="#546e7a" stroke="#546e7a" points="118.8,-182.56 116,-174.56 113.2,-182.56 118.8,-182.56"/>
</g>
<!-- TextOut -->
<g id="node12" class="node">
<title>TextOut</title>
<path fill="#efebe9" stroke="#6d4c41" d="M122.98,-52C122.98,-52 65.02,-52 65.02,-52 59.02,-52 53.02,-46 53.02,-40 53.02,-40 53.02,-28 53.02,-28 53.02,-22 59.02,-16 65.02,-16 65.02,-16 122.98,-16 122.98,-16 128.98,-16 134.98,-22 134.98,-28 134.98,-28 134.98,-40 134.98,-40 134.98,-46 128.98,-52 122.98,-52"/>
<text xml:space="preserve" text-anchor="middle" x="94" y="-36.5" font-family="Arial" font-size="10.00">text output</text>
<text xml:space="preserve" text-anchor="middle" x="94" y="-24.5" font-family="Arial" font-size="10.00">human readable</text>
</g>
<!-- SearchCli&#45;&gt;TextOut -->
<g id="edge12" class="edge">
<title>SearchCli&#45;&gt;TextOut</title>
<path fill="none" stroke="#546e7a" d="M111.81,-127.55C108.19,-108.73 102.94,-81.48 99.08,-61.42"/>
<polygon fill="#546e7a" stroke="#546e7a" points="101.86,-61.03 97.6,-53.7 96.36,-62.09 101.86,-61.03"/>
</g>
<!-- JsonOut -->
<g id="node13" class="node">
<title>JsonOut</title>
<path fill="#efebe9" stroke="#6d4c41" d="M242.98,-52C242.98,-52 179.02,-52 179.02,-52 173.02,-52 167.02,-46 167.02,-40 167.02,-40 167.02,-28 167.02,-28 167.02,-22 173.02,-16 179.02,-16 179.02,-16 242.98,-16 242.98,-16 248.98,-16 254.98,-22 254.98,-28 254.98,-28 254.98,-40 254.98,-40 254.98,-46 248.98,-52 242.98,-52"/>
<text xml:space="preserve" text-anchor="middle" x="211" y="-36.5" font-family="Arial" font-size="10.00">json output</text>
<text xml:space="preserve" text-anchor="middle" x="211" y="-24.5" font-family="Arial" font-size="10.00">program readable</text>
</g>
<!-- SearchCli&#45;&gt;JsonOut -->
<g id="edge13" class="edge">
<title>SearchCli&#45;&gt;JsonOut</title>
<path fill="none" stroke="#546e7a" d="M134.09,-127.55C150.23,-108.13 173.83,-79.73 190.62,-59.52"/>
<polygon fill="#546e7a" stroke="#546e7a" points="192.77,-61.32 195.73,-53.38 188.46,-57.74 192.77,-61.32"/>
</g>
<!-- LegendDefault -->
<g id="node14" class="node">
<title>LegendDefault</title>
<polygon fill="#fafafa" stroke="#78909c" points="474.73,-168.32 337.27,-168.32 337.27,-132.32 480.73,-132.32 480.73,-162.32 474.73,-168.32"/>
<polyline fill="none" stroke="#78909c" points="474.73,-168.32 474.73,-162.32"/>
<polyline fill="none" stroke="#78909c" points="480.73,-162.32 474.73,-162.32"/>
<text xml:space="preserve" text-anchor="middle" x="409" y="-152.82" font-family="Arial" font-size="10.00">sans &#45;&#45;min&#45;score :</text>
<text xml:space="preserve" text-anchor="middle" x="409" y="-140.82" font-family="Arial" font-size="10.00">tri score décroissant puis limit</text>
</g>
<!-- LegendGuard -->
<g id="node15" class="node">
<title>LegendGuard</title>
<polygon fill="#fafafa" stroke="#78909c" points="464.98,-52 347.02,-52 347.02,-16 470.98,-16 470.98,-46 464.98,-52"/>
<polyline fill="none" stroke="#78909c" points="464.98,-52 464.98,-46"/>
<polyline fill="none" stroke="#78909c" points="470.98,-46 464.98,-46"/>
<text xml:space="preserve" text-anchor="middle" x="409" y="-36.5" font-family="Arial" font-size="10.00">avec &#45;&#45;min&#45;score :</text>
<text xml:space="preserve" text-anchor="middle" x="409" y="-24.5" font-family="Arial" font-size="10.00">filtrage inclusif avant limit</text>
</g>
<!-- LegendDefault&#45;&gt;LegendGuard -->
<!-- Nav_Inference -->
<g id="node16" class="node">
<title>Nav_Inference</title>
<g id="a_node16"><a xlink:href="40_inference.svg" xlink:title="Inference">
<path fill="lightgrey" stroke="none" d="M539,-108C539,-108 509,-108 509,-108 503,-108 497,-102 497,-96 497,-96 497,-84 497,-84 497,-78 503,-72 509,-72 509,-72 539,-72 539,-72 545,-72 551,-78 551,-84 551,-84 551,-96 551,-96 551,-102 545,-108 539,-108"/>
<text xml:space="preserve" text-anchor="middle" x="524" y="-86.5" font-family="Arial" font-size="10.00">Inference</text>
</a>
</g>
</g>
<!-- Nav_E5Corpus -->
<g id="node17" class="node">
<title>Nav_E5Corpus</title>
<g id="a_node17"><a xlink:href="50_e5_corpus.svg" xlink:title="E5 corpus">
<path fill="lightgrey" stroke="none" d="M601.61,-108C601.61,-108 568.39,-108 568.39,-108 562.39,-108 556.39,-102 556.39,-96 556.39,-96 556.39,-84 556.39,-84 556.39,-78 562.39,-72 568.39,-72 568.39,-72 601.61,-72 601.61,-72 607.61,-72 613.61,-78 613.61,-84 613.61,-84 613.61,-96 613.61,-96 613.61,-102 607.61,-108 601.61,-108"/>
<text xml:space="preserve" text-anchor="middle" x="585" y="-86.5" font-family="Arial" font-size="10.00">E5 corpus</text>
</a>
</g>
</g>
<!-- Nav_E5Sources -->
<g id="node18" class="node">
<title>Nav_E5Sources</title>
<g id="a_node18"><a xlink:href="51_e5_sources.svg" xlink:title="E5 sources">
<path fill="lightgrey" stroke="none" d="M669.23,-108C669.23,-108 630.77,-108 630.77,-108 624.77,-108 618.77,-102 618.77,-96 618.77,-96 618.77,-84 618.77,-84 618.77,-78 624.77,-72 630.77,-72 630.77,-72 669.23,-72 669.23,-72 675.23,-72 681.23,-78 681.23,-84 681.23,-84 681.23,-96 681.23,-96 681.23,-102 675.23,-108 669.23,-108"/>
<text xml:space="preserve" text-anchor="middle" x="650" y="-86.5" font-family="Arial" font-size="10.00">E5 sources</text>
</a>
</g>
</g>
<!-- Nav_E5ScoreGuard -->
<g id="node19" class="node">
<title>Nav_E5ScoreGuard</title>
<g id="a_node19"><a xlink:href="57_e5_score_guard.svg" xlink:title="E5 score guard">
<path fill="lightgrey" stroke="none" d="M753.48,-108C753.48,-108 698.52,-108 698.52,-108 692.52,-108 686.52,-102 686.52,-96 686.52,-96 686.52,-84 686.52,-84 686.52,-78 692.52,-72 698.52,-72 698.52,-72 753.48,-72 753.48,-72 759.48,-72 765.48,-78 765.48,-84 765.48,-84 765.48,-96 765.48,-96 765.48,-102 759.48,-108 753.48,-108"/>
<text xml:space="preserve" text-anchor="middle" x="726" y="-86.5" font-family="Arial" font-size="10.00">E5 score guard</text>
</a>
</g>
</g>
</g>
</svg>
