<?xml version="1.0" encoding="UTF-8" standalone="no"?>
<!DOCTYPE svg PUBLIC "-//W3C//DTD SVG 1.1//EN"
 "http://www.w3.org/Graphics/SVG/1.1/DTD/svg11.dtd">
<!-- Generated by graphviz version 14.1.3 (20260303.0454)
 -->
<!-- Title: E5SearchReport Pages: 1 -->
<svg width="465pt" height="630pt"
 viewBox="0.00 0.00 465.00 630.00" xmlns="http://www.w3.org/2000/svg" xmlns:xlink="http://www.w3.org/1999/xlink">
<g id="graph0" class="graph" transform="scale(1 1) rotate(0) translate(4 626.25)">
<title>E5SearchReport</title>
<polygon fill="white" stroke="none" points="-4,4 -4,-626.25 460.75,-626.25 460.75,4 -4,4"/>
<g id="clust1" class="cluster">
<title>cluster_input</title>
<polygon fill="#e3f2fd" stroke="#1565c0" points="82,-464 82,-614.25 223,-614.25 223,-464 82,-464"/>
<text xml:space="preserve" text-anchor="middle" x="152.5" y="-596.95" font-family="Times,serif" font-size="14.00">Entrée recherche</text>
</g>
<g id="clust2" class="cluster">
<title>cluster_report</title>
<polygon fill="#e8f5e9" stroke="#2e7d32" points="8,-212.25 8,-435.5 280,-435.5 280,-212.25 8,-212.25"/>
<text xml:space="preserve" text-anchor="middle" x="144" y="-418.2" font-family="Times,serif" font-size="14.00">Rapport Phase 3.14</text>
</g>
<g id="clust3" class="cluster">
<title>cluster_cli</title>
<polygon fill="#efebe9" stroke="#6d4c41" points="46,-8 46,-193.25 257,-193.25 257,-8 46,-8"/>
<text xml:space="preserve" text-anchor="middle" x="151.5" y="-175.95" font-family="Times,serif" font-size="14.00">CLI</text>
</g>
<!-- Results -->
<g id="node1" class="node">
<title>Results</title>
<g id="a_node1"><a xlink:href="50_e5_corpus.svg" xlink:title="E5CorpusSearchResults\nhits ranked">
<polygon fill="#e3f2fd" stroke="#1565c0" points="214,-581 90,-581 90,-545 214,-545 214,-581"/>
<text xml:space="preserve" text-anchor="middle" x="152" y="-565.5" font-family="Arial" font-size="10.00">E5CorpusSearchResults</text>
<text xml:space="preserve" text-anchor="middle" x="152" y="-553.5" font-family="Arial" font-size="10.00">hits ranked</text>
</a>
</g>
</g>
<!-- Hit -->
<g id="node2" class="node">
<title>Hit</title>
<g id="a_node2"><a xlink:href="50_e5_corpus.svg" xlink:title="E5CorpusSearchHit\nscore + metadata">
<polygon fill="#e3f2fd" stroke="#1565c0" points="203.5,-508 100.5,-508 100.5,-472 203.5,-472 203.5,-508"/>
<text xml:space="preserve" text-anchor="middle" x="152" y="-492.5" font-family="Arial" font-size="10.00">E5CorpusSearchHit</text>
<text xml:space="preserve" text-anchor="middle" x="152" y="-480.5" font-family="Arial" font-size="10.00">score + metadata</text>
</a>
</g>
</g>
<!-- Results&#45;&gt;Hit -->
<g id="edge1" class="edge">
<title>Results&#45;&gt;Hit</title>
<path fill="none" stroke="black" d="M152,-544.81C152,-537.23 152,-528.1 152,-519.54"/>
<polygon fill="black" stroke="black" points="155.5,-519.54 152,-509.54 148.5,-519.54 155.5,-519.54"/>
</g>
<!-- SourceContext -->
<g id="node4" class="node">
<title>SourceContext</title>
<polygon fill="#e8f5e9" stroke="#2e7d32" points="140,-402.25 16,-402.25 16,-366.25 140,-366.25 140,-402.25"/>
<text xml:space="preserve" text-anchor="middle" x="78" y="-386.75" font-family="Arial" font-size="10.00">E5SearchSourceContext</text>
<text xml:space="preserve" text-anchor="middle" x="78" y="-374.75" font-family="Arial" font-size="10.00">source_path + lines</text>
</g>
<!-- Hit&#45;&gt;SourceContext -->
<g id="edge3" class="edge">
<title>Hit&#45;&gt;SourceContext</title>
<path fill="none" stroke="black" d="M139.78,-471.87C128.1,-455.5 110.34,-430.59 96.85,-411.67"/>
<polygon fill="black" stroke="black" points="99.77,-409.75 91.12,-403.64 94.07,-413.81 99.77,-409.75"/>
<text xml:space="preserve" text-anchor="middle" x="145.08" y="-445.45" font-family="Arial" font-size="9.00">metadata</text>
</g>
<!-- Excerpt -->
<g id="node5" class="node">
<title>Excerpt</title>
<polygon fill="#e8f5e9" stroke="#2e7d32" points="272.12,-402.25 157.88,-402.25 157.88,-366.25 272.12,-366.25 272.12,-402.25"/>
<text xml:space="preserve" text-anchor="middle" x="215" y="-386.75" font-family="Arial" font-size="10.00">make_excerpt</text>
<text xml:space="preserve" text-anchor="middle" x="215" y="-374.75" font-family="Arial" font-size="10.00">stable one&#45;line excerpt</text>
</g>
<!-- Hit&#45;&gt;Excerpt -->
<g id="edge4" class="edge">
<title>Hit&#45;&gt;Excerpt</title>
<path fill="none" stroke="black" d="M162.4,-471.87C172.25,-455.65 187.19,-431.04 198.64,-412.2"/>
<polygon fill="black" stroke="black" points="201.6,-414.07 203.8,-403.7 195.61,-410.43 201.6,-414.07"/>
<text xml:space="preserve" text-anchor="middle" x="184.98" y="-445.45" font-family="Arial" font-size="9.00">text</text>
</g>
<!-- Config -->
<g id="node3" class="node">
<title>Config</title>
<polygon fill="#e8f5e9" stroke="#2e7d32" points="133.25,-329.25 16.75,-329.25 16.75,-293.25 133.25,-293.25 133.25,-329.25"/>
<text xml:space="preserve" text-anchor="middle" x="75" y="-313.75" font-family="Arial" font-size="10.00">E5SearchReportConfig</text>
<text xml:space="preserve" text-anchor="middle" x="75" y="-301.75" font-family="Arial" font-size="10.00">excerpt/full text</text>
</g>
<!-- Report -->
<g id="node7" class="node">
<title>Report</title>
<polygon fill="#e8f5e9" stroke="#2e7d32" points="162,-256.25 74,-256.25 74,-220.25 162,-220.25 162,-256.25"/>
<text xml:space="preserve" text-anchor="middle" x="118" y="-240.75" font-family="Arial" font-size="10.00">E5SearchReport</text>
<text xml:space="preserve" text-anchor="middle" x="118" y="-228.75" font-family="Arial" font-size="10.00">text/json output</text>
</g>
<!-- Config&#45;&gt;Report -->
<g id="edge2" class="edge">
<title>Config&#45;&gt;Report</title>
<path fill="none" stroke="black" d="M85.41,-293.06C90.32,-284.95 96.3,-275.09 101.78,-266.03"/>
<polygon fill="black" stroke="black" points="104.72,-267.94 106.9,-257.57 98.73,-264.31 104.72,-267.94"/>
</g>
<!-- ReportHit -->
<g id="node6" class="node">
<title>ReportHit</title>
<polygon fill="#e8f5e9" stroke="#2e7d32" points="271.12,-329.25 150.88,-329.25 150.88,-293.25 271.12,-293.25 271.12,-329.25"/>
<text xml:space="preserve" text-anchor="middle" x="211" y="-313.75" font-family="Arial" font-size="10.00">E5SearchReportHit</text>
<text xml:space="preserve" text-anchor="middle" x="211" y="-301.75" font-family="Arial" font-size="10.00">rank + source + excerpt</text>
</g>
<!-- SourceContext&#45;&gt;ReportHit -->
<g id="edge5" class="edge">
<title>SourceContext&#45;&gt;ReportHit</title>
<path fill="none" stroke="black" d="M110.54,-365.88C127.93,-356.6 149.55,-345.05 168.28,-335.06"/>
<polygon fill="black" stroke="black" points="169.83,-338.2 177,-330.4 166.53,-332.02 169.83,-338.2"/>
</g>
<!-- Excerpt&#45;&gt;ReportHit -->
<g id="edge6" class="edge">
<title>Excerpt&#45;&gt;ReportHit</title>
<path fill="none" stroke="black" d="M214.03,-366.06C213.6,-358.39 213.08,-349.14 212.59,-340.49"/>
<polygon fill="black" stroke="black" points="216.1,-340.58 212.04,-330.79 209.11,-340.97 216.1,-340.58"/>
</g>
<!-- ReportHit&#45;&gt;Report -->
<g id="edge7" class="edge">
<title>ReportHit&#45;&gt;Report</title>
<path fill="none" stroke="black" d="M188.49,-293.06C176.81,-284.15 162.35,-273.11 149.57,-263.35"/>
<polygon fill="black" stroke="black" points="151.9,-260.73 141.83,-257.44 147.66,-266.29 151.9,-260.73"/>
</g>
<!-- SearchCli -->
<g id="node8" class="node">
<title>SearchCli</title>
<polygon fill="#efebe9" stroke="#6d4c41" points="182.25,-160 53.75,-160 53.75,-124 182.25,-124 182.25,-160"/>
<text xml:space="preserve" text-anchor="middle" x="118" y="-144.5" font-family="Arial" font-size="10.00">search_e5_corpus.py</text>
<text xml:space="preserve" text-anchor="middle" x="118" y="-132.5" font-family="Arial" font-size="10.00">&#45;&#45;excerpt&#45;chars / &#45;&#45;full&#45;text</text>
</g>
<!-- Report&#45;&gt;SearchCli -->
<g id="edge8" class="edge">
<title>Report&#45;&gt;SearchCli</title>
<path fill="none" stroke="black" d="M118,-219.96C118,-206.5 118,-187.51 118,-171.76"/>
<polygon fill="black" stroke="black" points="121.5,-172.01 118,-162.01 114.5,-172.01 121.5,-172.01"/>
</g>
<!-- TextOut -->
<g id="node9" class="node">
<title>TextOut</title>
<polygon fill="#efebe9" stroke="#6d4c41" points="139.5,-52 54.5,-52 54.5,-16 139.5,-16 139.5,-52"/>
<text xml:space="preserve" text-anchor="middle" x="97" y="-36.5" font-family="Arial" font-size="10.00">text output</text>
<text xml:space="preserve" text-anchor="middle" x="97" y="-24.5" font-family="Arial" font-size="10.00">human readable</text>
</g>
<!-- SearchCli&#45;&gt;TextOut -->
<g id="edge9" class="edge">
<title>SearchCli&#45;&gt;TextOut</title>
<path fill="none" stroke="black" d="M114.63,-123.97C111.4,-107.69 106.47,-82.82 102.65,-63.52"/>
<polygon fill="black" stroke="black" points="106.11,-62.95 100.73,-53.83 99.24,-64.31 106.11,-62.95"/>
</g>
<!-- JsonOut -->
<g id="node10" class="node">
<title>JsonOut</title>
<polygon fill="#efebe9" stroke="#6d4c41" points="248.5,-52 157.5,-52 157.5,-16 248.5,-16 248.5,-52"/>
<text xml:space="preserve" text-anchor="middle" x="203" y="-36.5" font-family="Arial" font-size="10.00">json output</text>
<text xml:space="preserve" text-anchor="middle" x="203" y="-24.5" font-family="Arial" font-size="10.00">program readable</text>
</g>
<!-- SearchCli&#45;&gt;JsonOut -->
<g id="edge10" class="edge">
<title>SearchCli&#45;&gt;JsonOut</title>
<path fill="none" stroke="black" d="M131.66,-123.97C145.27,-106.99 166.36,-80.7 182.08,-61.09"/>
<polygon fill="black" stroke="black" points="184.62,-63.51 188.15,-53.52 179.16,-59.13 184.62,-63.51"/>
</g>
<!-- Nav_Inference -->
<g id="node11" class="node">
<title>Nav_Inference</title>
<g id="a_node11"><a xlink:href="40_inference.svg" xlink:title="Inference">
<polygon fill="lightgrey" stroke="none" points="321.25,-106 264.75,-106 264.75,-70 321.25,-70 321.25,-106"/>
<text xml:space="preserve" text-anchor="middle" x="293" y="-84.5" font-family="Arial" font-size="10.00">Inference</text>
</a>
</g>
</g>
<!-- Nav_E5Corpus -->
<g id="node12" class="node">
<title>Nav_E5Corpus</title>
<g id="a_node12"><a xlink:href="50_e5_corpus.svg" xlink:title="E5 corpus">
<polygon fill="lightgrey" stroke="none" points="386.12,-106 325.88,-106 325.88,-70 386.12,-70 386.12,-106"/>
<text xml:space="preserve" text-anchor="middle" x="356" y="-84.5" font-family="Arial" font-size="10.00">E5 corpus</text>
</a>
</g>
</g>
<!-- Nav_E5Sources -->
<g id="node13" class="node">
<title>Nav_E5Sources</title>
<g id="a_node13"><a xlink:href="51_e5_sources.svg" xlink:title="E5 sources">
<polygon fill="lightgrey" stroke="none" points="456.75,-106 391.25,-106 391.25,-70 456.75,-70 456.75,-106"/>
<text xml:space="preserve" text-anchor="middle" x="424" y="-84.5" font-family="Arial" font-size="10.00">E5 sources</text>
</a>
</g>
</g>
</g>
</svg>
