<?xml version="1.0" encoding="UTF-8" standalone="no"?>
<!DOCTYPE svg PUBLIC "-//W3C//DTD SVG 1.1//EN"
 "http://www.w3.org/Graphics/SVG/1.1/DTD/svg11.dtd">
<!-- Generated by graphviz version 14.1.3 (20260303.0454)
 -->
<!-- Title: E5IncrementalCorpus Pages: 1 -->
<svg width="903pt" height="713pt"
 viewBox="0.00 0.00 903.00 713.00" xmlns="http://www.w3.org/2000/svg" xmlns:xlink="http://www.w3.org/1999/xlink">
<g id="graph0" class="graph" transform="scale(1 1) rotate(0) translate(4 708.75)">
<title>E5IncrementalCorpus</title>
<polygon fill="white" stroke="none" points="-4,4 -4,-708.75 898.75,-708.75 898.75,4 -4,4"/>
<g id="clust1" class="cluster">
<title>cluster_inputs</title>
<polygon fill="#e3f2fd" stroke="#1565c0" points="8,-473.5 8,-696.75 286,-696.75 286,-473.5 8,-473.5"/>
<text xml:space="preserve" text-anchor="middle" x="147" y="-679.45" font-family="Times,serif" font-size="14.00">Entrées incrémentales</text>
</g>
<g id="clust2" class="cluster">
<title>cluster_incremental</title>
<polygon fill="#e8f5e9" stroke="#2e7d32" points="32,-8 32,-454.5 202,-454.5 202,-8 32,-8"/>
<text xml:space="preserve" text-anchor="middle" x="117" y="-437.2" font-family="Times,serif" font-size="14.00">Phase 3.15</text>
</g>
<g id="clust3" class="cluster">
<title>cluster_outputs</title>
<polygon fill="#efebe9" stroke="#6d4c41" points="210,-8 210,-193.25 606,-193.25 606,-8 210,-8"/>
<text xml:space="preserve" text-anchor="middle" x="408" y="-175.95" font-family="Times,serif" font-size="14.00">Sortie</text>
</g>
<!-- Sources -->
<g id="node1" class="node">
<title>Sources</title>
<g id="a_node1"><a xlink:href="51_e5_sources.svg" xlink:title="TXT/Markdown sources">
<polygon fill="#e3f2fd" stroke="#1565c0" points="136.12,-663.5 15.88,-663.5 15.88,-627.5 136.12,-627.5 136.12,-663.5"/>
<text xml:space="preserve" text-anchor="middle" x="76" y="-642" font-family="Arial" font-size="10.00">TXT/Markdown sources</text>
</a>
</g>
</g>
<!-- Chunks -->
<g id="node2" class="node">
<title>Chunks</title>
<g id="a_node2"><a xlink:href="51_e5_sources.svg" xlink:title="E5TextChunk\nsource_hash + chunk_hash">
<polygon fill="#e3f2fd" stroke="#1565c0" points="170,-590.5 34,-590.5 34,-554.5 170,-554.5 170,-590.5"/>
<text xml:space="preserve" text-anchor="middle" x="102" y="-575" font-family="Arial" font-size="10.00">E5TextChunk</text>
<text xml:space="preserve" text-anchor="middle" x="102" y="-563" font-family="Arial" font-size="10.00">source_hash + chunk_hash</text>
</a>
</g>
</g>
<!-- Sources&#45;&gt;Chunks -->
<g id="edge1" class="edge">
<title>Sources&#45;&gt;Chunks</title>
<path fill="none" stroke="black" d="M82.29,-627.31C85.17,-619.46 88.64,-609.97 91.87,-601.16"/>
<polygon fill="black" stroke="black" points="95.09,-602.54 95.24,-591.95 88.52,-600.14 95.09,-602.54"/>
</g>
<!-- Documents -->
<g id="node3" class="node">
<title>Documents</title>
<g id="a_node3"><a xlink:href="50_e5_corpus.svg" xlink:title="E5CorpusDocument\nid + passage">
<polygon fill="#e3f2fd" stroke="#1565c0" points="156.25,-517.5 51.75,-517.5 51.75,-481.5 156.25,-481.5 156.25,-517.5"/>
<text xml:space="preserve" text-anchor="middle" x="104" y="-502" font-family="Arial" font-size="10.00">E5CorpusDocument</text>
<text xml:space="preserve" text-anchor="middle" x="104" y="-490" font-family="Arial" font-size="10.00">id + passage</text>
</a>
</g>
</g>
<!-- Chunks&#45;&gt;Documents -->
<g id="edge2" class="edge">
<title>Chunks&#45;&gt;Documents</title>
<path fill="none" stroke="black" d="M102.48,-554.31C102.7,-546.64 102.96,-537.39 103.2,-528.74"/>
<polygon fill="black" stroke="black" points="106.69,-529.14 103.48,-519.04 99.7,-528.94 106.69,-529.14"/>
</g>
<!-- DocumentHash -->
<g id="node5" class="node">
<title>DocumentHash</title>
<polygon fill="#e8f5e9" stroke="#2e7d32" points="176,-421.25 46,-421.25 46,-385.25 176,-385.25 176,-421.25"/>
<text xml:space="preserve" text-anchor="middle" x="111" y="-405.75" font-family="Arial" font-size="10.00">make_e5_document_hash</text>
<text xml:space="preserve" text-anchor="middle" x="111" y="-393.75" font-family="Arial" font-size="10.00">id + prefixed text</text>
</g>
<!-- Documents&#45;&gt;DocumentHash -->
<g id="edge3" class="edge">
<title>Documents&#45;&gt;DocumentHash</title>
<path fill="none" stroke="black" d="M105.28,-481.21C106.28,-467.75 107.69,-448.76 108.86,-433.01"/>
<polygon fill="black" stroke="black" points="112.34,-433.49 109.59,-423.26 105.36,-432.97 112.34,-433.49"/>
</g>
<!-- PreviousIndex -->
<g id="node4" class="node">
<title>PreviousIndex</title>
<g id="a_node4"><a xlink:href="50_e5_corpus.svg" xlink:title="previous E5CorpusIndex\n&#45;&#45;reuse&#45;index">
<polygon fill="#e3f2fd" stroke="#1565c0" points="277.62,-663.5 154.38,-663.5 154.38,-627.5 277.62,-627.5 277.62,-663.5"/>
<text xml:space="preserve" text-anchor="middle" x="216" y="-648" font-family="Arial" font-size="10.00">previous E5CorpusIndex</text>
<text xml:space="preserve" text-anchor="middle" x="216" y="-636" font-family="Arial" font-size="10.00">&#45;&#45;reuse&#45;index</text>
</a>
</g>
</g>
<!-- Matcher -->
<g id="node6" class="node">
<title>Matcher</title>
<polygon fill="#e8f5e9" stroke="#2e7d32" points="194,-348.25 40,-348.25 40,-312.25 194,-312.25 194,-348.25"/>
<text xml:space="preserve" text-anchor="middle" x="117" y="-332.75" font-family="Arial" font-size="10.00">embedding_matches_document</text>
<text xml:space="preserve" text-anchor="middle" x="117" y="-320.75" font-family="Arial" font-size="10.00">reuse decision</text>
</g>
<!-- PreviousIndex&#45;&gt;Matcher -->
<g id="edge4" class="edge">
<title>PreviousIndex&#45;&gt;Matcher</title>
<path fill="none" stroke="black" d="M212.55,-627.07C210.01,-612.75 207,-591.89 207,-573.5 207,-573.5 207,-573.5 207,-402.25 207,-381.23 191.69,-365.48 173.7,-354.21"/>
<polygon fill="black" stroke="black" points="175.84,-351.41 165.42,-349.48 172.36,-357.49 175.84,-351.41"/>
</g>
<!-- DocumentHash&#45;&gt;Matcher -->
<g id="edge5" class="edge">
<title>DocumentHash&#45;&gt;Matcher</title>
<path fill="none" stroke="black" d="M112.45,-385.06C113.1,-377.39 113.88,-368.14 114.61,-359.49"/>
<polygon fill="black" stroke="black" points="118.08,-360.05 115.43,-349.79 111.1,-359.46 118.08,-360.05"/>
</g>
<!-- Builder -->
<g id="node7" class="node">
<title>Builder</title>
<polygon fill="#e8f5e9" stroke="#2e7d32" points="194.25,-265.75 53.75,-265.75 53.75,-229.75 194.25,-229.75 194.25,-265.75"/>
<text xml:space="preserve" text-anchor="middle" x="124" y="-250.25" font-family="Arial" font-size="10.00">E5IncrementalCorpusBuilder</text>
<text xml:space="preserve" text-anchor="middle" x="124" y="-238.25" font-family="Arial" font-size="10.00">reuse or embed</text>
</g>
<!-- Matcher&#45;&gt;Builder -->
<g id="edge6" class="edge">
<title>Matcher&#45;&gt;Builder</title>
<path fill="none" stroke="black" d="M118.52,-311.78C119.39,-301.76 120.51,-288.93 121.5,-277.46"/>
<polygon fill="black" stroke="black" points="124.97,-277.96 122.35,-267.69 118,-277.35 124.97,-277.96"/>
<text xml:space="preserve" text-anchor="middle" x="156.17" y="-285.7" font-family="Arial" font-size="9.00">changed? yes/no</text>
</g>
<!-- Stats -->
<g id="node8" class="node">
<title>Stats</title>
<polygon fill="#e8f5e9" stroke="#2e7d32" points="192.88,-160 59.12,-160 59.12,-124 192.88,-124 192.88,-160"/>
<text xml:space="preserve" text-anchor="middle" x="126" y="-144.5" font-family="Arial" font-size="10.00">E5IncrementalBuildStats</text>
<text xml:space="preserve" text-anchor="middle" x="126" y="-132.5" font-family="Arial" font-size="10.00">reused/embedded/removed</text>
</g>
<!-- Builder&#45;&gt;Stats -->
<g id="edge11" class="edge">
<title>Builder&#45;&gt;Stats</title>
<path fill="none" stroke="black" d="M124.33,-229.62C124.63,-213.85 125.09,-190.15 125.45,-171.53"/>
<polygon fill="black" stroke="black" points="128.95,-171.74 125.64,-161.67 121.95,-171.6 128.95,-171.74"/>
</g>
<!-- Pipeline -->
<g id="node10" class="node">
<title>Pipeline</title>
<g id="a_node10"><a xlink:href="47_openvino_embedding_pipeline.svg" xlink:title="OpenVINOEmbeddingPipeline\nonly for changed chunks">
<polygon fill="#efebe9" stroke="#6d4c41" points="487.62,-160 340.38,-160 340.38,-124 487.62,-124 487.62,-160"/>
<text xml:space="preserve" text-anchor="middle" x="414" y="-144.5" font-family="Arial" font-size="10.00">OpenVINOEmbeddingPipeline</text>
<text xml:space="preserve" text-anchor="middle" x="414" y="-132.5" font-family="Arial" font-size="10.00">only for changed chunks</text>
</a>
</g>
</g>
<!-- Builder&#45;&gt;Pipeline -->
<g id="edge8" class="edge">
<title>Builder&#45;&gt;Pipeline</title>
<path fill="none" stroke="black" d="M194.66,-233.83C235.46,-225.07 287.21,-211.69 331,-193.25 347.9,-186.13 365.44,-175.98 380.02,-166.66"/>
<polygon fill="black" stroke="black" points="381.88,-169.63 388.32,-161.22 378.04,-163.77 381.88,-169.63"/>
<text xml:space="preserve" text-anchor="middle" x="337.2" y="-203.2" font-family="Arial" font-size="9.00">new/changed</text>
</g>
<!-- ReusedEmbedding -->
<g id="node11" class="node">
<title>ReusedEmbedding</title>
<polygon fill="#efebe9" stroke="#6d4c41" points="598.25,-160 505.75,-160 505.75,-124 598.25,-124 598.25,-160"/>
<text xml:space="preserve" text-anchor="middle" x="552" y="-144.5" font-family="Arial" font-size="10.00">reuse_embedding</text>
<text xml:space="preserve" text-anchor="middle" x="552" y="-132.5" font-family="Arial" font-size="10.00">vector preserved</text>
</g>
<!-- Builder&#45;&gt;ReusedEmbedding -->
<g id="edge7" class="edge">
<title>Builder&#45;&gt;ReusedEmbedding</title>
<path fill="none" stroke="black" d="M194.48,-241.62C287.28,-234.02 444.81,-217.94 497,-193.25 509.35,-187.41 520.88,-177.83 530.15,-168.59"/>
<polygon fill="black" stroke="black" points="532.61,-171.08 536.96,-161.42 527.54,-166.26 532.61,-171.08"/>
<text xml:space="preserve" text-anchor="middle" x="498.09" y="-203.2" font-family="Arial" font-size="9.00">unchanged</text>
</g>
<!-- Result -->
<g id="node9" class="node">
<title>Result</title>
<polygon fill="#e8f5e9" stroke="#2e7d32" points="193.62,-52 64.38,-52 64.38,-16 193.62,-16 193.62,-52"/>
<text xml:space="preserve" text-anchor="middle" x="129" y="-36.5" font-family="Arial" font-size="10.00">E5IncrementalBuildResult</text>
<text xml:space="preserve" text-anchor="middle" x="129" y="-24.5" font-family="Arial" font-size="10.00">index + stats</text>
</g>
<!-- Stats&#45;&gt;Result -->
<g id="edge13" class="edge">
<title>Stats&#45;&gt;Result</title>
<path fill="none" stroke="black" d="M126.48,-123.97C126.94,-107.76 127.64,-83.06 128.19,-63.79"/>
<polygon fill="black" stroke="black" points="131.68,-63.95 128.47,-53.85 124.68,-63.75 131.68,-63.95"/>
</g>
<!-- Store -->
<g id="node13" class="node">
<title>Store</title>
<g id="a_node13"><a xlink:href="54_e5_atomic_build.svg" xlink:title="E5CorpusJsonStore\nwrite_atomic">
<polygon fill="#efebe9" stroke="#6d4c41" points="321.88,-160 218.12,-160 218.12,-124 321.88,-124 321.88,-160"/>
<text xml:space="preserve" text-anchor="middle" x="270" y="-144.5" font-family="Arial" font-size="10.00">E5CorpusJsonStore</text>
<text xml:space="preserve" text-anchor="middle" x="270" y="-132.5" font-family="Arial" font-size="10.00">write_atomic</text>
</a>
</g>
</g>
<!-- Result&#45;&gt;Store -->
<g id="edge14" class="edge">
<title>Result&#45;&gt;Store</title>
<path fill="none" stroke="black" d="M151.96,-52.26C175.31,-69.81 211.68,-97.16 237.88,-116.85"/>
<polygon fill="black" stroke="black" points="235.73,-119.61 245.82,-122.82 239.93,-114.02 235.73,-119.61"/>
</g>
<!-- NewIndex -->
<g id="node12" class="node">
<title>NewIndex</title>
<g id="a_node12"><a xlink:href="50_e5_corpus.svg" xlink:title="new E5CorpusIndex\nmissipy.e5.corpus.v1">
<polygon fill="#efebe9" stroke="#6d4c41" points="468.12,-52 359.88,-52 359.88,-16 468.12,-16 468.12,-52"/>
<text xml:space="preserve" text-anchor="middle" x="414" y="-36.5" font-family="Arial" font-size="10.00">new E5CorpusIndex</text>
<text xml:space="preserve" text-anchor="middle" x="414" y="-24.5" font-family="Arial" font-size="10.00">missipy.e5.corpus.v1</text>
</a>
</g>
</g>
<!-- Pipeline&#45;&gt;NewIndex -->
<g id="edge9" class="edge">
<title>Pipeline&#45;&gt;NewIndex</title>
<path fill="none" stroke="black" d="M414,-123.97C414,-107.76 414,-83.06 414,-63.79"/>
<polygon fill="black" stroke="black" points="417.5,-63.85 414,-53.85 410.5,-63.85 417.5,-63.85"/>
</g>
<!-- ReusedEmbedding&#45;&gt;NewIndex -->
<g id="edge10" class="edge">
<title>ReusedEmbedding&#45;&gt;NewIndex</title>
<path fill="none" stroke="black" d="M529.52,-123.73C506.67,-106.18 471.06,-78.83 445.42,-59.14"/>
<polygon fill="black" stroke="black" points="447.73,-56.5 437.67,-53.18 443.47,-62.05 447.73,-56.5"/>
</g>
<!-- NewIndex&#45;&gt;Result -->
<g id="edge12" class="edge">
<title>NewIndex&#45;&gt;Result</title>
<path fill="none" stroke="black" d="M359.39,-34C307.98,-34 256.57,-34 205.17,-34"/>
<polygon fill="black" stroke="black" points="205.36,-30.5 195.36,-34 205.36,-37.5 205.36,-30.5"/>
</g>
<!-- Nav_Inference -->
<g id="node14" class="node">
<title>Nav_Inference</title>
<g id="a_node14"><a xlink:href="40_inference.svg" xlink:title="Inference">
<polygon fill="lightgrey" stroke="none" points="670.25,-106 613.75,-106 613.75,-70 670.25,-70 670.25,-106"/>
<text xml:space="preserve" text-anchor="middle" x="642" y="-84.5" font-family="Arial" font-size="10.00">Inference</text>
</a>
</g>
</g>
<!-- Nav_Corpus -->
<g id="node15" class="node">
<title>Nav_Corpus</title>
<g id="a_node15"><a xlink:href="50_e5_corpus.svg" xlink:title="E5 corpus">
<polygon fill="lightgrey" stroke="none" points="735.12,-106 674.88,-106 674.88,-70 735.12,-70 735.12,-106"/>
<text xml:space="preserve" text-anchor="middle" x="705" y="-84.5" font-family="Arial" font-size="10.00">E5 corpus</text>
</a>
</g>
</g>
<!-- Nav_Sources -->
<g id="node16" class="node">
<title>Nav_Sources</title>
<g id="a_node16"><a xlink:href="51_e5_sources.svg" xlink:title="E5 sources">
<polygon fill="lightgrey" stroke="none" points="805.75,-106 740.25,-106 740.25,-70 805.75,-70 805.75,-106"/>
<text xml:space="preserve" text-anchor="middle" x="773" y="-84.5" font-family="Arial" font-size="10.00">E5 sources</text>
</a>
</g>
</g>
<!-- Nav_Atomic -->
<g id="node17" class="node">
<title>Nav_Atomic</title>
<g id="a_node17"><a xlink:href="54_e5_atomic_build.svg" xlink:title="E5 atomic build">
<polygon fill="lightgrey" stroke="none" points="894.75,-106 811.25,-106 811.25,-70 894.75,-70 894.75,-106"/>
<text xml:space="preserve" text-anchor="middle" x="853" y="-84.5" font-family="Arial" font-size="10.00">E5 atomic build</text>
</a>
</g>
</g>
</g>
</svg>
