<?xml version="1.0" encoding="UTF-8" standalone="no"?>
<!DOCTYPE svg PUBLIC "-//W3C//DTD SVG 1.1//EN"
 "http://www.w3.org/Graphics/SVG/1.1/DTD/svg11.dtd">
<!-- Generated by graphviz version 14.1.3 (20260303.0454)
 -->
<!-- Title: E5AtomicCorpusBuild Pages: 1 -->
<svg width="589pt" height="703pt"
 viewBox="0.00 0.00 589.00 703.00" xmlns="http://www.w3.org/2000/svg" xmlns:xlink="http://www.w3.org/1999/xlink">
<g id="graph0" class="graph" transform="scale(1 1) rotate(0) translate(4 699.25)">
<title>E5AtomicCorpusBuild</title>
<polygon fill="white" stroke="none" points="-4,4 -4,-699.25 584.62,-699.25 584.62,4 -4,4"/>
<g id="clust1" class="cluster">
<title>cluster_input</title>
<polygon fill="#e3f2fd" stroke="#1565c0" points="8,-610 8,-687.25 346,-687.25 346,-610 8,-610"/>
<text xml:space="preserve" text-anchor="middle" x="177" y="-669.95" font-family="Times,serif" font-size="14.00">Entrée</text>
</g>
<g id="clust2" class="cluster">
<title>cluster_atomic</title>
<polygon fill="#e8f5e9" stroke="#2e7d32" points="102,-212.25 102,-591 352,-591 352,-212.25 102,-212.25"/>
<text xml:space="preserve" text-anchor="middle" x="227" y="-573.7" font-family="Times,serif" font-size="14.00">Écriture atomique</text>
</g>
<g id="clust3" class="cluster">
<title>cluster_output</title>
<polygon fill="#efebe9" stroke="#6d4c41" points="92,-8 92,-193.25 365,-193.25 365,-8 92,-8"/>
<text xml:space="preserve" text-anchor="middle" x="228.5" y="-175.95" font-family="Times,serif" font-size="14.00">Sortie</text>
</g>
<!-- Index -->
<g id="node1" class="node">
<title>Index</title>
<g id="a_node1"><a xlink:href="50_e5_corpus.svg" xlink:title="E5CorpusIndex\nmissipy.e5.corpus.v1">
<polygon fill="#e3f2fd" stroke="#1565c0" points="338.12,-654 229.88,-654 229.88,-618 338.12,-618 338.12,-654"/>
<text xml:space="preserve" text-anchor="middle" x="284" y="-638.5" font-family="Arial" font-size="10.00">E5CorpusIndex</text>
<text xml:space="preserve" text-anchor="middle" x="284" y="-626.5" font-family="Arial" font-size="10.00">missipy.e5.corpus.v1</text>
</a>
</g>
</g>
<!-- Serialize -->
<g id="node6" class="node">
<title>Serialize</title>
<polygon fill="#e8f5e9" stroke="#2e7d32" points="344.12,-484.75 223.88,-484.75 223.88,-448.75 344.12,-448.75 344.12,-484.75"/>
<text xml:space="preserve" text-anchor="middle" x="284" y="-469.25" font-family="Arial" font-size="10.00">_serialize_corpus_index</text>
<text xml:space="preserve" text-anchor="middle" x="284" y="-457.25" font-family="Arial" font-size="10.00">stable JSON</text>
</g>
<!-- Index&#45;&gt;Serialize -->
<g id="edge1" class="edge">
<title>Index&#45;&gt;Serialize</title>
<path fill="none" stroke="black" d="M284,-617.73C284,-589.06 284,-531.35 284,-496.48"/>
<polygon fill="black" stroke="black" points="287.5,-496.69 284,-486.69 280.5,-496.69 287.5,-496.69"/>
</g>
<!-- Target -->
<g id="node2" class="node">
<title>Target</title>
<polygon fill="#e3f2fd" stroke="#1565c0" points="110,-654 16,-654 16,-618 110,-618 110,-654"/>
<text xml:space="preserve" text-anchor="middle" x="63" y="-632.5" font-family="Arial" font-size="10.00">target corpus.json</text>
</g>
<!-- Guard -->
<g id="node4" class="node">
<title>Guard</title>
<polygon fill="#e8f5e9" stroke="#2e7d32" points="229.75,-557.75 110.25,-557.75 110.25,-521.75 229.75,-521.75 229.75,-557.75"/>
<text xml:space="preserve" text-anchor="middle" x="170" y="-542.25" font-family="Arial" font-size="10.00">_ensure_writable_target</text>
<text xml:space="preserve" text-anchor="middle" x="170" y="-530.25" font-family="Arial" font-size="10.00">parent + overwrite</text>
</g>
<!-- Target&#45;&gt;Guard -->
<g id="edge2" class="edge">
<title>Target&#45;&gt;Guard</title>
<path fill="none" stroke="black" d="M82.63,-617.71C99.19,-603.12 123.11,-582.05 141.74,-565.65"/>
<polygon fill="black" stroke="black" points="143.81,-568.48 149,-559.25 139.18,-563.23 143.81,-568.48"/>
</g>
<!-- Overwrite -->
<g id="node3" class="node">
<title>Overwrite</title>
<polygon fill="#e3f2fd" stroke="#1565c0" points="212.12,-654 127.88,-654 127.88,-618 212.12,-618 212.12,-654"/>
<text xml:space="preserve" text-anchor="middle" x="170" y="-632.5" font-family="Arial" font-size="10.00">overwrite policy</text>
</g>
<!-- Overwrite&#45;&gt;Guard -->
<g id="edge3" class="edge">
<title>Overwrite&#45;&gt;Guard</title>
<path fill="none" stroke="black" d="M170,-617.71C170,-604.25 170,-585.26 170,-569.51"/>
<polygon fill="black" stroke="black" points="173.5,-569.76 170,-559.76 166.5,-569.76 173.5,-569.76"/>
</g>
<!-- TempPath -->
<g id="node5" class="node">
<title>TempPath</title>
<polygon fill="#e8f5e9" stroke="#2e7d32" points="206.12,-484.75 109.88,-484.75 109.88,-448.75 206.12,-448.75 206.12,-484.75"/>
<text xml:space="preserve" text-anchor="middle" x="158" y="-469.25" font-family="Arial" font-size="10.00">atomic_temp_path</text>
<text xml:space="preserve" text-anchor="middle" x="158" y="-457.25" font-family="Arial" font-size="10.00">.&lt;target&gt;.tmp</text>
</g>
<!-- Guard&#45;&gt;TempPath -->
<g id="edge4" class="edge">
<title>Guard&#45;&gt;TempPath</title>
<path fill="none" stroke="black" d="M167.1,-521.56C165.8,-513.89 164.24,-504.64 162.77,-495.99"/>
<polygon fill="black" stroke="black" points="166.25,-495.55 161.13,-486.27 159.35,-496.71 166.25,-495.55"/>
</g>
<!-- TempWrite -->
<g id="node7" class="node">
<title>TempWrite</title>
<polygon fill="#e8f5e9" stroke="#2e7d32" points="259.12,-411.75 186.88,-411.75 186.88,-375.75 259.12,-375.75 259.12,-411.75"/>
<text xml:space="preserve" text-anchor="middle" x="223" y="-390.25" font-family="Arial" font-size="10.00">write tmp file</text>
</g>
<!-- TempPath&#45;&gt;TempWrite -->
<g id="edge5" class="edge">
<title>TempPath&#45;&gt;TempWrite</title>
<path fill="none" stroke="black" d="M173.73,-448.56C181.56,-440.02 191.17,-429.52 199.82,-420.07"/>
<polygon fill="black" stroke="black" points="202.22,-422.63 206.39,-412.9 197.05,-417.91 202.22,-422.63"/>
</g>
<!-- Serialize&#45;&gt;TempWrite -->
<g id="edge6" class="edge">
<title>Serialize&#45;&gt;TempWrite</title>
<path fill="none" stroke="black" d="M269.23,-448.56C261.97,-440.1 253.06,-429.73 245.01,-420.36"/>
<polygon fill="black" stroke="black" points="247.79,-418.23 238.62,-412.93 242.48,-422.79 247.79,-418.23"/>
</g>
<!-- Validate -->
<g id="node8" class="node">
<title>Validate</title>
<polygon fill="#e8f5e9" stroke="#2e7d32" points="274.88,-338.75 171.12,-338.75 171.12,-302.75 274.88,-302.75 274.88,-338.75"/>
<text xml:space="preserve" text-anchor="middle" x="223" y="-323.25" font-family="Arial" font-size="10.00">read tmp + compare</text>
<text xml:space="preserve" text-anchor="middle" x="223" y="-311.25" font-family="Arial" font-size="10.00">to_json_dict</text>
</g>
<!-- TempWrite&#45;&gt;Validate -->
<g id="edge7" class="edge">
<title>TempWrite&#45;&gt;Validate</title>
<path fill="none" stroke="black" d="M223,-375.56C223,-367.98 223,-358.85 223,-350.29"/>
<polygon fill="black" stroke="black" points="226.5,-350.29 223,-340.29 219.5,-350.29 226.5,-350.29"/>
</g>
<!-- Replace -->
<g id="node9" class="node">
<title>Replace</title>
<polygon fill="#e8f5e9" stroke="#2e7d32" points="212.75,-256.25 111.25,-256.25 111.25,-220.25 212.75,-220.25 212.75,-256.25"/>
<text xml:space="preserve" text-anchor="middle" x="162" y="-234.75" font-family="Arial" font-size="10.00">Path.replace(target)</text>
</g>
<!-- Validate&#45;&gt;Replace -->
<g id="edge8" class="edge">
<title>Validate&#45;&gt;Replace</title>
<path fill="none" stroke="black" d="M209.76,-302.28C201.69,-291.63 191.21,-277.8 182.13,-265.81"/>
<polygon fill="black" stroke="black" points="184.95,-263.75 176.12,-257.89 179.37,-267.97 184.95,-263.75"/>
<text xml:space="preserve" text-anchor="middle" x="201.03" y="-276.2" font-family="Arial" font-size="9.00">ok</text>
</g>
<!-- Cleanup -->
<g id="node10" class="node">
<title>Cleanup</title>
<polygon fill="#e8f5e9" stroke="#2e7d32" points="343,-256.25 231,-256.25 231,-220.25 343,-220.25 343,-256.25"/>
<text xml:space="preserve" text-anchor="middle" x="287" y="-234.75" font-family="Arial" font-size="10.00">cleanup tmp on failure</text>
</g>
<!-- Validate&#45;&gt;Cleanup -->
<g id="edge9" class="edge">
<title>Validate&#45;&gt;Cleanup</title>
<path fill="none" stroke="black" d="M236.89,-302.28C245.44,-291.52 256.57,-277.52 266.17,-265.45"/>
<polygon fill="black" stroke="black" points="268.71,-267.87 272.2,-257.87 263.24,-263.52 268.71,-267.87"/>
<text xml:space="preserve" text-anchor="middle" x="268.58" y="-276.2" font-family="Arial" font-size="9.00">error</text>
</g>
<!-- Final -->
<g id="node11" class="node">
<title>Final</title>
<polygon fill="#efebe9" stroke="#6d4c41" points="208.12,-160 99.88,-160 99.88,-124 208.12,-124 208.12,-160"/>
<text xml:space="preserve" text-anchor="middle" x="154" y="-138.5" font-family="Arial" font-size="10.00">validated corpus.json</text>
</g>
<!-- Replace&#45;&gt;Final -->
<g id="edge11" class="edge">
<title>Replace&#45;&gt;Final</title>
<path fill="none" stroke="black" d="M160.53,-219.96C159.39,-206.5 157.78,-187.51 156.44,-171.76"/>
<polygon fill="black" stroke="black" points="159.95,-171.67 155.61,-162 152.97,-172.26 159.95,-171.67"/>
</g>
<!-- Existing -->
<g id="node12" class="node">
<title>Existing</title>
<polygon fill="#efebe9" stroke="#6d4c41" points="357.38,-160 226.62,-160 226.62,-124 357.38,-124 357.38,-160"/>
<text xml:space="preserve" text-anchor="middle" x="292" y="-144.5" font-family="Arial" font-size="10.00">previous corpus preserved</text>
<text xml:space="preserve" text-anchor="middle" x="292" y="-132.5" font-family="Arial" font-size="10.00">if validation fails</text>
</g>
<!-- Cleanup&#45;&gt;Existing -->
<g id="edge10" class="edge">
<title>Cleanup&#45;&gt;Existing</title>
<path fill="none" stroke="black" d="M287.92,-219.96C288.63,-206.5 289.64,-187.51 290.47,-171.76"/>
<polygon fill="black" stroke="black" points="293.96,-172.18 290.99,-162.01 286.97,-171.81 293.96,-172.18"/>
</g>
<!-- Cli -->
<g id="node13" class="node">
<title>Cli</title>
<polygon fill="#efebe9" stroke="#6d4c41" points="204,-52 104,-52 104,-16 204,-16 204,-52"/>
<text xml:space="preserve" text-anchor="middle" x="154" y="-36.5" font-family="Arial" font-size="10.00">build_e5_corpus.py</text>
<text xml:space="preserve" text-anchor="middle" x="154" y="-24.5" font-family="Arial" font-size="10.00">atomic_write: True</text>
</g>
<!-- Final&#45;&gt;Cli -->
<g id="edge12" class="edge">
<title>Final&#45;&gt;Cli</title>
<path fill="none" stroke="black" d="M154,-123.97C154,-107.76 154,-83.06 154,-63.79"/>
<polygon fill="black" stroke="black" points="157.5,-63.85 154,-53.85 150.5,-63.85 157.5,-63.85"/>
</g>
<!-- Nav_Inference -->
<g id="node14" class="node">
<title>Nav_Inference</title>
<g id="a_node14"><a xlink:href="40_inference.svg" xlink:title="Inference">
<polygon fill="lightgrey" stroke="none" points="429.25,-106 372.75,-106 372.75,-70 429.25,-70 429.25,-106"/>
<text xml:space="preserve" text-anchor="middle" x="401" y="-84.5" font-family="Arial" font-size="10.00">Inference</text>
</a>
</g>
</g>
<!-- Nav_Corpus -->
<g id="node15" class="node">
<title>Nav_Corpus</title>
<g id="a_node15"><a xlink:href="50_e5_corpus.svg" xlink:title="E5 corpus">
<polygon fill="lightgrey" stroke="none" points="494.12,-106 433.88,-106 433.88,-70 494.12,-70 494.12,-106"/>
<text xml:space="preserve" text-anchor="middle" x="464" y="-84.5" font-family="Arial" font-size="10.00">E5 corpus</text>
</a>
</g>
</g>
<!-- Nav_Incremental -->
<g id="node16" class="node">
<title>Nav_Incremental</title>
<g id="a_node16"><a xlink:href="53_e5_incremental.svg" xlink:title="E5 incremental">
<polygon fill="lightgrey" stroke="none" points="580.62,-106 499.38,-106 499.38,-70 580.62,-70 580.62,-106"/>
<text xml:space="preserve" text-anchor="middle" x="540" y="-84.5" font-family="Arial" font-size="10.00">E5 incremental</text>
</a>
</g>
</g>
</g>
</svg>
