<?xml version="1.0" encoding="UTF-8" standalone="no"?>
<!DOCTYPE svg PUBLIC "-//W3C//DTD SVG 1.1//EN"
 "http://www.w3.org/Graphics/SVG/1.1/DTD/svg11.dtd">
<!-- Generated by graphviz version 14.1.3 (20260303.0454)
 -->
<!-- Title: E5CorpusBuildLock Pages: 1 -->
<svg width="898pt" height="494pt"
 viewBox="0.00 0.00 898.00 494.00" xmlns="http://www.w3.org/2000/svg" xmlns:xlink="http://www.w3.org/1999/xlink">
<g id="graph0" class="graph" transform="scale(1 1) rotate(0) translate(4 489.75)">
<title>E5CorpusBuildLock</title>
<polygon fill="white" stroke="none" points="-4,4 -4,-489.75 893.75,-489.75 893.75,4 -4,4"/>
<g id="clust1" class="cluster">
<title>cluster_target</title>
<polygon fill="#e3f2fd" stroke="#1565c0" points="8,-8 8,-193.25 272,-193.25 272,-8 8,-8"/>
<text xml:space="preserve" text-anchor="middle" x="140" y="-175.95" font-family="Times,serif" font-size="14.00">Cible</text>
</g>
<g id="clust2" class="cluster">
<title>cluster_lock</title>
<polygon fill="#fff3e0" stroke="#ef6c00" points="10,-221.75 10,-477.75 287,-477.75 287,-221.75 10,-221.75"/>
<text xml:space="preserve" text-anchor="middle" x="148.5" y="-460.45" font-family="Times,serif" font-size="14.00">Verrou exclusif</text>
</g>
<g id="clust3" class="cluster">
<title>cluster_build</title>
<polygon fill="#e8f5e9" stroke="#2e7d32" points="295,-8 295,-381.5 559,-381.5 559,-8 295,-8"/>
<text xml:space="preserve" text-anchor="middle" x="427" y="-364.2" font-family="Times,serif" font-size="14.00">Build protégé</text>
</g>
<!-- Output -->
<g id="node1" class="node">
<title>Output</title>
<polygon fill="#e3f2fd" stroke="#1565c0" points="116.12,-160 49.88,-160 49.88,-124 116.12,-124 116.12,-160"/>
<text xml:space="preserve" text-anchor="middle" x="83" y="-138.5" font-family="Arial" font-size="10.00">corpus.json</text>
</g>
<!-- LockPath -->
<g id="node2" class="node">
<title>LockPath</title>
<polygon fill="#e3f2fd" stroke="#1565c0" points="149.88,-52 16.12,-52 16.12,-16 149.88,-16 149.88,-52"/>
<text xml:space="preserve" text-anchor="middle" x="83" y="-36.5" font-family="Arial" font-size="10.00">build_e5_corpus_lock_path</text>
<text xml:space="preserve" text-anchor="middle" x="83" y="-24.5" font-family="Arial" font-size="10.00">.corpus.json.lock</text>
</g>
<!-- Output&#45;&gt;LockPath -->
<g id="edge1" class="edge">
<title>Output&#45;&gt;LockPath</title>
<path fill="none" stroke="black" d="M83,-123.97C83,-107.76 83,-83.06 83,-63.79"/>
<polygon fill="black" stroke="black" points="86.5,-63.85 83,-53.85 79.5,-63.85 86.5,-63.85"/>
</g>
<!-- TempPath -->
<g id="node3" class="node">
<title>TempPath</title>
<g id="a_node3"><a xlink:href="54_e5_atomic_build.svg" xlink:title="atomic_temp_path\n.corpus.json.tmp">
<polygon fill="#e3f2fd" stroke="#1565c0" points="264.12,-52 167.88,-52 167.88,-16 264.12,-16 264.12,-52"/>
<text xml:space="preserve" text-anchor="middle" x="216" y="-36.5" font-family="Arial" font-size="10.00">atomic_temp_path</text>
<text xml:space="preserve" text-anchor="middle" x="216" y="-24.5" font-family="Arial" font-size="10.00">.corpus.json.tmp</text>
</a>
</g>
</g>
<!-- Output&#45;&gt;TempPath -->
<g id="edge2" class="edge">
<title>Output&#45;&gt;TempPath</title>
<path fill="none" stroke="black" d="M104.66,-123.73C126.6,-106.25 160.7,-79.07 185.39,-59.4"/>
<polygon fill="black" stroke="black" points="187.52,-62.17 193.16,-53.2 183.16,-56.7 187.52,-62.17"/>
</g>
<!-- Lock -->
<g id="node4" class="node">
<title>Lock</title>
<polygon fill="#fff3e0" stroke="#ef6c00" points="188.12,-444.5 85.88,-444.5 85.88,-408.5 188.12,-408.5 188.12,-444.5"/>
<text xml:space="preserve" text-anchor="middle" x="137" y="-423" font-family="Arial" font-size="10.00">E5CorpusBuildLock</text>
</g>
<!-- Acquire -->
<g id="node5" class="node">
<title>Acquire</title>
<polygon fill="#fff3e0" stroke="#ef6c00" points="205.38,-348.25 68.62,-348.25 68.62,-312.25 205.38,-312.25 205.38,-348.25"/>
<text xml:space="preserve" text-anchor="middle" x="137" y="-332.75" font-family="Arial" font-size="10.00">acquire</text>
<text xml:space="preserve" text-anchor="middle" x="137" y="-320.75" font-family="Arial" font-size="10.00">os.O_CREAT | os.O_EXCL</text>
</g>
<!-- Lock&#45;&gt;Acquire -->
<g id="edge3" class="edge">
<title>Lock&#45;&gt;Acquire</title>
<path fill="none" stroke="black" d="M137,-408.21C137,-394.75 137,-375.76 137,-360.01"/>
<polygon fill="black" stroke="black" points="140.5,-360.26 137,-350.26 133.5,-360.26 140.5,-360.26"/>
</g>
<!-- LockInfo -->
<g id="node6" class="node">
<title>LockInfo</title>
<polygon fill="#fff3e0" stroke="#ef6c00" points="278.75,-265.75 159.25,-265.75 159.25,-229.75 278.75,-229.75 278.75,-265.75"/>
<text xml:space="preserve" text-anchor="middle" x="219" y="-250.25" font-family="Arial" font-size="10.00">E5CorpusBuildLockInfo</text>
<text xml:space="preserve" text-anchor="middle" x="219" y="-238.25" font-family="Arial" font-size="10.00">pid + target + lock_path</text>
</g>
<!-- Acquire&#45;&gt;LockInfo -->
<g id="edge4" class="edge">
<title>Acquire&#45;&gt;LockInfo</title>
<path fill="none" stroke="black" d="M154.79,-311.78C165.97,-300.81 180.57,-286.47 193.03,-274.25"/>
<polygon fill="black" stroke="black" points="195.48,-276.75 200.16,-267.24 190.57,-271.75 195.48,-276.75"/>
<text xml:space="preserve" text-anchor="middle" x="187.78" y="-285.7" font-family="Arial" font-size="9.00">ok</text>
</g>
<!-- Reject -->
<g id="node7" class="node">
<title>Reject</title>
<polygon fill="#fff3e0" stroke="#ef6c00" points="141.62,-265.75 18.38,-265.75 18.38,-229.75 141.62,-229.75 141.62,-265.75"/>
<text xml:space="preserve" text-anchor="middle" x="80" y="-250.25" font-family="Arial" font-size="10.00">E5CorpusBuildLockError</text>
<text xml:space="preserve" text-anchor="middle" x="80" y="-238.25" font-family="Arial" font-size="10.00">existing lock</text>
</g>
<!-- Acquire&#45;&gt;Reject -->
<g id="edge5" class="edge">
<title>Acquire&#45;&gt;Reject</title>
<path fill="none" stroke="black" d="M124.63,-311.78C117.09,-301.13 107.3,-287.3 98.81,-275.31"/>
<polygon fill="black" stroke="black" points="101.85,-273.56 93.22,-267.42 96.14,-277.6 101.85,-273.56"/>
<text xml:space="preserve" text-anchor="middle" x="123.54" y="-285.7" font-family="Arial" font-size="9.00">exists</text>
</g>
<!-- Sources -->
<g id="node9" class="node">
<title>Sources</title>
<polygon fill="#e8f5e9" stroke="#2e7d32" points="420.75,-348.25 325.25,-348.25 325.25,-312.25 420.75,-312.25 420.75,-348.25"/>
<text xml:space="preserve" text-anchor="middle" x="373" y="-326.75" font-family="Arial" font-size="10.00">sources/passages</text>
</g>
<!-- LockInfo&#45;&gt;Sources -->
<g id="edge6" class="edge">
<title>LockInfo&#45;&gt;Sources</title>
<path fill="none" stroke="black" stroke-dasharray="5,2" d="M252.35,-266.18C274.94,-277.99 305.01,-293.71 329.48,-306.5"/>
<polygon fill="black" stroke="black" points="327.76,-309.55 338.24,-311.08 331,-303.35 327.76,-309.55"/>
<text xml:space="preserve" text-anchor="middle" x="327.35" y="-285.7" font-family="Arial" font-size="9.00">build starts</text>
</g>
<!-- Reject&#45;&gt;Output -->
<g id="edge14" class="edge">
<title>Reject&#45;&gt;Output</title>
<path fill="none" stroke="black" stroke-dasharray="1,5" d="M80.5,-229.62C80.95,-213.85 81.64,-190.15 82.18,-171.53"/>
<polygon fill="black" stroke="black" points="85.67,-171.77 82.46,-161.67 78.67,-171.57 85.67,-171.77"/>
<text xml:space="preserve" text-anchor="middle" x="104.48" y="-203.2" font-family="Arial" font-size="9.00">unchanged</text>
</g>
<!-- Release -->
<g id="node8" class="node">
<title>Release</title>
<polygon fill="#fff3e0" stroke="#ef6c00" points="279.25,-444.5 216.75,-444.5 216.75,-408.5 279.25,-408.5 279.25,-444.5"/>
<text xml:space="preserve" text-anchor="middle" x="248" y="-429" font-family="Arial" font-size="10.00">release</text>
<text xml:space="preserve" text-anchor="middle" x="248" y="-417" font-family="Arial" font-size="10.00">unlink lock</text>
</g>
<!-- Incremental -->
<g id="node10" class="node">
<title>Incremental</title>
<g id="a_node10"><a xlink:href="53_e5_incremental.svg" xlink:title="E5IncrementalCorpusBuilder">
<polygon fill="#e8f5e9" stroke="#2e7d32" points="443.25,-265.75 302.75,-265.75 302.75,-229.75 443.25,-229.75 443.25,-265.75"/>
<text xml:space="preserve" text-anchor="middle" x="373" y="-244.25" font-family="Arial" font-size="10.00">E5IncrementalCorpusBuilder</text>
</a>
</g>
</g>
<!-- Sources&#45;&gt;Incremental -->
<g id="edge8" class="edge">
<title>Sources&#45;&gt;Incremental</title>
<path fill="none" stroke="black" stroke-dasharray="5,2" d="M373,-311.78C373,-301.76 373,-288.93 373,-277.46"/>
<polygon fill="black" stroke="black" points="376.5,-277.7 373,-267.7 369.5,-277.7 376.5,-277.7"/>
<text xml:space="preserve" text-anchor="middle" x="400.38" y="-285.7" font-family="Arial" font-size="9.00">&#45;&#45;reuse&#45;index</text>
</g>
<!-- Builder -->
<g id="node11" class="node">
<title>Builder</title>
<g id="a_node11"><a xlink:href="50_e5_corpus.svg" xlink:title="E5CorpusBuilder">
<polygon fill="#e8f5e9" stroke="#2e7d32" points="550.75,-265.75 461.25,-265.75 461.25,-229.75 550.75,-229.75 550.75,-265.75"/>
<text xml:space="preserve" text-anchor="middle" x="506" y="-244.25" font-family="Arial" font-size="10.00">E5CorpusBuilder</text>
</a>
</g>
</g>
<!-- Sources&#45;&gt;Builder -->
<g id="edge7" class="edge">
<title>Sources&#45;&gt;Builder</title>
<path fill="none" stroke="black" d="M402.47,-311.89C411.92,-306.29 422.42,-300.04 432,-294.25 443.9,-287.06 456.83,-279.15 468.5,-271.97"/>
<polygon fill="black" stroke="black" points="469.99,-275.16 476.66,-266.93 466.31,-269.2 469.99,-275.16"/>
</g>
<!-- Atomic -->
<g id="node12" class="node">
<title>Atomic</title>
<g id="a_node12"><a xlink:href="54_e5_atomic_build.svg" xlink:title="write_atomic">
<polygon fill="#e8f5e9" stroke="#2e7d32" points="431.75,-160 360.25,-160 360.25,-124 431.75,-124 431.75,-160"/>
<text xml:space="preserve" text-anchor="middle" x="396" y="-138.5" font-family="Arial" font-size="10.00">write_atomic</text>
</a>
</g>
</g>
<!-- Incremental&#45;&gt;Atomic -->
<g id="edge10" class="edge">
<title>Incremental&#45;&gt;Atomic</title>
<path fill="none" stroke="black" d="M376.8,-229.62C380.31,-213.77 385.6,-189.93 389.73,-171.26"/>
<polygon fill="black" stroke="black" points="393.12,-172.16 391.87,-161.64 386.29,-170.64 393.12,-172.16"/>
</g>
<!-- Builder&#45;&gt;Atomic -->
<g id="edge9" class="edge">
<title>Builder&#45;&gt;Atomic</title>
<path fill="none" stroke="black" d="M487.84,-229.62C470,-212.8 442.61,-186.96 422.37,-167.88"/>
<polygon fill="black" stroke="black" points="424.97,-165.51 415.29,-161.2 420.17,-170.6 424.97,-165.51"/>
</g>
<!-- Atomic&#45;&gt;TempPath -->
<g id="edge11" class="edge">
<title>Atomic&#45;&gt;TempPath</title>
<path fill="none" stroke="black" stroke-dasharray="1,5" d="M366.68,-123.73C336.31,-105.85 288.67,-77.8 255.11,-58.03"/>
<polygon fill="black" stroke="black" points="257.3,-55.26 246.91,-53.2 253.75,-61.29 257.3,-55.26"/>
</g>
<!-- Final -->
<g id="node13" class="node">
<title>Final</title>
<polygon fill="#e8f5e9" stroke="#2e7d32" points="543.12,-52 434.88,-52 434.88,-16 543.12,-16 543.12,-52"/>
<text xml:space="preserve" text-anchor="middle" x="489" y="-30.5" font-family="Arial" font-size="10.00">validated corpus.json</text>
</g>
<!-- Atomic&#45;&gt;Final -->
<g id="edge12" class="edge">
<title>Atomic&#45;&gt;Final</title>
<path fill="none" stroke="black" d="M410.94,-123.97C425.9,-106.92 449.12,-80.46 466.34,-60.82"/>
<polygon fill="black" stroke="black" points="468.82,-63.3 472.79,-53.48 463.56,-58.69 468.82,-63.3"/>
<text xml:space="preserve" text-anchor="middle" x="491.51" y="-84.7" font-family="Arial" font-size="9.00">validated replace</text>
</g>
<!-- Final&#45;&gt;Release -->
<g id="edge13" class="edge">
<title>Final&#45;&gt;Release</title>
<path fill="none" stroke="black" d="M517.48,-52.24C543.84,-70.62 579,-102.37 579,-141 579,-331.25 579,-331.25 579,-331.25 579,-390.43 380.78,-414.46 291.13,-422.3"/>
<polygon fill="black" stroke="black" points="290.92,-418.81 281.25,-423.13 291.5,-425.78 290.92,-418.81"/>
</g>
<!-- Nav_Inference -->
<g id="node14" class="node">
<title>Nav_Inference</title>
<g id="a_node14"><a xlink:href="40_inference.svg" xlink:title="Inference">
<polygon fill="lightgrey" stroke="none" points="650.25,-106 593.75,-106 593.75,-70 650.25,-70 650.25,-106"/>
<text xml:space="preserve" text-anchor="middle" x="622" y="-84.5" font-family="Arial" font-size="10.00">Inference</text>
</a>
</g>
</g>
<!-- Nav_Corpus -->
<g id="node15" class="node">
<title>Nav_Corpus</title>
<g id="a_node15"><a xlink:href="50_e5_corpus.svg" xlink:title="E5 corpus">
<polygon fill="lightgrey" stroke="none" points="715.12,-106 654.88,-106 654.88,-70 715.12,-70 715.12,-106"/>
<text xml:space="preserve" text-anchor="middle" x="685" y="-84.5" font-family="Arial" font-size="10.00">E5 corpus</text>
</a>
</g>
</g>
<!-- Nav_Incremental -->
<g id="node16" class="node">
<title>Nav_Incremental</title>
<g id="a_node16"><a xlink:href="53_e5_incremental.svg" xlink:title="E5 incremental">
<polygon fill="lightgrey" stroke="none" points="801.62,-106 720.38,-106 720.38,-70 801.62,-70 801.62,-106"/>
<text xml:space="preserve" text-anchor="middle" x="761" y="-84.5" font-family="Arial" font-size="10.00">E5 incremental</text>
</a>
</g>
</g>
<!-- Nav_Atomic -->
<g id="node17" class="node">
<title>Nav_Atomic</title>
<g id="a_node17"><a xlink:href="54_e5_atomic_build.svg" xlink:title="E5 atomic build">
<polygon fill="lightgrey" stroke="none" points="889.75,-106 806.25,-106 806.25,-70 889.75,-70 889.75,-106"/>
<text xml:space="preserve" text-anchor="middle" x="848" y="-84.5" font-family="Arial" font-size="10.00">E5 atomic build</text>
</a>
</g>
</g>
</g>
</svg>
