<?xml version="1.0" encoding="UTF-8" standalone="no"?>
<!DOCTYPE svg PUBLIC "-//W3C//DTD SVG 1.1//EN"
 "http://www.w3.org/Graphics/SVG/1.1/DTD/svg11.dtd">
<!-- Generated by graphviz version 14.1.3 (20260303.0454)
 -->
<!-- Title: E5SafeRebuild Pages: 1 -->
<svg width="869pt" height="649pt"
 viewBox="0.00 0.00 869.00 649.00" xmlns="http://www.w3.org/2000/svg" xmlns:xlink="http://www.w3.org/1999/xlink">
<g id="graph0" class="graph" transform="scale(1 1) rotate(0) translate(4 645.25)">
<title>E5SafeRebuild</title>
<polygon fill="white" stroke="none" points="-4,4 -4,-645.25 865.12,-645.25 865.12,4 -4,4"/>
<g id="clust1" class="cluster">
<title>cluster_inputs</title>
<polygon fill="#e3f2fd" stroke="#1565c0" points="8,-556 8,-633.25 490,-633.25 490,-556 8,-556"/>
<text xml:space="preserve" text-anchor="middle" x="249" y="-615.95" font-family="Times,serif" font-size="14.00">Entrées</text>
</g>
<g id="clust2" class="cluster">
<title>cluster_guard</title>
<polygon fill="#fff3e0" stroke="#ef6c00" points="401,-367.75 401,-527.5 541,-527.5 541,-367.75 401,-367.75"/>
<text xml:space="preserve" text-anchor="middle" x="471" y="-510.2" font-family="Times,serif" font-size="14.00">Protection</text>
</g>
<g id="clust3" class="cluster">
<title>cluster_candidate</title>
<polygon fill="#e8f5e9" stroke="#2e7d32" points="129,-294.75 129,-527.5 393,-527.5 393,-294.75 129,-294.75"/>
<text xml:space="preserve" text-anchor="middle" x="261" y="-510.2" font-family="Times,serif" font-size="14.00">Candidat</text>
</g>
<g id="clust4" class="cluster">
<title>cluster_validation</title>
<polygon fill="#efebe9" stroke="#6d4c41" points="38,-8 38,-266.25 242,-266.25 242,-8 38,-8"/>
<text xml:space="preserve" text-anchor="middle" x="140" y="-248.95" font-family="Times,serif" font-size="14.00">Validation + promotion</text>
</g>
<!-- Sources -->
<g id="node1" class="node">
<title>Sources</title>
<g id="a_node1"><a xlink:href="51_e5_sources.svg" xlink:title="sources / passages">
<polygon fill="#e3f2fd" stroke="#1565c0" points="365.75,-600 264.25,-600 264.25,-564 365.75,-564 365.75,-600"/>
<text xml:space="preserve" text-anchor="middle" x="315" y="-578.5" font-family="Arial" font-size="10.00">sources / passages</text>
</a>
</g>
</g>
<!-- Incremental -->
<g id="node7" class="node">
<title>Incremental</title>
<g id="a_node7"><a xlink:href="53_e5_incremental.svg" xlink:title="E5IncrementalCorpusBuilder">
<polygon fill="#e8f5e9" stroke="#2e7d32" points="385.25,-494.25 244.75,-494.25 244.75,-458.25 385.25,-458.25 385.25,-494.25"/>
<text xml:space="preserve" text-anchor="middle" x="315" y="-472.75" font-family="Arial" font-size="10.00">E5IncrementalCorpusBuilder</text>
</a>
</g>
</g>
<!-- Sources&#45;&gt;Incremental -->
<g id="edge4" class="edge">
<title>Sources&#45;&gt;Incremental</title>
<path fill="none" stroke="black" d="M315,-563.87C315,-548.1 315,-524.4 315,-505.78"/>
<polygon fill="black" stroke="black" points="318.5,-505.92 315,-495.92 311.5,-505.92 318.5,-505.92"/>
<text xml:space="preserve" text-anchor="middle" x="342" y="-537.45" font-family="Arial" font-size="9.00">with previous</text>
</g>
<!-- Builder -->
<g id="node8" class="node">
<title>Builder</title>
<g id="a_node8"><a xlink:href="50_e5_corpus.svg" xlink:title="E5CorpusBuilder">
<polygon fill="#e8f5e9" stroke="#2e7d32" points="226.75,-494.25 137.25,-494.25 137.25,-458.25 226.75,-458.25 226.75,-494.25"/>
<text xml:space="preserve" text-anchor="middle" x="182" y="-472.75" font-family="Arial" font-size="10.00">E5CorpusBuilder</text>
</a>
</g>
</g>
<!-- Sources&#45;&gt;Builder -->
<g id="edge3" class="edge">
<title>Sources&#45;&gt;Builder</title>
<path fill="none" stroke="black" d="M289.05,-563.6C280.72,-557.99 271.46,-551.75 263,-546 250.97,-537.83 247.36,-536.59 236,-527.5 226.4,-519.82 216.41,-510.83 207.67,-502.6"/>
<polygon fill="black" stroke="black" points="210.14,-500.12 200.5,-495.74 205.3,-505.18 210.14,-500.12"/>
<text xml:space="preserve" text-anchor="middle" x="287" y="-537.45" font-family="Arial" font-size="9.00">no previous</text>
</g>
<!-- Target -->
<g id="node2" class="node">
<title>Target</title>
<polygon fill="#e3f2fd" stroke="#1565c0" points="482.25,-600 383.75,-600 383.75,-564 482.25,-564 482.25,-600"/>
<text xml:space="preserve" text-anchor="middle" x="433" y="-578.5" font-family="Arial" font-size="10.00">&#45;&#45;index corpus.json</text>
</g>
<!-- Lock -->
<g id="node5" class="node">
<title>Lock</title>
<g id="a_node5"><a xlink:href="55_e5_build_lock.svg" xlink:title="E5CorpusBuildLock">
<polygon fill="#fff3e0" stroke="#ef6c00" points="522.12,-494.25 419.88,-494.25 419.88,-458.25 522.12,-458.25 522.12,-494.25"/>
<text xml:space="preserve" text-anchor="middle" x="471" y="-472.75" font-family="Arial" font-size="10.00">E5CorpusBuildLock</text>
</a>
</g>
</g>
<!-- Target&#45;&gt;Lock -->
<g id="edge1" class="edge">
<title>Target&#45;&gt;Lock</title>
<path fill="none" stroke="black" d="M439.27,-563.87C445.13,-547.87 453.98,-523.72 460.84,-504.98"/>
<polygon fill="black" stroke="black" points="464.04,-506.42 464.2,-495.83 457.47,-504.02 464.04,-506.42"/>
</g>
<!-- Staging -->
<g id="node3" class="node">
<title>Staging</title>
<polygon fill="#e3f2fd" stroke="#1565c0" points="245.88,-600 124.12,-600 124.12,-564 245.88,-564 245.88,-600"/>
<text xml:space="preserve" text-anchor="middle" x="185" y="-584.5" font-family="Arial" font-size="10.00">&#45;&#45;staging optionnel</text>
<text xml:space="preserve" text-anchor="middle" x="185" y="-572.5" font-family="Arial" font-size="10.00">.corpus.json.rebuild.json</text>
</g>
<!-- WriteAtomic -->
<g id="node9" class="node">
<title>WriteAtomic</title>
<g id="a_node9"><a xlink:href="54_e5_atomic_build.svg" xlink:title="write_atomic(staging)">
<polygon fill="#e8f5e9" stroke="#2e7d32" points="248.5,-411.75 139.5,-411.75 139.5,-375.75 248.5,-375.75 248.5,-411.75"/>
<text xml:space="preserve" text-anchor="middle" x="194" y="-390.25" font-family="Arial" font-size="10.00">write_atomic(staging)</text>
</a>
</g>
</g>
<!-- Staging&#45;&gt;WriteAtomic -->
<g id="edge8" class="edge">
<title>Staging&#45;&gt;WriteAtomic</title>
<path fill="none" stroke="black" d="M158.41,-563.7C146.76,-554.5 134.31,-542.07 128,-527.5 115.77,-499.26 115.95,-486.57 128,-458.25 134.46,-443.06 146.54,-429.75 158.61,-419.29"/>
<polygon fill="black" stroke="black" points="160.6,-422.18 166.14,-413.15 156.18,-416.75 160.6,-422.18"/>
</g>
<!-- ValidationQuery -->
<g id="node4" class="node">
<title>ValidationQuery</title>
<polygon fill="#e3f2fd" stroke="#1565c0" points="106.12,-600 15.88,-600 15.88,-564 106.12,-564 106.12,-600"/>
<text xml:space="preserve" text-anchor="middle" x="61" y="-584.5" font-family="Arial" font-size="10.00">&#45;&#45;validation&#45;query</text>
<text xml:space="preserve" text-anchor="middle" x="61" y="-572.5" font-family="Arial" font-size="10.00">optionnel</text>
</g>
<!-- Searcher -->
<g id="node11" class="node">
<title>Searcher</title>
<g id="a_node11"><a xlink:href="50_e5_corpus.svg" xlink:title="E5CorpusSearcher\nvalidation query">
<polygon fill="#efebe9" stroke="#6d4c41" points="144.25,-233 45.75,-233 45.75,-197 144.25,-197 144.25,-233"/>
<text xml:space="preserve" text-anchor="middle" x="95" y="-217.5" font-family="Arial" font-size="10.00">E5CorpusSearcher</text>
<text xml:space="preserve" text-anchor="middle" x="95" y="-205.5" font-family="Arial" font-size="10.00">validation query</text>
</a>
</g>
</g>
<!-- ValidationQuery&#45;&gt;Searcher -->
<g id="edge11" class="edge">
<title>ValidationQuery&#45;&gt;Searcher</title>
<path fill="none" stroke="black" d="M62.07,-563.75C63.26,-543.17 65,-507.71 65,-477.25 65,-477.25 65,-477.25 65,-319.75 65,-293.17 74.2,-264.22 82.41,-243.67"/>
<polygon fill="black" stroke="black" points="85.58,-245.16 86.22,-234.58 79.12,-242.45 85.58,-245.16"/>
</g>
<!-- Previous -->
<g id="node6" class="node">
<title>Previous</title>
<g id="a_node6"><a xlink:href="50_e5_corpus.svg" xlink:title="previous E5CorpusIndex\nsi &#45;&#45;index existe">
<polygon fill="#fff3e0" stroke="#ef6c00" points="532.62,-411.75 409.38,-411.75 409.38,-375.75 532.62,-375.75 532.62,-411.75"/>
<text xml:space="preserve" text-anchor="middle" x="471" y="-396.25" font-family="Arial" font-size="10.00">previous E5CorpusIndex</text>
<text xml:space="preserve" text-anchor="middle" x="471" y="-384.25" font-family="Arial" font-size="10.00">si &#45;&#45;index existe</text>
</a>
</g>
</g>
<!-- Lock&#45;&gt;Previous -->
<g id="edge2" class="edge">
<title>Lock&#45;&gt;Previous</title>
<path fill="none" stroke="black" d="M471,-457.78C471,-447.76 471,-434.93 471,-423.46"/>
<polygon fill="black" stroke="black" points="474.5,-423.7 471,-413.7 467.5,-423.7 474.5,-423.7"/>
<text xml:space="preserve" text-anchor="middle" x="498.75" y="-431.7" font-family="Arial" font-size="9.00">guarded read</text>
</g>
<!-- Previous&#45;&gt;Incremental -->
<g id="edge5" class="edge">
<title>Previous&#45;&gt;Incremental</title>
<path fill="none" stroke="black" d="M437.22,-412.18C414.23,-424.04 383.6,-439.85 358.76,-452.67"/>
<polygon fill="black" stroke="black" points="357.48,-449.39 350.19,-457.09 360.69,-455.61 357.48,-449.39"/>
</g>
<!-- Incremental&#45;&gt;WriteAtomic -->
<g id="edge7" class="edge">
<title>Incremental&#45;&gt;WriteAtomic</title>
<path fill="none" stroke="black" d="M288.74,-457.78C271.46,-446.28 248.62,-431.09 229.69,-418.5"/>
<polygon fill="black" stroke="black" points="231.73,-415.65 221.46,-413.02 227.85,-421.47 231.73,-415.65"/>
</g>
<!-- Builder&#45;&gt;WriteAtomic -->
<g id="edge6" class="edge">
<title>Builder&#45;&gt;WriteAtomic</title>
<path fill="none" stroke="black" d="M184.6,-457.78C186.1,-447.76 188.01,-434.93 189.72,-423.46"/>
<polygon fill="black" stroke="black" points="193.17,-424.09 191.18,-413.68 186.24,-423.05 193.17,-424.09"/>
</g>
<!-- Candidate -->
<g id="node10" class="node">
<title>Candidate</title>
<polygon fill="#e8f5e9" stroke="#2e7d32" points="258.88,-338.75 137.12,-338.75 137.12,-302.75 258.88,-302.75 258.88,-338.75"/>
<text xml:space="preserve" text-anchor="middle" x="198" y="-323.25" font-family="Arial" font-size="10.00">candidate corpus</text>
<text xml:space="preserve" text-anchor="middle" x="198" y="-311.25" font-family="Arial" font-size="10.00">re&#45;read + schema check</text>
</g>
<!-- WriteAtomic&#45;&gt;Candidate -->
<g id="edge9" class="edge">
<title>WriteAtomic&#45;&gt;Candidate</title>
<path fill="none" stroke="black" d="M194.97,-375.56C195.4,-367.89 195.92,-358.64 196.41,-349.99"/>
<polygon fill="black" stroke="black" points="199.89,-350.47 196.96,-340.29 192.9,-350.08 199.89,-350.47"/>
</g>
<!-- Candidate&#45;&gt;Searcher -->
<g id="edge10" class="edge">
<title>Candidate&#45;&gt;Searcher</title>
<path fill="none" stroke="black" d="M145.25,-302.38C136.42,-297.71 127.97,-291.9 121.25,-284.75 110.73,-273.54 104.3,-257.69 100.44,-244.02"/>
<polygon fill="black" stroke="black" points="103.93,-243.55 98.13,-234.68 97.13,-245.23 103.93,-243.55"/>
<text xml:space="preserve" text-anchor="middle" x="157.62" y="-276.2" font-family="Arial" font-size="9.00">if validation&#45;query</text>
</g>
<!-- Promote -->
<g id="node12" class="node">
<title>Promote</title>
<polygon fill="#efebe9" stroke="#6d4c41" points="233.62,-125 122.38,-125 122.38,-89 233.62,-89 233.62,-125"/>
<text xml:space="preserve" text-anchor="middle" x="178" y="-103.5" font-family="Arial" font-size="10.00">staging.replace(index)</text>
</g>
<!-- Candidate&#45;&gt;Promote -->
<g id="edge13" class="edge">
<title>Candidate&#45;&gt;Promote</title>
<path fill="none" stroke="black" d="M217.91,-302.55C227.47,-292.96 237.93,-280.16 243,-266.25 253.54,-237.33 252.55,-226.26 243,-197 235.17,-172.99 218.13,-150.08 203.47,-133.52"/>
<polygon fill="black" stroke="black" points="206.44,-131.58 197.1,-126.58 201.28,-136.31 206.44,-131.58"/>
<text xml:space="preserve" text-anchor="middle" x="289.54" y="-211.7" font-family="Arial" font-size="9.00">no validation query</text>
</g>
<!-- DryRun -->
<g id="node13" class="node">
<title>DryRun</title>
<polygon fill="#efebe9" stroke="#6d4c41" points="234.12,-233 161.88,-233 161.88,-197 234.12,-197 234.12,-233"/>
<text xml:space="preserve" text-anchor="middle" x="198" y="-217.5" font-family="Arial" font-size="10.00">&#45;&#45;dry&#45;run</text>
<text xml:space="preserve" text-anchor="middle" x="198" y="-205.5" font-family="Arial" font-size="10.00">no promotion</text>
</g>
<!-- Candidate&#45;&gt;DryRun -->
<g id="edge14" class="edge">
<title>Candidate&#45;&gt;DryRun</title>
<path fill="none" stroke="black" stroke-dasharray="5,2" d="M198,-302.62C198,-286.85 198,-263.15 198,-244.53"/>
<polygon fill="black" stroke="black" points="201.5,-244.67 198,-234.67 194.5,-244.67 201.5,-244.67"/>
</g>
<!-- Searcher&#45;&gt;Promote -->
<g id="edge12" class="edge">
<title>Searcher&#45;&gt;Promote</title>
<path fill="none" stroke="black" d="M108.34,-196.97C121.57,-180.07 142.03,-153.94 157.36,-134.36"/>
<polygon fill="black" stroke="black" points="160.08,-136.56 163.49,-126.53 154.57,-132.25 160.08,-136.56"/>
<text xml:space="preserve" text-anchor="middle" x="153.66" y="-157.7" font-family="Arial" font-size="9.00">ok</text>
</g>
<!-- Final -->
<g id="node14" class="node">
<title>Final</title>
<polygon fill="#efebe9" stroke="#6d4c41" points="227.62,-52 140.38,-52 140.38,-16 227.62,-16 227.62,-52"/>
<text xml:space="preserve" text-anchor="middle" x="184" y="-30.5" font-family="Arial" font-size="10.00">corpus.json final</text>
</g>
<!-- Promote&#45;&gt;Final -->
<g id="edge15" class="edge">
<title>Promote&#45;&gt;Final</title>
<path fill="none" stroke="black" d="M179.45,-88.81C180.1,-81.14 180.88,-71.89 181.61,-63.24"/>
<polygon fill="black" stroke="black" points="185.08,-63.8 182.43,-53.54 178.1,-63.21 185.08,-63.8"/>
</g>
<!-- Final&#45;&gt;Lock -->
<g id="edge16" class="edge">
<title>Final&#45;&gt;Lock</title>
<path fill="none" stroke="black" stroke-dasharray="1,5" d="M227.98,-34.16C327.43,-33.44 561,-38.9 561,-106 561,-394.75 561,-394.75 561,-394.75 561,-419.54 541.79,-438.61 521.12,-451.95"/>
<polygon fill="black" stroke="black" points="519.34,-448.94 512.56,-457.08 522.94,-454.94 519.34,-448.94"/>
<text xml:space="preserve" text-anchor="middle" x="576.38" y="-276.2" font-family="Arial" font-size="9.00">release</text>
</g>
<!-- Nav_Inference -->
<g id="node15" class="node">
<title>Nav_Inference</title>
<g id="a_node15"><a xlink:href="40_inference.svg" xlink:title="Inference">
<polygon fill="lightgrey" stroke="none" points="632.25,-179 575.75,-179 575.75,-143 632.25,-143 632.25,-179"/>
<text xml:space="preserve" text-anchor="middle" x="604" y="-157.5" font-family="Arial" font-size="10.00">Inference</text>
</a>
</g>
</g>
<!-- Nav_Corpus -->
<g id="node16" class="node">
<title>Nav_Corpus</title>
<g id="a_node16"><a xlink:href="50_e5_corpus.svg" xlink:title="E5 corpus">
<polygon fill="lightgrey" stroke="none" points="697.12,-179 636.88,-179 636.88,-143 697.12,-143 697.12,-179"/>
<text xml:space="preserve" text-anchor="middle" x="667" y="-157.5" font-family="Arial" font-size="10.00">E5 corpus</text>
</a>
</g>
</g>
<!-- Nav_Incremental -->
<g id="node17" class="node">
<title>Nav_Incremental</title>
<g id="a_node17"><a xlink:href="53_e5_incremental.svg" xlink:title="E5 incremental">
<polygon fill="lightgrey" stroke="none" points="783.62,-179 702.38,-179 702.38,-143 783.62,-143 783.62,-179"/>
<text xml:space="preserve" text-anchor="middle" x="743" y="-157.5" font-family="Arial" font-size="10.00">E5 incremental</text>
</a>
</g>
</g>
<!-- Nav_Lock -->
<g id="node18" class="node">
<title>Nav_Lock</title>
<g id="a_node18"><a xlink:href="55_e5_build_lock.svg" xlink:title="E5 build lock">
<polygon fill="lightgrey" stroke="none" points="861.12,-179 788.88,-179 788.88,-143 861.12,-143 861.12,-179"/>
<text xml:space="preserve" text-anchor="middle" x="825" y="-157.5" font-family="Arial" font-size="10.00">E5 build lock</text>
</a>
</g>
</g>
</g>
</svg>
