<?xml version="1.0" encoding="UTF-8" standalone="no"?>
<!DOCTYPE svg PUBLIC "-//W3C//DTD SVG 1.1//EN"
 "http://www.w3.org/Graphics/SVG/1.1/DTD/svg11.dtd">
<!-- Generated by graphviz version 14.1.3 (20260303.0454)
 -->
<!-- Title: E5ScoreGuard Pages: 1 -->
<svg width="1474pt" height="890pt"
 viewBox="0.00 0.00 1474.00 890.00" xmlns="http://www.w3.org/2000/svg" xmlns:xlink="http://www.w3.org/1999/xlink">
<g id="graph0" class="graph" transform="scale(1 1) rotate(0) translate(18 872)">
<title>E5ScoreGuard</title>
<polygon fill="white" stroke="none" points="-18,18 -18,-872 1455.64,-872 1455.64,18 -18,18"/>
<text xml:space="preserve" text-anchor="middle" x="718.82" y="-840.5" font-family="Arial" font-size="10.00">Phase 4.3 — E5 local search score guard</text>
<g id="clust1" class="cluster">
<title>cluster_cli</title>
<polygon fill="#e3f2fd" stroke="#1565c0" stroke-width="1.5" points="119.48,-156 119.48,-432 534.43,-432 534.43,-156 119.48,-156"/>
<text xml:space="preserve" text-anchor="middle" x="326.96" y="-418.5" font-family="Arial" font-size="10.00">CLI développeur</text>
</g>
<g id="clust2" class="cluster">
<title>cluster_engine</title>
<polygon fill="#e8f5e9" stroke="#2e7d32" stroke-width="1.5" points="398.6,-440 398.6,-587 1245.81,-587 1245.81,-440 398.6,-440"/>
<text xml:space="preserve" text-anchor="middle" x="822.2" y="-573.5" font-family="Arial" font-size="10.00">Moteur local</text>
</g>
<g id="clust3" class="cluster">
<title>cluster_guard</title>
<polygon fill="#fce4ec" stroke="#ad1457" stroke-width="1.7" points="110.11,-8 110.11,-148 755.05,-148 755.05,-8 110.11,-8"/>
<text xml:space="preserve" text-anchor="middle" x="432.58" y="-134.5" font-family="Arial" font-size="10.00">Garde&#45;fou inclusif</text>
</g>
<g id="clust4" class="cluster">
<title>cluster_output</title>
<polygon fill="#efebe9" stroke="#6d4c41" stroke-width="1.5" points="873.3,-8 873.3,-148 1409.39,-148 1409.39,-8 873.3,-8"/>
<text xml:space="preserve" text-anchor="middle" x="1141.35" y="-134.5" font-family="Arial" font-size="10.00">Sorties</text>
</g>
<g id="clust5" class="cluster">
<title>cluster_scope</title>
<polygon fill="#fafafa" stroke="#78909c" points="883.8,-595 883.8,-667 1429.64,-667 1429.64,-595 883.8,-595"/>
<text xml:space="preserve" text-anchor="middle" x="1156.72" y="-653.5" font-family="Arial" font-size="10.00">Hors périmètre</text>
</g>
<!-- Query -->
<g id="node1" class="node">
<title>Query</title>
<path fill="#e3f2fd" stroke="#1565c0" d="M209.07,-200C209.07,-200 151.11,-200 151.11,-200 145.11,-200 139.11,-194 139.11,-188 139.11,-188 139.11,-176 139.11,-176 139.11,-170 145.11,-164 151.11,-164 151.11,-164 209.07,-164 209.07,-164 215.07,-164 221.07,-170 221.07,-176 221.07,-176 221.07,-188 221.07,-188 221.07,-194 215.07,-200 209.07,-200"/>
<text xml:space="preserve" text-anchor="middle" x="180.09" y="-184.5" font-family="Arial" font-size="10.00">query utilisateur</text>
<text xml:space="preserve" text-anchor="middle" x="180.09" y="-172.5" font-family="Arial" font-size="10.00">role query:</text>
</g>
<!-- Cli -->
<g id="node5" class="node">
<title>Cli</title>
<path fill="#e3f2fd" stroke="#1565c0" d="M514.43,-268C514.43,-268 432.47,-268 432.47,-268 426.47,-268 420.47,-262 420.47,-256 420.47,-256 420.47,-244 420.47,-244 420.47,-238 426.47,-232 432.47,-232 432.47,-232 514.43,-232 514.43,-232 520.43,-232 526.43,-238 526.43,-244 526.43,-244 526.43,-256 526.43,-256 526.43,-262 520.43,-268 514.43,-268"/>
<text xml:space="preserve" text-anchor="middle" x="473.45" y="-252.5" font-family="Arial" font-size="10.00">search_e5_corpus.py</text>
<text xml:space="preserve" text-anchor="middle" x="473.45" y="-240.5" font-family="Arial" font-size="10.00">validation arguments</text>
</g>
<!-- Query&#45;&gt;Cli -->
<g id="edge1" class="edge">
<title>Query&#45;&gt;Cli</title>
<path fill="none" stroke="#455a64" d="M214.81,-200.41C223.72,-205.38 233.3,-210.82 242.07,-216 252.89,-222.4 254.15,-226.98 266.07,-231 279.52,-235.54 354.87,-241.7 410.66,-245.76"/>
<polygon fill="#455a64" stroke="#455a64" points="410.43,-248.56 418.62,-246.34 410.84,-242.97 410.43,-248.56"/>
</g>
<!-- Index -->
<g id="node2" class="node">
<title>Index</title>
<g id="a_node2"><a xlink:href="50_e5_corpus.svg" xlink:title="&#45;&#45;index corpus.json\nmissipy.e5.corpus.v1">
<path fill="#e3f2fd" stroke="#1565c0" d="M220.69,-404C220.69,-404 139.48,-404 139.48,-404 133.48,-404 127.48,-398 127.48,-392 127.48,-392 127.48,-380 127.48,-380 127.48,-374 133.48,-368 139.48,-368 139.48,-368 220.69,-368 220.69,-368 226.69,-368 232.69,-374 232.69,-380 232.69,-380 232.69,-392 232.69,-392 232.69,-398 226.69,-404 220.69,-404"/>
<text xml:space="preserve" text-anchor="middle" x="180.09" y="-388.5" font-family="Arial" font-size="10.00">&#45;&#45;index corpus.json</text>
<text xml:space="preserve" text-anchor="middle" x="180.09" y="-376.5" font-family="Arial" font-size="10.00">missipy.e5.corpus.v1</text>
</a>
</g>
</g>
<!-- Index&#45;&gt;Cli -->
<g id="edge2" class="edge">
<title>Index&#45;&gt;Cli</title>
<path fill="none" stroke="#455a64" d="M220.68,-367.52C273.67,-342.79 367.54,-298.97 424.48,-272.39"/>
<polygon fill="#455a64" stroke="#455a64" points="425.51,-275 431.57,-269.08 423.14,-269.93 425.51,-275"/>
</g>
<!-- Searcher -->
<g id="node6" class="node">
<title>Searcher</title>
<g id="a_node6"><a xlink:href="50_e5_corpus.svg" xlink:title="E5CorpusSearcher.search\nmin_score=None par défaut">
<path fill="#e8f5e9" stroke="#2e7d32" d="M528.31,-491C528.31,-491 418.6,-491 418.6,-491 412.6,-491 406.6,-485 406.6,-479 406.6,-479 406.6,-467 406.6,-467 406.6,-461 412.6,-455 418.6,-455 418.6,-455 528.31,-455 528.31,-455 534.31,-455 540.31,-461 540.31,-467 540.31,-467 540.31,-479 540.31,-479 540.31,-485 534.31,-491 528.31,-491"/>
<text xml:space="preserve" text-anchor="middle" x="473.45" y="-475.5" font-family="Arial" font-size="10.00">E5CorpusSearcher.search</text>
<text xml:space="preserve" text-anchor="middle" x="473.45" y="-463.5" font-family="Arial" font-size="10.00">min_score=None par défaut</text>
</a>
</g>
</g>
<!-- Index&#45;&gt;Searcher -->
<g id="edge10" class="edge">
<title>Index&#45;&gt;Searcher</title>
<path fill="none" stroke="#455a64" d="M233.18,-401.55C280.22,-415.6 349.83,-436.39 401.86,-451.92"/>
<polygon fill="#455a64" stroke="#455a64" points="400.79,-454.52 409.26,-454.13 402.39,-449.16 400.79,-454.52"/>
<text xml:space="preserve" text-anchor="middle" x="311.07" y="-439.24" font-family="Arial" font-size="9.00">read persisted vectors</text>
</g>
<!-- Limit -->
<g id="node3" class="node">
<title>Limit</title>
<path fill="#e3f2fd" stroke="#1565c0" d="M195.09,-268C195.09,-268 165.09,-268 165.09,-268 159.09,-268 153.09,-262 153.09,-256 153.09,-256 153.09,-244 153.09,-244 153.09,-238 159.09,-232 165.09,-232 165.09,-232 195.09,-232 195.09,-232 201.09,-232 207.09,-238 207.09,-244 207.09,-244 207.09,-256 207.09,-256 207.09,-262 201.09,-268 195.09,-268"/>
<text xml:space="preserve" text-anchor="middle" x="180.09" y="-246.5" font-family="Arial" font-size="10.00">&#45;&#45;limit N</text>
</g>
<!-- Limit&#45;&gt;Cli -->
<g id="edge3" class="edge">
<title>Limit&#45;&gt;Cli</title>
<path fill="none" stroke="#455a64" d="M207.46,-250C253.03,-250 347.66,-250 410.62,-250"/>
<polygon fill="#455a64" stroke="#455a64" points="410.54,-252.8 418.54,-250 410.54,-247.2 410.54,-252.8"/>
</g>
<!-- MinScore -->
<g id="node4" class="node">
<title>MinScore</title>
<path fill="#e3f2fd" stroke="#1565c0" d="M215.82,-336C215.82,-336 144.36,-336 144.36,-336 138.36,-336 132.36,-330 132.36,-324 132.36,-324 132.36,-312 132.36,-312 132.36,-306 138.36,-300 144.36,-300 144.36,-300 215.82,-300 215.82,-300 221.82,-300 227.82,-306 227.82,-312 227.82,-312 227.82,-324 227.82,-324 227.82,-330 221.82,-336 215.82,-336"/>
<text xml:space="preserve" text-anchor="middle" x="180.09" y="-320.5" font-family="Arial" font-size="10.00">&#45;&#45;min&#45;score FLOAT</text>
<text xml:space="preserve" text-anchor="middle" x="180.09" y="-308.5" font-family="Arial" font-size="10.00">optionnel</text>
</g>
<!-- MinScore&#45;&gt;Cli -->
<g id="edge4" class="edge">
<title>MinScore&#45;&gt;Cli</title>
<path fill="none" stroke="#455a64" d="M228.22,-307C277.93,-295.4 356.46,-277.07 411,-264.34"/>
<polygon fill="#455a64" stroke="#455a64" points="411.59,-267.08 418.74,-262.54 410.31,-261.63 411.59,-267.08"/>
</g>
<!-- RangeCheck -->
<g id="node10" class="node">
<title>RangeCheck</title>
<path fill="#fce4ec" stroke="#ad1457" d="M230.07,-120C230.07,-120 130.11,-120 130.11,-120 124.11,-120 118.11,-114 118.11,-108 118.11,-108 118.11,-96 118.11,-96 118.11,-90 124.11,-84 130.11,-84 130.11,-84 230.07,-84 230.07,-84 236.07,-84 242.07,-90 242.07,-96 242.07,-96 242.07,-108 242.07,-108 242.07,-114 236.07,-120 230.07,-120"/>
<text xml:space="preserve" text-anchor="middle" x="180.09" y="-104.5" font-family="Arial" font-size="10.00">validation</text>
<text xml:space="preserve" text-anchor="middle" x="180.09" y="-92.5" font-family="Arial" font-size="10.00">&#45;1.0 &lt;= min_score &lt;= 1.0</text>
</g>
<!-- MinScore&#45;&gt;RangeCheck -->
<g id="edge5" class="edge">
<title>MinScore&#45;&gt;RangeCheck</title>
<path fill="none" stroke="#455a64" d="M131.86,-300.25C123.91,-295.81 116.27,-290.43 110.11,-284 95.71,-268.99 72.35,-236.53 80.21,-204.75 87.05,-177.08 90.94,-169.11 110.11,-148 117.74,-139.59 127.23,-132.03 136.74,-125.58"/>
<polygon fill="#455a64" stroke="#455a64" points="138.22,-127.96 143.41,-121.26 135.18,-123.26 138.22,-127.96"/>
<text xml:space="preserve" text-anchor="middle" x="77.98" y="-206.7" font-family="Arial" font-size="9.00">si fourni</text>
</g>
<!-- Cli&#45;&gt;Searcher -->
<g id="edge8" class="edge">
<title>Cli&#45;&gt;Searcher</title>
<path fill="none" stroke="#455a64" d="M473.45,-268.29C473.45,-327.24 473.45,-386.2 473.45,-445.15"/>
<polygon fill="#455a64" stroke="#455a64" points="470.65,-445.09 473.45,-453.09 476.25,-445.09 470.65,-445.09"/>
</g>
<!-- EmbedQuery -->
<g id="node7" class="node">
<title>EmbedQuery</title>
<g id="a_node7"><a xlink:href="47_openvino_embedding_pipeline.svg" xlink:title="embed query\nOpenVINO E5 local">
<path fill="#e8f5e9" stroke="#2e7d32" d="M744.8,-484C744.8,-484 669.59,-484 669.59,-484 663.59,-484 657.59,-478 657.59,-472 657.59,-472 657.59,-460 657.59,-460 657.59,-454 663.59,-448 669.59,-448 669.59,-448 744.8,-448 744.8,-448 750.8,-448 756.8,-454 756.8,-460 756.8,-460 756.8,-472 756.8,-472 756.8,-478 750.8,-484 744.8,-484"/>
<text xml:space="preserve" text-anchor="middle" x="707.2" y="-468.5" font-family="Arial" font-size="10.00">embed query</text>
<text xml:space="preserve" text-anchor="middle" x="707.2" y="-456.5" font-family="Arial" font-size="10.00">OpenVINO E5 local</text>
</a>
</g>
</g>
<!-- Searcher&#45;&gt;EmbedQuery -->
<g id="edge9" class="edge">
<title>Searcher&#45;&gt;EmbedQuery</title>
<path fill="none" stroke="#455a64" d="M540.55,-471C574.4,-469.98 615.25,-468.75 647.91,-467.76"/>
<polygon fill="#455a64" stroke="#455a64" points="647.91,-470.56 655.82,-467.52 647.74,-464.96 647.91,-470.56"/>
<text xml:space="preserve" text-anchor="middle" x="612.22" y="-471.24" font-family="Arial" font-size="9.00">query only</text>
</g>
<!-- Scores -->
<g id="node8" class="node">
<title>Scores</title>
<path fill="#e8f5e9" stroke="#2e7d32" d="M985.01,-484C985.01,-484 873.05,-484 873.05,-484 867.05,-484 861.05,-478 861.05,-472 861.05,-472 861.05,-460 861.05,-460 861.05,-454 867.05,-448 873.05,-448 873.05,-448 985.01,-448 985.01,-448 991.01,-448 997.01,-454 997.01,-460 997.01,-460 997.01,-472 997.01,-472 997.01,-478 991.01,-484 985.01,-484"/>
<text xml:space="preserve" text-anchor="middle" x="929.03" y="-468.5" font-family="Arial" font-size="10.00">dot_product(query, passage)</text>
<text xml:space="preserve" text-anchor="middle" x="929.03" y="-456.5" font-family="Arial" font-size="10.00">score cosine&#45;like</text>
</g>
<!-- Searcher&#45;&gt;Scores -->
<g id="edge12" class="edge">
<title>Searcher&#45;&gt;Scores</title>
<path fill="none" stroke="#455a64" d="M540.64,-486.57C597.87,-496.57 682.8,-507.28 756.8,-500 788.1,-496.92 822.16,-490.75 851.6,-484.51"/>
<polygon fill="#455a64" stroke="#455a64" points="851.87,-487.31 859.1,-482.89 850.69,-481.84 851.87,-487.31"/>
<text xml:space="preserve" text-anchor="middle" x="707.2" y="-504.34" font-family="Arial" font-size="9.00">passage vectors</text>
</g>
<!-- EmbedQuery&#45;&gt;Scores -->
<g id="edge11" class="edge">
<title>EmbedQuery&#45;&gt;Scores</title>
<path fill="none" stroke="#455a64" d="M757.26,-466C785.02,-466 820.34,-466 851.64,-466"/>
<polygon fill="#455a64" stroke="#455a64" points="851.27,-468.8 859.27,-466 851.27,-463.2 851.27,-468.8"/>
</g>
<!-- Sort -->
<g id="node9" class="node">
<title>Sort</title>
<path fill="#e8f5e9" stroke="#2e7d32" d="M1225.81,-484C1225.81,-484 1161.85,-484 1161.85,-484 1155.85,-484 1149.85,-478 1149.85,-472 1149.85,-472 1149.85,-460 1149.85,-460 1149.85,-454 1155.85,-448 1161.85,-448 1161.85,-448 1225.81,-448 1225.81,-448 1231.81,-448 1237.81,-454 1237.81,-460 1237.81,-460 1237.81,-472 1237.81,-472 1237.81,-478 1231.81,-484 1225.81,-484"/>
<text xml:space="preserve" text-anchor="middle" x="1193.83" y="-468.5" font-family="Arial" font-size="10.00">tri décroissant</text>
<text xml:space="preserve" text-anchor="middle" x="1193.83" y="-456.5" font-family="Arial" font-size="10.00">score high &#45;&gt; low</text>
</g>
<!-- Scores&#45;&gt;Sort -->
<g id="edge13" class="edge">
<title>Scores&#45;&gt;Sort</title>
<path fill="none" stroke="#455a64" d="M997.37,-466C1041.81,-466 1099.2,-466 1140.27,-466"/>
<polygon fill="#455a64" stroke="#455a64" points="1140.05,-468.8 1148.05,-466 1140.05,-463.2 1140.05,-468.8"/>
</g>
<!-- Filter -->
<g id="node11" class="node">
<title>Filter</title>
<path fill="#fce4ec" stroke="#ad1457" d="M461.67,-117.73C461.67,-117.73 391.85,-104.27 391.85,-104.27 385.96,-103.14 385.96,-100.86 391.85,-99.73 391.85,-99.73 461.67,-86.27 461.67,-86.27 467.56,-85.14 479.35,-85.14 485.24,-86.27 485.24,-86.27 555.06,-99.73 555.06,-99.73 560.95,-100.86 560.95,-103.14 555.06,-104.27 555.06,-104.27 485.24,-117.73 485.24,-117.73 479.35,-118.86 467.56,-118.86 461.67,-117.73"/>
<text xml:space="preserve" text-anchor="middle" x="473.45" y="-98.5" font-family="Arial" font-size="10.00">score &gt;= min_score ?</text>
</g>
<!-- Sort&#45;&gt;Filter -->
<g id="edge14" class="edge">
<title>Sort&#45;&gt;Filter</title>
<path fill="none" stroke="#455a64" d="M1156.89,-447.62C1061.12,-398.65 791.72,-261.1 566.84,-148 547.72,-138.38 526.33,-127.73 508.95,-119.09"/>
<polygon fill="#455a64" stroke="#455a64" points="510.53,-116.75 502.12,-115.7 508.04,-121.77 510.53,-116.75"/>
</g>
<!-- RangeCheck&#45;&gt;Cli -->
<g id="edge6" class="edge">
<title>RangeCheck&#45;&gt;Cli</title>
<path fill="none" stroke="#2e7d32" d="M242.39,-119.59C276.81,-130.6 319.96,-146.33 356.07,-165.5 387.97,-182.44 420.98,-207.21 443.66,-225.56"/>
<polygon fill="#2e7d32" stroke="#2e7d32" points="441.8,-227.66 449.76,-230.56 445.35,-223.32 441.8,-227.66"/>
<text xml:space="preserve" text-anchor="middle" x="311.07" y="-167.45" font-family="Arial" font-size="9.00">ok</text>
</g>
<!-- RangeCheck&#45;&gt;Cli -->
<g id="edge7" class="edge">
<title>RangeCheck&#45;&gt;Cli</title>
<path fill="none" stroke="#ad1457" stroke-dasharray="5,2" d="M208.83,-120.4C219.75,-128.27 232.05,-137.95 242.07,-148 254.62,-160.59 251.67,-169.57 266.07,-180 278.24,-188.83 354.9,-213.69 411.25,-231.27"/>
<polygon fill="#ad1457" stroke="#ad1457" points="410.19,-233.87 418.67,-233.57 411.86,-228.52 410.19,-233.87"/>
<text xml:space="preserve" text-anchor="middle" x="311.07" y="-214.64" font-family="Arial" font-size="9.00">code 2 si invalide</text>
</g>
<!-- RangeCheck&#45;&gt;Filter -->
<g id="edge15" class="edge">
<title>RangeCheck&#45;&gt;Filter</title>
<path fill="none" stroke="#455a64" d="M242.52,-102C278.92,-102 326.01,-102 368.09,-102"/>
<polygon fill="#455a64" stroke="#455a64" points="368.03,-104.8 376.03,-102 368.03,-99.2 368.03,-104.8"/>
<text xml:space="preserve" text-anchor="middle" x="311.07" y="-103.95" font-family="Arial" font-size="9.00">threshold</text>
</g>
<!-- Keep -->
<g id="node12" class="node">
<title>Keep</title>
<path fill="#fce4ec" stroke="#ad1457" d="M732.05,-52C732.05,-52 682.34,-52 682.34,-52 676.34,-52 670.34,-46 670.34,-40 670.34,-40 670.34,-28 670.34,-28 670.34,-22 676.34,-16 682.34,-16 682.34,-16 732.05,-16 732.05,-16 738.05,-16 744.05,-22 744.05,-28 744.05,-28 744.05,-40 744.05,-40 744.05,-46 738.05,-52 732.05,-52"/>
<text xml:space="preserve" text-anchor="middle" x="707.2" y="-36.5" font-family="Arial" font-size="10.00">conserver hit</text>
<text xml:space="preserve" text-anchor="middle" x="707.2" y="-24.5" font-family="Arial" font-size="10.00">rank recalculé</text>
</g>
<!-- Filter&#45;&gt;Keep -->
<g id="edge16" class="edge">
<title>Filter&#45;&gt;Keep</title>
<path fill="none" stroke="#2e7d32" d="M511.95,-91C552.61,-79.07 617.51,-60.02 660.98,-47.27"/>
<polygon fill="#2e7d32" stroke="#2e7d32" points="661.57,-50.01 668.45,-45.08 659.99,-44.64 661.57,-50.01"/>
<text xml:space="preserve" text-anchor="middle" x="612.22" y="-67.91" font-family="Arial" font-size="9.00">oui</text>
</g>
<!-- Drop -->
<g id="node13" class="node">
<title>Drop</title>
<path fill="#fce4ec" stroke="#ad1457" stroke-dasharray="5,2" d="M735.05,-120C735.05,-120 679.34,-120 679.34,-120 673.34,-120 667.34,-114 667.34,-108 667.34,-108 667.34,-96 667.34,-96 667.34,-90 673.34,-84 679.34,-84 679.34,-84 735.05,-84 735.05,-84 741.05,-84 747.05,-90 747.05,-96 747.05,-96 747.05,-108 747.05,-108 747.05,-114 741.05,-120 735.05,-120"/>
<text xml:space="preserve" text-anchor="middle" x="707.2" y="-104.5" font-family="Arial" font-size="10.00">rejeter hit faible</text>
<text xml:space="preserve" text-anchor="middle" x="707.2" y="-92.5" font-family="Arial" font-size="10.00">non rendu</text>
</g>
<!-- Filter&#45;&gt;Drop -->
<g id="edge17" class="edge">
<title>Filter&#45;&gt;Drop</title>
<path fill="none" stroke="#ad1457" stroke-dasharray="5,2" d="M569.38,-102C599.64,-102 631.87,-102 657.44,-102"/>
<polygon fill="#ad1457" stroke="#ad1457" points="657.39,-104.8 665.39,-102 657.39,-99.2 657.39,-104.8"/>
<text xml:space="preserve" text-anchor="middle" x="612.22" y="-103.95" font-family="Arial" font-size="9.00">non</text>
</g>
<!-- ApplyLimit -->
<g id="node14" class="node">
<title>ApplyLimit</title>
<path fill="#efebe9" stroke="#6d4c41" d="M953.51,-52C953.51,-52 904.55,-52 904.55,-52 898.55,-52 892.55,-46 892.55,-40 892.55,-40 892.55,-28 892.55,-28 892.55,-22 898.55,-16 904.55,-16 904.55,-16 953.51,-16 953.51,-16 959.51,-16 965.51,-22 965.51,-28 965.51,-28 965.51,-40 965.51,-40 965.51,-46 959.51,-52 953.51,-52"/>
<text xml:space="preserve" text-anchor="middle" x="929.03" y="-36.5" font-family="Arial" font-size="10.00">appliquer limit</text>
<text xml:space="preserve" text-anchor="middle" x="929.03" y="-24.5" font-family="Arial" font-size="10.00">après filtrage</text>
</g>
<!-- Keep&#45;&gt;ApplyLimit -->
<g id="edge18" class="edge">
<title>Keep&#45;&gt;ApplyLimit</title>
<path fill="none" stroke="#455a64" d="M744.5,-34C782.43,-34 842.02,-34 882.95,-34"/>
<polygon fill="#455a64" stroke="#455a64" points="882.89,-36.8 890.89,-34 882.89,-31.2 882.89,-36.8"/>
</g>
<!-- Zero -->
<g id="node18" class="node">
<title>Zero</title>
<path fill="#efebe9" stroke="#6d4c41" stroke-dasharray="5,2" d="M964.76,-120C964.76,-120 893.3,-120 893.3,-120 887.3,-120 881.3,-114 881.3,-108 881.3,-108 881.3,-96 881.3,-96 881.3,-90 887.3,-84 893.3,-84 893.3,-84 964.76,-84 964.76,-84 970.76,-84 976.76,-90 976.76,-96 976.76,-96 976.76,-108 976.76,-108 976.76,-114 970.76,-120 964.76,-120"/>
<text xml:space="preserve" text-anchor="middle" x="929.03" y="-104.5" font-family="Arial" font-size="10.00">hit_count: 0</text>
<text xml:space="preserve" text-anchor="middle" x="929.03" y="-92.5" font-family="Arial" font-size="10.00">aucun résultat utile</text>
</g>
<!-- Drop&#45;&gt;Zero -->
<g id="edge19" class="edge">
<title>Drop&#45;&gt;Zero</title>
<path fill="none" stroke="#455a64" stroke-dasharray="1,5" d="M747.5,-102C782.14,-102 833.02,-102 871.94,-102"/>
<polygon fill="#455a64" stroke="#455a64" points="871.54,-104.8 879.54,-102 871.54,-99.2 871.54,-104.8"/>
<text xml:space="preserve" text-anchor="middle" x="808.93" y="-103.95" font-family="Arial" font-size="9.00">si tous rejetés</text>
</g>
<!-- Report -->
<g id="node15" class="node">
<title>Report</title>
<g id="a_node15"><a xlink:href="52_e5_search_report.svg" xlink:title="E5SearchReport\nscore/source/lines/excerpt">
<path fill="#efebe9" stroke="#6d4c41" d="M1245.68,-52C1245.68,-52 1141.97,-52 1141.97,-52 1135.97,-52 1129.97,-46 1129.97,-40 1129.97,-40 1129.97,-28 1129.97,-28 1129.97,-22 1135.97,-16 1141.97,-16 1141.97,-16 1245.68,-16 1245.68,-16 1251.68,-16 1257.68,-22 1257.68,-28 1257.68,-28 1257.68,-40 1257.68,-40 1257.68,-46 1251.68,-52 1245.68,-52"/>
<text xml:space="preserve" text-anchor="middle" x="1193.83" y="-36.5" font-family="Arial" font-size="10.00">E5SearchReport</text>
<text xml:space="preserve" text-anchor="middle" x="1193.83" y="-24.5" font-family="Arial" font-size="10.00">score/source/lines/excerpt</text>
</a>
</g>
</g>
<!-- ApplyLimit&#45;&gt;Report -->
<g id="edge20" class="edge">
<title>ApplyLimit&#45;&gt;Report</title>
<path fill="none" stroke="#455a64" d="M965.75,-34C1005.32,-34 1070.17,-34 1120.46,-34"/>
<polygon fill="#455a64" stroke="#455a64" points="1120.16,-36.8 1128.16,-34 1120.16,-31.2 1120.16,-36.8"/>
</g>
<!-- Json -->
<g id="node16" class="node">
<title>Json</title>
<path fill="#efebe9" stroke="#6d4c41" d="M1389.39,-52C1389.39,-52 1338.93,-52 1338.93,-52 1332.93,-52 1326.93,-46 1326.93,-40 1326.93,-40 1326.93,-28 1326.93,-28 1326.93,-22 1332.93,-16 1338.93,-16 1338.93,-16 1389.39,-16 1389.39,-16 1395.39,-16 1401.39,-22 1401.39,-28 1401.39,-28 1401.39,-40 1401.39,-40 1401.39,-46 1395.39,-52 1389.39,-52"/>
<text xml:space="preserve" text-anchor="middle" x="1364.16" y="-36.5" font-family="Arial" font-size="10.00">JSON</text>
<text xml:space="preserve" text-anchor="middle" x="1364.16" y="-24.5" font-family="Arial" font-size="10.00">hit_count filtré</text>
</g>
<!-- Report&#45;&gt;Json -->
<g id="edge22" class="edge">
<title>Report&#45;&gt;Json</title>
<path fill="none" stroke="#455a64" d="M1257.99,-34C1277.6,-34 1298.84,-34 1317.06,-34"/>
<polygon fill="#455a64" stroke="#455a64" points="1317.05,-36.8 1325.05,-34 1317.05,-31.2 1317.05,-36.8"/>
</g>
<!-- Text -->
<g id="node17" class="node">
<title>Text</title>
<path fill="#efebe9" stroke="#6d4c41" d="M1389.39,-120C1389.39,-120 1338.93,-120 1338.93,-120 1332.93,-120 1326.93,-114 1326.93,-108 1326.93,-108 1326.93,-96 1326.93,-96 1326.93,-90 1332.93,-84 1338.93,-84 1338.93,-84 1389.39,-84 1389.39,-84 1395.39,-84 1401.39,-90 1401.39,-96 1401.39,-96 1401.39,-108 1401.39,-108 1401.39,-114 1395.39,-120 1389.39,-120"/>
<text xml:space="preserve" text-anchor="middle" x="1364.16" y="-104.5" font-family="Arial" font-size="10.00">texte</text>
<text xml:space="preserve" text-anchor="middle" x="1364.16" y="-92.5" font-family="Arial" font-size="10.00">hit_count filtré</text>
</g>
<!-- Report&#45;&gt;Text -->
<g id="edge21" class="edge">
<title>Report&#45;&gt;Text</title>
<path fill="none" stroke="#455a64" d="M1240.38,-52.4C1264.49,-62.14 1293.99,-74.06 1318.04,-83.77"/>
<polygon fill="#455a64" stroke="#455a64" points="1316.76,-86.27 1325.23,-86.67 1318.86,-81.08 1316.76,-86.27"/>
</g>
<!-- NoQdrant -->
<g id="node19" class="node">
<title>NoQdrant</title>
<polygon fill="#fafafa" stroke="#78909c" points="960.26,-639 891.8,-639 891.8,-603 966.26,-603 966.26,-633 960.26,-639"/>
<polyline fill="none" stroke="#78909c" points="960.26,-639 960.26,-633"/>
<polyline fill="none" stroke="#78909c" points="966.26,-633 960.26,-633"/>
<text xml:space="preserve" text-anchor="middle" x="929.03" y="-617.5" font-family="Arial" font-size="10.00">pas de Qdrant</text>
</g>
<!-- NoScheduler -->
<g id="node20" class="node">
<title>NoScheduler</title>
<polygon fill="#fafafa" stroke="#78909c" points="1232.18,-639 1149.47,-639 1149.47,-603 1238.18,-603 1238.18,-633 1232.18,-639"/>
<polyline fill="none" stroke="#78909c" points="1232.18,-639 1232.18,-633"/>
<polyline fill="none" stroke="#78909c" points="1238.18,-633 1232.18,-633"/>
<text xml:space="preserve" text-anchor="middle" x="1193.83" y="-617.5" font-family="Arial" font-size="10.00">pas de Scheduler</text>
</g>
<!-- NoQdrant&#45;&gt;NoScheduler -->
<!-- NoFormat -->
<g id="node21" class="node">
<title>NoFormat</title>
<polygon fill="#fafafa" stroke="#78909c" points="1415.64,-639 1306.68,-639 1306.68,-603 1421.64,-603 1421.64,-633 1415.64,-639"/>
<polyline fill="none" stroke="#78909c" points="1415.64,-639 1415.64,-633"/>
<polyline fill="none" stroke="#78909c" points="1421.64,-633 1415.64,-633"/>
<text xml:space="preserve" text-anchor="middle" x="1364.16" y="-617.5" font-family="Arial" font-size="10.00">format corpus inchangé</text>
</g>
<!-- NoScheduler&#45;&gt;NoFormat -->
<!-- Nav_Inference -->
<g id="node22" class="node">
<title>Nav_Inference</title>
<g id="a_node22"><a xlink:href="40_inference.svg" xlink:title="Inference">
<path fill="lightgrey" stroke="none" d="M1078.49,-711C1078.49,-711 1048.49,-711 1048.49,-711 1042.49,-711 1036.49,-705 1036.49,-699 1036.49,-699 1036.49,-687 1036.49,-687 1036.49,-681 1042.49,-675 1048.49,-675 1048.49,-675 1078.49,-675 1078.49,-675 1084.49,-675 1090.49,-681 1090.49,-687 1090.49,-687 1090.49,-699 1090.49,-699 1090.49,-705 1084.49,-711 1078.49,-711"/>
<text xml:space="preserve" text-anchor="middle" x="1063.49" y="-689.5" font-family="Arial" font-size="10.00">Inference</text>
</a>
</g>
</g>
<!-- Nav_Corpus -->
<g id="node23" class="node">
<title>Nav_Corpus</title>
<g id="a_node23"><a xlink:href="50_e5_corpus.svg" xlink:title="E5 corpus">
<path fill="lightgrey" stroke="none" d="M1080.1,-752C1080.1,-752 1046.89,-752 1046.89,-752 1040.89,-752 1034.89,-746 1034.89,-740 1034.89,-740 1034.89,-728 1034.89,-728 1034.89,-722 1040.89,-716 1046.89,-716 1046.89,-716 1080.1,-716 1080.1,-716 1086.1,-716 1092.1,-722 1092.1,-728 1092.1,-728 1092.1,-740 1092.1,-740 1092.1,-746 1086.1,-752 1080.1,-752"/>
<text xml:space="preserve" text-anchor="middle" x="1063.49" y="-730.5" font-family="Arial" font-size="10.00">E5 corpus</text>
</a>
</g>
</g>
<!-- Nav_Report -->
<g id="node24" class="node">
<title>Nav_Report</title>
<g id="a_node24"><a xlink:href="52_e5_search_report.svg" xlink:title="E5 search report">
<path fill="lightgrey" stroke="none" d="M1093.97,-793C1093.97,-793 1033.01,-793 1033.01,-793 1027.01,-793 1021.01,-787 1021.01,-781 1021.01,-781 1021.01,-769 1021.01,-769 1021.01,-763 1027.01,-757 1033.01,-757 1033.01,-757 1093.97,-757 1093.97,-757 1099.97,-757 1105.97,-763 1105.97,-769 1105.97,-769 1105.97,-781 1105.97,-781 1105.97,-787 1099.97,-793 1093.97,-793"/>
<text xml:space="preserve" text-anchor="middle" x="1063.49" y="-771.5" font-family="Arial" font-size="10.00">E5 search report</text>
</a>
</g>
</g>
<!-- Nav_SafeRebuild -->
<g id="node25" class="node">
<title>Nav_SafeRebuild</title>
<g id="a_node25"><a xlink:href="56_e5_safe_rebuild.svg" xlink:title="E5 safe rebuild">
<path fill="lightgrey" stroke="none" d="M1090.6,-834C1090.6,-834 1036.39,-834 1036.39,-834 1030.39,-834 1024.39,-828 1024.39,-822 1024.39,-822 1024.39,-810 1024.39,-810 1024.39,-804 1030.39,-798 1036.39,-798 1036.39,-798 1090.6,-798 1090.6,-798 1096.6,-798 1102.6,-804 1102.6,-810 1102.6,-810 1102.6,-822 1102.6,-822 1102.6,-828 1096.6,-834 1090.6,-834"/>
<text xml:space="preserve" text-anchor="middle" x="1063.49" y="-812.5" font-family="Arial" font-size="10.00">E5 safe rebuild</text>
</a>
</g>
</g>
</g>
</svg>
