<?xml version="1.0" encoding="UTF-8" standalone="no"?>
<!DOCTYPE svg PUBLIC "-//W3C//DTD SVG 1.1//EN"
 "http://www.w3.org/Graphics/SVG/1.1/DTD/svg11.dtd">
<!-- Generated by graphviz version 14.1.3 (20260303.0454)
 -->
<!-- Title: E5SourceHygiene Pages: 1 -->
<svg width="2647pt" height="565pt"
 viewBox="0.00 0.00 2647.00 565.00" xmlns="http://www.w3.org/2000/svg" xmlns:xlink="http://www.w3.org/1999/xlink">
<g id="graph0" class="graph" transform="scale(1 1) rotate(0) translate(18 547)">
<title>E5SourceHygiene</title>
<polygon fill="white" stroke="none" points="-18,18 -18,-547 2628.99,-547 2628.99,18 -18,18"/>
<text xml:space="preserve" text-anchor="middle" x="1305.5" y="-515.5" font-family="Arial" font-size="10.00">Phase 4.4 — E5 source hygiene</text>
<g id="clust1" class="cluster">
<title>cluster_input</title>
<polygon fill="#e3f2fd" stroke="#1565c0" stroke-width="1.5" points="65,-42 65,-250 183.21,-250 183.21,-42 65,-42"/>
<text xml:space="preserve" text-anchor="middle" x="124.11" y="-236.5" font-family="Arial" font-size="10.00">Entrées développeur</text>
</g>
<g id="clust2" class="cluster">
<title>cluster_config</title>
<polygon fill="#f3e5f5" stroke="#6a1b9a" stroke-width="1.5" points="8,-258 8,-398 595.88,-398 595.88,-258 8,-258"/>
<text xml:space="preserve" text-anchor="middle" x="301.94" y="-384.5" font-family="Arial" font-size="10.00">Configuration centrale</text>
</g>
<g id="clust3" class="cluster">
<title>cluster_filter</title>
<polygon fill="#fce4ec" stroke="#ad1457" stroke-width="1.7" points="479.55,-24 479.55,-235 1300.35,-235 1300.35,-24 479.55,-24"/>
<text xml:space="preserve" text-anchor="middle" x="889.95" y="-221.5" font-family="Arial" font-size="10.00">Filtrage avant lecture</text>
</g>
<g id="clust4" class="cluster">
<title>cluster_pipeline</title>
<polygon fill="#e8f5e9" stroke="#2e7d32" stroke-width="1.5" points="1339.35,-39 1339.35,-111 1882.69,-111 1882.69,-39 1339.35,-39"/>
<text xml:space="preserve" text-anchor="middle" x="1611.02" y="-97.5" font-family="Arial" font-size="10.00">Pipeline inchangé</text>
</g>
<g id="clust5" class="cluster">
<title>cluster_consumers</title>
<polygon fill="#efebe9" stroke="#6d4c41" stroke-width="1.5" points="1921.69,-8 1921.69,-148 2266.82,-148 2266.82,-8 1921.69,-8"/>
<text xml:space="preserve" text-anchor="middle" x="2094.26" y="-134.5" font-family="Arial" font-size="10.00">Consommateurs</text>
</g>
<g id="clust6" class="cluster">
<title>cluster_scope</title>
<polygon fill="#fafafa" stroke="#78909c" points="1929.94,-229 1929.94,-301 2602.99,-301 2602.99,-229 1929.94,-229"/>
<text xml:space="preserve" text-anchor="middle" x="2266.47" y="-287.5" font-family="Arial" font-size="10.00">Hors périmètre</text>
</g>
<!-- SourceDir -->
<g id="node1" class="node">
<title>SourceDir</title>
<path fill="#e3f2fd" stroke="#1565c0" d="M145.96,-154C145.96,-154 102.25,-154 102.25,-154 96.25,-154 90.25,-148 90.25,-142 90.25,-142 90.25,-130 90.25,-130 90.25,-124 96.25,-118 102.25,-118 102.25,-118 145.96,-118 145.96,-118 151.96,-118 157.96,-124 157.96,-130 157.96,-130 157.96,-142 157.96,-142 157.96,-148 151.96,-154 145.96,-154"/>
<text xml:space="preserve" text-anchor="middle" x="124.11" y="-138.5" font-family="Arial" font-size="10.00">&#45;&#45;source&#45;dir .</text>
<text xml:space="preserve" text-anchor="middle" x="124.11" y="-126.5" font-family="Arial" font-size="10.00">dossier repo</text>
</g>
<!-- Candidate -->
<g id="node8" class="node">
<title>Candidate</title>
<path fill="#fce4ec" stroke="#ad1457" d="M559.01,-154C559.01,-154 499.55,-154 499.55,-154 493.55,-154 487.55,-148 487.55,-142 487.55,-142 487.55,-130 487.55,-130 487.55,-124 493.55,-118 499.55,-118 499.55,-118 559.01,-118 559.01,-118 565.01,-118 571.01,-124 571.01,-130 571.01,-130 571.01,-142 571.01,-142 571.01,-148 565.01,-154 559.01,-154"/>
<text xml:space="preserve" text-anchor="middle" x="529.28" y="-138.5" font-family="Arial" font-size="10.00">candidate path</text>
<text xml:space="preserve" text-anchor="middle" x="529.28" y="-126.5" font-family="Arial" font-size="10.00">Path.glob stable</text>
</g>
<!-- SourceDir&#45;&gt;Candidate -->
<g id="edge1" class="edge">
<title>SourceDir&#45;&gt;Candidate</title>
<path fill="none" stroke="#455a64" d="M158.44,-136C229.11,-136 394.31,-136 477.91,-136"/>
<polygon fill="#455a64" stroke="#455a64" points="477.69,-138.8 485.69,-136 477.69,-133.2 477.69,-138.8"/>
</g>
<!-- SourceFile -->
<g id="node2" class="node">
<title>SourceFile</title>
<path fill="#e3f2fd" stroke="#1565c0" d="M163.21,-86C163.21,-86 85,-86 85,-86 79,-86 73,-80 73,-74 73,-74 73,-62 73,-62 73,-56 79,-50 85,-50 85,-50 163.21,-50 163.21,-50 169.21,-50 175.21,-56 175.21,-62 175.21,-62 175.21,-74 175.21,-74 175.21,-80 169.21,-86 163.21,-86"/>
<text xml:space="preserve" text-anchor="middle" x="124.11" y="-70.5" font-family="Arial" font-size="10.00">&#45;&#45;source&#45;file note.md</text>
<text xml:space="preserve" text-anchor="middle" x="124.11" y="-58.5" font-family="Arial" font-size="10.00">fichier explicite</text>
</g>
<!-- SourceFile&#45;&gt;Candidate -->
<g id="edge2" class="edge">
<title>SourceFile&#45;&gt;Candidate</title>
<path fill="none" stroke="#455a64" d="M175.35,-76.47C252.84,-89.54 400.62,-114.47 478.08,-127.53"/>
<polygon fill="#455a64" stroke="#455a64" points="477.32,-130.25 485.67,-128.81 478.25,-124.72 477.32,-130.25"/>
</g>
<!-- Extensions -->
<g id="node3" class="node">
<title>Extensions</title>
<path fill="#e3f2fd" stroke="#1565c0" d="M161.34,-222C161.34,-222 86.88,-222 86.88,-222 80.88,-222 74.88,-216 74.88,-210 74.88,-210 74.88,-198 74.88,-198 74.88,-192 80.88,-186 86.88,-186 86.88,-186 161.34,-186 161.34,-186 167.34,-186 173.34,-192 173.34,-198 173.34,-198 173.34,-210 173.34,-210 173.34,-216 167.34,-222 161.34,-222"/>
<text xml:space="preserve" text-anchor="middle" x="124.11" y="-206.5" font-family="Arial" font-size="10.00">&#45;&#45;source&#45;extensions</text>
<text xml:space="preserve" text-anchor="middle" x="124.11" y="-194.5" font-family="Arial" font-size="10.00">.md,.markdown,.txt</text>
</g>
<!-- Config -->
<g id="node4" class="node">
<title>Config</title>
<path fill="#f3e5f5" stroke="#6a1b9a" d="M403.67,-302C403.67,-302 299.21,-302 299.21,-302 293.21,-302 287.21,-296 287.21,-290 287.21,-290 287.21,-278 287.21,-278 287.21,-272 293.21,-266 299.21,-266 299.21,-266 403.67,-266 403.67,-266 409.67,-266 415.67,-272 415.67,-278 415.67,-278 415.67,-290 415.67,-290 415.67,-296 409.67,-302 403.67,-302"/>
<text xml:space="preserve" text-anchor="middle" x="351.44" y="-286.5" font-family="Arial" font-size="10.00">E5SourceDiscoveryConfig</text>
<text xml:space="preserve" text-anchor="middle" x="351.44" y="-274.5" font-family="Arial" font-size="10.00">stdlib dataclass frozen</text>
</g>
<!-- Extensions&#45;&gt;Config -->
<g id="edge3" class="edge">
<title>Extensions&#45;&gt;Config</title>
<path fill="none" stroke="#455a64" d="M173.72,-221.26C207.74,-233.34 253.42,-249.56 289.82,-262.48"/>
<polygon fill="#455a64" stroke="#455a64" points="288.48,-264.97 296.95,-265.01 290.35,-259.7 288.48,-264.97"/>
</g>
<!-- Normalize -->
<g id="node7" class="node">
<title>Normalize</title>
<path fill="#f3e5f5" stroke="#6a1b9a" d="M575.88,-302C575.88,-302 482.67,-302 482.67,-302 476.67,-302 470.67,-296 470.67,-290 470.67,-290 470.67,-278 470.67,-278 470.67,-272 476.67,-266 482.67,-266 482.67,-266 575.88,-266 575.88,-266 581.88,-266 587.88,-272 587.88,-278 587.88,-278 587.88,-290 587.88,-290 587.88,-296 581.88,-302 575.88,-302"/>
<text xml:space="preserve" text-anchor="middle" x="529.28" y="-286.5" font-family="Arial" font-size="10.00">normalisation</text>
<text xml:space="preserve" text-anchor="middle" x="529.28" y="-274.5" font-family="Arial" font-size="10.00">trim + lower + dot prefix</text>
</g>
<!-- Config&#45;&gt;Normalize -->
<g id="edge6" class="edge">
<title>Config&#45;&gt;Normalize</title>
<path fill="none" stroke="#455a64" d="M415.92,-284C430.67,-284 446.41,-284 461.3,-284"/>
<polygon fill="#455a64" stroke="#455a64" points="460.93,-286.8 468.93,-284 460.93,-281.2 460.93,-286.8"/>
</g>
<!-- DirDefaults -->
<g id="node5" class="node">
<title>DirDefaults</title>
<path fill="#f3e5f5" stroke="#6a1b9a" d="M211.96,-302C211.96,-302 36.25,-302 36.25,-302 30.25,-302 24.25,-296 24.25,-290 24.25,-290 24.25,-278 24.25,-278 24.25,-272 30.25,-266 36.25,-266 36.25,-266 211.96,-266 211.96,-266 217.96,-266 223.96,-272 223.96,-278 223.96,-278 223.96,-290 223.96,-290 223.96,-296 217.96,-302 211.96,-302"/>
<text xml:space="preserve" text-anchor="middle" x="124.11" y="-286.5" font-family="Arial" font-size="10.00">DEFAULT_E5_EXCLUDED_DIR_NAMES</text>
<text xml:space="preserve" text-anchor="middle" x="124.11" y="-274.5" font-family="Arial" font-size="10.00">.git, caches, venv, build, dist</text>
</g>
<!-- DirDefaults&#45;&gt;Config -->
<g id="edge4" class="edge">
<title>DirDefaults&#45;&gt;Config</title>
<path fill="none" stroke="#455a64" d="M224.27,-284C242.2,-284 260.6,-284 277.6,-284"/>
<polygon fill="#455a64" stroke="#455a64" points="277.38,-286.8 285.38,-284 277.38,-281.2 277.38,-286.8"/>
</g>
<!-- SuffixDefaults -->
<g id="node6" class="node">
<title>SuffixDefaults</title>
<path fill="#f3e5f5" stroke="#6a1b9a" d="M220.21,-370C220.21,-370 28,-370 28,-370 22,-370 16,-364 16,-358 16,-358 16,-346 16,-346 16,-340 22,-334 28,-334 28,-334 220.21,-334 220.21,-334 226.21,-334 232.21,-340 232.21,-346 232.21,-346 232.21,-358 232.21,-358 232.21,-364 226.21,-370 220.21,-370"/>
<text xml:space="preserve" text-anchor="middle" x="124.11" y="-354.5" font-family="Arial" font-size="10.00">DEFAULT_E5_EXCLUDED_FILE_SUFFIXES</text>
<text xml:space="preserve" text-anchor="middle" x="124.11" y="-342.5" font-family="Arial" font-size="10.00">.pyc, .pyo, .svg</text>
</g>
<!-- SuffixDefaults&#45;&gt;Config -->
<g id="edge5" class="edge">
<title>SuffixDefaults&#45;&gt;Config</title>
<path fill="none" stroke="#455a64" d="M186.38,-333.51C215.44,-324.74 250.31,-314.22 280.41,-305.13"/>
<polygon fill="#455a64" stroke="#455a64" points="280.88,-307.92 287.73,-302.93 279.26,-302.56 280.88,-307.92"/>
</g>
<!-- ParentCheck -->
<g id="node9" class="node">
<title>ParentCheck</title>
<path fill="#fce4ec" stroke="#ad1457" d="M692.54,-189.92C692.54,-189.92 653.43,-168.72 653.43,-168.72 648.15,-165.86 648.15,-160.14 653.43,-157.28 653.43,-157.28 692.54,-136.08 692.54,-136.08 697.82,-133.22 708.36,-133.22 713.64,-136.08 713.64,-136.08 752.75,-157.28 752.75,-157.28 758.03,-160.14 758.03,-165.86 752.75,-168.72 752.75,-168.72 713.64,-189.92 713.64,-189.92 708.36,-192.78 697.82,-192.78 692.54,-189.92"/>
<text xml:space="preserve" text-anchor="middle" x="703.09" y="-165.5" font-family="Arial" font-size="10.00">parent dir</text>
<text xml:space="preserve" text-anchor="middle" x="703.09" y="-153.5" font-family="Arial" font-size="10.00">excluded ?</text>
</g>
<!-- Normalize&#45;&gt;ParentCheck -->
<g id="edge7" class="edge">
<title>Normalize&#45;&gt;ParentCheck</title>
<path fill="none" stroke="#455a64" d="M561.01,-265.56C572.13,-258.69 584.7,-250.68 595.88,-243 621.47,-225.42 649.48,-204.23 670.31,-188.08"/>
<polygon fill="#455a64" stroke="#455a64" points="671.86,-190.42 676.45,-183.3 668.42,-186.01 671.86,-190.42"/>
</g>
<!-- Candidate&#45;&gt;ParentCheck -->
<g id="edge8" class="edge">
<title>Candidate&#45;&gt;ParentCheck</title>
<path fill="none" stroke="#455a64" d="M571.43,-142.47C593.88,-145.99 621.98,-150.41 646.37,-154.24"/>
<polygon fill="#455a64" stroke="#455a64" points="645.68,-156.97 654.02,-155.45 646.55,-151.44 645.68,-156.97"/>
</g>
<!-- SuffixCheck -->
<g id="node10" class="node">
<title>SuffixCheck</title>
<path fill="#fce4ec" stroke="#ad1457" d="M882.71,-156.92C882.71,-156.92 843.6,-135.72 843.6,-135.72 838.32,-132.86 838.32,-127.14 843.6,-124.28 843.6,-124.28 882.71,-103.08 882.71,-103.08 887.99,-100.22 898.53,-100.22 903.81,-103.08 903.81,-103.08 942.92,-124.28 942.92,-124.28 948.2,-127.14 948.2,-132.86 942.92,-135.72 942.92,-135.72 903.81,-156.92 903.81,-156.92 898.53,-159.78 887.99,-159.78 882.71,-156.92"/>
<text xml:space="preserve" text-anchor="middle" x="893.26" y="-132.5" font-family="Arial" font-size="10.00">file suffix</text>
<text xml:space="preserve" text-anchor="middle" x="893.26" y="-120.5" font-family="Arial" font-size="10.00">excluded ?</text>
</g>
<!-- ParentCheck&#45;&gt;SuffixCheck -->
<g id="edge10" class="edge">
<title>ParentCheck&#45;&gt;SuffixCheck</title>
<path fill="none" stroke="#2e7d32" d="M749.16,-155.1C775.73,-150.44 809.54,-144.51 837.62,-139.58"/>
<polygon fill="#2e7d32" stroke="#2e7d32" points="838.02,-142.36 845.41,-138.22 837.05,-136.84 838.02,-142.36"/>
<text xml:space="preserve" text-anchor="middle" x="798.17" y="-149.44" font-family="Arial" font-size="9.00">non</text>
</g>
<!-- Reject -->
<g id="node12" class="node">
<title>Reject</title>
<path fill="#fce4ec" stroke="#ad1457" stroke-dasharray="5,2" d="M1278.1,-180C1278.1,-180 1235.14,-180 1235.14,-180 1229.14,-180 1223.14,-174 1223.14,-168 1223.14,-168 1223.14,-156 1223.14,-156 1223.14,-150 1229.14,-144 1235.14,-144 1235.14,-144 1278.1,-144 1278.1,-144 1284.1,-144 1290.1,-150 1290.1,-156 1290.1,-156 1290.1,-168 1290.1,-168 1290.1,-174 1284.1,-180 1278.1,-180"/>
<text xml:space="preserve" text-anchor="middle" x="1256.62" y="-164.5" font-family="Arial" font-size="10.00">reject</text>
<text xml:space="preserve" text-anchor="middle" x="1256.62" y="-152.5" font-family="Arial" font-size="10.00">no read_text</text>
</g>
<!-- ParentCheck&#45;&gt;Reject -->
<g id="edge9" class="edge">
<title>ParentCheck&#45;&gt;Reject</title>
<path fill="none" stroke="#ad1457" stroke-dasharray="5,2" d="M750.82,-170.21C775.25,-173.62 805.69,-177.31 833.05,-179 972.2,-187.6 1137.4,-174.09 1213.46,-166.54"/>
<polygon fill="#ad1457" stroke="#ad1457" points="1213.54,-169.34 1221.21,-165.76 1212.97,-163.77 1213.54,-169.34"/>
<text xml:space="preserve" text-anchor="middle" x="988.35" y="-183.03" font-family="Arial" font-size="9.00">oui</text>
</g>
<!-- ExtensionCheck -->
<g id="node11" class="node">
<title>ExtensionCheck</title>
<path fill="#fce4ec" stroke="#ad1457" d="M1076.49,-92.19C1076.49,-92.19 1033.91,-70.45 1033.91,-70.45 1028.56,-67.73 1028.56,-62.27 1033.91,-59.55 1033.91,-59.55 1076.49,-37.81 1076.49,-37.81 1081.84,-35.09 1092.52,-35.09 1097.87,-37.81 1097.87,-37.81 1140.45,-59.55 1140.45,-59.55 1145.8,-62.27 1145.8,-67.73 1140.45,-70.45 1140.45,-70.45 1097.87,-92.19 1097.87,-92.19 1092.52,-94.91 1081.84,-94.91 1076.49,-92.19"/>
<text xml:space="preserve" text-anchor="middle" x="1087.18" y="-67.5" font-family="Arial" font-size="10.00">extension</text>
<text xml:space="preserve" text-anchor="middle" x="1087.18" y="-55.5" font-family="Arial" font-size="10.00">supported ?</text>
</g>
<!-- SuffixCheck&#45;&gt;ExtensionCheck -->
<g id="edge12" class="edge">
<title>SuffixCheck&#45;&gt;ExtensionCheck</title>
<path fill="none" stroke="#2e7d32" d="M931.26,-117.47C962.06,-107.04 1006.09,-92.13 1039.34,-80.86"/>
<polygon fill="#2e7d32" stroke="#2e7d32" points="1039.86,-83.64 1046.54,-78.42 1038.07,-78.34 1039.86,-83.64"/>
<text xml:space="preserve" text-anchor="middle" x="988.35" y="-101.4" font-family="Arial" font-size="9.00">non</text>
</g>
<!-- SuffixCheck&#45;&gt;Reject -->
<g id="edge11" class="edge">
<title>SuffixCheck&#45;&gt;Reject</title>
<path fill="none" stroke="#ad1457" stroke-dasharray="5,2" d="M946.03,-134.58C1018.02,-140.96 1146.96,-152.38 1213.44,-158.26"/>
<polygon fill="#ad1457" stroke="#ad1457" points="1213.05,-161.04 1221.27,-158.96 1213.55,-155.46 1213.05,-161.04"/>
<text xml:space="preserve" text-anchor="middle" x="1087.18" y="-154.69" font-family="Arial" font-size="9.00">oui</text>
</g>
<!-- ExtensionCheck&#45;&gt;Reject -->
<g id="edge13" class="edge">
<title>ExtensionCheck&#45;&gt;Reject</title>
<path fill="none" stroke="#ad1457" stroke-dasharray="5,2" d="M1118.11,-82.34C1145.37,-98.13 1185.82,-121.56 1215.79,-138.93"/>
<polygon fill="#ad1457" stroke="#ad1457" points="1214.32,-141.31 1222.64,-142.9 1217.12,-136.46 1214.32,-141.31"/>
<text xml:space="preserve" text-anchor="middle" x="1186.02" y="-126.99" font-family="Arial" font-size="9.00">non</text>
</g>
<!-- Keep -->
<g id="node13" class="node">
<title>Keep</title>
<path fill="#fce4ec" stroke="#ad1457" d="M1280.35,-83C1280.35,-83 1232.89,-83 1232.89,-83 1226.89,-83 1220.89,-77 1220.89,-71 1220.89,-71 1220.89,-59 1220.89,-59 1220.89,-53 1226.89,-47 1232.89,-47 1232.89,-47 1280.35,-47 1280.35,-47 1286.35,-47 1292.35,-53 1292.35,-59 1292.35,-59 1292.35,-71 1292.35,-71 1292.35,-77 1286.35,-83 1280.35,-83"/>
<text xml:space="preserve" text-anchor="middle" x="1256.62" y="-67.5" font-family="Arial" font-size="10.00">keep</text>
<text xml:space="preserve" text-anchor="middle" x="1256.62" y="-55.5" font-family="Arial" font-size="10.00">resolved path</text>
</g>
<!-- ExtensionCheck&#45;&gt;Keep -->
<g id="edge14" class="edge">
<title>ExtensionCheck&#45;&gt;Keep</title>
<path fill="none" stroke="#2e7d32" d="M1151.96,-65C1171.79,-65 1193.21,-65 1211.4,-65"/>
<polygon fill="#2e7d32" stroke="#2e7d32" points="1211.08,-67.8 1219.08,-65 1211.08,-62.2 1211.08,-67.8"/>
<text xml:space="preserve" text-anchor="middle" x="1186.02" y="-66.95" font-family="Arial" font-size="9.00">oui</text>
</g>
<!-- Read -->
<g id="node14" class="node">
<title>Read</title>
<path fill="#e8f5e9" stroke="#2e7d32" d="M1419.56,-83C1419.56,-83 1359.35,-83 1359.35,-83 1353.35,-83 1347.35,-77 1347.35,-71 1347.35,-71 1347.35,-59 1347.35,-59 1347.35,-53 1353.35,-47 1359.35,-47 1359.35,-47 1419.56,-47 1419.56,-47 1425.56,-47 1431.56,-53 1431.56,-59 1431.56,-59 1431.56,-71 1431.56,-71 1431.56,-77 1425.56,-83 1419.56,-83"/>
<text xml:space="preserve" text-anchor="middle" x="1389.46" y="-67.5" font-family="Arial" font-size="10.00">read_text UTF&#45;8</text>
<text xml:space="preserve" text-anchor="middle" x="1389.46" y="-55.5" font-family="Arial" font-size="10.00">errors=replace</text>
</g>
<!-- Keep&#45;&gt;Read -->
<g id="edge15" class="edge">
<title>Keep&#45;&gt;Read</title>
<path fill="none" stroke="#455a64" d="M1292.68,-65C1306.6,-65 1322.87,-65 1338.01,-65"/>
<polygon fill="#455a64" stroke="#455a64" points="1337.74,-67.8 1345.74,-65 1337.74,-62.2 1337.74,-67.8"/>
</g>
<!-- SourceDoc -->
<g id="node15" class="node">
<title>SourceDoc</title>
<path fill="#e8f5e9" stroke="#2e7d32" d="M1579.02,-83C1579.02,-83 1498.56,-83 1498.56,-83 1492.56,-83 1486.56,-77 1486.56,-71 1486.56,-71 1486.56,-59 1486.56,-59 1486.56,-53 1492.56,-47 1498.56,-47 1498.56,-47 1579.02,-47 1579.02,-47 1585.02,-47 1591.02,-53 1591.02,-59 1591.02,-59 1591.02,-71 1591.02,-71 1591.02,-77 1585.02,-83 1579.02,-83"/>
<text xml:space="preserve" text-anchor="middle" x="1538.79" y="-67.5" font-family="Arial" font-size="10.00">E5SourceDocument</text>
<text xml:space="preserve" text-anchor="middle" x="1538.79" y="-55.5" font-family="Arial" font-size="10.00">source_hash + bytes</text>
</g>
<!-- Read&#45;&gt;SourceDoc -->
<g id="edge16" class="edge">
<title>Read&#45;&gt;SourceDoc</title>
<path fill="none" stroke="#455a64" d="M1431.89,-65C1445.84,-65 1461.72,-65 1476.86,-65"/>
<polygon fill="#455a64" stroke="#455a64" points="1476.65,-67.8 1484.65,-65 1476.65,-62.2 1476.65,-67.8"/>
</g>
<!-- Chunk -->
<g id="node16" class="node">
<title>Chunk</title>
<path fill="#e8f5e9" stroke="#2e7d32" d="M1706.23,-83C1706.23,-83 1658.02,-83 1658.02,-83 1652.02,-83 1646.02,-77 1646.02,-71 1646.02,-71 1646.02,-59 1646.02,-59 1646.02,-53 1652.02,-47 1658.02,-47 1658.02,-47 1706.23,-47 1706.23,-47 1712.23,-47 1718.23,-53 1718.23,-59 1718.23,-59 1718.23,-71 1718.23,-71 1718.23,-77 1712.23,-83 1706.23,-83"/>
<text xml:space="preserve" text-anchor="middle" x="1682.13" y="-67.5" font-family="Arial" font-size="10.00">E5TextChunk</text>
<text xml:space="preserve" text-anchor="middle" x="1682.13" y="-55.5" font-family="Arial" font-size="10.00">line ranges</text>
</g>
<!-- SourceDoc&#45;&gt;Chunk -->
<g id="edge17" class="edge">
<title>SourceDoc&#45;&gt;Chunk</title>
<path fill="none" stroke="#455a64" d="M1591.21,-65C1606.11,-65 1622.23,-65 1636.66,-65"/>
<polygon fill="#455a64" stroke="#455a64" points="1636.35,-67.8 1644.35,-65 1636.35,-62.2 1636.35,-67.8"/>
</g>
<!-- CorpusDoc -->
<g id="node17" class="node">
<title>CorpusDoc</title>
<g id="a_node17"><a xlink:href="50_e5_corpus.svg" xlink:title="E5CorpusDocument\npassage metadata">
<path fill="#e8f5e9" stroke="#2e7d32" d="M1862.69,-83C1862.69,-83 1785.23,-83 1785.23,-83 1779.23,-83 1773.23,-77 1773.23,-71 1773.23,-71 1773.23,-59 1773.23,-59 1773.23,-53 1779.23,-47 1785.23,-47 1785.23,-47 1862.69,-47 1862.69,-47 1868.69,-47 1874.69,-53 1874.69,-59 1874.69,-59 1874.69,-71 1874.69,-71 1874.69,-77 1868.69,-83 1862.69,-83"/>
<text xml:space="preserve" text-anchor="middle" x="1823.96" y="-67.5" font-family="Arial" font-size="10.00">E5CorpusDocument</text>
<text xml:space="preserve" text-anchor="middle" x="1823.96" y="-55.5" font-family="Arial" font-size="10.00">passage metadata</text>
</a>
</g>
</g>
<!-- Chunk&#45;&gt;CorpusDoc -->
<g id="edge18" class="edge">
<title>Chunk&#45;&gt;CorpusDoc</title>
<path fill="none" stroke="#455a64" d="M1718.41,-65C1732.08,-65 1748.11,-65 1763.46,-65"/>
<polygon fill="#455a64" stroke="#455a64" points="1763.38,-67.8 1771.38,-65 1763.38,-62.2 1763.38,-67.8"/>
</g>
<!-- Build -->
<g id="node18" class="node">
<title>Build</title>
<g id="a_node18"><a xlink:href="50_e5_corpus.svg" xlink:title="build_e5_corpus.py">
<path fill="#efebe9" stroke="#6d4c41" d="M2018.78,-120C2018.78,-120 1945.82,-120 1945.82,-120 1939.82,-120 1933.82,-114 1933.82,-108 1933.82,-108 1933.82,-96 1933.82,-96 1933.82,-90 1939.82,-84 1945.82,-84 1945.82,-84 2018.78,-84 2018.78,-84 2024.78,-84 2030.78,-90 2030.78,-96 2030.78,-96 2030.78,-108 2030.78,-108 2030.78,-114 2024.78,-120 2018.78,-120"/>
<text xml:space="preserve" text-anchor="middle" x="1982.3" y="-98.5" font-family="Arial" font-size="10.00">build_e5_corpus.py</text>
</a>
</g>
</g>
<!-- CorpusDoc&#45;&gt;Build -->
<g id="edge19" class="edge">
<title>CorpusDoc&#45;&gt;Build</title>
<path fill="none" stroke="#455a64" d="M1874.86,-76.81C1890.69,-80.56 1908.31,-84.73 1924.59,-88.58"/>
<polygon fill="#455a64" stroke="#455a64" points="1923.57,-91.22 1932,-90.33 1924.86,-85.77 1923.57,-91.22"/>
</g>
<!-- Rebuild -->
<g id="node19" class="node">
<title>Rebuild</title>
<g id="a_node19"><a xlink:href="56_e5_safe_rebuild.svg" xlink:title="rebuild_e5_corpus.py">
<path fill="#efebe9" stroke="#6d4c41" d="M2022.9,-52C2022.9,-52 1941.69,-52 1941.69,-52 1935.69,-52 1929.69,-46 1929.69,-40 1929.69,-40 1929.69,-28 1929.69,-28 1929.69,-22 1935.69,-16 1941.69,-16 1941.69,-16 2022.9,-16 2022.9,-16 2028.9,-16 2034.9,-22 2034.9,-28 2034.9,-28 2034.9,-40 2034.9,-40 2034.9,-46 2028.9,-52 2022.9,-52"/>
<text xml:space="preserve" text-anchor="middle" x="1982.3" y="-30.5" font-family="Arial" font-size="10.00">rebuild_e5_corpus.py</text>
</a>
</g>
</g>
<!-- CorpusDoc&#45;&gt;Rebuild -->
<g id="edge20" class="edge">
<title>CorpusDoc&#45;&gt;Rebuild</title>
<path fill="none" stroke="#455a64" d="M1874.86,-55.11C1889.29,-52.24 1905.2,-49.09 1920.23,-46.11"/>
<polygon fill="#455a64" stroke="#455a64" points="1920.67,-48.88 1927.97,-44.57 1919.58,-43.38 1920.67,-48.88"/>
</g>
<!-- SearchQuality -->
<g id="node20" class="node">
<title>SearchQuality</title>
<g id="a_node20"><a xlink:href="57_e5_score_guard.svg" xlink:title="corpus moins bruité\nmeilleurs diagnostics">
<path fill="#efebe9" stroke="#6d4c41" d="M2246.82,-86C2246.82,-86 2166.36,-86 2166.36,-86 2160.36,-86 2154.36,-80 2154.36,-74 2154.36,-74 2154.36,-62 2154.36,-62 2154.36,-56 2160.36,-50 2166.36,-50 2166.36,-50 2246.82,-50 2246.82,-50 2252.82,-50 2258.82,-56 2258.82,-62 2258.82,-62 2258.82,-74 2258.82,-74 2258.82,-80 2252.82,-86 2246.82,-86"/>
<text xml:space="preserve" text-anchor="middle" x="2206.59" y="-70.5" font-family="Arial" font-size="10.00">corpus moins bruité</text>
<text xml:space="preserve" text-anchor="middle" x="2206.59" y="-58.5" font-family="Arial" font-size="10.00">meilleurs diagnostics</text>
</a>
</g>
</g>
<!-- Build&#45;&gt;SearchQuality -->
<g id="edge21" class="edge">
<title>Build&#45;&gt;SearchQuality</title>
<path fill="none" stroke="#455a64" d="M2031.26,-94.66C2064.53,-89.58 2109.12,-82.76 2144.87,-77.29"/>
<polygon fill="#455a64" stroke="#455a64" points="2145.25,-80.06 2152.74,-76.08 2144.4,-74.53 2145.25,-80.06"/>
</g>
<!-- Rebuild&#45;&gt;SearchQuality -->
<g id="edge22" class="edge">
<title>Rebuild&#45;&gt;SearchQuality</title>
<path fill="none" stroke="#455a64" d="M2035.13,-41.93C2067.99,-46.95 2110.63,-53.48 2145.04,-58.74"/>
<polygon fill="#455a64" stroke="#455a64" points="2144.23,-61.45 2152.56,-59.89 2145.07,-55.91 2144.23,-61.45"/>
</g>
<!-- NoScheduler -->
<g id="node21" class="node">
<title>NoScheduler</title>
<polygon fill="#fafafa" stroke="#78909c" points="2020.65,-273 1937.94,-273 1937.94,-237 2026.65,-237 2026.65,-267 2020.65,-273"/>
<polyline fill="none" stroke="#78909c" points="2020.65,-273 2020.65,-267"/>
<polyline fill="none" stroke="#78909c" points="2026.65,-267 2020.65,-267"/>
<text xml:space="preserve" text-anchor="middle" x="1982.3" y="-251.5" font-family="Arial" font-size="10.00">pas de Scheduler</text>
</g>
<!-- NoQdrant -->
<g id="node22" class="node">
<title>NoQdrant</title>
<polygon fill="#fafafa" stroke="#78909c" points="2237.82,-273 2169.36,-273 2169.36,-237 2243.82,-237 2243.82,-267 2237.82,-273"/>
<polyline fill="none" stroke="#78909c" points="2237.82,-273 2237.82,-267"/>
<polyline fill="none" stroke="#78909c" points="2243.82,-267 2237.82,-267"/>
<text xml:space="preserve" text-anchor="middle" x="2206.59" y="-251.5" font-family="Arial" font-size="10.00">pas de Qdrant</text>
</g>
<!-- NoScheduler&#45;&gt;NoQdrant -->
<!-- NoFormat -->
<g id="node23" class="node">
<title>NoFormat</title>
<polygon fill="#fafafa" stroke="#78909c" points="2422.78,-273 2313.82,-273 2313.82,-237 2428.78,-237 2428.78,-267 2422.78,-273"/>
<polyline fill="none" stroke="#78909c" points="2422.78,-273 2422.78,-267"/>
<polyline fill="none" stroke="#78909c" points="2428.78,-267 2422.78,-267"/>
<text xml:space="preserve" text-anchor="middle" x="2371.3" y="-251.5" font-family="Arial" font-size="10.00">format corpus inchangé</text>
</g>
<!-- NoQdrant&#45;&gt;NoFormat -->
<!-- NoSvg -->
<g id="node24" class="node">
<title>NoSvg</title>
<polygon fill="#fafafa" stroke="#78909c" points="2588.99,-273 2483.78,-273 2483.78,-237 2594.99,-237 2594.99,-267 2588.99,-273"/>
<polyline fill="none" stroke="#78909c" points="2588.99,-273 2588.99,-267"/>
<polyline fill="none" stroke="#78909c" points="2594.99,-267 2588.99,-267"/>
<text xml:space="preserve" text-anchor="middle" x="2539.39" y="-251.5" font-family="Arial" font-size="10.00">pas de SVG versionné</text>
</g>
<!-- NoFormat&#45;&gt;NoSvg -->
<!-- Nav_Inference -->
<g id="node25" class="node">
<title>Nav_Inference</title>
<g id="a_node25"><a xlink:href="40_inference.svg" xlink:title="Inference">
<path fill="lightgrey" stroke="none" d="M2109.63,-345C2109.63,-345 2079.63,-345 2079.63,-345 2073.63,-345 2067.63,-339 2067.63,-333 2067.63,-333 2067.63,-321 2067.63,-321 2067.63,-315 2073.63,-309 2079.63,-309 2079.63,-309 2109.63,-309 2109.63,-309 2115.63,-309 2121.63,-315 2121.63,-321 2121.63,-321 2121.63,-333 2121.63,-333 2121.63,-339 2115.63,-345 2109.63,-345"/>
<text xml:space="preserve" text-anchor="middle" x="2094.63" y="-323.5" font-family="Arial" font-size="10.00">Inference</text>
</a>
</g>
</g>
<!-- Nav_Sources -->
<g id="node26" class="node">
<title>Nav_Sources</title>
<g id="a_node26"><a xlink:href="51_e5_sources.svg" xlink:title="E5 sources">
<path fill="lightgrey" stroke="none" d="M2113.86,-386C2113.86,-386 2075.4,-386 2075.4,-386 2069.4,-386 2063.4,-380 2063.4,-374 2063.4,-374 2063.4,-362 2063.4,-362 2063.4,-356 2069.4,-350 2075.4,-350 2075.4,-350 2113.86,-350 2113.86,-350 2119.86,-350 2125.86,-356 2125.86,-362 2125.86,-362 2125.86,-374 2125.86,-374 2125.86,-380 2119.86,-386 2113.86,-386"/>
<text xml:space="preserve" text-anchor="middle" x="2094.63" y="-364.5" font-family="Arial" font-size="10.00">E5 sources</text>
</a>
</g>
</g>
<!-- Nav_Corpus -->
<g id="node27" class="node">
<title>Nav_Corpus</title>
<g id="a_node27"><a xlink:href="50_e5_corpus.svg" xlink:title="E5 corpus">
<path fill="lightgrey" stroke="none" d="M2111.24,-427C2111.24,-427 2078.03,-427 2078.03,-427 2072.03,-427 2066.03,-421 2066.03,-415 2066.03,-415 2066.03,-403 2066.03,-403 2066.03,-397 2072.03,-391 2078.03,-391 2078.03,-391 2111.24,-391 2111.24,-391 2117.24,-391 2123.24,-397 2123.24,-403 2123.24,-403 2123.24,-415 2123.24,-415 2123.24,-421 2117.24,-427 2111.24,-427"/>
<text xml:space="preserve" text-anchor="middle" x="2094.63" y="-405.5" font-family="Arial" font-size="10.00">E5 corpus</text>
</a>
</g>
</g>
<!-- Nav_SafeRebuild -->
<g id="node28" class="node">
<title>Nav_SafeRebuild</title>
<g id="a_node28"><a xlink:href="56_e5_safe_rebuild.svg" xlink:title="Safe rebuild">
<path fill="lightgrey" stroke="none" d="M2114.99,-468C2114.99,-468 2074.28,-468 2074.28,-468 2068.28,-468 2062.28,-462 2062.28,-456 2062.28,-456 2062.28,-444 2062.28,-444 2062.28,-438 2068.28,-432 2074.28,-432 2074.28,-432 2114.99,-432 2114.99,-432 2120.99,-432 2126.99,-438 2126.99,-444 2126.99,-444 2126.99,-456 2126.99,-456 2126.99,-462 2120.99,-468 2114.99,-468"/>
<text xml:space="preserve" text-anchor="middle" x="2094.63" y="-446.5" font-family="Arial" font-size="10.00">Safe rebuild</text>
</a>
</g>
</g>
<!-- Nav_ScoreGuard -->
<g id="node29" class="node">
<title>Nav_ScoreGuard</title>
<g id="a_node29"><a xlink:href="57_e5_score_guard.svg" xlink:title="Score guard">
<path fill="lightgrey" stroke="none" d="M2115.36,-509C2115.36,-509 2073.9,-509 2073.9,-509 2067.9,-509 2061.9,-503 2061.9,-497 2061.9,-497 2061.9,-485 2061.9,-485 2061.9,-479 2067.9,-473 2073.9,-473 2073.9,-473 2115.36,-473 2115.36,-473 2121.36,-473 2127.36,-479 2127.36,-485 2127.36,-485 2127.36,-497 2127.36,-497 2127.36,-503 2121.36,-509 2115.36,-509"/>
<text xml:space="preserve" text-anchor="middle" x="2094.63" y="-487.5" font-family="Arial" font-size="10.00">Score guard</text>
</a>
</g>
</g>
</g>
</svg>
