<?xml version="1.0" encoding="UTF-8" standalone="no"?>
<!DOCTYPE svg PUBLIC "-//W3C//DTD SVG 1.1//EN"
 "http://www.w3.org/Graphics/SVG/1.1/DTD/svg11.dtd">
<!-- Generated by graphviz version 14.1.3 (20260303.0454)
 -->
<!-- Title: E5SourceHygieneCli Pages: 1 -->
<svg width="1636pt" height="496pt"
 viewBox="0.00 0.00 1636.00 496.00" xmlns="http://www.w3.org/2000/svg" xmlns:xlink="http://www.w3.org/1999/xlink">
<g id="graph0" class="graph" transform="scale(1 1) rotate(0) translate(18 478)">
<title>E5SourceHygieneCli</title>
<polygon fill="white" stroke="none" points="-18,18 -18,-478 1618.35,-478 1618.35,18 -18,18"/>
<text xml:space="preserve" text-anchor="middle" x="800.18" y="-446.5" font-family="Arial" font-size="10.00">Phase 4.5 — E5 source hygiene CLI controls</text>
<g id="clust1" class="cluster">
<title>cluster_commands</title>
<polygon fill="#e3f2fd" stroke="#1565c0" stroke-width="1.5" points="8,-292 8,-432 182.46,-432 182.46,-292 8,-292"/>
<text xml:space="preserve" text-anchor="middle" x="95.23" y="-418.5" font-family="Arial" font-size="10.00">Commandes exposées</text>
</g>
<g id="clust2" class="cluster">
<title>cluster_args</title>
<polygon fill="#fff3e0" stroke="#ef6c00" stroke-width="1.7" points="20.38,-8 20.38,-284 170.09,-284 170.09,-8 20.38,-8"/>
<text xml:space="preserve" text-anchor="middle" x="95.23" y="-270.5" font-family="Arial" font-size="10.00">Options utilisateur</text>
</g>
<g id="clust3" class="cluster">
<title>cluster_shared</title>
<polygon fill="#f3e5f5" stroke="#6a1b9a" stroke-width="1.5" points="217.46,-211 217.46,-351 685.59,-351 685.59,-211 217.46,-211"/>
<text xml:space="preserve" text-anchor="middle" x="451.53" y="-337.5" font-family="Arial" font-size="10.00">Chemin partagé</text>
</g>
<g id="clust4" class="cluster">
<title>cluster_guards</title>
<polygon fill="#e8f5e9" stroke="#2e7d32" stroke-width="1.5" points="720.59,-143 720.59,-351 1225.22,-351 1225.22,-143 720.59,-143"/>
<text xml:space="preserve" text-anchor="middle" x="972.91" y="-337.5" font-family="Arial" font-size="10.00">Garanties</text>
</g>
<g id="clust5" class="cluster">
<title>cluster_scope</title>
<polygon fill="#fafafa" stroke="#78909c" points="1107.01,-63 1107.01,-135 1592.35,-135 1592.35,-63 1107.01,-63"/>
<text xml:space="preserve" text-anchor="middle" x="1349.68" y="-121.5" font-family="Arial" font-size="10.00">Hors périmètre</text>
</g>
<!-- BuildCli -->
<g id="node1" class="node">
<title>BuildCli</title>
<g id="a_node1"><a xlink:href="50_e5_corpus.svg" xlink:title="build_e5_corpus.py\nindex local">
<path fill="#e3f2fd" stroke="#1565c0" d="M131.71,-404C131.71,-404 58.75,-404 58.75,-404 52.75,-404 46.75,-398 46.75,-392 46.75,-392 46.75,-380 46.75,-380 46.75,-374 52.75,-368 58.75,-368 58.75,-368 131.71,-368 131.71,-368 137.71,-368 143.71,-374 143.71,-380 143.71,-380 143.71,-392 143.71,-392 143.71,-398 137.71,-404 131.71,-404"/>
<text xml:space="preserve" text-anchor="middle" x="95.23" y="-388.5" font-family="Arial" font-size="10.00">build_e5_corpus.py</text>
<text xml:space="preserve" text-anchor="middle" x="95.23" y="-376.5" font-family="Arial" font-size="10.00">index local</text>
</a>
</g>
</g>
<!-- CollectBuild -->
<g id="node7" class="node">
<title>CollectBuild</title>
<path fill="#f3e5f5" stroke="#6a1b9a" d="M376.42,-323C376.42,-323 237.46,-323 237.46,-323 231.46,-323 225.46,-317 225.46,-311 225.46,-311 225.46,-299 225.46,-299 225.46,-293 231.46,-287 237.46,-287 237.46,-287 376.42,-287 376.42,-287 382.42,-287 388.42,-293 388.42,-299 388.42,-299 388.42,-311 388.42,-311 388.42,-317 382.42,-323 376.42,-323"/>
<text xml:space="preserve" text-anchor="middle" x="306.94" y="-301.5" font-family="Arial" font-size="10.00">e5_corpus_cli._collect_passages()</text>
</g>
<!-- BuildCli&#45;&gt;CollectBuild -->
<g id="edge1" class="edge">
<title>BuildCli&#45;&gt;CollectBuild</title>
<path fill="none" stroke="#455a64" d="M144.08,-367.52C175.48,-355.39 216.69,-339.47 249.67,-326.74"/>
<polygon fill="#455a64" stroke="#455a64" points="250.43,-329.44 256.88,-323.95 248.41,-324.22 250.43,-329.44"/>
</g>
<!-- RebuildCli -->
<g id="node2" class="node">
<title>RebuildCli</title>
<g id="a_node2"><a xlink:href="56_e5_safe_rebuild.svg" xlink:title="rebuild_e5_corpus.py\nstaging &#45;&gt; validation &#45;&gt; promotion">
<path fill="#e3f2fd" stroke="#1565c0" d="M162.46,-336C162.46,-336 28,-336 28,-336 22,-336 16,-330 16,-324 16,-324 16,-312 16,-312 16,-306 22,-300 28,-300 28,-300 162.46,-300 162.46,-300 168.46,-300 174.46,-306 174.46,-312 174.46,-312 174.46,-324 174.46,-324 174.46,-330 168.46,-336 162.46,-336"/>
<text xml:space="preserve" text-anchor="middle" x="95.23" y="-320.5" font-family="Arial" font-size="10.00">rebuild_e5_corpus.py</text>
<text xml:space="preserve" text-anchor="middle" x="95.23" y="-308.5" font-family="Arial" font-size="10.00">staging &#45;&gt; validation &#45;&gt; promotion</text>
</a>
</g>
</g>
<!-- CollectRebuild -->
<g id="node8" class="node">
<title>CollectRebuild</title>
<path fill="#f3e5f5" stroke="#6a1b9a" d="M376.05,-255C376.05,-255 237.84,-255 237.84,-255 231.84,-255 225.84,-249 225.84,-243 225.84,-243 225.84,-231 225.84,-231 225.84,-225 231.84,-219 237.84,-219 237.84,-219 376.05,-219 376.05,-219 382.05,-219 388.05,-225 388.05,-231 388.05,-231 388.05,-243 388.05,-243 388.05,-249 382.05,-255 376.05,-255"/>
<text xml:space="preserve" text-anchor="middle" x="306.94" y="-233.5" font-family="Arial" font-size="10.00">e5_rebuild_cli._collect_passages()</text>
</g>
<!-- RebuildCli&#45;&gt;CollectRebuild -->
<g id="edge2" class="edge">
<title>RebuildCli&#45;&gt;CollectRebuild</title>
<path fill="none" stroke="#455a64" d="M163.21,-299.61C169.8,-297.26 176.31,-294.72 182.46,-292 199.05,-284.66 201.15,-278.95 217.46,-271 226.09,-266.79 235.38,-262.74 244.59,-258.98"/>
<polygon fill="#455a64" stroke="#455a64" points="245.57,-261.61 251.96,-256.04 243.49,-256.4 245.57,-261.61"/>
</g>
<!-- SourceDir -->
<g id="node3" class="node">
<title>SourceDir</title>
<path fill="#fff3e0" stroke="#ef6c00" d="M128.34,-256C128.34,-256 62.13,-256 62.13,-256 56.13,-256 50.13,-250 50.13,-244 50.13,-244 50.13,-232 50.13,-232 50.13,-226 56.13,-220 62.13,-220 62.13,-220 128.34,-220 128.34,-220 134.34,-220 140.34,-226 140.34,-232 140.34,-232 140.34,-244 140.34,-244 140.34,-250 134.34,-256 128.34,-256"/>
<text xml:space="preserve" text-anchor="middle" x="95.23" y="-240.5" font-family="Arial" font-size="10.00">&#45;&#45;source&#45;dir PATH</text>
<text xml:space="preserve" text-anchor="middle" x="95.23" y="-228.5" font-family="Arial" font-size="10.00">répétable</text>
</g>
<!-- SourceDir&#45;&gt;CollectBuild -->
<g id="edge3" class="edge">
<title>SourceDir&#45;&gt;CollectBuild</title>
<path fill="none" stroke="#455a64" d="M140.7,-252.21C169.39,-261.37 207.22,-273.46 239.44,-283.75"/>
<polygon fill="#455a64" stroke="#455a64" points="238.45,-286.38 246.93,-286.15 240.16,-281.04 238.45,-286.38"/>
</g>
<!-- SourceDir&#45;&gt;CollectRebuild -->
<g id="edge4" class="edge">
<title>SourceDir&#45;&gt;CollectRebuild</title>
<path fill="none" stroke="#455a64" d="M140.7,-237.79C162.75,-237.68 190.2,-237.55 216.36,-237.43"/>
<polygon fill="#455a64" stroke="#455a64" points="216.04,-240.23 224.03,-237.39 216.02,-234.63 216.04,-240.23"/>
</g>
<!-- ExcludeDir -->
<g id="node4" class="node">
<title>ExcludeDir</title>
<path fill="#fff3e0" stroke="#ef6c00" d="M132.46,-188C132.46,-188 58,-188 58,-188 52,-188 46,-182 46,-176 46,-176 46,-164 46,-164 46,-158 52,-152 58,-152 58,-152 132.46,-152 132.46,-152 138.46,-152 144.46,-158 144.46,-164 144.46,-164 144.46,-176 144.46,-176 144.46,-182 138.46,-188 132.46,-188"/>
<text xml:space="preserve" text-anchor="middle" x="95.23" y="-172.5" font-family="Arial" font-size="10.00">&#45;&#45;exclude&#45;dir NAME</text>
<text xml:space="preserve" text-anchor="middle" x="95.23" y="-160.5" font-family="Arial" font-size="10.00">ex: vendor</text>
</g>
<!-- Merge -->
<g id="node9" class="node">
<title>Merge</title>
<path fill="#f3e5f5" stroke="#6a1b9a" d="M527.38,-255C527.38,-255 451.42,-255 451.42,-255 445.42,-255 439.42,-249 439.42,-243 439.42,-243 439.42,-231 439.42,-231 439.42,-225 445.42,-219 451.42,-219 451.42,-219 527.38,-219 527.38,-219 533.38,-219 539.38,-225 539.38,-231 539.38,-231 539.38,-243 539.38,-243 539.38,-249 533.38,-255 527.38,-255"/>
<text xml:space="preserve" text-anchor="middle" x="489.4" y="-239.5" font-family="Arial" font-size="10.00">_merge_cli_values()</text>
<text xml:space="preserve" text-anchor="middle" x="489.4" y="-227.5" font-family="Arial" font-size="10.00">defaults + extras</text>
</g>
<!-- ExcludeDir&#45;&gt;Merge -->
<g id="edge5" class="edge">
<title>ExcludeDir&#45;&gt;Merge</title>
<path fill="none" stroke="#455a64" d="M144.84,-172.29C203.26,-175.76 303.98,-184.11 388.42,-203 402.87,-206.23 418.15,-210.81 432.29,-215.56"/>
<polygon fill="#455a64" stroke="#455a64" points="431.03,-218.09 439.51,-218.04 432.85,-212.79 431.03,-218.09"/>
</g>
<!-- ExcludeSuffix -->
<g id="node5" class="node">
<title>ExcludeSuffix</title>
<path fill="#fff3e0" stroke="#ef6c00" d="M150.09,-120C150.09,-120 40.38,-120 40.38,-120 34.37,-120 28.38,-114 28.38,-108 28.38,-108 28.38,-96 28.38,-96 28.38,-90 34.38,-84 40.38,-84 40.38,-84 150.09,-84 150.09,-84 156.09,-84 162.09,-90 162.09,-96 162.09,-96 162.09,-108 162.09,-108 162.09,-114 156.09,-120 150.09,-120"/>
<text xml:space="preserve" text-anchor="middle" x="95.23" y="-104.5" font-family="Arial" font-size="10.00">&#45;&#45;exclude&#45;file&#45;suffix SUFFIX</text>
<text xml:space="preserve" text-anchor="middle" x="95.23" y="-92.5" font-family="Arial" font-size="10.00">ex: .draft.md</text>
</g>
<!-- ExcludeSuffix&#45;&gt;Merge -->
<g id="edge6" class="edge">
<title>ExcludeSuffix&#45;&gt;Merge</title>
<path fill="none" stroke="#455a64" d="M162.5,-110.44C223.17,-119.77 314.49,-137.91 388.42,-170 413.86,-181.04 439.79,-198.64 458.87,-213.03"/>
<polygon fill="#455a64" stroke="#455a64" points="457.09,-215.2 465.14,-217.85 460.5,-210.76 457.09,-215.2"/>
</g>
<!-- NoRecursive -->
<g id="node6" class="node">
<title>NoRecursive</title>
<path fill="#fff3e0" stroke="#ef6c00" d="M119.34,-52C119.34,-52 71.13,-52 71.13,-52 65.13,-52 59.13,-46 59.13,-40 59.13,-40 59.13,-28 59.13,-28 59.13,-22 65.13,-16 71.13,-16 71.13,-16 119.34,-16 119.34,-16 125.33,-16 131.34,-22 131.34,-28 131.34,-28 131.34,-40 131.34,-40 131.34,-46 125.34,-52 119.34,-52"/>
<text xml:space="preserve" text-anchor="middle" x="95.23" y="-36.5" font-family="Arial" font-size="10.00">&#45;&#45;no&#45;recursive</text>
<text xml:space="preserve" text-anchor="middle" x="95.23" y="-24.5" font-family="Arial" font-size="10.00">scan plat</text>
</g>
<!-- Sources -->
<g id="node10" class="node">
<title>Sources</title>
<g id="a_node10"><a xlink:href="58_e5_source_hygiene.svg" xlink:title="e5_sources.py\nsource discovery">
<path fill="#f3e5f5" stroke="#6a1b9a" d="M665.59,-255C665.59,-255 602.38,-255 602.38,-255 596.38,-255 590.38,-249 590.38,-243 590.38,-243 590.38,-231 590.38,-231 590.38,-225 596.38,-219 602.38,-219 602.38,-219 665.59,-219 665.59,-219 671.59,-219 677.59,-225 677.59,-231 677.59,-231 677.59,-243 677.59,-243 677.59,-249 671.59,-255 665.59,-255"/>
<text xml:space="preserve" text-anchor="middle" x="633.99" y="-239.5" font-family="Arial" font-size="10.00">e5_sources.py</text>
<text xml:space="preserve" text-anchor="middle" x="633.99" y="-227.5" font-family="Arial" font-size="10.00">source discovery</text>
</a>
</g>
</g>
<!-- NoRecursive&#45;&gt;Sources -->
<g id="edge7" class="edge">
<title>NoRecursive&#45;&gt;Sources</title>
<path fill="none" stroke="#455a64" d="M131.62,-40.91C187.35,-52.36 298.48,-77.46 388.42,-112 464.01,-141.03 546.92,-186.54 594.19,-213.9"/>
<polygon fill="#455a64" stroke="#455a64" points="592.67,-216.26 601,-217.87 595.49,-211.42 592.67,-216.26"/>
</g>
<!-- CollectBuild&#45;&gt;Merge -->
<g id="edge8" class="edge">
<title>CollectBuild&#45;&gt;Merge</title>
<path fill="none" stroke="#455a64" d="M356.78,-286.6C379.64,-277.98 407.04,-267.66 430.91,-258.66"/>
<polygon fill="#455a64" stroke="#455a64" points="431.61,-261.39 438.11,-255.95 429.64,-256.15 431.61,-261.39"/>
</g>
<!-- CollectRebuild&#45;&gt;Merge -->
<g id="edge9" class="edge">
<title>CollectRebuild&#45;&gt;Merge</title>
<path fill="none" stroke="#455a64" d="M388.41,-237C402.32,-237 416.55,-237 429.75,-237"/>
<polygon fill="#455a64" stroke="#455a64" points="429.65,-239.8 437.65,-237 429.65,-234.2 429.65,-239.8"/>
</g>
<!-- Merge&#45;&gt;Sources -->
<g id="edge10" class="edge">
<title>Merge&#45;&gt;Sources</title>
<path fill="none" stroke="#455a64" d="M539.87,-237C553.2,-237 567.66,-237 581.12,-237"/>
<polygon fill="#455a64" stroke="#455a64" points="580.74,-239.8 588.74,-237 580.74,-234.2 580.74,-239.8"/>
</g>
<!-- DefaultsKept -->
<g id="node11" class="node">
<title>DefaultsKept</title>
<path fill="#e8f5e9" stroke="#2e7d32" d="M854.8,-323C854.8,-323 740.59,-323 740.59,-323 734.59,-323 728.59,-317 728.59,-311 728.59,-311 728.59,-299 728.59,-299 728.59,-293 734.59,-287 740.59,-287 740.59,-287 854.8,-287 854.8,-287 860.8,-287 866.8,-293 866.8,-299 866.8,-299 866.8,-311 866.8,-311 866.8,-317 860.8,-323 854.8,-323"/>
<text xml:space="preserve" text-anchor="middle" x="797.7" y="-307.5" font-family="Arial" font-size="10.00">defaults conservés</text>
<text xml:space="preserve" text-anchor="middle" x="797.7" y="-295.5" font-family="Arial" font-size="10.00">.git, caches, venv, build, dist</text>
</g>
<!-- Sources&#45;&gt;DefaultsKept -->
<g id="edge11" class="edge">
<title>Sources&#45;&gt;DefaultsKept</title>
<path fill="none" stroke="#455a64" d="M677.9,-255.04C698.21,-263.59 722.65,-273.87 744.07,-282.87"/>
<polygon fill="#455a64" stroke="#455a64" points="742.88,-285.41 751.34,-285.93 745.05,-280.25 742.88,-285.41"/>
</g>
<!-- ExtraOnly -->
<g id="node12" class="node">
<title>ExtraOnly</title>
<path fill="#e8f5e9" stroke="#2e7d32" d="M839.05,-255C839.05,-255 756.34,-255 756.34,-255 750.34,-255 744.34,-249 744.34,-243 744.34,-243 744.34,-231 744.34,-231 744.34,-225 750.34,-219 756.34,-219 756.34,-219 839.05,-219 839.05,-219 845.05,-219 851.05,-225 851.05,-231 851.05,-231 851.05,-243 851.05,-243 851.05,-249 845.05,-255 839.05,-255"/>
<text xml:space="preserve" text-anchor="middle" x="797.7" y="-239.5" font-family="Arial" font-size="10.00">extras ajoutés</text>
<text xml:space="preserve" text-anchor="middle" x="797.7" y="-227.5" font-family="Arial" font-size="10.00">pas de remplacement</text>
</g>
<!-- Sources&#45;&gt;ExtraOnly -->
<g id="edge12" class="edge">
<title>Sources&#45;&gt;ExtraOnly</title>
<path fill="none" stroke="#455a64" d="M677.9,-237C695.27,-237 715.66,-237 734.6,-237"/>
<polygon fill="#455a64" stroke="#455a64" points="734.53,-239.8 742.53,-237 734.53,-234.2 734.53,-239.8"/>
</g>
<!-- BeforeRead -->
<g id="node13" class="node">
<title>BeforeRead</title>
<path fill="#e8f5e9" stroke="#2e7d32" d="M842.05,-187C842.05,-187 753.34,-187 753.34,-187 747.34,-187 741.34,-181 741.34,-175 741.34,-175 741.34,-163 741.34,-163 741.34,-157 747.34,-151 753.34,-151 753.34,-151 842.05,-151 842.05,-151 848.05,-151 854.05,-157 854.05,-163 854.05,-163 854.05,-175 854.05,-175 854.05,-181 848.05,-187 842.05,-187"/>
<text xml:space="preserve" text-anchor="middle" x="797.7" y="-171.5" font-family="Arial" font-size="10.00">filtrage avant read_text</text>
<text xml:space="preserve" text-anchor="middle" x="797.7" y="-159.5" font-family="Arial" font-size="10.00">aucun hash parasite</text>
</g>
<!-- Sources&#45;&gt;BeforeRead -->
<g id="edge13" class="edge">
<title>Sources&#45;&gt;BeforeRead</title>
<path fill="none" stroke="#455a64" d="M677.9,-218.96C698.21,-210.41 722.65,-200.13 744.07,-191.13"/>
<polygon fill="#455a64" stroke="#455a64" points="745.05,-193.75 751.34,-188.07 742.88,-188.59 745.05,-193.75"/>
</g>
<!-- CorpusFormat -->
<g id="node14" class="node">
<title>CorpusFormat</title>
<path fill="#e8f5e9" stroke="#2e7d32" d="M992.26,-197C992.26,-197 929.8,-197 929.8,-197 923.8,-197 917.8,-191 917.8,-185 917.8,-185 917.8,-173 917.8,-173 917.8,-167 923.8,-161 929.8,-161 929.8,-161 992.26,-161 992.26,-161 998.26,-161 1004.26,-167 1004.26,-173 1004.26,-173 1004.26,-185 1004.26,-185 1004.26,-191 998.26,-197 992.26,-197"/>
<text xml:space="preserve" text-anchor="middle" x="961.03" y="-181.5" font-family="Arial" font-size="10.00">format corpus v1</text>
<text xml:space="preserve" text-anchor="middle" x="961.03" y="-169.5" font-family="Arial" font-size="10.00">inchangé</text>
</g>
<!-- BeforeRead&#45;&gt;CorpusFormat -->
<g id="edge14" class="edge">
<title>BeforeRead&#45;&gt;CorpusFormat</title>
<path fill="none" stroke="#455a64" d="M854.22,-172.44C871.68,-173.52 890.88,-174.71 908.08,-175.78"/>
<polygon fill="#455a64" stroke="#455a64" points="907.74,-178.56 915.89,-176.26 908.08,-172.97 907.74,-178.56"/>
</g>
<!-- Diagnostics -->
<g id="node15" class="node">
<title>Diagnostics</title>
<g id="a_node15"><a xlink:href="60_e5_corpus_diagnostics.svg" xlink:title="inspect_e5_corpus.py\ndiagnostic lecture seule">
<path fill="#e8f5e9" stroke="#2e7d32" d="M1205.22,-194C1205.22,-194 1113.51,-194 1113.51,-194 1107.51,-194 1101.51,-188 1101.51,-182 1101.51,-182 1101.51,-170 1101.51,-170 1101.51,-164 1107.51,-158 1113.51,-158 1113.51,-158 1205.22,-158 1205.22,-158 1211.22,-158 1217.22,-164 1217.22,-170 1217.22,-170 1217.22,-182 1217.22,-182 1217.22,-188 1211.22,-194 1205.22,-194"/>
<text xml:space="preserve" text-anchor="middle" x="1159.37" y="-178.5" font-family="Arial" font-size="10.00">inspect_e5_corpus.py</text>
<text xml:space="preserve" text-anchor="middle" x="1159.37" y="-166.5" font-family="Arial" font-size="10.00">diagnostic lecture seule</text>
</a>
</g>
</g>
<!-- CorpusFormat&#45;&gt;Diagnostics -->
<g id="edge17" class="edge">
<title>CorpusFormat&#45;&gt;Diagnostics</title>
<path fill="none" stroke="#455a64" d="M1004.63,-178.35C1030.18,-177.96 1063.2,-177.45 1092.09,-177.01"/>
<polygon fill="#455a64" stroke="#455a64" points="1091.85,-179.82 1099.8,-176.89 1091.76,-174.22 1091.85,-179.82"/>
<text xml:space="preserve" text-anchor="middle" x="1052.89" y="-179.89" font-family="Arial" font-size="9.00">inspectable</text>
</g>
<!-- NoQdrant -->
<g id="node17" class="node">
<title>NoQdrant</title>
<polygon fill="#fafafa" stroke="#78909c" points="1416.14,-107 1347.68,-107 1347.68,-71 1422.14,-71 1422.14,-101 1416.14,-107"/>
<polyline fill="none" stroke="#78909c" points="1416.14,-107 1416.14,-101"/>
<polyline fill="none" stroke="#78909c" points="1422.14,-101 1416.14,-101"/>
<text xml:space="preserve" text-anchor="middle" x="1384.91" y="-85.5" font-family="Arial" font-size="10.00">pas de Qdrant</text>
</g>
<!-- Diagnostics&#45;&gt;NoQdrant -->
<g id="edge18" class="edge">
<title>Diagnostics&#45;&gt;NoQdrant</title>
<path fill="none" stroke="#455a64" stroke-dasharray="1,5" d="M1201.25,-157.56C1209.45,-153.21 1217.82,-148.29 1225.22,-143 1233.79,-136.88 1233.05,-131.68 1242.22,-126.5 1271.9,-109.72 1309.33,-100.23 1338.26,-95"/>
<polygon fill="#455a64" stroke="#455a64" points="1338.43,-97.81 1345.85,-93.7 1337.49,-92.29 1338.43,-97.81"/>
<text xml:space="preserve" text-anchor="middle" x="1282.45" y="-128.45" font-family="Arial" font-size="9.00">confirme</text>
</g>
<!-- NoScheduler -->
<g id="node16" class="node">
<title>NoScheduler</title>
<polygon fill="#fafafa" stroke="#78909c" points="1197.72,-107 1115.01,-107 1115.01,-71 1203.72,-71 1203.72,-101 1197.72,-107"/>
<polyline fill="none" stroke="#78909c" points="1197.72,-107 1197.72,-101"/>
<polyline fill="none" stroke="#78909c" points="1203.72,-101 1197.72,-101"/>
<text xml:space="preserve" text-anchor="middle" x="1159.37" y="-85.5" font-family="Arial" font-size="10.00">pas de Scheduler</text>
</g>
<!-- NoScheduler&#45;&gt;NoQdrant -->
<!-- NoSvg -->
<g id="node18" class="node">
<title>NoSvg</title>
<polygon fill="#fafafa" stroke="#78909c" points="1578.35,-107 1473.14,-107 1473.14,-71 1584.35,-71 1584.35,-101 1578.35,-107"/>
<polyline fill="none" stroke="#78909c" points="1578.35,-107 1578.35,-101"/>
<polyline fill="none" stroke="#78909c" points="1584.35,-101 1578.35,-101"/>
<text xml:space="preserve" text-anchor="middle" x="1528.75" y="-85.5" font-family="Arial" font-size="10.00">pas de SVG versionné</text>
</g>
<!-- NoQdrant&#45;&gt;NoSvg -->
<!-- Nav_Inference -->
<g id="node19" class="node">
<title>Nav_Inference</title>
<g id="a_node19"><a xlink:href="40_inference.svg" xlink:title="Inference">
<path fill="lightgrey" stroke="none" d="M1297.45,-179C1297.45,-179 1267.45,-179 1267.45,-179 1261.45,-179 1255.45,-173 1255.45,-167 1255.45,-167 1255.45,-155 1255.45,-155 1255.45,-149 1261.45,-143 1267.45,-143 1267.45,-143 1297.45,-143 1297.45,-143 1303.45,-143 1309.45,-149 1309.45,-155 1309.45,-155 1309.45,-167 1309.45,-167 1309.45,-173 1303.45,-179 1297.45,-179"/>
<text xml:space="preserve" text-anchor="middle" x="1282.45" y="-157.5" font-family="Arial" font-size="10.00">Inference</text>
</a>
</g>
</g>
<!-- Nav_Sources -->
<g id="node20" class="node">
<title>Nav_Sources</title>
<g id="a_node20"><a xlink:href="51_e5_sources.svg" xlink:title="E5 sources">
<path fill="lightgrey" stroke="none" d="M1301.68,-220C1301.68,-220 1263.22,-220 1263.22,-220 1257.22,-220 1251.22,-214 1251.22,-208 1251.22,-208 1251.22,-196 1251.22,-196 1251.22,-190 1257.22,-184 1263.22,-184 1263.22,-184 1301.68,-184 1301.68,-184 1307.68,-184 1313.68,-190 1313.68,-196 1313.68,-196 1313.68,-208 1313.68,-208 1313.68,-214 1307.68,-220 1301.68,-220"/>
<text xml:space="preserve" text-anchor="middle" x="1282.45" y="-198.5" font-family="Arial" font-size="10.00">E5 sources</text>
</a>
</g>
</g>
<!-- Nav_Hygiene -->
<g id="node21" class="node">
<title>Nav_Hygiene</title>
<g id="a_node21"><a xlink:href="58_e5_source_hygiene.svg" xlink:title="Source hygiene">
<path fill="lightgrey" stroke="none" d="M1310.68,-261C1310.68,-261 1254.22,-261 1254.22,-261 1248.22,-261 1242.22,-255 1242.22,-249 1242.22,-249 1242.22,-237 1242.22,-237 1242.22,-231 1248.22,-225 1254.22,-225 1254.22,-225 1310.68,-225 1310.68,-225 1316.68,-225 1322.68,-231 1322.68,-237 1322.68,-237 1322.68,-249 1322.68,-249 1322.68,-255 1316.68,-261 1310.68,-261"/>
<text xml:space="preserve" text-anchor="middle" x="1282.45" y="-239.5" font-family="Arial" font-size="10.00">Source hygiene</text>
</a>
</g>
</g>
<!-- Nav_Corpus -->
<g id="node22" class="node">
<title>Nav_Corpus</title>
<g id="a_node22"><a xlink:href="50_e5_corpus.svg" xlink:title="E5 corpus">
<path fill="lightgrey" stroke="none" d="M1299.06,-302C1299.06,-302 1265.85,-302 1265.85,-302 1259.85,-302 1253.85,-296 1253.85,-290 1253.85,-290 1253.85,-278 1253.85,-278 1253.85,-272 1259.85,-266 1265.85,-266 1265.85,-266 1299.06,-266 1299.06,-266 1305.06,-266 1311.06,-272 1311.06,-278 1311.06,-278 1311.06,-290 1311.06,-290 1311.06,-296 1305.06,-302 1299.06,-302"/>
<text xml:space="preserve" text-anchor="middle" x="1282.45" y="-280.5" font-family="Arial" font-size="10.00">E5 corpus</text>
</a>
</g>
</g>
<!-- Nav_Rebuild -->
<g id="node23" class="node">
<title>Nav_Rebuild</title>
<g id="a_node23"><a xlink:href="56_e5_safe_rebuild.svg" xlink:title="Safe rebuild">
<path fill="lightgrey" stroke="none" d="M1302.81,-343C1302.81,-343 1262.1,-343 1262.1,-343 1256.1,-343 1250.1,-337 1250.1,-331 1250.1,-331 1250.1,-319 1250.1,-319 1250.1,-313 1256.1,-307 1262.1,-307 1262.1,-307 1302.81,-307 1302.81,-307 1308.81,-307 1314.81,-313 1314.81,-319 1314.81,-319 1314.81,-331 1314.81,-331 1314.81,-337 1308.81,-343 1302.81,-343"/>
<text xml:space="preserve" text-anchor="middle" x="1282.45" y="-321.5" font-family="Arial" font-size="10.00">Safe rebuild</text>
</a>
</g>
</g>
</g>
</svg>
