<?xml version="1.0" encoding="UTF-8" standalone="no"?>
<!DOCTYPE svg PUBLIC "-//W3C//DTD SVG 1.1//EN"
 "http://www.w3.org/Graphics/SVG/1.1/DTD/svg11.dtd">
<!-- Generated by graphviz version 14.1.3 (20260303.0454)
 -->
<!-- Title: E5CorpusDiagnostics Pages: 1 -->
<svg width="1102pt" height="1064pt"
 viewBox="0.00 0.00 1102.00 1064.00" xmlns="http://www.w3.org/2000/svg" xmlns:xlink="http://www.w3.org/1999/xlink">
<g id="graph0" class="graph" transform="scale(1 1) rotate(0) translate(18 1046)">
<title>E5CorpusDiagnostics</title>
<polygon fill="white" stroke="none" points="-18,18 -18,-1046 1084.26,-1046 1084.26,18 -18,18"/>
<text xml:space="preserve" text-anchor="middle" x="533.13" y="-1014.5" font-family="Arial" font-size="10.00">Phase 4.6 — E5 corpus diagnostics</text>
<g id="clust1" class="cluster">
<title>cluster_input</title>
<polygon fill="#e3f2fd" stroke="#1565c0" stroke-width="1.5" points="28.5,-8 28.5,-80 626.5,-80 626.5,-8 28.5,-8"/>
<text xml:space="preserve" text-anchor="middle" x="327.5" y="-66.5" font-family="Arial" font-size="10.00">Entrée lecture seule</text>
</g>
<g id="clust2" class="cluster">
<title>cluster_diagnostics</title>
<polygon fill="#f3e5f5" stroke="#6a1b9a" stroke-width="1.7" points="316.21,-656 316.21,-1000 634.38,-1000 634.38,-656 316.21,-656"/>
<text xml:space="preserve" text-anchor="middle" x="475.29" y="-986.5" font-family="Arial" font-size="10.00">Agrégats diagnostic</text>
</g>
<g id="clust3" class="cluster">
<title>cluster_health</title>
<polygon fill="#fce4ec" stroke="#ad1457" stroke-width="1.7" points="490.29,-440 490.29,-648 850.3,-648 850.3,-440 490.29,-440"/>
<text xml:space="preserve" text-anchor="middle" x="670.3" y="-634.5" font-family="Arial" font-size="10.00">Santé du corpus</text>
</g>
<g id="clust4" class="cluster">
<title>cluster_output</title>
<polygon fill="#e8f5e9" stroke="#2e7d32" stroke-width="1.5" points="713.49,-792 713.49,-932 1058.26,-932 1058.26,-792 713.49,-792"/>
<text xml:space="preserve" text-anchor="middle" x="885.88" y="-918.5" font-family="Arial" font-size="10.00">Sorties développeur</text>
</g>
<g id="clust5" class="cluster">
<title>cluster_links</title>
<polygon fill="#fff3e0" stroke="#ef6c00" stroke-width="1.4" points="33.75,-270 33.75,-546 147.46,-546 147.46,-270 33.75,-270"/>
<text xml:space="preserve" text-anchor="middle" x="90.61" y="-532.5" font-family="Arial" font-size="10.00">Navigation roadmap</text>
</g>
<g id="clust6" class="cluster">
<title>cluster_scope</title>
<polygon fill="#fafafa" stroke="#78909c" points="490.67,-88 490.67,-432 617.88,-432 617.88,-88 490.67,-88"/>
<text xml:space="preserve" text-anchor="middle" x="554.27" y="-418.5" font-family="Arial" font-size="10.00">Hors périmètre</text>
</g>
<g id="clust7" class="cluster">
<title>cluster_legend</title>
<polygon fill="#ffffff" stroke="#cfd8dc" points="8,-700 8,-854 173.21,-854 173.21,-700 8,-700"/>
<text xml:space="preserve" text-anchor="middle" x="90.61" y="-840.5" font-family="Arial" font-size="10.00">Légende</text>
</g>
<!-- CorpusJson -->
<g id="node1" class="node">
<title>CorpusJson</title>
<g id="a_node1"><a xlink:href="50_e5_corpus.svg" xlink:title="corpus.json\nmissipy.e5.corpus.v1">
<path fill="#e3f2fd" stroke="#1565c0" d="M415.17,-52C415.17,-52 333.96,-52 333.96,-52 327.96,-52 321.96,-46 321.96,-40 321.96,-40 321.96,-28 321.96,-28 321.96,-22 327.96,-16 333.96,-16 333.96,-16 415.17,-16 415.17,-16 421.17,-16 427.17,-22 427.17,-28 427.17,-28 427.17,-40 427.17,-40 427.17,-46 421.17,-52 415.17,-52"/>
<text xml:space="preserve" text-anchor="middle" x="374.56" y="-36.5" font-family="Arial" font-size="10.00">corpus.json</text>
<text xml:space="preserve" text-anchor="middle" x="374.56" y="-24.5" font-family="Arial" font-size="10.00">missipy.e5.corpus.v1</text>
</a>
</g>
</g>
<!-- JsonStore -->
<g id="node3" class="node">
<title>JsonStore</title>
<path fill="#e3f2fd" stroke="#1565c0" d="M606.5,-52C606.5,-52 502.04,-52 502.04,-52 496.04,-52 490.04,-46 490.04,-40 490.04,-40 490.04,-28 490.04,-28 490.04,-22 496.04,-16 502.04,-16 502.04,-16 606.5,-16 606.5,-16 612.5,-16 618.5,-22 618.5,-28 618.5,-28 618.5,-40 618.5,-40 618.5,-46 612.5,-52 606.5,-52"/>
<text xml:space="preserve" text-anchor="middle" x="554.27" y="-36.5" font-family="Arial" font-size="10.00">E5CorpusJsonStore.read()</text>
<text xml:space="preserve" text-anchor="middle" x="554.27" y="-24.5" font-family="Arial" font-size="10.00">validation structurelle</text>
</g>
<!-- CorpusJson&#45;&gt;JsonStore -->
<g id="edge2" class="edge">
<title>CorpusJson&#45;&gt;JsonStore</title>
<path fill="none" stroke="#455a64" d="M427.44,-34C444.02,-34 462.68,-34 480.46,-34"/>
<polygon fill="#455a64" stroke="#455a64" points="480.15,-36.8 488.15,-34 480.15,-31.2 480.15,-36.8"/>
</g>
<!-- InspectCli -->
<g id="node2" class="node">
<title>InspectCli</title>
<path fill="#e3f2fd" stroke="#1565c0" d="M132.71,-52C132.71,-52 48.5,-52 48.5,-52 42.5,-52 36.5,-46 36.5,-40 36.5,-40 36.5,-28 36.5,-28 36.5,-22 42.5,-16 48.5,-16 48.5,-16 132.71,-16 132.71,-16 138.71,-16 144.71,-22 144.71,-28 144.71,-28 144.71,-40 144.71,-40 144.71,-46 138.71,-52 132.71,-52"/>
<text xml:space="preserve" text-anchor="middle" x="90.6" y="-36.5" font-family="Arial" font-size="10.00">inspect_e5_corpus.py</text>
<text xml:space="preserve" text-anchor="middle" x="90.6" y="-24.5" font-family="Arial" font-size="10.00">&#45;&#45;index corpus.json</text>
</g>
<!-- InspectCli&#45;&gt;CorpusJson -->
<g id="edge1" class="edge">
<title>InspectCli&#45;&gt;CorpusJson</title>
<path fill="none" stroke="#455a64" d="M144.97,-34C192.67,-34 262.53,-34 312.45,-34"/>
<polygon fill="#455a64" stroke="#455a64" points="312.33,-36.8 320.33,-34 312.33,-31.2 312.33,-36.8"/>
</g>
<!-- Inspect -->
<g id="node4" class="node">
<title>Inspect</title>
<path fill="#f3e5f5" stroke="#6a1b9a" d="M412.92,-700C412.92,-700 336.21,-700 336.21,-700 330.21,-700 324.21,-694 324.21,-688 324.21,-688 324.21,-676 324.21,-676 324.21,-670 330.21,-664 336.21,-664 336.21,-664 412.92,-664 412.92,-664 418.92,-664 424.92,-670 424.92,-676 424.92,-676 424.92,-688 424.92,-688 424.92,-694 418.92,-700 412.92,-700"/>
<text xml:space="preserve" text-anchor="middle" x="374.56" y="-684.5" font-family="Arial" font-size="10.00">inspect_e5_corpus()</text>
<text xml:space="preserve" text-anchor="middle" x="374.56" y="-672.5" font-family="Arial" font-size="10.00">fonction pure locale</text>
</g>
<!-- JsonStore&#45;&gt;Inspect -->
<g id="edge3" class="edge">
<title>JsonStore&#45;&gt;Inspect</title>
<path fill="none" stroke="#455a64" d="M513.55,-52.44C501.93,-59.57 490.21,-68.76 482.17,-80 452.32,-121.74 464.47,-141.73 454.17,-192 418.35,-366.88 389.02,-579.66 379.14,-654.43"/>
<polygon fill="#455a64" stroke="#455a64" points="376.39,-653.86 378.13,-662.15 381.94,-654.59 376.39,-653.86"/>
</g>
<!-- Identity -->
<g id="node5" class="node">
<title>Identity</title>
<path fill="#f3e5f5" stroke="#6a1b9a" d="M600.5,-768C600.5,-768 508.04,-768 508.04,-768 502.04,-768 496.04,-762 496.04,-756 496.04,-756 496.04,-744 496.04,-744 496.04,-738 502.04,-732 508.04,-732 508.04,-732 600.5,-732 600.5,-732 606.5,-732 612.5,-738 612.5,-744 612.5,-744 612.5,-756 612.5,-756 612.5,-762 606.5,-768 600.5,-768"/>
<text xml:space="preserve" text-anchor="middle" x="554.27" y="-752.5" font-family="Arial" font-size="10.00">schema/model/backend</text>
<text xml:space="preserve" text-anchor="middle" x="554.27" y="-740.5" font-family="Arial" font-size="10.00">tokenizer/dimension</text>
</g>
<!-- Inspect&#45;&gt;Identity -->
<g id="edge4" class="edge">
<title>Inspect&#45;&gt;Identity</title>
<path fill="none" stroke="#455a64" d="M423.66,-700.4C446.08,-708.98 472.92,-719.25 496.35,-728.22"/>
<polygon fill="#455a64" stroke="#455a64" points="495.26,-730.8 503.73,-731.04 497.26,-725.57 495.26,-730.8"/>
</g>
<!-- Size -->
<g id="node6" class="node">
<title>Size</title>
<path fill="#f3e5f5" stroke="#6a1b9a" d="M578,-904C578,-904 530.54,-904 530.54,-904 524.54,-904 518.54,-898 518.54,-892 518.54,-892 518.54,-880 518.54,-880 518.54,-874 524.54,-868 530.54,-868 530.54,-868 578,-868 578,-868 584,-868 590,-874 590,-880 590,-880 590,-892 590,-892 590,-898 584,-904 578,-904"/>
<text xml:space="preserve" text-anchor="middle" x="554.27" y="-888.5" font-family="Arial" font-size="10.00">chunk_count</text>
<text xml:space="preserve" text-anchor="middle" x="554.27" y="-876.5" font-family="Arial" font-size="10.00">source_count</text>
</g>
<!-- Inspect&#45;&gt;Size -->
<g id="edge5" class="edge">
<title>Inspect&#45;&gt;Size</title>
<path fill="none" stroke="#455a64" d="M382.98,-700.48C397.43,-734.5 432.38,-807.59 482.17,-852 490.23,-859.19 500.07,-865.17 509.83,-870.01"/>
<polygon fill="#455a64" stroke="#455a64" points="508.54,-872.5 516.97,-873.34 510.9,-867.42 508.54,-872.5"/>
</g>
<!-- Extensions -->
<g id="node7" class="node">
<title>Extensions</title>
<path fill="#f3e5f5" stroke="#6a1b9a" d="M592.63,-836C592.63,-836 515.92,-836 515.92,-836 509.92,-836 503.92,-830 503.92,-824 503.92,-824 503.92,-812 503.92,-812 503.92,-806 509.92,-800 515.92,-800 515.92,-800 592.63,-800 592.63,-800 598.63,-800 604.63,-806 604.63,-812 604.63,-812 604.63,-824 604.63,-824 604.63,-830 598.63,-836 592.63,-836"/>
<text xml:space="preserve" text-anchor="middle" x="554.27" y="-820.5" font-family="Arial" font-size="10.00">extension_counts</text>
<text xml:space="preserve" text-anchor="middle" x="554.27" y="-808.5" font-family="Arial" font-size="10.00">.md / .txt / unknown</text>
</g>
<!-- Inspect&#45;&gt;Extensions -->
<g id="edge6" class="edge">
<title>Inspect&#45;&gt;Extensions</title>
<path fill="none" stroke="#455a64" d="M391.45,-700.42C411.09,-722.39 446.35,-759.24 482.17,-784 488.03,-788.05 494.44,-791.85 500.94,-795.35"/>
<polygon fill="#455a64" stroke="#455a64" points="499.45,-797.73 507.85,-798.91 502.02,-792.76 499.45,-797.73"/>
</g>
<!-- Sources -->
<g id="node8" class="node">
<title>Sources</title>
<path fill="#f3e5f5" stroke="#6a1b9a" d="M593,-972C593,-972 515.54,-972 515.54,-972 509.54,-972 503.54,-966 503.54,-960 503.54,-960 503.54,-948 503.54,-948 503.54,-942 509.54,-936 515.54,-936 515.54,-936 593,-936 593,-936 599,-936 605,-942 605,-948 605,-948 605,-960 605,-960 605,-966 599,-972 593,-972"/>
<text xml:space="preserve" text-anchor="middle" x="554.27" y="-956.5" font-family="Arial" font-size="10.00">top_sources</text>
<text xml:space="preserve" text-anchor="middle" x="554.27" y="-944.5" font-family="Arial" font-size="10.00">tri stable count desc</text>
</g>
<!-- Inspect&#45;&gt;Sources -->
<g id="edge7" class="edge">
<title>Inspect&#45;&gt;Sources</title>
<path fill="none" stroke="#455a64" d="M379.2,-700.24C388.71,-743.65 418.15,-854.37 482.17,-920 486.12,-924.05 490.65,-927.68 495.47,-930.92"/>
<polygon fill="#455a64" stroke="#455a64" points="493.66,-933.09 501.94,-934.89 496.59,-928.32 493.66,-933.09"/>
</g>
<!-- Reuse -->
<g id="node9" class="node">
<title>Reuse</title>
<path fill="#f3e5f5" stroke="#6a1b9a" d="M614.38,-700C614.38,-700 494.17,-700 494.17,-700 488.17,-700 482.17,-694 482.17,-688 482.17,-688 482.17,-676 482.17,-676 482.17,-670 488.17,-664 494.17,-664 494.17,-664 614.38,-664 614.38,-664 620.38,-664 626.38,-670 626.38,-676 626.38,-676 626.38,-688 626.38,-688 626.38,-694 620.38,-700 614.38,-700"/>
<text xml:space="preserve" text-anchor="middle" x="554.27" y="-684.5" font-family="Arial" font-size="10.00">embedding_reuse</text>
<text xml:space="preserve" text-anchor="middle" x="554.27" y="-672.5" font-family="Arial" font-size="10.00">reused / embedded / unknown</text>
</g>
<!-- Inspect&#45;&gt;Reuse -->
<g id="edge8" class="edge">
<title>Inspect&#45;&gt;Reuse</title>
<path fill="none" stroke="#455a64" d="M425.07,-682C439.75,-682 456.22,-682 472.35,-682"/>
<polygon fill="#455a64" stroke="#455a64" points="472.27,-684.8 480.27,-682 472.27,-679.2 472.27,-684.8"/>
</g>
<!-- MissingSource -->
<g id="node10" class="node">
<title>MissingSource</title>
<path fill="#fce4ec" stroke="#ad1457" d="M594.88,-620C594.88,-620 513.67,-620 513.67,-620 507.67,-620 501.67,-614 501.67,-608 501.67,-608 501.67,-596 501.67,-596 501.67,-590 507.67,-584 513.67,-584 513.67,-584 594.88,-584 594.88,-584 600.88,-584 606.88,-590 606.88,-596 606.88,-596 606.88,-608 606.88,-608 606.88,-614 600.88,-620 594.88,-620"/>
<text xml:space="preserve" text-anchor="middle" x="554.27" y="-604.5" font-family="Arial" font-size="10.00">missing_source_path</text>
<text xml:space="preserve" text-anchor="middle" x="554.27" y="-592.5" font-family="Arial" font-size="10.00">metadata absente</text>
</g>
<!-- Inspect&#45;&gt;MissingSource -->
<g id="edge9" class="edge">
<title>Inspect&#45;&gt;MissingSource</title>
<path fill="none" stroke="#455a64" d="M416.34,-663.65C442.43,-651.9 476.44,-636.59 504.04,-624.16"/>
<polygon fill="#455a64" stroke="#455a64" points="504.86,-626.87 511.01,-621.03 502.56,-621.76 504.86,-626.87"/>
</g>
<!-- EmptyText -->
<g id="node11" class="node">
<title>EmptyText</title>
<path fill="#fce4ec" stroke="#ad1457" d="M580.63,-552C580.63,-552 527.92,-552 527.92,-552 521.92,-552 515.92,-546 515.92,-540 515.92,-540 515.92,-528 515.92,-528 515.92,-522 521.92,-516 527.92,-516 527.92,-516 580.63,-516 580.63,-516 586.63,-516 592.63,-522 592.63,-528 592.63,-528 592.63,-540 592.63,-540 592.63,-546 586.63,-552 580.63,-552"/>
<text xml:space="preserve" text-anchor="middle" x="554.27" y="-536.5" font-family="Arial" font-size="10.00">empty_text</text>
<text xml:space="preserve" text-anchor="middle" x="554.27" y="-524.5" font-family="Arial" font-size="10.00">chunk suspect</text>
</g>
<!-- Inspect&#45;&gt;EmptyText -->
<g id="edge10" class="edge">
<title>Inspect&#45;&gt;EmptyText</title>
<path fill="none" stroke="#455a64" d="M389.02,-663.82C407.74,-639.5 443.7,-596.19 482.17,-568 489.79,-562.42 498.46,-557.38 507.07,-552.99"/>
<polygon fill="#455a64" stroke="#455a64" points="508.3,-555.51 514.26,-549.48 505.84,-550.47 508.3,-555.51"/>
</g>
<!-- WrongDim -->
<g id="node12" class="node">
<title>WrongDim</title>
<path fill="#fce4ec" stroke="#ad1457" d="M598.25,-484C598.25,-484 510.29,-484 510.29,-484 504.29,-484 498.29,-478 498.29,-472 498.29,-472 498.29,-460 498.29,-460 498.29,-454 504.29,-448 510.29,-448 510.29,-448 598.25,-448 598.25,-448 604.25,-448 610.25,-454 610.25,-460 610.25,-460 610.25,-472 610.25,-472 610.25,-478 604.25,-484 598.25,-484"/>
<text xml:space="preserve" text-anchor="middle" x="554.27" y="-468.5" font-family="Arial" font-size="10.00">wrong_dimension</text>
<text xml:space="preserve" text-anchor="middle" x="554.27" y="-456.5" font-family="Arial" font-size="10.00">vector/index mismatch</text>
</g>
<!-- Inspect&#45;&gt;WrongDim -->
<g id="edge11" class="edge">
<title>Inspect&#45;&gt;WrongDim</title>
<path fill="none" stroke="#455a64" d="M382.09,-663.61C395.62,-627.81 429.88,-548.08 482.17,-500 486.47,-496.05 491.31,-492.47 496.39,-489.25"/>
<polygon fill="#455a64" stroke="#455a64" points="497.73,-491.71 503.22,-485.25 494.9,-486.88 497.73,-491.71"/>
</g>
<!-- DiagnosticGate -->
<g id="node19" class="node">
<title>DiagnosticGate</title>
<g id="a_node19"><a xlink:href="61_e5_corpus_diagnostic_gate.svg" xlink:title="Phase 4.7\ndiagnostic gate">
<path fill="#fff3e0" stroke="#ef6c00" d="M118.08,-450C118.08,-450 63.12,-450 63.12,-450 57.12,-450 51.12,-444 51.12,-438 51.12,-438 51.12,-426 51.12,-426 51.12,-420 57.12,-414 63.12,-414 63.12,-414 118.08,-414 118.08,-414 124.08,-414 130.08,-420 130.08,-426 130.08,-426 130.08,-438 130.08,-438 130.08,-444 124.08,-450 118.08,-450"/>
<text xml:space="preserve" text-anchor="middle" x="90.6" y="-434.5" font-family="Arial" font-size="10.00">Phase 4.7</text>
<text xml:space="preserve" text-anchor="middle" x="90.6" y="-422.5" font-family="Arial" font-size="10.00">diagnostic gate</text>
</a>
</g>
</g>
<!-- Inspect&#45;&gt;DiagnosticGate -->
<g id="edge26" class="edge">
<title>Inspect&#45;&gt;DiagnosticGate</title>
<path fill="none" stroke="#455a64" d="M365.74,-663.81C353.51,-636.85 327.83,-585.68 294.96,-550.5 251.02,-503.47 184.18,-469.46 139.24,-450.24"/>
<polygon fill="#455a64" stroke="#455a64" points="140.42,-447.7 131.96,-447.18 138.25,-452.86 140.42,-447.7"/>
<text xml:space="preserve" text-anchor="middle" x="243.58" y="-552.45" font-family="Arial" font-size="9.00">seuils actionnables</text>
</g>
<!-- NoMutation -->
<g id="node21" class="node">
<title>NoMutation</title>
<polygon fill="#fafafa" stroke="#78909c" points="582.5,-336 520.04,-336 520.04,-300 588.5,-300 588.5,-330 582.5,-336"/>
<polyline fill="none" stroke="#78909c" points="582.5,-336 582.5,-330"/>
<polyline fill="none" stroke="#78909c" points="588.5,-330 582.5,-330"/>
<text xml:space="preserve" text-anchor="middle" x="554.27" y="-320.5" font-family="Arial" font-size="10.00">lecture seule</text>
<text xml:space="preserve" text-anchor="middle" x="554.27" y="-308.5" font-family="Arial" font-size="10.00">pas de write</text>
</g>
<!-- Inspect&#45;&gt;NoMutation -->
<g id="edge27" class="edge">
<title>Inspect&#45;&gt;NoMutation</title>
<path fill="none" stroke="#455a64" stroke-dasharray="1,5" d="M376.54,-663.86C380.35,-609.8 398.54,-447.62 482.17,-352 489.92,-343.14 500.49,-336.4 511.1,-331.35"/>
<polygon fill="#455a64" stroke="#455a64" points="511.98,-334.02 518.19,-328.26 509.74,-328.89 511.98,-334.02"/>
</g>
<!-- NoScheduler -->
<g id="node22" class="node">
<title>NoScheduler</title>
<polygon fill="#fafafa" stroke="#78909c" points="592.63,-268 509.92,-268 509.92,-232 598.63,-232 598.63,-262 592.63,-268"/>
<polyline fill="none" stroke="#78909c" points="592.63,-268 592.63,-262"/>
<polyline fill="none" stroke="#78909c" points="598.63,-262 592.63,-262"/>
<text xml:space="preserve" text-anchor="middle" x="554.27" y="-246.5" font-family="Arial" font-size="10.00">pas de Scheduler</text>
</g>
<!-- Inspect&#45;&gt;NoScheduler -->
<g id="edge28" class="edge">
<title>Inspect&#45;&gt;NoScheduler</title>
<path fill="none" stroke="#455a64" stroke-dasharray="1,5" d="M375.24,-663.67C375.13,-602.31 382.75,-401.34 482.17,-284 487.5,-277.71 494.25,-272.5 501.47,-268.21"/>
<polygon fill="#455a64" stroke="#455a64" points="502.4,-270.89 508.1,-264.62 499.73,-265.96 502.4,-270.89"/>
</g>
<!-- NoQdrant -->
<g id="node23" class="node">
<title>NoQdrant</title>
<polygon fill="#fafafa" stroke="#78909c" points="585.5,-200 517.04,-200 517.04,-164 591.5,-164 591.5,-194 585.5,-200"/>
<polyline fill="none" stroke="#78909c" points="585.5,-200 585.5,-194"/>
<polyline fill="none" stroke="#78909c" points="591.5,-194 585.5,-194"/>
<text xml:space="preserve" text-anchor="middle" x="554.27" y="-178.5" font-family="Arial" font-size="10.00">pas de Qdrant</text>
</g>
<!-- Inspect&#45;&gt;NoQdrant -->
<g id="edge29" class="edge">
<title>Inspect&#45;&gt;NoQdrant</title>
<path fill="none" stroke="#455a64" stroke-dasharray="1,5" d="M377.53,-663.51C386.13,-585.8 422.65,-286.45 482.17,-216 489.14,-207.75 498.56,-201.36 508.27,-196.46"/>
<polygon fill="#455a64" stroke="#455a64" points="509.34,-199.05 515.44,-193.17 507,-193.96 509.34,-199.05"/>
</g>
<!-- NoFormatChange -->
<g id="node24" class="node">
<title>NoFormatChange</title>
<polygon fill="#fafafa" stroke="#78909c" points="591.5,-132 511.04,-132 511.04,-96 597.5,-96 597.5,-126 591.5,-132"/>
<polyline fill="none" stroke="#78909c" points="591.5,-132 591.5,-126"/>
<polyline fill="none" stroke="#78909c" points="597.5,-126 591.5,-126"/>
<text xml:space="preserve" text-anchor="middle" x="554.27" y="-116.5" font-family="Arial" font-size="10.00">format corpus v1</text>
<text xml:space="preserve" text-anchor="middle" x="554.27" y="-104.5" font-family="Arial" font-size="10.00">inchangé</text>
</g>
<!-- Inspect&#45;&gt;NoFormatChange -->
<g id="edge30" class="edge">
<title>Inspect&#45;&gt;NoFormatChange</title>
<path fill="none" stroke="#455a64" stroke-dasharray="1,5" d="M376.94,-663.75C383.6,-579.67 414.97,-230.28 482.17,-148 487.64,-141.31 494.73,-135.85 502.32,-131.42"/>
<polygon fill="#455a64" stroke="#455a64" points="503.59,-133.92 509.36,-127.71 500.98,-128.96 503.59,-133.92"/>
</g>
<!-- NoSvg -->
<g id="node25" class="node">
<title>NoSvg</title>
<polygon fill="#fafafa" stroke="#78909c" points="603.88,-404 498.67,-404 498.67,-368 609.88,-368 609.88,-398 603.88,-404"/>
<polyline fill="none" stroke="#78909c" points="603.88,-404 603.88,-398"/>
<polyline fill="none" stroke="#78909c" points="609.88,-398 603.88,-398"/>
<text xml:space="preserve" text-anchor="middle" x="554.27" y="-382.5" font-family="Arial" font-size="10.00">pas de SVG versionné</text>
</g>
<!-- Inspect&#45;&gt;NoSvg -->
<g id="edge31" class="edge">
<title>Inspect&#45;&gt;NoSvg</title>
<path fill="none" stroke="#455a64" stroke-dasharray="1,5" d="M379.45,-663.71C389.59,-619.54 420.48,-505.27 482.17,-432 489.42,-423.39 498.69,-415.81 508.13,-409.43"/>
<polygon fill="#455a64" stroke="#455a64" points="509.56,-411.84 514.78,-405.16 506.54,-407.12 509.56,-411.84"/>
</g>
<!-- TextReport -->
<g id="node14" class="node">
<title>TextReport</title>
<path fill="#e8f5e9" stroke="#2e7d32" d="M797.82,-836C797.82,-836 746.61,-836 746.61,-836 740.61,-836 734.61,-830 734.61,-824 734.61,-824 734.61,-812 734.61,-812 734.61,-806 740.61,-800 746.61,-800 746.61,-800 797.82,-800 797.82,-800 803.82,-800 809.82,-806 809.82,-812 809.82,-812 809.82,-824 809.82,-824 809.82,-830 803.82,-836 797.82,-836"/>
<text xml:space="preserve" text-anchor="middle" x="772.22" y="-820.5" font-family="Arial" font-size="10.00">format text</text>
<text xml:space="preserve" text-anchor="middle" x="772.22" y="-808.5" font-family="Arial" font-size="10.00">terminal lisible</text>
</g>
<!-- Identity&#45;&gt;TextReport -->
<g id="edge15" class="edge">
<title>Identity&#45;&gt;TextReport</title>
<path fill="none" stroke="#455a64" d="M612.86,-768.13C648.03,-779.21 692.41,-793.18 725.23,-803.52"/>
<polygon fill="#455a64" stroke="#455a64" points="724.24,-806.14 732.72,-805.88 725.93,-800.8 724.24,-806.14"/>
</g>
<!-- Size&#45;&gt;TextReport -->
<g id="edge16" class="edge">
<title>Size&#45;&gt;TextReport</title>
<path fill="none" stroke="#455a64" d="M590.45,-874.92C627.23,-863.34 685.1,-845.12 725.42,-832.42"/>
<polygon fill="#455a64" stroke="#455a64" points="726.01,-835.17 732.8,-830.1 724.33,-829.83 726.01,-835.17"/>
</g>
<!-- Extensions&#45;&gt;TextReport -->
<g id="edge17" class="edge">
<title>Extensions&#45;&gt;TextReport</title>
<path fill="none" stroke="#455a64" d="M605.09,-818C641.22,-818 689.73,-818 725,-818"/>
<polygon fill="#455a64" stroke="#455a64" points="724.61,-820.8 732.61,-818 724.61,-815.2 724.61,-820.8"/>
</g>
<!-- Sources&#45;&gt;TextReport -->
<g id="edge18" class="edge">
<title>Sources&#45;&gt;TextReport</title>
<path fill="none" stroke="#455a64" d="M605.33,-935.93C615.32,-931.38 625.48,-926.05 634.38,-920 669.67,-896.03 667.46,-876.87 702.13,-852 709.47,-846.74 717.74,-841.88 725.95,-837.59"/>
<polygon fill="#455a64" stroke="#455a64" points="727.19,-840.1 733.08,-834.01 724.67,-835.1 727.19,-840.1"/>
</g>
<!-- Reuse&#45;&gt;TextReport -->
<g id="edge19" class="edge">
<title>Reuse&#45;&gt;TextReport</title>
<path fill="none" stroke="#455a64" d="M603.01,-700.37C613.57,-705.02 624.54,-710.32 634.38,-716 674.26,-739.01 716.14,-771.67 742.9,-793.78"/>
<polygon fill="#455a64" stroke="#455a64" points="740.94,-795.78 748.87,-798.75 744.52,-791.48 740.94,-795.78"/>
</g>
<!-- Warnings -->
<g id="node13" class="node">
<title>Warnings</title>
<path fill="#fce4ec" stroke="#ad1457" d="M760.59,-583.02C760.59,-583.02 713.75,-570.98 713.75,-570.98 707.94,-569.49 707.94,-566.51 713.75,-565.02 713.75,-565.02 760.59,-552.98 760.59,-552.98 766.41,-551.49 778.03,-551.49 783.84,-552.98 783.84,-552.98 830.68,-565.02 830.68,-565.02 836.49,-566.51 836.49,-569.49 830.68,-570.98 830.68,-570.98 783.84,-583.02 783.84,-583.02 778.03,-584.51 766.41,-584.51 760.59,-583.02"/>
<text xml:space="preserve" text-anchor="middle" x="772.22" y="-564.5" font-family="Arial" font-size="10.00">has_warnings ?</text>
</g>
<!-- MissingSource&#45;&gt;Warnings -->
<g id="edge12" class="edge">
<title>MissingSource&#45;&gt;Warnings</title>
<path fill="none" stroke="#455a64" d="M607.27,-593.81C640.81,-588.53 684.31,-581.68 718.07,-576.37"/>
<polygon fill="#455a64" stroke="#455a64" points="718.36,-579.16 725.82,-575.15 717.48,-573.63 718.36,-579.16"/>
</g>
<!-- EmptyText&#45;&gt;Warnings -->
<g id="edge13" class="edge">
<title>EmptyText&#45;&gt;Warnings</title>
<path fill="none" stroke="#455a64" d="M592.89,-539.92C627.57,-545.38 679.4,-553.54 718.26,-559.66"/>
<polygon fill="#455a64" stroke="#455a64" points="717.51,-562.38 725.84,-560.86 718.38,-556.85 717.51,-562.38"/>
</g>
<!-- WrongDim&#45;&gt;Warnings -->
<g id="edge14" class="edge">
<title>WrongDim&#45;&gt;Warnings</title>
<path fill="none" stroke="#455a64" d="M599.4,-484.45C610.85,-489.38 623.12,-494.79 634.38,-500 670.66,-516.79 711.64,-537.38 739.22,-551.47"/>
<polygon fill="#455a64" stroke="#455a64" points="737.93,-553.96 746.33,-555.12 740.49,-548.98 737.93,-553.96"/>
</g>
<!-- Warnings&#45;&gt;TextReport -->
<g id="edge20" class="edge">
<title>Warnings&#45;&gt;TextReport</title>
<path fill="none" stroke="#455a64" d="M772.22,-586.07C772.22,-654.28 772.22,-722.48 772.22,-790.69"/>
<polygon fill="#455a64" stroke="#455a64" points="769.42,-790.37 772.22,-798.37 775.02,-790.37 769.42,-790.37"/>
</g>
<!-- JsonReport -->
<g id="node15" class="node">
<title>JsonReport</title>
<path fill="#e8f5e9" stroke="#2e7d32" d="M1038.26,-850C1038.26,-850 976.55,-850 976.55,-850 970.55,-850 964.55,-844 964.55,-838 964.55,-838 964.55,-826 964.55,-826 964.55,-820 970.55,-814 976.55,-814 976.55,-814 1038.26,-814 1038.26,-814 1044.26,-814 1050.26,-820 1050.26,-826 1050.26,-826 1050.26,-838 1050.26,-838 1050.26,-844 1044.26,-850 1038.26,-850"/>
<text xml:space="preserve" text-anchor="middle" x="1007.41" y="-834.5" font-family="Arial" font-size="10.00">format json</text>
<text xml:space="preserve" text-anchor="middle" x="1007.41" y="-822.5" font-family="Arial" font-size="10.00">intégration future</text>
</g>
<!-- TextReport&#45;&gt;JsonReport -->
<g id="edge21" class="edge">
<title>TextReport&#45;&gt;JsonReport</title>
<path fill="none" stroke="#455a64" stroke-dasharray="5,2" d="M810.17,-820.22C849.17,-822.56 910.96,-826.27 954.77,-828.9"/>
<polygon fill="#455a64" stroke="#455a64" points="954.44,-831.69 962.6,-829.37 954.78,-826.1 954.44,-831.69"/>
<text xml:space="preserve" text-anchor="middle" x="903.43" y="-829.81" font-family="Arial" font-size="9.00">mêmes données</text>
</g>
<!-- TopLimit -->
<g id="node16" class="node">
<title>TopLimit</title>
<path fill="#e8f5e9" stroke="#2e7d32" d="M810.95,-904C810.95,-904 733.49,-904 733.49,-904 727.49,-904 721.49,-898 721.49,-892 721.49,-892 721.49,-880 721.49,-880 721.49,-874 727.49,-868 733.49,-868 733.49,-868 810.95,-868 810.95,-868 816.95,-868 822.95,-874 822.95,-880 822.95,-880 822.95,-892 822.95,-892 822.95,-898 816.95,-904 810.95,-904"/>
<text xml:space="preserve" text-anchor="middle" x="772.22" y="-888.5" font-family="Arial" font-size="10.00">&#45;&#45;top&#45;sources&#45;limit N</text>
<text xml:space="preserve" text-anchor="middle" x="772.22" y="-876.5" font-family="Arial" font-size="10.00">contrôle affichage</text>
</g>
<!-- TopLimit&#45;&gt;Sources -->
<g id="edge22" class="edge">
<title>TopLimit&#45;&gt;Sources</title>
<path fill="none" stroke="#455a64" d="M721.38,-902.21C706.52,-907.01 690.17,-912.25 675.13,-917 655.41,-923.22 633.83,-929.92 614.48,-935.89"/>
<polygon fill="#455a64" stroke="#455a64" points="613.74,-933.18 606.92,-938.21 615.39,-938.54 613.74,-933.18"/>
<text xml:space="preserve" text-anchor="middle" x="664.25" y="-925.1" font-family="Arial" font-size="9.00">limite</text>
</g>
<!-- HygieneCli -->
<g id="node17" class="node">
<title>HygieneCli</title>
<g id="a_node17"><a xlink:href="59_e5_source_hygiene_cli.svg" xlink:title="Phase 4.5\nsource hygiene CLI">
<path fill="#fff3e0" stroke="#ef6c00" d="M127.46,-382C127.46,-382 53.75,-382 53.75,-382 47.75,-382 41.75,-376 41.75,-370 41.75,-370 41.75,-358 41.75,-358 41.75,-352 47.75,-346 53.75,-346 53.75,-346 127.46,-346 127.46,-346 133.46,-346 139.46,-352 139.46,-358 139.46,-358 139.46,-370 139.46,-370 139.46,-376 133.46,-382 127.46,-382"/>
<text xml:space="preserve" text-anchor="middle" x="90.6" y="-366.5" font-family="Arial" font-size="10.00">Phase 4.5</text>
<text xml:space="preserve" text-anchor="middle" x="90.6" y="-354.5" font-family="Arial" font-size="10.00">source hygiene CLI</text>
</a>
</g>
</g>
<!-- HygieneCli&#45;&gt;CorpusJson -->
<g id="edge23" class="edge">
<title>HygieneCli&#45;&gt;CorpusJson</title>
<path fill="none" stroke="#455a64" d="M139.68,-347.37C151.08,-342.51 162.91,-336.69 173.21,-330 235.64,-289.47 252.21,-275.93 294.96,-215 329.7,-165.49 353.91,-98.19 365.59,-61.18"/>
<polygon fill="#455a64" stroke="#455a64" points="368.15,-62.37 367.84,-53.9 362.8,-60.71 368.15,-62.37"/>
<text xml:space="preserve" text-anchor="middle" x="243.58" y="-318.4" font-family="Arial" font-size="9.00">produit plus propre</text>
</g>
<!-- ScoreGuard -->
<g id="node18" class="node">
<title>ScoreGuard</title>
<g id="a_node18"><a xlink:href="57_e5_score_guard.svg" xlink:title="Phase 4.3\nscore guard">
<path fill="#fff3e0" stroke="#ef6c00" d="M110.58,-518C110.58,-518 70.62,-518 70.62,-518 64.62,-518 58.62,-512 58.62,-506 58.62,-506 58.62,-494 58.62,-494 58.62,-488 64.62,-482 70.62,-482 70.62,-482 110.58,-482 110.58,-482 116.58,-482 122.58,-488 122.58,-494 122.58,-494 122.58,-506 122.58,-506 122.58,-512 116.58,-518 110.58,-518"/>
<text xml:space="preserve" text-anchor="middle" x="90.6" y="-502.5" font-family="Arial" font-size="10.00">Phase 4.3</text>
<text xml:space="preserve" text-anchor="middle" x="90.6" y="-490.5" font-family="Arial" font-size="10.00">score guard</text>
</a>
</g>
</g>
<!-- ScoreGuard&#45;&gt;Inspect -->
<g id="edge25" class="edge">
<title>ScoreGuard&#45;&gt;Inspect</title>
<path fill="none" stroke="#455a64" stroke-dasharray="1,5" d="M120.19,-518.45C171.83,-551.79 280.57,-621.98 337.34,-658.61"/>
<polygon fill="#455a64" stroke="#455a64" points="335.81,-660.96 344.05,-662.95 338.85,-656.26 335.81,-660.96"/>
<text xml:space="preserve" text-anchor="middle" x="243.58" y="-630.17" font-family="Arial" font-size="9.00">diagnostiquer avant seuil</text>
</g>
<!-- SafeRebuild -->
<g id="node20" class="node">
<title>SafeRebuild</title>
<g id="a_node20"><a xlink:href="56_e5_safe_rebuild.svg" xlink:title="Phase 3.18\nsafe rebuild">
<path fill="#fff3e0" stroke="#ef6c00" d="M110.21,-314C110.21,-314 71,-314 71,-314 65,-314 59,-308 59,-302 59,-302 59,-290 59,-290 59,-284 65,-278 71,-278 71,-278 110.21,-278 110.21,-278 116.21,-278 122.21,-284 122.21,-290 122.21,-290 122.21,-302 122.21,-302 122.21,-308 116.21,-314 110.21,-314"/>
<text xml:space="preserve" text-anchor="middle" x="90.6" y="-298.5" font-family="Arial" font-size="10.00">Phase 3.18</text>
<text xml:space="preserve" text-anchor="middle" x="90.6" y="-286.5" font-family="Arial" font-size="10.00">safe rebuild</text>
</a>
</g>
</g>
<!-- SafeRebuild&#45;&gt;CorpusJson -->
<g id="edge24" class="edge">
<title>SafeRebuild&#45;&gt;CorpusJson</title>
<path fill="none" stroke="#455a64" d="M111.43,-277.58C161.08,-231.44 290.77,-110.93 346.97,-58.72"/>
<polygon fill="#455a64" stroke="#455a64" points="348.7,-60.93 352.65,-53.43 344.88,-56.83 348.7,-60.93"/>
<text xml:space="preserve" text-anchor="middle" x="243.58" y="-198.12" font-family="Arial" font-size="9.00">promotion sûre</text>
</g>
<!-- Legend -->
<g id="node26" class="node">
<title>Legend</title>
<path fill="#ffffff" stroke="none" d="M153.21,-826.32C153.21,-826.32 28,-826.32 28,-826.32 22,-826.32 16,-820.32 16,-814.32 16,-814.32 16,-719.68 16,-719.68 16,-713.68 22,-707.68 28,-707.68 28,-707.68 153.21,-707.68 153.21,-707.68 159.21,-707.68 165.21,-713.68 165.21,-719.68 165.21,-719.68 165.21,-814.32 165.21,-814.32 165.21,-820.32 159.21,-826.32 153.21,-826.32"/>
<polygon fill="#e3f2fd" stroke="none" points="22.48,-800 22.48,-822 63.98,-822 63.98,-800 22.48,-800"/>
<polygon fill="none" stroke="#ffffff" points="22.48,-800 22.48,-822 63.98,-822 63.98,-800 22.48,-800"/>
<text xml:space="preserve" text-anchor="start" x="33.48" y="-807.25" font-family="Arial" font-size="10.00">Bleu</text>
<polygon fill="none" stroke="#ffffff" points="63.98,-800 63.98,-822 158.73,-822 158.73,-800 63.98,-800"/>
<text xml:space="preserve" text-anchor="start" x="80.6" y="-807.25" font-family="Arial" font-size="10.00">lecture corpus</text>
<polygon fill="#f3e5f5" stroke="none" points="22.48,-778 22.48,-800 63.98,-800 63.98,-778 22.48,-778"/>
<polygon fill="none" stroke="#ffffff" points="22.48,-778 22.48,-800 63.98,-800 63.98,-778 22.48,-778"/>
<text xml:space="preserve" text-anchor="start" x="30.85" y="-785.25" font-family="Arial" font-size="10.00">Violet</text>
<polygon fill="none" stroke="#ffffff" points="63.98,-778 63.98,-800 158.73,-800 158.73,-778 63.98,-778"/>
<text xml:space="preserve" text-anchor="start" x="92.6" y="-785.25" font-family="Arial" font-size="10.00">agrégats</text>
<polygon fill="#fce4ec" stroke="none" points="22.48,-756 22.48,-778 63.98,-778 63.98,-756 22.48,-756"/>
<polygon fill="none" stroke="#ffffff" points="22.48,-756 22.48,-778 63.98,-778 63.98,-756 22.48,-756"/>
<text xml:space="preserve" text-anchor="start" x="31.6" y="-763.25" font-family="Arial" font-size="10.00">Rose</text>
<polygon fill="none" stroke="#ffffff" points="63.98,-756 63.98,-778 158.73,-778 158.73,-756 63.98,-756"/>
<text xml:space="preserve" text-anchor="start" x="72.73" y="-763.25" font-family="Arial" font-size="10.00">santé / anomalies</text>
<polygon fill="#e8f5e9" stroke="none" points="22.48,-734 22.48,-756 63.98,-756 63.98,-734 22.48,-734"/>
<polygon fill="none" stroke="#ffffff" points="22.48,-734 22.48,-756 63.98,-756 63.98,-734 22.48,-734"/>
<text xml:space="preserve" text-anchor="start" x="34.6" y="-741.25" font-family="Arial" font-size="10.00">Vert</text>
<polygon fill="none" stroke="#ffffff" points="63.98,-734 63.98,-756 158.73,-756 158.73,-734 63.98,-734"/>
<text xml:space="preserve" text-anchor="start" x="87.35" y="-741.25" font-family="Arial" font-size="10.00">sorties CLI</text>
<polygon fill="#fff3e0" stroke="none" points="22.48,-712 22.48,-734 63.98,-734 63.98,-712 22.48,-712"/>
<polygon fill="none" stroke="#ffffff" points="22.48,-712 22.48,-734 63.98,-734 63.98,-712 22.48,-712"/>
<text xml:space="preserve" text-anchor="start" x="27.48" y="-719.25" font-family="Arial" font-size="10.00">Orange</text>
<polygon fill="none" stroke="#ffffff" points="63.98,-712 63.98,-734 158.73,-734 158.73,-712 63.98,-712"/>
<text xml:space="preserve" text-anchor="start" x="68.98" y="-719.25" font-family="Arial" font-size="10.00">navigation roadmap</text>
</g>
</g>
</svg>
