<?xml version="1.0" encoding="UTF-8" standalone="no"?>
<!DOCTYPE svg PUBLIC "-//W3C//DTD SVG 1.1//EN"
 "http://www.w3.org/Graphics/SVG/1.1/DTD/svg11.dtd">
<!-- Generated by graphviz version 14.1.3 (20260303.0454)
 -->
<!-- Title: E5CorpusDiagnosticGate Pages: 1 -->
<svg width="1400pt" height="1047pt"
 viewBox="0.00 0.00 1400.00 1047.00" xmlns="http://www.w3.org/2000/svg" xmlns:xlink="http://www.w3.org/1999/xlink">
<g id="graph0" class="graph" transform="scale(1 1) rotate(0) translate(18 1028.88)">
<title>E5CorpusDiagnosticGate</title>
<polygon fill="white" stroke="none" points="-18,18 -18,-1028.88 1381.76,-1028.88 1381.76,18 -18,18"/>
<text xml:space="preserve" text-anchor="middle" x="681.88" y="-997.38" font-family="Arial" font-size="10.00">Phase 4.7 — E5 corpus diagnostic gate</text>
<g id="clust1" class="cluster">
<title>cluster_input</title>
<polygon fill="#e3f2fd" stroke="#1565c0" stroke-width="1.5" points="689.26,-860 689.26,-932 1355.76,-932 1355.76,-860 689.26,-860"/>
<text xml:space="preserve" text-anchor="middle" x="1022.51" y="-918.5" font-family="Arial" font-size="10.00">Entrée lecture seule</text>
</g>
<g id="clust2" class="cluster">
<title>cluster_gate</title>
<polygon fill="#f3e5f5" stroke="#6a1b9a" stroke-width="1.7" points="8,-76 8,-420 626.63,-420 626.63,-76 8,-76"/>
<text xml:space="preserve" text-anchor="middle" x="317.32" y="-406.5" font-family="Arial" font-size="10.00">Gate optionnel</text>
</g>
<g id="clust3" class="cluster">
<title>cluster_result</title>
<polygon fill="#e8f5e9" stroke="#2e7d32" stroke-width="1.5" points="665.63,-360 665.63,-568 1341.51,-568 1341.51,-360 665.63,-360"/>
<text xml:space="preserve" text-anchor="middle" x="1003.57" y="-554.5" font-family="Arial" font-size="10.00">Résultat actionnable</text>
</g>
<g id="clust4" class="cluster">
<title>cluster_scope</title>
<polygon fill="#fafafa" stroke="#78909c" points="686.26,-8 686.26,-352 813.47,-352 813.47,-8 686.26,-8"/>
<text xml:space="preserve" text-anchor="middle" x="749.86" y="-338.5" font-family="Arial" font-size="10.00">Limites d&#39;architecture</text>
</g>
<g id="clust5" class="cluster">
<title>cluster_navigation</title>
<polygon fill="#fff3e0" stroke="#ef6c00" stroke-width="1.4" points="972.59,-576 972.59,-852 1099.05,-852 1099.05,-576 972.59,-576"/>
<text xml:space="preserve" text-anchor="middle" x="1035.82" y="-838.5" font-family="Arial" font-size="10.00">Navigation roadmap</text>
</g>
<g id="clust6" class="cluster">
<title>cluster_legend</title>
<polygon fill="#ffffff" stroke="#cfd8dc" points="13.75,-614 13.75,-746 178.96,-746 178.96,-614 13.75,-614"/>
<text xml:space="preserve" text-anchor="middle" x="96.36" y="-732.5" font-family="Arial" font-size="10.00">Légende</text>
</g>
<!-- CorpusJson -->
<g id="node1" class="node">
<title>CorpusJson</title>
<g id="a_node1"><a xlink:href="50_e5_corpus.svg" xlink:title="corpus.json\nmissipy.e5.corpus.v1">
<path fill="#e3f2fd" stroke="#1565c0" d="M790.47,-904C790.47,-904 709.26,-904 709.26,-904 703.26,-904 697.26,-898 697.26,-892 697.26,-892 697.26,-880 697.26,-880 697.26,-874 703.26,-868 709.26,-868 709.26,-868 790.47,-868 790.47,-868 796.47,-868 802.47,-874 802.47,-880 802.47,-880 802.47,-892 802.47,-892 802.47,-898 796.47,-904 790.47,-904"/>
<text xml:space="preserve" text-anchor="middle" x="749.86" y="-888.5" font-family="Arial" font-size="10.00">corpus.json</text>
<text xml:space="preserve" text-anchor="middle" x="749.86" y="-876.5" font-family="Arial" font-size="10.00">missipy.e5.corpus.v1</text>
</a>
</g>
</g>
<!-- InspectCli -->
<g id="node2" class="node">
<title>InspectCli</title>
<g id="a_node2"><a xlink:href="60_e5_corpus_diagnostics.svg" xlink:title="inspect_e5_corpus.py\n&#45;&#45;index corpus.json">
<path fill="#e3f2fd" stroke="#1565c0" d="M1077.93,-904C1077.93,-904 993.72,-904 993.72,-904 987.72,-904 981.72,-898 981.72,-892 981.72,-892 981.72,-880 981.72,-880 981.72,-874 987.72,-868 993.72,-868 993.72,-868 1077.93,-868 1077.93,-868 1083.93,-868 1089.93,-874 1089.93,-880 1089.93,-880 1089.93,-892 1089.93,-892 1089.93,-898 1083.93,-904 1077.93,-904"/>
<text xml:space="preserve" text-anchor="middle" x="1035.82" y="-888.5" font-family="Arial" font-size="10.00">inspect_e5_corpus.py</text>
<text xml:space="preserve" text-anchor="middle" x="1035.82" y="-876.5" font-family="Arial" font-size="10.00">&#45;&#45;index corpus.json</text>
</a>
</g>
</g>
<!-- CorpusJson&#45;&gt;InspectCli -->
<g id="edge1" class="edge">
<title>CorpusJson&#45;&gt;InspectCli</title>
<path fill="none" stroke="#455a64" d="M802.94,-886C850.72,-886 921.58,-886 972.38,-886"/>
<polygon fill="#455a64" stroke="#455a64" points="972.11,-888.8 980.11,-886 972.11,-883.2 972.11,-888.8"/>
</g>
<!-- Diagnostics -->
<g id="node3" class="node">
<title>Diagnostics</title>
<path fill="#e3f2fd" stroke="#1565c0" d="M1335.76,-904C1335.76,-904 1251.55,-904 1251.55,-904 1245.55,-904 1239.55,-898 1239.55,-892 1239.55,-892 1239.55,-880 1239.55,-880 1239.55,-874 1245.55,-868 1251.55,-868 1251.55,-868 1335.76,-868 1335.76,-868 1341.76,-868 1347.76,-874 1347.76,-880 1347.76,-880 1347.76,-892 1347.76,-892 1347.76,-898 1341.76,-904 1335.76,-904"/>
<text xml:space="preserve" text-anchor="middle" x="1293.66" y="-888.5" font-family="Arial" font-size="10.00">E5CorpusDiagnostics</text>
<text xml:space="preserve" text-anchor="middle" x="1293.66" y="-876.5" font-family="Arial" font-size="10.00">agrégats + santé</text>
</g>
<!-- InspectCli&#45;&gt;Diagnostics -->
<g id="edge2" class="edge">
<title>InspectCli&#45;&gt;Diagnostics</title>
<path fill="none" stroke="#455a64" d="M1090.14,-886C1130.85,-886 1187.05,-886 1229.92,-886"/>
<polygon fill="#455a64" stroke="#455a64" points="1229.89,-888.8 1237.89,-886 1229.89,-883.2 1229.89,-888.8"/>
</g>
<!-- Evaluate -->
<g id="node10" class="node">
<title>Evaluate</title>
<path fill="#f3e5f5" stroke="#6a1b9a" d="M606.63,-256C606.63,-256 451.17,-256 451.17,-256 445.17,-256 439.17,-250 439.17,-244 439.17,-244 439.17,-232 439.17,-232 439.17,-226 445.17,-220 451.17,-220 451.17,-220 606.63,-220 606.63,-220 612.63,-220 618.63,-226 618.63,-232 618.63,-232 618.63,-244 618.63,-244 618.63,-250 612.63,-256 606.63,-256"/>
<text xml:space="preserve" text-anchor="middle" x="528.9" y="-240.5" font-family="Arial" font-size="10.00">evaluate_e5_corpus_diagnostic_gate()</text>
<text xml:space="preserve" text-anchor="middle" x="528.9" y="-228.5" font-family="Arial" font-size="10.00">fonction pure locale</text>
</g>
<!-- Diagnostics&#45;&gt;Evaluate -->
<g id="edge8" class="edge">
<title>Diagnostics&#45;&gt;Evaluate</title>
<path fill="none" stroke="#455a64" d="M1252.89,-904.48C1144.57,-951.77 840.71,-1063.67 665.63,-920 561.8,-834.8 535.92,-382.46 530.93,-265.58"/>
<polygon fill="#455a64" stroke="#455a64" points="533.73,-265.62 530.61,-257.74 528.14,-265.85 533.73,-265.62"/>
</g>
<!-- Config -->
<g id="node4" class="node">
<title>Config</title>
<path fill="#f3e5f5" stroke="#6a1b9a" d="M372.17,-256C372.17,-256 243.71,-256 243.71,-256 237.71,-256 231.71,-250 231.71,-244 231.71,-244 231.71,-232 231.71,-232 231.71,-226 237.71,-220 243.71,-220 243.71,-220 372.17,-220 372.17,-220 378.17,-220 384.17,-226 384.17,-232 384.17,-232 384.17,-244 384.17,-244 384.17,-250 378.17,-256 372.17,-256"/>
<text xml:space="preserve" text-anchor="middle" x="307.94" y="-240.5" font-family="Arial" font-size="10.00">E5CorpusDiagnosticGateConfig</text>
<text xml:space="preserve" text-anchor="middle" x="307.94" y="-228.5" font-family="Arial" font-size="10.00">seuils immuables</text>
</g>
<!-- Config&#45;&gt;Evaluate -->
<g id="edge9" class="edge">
<title>Config&#45;&gt;Evaluate</title>
<path fill="none" stroke="#455a64" d="M384.6,-238C399.03,-238 414.34,-238 429.36,-238"/>
<polygon fill="#455a64" stroke="#455a64" points="429.16,-240.8 437.16,-238 429.16,-235.2 429.16,-240.8"/>
</g>
<!-- MinChunks -->
<g id="node5" class="node">
<title>MinChunks</title>
<path fill="#f3e5f5" stroke="#6a1b9a" d="M124.21,-120C124.21,-120 68.5,-120 68.5,-120 62.5,-120 56.5,-114 56.5,-108 56.5,-108 56.5,-96 56.5,-96 56.5,-90 62.5,-84 68.5,-84 68.5,-84 124.21,-84 124.21,-84 130.21,-84 136.21,-90 136.21,-96 136.21,-96 136.21,-108 136.21,-108 136.21,-114 130.21,-120 124.21,-120"/>
<text xml:space="preserve" text-anchor="middle" x="96.36" y="-98.5" font-family="Arial" font-size="10.00">&#45;&#45;min&#45;chunks N</text>
</g>
<!-- MinChunks&#45;&gt;Config -->
<g id="edge3" class="edge">
<title>MinChunks&#45;&gt;Config</title>
<path fill="none" stroke="#455a64" d="M136.61,-115.79C150.41,-121.29 165.75,-128.19 178.96,-136 216.8,-158.37 255.65,-190.96 280.47,-213.24"/>
<polygon fill="#455a64" stroke="#455a64" points="278.46,-215.21 286.27,-218.51 282.23,-211.06 278.46,-215.21"/>
</g>
<!-- MaxMissing -->
<g id="node6" class="node">
<title>MaxMissing</title>
<path fill="#f3e5f5" stroke="#6a1b9a" d="M164.71,-188C164.71,-188 28,-188 28,-188 22,-188 16,-182 16,-176 16,-176 16,-164 16,-164 16,-158 22,-152 28,-152 28,-152 164.71,-152 164.71,-152 170.71,-152 176.71,-158 176.71,-164 176.71,-164 176.71,-176 176.71,-176 176.71,-182 170.71,-188 164.71,-188"/>
<text xml:space="preserve" text-anchor="middle" x="96.36" y="-166.5" font-family="Arial" font-size="10.00">&#45;&#45;max&#45;missing&#45;source&#45;metadata N</text>
</g>
<!-- MaxMissing&#45;&gt;Config -->
<g id="edge4" class="edge">
<title>MaxMissing&#45;&gt;Config</title>
<path fill="none" stroke="#455a64" d="M154.35,-188.49C181.15,-197.19 213.25,-207.6 241.08,-216.63"/>
<polygon fill="#455a64" stroke="#455a64" points="240.04,-219.24 248.52,-219.05 241.77,-213.91 240.04,-219.24"/>
</g>
<!-- MaxEmpty -->
<g id="node7" class="node">
<title>MaxEmpty</title>
<path fill="#f3e5f5" stroke="#6a1b9a" d="M135.84,-256C135.84,-256 56.88,-256 56.88,-256 50.88,-256 44.88,-250 44.88,-244 44.88,-244 44.88,-232 44.88,-232 44.88,-226 50.88,-220 56.88,-220 56.88,-220 135.84,-220 135.84,-220 141.84,-220 147.84,-226 147.84,-232 147.84,-232 147.84,-244 147.84,-244 147.84,-250 141.84,-256 135.84,-256"/>
<text xml:space="preserve" text-anchor="middle" x="96.36" y="-234.5" font-family="Arial" font-size="10.00">&#45;&#45;max&#45;empty&#45;texts N</text>
</g>
<!-- MaxEmpty&#45;&gt;Config -->
<g id="edge5" class="edge">
<title>MaxEmpty&#45;&gt;Config</title>
<path fill="none" stroke="#455a64" d="M148.09,-238C170.22,-238 196.78,-238 221.79,-238"/>
<polygon fill="#455a64" stroke="#455a64" points="221.77,-240.8 229.77,-238 221.77,-235.2 221.77,-240.8"/>
</g>
<!-- MaxDim -->
<g id="node8" class="node">
<title>MaxDim</title>
<path fill="#f3e5f5" stroke="#6a1b9a" d="M160.21,-324C160.21,-324 32.5,-324 32.5,-324 26.5,-324 20.5,-318 20.5,-312 20.5,-312 20.5,-300 20.5,-300 20.5,-294 26.5,-288 32.5,-288 32.5,-288 160.21,-288 160.21,-288 166.21,-288 172.21,-294 172.21,-300 172.21,-300 172.21,-312 172.21,-312 172.21,-318 166.21,-324 160.21,-324"/>
<text xml:space="preserve" text-anchor="middle" x="96.36" y="-302.5" font-family="Arial" font-size="10.00">&#45;&#45;max&#45;dimension&#45;mismatches N</text>
</g>
<!-- MaxDim&#45;&gt;Config -->
<g id="edge6" class="edge">
<title>MaxDim&#45;&gt;Config</title>
<path fill="none" stroke="#455a64" d="M154.35,-287.51C181.15,-278.81 213.25,-268.4 241.08,-259.37"/>
<polygon fill="#455a64" stroke="#455a64" points="241.77,-262.09 248.52,-256.95 240.04,-256.76 241.77,-262.09"/>
</g>
<!-- FailWarnings -->
<g id="node9" class="node">
<title>FailWarnings</title>
<path fill="#f3e5f5" stroke="#6a1b9a" d="M125.34,-392C125.34,-392 67.38,-392 67.38,-392 61.38,-392 55.38,-386 55.38,-380 55.38,-380 55.38,-368 55.38,-368 55.38,-362 61.38,-356 67.38,-356 67.38,-356 125.34,-356 125.34,-356 131.34,-356 137.34,-362 137.34,-368 137.34,-368 137.34,-380 137.34,-380 137.34,-386 131.34,-392 125.34,-392"/>
<text xml:space="preserve" text-anchor="middle" x="96.36" y="-370.5" font-family="Arial" font-size="10.00">&#45;&#45;fail&#45;on&#45;warning</text>
</g>
<!-- FailWarnings&#45;&gt;Config -->
<g id="edge7" class="edge">
<title>FailWarnings&#45;&gt;Config</title>
<path fill="none" stroke="#455a64" d="M137.44,-359.88C151.02,-354.43 166.01,-347.65 178.96,-340 216.8,-317.63 255.65,-285.04 280.47,-262.76"/>
<polygon fill="#455a64" stroke="#455a64" points="282.23,-264.94 286.27,-257.49 278.46,-260.79 282.23,-264.94"/>
</g>
<!-- GateResult -->
<g id="node11" class="node">
<title>GateResult</title>
<path fill="#e8f5e9" stroke="#2e7d32" d="M814.09,-472C814.09,-472 685.63,-472 685.63,-472 679.63,-472 673.63,-466 673.63,-460 673.63,-460 673.63,-448 673.63,-448 673.63,-442 679.63,-436 685.63,-436 685.63,-436 814.09,-436 814.09,-436 820.09,-436 826.09,-442 826.09,-448 826.09,-448 826.09,-460 826.09,-460 826.09,-466 820.09,-472 814.09,-472"/>
<text xml:space="preserve" text-anchor="middle" x="749.86" y="-456.5" font-family="Arial" font-size="10.00">E5CorpusDiagnosticGateResult</text>
<text xml:space="preserve" text-anchor="middle" x="749.86" y="-444.5" font-family="Arial" font-size="10.00">passed + violations</text>
</g>
<!-- Evaluate&#45;&gt;GateResult -->
<g id="edge10" class="edge">
<title>Evaluate&#45;&gt;GateResult</title>
<path fill="none" stroke="#455a64" d="M548.57,-256.42C587.84,-295.15 679.01,-385.1 723.51,-429"/>
<polygon fill="#455a64" stroke="#455a64" points="721.5,-430.94 729.16,-434.57 725.43,-426.96 721.5,-430.94"/>
</g>
<!-- NoWrite -->
<g id="node17" class="node">
<title>NoWrite</title>
<polygon fill="#fafafa" stroke="#78909c" points="787.84,-188 705.88,-188 705.88,-152 793.84,-152 793.84,-182 787.84,-188"/>
<polyline fill="none" stroke="#78909c" points="787.84,-188 787.84,-182"/>
<polyline fill="none" stroke="#78909c" points="793.84,-182 787.84,-182"/>
<text xml:space="preserve" text-anchor="middle" x="749.86" y="-172.5" font-family="Arial" font-size="10.00">lecture seule</text>
<text xml:space="preserve" text-anchor="middle" x="749.86" y="-160.5" font-family="Arial" font-size="10.00">pas de promotion</text>
</g>
<!-- Evaluate&#45;&gt;NoWrite -->
<g id="edge16" class="edge">
<title>Evaluate&#45;&gt;NoWrite</title>
<path fill="none" stroke="#455a64" stroke-dasharray="1,5" d="M589.44,-219.51C623.01,-209.08 664.55,-196.18 696.81,-186.16"/>
<polygon fill="#455a64" stroke="#455a64" points="697.4,-188.91 704.21,-183.87 695.73,-183.57 697.4,-188.91"/>
</g>
<!-- NoScheduler -->
<g id="node18" class="node">
<title>NoScheduler</title>
<polygon fill="#fafafa" stroke="#78909c" points="788.22,-120 705.51,-120 705.51,-84 794.22,-84 794.22,-114 788.22,-120"/>
<polyline fill="none" stroke="#78909c" points="788.22,-120 788.22,-114"/>
<polyline fill="none" stroke="#78909c" points="794.22,-114 788.22,-114"/>
<text xml:space="preserve" text-anchor="middle" x="749.86" y="-98.5" font-family="Arial" font-size="10.00">pas de Scheduler</text>
</g>
<!-- Evaluate&#45;&gt;NoScheduler -->
<g id="edge17" class="edge">
<title>Evaluate&#45;&gt;NoScheduler</title>
<path fill="none" stroke="#455a64" stroke-dasharray="1,5" d="M550.81,-219.57C576.49,-197.6 622.05,-160.73 665.63,-136 675.28,-130.52 685.99,-125.47 696.43,-121.02"/>
<polygon fill="#455a64" stroke="#455a64" points="697.38,-123.65 703.7,-118.01 695.24,-118.48 697.38,-123.65"/>
</g>
<!-- NoQdrant -->
<g id="node19" class="node">
<title>NoQdrant</title>
<polygon fill="#fafafa" stroke="#78909c" points="781.09,-52 712.63,-52 712.63,-16 787.09,-16 787.09,-46 781.09,-52"/>
<polyline fill="none" stroke="#78909c" points="781.09,-52 781.09,-46"/>
<polyline fill="none" stroke="#78909c" points="787.09,-46 781.09,-46"/>
<text xml:space="preserve" text-anchor="middle" x="749.86" y="-30.5" font-family="Arial" font-size="10.00">pas de Qdrant</text>
</g>
<!-- Evaluate&#45;&gt;NoQdrant -->
<g id="edge18" class="edge">
<title>Evaluate&#45;&gt;NoQdrant</title>
<path fill="none" stroke="#455a64" stroke-dasharray="1,5" d="M540.22,-219.58C560.25,-185.35 607.57,-111.44 665.63,-68 676.9,-59.57 690.56,-52.85 703.53,-47.7"/>
<polygon fill="#455a64" stroke="#455a64" points="704.44,-50.35 710.94,-44.91 702.46,-45.11 704.44,-50.35"/>
</g>
<!-- NoFormatChange -->
<g id="node20" class="node">
<title>NoFormatChange</title>
<polygon fill="#fafafa" stroke="#78909c" points="787.09,-324 706.63,-324 706.63,-288 793.09,-288 793.09,-318 787.09,-324"/>
<polyline fill="none" stroke="#78909c" points="787.09,-324 787.09,-318"/>
<polyline fill="none" stroke="#78909c" points="793.09,-318 787.09,-318"/>
<text xml:space="preserve" text-anchor="middle" x="749.86" y="-308.5" font-family="Arial" font-size="10.00">format corpus v1</text>
<text xml:space="preserve" text-anchor="middle" x="749.86" y="-296.5" font-family="Arial" font-size="10.00">inchangé</text>
</g>
<!-- Evaluate&#45;&gt;NoFormatChange -->
<g id="edge19" class="edge">
<title>Evaluate&#45;&gt;NoFormatChange</title>
<path fill="none" stroke="#455a64" stroke-dasharray="1,5" d="M589.44,-256.49C623.24,-266.99 665.13,-280 697.48,-290.04"/>
<polygon fill="#455a64" stroke="#455a64" points="696.42,-292.65 704.89,-292.34 698.08,-287.3 696.42,-292.65"/>
</g>
<!-- NoSvg -->
<g id="node21" class="node">
<title>NoSvg</title>
<polygon fill="#fafafa" stroke="#78909c" points="799.47,-256 694.26,-256 694.26,-220 805.47,-220 805.47,-250 799.47,-256"/>
<polyline fill="none" stroke="#78909c" points="799.47,-256 799.47,-250"/>
<polyline fill="none" stroke="#78909c" points="805.47,-250 799.47,-250"/>
<text xml:space="preserve" text-anchor="middle" x="749.86" y="-234.5" font-family="Arial" font-size="10.00">pas de SVG versionné</text>
</g>
<!-- Evaluate&#45;&gt;NoSvg -->
<g id="edge20" class="edge">
<title>Evaluate&#45;&gt;NoSvg</title>
<path fill="none" stroke="#455a64" stroke-dasharray="1,5" d="M618.96,-238C640.93,-238 664.04,-238 684.58,-238"/>
<polygon fill="#455a64" stroke="#455a64" points="684.31,-240.8 692.31,-238 684.31,-235.2 684.31,-240.8"/>
</g>
<!-- TextGate -->
<g id="node12" class="node">
<title>TextGate</title>
<path fill="#e8f5e9" stroke="#2e7d32" d="M1058.43,-404C1058.43,-404 1013.22,-404 1013.22,-404 1007.22,-404 1001.22,-398 1001.22,-392 1001.22,-392 1001.22,-380 1001.22,-380 1001.22,-374 1007.22,-368 1013.22,-368 1013.22,-368 1058.43,-368 1058.43,-368 1064.43,-368 1070.43,-374 1070.43,-380 1070.43,-380 1070.43,-392 1070.43,-392 1070.43,-398 1064.43,-404 1058.43,-404"/>
<text xml:space="preserve" text-anchor="middle" x="1035.82" y="-388.5" font-family="Arial" font-size="10.00">sortie text</text>
<text xml:space="preserve" text-anchor="middle" x="1035.82" y="-376.5" font-family="Arial" font-size="10.00">section gate:</text>
</g>
<!-- GateResult&#45;&gt;TextGate -->
<g id="edge11" class="edge">
<title>GateResult&#45;&gt;TextGate</title>
<path fill="none" stroke="#455a64" d="M826.58,-435.87C879.39,-423.22 947.96,-406.8 991.69,-396.33"/>
<polygon fill="#455a64" stroke="#455a64" points="992.3,-399.06 999.43,-394.48 991,-393.62 992.3,-399.06"/>
</g>
<!-- JsonGate -->
<g id="node13" class="node">
<title>JsonGate</title>
<path fill="#e8f5e9" stroke="#2e7d32" d="M1052.8,-472C1052.8,-472 1018.84,-472 1018.84,-472 1012.84,-472 1006.84,-466 1006.84,-460 1006.84,-460 1006.84,-448 1006.84,-448 1006.84,-442 1012.84,-436 1018.84,-436 1018.84,-436 1052.8,-436 1052.8,-436 1058.8,-436 1064.8,-442 1064.8,-448 1064.8,-448 1064.8,-460 1064.8,-460 1064.8,-466 1058.8,-472 1052.8,-472"/>
<text xml:space="preserve" text-anchor="middle" x="1035.82" y="-456.5" font-family="Arial" font-size="10.00">sortie json</text>
<text xml:space="preserve" text-anchor="middle" x="1035.82" y="-444.5" font-family="Arial" font-size="10.00">clé gate</text>
</g>
<!-- GateResult&#45;&gt;JsonGate -->
<g id="edge12" class="edge">
<title>GateResult&#45;&gt;JsonGate</title>
<path fill="none" stroke="#455a64" d="M826.58,-454C881.72,-454 954.05,-454 997.34,-454"/>
<polygon fill="#455a64" stroke="#455a64" points="997.13,-456.8 1005.13,-454 997.13,-451.2 997.13,-456.8"/>
</g>
<!-- ExitOk -->
<g id="node14" class="node">
<title>ExitOk</title>
<path fill="#e8f5e9" stroke="#2e7d32" d="M1024.66,-535.58C1024.66,-535.58 1001.49,-526.42 1001.49,-526.42 995.91,-524.21 995.91,-519.79 1001.49,-517.58 1001.49,-517.58 1024.66,-508.42 1024.66,-508.42 1030.24,-506.21 1041.4,-506.21 1046.98,-508.42 1046.98,-508.42 1070.15,-517.58 1070.15,-517.58 1075.73,-519.79 1075.73,-524.21 1070.15,-526.42 1070.15,-526.42 1046.98,-535.58 1046.98,-535.58 1041.4,-537.79 1030.24,-537.79 1024.66,-535.58"/>
<text xml:space="preserve" text-anchor="middle" x="1035.82" y="-518.5" font-family="Arial" font-size="10.00">passed ?</text>
</g>
<!-- GateResult&#45;&gt;ExitOk -->
<g id="edge13" class="edge">
<title>GateResult&#45;&gt;ExitOk</title>
<path fill="none" stroke="#455a64" d="M826.58,-472.13C881.69,-485.33 953.95,-502.63 997.25,-513"/>
<polygon fill="#455a64" stroke="#455a64" points="996.39,-515.68 1004.82,-514.82 997.7,-510.23 996.39,-515.68"/>
</g>
<!-- RebuildGate -->
<g id="node25" class="node">
<title>RebuildGate</title>
<g id="a_node25"><a xlink:href="62_e5_rebuild_diagnostic_gate.svg" xlink:title="Phase 4.8\nrebuild diagnostic gate">
<path fill="#fff3e0" stroke="#ef6c00" d="M1079.05,-688C1079.05,-688 992.59,-688 992.59,-688 986.59,-688 980.59,-682 980.59,-676 980.59,-676 980.59,-664 980.59,-664 980.59,-658 986.59,-652 992.59,-652 992.59,-652 1079.05,-652 1079.05,-652 1085.05,-652 1091.05,-658 1091.05,-664 1091.05,-664 1091.05,-676 1091.05,-676 1091.05,-682 1085.05,-688 1079.05,-688"/>
<text xml:space="preserve" text-anchor="middle" x="1035.82" y="-672.5" font-family="Arial" font-size="10.00">Phase 4.8</text>
<text xml:space="preserve" text-anchor="middle" x="1035.82" y="-660.5" font-family="Arial" font-size="10.00">rebuild diagnostic gate</text>
</a>
</g>
</g>
<!-- GateResult&#45;&gt;RebuildGate -->
<g id="edge24" class="edge">
<title>GateResult&#45;&gt;RebuildGate</title>
<path fill="none" stroke="#455a64" stroke-dasharray="5,2" d="M770.64,-472.41C808.24,-506.88 893.33,-582.51 972.59,-636 978.13,-639.74 984.12,-643.42 990.12,-646.91"/>
<polygon fill="#455a64" stroke="#455a64" points="988.61,-649.27 996.96,-650.77 991.37,-644.4 988.61,-649.27"/>
<text xml:space="preserve" text-anchor="middle" x="903.34" y="-624.72" font-family="Arial" font-size="9.00">réutilisé avant promotion</text>
</g>
<!-- Code0 -->
<g id="node15" class="node">
<title>Code0</title>
<path fill="#e8f5e9" stroke="#2e7d32" d="M1321.51,-540C1321.51,-540 1265.8,-540 1265.8,-540 1259.8,-540 1253.8,-534 1253.8,-528 1253.8,-528 1253.8,-516 1253.8,-516 1253.8,-510 1259.8,-504 1265.8,-504 1265.8,-504 1321.51,-504 1321.51,-504 1327.51,-504 1333.51,-510 1333.51,-516 1333.51,-516 1333.51,-528 1333.51,-528 1333.51,-534 1327.51,-540 1321.51,-540"/>
<text xml:space="preserve" text-anchor="middle" x="1293.66" y="-524.5" font-family="Arial" font-size="10.00">exit 0</text>
<text xml:space="preserve" text-anchor="middle" x="1293.66" y="-512.5" font-family="Arial" font-size="10.00">corpus accepté</text>
</g>
<!-- ExitOk&#45;&gt;Code0 -->
<g id="edge14" class="edge">
<title>ExitOk&#45;&gt;Code0</title>
<path fill="none" stroke="#455a64" d="M1082.56,-522C1128.14,-522 1197.87,-522 1244.34,-522"/>
<polygon fill="#455a64" stroke="#455a64" points="1244.08,-524.8 1252.08,-522 1244.08,-519.2 1244.08,-524.8"/>
<text xml:space="preserve" text-anchor="middle" x="1165.3" y="-523.95" font-family="Arial" font-size="9.00">oui</text>
</g>
<!-- Code2 -->
<g id="node16" class="node">
<title>Code2</title>
<path fill="#e8f5e9" stroke="#2e7d32" d="M1309.89,-472C1309.89,-472 1277.43,-472 1277.43,-472 1271.43,-472 1265.43,-466 1265.43,-460 1265.43,-460 1265.43,-448 1265.43,-448 1265.43,-442 1271.43,-436 1277.43,-436 1277.43,-436 1309.89,-436 1309.89,-436 1315.89,-436 1321.89,-442 1321.89,-448 1321.89,-448 1321.89,-460 1321.89,-460 1321.89,-466 1315.89,-472 1309.89,-472"/>
<text xml:space="preserve" text-anchor="middle" x="1293.66" y="-456.5" font-family="Arial" font-size="10.00">exit 2</text>
<text xml:space="preserve" text-anchor="middle" x="1293.66" y="-444.5" font-family="Arial" font-size="10.00">seuil violé</text>
</g>
<!-- ExitOk&#45;&gt;Code2 -->
<g id="edge15" class="edge">
<title>ExitOk&#45;&gt;Code2</title>
<path fill="none" stroke="#455a64" d="M1064.2,-514.72C1110.43,-502.43 1204.01,-477.56 1255.9,-463.77"/>
<polygon fill="#455a64" stroke="#455a64" points="1256.61,-466.48 1263.62,-461.72 1255.17,-461.07 1256.61,-466.48"/>
<text xml:space="preserve" text-anchor="middle" x="1165.3" y="-501.95" font-family="Arial" font-size="9.00">non</text>
</g>
<!-- DiagnosticsPhase -->
<g id="node22" class="node">
<title>DiagnosticsPhase</title>
<g id="a_node22"><a xlink:href="60_e5_corpus_diagnostics.svg" xlink:title="Phase 4.6\ncorpus diagnostics">
<path fill="#fff3e0" stroke="#ef6c00" d="M1071.18,-756C1071.18,-756 1000.47,-756 1000.47,-756 994.47,-756 988.47,-750 988.47,-744 988.47,-744 988.47,-732 988.47,-732 988.47,-726 994.47,-720 1000.47,-720 1000.47,-720 1071.18,-720 1071.18,-720 1077.18,-720 1083.18,-726 1083.18,-732 1083.18,-732 1083.18,-744 1083.18,-744 1083.18,-750 1077.18,-756 1071.18,-756"/>
<text xml:space="preserve" text-anchor="middle" x="1035.82" y="-740.5" font-family="Arial" font-size="10.00">Phase 4.6</text>
<text xml:space="preserve" text-anchor="middle" x="1035.82" y="-728.5" font-family="Arial" font-size="10.00">corpus diagnostics</text>
</a>
</g>
</g>
<!-- DiagnosticsPhase&#45;&gt;Diagnostics -->
<g id="edge21" class="edge">
<title>DiagnosticsPhase&#45;&gt;Diagnostics</title>
<path fill="none" stroke="#455a64" d="M1070.84,-756.33C1080.03,-761.35 1089.95,-766.84 1099.05,-772 1153.21,-802.73 1215.11,-839.47 1254.04,-862.77"/>
<polygon fill="#455a64" stroke="#455a64" points="1252.38,-865.04 1260.69,-866.75 1255.26,-860.24 1252.38,-865.04"/>
<text xml:space="preserve" text-anchor="middle" x="1165.3" y="-838.27" font-family="Arial" font-size="9.00">produit</text>
</g>
<!-- HygieneCli -->
<g id="node23" class="node">
<title>HygieneCli</title>
<g id="a_node23"><a xlink:href="59_e5_source_hygiene_cli.svg" xlink:title="Phase 4.5\nhygiène CLI">
<path fill="#fff3e0" stroke="#ef6c00" d="M1056.55,-824C1056.55,-824 1015.09,-824 1015.09,-824 1009.09,-824 1003.09,-818 1003.09,-812 1003.09,-812 1003.09,-800 1003.09,-800 1003.09,-794 1009.09,-788 1015.09,-788 1015.09,-788 1056.55,-788 1056.55,-788 1062.55,-788 1068.55,-794 1068.55,-800 1068.55,-800 1068.55,-812 1068.55,-812 1068.55,-818 1062.55,-824 1056.55,-824"/>
<text xml:space="preserve" text-anchor="middle" x="1035.82" y="-808.5" font-family="Arial" font-size="10.00">Phase 4.5</text>
<text xml:space="preserve" text-anchor="middle" x="1035.82" y="-796.5" font-family="Arial" font-size="10.00">hygiène CLI</text>
</a>
</g>
</g>
<!-- HygieneCli&#45;&gt;CorpusJson -->
<g id="edge22" class="edge">
<title>HygieneCli&#45;&gt;CorpusJson</title>
<path fill="none" stroke="#455a64" d="M1002.91,-814.99C956.71,-828 870.36,-852.33 811.74,-868.85"/>
<polygon fill="#455a64" stroke="#455a64" points="811.34,-866.05 804.4,-870.92 812.86,-871.44 811.34,-866.05"/>
<text xml:space="preserve" text-anchor="middle" x="903.34" y="-857.47" font-family="Arial" font-size="9.00">réduit les anomalies</text>
</g>
<!-- ScoreGuard -->
<g id="node24" class="node">
<title>ScoreGuard</title>
<g id="a_node24"><a xlink:href="57_e5_score_guard.svg" xlink:title="Phase 4.3\nsearch score guard">
<path fill="#fff3e0" stroke="#ef6c00" d="M1071.93,-620C1071.93,-620 999.72,-620 999.72,-620 993.72,-620 987.72,-614 987.72,-608 987.72,-608 987.72,-596 987.72,-596 987.72,-590 993.72,-584 999.72,-584 999.72,-584 1071.93,-584 1071.93,-584 1077.93,-584 1083.93,-590 1083.93,-596 1083.93,-596 1083.93,-608 1083.93,-608 1083.93,-614 1077.93,-620 1071.93,-620"/>
<text xml:space="preserve" text-anchor="middle" x="1035.82" y="-604.5" font-family="Arial" font-size="10.00">Phase 4.3</text>
<text xml:space="preserve" text-anchor="middle" x="1035.82" y="-592.5" font-family="Arial" font-size="10.00">search score guard</text>
</a>
</g>
</g>
<!-- ScoreGuard&#45;&gt;Code0 -->
<g id="edge23" class="edge">
<title>ScoreGuard&#45;&gt;Code0</title>
<path fill="none" stroke="#455a64" stroke-dasharray="1,5" d="M1084.34,-587.14C1129.99,-572.86 1198.63,-551.4 1244.49,-537.06"/>
<polygon fill="#455a64" stroke="#455a64" points="1245.11,-539.8 1251.9,-534.74 1243.43,-534.46 1245.11,-539.8"/>
<text xml:space="preserve" text-anchor="middle" x="1165.3" y="-578.07" font-family="Arial" font-size="9.00">utiliser après validation</text>
</g>
<!-- Legend -->
<g id="node26" class="node">
<title>Legend</title>
<path fill="#ffffff" stroke="none" d="M158.96,-718.32C158.96,-718.32 33.75,-718.32 33.75,-718.32 27.75,-718.32 21.75,-712.32 21.75,-706.32 21.75,-706.32 21.75,-633.68 21.75,-633.68 21.75,-627.68 27.75,-621.68 33.75,-621.68 33.75,-621.68 158.96,-621.68 158.96,-621.68 164.96,-621.68 170.96,-627.68 170.96,-633.68 170.96,-633.68 170.96,-706.32 170.96,-706.32 170.96,-712.32 164.96,-718.32 158.96,-718.32"/>
<polygon fill="#e3f2fd" stroke="none" points="28.23,-692 28.23,-714 69.73,-714 69.73,-692 28.23,-692"/>
<polygon fill="none" stroke="#ffffff" points="28.23,-692 28.23,-714 69.73,-714 69.73,-692 28.23,-692"/>
<text xml:space="preserve" text-anchor="start" x="39.23" y="-699.25" font-family="Arial" font-size="10.00">Bleu</text>
<polygon fill="none" stroke="#ffffff" points="69.73,-692 69.73,-714 164.48,-714 164.48,-692 69.73,-692"/>
<text xml:space="preserve" text-anchor="start" x="86.36" y="-699.25" font-family="Arial" font-size="10.00">lecture corpus</text>
<polygon fill="#f3e5f5" stroke="none" points="28.23,-670 28.23,-692 69.73,-692 69.73,-670 28.23,-670"/>
<polygon fill="none" stroke="#ffffff" points="28.23,-670 28.23,-692 69.73,-692 69.73,-670 28.23,-670"/>
<text xml:space="preserve" text-anchor="start" x="36.61" y="-677.25" font-family="Arial" font-size="10.00">Violet</text>
<polygon fill="none" stroke="#ffffff" points="69.73,-670 69.73,-692 164.48,-692 164.48,-670 69.73,-670"/>
<text xml:space="preserve" text-anchor="start" x="93.48" y="-677.25" font-family="Arial" font-size="10.00">seuils gate</text>
<polygon fill="#e8f5e9" stroke="none" points="28.23,-648 28.23,-670 69.73,-670 69.73,-648 28.23,-648"/>
<polygon fill="none" stroke="#ffffff" points="28.23,-648 28.23,-670 69.73,-670 69.73,-648 28.23,-648"/>
<text xml:space="preserve" text-anchor="start" x="40.36" y="-655.25" font-family="Arial" font-size="10.00">Vert</text>
<polygon fill="none" stroke="#ffffff" points="69.73,-648 69.73,-670 164.48,-670 164.48,-648 69.73,-648"/>
<text xml:space="preserve" text-anchor="start" x="74.73" y="-655.25" font-family="Arial" font-size="10.00">résultat actionnable</text>
<polygon fill="#fff3e0" stroke="none" points="28.23,-626 28.23,-648 69.73,-648 69.73,-626 28.23,-626"/>
<polygon fill="none" stroke="#ffffff" points="28.23,-626 28.23,-648 69.73,-648 69.73,-626 28.23,-626"/>
<text xml:space="preserve" text-anchor="start" x="33.23" y="-633.25" font-family="Arial" font-size="10.00">Orange</text>
<polygon fill="none" stroke="#ffffff" points="69.73,-626 69.73,-648 164.48,-648 164.48,-626 69.73,-626"/>
<text xml:space="preserve" text-anchor="start" x="74.73" y="-633.25" font-family="Arial" font-size="10.00">navigation roadmap</text>
</g>
</g>
</svg>
