<?xml version="1.0" encoding="UTF-8" standalone="no"?>
<!DOCTYPE svg PUBLIC "-//W3C//DTD SVG 1.1//EN"
 "http://www.w3.org/Graphics/SVG/1.1/DTD/svg11.dtd">
<!-- Generated by graphviz version 14.1.3 (20260303.0454)
 -->
<!-- Title: E5RebuildDiagnosticGate Pages: 1 -->
<svg width="2390pt" height="823pt"
 viewBox="0.00 0.00 2390.00 823.00" xmlns="http://www.w3.org/2000/svg" xmlns:xlink="http://www.w3.org/1999/xlink">
<g id="graph0" class="graph" transform="scale(1 1) rotate(0) translate(18 805)">
<title>E5RebuildDiagnosticGate</title>
<polygon fill="white" stroke="none" points="-18,18 -18,-805 2372.23,-805 2372.23,18 -18,18"/>
<text xml:space="preserve" text-anchor="middle" x="1177.12" y="-773.5" font-family="Arial" font-size="10.00">Phase 4.8 — E5 rebuild diagnostic gate</text>
<g id="clust1" class="cluster">
<title>cluster_build</title>
<polygon fill="#e3f2fd" stroke="#1565c0" stroke-width="1.5" points="243.71,-532 243.71,-604 963.8,-604 963.8,-532 243.71,-532"/>
<text xml:space="preserve" text-anchor="middle" x="603.76" y="-590.5" font-family="Arial" font-size="10.00">Rebuild sûr existant</text>
</g>
<g id="clust2" class="cluster">
<title>cluster_gate</title>
<polygon fill="#f3e5f5" stroke="#6a1b9a" stroke-width="1.7" points="1006.8,-304 1006.8,-448 1615.43,-448 1615.43,-304 1006.8,-304"/>
<text xml:space="preserve" text-anchor="middle" x="1311.12" y="-434.5" font-family="Arial" font-size="10.00">Gate diagnostic avant promotion</text>
</g>
<g id="clust3" class="cluster">
<title>cluster_decision</title>
<polygon fill="#e8f5e9" stroke="#2e7d32" stroke-width="1.5" points="1658.43,-289 1658.43,-391 2346.23,-391 2346.23,-289 1658.43,-289"/>
<text xml:space="preserve" text-anchor="middle" x="2002.33" y="-377.5" font-family="Arial" font-size="10.00">Décision de promotion</text>
</g>
<g id="clust4" class="cluster">
<title>cluster_failure</title>
<polygon fill="#ffebee" stroke="#c62828" stroke-width="1.5" points="1893.85,-137 1893.85,-281 2211.64,-281 2211.64,-137 1893.85,-137"/>
<text xml:space="preserve" text-anchor="middle" x="2052.75" y="-267.5" font-family="Arial" font-size="10.00">Échec contrôlé</text>
</g>
<g id="clust5" class="cluster">
<title>cluster_scope</title>
<polygon fill="#fafafa" stroke="#78909c" points="1467.59,-8 1467.59,-296 1594.8,-296 1594.8,-8 1467.59,-8"/>
<text xml:space="preserve" text-anchor="middle" x="1531.2" y="-282.5" font-family="Arial" font-size="10.00">Limites d&#39;architecture</text>
</g>
<g id="clust6" class="cluster">
<title>cluster_navigation</title>
<polygon fill="#fff3e0" stroke="#ef6c00" stroke-width="1.4" points="34.12,-309 34.12,-597 147.84,-597 147.84,-309 34.12,-309"/>
<text xml:space="preserve" text-anchor="middle" x="90.98" y="-583.5" font-family="Arial" font-size="10.00">Navigation roadmap</text>
</g>
<g id="clust7" class="cluster">
<title>cluster_legend</title>
<polygon fill="#ffffff" stroke="#cfd8dc" points="8,-605 8,-759 173.96,-759 173.96,-605 8,-605"/>
<text xml:space="preserve" text-anchor="middle" x="90.98" y="-745.5" font-family="Arial" font-size="10.00">Légende</text>
</g>
<!-- Inputs -->
<g id="node1" class="node">
<title>Inputs</title>
<g id="a_node1"><a xlink:href="51_e5_sources.svg" xlink:title="passages / source&#45;dir\nTXT Markdown">
<path fill="#e3f2fd" stroke="#1565c0" d="M346.42,-576C346.42,-576 263.71,-576 263.71,-576 257.71,-576 251.71,-570 251.71,-564 251.71,-564 251.71,-552 251.71,-552 251.71,-546 257.71,-540 263.71,-540 263.71,-540 346.42,-540 346.42,-540 352.42,-540 358.42,-546 358.42,-552 358.42,-552 358.42,-564 358.42,-564 358.42,-570 352.42,-576 346.42,-576"/>
<text xml:space="preserve" text-anchor="middle" x="305.06" y="-560.5" font-family="Arial" font-size="10.00">passages / source&#45;dir</text>
<text xml:space="preserve" text-anchor="middle" x="305.06" y="-548.5" font-family="Arial" font-size="10.00">TXT Markdown</text>
</a>
</g>
</g>
<!-- RebuildCli -->
<g id="node2" class="node">
<title>RebuildCli</title>
<g id="a_node2"><a xlink:href="56_e5_safe_rebuild.svg" xlink:title="rebuild_e5_corpus.py\nstaging + lock">
<path fill="#e3f2fd" stroke="#1565c0" d="M510.63,-576C510.63,-576 429.42,-576 429.42,-576 423.42,-576 417.42,-570 417.42,-564 417.42,-564 417.42,-552 417.42,-552 417.42,-546 423.42,-540 429.42,-540 429.42,-540 510.63,-540 510.63,-540 516.63,-540 522.63,-546 522.63,-552 522.63,-552 522.63,-564 522.63,-564 522.63,-570 516.63,-576 510.63,-576"/>
<text xml:space="preserve" text-anchor="middle" x="470.02" y="-560.5" font-family="Arial" font-size="10.00">rebuild_e5_corpus.py</text>
<text xml:space="preserve" text-anchor="middle" x="470.02" y="-548.5" font-family="Arial" font-size="10.00">staging + lock</text>
</a>
</g>
</g>
<!-- Inputs&#45;&gt;RebuildCli -->
<g id="edge1" class="edge">
<title>Inputs&#45;&gt;RebuildCli</title>
<path fill="none" stroke="#455a64" d="M358.52,-558C374.16,-558 391.43,-558 407.58,-558"/>
<polygon fill="#455a64" stroke="#455a64" points="407.43,-560.8 415.43,-558 407.43,-555.2 407.43,-560.8"/>
</g>
<!-- Builder -->
<g id="node3" class="node">
<title>Builder</title>
<g id="a_node3"><a xlink:href="50_e5_corpus.svg" xlink:title="E5CorpusBuilder\nE5IncrementalCorpusBuilder">
<path fill="#e3f2fd" stroke="#1565c0" d="M766.09,-576C766.09,-576 652.63,-576 652.63,-576 646.63,-576 640.63,-570 640.63,-564 640.63,-564 640.63,-552 640.63,-552 640.63,-546 646.63,-540 652.63,-540 652.63,-540 766.09,-540 766.09,-540 772.09,-540 778.09,-546 778.09,-552 778.09,-552 778.09,-564 778.09,-564 778.09,-570 772.09,-576 766.09,-576"/>
<text xml:space="preserve" text-anchor="middle" x="709.36" y="-560.5" font-family="Arial" font-size="10.00">E5CorpusBuilder</text>
<text xml:space="preserve" text-anchor="middle" x="709.36" y="-548.5" font-family="Arial" font-size="10.00">E5IncrementalCorpusBuilder</text>
</a>
</g>
</g>
<!-- RebuildCli&#45;&gt;Builder -->
<g id="edge2" class="edge">
<title>RebuildCli&#45;&gt;Builder</title>
<path fill="none" stroke="#455a64" d="M523.11,-558C554.67,-558 595.53,-558 630.84,-558"/>
<polygon fill="#455a64" stroke="#455a64" points="630.65,-560.8 638.65,-558 630.65,-555.2 630.65,-560.8"/>
</g>
<!-- SearchValidation -->
<g id="node24" class="node">
<title>SearchValidation</title>
<path fill="lightgrey" stroke="black" d="M740.21,-504C740.21,-504 678.5,-504 678.5,-504 672.5,-504 666.5,-498 666.5,-492 666.5,-492 666.5,-480 666.5,-480 666.5,-474 672.5,-468 678.5,-468 678.5,-468 740.21,-468 740.21,-468 746.21,-468 752.21,-474 752.21,-480 752.21,-480 752.21,-492 752.21,-492 752.21,-498 746.21,-504 740.21,-504"/>
<text xml:space="preserve" text-anchor="middle" x="709.36" y="-482.5" font-family="Arial" font-size="10.00">SearchValidation</text>
</g>
<!-- RebuildCli&#45;&gt;SearchValidation -->
<g id="edge23" class="edge">
<title>RebuildCli&#45;&gt;SearchValidation</title>
<path fill="none" stroke="#455a64" d="M523.11,-542.2C562.99,-530.1 617.69,-513.51 657.31,-501.49"/>
<polygon fill="#455a64" stroke="#455a64" points="657.99,-504.21 664.83,-499.21 656.36,-498.85 657.99,-504.21"/>
<text xml:space="preserve" text-anchor="middle" x="581.63" y="-534.61" font-family="Arial" font-size="9.00">étape suivante</text>
</g>
<!-- Staging -->
<g id="node4" class="node">
<title>Staging</title>
<path fill="#e3f2fd" stroke="#1565c0" d="M943.8,-576C943.8,-576 849.09,-576 849.09,-576 843.09,-576 837.09,-570 837.09,-564 837.09,-564 837.09,-552 837.09,-552 837.09,-546 843.09,-540 849.09,-540 849.09,-540 943.8,-540 943.8,-540 949.8,-540 955.8,-546 955.8,-552 955.8,-552 955.8,-564 955.8,-564 955.8,-570 949.8,-576 943.8,-576"/>
<text xml:space="preserve" text-anchor="middle" x="896.44" y="-560.5" font-family="Arial" font-size="10.00">.corpus.json.rebuild.json</text>
<text xml:space="preserve" text-anchor="middle" x="896.44" y="-548.5" font-family="Arial" font-size="10.00">candidat relu</text>
</g>
<!-- Builder&#45;&gt;Staging -->
<g id="edge3" class="edge">
<title>Builder&#45;&gt;Staging</title>
<path fill="none" stroke="#455a64" d="M778.49,-558C794.43,-558 811.41,-558 827.35,-558"/>
<polygon fill="#455a64" stroke="#455a64" points="827.08,-560.8 835.08,-558 827.08,-555.2 827.08,-560.8"/>
</g>
<!-- Inspect -->
<g id="node5" class="node">
<title>Inspect</title>
<g id="a_node5"><a xlink:href="60_e5_corpus_diagnostics.svg" xlink:title="inspect_e5_corpus(candidate)\nlecture locale">
<path fill="#f3e5f5" stroke="#6a1b9a" d="M1145.51,-420C1145.51,-420 1026.8,-420 1026.8,-420 1020.8,-420 1014.8,-414 1014.8,-408 1014.8,-408 1014.8,-396 1014.8,-396 1014.8,-390 1020.8,-384 1026.8,-384 1026.8,-384 1145.51,-384 1145.51,-384 1151.51,-384 1157.51,-390 1157.51,-396 1157.51,-396 1157.51,-408 1157.51,-408 1157.51,-414 1151.51,-420 1145.51,-420"/>
<text xml:space="preserve" text-anchor="middle" x="1086.15" y="-404.5" font-family="Arial" font-size="10.00">inspect_e5_corpus(candidate)</text>
<text xml:space="preserve" text-anchor="middle" x="1086.15" y="-392.5" font-family="Arial" font-size="10.00">lecture locale</text>
</a>
</g>
</g>
<!-- Staging&#45;&gt;Inspect -->
<g id="edge4" class="edge">
<title>Staging&#45;&gt;Inspect</title>
<path fill="none" stroke="#455a64" d="M919.35,-539.8C953.16,-511.69 1018.13,-457.7 1055.93,-426.29"/>
<polygon fill="#455a64" stroke="#455a64" points="1057.58,-428.56 1061.94,-421.29 1054,-424.25 1057.58,-428.56"/>
</g>
<!-- Evaluate -->
<g id="node7" class="node">
<title>Evaluate</title>
<path fill="#f3e5f5" stroke="#6a1b9a" d="M1383.97,-348C1383.97,-348 1228.51,-348 1228.51,-348 1222.51,-348 1216.51,-342 1216.51,-336 1216.51,-336 1216.51,-324 1216.51,-324 1216.51,-318 1222.51,-312 1228.51,-312 1228.51,-312 1383.97,-312 1383.97,-312 1389.97,-312 1395.97,-318 1395.97,-324 1395.97,-324 1395.97,-336 1395.97,-336 1395.97,-342 1389.97,-348 1383.97,-348"/>
<text xml:space="preserve" text-anchor="middle" x="1306.24" y="-332.5" font-family="Arial" font-size="10.00">evaluate_e5_corpus_diagnostic_gate()</text>
<text xml:space="preserve" text-anchor="middle" x="1306.24" y="-320.5" font-family="Arial" font-size="10.00">fonction pure</text>
</g>
<!-- Inspect&#45;&gt;Evaluate -->
<g id="edge6" class="edge">
<title>Inspect&#45;&gt;Evaluate</title>
<path fill="none" stroke="#455a64" d="M1143.03,-383.55C1172.78,-373.73 1209.52,-361.6 1240.51,-351.37"/>
<polygon fill="#455a64" stroke="#455a64" points="1241.35,-354.04 1248.07,-348.87 1239.59,-348.72 1241.35,-354.04"/>
</g>
<!-- Config -->
<g id="node6" class="node">
<title>Config</title>
<g id="a_node6"><a xlink:href="61_e5_corpus_diagnostic_gate.svg" xlink:title="seuils CLI\nmin/max + fail&#45;on&#45;warning">
<path fill="#f3e5f5" stroke="#6a1b9a" d="M1136.88,-348C1136.88,-348 1035.42,-348 1035.42,-348 1029.42,-348 1023.42,-342 1023.42,-336 1023.42,-336 1023.42,-324 1023.42,-324 1023.42,-318 1029.42,-312 1035.42,-312 1035.42,-312 1136.88,-312 1136.88,-312 1142.88,-312 1148.88,-318 1148.88,-324 1148.88,-324 1148.88,-336 1148.88,-336 1148.88,-342 1142.88,-348 1136.88,-348"/>
<text xml:space="preserve" text-anchor="middle" x="1086.15" y="-332.5" font-family="Arial" font-size="10.00">seuils CLI</text>
<text xml:space="preserve" text-anchor="middle" x="1086.15" y="-320.5" font-family="Arial" font-size="10.00">min/max + fail&#45;on&#45;warning</text>
</a>
</g>
</g>
<!-- Config&#45;&gt;Evaluate -->
<g id="edge5" class="edge">
<title>Config&#45;&gt;Evaluate</title>
<path fill="none" stroke="#455a64" d="M1149.36,-330C1167.21,-330 1187.13,-330 1206.6,-330"/>
<polygon fill="#455a64" stroke="#455a64" points="1206.6,-332.8 1214.6,-330 1206.6,-327.2 1206.6,-332.8"/>
</g>
<!-- Gate -->
<g id="node8" class="node">
<title>Gate</title>
<path fill="#f3e5f5" stroke="#6a1b9a" d="M1595.43,-348C1595.43,-348 1466.97,-348 1466.97,-348 1460.97,-348 1454.97,-342 1454.97,-336 1454.97,-336 1454.97,-324 1454.97,-324 1454.97,-318 1460.97,-312 1466.97,-312 1466.97,-312 1595.43,-312 1595.43,-312 1601.43,-312 1607.43,-318 1607.43,-324 1607.43,-324 1607.43,-336 1607.43,-336 1607.43,-342 1601.43,-348 1595.43,-348"/>
<text xml:space="preserve" text-anchor="middle" x="1531.2" y="-332.5" font-family="Arial" font-size="10.00">E5CorpusDiagnosticGateResult</text>
<text xml:space="preserve" text-anchor="middle" x="1531.2" y="-320.5" font-family="Arial" font-size="10.00">passed + violations</text>
</g>
<!-- Evaluate&#45;&gt;Gate -->
<g id="edge7" class="edge">
<title>Evaluate&#45;&gt;Gate</title>
<path fill="none" stroke="#455a64" d="M1396.32,-330C1412.44,-330 1429.22,-330 1445.22,-330"/>
<polygon fill="#455a64" stroke="#455a64" points="1445.02,-332.8 1453.02,-330 1445.02,-327.2 1445.02,-332.8"/>
</g>
<!-- NoScheduler -->
<g id="node16" class="node">
<title>NoScheduler</title>
<polygon fill="#fafafa" stroke="#78909c" points="1569.55,-268 1486.84,-268 1486.84,-232 1575.55,-232 1575.55,-262 1569.55,-268"/>
<polyline fill="none" stroke="#78909c" points="1569.55,-268 1569.55,-262"/>
<polyline fill="none" stroke="#78909c" points="1575.55,-262 1569.55,-262"/>
<text xml:space="preserve" text-anchor="middle" x="1531.2" y="-246.5" font-family="Arial" font-size="10.00">pas de Scheduler</text>
</g>
<!-- Evaluate&#45;&gt;NoScheduler -->
<g id="edge15" class="edge">
<title>Evaluate&#45;&gt;NoScheduler</title>
<path fill="none" stroke="#455a64" stroke-dasharray="1,5" d="M1358.67,-311.55C1394.36,-298.74 1441.74,-281.74 1477.67,-268.85"/>
<polygon fill="#455a64" stroke="#455a64" points="1478.53,-271.51 1485.11,-266.18 1476.64,-266.24 1478.53,-271.51"/>
</g>
<!-- NoQdrant -->
<g id="node17" class="node">
<title>NoQdrant</title>
<polygon fill="#fafafa" stroke="#78909c" points="1562.43,-196 1493.97,-196 1493.97,-160 1568.43,-160 1568.43,-190 1562.43,-196"/>
<polyline fill="none" stroke="#78909c" points="1562.43,-196 1562.43,-190"/>
<polyline fill="none" stroke="#78909c" points="1568.43,-190 1562.43,-190"/>
<text xml:space="preserve" text-anchor="middle" x="1531.2" y="-174.5" font-family="Arial" font-size="10.00">pas de Qdrant</text>
</g>
<!-- Evaluate&#45;&gt;NoQdrant -->
<g id="edge16" class="edge">
<title>Evaluate&#45;&gt;NoQdrant</title>
<path fill="none" stroke="#455a64" stroke-dasharray="1,5" d="M1327.69,-311.56C1355.26,-287.27 1406.5,-244.12 1454.97,-214 1464.48,-208.09 1475.11,-202.46 1485.32,-197.49"/>
<polygon fill="#455a64" stroke="#455a64" points="1486.37,-200.09 1492.39,-194.13 1483.96,-195.04 1486.37,-200.09"/>
</g>
<!-- NoFormatChange -->
<g id="node18" class="node">
<title>NoFormatChange</title>
<polygon fill="#fafafa" stroke="#78909c" points="1568.43,-124 1487.97,-124 1487.97,-88 1574.43,-88 1574.43,-118 1568.43,-124"/>
<polyline fill="none" stroke="#78909c" points="1568.43,-124 1568.43,-118"/>
<polyline fill="none" stroke="#78909c" points="1574.43,-118 1568.43,-118"/>
<text xml:space="preserve" text-anchor="middle" x="1531.2" y="-108.5" font-family="Arial" font-size="10.00">format corpus v1</text>
<text xml:space="preserve" text-anchor="middle" x="1531.2" y="-96.5" font-family="Arial" font-size="10.00">inchangé</text>
</g>
<!-- Evaluate&#45;&gt;NoFormatChange -->
<g id="edge17" class="edge">
<title>Evaluate&#45;&gt;NoFormatChange</title>
<path fill="none" stroke="#455a64" stroke-dasharray="1,5" d="M1317.65,-311.69C1339.15,-275.2 1391.8,-192.62 1454.97,-142 1462.26,-136.16 1470.65,-130.98 1479.12,-126.49"/>
<polygon fill="#455a64" stroke="#455a64" points="1480.35,-129.01 1486.24,-122.92 1477.83,-124.01 1480.35,-129.01"/>
</g>
<!-- NoSvg -->
<g id="node19" class="node">
<title>NoSvg</title>
<polygon fill="#fafafa" stroke="#78909c" points="1580.8,-52 1475.59,-52 1475.59,-16 1586.8,-16 1586.8,-46 1580.8,-52"/>
<polyline fill="none" stroke="#78909c" points="1580.8,-52 1580.8,-46"/>
<polyline fill="none" stroke="#78909c" points="1586.8,-46 1580.8,-46"/>
<text xml:space="preserve" text-anchor="middle" x="1531.2" y="-30.5" font-family="Arial" font-size="10.00">pas de SVG versionné</text>
</g>
<!-- Evaluate&#45;&gt;NoSvg -->
<g id="edge18" class="edge">
<title>Evaluate&#45;&gt;NoSvg</title>
<path fill="none" stroke="#455a64" stroke-dasharray="1,5" d="M1313.22,-311.79C1329.22,-265.64 1377.11,-142.56 1454.97,-70 1460.18,-65.14 1466.17,-60.82 1472.45,-57.01"/>
<polygon fill="#455a64" stroke="#455a64" points="1473.61,-59.57 1479.19,-53.2 1470.85,-54.7 1473.61,-59.57"/>
</g>
<!-- Passed -->
<g id="node9" class="node">
<title>Passed</title>
<path fill="#e8f5e9" stroke="#2e7d32" d="M1717.53,-357.03C1717.53,-357.03 1677.04,-335.61 1677.04,-335.61 1671.73,-332.81 1671.73,-327.19 1677.04,-324.39 1677.04,-324.39 1717.53,-302.97 1717.53,-302.97 1722.84,-300.17 1733.44,-300.17 1738.75,-302.97 1738.75,-302.97 1779.24,-324.39 1779.24,-324.39 1784.55,-327.19 1784.55,-332.81 1779.24,-335.61 1779.24,-335.61 1738.75,-357.03 1738.75,-357.03 1733.44,-359.83 1722.84,-359.83 1717.53,-357.03"/>
<text xml:space="preserve" text-anchor="middle" x="1728.14" y="-332.5" font-family="Arial" font-size="10.00">gate actif ?</text>
<text xml:space="preserve" text-anchor="middle" x="1728.14" y="-320.5" font-family="Arial" font-size="10.00">passed ?</text>
</g>
<!-- Gate&#45;&gt;Passed -->
<g id="edge8" class="edge">
<title>Gate&#45;&gt;Passed</title>
<path fill="none" stroke="#455a64" d="M1607.85,-330C1623.77,-330 1640.52,-330 1656.26,-330"/>
<polygon fill="#455a64" stroke="#455a64" points="1655.88,-332.8 1663.88,-330 1655.88,-327.2 1655.88,-332.8"/>
</g>
<!-- Validation -->
<g id="node10" class="node">
<title>Validation</title>
<path fill="#e8f5e9" stroke="#2e7d32" d="M1974.43,-351C1974.43,-351 1917.22,-351 1917.22,-351 1911.22,-351 1905.22,-345 1905.22,-339 1905.22,-339 1905.22,-327 1905.22,-327 1905.22,-321 1911.22,-315 1917.22,-315 1917.22,-315 1974.43,-315 1974.43,-315 1980.43,-315 1986.43,-321 1986.43,-327 1986.43,-327 1986.43,-339 1986.43,-339 1986.43,-345 1980.43,-351 1974.43,-351"/>
<text xml:space="preserve" text-anchor="middle" x="1945.83" y="-335.5" font-family="Arial" font-size="10.00">validation&#45;query</text>
<text xml:space="preserve" text-anchor="middle" x="1945.83" y="-323.5" font-family="Arial" font-size="10.00">optionnelle</text>
</g>
<!-- Passed&#45;&gt;Validation -->
<g id="edge9" class="edge">
<title>Passed&#45;&gt;Validation</title>
<path fill="none" stroke="#455a64" d="M1789.22,-330.84C1822.66,-331.3 1863.77,-331.87 1895.34,-332.31"/>
<polygon fill="#455a64" stroke="#455a64" points="1895.26,-335.11 1903.3,-332.42 1895.34,-329.51 1895.26,-335.11"/>
<text xml:space="preserve" text-anchor="middle" x="1845.85" y="-333.89" font-family="Arial" font-size="9.00">oui / non actif</text>
</g>
<!-- Block -->
<g id="node13" class="node">
<title>Block</title>
<path fill="#ffebee" stroke="#c62828" d="M1977.81,-253C1977.81,-253 1913.85,-253 1913.85,-253 1907.85,-253 1901.85,-247 1901.85,-241 1901.85,-241 1901.85,-229 1901.85,-229 1901.85,-223 1907.85,-217 1913.85,-217 1913.85,-217 1977.81,-217 1977.81,-217 1983.81,-217 1989.81,-223 1989.81,-229 1989.81,-229 1989.81,-241 1989.81,-241 1989.81,-247 1983.81,-253 1977.81,-253"/>
<text xml:space="preserve" text-anchor="middle" x="1945.83" y="-237.5" font-family="Arial" font-size="10.00">pas de promotion</text>
<text xml:space="preserve" text-anchor="middle" x="1945.83" y="-225.5" font-family="Arial" font-size="10.00">exit 2</text>
</g>
<!-- Passed&#45;&gt;Block -->
<g id="edge12" class="edge">
<title>Passed&#45;&gt;Block</title>
<path fill="none" stroke="#455a64" d="M1762.84,-315.16C1798.05,-299.65 1853.7,-275.14 1894.2,-257.3"/>
<polygon fill="#455a64" stroke="#455a64" points="1895.28,-259.88 1901.47,-254.1 1893.02,-254.76 1895.28,-259.88"/>
<text xml:space="preserve" text-anchor="middle" x="1845.85" y="-290.14" font-family="Arial" font-size="9.00">non</text>
</g>
<!-- Promote -->
<g id="node11" class="node">
<title>Promote</title>
<path fill="#e8f5e9" stroke="#2e7d32" d="M2204.02,-351C2204.02,-351 2107.81,-351 2107.81,-351 2101.81,-351 2095.81,-345 2095.81,-339 2095.81,-339 2095.81,-327 2095.81,-327 2095.81,-321 2101.81,-315 2107.81,-315 2107.81,-315 2204.02,-315 2204.02,-315 2210.02,-315 2216.02,-321 2216.02,-327 2216.02,-327 2216.02,-339 2216.02,-339 2216.02,-345 2210.02,-351 2204.02,-351"/>
<text xml:space="preserve" text-anchor="middle" x="2155.91" y="-335.5" font-family="Arial" font-size="10.00">replace(staging &#45;&gt; index)</text>
<text xml:space="preserve" text-anchor="middle" x="2155.91" y="-323.5" font-family="Arial" font-size="10.00">promotion finale</text>
</g>
<!-- Validation&#45;&gt;Promote -->
<g id="edge10" class="edge">
<title>Validation&#45;&gt;Promote</title>
<path fill="none" stroke="#455a64" d="M1986.46,-333C2014.59,-333 2053.08,-333 2086.17,-333"/>
<polygon fill="#455a64" stroke="#455a64" points="2085.83,-335.8 2093.83,-333 2085.83,-330.2 2085.83,-335.8"/>
</g>
<!-- Final -->
<g id="node12" class="node">
<title>Final</title>
<path fill="#e8f5e9" stroke="#2e7d32" d="M2326.23,-351C2326.23,-351 2287.02,-351 2287.02,-351 2281.02,-351 2275.02,-345 2275.02,-339 2275.02,-339 2275.02,-327 2275.02,-327 2275.02,-321 2281.02,-315 2287.02,-315 2287.02,-315 2326.23,-315 2326.23,-315 2332.23,-315 2338.23,-321 2338.23,-327 2338.23,-327 2338.23,-339 2338.23,-339 2338.23,-345 2332.23,-351 2326.23,-351"/>
<text xml:space="preserve" text-anchor="middle" x="2306.62" y="-335.5" font-family="Arial" font-size="10.00">corpus.json</text>
<text xml:space="preserve" text-anchor="middle" x="2306.62" y="-323.5" font-family="Arial" font-size="10.00">index final</text>
</g>
<!-- Promote&#45;&gt;Final -->
<g id="edge11" class="edge">
<title>Promote&#45;&gt;Final</title>
<path fill="none" stroke="#455a64" d="M2216.12,-333C2232.75,-333 2250.44,-333 2265.67,-333"/>
<polygon fill="#455a64" stroke="#455a64" points="2265.28,-335.8 2273.28,-333 2265.28,-330.2 2265.28,-335.8"/>
</g>
<!-- Cleanup -->
<g id="node14" class="node">
<title>Cleanup</title>
<path fill="#ffebee" stroke="#c62828" d="M2184.52,-181C2184.52,-181 2127.31,-181 2127.31,-181 2121.31,-181 2115.31,-175 2115.31,-169 2115.31,-169 2115.31,-157 2115.31,-157 2115.31,-151 2121.31,-145 2127.31,-145 2127.31,-145 2184.52,-145 2184.52,-145 2190.52,-145 2196.52,-151 2196.52,-157 2196.52,-157 2196.52,-169 2196.52,-169 2196.52,-175 2190.52,-181 2184.52,-181"/>
<text xml:space="preserve" text-anchor="middle" x="2155.91" y="-165.5" font-family="Arial" font-size="10.00">cleanup staging</text>
<text xml:space="preserve" text-anchor="middle" x="2155.91" y="-153.5" font-family="Arial" font-size="10.00">par défaut</text>
</g>
<!-- Block&#45;&gt;Cleanup -->
<g id="edge13" class="edge">
<title>Block&#45;&gt;Cleanup</title>
<path fill="none" stroke="#455a64" d="M1990.2,-219.99C2024.13,-208.25 2071.29,-191.94 2106.46,-179.77"/>
<polygon fill="#455a64" stroke="#455a64" points="2107.05,-182.53 2113.69,-177.26 2105.22,-177.23 2107.05,-182.53"/>
<text xml:space="preserve" text-anchor="middle" x="2042.81" y="-211.61" font-family="Arial" font-size="9.00">défaut</text>
</g>
<!-- Keep -->
<g id="node15" class="node">
<title>Keep</title>
<path fill="#ffebee" stroke="#c62828" d="M2191.64,-253C2191.64,-253 2120.18,-253 2120.18,-253 2114.18,-253 2108.18,-247 2108.18,-241 2108.18,-241 2108.18,-229 2108.18,-229 2108.18,-223 2114.18,-217 2120.18,-217 2120.18,-217 2191.64,-217 2191.64,-217 2197.64,-217 2203.64,-223 2203.64,-229 2203.64,-229 2203.64,-241 2203.64,-241 2203.64,-247 2197.64,-253 2191.64,-253"/>
<text xml:space="preserve" text-anchor="middle" x="2155.91" y="-237.5" font-family="Arial" font-size="10.00">&#45;&#45;keep&#45;staging</text>
<text xml:space="preserve" text-anchor="middle" x="2155.91" y="-225.5" font-family="Arial" font-size="10.00">conserver candidat</text>
</g>
<!-- Block&#45;&gt;Keep -->
<g id="edge14" class="edge">
<title>Block&#45;&gt;Keep</title>
<path fill="none" stroke="#455a64" d="M1990.2,-235C2021.66,-235 2064.51,-235 2098.61,-235"/>
<polygon fill="#455a64" stroke="#455a64" points="2098.47,-237.8 2106.47,-235 2098.47,-232.2 2098.47,-237.8"/>
<text xml:space="preserve" text-anchor="middle" x="2042.81" y="-236.95" font-family="Arial" font-size="9.00">si demandé</text>
</g>
<!-- SafeRebuild -->
<g id="node20" class="node">
<title>SafeRebuild</title>
<g id="a_node20"><a xlink:href="56_e5_safe_rebuild.svg" xlink:title="Phase 3.18\nsafe rebuild">
<path fill="#fff3e0" stroke="#ef6c00" d="M110.59,-497C110.59,-497 71.38,-497 71.38,-497 65.38,-497 59.38,-491 59.38,-485 59.38,-485 59.38,-473 59.38,-473 59.38,-467 65.38,-461 71.38,-461 71.38,-461 110.59,-461 110.59,-461 116.59,-461 122.59,-467 122.59,-473 122.59,-473 122.59,-485 122.59,-485 122.59,-491 116.59,-497 110.59,-497"/>
<text xml:space="preserve" text-anchor="middle" x="90.98" y="-481.5" font-family="Arial" font-size="10.00">Phase 3.18</text>
<text xml:space="preserve" text-anchor="middle" x="90.98" y="-469.5" font-family="Arial" font-size="10.00">safe rebuild</text>
</a>
</g>
</g>
<!-- SafeRebuild&#45;&gt;RebuildCli -->
<g id="edge19" class="edge">
<title>SafeRebuild&#45;&gt;RebuildCli</title>
<path fill="none" stroke="#455a64" d="M122.87,-480C173.06,-482.25 275.1,-489.36 358.42,-511.5 380.6,-517.39 404.18,-526.83 423.85,-535.67"/>
<polygon fill="#455a64" stroke="#455a64" points="422.49,-538.12 430.92,-538.91 424.82,-533.03 422.49,-538.12"/>
<text xml:space="preserve" text-anchor="middle" x="305.06" y="-513.45" font-family="Arial" font-size="9.00">étend</text>
</g>
<!-- Diagnostics -->
<g id="node21" class="node">
<title>Diagnostics</title>
<g id="a_node21"><a xlink:href="60_e5_corpus_diagnostics.svg" xlink:title="Phase 4.6\ncorpus diagnostics">
<path fill="#fff3e0" stroke="#ef6c00" d="M126.34,-425C126.34,-425 55.63,-425 55.63,-425 49.63,-425 43.63,-419 43.63,-413 43.63,-413 43.63,-401 43.63,-401 43.63,-395 49.63,-389 55.63,-389 55.63,-389 126.34,-389 126.34,-389 132.34,-389 138.34,-395 138.34,-401 138.34,-401 138.34,-413 138.34,-413 138.34,-419 132.34,-425 126.34,-425"/>
<text xml:space="preserve" text-anchor="middle" x="90.98" y="-409.5" font-family="Arial" font-size="10.00">Phase 4.6</text>
<text xml:space="preserve" text-anchor="middle" x="90.98" y="-397.5" font-family="Arial" font-size="10.00">corpus diagnostics</text>
</a>
</g>
</g>
<!-- Diagnostics&#45;&gt;Inspect -->
<g id="edge21" class="edge">
<title>Diagnostics&#45;&gt;Inspect</title>
<path fill="none" stroke="#455a64" d="M138.73,-405.27C181.69,-403.82 247.16,-402 304.06,-402 304.06,-402 304.06,-402 897.44,-402 932.89,-402 972.11,-402 1005.48,-402"/>
<polygon fill="#455a64" stroke="#455a64" points="1005.22,-404.8 1013.22,-402 1005.22,-399.2 1005.22,-404.8"/>
<text xml:space="preserve" text-anchor="middle" x="581.63" y="-403.95" font-family="Arial" font-size="9.00">réutilise</text>
</g>
<!-- DiagnosticGate -->
<g id="node22" class="node">
<title>DiagnosticGate</title>
<g id="a_node22"><a xlink:href="61_e5_corpus_diagnostic_gate.svg" xlink:title="Phase 4.7\ndiagnostic gate">
<path fill="#fff3e0" stroke="#ef6c00" d="M118.46,-353C118.46,-353 63.5,-353 63.5,-353 57.5,-353 51.5,-347 51.5,-341 51.5,-341 51.5,-329 51.5,-329 51.5,-323 57.5,-317 63.5,-317 63.5,-317 118.46,-317 118.46,-317 124.46,-317 130.46,-323 130.46,-329 130.46,-329 130.46,-341 130.46,-341 130.46,-347 124.46,-353 118.46,-353"/>
<text xml:space="preserve" text-anchor="middle" x="90.98" y="-337.5" font-family="Arial" font-size="10.00">Phase 4.7</text>
<text xml:space="preserve" text-anchor="middle" x="90.98" y="-325.5" font-family="Arial" font-size="10.00">diagnostic gate</text>
</a>
</g>
</g>
<!-- DiagnosticGate&#45;&gt;Config -->
<g id="edge22" class="edge">
<title>DiagnosticGate&#45;&gt;Config</title>
<path fill="none" stroke="#455a64" d="M130.67,-332.96C173.17,-330.89 243.46,-328 304.06,-328 304.06,-328 304.06,-328 897.44,-328 935.89,-328 978.76,-328.42 1013.81,-328.88"/>
<polygon fill="#455a64" stroke="#455a64" points="1013.46,-331.68 1021.5,-328.99 1013.54,-326.08 1013.46,-331.68"/>
<text xml:space="preserve" text-anchor="middle" x="581.63" y="-329.95" font-family="Arial" font-size="9.00">mêmes seuils</text>
</g>
<!-- HygieneCli -->
<g id="node23" class="node">
<title>HygieneCli</title>
<g id="a_node23"><a xlink:href="59_e5_source_hygiene_cli.svg" xlink:title="Phase 4.5\nsource hygiene CLI">
<path fill="#fff3e0" stroke="#ef6c00" d="M127.84,-569C127.84,-569 54.13,-569 54.13,-569 48.13,-569 42.13,-563 42.13,-557 42.13,-557 42.13,-545 42.13,-545 42.13,-539 48.13,-533 54.13,-533 54.13,-533 127.84,-533 127.84,-533 133.84,-533 139.84,-539 139.84,-545 139.84,-545 139.84,-557 139.84,-557 139.84,-563 133.84,-569 127.84,-569"/>
<text xml:space="preserve" text-anchor="middle" x="90.98" y="-553.5" font-family="Arial" font-size="10.00">Phase 4.5</text>
<text xml:space="preserve" text-anchor="middle" x="90.98" y="-541.5" font-family="Arial" font-size="10.00">source hygiene CLI</text>
</a>
</g>
</g>
<!-- HygieneCli&#45;&gt;Inputs -->
<g id="edge20" class="edge">
<title>HygieneCli&#45;&gt;Inputs</title>
<path fill="none" stroke="#455a64" d="M140.11,-552.59C170.25,-553.58 209.4,-554.88 241.89,-555.95"/>
<polygon fill="#455a64" stroke="#455a64" points="241.7,-558.74 249.78,-556.21 241.88,-553.15 241.7,-558.74"/>
<text xml:space="preserve" text-anchor="middle" x="208.84" y="-557.08" font-family="Arial" font-size="9.00">nettoie</text>
</g>
<!-- Legend -->
<g id="node25" class="node">
<title>Legend</title>
<path fill="#ffffff" stroke="none" d="M153.96,-731.32C153.96,-731.32 28,-731.32 28,-731.32 22,-731.32 16,-725.32 16,-719.32 16,-719.32 16,-624.68 16,-624.68 16,-618.68 22,-612.68 28,-612.68 28,-612.68 153.96,-612.68 153.96,-612.68 159.96,-612.68 165.96,-618.68 165.96,-624.68 165.96,-624.68 165.96,-719.32 165.96,-719.32 165.96,-725.32 159.96,-731.32 153.96,-731.32"/>
<polygon fill="#e3f2fd" stroke="none" points="22.48,-705 22.48,-727 63.98,-727 63.98,-705 22.48,-705"/>
<polygon fill="none" stroke="#ffffff" points="22.48,-705 22.48,-727 63.98,-727 63.98,-705 22.48,-705"/>
<text xml:space="preserve" text-anchor="start" x="33.48" y="-712.25" font-family="Arial" font-size="10.00">Bleu</text>
<polygon fill="none" stroke="#ffffff" points="63.98,-705 63.98,-727 159.48,-727 159.48,-705 63.98,-705"/>
<text xml:space="preserve" text-anchor="start" x="78.73" y="-712.25" font-family="Arial" font-size="10.00">rebuild existant</text>
<polygon fill="#f3e5f5" stroke="none" points="22.48,-683 22.48,-705 63.98,-705 63.98,-683 22.48,-683"/>
<polygon fill="none" stroke="#ffffff" points="22.48,-683 22.48,-705 63.98,-705 63.98,-683 22.48,-683"/>
<text xml:space="preserve" text-anchor="start" x="30.86" y="-690.25" font-family="Arial" font-size="10.00">Violet</text>
<polygon fill="none" stroke="#ffffff" points="63.98,-683 63.98,-705 159.48,-705 159.48,-683 63.98,-683"/>
<text xml:space="preserve" text-anchor="start" x="78.73" y="-690.25" font-family="Arial" font-size="10.00">diagnostic gate</text>
<polygon fill="#e8f5e9" stroke="none" points="22.48,-661 22.48,-683 63.98,-683 63.98,-661 22.48,-661"/>
<polygon fill="none" stroke="#ffffff" points="22.48,-661 22.48,-683 63.98,-683 63.98,-661 22.48,-661"/>
<text xml:space="preserve" text-anchor="start" x="34.61" y="-668.25" font-family="Arial" font-size="10.00">Vert</text>
<polygon fill="none" stroke="#ffffff" points="63.98,-661 63.98,-683 159.48,-683 159.48,-661 63.98,-661"/>
<text xml:space="preserve" text-anchor="start" x="68.98" y="-668.25" font-family="Arial" font-size="10.00">promotion autorisée</text>
<polygon fill="#ffebee" stroke="none" points="22.48,-639 22.48,-661 63.98,-661 63.98,-639 22.48,-639"/>
<polygon fill="none" stroke="#ffffff" points="22.48,-639 22.48,-661 63.98,-661 63.98,-639 22.48,-639"/>
<text xml:space="preserve" text-anchor="start" x="28.98" y="-646.25" font-family="Arial" font-size="10.00">Rouge</text>
<polygon fill="none" stroke="#ffffff" points="63.98,-639 63.98,-661 159.48,-661 159.48,-639 63.98,-639"/>
<text xml:space="preserve" text-anchor="start" x="71.98" y="-646.25" font-family="Arial" font-size="10.00">promotion bloquée</text>
<polygon fill="#fff3e0" stroke="none" points="22.48,-617 22.48,-639 63.98,-639 63.98,-617 22.48,-617"/>
<polygon fill="none" stroke="#ffffff" points="22.48,-617 22.48,-639 63.98,-639 63.98,-617 22.48,-617"/>
<text xml:space="preserve" text-anchor="start" x="27.48" y="-624.25" font-family="Arial" font-size="10.00">Orange</text>
<polygon fill="none" stroke="#ffffff" points="63.98,-617 63.98,-639 159.48,-639 159.48,-617 63.98,-617"/>
<text xml:space="preserve" text-anchor="start" x="69.36" y="-624.25" font-family="Arial" font-size="10.00">navigation roadmap</text>
</g>
</g>
</svg>
