<?xml version="1.0" encoding="UTF-8" standalone="no"?>
<!DOCTYPE svg PUBLIC "-//W3C//DTD SVG 1.1//EN"
 "http://www.w3.org/Graphics/SVG/1.1/DTD/svg11.dtd">
<!-- Generated by graphviz version 14.1.3 (20260303.0454)
 -->
<!-- Title: E5SearchValidationSet Pages: 1 -->
<svg width="2302pt" height="694pt"
 viewBox="0.00 0.00 2302.00 694.00" xmlns="http://www.w3.org/2000/svg" xmlns:xlink="http://www.w3.org/1999/xlink">
<g id="graph0" class="graph" transform="scale(1 1) rotate(0) translate(18 676)">
<title>E5SearchValidationSet</title>
<polygon fill="white" stroke="none" points="-18,18 -18,-676 2283.81,-676 2283.81,18 -18,18"/>
<text xml:space="preserve" text-anchor="middle" x="1132.9" y="-644.5" font-family="Arial" font-size="10.00">Phase 4.9 — E5 search validation set</text>
<g id="clust1" class="cluster">
<title>cluster_candidate</title>
<polygon fill="#e3f2fd" stroke="#1565c0" stroke-width="1.5" points="245.96,-185 245.96,-257 826.34,-257 826.34,-185 245.96,-185"/>
<text xml:space="preserve" text-anchor="middle" x="536.15" y="-243.5" font-family="Arial" font-size="10.00">Corpus candidat</text>
</g>
<g id="clust2" class="cluster">
<title>cluster_validation</title>
<polygon fill="#f3e5f5" stroke="#6a1b9a" stroke-width="1.7" points="715.63,-265 715.63,-481 1298.51,-481 1298.51,-265 715.63,-265"/>
<text xml:space="preserve" text-anchor="middle" x="1007.07" y="-467.5" font-family="Arial" font-size="10.00">Jeu de validation recherche</text>
</g>
<g id="clust3" class="cluster">
<title>cluster_result</title>
<polygon fill="#e8f5e9" stroke="#2e7d32" stroke-width="1.5" points="1341.51,-160 1341.51,-262 2239.81,-262 2239.81,-160 1341.51,-160"/>
<text xml:space="preserve" text-anchor="middle" x="1790.66" y="-248.5" font-family="Arial" font-size="10.00">Décision avant promotion</text>
</g>
<g id="clust4" class="cluster">
<title>cluster_failure</title>
<polygon fill="#ffebee" stroke="#c62828" stroke-width="1.5" points="1932.51,-8 1932.51,-152 2257.81,-152 2257.81,-8 1932.51,-8"/>
<text xml:space="preserve" text-anchor="middle" x="2095.16" y="-138.5" font-family="Arial" font-size="10.00">Échec contrôlé</text>
</g>
<g id="clust5" class="cluster">
<title>cluster_scope</title>
<polygon fill="#fafafa" stroke="#78909c" points="1682.58,-270 1682.58,-630 1809.79,-630 1809.79,-270 1682.58,-270"/>
<text xml:space="preserve" text-anchor="middle" x="1746.18" y="-616.5" font-family="Arial" font-size="10.00">Limites d&#39;architecture</text>
</g>
<g id="clust6" class="cluster">
<title>cluster_navigation</title>
<polygon fill="#fff3e0" stroke="#ef6c00" stroke-width="1.4" points="40.73,-114 40.73,-402 143.73,-402 143.73,-114 40.73,-114"/>
<text xml:space="preserve" text-anchor="middle" x="92.23" y="-388.5" font-family="Arial" font-size="10.00">Navigation roadmap</text>
</g>
<g id="clust7" class="cluster">
<title>cluster_legend</title>
<polygon fill="#ffffff" stroke="#cfd8dc" points="8,-443 8,-597 175.46,-597 175.46,-443 8,-443"/>
<text xml:space="preserve" text-anchor="middle" x="91.73" y="-583.5" font-family="Arial" font-size="10.00">Légende</text>
</g>
<!-- Rebuild -->
<g id="node1" class="node">
<title>Rebuild</title>
<g id="a_node1"><a xlink:href="56_e5_safe_rebuild.svg" xlink:title="rebuild_e5_corpus.py\nstaging + lock">
<path fill="#e3f2fd" stroke="#1565c0" d="M347.17,-229C347.17,-229 265.96,-229 265.96,-229 259.96,-229 253.96,-223 253.96,-217 253.96,-217 253.96,-205 253.96,-205 253.96,-199 259.96,-193 265.96,-193 265.96,-193 347.17,-193 347.17,-193 353.17,-193 359.17,-199 359.17,-205 359.17,-205 359.17,-217 359.17,-217 359.17,-223 353.17,-229 347.17,-229"/>
<text xml:space="preserve" text-anchor="middle" x="306.56" y="-213.5" font-family="Arial" font-size="10.00">rebuild_e5_corpus.py</text>
<text xml:space="preserve" text-anchor="middle" x="306.56" y="-201.5" font-family="Arial" font-size="10.00">staging + lock</text>
</a>
</g>
</g>
<!-- Staging -->
<g id="node2" class="node">
<title>Staging</title>
<path fill="#e3f2fd" stroke="#1565c0" d="M589.88,-229C589.88,-229 495.17,-229 495.17,-229 489.17,-229 483.17,-223 483.17,-217 483.17,-217 483.17,-205 483.17,-205 483.17,-199 489.17,-193 495.17,-193 495.17,-193 589.88,-193 589.88,-193 595.88,-193 601.88,-199 601.88,-205 601.88,-205 601.88,-217 601.88,-217 601.88,-223 595.88,-229 589.88,-229"/>
<text xml:space="preserve" text-anchor="middle" x="542.52" y="-213.5" font-family="Arial" font-size="10.00">.corpus.json.rebuild.json</text>
<text xml:space="preserve" text-anchor="middle" x="542.52" y="-201.5" font-family="Arial" font-size="10.00">candidat relu</text>
</g>
<!-- Rebuild&#45;&gt;Staging -->
<g id="edge1" class="edge">
<title>Rebuild&#45;&gt;Staging</title>
<path fill="none" stroke="#455a64" d="M359.49,-211C393.12,-211 437.27,-211 473.67,-211"/>
<polygon fill="#455a64" stroke="#455a64" points="473.23,-213.8 481.23,-211 473.23,-208.2 473.23,-213.8"/>
</g>
<!-- DiagnosticGate -->
<g id="node3" class="node">
<title>DiagnosticGate</title>
<g id="a_node3"><a xlink:href="62_e5_rebuild_diagnostic_gate.svg" xlink:title="diagnostic gate\nPhase 4.8">
<path fill="#e3f2fd" stroke="#1565c0" d="M806.34,-229C806.34,-229 751.38,-229 751.38,-229 745.38,-229 739.38,-223 739.38,-217 739.38,-217 739.38,-205 739.38,-205 739.38,-199 745.38,-193 751.38,-193 751.38,-193 806.34,-193 806.34,-193 812.34,-193 818.34,-199 818.34,-205 818.34,-205 818.34,-217 818.34,-217 818.34,-223 812.34,-229 806.34,-229"/>
<text xml:space="preserve" text-anchor="middle" x="778.86" y="-213.5" font-family="Arial" font-size="10.00">diagnostic gate</text>
<text xml:space="preserve" text-anchor="middle" x="778.86" y="-201.5" font-family="Arial" font-size="10.00">Phase 4.8</text>
</a>
</g>
</g>
<!-- Staging&#45;&gt;DiagnosticGate -->
<g id="edge2" class="edge">
<title>Staging&#45;&gt;DiagnosticGate</title>
<path fill="none" stroke="#455a64" d="M602.36,-211C641.85,-211 693.22,-211 730.16,-211"/>
<polygon fill="#455a64" stroke="#455a64" points="729.71,-213.8 737.71,-211 729.71,-208.2 729.71,-213.8"/>
</g>
<!-- Validator -->
<g id="node7" class="node">
<title>Validator</title>
<path fill="#f3e5f5" stroke="#6a1b9a" d="M1085.8,-382C1085.8,-382 970.09,-382 970.09,-382 964.09,-382 958.09,-376 958.09,-370 958.09,-370 958.09,-358 958.09,-358 958.09,-352 964.09,-346 970.09,-346 970.09,-346 1085.8,-346 1085.8,-346 1091.8,-346 1097.8,-352 1097.8,-358 1097.8,-358 1097.8,-370 1097.8,-370 1097.8,-376 1091.8,-382 1085.8,-382"/>
<text xml:space="preserve" text-anchor="middle" x="1027.94" y="-366.5" font-family="Arial" font-size="10.00">validate_e5_search_queries()</text>
<text xml:space="preserve" text-anchor="middle" x="1027.94" y="-354.5" font-family="Arial" font-size="10.00">fonction locale</text>
</g>
<!-- DiagnosticGate&#45;&gt;Validator -->
<g id="edge3" class="edge">
<title>DiagnosticGate&#45;&gt;Validator</title>
<path fill="none" stroke="#455a64" d="M813.16,-229.4C843.67,-246.47 889.92,-272.88 929.09,-297.5 950.85,-311.18 974.72,-327.37 993.43,-340.35"/>
<polygon fill="#455a64" stroke="#455a64" points="991.71,-342.56 999.87,-344.84 994.91,-337.97 991.71,-342.56"/>
<text xml:space="preserve" text-anchor="middle" x="896.09" y="-299.45" font-family="Arial" font-size="9.00">si diagnostic OK</text>
</g>
<!-- QueryCli -->
<g id="node4" class="node">
<title>QueryCli</title>
<path fill="#f3e5f5" stroke="#6a1b9a" d="M810.46,-309C810.46,-309 747.25,-309 747.25,-309 741.25,-309 735.25,-303 735.25,-297 735.25,-297 735.25,-285 735.25,-285 735.25,-279 741.25,-273 747.25,-273 747.25,-273 810.46,-273 810.46,-273 816.46,-273 822.46,-279 822.46,-285 822.46,-285 822.46,-297 822.46,-297 822.46,-303 816.46,-309 810.46,-309"/>
<text xml:space="preserve" text-anchor="middle" x="778.86" y="-293.5" font-family="Arial" font-size="10.00">&#45;&#45;validation&#45;query</text>
<text xml:space="preserve" text-anchor="middle" x="778.86" y="-281.5" font-family="Arial" font-size="10.00">répétable</text>
</g>
<!-- QueryCli&#45;&gt;Validator -->
<g id="edge4" class="edge">
<title>QueryCli&#45;&gt;Validator</title>
<path fill="none" stroke="#455a64" d="M822.9,-303.72C859.43,-314.51 912.59,-330.22 955.5,-342.89"/>
<polygon fill="#455a64" stroke="#455a64" points="954.57,-345.54 963.03,-345.12 956.15,-340.17 954.57,-345.54"/>
</g>
<!-- QueryFile -->
<g id="node5" class="node">
<title>QueryFile</title>
<path fill="#f3e5f5" stroke="#6a1b9a" d="M822.09,-381C822.09,-381 735.63,-381 735.63,-381 729.63,-381 723.63,-375 723.63,-369 723.63,-369 723.63,-357 723.63,-357 723.63,-351 729.63,-345 735.63,-345 735.63,-345 822.09,-345 822.09,-345 828.09,-345 834.09,-351 834.09,-357 834.09,-357 834.09,-369 834.09,-369 834.09,-375 828.09,-381 822.09,-381"/>
<text xml:space="preserve" text-anchor="middle" x="778.86" y="-365.5" font-family="Arial" font-size="10.00">&#45;&#45;validation&#45;queries&#45;file</text>
<text xml:space="preserve" text-anchor="middle" x="778.86" y="-353.5" font-family="Arial" font-size="10.00">une requête par ligne</text>
</g>
<!-- QueryFile&#45;&gt;Validator -->
<g id="edge5" class="edge">
<title>QueryFile&#45;&gt;Validator</title>
<path fill="none" stroke="#455a64" d="M834.39,-363.22C867.93,-363.36 911.46,-363.53 948.65,-363.68"/>
<polygon fill="#455a64" stroke="#455a64" points="948.43,-366.48 956.44,-363.71 948.45,-360.88 948.43,-366.48"/>
</g>
<!-- MinScore -->
<g id="node6" class="node">
<title>MinScore</title>
<path fill="#f3e5f5" stroke="#6a1b9a" d="M819.84,-453C819.84,-453 737.88,-453 737.88,-453 731.88,-453 725.88,-447 725.88,-441 725.88,-441 725.88,-429 725.88,-429 725.88,-423 731.88,-417 737.88,-417 737.88,-417 819.84,-417 819.84,-417 825.84,-417 831.84,-423 831.84,-429 831.84,-429 831.84,-441 831.84,-441 831.84,-447 825.84,-453 819.84,-453"/>
<text xml:space="preserve" text-anchor="middle" x="778.86" y="-437.5" font-family="Arial" font-size="10.00">&#45;&#45;validation&#45;min&#45;score</text>
<text xml:space="preserve" text-anchor="middle" x="778.86" y="-425.5" font-family="Arial" font-size="10.00">seuil inclusif</text>
</g>
<!-- MinScore&#45;&gt;Validator -->
<g id="edge6" class="edge">
<title>MinScore&#45;&gt;Validator</title>
<path fill="none" stroke="#455a64" d="M832.26,-419.94C867.69,-409.76 914.95,-396.18 954.04,-384.95"/>
<polygon fill="#455a64" stroke="#455a64" points="954.39,-387.76 961.31,-382.86 952.85,-382.38 954.39,-387.76"/>
</g>
<!-- Searcher -->
<g id="node8" class="node">
<title>Searcher</title>
<g id="a_node8"><a xlink:href="57_e5_score_guard.svg" xlink:title="E5CorpusSearcher.search()\nlimit + min_score">
<path fill="#f3e5f5" stroke="#6a1b9a" d="M1278.51,-309C1278.51,-309 1168.8,-309 1168.8,-309 1162.8,-309 1156.8,-303 1156.8,-297 1156.8,-297 1156.8,-285 1156.8,-285 1156.8,-279 1162.8,-273 1168.8,-273 1168.8,-273 1278.51,-273 1278.51,-273 1284.51,-273 1290.51,-279 1290.51,-285 1290.51,-285 1290.51,-297 1290.51,-297 1290.51,-303 1284.51,-309 1278.51,-309"/>
<text xml:space="preserve" text-anchor="middle" x="1223.65" y="-293.5" font-family="Arial" font-size="10.00">E5CorpusSearcher.search()</text>
<text xml:space="preserve" text-anchor="middle" x="1223.65" y="-281.5" font-family="Arial" font-size="10.00">limit + min_score</text>
</a>
</g>
</g>
<!-- Validator&#45;&gt;Searcher -->
<g id="edge7" class="edge">
<title>Validator&#45;&gt;Searcher</title>
<path fill="none" stroke="#455a64" d="M1077.83,-345.58C1104.32,-335.59 1137.23,-323.19 1164.98,-312.74"/>
<polygon fill="#455a64" stroke="#455a64" points="1165.87,-315.39 1172.37,-309.95 1163.9,-310.15 1165.87,-315.39"/>
</g>
<!-- NoScheduler -->
<g id="node16" class="node">
<title>NoScheduler</title>
<polygon fill="#fafafa" stroke="#78909c" points="1784.54,-458 1701.83,-458 1701.83,-422 1790.54,-422 1790.54,-452 1784.54,-458"/>
<polyline fill="none" stroke="#78909c" points="1784.54,-458 1784.54,-452"/>
<polyline fill="none" stroke="#78909c" points="1790.54,-452 1784.54,-452"/>
<text xml:space="preserve" text-anchor="middle" x="1746.18" y="-436.5" font-family="Arial" font-size="10.00">pas de Scheduler</text>
</g>
<!-- Validator&#45;&gt;NoScheduler -->
<g id="edge15" class="edge">
<title>Validator&#45;&gt;NoScheduler</title>
<path fill="none" stroke="#455a64" stroke-dasharray="1,5" d="M1083.82,-382.49C1097.71,-386.55 1112.68,-390.4 1126.8,-393 1333.66,-431.07 1584.91,-438.4 1692.34,-439.75"/>
<polygon fill="#455a64" stroke="#455a64" points="1692.12,-442.54 1700.15,-439.83 1692.19,-436.94 1692.12,-442.54"/>
</g>
<!-- NoQdrant -->
<g id="node17" class="node">
<title>NoQdrant</title>
<polygon fill="#fafafa" stroke="#78909c" points="1777.41,-386 1708.95,-386 1708.95,-350 1783.41,-350 1783.41,-380 1777.41,-386"/>
<polyline fill="none" stroke="#78909c" points="1777.41,-386 1777.41,-380"/>
<polyline fill="none" stroke="#78909c" points="1783.41,-380 1777.41,-380"/>
<text xml:space="preserve" text-anchor="middle" x="1746.18" y="-364.5" font-family="Arial" font-size="10.00">pas de Qdrant</text>
</g>
<!-- Validator&#45;&gt;NoQdrant -->
<g id="edge16" class="edge">
<title>Validator&#45;&gt;NoQdrant</title>
<path fill="none" stroke="#455a64" stroke-dasharray="1,5" d="M1098.27,-364.39C1243.71,-365.2 1577.33,-367.06 1699.37,-367.74"/>
<polygon fill="#455a64" stroke="#455a64" points="1699.29,-370.54 1707.3,-367.79 1699.32,-364.94 1699.29,-370.54"/>
</g>
<!-- NoFormatChange -->
<g id="node18" class="node">
<title>NoFormatChange</title>
<polygon fill="#fafafa" stroke="#78909c" points="1783.41,-602 1702.95,-602 1702.95,-566 1789.41,-566 1789.41,-596 1783.41,-602"/>
<polyline fill="none" stroke="#78909c" points="1783.41,-602 1783.41,-596"/>
<polyline fill="none" stroke="#78909c" points="1789.41,-596 1783.41,-596"/>
<text xml:space="preserve" text-anchor="middle" x="1746.18" y="-586.5" font-family="Arial" font-size="10.00">format corpus v1</text>
<text xml:space="preserve" text-anchor="middle" x="1746.18" y="-574.5" font-family="Arial" font-size="10.00">inaltéré</text>
</g>
<!-- Validator&#45;&gt;NoFormatChange -->
<g id="edge17" class="edge">
<title>Validator&#45;&gt;NoFormatChange</title>
<path fill="none" stroke="#455a64" stroke-dasharray="1,5" d="M1043.27,-382.37C1064.87,-408.69 1108.44,-456.63 1156.8,-481 1338.39,-572.51 1586.99,-584.26 1693.41,-584.75"/>
<polygon fill="#455a64" stroke="#455a64" points="1693.14,-587.55 1701.14,-584.77 1693.15,-581.95 1693.14,-587.55"/>
</g>
<!-- NoSvg -->
<g id="node19" class="node">
<title>NoSvg</title>
<polygon fill="#fafafa" stroke="#78909c" points="1795.79,-530 1690.58,-530 1690.58,-494 1801.79,-494 1801.79,-524 1795.79,-530"/>
<polyline fill="none" stroke="#78909c" points="1795.79,-530 1795.79,-524"/>
<polyline fill="none" stroke="#78909c" points="1801.79,-524 1795.79,-524"/>
<text xml:space="preserve" text-anchor="middle" x="1746.18" y="-508.5" font-family="Arial" font-size="10.00">pas de SVG versionné</text>
</g>
<!-- Validator&#45;&gt;NoSvg -->
<g id="edge18" class="edge">
<title>Validator&#45;&gt;NoSvg</title>
<path fill="none" stroke="#455a64" stroke-dasharray="1,5" d="M1053.88,-382.41C1078.62,-399.58 1118.3,-424.26 1156.8,-436 1341.55,-492.35 1571.37,-506.93 1681.08,-510.69"/>
<polygon fill="#455a64" stroke="#455a64" points="1680.76,-513.48 1688.85,-510.94 1680.95,-507.89 1680.76,-513.48"/>
</g>
<!-- Results -->
<g id="node9" class="node">
<title>Results</title>
<path fill="#e8f5e9" stroke="#2e7d32" d="M1495.97,-234C1495.97,-234 1361.51,-234 1361.51,-234 1355.51,-234 1349.51,-228 1349.51,-222 1349.51,-222 1349.51,-210 1349.51,-210 1349.51,-204 1355.51,-198 1361.51,-198 1361.51,-198 1495.97,-198 1495.97,-198 1501.97,-198 1507.97,-204 1507.97,-210 1507.97,-210 1507.97,-222 1507.97,-222 1507.97,-228 1501.97,-234 1495.97,-234"/>
<text xml:space="preserve" text-anchor="middle" x="1428.74" y="-218.5" font-family="Arial" font-size="10.00">E5SearchValidationQueryResult[]</text>
<text xml:space="preserve" text-anchor="middle" x="1428.74" y="-206.5" font-family="Arial" font-size="10.00">hit_count + best_score + passed</text>
</g>
<!-- Searcher&#45;&gt;Results -->
<g id="edge8" class="edge">
<title>Searcher&#45;&gt;Results</title>
<path fill="none" stroke="#455a64" d="M1274.6,-272.56C1303.24,-261.98 1339.35,-248.64 1369.31,-237.58"/>
<polygon fill="#455a64" stroke="#455a64" points="1370.04,-240.29 1376.57,-234.9 1368.1,-235.04 1370.04,-240.29"/>
</g>
<!-- Passed -->
<g id="node10" class="node">
<title>Passed</title>
<path fill="#e8f5e9" stroke="#2e7d32" d="M1734.73,-230.06C1734.73,-230.06 1653.17,-204.58 1653.17,-204.58 1647.45,-202.79 1647.45,-199.21 1653.17,-197.42 1653.17,-197.42 1734.73,-171.94 1734.73,-171.94 1740.45,-170.15 1751.91,-170.15 1757.63,-171.94 1757.63,-171.94 1839.19,-197.42 1839.19,-197.42 1844.91,-199.21 1844.91,-202.79 1839.19,-204.58 1839.19,-204.58 1757.63,-230.06 1757.63,-230.06 1751.91,-231.85 1740.45,-231.85 1734.73,-230.06"/>
<text xml:space="preserve" text-anchor="middle" x="1746.18" y="-203.5" font-family="Arial" font-size="10.00">toutes les requêtes</text>
<text xml:space="preserve" text-anchor="middle" x="1746.18" y="-191.5" font-family="Arial" font-size="10.00">ont au moins un hit ?</text>
</g>
<!-- Results&#45;&gt;Passed -->
<g id="edge9" class="edge">
<title>Results&#45;&gt;Passed</title>
<path fill="none" stroke="#455a64" d="M1508.12,-212.27C1549.43,-210.31 1600.56,-207.88 1644.74,-205.78"/>
<polygon fill="#455a64" stroke="#455a64" points="1644.69,-208.58 1652.55,-205.4 1644.42,-202.99 1644.69,-208.58"/>
</g>
<!-- ReportFile -->
<g id="node20" class="node">
<title>ReportFile</title>
<g id="a_node20"><a xlink:href="64_e5_rebuild_report_file.svg" xlink:title="Phase 4.10\nrapport JSON">
<polygon fill="#fafafa" stroke="#78909c" points="1776.66,-314 1709.7,-314 1709.7,-278 1782.66,-278 1782.66,-308 1776.66,-314"/>
<polyline fill="none" stroke="#78909c" points="1776.66,-314 1776.66,-308"/>
<polyline fill="none" stroke="#78909c" points="1782.66,-308 1776.66,-308"/>
<text xml:space="preserve" text-anchor="middle" x="1746.18" y="-298.5" font-family="Arial" font-size="10.00">Phase 4.10</text>
<text xml:space="preserve" text-anchor="middle" x="1746.18" y="-286.5" font-family="Arial" font-size="10.00">rapport JSON</text>
</a>
</g>
</g>
<!-- Results&#45;&gt;ReportFile -->
<g id="edge23" class="edge">
<title>Results&#45;&gt;ReportFile</title>
<path fill="none" stroke="#455a64" stroke-dasharray="5,2" d="M1499.36,-234.38C1540.69,-245.21 1594.14,-259.08 1641.72,-271 1660.8,-275.78 1681.9,-280.91 1700.04,-285.27"/>
<polygon fill="#455a64" stroke="#455a64" points="1699.33,-287.97 1707.76,-287.12 1700.63,-282.53 1699.33,-287.97"/>
<text xml:space="preserve" text-anchor="middle" x="1574.85" y="-264.17" font-family="Arial" font-size="9.00">résumé archivable</text>
</g>
<!-- Promote -->
<g id="node11" class="node">
<title>Promote</title>
<path fill="#e8f5e9" stroke="#2e7d32" d="M2032.6,-222C2032.6,-222 1936.39,-222 1936.39,-222 1930.39,-222 1924.39,-216 1924.39,-210 1924.39,-210 1924.39,-198 1924.39,-198 1924.39,-192 1930.39,-186 1936.39,-186 1936.39,-186 2032.6,-186 2032.6,-186 2038.6,-186 2044.6,-192 2044.6,-198 2044.6,-198 2044.6,-210 2044.6,-210 2044.6,-216 2038.6,-222 2032.6,-222"/>
<text xml:space="preserve" text-anchor="middle" x="1984.49" y="-206.5" font-family="Arial" font-size="10.00">replace(staging &#45;&gt; index)</text>
<text xml:space="preserve" text-anchor="middle" x="1984.49" y="-194.5" font-family="Arial" font-size="10.00">promotion finale</text>
</g>
<!-- Passed&#45;&gt;Promote -->
<g id="edge10" class="edge">
<title>Passed&#45;&gt;Promote</title>
<path fill="none" stroke="#455a64" d="M1848.08,-202.28C1870.49,-202.57 1893.75,-202.86 1914.53,-203.12"/>
<polygon fill="#455a64" stroke="#455a64" points="1914.35,-205.92 1922.39,-203.22 1914.42,-200.32 1914.35,-205.92"/>
<text xml:space="preserve" text-anchor="middle" x="1887.51" y="-204.81" font-family="Arial" font-size="9.00">oui</text>
</g>
<!-- Block -->
<g id="node13" class="node">
<title>Block</title>
<path fill="#ffebee" stroke="#c62828" d="M2016.47,-124C2016.47,-124 1952.51,-124 1952.51,-124 1946.51,-124 1940.51,-118 1940.51,-112 1940.51,-112 1940.51,-100 1940.51,-100 1940.51,-94 1946.51,-88 1952.51,-88 1952.51,-88 2016.47,-88 2016.47,-88 2022.47,-88 2028.47,-94 2028.47,-100 2028.47,-100 2028.47,-112 2028.47,-112 2028.47,-118 2022.47,-124 2016.47,-124"/>
<text xml:space="preserve" text-anchor="middle" x="1984.49" y="-108.5" font-family="Arial" font-size="10.00">pas de promotion</text>
<text xml:space="preserve" text-anchor="middle" x="1984.49" y="-96.5" font-family="Arial" font-size="10.00">exit 2</text>
</g>
<!-- Passed&#45;&gt;Block -->
<g id="edge12" class="edge">
<title>Passed&#45;&gt;Block</title>
<path fill="none" stroke="#455a64" d="M1793.02,-182.57C1832.75,-166.6 1890.19,-143.51 1931.59,-126.87"/>
<polygon fill="#455a64" stroke="#455a64" points="1932.39,-129.56 1938.77,-123.98 1930.3,-124.37 1932.39,-129.56"/>
<text xml:space="preserve" text-anchor="middle" x="1887.51" y="-146.94" font-family="Arial" font-size="9.00">non</text>
</g>
<!-- Final -->
<g id="node12" class="node">
<title>Final</title>
<path fill="#e8f5e9" stroke="#2e7d32" d="M2219.81,-222C2219.81,-222 2180.6,-222 2180.6,-222 2174.6,-222 2168.6,-216 2168.6,-210 2168.6,-210 2168.6,-198 2168.6,-198 2168.6,-192 2174.6,-186 2180.6,-186 2180.6,-186 2219.81,-186 2219.81,-186 2225.81,-186 2231.81,-192 2231.81,-198 2231.81,-198 2231.81,-210 2231.81,-210 2231.81,-216 2225.81,-222 2219.81,-222"/>
<text xml:space="preserve" text-anchor="middle" x="2200.2" y="-206.5" font-family="Arial" font-size="10.00">corpus.json</text>
<text xml:space="preserve" text-anchor="middle" x="2200.2" y="-194.5" font-family="Arial" font-size="10.00">index final</text>
</g>
<!-- Promote&#45;&gt;Final -->
<g id="edge11" class="edge">
<title>Promote&#45;&gt;Final</title>
<path fill="none" stroke="#455a64" d="M2045.03,-204C2081.45,-204 2127.06,-204 2159.19,-204"/>
<polygon fill="#455a64" stroke="#455a64" points="2158.78,-206.8 2166.78,-204 2158.78,-201.2 2158.78,-206.8"/>
</g>
<!-- Cleanup -->
<g id="node14" class="node">
<title>Cleanup</title>
<path fill="#ffebee" stroke="#c62828" d="M2228.81,-52C2228.81,-52 2171.6,-52 2171.6,-52 2165.6,-52 2159.6,-46 2159.6,-40 2159.6,-40 2159.6,-28 2159.6,-28 2159.6,-22 2165.6,-16 2171.6,-16 2171.6,-16 2228.81,-16 2228.81,-16 2234.81,-16 2240.81,-22 2240.81,-28 2240.81,-28 2240.81,-40 2240.81,-40 2240.81,-46 2234.81,-52 2228.81,-52"/>
<text xml:space="preserve" text-anchor="middle" x="2200.2" y="-36.5" font-family="Arial" font-size="10.00">cleanup staging</text>
<text xml:space="preserve" text-anchor="middle" x="2200.2" y="-24.5" font-family="Arial" font-size="10.00">par défaut</text>
</g>
<!-- Block&#45;&gt;Cleanup -->
<g id="edge13" class="edge">
<title>Block&#45;&gt;Cleanup</title>
<path fill="none" stroke="#455a64" d="M2028.74,-91.43C2064.08,-79.52 2114.02,-62.7 2150.72,-50.34"/>
<polygon fill="#455a64" stroke="#455a64" points="2151.15,-53.15 2157.84,-47.94 2149.36,-47.84 2151.15,-53.15"/>
<text xml:space="preserve" text-anchor="middle" x="2097.6" y="-76.26" font-family="Arial" font-size="9.00">défaut</text>
</g>
<!-- Keep -->
<g id="node15" class="node">
<title>Keep</title>
<path fill="#ffebee" stroke="#c62828" d="M2237.81,-124C2237.81,-124 2162.6,-124 2162.6,-124 2156.6,-124 2150.6,-118 2150.6,-112 2150.6,-112 2150.6,-100 2150.6,-100 2150.6,-94 2156.6,-88 2162.6,-88 2162.6,-88 2237.81,-88 2237.81,-88 2243.81,-88 2249.81,-94 2249.81,-100 2249.81,-100 2249.81,-112 2249.81,-112 2249.81,-118 2243.81,-124 2237.81,-124"/>
<text xml:space="preserve" text-anchor="middle" x="2200.2" y="-108.5" font-family="Arial" font-size="10.00">&#45;&#45;keep&#45;staging</text>
<text xml:space="preserve" text-anchor="middle" x="2200.2" y="-96.5" font-family="Arial" font-size="10.00">inspection manuelle</text>
</g>
<!-- Block&#45;&gt;Keep -->
<g id="edge14" class="edge">
<title>Block&#45;&gt;Keep</title>
<path fill="none" stroke="#455a64" d="M2028.74,-106C2061.1,-106 2105.69,-106 2141.15,-106"/>
<polygon fill="#455a64" stroke="#455a64" points="2140.91,-108.8 2148.91,-106 2140.91,-103.2 2140.91,-108.8"/>
<text xml:space="preserve" text-anchor="middle" x="2097.6" y="-107.95" font-family="Arial" font-size="9.00">si demandé</text>
</g>
<!-- SearchReport -->
<g id="node21" class="node">
<title>SearchReport</title>
<g id="a_node21"><a xlink:href="52_e5_search_report.svg" xlink:title="Phase 3.14\nsearch report">
<path fill="#fff3e0" stroke="#ef6c00" d="M114.71,-158C114.71,-158 68.75,-158 68.75,-158 62.75,-158 56.75,-152 56.75,-146 56.75,-146 56.75,-134 56.75,-134 56.75,-128 62.75,-122 68.75,-122 68.75,-122 114.71,-122 114.71,-122 120.71,-122 126.71,-128 126.71,-134 126.71,-134 126.71,-146 126.71,-146 126.71,-152 120.71,-158 114.71,-158"/>
<text xml:space="preserve" text-anchor="middle" x="91.73" y="-142.5" font-family="Arial" font-size="10.00">Phase 3.14</text>
<text xml:space="preserve" text-anchor="middle" x="91.73" y="-130.5" font-family="Arial" font-size="10.00">search report</text>
</a>
</g>
</g>
<!-- SearchReport&#45;&gt;Searcher -->
<g id="edge19" class="edge">
<title>SearchReport&#45;&gt;Searcher</title>
<path fill="none" stroke="#455a64" d="M127.01,-139.48C169.07,-138.89 242.56,-138 305.56,-138 305.56,-138 305.56,-138 1028.94,-138 1109.83,-138 1176.75,-221.18 1206.32,-264.87"/>
<polygon fill="#455a64" stroke="#455a64" points="1203.82,-266.16 1210.57,-271.28 1208.48,-263.07 1203.82,-266.16"/>
<text xml:space="preserve" text-anchor="middle" x="662.75" y="-139.95" font-family="Arial" font-size="9.00">rapport exploité</text>
</g>
<!-- ScoreGuard -->
<g id="node22" class="node">
<title>ScoreGuard</title>
<g id="a_node22"><a xlink:href="57_e5_score_guard.svg" xlink:title="Phase 4.3\nscore guard">
<path fill="#fff3e0" stroke="#ef6c00" d="M111.71,-374C111.71,-374 71.75,-374 71.75,-374 65.75,-374 59.75,-368 59.75,-362 59.75,-362 59.75,-350 59.75,-350 59.75,-344 65.75,-338 71.75,-338 71.75,-338 111.71,-338 111.71,-338 117.71,-338 123.71,-344 123.71,-350 123.71,-350 123.71,-362 123.71,-362 123.71,-368 117.71,-374 111.71,-374"/>
<text xml:space="preserve" text-anchor="middle" x="91.73" y="-358.5" font-family="Arial" font-size="10.00">Phase 4.3</text>
<text xml:space="preserve" text-anchor="middle" x="91.73" y="-346.5" font-family="Arial" font-size="10.00">score guard</text>
</a>
</g>
</g>
<!-- ScoreGuard&#45;&gt;MinScore -->
<g id="edge20" class="edge">
<title>ScoreGuard&#45;&gt;MinScore</title>
<path fill="none" stroke="#455a64" d="M123.95,-359.6C229.51,-371.77 574.39,-411.54 716.16,-427.89"/>
<polygon fill="#455a64" stroke="#455a64" points="715.83,-430.67 724.1,-428.8 716.48,-425.1 715.83,-430.67"/>
<text xml:space="preserve" text-anchor="middle" x="421.17" y="-399.27" font-family="Arial" font-size="9.00">même logique</text>
</g>
<!-- InspectGate -->
<g id="node23" class="node">
<title>InspectGate</title>
<g id="a_node23"><a xlink:href="61_e5_corpus_diagnostic_gate.svg" xlink:title="Phase 4.7\ndiagnostic gate">
<path fill="#fff3e0" stroke="#ef6c00" d="M119.21,-302C119.21,-302 64.25,-302 64.25,-302 58.25,-302 52.25,-296 52.25,-290 52.25,-290 52.25,-278 52.25,-278 52.25,-272 58.25,-266 64.25,-266 64.25,-266 119.21,-266 119.21,-266 125.21,-266 131.21,-272 131.21,-278 131.21,-278 131.21,-290 131.21,-290 131.21,-296 125.21,-302 119.21,-302"/>
<text xml:space="preserve" text-anchor="middle" x="91.73" y="-286.5" font-family="Arial" font-size="10.00">Phase 4.7</text>
<text xml:space="preserve" text-anchor="middle" x="91.73" y="-274.5" font-family="Arial" font-size="10.00">diagnostic gate</text>
</a>
</g>
</g>
<!-- InspectGate&#45;&gt;DiagnosticGate -->
<g id="edge21" class="edge">
<title>InspectGate&#45;&gt;DiagnosticGate</title>
<path fill="none" stroke="#455a64" d="M131.55,-282.89C216.95,-280.07 427.39,-271.09 601.88,-247 645.55,-240.97 694.65,-230.62 729.87,-222.56"/>
<polygon fill="#455a64" stroke="#455a64" points="730.33,-225.33 737.49,-220.8 729.07,-219.88 730.33,-225.33"/>
<text xml:space="preserve" text-anchor="middle" x="421.17" y="-270.62" font-family="Arial" font-size="9.00">avant recherche</text>
</g>
<!-- RebuildGate -->
<g id="node24" class="node">
<title>RebuildGate</title>
<g id="a_node24"><a xlink:href="62_e5_rebuild_diagnostic_gate.svg" xlink:title="Phase 4.8\nrebuild gate">
<path fill="#fff3e0" stroke="#ef6c00" d="M111.34,-230C111.34,-230 72.12,-230 72.12,-230 66.13,-230 60.13,-224 60.13,-218 60.13,-218 60.13,-206 60.13,-206 60.13,-200 66.13,-194 72.13,-194 72.13,-194 111.34,-194 111.34,-194 117.34,-194 123.34,-200 123.34,-206 123.34,-206 123.34,-218 123.34,-218 123.34,-224 117.34,-230 111.34,-230"/>
<text xml:space="preserve" text-anchor="middle" x="91.73" y="-214.5" font-family="Arial" font-size="10.00">Phase 4.8</text>
<text xml:space="preserve" text-anchor="middle" x="91.73" y="-202.5" font-family="Arial" font-size="10.00">rebuild gate</text>
</a>
</g>
</g>
<!-- RebuildGate&#45;&gt;Rebuild -->
<g id="edge22" class="edge">
<title>RebuildGate&#45;&gt;Rebuild</title>
<path fill="none" stroke="#455a64" d="M123.68,-211.85C155.16,-211.71 204.81,-211.47 244.29,-211.29"/>
<polygon fill="#455a64" stroke="#455a64" points="244.07,-214.09 252.06,-211.25 244.04,-208.49 244.07,-214.09"/>
<text xml:space="preserve" text-anchor="middle" x="210.71" y="-213.45" font-family="Arial" font-size="9.00">intègre</text>
</g>
<!-- Legend -->
<g id="node25" class="node">
<title>Legend</title>
<path fill="#ffffff" stroke="none" d="M155.46,-569.32C155.46,-569.32 28,-569.32 28,-569.32 22,-569.32 16,-563.32 16,-557.32 16,-557.32 16,-462.68 16,-462.68 16,-456.68 22,-450.68 28,-450.68 28,-450.68 155.46,-450.68 155.46,-450.68 161.46,-450.68 167.46,-456.68 167.46,-462.68 167.46,-462.68 167.46,-557.32 167.46,-557.32 167.46,-563.32 161.46,-569.32 155.46,-569.32"/>
<polygon fill="#e3f2fd" stroke="none" points="22.48,-543 22.48,-565 63.98,-565 63.98,-543 22.48,-543"/>
<polygon fill="none" stroke="#ffffff" points="22.48,-543 22.48,-565 63.98,-565 63.98,-543 22.48,-543"/>
<text xml:space="preserve" text-anchor="start" x="33.48" y="-550.25" font-family="Arial" font-size="10.00">Bleu</text>
<polygon fill="none" stroke="#ffffff" points="63.98,-543 63.98,-565 160.98,-565 160.98,-543 63.98,-543"/>
<text xml:space="preserve" text-anchor="start" x="78.36" y="-550.25" font-family="Arial" font-size="10.00">candidat rebuild</text>
<polygon fill="#f3e5f5" stroke="none" points="22.48,-521 22.48,-543 63.98,-543 63.98,-521 22.48,-521"/>
<polygon fill="none" stroke="#ffffff" points="22.48,-521 22.48,-543 63.98,-543 63.98,-521 22.48,-521"/>
<text xml:space="preserve" text-anchor="start" x="30.86" y="-528.25" font-family="Arial" font-size="10.00">Violet</text>
<polygon fill="none" stroke="#ffffff" points="63.98,-521 63.98,-543 160.98,-543 160.98,-521 63.98,-521"/>
<text xml:space="preserve" text-anchor="start" x="68.98" y="-528.25" font-family="Arial" font-size="10.00">validation recherche</text>
<polygon fill="#e8f5e9" stroke="none" points="22.48,-499 22.48,-521 63.98,-521 63.98,-499 22.48,-499"/>
<polygon fill="none" stroke="#ffffff" points="22.48,-499 22.48,-521 63.98,-521 63.98,-499 22.48,-499"/>
<text xml:space="preserve" text-anchor="start" x="34.61" y="-506.25" font-family="Arial" font-size="10.00">Vert</text>
<polygon fill="none" stroke="#ffffff" points="63.98,-499 63.98,-521 160.98,-521 160.98,-499 63.98,-499"/>
<text xml:space="preserve" text-anchor="start" x="69.73" y="-506.25" font-family="Arial" font-size="10.00">promotion autorisée</text>
<polygon fill="#ffebee" stroke="none" points="22.48,-477 22.48,-499 63.98,-499 63.98,-477 22.48,-477"/>
<polygon fill="none" stroke="#ffffff" points="22.48,-477 22.48,-499 63.98,-499 63.98,-477 22.48,-477"/>
<text xml:space="preserve" text-anchor="start" x="28.98" y="-484.25" font-family="Arial" font-size="10.00">Rouge</text>
<polygon fill="none" stroke="#ffffff" points="63.98,-477 63.98,-499 160.98,-499 160.98,-477 63.98,-477"/>
<text xml:space="preserve" text-anchor="start" x="72.73" y="-484.25" font-family="Arial" font-size="10.00">promotion bloquée</text>
<polygon fill="#fff3e0" stroke="none" points="22.48,-455 22.48,-477 63.98,-477 63.98,-455 22.48,-455"/>
<polygon fill="none" stroke="#ffffff" points="22.48,-455 22.48,-477 63.98,-477 63.98,-455 22.48,-455"/>
<text xml:space="preserve" text-anchor="start" x="27.48" y="-462.25" font-family="Arial" font-size="10.00">Orange</text>
<polygon fill="none" stroke="#ffffff" points="63.98,-455 63.98,-477 160.98,-477 160.98,-455 63.98,-455"/>
<text xml:space="preserve" text-anchor="start" x="70.11" y="-462.25" font-family="Arial" font-size="10.00">navigation roadmap</text>
</g>
</g>
</svg>
