<?xml version="1.0" encoding="UTF-8" standalone="no"?>
<!DOCTYPE svg PUBLIC "-//W3C//DTD SVG 1.1//EN"
 "http://www.w3.org/Graphics/SVG/1.1/DTD/svg11.dtd">
<!-- Generated by graphviz version 14.1.3 (20260303.0454)
 -->
<!-- Title: E5RebuildReportFile Pages: 1 -->
<svg width="1765pt" height="637pt"
 viewBox="0.00 0.00 1765.00 637.00" xmlns="http://www.w3.org/2000/svg" xmlns:xlink="http://www.w3.org/1999/xlink">
<g id="graph0" class="graph" transform="scale(1 1) rotate(0) translate(18 619)">
<title>E5RebuildReportFile</title>
<polygon fill="white" stroke="none" points="-18,18 -18,-619 1747.39,-619 1747.39,18 -18,18"/>
<text xml:space="preserve" text-anchor="middle" x="864.7" y="-587.5" font-family="Arial" font-size="10.00">Phase 4.10 — E5 rebuild report file</text>
<g id="clust1" class="cluster">
<title>cluster_rebuild</title>
<polygon fill="#e3f2fd" stroke="#1565c0" stroke-width="1.5" points="50.62,-348 50.62,-431 956.8,-431 956.8,-348 50.62,-348"/>
<text xml:space="preserve" text-anchor="middle" x="503.71" y="-417.5" font-family="Arial" font-size="10.00">Rebuild sûr</text>
</g>
<g id="clust2" class="cluster">
<title>cluster_output</title>
<polygon fill="#e8f5e9" stroke="#2e7d32" stroke-width="1.5" points="999.8,-376 999.8,-520 1551.18,-520 1551.18,-376 999.8,-376"/>
<text xml:space="preserve" text-anchor="middle" x="1275.49" y="-506.5" font-family="Arial" font-size="10.00">Sorties du rebuild</text>
</g>
<g id="clust3" class="cluster">
<title>cluster_report_content</title>
<polygon fill="#f3e5f5" stroke="#6a1b9a" stroke-width="1.5" points="1189.51,-8 1189.51,-368 1342.97,-368 1342.97,-8 1189.51,-8"/>
<text xml:space="preserve" text-anchor="middle" x="1266.24" y="-354.5" font-family="Arial" font-size="10.00">Contenu du rapport</text>
</g>
<g id="clust4" class="cluster">
<title>cluster_scope</title>
<polygon fill="#fafafa" stroke="#78909c" points="1594.18,-281 1594.18,-569 1721.39,-569 1721.39,-281 1594.18,-281"/>
<text xml:space="preserve" text-anchor="middle" x="1657.79" y="-555.5" font-family="Arial" font-size="10.00">Limites d&#39;architecture</text>
</g>
<g id="clust5" class="cluster">
<title>cluster_navigation</title>
<polygon fill="#fff3e0" stroke="#ef6c00" stroke-width="1.4" points="260.09,-52 260.09,-340 592.13,-340 592.13,-52 260.09,-52"/>
<text xml:space="preserve" text-anchor="middle" x="426.11" y="-326.5" font-family="Arial" font-size="10.00">Navigation roadmap</text>
</g>
<g id="clust6" class="cluster">
<title>cluster_legend</title>
<polygon fill="#ffffff" stroke="#cfd8dc" points="8,-441 8,-573 214.46,-573 214.46,-441 8,-441"/>
<text xml:space="preserve" text-anchor="middle" x="111.23" y="-559.5" font-family="Arial" font-size="10.00">Légende</text>
</g>
<!-- RebuildCli -->
<g id="node1" class="node">
<title>RebuildCli</title>
<g id="a_node1"><a xlink:href="56_e5_safe_rebuild.svg" xlink:title="rebuild_e5_corpus.py">
<path fill="#e3f2fd" stroke="#1565c0" d="M151.84,-392C151.84,-392 70.63,-392 70.63,-392 64.63,-392 58.63,-386 58.63,-380 58.63,-380 58.63,-368 58.63,-368 58.63,-362 64.63,-356 70.63,-356 70.63,-356 151.84,-356 151.84,-356 157.84,-356 163.84,-362 163.84,-368 163.84,-368 163.84,-380 163.84,-380 163.84,-386 157.84,-392 151.84,-392"/>
<text xml:space="preserve" text-anchor="middle" x="111.23" y="-370.5" font-family="Arial" font-size="10.00">rebuild_e5_corpus.py</text>
</a>
</g>
</g>
<!-- Staging -->
<g id="node2" class="node">
<title>Staging</title>
<path fill="#e3f2fd" stroke="#1565c0" d="M337.67,-392C337.67,-392 277.46,-392 277.46,-392 271.46,-392 265.46,-386 265.46,-380 265.46,-380 265.46,-368 265.46,-368 265.46,-362 271.46,-356 277.46,-356 277.46,-356 337.67,-356 337.67,-356 343.67,-356 349.67,-362 349.67,-368 349.67,-368 349.67,-380 349.67,-380 349.67,-386 343.67,-392 337.67,-392"/>
<text xml:space="preserve" text-anchor="middle" x="307.57" y="-376.5" font-family="Arial" font-size="10.00">staging candidat</text>
<text xml:space="preserve" text-anchor="middle" x="307.57" y="-364.5" font-family="Arial" font-size="10.00">.rebuild.json</text>
</g>
<!-- RebuildCli&#45;&gt;Staging -->
<g id="edge1" class="edge">
<title>RebuildCli&#45;&gt;Staging</title>
<path fill="none" stroke="#455a64" d="M164.31,-374C192.69,-374 227.67,-374 255.84,-374"/>
<polygon fill="#455a64" stroke="#455a64" points="255.6,-376.8 263.6,-374 255.6,-371.2 255.6,-376.8"/>
</g>
<!-- DiagnosticGate -->
<g id="node3" class="node">
<title>DiagnosticGate</title>
<g id="a_node3"><a xlink:href="62_e5_rebuild_diagnostic_gate.svg" xlink:title="diagnostic gate\nPhase 4.8">
<path fill="#e3f2fd" stroke="#1565c0" d="M568.76,-392C568.76,-392 513.8,-392 513.8,-392 507.8,-392 501.8,-386 501.8,-380 501.8,-380 501.8,-368 501.8,-368 501.8,-362 507.8,-356 513.8,-356 513.8,-356 568.76,-356 568.76,-356 574.76,-356 580.76,-362 580.76,-368 580.76,-368 580.76,-380 580.76,-380 580.76,-386 574.76,-392 568.76,-392"/>
<text xml:space="preserve" text-anchor="middle" x="541.28" y="-376.5" font-family="Arial" font-size="10.00">diagnostic gate</text>
<text xml:space="preserve" text-anchor="middle" x="541.28" y="-364.5" font-family="Arial" font-size="10.00">Phase 4.8</text>
</a>
</g>
</g>
<!-- Staging&#45;&gt;DiagnosticGate -->
<g id="edge2" class="edge">
<title>Staging&#45;&gt;DiagnosticGate</title>
<path fill="none" stroke="#455a64" d="M349.99,-374C389.84,-374 450.07,-374 492.06,-374"/>
<polygon fill="#455a64" stroke="#455a64" points="492.01,-376.8 500.01,-374 492.01,-371.2 492.01,-376.8"/>
</g>
<!-- ValidationSet -->
<g id="node4" class="node">
<title>ValidationSet</title>
<g id="a_node4"><a xlink:href="63_e5_search_validation_set.svg" xlink:title="validation set\nPhase 4.9">
<path fill="#e3f2fd" stroke="#1565c0" d="M722.59,-403C722.59,-403 675.88,-403 675.88,-403 669.88,-403 663.88,-397 663.88,-391 663.88,-391 663.88,-379 663.88,-379 663.88,-373 669.88,-367 675.88,-367 675.88,-367 722.59,-367 722.59,-367 728.59,-367 734.59,-373 734.59,-379 734.59,-379 734.59,-391 734.59,-391 734.59,-397 728.59,-403 722.59,-403"/>
<text xml:space="preserve" text-anchor="middle" x="699.24" y="-387.5" font-family="Arial" font-size="10.00">validation set</text>
<text xml:space="preserve" text-anchor="middle" x="699.24" y="-375.5" font-family="Arial" font-size="10.00">Phase 4.9</text>
</a>
</g>
</g>
<!-- DiagnosticGate&#45;&gt;ValidationSet -->
<g id="edge3" class="edge">
<title>DiagnosticGate&#45;&gt;ValidationSet</title>
<path fill="none" stroke="#455a64" d="M581.23,-376.75C603.43,-378.31 631.32,-380.28 654.3,-381.9"/>
<polygon fill="#455a64" stroke="#455a64" points="653.81,-384.67 661.99,-382.44 654.2,-379.09 653.81,-384.67"/>
<text xml:space="preserve" text-anchor="middle" x="624.01" y="-382.44" font-family="Arial" font-size="9.00">si OK</text>
</g>
<!-- Promotion -->
<g id="node5" class="node">
<title>Promotion</title>
<path fill="#e3f2fd" stroke="#1565c0" d="M936.8,-403C936.8,-403 840.59,-403 840.59,-403 834.59,-403 828.59,-397 828.59,-391 828.59,-391 828.59,-379 828.59,-379 828.59,-373 834.59,-367 840.59,-367 840.59,-367 936.8,-367 936.8,-367 942.8,-367 948.8,-373 948.8,-379 948.8,-379 948.8,-391 948.8,-391 948.8,-397 942.8,-403 936.8,-403"/>
<text xml:space="preserve" text-anchor="middle" x="888.7" y="-387.5" font-family="Arial" font-size="10.00">promotion finale</text>
<text xml:space="preserve" text-anchor="middle" x="888.7" y="-375.5" font-family="Arial" font-size="10.00">replace(staging &#45;&gt; index)</text>
</g>
<!-- ValidationSet&#45;&gt;Promotion -->
<g id="edge4" class="edge">
<title>ValidationSet&#45;&gt;Promotion</title>
<path fill="none" stroke="#455a64" d="M735.06,-385C758.65,-385 790.63,-385 819.22,-385"/>
<polygon fill="#455a64" stroke="#455a64" points="818.86,-387.8 826.86,-385 818.86,-382.2 818.86,-387.8"/>
<text xml:space="preserve" text-anchor="middle" x="781.59" y="-386.95" font-family="Arial" font-size="9.00">si OK</text>
</g>
<!-- OutputObject -->
<g id="node7" class="node">
<title>OutputObject</title>
<path fill="#e8f5e9" stroke="#2e7d32" d="M1126.51,-420C1126.51,-420 1019.8,-420 1019.8,-420 1013.8,-420 1007.8,-414 1007.8,-408 1007.8,-408 1007.8,-396 1007.8,-396 1007.8,-390 1013.8,-384 1019.8,-384 1019.8,-384 1126.51,-384 1126.51,-384 1132.51,-384 1138.51,-390 1138.51,-396 1138.51,-396 1138.51,-408 1138.51,-408 1138.51,-414 1132.51,-420 1126.51,-420"/>
<text xml:space="preserve" text-anchor="middle" x="1073.16" y="-404.5" font-family="Arial" font-size="10.00">E5CorpusRebuildCliOutput</text>
<text xml:space="preserve" text-anchor="middle" x="1073.16" y="-392.5" font-family="Arial" font-size="10.00">to_json_dict()</text>
</g>
<!-- Promotion&#45;&gt;OutputObject -->
<g id="edge5" class="edge">
<title>Promotion&#45;&gt;OutputObject</title>
<path fill="none" stroke="#455a64" d="M949.19,-390.54C964.75,-391.99 981.72,-393.57 997.94,-395.09"/>
<polygon fill="#455a64" stroke="#455a64" points="997.66,-397.87 1005.88,-395.83 998.18,-392.3 997.66,-397.87"/>
</g>
<!-- CliOutput -->
<g id="node6" class="node">
<title>CliOutput</title>
<path fill="#e8f5e9" stroke="#2e7d32" d="M1286.22,-492C1286.22,-492 1246.26,-492 1246.26,-492 1240.26,-492 1234.26,-486 1234.26,-480 1234.26,-480 1234.26,-468 1234.26,-468 1234.26,-462 1240.26,-456 1246.26,-456 1246.26,-456 1286.22,-456 1286.22,-456 1292.22,-456 1298.22,-462 1298.22,-468 1298.22,-468 1298.22,-480 1298.22,-480 1298.22,-486 1292.22,-492 1286.22,-492"/>
<text xml:space="preserve" text-anchor="middle" x="1266.24" y="-476.5" font-family="Arial" font-size="10.00">stdout</text>
<text xml:space="preserve" text-anchor="middle" x="1266.24" y="-464.5" font-family="Arial" font-size="10.00">text ou json</text>
</g>
<!-- OutputObject&#45;&gt;CliOutput -->
<g id="edge6" class="edge">
<title>OutputObject&#45;&gt;CliOutput</title>
<path fill="none" stroke="#455a64" d="M1122.87,-420.35C1154.53,-432.29 1195.32,-447.65 1225.11,-458.88"/>
<polygon fill="#455a64" stroke="#455a64" points="1224.09,-461.49 1232.57,-461.69 1226.07,-456.25 1224.09,-461.49"/>
</g>
<!-- ReportOption -->
<g id="node8" class="node">
<title>ReportOption</title>
<path fill="#e8f5e9" stroke="#2e7d32" d="M1295.97,-420C1295.97,-420 1236.51,-420 1236.51,-420 1230.51,-420 1224.51,-414 1224.51,-408 1224.51,-408 1224.51,-396 1224.51,-396 1224.51,-390 1230.51,-384 1236.51,-384 1236.51,-384 1295.97,-384 1295.97,-384 1301.97,-384 1307.97,-390 1307.97,-396 1307.97,-396 1307.97,-408 1307.97,-408 1307.97,-414 1301.97,-420 1295.97,-420"/>
<text xml:space="preserve" text-anchor="middle" x="1266.24" y="-404.5" font-family="Arial" font-size="10.00">&#45;&#45;report&#45;file FILE</text>
<text xml:space="preserve" text-anchor="middle" x="1266.24" y="-392.5" font-family="Arial" font-size="10.00">optionnel</text>
</g>
<!-- OutputObject&#45;&gt;ReportOption -->
<g id="edge7" class="edge">
<title>OutputObject&#45;&gt;ReportOption</title>
<path fill="none" stroke="#455a64" d="M1138.85,-402C1163.68,-402 1191.64,-402 1214.93,-402"/>
<polygon fill="#455a64" stroke="#455a64" points="1214.76,-404.8 1222.76,-402 1214.76,-399.2 1214.76,-404.8"/>
</g>
<!-- Identity -->
<g id="node10" class="node">
<title>Identity</title>
<path fill="#f3e5f5" stroke="#6a1b9a" d="M1292.6,-340C1292.6,-340 1239.89,-340 1239.89,-340 1233.89,-340 1227.89,-334 1227.89,-328 1227.89,-328 1227.89,-316 1227.89,-316 1227.89,-310 1233.89,-304 1239.89,-304 1239.89,-304 1292.6,-304 1292.6,-304 1298.6,-304 1304.6,-310 1304.6,-316 1304.6,-316 1304.6,-328 1304.6,-328 1304.6,-334 1298.6,-340 1292.6,-340"/>
<text xml:space="preserve" text-anchor="middle" x="1266.24" y="-324.5" font-family="Arial" font-size="10.00">index / staging</text>
<text xml:space="preserve" text-anchor="middle" x="1266.24" y="-312.5" font-family="Arial" font-size="10.00">promoted</text>
</g>
<!-- OutputObject&#45;&gt;Identity -->
<g id="edge9" class="edge">
<title>OutputObject&#45;&gt;Identity</title>
<path fill="none" stroke="#455a64" d="M1117.99,-383.65C1148.21,-371 1188.3,-354.21 1219.01,-341.35"/>
<polygon fill="#455a64" stroke="#455a64" points="1219.72,-344.09 1226.02,-338.42 1217.56,-338.93 1219.72,-344.09"/>
</g>
<!-- Model -->
<g id="node11" class="node">
<title>Model</title>
<path fill="#f3e5f5" stroke="#6a1b9a" d="M1307.22,-268C1307.22,-268 1225.26,-268 1225.26,-268 1219.26,-268 1213.26,-262 1213.26,-256 1213.26,-256 1213.26,-244 1213.26,-244 1213.26,-238 1219.26,-232 1225.26,-232 1225.26,-232 1307.22,-232 1307.22,-232 1313.22,-232 1319.22,-238 1319.22,-244 1319.22,-244 1319.22,-256 1319.22,-256 1319.22,-262 1313.22,-268 1307.22,-268"/>
<text xml:space="preserve" text-anchor="middle" x="1266.24" y="-252.5" font-family="Arial" font-size="10.00">model / backend</text>
<text xml:space="preserve" text-anchor="middle" x="1266.24" y="-240.5" font-family="Arial" font-size="10.00">tokenizer / dimension</text>
</g>
<!-- OutputObject&#45;&gt;Model -->
<g id="edge10" class="edge">
<title>OutputObject&#45;&gt;Model</title>
<path fill="none" stroke="#455a64" d="M1092.3,-383.71C1124.61,-351.16 1188.82,-286.49 1189.51,-286 1196.32,-281.18 1203.87,-276.72 1211.49,-272.69"/>
<polygon fill="#455a64" stroke="#455a64" points="1212.54,-275.3 1218.41,-269.18 1210.01,-270.3 1212.54,-275.3"/>
</g>
<!-- Stats -->
<g id="node12" class="node">
<title>Stats</title>
<path fill="#f3e5f5" stroke="#6a1b9a" d="M1322.97,-196C1322.97,-196 1209.51,-196 1209.51,-196 1203.51,-196 1197.51,-190 1197.51,-184 1197.51,-184 1197.51,-172 1197.51,-172 1197.51,-166 1203.51,-160 1209.51,-160 1209.51,-160 1322.97,-160 1322.97,-160 1328.97,-160 1334.97,-166 1334.97,-172 1334.97,-172 1334.97,-184 1334.97,-184 1334.97,-190 1328.97,-196 1322.97,-196"/>
<text xml:space="preserve" text-anchor="middle" x="1266.24" y="-180.5" font-family="Arial" font-size="10.00">size</text>
<text xml:space="preserve" text-anchor="middle" x="1266.24" y="-168.5" font-family="Arial" font-size="10.00">reuse / embedded / removed</text>
</g>
<!-- OutputObject&#45;&gt;Stats -->
<g id="edge11" class="edge">
<title>OutputObject&#45;&gt;Stats</title>
<path fill="none" stroke="#455a64" d="M1087.71,-383.93C1107.04,-357.69 1143,-307.14 1168.51,-261 1179.58,-240.98 1173.52,-230.37 1189.51,-214 1194.2,-209.2 1199.65,-204.97 1205.44,-201.24"/>
<polygon fill="#455a64" stroke="#455a64" points="1206.73,-203.73 1212.2,-197.25 1203.88,-198.91 1206.73,-203.73"/>
</g>
<!-- Validation -->
<g id="node13" class="node">
<title>Validation</title>
<path fill="#f3e5f5" stroke="#6a1b9a" d="M1297.1,-124C1297.1,-124 1235.39,-124 1235.39,-124 1229.39,-124 1223.39,-118 1223.39,-112 1223.39,-112 1223.39,-100 1223.39,-100 1223.39,-94 1229.39,-88 1235.39,-88 1235.39,-88 1297.1,-88 1297.1,-88 1303.1,-88 1309.1,-94 1309.1,-100 1309.1,-100 1309.1,-112 1309.1,-112 1309.1,-118 1303.1,-124 1297.1,-124"/>
<text xml:space="preserve" text-anchor="middle" x="1266.24" y="-108.5" font-family="Arial" font-size="10.00">validation</text>
<text xml:space="preserve" text-anchor="middle" x="1266.24" y="-96.5" font-family="Arial" font-size="10.00">queries + scores</text>
</g>
<!-- OutputObject&#45;&gt;Validation -->
<g id="edge12" class="edge">
<title>OutputObject&#45;&gt;Validation</title>
<path fill="none" stroke="#455a64" d="M1083.96,-383.72C1102.1,-349.48 1141.49,-273.08 1168.51,-206 1179.69,-178.23 1169.72,-164.47 1189.51,-142 1196.43,-134.14 1205.44,-127.86 1214.82,-122.88"/>
<polygon fill="#455a64" stroke="#455a64" points="1215.79,-125.53 1221.75,-119.5 1213.34,-120.49 1215.79,-125.53"/>
</g>
<!-- Diagnostics -->
<g id="node14" class="node">
<title>Diagnostics</title>
<path fill="#f3e5f5" stroke="#6a1b9a" d="M1294.85,-52C1294.85,-52 1237.64,-52 1237.64,-52 1231.64,-52 1225.64,-46 1225.64,-40 1225.64,-40 1225.64,-28 1225.64,-28 1225.64,-22 1231.64,-16 1237.64,-16 1237.64,-16 1294.85,-16 1294.85,-16 1300.85,-16 1306.85,-22 1306.85,-28 1306.85,-28 1306.85,-40 1306.85,-40 1306.85,-46 1300.85,-52 1294.85,-52"/>
<text xml:space="preserve" text-anchor="middle" x="1266.24" y="-36.5" font-family="Arial" font-size="10.00">diagnostic_gate</text>
<text xml:space="preserve" text-anchor="middle" x="1266.24" y="-24.5" font-family="Arial" font-size="10.00">si activé</text>
</g>
<!-- OutputObject&#45;&gt;Diagnostics -->
<g id="edge13" class="edge">
<title>OutputObject&#45;&gt;Diagnostics</title>
<path fill="none" stroke="#455a64" d="M1075.63,-383.72C1080.94,-329.25 1103.58,-165.88 1189.51,-70 1196.95,-61.7 1206.71,-55.14 1216.74,-50.03"/>
<polygon fill="#455a64" stroke="#455a64" points="1217.76,-52.65 1223.82,-46.71 1215.39,-47.58 1217.76,-52.65"/>
</g>
<!-- ReportFile -->
<g id="node9" class="node">
<title>ReportFile</title>
<path fill="#e8f5e9" stroke="#2e7d32" d="M1531.18,-438C1531.18,-438 1452.97,-438 1452.97,-438 1446.97,-438 1440.97,-432 1440.97,-426 1440.97,-426 1440.97,-414 1440.97,-414 1440.97,-408 1446.97,-402 1452.97,-402 1452.97,-402 1531.18,-402 1531.18,-402 1537.18,-402 1543.18,-408 1543.18,-414 1543.18,-414 1543.18,-426 1543.18,-426 1543.18,-432 1537.18,-438 1531.18,-438"/>
<text xml:space="preserve" text-anchor="middle" x="1492.08" y="-422.5" font-family="Arial" font-size="10.00">rapport JSON stable</text>
<text xml:space="preserve" text-anchor="middle" x="1492.08" y="-410.5" font-family="Arial" font-size="10.00">atomique</text>
</g>
<!-- ReportOption&#45;&gt;ReportFile -->
<g id="edge8" class="edge">
<title>ReportOption&#45;&gt;ReportFile</title>
<path fill="none" stroke="#455a64" d="M1308.29,-405.3C1342.76,-408.07 1392.47,-412.07 1431.34,-415.2"/>
<polygon fill="#455a64" stroke="#455a64" points="1430.76,-417.96 1438.96,-415.81 1431.21,-412.38 1430.76,-417.96"/>
<text xml:space="preserve" text-anchor="middle" x="1387.97" y="-415.09" font-family="Arial" font-size="9.00">si demandé</text>
</g>
<!-- NoScheduler -->
<g id="node15" class="node">
<title>NoScheduler</title>
<polygon fill="#fafafa" stroke="#78909c" points="1696.14,-541 1613.43,-541 1613.43,-505 1702.14,-505 1702.14,-535 1696.14,-541"/>
<polyline fill="none" stroke="#78909c" points="1696.14,-541 1696.14,-535"/>
<polyline fill="none" stroke="#78909c" points="1702.14,-535 1696.14,-535"/>
<text xml:space="preserve" text-anchor="middle" x="1657.79" y="-519.5" font-family="Arial" font-size="10.00">pas de Scheduler</text>
</g>
<!-- ReportFile&#45;&gt;NoScheduler -->
<g id="edge14" class="edge">
<title>ReportFile&#45;&gt;NoScheduler</title>
<path fill="none" stroke="#455a64" stroke-dasharray="1,5" d="M1519.81,-438.39C1540.02,-452.12 1568.56,-471.17 1594.18,-487 1601.15,-491.31 1608.64,-495.76 1615.94,-500.01"/>
<polygon fill="#455a64" stroke="#455a64" points="1614.1,-502.18 1622.43,-503.76 1616.9,-497.33 1614.1,-502.18"/>
</g>
<!-- NoQdrant -->
<g id="node16" class="node">
<title>NoQdrant</title>
<polygon fill="#fafafa" stroke="#78909c" points="1689.02,-469 1620.56,-469 1620.56,-433 1695.02,-433 1695.02,-463 1689.02,-469"/>
<polyline fill="none" stroke="#78909c" points="1689.02,-469 1689.02,-463"/>
<polyline fill="none" stroke="#78909c" points="1695.02,-463 1689.02,-463"/>
<text xml:space="preserve" text-anchor="middle" x="1657.79" y="-447.5" font-family="Arial" font-size="10.00">pas de Qdrant</text>
</g>
<!-- ReportFile&#45;&gt;NoQdrant -->
<g id="edge15" class="edge">
<title>ReportFile&#45;&gt;NoQdrant</title>
<path fill="none" stroke="#455a64" stroke-dasharray="1,5" d="M1543.53,-429.55C1565.04,-433.63 1589.96,-438.35 1610.93,-442.32"/>
<polygon fill="#455a64" stroke="#455a64" points="1610.4,-445.07 1618.78,-443.8 1611.44,-439.56 1610.4,-445.07"/>
</g>
<!-- NoFormatChange -->
<g id="node17" class="node">
<title>NoFormatChange</title>
<polygon fill="#fafafa" stroke="#78909c" points="1695.02,-397 1614.56,-397 1614.56,-361 1701.02,-361 1701.02,-391 1695.02,-397"/>
<polyline fill="none" stroke="#78909c" points="1695.02,-397 1695.02,-391"/>
<polyline fill="none" stroke="#78909c" points="1701.02,-391 1695.02,-391"/>
<text xml:space="preserve" text-anchor="middle" x="1657.79" y="-381.5" font-family="Arial" font-size="10.00">format corpus v1</text>
<text xml:space="preserve" text-anchor="middle" x="1657.79" y="-369.5" font-family="Arial" font-size="10.00">inaltéré</text>
</g>
<!-- ReportFile&#45;&gt;NoFormatChange -->
<g id="edge16" class="edge">
<title>ReportFile&#45;&gt;NoFormatChange</title>
<path fill="none" stroke="#455a64" stroke-dasharray="1,5" d="M1543.53,-407.36C1563.08,-402.47 1585.44,-396.87 1605.1,-391.94"/>
<polygon fill="#455a64" stroke="#455a64" points="1605.67,-394.69 1612.75,-390.03 1604.31,-389.26 1605.67,-394.69"/>
</g>
<!-- NoSvg -->
<g id="node18" class="node">
<title>NoSvg</title>
<polygon fill="#fafafa" stroke="#78909c" points="1707.39,-325 1602.18,-325 1602.18,-289 1713.39,-289 1713.39,-319 1707.39,-325"/>
<polyline fill="none" stroke="#78909c" points="1707.39,-325 1707.39,-319"/>
<polyline fill="none" stroke="#78909c" points="1713.39,-319 1707.39,-319"/>
<text xml:space="preserve" text-anchor="middle" x="1657.79" y="-303.5" font-family="Arial" font-size="10.00">pas de SVG versionné</text>
</g>
<!-- ReportFile&#45;&gt;NoSvg -->
<g id="edge17" class="edge">
<title>ReportFile&#45;&gt;NoSvg</title>
<path fill="none" stroke="#455a64" stroke-dasharray="1,5" d="M1515.35,-401.71C1535.44,-385.53 1566.06,-361.68 1594.18,-343 1600.71,-338.66 1607.79,-334.3 1614.75,-330.17"/>
<polygon fill="#455a64" stroke="#455a64" points="1616.03,-332.67 1621.53,-326.22 1613.21,-327.83 1616.03,-332.67"/>
</g>
<!-- CorpusDiag -->
<g id="node19" class="node">
<title>CorpusDiag</title>
<g id="a_node19"><a xlink:href="60_e5_corpus_diagnostics.svg" xlink:title="Phase 4.6\ndiagnostics">
<path fill="#fff3e0" stroke="#ef6c00" d="M326.8,-96C326.8,-96 288.34,-96 288.34,-96 282.34,-96 276.34,-90 276.34,-84 276.34,-84 276.34,-72 276.34,-72 276.34,-66 282.34,-60 288.34,-60 288.34,-60 326.8,-60 326.8,-60 332.8,-60 338.8,-66 338.8,-72 338.8,-72 338.8,-84 338.8,-84 338.8,-90 332.8,-96 326.8,-96"/>
<text xml:space="preserve" text-anchor="middle" x="307.57" y="-80.5" font-family="Arial" font-size="10.00">Phase 4.6</text>
<text xml:space="preserve" text-anchor="middle" x="307.57" y="-68.5" font-family="Arial" font-size="10.00">diagnostics</text>
</a>
</g>
</g>
<!-- CorpusDiag&#45;&gt;Diagnostics -->
<g id="edge18" class="edge">
<title>CorpusDiag&#45;&gt;Diagnostics</title>
<path fill="none" stroke="#455a64" d="M338.95,-68.45C382.9,-55.51 466.98,-34 540.28,-34 540.28,-34 540.28,-34 1074.16,-34 1122.32,-34 1177.32,-34 1215.91,-34"/>
<polygon fill="#455a64" stroke="#455a64" points="1215.83,-36.8 1223.83,-34 1215.83,-31.2 1215.83,-36.8"/>
<text xml:space="preserve" text-anchor="middle" x="781.59" y="-35.95" font-family="Arial" font-size="9.00">données</text>
</g>
<!-- Gate -->
<g id="node20" class="node">
<title>Gate</title>
<g id="a_node20"><a xlink:href="61_e5_corpus_diagnostic_gate.svg" xlink:title="Phase 4.7\ndiagnostic gate">
<path fill="#fff3e0" stroke="#ef6c00" d="M335.05,-312C335.05,-312 280.09,-312 280.09,-312 274.09,-312 268.09,-306 268.09,-300 268.09,-300 268.09,-288 268.09,-288 268.09,-282 274.09,-276 280.09,-276 280.09,-276 335.05,-276 335.05,-276 341.05,-276 347.05,-282 347.05,-288 347.05,-288 347.05,-300 347.05,-300 347.05,-306 341.05,-312 335.05,-312"/>
<text xml:space="preserve" text-anchor="middle" x="307.57" y="-296.5" font-family="Arial" font-size="10.00">Phase 4.7</text>
<text xml:space="preserve" text-anchor="middle" x="307.57" y="-284.5" font-family="Arial" font-size="10.00">diagnostic gate</text>
</a>
</g>
</g>
<!-- Gate&#45;&gt;DiagnosticGate -->
<g id="edge19" class="edge">
<title>Gate&#45;&gt;DiagnosticGate</title>
<path fill="none" stroke="#455a64" d="M347.35,-307.39C387.28,-321.18 449.57,-342.68 492.51,-357.51"/>
<polygon fill="#455a64" stroke="#455a64" points="491.46,-360.11 499.93,-360.07 493.29,-354.81 491.46,-360.11"/>
<text xml:space="preserve" text-anchor="middle" x="424.05" y="-350.07" font-family="Arial" font-size="9.00">seuils</text>
</g>
<!-- RebuildGate -->
<g id="node21" class="node">
<title>RebuildGate</title>
<g id="a_node21"><a xlink:href="62_e5_rebuild_diagnostic_gate.svg" xlink:title="Phase 4.8\nrebuild gate">
<path fill="#fff3e0" stroke="#ef6c00" d="M327.17,-240C327.17,-240 287.96,-240 287.96,-240 281.96,-240 275.96,-234 275.96,-228 275.96,-228 275.96,-216 275.96,-216 275.96,-210 281.96,-204 287.96,-204 287.96,-204 327.17,-204 327.17,-204 333.17,-204 339.17,-210 339.17,-216 339.17,-216 339.17,-228 339.17,-228 339.17,-234 333.17,-240 327.17,-240"/>
<text xml:space="preserve" text-anchor="middle" x="307.57" y="-224.5" font-family="Arial" font-size="10.00">Phase 4.8</text>
<text xml:space="preserve" text-anchor="middle" x="307.57" y="-212.5" font-family="Arial" font-size="10.00">rebuild gate</text>
</a>
</g>
</g>
<!-- RebuildGate&#45;&gt;DiagnosticGate -->
<g id="edge20" class="edge">
<title>RebuildGate&#45;&gt;DiagnosticGate</title>
<path fill="none" stroke="#455a64" d="M339.51,-231.14C374.39,-242.69 431.2,-265.4 469.42,-300.5 487.92,-317.49 480.66,-331.25 498.42,-349 498.72,-349.3 499.02,-349.6 499.33,-349.89"/>
<polygon fill="#455a64" stroke="#455a64" points="497.2,-351.76 505.12,-354.78 500.81,-347.48 497.2,-351.76"/>
<text xml:space="preserve" text-anchor="middle" x="424.05" y="-302.45" font-family="Arial" font-size="9.00">intégration</text>
</g>
<!-- SearchValidation -->
<g id="node22" class="node">
<title>SearchValidation</title>
<g id="a_node22"><a xlink:href="63_e5_search_validation_set.svg" xlink:title="Phase 4.9\nvalidation set">
<path fill="#fff3e0" stroke="#ef6c00" d="M330.92,-168C330.92,-168 284.21,-168 284.21,-168 278.21,-168 272.21,-162 272.21,-156 272.21,-156 272.21,-144 272.21,-144 272.21,-138 278.21,-132 284.21,-132 284.21,-132 330.92,-132 330.92,-132 336.92,-132 342.92,-138 342.92,-144 342.92,-144 342.92,-156 342.92,-156 342.92,-162 336.92,-168 330.92,-168"/>
<text xml:space="preserve" text-anchor="middle" x="307.57" y="-152.5" font-family="Arial" font-size="10.00">Phase 4.9</text>
<text xml:space="preserve" text-anchor="middle" x="307.57" y="-140.5" font-family="Arial" font-size="10.00">validation set</text>
</a>
</g>
</g>
<!-- SearchValidation&#45;&gt;Validation -->
<g id="edge21" class="edge">
<title>SearchValidation&#45;&gt;Validation</title>
<path fill="none" stroke="#455a64" d="M343.15,-139.73C388.13,-127.29 469.34,-108 540.28,-108 540.28,-108 540.28,-108 1074.16,-108 1121.41,-108 1175.23,-107.38 1213.68,-106.83"/>
<polygon fill="#455a64" stroke="#455a64" points="1213.65,-109.63 1221.6,-106.72 1213.56,-104.03 1213.65,-109.63"/>
<text xml:space="preserve" text-anchor="middle" x="781.59" y="-109.95" font-family="Arial" font-size="9.00">résultat</text>
</g>
<!-- SearchReportFile -->
<g id="node23" class="node">
<title>SearchReportFile</title>
<g id="a_node23"><a xlink:href="65_e5_search_report_file.svg" xlink:title="Phase 4.11\nsearch report file">
<path fill="#fff3e0" stroke="#ef6c00" d="M572.13,-199C572.13,-199 510.42,-199 510.42,-199 504.42,-199 498.42,-193 498.42,-187 498.42,-187 498.42,-175 498.42,-175 498.42,-169 504.42,-163 510.42,-163 510.42,-163 572.13,-163 572.13,-163 578.13,-163 584.13,-169 584.13,-175 584.13,-175 584.13,-187 584.13,-187 584.13,-193 578.13,-199 572.13,-199"/>
<text xml:space="preserve" text-anchor="middle" x="541.28" y="-183.5" font-family="Arial" font-size="10.00">Phase 4.11</text>
<text xml:space="preserve" text-anchor="middle" x="541.28" y="-171.5" font-family="Arial" font-size="10.00">search report file</text>
</a>
</g>
</g>
<!-- SearchValidation&#45;&gt;SearchReportFile -->
<g id="edge22" class="edge">
<title>SearchValidation&#45;&gt;SearchReportFile</title>
<path fill="none" stroke="#455a64" stroke-dasharray="5,2" d="M343.25,-154.64C381.91,-159.81 444.81,-168.23 489.11,-174.16"/>
<polygon fill="#455a64" stroke="#455a64" points="488.47,-176.89 496.77,-175.18 489.21,-171.34 488.47,-176.89"/>
<text xml:space="preserve" text-anchor="middle" x="424.05" y="-172.92" font-family="Arial" font-size="9.00">même logique artefact</text>
</g>
<!-- Legend -->
<g id="node24" class="node">
<title>Legend</title>
<path fill="#ffffff" stroke="none" d="M194.46,-545.32C194.46,-545.32 28,-545.32 28,-545.32 22,-545.32 16,-539.32 16,-533.32 16,-533.32 16,-460.68 16,-460.68 16,-454.68 22,-448.68 28,-448.68 28,-448.68 194.46,-448.68 194.46,-448.68 200.46,-448.68 206.46,-454.68 206.46,-460.68 206.46,-460.68 206.46,-533.32 206.46,-533.32 206.46,-539.32 200.46,-545.32 194.46,-545.32"/>
<polygon fill="#e3f2fd" stroke="none" points="22.48,-519 22.48,-541 63.98,-541 63.98,-519 22.48,-519"/>
<polygon fill="none" stroke="#ffffff" points="22.48,-519 22.48,-541 63.98,-541 63.98,-519 22.48,-519"/>
<text xml:space="preserve" text-anchor="start" x="33.48" y="-526.25" font-family="Arial" font-size="10.00">Bleu</text>
<polygon fill="none" stroke="#ffffff" points="63.98,-519 63.98,-541 199.98,-541 199.98,-519 63.98,-519"/>
<text xml:space="preserve" text-anchor="start" x="104.61" y="-526.25" font-family="Arial" font-size="10.00">cycle rebuild</text>
<polygon fill="#e8f5e9" stroke="none" points="22.48,-497 22.48,-519 63.98,-519 63.98,-497 22.48,-497"/>
<polygon fill="none" stroke="#ffffff" points="22.48,-497 22.48,-519 63.98,-519 63.98,-497 22.48,-497"/>
<text xml:space="preserve" text-anchor="start" x="34.61" y="-504.25" font-family="Arial" font-size="10.00">Vert</text>
<polygon fill="none" stroke="#ffffff" points="63.98,-497 63.98,-519 199.98,-519 199.98,-497 63.98,-497"/>
<text xml:space="preserve" text-anchor="start" x="95.98" y="-504.25" font-family="Arial" font-size="10.00">sorties produites</text>
<polygon fill="#f3e5f5" stroke="none" points="22.48,-475 22.48,-497 63.98,-497 63.98,-475 22.48,-475"/>
<polygon fill="none" stroke="#ffffff" points="22.48,-475 22.48,-497 63.98,-497 63.98,-475 22.48,-475"/>
<text xml:space="preserve" text-anchor="start" x="30.86" y="-482.25" font-family="Arial" font-size="10.00">Violet</text>
<polygon fill="none" stroke="#ffffff" points="63.98,-475 63.98,-497 199.98,-497 199.98,-475 63.98,-475"/>
<text xml:space="preserve" text-anchor="start" x="68.98" y="-482.25" font-family="Arial" font-size="10.00">contenu technique du rapport</text>
<polygon fill="#fff3e0" stroke="none" points="22.48,-453 22.48,-475 63.98,-475 63.98,-453 22.48,-453"/>
<polygon fill="none" stroke="#ffffff" points="22.48,-453 22.48,-475 63.98,-475 63.98,-453 22.48,-453"/>
<text xml:space="preserve" text-anchor="start" x="27.48" y="-460.25" font-family="Arial" font-size="10.00">Orange</text>
<polygon fill="none" stroke="#ffffff" points="63.98,-453 63.98,-475 199.98,-475 199.98,-453 63.98,-453"/>
<text xml:space="preserve" text-anchor="start" x="89.61" y="-460.25" font-family="Arial" font-size="10.00">navigation roadmap</text>
</g>
</g>
</svg>
