<?xml version="1.0" encoding="UTF-8" standalone="no"?>
<!DOCTYPE svg PUBLIC "-//W3C//DTD SVG 1.1//EN"
 "http://www.w3.org/Graphics/SVG/1.1/DTD/svg11.dtd">
<!-- Generated by graphviz version 14.1.3 (20260303.0454)
 -->
<!-- Title: E5SearchReportFile Pages: 1 -->
<svg width="1559pt" height="677pt"
 viewBox="0.00 0.00 1559.00 677.00" xmlns="http://www.w3.org/2000/svg" xmlns:xlink="http://www.w3.org/1999/xlink">
<g id="graph0" class="graph" transform="scale(1 1) rotate(0) translate(18 659)">
<title>E5SearchReportFile</title>
<polygon fill="white" stroke="none" points="-18,18 -18,-659 1541.18,-659 1541.18,18 -18,18"/>
<text xml:space="preserve" text-anchor="middle" x="761.59" y="-627.5" font-family="Arial" font-size="10.00">Phase 4.11 — E5 search report file</text>
<g id="clust1" class="cluster">
<title>cluster_query</title>
<polygon fill="#e3f2fd" stroke="#1565c0" stroke-width="1.5" points="50.25,-232 50.25,-448 776.34,-448 776.34,-232 50.25,-232"/>
<text xml:space="preserve" text-anchor="middle" x="413.3" y="-434.5" font-family="Arial" font-size="10.00">Recherche locale</text>
</g>
<g id="clust2" class="cluster">
<title>cluster_outputs</title>
<polygon fill="#e8f5e9" stroke="#2e7d32" stroke-width="1.5" points="819.34,-375 819.34,-519 1296.47,-519 1296.47,-375 819.34,-375"/>
<text xml:space="preserve" text-anchor="middle" x="1057.91" y="-505.5" font-family="Arial" font-size="10.00">Sorties</text>
</g>
<g id="clust3" class="cluster">
<title>cluster_report_content</title>
<polygon fill="#f3e5f5" stroke="#6a1b9a" stroke-width="1.5" points="962.55,-79 962.55,-367 1088.26,-367 1088.26,-79 962.55,-79"/>
<text xml:space="preserve" text-anchor="middle" x="1025.41" y="-353.5" font-family="Arial" font-size="10.00">Contenu du rapport</text>
</g>
<g id="clust4" class="cluster">
<title>cluster_scope</title>
<polygon fill="#fafafa" stroke="#78909c" points="1387.97,-325 1387.97,-613 1515.18,-613 1515.18,-325 1387.97,-325"/>
<text xml:space="preserve" text-anchor="middle" x="1451.58" y="-599.5" font-family="Arial" font-size="10.00">Limites d&#39;architecture</text>
</g>
<g id="clust5" class="cluster">
<title>cluster_navigation</title>
<polygon fill="#fff3e0" stroke="#ef6c00" stroke-width="1.4" points="60.23,-8 60.23,-224 163.23,-224 163.23,-8 60.23,-8"/>
<text xml:space="preserve" text-anchor="middle" x="111.73" y="-210.5" font-family="Arial" font-size="10.00">Navigation roadmap</text>
</g>
<g id="clust6" class="cluster">
<title>cluster_legend</title>
<polygon fill="#ffffff" stroke="#cfd8dc" points="8,-457 8,-589 214.46,-589 214.46,-457 8,-457"/>
<text xml:space="preserve" text-anchor="middle" x="111.23" y="-575.5" font-family="Arial" font-size="10.00">Légende</text>
</g>
<!-- SearchCli -->
<g id="node1" class="node">
<title>SearchCli</title>
<g id="a_node1"><a xlink:href="52_e5_search_report.svg" xlink:title="search_e5_corpus.py&#10;&#45;&#45;index corpus.json">
<path fill="#e3f2fd" stroke="#1565c0" d="M152.21,-383C152.21,-383 70.25,-383 70.25,-383 64.25,-383 58.25,-377 58.25,-371 58.25,-371 58.25,-359 58.25,-359 58.25,-353 64.25,-347 70.25,-347 70.25,-347 152.21,-347 152.21,-347 158.21,-347 164.21,-353 164.21,-359 164.21,-359 164.21,-371 164.21,-371 164.21,-377 158.21,-383 152.21,-383"/>
<text xml:space="preserve" text-anchor="middle" x="111.23" y="-367.5" font-family="Arial" font-size="10.00">search_e5_corpus.py</text>
<text xml:space="preserve" text-anchor="middle" x="111.23" y="-355.5" font-family="Arial" font-size="10.00">&#45;&#45;index corpus.json</text>
</a>
</g>
</g>
<!-- Query -->
<g id="node2" class="node">
<title>Query</title>
<path fill="#e3f2fd" stroke="#1565c0" d="M365.55,-348C365.55,-348 307.59,-348 307.59,-348 301.59,-348 295.59,-342 295.59,-336 295.59,-336 295.59,-324 295.59,-324 295.59,-318 301.59,-312 307.59,-312 307.59,-312 365.55,-312 365.55,-312 371.55,-312 377.55,-318 377.55,-324 377.55,-324 377.55,-336 377.55,-336 377.55,-342 371.55,-348 365.55,-348"/>
<text xml:space="preserve" text-anchor="middle" x="336.57" y="-332.5" font-family="Arial" font-size="10.00">query utilisateur</text>
<text xml:space="preserve" text-anchor="middle" x="336.57" y="-320.5" font-family="Arial" font-size="10.00">préfixe query:</text>
</g>
<!-- SearchCli&#45;&gt;Query -->
<g id="edge1" class="edge">
<title>SearchCli&#45;&gt;Query</title>
<path fill="none" stroke="#455a64" d="M164.59,-356.79C201.28,-351.04 250,-343.41 286.05,-337.76"/>
<polygon fill="#455a64" stroke="#455a64" points="286.42,-340.54 293.89,-336.53 285.56,-335 286.42,-340.54"/>
</g>
<!-- Corpus -->
<g id="node4" class="node">
<title>Corpus</title>
<g id="a_node4"><a xlink:href="50_e5_corpus.svg" xlink:title="corpus E5 JSON&#10;missipy.e5.corpus.v1">
<path fill="#e3f2fd" stroke="#1565c0" d="M377.17,-420C377.17,-420 295.96,-420 295.96,-420 289.96,-420 283.96,-414 283.96,-408 283.96,-408 283.96,-396 283.96,-396 283.96,-390 289.96,-384 295.96,-384 295.96,-384 377.17,-384 377.17,-384 383.17,-384 389.17,-390 389.17,-396 389.17,-396 389.17,-408 389.17,-408 389.17,-414 383.17,-420 377.17,-420"/>
<text xml:space="preserve" text-anchor="middle" x="336.57" y="-404.5" font-family="Arial" font-size="10.00">corpus E5 JSON</text>
<text xml:space="preserve" text-anchor="middle" x="336.57" y="-392.5" font-family="Arial" font-size="10.00">missipy.e5.corpus.v1</text>
</a>
</g>
</g>
<!-- SearchCli&#45;&gt;Corpus -->
<g id="edge2" class="edge">
<title>SearchCli&#45;&gt;Corpus</title>
<path fill="none" stroke="#455a64" d="M164.59,-373.67C197.49,-379.13 240.07,-386.18 274.51,-391.88"/>
<polygon fill="#455a64" stroke="#455a64" points="273.69,-394.59 282.04,-393.13 274.6,-389.06 273.69,-394.59"/>
</g>
<!-- Searcher -->
<g id="node5" class="node">
<title>Searcher</title>
<path fill="#e3f2fd" stroke="#1565c0" d="M578.63,-348C578.63,-348 507.17,-348 507.17,-348 501.17,-348 495.17,-342 495.17,-336 495.17,-336 495.17,-324 495.17,-324 495.17,-318 501.17,-312 507.17,-312 507.17,-312 578.63,-312 578.63,-312 584.63,-312 590.63,-318 590.63,-324 590.63,-324 590.63,-336 590.63,-336 590.63,-342 584.63,-348 578.63,-348"/>
<text xml:space="preserve" text-anchor="middle" x="542.9" y="-332.5" font-family="Arial" font-size="10.00">E5CorpusSearcher</text>
<text xml:space="preserve" text-anchor="middle" x="542.9" y="-320.5" font-family="Arial" font-size="10.00">rank + filtre + limit</text>
</g>
<!-- Query&#45;&gt;Searcher -->
<g id="edge3" class="edge">
<title>Query&#45;&gt;Searcher</title>
<path fill="none" stroke="#455a64" d="M377.94,-330C408.66,-330 451.33,-330 485.43,-330"/>
<polygon fill="#455a64" stroke="#455a64" points="485.3,-332.8 493.3,-330 485.3,-327.2 485.3,-332.8"/>
</g>
<!-- MinScore -->
<g id="node3" class="node">
<title>MinScore</title>
<g id="a_node3"><a xlink:href="57_e5_score_guard.svg" xlink:title="&#45;&#45;min&#45;score&#10;optionnel">
<path fill="#e3f2fd" stroke="#1565c0" d="M355.42,-276C355.42,-276 317.71,-276 317.71,-276 311.71,-276 305.71,-270 305.71,-264 305.71,-264 305.71,-252 305.71,-252 305.71,-246 311.71,-240 317.71,-240 317.71,-240 355.42,-240 355.42,-240 361.42,-240 367.42,-246 367.42,-252 367.42,-252 367.42,-264 367.42,-264 367.42,-270 361.42,-276 355.42,-276"/>
<text xml:space="preserve" text-anchor="middle" x="336.57" y="-260.5" font-family="Arial" font-size="10.00">&#45;&#45;min&#45;score</text>
<text xml:space="preserve" text-anchor="middle" x="336.57" y="-248.5" font-family="Arial" font-size="10.00">optionnel</text>
</a>
</g>
</g>
<!-- MinScore&#45;&gt;Searcher -->
<g id="edge5" class="edge">
<title>MinScore&#45;&gt;Searcher</title>
<path fill="none" stroke="#455a64" d="M367.72,-268.62C398.75,-279.56 447.83,-296.85 486,-310.3"/>
<polygon fill="#455a64" stroke="#455a64" points="485.05,-312.94 493.52,-312.95 486.91,-307.65 485.05,-312.94"/>
<text xml:space="preserve" text-anchor="middle" x="442.17" y="-304.52" font-family="Arial" font-size="9.00">filtre inclusif</text>
</g>
<!-- Corpus&#45;&gt;Searcher -->
<g id="edge4" class="edge">
<title>Corpus&#45;&gt;Searcher</title>
<path fill="none" stroke="#455a64" d="M389.66,-383.65C419.14,-373.25 456.02,-360.26 486.1,-349.66"/>
<polygon fill="#455a64" stroke="#455a64" points="486.75,-352.4 493.37,-347.1 484.89,-347.12 486.75,-352.4"/>
</g>
<!-- Report -->
<g id="node6" class="node">
<title>Report</title>
<g id="a_node6"><a xlink:href="52_e5_search_report.svg" xlink:title="E5SearchReport&#10;source + lines + excerpt">
<path fill="#e3f2fd" stroke="#1565c0" d="M756.34,-348C756.34,-348 661.63,-348 661.63,-348 655.63,-348 649.63,-342 649.63,-336 649.63,-336 649.63,-324 649.63,-324 649.63,-318 655.63,-312 661.63,-312 661.63,-312 756.34,-312 756.34,-312 762.34,-312 768.34,-318 768.34,-324 768.34,-324 768.34,-336 768.34,-336 768.34,-342 762.34,-348 756.34,-348"/>
<text xml:space="preserve" text-anchor="middle" x="708.99" y="-332.5" font-family="Arial" font-size="10.00">E5SearchReport</text>
<text xml:space="preserve" text-anchor="middle" x="708.99" y="-320.5" font-family="Arial" font-size="10.00">source + lines + excerpt</text>
</a>
</g>
</g>
<!-- Searcher&#45;&gt;Report -->
<g id="edge6" class="edge">
<title>Searcher&#45;&gt;Report</title>
<path fill="none" stroke="#455a64" d="M590.92,-330C606.26,-330 623.61,-330 640.17,-330"/>
<polygon fill="#455a64" stroke="#455a64" points="639.75,-332.8 647.75,-330 639.75,-327.2 639.75,-332.8"/>
</g>
<!-- JsonObject -->
<g id="node8" class="node">
<title>JsonObject</title>
<path fill="#e8f5e9" stroke="#2e7d32" d="M899.55,-419C899.55,-419 839.34,-419 839.34,-419 833.34,-419 827.34,-413 827.34,-407 827.34,-407 827.34,-395 827.34,-395 827.34,-389 833.34,-383 839.34,-383 839.34,-383 899.55,-383 899.55,-383 905.55,-383 911.55,-389 911.55,-395 911.55,-395 911.55,-407 911.55,-407 911.55,-413 905.55,-419 899.55,-419"/>
<text xml:space="preserve" text-anchor="middle" x="869.45" y="-403.5" font-family="Arial" font-size="10.00">to_json_dict()</text>
<text xml:space="preserve" text-anchor="middle" x="869.45" y="-391.5" font-family="Arial" font-size="10.00">projection stable</text>
</g>
<!-- Report&#45;&gt;JsonObject -->
<g id="edge7" class="edge">
<title>Report&#45;&gt;JsonObject</title>
<path fill="none" stroke="#455a64" d="M751.2,-348.47C771.85,-357.72 797,-368.99 818.71,-378.72"/>
<polygon fill="#455a64" stroke="#455a64" points="817.33,-381.17 825.78,-381.88 819.62,-376.05 817.33,-381.17"/>
</g>
<!-- Stdout -->
<g id="node7" class="node">
<title>Stdout</title>
<path fill="#e8f5e9" stroke="#2e7d32" d="M1045.39,-419C1045.39,-419 1005.43,-419 1005.43,-419 999.43,-419 993.43,-413 993.43,-407 993.43,-407 993.43,-395 993.43,-395 993.43,-389 999.43,-383 1005.43,-383 1005.43,-383 1045.39,-383 1045.39,-383 1051.39,-383 1057.39,-389 1057.39,-395 1057.39,-395 1057.39,-407 1057.39,-407 1057.39,-413 1051.39,-419 1045.39,-419"/>
<text xml:space="preserve" text-anchor="middle" x="1025.41" y="-403.5" font-family="Arial" font-size="10.00">stdout</text>
<text xml:space="preserve" text-anchor="middle" x="1025.41" y="-391.5" font-family="Arial" font-size="10.00">text ou json</text>
</g>
<!-- JsonObject&#45;&gt;Stdout -->
<g id="edge8" class="edge">
<title>JsonObject&#45;&gt;Stdout</title>
<path fill="none" stroke="#455a64" d="M911.7,-401C934.05,-401 961.56,-401 983.8,-401"/>
<polygon fill="#455a64" stroke="#455a64" points="983.78,-403.8 991.78,-401 983.78,-398.2 983.78,-403.8"/>
</g>
<!-- ReportOption -->
<g id="node9" class="node">
<title>ReportOption</title>
<path fill="#e8f5e9" stroke="#2e7d32" d="M1055.14,-491C1055.14,-491 995.68,-491 995.68,-491 989.68,-491 983.68,-485 983.68,-479 983.68,-479 983.68,-467 983.68,-467 983.68,-461 989.68,-455 995.68,-455 995.68,-455 1055.14,-455 1055.14,-455 1061.14,-455 1067.14,-461 1067.14,-467 1067.14,-467 1067.14,-479 1067.14,-479 1067.14,-485 1061.14,-491 1055.14,-491"/>
<text xml:space="preserve" text-anchor="middle" x="1025.41" y="-475.5" font-family="Arial" font-size="10.00">&#45;&#45;report&#45;file FILE</text>
<text xml:space="preserve" text-anchor="middle" x="1025.41" y="-463.5" font-family="Arial" font-size="10.00">optionnel</text>
</g>
<!-- JsonObject&#45;&gt;ReportOption -->
<g id="edge9" class="edge">
<title>JsonObject&#45;&gt;ReportOption</title>
<path fill="none" stroke="#455a64" d="M909.69,-419.35C930.06,-428.88 955.12,-440.6 976.61,-450.65"/>
<polygon fill="#455a64" stroke="#455a64" points="975.16,-453.06 983.59,-453.91 977.53,-447.99 975.16,-453.06"/>
</g>
<!-- Identity -->
<g id="node11" class="node">
<title>Identity</title>
<path fill="#f3e5f5" stroke="#6a1b9a" d="M1068.26,-339C1068.26,-339 982.55,-339 982.55,-339 976.55,-339 970.55,-333 970.55,-327 970.55,-327 970.55,-315 970.55,-315 970.55,-309 976.55,-303 982.55,-303 982.55,-303 1068.26,-303 1068.26,-303 1074.26,-303 1080.26,-309 1080.26,-315 1080.26,-315 1080.26,-327 1080.26,-327 1080.26,-333 1074.26,-339 1068.26,-339"/>
<text xml:space="preserve" text-anchor="middle" x="1025.41" y="-323.5" font-family="Arial" font-size="10.00">query / prefixed_query</text>
<text xml:space="preserve" text-anchor="middle" x="1025.41" y="-311.5" font-family="Arial" font-size="10.00">index</text>
</g>
<!-- JsonObject&#45;&gt;Identity -->
<g id="edge11" class="edge">
<title>JsonObject&#45;&gt;Identity</title>
<path fill="none" stroke="#455a64" d="M905.77,-382.65C928.08,-371.05 957.08,-355.98 980.82,-343.65"/>
<polygon fill="#455a64" stroke="#455a64" points="981.83,-346.28 987.64,-340.1 979.25,-341.31 981.83,-346.28"/>
</g>
<!-- Model -->
<g id="node12" class="node">
<title>Model</title>
<path fill="#f3e5f5" stroke="#6a1b9a" d="M1066.39,-267C1066.39,-267 984.43,-267 984.43,-267 978.43,-267 972.43,-261 972.43,-255 972.43,-255 972.43,-243 972.43,-243 972.43,-237 978.43,-231 984.43,-231 984.43,-231 1066.39,-231 1066.39,-231 1072.39,-231 1078.39,-237 1078.39,-243 1078.39,-243 1078.39,-255 1078.39,-255 1078.39,-261 1072.39,-267 1066.39,-267"/>
<text xml:space="preserve" text-anchor="middle" x="1025.41" y="-251.5" font-family="Arial" font-size="10.00">model / backend</text>
<text xml:space="preserve" text-anchor="middle" x="1025.41" y="-239.5" font-family="Arial" font-size="10.00">tokenizer / dimension</text>
</g>
<!-- JsonObject&#45;&gt;Model -->
<g id="edge12" class="edge">
<title>JsonObject&#45;&gt;Model</title>
<path fill="none" stroke="#455a64" d="M881.78,-382.77C897.63,-358.34 928.33,-314.62 962.55,-285 967.83,-280.43 973.78,-276.12 979.85,-272.2"/>
<polygon fill="#455a64" stroke="#455a64" points="980.94,-274.81 986.27,-268.22 977.99,-270.05 980.94,-274.81"/>
</g>
<!-- Hits -->
<g id="node13" class="node">
<title>Hits</title>
<path fill="#f3e5f5" stroke="#6a1b9a" d="M1040.41,-195C1040.41,-195 1010.41,-195 1010.41,-195 1004.41,-195 998.41,-189 998.41,-183 998.41,-183 998.41,-171 998.41,-171 998.41,-165 1004.41,-159 1010.41,-159 1010.41,-159 1040.41,-159 1040.41,-159 1046.41,-159 1052.41,-165 1052.41,-171 1052.41,-171 1052.41,-183 1052.41,-183 1052.41,-189 1046.41,-195 1040.41,-195"/>
<text xml:space="preserve" text-anchor="middle" x="1025.41" y="-179.5" font-family="Arial" font-size="10.00">hit_count</text>
<text xml:space="preserve" text-anchor="middle" x="1025.41" y="-167.5" font-family="Arial" font-size="10.00">hits[]</text>
</g>
<!-- JsonObject&#45;&gt;Hits -->
<g id="edge13" class="edge">
<title>JsonObject&#45;&gt;Hits</title>
<path fill="none" stroke="#455a64" d="M875.5,-382.62C886.24,-346.38 914.38,-264.74 962.55,-213 970.15,-204.84 980.01,-197.98 989.63,-192.51"/>
<polygon fill="#455a64" stroke="#455a64" points="990.88,-195.01 996.62,-188.77 988.24,-190.07 990.88,-195.01"/>
</g>
<!-- Context -->
<g id="node14" class="node">
<title>Context</title>
<path fill="#f3e5f5" stroke="#6a1b9a" d="M1052.51,-123C1052.51,-123 998.3,-123 998.3,-123 992.3,-123 986.3,-117 986.3,-111 986.3,-111 986.3,-99 986.3,-99 986.3,-93 992.3,-87 998.3,-87 998.3,-87 1052.51,-87 1052.51,-87 1058.51,-87 1064.51,-93 1064.51,-99 1064.51,-99 1064.51,-111 1064.51,-111 1064.51,-117 1058.51,-123 1052.51,-123"/>
<text xml:space="preserve" text-anchor="middle" x="1025.41" y="-107.5" font-family="Arial" font-size="10.00">score + source</text>
<text xml:space="preserve" text-anchor="middle" x="1025.41" y="-95.5" font-family="Arial" font-size="10.00">lines + excerpt</text>
</g>
<!-- JsonObject&#45;&gt;Context -->
<g id="edge14" class="edge">
<title>JsonObject&#45;&gt;Context</title>
<path fill="none" stroke="#455a64" d="M872.54,-382.82C878.63,-337.25 900.06,-216.4 962.55,-141 966.91,-135.74 972.25,-131.08 977.95,-127"/>
<polygon fill="#455a64" stroke="#455a64" points="979.47,-129.35 984.62,-122.63 976.4,-124.67 979.47,-129.35"/>
</g>
<!-- ReportFile -->
<g id="node10" class="node">
<title>ReportFile</title>
<path fill="#e8f5e9" stroke="#2e7d32" d="M1276.47,-441C1276.47,-441 1198.26,-441 1198.26,-441 1192.26,-441 1186.26,-435 1186.26,-429 1186.26,-429 1186.26,-417 1186.26,-417 1186.26,-411 1192.26,-405 1198.26,-405 1198.26,-405 1276.47,-405 1276.47,-405 1282.47,-405 1288.47,-411 1288.47,-417 1288.47,-417 1288.47,-429 1288.47,-429 1288.47,-435 1282.47,-441 1276.47,-441"/>
<text xml:space="preserve" text-anchor="middle" x="1237.37" y="-425.5" font-family="Arial" font-size="10.00">rapport JSON stable</text>
<text xml:space="preserve" text-anchor="middle" x="1237.37" y="-413.5" font-family="Arial" font-size="10.00">atomique</text>
</g>
<!-- ReportOption&#45;&gt;ReportFile -->
<g id="edge10" class="edge">
<title>ReportOption&#45;&gt;ReportFile</title>
<path fill="none" stroke="#455a64" d="M1067.39,-463.24C1098.5,-455.83 1141.74,-445.53 1176.69,-437.21"/>
<polygon fill="#455a64" stroke="#455a64" points="1177.24,-439.96 1184.37,-435.38 1175.94,-434.51 1177.24,-439.96"/>
<text xml:space="preserve" text-anchor="middle" x="1133.26" y="-454.43" font-family="Arial" font-size="9.00">si demandé</text>
</g>
<!-- NoScheduler -->
<g id="node15" class="node">
<title>NoScheduler</title>
<polygon fill="#fafafa" stroke="#78909c" points="1489.93,-585 1407.22,-585 1407.22,-549 1495.93,-549 1495.93,-579 1489.93,-585"/>
<polyline fill="none" stroke="#78909c" points="1489.93,-585 1489.93,-579"/>
<polyline fill="none" stroke="#78909c" points="1495.93,-579 1489.93,-579"/>
<text xml:space="preserve" text-anchor="middle" x="1451.58" y="-563.5" font-family="Arial" font-size="10.00">pas de Scheduler</text>
</g>
<!-- ReportFile&#45;&gt;NoScheduler -->
<g id="edge15" class="edge">
<title>ReportFile&#45;&gt;NoScheduler</title>
<path fill="none" stroke="#455a64" stroke-dasharray="1,5" d="M1259.63,-441.39C1275.25,-454.6 1297.18,-472.55 1317.47,-487 1347.55,-508.43 1356.29,-512.01 1387.97,-531 1395.08,-535.26 1402.69,-539.72 1410.07,-543.99"/>
<polygon fill="#455a64" stroke="#455a64" points="1408.31,-546.21 1416.64,-547.78 1411.11,-541.36 1408.31,-546.21"/>
</g>
<!-- NoQdrant -->
<g id="node16" class="node">
<title>NoQdrant</title>
<polygon fill="#fafafa" stroke="#78909c" points="1482.81,-513 1414.35,-513 1414.35,-477 1488.81,-477 1488.81,-507 1482.81,-513"/>
<polyline fill="none" stroke="#78909c" points="1482.81,-513 1482.81,-507"/>
<polyline fill="none" stroke="#78909c" points="1488.81,-507 1482.81,-507"/>
<text xml:space="preserve" text-anchor="middle" x="1451.58" y="-491.5" font-family="Arial" font-size="10.00">pas de Qdrant</text>
</g>
<!-- ReportFile&#45;&gt;NoQdrant -->
<g id="edge16" class="edge">
<title>ReportFile&#45;&gt;NoQdrant</title>
<path fill="none" stroke="#455a64" stroke-dasharray="1,5" d="M1288.95,-441.08C1298.42,-444.42 1308.23,-447.84 1317.47,-451 1346.62,-460.97 1379.48,-471.84 1405.26,-480.28"/>
<polygon fill="#455a64" stroke="#455a64" points="1404.15,-482.87 1412.63,-482.69 1405.89,-477.54 1404.15,-482.87"/>
</g>
<!-- NoFormatChange -->
<g id="node17" class="node">
<title>NoFormatChange</title>
<polygon fill="#fafafa" stroke="#78909c" points="1488.81,-441 1408.35,-441 1408.35,-405 1494.81,-405 1494.81,-435 1488.81,-441"/>
<polyline fill="none" stroke="#78909c" points="1488.81,-441 1488.81,-435"/>
<polyline fill="none" stroke="#78909c" points="1494.81,-435 1488.81,-435"/>
<text xml:space="preserve" text-anchor="middle" x="1451.58" y="-425.5" font-family="Arial" font-size="10.00">format corpus v1</text>
<text xml:space="preserve" text-anchor="middle" x="1451.58" y="-413.5" font-family="Arial" font-size="10.00">inaltéré</text>
</g>
<!-- ReportFile&#45;&gt;NoFormatChange -->
<g id="edge17" class="edge">
<title>ReportFile&#45;&gt;NoFormatChange</title>
<path fill="none" stroke="#455a64" stroke-dasharray="1,5" d="M1288.92,-423C1322.09,-423 1365.35,-423 1398.77,-423"/>
<polygon fill="#455a64" stroke="#455a64" points="1398.4,-425.8 1406.4,-423 1398.4,-420.2 1398.4,-425.8"/>
</g>
<!-- NoSvg -->
<g id="node18" class="node">
<title>NoSvg</title>
<polygon fill="#fafafa" stroke="#78909c" points="1501.18,-369 1395.97,-369 1395.97,-333 1507.18,-333 1507.18,-363 1501.18,-369"/>
<polyline fill="none" stroke="#78909c" points="1501.18,-369 1501.18,-363"/>
<polyline fill="none" stroke="#78909c" points="1507.18,-363 1501.18,-363"/>
<text xml:space="preserve" text-anchor="middle" x="1451.58" y="-347.5" font-family="Arial" font-size="10.00">pas de SVG versionné</text>
</g>
<!-- ReportFile&#45;&gt;NoSvg -->
<g id="edge18" class="edge">
<title>ReportFile&#45;&gt;NoSvg</title>
<path fill="none" stroke="#455a64" stroke-dasharray="1,5" d="M1288.92,-405.85C1318.51,-395.81 1356.11,-383.05 1387.61,-372.36"/>
<polygon fill="#455a64" stroke="#455a64" points="1388.21,-375.12 1394.88,-369.9 1386.41,-369.81 1388.21,-375.12"/>
</g>
<!-- CodeStyle -->
<g id="node22" class="node">
<title>CodeStyle</title>
<g id="a_node22"><a xlink:href="66_e5_code_style_alignment.svg" xlink:title="Phase 4.12\ncode_rule alignment">
<path fill="#ede7f6" stroke="#5e35b1" d="M1489.56,-297C1489.56,-297 1413.6,-297 1413.6,-297 1407.6,-297 1401.6,-291 1401.6,-285 1401.6,-285 1401.6,-273 1401.6,-273 1401.6,-267 1407.6,-261 1413.6,-261 1413.6,-261 1489.56,-261 1489.56,-261 1495.56,-261 1501.56,-267 1501.56,-273 1501.56,-273 1501.56,-285 1501.56,-285 1501.56,-291 1495.56,-297 1489.56,-297"/>
<text xml:space="preserve" text-anchor="middle" x="1451.58" y="-281.5" font-family="Arial" font-size="10.00">Phase 4.12</text>
<text xml:space="preserve" text-anchor="middle" x="1451.58" y="-269.5" font-family="Arial" font-size="10.00">code_rule alignment</text>
</a>
</g>
</g>
<!-- ReportFile&#45;&gt;CodeStyle -->
<g id="edge22" class="edge">
<title>ReportFile&#45;&gt;CodeStyle</title>
<path fill="none" stroke="#455a64" stroke-dasharray="5,2" d="M1260.81,-404.7C1276.43,-392.18 1297.89,-375.39 1317.47,-361.5 1347.89,-339.92 1356.24,-335.6 1387.97,-316 1395.31,-311.47 1403.18,-306.72 1410.79,-302.2"/>
<polygon fill="#455a64" stroke="#455a64" points="1412.14,-304.65 1417.6,-298.16 1409.29,-299.83 1412.14,-304.65"/>
<text xml:space="preserve" text-anchor="middle" x="1342.22" y="-363.45" font-family="Arial" font-size="9.00">reprise style</text>
</g>
<!-- ScoreGuard -->
<g id="node19" class="node">
<title>ScoreGuard</title>
<g id="a_node19"><a xlink:href="57_e5_score_guard.svg" xlink:title="Phase 4.3&#10;score guard">
<path fill="#fff3e0" stroke="#ef6c00" d="M131.21,-196C131.21,-196 91.25,-196 91.25,-196 85.25,-196 79.25,-190 79.25,-184 79.25,-184 79.25,-172 79.25,-172 79.25,-166 85.25,-160 91.25,-160 91.25,-160 131.21,-160 131.21,-160 137.21,-160 143.21,-166 143.21,-172 143.21,-172 143.21,-184 143.21,-184 143.21,-190 137.21,-196 131.21,-196"/>
<text xml:space="preserve" text-anchor="middle" x="111.23" y="-180.5" font-family="Arial" font-size="10.00">Phase 4.3</text>
<text xml:space="preserve" text-anchor="middle" x="111.23" y="-168.5" font-family="Arial" font-size="10.00">score guard</text>
</a>
</g>
</g>
<!-- ScoreGuard&#45;&gt;MinScore -->
<g id="edge19" class="edge">
<title>ScoreGuard&#45;&gt;MinScore</title>
<path fill="none" stroke="#455a64" d="M143.28,-189.12C183.34,-203.47 253.04,-228.44 296.61,-244.05"/>
<polygon fill="#455a64" stroke="#455a64" points="295.59,-246.65 304.06,-246.72 297.48,-241.38 295.59,-246.65"/>
<text xml:space="preserve" text-anchor="middle" x="245.21" y="-229.47" font-family="Arial" font-size="9.00">seuil</text>
</g>
<!-- SearchReport -->
<g id="node20" class="node">
<title>SearchReport</title>
<g id="a_node20"><a xlink:href="52_e5_search_report.svg" xlink:title="Phase 3.14 / 4.2&#10;search report">
<path fill="#fff3e0" stroke="#ef6c00" d="M141.71,-124C141.71,-124 80.75,-124 80.75,-124 74.75,-124 68.75,-118 68.75,-112 68.75,-112 68.75,-100 68.75,-100 68.75,-94 74.75,-88 80.75,-88 80.75,-88 141.71,-88 141.71,-88 147.71,-88 153.71,-94 153.71,-100 153.71,-100 153.71,-112 153.71,-112 153.71,-118 147.71,-124 141.71,-124"/>
<text xml:space="preserve" text-anchor="middle" x="111.23" y="-108.5" font-family="Arial" font-size="10.00">Phase 3.14 / 4.2</text>
<text xml:space="preserve" text-anchor="middle" x="111.23" y="-96.5" font-family="Arial" font-size="10.00">search report</text>
</a>
</g>
</g>
<!-- SearchReport&#45;&gt;Report -->
<g id="edge20" class="edge">
<title>SearchReport&#45;&gt;Report</title>
<path fill="none" stroke="#455a64" d="M154.1,-120.47C172.63,-126.95 194.67,-134.75 214.46,-142 373.8,-200.39 560.71,-272.62 652.04,-308.16"/>
<polygon fill="#455a64" stroke="#455a64" points="650.96,-310.74 659.43,-311.03 652.99,-305.52 650.96,-310.74"/>
<text xml:space="preserve" text-anchor="middle" x="442.17" y="-237.51" font-family="Arial" font-size="9.00">projection</text>
</g>
<!-- RebuildReport -->
<g id="node21" class="node">
<title>RebuildReport</title>
<g id="a_node21"><a xlink:href="64_e5_rebuild_report_file.svg" xlink:title="Phase 4.10&#10;rebuild report file">
<path fill="#fff3e0" stroke="#ef6c00" d="M141.71,-52C141.71,-52 80.75,-52 80.75,-52 74.75,-52 68.75,-46 68.75,-40 68.75,-40 68.75,-28 68.75,-28 68.75,-22 74.75,-16 80.75,-16 80.75,-16 141.71,-16 141.71,-16 147.71,-16 153.71,-22 153.71,-28 153.71,-28 153.71,-40 153.71,-40 153.71,-46 147.71,-52 141.71,-52"/>
<text xml:space="preserve" text-anchor="middle" x="111.23" y="-36.5" font-family="Arial" font-size="10.00">Phase 4.10</text>
<text xml:space="preserve" text-anchor="middle" x="111.23" y="-24.5" font-family="Arial" font-size="10.00">rebuild report file</text>
</a>
</g>
</g>
<!-- RebuildReport&#45;&gt;ReportFile -->
<g id="edge21" class="edge">
<title>RebuildReport&#45;&gt;ReportFile</title>
<path fill="none" stroke="#455a64" stroke-dasharray="5,2" d="M153.8,-33.41C198.65,-32.82 272.17,-32 335.57,-32 335.57,-32 335.57,-32 1026.41,-32 1191.48,-32 1227.31,-305.85 1234.6,-395.19"/>
<polygon fill="#455a64" stroke="#455a64" points="1231.81,-395.39 1235.21,-403.16 1237.4,-394.97 1231.81,-395.39"/>
<text xml:space="preserve" text-anchor="middle" x="708.99" y="-33.95" font-family="Arial" font-size="9.00">même principe artefact</text>
</g>
<!-- Legend -->
<g id="node23" class="node">
<title>Legend</title>
<path fill="#ffffff" stroke="none" d="M194.46,-561.32C194.46,-561.32 28,-561.32 28,-561.32 22,-561.32 16,-555.32 16,-549.32 16,-549.32 16,-476.68 16,-476.68 16,-470.68 22,-464.68 28,-464.68 28,-464.68 194.46,-464.68 194.46,-464.68 200.46,-464.68 206.46,-470.68 206.46,-476.68 206.46,-476.68 206.46,-549.32 206.46,-549.32 206.46,-555.32 200.46,-561.32 194.46,-561.32"/>
<polygon fill="#e3f2fd" stroke="none" points="22.48,-535 22.48,-557 63.98,-557 63.98,-535 22.48,-535"/>
<polygon fill="none" stroke="#ffffff" points="22.48,-535 22.48,-557 63.98,-557 63.98,-535 22.48,-535"/>
<text xml:space="preserve" text-anchor="start" x="33.48" y="-542.25" font-family="Arial" font-size="10.00">Bleu</text>
<polygon fill="none" stroke="#ffffff" points="63.98,-535 63.98,-557 199.98,-557 199.98,-535 63.98,-535"/>
<text xml:space="preserve" text-anchor="start" x="88.86" y="-542.25" font-family="Arial" font-size="10.00">recherche locale E5</text>
<polygon fill="#e8f5e9" stroke="none" points="22.48,-513 22.48,-535 63.98,-535 63.98,-513 22.48,-513"/>
<polygon fill="none" stroke="#ffffff" points="22.48,-513 22.48,-535 63.98,-535 63.98,-513 22.48,-513"/>
<text xml:space="preserve" text-anchor="start" x="34.61" y="-520.25" font-family="Arial" font-size="10.00">Vert</text>
<polygon fill="none" stroke="#ffffff" points="63.98,-513 63.98,-535 199.98,-535 199.98,-513 63.98,-513"/>
<text xml:space="preserve" text-anchor="start" x="91.11" y="-520.25" font-family="Arial" font-size="10.00">sorties et artefacts</text>
<polygon fill="#f3e5f5" stroke="none" points="22.48,-491 22.48,-513 63.98,-513 63.98,-491 22.48,-491"/>
<polygon fill="none" stroke="#ffffff" points="22.48,-491 22.48,-513 63.98,-513 63.98,-491 22.48,-491"/>
<text xml:space="preserve" text-anchor="start" x="30.86" y="-498.25" font-family="Arial" font-size="10.00">Violet</text>
<polygon fill="none" stroke="#ffffff" points="63.98,-491 63.98,-513 199.98,-513 199.98,-491 63.98,-491"/>
<text xml:space="preserve" text-anchor="start" x="68.98" y="-498.25" font-family="Arial" font-size="10.00">contenu technique du rapport</text>
<polygon fill="#fff3e0" stroke="none" points="22.48,-469 22.48,-491 63.98,-491 63.98,-469 22.48,-469"/>
<polygon fill="none" stroke="#ffffff" points="22.48,-469 22.48,-491 63.98,-491 63.98,-469 22.48,-469"/>
<text xml:space="preserve" text-anchor="start" x="27.48" y="-476.25" font-family="Arial" font-size="10.00">Orange</text>
<polygon fill="none" stroke="#ffffff" points="63.98,-469 63.98,-491 199.98,-491 199.98,-469 63.98,-469"/>
<text xml:space="preserve" text-anchor="start" x="89.61" y="-476.25" font-family="Arial" font-size="10.00">navigation roadmap</text>
</g>
</g>
</svg>
