<?xml version="1.0" encoding="UTF-8" standalone="no"?>
<!DOCTYPE svg PUBLIC "-//W3C//DTD SVG 1.1//EN"
 "http://www.w3.org/Graphics/SVG/1.1/DTD/svg11.dtd">
<!-- Generated by graphviz version 14.1.3 (20260303.0454)
 -->
<!-- Title: E5CodeStyleAlignment Pages: 1 -->
<svg width="1694pt" height="1012pt"
 viewBox="0.00 0.00 1694.00 1012.00" xmlns="http://www.w3.org/2000/svg" xmlns:xlink="http://www.w3.org/1999/xlink">
<g id="graph0" class="graph" transform="scale(1 1) rotate(0) translate(18 993.7)">
<title>E5CodeStyleAlignment</title>
<polygon fill="white" stroke="none" points="-18,18 -18,-993.7 1675.97,-993.7 1675.97,18 -18,18"/>
<text xml:space="preserve" text-anchor="middle" x="828.99" y="-962.2" font-family="Arial" font-size="10.00">Phase 4.12&#45;r2 — E5 code style alignment</text>
<g id="clust1" class="cluster">
<title>cluster_code_rule</title>
<polygon fill="#ede7f6" stroke="#5e35b1" stroke-width="1.5" points="612.17,-579.7 612.17,-795.7 931.34,-795.7 931.34,-579.7 612.17,-579.7"/>
<text xml:space="preserve" text-anchor="middle" x="771.76" y="-782.2" font-family="Arial" font-size="10.00">Contrat vivant</text>
</g>
<g id="clust2" class="cluster">
<title>cluster_contracts</title>
<polygon fill="#e3f2fd" stroke="#1565c0" stroke-width="1.5" points="1073.84,-699.7 1073.84,-843.7 1641.35,-843.7 1641.35,-699.7 1073.84,-699.7"/>
<text xml:space="preserve" text-anchor="middle" x="1357.59" y="-830.2" font-family="Arial" font-size="10.00">Commandes et politiques</text>
</g>
<g id="clust3" class="cluster">
<title>cluster_usecases</title>
<polygon fill="#e8f5e9" stroke="#2e7d32" stroke-width="1.5" points="1510.76,-366.7 1510.76,-654.7 1649.97,-654.7 1649.97,-366.7 1510.76,-366.7"/>
<text xml:space="preserve" text-anchor="middle" x="1580.37" y="-641.2" font-family="Arial" font-size="10.00">Use&#45;cases E5 réalignés</text>
</g>
<g id="clust4" class="cluster">
<title>cluster_reports</title>
<polygon fill="#fff3e0" stroke="#ef6c00" stroke-width="1.5" points="342.96,-803.7 342.96,-947.7 737.13,-947.7 737.13,-803.7 342.96,-803.7"/>
<text xml:space="preserve" text-anchor="middle" x="540.05" y="-934.2" font-family="Arial" font-size="10.00">Rapports atomiques</text>
</g>
<g id="clust5" class="cluster">
<title>cluster_tests</title>
<polygon fill="#ffebee" stroke="#c62828" stroke-width="1.5" points="69.38,-354.7 69.38,-570.7 238.59,-570.7 238.59,-354.7 69.38,-354.7"/>
<text xml:space="preserve" text-anchor="middle" x="153.98" y="-557.2" font-family="Arial" font-size="10.00">Anti&#45;dérapage</text>
</g>
<g id="clust6" class="cluster">
<title>cluster_scope</title>
<polygon fill="#fafafa" stroke="#b0bec5" points="792.13,-69.7 792.13,-357.7 919.34,-357.7 919.34,-69.7 792.13,-69.7"/>
<text xml:space="preserve" text-anchor="middle" x="855.74" y="-344.2" font-family="Arial" font-size="10.00">Hors périmètre 4.12</text>
</g>
<g id="clust7" class="cluster">
<title>cluster_legend</title>
<polygon fill="#ffffff" stroke="#cfd8dc" points="8,-704.7 8,-858.7 299.96,-858.7 299.96,-704.7 8,-704.7"/>
<text xml:space="preserve" text-anchor="middle" x="153.98" y="-845.2" font-family="Arial" font-size="10.00">Légende</text>
</g>
<!-- CodeRule -->
<g id="node1" class="node">
<title>CodeRule</title>
<path fill="#ede7f6" stroke="#5e35b1" d="M698.38,-623.7C698.38,-623.7 632.17,-623.7 632.17,-623.7 626.17,-623.7 620.17,-617.7 620.17,-611.7 620.17,-611.7 620.17,-599.7 620.17,-599.7 620.17,-593.7 626.17,-587.7 632.17,-587.7 632.17,-587.7 698.38,-587.7 698.38,-587.7 704.38,-587.7 710.38,-593.7 710.38,-599.7 710.38,-599.7 710.38,-611.7 710.38,-611.7 710.38,-617.7 704.38,-623.7 698.38,-623.7"/>
<text xml:space="preserve" text-anchor="middle" x="665.27" y="-608.2" font-family="Arial" font-size="10.00">doc/code_rule.md</text>
<text xml:space="preserve" text-anchor="middle" x="665.27" y="-596.2" font-family="Arial" font-size="10.00">source de vérité</text>
</g>
<!-- KernelRule -->
<g id="node2" class="node">
<title>KernelRule</title>
<path fill="#ede7f6" stroke="#5e35b1" d="M892.22,-623.7C892.22,-623.7 819.25,-623.7 819.25,-623.7 813.25,-623.7 807.25,-617.7 807.25,-611.7 807.25,-611.7 807.25,-599.7 807.25,-599.7 807.25,-593.7 813.25,-587.7 819.25,-587.7 819.25,-587.7 892.22,-587.7 892.22,-587.7 898.22,-587.7 904.22,-593.7 904.22,-599.7 904.22,-599.7 904.22,-611.7 904.22,-611.7 904.22,-617.7 898.22,-623.7 892.22,-623.7"/>
<text xml:space="preserve" text-anchor="middle" x="855.74" y="-608.2" font-family="Arial" font-size="10.00">kernel components</text>
<text xml:space="preserve" text-anchor="middle" x="855.74" y="-596.2" font-family="Arial" font-size="10.00">Event &#45;&gt; Scheduler</text>
</g>
<!-- CodeRule&#45;&gt;KernelRule -->
<g id="edge1" class="edge">
<title>CodeRule&#45;&gt;KernelRule</title>
<path fill="none" stroke="#455a64" d="M710.46,-605.7C736.46,-605.7 769.62,-605.7 797.59,-605.7"/>
<polygon fill="#455a64" stroke="#455a64" points="797.35,-608.5 805.35,-605.7 797.35,-602.9 797.35,-608.5"/>
</g>
<!-- CliAdapter -->
<g id="node3" class="node">
<title>CliAdapter</title>
<path fill="#ede7f6" stroke="#5e35b1" d="M911.34,-767.7C911.34,-767.7 800.13,-767.7 800.13,-767.7 794.13,-767.7 788.13,-761.7 788.13,-755.7 788.13,-755.7 788.13,-743.7 788.13,-743.7 788.13,-737.7 794.13,-731.7 800.13,-731.7 800.13,-731.7 911.34,-731.7 911.34,-731.7 917.34,-731.7 923.34,-737.7 923.34,-743.7 923.34,-743.7 923.34,-755.7 923.34,-755.7 923.34,-761.7 917.34,-767.7 911.34,-767.7"/>
<text xml:space="preserve" text-anchor="middle" x="855.74" y="-752.2" font-family="Arial" font-size="10.00">CLI adaptateur temporaire</text>
<text xml:space="preserve" text-anchor="middle" x="855.74" y="-740.2" font-family="Arial" font-size="10.00">pas une exception au noyau</text>
</g>
<!-- CodeRule&#45;&gt;CliAdapter -->
<g id="edge2" class="edge">
<title>CodeRule&#45;&gt;CliAdapter</title>
<path fill="none" stroke="#455a64" d="M684.15,-623.95C706.98,-646.66 748.29,-685.83 788.13,-713.7 794.63,-718.25 801.77,-722.66 808.89,-726.73"/>
<polygon fill="#455a64" stroke="#455a64" points="807.52,-729.17 815.87,-730.62 810.24,-724.28 807.52,-729.17"/>
</g>
<!-- ReviewRule -->
<g id="node4" class="node">
<title>ReviewRule</title>
<path fill="#ede7f6" stroke="#5e35b1" d="M908.34,-695.7C908.34,-695.7 803.13,-695.7 803.13,-695.7 797.13,-695.7 791.13,-689.7 791.13,-683.7 791.13,-683.7 791.13,-671.7 791.13,-671.7 791.13,-665.7 797.13,-659.7 803.13,-659.7 803.13,-659.7 908.34,-659.7 908.34,-659.7 914.34,-659.7 920.34,-665.7 920.34,-671.7 920.34,-671.7 920.34,-683.7 920.34,-683.7 920.34,-689.7 914.34,-695.7 908.34,-695.7"/>
<text xml:space="preserve" text-anchor="middle" x="855.74" y="-680.2" font-family="Arial" font-size="10.00">revue code_rule</text>
<text xml:space="preserve" text-anchor="middle" x="855.74" y="-668.2" font-family="Arial" font-size="10.00">obligatoire à chaque phase</text>
</g>
<!-- CodeRule&#45;&gt;ReviewRule -->
<g id="edge3" class="edge">
<title>CodeRule&#45;&gt;ReviewRule</title>
<path fill="none" stroke="#455a64" d="M710.46,-622.58C736.48,-632.52 769.66,-645.2 797.64,-655.89"/>
<polygon fill="#455a64" stroke="#455a64" points="796.64,-658.51 805.12,-658.74 798.64,-653.27 796.64,-658.51"/>
</g>
<!-- NoQdrant -->
<g id="node20" class="node">
<title>NoQdrant</title>
<path fill="#fafafa" stroke="#78909c" d="M880.97,-257.7C880.97,-257.7 830.5,-257.7 830.5,-257.7 824.5,-257.7 818.5,-251.7 818.5,-245.7 818.5,-245.7 818.5,-233.7 818.5,-233.7 818.5,-227.7 824.5,-221.7 830.5,-221.7 830.5,-221.7 880.97,-221.7 880.97,-221.7 886.97,-221.7 892.97,-227.7 892.97,-233.7 892.97,-233.7 892.97,-245.7 892.97,-245.7 892.97,-251.7 886.97,-257.7 880.97,-257.7"/>
<text xml:space="preserve" text-anchor="middle" x="855.74" y="-236.2" font-family="Arial" font-size="10.00">pas de Qdrant</text>
</g>
<!-- CodeRule&#45;&gt;NoQdrant -->
<g id="edge25" class="edge">
<title>CodeRule&#45;&gt;NoQdrant</title>
<path fill="none" stroke="#455a64" stroke-dasharray="1,5" d="M668.47,-587.34C675.8,-533.34 703.89,-372.82 788.13,-275.7 794.2,-268.7 801.98,-262.83 810.07,-257.99"/>
<polygon fill="#455a64" stroke="#455a64" points="811.23,-260.54 816.88,-254.22 808.52,-255.64 811.23,-260.54"/>
</g>
<!-- NoScheduler -->
<g id="node21" class="node">
<title>NoScheduler</title>
<path fill="#fafafa" stroke="#78909c" d="M888.09,-185.7C888.09,-185.7 823.38,-185.7 823.38,-185.7 817.38,-185.7 811.38,-179.7 811.38,-173.7 811.38,-173.7 811.38,-161.7 811.38,-161.7 811.38,-155.7 817.38,-149.7 823.38,-149.7 823.38,-149.7 888.09,-149.7 888.09,-149.7 894.09,-149.7 900.09,-155.7 900.09,-161.7 900.09,-161.7 900.09,-173.7 900.09,-173.7 900.09,-179.7 894.09,-185.7 888.09,-185.7"/>
<text xml:space="preserve" text-anchor="middle" x="855.74" y="-164.2" font-family="Arial" font-size="10.00">pas de Scheduler</text>
</g>
<!-- CodeRule&#45;&gt;NoScheduler -->
<g id="edge26" class="edge">
<title>CodeRule&#45;&gt;NoScheduler</title>
<path fill="none" stroke="#455a64" stroke-dasharray="1,5" d="M669.91,-587.3C684.11,-516.92 737.5,-265.69 788.13,-203.7 792.36,-198.52 797.54,-193.98 803.12,-190.02"/>
<polygon fill="#455a64" stroke="#455a64" points="804.45,-192.5 809.66,-185.81 801.42,-187.79 804.45,-192.5"/>
</g>
<!-- NoSchema -->
<g id="node22" class="node">
<title>NoSchema</title>
<path fill="#fafafa" stroke="#78909c" d="M896.34,-113.7C896.34,-113.7 815.13,-113.7 815.13,-113.7 809.13,-113.7 803.13,-107.7 803.13,-101.7 803.13,-101.7 803.13,-89.7 803.13,-89.7 803.13,-83.7 809.13,-77.7 815.13,-77.7 815.13,-77.7 896.34,-77.7 896.34,-77.7 902.34,-77.7 908.34,-83.7 908.34,-89.7 908.34,-89.7 908.34,-101.7 908.34,-101.7 908.34,-107.7 902.34,-113.7 896.34,-113.7"/>
<text xml:space="preserve" text-anchor="middle" x="855.74" y="-98.2" font-family="Arial" font-size="10.00">pas de changement</text>
<text xml:space="preserve" text-anchor="middle" x="855.74" y="-86.2" font-family="Arial" font-size="10.00">missipy.e5.corpus.v1</text>
</g>
<!-- CodeRule&#45;&gt;NoSchema -->
<g id="edge27" class="edge">
<title>CodeRule&#45;&gt;NoSchema</title>
<path fill="none" stroke="#455a64" stroke-dasharray="1,5" d="M670.08,-587.37C687.35,-504.73 758.79,-169.23 788.13,-131.7 791.74,-127.08 796.12,-122.98 800.88,-119.35"/>
<polygon fill="#455a64" stroke="#455a64" points="802.37,-121.72 807.39,-114.89 799.21,-117.1 802.37,-121.72"/>
</g>
<!-- NoSvg -->
<g id="node23" class="node">
<title>NoSvg</title>
<path fill="#fafafa" stroke="#78909c" d="M899.34,-329.7C899.34,-329.7 812.13,-329.7 812.13,-329.7 806.13,-329.7 800.13,-323.7 800.13,-317.7 800.13,-317.7 800.13,-305.7 800.13,-305.7 800.13,-299.7 806.13,-293.7 812.13,-293.7 812.13,-293.7 899.34,-293.7 899.34,-293.7 905.34,-293.7 911.34,-299.7 911.34,-305.7 911.34,-305.7 911.34,-317.7 911.34,-317.7 911.34,-323.7 905.34,-329.7 899.34,-329.7"/>
<text xml:space="preserve" text-anchor="middle" x="855.74" y="-308.2" font-family="Arial" font-size="10.00">pas de SVG versionné</text>
</g>
<!-- CodeRule&#45;&gt;NoSvg -->
<g id="edge28" class="edge">
<title>CodeRule&#45;&gt;NoSvg</title>
<path fill="none" stroke="#455a64" stroke-dasharray="1,5" d="M678.06,-587.31C710.39,-536.88 800.51,-396.3 838.02,-337.78"/>
<polygon fill="#455a64" stroke="#455a64" points="840.17,-339.61 842.13,-331.36 835.46,-336.58 840.17,-339.61"/>
</g>
<!-- Contracts -->
<g id="node5" class="node">
<title>Contracts</title>
<path fill="#e3f2fd" stroke="#1565c0" d="M1167.55,-765.7C1167.55,-765.7 1093.84,-765.7 1093.84,-765.7 1087.84,-765.7 1081.84,-759.7 1081.84,-753.7 1081.84,-753.7 1081.84,-741.7 1081.84,-741.7 1081.84,-735.7 1087.84,-729.7 1093.84,-729.7 1093.84,-729.7 1167.55,-729.7 1167.55,-729.7 1173.55,-729.7 1179.55,-735.7 1179.55,-741.7 1179.55,-741.7 1179.55,-753.7 1179.55,-753.7 1179.55,-759.7 1173.55,-765.7 1167.55,-765.7"/>
<text xml:space="preserve" text-anchor="middle" x="1130.7" y="-744.2" font-family="Arial" font-size="10.00">e5_cli_contracts.py</text>
</g>
<!-- CliAdapter&#45;&gt;Contracts -->
<g id="edge5" class="edge">
<title>CliAdapter&#45;&gt;Contracts</title>
<path fill="none" stroke="#455a64" d="M923.51,-749.21C969.09,-748.88 1028.86,-748.44 1072.3,-748.12"/>
<polygon fill="#455a64" stroke="#455a64" points="1072.09,-750.92 1080.07,-748.07 1072.05,-745.32 1072.09,-750.92"/>
<text xml:space="preserve" text-anchor="middle" x="1002.59" y="-750.95" font-family="Arial" font-size="9.00">traduit en intention typée</text>
</g>
<!-- UnifiedSurface -->
<g id="node19" class="node">
<title>UnifiedSurface</title>
<path fill="lightgrey" stroke="black" d="M1157.43,-691.7C1157.43,-691.7 1103.97,-691.7 1103.97,-691.7 1097.97,-691.7 1091.97,-685.7 1091.97,-679.7 1091.97,-679.7 1091.97,-667.7 1091.97,-667.7 1091.97,-661.7 1097.97,-655.7 1103.97,-655.7 1103.97,-655.7 1157.43,-655.7 1157.43,-655.7 1163.43,-655.7 1169.43,-661.7 1169.43,-667.7 1169.43,-667.7 1169.43,-679.7 1169.43,-679.7 1169.43,-685.7 1163.43,-691.7 1157.43,-691.7"/>
<text xml:space="preserve" text-anchor="middle" x="1130.7" y="-670.2" font-family="Arial" font-size="10.00">UnifiedSurface</text>
</g>
<!-- ReviewRule&#45;&gt;UnifiedSurface -->
<g id="edge4" class="edge">
<title>ReviewRule&#45;&gt;UnifiedSurface</title>
<path fill="none" stroke="#455a64" stroke-dasharray="5,2" d="M920.73,-676.76C970.2,-676.04 1037.58,-675.05 1082.3,-674.4"/>
<polygon fill="#455a64" stroke="#455a64" points="1082.29,-677.2 1090.24,-674.28 1082.2,-671.6 1082.29,-677.2"/>
<text xml:space="preserve" text-anchor="middle" x="1002.59" y="-678.24" font-family="Arial" font-size="9.00">application</text>
</g>
<!-- Commands -->
<g id="node6" class="node">
<title>Commands</title>
<path fill="#e3f2fd" stroke="#1565c0" d="M1399.63,-815.7C1399.63,-815.7 1265.92,-815.7 1265.92,-815.7 1259.92,-815.7 1253.92,-809.7 1253.92,-803.7 1253.92,-803.7 1253.92,-791.7 1253.92,-791.7 1253.92,-785.7 1259.92,-779.7 1265.92,-779.7 1265.92,-779.7 1399.63,-779.7 1399.63,-779.7 1405.63,-779.7 1411.63,-785.7 1411.63,-791.7 1411.63,-791.7 1411.63,-803.7 1411.63,-803.7 1411.63,-809.7 1405.63,-815.7 1399.63,-815.7"/>
<text xml:space="preserve" text-anchor="middle" x="1332.78" y="-800.2" font-family="Arial" font-size="10.00">Command dataclasses</text>
<text xml:space="preserve" text-anchor="middle" x="1332.78" y="-788.2" font-family="Arial" font-size="10.00">Build / Search / Rebuild / Inspect</text>
</g>
<!-- Contracts&#45;&gt;Commands -->
<g id="edge6" class="edge">
<title>Contracts&#45;&gt;Commands</title>
<path fill="none" stroke="#455a64" d="M1179.87,-759.74C1200.59,-764.92 1225.4,-771.12 1248.91,-776.99"/>
<polygon fill="#455a64" stroke="#455a64" points="1247.93,-779.63 1256.37,-778.86 1249.29,-774.2 1247.93,-779.63"/>
</g>
<!-- Policies -->
<g id="node7" class="node">
<title>Policies</title>
<path fill="#e3f2fd" stroke="#1565c0" d="M1415.01,-743.7C1415.01,-743.7 1250.55,-743.7 1250.55,-743.7 1244.55,-743.7 1238.55,-737.7 1238.55,-731.7 1238.55,-731.7 1238.55,-719.7 1238.55,-719.7 1238.55,-713.7 1244.55,-707.7 1250.55,-707.7 1250.55,-707.7 1415.01,-707.7 1415.01,-707.7 1421.01,-707.7 1427.01,-713.7 1427.01,-719.7 1427.01,-719.7 1427.01,-731.7 1427.01,-731.7 1427.01,-737.7 1421.01,-743.7 1415.01,-743.7"/>
<text xml:space="preserve" text-anchor="middle" x="1332.78" y="-728.2" font-family="Arial" font-size="10.00">Policy dataclasses</text>
<text xml:space="preserve" text-anchor="middle" x="1332.78" y="-716.2" font-family="Arial" font-size="10.00">model / source / score / gate / validation</text>
</g>
<!-- Contracts&#45;&gt;Policies -->
<g id="edge7" class="edge">
<title>Contracts&#45;&gt;Policies</title>
<path fill="none" stroke="#455a64" d="M1179.87,-742.4C1194.84,-740.76 1211.95,-738.88 1229.16,-736.98"/>
<polygon fill="#455a64" stroke="#455a64" points="1229.01,-739.82 1236.65,-736.16 1228.4,-734.25 1229.01,-739.82"/>
</g>
<!-- NoNamespace -->
<g id="node8" class="node">
<title>NoNamespace</title>
<path fill="#e3f2fd" stroke="#1565c0" d="M1621.35,-779.7C1621.35,-779.7 1539.38,-779.7 1539.38,-779.7 1533.38,-779.7 1527.38,-773.7 1527.38,-767.7 1527.38,-767.7 1527.38,-755.7 1527.38,-755.7 1527.38,-749.7 1533.38,-743.7 1539.38,-743.7 1539.38,-743.7 1621.35,-743.7 1621.35,-743.7 1627.35,-743.7 1633.35,-749.7 1633.35,-755.7 1633.35,-755.7 1633.35,-767.7 1633.35,-767.7 1633.35,-773.7 1627.35,-779.7 1621.35,-779.7"/>
<text xml:space="preserve" text-anchor="middle" x="1580.37" y="-764.2" font-family="Arial" font-size="10.00">argparse.Namespace</text>
<text xml:space="preserve" text-anchor="middle" x="1580.37" y="-752.2" font-family="Arial" font-size="10.00">reste dans l&#39;adapter</text>
</g>
<!-- Commands&#45;&gt;NoNamespace -->
<g id="edge8" class="edge">
<title>Commands&#45;&gt;NoNamespace</title>
<path fill="none" stroke="#455a64" d="M1411.82,-786.26C1446.08,-781.24 1485.72,-775.43 1517.85,-770.72"/>
<polygon fill="#455a64" stroke="#455a64" points="1518.12,-773.51 1525.63,-769.58 1517.31,-767.97 1518.12,-773.51"/>
<text xml:space="preserve" text-anchor="middle" x="1472.88" y="-781.65" font-family="Arial" font-size="9.00">frontière</text>
</g>
<!-- BuildCli -->
<g id="node9" class="node">
<title>BuildCli</title>
<path fill="#e8f5e9" stroke="#2e7d32" d="M1611.6,-626.7C1611.6,-626.7 1549.13,-626.7 1549.13,-626.7 1543.13,-626.7 1537.13,-620.7 1537.13,-614.7 1537.13,-614.7 1537.13,-602.7 1537.13,-602.7 1537.13,-596.7 1543.13,-590.7 1549.13,-590.7 1549.13,-590.7 1611.6,-590.7 1611.6,-590.7 1617.6,-590.7 1623.6,-596.7 1623.6,-602.7 1623.6,-602.7 1623.6,-614.7 1623.6,-614.7 1623.6,-620.7 1617.6,-626.7 1611.6,-626.7"/>
<text xml:space="preserve" text-anchor="middle" x="1580.37" y="-611.2" font-family="Arial" font-size="10.00">e5_corpus_cli.py</text>
<text xml:space="preserve" text-anchor="middle" x="1580.37" y="-599.2" font-family="Arial" font-size="10.00">build command</text>
</g>
<!-- Commands&#45;&gt;BuildCli -->
<g id="edge9" class="edge">
<title>Commands&#45;&gt;BuildCli</title>
<path fill="none" stroke="#455a64" d="M1392.82,-779.22C1404.59,-774.36 1416.55,-768.53 1427.01,-761.7 1482.18,-725.71 1533.39,-667.05 1560.09,-633.79"/>
<polygon fill="#455a64" stroke="#455a64" points="1561.99,-635.89 1564.77,-627.89 1557.61,-632.41 1561.99,-635.89"/>
</g>
<!-- SearchCli -->
<g id="node10" class="node">
<title>SearchCli</title>
<g id="a_node10"><a xlink:href="65_e5_search_report_file.svg" xlink:title="e5_corpus_cli.py\nsearch command">
<path fill="#e8f5e9" stroke="#2e7d32" d="M1612.35,-482.7C1612.35,-482.7 1548.38,-482.7 1548.38,-482.7 1542.38,-482.7 1536.38,-476.7 1536.38,-470.7 1536.38,-470.7 1536.38,-458.7 1536.38,-458.7 1536.38,-452.7 1542.38,-446.7 1548.38,-446.7 1548.38,-446.7 1612.35,-446.7 1612.35,-446.7 1618.35,-446.7 1624.35,-452.7 1624.35,-458.7 1624.35,-458.7 1624.35,-470.7 1624.35,-470.7 1624.35,-476.7 1618.35,-482.7 1612.35,-482.7"/>
<text xml:space="preserve" text-anchor="middle" x="1580.37" y="-467.2" font-family="Arial" font-size="10.00">e5_corpus_cli.py</text>
<text xml:space="preserve" text-anchor="middle" x="1580.37" y="-455.2" font-family="Arial" font-size="10.00">search command</text>
</a>
</g>
</g>
<!-- Commands&#45;&gt;SearchCli -->
<g id="edge10" class="edge">
<title>Commands&#45;&gt;SearchCli</title>
<path fill="none" stroke="#455a64" d="M1405.11,-779.27C1413.4,-774.66 1421.01,-768.9 1427.01,-761.7 1471.32,-708.54 1433.7,-674.22 1456.01,-608.7 1473.36,-557.76 1472.98,-539.02 1510.76,-500.7 1515.81,-495.58 1521.74,-491.03 1527.96,-487.04"/>
<polygon fill="#455a64" stroke="#455a64" points="1529.22,-489.55 1534.65,-483.05 1526.35,-484.74 1529.22,-489.55"/>
</g>
<!-- RebuildCli -->
<g id="node11" class="node">
<title>RebuildCli</title>
<g id="a_node11"><a xlink:href="64_e5_rebuild_report_file.svg" xlink:title="e5_rebuild_cli.py\nrebuild command">
<path fill="#e8f5e9" stroke="#2e7d32" d="M1611.97,-410.7C1611.97,-410.7 1548.76,-410.7 1548.76,-410.7 1542.76,-410.7 1536.76,-404.7 1536.76,-398.7 1536.76,-398.7 1536.76,-386.7 1536.76,-386.7 1536.76,-380.7 1542.76,-374.7 1548.76,-374.7 1548.76,-374.7 1611.97,-374.7 1611.97,-374.7 1617.97,-374.7 1623.97,-380.7 1623.97,-386.7 1623.97,-386.7 1623.97,-398.7 1623.97,-398.7 1623.97,-404.7 1617.97,-410.7 1611.97,-410.7"/>
<text xml:space="preserve" text-anchor="middle" x="1580.37" y="-395.2" font-family="Arial" font-size="10.00">e5_rebuild_cli.py</text>
<text xml:space="preserve" text-anchor="middle" x="1580.37" y="-383.2" font-family="Arial" font-size="10.00">rebuild command</text>
</a>
</g>
</g>
<!-- Commands&#45;&gt;RebuildCli -->
<g id="edge11" class="edge">
<title>Commands&#45;&gt;RebuildCli</title>
<path fill="none" stroke="#455a64" d="M1406.04,-779.39C1414.07,-774.77 1421.37,-768.97 1427.01,-761.7 1460.63,-718.39 1437.6,-568.34 1456.01,-516.7 1465.39,-490.4 1475.07,-487.45 1489.76,-463.7 1499.3,-448.27 1497.57,-441.16 1510.76,-428.7 1515.99,-423.77 1522.02,-419.32 1528.3,-415.38"/>
<polygon fill="#455a64" stroke="#455a64" points="1529.55,-417.89 1535.03,-411.42 1526.71,-413.06 1529.55,-417.89"/>
</g>
<!-- InspectCli -->
<g id="node12" class="node">
<title>InspectCli</title>
<g id="a_node12"><a xlink:href="60_e5_corpus_diagnostics.svg" xlink:title="e5_corpus_inspect_cli.py\ninspect command">
<path fill="#e8f5e9" stroke="#2e7d32" d="M1629.97,-554.7C1629.97,-554.7 1530.76,-554.7 1530.76,-554.7 1524.76,-554.7 1518.76,-548.7 1518.76,-542.7 1518.76,-542.7 1518.76,-530.7 1518.76,-530.7 1518.76,-524.7 1524.76,-518.7 1530.76,-518.7 1530.76,-518.7 1629.97,-518.7 1629.97,-518.7 1635.97,-518.7 1641.97,-524.7 1641.97,-530.7 1641.97,-530.7 1641.97,-542.7 1641.97,-542.7 1641.97,-548.7 1635.97,-554.7 1629.97,-554.7"/>
<text xml:space="preserve" text-anchor="middle" x="1580.37" y="-539.2" font-family="Arial" font-size="10.00">e5_corpus_inspect_cli.py</text>
<text xml:space="preserve" text-anchor="middle" x="1580.37" y="-527.2" font-family="Arial" font-size="10.00">inspect command</text>
</a>
</g>
</g>
<!-- Commands&#45;&gt;InspectCli -->
<g id="edge12" class="edge">
<title>Commands&#45;&gt;InspectCli</title>
<path fill="none" stroke="#455a64" d="M1400.79,-779.33C1410.35,-774.67 1419.47,-768.88 1427.01,-761.7 1443.64,-745.86 1495.06,-589.47 1510.76,-572.7 1515.25,-567.91 1520.52,-563.63 1526.11,-559.85"/>
<polygon fill="#455a64" stroke="#455a64" points="1527.29,-562.41 1532.6,-555.81 1524.33,-557.66 1527.29,-562.41"/>
</g>
<!-- Policies&#45;&gt;BuildCli -->
<g id="edge13" class="edge">
<title>Policies&#45;&gt;BuildCli</title>
<path fill="none" stroke="#455a64" d="M1372.42,-707.29C1415.66,-686.69 1485.71,-653.32 1532.16,-631.19"/>
<polygon fill="#455a64" stroke="#455a64" points="1533.16,-633.82 1539.18,-627.85 1530.75,-628.76 1533.16,-633.82"/>
</g>
<!-- Policies&#45;&gt;SearchCli -->
<g id="edge14" class="edge">
<title>Policies&#45;&gt;SearchCli</title>
<path fill="none" stroke="#455a64" d="M1344.51,-707.24C1369.31,-665.84 1434.34,-564.26 1510.76,-500.7 1516.36,-496.04 1522.66,-491.75 1529.11,-487.87"/>
<polygon fill="#455a64" stroke="#455a64" points="1530.45,-490.32 1536.01,-483.93 1527.68,-485.46 1530.45,-490.32"/>
</g>
<!-- Policies&#45;&gt;RebuildCli -->
<g id="edge15" class="edge">
<title>Policies&#45;&gt;RebuildCli</title>
<path fill="none" stroke="#455a64" d="M1340.24,-707.52C1359.01,-656.97 1418.19,-512.92 1510.76,-428.7 1516.08,-423.86 1522.16,-419.48 1528.47,-415.57"/>
<polygon fill="#455a64" stroke="#455a64" points="1529.72,-418.08 1535.22,-411.63 1526.9,-413.24 1529.72,-418.08"/>
</g>
<!-- Policies&#45;&gt;InspectCli -->
<g id="edge16" class="edge">
<title>Policies&#45;&gt;InspectCli</title>
<path fill="none" stroke="#455a64" d="M1351.74,-707.67C1382.49,-677.39 1447.99,-615.46 1510.76,-572.7 1517.54,-568.09 1524.97,-563.63 1532.38,-559.51"/>
<polygon fill="#455a64" stroke="#455a64" points="1533.33,-562.18 1539.03,-555.91 1530.66,-557.26 1533.33,-562.18"/>
</g>
<!-- ReportIo -->
<g id="node13" class="node">
<title>ReportIo</title>
<path fill="#fff3e0" stroke="#ef6c00" d="M491.05,-847.7C491.05,-847.7 402.34,-847.7 402.34,-847.7 396.34,-847.7 390.34,-841.7 390.34,-835.7 390.34,-835.7 390.34,-823.7 390.34,-823.7 390.34,-817.7 396.34,-811.7 402.34,-811.7 402.34,-811.7 491.05,-811.7 491.05,-811.7 497.05,-811.7 503.05,-817.7 503.05,-823.7 503.05,-823.7 503.05,-835.7 503.05,-835.7 503.05,-841.7 497.05,-847.7 491.05,-847.7"/>
<text xml:space="preserve" text-anchor="middle" x="446.69" y="-832.2" font-family="Arial" font-size="10.00">report_io.py</text>
<text xml:space="preserve" text-anchor="middle" x="446.69" y="-820.2" font-family="Arial" font-size="10.00">JsonReportWritePolicy</text>
</g>
<!-- ReportIo&#45;&gt;SearchCli -->
<g id="edge18" class="edge">
<title>ReportIo&#45;&gt;SearchCli</title>
<path fill="none" stroke="#455a64" d="M452.42,-811.3C466.06,-762.46 510.38,-629.25 601.42,-570.7 903.9,-376.16 1370.51,-429.96 1526.52,-455.16"/>
<polygon fill="#455a64" stroke="#455a64" points="1526.07,-457.92 1534.42,-456.46 1526.98,-452.4 1526.07,-457.92"/>
<text xml:space="preserve" text-anchor="middle" x="1002.59" y="-448.7" font-family="Arial" font-size="9.00">&#45;&#45;report&#45;file</text>
</g>
<!-- ReportIo&#45;&gt;RebuildCli -->
<g id="edge19" class="edge">
<title>ReportIo&#45;&gt;RebuildCli</title>
<path fill="none" stroke="#455a64" d="M450.52,-811.56C460.26,-755.3 497.75,-582.21 601.42,-493.7 742.86,-372.95 1242.29,-335.17 1427.01,-356.7 1461.02,-360.66 1498.45,-369.44 1527.7,-377.34"/>
<polygon fill="#455a64" stroke="#455a64" points="1526.58,-379.94 1535.04,-379.36 1528.06,-374.54 1526.58,-379.94"/>
<text xml:space="preserve" text-anchor="middle" x="1002.59" y="-380.17" font-family="Arial" font-size="9.00">&#45;&#45;report&#45;file</text>
</g>
<!-- Atomic -->
<g id="node14" class="node">
<title>Atomic</title>
<path fill="#fff3e0" stroke="#ef6c00" d="M717.13,-847.7C717.13,-847.7 613.42,-847.7 613.42,-847.7 607.42,-847.7 601.42,-841.7 601.42,-835.7 601.42,-835.7 601.42,-823.7 601.42,-823.7 601.42,-817.7 607.42,-811.7 613.42,-811.7 613.42,-811.7 717.13,-811.7 717.13,-811.7 723.13,-811.7 729.13,-817.7 729.13,-823.7 729.13,-823.7 729.13,-835.7 729.13,-835.7 729.13,-841.7 723.13,-847.7 717.13,-847.7"/>
<text xml:space="preserve" text-anchor="middle" x="665.27" y="-832.2" font-family="Arial" font-size="10.00">write_json_report_atomic()</text>
<text xml:space="preserve" text-anchor="middle" x="665.27" y="-820.2" font-family="Arial" font-size="10.00">.tmp &#45;&gt; replace</text>
</g>
<!-- ReportIo&#45;&gt;Atomic -->
<g id="edge17" class="edge">
<title>ReportIo&#45;&gt;Atomic</title>
<path fill="none" stroke="#455a64" d="M503.47,-829.7C530.38,-829.7 563.01,-829.7 591.82,-829.7"/>
<polygon fill="#455a64" stroke="#455a64" points="591.52,-832.5 599.52,-829.7 591.52,-826.9 591.52,-832.5"/>
</g>
<!-- Audit -->
<g id="node15" class="node">
<title>Audit</title>
<path fill="#fff3e0" stroke="#ef6c00" d="M530.42,-919.7C530.42,-919.7 362.96,-919.7 362.96,-919.7 356.96,-919.7 350.96,-913.7 350.96,-907.7 350.96,-907.7 350.96,-895.7 350.96,-895.7 350.96,-889.7 356.96,-883.7 362.96,-883.7 362.96,-883.7 530.42,-883.7 530.42,-883.7 536.42,-883.7 542.42,-889.7 542.42,-895.7 542.42,-895.7 542.42,-907.7 542.42,-907.7 542.42,-913.7 536.42,-919.7 530.42,-919.7"/>
<text xml:space="preserve" text-anchor="middle" x="446.69" y="-904.2" font-family="Arial" font-size="10.00">PHASE4_12_CODE_STYLE_AUDIT.md</text>
<text xml:space="preserve" text-anchor="middle" x="446.69" y="-892.2" font-family="Arial" font-size="10.00">dette reprise</text>
</g>
<!-- Audit&#45;&gt;CodeRule -->
<g id="edge20" class="edge">
<title>Audit&#45;&gt;CodeRule</title>
<path fill="none" stroke="#455a64" stroke-dasharray="5,2" d="M515.64,-883.33C525.37,-878.67 534.68,-872.88 542.42,-865.7 613.13,-800.12 646.56,-685.18 658.67,-632.93"/>
<polygon fill="#455a64" stroke="#455a64" points="661.34,-633.83 660.36,-625.41 655.87,-632.6 661.34,-633.83"/>
</g>
<!-- ContractTests -->
<g id="node16" class="node">
<title>ContractTests</title>
<path fill="#ffebee" stroke="#c62828" d="M201.71,-398.7C201.71,-398.7 106.25,-398.7 106.25,-398.7 100.25,-398.7 94.25,-392.7 94.25,-386.7 94.25,-386.7 94.25,-374.7 94.25,-374.7 94.25,-368.7 100.25,-362.7 106.25,-362.7 106.25,-362.7 201.71,-362.7 201.71,-362.7 207.71,-362.7 213.71,-368.7 213.71,-374.7 213.71,-374.7 213.71,-386.7 213.71,-386.7 213.71,-392.7 207.71,-398.7 201.71,-398.7"/>
<text xml:space="preserve" text-anchor="middle" x="153.98" y="-377.2" font-family="Arial" font-size="10.00">test_e5_cli_contracts.py</text>
</g>
<!-- ContractTests&#45;&gt;Contracts -->
<g id="edge21" class="edge">
<title>ContractTests&#45;&gt;Contracts</title>
<path fill="none" stroke="#455a64" d="M213.83,-386.55C347.42,-401.61 681.35,-449.38 931.34,-570.7 993.01,-600.63 1009.94,-612.24 1052.84,-665.7 1066.4,-682.6 1059.73,-693.26 1073.84,-709.7 1078.2,-714.78 1083.39,-719.48 1088.83,-723.72"/>
<polygon fill="#455a64" stroke="#455a64" points="1087,-725.86 1095.11,-728.32 1090.31,-721.34 1087,-725.86"/>
</g>
<!-- ReportTests -->
<g id="node17" class="node">
<title>ReportTests</title>
<path fill="#ffebee" stroke="#c62828" d="M184.84,-542.7C184.84,-542.7 123.13,-542.7 123.13,-542.7 117.13,-542.7 111.13,-536.7 111.13,-530.7 111.13,-530.7 111.13,-518.7 111.13,-518.7 111.13,-512.7 117.13,-506.7 123.13,-506.7 123.13,-506.7 184.84,-506.7 184.84,-506.7 190.84,-506.7 196.84,-512.7 196.84,-518.7 196.84,-518.7 196.84,-530.7 196.84,-530.7 196.84,-536.7 190.84,-542.7 184.84,-542.7"/>
<text xml:space="preserve" text-anchor="middle" x="153.98" y="-521.2" font-family="Arial" font-size="10.00">test_report_io.py</text>
</g>
<!-- ReportTests&#45;&gt;ReportIo -->
<g id="edge22" class="edge">
<title>ReportTests&#45;&gt;ReportIo</title>
<path fill="none" stroke="#455a64" d="M172.29,-542.87C221.86,-594.87 364.41,-744.43 421.56,-804.39"/>
<polygon fill="#455a64" stroke="#455a64" points="419.51,-806.29 427.05,-810.15 423.56,-802.43 419.51,-806.29"/>
</g>
<!-- RuleTests -->
<g id="node18" class="node">
<title>RuleTests</title>
<path fill="#ffebee" stroke="#c62828" d="M218.59,-470.7C218.59,-470.7 89.38,-470.7 89.38,-470.7 83.38,-470.7 77.38,-464.7 77.38,-458.7 77.38,-458.7 77.38,-446.7 77.38,-446.7 77.38,-440.7 83.38,-434.7 89.38,-434.7 89.38,-434.7 218.59,-434.7 218.59,-434.7 224.59,-434.7 230.59,-440.7 230.59,-446.7 230.59,-446.7 230.59,-458.7 230.59,-458.7 230.59,-464.7 224.59,-470.7 218.59,-470.7"/>
<text xml:space="preserve" text-anchor="middle" x="153.98" y="-449.2" font-family="Arial" font-size="10.00">test_e5_code_rule_alignment.py</text>
</g>
<!-- RuleTests&#45;&gt;CodeRule -->
<g id="edge23" class="edge">
<title>RuleTests&#45;&gt;CodeRule</title>
<path fill="none" stroke="#455a64" d="M230.86,-470.52C253.2,-476.04 277.63,-482.35 299.96,-488.7 411.48,-520.42 540.28,-563.27 610.96,-587.33"/>
<polygon fill="#455a64" stroke="#455a64" points="609.79,-589.89 618.27,-589.83 611.6,-584.59 609.79,-589.89"/>
</g>
<!-- RuleTests&#45;&gt;NoNamespace -->
<g id="edge24" class="edge">
<title>RuleTests&#45;&gt;NoNamespace</title>
<path fill="none" stroke="#455a64" d="M231,-439.64C253.8,-434.2 278.46,-426.74 299.96,-416.7 591.87,-280.44 695.49,158.74 931.34,-60.7 978.81,-104.87 911.77,-301.13 952.34,-351.7 1018.29,-433.93 1087.01,-369.24 1179.55,-419.7 1343.64,-509.18 1500.84,-674.1 1557.34,-736.71"/>
<polygon fill="#455a64" stroke="#455a64" points="1554.98,-738.27 1562.41,-742.36 1559.15,-734.53 1554.98,-738.27"/>
</g>
<!-- Legend -->
<g id="node24" class="node">
<title>Legend</title>
<path fill="#ffffff" stroke="none" d="M279.96,-831.02C279.96,-831.02 28,-831.02 28,-831.02 22,-831.02 16,-825.02 16,-819.02 16,-819.02 16,-724.38 16,-724.38 16,-718.38 22,-712.38 28,-712.38 28,-712.38 279.96,-712.38 279.96,-712.38 285.96,-712.38 291.96,-718.38 291.96,-724.38 291.96,-724.38 291.96,-819.02 291.96,-819.02 291.96,-825.02 285.96,-831.02 279.96,-831.02"/>
<polygon fill="#ede7f6" stroke="none" points="22.48,-804.7 22.48,-826.7 63.98,-826.7 63.98,-804.7 22.48,-804.7"/>
<polygon fill="none" stroke="#ffffff" points="22.48,-804.7 22.48,-826.7 63.98,-826.7 63.98,-804.7 22.48,-804.7"/>
<text xml:space="preserve" text-anchor="start" x="30.86" y="-811.95" font-family="Arial" font-size="10.00">Violet</text>
<polygon fill="none" stroke="#ffffff" points="63.98,-804.7 63.98,-826.7 285.48,-826.7 285.48,-804.7 63.98,-804.7"/>
<text xml:space="preserve" text-anchor="start" x="68.98" y="-811.95" font-family="Arial" font-size="10.00">code_rule conservé et adaptation CLI temporaire</text>
<polygon fill="#e3f2fd" stroke="none" points="22.48,-782.7 22.48,-804.7 63.98,-804.7 63.98,-782.7 22.48,-782.7"/>
<polygon fill="none" stroke="#ffffff" points="22.48,-782.7 22.48,-804.7 63.98,-804.7 63.98,-782.7 22.48,-782.7"/>
<text xml:space="preserve" text-anchor="start" x="33.48" y="-789.95" font-family="Arial" font-size="10.00">Bleu</text>
<polygon fill="none" stroke="#ffffff" points="63.98,-782.7 63.98,-804.7 285.48,-804.7 285.48,-782.7 63.98,-782.7"/>
<text xml:space="preserve" text-anchor="start" x="104.23" y="-789.95" font-family="Arial" font-size="10.00">commandes et politiques typées</text>
<polygon fill="#e8f5e9" stroke="none" points="22.48,-760.7 22.48,-782.7 63.98,-782.7 63.98,-760.7 22.48,-760.7"/>
<polygon fill="none" stroke="#ffffff" points="22.48,-760.7 22.48,-782.7 63.98,-782.7 63.98,-760.7 22.48,-760.7"/>
<text xml:space="preserve" text-anchor="start" x="34.61" y="-767.95" font-family="Arial" font-size="10.00">Vert</text>
<polygon fill="none" stroke="#ffffff" points="63.98,-760.7 63.98,-782.7 285.48,-782.7 285.48,-760.7 63.98,-760.7"/>
<text xml:space="preserve" text-anchor="start" x="123.73" y="-767.95" font-family="Arial" font-size="10.00">use&#45;cases E5 réalignés</text>
<polygon fill="#fff3e0" stroke="none" points="22.48,-738.7 22.48,-760.7 63.98,-760.7 63.98,-738.7 22.48,-738.7"/>
<polygon fill="none" stroke="#ffffff" points="22.48,-738.7 22.48,-760.7 63.98,-760.7 63.98,-738.7 22.48,-738.7"/>
<text xml:space="preserve" text-anchor="start" x="27.48" y="-745.95" font-family="Arial" font-size="10.00">Orange</text>
<polygon fill="none" stroke="#ffffff" points="63.98,-738.7 63.98,-760.7 285.48,-760.7 285.48,-738.7 63.98,-738.7"/>
<text xml:space="preserve" text-anchor="start" x="133.11" y="-745.95" font-family="Arial" font-size="10.00">rapports atomiques</text>
<polygon fill="#ffebee" stroke="none" points="22.48,-716.7 22.48,-738.7 63.98,-738.7 63.98,-716.7 22.48,-716.7"/>
<polygon fill="none" stroke="#ffffff" points="22.48,-716.7 22.48,-738.7 63.98,-738.7 63.98,-716.7 22.48,-716.7"/>
<text xml:space="preserve" text-anchor="start" x="28.98" y="-723.95" font-family="Arial" font-size="10.00">Rouge</text>
<polygon fill="none" stroke="#ffffff" points="63.98,-716.7 63.98,-738.7 285.48,-738.7 285.48,-716.7 63.98,-716.7"/>
<text xml:space="preserve" text-anchor="start" x="133.11" y="-723.95" font-family="Arial" font-size="10.00">tests anti&#45;dérapage</text>
</g>
</g>
</svg>
