<?xml version="1.0" encoding="UTF-8" standalone="no"?>
<!DOCTYPE svg PUBLIC "-//W3C//DTD SVG 1.1//EN"
 "http://www.w3.org/Graphics/SVG/1.1/DTD/svg11.dtd">
<!-- Generated by graphviz version 14.1.3 (20260303.0454)
 -->
<!-- Title: E5UnifiedCommandSurface Pages: 1 -->
<svg width="1415pt" height="829pt"
 viewBox="0.00 0.00 1415.00 829.00" xmlns="http://www.w3.org/2000/svg" xmlns:xlink="http://www.w3.org/1999/xlink">
<g id="graph0" class="graph" transform="scale(1 1) rotate(0) translate(18 811)">
<title>E5UnifiedCommandSurface</title>
<polygon fill="white" stroke="none" points="-18,18 -18,-811 1397.22,-811 1397.22,18 -18,18"/>
<text xml:space="preserve" text-anchor="middle" x="689.61" y="-779.5" font-family="Arial" font-size="10.00">Phase 4.13 — E5 unified command surface</text>
<g id="clust1" class="cluster">
<title>cluster_code_rule</title>
<polygon fill="#ede7f6" stroke="#5e35b1" stroke-width="1.5" points="256.71,-602 256.71,-746 554.88,-746 554.88,-602 256.71,-602"/>
<text xml:space="preserve" text-anchor="middle" x="405.8" y="-732.5" font-family="Arial" font-size="10.00">Guideline appliquée</text>
</g>
<g id="clust2" class="cluster">
<title>cluster_front</title>
<polygon fill="#e3f2fd" stroke="#1565c0" stroke-width="1.5" points="435.92,-456 435.92,-539 1149.26,-539 1149.26,-456 435.92,-456"/>
<text xml:space="preserve" text-anchor="middle" x="792.59" y="-525.5" font-family="Arial" font-size="10.00">Façade unique</text>
</g>
<g id="clust3" class="cluster">
<title>cluster_subcommands</title>
<polygon fill="#e8f5e9" stroke="#2e7d32" stroke-width="1.5" points="1192.26,-294 1192.26,-726 1371.22,-726 1371.22,-294 1192.26,-294"/>
<text xml:space="preserve" text-anchor="middle" x="1281.74" y="-712.5" font-family="Arial" font-size="10.00">Sous&#45;commandes</text>
</g>
<g id="clust4" class="cluster">
<title>cluster_compat</title>
<polygon fill="#fff3e0" stroke="#ef6c00" stroke-width="1.5" points="441.17,-8 441.17,-152 979.43,-152 979.43,-8 441.17,-8"/>
<text xml:space="preserve" text-anchor="middle" x="710.3" y="-138.5" font-family="Arial" font-size="10.00">Compatibilité</text>
</g>
<g id="clust5" class="cluster">
<title>cluster_tests</title>
<polygon fill="#ffebee" stroke="#c62828" stroke-width="1.5" points="26.25,-457 26.25,-601 195.46,-601 195.46,-457 26.25,-457"/>
<text xml:space="preserve" text-anchor="middle" x="110.86" y="-587.5" font-family="Arial" font-size="10.00">Tests</text>
</g>
<g id="clust6" class="cluster">
<title>cluster_scope</title>
<polygon fill="#fafafa" stroke="#b0bec5" points="860.09,-160 860.09,-448 981.3,-448 981.3,-160 860.09,-160"/>
<text xml:space="preserve" text-anchor="middle" x="920.7" y="-434.5" font-family="Arial" font-size="10.00">Hors périmètre 4.13</text>
</g>
<g id="clust7" class="cluster">
<title>cluster_legend</title>
<polygon fill="#ffffff" stroke="#cfd8dc" points="8,-609 8,-763 213.71,-763 213.71,-609 8,-609"/>
<text xml:space="preserve" text-anchor="middle" x="110.86" y="-749.5" font-family="Arial" font-size="10.00">Légende</text>
</g>
<!-- CodeRule -->
<g id="node1" class="node">
<title>CodeRule</title>
<g id="a_node1"><a xlink:href="66_e5_code_style_alignment.svg" xlink:title="doc/code_rule.md&#10;réduction de surface CLI">
<path fill="#ede7f6" stroke="#5e35b1" d="M372.92,-646C372.92,-646 276.71,-646 276.71,-646 270.71,-646 264.71,-640 264.71,-634 264.71,-634 264.71,-622 264.71,-622 264.71,-616 270.71,-610 276.71,-610 276.71,-610 372.92,-610 372.92,-610 378.92,-610 384.92,-616 384.92,-622 384.92,-622 384.92,-634 384.92,-634 384.92,-640 378.92,-646 372.92,-646"/>
<text xml:space="preserve" text-anchor="middle" x="324.82" y="-630.5" font-family="Arial" font-size="10.00">doc/code_rule.md</text>
<text xml:space="preserve" text-anchor="middle" x="324.82" y="-618.5" font-family="Arial" font-size="10.00">réduction de surface CLI</text>
</a>
</g>
</g>
<!-- AdapterRule -->
<g id="node2" class="node">
<title>AdapterRule</title>
<path fill="#ede7f6" stroke="#5e35b1" d="M534.88,-646C534.88,-646 455.92,-646 455.92,-646 449.92,-646 443.92,-640 443.92,-634 443.92,-634 443.92,-622 443.92,-622 443.92,-616 449.92,-610 455.92,-610 455.92,-610 534.88,-610 534.88,-610 540.88,-610 546.88,-616 546.88,-622 546.88,-622 546.88,-634 546.88,-634 546.88,-640 540.88,-646 534.88,-646"/>
<text xml:space="preserve" text-anchor="middle" x="495.4" y="-630.5" font-family="Arial" font-size="10.00">CLI = adaptateur</text>
<text xml:space="preserve" text-anchor="middle" x="495.4" y="-618.5" font-family="Arial" font-size="10.00">pas exception kernel</text>
</g>
<!-- CodeRule&#45;&gt;AdapterRule -->
<g id="edge1" class="edge">
<title>CodeRule&#45;&gt;AdapterRule</title>
<path fill="none" stroke="#455a64" d="M385.25,-628C401.18,-628 418.41,-628 434.37,-628"/>
<polygon fill="#455a64" stroke="#455a64" points="434.09,-630.8 442.09,-628 434.09,-625.2 434.09,-630.8"/>
</g>
<!-- CommandRule -->
<g id="node3" class="node">
<title>CommandRule</title>
<path fill="#ede7f6" stroke="#5e35b1" d="M534.88,-718C534.88,-718 455.92,-718 455.92,-718 449.92,-718 443.92,-712 443.92,-706 443.92,-706 443.92,-694 443.92,-694 443.92,-688 449.92,-682 455.92,-682 455.92,-682 534.88,-682 534.88,-682 540.88,-682 546.88,-688 546.88,-694 546.88,-694 546.88,-706 546.88,-706 546.88,-712 540.88,-718 534.88,-718"/>
<text xml:space="preserve" text-anchor="middle" x="495.4" y="-702.5" font-family="Arial" font-size="10.00">Command dataclass</text>
<text xml:space="preserve" text-anchor="middle" x="495.4" y="-690.5" font-family="Arial" font-size="10.00">intention typée</text>
</g>
<!-- CodeRule&#45;&gt;CommandRule -->
<g id="edge2" class="edge">
<title>CodeRule&#45;&gt;CommandRule</title>
<path fill="none" stroke="#455a64" d="M368.79,-646.35C391.3,-655.97 419.02,-667.81 442.69,-677.91"/>
<polygon fill="#455a64" stroke="#455a64" points="441.36,-680.39 449.82,-680.96 443.56,-675.24 441.36,-680.39"/>
</g>
<!-- ToolCli -->
<g id="node5" class="node">
<title>ToolCli</title>
<path fill="#e3f2fd" stroke="#1565c0" d="M703.59,-500C703.59,-500 654.63,-500 654.63,-500 648.63,-500 642.63,-494 642.63,-488 642.63,-488 642.63,-476 642.63,-476 642.63,-470 648.63,-464 654.63,-464 654.63,-464 703.59,-464 703.59,-464 709.59,-464 715.59,-470 715.59,-476 715.59,-476 715.59,-488 715.59,-488 715.59,-494 709.59,-500 703.59,-500"/>
<text xml:space="preserve" text-anchor="middle" x="679.11" y="-484.5" font-family="Arial" font-size="10.00">e5_tool_cli.py</text>
<text xml:space="preserve" text-anchor="middle" x="679.11" y="-472.5" font-family="Arial" font-size="10.00">adaptateur fin</text>
</g>
<!-- AdapterRule&#45;&gt;ToolCli -->
<g id="edge3" class="edge">
<title>AdapterRule&#45;&gt;ToolCli</title>
<path fill="none" stroke="#455a64" d="M534.18,-609.64C548.13,-602.17 563.72,-592.94 576.88,-583 606.96,-560.28 636.97,-528.98 656.41,-507.27"/>
<polygon fill="#455a64" stroke="#455a64" points="658.37,-509.28 661.58,-501.44 654.18,-505.57 658.37,-509.28"/>
</g>
<!-- Command -->
<g id="node6" class="node">
<title>Command</title>
<path fill="#e3f2fd" stroke="#1565c0" d="M952.68,-511C952.68,-511 888.72,-511 888.72,-511 882.72,-511 876.72,-505 876.72,-499 876.72,-499 876.72,-487 876.72,-487 876.72,-481 882.72,-475 888.72,-475 888.72,-475 952.68,-475 952.68,-475 958.68,-475 964.68,-481 964.68,-487 964.68,-487 964.68,-499 964.68,-499 964.68,-505 958.68,-511 952.68,-511"/>
<text xml:space="preserve" text-anchor="middle" x="920.7" y="-495.5" font-family="Arial" font-size="10.00">E5ToolCommand</text>
<text xml:space="preserve" text-anchor="middle" x="920.7" y="-483.5" font-family="Arial" font-size="10.00">name + argv</text>
</g>
<!-- CommandRule&#45;&gt;Command -->
<g id="edge4" class="edge">
<title>CommandRule&#45;&gt;Command</title>
<path fill="none" stroke="#455a64" d="M533.96,-681.63C611.53,-643.7 789.17,-556.83 873.55,-515.56"/>
<polygon fill="#455a64" stroke="#455a64" points="874.59,-518.17 880.55,-512.14 872.13,-513.14 874.59,-518.17"/>
</g>
<!-- Tool -->
<g id="node4" class="node">
<title>Tool</title>
<path fill="#e3f2fd" stroke="#1565c0" d="M534.88,-500C534.88,-500 455.92,-500 455.92,-500 449.92,-500 443.92,-494 443.92,-488 443.92,-488 443.92,-476 443.92,-476 443.92,-470 449.92,-464 455.92,-464 455.92,-464 534.88,-464 534.88,-464 540.88,-464 546.88,-470 546.88,-476 546.88,-476 546.88,-488 546.88,-488 546.88,-494 540.88,-500 534.88,-500"/>
<text xml:space="preserve" text-anchor="middle" x="495.4" y="-484.5" font-family="Arial" font-size="10.00">tools/e5.py</text>
<text xml:space="preserve" text-anchor="middle" x="495.4" y="-472.5" font-family="Arial" font-size="10.00">point d&#39;entrée unique</text>
</g>
<!-- Tool&#45;&gt;ToolCli -->
<g id="edge5" class="edge">
<title>Tool&#45;&gt;ToolCli</title>
<path fill="none" stroke="#455a64" d="M547.02,-482C573.95,-482 606.8,-482 632.88,-482"/>
<polygon fill="#455a64" stroke="#455a64" points="632.64,-484.8 640.64,-482 632.64,-479.2 632.64,-484.8"/>
</g>
<!-- Future -->
<g id="node16" class="node">
<title>Future</title>
<path fill="#fff3e0" stroke="#ef6c00" d="M713.72,-124C713.72,-124 644.51,-124 644.51,-124 638.51,-124 632.51,-118 632.51,-112 632.51,-112 632.51,-100 632.51,-100 632.51,-94 638.51,-88 644.51,-88 644.51,-88 713.72,-88 713.72,-88 719.72,-88 725.72,-94 725.72,-100 725.72,-100 725.72,-112 725.72,-112 725.72,-118 719.72,-124 713.72,-124"/>
<text xml:space="preserve" text-anchor="middle" x="679.11" y="-108.5" font-family="Arial" font-size="10.00">direction future</text>
<text xml:space="preserve" text-anchor="middle" x="679.11" y="-96.5" font-family="Arial" font-size="10.00">wrappers ultra&#45;fins</text>
</g>
<!-- Tool&#45;&gt;Future -->
<g id="edge15" class="edge">
<title>Tool&#45;&gt;Future</title>
<path fill="none" stroke="#455a64" stroke-dasharray="5,2" d="M505.29,-463.61C534.93,-402.26 630.53,-204.45 665.31,-132.49"/>
<polygon fill="#455a64" stroke="#455a64" points="667.62,-134.14 668.58,-125.72 662.58,-131.7 667.62,-134.14"/>
</g>
<!-- ToolCli&#45;&gt;Command -->
<g id="edge6" class="edge">
<title>ToolCli&#45;&gt;Command</title>
<path fill="none" stroke="#455a64" d="M715.98,-483.65C755.95,-485.48 820.98,-488.47 866.8,-490.57"/>
<polygon fill="#455a64" stroke="#455a64" points="866.63,-493.37 874.75,-490.94 866.89,-487.77 866.63,-493.37"/>
<text xml:space="preserve" text-anchor="middle" x="810.22" y="-491.08" font-family="Arial" font-size="9.00">parse minimal</text>
</g>
<!-- NoQdrant -->
<g id="node20" class="node">
<title>NoQdrant</title>
<path fill="#fafafa" stroke="#78909c" d="M945.93,-276C945.93,-276 895.47,-276 895.47,-276 889.47,-276 883.47,-270 883.47,-264 883.47,-264 883.47,-252 883.47,-252 883.47,-246 889.47,-240 895.47,-240 895.47,-240 945.93,-240 945.93,-240 951.93,-240 957.93,-246 957.93,-252 957.93,-252 957.93,-264 957.93,-264 957.93,-270 951.93,-276 945.93,-276"/>
<text xml:space="preserve" text-anchor="middle" x="920.7" y="-254.5" font-family="Arial" font-size="10.00">pas de Qdrant</text>
</g>
<!-- ToolCli&#45;&gt;NoQdrant -->
<g id="edge23" class="edge">
<title>ToolCli&#45;&gt;NoQdrant</title>
<path fill="none" stroke="#455a64" stroke-dasharray="1,5" d="M694.5,-463.74C723.24,-428.06 790.95,-347.88 860.09,-294 865.72,-289.61 871.93,-285.33 878.14,-281.34"/>
<polygon fill="#455a64" stroke="#455a64" points="879.38,-283.87 884.69,-277.26 876.42,-279.12 879.38,-283.87"/>
</g>
<!-- NoScheduler -->
<g id="node21" class="node">
<title>NoScheduler</title>
<path fill="#fafafa" stroke="#78909c" d="M953.05,-204C953.05,-204 888.34,-204 888.34,-204 882.34,-204 876.34,-198 876.34,-192 876.34,-192 876.34,-180 876.34,-180 876.34,-174 882.34,-168 888.34,-168 888.34,-168 953.05,-168 953.05,-168 959.05,-168 965.05,-174 965.05,-180 965.05,-180 965.05,-192 965.05,-192 965.05,-198 959.05,-204 953.05,-204"/>
<text xml:space="preserve" text-anchor="middle" x="920.7" y="-182.5" font-family="Arial" font-size="10.00">pas de Scheduler</text>
</g>
<!-- ToolCli&#45;&gt;NoScheduler -->
<g id="edge24" class="edge">
<title>ToolCli&#45;&gt;NoScheduler</title>
<path fill="none" stroke="#455a64" stroke-dasharray="1,5" d="M688.59,-463.53C704.42,-429.97 740.56,-357.43 781.34,-303 811.45,-262.82 820.78,-253.23 860.09,-222 865.68,-217.56 871.86,-213.25 878.07,-209.25"/>
<polygon fill="#455a64" stroke="#455a64" points="879.31,-211.77 884.61,-205.16 876.35,-207.02 879.31,-211.77"/>
</g>
<!-- NoSchema -->
<g id="node22" class="node">
<title>NoSchema</title>
<path fill="#fafafa" stroke="#78909c" d="M961.3,-420C961.3,-420 880.09,-420 880.09,-420 874.09,-420 868.09,-414 868.09,-408 868.09,-408 868.09,-396 868.09,-396 868.09,-390 874.09,-384 880.09,-384 880.09,-384 961.3,-384 961.3,-384 967.3,-384 973.3,-390 973.3,-396 973.3,-396 973.3,-408 973.3,-408 973.3,-414 967.3,-420 961.3,-420"/>
<text xml:space="preserve" text-anchor="middle" x="920.7" y="-404.5" font-family="Arial" font-size="10.00">pas de changement</text>
<text xml:space="preserve" text-anchor="middle" x="920.7" y="-392.5" font-family="Arial" font-size="10.00">missipy.e5.corpus.v1</text>
</g>
<!-- ToolCli&#45;&gt;NoSchema -->
<g id="edge25" class="edge">
<title>ToolCli&#45;&gt;NoSchema</title>
<path fill="none" stroke="#455a64" stroke-dasharray="1,5" d="M715.98,-470.02C753.67,-457.44 813.64,-437.41 858.78,-422.34"/>
<polygon fill="#455a64" stroke="#455a64" points="859.46,-425.07 866.16,-419.88 857.68,-419.75 859.46,-425.07"/>
</g>
<!-- NoBackend -->
<g id="node23" class="node">
<title>NoBackend</title>
<path fill="#fafafa" stroke="#78909c" d="M960.18,-348C960.18,-348 881.22,-348 881.22,-348 875.22,-348 869.22,-342 869.22,-336 869.22,-336 869.22,-324 869.22,-324 869.22,-318 875.22,-312 881.22,-312 881.22,-312 960.18,-312 960.18,-312 966.18,-312 972.18,-318 972.18,-324 972.18,-324 972.18,-336 972.18,-336 972.18,-342 966.18,-348 960.18,-348"/>
<text xml:space="preserve" text-anchor="middle" x="920.7" y="-332.5" font-family="Arial" font-size="10.00">pas de backend</text>
<text xml:space="preserve" text-anchor="middle" x="920.7" y="-320.5" font-family="Arial" font-size="10.00">chargé implicitement</text>
</g>
<!-- ToolCli&#45;&gt;NoBackend -->
<g id="edge26" class="edge">
<title>ToolCli&#45;&gt;NoBackend</title>
<path fill="none" stroke="#455a64" stroke-dasharray="1,5" d="M708.01,-463.66C743.25,-440.58 805.85,-399.85 860.09,-366 866.8,-361.81 873.97,-357.42 880.93,-353.19"/>
<polygon fill="#455a64" stroke="#455a64" points="882.27,-355.65 887.67,-349.11 879.37,-350.86 882.27,-355.65"/>
</g>
<!-- Policy -->
<g id="node7" class="node">
<title>Policy</title>
<path fill="#e3f2fd" stroke="#1565c0" d="M1129.26,-511C1129.26,-511 1044.3,-511 1044.3,-511 1038.3,-511 1032.3,-505 1032.3,-499 1032.3,-499 1032.3,-487 1032.3,-487 1032.3,-481 1038.3,-475 1044.3,-475 1044.3,-475 1129.26,-475 1129.26,-475 1135.26,-475 1141.26,-481 1141.26,-487 1141.26,-487 1141.26,-499 1141.26,-499 1141.26,-505 1135.26,-511 1129.26,-511"/>
<text xml:space="preserve" text-anchor="middle" x="1086.78" y="-495.5" font-family="Arial" font-size="10.00">E5ToolDispatchPolicy</text>
<text xml:space="preserve" text-anchor="middle" x="1086.78" y="-483.5" font-family="Arial" font-size="10.00">handlers explicites</text>
</g>
<!-- Command&#45;&gt;Policy -->
<g id="edge7" class="edge">
<title>Command&#45;&gt;Policy</title>
<path fill="none" stroke="#455a64" d="M964.81,-493C982.51,-493 1003.37,-493 1022.73,-493"/>
<polygon fill="#455a64" stroke="#455a64" points="1022.59,-495.8 1030.59,-493 1022.58,-490.2 1022.59,-495.8"/>
</g>
<!-- Embed -->
<g id="node8" class="node">
<title>Embed</title>
<path fill="#e8f5e9" stroke="#2e7d32" d="M1297.22,-698C1297.22,-698 1266.26,-698 1266.26,-698 1260.26,-698 1254.26,-692 1254.26,-686 1254.26,-686 1254.26,-674 1254.26,-674 1254.26,-668 1260.26,-662 1266.26,-662 1266.26,-662 1297.22,-662 1297.22,-662 1303.22,-662 1309.22,-668 1309.22,-674 1309.22,-674 1309.22,-686 1309.22,-686 1309.22,-692 1303.22,-698 1297.22,-698"/>
<text xml:space="preserve" text-anchor="middle" x="1281.74" y="-682.5" font-family="Arial" font-size="10.00">embed</text>
<text xml:space="preserve" text-anchor="middle" x="1281.74" y="-670.5" font-family="Arial" font-size="10.00">e5_cli.run</text>
</g>
<!-- Policy&#45;&gt;Embed -->
<g id="edge8" class="edge">
<title>Policy&#45;&gt;Embed</title>
<path fill="none" stroke="#455a64" d="M1096.08,-511.37C1111.08,-542.64 1145.51,-606.5 1192.26,-644 1207.68,-656.37 1227.93,-665.03 1245.16,-670.74"/>
<polygon fill="#455a64" stroke="#455a64" points="1243.94,-673.3 1252.42,-673.02 1245.62,-667.95 1243.94,-673.3"/>
</g>
<!-- Rank -->
<g id="node9" class="node">
<title>Rank</title>
<path fill="#e8f5e9" stroke="#2e7d32" d="M1309.22,-626C1309.22,-626 1254.26,-626 1254.26,-626 1248.26,-626 1242.26,-620 1242.26,-614 1242.26,-614 1242.26,-602 1242.26,-602 1242.26,-596 1248.26,-590 1254.26,-590 1254.26,-590 1309.22,-590 1309.22,-590 1315.22,-590 1321.22,-596 1321.22,-602 1321.22,-602 1321.22,-614 1321.22,-614 1321.22,-620 1315.22,-626 1309.22,-626"/>
<text xml:space="preserve" text-anchor="middle" x="1281.74" y="-610.5" font-family="Arial" font-size="10.00">rank</text>
<text xml:space="preserve" text-anchor="middle" x="1281.74" y="-598.5" font-family="Arial" font-size="10.00">e5_rank_cli.run</text>
</g>
<!-- Policy&#45;&gt;Rank -->
<g id="edge9" class="edge">
<title>Policy&#45;&gt;Rank</title>
<path fill="none" stroke="#455a64" d="M1108.65,-511.39C1128.96,-528.64 1161.22,-554.36 1192.26,-572 1205.03,-579.26 1219.56,-585.81 1233.1,-591.27"/>
<polygon fill="#455a64" stroke="#455a64" points="1231.95,-593.82 1240.42,-594.14 1234,-588.61 1231.95,-593.82"/>
</g>
<!-- Build -->
<g id="node10" class="node">
<title>Build</title>
<path fill="#e8f5e9" stroke="#2e7d32" d="M1327.22,-554C1327.22,-554 1236.26,-554 1236.26,-554 1230.26,-554 1224.26,-548 1224.26,-542 1224.26,-542 1224.26,-530 1224.26,-530 1224.26,-524 1230.26,-518 1236.26,-518 1236.26,-518 1327.22,-518 1327.22,-518 1333.22,-518 1339.22,-524 1339.22,-530 1339.22,-530 1339.22,-542 1339.22,-542 1339.22,-548 1333.22,-554 1327.22,-554"/>
<text xml:space="preserve" text-anchor="middle" x="1281.74" y="-538.5" font-family="Arial" font-size="10.00">build</text>
<text xml:space="preserve" text-anchor="middle" x="1281.74" y="-526.5" font-family="Arial" font-size="10.00">e5_corpus_cli.run_build</text>
</g>
<!-- Policy&#45;&gt;Build -->
<g id="edge10" class="edge">
<title>Policy&#45;&gt;Build</title>
<path fill="none" stroke="#455a64" d="M1141.53,-504.98C1164.27,-510.05 1190.99,-516 1214.9,-521.33"/>
<polygon fill="#455a64" stroke="#455a64" points="1214.01,-524 1222.43,-523.01 1215.23,-518.53 1214.01,-524"/>
</g>
<!-- Search -->
<g id="node11" class="node">
<title>Search</title>
<g id="a_node11"><a xlink:href="65_e5_search_report_file.svg" xlink:title="search&#10;e5_corpus_cli.run_search">
<path fill="#e8f5e9" stroke="#2e7d32" d="M1331.72,-482C1331.72,-482 1231.76,-482 1231.76,-482 1225.76,-482 1219.76,-476 1219.76,-470 1219.76,-470 1219.76,-458 1219.76,-458 1219.76,-452 1225.76,-446 1231.76,-446 1231.76,-446 1331.72,-446 1331.72,-446 1337.72,-446 1343.72,-452 1343.72,-458 1343.72,-458 1343.72,-470 1343.72,-470 1343.72,-476 1337.72,-482 1331.72,-482"/>
<text xml:space="preserve" text-anchor="middle" x="1281.74" y="-466.5" font-family="Arial" font-size="10.00">search</text>
<text xml:space="preserve" text-anchor="middle" x="1281.74" y="-454.5" font-family="Arial" font-size="10.00">e5_corpus_cli.run_search</text>
</a>
</g>
</g>
<!-- Policy&#45;&gt;Search -->
<g id="edge11" class="edge">
<title>Policy&#45;&gt;Search</title>
<path fill="none" stroke="#455a64" d="M1141.53,-484.92C1162.8,-481.73 1187.54,-478.01 1210.21,-474.6"/>
<polygon fill="#455a64" stroke="#455a64" points="1210.46,-477.39 1217.96,-473.44 1209.63,-471.86 1210.46,-477.39"/>
</g>
<!-- Rebuild -->
<g id="node12" class="node">
<title>Rebuild</title>
<g id="a_node12"><a xlink:href="64_e5_rebuild_report_file.svg" xlink:title="rebuild&#10;e5_rebuild_cli.run_rebuild">
<path fill="#e8f5e9" stroke="#2e7d32" d="M1330.97,-410C1330.97,-410 1232.51,-410 1232.51,-410 1226.51,-410 1220.51,-404 1220.51,-398 1220.51,-398 1220.51,-386 1220.51,-386 1220.51,-380 1226.51,-374 1232.51,-374 1232.51,-374 1330.97,-374 1330.97,-374 1336.97,-374 1342.97,-380 1342.97,-386 1342.97,-386 1342.97,-398 1342.97,-398 1342.97,-404 1336.97,-410 1330.97,-410"/>
<text xml:space="preserve" text-anchor="middle" x="1281.74" y="-394.5" font-family="Arial" font-size="10.00">rebuild</text>
<text xml:space="preserve" text-anchor="middle" x="1281.74" y="-382.5" font-family="Arial" font-size="10.00">e5_rebuild_cli.run_rebuild</text>
</a>
</g>
</g>
<!-- Policy&#45;&gt;Rebuild -->
<g id="edge12" class="edge">
<title>Policy&#45;&gt;Rebuild</title>
<path fill="none" stroke="#455a64" d="M1114.54,-474.59C1135.22,-460.79 1164.85,-441.97 1192.26,-428 1201.96,-423.06 1212.5,-418.28 1222.81,-413.91"/>
<polygon fill="#455a64" stroke="#455a64" points="1223.68,-416.58 1230,-410.93 1221.53,-411.41 1223.68,-416.58"/>
</g>
<!-- Inspect -->
<g id="node13" class="node">
<title>Inspect</title>
<g id="a_node13"><a xlink:href="60_e5_corpus_diagnostics.svg" xlink:title="inspect&#10;e5_corpus_inspect_cli.run_inspect">
<path fill="#e8f5e9" stroke="#2e7d32" d="M1351.22,-338C1351.22,-338 1212.26,-338 1212.26,-338 1206.26,-338 1200.26,-332 1200.26,-326 1200.26,-326 1200.26,-314 1200.26,-314 1200.26,-308 1206.26,-302 1212.26,-302 1212.26,-302 1351.22,-302 1351.22,-302 1357.22,-302 1363.22,-308 1363.22,-314 1363.22,-314 1363.22,-326 1363.22,-326 1363.22,-332 1357.22,-338 1351.22,-338"/>
<text xml:space="preserve" text-anchor="middle" x="1281.74" y="-322.5" font-family="Arial" font-size="10.00">inspect</text>
<text xml:space="preserve" text-anchor="middle" x="1281.74" y="-310.5" font-family="Arial" font-size="10.00">e5_corpus_inspect_cli.run_inspect</text>
</a>
</g>
</g>
<!-- Policy&#45;&gt;Inspect -->
<g id="edge13" class="edge">
<title>Policy&#45;&gt;Inspect</title>
<path fill="none" stroke="#455a64" d="M1097.55,-474.52C1113.69,-445.58 1148.54,-389.43 1192.26,-356 1198.94,-350.9 1206.43,-346.4 1214.17,-342.48"/>
<polygon fill="#455a64" stroke="#455a64" points="1215.25,-345.06 1221.26,-339.09 1212.84,-340.01 1215.25,-345.06"/>
</g>
<!-- Wrappers -->
<g id="node14" class="node">
<title>Wrappers</title>
<path fill="#fff3e0" stroke="#ef6c00" d="M529.63,-124C529.63,-124 461.17,-124 461.17,-124 455.17,-124 449.17,-118 449.17,-112 449.17,-112 449.17,-100 449.17,-100 449.17,-94 455.17,-88 461.17,-88 461.17,-88 529.63,-88 529.63,-88 535.63,-88 541.63,-94 541.63,-100 541.63,-100 541.63,-112 541.63,-112 541.63,-118 535.63,-124 529.63,-124"/>
<text xml:space="preserve" text-anchor="middle" x="495.4" y="-108.5" font-family="Arial" font-size="10.00">scripts historiques</text>
<text xml:space="preserve" text-anchor="middle" x="495.4" y="-96.5" font-family="Arial" font-size="10.00">conservés</text>
</g>
<!-- NoRemoval -->
<g id="node15" class="node">
<title>NoRemoval</title>
<path fill="#fff3e0" stroke="#ef6c00" d="M740.34,-52C740.34,-52 617.88,-52 617.88,-52 611.88,-52 605.88,-46 605.88,-40 605.88,-40 605.88,-28 605.88,-28 605.88,-22 611.88,-16 617.88,-16 617.88,-16 740.34,-16 740.34,-16 746.34,-16 752.34,-22 752.34,-28 752.34,-28 752.34,-40 752.34,-40 752.34,-46 746.34,-52 740.34,-52"/>
<text xml:space="preserve" text-anchor="middle" x="679.11" y="-36.5" font-family="Arial" font-size="10.00">aucune suppression</text>
<text xml:space="preserve" text-anchor="middle" x="679.11" y="-24.5" font-family="Arial" font-size="10.00">pour ne pas casser les usages</text>
</g>
<!-- Wrappers&#45;&gt;NoRemoval -->
<g id="edge14" class="edge">
<title>Wrappers&#45;&gt;NoRemoval</title>
<path fill="none" stroke="#455a64" d="M541.78,-88.02C566.43,-78.25 597.1,-66.1 623.1,-55.8"/>
<polygon fill="#455a64" stroke="#455a64" points="623.91,-58.49 630.32,-52.94 621.85,-53.28 623.91,-58.49"/>
</g>
<!-- Wrappers&#45;&gt;Future -->
<g id="edge17" class="edge">
<title>Wrappers&#45;&gt;Future</title>
<path fill="none" stroke="#455a64" stroke-dasharray="5,2" d="M541.78,-106C566.31,-106 596.8,-106 622.72,-106"/>
<polygon fill="#455a64" stroke="#455a64" points="622.53,-108.8 630.53,-106 622.53,-103.2 622.53,-108.8"/>
</g>
<!-- Context -->
<g id="node17" class="node">
<title>Context</title>
<g id="a_node17"><a xlink:href="68_e5_context_bundle.svg" xlink:title="next: context bundle">
<path fill="#fff3e0" stroke="none" d="M959.43,-124C959.43,-124 881.97,-124 881.97,-124 875.97,-124 869.97,-118 869.97,-112 869.97,-112 869.97,-100 869.97,-100 869.97,-94 875.97,-88 881.97,-88 881.97,-88 959.43,-88 959.43,-88 965.43,-88 971.43,-94 971.43,-100 971.43,-100 971.43,-112 971.43,-112 971.43,-118 965.43,-124 959.43,-124"/>
<text xml:space="preserve" text-anchor="middle" x="920.7" y="-102.5" font-family="Arial" font-size="10.00">next: context bundle</text>
</a>
</g>
</g>
<!-- Future&#45;&gt;Context -->
<g id="edge16" class="edge">
<title>Future&#45;&gt;Context</title>
<path fill="none" stroke="#455a64" stroke-dasharray="5,2" d="M726.02,-106C764.34,-106 819.21,-106 860.77,-106"/>
<polygon fill="#455a64" stroke="#455a64" points="860.71,-108.8 868.71,-106 860.71,-103.2 860.71,-108.8"/>
</g>
<!-- ToolTests -->
<g id="node18" class="node">
<title>ToolTests</title>
<path fill="#ffebee" stroke="#c62828" d="M146.21,-573C146.21,-573 75.5,-573 75.5,-573 69.5,-573 63.5,-567 63.5,-561 63.5,-561 63.5,-549 63.5,-549 63.5,-543 69.5,-537 75.5,-537 75.5,-537 146.21,-537 146.21,-537 152.21,-537 158.21,-543 158.21,-549 158.21,-549 158.21,-561 158.21,-561 158.21,-567 152.21,-573 146.21,-573"/>
<text xml:space="preserve" text-anchor="middle" x="110.86" y="-557.5" font-family="Arial" font-size="10.00">test_e5_tool_cli.py</text>
<text xml:space="preserve" text-anchor="middle" x="110.86" y="-545.5" font-family="Arial" font-size="10.00">dispatch + erreurs</text>
</g>
<!-- ToolTests&#45;&gt;ToolCli -->
<g id="edge18" class="edge">
<title>ToolTests&#45;&gt;ToolCli</title>
<path fill="none" stroke="#455a64" d="M158.5,-554.18C239.71,-552.06 412.03,-544.55 554.88,-518 581.29,-513.09 610.14,-504.83 633.28,-497.45"/>
<polygon fill="#455a64" stroke="#455a64" points="633.99,-500.17 640.74,-495.04 632.26,-494.84 633.99,-500.17"/>
</g>
<!-- ToolTests&#45;&gt;Command -->
<g id="edge19" class="edge">
<title>ToolTests&#45;&gt;Command</title>
<path fill="none" stroke="#455a64" d="M158.52,-566.11C178.02,-572.93 199.42,-583.61 213.71,-600 259.28,-652.28 208.94,-699.73 256.71,-750 278.43,-772.85 292.29,-773 323.82,-773 323.82,-773 323.82,-773 680.11,-773 812.36,-773 887.25,-590.43 911.18,-520.13"/>
<polygon fill="#455a64" stroke="#455a64" points="913.75,-521.28 913.62,-512.81 908.44,-519.51 913.75,-521.28"/>
</g>
<!-- RuleTests -->
<g id="node19" class="node">
<title>RuleTests</title>
<path fill="#ffebee" stroke="#c62828" d="M175.46,-501C175.46,-501 46.25,-501 46.25,-501 40.25,-501 34.25,-495 34.25,-489 34.25,-489 34.25,-477 34.25,-477 34.25,-471 40.25,-465 46.25,-465 46.25,-465 175.46,-465 175.46,-465 181.46,-465 187.46,-471 187.46,-477 187.46,-477 187.46,-489 187.46,-489 187.46,-495 181.46,-501 175.46,-501"/>
<text xml:space="preserve" text-anchor="middle" x="110.86" y="-485.5" font-family="Arial" font-size="10.00">test_e5_code_rule_alignment.py</text>
<text xml:space="preserve" text-anchor="middle" x="110.86" y="-473.5" font-family="Arial" font-size="10.00">façade + wrappers</text>
</g>
<!-- RuleTests&#45;&gt;CodeRule -->
<g id="edge20" class="edge">
<title>RuleTests&#45;&gt;CodeRule</title>
<path fill="none" stroke="#455a64" d="M177.68,-501.46C190.11,-506.26 202.67,-512.08 213.71,-519 249.85,-541.66 283.47,-578.08 303.82,-602.51"/>
<polygon fill="#455a64" stroke="#455a64" points="301.5,-604.1 308.74,-608.51 305.83,-600.55 301.5,-604.1"/>
</g>
<!-- RuleTests&#45;&gt;Tool -->
<g id="edge21" class="edge">
<title>RuleTests&#45;&gt;Tool</title>
<path fill="none" stroke="#455a64" d="M187.89,-482.8C260.31,-482.61 367.87,-482.33 434.43,-482.16"/>
<polygon fill="#455a64" stroke="#455a64" points="434.04,-484.96 442.03,-482.14 434.02,-479.36 434.04,-484.96"/>
</g>
<!-- RuleTests&#45;&gt;Wrappers -->
<g id="edge22" class="edge">
<title>RuleTests&#45;&gt;Wrappers</title>
<path fill="none" stroke="#455a64" d="M130.56,-464.56C193.49,-402.55 397.52,-201.48 469.21,-130.82"/>
<polygon fill="#455a64" stroke="#455a64" points="470.92,-133.08 474.65,-125.47 466.98,-129.09 470.92,-133.08"/>
</g>
<!-- Legend -->
<g id="node24" class="node">
<title>Legend</title>
<path fill="#ffffff" stroke="none" d="M193.71,-735.32C193.71,-735.32 28,-735.32 28,-735.32 22,-735.32 16,-729.32 16,-723.32 16,-723.32 16,-628.68 16,-628.68 16,-622.68 22,-616.68 28,-616.68 28,-616.68 193.71,-616.68 193.71,-616.68 199.71,-616.68 205.71,-622.68 205.71,-628.68 205.71,-628.68 205.71,-723.32 205.71,-723.32 205.71,-729.32 199.71,-735.32 193.71,-735.32"/>
<polygon fill="#ede7f6" stroke="none" points="22.48,-709 22.48,-731 63.98,-731 63.98,-709 22.48,-709"/>
<polygon fill="none" stroke="#ffffff" points="22.48,-709 22.48,-731 63.98,-731 63.98,-709 22.48,-709"/>
<text xml:space="preserve" text-anchor="start" x="30.86" y="-716.25" font-family="Arial" font-size="10.00">Violet</text>
<polygon fill="none" stroke="#ffffff" points="63.98,-709 63.98,-731 199.23,-731 199.23,-709 63.98,-709"/>
<text xml:space="preserve" text-anchor="start" x="76.48" y="-716.25" font-family="Arial" font-size="10.00">règle code_rule appliquée</text>
<polygon fill="#e3f2fd" stroke="none" points="22.48,-687 22.48,-709 63.98,-709 63.98,-687 22.48,-687"/>
<polygon fill="none" stroke="#ffffff" points="22.48,-687 22.48,-709 63.98,-709 63.98,-687 22.48,-687"/>
<text xml:space="preserve" text-anchor="start" x="33.48" y="-694.25" font-family="Arial" font-size="10.00">Bleu</text>
<polygon fill="none" stroke="#ffffff" points="63.98,-687 63.98,-709 199.23,-709 199.23,-687 63.98,-687"/>
<text xml:space="preserve" text-anchor="start" x="77.98" y="-694.25" font-family="Arial" font-size="10.00">façade et dispatch typés</text>
<polygon fill="#e8f5e9" stroke="none" points="22.48,-665 22.48,-687 63.98,-687 63.98,-665 22.48,-665"/>
<polygon fill="none" stroke="#ffffff" points="22.48,-665 22.48,-687 63.98,-687 63.98,-665 22.48,-665"/>
<text xml:space="preserve" text-anchor="start" x="34.61" y="-672.25" font-family="Arial" font-size="10.00">Vert</text>
<polygon fill="none" stroke="#ffffff" points="63.98,-665 63.98,-687 199.23,-687 199.23,-665 63.98,-665"/>
<text xml:space="preserve" text-anchor="start" x="68.98" y="-672.25" font-family="Arial" font-size="10.00">sous&#45;commandes existantes</text>
<polygon fill="#fff3e0" stroke="none" points="22.48,-643 22.48,-665 63.98,-665 63.98,-643 22.48,-643"/>
<polygon fill="none" stroke="#ffffff" points="22.48,-643 22.48,-665 63.98,-665 63.98,-643 22.48,-643"/>
<text xml:space="preserve" text-anchor="start" x="27.48" y="-650.25" font-family="Arial" font-size="10.00">Orange</text>
<polygon fill="none" stroke="#ffffff" points="63.98,-643 63.98,-665 199.23,-665 199.23,-643 63.98,-643"/>
<text xml:space="preserve" text-anchor="start" x="80.23" y="-650.25" font-family="Arial" font-size="10.00">compatibilité conservée</text>
<polygon fill="#ffebee" stroke="none" points="22.48,-621 22.48,-643 63.98,-643 63.98,-621 22.48,-621"/>
<polygon fill="none" stroke="#ffffff" points="22.48,-621 22.48,-643 63.98,-643 63.98,-621 22.48,-621"/>
<text xml:space="preserve" text-anchor="start" x="28.98" y="-628.25" font-family="Arial" font-size="10.00">Rouge</text>
<polygon fill="none" stroke="#ffffff" points="63.98,-621 63.98,-643 199.23,-643 199.23,-621 63.98,-621"/>
<text xml:space="preserve" text-anchor="start" x="89.98" y="-628.25" font-family="Arial" font-size="10.00">tests anti&#45;dérapage</text>
</g>
</g>
</svg>
