<?xml version="1.0" encoding="UTF-8" standalone="no"?>
<!DOCTYPE svg PUBLIC "-//W3C//DTD SVG 1.1//EN"
 "http://www.w3.org/Graphics/SVG/1.1/DTD/svg11.dtd">
<!-- Generated by graphviz version 14.1.3 (20260303.0454)
 -->
<!-- Title: E5UnifiedCommandSurface Pages: 1 -->
<svg width="1415pt" height="677pt"
 viewBox="0.00 0.00 1415.00 677.00" xmlns="http://www.w3.org/2000/svg" xmlns:xlink="http://www.w3.org/1999/xlink">
<g id="graph0" class="graph" transform="scale(1 1) rotate(0) translate(18 659)">
<title>E5UnifiedCommandSurface</title>
<polygon fill="white" stroke="none" points="-18,18 -18,-659 1397.22,-659 1397.22,18 -18,18"/>
<text xml:space="preserve" text-anchor="middle" x="689.61" y="-627.5" font-family="Arial" font-size="10.00">Phase 4.13 — E5 unified command surface</text>
<g id="clust1" class="cluster">
<title>cluster_code_rule</title>
<polygon fill="#ede7f6" stroke="#5e35b1" stroke-width="1.5" points="256.71,-450 256.71,-594 554.88,-594 554.88,-450 256.71,-450"/>
<text xml:space="preserve" text-anchor="middle" x="405.8" y="-580.5" font-family="Arial" font-size="10.00">Guideline appliquée</text>
</g>
<g id="clust2" class="cluster">
<title>cluster_front</title>
<polygon fill="#e3f2fd" stroke="#1565c0" stroke-width="1.5" points="435.92,-304 435.92,-387 1149.26,-387 1149.26,-304 435.92,-304"/>
<text xml:space="preserve" text-anchor="middle" x="792.59" y="-373.5" font-family="Arial" font-size="10.00">Façade unique</text>
</g>
<g id="clust3" class="cluster">
<title>cluster_subcommands</title>
<polygon fill="#e8f5e9" stroke="#2e7d32" stroke-width="1.5" points="1192.26,-142 1192.26,-574 1371.22,-574 1371.22,-142 1192.26,-142"/>
<text xml:space="preserve" text-anchor="middle" x="1281.74" y="-560.5" font-family="Arial" font-size="10.00">Sous&#45;commandes</text>
</g>
<g id="clust4" class="cluster">
<title>cluster_compat</title>
<polygon fill="#fff3e0" stroke="#ef6c00" stroke-width="1.5" points="441.17,-152 441.17,-296 760.34,-296 760.34,-152 441.17,-152"/>
<text xml:space="preserve" text-anchor="middle" x="600.76" y="-282.5" font-family="Arial" font-size="10.00">Compatibilité</text>
</g>
<g id="clust5" class="cluster">
<title>cluster_tests</title>
<polygon fill="#ffebee" stroke="#c62828" stroke-width="1.5" points="26.25,-305 26.25,-449 195.46,-449 195.46,-305 26.25,-305"/>
<text xml:space="preserve" text-anchor="middle" x="110.86" y="-435.5" font-family="Arial" font-size="10.00">Tests</text>
</g>
<g id="clust6" class="cluster">
<title>cluster_scope</title>
<polygon fill="#fafafa" stroke="#b0bec5" points="860.09,-8 860.09,-296 981.3,-296 981.3,-8 860.09,-8"/>
<text xml:space="preserve" text-anchor="middle" x="920.7" y="-282.5" font-family="Arial" font-size="10.00">Hors périmètre 4.13</text>
</g>
<g id="clust7" class="cluster">
<title>cluster_legend</title>
<polygon fill="#ffffff" stroke="#cfd8dc" points="8,-457 8,-611 213.71,-611 213.71,-457 8,-457"/>
<text xml:space="preserve" text-anchor="middle" x="110.86" y="-597.5" font-family="Arial" font-size="10.00">Légende</text>
</g>
<!-- CodeRule -->
<g id="node1" class="node">
<title>CodeRule</title>
<path fill="#ede7f6" stroke="#5e35b1" d="M372.92,-494C372.92,-494 276.71,-494 276.71,-494 270.71,-494 264.71,-488 264.71,-482 264.71,-482 264.71,-470 264.71,-470 264.71,-464 270.71,-458 276.71,-458 276.71,-458 372.92,-458 372.92,-458 378.92,-458 384.92,-464 384.92,-470 384.92,-470 384.92,-482 384.92,-482 384.92,-488 378.92,-494 372.92,-494"/>
<text xml:space="preserve" text-anchor="middle" x="324.82" y="-478.5" font-family="Arial" font-size="10.00">doc/code_rule.md</text>
<text xml:space="preserve" text-anchor="middle" x="324.82" y="-466.5" font-family="Arial" font-size="10.00">réduction de surface CLI</text>
</g>
<!-- AdapterRule -->
<g id="node2" class="node">
<title>AdapterRule</title>
<path fill="#ede7f6" stroke="#5e35b1" d="M534.88,-494C534.88,-494 455.92,-494 455.92,-494 449.92,-494 443.92,-488 443.92,-482 443.92,-482 443.92,-470 443.92,-470 443.92,-464 449.92,-458 455.92,-458 455.92,-458 534.88,-458 534.88,-458 540.88,-458 546.88,-464 546.88,-470 546.88,-470 546.88,-482 546.88,-482 546.88,-488 540.88,-494 534.88,-494"/>
<text xml:space="preserve" text-anchor="middle" x="495.4" y="-478.5" font-family="Arial" font-size="10.00">CLI = adaptateur</text>
<text xml:space="preserve" text-anchor="middle" x="495.4" y="-466.5" font-family="Arial" font-size="10.00">pas exception kernel</text>
</g>
<!-- CodeRule&#45;&gt;AdapterRule -->
<g id="edge1" class="edge">
<title>CodeRule&#45;&gt;AdapterRule</title>
<path fill="none" stroke="#455a64" d="M385.25,-476C401.18,-476 418.41,-476 434.37,-476"/>
<polygon fill="#455a64" stroke="#455a64" points="434.09,-478.8 442.09,-476 434.09,-473.2 434.09,-478.8"/>
</g>
<!-- CommandRule -->
<g id="node3" class="node">
<title>CommandRule</title>
<path fill="#ede7f6" stroke="#5e35b1" d="M534.88,-566C534.88,-566 455.92,-566 455.92,-566 449.92,-566 443.92,-560 443.92,-554 443.92,-554 443.92,-542 443.92,-542 443.92,-536 449.92,-530 455.92,-530 455.92,-530 534.88,-530 534.88,-530 540.88,-530 546.88,-536 546.88,-542 546.88,-542 546.88,-554 546.88,-554 546.88,-560 540.88,-566 534.88,-566"/>
<text xml:space="preserve" text-anchor="middle" x="495.4" y="-550.5" font-family="Arial" font-size="10.00">Command dataclass</text>
<text xml:space="preserve" text-anchor="middle" x="495.4" y="-538.5" font-family="Arial" font-size="10.00">intention typée</text>
</g>
<!-- CodeRule&#45;&gt;CommandRule -->
<g id="edge2" class="edge">
<title>CodeRule&#45;&gt;CommandRule</title>
<path fill="none" stroke="#455a64" d="M368.79,-494.35C391.3,-503.97 419.02,-515.81 442.69,-525.91"/>
<polygon fill="#455a64" stroke="#455a64" points="441.36,-528.39 449.82,-528.96 443.56,-523.24 441.36,-528.39"/>
</g>
<!-- ToolCli -->
<g id="node5" class="node">
<title>ToolCli</title>
<path fill="#e3f2fd" stroke="#1565c0" d="M703.59,-348C703.59,-348 654.63,-348 654.63,-348 648.63,-348 642.63,-342 642.63,-336 642.63,-336 642.63,-324 642.63,-324 642.63,-318 648.63,-312 654.63,-312 654.63,-312 703.59,-312 703.59,-312 709.59,-312 715.59,-318 715.59,-324 715.59,-324 715.59,-336 715.59,-336 715.59,-342 709.59,-348 703.59,-348"/>
<text xml:space="preserve" text-anchor="middle" x="679.11" y="-332.5" font-family="Arial" font-size="10.00">e5_tool_cli.py</text>
<text xml:space="preserve" text-anchor="middle" x="679.11" y="-320.5" font-family="Arial" font-size="10.00">adaptateur fin</text>
</g>
<!-- AdapterRule&#45;&gt;ToolCli -->
<g id="edge3" class="edge">
<title>AdapterRule&#45;&gt;ToolCli</title>
<path fill="none" stroke="#455a64" d="M534.18,-457.64C548.13,-450.17 563.72,-440.94 576.88,-431 606.96,-408.28 636.97,-376.98 656.41,-355.27"/>
<polygon fill="#455a64" stroke="#455a64" points="658.37,-357.28 661.58,-349.44 654.18,-353.57 658.37,-357.28"/>
</g>
<!-- Command -->
<g id="node6" class="node">
<title>Command</title>
<path fill="#e3f2fd" stroke="#1565c0" d="M952.68,-359C952.68,-359 888.72,-359 888.72,-359 882.72,-359 876.72,-353 876.72,-347 876.72,-347 876.72,-335 876.72,-335 876.72,-329 882.72,-323 888.72,-323 888.72,-323 952.68,-323 952.68,-323 958.68,-323 964.68,-329 964.68,-335 964.68,-335 964.68,-347 964.68,-347 964.68,-353 958.68,-359 952.68,-359"/>
<text xml:space="preserve" text-anchor="middle" x="920.7" y="-343.5" font-family="Arial" font-size="10.00">E5ToolCommand</text>
<text xml:space="preserve" text-anchor="middle" x="920.7" y="-331.5" font-family="Arial" font-size="10.00">name + argv</text>
</g>
<!-- CommandRule&#45;&gt;Command -->
<g id="edge4" class="edge">
<title>CommandRule&#45;&gt;Command</title>
<path fill="none" stroke="#455a64" d="M533.96,-529.63C611.53,-491.7 789.17,-404.83 873.55,-363.56"/>
<polygon fill="#455a64" stroke="#455a64" points="874.59,-366.17 880.55,-360.14 872.13,-361.14 874.59,-366.17"/>
</g>
<!-- Tool -->
<g id="node4" class="node">
<title>Tool</title>
<path fill="#e3f2fd" stroke="#1565c0" d="M534.88,-348C534.88,-348 455.92,-348 455.92,-348 449.92,-348 443.92,-342 443.92,-336 443.92,-336 443.92,-324 443.92,-324 443.92,-318 449.92,-312 455.92,-312 455.92,-312 534.88,-312 534.88,-312 540.88,-312 546.88,-318 546.88,-324 546.88,-324 546.88,-336 546.88,-336 546.88,-342 540.88,-348 534.88,-348"/>
<text xml:space="preserve" text-anchor="middle" x="495.4" y="-332.5" font-family="Arial" font-size="10.00">tools/e5.py</text>
<text xml:space="preserve" text-anchor="middle" x="495.4" y="-320.5" font-family="Arial" font-size="10.00">point d&#39;entrée unique</text>
</g>
<!-- Tool&#45;&gt;ToolCli -->
<g id="edge5" class="edge">
<title>Tool&#45;&gt;ToolCli</title>
<path fill="none" stroke="#455a64" d="M547.02,-330C573.95,-330 606.8,-330 632.88,-330"/>
<polygon fill="#455a64" stroke="#455a64" points="632.64,-332.8 640.64,-330 632.64,-327.2 632.64,-332.8"/>
</g>
<!-- Future -->
<g id="node16" class="node">
<title>Future</title>
<path fill="#fff3e0" stroke="#ef6c00" d="M713.72,-268C713.72,-268 644.51,-268 644.51,-268 638.51,-268 632.51,-262 632.51,-256 632.51,-256 632.51,-244 632.51,-244 632.51,-238 638.51,-232 644.51,-232 644.51,-232 713.72,-232 713.72,-232 719.72,-232 725.72,-238 725.72,-244 725.72,-244 725.72,-256 725.72,-256 725.72,-262 719.72,-268 713.72,-268"/>
<text xml:space="preserve" text-anchor="middle" x="679.11" y="-252.5" font-family="Arial" font-size="10.00">direction future</text>
<text xml:space="preserve" text-anchor="middle" x="679.11" y="-240.5" font-family="Arial" font-size="10.00">wrappers ultra&#45;fins</text>
</g>
<!-- Tool&#45;&gt;Future -->
<g id="edge15" class="edge">
<title>Tool&#45;&gt;Future</title>
<path fill="none" stroke="#455a64" stroke-dasharray="5,2" d="M539.86,-311.51C544.93,-309.33 550.02,-307.12 554.88,-305 579.25,-294.35 606.23,-282.34 628.72,-272.26"/>
<polygon fill="#455a64" stroke="#455a64" points="629.57,-274.94 635.72,-269.12 627.28,-269.84 629.57,-274.94"/>
</g>
<!-- ToolCli&#45;&gt;Command -->
<g id="edge6" class="edge">
<title>ToolCli&#45;&gt;Command</title>
<path fill="none" stroke="#455a64" d="M715.98,-331.65C755.95,-333.48 820.98,-336.47 866.8,-338.57"/>
<polygon fill="#455a64" stroke="#455a64" points="866.63,-341.37 874.75,-338.94 866.89,-335.77 866.63,-341.37"/>
<text xml:space="preserve" text-anchor="middle" x="810.22" y="-339.08" font-family="Arial" font-size="9.00">parse minimal</text>
</g>
<!-- NoQdrant -->
<g id="node19" class="node">
<title>NoQdrant</title>
<path fill="#fafafa" stroke="#78909c" d="M945.93,-268C945.93,-268 895.47,-268 895.47,-268 889.47,-268 883.47,-262 883.47,-256 883.47,-256 883.47,-244 883.47,-244 883.47,-238 889.47,-232 895.47,-232 895.47,-232 945.93,-232 945.93,-232 951.93,-232 957.93,-238 957.93,-244 957.93,-244 957.93,-256 957.93,-256 957.93,-262 951.93,-268 945.93,-268"/>
<text xml:space="preserve" text-anchor="middle" x="920.7" y="-246.5" font-family="Arial" font-size="10.00">pas de Qdrant</text>
</g>
<!-- ToolCli&#45;&gt;NoQdrant -->
<g id="edge22" class="edge">
<title>ToolCli&#45;&gt;NoQdrant</title>
<path fill="none" stroke="#455a64" stroke-dasharray="1,5" d="M715.73,-319.15C729.67,-314.84 745.79,-309.78 760.34,-305 798.97,-292.32 842.61,-277.2 874.44,-266.03"/>
<polygon fill="#455a64" stroke="#455a64" points="875.04,-268.78 881.66,-263.49 873.19,-263.5 875.04,-268.78"/>
</g>
<!-- NoScheduler -->
<g id="node20" class="node">
<title>NoScheduler</title>
<path fill="#fafafa" stroke="#78909c" d="M953.05,-196C953.05,-196 888.34,-196 888.34,-196 882.34,-196 876.34,-190 876.34,-184 876.34,-184 876.34,-172 876.34,-172 876.34,-166 882.34,-160 888.34,-160 888.34,-160 953.05,-160 953.05,-160 959.05,-160 965.05,-166 965.05,-172 965.05,-172 965.05,-184 965.05,-184 965.05,-190 959.05,-196 953.05,-196"/>
<text xml:space="preserve" text-anchor="middle" x="920.7" y="-174.5" font-family="Arial" font-size="10.00">pas de Scheduler</text>
</g>
<!-- ToolCli&#45;&gt;NoScheduler -->
<g id="edge23" class="edge">
<title>ToolCli&#45;&gt;NoScheduler</title>
<path fill="none" stroke="#455a64" stroke-dasharray="1,5" d="M715.98,-324.73C730.9,-321.13 747.67,-315.09 760.34,-305 774.83,-293.46 768.79,-282.62 781.34,-269 810.27,-237.61 824.3,-237.27 860.09,-214 866.57,-209.78 873.54,-205.43 880.34,-201.26"/>
<polygon fill="#455a64" stroke="#455a64" points="881.53,-203.82 886.92,-197.27 878.62,-199.03 881.53,-203.82"/>
</g>
<!-- NoSchema -->
<g id="node21" class="node">
<title>NoSchema</title>
<path fill="#fafafa" stroke="#78909c" d="M961.3,-124C961.3,-124 880.09,-124 880.09,-124 874.09,-124 868.09,-118 868.09,-112 868.09,-112 868.09,-100 868.09,-100 868.09,-94 874.09,-88 880.09,-88 880.09,-88 961.3,-88 961.3,-88 967.3,-88 973.3,-94 973.3,-100 973.3,-100 973.3,-112 973.3,-112 973.3,-118 967.3,-124 961.3,-124"/>
<text xml:space="preserve" text-anchor="middle" x="920.7" y="-108.5" font-family="Arial" font-size="10.00">pas de changement</text>
<text xml:space="preserve" text-anchor="middle" x="920.7" y="-96.5" font-family="Arial" font-size="10.00">missipy.e5.corpus.v1</text>
</g>
<!-- ToolCli&#45;&gt;NoSchema -->
<g id="edge24" class="edge">
<title>ToolCli&#45;&gt;NoSchema</title>
<path fill="none" stroke="#455a64" stroke-dasharray="1,5" d="M715.86,-326.73C731.5,-323.52 748.85,-317.23 760.34,-305 787.28,-276.32 761.86,-253.18 781.34,-219 803.64,-179.88 845.15,-148.78 876.91,-129.2"/>
<polygon fill="#455a64" stroke="#455a64" points="878.05,-131.78 883.46,-125.25 875.16,-126.98 878.05,-131.78"/>
</g>
<!-- NoBackend -->
<g id="node22" class="node">
<title>NoBackend</title>
<path fill="#fafafa" stroke="#78909c" d="M960.18,-52C960.18,-52 881.22,-52 881.22,-52 875.22,-52 869.22,-46 869.22,-40 869.22,-40 869.22,-28 869.22,-28 869.22,-22 875.22,-16 881.22,-16 881.22,-16 960.18,-16 960.18,-16 966.18,-16 972.18,-22 972.18,-28 972.18,-28 972.18,-40 972.18,-40 972.18,-46 966.18,-52 960.18,-52"/>
<text xml:space="preserve" text-anchor="middle" x="920.7" y="-36.5" font-family="Arial" font-size="10.00">pas de backend</text>
<text xml:space="preserve" text-anchor="middle" x="920.7" y="-24.5" font-family="Arial" font-size="10.00">chargé implicitement</text>
</g>
<!-- ToolCli&#45;&gt;NoBackend -->
<g id="edge25" class="edge">
<title>ToolCli&#45;&gt;NoBackend</title>
<path fill="none" stroke="#455a64" stroke-dasharray="1,5" d="M716.05,-327.35C731.92,-324.28 749.42,-317.93 760.34,-305 805.48,-251.55 750.36,-211.72 781.34,-149 801.42,-108.34 843.23,-76.81 875.66,-57.13"/>
<polygon fill="#455a64" stroke="#455a64" points="876.92,-59.64 882.38,-53.16 874.07,-54.82 876.92,-59.64"/>
</g>
<!-- Policy -->
<g id="node7" class="node">
<title>Policy</title>
<path fill="#e3f2fd" stroke="#1565c0" d="M1129.26,-359C1129.26,-359 1044.3,-359 1044.3,-359 1038.3,-359 1032.3,-353 1032.3,-347 1032.3,-347 1032.3,-335 1032.3,-335 1032.3,-329 1038.3,-323 1044.3,-323 1044.3,-323 1129.26,-323 1129.26,-323 1135.26,-323 1141.26,-329 1141.26,-335 1141.26,-335 1141.26,-347 1141.26,-347 1141.26,-353 1135.26,-359 1129.26,-359"/>
<text xml:space="preserve" text-anchor="middle" x="1086.78" y="-343.5" font-family="Arial" font-size="10.00">E5ToolDispatchPolicy</text>
<text xml:space="preserve" text-anchor="middle" x="1086.78" y="-331.5" font-family="Arial" font-size="10.00">handlers explicites</text>
</g>
<!-- Command&#45;&gt;Policy -->
<g id="edge7" class="edge">
<title>Command&#45;&gt;Policy</title>
<path fill="none" stroke="#455a64" d="M964.81,-341C982.51,-341 1003.37,-341 1022.73,-341"/>
<polygon fill="#455a64" stroke="#455a64" points="1022.59,-343.8 1030.59,-341 1022.58,-338.2 1022.59,-343.8"/>
</g>
<!-- Embed -->
<g id="node8" class="node">
<title>Embed</title>
<path fill="#e8f5e9" stroke="#2e7d32" d="M1297.22,-546C1297.22,-546 1266.26,-546 1266.26,-546 1260.26,-546 1254.26,-540 1254.26,-534 1254.26,-534 1254.26,-522 1254.26,-522 1254.26,-516 1260.26,-510 1266.26,-510 1266.26,-510 1297.22,-510 1297.22,-510 1303.22,-510 1309.22,-516 1309.22,-522 1309.22,-522 1309.22,-534 1309.22,-534 1309.22,-540 1303.22,-546 1297.22,-546"/>
<text xml:space="preserve" text-anchor="middle" x="1281.74" y="-530.5" font-family="Arial" font-size="10.00">embed</text>
<text xml:space="preserve" text-anchor="middle" x="1281.74" y="-518.5" font-family="Arial" font-size="10.00">e5_cli.run</text>
</g>
<!-- Policy&#45;&gt;Embed -->
<g id="edge8" class="edge">
<title>Policy&#45;&gt;Embed</title>
<path fill="none" stroke="#455a64" d="M1096.08,-359.37C1111.08,-390.64 1145.51,-454.5 1192.26,-492 1207.68,-504.37 1227.93,-513.03 1245.16,-518.74"/>
<polygon fill="#455a64" stroke="#455a64" points="1243.94,-521.3 1252.42,-521.02 1245.62,-515.95 1243.94,-521.3"/>
</g>
<!-- Rank -->
<g id="node9" class="node">
<title>Rank</title>
<path fill="#e8f5e9" stroke="#2e7d32" d="M1309.22,-474C1309.22,-474 1254.26,-474 1254.26,-474 1248.26,-474 1242.26,-468 1242.26,-462 1242.26,-462 1242.26,-450 1242.26,-450 1242.26,-444 1248.26,-438 1254.26,-438 1254.26,-438 1309.22,-438 1309.22,-438 1315.22,-438 1321.22,-444 1321.22,-450 1321.22,-450 1321.22,-462 1321.22,-462 1321.22,-468 1315.22,-474 1309.22,-474"/>
<text xml:space="preserve" text-anchor="middle" x="1281.74" y="-458.5" font-family="Arial" font-size="10.00">rank</text>
<text xml:space="preserve" text-anchor="middle" x="1281.74" y="-446.5" font-family="Arial" font-size="10.00">e5_rank_cli.run</text>
</g>
<!-- Policy&#45;&gt;Rank -->
<g id="edge9" class="edge">
<title>Policy&#45;&gt;Rank</title>
<path fill="none" stroke="#455a64" d="M1108.65,-359.39C1128.96,-376.64 1161.22,-402.36 1192.26,-420 1205.03,-427.26 1219.56,-433.81 1233.1,-439.27"/>
<polygon fill="#455a64" stroke="#455a64" points="1231.95,-441.82 1240.42,-442.14 1234,-436.61 1231.95,-441.82"/>
</g>
<!-- Build -->
<g id="node10" class="node">
<title>Build</title>
<path fill="#e8f5e9" stroke="#2e7d32" d="M1327.22,-402C1327.22,-402 1236.26,-402 1236.26,-402 1230.26,-402 1224.26,-396 1224.26,-390 1224.26,-390 1224.26,-378 1224.26,-378 1224.26,-372 1230.26,-366 1236.26,-366 1236.26,-366 1327.22,-366 1327.22,-366 1333.22,-366 1339.22,-372 1339.22,-378 1339.22,-378 1339.22,-390 1339.22,-390 1339.22,-396 1333.22,-402 1327.22,-402"/>
<text xml:space="preserve" text-anchor="middle" x="1281.74" y="-386.5" font-family="Arial" font-size="10.00">build</text>
<text xml:space="preserve" text-anchor="middle" x="1281.74" y="-374.5" font-family="Arial" font-size="10.00">e5_corpus_cli.run_build</text>
</g>
<!-- Policy&#45;&gt;Build -->
<g id="edge10" class="edge">
<title>Policy&#45;&gt;Build</title>
<path fill="none" stroke="#455a64" d="M1141.53,-352.98C1164.27,-358.05 1190.99,-364 1214.9,-369.33"/>
<polygon fill="#455a64" stroke="#455a64" points="1214.01,-372 1222.43,-371.01 1215.23,-366.53 1214.01,-372"/>
</g>
<!-- Search -->
<g id="node11" class="node">
<title>Search</title>
<g id="a_node11"><a xlink:href="65_e5_search_report_file.svg" xlink:title="search&#10;e5_corpus_cli.run_search">
<path fill="#e8f5e9" stroke="#2e7d32" d="M1331.72,-330C1331.72,-330 1231.76,-330 1231.76,-330 1225.76,-330 1219.76,-324 1219.76,-318 1219.76,-318 1219.76,-306 1219.76,-306 1219.76,-300 1225.76,-294 1231.76,-294 1231.76,-294 1331.72,-294 1331.72,-294 1337.72,-294 1343.72,-300 1343.72,-306 1343.72,-306 1343.72,-318 1343.72,-318 1343.72,-324 1337.72,-330 1331.72,-330"/>
<text xml:space="preserve" text-anchor="middle" x="1281.74" y="-314.5" font-family="Arial" font-size="10.00">search</text>
<text xml:space="preserve" text-anchor="middle" x="1281.74" y="-302.5" font-family="Arial" font-size="10.00">e5_corpus_cli.run_search</text>
</a>
</g>
</g>
<!-- Policy&#45;&gt;Search -->
<g id="edge11" class="edge">
<title>Policy&#45;&gt;Search</title>
<path fill="none" stroke="#455a64" d="M1141.53,-332.92C1162.8,-329.73 1187.54,-326.01 1210.21,-322.6"/>
<polygon fill="#455a64" stroke="#455a64" points="1210.46,-325.39 1217.96,-321.44 1209.63,-319.86 1210.46,-325.39"/>
</g>
<!-- Rebuild -->
<g id="node12" class="node">
<title>Rebuild</title>
<g id="a_node12"><a xlink:href="64_e5_rebuild_report_file.svg" xlink:title="rebuild&#10;e5_rebuild_cli.run_rebuild">
<path fill="#e8f5e9" stroke="#2e7d32" d="M1330.97,-258C1330.97,-258 1232.51,-258 1232.51,-258 1226.51,-258 1220.51,-252 1220.51,-246 1220.51,-246 1220.51,-234 1220.51,-234 1220.51,-228 1226.51,-222 1232.51,-222 1232.51,-222 1330.97,-222 1330.97,-222 1336.97,-222 1342.97,-228 1342.97,-234 1342.97,-234 1342.97,-246 1342.97,-246 1342.97,-252 1336.97,-258 1330.97,-258"/>
<text xml:space="preserve" text-anchor="middle" x="1281.74" y="-242.5" font-family="Arial" font-size="10.00">rebuild</text>
<text xml:space="preserve" text-anchor="middle" x="1281.74" y="-230.5" font-family="Arial" font-size="10.00">e5_rebuild_cli.run_rebuild</text>
</a>
</g>
</g>
<!-- Policy&#45;&gt;Rebuild -->
<g id="edge12" class="edge">
<title>Policy&#45;&gt;Rebuild</title>
<path fill="none" stroke="#455a64" d="M1114.54,-322.59C1135.22,-308.79 1164.85,-289.97 1192.26,-276 1201.96,-271.06 1212.5,-266.28 1222.81,-261.91"/>
<polygon fill="#455a64" stroke="#455a64" points="1223.68,-264.58 1230,-258.93 1221.53,-259.41 1223.68,-264.58"/>
</g>
<!-- Inspect -->
<g id="node13" class="node">
<title>Inspect</title>
<g id="a_node13"><a xlink:href="60_e5_corpus_diagnostics.svg" xlink:title="inspect&#10;e5_corpus_inspect_cli.run_inspect">
<path fill="#e8f5e9" stroke="#2e7d32" d="M1351.22,-186C1351.22,-186 1212.26,-186 1212.26,-186 1206.26,-186 1200.26,-180 1200.26,-174 1200.26,-174 1200.26,-162 1200.26,-162 1200.26,-156 1206.26,-150 1212.26,-150 1212.26,-150 1351.22,-150 1351.22,-150 1357.22,-150 1363.22,-156 1363.22,-162 1363.22,-162 1363.22,-174 1363.22,-174 1363.22,-180 1357.22,-186 1351.22,-186"/>
<text xml:space="preserve" text-anchor="middle" x="1281.74" y="-170.5" font-family="Arial" font-size="10.00">inspect</text>
<text xml:space="preserve" text-anchor="middle" x="1281.74" y="-158.5" font-family="Arial" font-size="10.00">e5_corpus_inspect_cli.run_inspect</text>
</a>
</g>
</g>
<!-- Policy&#45;&gt;Inspect -->
<g id="edge13" class="edge">
<title>Policy&#45;&gt;Inspect</title>
<path fill="none" stroke="#455a64" d="M1097.55,-322.52C1113.69,-293.58 1148.54,-237.43 1192.26,-204 1198.94,-198.9 1206.43,-194.4 1214.17,-190.48"/>
<polygon fill="#455a64" stroke="#455a64" points="1215.25,-193.06 1221.26,-187.09 1212.84,-188.01 1215.25,-193.06"/>
</g>
<!-- Wrappers -->
<g id="node14" class="node">
<title>Wrappers</title>
<path fill="#fff3e0" stroke="#ef6c00" d="M529.63,-268C529.63,-268 461.17,-268 461.17,-268 455.17,-268 449.17,-262 449.17,-256 449.17,-256 449.17,-244 449.17,-244 449.17,-238 455.17,-232 461.17,-232 461.17,-232 529.63,-232 529.63,-232 535.63,-232 541.63,-238 541.63,-244 541.63,-244 541.63,-256 541.63,-256 541.63,-262 535.63,-268 529.63,-268"/>
<text xml:space="preserve" text-anchor="middle" x="495.4" y="-252.5" font-family="Arial" font-size="10.00">scripts historiques</text>
<text xml:space="preserve" text-anchor="middle" x="495.4" y="-240.5" font-family="Arial" font-size="10.00">conservés</text>
</g>
<!-- NoRemoval -->
<g id="node15" class="node">
<title>NoRemoval</title>
<path fill="#fff3e0" stroke="#ef6c00" d="M740.34,-196C740.34,-196 617.88,-196 617.88,-196 611.88,-196 605.88,-190 605.88,-184 605.88,-184 605.88,-172 605.88,-172 605.88,-166 611.88,-160 617.88,-160 617.88,-160 740.34,-160 740.34,-160 746.34,-160 752.34,-166 752.34,-172 752.34,-172 752.34,-184 752.34,-184 752.34,-190 746.34,-196 740.34,-196"/>
<text xml:space="preserve" text-anchor="middle" x="679.11" y="-180.5" font-family="Arial" font-size="10.00">aucune suppression</text>
<text xml:space="preserve" text-anchor="middle" x="679.11" y="-168.5" font-family="Arial" font-size="10.00">pour ne pas casser les usages</text>
</g>
<!-- Wrappers&#45;&gt;NoRemoval -->
<g id="edge14" class="edge">
<title>Wrappers&#45;&gt;NoRemoval</title>
<path fill="none" stroke="#455a64" d="M541.78,-232.02C566.43,-222.25 597.1,-210.1 623.1,-199.8"/>
<polygon fill="#455a64" stroke="#455a64" points="623.91,-202.49 630.32,-196.94 621.85,-197.28 623.91,-202.49"/>
</g>
<!-- Wrappers&#45;&gt;Future -->
<g id="edge16" class="edge">
<title>Wrappers&#45;&gt;Future</title>
<path fill="none" stroke="#455a64" stroke-dasharray="5,2" d="M541.78,-250C566.31,-250 596.8,-250 622.72,-250"/>
<polygon fill="#455a64" stroke="#455a64" points="622.53,-252.8 630.53,-250 622.53,-247.2 622.53,-252.8"/>
</g>
<!-- ToolTests -->
<g id="node17" class="node">
<title>ToolTests</title>
<path fill="#ffebee" stroke="#c62828" d="M146.21,-421C146.21,-421 75.5,-421 75.5,-421 69.5,-421 63.5,-415 63.5,-409 63.5,-409 63.5,-397 63.5,-397 63.5,-391 69.5,-385 75.5,-385 75.5,-385 146.21,-385 146.21,-385 152.21,-385 158.21,-391 158.21,-397 158.21,-397 158.21,-409 158.21,-409 158.21,-415 152.21,-421 146.21,-421"/>
<text xml:space="preserve" text-anchor="middle" x="110.86" y="-405.5" font-family="Arial" font-size="10.00">test_e5_tool_cli.py</text>
<text xml:space="preserve" text-anchor="middle" x="110.86" y="-393.5" font-family="Arial" font-size="10.00">dispatch + erreurs</text>
</g>
<!-- ToolTests&#45;&gt;ToolCli -->
<g id="edge17" class="edge">
<title>ToolTests&#45;&gt;ToolCli</title>
<path fill="none" stroke="#455a64" d="M158.5,-402.18C239.71,-400.06 412.03,-392.55 554.88,-366 581.29,-361.09 610.14,-352.83 633.28,-345.45"/>
<polygon fill="#455a64" stroke="#455a64" points="633.99,-348.17 640.74,-343.04 632.26,-342.84 633.99,-348.17"/>
</g>
<!-- ToolTests&#45;&gt;Command -->
<g id="edge18" class="edge">
<title>ToolTests&#45;&gt;Command</title>
<path fill="none" stroke="#455a64" d="M158.52,-414.11C178.02,-420.93 199.42,-431.61 213.71,-448 259.28,-500.28 208.94,-547.73 256.71,-598 278.43,-620.85 292.29,-621 323.82,-621 323.82,-621 323.82,-621 680.11,-621 812.36,-621 887.25,-438.43 911.18,-368.13"/>
<polygon fill="#455a64" stroke="#455a64" points="913.75,-369.28 913.62,-360.81 908.44,-367.51 913.75,-369.28"/>
</g>
<!-- RuleTests -->
<g id="node18" class="node">
<title>RuleTests</title>
<path fill="#ffebee" stroke="#c62828" d="M175.46,-349C175.46,-349 46.25,-349 46.25,-349 40.25,-349 34.25,-343 34.25,-337 34.25,-337 34.25,-325 34.25,-325 34.25,-319 40.25,-313 46.25,-313 46.25,-313 175.46,-313 175.46,-313 181.46,-313 187.46,-319 187.46,-325 187.46,-325 187.46,-337 187.46,-337 187.46,-343 181.46,-349 175.46,-349"/>
<text xml:space="preserve" text-anchor="middle" x="110.86" y="-333.5" font-family="Arial" font-size="10.00">test_e5_code_rule_alignment.py</text>
<text xml:space="preserve" text-anchor="middle" x="110.86" y="-321.5" font-family="Arial" font-size="10.00">façade + wrappers</text>
</g>
<!-- RuleTests&#45;&gt;CodeRule -->
<g id="edge19" class="edge">
<title>RuleTests&#45;&gt;CodeRule</title>
<path fill="none" stroke="#455a64" d="M177.68,-349.46C190.11,-354.26 202.67,-360.08 213.71,-367 249.85,-389.66 283.47,-426.08 303.82,-450.51"/>
<polygon fill="#455a64" stroke="#455a64" points="301.5,-452.1 308.74,-456.51 305.83,-448.55 301.5,-452.1"/>
</g>
<!-- RuleTests&#45;&gt;Tool -->
<g id="edge20" class="edge">
<title>RuleTests&#45;&gt;Tool</title>
<path fill="none" stroke="#455a64" d="M187.89,-330.8C260.31,-330.61 367.87,-330.33 434.43,-330.16"/>
<polygon fill="#455a64" stroke="#455a64" points="434.04,-332.96 442.03,-330.14 434.02,-327.36 434.04,-332.96"/>
</g>
<!-- RuleTests&#45;&gt;Wrappers -->
<g id="edge21" class="edge">
<title>RuleTests&#45;&gt;Wrappers</title>
<path fill="none" stroke="#455a64" d="M187.89,-314.9C262.29,-299.15 373.77,-275.54 439.79,-261.56"/>
<polygon fill="#455a64" stroke="#455a64" points="440.07,-264.37 447.31,-259.97 438.91,-258.89 440.07,-264.37"/>
</g>
<!-- Legend -->
<g id="node23" class="node">
<title>Legend</title>
<path fill="#ffffff" stroke="none" d="M193.71,-583.32C193.71,-583.32 28,-583.32 28,-583.32 22,-583.32 16,-577.32 16,-571.32 16,-571.32 16,-476.68 16,-476.68 16,-470.68 22,-464.68 28,-464.68 28,-464.68 193.71,-464.68 193.71,-464.68 199.71,-464.68 205.71,-470.68 205.71,-476.68 205.71,-476.68 205.71,-571.32 205.71,-571.32 205.71,-577.32 199.71,-583.32 193.71,-583.32"/>
<polygon fill="#ede7f6" stroke="none" points="22.48,-557 22.48,-579 63.98,-579 63.98,-557 22.48,-557"/>
<polygon fill="none" stroke="#ffffff" points="22.48,-557 22.48,-579 63.98,-579 63.98,-557 22.48,-557"/>
<text xml:space="preserve" text-anchor="start" x="30.86" y="-564.25" font-family="Arial" font-size="10.00">Violet</text>
<polygon fill="none" stroke="#ffffff" points="63.98,-557 63.98,-579 199.23,-579 199.23,-557 63.98,-557"/>
<text xml:space="preserve" text-anchor="start" x="76.48" y="-564.25" font-family="Arial" font-size="10.00">règle code_rule appliquée</text>
<polygon fill="#e3f2fd" stroke="none" points="22.48,-535 22.48,-557 63.98,-557 63.98,-535 22.48,-535"/>
<polygon fill="none" stroke="#ffffff" points="22.48,-535 22.48,-557 63.98,-557 63.98,-535 22.48,-535"/>
<text xml:space="preserve" text-anchor="start" x="33.48" y="-542.25" font-family="Arial" font-size="10.00">Bleu</text>
<polygon fill="none" stroke="#ffffff" points="63.98,-535 63.98,-557 199.23,-557 199.23,-535 63.98,-535"/>
<text xml:space="preserve" text-anchor="start" x="77.98" y="-542.25" font-family="Arial" font-size="10.00">façade et dispatch typés</text>
<polygon fill="#e8f5e9" stroke="none" points="22.48,-513 22.48,-535 63.98,-535 63.98,-513 22.48,-513"/>
<polygon fill="none" stroke="#ffffff" points="22.48,-513 22.48,-535 63.98,-535 63.98,-513 22.48,-513"/>
<text xml:space="preserve" text-anchor="start" x="34.61" y="-520.25" font-family="Arial" font-size="10.00">Vert</text>
<polygon fill="none" stroke="#ffffff" points="63.98,-513 63.98,-535 199.23,-535 199.23,-513 63.98,-513"/>
<text xml:space="preserve" text-anchor="start" x="68.98" y="-520.25" font-family="Arial" font-size="10.00">sous&#45;commandes existantes</text>
<polygon fill="#fff3e0" stroke="none" points="22.48,-491 22.48,-513 63.98,-513 63.98,-491 22.48,-491"/>
<polygon fill="none" stroke="#ffffff" points="22.48,-491 22.48,-513 63.98,-513 63.98,-491 22.48,-491"/>
<text xml:space="preserve" text-anchor="start" x="27.48" y="-498.25" font-family="Arial" font-size="10.00">Orange</text>
<polygon fill="none" stroke="#ffffff" points="63.98,-491 63.98,-513 199.23,-513 199.23,-491 63.98,-491"/>
<text xml:space="preserve" text-anchor="start" x="80.23" y="-498.25" font-family="Arial" font-size="10.00">compatibilité conservée</text>
<polygon fill="#ffebee" stroke="none" points="22.48,-469 22.48,-491 63.98,-491 63.98,-469 22.48,-469"/>
<polygon fill="none" stroke="#ffffff" points="22.48,-469 22.48,-491 63.98,-491 63.98,-469 22.48,-469"/>
<text xml:space="preserve" text-anchor="start" x="28.98" y="-476.25" font-family="Arial" font-size="10.00">Rouge</text>
<polygon fill="none" stroke="#ffffff" points="63.98,-469 63.98,-491 199.23,-491 199.23,-469 63.98,-469"/>
<text xml:space="preserve" text-anchor="start" x="89.98" y="-476.25" font-family="Arial" font-size="10.00">tests anti&#45;dérapage</text>
</g>
</g>
</svg>
