<?xml version="1.0" encoding="UTF-8" standalone="no"?>
<!DOCTYPE svg PUBLIC "-//W3C//DTD SVG 1.1//EN"
 "http://www.w3.org/Graphics/SVG/1.1/DTD/svg11.dtd">
<!-- Generated by graphviz version 14.1.3 (20260303.0454)
 -->
<!-- Title: E5ContextBundle Pages: 1 -->
<svg width="1494pt" height="782pt"
 viewBox="0.00 0.00 1494.00 782.00" xmlns="http://www.w3.org/2000/svg" xmlns:xlink="http://www.w3.org/1999/xlink">
<g id="graph0" class="graph" transform="scale(1 1) rotate(0) translate(18 764)">
<title>E5ContextBundle</title>
<polygon fill="white" stroke="none" points="-18,18 -18,-764 1475.93,-764 1475.93,18 -18,18"/>
<text xml:space="preserve" text-anchor="middle" x="728.97" y="-732.5" font-family="Arial" font-size="10.00">Phase 4.14 — E5 context bundle</text>
<g id="clust1" class="cluster">
<title>cluster_rule</title>
<polygon fill="#ede7f6" stroke="#5e35b1" stroke-width="1.5" points="21.38,-8 21.38,-152 384.42,-152 384.42,-8 21.38,-8"/>
<text xml:space="preserve" text-anchor="middle" x="202.9" y="-138.5" font-family="Arial" font-size="10.00">Code rule</text>
</g>
<g id="clust2" class="cluster">
<title>cluster_search</title>
<polygon fill="#e3f2fd" stroke="#1565c0" stroke-width="1.5" points="426.42,-173 426.42,-245 896.55,-245 896.55,-173 426.42,-173"/>
<text xml:space="preserve" text-anchor="middle" x="661.49" y="-231.5" font-family="Arial" font-size="10.00">Recherche existante</text>
</g>
<g id="clust3" class="cluster">
<title>cluster_context</title>
<polygon fill="#e8f5e9" stroke="#2e7d32" stroke-width="1.5" points="938.55,-134 938.55,-422 1227.1,-422 1227.1,-134 938.55,-134"/>
<text xml:space="preserve" text-anchor="middle" x="1082.82" y="-408.5" font-family="Arial" font-size="10.00">Bundle de contexte</text>
</g>
<g id="clust4" class="cluster">
<title>cluster_io</title>
<polygon fill="#fff3e0" stroke="#ef6c00" stroke-width="1.5" points="1092.01,-54 1092.01,-126 1449.93,-126 1449.93,-54 1092.01,-54"/>
<text xml:space="preserve" text-anchor="middle" x="1270.97" y="-112.5" font-family="Arial" font-size="10.00">Bordure IO</text>
</g>
<g id="clust5" class="cluster">
<title>cluster_tests</title>
<polygon fill="#ffebee" stroke="#c62828" stroke-width="1.5" points="21,-160 21,-376 185.71,-376 185.71,-160 21,-160"/>
<text xml:space="preserve" text-anchor="middle" x="103.36" y="-362.5" font-family="Arial" font-size="10.00">Tests</text>
</g>
<g id="clust6" class="cluster">
<title>cluster_scope</title>
<polygon fill="#fafafa" stroke="#b0bec5" points="1086.01,-430 1086.01,-718 1229.72,-718 1229.72,-430 1086.01,-430"/>
<text xml:space="preserve" text-anchor="middle" x="1157.87" y="-704.5" font-family="Arial" font-size="10.00">Hors périmètre 4.14</text>
</g>
<g id="clust7" class="cluster">
<title>cluster_legend</title>
<polygon fill="#ffffff" stroke="#cfd8dc" points="8,-474 8,-628 198.71,-628 198.71,-474 8,-474"/>
<text xml:space="preserve" text-anchor="middle" x="103.36" y="-614.5" font-family="Arial" font-size="10.00">Légende</text>
</g>
<!-- Parent -->
<g id="node1" class="node">
<title>Parent</title>
<g id="a_node1"><a xlink:href="67_e5_unified_command_surface.svg" xlink:title="← unified command surface">
<path fill="#ede7f6" stroke="#5e35b1" d="M158.96,-124C158.96,-124 47.75,-124 47.75,-124 41.75,-124 35.75,-118 35.75,-112 35.75,-112 35.75,-100 35.75,-100 35.75,-94 41.75,-88 47.75,-88 47.75,-88 158.96,-88 158.96,-88 164.96,-88 170.96,-94 170.96,-100 170.96,-100 170.96,-112 170.96,-112 170.96,-118 164.96,-124 158.96,-124"/>
<text xml:space="preserve" text-anchor="middle" x="103.36" y="-102.5" font-family="Arial" font-size="10.00">← unified command surface</text>
</a>
</g>
</g>
<!-- NoNewScript -->
<g id="node2" class="node">
<title>NoNewScript</title>
<path fill="#ede7f6" stroke="#5e35b1" d="M364.42,-124C364.42,-124 260.71,-124 260.71,-124 254.71,-124 248.71,-118 248.71,-112 248.71,-112 248.71,-100 248.71,-100 248.71,-94 254.71,-88 260.71,-88 260.71,-88 364.42,-88 364.42,-88 370.42,-88 376.42,-94 376.42,-100 376.42,-100 376.42,-112 376.42,-112 376.42,-118 370.42,-124 364.42,-124"/>
<text xml:space="preserve" text-anchor="middle" x="312.57" y="-108.5" font-family="Arial" font-size="10.00">pas de nouveau script CLI</text>
<text xml:space="preserve" text-anchor="middle" x="312.57" y="-96.5" font-family="Arial" font-size="10.00">option sur search existant</text>
</g>
<!-- Parent&#45;&gt;NoNewScript -->
<g id="edge1" class="edge">
<title>Parent&#45;&gt;NoNewScript</title>
<path fill="none" stroke="#455a64" d="M171.34,-106C192.97,-106 217.03,-106 239.04,-106"/>
<polygon fill="#455a64" stroke="#455a64" points="238.81,-108.8 246.81,-106 238.81,-103.2 238.81,-108.8"/>
</g>
<!-- SearchCli -->
<g id="node4" class="node">
<title>SearchCli</title>
<g id="a_node4"><a xlink:href="65_e5_search_report_file.svg" xlink:title="search_e5_corpus.py\n&#45;&#45;context&#45;file FILE">
<path fill="#e3f2fd" stroke="#1565c0" d="M528.38,-217C528.38,-217 446.42,-217 446.42,-217 440.42,-217 434.42,-211 434.42,-205 434.42,-205 434.42,-193 434.42,-193 434.42,-187 440.42,-181 446.42,-181 446.42,-181 528.38,-181 528.38,-181 534.38,-181 540.38,-187 540.38,-193 540.38,-193 540.38,-205 540.38,-205 540.38,-211 534.38,-217 528.38,-217"/>
<text xml:space="preserve" text-anchor="middle" x="487.4" y="-201.5" font-family="Arial" font-size="10.00">search_e5_corpus.py</text>
<text xml:space="preserve" text-anchor="middle" x="487.4" y="-189.5" font-family="Arial" font-size="10.00">&#45;&#45;context&#45;file FILE</text>
</a>
</g>
</g>
<!-- NoNewScript&#45;&gt;SearchCli -->
<g id="edge2" class="edge">
<title>NoNewScript&#45;&gt;SearchCli</title>
<path fill="none" stroke="#455a64" d="M347.71,-124.37C375.32,-139.23 414.32,-160.22 443.94,-176.15"/>
<polygon fill="#455a64" stroke="#455a64" points="442.32,-178.46 450.7,-179.79 444.98,-173.53 442.32,-178.46"/>
</g>
<!-- NoDeps -->
<g id="node3" class="node">
<title>NoDeps</title>
<path fill="#ede7f6" stroke="#5e35b1" d="M165.34,-52C165.34,-52 41.38,-52 41.38,-52 35.38,-52 29.38,-46 29.38,-40 29.38,-40 29.38,-28 29.38,-28 29.38,-22 35.38,-16 41.38,-16 41.38,-16 165.34,-16 165.34,-16 171.34,-16 177.34,-22 177.34,-28 177.34,-28 177.34,-40 177.34,-40 177.34,-46 171.34,-52 165.34,-52"/>
<text xml:space="preserve" text-anchor="middle" x="103.36" y="-30.5" font-family="Arial" font-size="10.00">aucune dépendance hors stdlib</text>
</g>
<!-- Bundle -->
<g id="node7" class="node">
<title>Bundle</title>
<path fill="#e8f5e9" stroke="#2e7d32" d="M1024.01,-348C1024.01,-348 958.55,-348 958.55,-348 952.55,-348 946.55,-342 946.55,-336 946.55,-336 946.55,-324 946.55,-324 946.55,-318 952.55,-312 958.55,-312 958.55,-312 1024.01,-312 1024.01,-312 1030.01,-312 1036.01,-318 1036.01,-324 1036.01,-324 1036.01,-336 1036.01,-336 1036.01,-342 1030.01,-348 1024.01,-348"/>
<text xml:space="preserve" text-anchor="middle" x="991.28" y="-332.5" font-family="Arial" font-size="10.00">E5ContextBundle</text>
<text xml:space="preserve" text-anchor="middle" x="991.28" y="-320.5" font-family="Arial" font-size="10.00">query + items</text>
</g>
<!-- NoDeps&#45;&gt;Bundle -->
<g id="edge3" class="edge">
<title>NoDeps&#45;&gt;Bundle</title>
<path fill="none" stroke="#455a64" stroke-dasharray="1,5" d="M177.6,-33.69C254.5,-33.4 378.95,-33 486.4,-33 486.4,-33 486.4,-33 658.36,-33 779.18,-33 810.64,-79.05 896.55,-164 937.7,-204.7 966.37,-267.25 980.41,-302.81"/>
<polygon fill="#455a64" stroke="#455a64" points="977.78,-303.8 983.27,-310.25 983.01,-301.78 977.78,-303.8"/>
</g>
<!-- SearchCommand -->
<g id="node5" class="node">
<title>SearchCommand</title>
<path fill="#e3f2fd" stroke="#1565c0" d="M704.34,-217C704.34,-217 610.38,-217 610.38,-217 604.38,-217 598.38,-211 598.38,-205 598.38,-205 598.38,-193 598.38,-193 598.38,-187 604.38,-181 610.38,-181 610.38,-181 704.34,-181 704.34,-181 710.34,-181 716.34,-187 716.34,-193 716.34,-193 716.34,-205 716.34,-205 716.34,-211 710.34,-217 704.34,-217"/>
<text xml:space="preserve" text-anchor="middle" x="657.36" y="-201.5" font-family="Arial" font-size="10.00">E5SearchCommand</text>
<text xml:space="preserve" text-anchor="middle" x="657.36" y="-189.5" font-family="Arial" font-size="10.00">report + context policies</text>
</g>
<!-- SearchCli&#45;&gt;SearchCommand -->
<g id="edge4" class="edge">
<title>SearchCli&#45;&gt;SearchCommand</title>
<path fill="none" stroke="#455a64" d="M540.62,-199C555.84,-199 572.68,-199 588.7,-199"/>
<polygon fill="#455a64" stroke="#455a64" points="588.51,-201.8 596.51,-199 588.51,-196.2 588.51,-201.8"/>
</g>
<!-- Boundary -->
<g id="node13" class="node">
<title>Boundary</title>
<path fill="#fff3e0" stroke="#ef6c00" d="M1203.72,-98C1203.72,-98 1112.01,-98 1112.01,-98 1106.01,-98 1100.01,-92 1100.01,-86 1100.01,-86 1100.01,-74 1100.01,-74 1100.01,-68 1106.01,-62 1112.01,-62 1112.01,-62 1203.72,-62 1203.72,-62 1209.72,-62 1215.72,-68 1215.72,-74 1215.72,-74 1215.72,-86 1215.72,-86 1215.72,-92 1209.72,-98 1203.72,-98"/>
<text xml:space="preserve" text-anchor="middle" x="1157.87" y="-82.5" font-family="Arial" font-size="10.00">CLI traduit &#45;&#45;context&#45;file</text>
<text xml:space="preserve" text-anchor="middle" x="1157.87" y="-70.5" font-family="Arial" font-size="10.00">policy reste neutre</text>
</g>
<!-- SearchCli&#45;&gt;Boundary -->
<g id="edge13" class="edge">
<title>SearchCli&#45;&gt;Boundary</title>
<path fill="none" stroke="#455a64" d="M538.81,-180.52C557.35,-174.25 578.63,-167.66 598.38,-163 773.63,-121.61 984.96,-96.88 1090.33,-86.22"/>
<polygon fill="#455a64" stroke="#455a64" points="1090.39,-89.02 1098.07,-85.44 1089.84,-83.45 1090.39,-89.02"/>
</g>
<!-- SearchReport -->
<g id="node6" class="node">
<title>SearchReport</title>
<g id="a_node6"><a xlink:href="52_e5_search_report.svg" xlink:title="E5SearchReport\nhits + source + excerpt">
<path fill="#e3f2fd" stroke="#1565c0" d="M876.55,-217C876.55,-217 786.34,-217 786.34,-217 780.34,-217 774.34,-211 774.34,-205 774.34,-205 774.34,-193 774.34,-193 774.34,-187 780.34,-181 786.34,-181 786.34,-181 876.55,-181 876.55,-181 882.55,-181 888.55,-187 888.55,-193 888.55,-193 888.55,-205 888.55,-205 888.55,-211 882.55,-217 876.55,-217"/>
<text xml:space="preserve" text-anchor="middle" x="831.45" y="-201.5" font-family="Arial" font-size="10.00">E5SearchReport</text>
<text xml:space="preserve" text-anchor="middle" x="831.45" y="-189.5" font-family="Arial" font-size="10.00">hits + source + excerpt</text>
</a>
</g>
</g>
<!-- SearchCommand&#45;&gt;SearchReport -->
<g id="edge5" class="edge">
<title>SearchCommand&#45;&gt;SearchReport</title>
<path fill="none" stroke="#455a64" d="M716.62,-199C732.11,-199 748.94,-199 764.79,-199"/>
<polygon fill="#455a64" stroke="#455a64" points="764.48,-201.8 772.48,-199 764.48,-196.2 764.48,-201.8"/>
</g>
<!-- SearchReport&#45;&gt;Bundle -->
<g id="edge6" class="edge">
<title>SearchReport&#45;&gt;Bundle</title>
<path fill="none" stroke="#455a64" d="M854.72,-217.49C882.57,-240.61 930.31,-280.23 961.06,-305.75"/>
<polygon fill="#455a64" stroke="#455a64" points="959.01,-307.68 966.95,-310.64 962.58,-303.37 959.01,-307.68"/>
</g>
<!-- Item -->
<g id="node8" class="node">
<title>Item</title>
<path fill="#e8f5e9" stroke="#2e7d32" d="M1207.1,-322C1207.1,-322 1108.63,-322 1108.63,-322 1102.63,-322 1096.63,-316 1096.63,-310 1096.63,-310 1096.63,-298 1096.63,-298 1096.63,-292 1102.63,-286 1108.63,-286 1108.63,-286 1207.1,-286 1207.1,-286 1213.1,-286 1219.1,-292 1219.1,-298 1219.1,-298 1219.1,-310 1219.1,-310 1219.1,-316 1213.1,-322 1207.1,-322"/>
<text xml:space="preserve" text-anchor="middle" x="1157.87" y="-306.5" font-family="Arial" font-size="10.00">E5ContextBundleItem</text>
<text xml:space="preserve" text-anchor="middle" x="1157.87" y="-294.5" font-family="Arial" font-size="10.00">rank/source/lines/excerpt</text>
</g>
<!-- Bundle&#45;&gt;Item -->
<g id="edge7" class="edge">
<title>Bundle&#45;&gt;Item</title>
<path fill="none" stroke="#455a64" d="M1036.39,-323.03C1052.04,-320.56 1070.05,-317.71 1087.3,-314.99"/>
<polygon fill="#455a64" stroke="#455a64" points="1087.28,-317.83 1094.74,-313.81 1086.4,-312.3 1087.28,-317.83"/>
</g>
<!-- Json -->
<g id="node9" class="node">
<title>Json</title>
<path fill="#e8f5e9" stroke="#2e7d32" d="M1193.97,-394C1193.97,-394 1121.76,-394 1121.76,-394 1115.76,-394 1109.76,-388 1109.76,-382 1109.76,-382 1109.76,-370 1109.76,-370 1109.76,-364 1115.76,-358 1121.76,-358 1121.76,-358 1193.97,-358 1193.97,-358 1199.97,-358 1205.97,-364 1205.97,-370 1205.97,-370 1205.97,-382 1205.97,-382 1205.97,-388 1199.97,-394 1193.97,-394"/>
<text xml:space="preserve" text-anchor="middle" x="1157.87" y="-378.5" font-family="Arial" font-size="10.00">context JSON</text>
<text xml:space="preserve" text-anchor="middle" x="1157.87" y="-366.5" font-family="Arial" font-size="10.00">future answer input</text>
</g>
<!-- Bundle&#45;&gt;Json -->
<g id="edge8" class="edge">
<title>Bundle&#45;&gt;Json</title>
<path fill="none" stroke="#455a64" d="M1036.39,-342.33C1056.04,-347.82 1079.44,-354.36 1100.36,-360.21"/>
<polygon fill="#455a64" stroke="#455a64" points="1099.55,-362.89 1108,-362.34 1101.05,-357.49 1099.55,-362.89"/>
</g>
<!-- Text -->
<g id="node10" class="node">
<title>Text</title>
<path fill="#e8f5e9" stroke="#2e7d32" d="M1197.35,-178C1197.35,-178 1118.38,-178 1118.38,-178 1112.38,-178 1106.38,-172 1106.38,-166 1106.38,-166 1106.38,-154 1106.38,-154 1106.38,-148 1112.38,-142 1118.38,-142 1118.38,-142 1197.35,-142 1197.35,-142 1203.35,-142 1209.35,-148 1209.35,-154 1209.35,-154 1209.35,-166 1209.35,-166 1209.35,-172 1203.35,-178 1197.35,-178"/>
<text xml:space="preserve" text-anchor="middle" x="1157.87" y="-162.5" font-family="Arial" font-size="10.00">to_text()</text>
<text xml:space="preserve" text-anchor="middle" x="1157.87" y="-150.5" font-family="Arial" font-size="10.00">inspection compacte</text>
</g>
<!-- Bundle&#45;&gt;Text -->
<g id="edge9" class="edge">
<title>Bundle&#45;&gt;Text</title>
<path fill="none" stroke="#455a64" d="M1001.23,-311.84C1015.75,-283.91 1046.79,-230.07 1086.01,-196 1091.5,-191.23 1097.74,-186.89 1104.18,-183.02"/>
<polygon fill="#455a64" stroke="#455a64" points="1105.51,-185.49 1111.09,-179.11 1102.75,-180.61 1105.51,-185.49"/>
</g>
<!-- Consumer -->
<g id="node11" class="node">
<title>Consumer</title>
<g id="a_node11"><a xlink:href="69_e5_context_consumer.svg" xlink:title="E5 context consumer\nPhase 4.15">
<path fill="#e8f5e9" stroke="#2e7d32" d="M1198.85,-250C1198.85,-250 1116.88,-250 1116.88,-250 1110.88,-250 1104.88,-244 1104.88,-238 1104.88,-238 1104.88,-226 1104.88,-226 1104.88,-220 1110.88,-214 1116.88,-214 1116.88,-214 1198.85,-214 1198.85,-214 1204.85,-214 1210.85,-220 1210.85,-226 1210.85,-226 1210.85,-238 1210.85,-238 1210.85,-244 1204.85,-250 1198.85,-250"/>
<text xml:space="preserve" text-anchor="middle" x="1157.87" y="-234.5" font-family="Arial" font-size="10.00">E5 context consumer</text>
<text xml:space="preserve" text-anchor="middle" x="1157.87" y="-222.5" font-family="Arial" font-size="10.00">Phase 4.15</text>
</a>
</g>
</g>
<!-- Bundle&#45;&gt;Consumer -->
<g id="edge10" class="edge">
<title>Bundle&#45;&gt;Consumer</title>
<path fill="none" stroke="#455a64" d="M1018.43,-311.54C1036.95,-298.75 1062.57,-281.65 1086.01,-268 1093.71,-263.52 1102.03,-259.01 1110.17,-254.76"/>
<polygon fill="#455a64" stroke="#455a64" points="1111.38,-257.29 1117.21,-251.15 1108.82,-252.31 1111.38,-257.29"/>
</g>
<!-- NoQdrant -->
<g id="node17" class="node">
<title>NoQdrant</title>
<path fill="#fafafa" stroke="#78909c" d="M1183.1,-618C1183.1,-618 1132.63,-618 1132.63,-618 1126.63,-618 1120.63,-612 1120.63,-606 1120.63,-606 1120.63,-594 1120.63,-594 1120.63,-588 1126.63,-582 1132.63,-582 1132.63,-582 1183.1,-582 1183.1,-582 1189.1,-582 1195.1,-588 1195.1,-594 1195.1,-594 1195.1,-606 1195.1,-606 1195.1,-612 1189.1,-618 1183.1,-618"/>
<text xml:space="preserve" text-anchor="middle" x="1157.87" y="-596.5" font-family="Arial" font-size="10.00">pas de Qdrant</text>
</g>
<!-- Bundle&#45;&gt;NoQdrant -->
<g id="edge17" class="edge">
<title>Bundle&#45;&gt;NoQdrant</title>
<path fill="none" stroke="#455a64" stroke-dasharray="1,5" d="M995.12,-348.45C1002.6,-391.32 1026.49,-498.93 1086.01,-564 1093.21,-571.87 1102.53,-578.28 1112.03,-583.38"/>
<polygon fill="#455a64" stroke="#455a64" points="1110.61,-585.8 1119.02,-586.86 1113.1,-580.79 1110.61,-585.8"/>
</g>
<!-- NoScheduler -->
<g id="node18" class="node">
<title>NoScheduler</title>
<path fill="#fafafa" stroke="#78909c" d="M1190.22,-690C1190.22,-690 1125.51,-690 1125.51,-690 1119.51,-690 1113.51,-684 1113.51,-678 1113.51,-678 1113.51,-666 1113.51,-666 1113.51,-660 1119.51,-654 1125.51,-654 1125.51,-654 1190.22,-654 1190.22,-654 1196.22,-654 1202.22,-660 1202.22,-666 1202.22,-666 1202.22,-678 1202.22,-678 1202.22,-684 1196.22,-690 1190.22,-690"/>
<text xml:space="preserve" text-anchor="middle" x="1157.87" y="-668.5" font-family="Arial" font-size="10.00">pas de Scheduler</text>
</g>
<!-- Bundle&#45;&gt;NoScheduler -->
<g id="edge18" class="edge">
<title>Bundle&#45;&gt;NoScheduler</title>
<path fill="none" stroke="#455a64" stroke-dasharray="1,5" d="M993.04,-348.17C996.1,-399.4 1011.29,-547.11 1086.01,-636 1091.36,-642.36 1098.11,-647.72 1105.31,-652.2"/>
<polygon fill="#455a64" stroke="#455a64" points="1103.6,-654.45 1111.94,-655.97 1106.37,-649.58 1103.6,-654.45"/>
</g>
<!-- NoLlm -->
<g id="node19" class="node">
<title>NoLlm</title>
<path fill="#fafafa" stroke="#78909c" d="M1209.72,-474C1209.72,-474 1106.01,-474 1106.01,-474 1100.01,-474 1094.01,-468 1094.01,-462 1094.01,-462 1094.01,-450 1094.01,-450 1094.01,-444 1100.01,-438 1106.01,-438 1106.01,-438 1209.72,-438 1209.72,-438 1215.72,-438 1221.72,-444 1221.72,-450 1221.72,-450 1221.72,-462 1221.72,-462 1221.72,-468 1215.72,-474 1209.72,-474"/>
<text xml:space="preserve" text-anchor="middle" x="1157.87" y="-452.5" font-family="Arial" font-size="10.00">pas de génération réponse</text>
</g>
<!-- Bundle&#45;&gt;NoLlm -->
<g id="edge19" class="edge">
<title>Bundle&#45;&gt;NoLlm</title>
<path fill="none" stroke="#455a64" stroke-dasharray="1,5" d="M1004.82,-348.19C1021.13,-370.59 1051.61,-408.42 1086.01,-431 1087.02,-431.66 1088.05,-432.31 1089.1,-432.95"/>
<polygon fill="#455a64" stroke="#455a64" points="1087.74,-435.4 1096.1,-436.79 1090.44,-430.49 1087.74,-435.4"/>
</g>
<!-- NoSchema -->
<g id="node20" class="node">
<title>NoSchema</title>
<path fill="#fafafa" stroke="#78909c" d="M1198.47,-546C1198.47,-546 1117.26,-546 1117.26,-546 1111.26,-546 1105.26,-540 1105.26,-534 1105.26,-534 1105.26,-522 1105.26,-522 1105.26,-516 1111.26,-510 1117.26,-510 1117.26,-510 1198.47,-510 1198.47,-510 1204.47,-510 1210.47,-516 1210.47,-522 1210.47,-522 1210.47,-534 1210.47,-534 1210.47,-540 1204.47,-546 1198.47,-546"/>
<text xml:space="preserve" text-anchor="middle" x="1157.87" y="-530.5" font-family="Arial" font-size="10.00">pas de changement</text>
<text xml:space="preserve" text-anchor="middle" x="1157.87" y="-518.5" font-family="Arial" font-size="10.00">missipy.e5.corpus.v1</text>
</g>
<!-- Bundle&#45;&gt;NoSchema -->
<g id="edge20" class="edge">
<title>Bundle&#45;&gt;NoSchema</title>
<path fill="none" stroke="#455a64" stroke-dasharray="1,5" d="M998.82,-348.29C1011.27,-380.87 1041.18,-449.55 1086.01,-492 1091.08,-496.8 1096.92,-501.11 1103.02,-504.94"/>
<polygon fill="#455a64" stroke="#455a64" points="1101.23,-507.14 1109.54,-508.76 1104.06,-502.3 1101.23,-507.14"/>
</g>
<!-- ReportIO -->
<g id="node12" class="node">
<title>ReportIO</title>
<path fill="#fff3e0" stroke="#ef6c00" d="M1429.93,-98C1429.93,-98 1291.72,-98 1291.72,-98 1285.72,-98 1279.72,-92 1279.72,-86 1279.72,-86 1279.72,-74 1279.72,-74 1279.72,-68 1285.72,-62 1291.72,-62 1291.72,-62 1429.93,-62 1429.93,-62 1435.93,-62 1441.93,-68 1441.93,-74 1441.93,-74 1441.93,-86 1441.93,-86 1441.93,-92 1435.93,-98 1429.93,-98"/>
<text xml:space="preserve" text-anchor="middle" x="1360.83" y="-82.5" font-family="Arial" font-size="10.00">report_io.write_json_report_atomic</text>
<text xml:space="preserve" text-anchor="middle" x="1360.83" y="-70.5" font-family="Arial" font-size="10.00">écriture atomique</text>
</g>
<!-- Json&#45;&gt;ReportIO -->
<g id="edge11" class="edge">
<title>Json&#45;&gt;ReportIO</title>
<path fill="none" stroke="#455a64" d="M1205.57,-357.66C1214.29,-352.81 1222.81,-346.95 1229.72,-340 1298.22,-271.08 1337.27,-158.78 1352.43,-107.32"/>
<polygon fill="#455a64" stroke="#455a64" points="1355.04,-108.36 1354.56,-99.9 1349.66,-106.81 1355.04,-108.36"/>
</g>
<!-- Boundary&#45;&gt;ReportIO -->
<g id="edge12" class="edge">
<title>Boundary&#45;&gt;ReportIO</title>
<path fill="none" stroke="#455a64" d="M1216.18,-80C1233.05,-80 1251.93,-80 1270.31,-80"/>
<polygon fill="#455a64" stroke="#455a64" points="1270.06,-82.8 1278.06,-80 1270.06,-77.2 1270.06,-82.8"/>
</g>
<!-- ContextTests -->
<g id="node14" class="node">
<title>ContextTests</title>
<path fill="#ffebee" stroke="#c62828" d="M156.34,-348C156.34,-348 50.38,-348 50.38,-348 44.38,-348 38.38,-342 38.38,-336 38.38,-336 38.38,-324 38.38,-324 38.38,-318 44.38,-312 50.38,-312 50.38,-312 156.34,-312 156.34,-312 162.34,-312 168.34,-318 168.34,-324 168.34,-324 168.34,-336 168.34,-336 168.34,-342 162.34,-348 156.34,-348"/>
<text xml:space="preserve" text-anchor="middle" x="103.36" y="-332.5" font-family="Arial" font-size="10.00">test_e5_context_bundle.py</text>
<text xml:space="preserve" text-anchor="middle" x="103.36" y="-320.5" font-family="Arial" font-size="10.00">projection stable</text>
</g>
<!-- ContextTests&#45;&gt;Bundle -->
<g id="edge14" class="edge">
<title>ContextTests&#45;&gt;Bundle</title>
<path fill="none" stroke="#455a64" d="M168.57,-330C244.49,-330 374.64,-330 486.4,-330 486.4,-330 486.4,-330 658.36,-330 756.67,-330 871.37,-330 936.94,-330"/>
<polygon fill="#455a64" stroke="#455a64" points="936.74,-332.8 944.74,-330 936.74,-327.2 936.74,-332.8"/>
</g>
<!-- CliTests -->
<g id="node15" class="node">
<title>CliTests</title>
<path fill="#ffebee" stroke="#c62828" d="M165.71,-276C165.71,-276 41,-276 41,-276 35,-276 29,-270 29,-264 29,-264 29,-252 29,-252 29,-246 35,-240 41,-240 41,-240 165.71,-240 165.71,-240 171.71,-240 177.71,-246 177.71,-252 177.71,-252 177.71,-264 177.71,-264 177.71,-270 171.71,-276 165.71,-276"/>
<text xml:space="preserve" text-anchor="middle" x="103.36" y="-260.5" font-family="Arial" font-size="10.00">test_e5_search_context_file.py</text>
<text xml:space="preserve" text-anchor="middle" x="103.36" y="-248.5" font-family="Arial" font-size="10.00">parser + fichier</text>
</g>
<!-- CliTests&#45;&gt;SearchCli -->
<g id="edge15" class="edge">
<title>CliTests&#45;&gt;SearchCli</title>
<path fill="none" stroke="#455a64" d="M178.02,-246.62C249.77,-235.54 357.61,-218.89 424.9,-208.5"/>
<polygon fill="#455a64" stroke="#455a64" points="425.14,-211.29 432.62,-207.31 424.29,-205.76 425.14,-211.29"/>
</g>
<!-- RuleTests -->
<g id="node16" class="node">
<title>RuleTests</title>
<path fill="#ffebee" stroke="#c62828" d="M155.21,-204C155.21,-204 51.5,-204 51.5,-204 45.5,-204 39.5,-198 39.5,-192 39.5,-192 39.5,-180 39.5,-180 39.5,-174 45.5,-168 51.5,-168 51.5,-168 155.21,-168 155.21,-168 161.21,-168 167.21,-174 167.21,-180 167.21,-180 167.21,-192 167.21,-192 167.21,-198 161.21,-204 155.21,-204"/>
<text xml:space="preserve" text-anchor="middle" x="103.36" y="-188.5" font-family="Arial" font-size="10.00">tests/rules</text>
<text xml:space="preserve" text-anchor="middle" x="103.36" y="-176.5" font-family="Arial" font-size="10.00">pas de nouveau script CLI</text>
</g>
<!-- RuleTests&#45;&gt;NoNewScript -->
<g id="edge16" class="edge">
<title>RuleTests&#45;&gt;NoNewScript</title>
<path fill="none" stroke="#455a64" d="M167.57,-171.07C178.08,-168.07 188.78,-164.69 198.71,-161 222.95,-151.98 248.96,-139.51 269.9,-128.72"/>
<polygon fill="#455a64" stroke="#455a64" points="271.1,-131.25 276.9,-125.07 268.51,-126.28 271.1,-131.25"/>
</g>
<!-- Legend -->
<g id="node21" class="node">
<title>Legend</title>
<path fill="#ffffff" stroke="none" d="M178.71,-600.32C178.71,-600.32 28,-600.32 28,-600.32 22,-600.32 16,-594.32 16,-588.32 16,-588.32 16,-493.68 16,-493.68 16,-487.68 22,-481.68 28,-481.68 28,-481.68 178.71,-481.68 178.71,-481.68 184.71,-481.68 190.71,-487.68 190.71,-493.68 190.71,-493.68 190.71,-588.32 190.71,-588.32 190.71,-594.32 184.71,-600.32 178.71,-600.32"/>
<polygon fill="#ede7f6" stroke="none" points="22.48,-574 22.48,-596 63.98,-596 63.98,-574 22.48,-574"/>
<polygon fill="none" stroke="#ffffff" points="22.48,-574 22.48,-596 63.98,-596 63.98,-574 22.48,-574"/>
<text xml:space="preserve" text-anchor="start" x="30.86" y="-581.25" font-family="Arial" font-size="10.00">Violet</text>
<polygon fill="none" stroke="#ffffff" points="63.98,-574 63.98,-596 184.23,-596 184.23,-574 63.98,-574"/>
<text xml:space="preserve" text-anchor="start" x="68.98" y="-581.25" font-family="Arial" font-size="10.00">règle code_rule appliquée</text>
<polygon fill="#e3f2fd" stroke="none" points="22.48,-552 22.48,-574 63.98,-574 63.98,-552 22.48,-552"/>
<polygon fill="none" stroke="#ffffff" points="22.48,-552 22.48,-574 63.98,-574 63.98,-552 22.48,-552"/>
<text xml:space="preserve" text-anchor="start" x="33.48" y="-559.25" font-family="Arial" font-size="10.00">Bleu</text>
<polygon fill="none" stroke="#ffffff" points="63.98,-552 63.98,-574 184.23,-574 184.23,-552 63.98,-552"/>
<text xml:space="preserve" text-anchor="start" x="81.36" y="-559.25" font-family="Arial" font-size="10.00">recherche existante</text>
<polygon fill="#e8f5e9" stroke="none" points="22.48,-530 22.48,-552 63.98,-552 63.98,-530 22.48,-530"/>
<polygon fill="none" stroke="#ffffff" points="22.48,-530 22.48,-552 63.98,-552 63.98,-530 22.48,-530"/>
<text xml:space="preserve" text-anchor="start" x="34.61" y="-537.25" font-family="Arial" font-size="10.00">Vert</text>
<polygon fill="none" stroke="#ffffff" points="63.98,-530 63.98,-552 184.23,-552 184.23,-530 63.98,-530"/>
<text xml:space="preserve" text-anchor="start" x="89.61" y="-537.25" font-family="Arial" font-size="10.00">bundle contexte</text>
<polygon fill="#fff3e0" stroke="none" points="22.48,-508 22.48,-530 63.98,-530 63.98,-508 22.48,-508"/>
<polygon fill="none" stroke="#ffffff" points="22.48,-508 22.48,-530 63.98,-530 63.98,-508 22.48,-508"/>
<text xml:space="preserve" text-anchor="start" x="27.48" y="-515.25" font-family="Arial" font-size="10.00">Orange</text>
<polygon fill="none" stroke="#ffffff" points="63.98,-508 63.98,-530 184.23,-530 184.23,-508 63.98,-508"/>
<text xml:space="preserve" text-anchor="start" x="101.23" y="-515.25" font-family="Arial" font-size="10.00">bordure IO</text>
<polygon fill="#ffebee" stroke="none" points="22.48,-486 22.48,-508 63.98,-508 63.98,-486 22.48,-486"/>
<polygon fill="none" stroke="#ffffff" points="22.48,-486 22.48,-508 63.98,-508 63.98,-486 22.48,-486"/>
<text xml:space="preserve" text-anchor="start" x="28.98" y="-493.25" font-family="Arial" font-size="10.00">Rouge</text>
<polygon fill="none" stroke="#ffffff" points="63.98,-486 63.98,-508 184.23,-508 184.23,-486 63.98,-486"/>
<text xml:space="preserve" text-anchor="start" x="82.48" y="-493.25" font-family="Arial" font-size="10.00">tests anti&#45;dérapage</text>
</g>
</g>
</svg>
