<?xml version="1.0" encoding="UTF-8" standalone="no"?>
<!DOCTYPE svg PUBLIC "-//W3C//DTD SVG 1.1//EN"
 "http://www.w3.org/Graphics/SVG/1.1/DTD/svg11.dtd">
<!-- Generated by graphviz version 14.1.3 (20260303.0454)
 -->
<!-- Title: E5ContextBundle Pages: 1 -->
<svg width="1494pt" height="719pt"
 viewBox="0.00 0.00 1494.00 719.00" xmlns="http://www.w3.org/2000/svg" xmlns:xlink="http://www.w3.org/1999/xlink">
<g id="graph0" class="graph" transform="scale(1 1) rotate(0) translate(18 701)">
<title>E5ContextBundle</title>
<polygon fill="white" stroke="none" points="-18,18 -18,-701 1475.93,-701 1475.93,18 -18,18"/>
<text xml:space="preserve" text-anchor="middle" x="728.97" y="-669.5" font-family="Arial" font-size="10.00">Phase 4.14 — E5 context bundle</text>
<g id="clust1" class="cluster">
<title>cluster_rule</title>
<polygon fill="#ede7f6" stroke="#5e35b1" stroke-width="1.5" points="21.38,-8 21.38,-152 384.42,-152 384.42,-8 21.38,-8"/>
<text xml:space="preserve" text-anchor="middle" x="202.9" y="-138.5" font-family="Arial" font-size="10.00">Code rule</text>
</g>
<g id="clust2" class="cluster">
<title>cluster_search</title>
<polygon fill="#e3f2fd" stroke="#1565c0" stroke-width="1.5" points="426.42,-173 426.42,-245 896.55,-245 896.55,-173 426.42,-173"/>
<text xml:space="preserve" text-anchor="middle" x="661.49" y="-231.5" font-family="Arial" font-size="10.00">Recherche existante</text>
</g>
<g id="clust3" class="cluster">
<title>cluster_context</title>
<polygon fill="#e8f5e9" stroke="#2e7d32" stroke-width="1.5" points="938.55,-143 938.55,-359 1227.1,-359 1227.1,-143 938.55,-143"/>
<text xml:space="preserve" text-anchor="middle" x="1082.82" y="-345.5" font-family="Arial" font-size="10.00">Bundle de contexte</text>
</g>
<g id="clust4" class="cluster">
<title>cluster_io</title>
<polygon fill="#fff3e0" stroke="#ef6c00" stroke-width="1.5" points="1092.01,-63 1092.01,-135 1449.93,-135 1449.93,-63 1092.01,-63"/>
<text xml:space="preserve" text-anchor="middle" x="1270.97" y="-121.5" font-family="Arial" font-size="10.00">Bordure IO</text>
</g>
<g id="clust5" class="cluster">
<title>cluster_tests</title>
<polygon fill="#ffebee" stroke="#c62828" stroke-width="1.5" points="21,-160 21,-376 185.71,-376 185.71,-160 21,-160"/>
<text xml:space="preserve" text-anchor="middle" x="103.36" y="-362.5" font-family="Arial" font-size="10.00">Tests</text>
</g>
<g id="clust6" class="cluster">
<title>cluster_scope</title>
<polygon fill="#fafafa" stroke="#b0bec5" points="1086.01,-367 1086.01,-655 1229.72,-655 1229.72,-367 1086.01,-367"/>
<text xml:space="preserve" text-anchor="middle" x="1157.87" y="-641.5" font-family="Arial" font-size="10.00">Hors périmètre 4.14</text>
</g>
<g id="clust7" class="cluster">
<title>cluster_legend</title>
<polygon fill="#ffffff" stroke="#cfd8dc" points="8,-438 8,-592 198.71,-592 198.71,-438 8,-438"/>
<text xml:space="preserve" text-anchor="middle" x="103.36" y="-578.5" font-family="Arial" font-size="10.00">Légende</text>
</g>
<!-- Parent -->
<g id="node1" class="node">
<title>Parent</title>
<g id="a_node1"><a xlink:href="67_e5_unified_command_surface.svg" xlink:title="← unified command surface">
<path fill="#ede7f6" stroke="#5e35b1" d="M158.96,-124C158.96,-124 47.75,-124 47.75,-124 41.75,-124 35.75,-118 35.75,-112 35.75,-112 35.75,-100 35.75,-100 35.75,-94 41.75,-88 47.75,-88 47.75,-88 158.96,-88 158.96,-88 164.96,-88 170.96,-94 170.96,-100 170.96,-100 170.96,-112 170.96,-112 170.96,-118 164.96,-124 158.96,-124"/>
<text xml:space="preserve" text-anchor="middle" x="103.36" y="-102.5" font-family="Arial" font-size="10.00">← unified command surface</text>
</a>
</g>
</g>
<!-- NoNewScript -->
<g id="node2" class="node">
<title>NoNewScript</title>
<path fill="#ede7f6" stroke="#5e35b1" d="M364.42,-124C364.42,-124 260.71,-124 260.71,-124 254.71,-124 248.71,-118 248.71,-112 248.71,-112 248.71,-100 248.71,-100 248.71,-94 254.71,-88 260.71,-88 260.71,-88 364.42,-88 364.42,-88 370.42,-88 376.42,-94 376.42,-100 376.42,-100 376.42,-112 376.42,-112 376.42,-118 370.42,-124 364.42,-124"/>
<text xml:space="preserve" text-anchor="middle" x="312.57" y="-108.5" font-family="Arial" font-size="10.00">pas de nouveau script CLI</text>
<text xml:space="preserve" text-anchor="middle" x="312.57" y="-96.5" font-family="Arial" font-size="10.00">option sur search existant</text>
</g>
<!-- Parent&#45;&gt;NoNewScript -->
<g id="edge1" class="edge">
<title>Parent&#45;&gt;NoNewScript</title>
<path fill="none" stroke="#455a64" d="M171.34,-106C192.97,-106 217.03,-106 239.04,-106"/>
<polygon fill="#455a64" stroke="#455a64" points="238.81,-108.8 246.81,-106 238.81,-103.2 238.81,-108.8"/>
</g>
<!-- SearchCli -->
<g id="node4" class="node">
<title>SearchCli</title>
<g id="a_node4"><a xlink:href="65_e5_search_report_file.svg" xlink:title="search_e5_corpus.py\n&#45;&#45;context&#45;file FILE">
<path fill="#e3f2fd" stroke="#1565c0" d="M528.38,-217C528.38,-217 446.42,-217 446.42,-217 440.42,-217 434.42,-211 434.42,-205 434.42,-205 434.42,-193 434.42,-193 434.42,-187 440.42,-181 446.42,-181 446.42,-181 528.38,-181 528.38,-181 534.38,-181 540.38,-187 540.38,-193 540.38,-193 540.38,-205 540.38,-205 540.38,-211 534.38,-217 528.38,-217"/>
<text xml:space="preserve" text-anchor="middle" x="487.4" y="-201.5" font-family="Arial" font-size="10.00">search_e5_corpus.py</text>
<text xml:space="preserve" text-anchor="middle" x="487.4" y="-189.5" font-family="Arial" font-size="10.00">&#45;&#45;context&#45;file FILE</text>
</a>
</g>
</g>
<!-- NoNewScript&#45;&gt;SearchCli -->
<g id="edge2" class="edge">
<title>NoNewScript&#45;&gt;SearchCli</title>
<path fill="none" stroke="#455a64" d="M347.71,-124.37C375.32,-139.23 414.32,-160.22 443.94,-176.15"/>
<polygon fill="#455a64" stroke="#455a64" points="442.32,-178.46 450.7,-179.79 444.98,-173.53 442.32,-178.46"/>
</g>
<!-- NoDeps -->
<g id="node3" class="node">
<title>NoDeps</title>
<path fill="#ede7f6" stroke="#5e35b1" d="M165.34,-52C165.34,-52 41.38,-52 41.38,-52 35.38,-52 29.38,-46 29.38,-40 29.38,-40 29.38,-28 29.38,-28 29.38,-22 35.38,-16 41.38,-16 41.38,-16 165.34,-16 165.34,-16 171.34,-16 177.34,-22 177.34,-28 177.34,-28 177.34,-40 177.34,-40 177.34,-46 171.34,-52 165.34,-52"/>
<text xml:space="preserve" text-anchor="middle" x="103.36" y="-30.5" font-family="Arial" font-size="10.00">aucune dépendance hors stdlib</text>
</g>
<!-- Bundle -->
<g id="node7" class="node">
<title>Bundle</title>
<path fill="#e8f5e9" stroke="#2e7d32" d="M1024.01,-331C1024.01,-331 958.55,-331 958.55,-331 952.55,-331 946.55,-325 946.55,-319 946.55,-319 946.55,-307 946.55,-307 946.55,-301 952.55,-295 958.55,-295 958.55,-295 1024.01,-295 1024.01,-295 1030.01,-295 1036.01,-301 1036.01,-307 1036.01,-307 1036.01,-319 1036.01,-319 1036.01,-325 1030.01,-331 1024.01,-331"/>
<text xml:space="preserve" text-anchor="middle" x="991.28" y="-315.5" font-family="Arial" font-size="10.00">E5ContextBundle</text>
<text xml:space="preserve" text-anchor="middle" x="991.28" y="-303.5" font-family="Arial" font-size="10.00">query + items</text>
</g>
<!-- NoDeps&#45;&gt;Bundle -->
<g id="edge3" class="edge">
<title>NoDeps&#45;&gt;Bundle</title>
<path fill="none" stroke="#455a64" stroke-dasharray="1,5" d="M177.6,-33.69C254.5,-33.4 378.95,-33 486.4,-33 486.4,-33 486.4,-33 658.36,-33 779.18,-33 808.65,-81.11 896.55,-164 934.56,-199.84 963.59,-254.24 978.7,-286.45"/>
<polygon fill="#455a64" stroke="#455a64" points="976.07,-287.43 981.95,-293.53 981.16,-285.09 976.07,-287.43"/>
</g>
<!-- SearchCommand -->
<g id="node5" class="node">
<title>SearchCommand</title>
<path fill="#e3f2fd" stroke="#1565c0" d="M704.34,-217C704.34,-217 610.38,-217 610.38,-217 604.38,-217 598.38,-211 598.38,-205 598.38,-205 598.38,-193 598.38,-193 598.38,-187 604.38,-181 610.38,-181 610.38,-181 704.34,-181 704.34,-181 710.34,-181 716.34,-187 716.34,-193 716.34,-193 716.34,-205 716.34,-205 716.34,-211 710.34,-217 704.34,-217"/>
<text xml:space="preserve" text-anchor="middle" x="657.36" y="-201.5" font-family="Arial" font-size="10.00">E5SearchCommand</text>
<text xml:space="preserve" text-anchor="middle" x="657.36" y="-189.5" font-family="Arial" font-size="10.00">report + context policies</text>
</g>
<!-- SearchCli&#45;&gt;SearchCommand -->
<g id="edge4" class="edge">
<title>SearchCli&#45;&gt;SearchCommand</title>
<path fill="none" stroke="#455a64" d="M540.62,-199C555.84,-199 572.68,-199 588.7,-199"/>
<polygon fill="#455a64" stroke="#455a64" points="588.51,-201.8 596.51,-199 588.51,-196.2 588.51,-201.8"/>
</g>
<!-- Boundary -->
<g id="node12" class="node">
<title>Boundary</title>
<path fill="#fff3e0" stroke="#ef6c00" d="M1203.72,-107C1203.72,-107 1112.01,-107 1112.01,-107 1106.01,-107 1100.01,-101 1100.01,-95 1100.01,-95 1100.01,-83 1100.01,-83 1100.01,-77 1106.01,-71 1112.01,-71 1112.01,-71 1203.72,-71 1203.72,-71 1209.72,-71 1215.72,-77 1215.72,-83 1215.72,-83 1215.72,-95 1215.72,-95 1215.72,-101 1209.72,-107 1203.72,-107"/>
<text xml:space="preserve" text-anchor="middle" x="1157.87" y="-91.5" font-family="Arial" font-size="10.00">CLI traduit &#45;&#45;context&#45;file</text>
<text xml:space="preserve" text-anchor="middle" x="1157.87" y="-79.5" font-family="Arial" font-size="10.00">policy reste neutre</text>
</g>
<!-- SearchCli&#45;&gt;Boundary -->
<g id="edge12" class="edge">
<title>SearchCli&#45;&gt;Boundary</title>
<path fill="none" stroke="#455a64" d="M538.22,-180.53C556.88,-174.19 578.4,-167.55 598.38,-163 773.57,-123.08 984.92,-102.35 1090.32,-93.82"/>
<polygon fill="#455a64" stroke="#455a64" points="1090.31,-96.63 1098.06,-93.2 1089.86,-91.05 1090.31,-96.63"/>
</g>
<!-- SearchReport -->
<g id="node6" class="node">
<title>SearchReport</title>
<g id="a_node6"><a xlink:href="52_e5_search_report.svg" xlink:title="E5SearchReport\nhits + source + excerpt">
<path fill="#e3f2fd" stroke="#1565c0" d="M876.55,-217C876.55,-217 786.34,-217 786.34,-217 780.34,-217 774.34,-211 774.34,-205 774.34,-205 774.34,-193 774.34,-193 774.34,-187 780.34,-181 786.34,-181 786.34,-181 876.55,-181 876.55,-181 882.55,-181 888.55,-187 888.55,-193 888.55,-193 888.55,-205 888.55,-205 888.55,-211 882.55,-217 876.55,-217"/>
<text xml:space="preserve" text-anchor="middle" x="831.45" y="-201.5" font-family="Arial" font-size="10.00">E5SearchReport</text>
<text xml:space="preserve" text-anchor="middle" x="831.45" y="-189.5" font-family="Arial" font-size="10.00">hits + source + excerpt</text>
</a>
</g>
</g>
<!-- SearchCommand&#45;&gt;SearchReport -->
<g id="edge5" class="edge">
<title>SearchCommand&#45;&gt;SearchReport</title>
<path fill="none" stroke="#455a64" d="M716.62,-199C732.11,-199 748.94,-199 764.79,-199"/>
<polygon fill="#455a64" stroke="#455a64" points="764.48,-201.8 772.48,-199 764.48,-196.2 764.48,-201.8"/>
</g>
<!-- SearchReport&#45;&gt;Bundle -->
<g id="edge6" class="edge">
<title>SearchReport&#45;&gt;Bundle</title>
<path fill="none" stroke="#455a64" d="M857.8,-217.32C884.76,-236.79 927.51,-267.66 957.12,-289.05"/>
<polygon fill="#455a64" stroke="#455a64" points="955.37,-291.24 963.5,-293.65 958.65,-286.7 955.37,-291.24"/>
</g>
<!-- Item -->
<g id="node8" class="node">
<title>Item</title>
<path fill="#e8f5e9" stroke="#2e7d32" d="M1207.1,-331C1207.1,-331 1108.63,-331 1108.63,-331 1102.63,-331 1096.63,-325 1096.63,-319 1096.63,-319 1096.63,-307 1096.63,-307 1096.63,-301 1102.63,-295 1108.63,-295 1108.63,-295 1207.1,-295 1207.1,-295 1213.1,-295 1219.1,-301 1219.1,-307 1219.1,-307 1219.1,-319 1219.1,-319 1219.1,-325 1213.1,-331 1207.1,-331"/>
<text xml:space="preserve" text-anchor="middle" x="1157.87" y="-315.5" font-family="Arial" font-size="10.00">E5ContextBundleItem</text>
<text xml:space="preserve" text-anchor="middle" x="1157.87" y="-303.5" font-family="Arial" font-size="10.00">rank/source/lines/excerpt</text>
</g>
<!-- Bundle&#45;&gt;Item -->
<g id="edge7" class="edge">
<title>Bundle&#45;&gt;Item</title>
<path fill="none" stroke="#455a64" d="M1036.39,-313C1051.89,-313 1069.72,-313 1086.83,-313"/>
<polygon fill="#455a64" stroke="#455a64" points="1086.73,-315.8 1094.73,-313 1086.73,-310.2 1086.73,-315.8"/>
</g>
<!-- Json -->
<g id="node9" class="node">
<title>Json</title>
<path fill="#e8f5e9" stroke="#2e7d32" d="M1193.97,-187C1193.97,-187 1121.76,-187 1121.76,-187 1115.76,-187 1109.76,-181 1109.76,-175 1109.76,-175 1109.76,-163 1109.76,-163 1109.76,-157 1115.76,-151 1121.76,-151 1121.76,-151 1193.97,-151 1193.97,-151 1199.97,-151 1205.97,-157 1205.97,-163 1205.97,-163 1205.97,-175 1205.97,-175 1205.97,-181 1199.97,-187 1193.97,-187"/>
<text xml:space="preserve" text-anchor="middle" x="1157.87" y="-171.5" font-family="Arial" font-size="10.00">context JSON</text>
<text xml:space="preserve" text-anchor="middle" x="1157.87" y="-159.5" font-family="Arial" font-size="10.00">future answer input</text>
</g>
<!-- Bundle&#45;&gt;Json -->
<g id="edge8" class="edge">
<title>Bundle&#45;&gt;Json</title>
<path fill="none" stroke="#455a64" d="M1004.77,-294.64C1021.26,-271.46 1052.16,-231.44 1086.01,-205 1092.11,-200.24 1098.93,-195.84 1105.87,-191.86"/>
<polygon fill="#455a64" stroke="#455a64" points="1107.03,-194.42 1112.71,-188.13 1104.35,-189.51 1107.03,-194.42"/>
</g>
<!-- Text -->
<g id="node10" class="node">
<title>Text</title>
<path fill="#e8f5e9" stroke="#2e7d32" d="M1197.35,-259C1197.35,-259 1118.38,-259 1118.38,-259 1112.38,-259 1106.38,-253 1106.38,-247 1106.38,-247 1106.38,-235 1106.38,-235 1106.38,-229 1112.38,-223 1118.38,-223 1118.38,-223 1197.35,-223 1197.35,-223 1203.35,-223 1209.35,-229 1209.35,-235 1209.35,-235 1209.35,-247 1209.35,-247 1209.35,-253 1203.35,-259 1197.35,-259"/>
<text xml:space="preserve" text-anchor="middle" x="1157.87" y="-243.5" font-family="Arial" font-size="10.00">to_text()</text>
<text xml:space="preserve" text-anchor="middle" x="1157.87" y="-231.5" font-family="Arial" font-size="10.00">inspection compacte</text>
</g>
<!-- Bundle&#45;&gt;Text -->
<g id="edge9" class="edge">
<title>Bundle&#45;&gt;Text</title>
<path fill="none" stroke="#455a64" d="M1034.24,-294.65C1056.11,-285.08 1083.03,-273.3 1106.08,-263.22"/>
<polygon fill="#455a64" stroke="#455a64" points="1107.1,-265.82 1113.31,-260.05 1104.86,-260.69 1107.1,-265.82"/>
</g>
<!-- NoQdrant -->
<g id="node16" class="node">
<title>NoQdrant</title>
<path fill="#fafafa" stroke="#78909c" d="M1183.1,-411C1183.1,-411 1132.63,-411 1132.63,-411 1126.63,-411 1120.63,-405 1120.63,-399 1120.63,-399 1120.63,-387 1120.63,-387 1120.63,-381 1126.63,-375 1132.63,-375 1132.63,-375 1183.1,-375 1183.1,-375 1189.1,-375 1195.1,-381 1195.1,-387 1195.1,-387 1195.1,-399 1195.1,-399 1195.1,-405 1189.1,-411 1183.1,-411"/>
<text xml:space="preserve" text-anchor="middle" x="1157.87" y="-389.5" font-family="Arial" font-size="10.00">pas de Qdrant</text>
</g>
<!-- Bundle&#45;&gt;NoQdrant -->
<g id="edge16" class="edge">
<title>Bundle&#45;&gt;NoQdrant</title>
<path fill="none" stroke="#455a64" stroke-dasharray="1,5" d="M1020.23,-331.31C1038.48,-342.78 1063.08,-357.35 1086.01,-368 1094.09,-371.75 1102.9,-375.28 1111.47,-378.44"/>
<polygon fill="#455a64" stroke="#455a64" points="1110.38,-381.02 1118.86,-381.08 1112.27,-375.75 1110.38,-381.02"/>
</g>
<!-- NoScheduler -->
<g id="node17" class="node">
<title>NoScheduler</title>
<path fill="#fafafa" stroke="#78909c" d="M1190.22,-483C1190.22,-483 1125.51,-483 1125.51,-483 1119.51,-483 1113.51,-477 1113.51,-471 1113.51,-471 1113.51,-459 1113.51,-459 1113.51,-453 1119.51,-447 1125.51,-447 1125.51,-447 1190.22,-447 1190.22,-447 1196.22,-447 1202.22,-453 1202.22,-459 1202.22,-459 1202.22,-471 1202.22,-471 1202.22,-477 1196.22,-483 1190.22,-483"/>
<text xml:space="preserve" text-anchor="middle" x="1157.87" y="-461.5" font-family="Arial" font-size="10.00">pas de Scheduler</text>
</g>
<!-- Bundle&#45;&gt;NoScheduler -->
<g id="edge17" class="edge">
<title>Bundle&#45;&gt;NoScheduler</title>
<path fill="none" stroke="#455a64" stroke-dasharray="1,5" d="M1003.37,-331.08C1019.22,-355.75 1050.39,-400.16 1086.01,-429 1091.94,-433.81 1098.62,-438.22 1105.45,-442.18"/>
<polygon fill="#455a64" stroke="#455a64" points="1103.81,-444.47 1112.17,-445.89 1106.52,-439.57 1103.81,-444.47"/>
</g>
<!-- NoLlm -->
<g id="node18" class="node">
<title>NoLlm</title>
<path fill="#fafafa" stroke="#78909c" d="M1209.72,-555C1209.72,-555 1106.01,-555 1106.01,-555 1100.01,-555 1094.01,-549 1094.01,-543 1094.01,-543 1094.01,-531 1094.01,-531 1094.01,-525 1100.01,-519 1106.01,-519 1106.01,-519 1209.72,-519 1209.72,-519 1215.72,-519 1221.72,-525 1221.72,-531 1221.72,-531 1221.72,-543 1221.72,-543 1221.72,-549 1215.72,-555 1209.72,-555"/>
<text xml:space="preserve" text-anchor="middle" x="1157.87" y="-533.5" font-family="Arial" font-size="10.00">pas de génération réponse</text>
</g>
<!-- Bundle&#45;&gt;NoLlm -->
<g id="edge18" class="edge">
<title>Bundle&#45;&gt;NoLlm</title>
<path fill="none" stroke="#455a64" stroke-dasharray="1,5" d="M997.18,-331.34C1007.75,-367.86 1035.91,-450.52 1086.01,-501 1090.75,-505.78 1096.27,-510.05 1102.08,-513.82"/>
<polygon fill="#455a64" stroke="#455a64" points="1100.55,-516.17 1108.85,-517.89 1103.43,-511.37 1100.55,-516.17"/>
</g>
<!-- NoSchema -->
<g id="node19" class="node">
<title>NoSchema</title>
<path fill="#fafafa" stroke="#78909c" d="M1198.47,-627C1198.47,-627 1117.26,-627 1117.26,-627 1111.26,-627 1105.26,-621 1105.26,-615 1105.26,-615 1105.26,-603 1105.26,-603 1105.26,-597 1111.26,-591 1117.26,-591 1117.26,-591 1198.47,-591 1198.47,-591 1204.47,-591 1210.47,-597 1210.47,-603 1210.47,-603 1210.47,-615 1210.47,-615 1210.47,-621 1204.47,-627 1198.47,-627"/>
<text xml:space="preserve" text-anchor="middle" x="1157.87" y="-611.5" font-family="Arial" font-size="10.00">pas de changement</text>
<text xml:space="preserve" text-anchor="middle" x="1157.87" y="-599.5" font-family="Arial" font-size="10.00">missipy.e5.corpus.v1</text>
</g>
<!-- Bundle&#45;&gt;NoSchema -->
<g id="edge19" class="edge">
<title>Bundle&#45;&gt;NoSchema</title>
<path fill="none" stroke="#455a64" stroke-dasharray="1,5" d="M994.25,-331.4C1000.07,-377.49 1021.06,-499.45 1086.01,-573 1090.18,-577.73 1095.12,-581.91 1100.42,-585.6"/>
<polygon fill="#455a64" stroke="#455a64" points="1098.86,-587.93 1107.12,-589.84 1101.86,-583.19 1098.86,-587.93"/>
</g>
<!-- ReportIO -->
<g id="node11" class="node">
<title>ReportIO</title>
<path fill="#fff3e0" stroke="#ef6c00" d="M1429.93,-107C1429.93,-107 1291.72,-107 1291.72,-107 1285.72,-107 1279.72,-101 1279.72,-95 1279.72,-95 1279.72,-83 1279.72,-83 1279.72,-77 1285.72,-71 1291.72,-71 1291.72,-71 1429.93,-71 1429.93,-71 1435.93,-71 1441.93,-77 1441.93,-83 1441.93,-83 1441.93,-95 1441.93,-95 1441.93,-101 1435.93,-107 1429.93,-107"/>
<text xml:space="preserve" text-anchor="middle" x="1360.83" y="-91.5" font-family="Arial" font-size="10.00">report_io.write_json_report_atomic</text>
<text xml:space="preserve" text-anchor="middle" x="1360.83" y="-79.5" font-family="Arial" font-size="10.00">écriture atomique</text>
</g>
<!-- Json&#45;&gt;ReportIO -->
<g id="edge10" class="edge">
<title>Json&#45;&gt;ReportIO</title>
<path fill="none" stroke="#455a64" d="M1206.27,-152.72C1214.13,-149.89 1222.18,-146.92 1229.72,-144 1256.2,-133.74 1285.34,-121.51 1309.32,-111.2"/>
<polygon fill="#455a64" stroke="#455a64" points="1310.28,-113.83 1316.51,-108.09 1308.06,-108.69 1310.28,-113.83"/>
</g>
<!-- Boundary&#45;&gt;ReportIO -->
<g id="edge11" class="edge">
<title>Boundary&#45;&gt;ReportIO</title>
<path fill="none" stroke="#455a64" d="M1216.18,-89C1233.05,-89 1251.93,-89 1270.31,-89"/>
<polygon fill="#455a64" stroke="#455a64" points="1270.06,-91.8 1278.06,-89 1270.06,-86.2 1270.06,-91.8"/>
</g>
<!-- ContextTests -->
<g id="node13" class="node">
<title>ContextTests</title>
<path fill="#ffebee" stroke="#c62828" d="M156.34,-348C156.34,-348 50.38,-348 50.38,-348 44.38,-348 38.38,-342 38.38,-336 38.38,-336 38.38,-324 38.38,-324 38.38,-318 44.38,-312 50.38,-312 50.38,-312 156.34,-312 156.34,-312 162.34,-312 168.34,-318 168.34,-324 168.34,-324 168.34,-336 168.34,-336 168.34,-342 162.34,-348 156.34,-348"/>
<text xml:space="preserve" text-anchor="middle" x="103.36" y="-332.5" font-family="Arial" font-size="10.00">test_e5_context_bundle.py</text>
<text xml:space="preserve" text-anchor="middle" x="103.36" y="-320.5" font-family="Arial" font-size="10.00">projection stable</text>
</g>
<!-- ContextTests&#45;&gt;Bundle -->
<g id="edge13" class="edge">
<title>ContextTests&#45;&gt;Bundle</title>
<path fill="none" stroke="#455a64" d="M168.55,-326.48C244.44,-322.63 374.57,-317 486.4,-317 486.4,-317 486.4,-317 658.36,-317 756.68,-317 871.37,-315.22 936.95,-314.04"/>
<polygon fill="#455a64" stroke="#455a64" points="936.8,-316.84 944.74,-313.9 936.69,-311.24 936.8,-316.84"/>
</g>
<!-- CliTests -->
<g id="node14" class="node">
<title>CliTests</title>
<path fill="#ffebee" stroke="#c62828" d="M165.71,-276C165.71,-276 41,-276 41,-276 35,-276 29,-270 29,-264 29,-264 29,-252 29,-252 29,-246 35,-240 41,-240 41,-240 165.71,-240 165.71,-240 171.71,-240 177.71,-246 177.71,-252 177.71,-252 177.71,-264 177.71,-264 177.71,-270 171.71,-276 165.71,-276"/>
<text xml:space="preserve" text-anchor="middle" x="103.36" y="-260.5" font-family="Arial" font-size="10.00">test_e5_search_context_file.py</text>
<text xml:space="preserve" text-anchor="middle" x="103.36" y="-248.5" font-family="Arial" font-size="10.00">parser + fichier</text>
</g>
<!-- CliTests&#45;&gt;SearchCli -->
<g id="edge14" class="edge">
<title>CliTests&#45;&gt;SearchCli</title>
<path fill="none" stroke="#455a64" d="M178.02,-246.62C249.77,-235.54 357.61,-218.89 424.9,-208.5"/>
<polygon fill="#455a64" stroke="#455a64" points="425.14,-211.29 432.62,-207.31 424.29,-205.76 425.14,-211.29"/>
</g>
<!-- RuleTests -->
<g id="node15" class="node">
<title>RuleTests</title>
<path fill="#ffebee" stroke="#c62828" d="M155.21,-204C155.21,-204 51.5,-204 51.5,-204 45.5,-204 39.5,-198 39.5,-192 39.5,-192 39.5,-180 39.5,-180 39.5,-174 45.5,-168 51.5,-168 51.5,-168 155.21,-168 155.21,-168 161.21,-168 167.21,-174 167.21,-180 167.21,-180 167.21,-192 167.21,-192 167.21,-198 161.21,-204 155.21,-204"/>
<text xml:space="preserve" text-anchor="middle" x="103.36" y="-188.5" font-family="Arial" font-size="10.00">tests/rules</text>
<text xml:space="preserve" text-anchor="middle" x="103.36" y="-176.5" font-family="Arial" font-size="10.00">pas de nouveau script CLI</text>
</g>
<!-- RuleTests&#45;&gt;NoNewScript -->
<g id="edge15" class="edge">
<title>RuleTests&#45;&gt;NoNewScript</title>
<path fill="none" stroke="#455a64" d="M167.57,-171.07C178.08,-168.07 188.78,-164.69 198.71,-161 222.95,-151.98 248.96,-139.51 269.9,-128.72"/>
<polygon fill="#455a64" stroke="#455a64" points="271.1,-131.25 276.9,-125.07 268.51,-126.28 271.1,-131.25"/>
</g>
<!-- Legend -->
<g id="node20" class="node">
<title>Legend</title>
<path fill="#ffffff" stroke="none" d="M178.71,-564.32C178.71,-564.32 28,-564.32 28,-564.32 22,-564.32 16,-558.32 16,-552.32 16,-552.32 16,-457.68 16,-457.68 16,-451.68 22,-445.68 28,-445.68 28,-445.68 178.71,-445.68 178.71,-445.68 184.71,-445.68 190.71,-451.68 190.71,-457.68 190.71,-457.68 190.71,-552.32 190.71,-552.32 190.71,-558.32 184.71,-564.32 178.71,-564.32"/>
<polygon fill="#ede7f6" stroke="none" points="22.48,-538 22.48,-560 63.98,-560 63.98,-538 22.48,-538"/>
<polygon fill="none" stroke="#ffffff" points="22.48,-538 22.48,-560 63.98,-560 63.98,-538 22.48,-538"/>
<text xml:space="preserve" text-anchor="start" x="30.86" y="-545.25" font-family="Arial" font-size="10.00">Violet</text>
<polygon fill="none" stroke="#ffffff" points="63.98,-538 63.98,-560 184.23,-560 184.23,-538 63.98,-538"/>
<text xml:space="preserve" text-anchor="start" x="68.98" y="-545.25" font-family="Arial" font-size="10.00">règle code_rule appliquée</text>
<polygon fill="#e3f2fd" stroke="none" points="22.48,-516 22.48,-538 63.98,-538 63.98,-516 22.48,-516"/>
<polygon fill="none" stroke="#ffffff" points="22.48,-516 22.48,-538 63.98,-538 63.98,-516 22.48,-516"/>
<text xml:space="preserve" text-anchor="start" x="33.48" y="-523.25" font-family="Arial" font-size="10.00">Bleu</text>
<polygon fill="none" stroke="#ffffff" points="63.98,-516 63.98,-538 184.23,-538 184.23,-516 63.98,-516"/>
<text xml:space="preserve" text-anchor="start" x="81.36" y="-523.25" font-family="Arial" font-size="10.00">recherche existante</text>
<polygon fill="#e8f5e9" stroke="none" points="22.48,-494 22.48,-516 63.98,-516 63.98,-494 22.48,-494"/>
<polygon fill="none" stroke="#ffffff" points="22.48,-494 22.48,-516 63.98,-516 63.98,-494 22.48,-494"/>
<text xml:space="preserve" text-anchor="start" x="34.61" y="-501.25" font-family="Arial" font-size="10.00">Vert</text>
<polygon fill="none" stroke="#ffffff" points="63.98,-494 63.98,-516 184.23,-516 184.23,-494 63.98,-494"/>
<text xml:space="preserve" text-anchor="start" x="89.61" y="-501.25" font-family="Arial" font-size="10.00">bundle contexte</text>
<polygon fill="#fff3e0" stroke="none" points="22.48,-472 22.48,-494 63.98,-494 63.98,-472 22.48,-472"/>
<polygon fill="none" stroke="#ffffff" points="22.48,-472 22.48,-494 63.98,-494 63.98,-472 22.48,-472"/>
<text xml:space="preserve" text-anchor="start" x="27.48" y="-479.25" font-family="Arial" font-size="10.00">Orange</text>
<polygon fill="none" stroke="#ffffff" points="63.98,-472 63.98,-494 184.23,-494 184.23,-472 63.98,-472"/>
<text xml:space="preserve" text-anchor="start" x="101.23" y="-479.25" font-family="Arial" font-size="10.00">bordure IO</text>
<polygon fill="#ffebee" stroke="none" points="22.48,-450 22.48,-472 63.98,-472 63.98,-450 22.48,-450"/>
<polygon fill="none" stroke="#ffffff" points="22.48,-450 22.48,-472 63.98,-472 63.98,-450 22.48,-450"/>
<text xml:space="preserve" text-anchor="start" x="28.98" y="-457.25" font-family="Arial" font-size="10.00">Rouge</text>
<polygon fill="none" stroke="#ffffff" points="63.98,-450 63.98,-472 184.23,-472 184.23,-450 63.98,-450"/>
<text xml:space="preserve" text-anchor="start" x="82.48" y="-457.25" font-family="Arial" font-size="10.00">tests anti&#45;dérapage</text>
</g>
</g>
</svg>
