<?xml version="1.0" encoding="UTF-8" standalone="no"?>
<!DOCTYPE svg PUBLIC "-//W3C//DTD SVG 1.1//EN"
 "http://www.w3.org/Graphics/SVG/1.1/DTD/svg11.dtd">
<!-- Generated by graphviz version 14.1.3 (20260303.0454)
 -->
<!-- Title: E5ContextConsumer Pages: 1 -->
<svg width="862pt" height="536pt"
 viewBox="0.00 0.00 862.00 536.00" xmlns="http://www.w3.org/2000/svg" xmlns:xlink="http://www.w3.org/1999/xlink">
<g id="graph0" class="graph" transform="scale(1 1) rotate(0) translate(4 532)">
<title>E5ContextConsumer</title>
<polygon fill="#ffffff" stroke="none" points="-4,4 -4,-532 857.75,-532 857.75,4 -4,4"/>
<text xml:space="preserve" text-anchor="middle" x="426.88" y="-506.9" font-family="Arial" font-size="18.00">Phase 4.15 — E5 context consumer</text>
<g id="clust1" class="cluster">
<title>cluster_input</title>
<path fill="#e3f2fd" stroke="#bbdefb" d="M20,-213C20,-213 177.25,-213 177.25,-213 183.25,-213 189.25,-219 189.25,-225 189.25,-225 189.25,-336 189.25,-336 189.25,-342 183.25,-348 177.25,-348 177.25,-348 20,-348 20,-348 14,-348 8,-342 8,-336 8,-336 8,-225 8,-225 8,-219 14,-213 20,-213"/>
<text xml:space="preserve" text-anchor="middle" x="98.62" y="-326.9" font-family="Arial" font-size="18.00">Entrée</text>
</g>
<g id="clust2" class="cluster">
<title>cluster_domain</title>
<path fill="#e8f5e9" stroke="#c8e6c9" d="M221.25,-124C221.25,-124 674.5,-124 674.5,-124 680.5,-124 686.5,-130 686.5,-136 686.5,-136 686.5,-193 686.5,-193 686.5,-199 680.5,-205 674.5,-205 674.5,-205 221.25,-205 221.25,-205 215.25,-205 209.25,-199 209.25,-193 209.25,-193 209.25,-136 209.25,-136 209.25,-130 215.25,-124 221.25,-124"/>
<text xml:space="preserve" text-anchor="middle" x="447.88" y="-183.9" font-family="Arial" font-size="18.00">Domaine pur</text>
</g>
<g id="clust3" class="cluster">
<title>cluster_output</title>
<path fill="#fff8e1" stroke="#ffe0b2" d="M718.5,-70C718.5,-70 833.75,-70 833.75,-70 839.75,-70 845.75,-76 845.75,-82 845.75,-82 845.75,-247 845.75,-247 845.75,-253 839.75,-259 833.75,-259 833.75,-259 718.5,-259 718.5,-259 712.5,-259 706.5,-253 706.5,-247 706.5,-247 706.5,-82 706.5,-82 706.5,-76 712.5,-70 718.5,-70"/>
<text xml:space="preserve" text-anchor="middle" x="776.12" y="-237.9" font-family="Arial" font-size="18.00">Sortie</text>
</g>
<g id="clust4" class="cluster">
<title>cluster_rules</title>
<path fill="#ffffff" stroke="#b0bec5" stroke-dasharray="5,2" d="M27.12,-8C27.12,-8 170.12,-8 170.12,-8 176.12,-8 182.12,-14 182.12,-20 182.12,-20 182.12,-193 182.12,-193 182.12,-199 176.12,-205 170.12,-205 170.12,-205 27.12,-205 27.12,-205 21.12,-205 15.12,-199 15.12,-193 15.12,-193 15.12,-20 15.12,-20 15.12,-14 21.12,-8 27.12,-8"/>
<text xml:space="preserve" text-anchor="middle" x="98.62" y="-183.9" font-family="Arial" font-size="18.00">Règles</text>
</g>
<g id="clust5" class="cluster">
<title>cluster_navigation</title>
<path fill="#ffffff" stroke="#90a4ae" stroke-dasharray="5,2" d="M39.88,-356C39.88,-356 157.38,-356 157.38,-356 163.38,-356 169.38,-362 169.38,-368 169.38,-368 169.38,-479 169.38,-479 169.38,-485 163.38,-491 157.38,-491 157.38,-491 39.88,-491 39.88,-491 33.87,-491 27.88,-485 27.88,-479 27.88,-479 27.88,-368 27.88,-368 27.88,-362 33.88,-356 39.88,-356"/>
<text xml:space="preserve" text-anchor="middle" x="98.62" y="-469.9" font-family="Arial" font-size="18.00">Navigation</text>
</g>
<!-- Bundle -->
<g id="node1" class="node">
<title>Bundle</title>
<g id="a_node1"><a xlink:href="68_e5_context_bundle.svg" xlink:title="E5ContextBundle\nquery + items">
<path fill="#f5f5f5" stroke="#546e7a" d="M132.88,-257C132.88,-257 64.38,-257 64.38,-257 58.38,-257 52.38,-251 52.38,-245 52.38,-245 52.38,-233 52.38,-233 52.38,-227 58.38,-221 64.38,-221 64.38,-221 132.88,-221 132.88,-221 138.88,-221 144.88,-227 144.88,-233 144.88,-233 144.88,-245 144.88,-245 144.88,-251 138.88,-257 132.88,-257"/>
<text xml:space="preserve" text-anchor="middle" x="98.62" y="-241.5" font-family="Arial" font-size="10.00">E5ContextBundle</text>
<text xml:space="preserve" text-anchor="middle" x="98.62" y="-229.5" font-family="Arial" font-size="10.00">query + items</text>
</a>
</g>
</g>
<!-- Consumer -->
<g id="node3" class="node">
<title>Consumer</title>
<path fill="#f5f5f5" stroke="#546e7a" d="M354,-168C354,-168 229.25,-168 229.25,-168 223.25,-168 217.25,-162 217.25,-156 217.25,-156 217.25,-144 217.25,-144 217.25,-138 223.25,-132 229.25,-132 229.25,-132 354,-132 354,-132 360,-132 366,-138 366,-144 366,-144 366,-156 366,-156 366,-162 360,-168 354,-168"/>
<text xml:space="preserve" text-anchor="middle" x="291.62" y="-152.5" font-family="Arial" font-size="10.00">consume_e5_context_bundle()</text>
<text xml:space="preserve" text-anchor="middle" x="291.62" y="-140.5" font-family="Arial" font-size="10.00">aucun IO</text>
</g>
<!-- Bundle&#45;&gt;Consumer -->
<g id="edge1" class="edge">
<title>Bundle&#45;&gt;Consumer</title>
<path fill="none" stroke="#455a64" d="M144.99,-225.8C159.38,-221.09 175.2,-215.36 189.25,-209 211.11,-199.11 234.32,-185.82 253.01,-174.36"/>
<polygon fill="#455a64" stroke="#455a64" points="254.68,-177.44 261.33,-169.19 250.99,-171.5 254.68,-177.44"/>
</g>
<!-- Policy -->
<g id="node2" class="node">
<title>Policy</title>
<path fill="#f5f5f5" stroke="#546e7a" d="M169.25,-311C169.25,-311 28,-311 28,-311 22,-311 16,-305 16,-299 16,-299 16,-287 16,-287 16,-281 22,-275 28,-275 28,-275 169.25,-275 169.25,-275 175.25,-275 181.25,-281 181.25,-287 181.25,-287 181.25,-299 181.25,-299 181.25,-305 175.25,-311 169.25,-311"/>
<text xml:space="preserve" text-anchor="middle" x="98.62" y="-295.5" font-family="Arial" font-size="10.00">E5ContextConsumptionPolicy</text>
<text xml:space="preserve" text-anchor="middle" x="98.62" y="-283.5" font-family="Arial" font-size="10.00">max_chars + max_items + scores</text>
</g>
<!-- Policy&#45;&gt;Consumer -->
<g id="edge2" class="edge">
<title>Policy&#45;&gt;Consumer</title>
<path fill="none" stroke="#455a64" d="M173.08,-274.68C178.73,-272.14 184.2,-269.26 189.25,-266 224.93,-243 255.34,-203.93 273.29,-177.56"/>
<polygon fill="#455a64" stroke="#455a64" points="276.1,-179.66 278.71,-169.39 270.27,-175.79 276.1,-179.66"/>
</g>
<!-- Item -->
<g id="node4" class="node">
<title>Item</title>
<path fill="#f5f5f5" stroke="#546e7a" d="M519.25,-168C519.25,-168 414,-168 414,-168 408,-168 402,-162 402,-156 402,-156 402,-144 402,-144 402,-138 408,-132 414,-132 414,-132 519.25,-132 519.25,-132 525.25,-132 531.25,-138 531.25,-144 531.25,-144 531.25,-156 531.25,-156 531.25,-162 525.25,-168 519.25,-168"/>
<text xml:space="preserve" text-anchor="middle" x="466.62" y="-152.5" font-family="Arial" font-size="10.00">E5ConsumedContextItem</text>
<text xml:space="preserve" text-anchor="middle" x="466.62" y="-140.5" font-family="Arial" font-size="10.00">rank/source/text</text>
</g>
<!-- Consumer&#45;&gt;Item -->
<g id="edge3" class="edge">
<title>Consumer&#45;&gt;Item</title>
<path fill="none" stroke="#455a64" d="M366.49,-150C374.33,-150 382.31,-150 390.16,-150"/>
<polygon fill="#455a64" stroke="#455a64" points="390.04,-153.5 400.04,-150 390.04,-146.5 390.04,-153.5"/>
</g>
<!-- Consumed -->
<g id="node5" class="node">
<title>Consumed</title>
<path fill="#f5f5f5" stroke="#546e7a" d="M666.5,-168C666.5,-168 579.25,-168 579.25,-168 573.25,-168 567.25,-162 567.25,-156 567.25,-156 567.25,-144 567.25,-144 567.25,-138 573.25,-132 579.25,-132 579.25,-132 666.5,-132 666.5,-132 672.5,-132 678.5,-138 678.5,-144 678.5,-144 678.5,-156 678.5,-156 678.5,-162 672.5,-168 666.5,-168"/>
<text xml:space="preserve" text-anchor="middle" x="622.88" y="-152.5" font-family="Arial" font-size="10.00">E5ConsumedContext</text>
<text xml:space="preserve" text-anchor="middle" x="622.88" y="-140.5" font-family="Arial" font-size="10.00">context_text + budget</text>
</g>
<!-- Item&#45;&gt;Consumed -->
<g id="edge4" class="edge">
<title>Item&#45;&gt;Consumed</title>
<path fill="none" stroke="#455a64" d="M531.7,-150C539.6,-150 547.68,-150 555.61,-150"/>
<polygon fill="#455a64" stroke="#455a64" points="555.56,-153.5 565.56,-150 555.56,-146.5 555.56,-153.5"/>
</g>
<!-- Json -->
<g id="node6" class="node">
<title>Json</title>
<path fill="#f5f5f5" stroke="#546e7a" d="M801.38,-114C801.38,-114 750.88,-114 750.88,-114 744.88,-114 738.88,-108 738.88,-102 738.88,-102 738.88,-90 738.88,-90 738.88,-84 744.88,-78 750.88,-78 750.88,-78 801.38,-78 801.38,-78 807.38,-78 813.38,-84 813.38,-90 813.38,-90 813.38,-102 813.38,-102 813.38,-108 807.38,-114 801.38,-114"/>
<text xml:space="preserve" text-anchor="middle" x="776.12" y="-98.5" font-family="Arial" font-size="10.00">to_json_dict()</text>
<text xml:space="preserve" text-anchor="middle" x="776.12" y="-86.5" font-family="Arial" font-size="10.00">stable</text>
</g>
<!-- Consumed&#45;&gt;Json -->
<g id="edge5" class="edge">
<title>Consumed&#45;&gt;Json</title>
<path fill="none" stroke="#455a64" d="M675.5,-131.57C692.49,-125.5 711.28,-118.79 727.92,-112.85"/>
<polygon fill="#455a64" stroke="#455a64" points="728.84,-116.24 737.08,-109.58 726.49,-109.65 728.84,-116.24"/>
</g>
<!-- Text -->
<g id="node7" class="node">
<title>Text</title>
<path fill="#f5f5f5" stroke="#546e7a" d="M791.12,-168C791.12,-168 761.12,-168 761.12,-168 755.12,-168 749.12,-162 749.12,-156 749.12,-156 749.12,-144 749.12,-144 749.12,-138 755.12,-132 761.12,-132 761.12,-132 791.12,-132 791.12,-132 797.12,-132 803.12,-138 803.12,-144 803.12,-144 803.12,-156 803.12,-156 803.12,-162 797.12,-168 791.12,-168"/>
<text xml:space="preserve" text-anchor="middle" x="776.12" y="-152.5" font-family="Arial" font-size="10.00">to_text()</text>
<text xml:space="preserve" text-anchor="middle" x="776.12" y="-140.5" font-family="Arial" font-size="10.00">humain</text>
</g>
<!-- Consumed&#45;&gt;Text -->
<g id="edge6" class="edge">
<title>Consumed&#45;&gt;Text</title>
<path fill="none" stroke="#455a64" d="M678.91,-150C698.35,-150 719.77,-150 737.44,-150"/>
<polygon fill="#455a64" stroke="#455a64" points="737.23,-153.5 747.23,-150 737.23,-146.5 737.23,-153.5"/>
</g>
<!-- Prompt -->
<g id="node8" class="node">
<title>Prompt</title>
<g id="a_node8"><a xlink:href="70_e5_answer_prompt_packet.svg" xlink:title="Phase 4.16\nE5AnswerPromptPacket">
<path fill="#f5f5f5" stroke="#546e7a" d="M825.75,-222C825.75,-222 726.5,-222 726.5,-222 720.5,-222 714.5,-216 714.5,-210 714.5,-210 714.5,-198 714.5,-198 714.5,-192 720.5,-186 726.5,-186 726.5,-186 825.75,-186 825.75,-186 831.75,-186 837.75,-192 837.75,-198 837.75,-198 837.75,-210 837.75,-210 837.75,-216 831.75,-222 825.75,-222"/>
<text xml:space="preserve" text-anchor="middle" x="776.12" y="-206.5" font-family="Arial" font-size="10.00">Phase 4.16</text>
<text xml:space="preserve" text-anchor="middle" x="776.12" y="-194.5" font-family="Arial" font-size="10.00">E5AnswerPromptPacket</text>
</a>
</g>
</g>
<!-- Consumed&#45;&gt;Prompt -->
<g id="edge7" class="edge">
<title>Consumed&#45;&gt;Prompt</title>
<path fill="none" stroke="#455a64" d="M675.5,-168.43C687.48,-172.71 700.36,-177.31 712.75,-181.73"/>
<polygon fill="#455a64" stroke="#455a64" points="711.45,-184.98 722.05,-185.05 713.81,-178.39 711.45,-184.98"/>
</g>
<!-- NoDeps -->
<g id="node9" class="node">
<title>NoDeps</title>
<path fill="#f5f5f5" stroke="#546e7a" d="M162.12,-52C162.12,-52 35.12,-52 35.12,-52 29.12,-52 23.12,-46 23.12,-40 23.12,-40 23.12,-28 23.12,-28 23.12,-22 29.12,-16 35.12,-16 35.12,-16 162.12,-16 162.12,-16 168.12,-16 174.12,-22 174.12,-28 174.12,-28 174.12,-40 174.12,-40 174.12,-46 168.12,-52 162.12,-52"/>
<text xml:space="preserve" text-anchor="middle" x="98.62" y="-30.5" font-family="Arial" font-size="10.00">aucune dépendance hors stdlib</text>
</g>
<!-- NoDeps&#45;&gt;Consumer -->
<g id="edge8" class="edge">
<title>NoDeps&#45;&gt;Consumer</title>
<path fill="none" stroke="#455a64" stroke-dasharray="5,2" d="M171.23,-52.49C177.47,-55.02 183.57,-57.85 189.25,-61 218.86,-77.43 247.37,-103.7 266.57,-123.44"/>
<polygon fill="#455a64" stroke="#455a64" points="263.98,-125.8 273.41,-130.63 269.05,-120.97 263.98,-125.8"/>
</g>
<!-- NoLLM -->
<g id="node10" class="node">
<title>NoLLM</title>
<path fill="#f5f5f5" stroke="#546e7a" d="M132.5,-114C132.5,-114 64.75,-114 64.75,-114 58.75,-114 52.75,-108 52.75,-102 52.75,-102 52.75,-82 52.75,-82 52.75,-76 58.75,-70 64.75,-70 64.75,-70 132.5,-70 132.5,-70 138.5,-70 144.5,-76 144.5,-82 144.5,-82 144.5,-102 144.5,-102 144.5,-108 138.5,-114 132.5,-114"/>
<text xml:space="preserve" text-anchor="middle" x="98.62" y="-100.5" font-family="Arial" font-size="10.00">pas de LLM</text>
<text xml:space="preserve" text-anchor="middle" x="98.62" y="-88.5" font-family="Arial" font-size="10.00">pas de Scheduler</text>
<text xml:space="preserve" text-anchor="middle" x="98.62" y="-76.5" font-family="Arial" font-size="10.00">pas de Qdrant</text>
</g>
<!-- NoLLM&#45;&gt;Consumer -->
<g id="edge9" class="edge">
<title>NoLLM&#45;&gt;Consumer</title>
<path fill="none" stroke="#455a64" stroke-dasharray="5,2" d="M144.89,-105.75C166.99,-112.46 194.11,-120.69 218.94,-128.23"/>
<polygon fill="#455a64" stroke="#455a64" points="217.75,-131.53 228.34,-131.09 219.79,-124.83 217.75,-131.53"/>
</g>
<!-- CodeRule -->
<g id="node11" class="node">
<title>CodeRule</title>
<path fill="#f5f5f5" stroke="#546e7a" d="M146,-168C146,-168 51.25,-168 51.25,-168 45.25,-168 39.25,-162 39.25,-156 39.25,-156 39.25,-144 39.25,-144 39.25,-138 45.25,-132 51.25,-132 51.25,-132 146,-132 146,-132 152,-132 158,-138 158,-144 158,-144 158,-156 158,-156 158,-162 152,-168 146,-168"/>
<text xml:space="preserve" text-anchor="middle" x="98.62" y="-146.5" font-family="Arial" font-size="10.00">code_rule_review: done</text>
</g>
<!-- CodeRule&#45;&gt;Consumer -->
<g id="edge10" class="edge">
<title>CodeRule&#45;&gt;Consumer</title>
<path fill="none" stroke="#455a64" stroke-dasharray="5,2" d="M158.49,-150C173.31,-150 189.51,-150 205.34,-150"/>
<polygon fill="#455a64" stroke="#455a64" points="205.26,-153.5 215.26,-150 205.26,-146.5 205.26,-153.5"/>
</g>
<!-- Parent -->
<g id="node12" class="node">
<title>Parent</title>
<g id="a_node12"><a xlink:href="68_e5_context_bundle.svg" xlink:title="← context bundle">
<path fill="#f5f5f5" stroke="none" d="M132.88,-400C132.88,-400 64.38,-400 64.38,-400 58.38,-400 52.38,-394 52.38,-388 52.38,-388 52.38,-376 52.38,-376 52.38,-370 58.38,-364 64.38,-364 64.38,-364 132.88,-364 132.88,-364 138.88,-364 144.88,-370 144.88,-376 144.88,-376 144.88,-388 144.88,-388 144.88,-394 138.88,-400 132.88,-400"/>
<text xml:space="preserve" text-anchor="middle" x="98.62" y="-378.5" font-family="Arial" font-size="10.00">← context bundle</text>
</a>
</g>
</g>
<!-- Next -->
<g id="node13" class="node">
<title>Next</title>
<g id="a_node13"><a xlink:href="70_e5_answer_prompt_packet.svg" xlink:title="answer prompt packet →">
<path fill="#f5f5f5" stroke="none" d="M149.38,-454C149.38,-454 47.88,-454 47.88,-454 41.87,-454 35.88,-448 35.88,-442 35.88,-442 35.88,-430 35.88,-430 35.88,-424 41.88,-418 47.88,-418 47.88,-418 149.38,-418 149.38,-418 155.38,-418 161.38,-424 161.38,-430 161.38,-430 161.38,-442 161.38,-442 161.38,-448 155.38,-454 149.38,-454"/>
<text xml:space="preserve" text-anchor="middle" x="98.62" y="-432.5" font-family="Arial" font-size="10.00">answer prompt packet →</text>
</a>
</g>
</g>
</g>
</svg>
