<?xml version="1.0" encoding="UTF-8" standalone="no"?>
<!DOCTYPE svg PUBLIC "-//W3C//DTD SVG 1.1//EN"
 "http://www.w3.org/Graphics/SVG/1.1/DTD/svg11.dtd">
<!-- Generated by graphviz version 14.1.3 (20260303.0454)
 -->
<!-- Title: E5AnswerPromptPacket Pages: 1 -->
<svg width="739pt" height="582pt"
 viewBox="0.00 0.00 739.00 582.00" xmlns="http://www.w3.org/2000/svg" xmlns:xlink="http://www.w3.org/1999/xlink">
<g id="graph0" class="graph" transform="scale(1 1) rotate(0) translate(4 578)">
<title>E5AnswerPromptPacket</title>
<polygon fill="#ffffff" stroke="none" points="-4,4 -4,-578 735.25,-578 735.25,4 -4,4"/>
<text xml:space="preserve" text-anchor="middle" x="365.62" y="-552.9" font-family="Arial" font-size="18.00">Phase 4.16 — E5 answer prompt packet</text>
<g id="clust1" class="cluster">
<title>cluster_input</title>
<path fill="#e3f2fd" stroke="#bbdefb" d="M20,-259C20,-259 185.5,-259 185.5,-259 191.5,-259 197.5,-265 197.5,-271 197.5,-271 197.5,-382 197.5,-382 197.5,-388 191.5,-394 185.5,-394 185.5,-394 20,-394 20,-394 14,-394 8,-388 8,-382 8,-382 8,-271 8,-271 8,-265 14,-259 20,-259"/>
<text xml:space="preserve" text-anchor="middle" x="102.75" y="-372.9" font-family="Arial" font-size="18.00">Entrée</text>
</g>
<g id="clust2" class="cluster">
<title>cluster_domain</title>
<path fill="#e8f5e9" stroke="#c8e6c9" d="M229.5,-143C229.5,-143 523.5,-143 523.5,-143 529.5,-143 535.5,-149 535.5,-155 535.5,-155 535.5,-212 535.5,-212 535.5,-218 529.5,-224 523.5,-224 523.5,-224 229.5,-224 229.5,-224 223.5,-224 217.5,-218 217.5,-212 217.5,-212 217.5,-155 217.5,-155 217.5,-149 223.5,-143 229.5,-143"/>
<text xml:space="preserve" text-anchor="middle" x="376.5" y="-202.9" font-family="Arial" font-size="18.00">Domaine pur</text>
</g>
<g id="clust3" class="cluster">
<title>cluster_prompt</title>
<path fill="#f3e5f5" stroke="#d1c4e9" d="M567.5,-62C567.5,-62 719.25,-62 719.25,-62 725.25,-62 731.25,-68 731.25,-74 731.25,-74 731.25,-293 731.25,-293 731.25,-299 725.25,-305 719.25,-305 719.25,-305 567.5,-305 567.5,-305 561.5,-305 555.5,-299 555.5,-293 555.5,-293 555.5,-74 555.5,-74 555.5,-68 561.5,-62 567.5,-62"/>
<text xml:space="preserve" text-anchor="middle" x="643.38" y="-283.9" font-family="Arial" font-size="18.00">Prompt déterministe</text>
</g>
<g id="clust4" class="cluster">
<title>cluster_rules</title>
<path fill="#ffffff" stroke="#b0bec5" stroke-dasharray="5,2" d="M31.25,-8C31.25,-8 174.25,-8 174.25,-8 180.25,-8 186.25,-14 186.25,-20 186.25,-20 186.25,-239 186.25,-239 186.25,-245 180.25,-251 174.25,-251 174.25,-251 31.25,-251 31.25,-251 25.25,-251 19.25,-245 19.25,-239 19.25,-239 19.25,-20 19.25,-20 19.25,-14 25.25,-8 31.25,-8"/>
<text xml:space="preserve" text-anchor="middle" x="102.75" y="-229.9" font-family="Arial" font-size="18.00">Règles</text>
</g>
<g id="clust5" class="cluster">
<title>cluster_navigation</title>
<path fill="#ffffff" stroke="#90a4ae" stroke-dasharray="5,2" d="M53.38,-402C53.38,-402 152.12,-402 152.12,-402 158.12,-402 164.12,-408 164.12,-414 164.12,-414 164.12,-525 164.12,-525 164.12,-531 158.12,-537 152.12,-537 152.12,-537 53.38,-537 53.38,-537 47.38,-537 41.38,-531 41.38,-525 41.38,-525 41.38,-414 41.38,-414 41.38,-408 47.38,-402 53.38,-402"/>
<text xml:space="preserve" text-anchor="middle" x="102.75" y="-515.9" font-family="Arial" font-size="18.00">Navigation</text>
</g>
<!-- Consumed -->
<g id="node1" class="node">
<title>Consumed</title>
<g id="a_node1"><a xlink:href="69_e5_context_consumer.svg" xlink:title="E5ConsumedContext\ncontext_text + budget">
<path fill="#f5f5f5" stroke="#546e7a" d="M146.38,-303C146.38,-303 59.12,-303 59.12,-303 53.13,-303 47.12,-297 47.12,-291 47.12,-291 47.12,-279 47.12,-279 47.12,-273 53.12,-267 59.12,-267 59.12,-267 146.38,-267 146.38,-267 152.38,-267 158.38,-273 158.38,-279 158.38,-279 158.38,-291 158.38,-291 158.38,-297 152.38,-303 146.38,-303"/>
<text xml:space="preserve" text-anchor="middle" x="102.75" y="-287.5" font-family="Arial" font-size="10.00">E5ConsumedContext</text>
<text xml:space="preserve" text-anchor="middle" x="102.75" y="-275.5" font-family="Arial" font-size="10.00">context_text + budget</text>
</a>
</g>
</g>
<!-- Builder -->
<g id="node3" class="node">
<title>Builder</title>
<path fill="#f5f5f5" stroke="#546e7a" d="M343.5,-187C343.5,-187 237.5,-187 237.5,-187 231.5,-187 225.5,-181 225.5,-175 225.5,-175 225.5,-163 225.5,-163 225.5,-157 231.5,-151 237.5,-151 237.5,-151 343.5,-151 343.5,-151 349.5,-151 355.5,-157 355.5,-163 355.5,-163 355.5,-175 355.5,-175 355.5,-181 349.5,-187 343.5,-187"/>
<text xml:space="preserve" text-anchor="middle" x="290.5" y="-171.5" font-family="Arial" font-size="10.00">build_e5_answer_prompt()</text>
<text xml:space="preserve" text-anchor="middle" x="290.5" y="-159.5" font-family="Arial" font-size="10.00">aucun IO</text>
</g>
<!-- Consumed&#45;&gt;Builder -->
<g id="edge1" class="edge">
<title>Consumed&#45;&gt;Builder</title>
<path fill="none" stroke="#455a64" d="M158.55,-271.93C171.79,-267.58 185.56,-262.01 197.5,-255 224.2,-239.33 249.5,-214.69 266.79,-195.79"/>
<polygon fill="#455a64" stroke="#455a64" points="269.31,-198.22 273.37,-188.43 264.09,-193.56 269.31,-198.22"/>
</g>
<!-- Policy -->
<g id="node2" class="node">
<title>Policy</title>
<path fill="#f5f5f5" stroke="#546e7a" d="M177.5,-357C177.5,-357 28,-357 28,-357 22,-357 16,-351 16,-345 16,-345 16,-333 16,-333 16,-327 22,-321 28,-321 28,-321 177.5,-321 177.5,-321 183.5,-321 189.5,-327 189.5,-333 189.5,-333 189.5,-345 189.5,-345 189.5,-351 183.5,-357 177.5,-357"/>
<text xml:space="preserve" text-anchor="middle" x="102.75" y="-341.5" font-family="Arial" font-size="10.00">E5AnswerPromptPolicy</text>
<text xml:space="preserve" text-anchor="middle" x="102.75" y="-329.5" font-family="Arial" font-size="10.00">system + instruction + empty notice</text>
</g>
<!-- Policy&#45;&gt;Builder -->
<g id="edge2" class="edge">
<title>Policy&#45;&gt;Builder</title>
<path fill="none" stroke="#455a64" d="M183.48,-320.59C188.43,-318.08 193.15,-315.24 197.5,-312 237.12,-282.52 264.24,-230.51 278.28,-198"/>
<polygon fill="#455a64" stroke="#455a64" points="281.51,-199.36 282.12,-188.78 275.05,-196.67 281.51,-199.36"/>
</g>
<!-- Packet -->
<g id="node4" class="node">
<title>Packet</title>
<path fill="#f5f5f5" stroke="#546e7a" d="M515.5,-187C515.5,-187 403.5,-187 403.5,-187 397.5,-187 391.5,-181 391.5,-175 391.5,-175 391.5,-163 391.5,-163 391.5,-157 397.5,-151 403.5,-151 403.5,-151 515.5,-151 515.5,-151 521.5,-151 527.5,-157 527.5,-163 527.5,-163 527.5,-175 527.5,-175 527.5,-181 521.5,-187 515.5,-187"/>
<text xml:space="preserve" text-anchor="middle" x="459.5" y="-171.5" font-family="Arial" font-size="10.00">E5AnswerPromptPacket</text>
<text xml:space="preserve" text-anchor="middle" x="459.5" y="-159.5" font-family="Arial" font-size="10.00">prompt_text + JSON stable</text>
</g>
<!-- Builder&#45;&gt;Packet -->
<g id="edge3" class="edge">
<title>Builder&#45;&gt;Packet</title>
<path fill="none" stroke="#455a64" d="M355.59,-169C363.53,-169 371.72,-169 379.84,-169"/>
<polygon fill="#455a64" stroke="#455a64" points="379.75,-172.5 389.75,-169 379.75,-165.5 379.75,-172.5"/>
</g>
<!-- System -->
<g id="node5" class="node">
<title>System</title>
<path fill="#f5f5f5" stroke="#546e7a" d="M676,-106C676,-106 609.75,-106 609.75,-106 603.75,-106 597.75,-100 597.75,-94 597.75,-94 597.75,-82 597.75,-82 597.75,-76 603.75,-70 609.75,-70 609.75,-70 676,-70 676,-70 682,-70 688,-76 688,-82 688,-82 688,-94 688,-94 688,-100 682,-106 676,-106"/>
<text xml:space="preserve" text-anchor="middle" x="642.88" y="-90.5" font-family="Arial" font-size="10.00">[SYSTEM]</text>
<text xml:space="preserve" text-anchor="middle" x="642.88" y="-78.5" font-family="Arial" font-size="10.00">instruction stable</text>
</g>
<!-- Packet&#45;&gt;System -->
<g id="edge4" class="edge">
<title>Packet&#45;&gt;System</title>
<path fill="none" stroke="#455a64" d="M489.19,-150.55C507.62,-139.24 532.36,-125.06 555.5,-115 565.34,-110.72 576.07,-106.81 586.53,-103.37"/>
<polygon fill="#455a64" stroke="#455a64" points="587.36,-106.77 595.83,-100.41 585.24,-100.1 587.36,-106.77"/>
</g>
<!-- Question -->
<g id="node6" class="node">
<title>Question</title>
<path fill="#f5f5f5" stroke="#546e7a" d="M673.38,-160C673.38,-160 612.38,-160 612.38,-160 606.38,-160 600.38,-154 600.38,-148 600.38,-148 600.38,-136 600.38,-136 600.38,-130 606.38,-124 612.38,-124 612.38,-124 673.38,-124 673.38,-124 679.38,-124 685.38,-130 685.38,-136 685.38,-136 685.38,-148 685.38,-148 685.38,-154 679.38,-160 673.38,-160"/>
<text xml:space="preserve" text-anchor="middle" x="642.88" y="-144.5" font-family="Arial" font-size="10.00">[QUESTION]</text>
<text xml:space="preserve" text-anchor="middle" x="642.88" y="-132.5" font-family="Arial" font-size="10.00">query utilisateur</text>
</g>
<!-- Packet&#45;&gt;Question -->
<g id="edge5" class="edge">
<title>Packet&#45;&gt;Question</title>
<path fill="none" stroke="#455a64" d="M527.78,-158.98C547.91,-155.99 569.69,-152.74 588.78,-149.9"/>
<polygon fill="#455a64" stroke="#455a64" points="589.1,-153.39 598.48,-148.46 588.07,-146.47 589.1,-153.39"/>
</g>
<!-- Context -->
<g id="node7" class="node">
<title>Context</title>
<path fill="#f5f5f5" stroke="#546e7a" d="M690.62,-214C690.62,-214 595.12,-214 595.12,-214 589.12,-214 583.12,-208 583.12,-202 583.12,-202 583.12,-190 583.12,-190 583.12,-184 589.12,-178 595.12,-178 595.12,-178 690.62,-178 690.62,-178 696.62,-178 702.62,-184 702.62,-190 702.62,-190 702.62,-202 702.62,-202 702.62,-208 696.62,-214 690.62,-214"/>
<text xml:space="preserve" text-anchor="middle" x="642.88" y="-198.5" font-family="Arial" font-size="10.00">[CONTEXT]</text>
<text xml:space="preserve" text-anchor="middle" x="642.88" y="-186.5" font-family="Arial" font-size="10.00">contexte E5 consommé</text>
</g>
<!-- Packet&#45;&gt;Context -->
<g id="edge6" class="edge">
<title>Packet&#45;&gt;Context</title>
<path fill="none" stroke="#455a64" d="M527.78,-179.02C542.02,-181.14 557.08,-183.38 571.44,-185.51"/>
<polygon fill="#455a64" stroke="#455a64" points="570.86,-188.97 581.27,-186.98 571.89,-182.04 570.86,-188.97"/>
</g>
<!-- Instructions -->
<g id="node8" class="node">
<title>Instructions</title>
<path fill="#f5f5f5" stroke="#546e7a" d="M680.12,-268C680.12,-268 605.62,-268 605.62,-268 599.62,-268 593.62,-262 593.62,-256 593.62,-256 593.62,-244 593.62,-244 593.62,-238 599.62,-232 605.62,-232 605.62,-232 680.12,-232 680.12,-232 686.12,-232 692.12,-238 692.12,-244 692.12,-244 692.12,-256 692.12,-256 692.12,-262 686.12,-268 680.12,-268"/>
<text xml:space="preserve" text-anchor="middle" x="642.88" y="-252.5" font-family="Arial" font-size="10.00">[INSTRUCTIONS]</text>
<text xml:space="preserve" text-anchor="middle" x="642.88" y="-240.5" font-family="Arial" font-size="10.00">contrat de réponse</text>
</g>
<!-- Packet&#45;&gt;Instructions -->
<g id="edge7" class="edge">
<title>Packet&#45;&gt;Instructions</title>
<path fill="none" stroke="#455a64" d="M489.19,-187.45C507.62,-198.76 532.36,-212.94 555.5,-223 564.1,-226.74 573.38,-230.2 582.56,-233.31"/>
<polygon fill="#455a64" stroke="#455a64" points="581.21,-236.55 591.8,-236.32 583.38,-229.89 581.21,-236.55"/>
</g>
<!-- NoDeps -->
<g id="node9" class="node">
<title>NoDeps</title>
<path fill="#f5f5f5" stroke="#546e7a" d="M166.25,-214C166.25,-214 39.25,-214 39.25,-214 33.25,-214 27.25,-208 27.25,-202 27.25,-202 27.25,-190 27.25,-190 27.25,-184 33.25,-178 39.25,-178 39.25,-178 166.25,-178 166.25,-178 172.25,-178 178.25,-184 178.25,-190 178.25,-190 178.25,-202 178.25,-202 178.25,-208 172.25,-214 166.25,-214"/>
<text xml:space="preserve" text-anchor="middle" x="102.75" y="-192.5" font-family="Arial" font-size="10.00">aucune dépendance hors stdlib</text>
</g>
<!-- NoDeps&#45;&gt;Builder -->
<g id="edge8" class="edge">
<title>NoDeps&#45;&gt;Builder</title>
<path fill="none" stroke="#455a64" stroke-dasharray="5,2" d="M178.5,-185.13C190.19,-183.44 202.27,-181.68 213.98,-179.98"/>
<polygon fill="#455a64" stroke="#455a64" points="214.17,-183.49 223.56,-178.58 213.16,-176.56 214.17,-183.49"/>
</g>
<!-- NoRuntime -->
<g id="node10" class="node">
<title>NoRuntime</title>
<path fill="#f5f5f5" stroke="#546e7a" d="M140.75,-106C140.75,-106 64.75,-106 64.75,-106 58.75,-106 52.75,-100 52.75,-94 52.75,-94 52.75,-82 52.75,-82 52.75,-76 58.75,-70 64.75,-70 64.75,-70 140.75,-70 140.75,-70 146.75,-70 152.75,-76 152.75,-82 152.75,-82 152.75,-94 152.75,-94 152.75,-100 146.75,-106 140.75,-106"/>
<text xml:space="preserve" text-anchor="middle" x="102.75" y="-90.5" font-family="Arial" font-size="10.00">pas d&#39;appel modèle</text>
<text xml:space="preserve" text-anchor="middle" x="102.75" y="-78.5" font-family="Arial" font-size="10.00">pas de LLM</text>
</g>
<!-- NoRuntime&#45;&gt;Builder -->
<g id="edge9" class="edge">
<title>NoRuntime&#45;&gt;Builder</title>
<path fill="none" stroke="#455a64" stroke-dasharray="5,2" d="M153.22,-99.75C167.75,-103.86 183.49,-108.99 197.5,-115 216.38,-123.11 236.18,-134.33 252.56,-144.45"/>
<polygon fill="#455a64" stroke="#455a64" points="250.66,-147.39 260.99,-149.76 254.39,-141.47 250.66,-147.39"/>
</g>
<!-- Border -->
<g id="node11" class="node">
<title>Border</title>
<path fill="#f5f5f5" stroke="#546e7a" d="M147.5,-52C147.5,-52 58,-52 58,-52 52,-52 46,-46 46,-40 46,-40 46,-28 46,-28 46,-22 52,-16 58,-16 58,-16 147.5,-16 147.5,-16 153.5,-16 159.5,-22 159.5,-28 159.5,-28 159.5,-40 159.5,-40 159.5,-46 153.5,-52 147.5,-52"/>
<text xml:space="preserve" text-anchor="middle" x="102.75" y="-36.5" font-family="Arial" font-size="10.00">fichier futur en bordure</text>
<text xml:space="preserve" text-anchor="middle" x="102.75" y="-24.5" font-family="Arial" font-size="10.00">pas dans le domaine</text>
</g>
<!-- Border&#45;&gt;Packet -->
<g id="edge10" class="edge">
<title>Border&#45;&gt;Packet</title>
<path fill="none" stroke="#455a64" stroke-dasharray="5,2" d="M159.6,-48.97C172.15,-52.65 185.35,-56.75 197.5,-61 271.77,-86.97 355.47,-122.81 407.6,-145.95"/>
<polygon fill="#455a64" stroke="#455a64" points="405.97,-149.05 416.53,-149.92 408.82,-142.66 405.97,-149.05"/>
</g>
<!-- CodeRule -->
<g id="node12" class="node">
<title>CodeRule</title>
<path fill="#f5f5f5" stroke="#546e7a" d="M150.12,-160C150.12,-160 55.38,-160 55.38,-160 49.37,-160 43.38,-154 43.38,-148 43.38,-148 43.38,-136 43.38,-136 43.38,-130 49.38,-124 55.38,-124 55.38,-124 150.12,-124 150.12,-124 156.12,-124 162.12,-130 162.12,-136 162.12,-136 162.12,-148 162.12,-148 162.12,-154 156.12,-160 150.12,-160"/>
<text xml:space="preserve" text-anchor="middle" x="102.75" y="-138.5" font-family="Arial" font-size="10.00">code_rule_review: done</text>
</g>
<!-- CodeRule&#45;&gt;Builder -->
<g id="edge11" class="edge">
<title>CodeRule&#45;&gt;Builder</title>
<path fill="none" stroke="#455a64" stroke-dasharray="5,2" d="M162.52,-150.54C178.91,-152.93 196.95,-155.55 214.16,-158.05"/>
<polygon fill="#455a64" stroke="#455a64" points="213.42,-161.48 223.82,-159.45 214.42,-154.55 213.42,-161.48"/>
</g>
<!-- Parent -->
<g id="node13" class="node">
<title>Parent</title>
<g id="a_node13"><a xlink:href="69_e5_context_consumer.svg" xlink:title="← context consumer">
<path fill="#f5f5f5" stroke="none" d="M144.12,-446C144.12,-446 61.38,-446 61.38,-446 55.37,-446 49.38,-440 49.38,-434 49.38,-434 49.38,-422 49.38,-422 49.38,-416 55.38,-410 61.38,-410 61.38,-410 144.12,-410 144.12,-410 150.12,-410 156.12,-416 156.12,-422 156.12,-422 156.12,-434 156.12,-434 156.12,-440 150.12,-446 144.12,-446"/>
<text xml:space="preserve" text-anchor="middle" x="102.75" y="-424.5" font-family="Arial" font-size="10.00">← context consumer</text>
</a>
</g>
</g>
<!-- Next -->
<g id="node14" class="node">
<title>Next</title>
<g id="a_node14"><a xlink:href="71_e5_prompt_file_cli.svg" xlink:title="prompt file CLI →">
<path fill="#f5f5f5" stroke="none" d="M137.38,-500C137.38,-500 68.12,-500 68.12,-500 62.13,-500 56.12,-494 56.12,-488 56.12,-488 56.12,-476 56.12,-476 56.12,-470 62.12,-464 68.12,-464 68.12,-464 137.38,-464 137.38,-464 143.38,-464 149.38,-470 149.38,-476 149.38,-476 149.38,-488 149.38,-488 149.38,-494 143.38,-500 137.38,-500"/>
<text xml:space="preserve" text-anchor="middle" x="102.75" y="-478.5" font-family="Arial" font-size="10.00">prompt file CLI →</text>
</a>
</g>
</g>
</g>
</svg>
