<?xml version="1.0" encoding="UTF-8" standalone="no"?>
<!DOCTYPE svg PUBLIC "-//W3C//DTD SVG 1.1//EN"
 "http://www.w3.org/Graphics/SVG/1.1/DTD/svg11.dtd">
<!-- Generated by graphviz version 14.1.3 (20260303.0454)
 -->
<!-- Title: E5PromptFileCli Pages: 1 -->
<svg width="1408pt" height="548pt"
 viewBox="0.00 0.00 1408.00 548.00" xmlns="http://www.w3.org/2000/svg" xmlns:xlink="http://www.w3.org/1999/xlink">
<g id="graph0" class="graph" transform="scale(1 1) rotate(0) translate(4 544)">
<title>E5PromptFileCli</title>
<polygon fill="#ffffff" stroke="none" points="-4,4 -4,-544 1404,-544 1404,4 -4,4"/>
<text xml:space="preserve" text-anchor="middle" x="700" y="-518.9" font-family="Arial" font-size="18.00">Phase 4.17 — E5 prompt file CLI</text>
<g id="clust1" class="cluster">
<title>cluster_cli</title>
<path fill="#e3f2fd" stroke="#bbdefb" d="M34.62,-259C34.62,-259 464.25,-259 464.25,-259 470.25,-259 476.25,-265 476.25,-271 476.25,-271 476.25,-348 476.25,-348 476.25,-354 470.25,-360 464.25,-360 464.25,-360 34.62,-360 34.62,-360 28.62,-360 22.62,-354 22.62,-348 22.62,-348 22.62,-271 22.62,-271 22.62,-265 28.62,-259 34.62,-259"/>
<text xml:space="preserve" text-anchor="middle" x="249.44" y="-338.9" font-family="Arial" font-size="18.00">CLI adapter</text>
</g>
<g id="clust2" class="cluster">
<title>cluster_domain</title>
<path fill="#e8f5e9" stroke="#c8e6c9" d="M508.25,-108C508.25,-108 1051,-108 1051,-108 1057,-108 1063,-114 1063,-120 1063,-120 1063,-177 1063,-177 1063,-183 1057,-189 1051,-189 1051,-189 508.25,-189 508.25,-189 502.25,-189 496.25,-183 496.25,-177 496.25,-177 496.25,-120 496.25,-120 496.25,-114 502.25,-108 508.25,-108"/>
<text xml:space="preserve" text-anchor="middle" x="779.62" y="-167.9" font-family="Arial" font-size="18.00">Chaîne domaine pure</text>
</g>
<g id="clust3" class="cluster">
<title>cluster_io</title>
<path fill="#fff8e1" stroke="#ffe0b2" d="M1095,-84C1095,-84 1380,-84 1380,-84 1386,-84 1392,-90 1392,-96 1392,-96 1392,-315 1392,-315 1392,-321 1386,-327 1380,-327 1380,-327 1095,-327 1095,-327 1089,-327 1083,-321 1083,-315 1083,-315 1083,-96 1083,-96 1083,-90 1089,-84 1095,-84"/>
<text xml:space="preserve" text-anchor="middle" x="1237.5" y="-305.9" font-family="Arial" font-size="18.00">Effets de bord en bordure</text>
</g>
<g id="clust4" class="cluster">
<title>cluster_rules</title>
<path fill="#ffffff" stroke="#b0bec5" stroke-dasharray="5,2" d="M181.5,-8C181.5,-8 324.5,-8 324.5,-8 330.5,-8 336.5,-14 336.5,-20 336.5,-20 336.5,-239 336.5,-239 336.5,-245 330.5,-251 324.5,-251 324.5,-251 181.5,-251 181.5,-251 175.5,-251 169.5,-245 169.5,-239 169.5,-239 169.5,-20 169.5,-20 169.5,-14 175.5,-8 181.5,-8"/>
<text xml:space="preserve" text-anchor="middle" x="253" y="-229.9" font-family="Arial" font-size="18.00">Règles code_rule</text>
</g>
<g id="clust5" class="cluster">
<title>cluster_navigation</title>
<path fill="#ffffff" stroke="#90a4ae" stroke-dasharray="5,2" d="M20,-368C20,-368 137.5,-368 137.5,-368 143.5,-368 149.5,-374 149.5,-380 149.5,-380 149.5,-491 149.5,-491 149.5,-497 143.5,-503 137.5,-503 137.5,-503 20,-503 20,-503 14,-503 8,-497 8,-491 8,-491 8,-380 8,-380 8,-374 14,-368 20,-368"/>
<text xml:space="preserve" text-anchor="middle" x="78.75" y="-481.9" font-family="Arial" font-size="18.00">Navigation</text>
</g>
<!-- Search -->
<g id="node1" class="node">
<title>Search</title>
<g id="a_node1"><a xlink:href="67_e5_unified_command_surface.svg" xlink:title="tools/e5.py search\nfaçade existante">
<path fill="#f5f5f5" stroke="#546e7a" d="M114.88,-313C114.88,-313 42.62,-313 42.62,-313 36.62,-313 30.62,-307 30.62,-301 30.62,-301 30.62,-289 30.62,-289 30.62,-283 36.62,-277 42.62,-277 42.62,-277 114.88,-277 114.88,-277 120.88,-277 126.88,-283 126.88,-289 126.88,-289 126.88,-301 126.88,-301 126.88,-307 120.88,-313 114.88,-313"/>
<text xml:space="preserve" text-anchor="middle" x="78.75" y="-297.5" font-family="Arial" font-size="10.00">tools/e5.py search</text>
<text xml:space="preserve" text-anchor="middle" x="78.75" y="-285.5" font-family="Arial" font-size="10.00">façade existante</text>
</a>
</g>
</g>
<!-- Args -->
<g id="node2" class="node">
<title>Args</title>
<path fill="#f5f5f5" stroke="#546e7a" d="M300,-323C300,-323 206,-323 206,-323 200,-323 194,-317 194,-311 194,-311 194,-279 194,-279 194,-273 200,-267 206,-267 206,-267 300,-267 300,-267 306,-267 312,-273 312,-279 312,-279 312,-311 312,-311 312,-317 306,-323 300,-323"/>
<text xml:space="preserve" text-anchor="middle" x="253" y="-309.5" font-family="Arial" font-size="10.00">&#45;&#45;context&#45;file</text>
<text xml:space="preserve" text-anchor="middle" x="253" y="-297.5" font-family="Arial" font-size="10.00">&#45;&#45;consumed&#45;context&#45;file</text>
<text xml:space="preserve" text-anchor="middle" x="253" y="-285.5" font-family="Arial" font-size="10.00">&#45;&#45;prompt&#45;file</text>
<text xml:space="preserve" text-anchor="middle" x="253" y="-273.5" font-family="Arial" font-size="10.00">&#45;&#45;context&#45;max&#45;*</text>
</g>
<!-- Search&#45;&gt;Args -->
<g id="edge1" class="edge">
<title>Search&#45;&gt;Args</title>
<path fill="none" stroke="#455a64" d="M127.27,-295C144.26,-295 163.78,-295 182.25,-295"/>
<polygon fill="#455a64" stroke="#455a64" points="182.07,-298.5 192.07,-295 182.07,-291.5 182.07,-298.5"/>
</g>
<!-- Command -->
<g id="node3" class="node">
<title>Command</title>
<path fill="#f5f5f5" stroke="#546e7a" d="M456.25,-303C456.25,-303 376.5,-303 376.5,-303 370.5,-303 364.5,-297 364.5,-291 364.5,-291 364.5,-279 364.5,-279 364.5,-273 370.5,-267 376.5,-267 376.5,-267 456.25,-267 456.25,-267 462.25,-267 468.25,-273 468.25,-279 468.25,-279 468.25,-291 468.25,-291 468.25,-297 462.25,-303 456.25,-303"/>
<text xml:space="preserve" text-anchor="middle" x="416.38" y="-287.5" font-family="Arial" font-size="10.00">E5SearchCommand</text>
<text xml:space="preserve" text-anchor="middle" x="416.38" y="-275.5" font-family="Arial" font-size="10.00">intent typée</text>
</g>
<!-- Args&#45;&gt;Command -->
<g id="edge2" class="edge">
<title>Args&#45;&gt;Command</title>
<path fill="none" stroke="#455a64" d="M312.26,-291.39C325.39,-290.58 339.38,-289.71 352.68,-288.89"/>
<polygon fill="#455a64" stroke="#455a64" points="352.87,-292.38 362.64,-288.27 352.44,-285.39 352.87,-292.38"/>
</g>
<!-- Report -->
<g id="node4" class="node">
<title>Report</title>
<g id="a_node4"><a xlink:href="65_e5_search_report_file.svg" xlink:title="E5SearchReport\nhits + source + excerpt">
<path fill="#f5f5f5" stroke="#546e7a" d="M609.5,-152C609.5,-152 516.25,-152 516.25,-152 510.25,-152 504.25,-146 504.25,-140 504.25,-140 504.25,-128 504.25,-128 504.25,-122 510.25,-116 516.25,-116 516.25,-116 609.5,-116 609.5,-116 615.5,-116 621.5,-122 621.5,-128 621.5,-128 621.5,-140 621.5,-140 621.5,-146 615.5,-152 609.5,-152"/>
<text xml:space="preserve" text-anchor="middle" x="562.88" y="-136.5" font-family="Arial" font-size="10.00">E5SearchReport</text>
<text xml:space="preserve" text-anchor="middle" x="562.88" y="-124.5" font-family="Arial" font-size="10.00">hits + source + excerpt</text>
</a>
</g>
</g>
<!-- Command&#45;&gt;Report -->
<g id="edge3" class="edge">
<title>Command&#45;&gt;Report</title>
<path fill="none" stroke="#455a64" d="M434.81,-266.79C460.19,-240.26 507.48,-190.84 536.67,-160.34"/>
<polygon fill="#455a64" stroke="#455a64" points="538.95,-163.02 543.34,-153.37 533.89,-158.18 538.95,-163.02"/>
</g>
<!-- Bundle -->
<g id="node5" class="node">
<title>Bundle</title>
<g id="a_node5"><a xlink:href="68_e5_context_bundle.svg" xlink:title="E5ContextBundle\ncontexte brut">
<path fill="#f5f5f5" stroke="#546e7a" d="M738,-152C738,-152 669.5,-152 669.5,-152 663.5,-152 657.5,-146 657.5,-140 657.5,-140 657.5,-128 657.5,-128 657.5,-122 663.5,-116 669.5,-116 669.5,-116 738,-116 738,-116 744,-116 750,-122 750,-128 750,-128 750,-140 750,-140 750,-146 744,-152 738,-152"/>
<text xml:space="preserve" text-anchor="middle" x="703.75" y="-136.5" font-family="Arial" font-size="10.00">E5ContextBundle</text>
<text xml:space="preserve" text-anchor="middle" x="703.75" y="-124.5" font-family="Arial" font-size="10.00">contexte brut</text>
</a>
</g>
</g>
<!-- Report&#45;&gt;Bundle -->
<g id="edge4" class="edge">
<title>Report&#45;&gt;Bundle</title>
<path fill="none" stroke="#455a64" d="M621.97,-134C629.86,-134 637.95,-134 645.82,-134"/>
<polygon fill="#455a64" stroke="#455a64" points="645.63,-137.5 655.63,-134 645.63,-130.5 645.63,-137.5"/>
</g>
<!-- ReportFile -->
<g id="node8" class="node">
<title>ReportFile</title>
<path fill="#f5f5f5" stroke="#546e7a" d="M1193.62,-290C1193.62,-290 1114.62,-290 1114.62,-290 1108.62,-290 1102.62,-284 1102.62,-278 1102.62,-278 1102.62,-266 1102.62,-266 1102.62,-260 1108.62,-254 1114.62,-254 1114.62,-254 1193.62,-254 1193.62,-254 1199.62,-254 1205.62,-260 1205.62,-266 1205.62,-266 1205.62,-278 1205.62,-278 1205.62,-284 1199.62,-290 1193.62,-290"/>
<text xml:space="preserve" text-anchor="middle" x="1154.12" y="-274.5" font-family="Arial" font-size="10.00">&#45;&#45;report&#45;file</text>
<text xml:space="preserve" text-anchor="middle" x="1154.12" y="-262.5" font-family="Arial" font-size="10.00">search report JSON</text>
</g>
<!-- Report&#45;&gt;ReportFile -->
<g id="edge7" class="edge">
<title>Report&#45;&gt;ReportFile</title>
<path fill="none" stroke="#455a64" d="M621.66,-151.26C633.48,-154.62 645.86,-158.02 657.5,-161 812.65,-200.71 997.11,-239.94 1091.21,-259.39"/>
<polygon fill="#455a64" stroke="#455a64" points="1090.24,-262.76 1100.74,-261.36 1091.66,-255.91 1090.24,-262.76"/>
</g>
<!-- Consumed -->
<g id="node6" class="node">
<title>Consumed</title>
<g id="a_node6"><a xlink:href="69_e5_context_consumer.svg" xlink:title="E5ConsumedContext\nbudget déterministe">
<path fill="#f5f5f5" stroke="#546e7a" d="M883.75,-152C883.75,-152 798,-152 798,-152 792,-152 786,-146 786,-140 786,-140 786,-128 786,-128 786,-122 792,-116 798,-116 798,-116 883.75,-116 883.75,-116 889.75,-116 895.75,-122 895.75,-128 895.75,-128 895.75,-140 895.75,-140 895.75,-146 889.75,-152 883.75,-152"/>
<text xml:space="preserve" text-anchor="middle" x="840.88" y="-136.5" font-family="Arial" font-size="10.00">E5ConsumedContext</text>
<text xml:space="preserve" text-anchor="middle" x="840.88" y="-124.5" font-family="Arial" font-size="10.00">budget déterministe</text>
</a>
</g>
</g>
<!-- Bundle&#45;&gt;Consumed -->
<g id="edge5" class="edge">
<title>Bundle&#45;&gt;Consumed</title>
<path fill="none" stroke="#455a64" d="M750.5,-134C758.2,-134 766.32,-134 774.41,-134"/>
<polygon fill="#455a64" stroke="#455a64" points="774.25,-137.5 784.25,-134 774.25,-130.5 774.25,-137.5"/>
</g>
<!-- ContextFile -->
<g id="node9" class="node">
<title>ContextFile</title>
<path fill="#f5f5f5" stroke="#546e7a" d="M1197,-236C1197,-236 1111.25,-236 1111.25,-236 1105.25,-236 1099.25,-230 1099.25,-224 1099.25,-224 1099.25,-212 1099.25,-212 1099.25,-206 1105.25,-200 1111.25,-200 1111.25,-200 1197,-200 1197,-200 1203,-200 1209,-206 1209,-212 1209,-212 1209,-224 1209,-224 1209,-230 1203,-236 1197,-236"/>
<text xml:space="preserve" text-anchor="middle" x="1154.12" y="-220.5" font-family="Arial" font-size="10.00">&#45;&#45;context&#45;file</text>
<text xml:space="preserve" text-anchor="middle" x="1154.12" y="-208.5" font-family="Arial" font-size="10.00">context bundle JSON</text>
</g>
<!-- Bundle&#45;&gt;ContextFile -->
<g id="edge8" class="edge">
<title>Bundle&#45;&gt;ContextFile</title>
<path fill="none" stroke="#455a64" d="M750.34,-150.63C761.87,-154.43 774.3,-158.17 786,-161 889.99,-186.16 1013.35,-202.65 1087.32,-211.14"/>
<polygon fill="#455a64" stroke="#455a64" points="1086.93,-214.61 1097.26,-212.26 1087.72,-207.66 1086.93,-214.61"/>
</g>
<!-- Prompt -->
<g id="node7" class="node">
<title>Prompt</title>
<g id="a_node7"><a xlink:href="70_e5_answer_prompt_packet.svg" xlink:title="E5AnswerPromptPacket\nprompt_text stable">
<path fill="#f5f5f5" stroke="#546e7a" d="M1043,-152C1043,-152 943.75,-152 943.75,-152 937.75,-152 931.75,-146 931.75,-140 931.75,-140 931.75,-128 931.75,-128 931.75,-122 937.75,-116 943.75,-116 943.75,-116 1043,-116 1043,-116 1049,-116 1055,-122 1055,-128 1055,-128 1055,-140 1055,-140 1055,-146 1049,-152 1043,-152"/>
<text xml:space="preserve" text-anchor="middle" x="993.38" y="-136.5" font-family="Arial" font-size="10.00">E5AnswerPromptPacket</text>
<text xml:space="preserve" text-anchor="middle" x="993.38" y="-124.5" font-family="Arial" font-size="10.00">prompt_text stable</text>
</a>
</g>
</g>
<!-- Consumed&#45;&gt;Prompt -->
<g id="edge6" class="edge">
<title>Consumed&#45;&gt;Prompt</title>
<path fill="none" stroke="#455a64" d="M896.21,-134C903.99,-134 912.1,-134 920.16,-134"/>
<polygon fill="#455a64" stroke="#455a64" points="919.97,-137.5 929.97,-134 919.97,-130.5 919.97,-137.5"/>
</g>
<!-- ConsumedFile -->
<g id="node10" class="node">
<title>ConsumedFile</title>
<path fill="#f5f5f5" stroke="#546e7a" d="M1205.25,-182C1205.25,-182 1103,-182 1103,-182 1097,-182 1091,-176 1091,-170 1091,-170 1091,-158 1091,-158 1091,-152 1097,-146 1103,-146 1103,-146 1205.25,-146 1205.25,-146 1211.25,-146 1217.25,-152 1217.25,-158 1217.25,-158 1217.25,-170 1217.25,-170 1217.25,-176 1211.25,-182 1205.25,-182"/>
<text xml:space="preserve" text-anchor="middle" x="1154.12" y="-166.5" font-family="Arial" font-size="10.00">&#45;&#45;consumed&#45;context&#45;file</text>
<text xml:space="preserve" text-anchor="middle" x="1154.12" y="-154.5" font-family="Arial" font-size="10.00">consumed context JSON</text>
</g>
<!-- Consumed&#45;&gt;ConsumedFile -->
<g id="edge9" class="edge">
<title>Consumed&#45;&gt;ConsumedFile</title>
<path fill="none" stroke="#455a64" d="M894.54,-152.48C906.62,-155.97 919.51,-159.12 931.75,-161 980.57,-168.51 1036.17,-169.24 1079.43,-168.1"/>
<polygon fill="#455a64" stroke="#455a64" points="1079.32,-171.6 1089.2,-167.8 1079.1,-164.61 1079.32,-171.6"/>
</g>
<!-- PromptFile -->
<g id="node11" class="node">
<title>PromptFile</title>
<path fill="#f5f5f5" stroke="#546e7a" d="M1196.25,-128C1196.25,-128 1112,-128 1112,-128 1106,-128 1100,-122 1100,-116 1100,-116 1100,-104 1100,-104 1100,-98 1106,-92 1112,-92 1112,-92 1196.25,-92 1196.25,-92 1202.25,-92 1208.25,-98 1208.25,-104 1208.25,-104 1208.25,-116 1208.25,-116 1208.25,-122 1202.25,-128 1196.25,-128"/>
<text xml:space="preserve" text-anchor="middle" x="1154.12" y="-112.5" font-family="Arial" font-size="10.00">&#45;&#45;prompt&#45;file</text>
<text xml:space="preserve" text-anchor="middle" x="1154.12" y="-100.5" font-family="Arial" font-size="10.00">prompt packet JSON</text>
</g>
<!-- Prompt&#45;&gt;PromptFile -->
<g id="edge10" class="edge">
<title>Prompt&#45;&gt;PromptFile</title>
<path fill="none" stroke="#455a64" d="M1055.3,-124.79C1066.14,-123.15 1077.46,-121.44 1088.4,-119.79"/>
<polygon fill="#455a64" stroke="#455a64" points="1088.76,-123.27 1098.13,-118.31 1087.71,-116.35 1088.76,-123.27"/>
</g>
<!-- ReportIO -->
<g id="node12" class="node">
<title>ReportIO</title>
<path fill="#f5f5f5" stroke="#546e7a" d="M1372,-182C1372,-182 1265.25,-182 1265.25,-182 1259.25,-182 1253.25,-176 1253.25,-170 1253.25,-170 1253.25,-158 1253.25,-158 1253.25,-152 1259.25,-146 1265.25,-146 1265.25,-146 1372,-146 1372,-146 1378,-146 1384,-152 1384,-158 1384,-158 1384,-170 1384,-170 1384,-176 1378,-182 1372,-182"/>
<text xml:space="preserve" text-anchor="middle" x="1318.62" y="-166.5" font-family="Arial" font-size="10.00">report_io.py</text>
<text xml:space="preserve" text-anchor="middle" x="1318.62" y="-154.5" font-family="Arial" font-size="10.00">write_json_report_atomic()</text>
</g>
<!-- ReportFile&#45;&gt;ReportIO -->
<g id="edge11" class="edge">
<title>ReportFile&#45;&gt;ReportIO</title>
<path fill="none" stroke="#455a64" d="M1201.3,-253.6C1206.79,-250.93 1212.22,-248.05 1217.25,-245 1243.49,-229.11 1270.4,-207.02 1289.74,-189.93"/>
<polygon fill="#455a64" stroke="#455a64" points="1291.83,-192.76 1296.94,-183.48 1287.15,-187.55 1291.83,-192.76"/>
</g>
<!-- ContextFile&#45;&gt;ReportIO -->
<g id="edge12" class="edge">
<title>ContextFile&#45;&gt;ReportIO</title>
<path fill="none" stroke="#455a64" d="M1209.24,-200.02C1222.77,-195.52 1237.45,-190.64 1251.49,-185.98"/>
<polygon fill="#455a64" stroke="#455a64" points="1252.26,-189.41 1260.65,-182.93 1250.06,-182.77 1252.26,-189.41"/>
</g>
<!-- ConsumedFile&#45;&gt;ReportIO -->
<g id="edge13" class="edge">
<title>ConsumedFile&#45;&gt;ReportIO</title>
<path fill="none" stroke="#455a64" d="M1217.49,-164C1225.4,-164 1233.56,-164 1241.65,-164"/>
<polygon fill="#455a64" stroke="#455a64" points="1241.49,-167.5 1251.49,-164 1241.49,-160.5 1241.49,-167.5"/>
</g>
<!-- PromptFile&#45;&gt;ReportIO -->
<g id="edge14" class="edge">
<title>PromptFile&#45;&gt;ReportIO</title>
<path fill="none" stroke="#455a64" d="M1208.33,-127.68C1222.05,-132.24 1236.99,-137.2 1251.29,-141.95"/>
<polygon fill="#455a64" stroke="#455a64" points="1250.03,-145.23 1260.63,-145.06 1252.24,-138.58 1250.03,-145.23"/>
</g>
<!-- NoDeps -->
<g id="node13" class="node">
<title>NoDeps</title>
<path fill="#f5f5f5" stroke="#546e7a" d="M316.5,-160C316.5,-160 189.5,-160 189.5,-160 183.5,-160 177.5,-154 177.5,-148 177.5,-148 177.5,-136 177.5,-136 177.5,-130 183.5,-124 189.5,-124 189.5,-124 316.5,-124 316.5,-124 322.5,-124 328.5,-130 328.5,-136 328.5,-136 328.5,-148 328.5,-148 328.5,-154 322.5,-160 316.5,-160"/>
<text xml:space="preserve" text-anchor="middle" x="253" y="-138.5" font-family="Arial" font-size="10.00">aucune dépendance hors stdlib</text>
</g>
<!-- NoDeps&#45;&gt;Command -->
<g id="edge15" class="edge">
<title>NoDeps&#45;&gt;Command</title>
<path fill="none" stroke="#455a64" stroke-dasharray="5,2" d="M322.46,-160.32C327.42,-162.86 332.16,-165.74 336.5,-169 366.95,-191.9 389.64,-230.14 402.68,-256.41"/>
<polygon fill="#455a64" stroke="#455a64" points="399.39,-257.64 406.86,-265.15 405.7,-254.62 399.39,-257.64"/>
</g>
<!-- NoLLM -->
<g id="node14" class="node">
<title>NoLLM</title>
<path fill="#f5f5f5" stroke="#546e7a" d="M295.12,-106C295.12,-106 210.88,-106 210.88,-106 204.88,-106 198.88,-100 198.88,-94 198.88,-94 198.88,-82 198.88,-82 198.88,-76 204.88,-70 210.88,-70 210.88,-70 295.12,-70 295.12,-70 301.12,-70 307.12,-76 307.12,-82 307.12,-82 307.12,-94 307.12,-94 307.12,-100 301.12,-106 295.12,-106"/>
<text xml:space="preserve" text-anchor="middle" x="253" y="-90.5" font-family="Arial" font-size="10.00">pas de LLM</text>
<text xml:space="preserve" text-anchor="middle" x="253" y="-78.5" font-family="Arial" font-size="10.00">pas d&#39;appel inférence</text>
</g>
<!-- NoLLM&#45;&gt;Prompt -->
<g id="edge16" class="edge">
<title>NoLLM&#45;&gt;Prompt</title>
<path fill="none" stroke="#455a64" stroke-dasharray="5,2" d="M307.39,-88C368.79,-88 472.61,-88 561.88,-88 561.88,-88 561.88,-88 704.75,-88 790.06,-88 811.91,-91.24 895.75,-107 904.18,-108.58 912.93,-110.56 921.58,-112.71"/>
<polygon fill="#455a64" stroke="#455a64" points="920.43,-116.03 930.98,-115.14 922.18,-109.25 920.43,-116.03"/>
</g>
<!-- Boundary -->
<g id="node15" class="node">
<title>Boundary</title>
<path fill="#f5f5f5" stroke="#546e7a" d="M312,-52C312,-52 194,-52 194,-52 188,-52 182,-46 182,-40 182,-40 182,-28 182,-28 182,-22 188,-16 194,-16 194,-16 312,-16 312,-16 318,-16 324,-22 324,-28 324,-28 324,-40 324,-40 324,-46 318,-52 312,-52"/>
<text xml:space="preserve" text-anchor="middle" x="253" y="-30.5" font-family="Arial" font-size="10.00">IO seulement en bordure CLI</text>
</g>
<!-- Boundary&#45;&gt;ReportIO -->
<g id="edge17" class="edge">
<title>Boundary&#45;&gt;ReportIO</title>
<path fill="none" stroke="#455a64" stroke-dasharray="5,2" d="M324.3,-36.87C386.69,-39.16 480.34,-42 561.88,-42 561.88,-42 561.88,-42 994.38,-42 1095.09,-42 1125.72,-40.97 1217.25,-83 1246.01,-96.21 1273.62,-119.53 1292.57,-137.76"/>
<polygon fill="#455a64" stroke="#455a64" points="1289.99,-140.13 1299.56,-144.66 1294.91,-135.15 1289.99,-140.13"/>
</g>
<!-- Policy -->
<g id="node16" class="node">
<title>Policy</title>
<path fill="#f5f5f5" stroke="#546e7a" d="M304.12,-214C304.12,-214 201.88,-214 201.88,-214 195.88,-214 189.88,-208 189.88,-202 189.88,-202 189.88,-190 189.88,-190 189.88,-184 195.88,-178 201.88,-178 201.88,-178 304.12,-178 304.12,-178 310.12,-178 316.12,-184 316.12,-190 316.12,-190 316.12,-202 316.12,-202 316.12,-208 310.12,-214 304.12,-214"/>
<text xml:space="preserve" text-anchor="middle" x="253" y="-198.5" font-family="Arial" font-size="10.00">Policy neutre</text>
<text xml:space="preserve" text-anchor="middle" x="253" y="-186.5" font-family="Arial" font-size="10.00">traduction CLI en bordure</text>
</g>
<!-- Policy&#45;&gt;Command -->
<g id="edge18" class="edge">
<title>Policy&#45;&gt;Command</title>
<path fill="none" stroke="#455a64" stroke-dasharray="5,2" d="M287.44,-214.44C312,-227.99 345.57,-246.5 372.16,-261.17"/>
<polygon fill="#455a64" stroke="#455a64" points="370.21,-264.09 380.66,-265.85 373.59,-257.96 370.21,-264.09"/>
</g>
<!-- Parent -->
<g id="node17" class="node">
<title>Parent</title>
<g id="a_node17"><a xlink:href="70_e5_answer_prompt_packet.svg" xlink:title="← answer prompt packet">
<path fill="#f5f5f5" stroke="none" d="M129.5,-412C129.5,-412 28,-412 28,-412 22,-412 16,-406 16,-400 16,-400 16,-388 16,-388 16,-382 22,-376 28,-376 28,-376 129.5,-376 129.5,-376 135.5,-376 141.5,-382 141.5,-388 141.5,-388 141.5,-400 141.5,-400 141.5,-406 135.5,-412 129.5,-412"/>
<text xml:space="preserve" text-anchor="middle" x="78.75" y="-390.5" font-family="Arial" font-size="10.00">← answer prompt packet</text>
</a>
</g>
</g>
<!-- Next -->
<g id="node18" class="node">
<title>Next</title>
<g id="a_node18"><a xlink:href="72_e5_dry_run_artifact_dir.svg" xlink:title="next: dry&#45;run artifact dir">
<path fill="#f5f5f5" stroke="none" d="M125.38,-466C125.38,-466 32.12,-466 32.12,-466 26.12,-466 20.13,-460 20.13,-454 20.13,-454 20.13,-442 20.13,-442 20.13,-436 26.13,-430 32.13,-430 32.13,-430 125.38,-430 125.38,-430 131.38,-430 137.38,-436 137.38,-442 137.38,-442 137.38,-454 137.38,-454 137.38,-460 131.38,-466 125.38,-466"/>
<text xml:space="preserve" text-anchor="middle" x="78.75" y="-444.5" font-family="Arial" font-size="10.00">next: dry&#45;run artifact dir</text>
</a>
</g>
</g>
</g>
</svg>
