<?xml version="1.0" encoding="UTF-8" standalone="no"?>
<!DOCTYPE svg PUBLIC "-//W3C//DTD SVG 1.1//EN"
 "http://www.w3.org/Graphics/SVG/1.1/DTD/svg11.dtd">
<!-- Generated by graphviz version 14.1.3 (20260303.0454)
 -->
<!-- Title: E5DryRunArtifactDir Pages: 1 -->
<svg width="892pt" height="590pt"
 viewBox="0.00 0.00 892.00 590.00" xmlns="http://www.w3.org/2000/svg" xmlns:xlink="http://www.w3.org/1999/xlink">
<g id="graph0" class="graph" transform="scale(1 1) rotate(0) translate(4 586)">
<title>E5DryRunArtifactDir</title>
<polygon fill="#ffffff" stroke="none" points="-4,4 -4,-586 887.75,-586 887.75,4 -4,4"/>
<text xml:space="preserve" text-anchor="middle" x="441.88" y="-560.9" font-family="Arial" font-size="18.00">Phase 4.18 — E5 dry&#45;run artifact directory</text>
<g id="clust1" class="cluster">
<title>cluster_cli</title>
<path fill="#e3f2fd" stroke="#bbdefb" d="M53,-267C53,-267 535.75,-267 535.75,-267 541.75,-267 547.75,-273 547.75,-279 547.75,-279 547.75,-390 547.75,-390 547.75,-396 541.75,-402 535.75,-402 535.75,-402 53,-402 53,-402 47,-402 41,-396 41,-390 41,-390 41,-279 41,-279 41,-273 47,-267 53,-267"/>
<text xml:space="preserve" text-anchor="middle" x="294.38" y="-380.9" font-family="Arial" font-size="18.00">CLI search</text>
</g>
<g id="clust2" class="cluster">
<title>cluster_outputs</title>
<path fill="#fff8e1" stroke="#ffe0b2" d="M580.75,-137C580.75,-137 863.75,-137 863.75,-137 869.75,-137 875.75,-143 875.75,-149 875.75,-149 875.75,-368 875.75,-368 875.75,-374 869.75,-380 863.75,-380 863.75,-380 580.75,-380 580.75,-380 574.75,-380 568.75,-374 568.75,-368 568.75,-368 568.75,-149 568.75,-149 568.75,-143 574.75,-137 580.75,-137"/>
<text xml:space="preserve" text-anchor="middle" x="722.25" y="-358.9" font-family="Arial" font-size="18.00">Artefacts par défaut</text>
</g>
<g id="clust3" class="cluster">
<title>cluster_rules</title>
<path fill="#ffffff" stroke="#b0bec5" stroke-dasharray="5,2" d="M219.25,-8C219.25,-8 362.25,-8 362.25,-8 368.25,-8 374.25,-14 374.25,-20 374.25,-20 374.25,-247 374.25,-247 374.25,-253 368.25,-259 362.25,-259 362.25,-259 219.25,-259 219.25,-259 213.25,-259 207.25,-253 207.25,-247 207.25,-247 207.25,-20 207.25,-20 207.25,-14 213.25,-8 219.25,-8"/>
<text xml:space="preserve" text-anchor="middle" x="290.75" y="-237.9" font-family="Arial" font-size="18.00">Règles</text>
</g>
<g id="clust4" class="cluster">
<title>cluster_navigation</title>
<path fill="#ffffff" stroke="#90a4ae" stroke-dasharray="5,2" d="M20,-410C20,-410 174.25,-410 174.25,-410 180.25,-410 186.25,-416 186.25,-422 186.25,-422 186.25,-533 186.25,-533 186.25,-539 180.25,-545 174.25,-545 174.25,-545 20,-545 20,-545 14,-545 8,-539 8,-533 8,-533 8,-422 8,-422 8,-416 14,-410 20,-410"/>
<text xml:space="preserve" text-anchor="middle" x="97.12" y="-523.9" font-family="Arial" font-size="18.00">Navigation</text>
</g>
<!-- Search -->
<g id="node1" class="node">
<title>Search</title>
<g id="a_node1"><a xlink:href="67_e5_unified_command_surface.svg" xlink:title="tools/e5.py search\nfaçade existante">
<path fill="#f5f5f5" stroke="#546e7a" d="M133.25,-338C133.25,-338 61,-338 61,-338 55,-338 49,-332 49,-326 49,-326 49,-314 49,-314 49,-308 55,-302 61,-302 61,-302 133.25,-302 133.25,-302 139.25,-302 145.25,-308 145.25,-314 145.25,-314 145.25,-326 145.25,-326 145.25,-332 139.25,-338 133.25,-338"/>
<text xml:space="preserve" text-anchor="middle" x="97.12" y="-322.5" font-family="Arial" font-size="10.00">tools/e5.py search</text>
<text xml:space="preserve" text-anchor="middle" x="97.12" y="-310.5" font-family="Arial" font-size="10.00">façade existante</text>
</a>
</g>
</g>
<!-- ArtifactDir -->
<g id="node2" class="node">
<title>ArtifactDir</title>
<path fill="#f5f5f5" stroke="#546e7a" d="M322,-311C322,-311 259.5,-311 259.5,-311 253.5,-311 247.5,-305 247.5,-299 247.5,-299 247.5,-287 247.5,-287 247.5,-281 253.5,-275 259.5,-275 259.5,-275 322,-275 322,-275 328,-275 334,-281 334,-287 334,-287 334,-299 334,-299 334,-305 328,-311 322,-311"/>
<text xml:space="preserve" text-anchor="middle" x="290.75" y="-295.5" font-family="Arial" font-size="10.00">&#45;&#45;artifact&#45;dir DIR</text>
<text xml:space="preserve" text-anchor="middle" x="290.75" y="-283.5" font-family="Arial" font-size="10.00">dry&#45;run local</text>
</g>
<!-- Search&#45;&gt;ArtifactDir -->
<g id="edge1" class="edge">
<title>Search&#45;&gt;ArtifactDir</title>
<path fill="none" stroke="#455a64" d="M145.49,-313.33C172.87,-309.47 207.4,-304.6 235.81,-300.6"/>
<polygon fill="#455a64" stroke="#455a64" points="236.26,-304.07 245.67,-299.21 235.28,-297.14 236.26,-304.07"/>
</g>
<!-- Explicit -->
<g id="node3" class="node">
<title>Explicit</title>
<path fill="#f5f5f5" stroke="#546e7a" d="M327.25,-365C327.25,-365 254.25,-365 254.25,-365 248.25,-365 242.25,-359 242.25,-353 242.25,-353 242.25,-341 242.25,-341 242.25,-335 248.25,-329 254.25,-329 254.25,-329 327.25,-329 327.25,-329 333.25,-329 339.25,-335 339.25,-341 339.25,-341 339.25,-353 339.25,-353 339.25,-359 333.25,-365 327.25,-365"/>
<text xml:space="preserve" text-anchor="middle" x="290.75" y="-349.5" font-family="Arial" font-size="10.00">chemins explicites</text>
<text xml:space="preserve" text-anchor="middle" x="290.75" y="-337.5" font-family="Arial" font-size="10.00">prioritaires</text>
</g>
<!-- Search&#45;&gt;Explicit -->
<g id="edge2" class="edge">
<title>Search&#45;&gt;Explicit</title>
<path fill="none" stroke="#455a64" d="M145.49,-326.67C171.19,-330.3 203.2,-334.81 230.53,-338.66"/>
<polygon fill="#455a64" stroke="#455a64" points="230.04,-342.12 240.43,-340.05 231.02,-335.19 230.04,-342.12"/>
</g>
<!-- Command -->
<g id="node4" class="node">
<title>Command</title>
<path fill="#f5f5f5" stroke="#546e7a" d="M527.75,-311C527.75,-311 448,-311 448,-311 442,-311 436,-305 436,-299 436,-299 436,-287 436,-287 436,-281 442,-275 448,-275 448,-275 527.75,-275 527.75,-275 533.75,-275 539.75,-281 539.75,-287 539.75,-287 539.75,-299 539.75,-299 539.75,-305 533.75,-311 527.75,-311"/>
<text xml:space="preserve" text-anchor="middle" x="487.88" y="-295.5" font-family="Arial" font-size="10.00">E5SearchCommand</text>
<text xml:space="preserve" text-anchor="middle" x="487.88" y="-283.5" font-family="Arial" font-size="10.00">artifacts policy</text>
</g>
<!-- ArtifactDir&#45;&gt;Command -->
<g id="edge3" class="edge">
<title>ArtifactDir&#45;&gt;Command</title>
<path fill="none" stroke="#455a64" d="M334.09,-293C360.41,-293 394.73,-293 424.17,-293"/>
<polygon fill="#455a64" stroke="#455a64" points="424.09,-296.5 434.09,-293 424.09,-289.5 424.09,-296.5"/>
</g>
<!-- Explicit&#45;&gt;Command -->
<g id="edge4" class="edge">
<title>Explicit&#45;&gt;Command</title>
<path fill="none" stroke="#455a64" d="M339.73,-333.72C365.32,-326.64 397.1,-317.84 424.58,-310.24"/>
<polygon fill="#455a64" stroke="#455a64" points="425.5,-313.62 434.2,-307.58 423.63,-306.87 425.5,-313.62"/>
<text xml:space="preserve" text-anchor="middle" x="401.12" y="-321.95" font-family="Arial" font-size="9.00">override</text>
</g>
<!-- Report -->
<g id="node5" class="node">
<title>Report</title>
<path fill="#f5f5f5" stroke="#546e7a" d="M670.38,-181C670.38,-181 606.38,-181 606.38,-181 600.38,-181 594.38,-175 594.38,-169 594.38,-169 594.38,-157 594.38,-157 594.38,-151 600.38,-145 606.38,-145 606.38,-145 670.38,-145 670.38,-145 676.38,-145 682.38,-151 682.38,-157 682.38,-157 682.38,-169 682.38,-169 682.38,-175 676.38,-181 670.38,-181"/>
<text xml:space="preserve" text-anchor="middle" x="638.38" y="-165.5" font-family="Arial" font-size="10.00">report.json</text>
<text xml:space="preserve" text-anchor="middle" x="638.38" y="-153.5" font-family="Arial" font-size="10.00">E5SearchReport</text>
</g>
<!-- Command&#45;&gt;Report -->
<g id="edge5" class="edge">
<title>Command&#45;&gt;Report</title>
<path fill="none" stroke="#455a64" d="M498.97,-274.55C512.25,-251.81 537.6,-213.34 568.75,-190 573.37,-186.54 578.49,-183.46 583.8,-180.73"/>
<polygon fill="#455a64" stroke="#455a64" points="585.17,-183.95 592.76,-176.56 582.22,-177.61 585.17,-183.95"/>
</g>
<!-- Context -->
<g id="node6" class="node">
<title>Context</title>
<g id="a_node6"><a xlink:href="68_e5_context_bundle.svg" xlink:title="context.json\nE5ContextBundle">
<path fill="#f5f5f5" stroke="#546e7a" d="M672.62,-343C672.62,-343 604.12,-343 604.12,-343 598.12,-343 592.12,-337 592.12,-331 592.12,-331 592.12,-319 592.12,-319 592.12,-313 598.12,-307 604.12,-307 604.12,-307 672.62,-307 672.62,-307 678.62,-307 684.62,-313 684.62,-319 684.62,-319 684.62,-331 684.62,-331 684.62,-337 678.62,-343 672.62,-343"/>
<text xml:space="preserve" text-anchor="middle" x="638.38" y="-327.5" font-family="Arial" font-size="10.00">context.json</text>
<text xml:space="preserve" text-anchor="middle" x="638.38" y="-315.5" font-family="Arial" font-size="10.00">E5ContextBundle</text>
</a>
</g>
</g>
<!-- Command&#45;&gt;Context -->
<g id="edge6" class="edge">
<title>Command&#45;&gt;Context</title>
<path fill="none" stroke="#455a64" d="M539.98,-304.01C553.09,-306.84 567.27,-309.89 580.64,-312.77"/>
<polygon fill="#455a64" stroke="#455a64" points="579.65,-316.14 590.17,-314.83 581.13,-309.3 579.65,-316.14"/>
</g>
<!-- Consumed -->
<g id="node7" class="node">
<title>Consumed</title>
<g id="a_node7"><a xlink:href="69_e5_context_consumer.svg" xlink:title="consumed_context.json\nE5ConsumedContext">
<path fill="#f5f5f5" stroke="#546e7a" d="M686.12,-289C686.12,-289 590.62,-289 590.62,-289 584.62,-289 578.62,-283 578.62,-277 578.62,-277 578.62,-265 578.62,-265 578.62,-259 584.62,-253 590.62,-253 590.62,-253 686.12,-253 686.12,-253 692.12,-253 698.12,-259 698.12,-265 698.12,-265 698.12,-277 698.12,-277 698.12,-283 692.12,-289 686.12,-289"/>
<text xml:space="preserve" text-anchor="middle" x="638.38" y="-273.5" font-family="Arial" font-size="10.00">consumed_context.json</text>
<text xml:space="preserve" text-anchor="middle" x="638.38" y="-261.5" font-family="Arial" font-size="10.00">E5ConsumedContext</text>
</a>
</g>
</g>
<!-- Command&#45;&gt;Consumed -->
<g id="edge7" class="edge">
<title>Command&#45;&gt;Consumed</title>
<path fill="none" stroke="#455a64" d="M539.98,-285.43C548.75,-284.13 557.99,-282.76 567.16,-281.4"/>
<polygon fill="#455a64" stroke="#455a64" points="567.38,-284.91 576.76,-279.98 566.36,-277.98 567.38,-284.91"/>
</g>
<!-- Prompt -->
<g id="node8" class="node">
<title>Prompt</title>
<g id="a_node8"><a xlink:href="70_e5_answer_prompt_packet.svg" xlink:title="prompt.json\nE5AnswerPromptPacket">
<path fill="#f5f5f5" stroke="#546e7a" d="M688,-235C688,-235 588.75,-235 588.75,-235 582.75,-235 576.75,-229 576.75,-223 576.75,-223 576.75,-211 576.75,-211 576.75,-205 582.75,-199 588.75,-199 588.75,-199 688,-199 688,-199 694,-199 700,-205 700,-211 700,-211 700,-223 700,-223 700,-229 694,-235 688,-235"/>
<text xml:space="preserve" text-anchor="middle" x="638.38" y="-219.5" font-family="Arial" font-size="10.00">prompt.json</text>
<text xml:space="preserve" text-anchor="middle" x="638.38" y="-207.5" font-family="Arial" font-size="10.00">E5AnswerPromptPacket</text>
</a>
</g>
</g>
<!-- Command&#45;&gt;Prompt -->
<g id="edge8" class="edge">
<title>Command&#45;&gt;Prompt</title>
<path fill="none" stroke="#455a64" d="M516.28,-274.53C531.39,-264.78 550.7,-253 568.75,-244 571.45,-242.65 574.23,-241.33 577.06,-240.03"/>
<polygon fill="#455a64" stroke="#455a64" points="578.32,-243.3 586.06,-236.06 575.5,-236.89 578.32,-243.3"/>
</g>
<!-- ReportIO -->
<g id="node9" class="node">
<title>ReportIO</title>
<path fill="#f5f5f5" stroke="#546e7a" d="M855.75,-235C855.75,-235 749,-235 749,-235 743,-235 737,-229 737,-223 737,-223 737,-211 737,-211 737,-205 743,-199 749,-199 749,-199 855.75,-199 855.75,-199 861.75,-199 867.75,-205 867.75,-211 867.75,-211 867.75,-223 867.75,-223 867.75,-229 861.75,-235 855.75,-235"/>
<text xml:space="preserve" text-anchor="middle" x="802.38" y="-219.5" font-family="Arial" font-size="10.00">report_io.py</text>
<text xml:space="preserve" text-anchor="middle" x="802.38" y="-207.5" font-family="Arial" font-size="10.00">write_json_report_atomic()</text>
</g>
<!-- Report&#45;&gt;ReportIO -->
<g id="edge9" class="edge">
<title>Report&#45;&gt;ReportIO</title>
<path fill="none" stroke="#455a64" d="M682.79,-177.47C698.85,-182.83 717.46,-189.03 735.09,-194.91"/>
<polygon fill="#455a64" stroke="#455a64" points="733.89,-198.19 744.48,-198.04 736.1,-191.55 733.89,-198.19"/>
</g>
<!-- Context&#45;&gt;ReportIO -->
<g id="edge10" class="edge">
<title>Context&#45;&gt;ReportIO</title>
<path fill="none" stroke="#455a64" d="M684.4,-306.5C689.77,-303.85 695.08,-300.99 700,-298 726.37,-281.96 753.55,-259.88 773.12,-242.83"/>
<polygon fill="#455a64" stroke="#455a64" points="775.24,-245.63 780.42,-236.39 770.6,-240.39 775.24,-245.63"/>
</g>
<!-- Consumed&#45;&gt;ReportIO -->
<g id="edge11" class="edge">
<title>Consumed&#45;&gt;ReportIO</title>
<path fill="none" stroke="#455a64" d="M694.67,-252.57C707.76,-248.2 721.85,-243.51 735.37,-239"/>
<polygon fill="#455a64" stroke="#455a64" points="736.24,-242.4 744.62,-235.92 734.02,-235.76 736.24,-242.4"/>
</g>
<!-- Prompt&#45;&gt;ReportIO -->
<g id="edge12" class="edge">
<title>Prompt&#45;&gt;ReportIO</title>
<path fill="none" stroke="#455a64" d="M700.16,-217C708.37,-217 716.87,-217 725.31,-217"/>
<polygon fill="#455a64" stroke="#455a64" points="725.22,-220.5 735.22,-217 725.22,-213.5 725.22,-220.5"/>
</g>
<!-- NoDeps -->
<g id="node10" class="node">
<title>NoDeps</title>
<path fill="#f5f5f5" stroke="#546e7a" d="M354.25,-222C354.25,-222 227.25,-222 227.25,-222 221.25,-222 215.25,-216 215.25,-210 215.25,-210 215.25,-198 215.25,-198 215.25,-192 221.25,-186 227.25,-186 227.25,-186 354.25,-186 354.25,-186 360.25,-186 366.25,-192 366.25,-198 366.25,-198 366.25,-210 366.25,-210 366.25,-216 360.25,-222 354.25,-222"/>
<text xml:space="preserve" text-anchor="middle" x="290.75" y="-200.5" font-family="Arial" font-size="10.00">aucune dépendance hors stdlib</text>
</g>
<!-- NoDeps&#45;&gt;Command -->
<g id="edge13" class="edge">
<title>NoDeps&#45;&gt;Command</title>
<path fill="none" stroke="#455a64" stroke-dasharray="5,2" d="M332.18,-222.44C362.4,-236.22 403.91,-255.16 436.32,-269.94"/>
<polygon fill="#455a64" stroke="#455a64" points="434.57,-272.99 445.12,-273.95 437.47,-266.62 434.57,-272.99"/>
</g>
<!-- NoLLM -->
<g id="node11" class="node">
<title>NoLLM</title>
<path fill="#f5f5f5" stroke="#546e7a" d="M324.62,-168C324.62,-168 256.88,-168 256.88,-168 250.88,-168 244.88,-162 244.88,-156 244.88,-156 244.88,-136 244.88,-136 244.88,-130 250.88,-124 256.88,-124 256.88,-124 324.62,-124 324.62,-124 330.62,-124 336.62,-130 336.62,-136 336.62,-136 336.62,-156 336.62,-156 336.62,-162 330.62,-168 324.62,-168"/>
<text xml:space="preserve" text-anchor="middle" x="290.75" y="-154.5" font-family="Arial" font-size="10.00">pas de LLM</text>
<text xml:space="preserve" text-anchor="middle" x="290.75" y="-142.5" font-family="Arial" font-size="10.00">pas de Scheduler</text>
<text xml:space="preserve" text-anchor="middle" x="290.75" y="-130.5" font-family="Arial" font-size="10.00">pas de Qdrant</text>
</g>
<!-- NoLLM&#45;&gt;Command -->
<g id="edge14" class="edge">
<title>NoLLM&#45;&gt;Command</title>
<path fill="none" stroke="#455a64" stroke-dasharray="5,2" d="M336.73,-158.84C349.42,-163.52 362.86,-169.54 374.25,-177 411.48,-201.38 445.79,-240.05 466.52,-265.96"/>
<polygon fill="#455a64" stroke="#455a64" points="463.66,-267.99 472.59,-273.69 469.16,-263.66 463.66,-267.99"/>
</g>
<!-- Boundary -->
<g id="node12" class="node">
<title>Boundary</title>
<path fill="#f5f5f5" stroke="#546e7a" d="M343.38,-52C343.38,-52 238.12,-52 238.12,-52 232.12,-52 226.12,-46 226.12,-40 226.12,-40 226.12,-28 226.12,-28 226.12,-22 232.12,-16 238.12,-16 238.12,-16 343.38,-16 343.38,-16 349.38,-16 355.38,-22 355.38,-28 355.38,-28 355.38,-40 355.38,-40 355.38,-46 349.38,-52 343.38,-52"/>
<text xml:space="preserve" text-anchor="middle" x="290.75" y="-36.5" font-family="Arial" font-size="10.00">création dossier + écriture</text>
<text xml:space="preserve" text-anchor="middle" x="290.75" y="-24.5" font-family="Arial" font-size="10.00">uniquement bordure CLI</text>
</g>
<!-- Boundary&#45;&gt;ReportIO -->
<g id="edge15" class="edge">
<title>Boundary&#45;&gt;ReportIO</title>
<path fill="none" stroke="#455a64" stroke-dasharray="5,2" d="M355.87,-41.39C438.84,-52.84 586.23,-79.71 700,-136 728.37,-150.04 756.13,-173.06 775.41,-190.98"/>
<polygon fill="#455a64" stroke="#455a64" points="772.88,-193.41 782.54,-197.76 777.7,-188.34 772.88,-193.41"/>
</g>
<!-- Stable -->
<g id="node13" class="node">
<title>Stable</title>
<path fill="#f5f5f5" stroke="#546e7a" d="M316,-106C316,-106 265.5,-106 265.5,-106 259.5,-106 253.5,-100 253.5,-94 253.5,-94 253.5,-82 253.5,-82 253.5,-76 259.5,-70 265.5,-70 265.5,-70 316,-70 316,-70 322,-70 328,-76 328,-82 328,-82 328,-94 328,-94 328,-100 322,-106 316,-106"/>
<text xml:space="preserve" text-anchor="middle" x="290.75" y="-90.5" font-family="Arial" font-size="10.00">noms stables</text>
<text xml:space="preserve" text-anchor="middle" x="290.75" y="-78.5" font-family="Arial" font-size="10.00">JSON stable</text>
</g>
<!-- Stable&#45;&gt;Report -->
<g id="edge16" class="edge">
<title>Stable&#45;&gt;Report</title>
<path fill="none" stroke="#455a64" stroke-dasharray="5,2" d="M328.41,-95.96C389.43,-109.2 512.11,-135.82 583.15,-151.23"/>
<polygon fill="#455a64" stroke="#455a64" points="582.1,-154.59 592.62,-153.29 583.59,-147.75 582.1,-154.59"/>
</g>
<!-- Parent -->
<g id="node14" class="node">
<title>Parent</title>
<g id="a_node14"><a xlink:href="71_e5_prompt_file_cli.svg" xlink:title="← prompt file CLI">
<path fill="#f5f5f5" stroke="none" d="M131.75,-454C131.75,-454 62.5,-454 62.5,-454 56.5,-454 50.5,-448 50.5,-442 50.5,-442 50.5,-430 50.5,-430 50.5,-424 56.5,-418 62.5,-418 62.5,-418 131.75,-418 131.75,-418 137.75,-418 143.75,-424 143.75,-430 143.75,-430 143.75,-442 143.75,-442 143.75,-448 137.75,-454 131.75,-454"/>
<text xml:space="preserve" text-anchor="middle" x="97.12" y="-432.5" font-family="Arial" font-size="10.00">← prompt file CLI</text>
</a>
</g>
</g>
<!-- Next -->
<g id="node15" class="node">
<title>Next</title>
<g id="a_node15"><a xlink:href="../integrations/90_github_project_orchestrator.svg" xlink:title="next: GitHub Project Orchestrator">
<path fill="#f5f5f5" stroke="none" d="M166.25,-508C166.25,-508 28,-508 28,-508 22,-508 16,-502 16,-496 16,-496 16,-484 16,-484 16,-478 22,-472 28,-472 28,-472 166.25,-472 166.25,-472 172.25,-472 178.25,-478 178.25,-484 178.25,-484 178.25,-496 178.25,-496 178.25,-502 172.25,-508 166.25,-508"/>
<text xml:space="preserve" text-anchor="middle" x="97.12" y="-486.5" font-family="Arial" font-size="10.00">next: GitHub Project Orchestrator</text>
</a>
</g>
</g>
</g>
</svg>
