<?xml version="1.0" encoding="UTF-8" standalone="no"?>
<!DOCTYPE svg PUBLIC "-//W3C//DTD SVG 1.1//EN"
 "http://www.w3.org/Graphics/SVG/1.1/DTD/svg11.dtd">
<!-- Generated by graphviz version 14.1.3 (20260303.0454)
 -->
<!-- Title: E5Phase4FinalAudit Pages: 1 -->
<svg width="1630pt" height="655pt"
 viewBox="0.00 0.00 1630.00 655.00" xmlns="http://www.w3.org/2000/svg" xmlns:xlink="http://www.w3.org/1999/xlink">
<g id="graph0" class="graph" transform="scale(1 1) rotate(0) translate(4 651)">
<title>E5Phase4FinalAudit</title>
<polygon fill="#ffffff" stroke="none" points="-4,4 -4,-651 1625.75,-651 1625.75,4 -4,4"/>
<text xml:space="preserve" text-anchor="middle" x="810.88" y="-625.9" font-family="Arial" font-size="18.00">Phase 4.19 — E5 Phase 4 final audit</text>
<g id="clust1" class="cluster">
<title>cluster_engine</title>
<path fill="#e3f2fd" stroke="#bbdefb" d="M222.25,-70C222.25,-70 810.5,-70 810.5,-70 816.5,-70 822.5,-76 822.5,-82 822.5,-82 822.5,-139 822.5,-139 822.5,-145 816.5,-151 810.5,-151 810.5,-151 222.25,-151 222.25,-151 216.25,-151 210.25,-145 210.25,-139 210.25,-139 210.25,-82 210.25,-82 210.25,-76 216.25,-70 222.25,-70"/>
<text xml:space="preserve" text-anchor="middle" x="516.38" y="-129.9" font-family="Arial" font-size="18.00">Moteur local E5 clôturé</text>
</g>
<g id="clust2" class="cluster">
<title>cluster_context</title>
<path fill="#fff8e1" stroke="#ffe0b2" d="M855.5,-124C855.5,-124 1385.5,-124 1385.5,-124 1391.5,-124 1397.5,-130 1397.5,-136 1397.5,-136 1397.5,-193 1397.5,-193 1397.5,-199 1391.5,-205 1385.5,-205 1385.5,-205 855.5,-205 855.5,-205 849.5,-205 843.5,-199 843.5,-193 843.5,-193 843.5,-136 843.5,-136 843.5,-130 849.5,-124 855.5,-124"/>
<text xml:space="preserve" text-anchor="middle" x="1120.5" y="-183.9" font-family="Arial" font-size="18.00">Chaîne contexte &#45;&gt; prompt</text>
</g>
<g id="clust3" class="cluster">
<title>cluster_boundaries</title>
<path fill="#e8f5e9" stroke="#c8e6c9" d="M12,-8C12,-8 177.25,-8 177.25,-8 183.25,-8 189.25,-14 189.25,-20 189.25,-20 189.25,-347 189.25,-347 189.25,-353 183.25,-359 177.25,-359 177.25,-359 12,-359 12,-359 6,-359 0,-353 0,-347 0,-347 0,-20 0,-20 0,-14 6,-8 12,-8"/>
<text xml:space="preserve" text-anchor="middle" x="94.62" y="-337.9" font-family="Arial" font-size="18.00">Frontières préservées</text>
</g>
<g id="clust4" class="cluster">
<title>cluster_future</title>
<path fill="#ffffff" stroke="#b0bec5" stroke-dasharray="5,2" d="M1131.75,-312C1131.75,-312 1601.75,-312 1601.75,-312 1607.75,-312 1613.75,-318 1613.75,-324 1613.75,-324 1613.75,-381 1613.75,-381 1613.75,-387 1607.75,-393 1601.75,-393 1601.75,-393 1131.75,-393 1131.75,-393 1125.75,-393 1119.75,-387 1119.75,-381 1119.75,-381 1119.75,-324 1119.75,-324 1119.75,-318 1125.75,-312 1131.75,-312"/>
<text xml:space="preserve" text-anchor="middle" x="1366.75" y="-371.9" font-family="Arial" font-size="18.00">Passage vers phases futures</text>
</g>
<g id="clust5" class="cluster">
<title>cluster_navigation</title>
<path fill="#ffffff" stroke="#90a4ae" stroke-dasharray="5,2" d="M25.25,-367C25.25,-367 163,-367 163,-367 169,-367 175,-373 175,-379 175,-379 175,-598 175,-598 175,-604 169,-610 163,-610 163,-610 25.25,-610 25.25,-610 19.25,-610 13.25,-604 13.25,-598 13.25,-598 13.25,-379 13.25,-379 13.25,-373 19.25,-367 25.25,-367"/>
<text xml:space="preserve" text-anchor="middle" x="94.12" y="-588.9" font-family="Arial" font-size="18.00">Navigation</text>
</g>
<!-- Corpus -->
<g id="node1" class="node">
<title>Corpus</title>
<path fill="#f5f5f5" stroke="#546e7a" d="M314.5,-114C314.5,-114 230.25,-114 230.25,-114 224.25,-114 218.25,-108 218.25,-102 218.25,-102 218.25,-90 218.25,-90 218.25,-84 224.25,-78 230.25,-78 230.25,-78 314.5,-78 314.5,-78 320.5,-78 326.5,-84 326.5,-90 326.5,-90 326.5,-102 326.5,-102 326.5,-108 320.5,-114 314.5,-114"/>
<text xml:space="preserve" text-anchor="middle" x="272.38" y="-98.5" font-family="Arial" font-size="10.00">corpus JSON</text>
<text xml:space="preserve" text-anchor="middle" x="272.38" y="-86.5" font-family="Arial" font-size="10.00">missipy.e5.corpus.v1</text>
</g>
<!-- Build -->
<g id="node2" class="node">
<title>Build</title>
<path fill="#f5f5f5" stroke="#546e7a" d="M432,-114C432,-114 375.5,-114 375.5,-114 369.5,-114 363.5,-108 363.5,-102 363.5,-102 363.5,-90 363.5,-90 363.5,-84 369.5,-78 375.5,-78 375.5,-78 432,-78 432,-78 438,-78 444,-84 444,-90 444,-90 444,-102 444,-102 444,-108 438,-114 432,-114"/>
<text xml:space="preserve" text-anchor="middle" x="403.75" y="-98.5" font-family="Arial" font-size="10.00">build / rebuild</text>
<text xml:space="preserve" text-anchor="middle" x="403.75" y="-86.5" font-family="Arial" font-size="10.00">safe promotion</text>
</g>
<!-- Corpus&#45;&gt;Build -->
<g id="edge1" class="edge">
<title>Corpus&#45;&gt;Build</title>
<path fill="none" stroke="#455a64" d="M326.74,-96C335.07,-96 343.65,-96 351.92,-96"/>
<polygon fill="#455a64" stroke="#455a64" points="351.83,-99.5 361.83,-96 351.83,-92.5 351.83,-99.5"/>
</g>
<!-- Inspect -->
<g id="node3" class="node">
<title>Inspect</title>
<path fill="#f5f5f5" stroke="#546e7a" d="M559.25,-114C559.25,-114 493,-114 493,-114 487,-114 481,-108 481,-102 481,-102 481,-90 481,-90 481,-84 487,-78 493,-78 493,-78 559.25,-78 559.25,-78 565.25,-78 571.25,-84 571.25,-90 571.25,-90 571.25,-102 571.25,-102 571.25,-108 565.25,-114 559.25,-114"/>
<text xml:space="preserve" text-anchor="middle" x="526.12" y="-98.5" font-family="Arial" font-size="10.00">diagnostics</text>
<text xml:space="preserve" text-anchor="middle" x="526.12" y="-86.5" font-family="Arial" font-size="10.00">gates / validation</text>
</g>
<!-- Build&#45;&gt;Inspect -->
<g id="edge2" class="edge">
<title>Build&#45;&gt;Inspect</title>
<path fill="none" stroke="#455a64" d="M444.5,-96C452.5,-96 461.05,-96 469.48,-96"/>
<polygon fill="#455a64" stroke="#455a64" points="469.33,-99.5 479.33,-96 469.33,-92.5 469.33,-99.5"/>
</g>
<!-- Search -->
<g id="node4" class="node">
<title>Search</title>
<path fill="#f5f5f5" stroke="#546e7a" d="M677.5,-114C677.5,-114 620.25,-114 620.25,-114 614.25,-114 608.25,-108 608.25,-102 608.25,-102 608.25,-90 608.25,-90 608.25,-84 614.25,-78 620.25,-78 620.25,-78 677.5,-78 677.5,-78 683.5,-78 689.5,-84 689.5,-90 689.5,-90 689.5,-102 689.5,-102 689.5,-108 683.5,-114 677.5,-114"/>
<text xml:space="preserve" text-anchor="middle" x="648.88" y="-98.5" font-family="Arial" font-size="10.00">search local</text>
<text xml:space="preserve" text-anchor="middle" x="648.88" y="-86.5" font-family="Arial" font-size="10.00">score + source</text>
</g>
<!-- Inspect&#45;&gt;Search -->
<g id="edge3" class="edge">
<title>Inspect&#45;&gt;Search</title>
<path fill="none" stroke="#455a64" d="M571.74,-96C579.78,-96 588.22,-96 596.43,-96"/>
<polygon fill="#455a64" stroke="#455a64" points="596.31,-99.5 606.31,-96 596.31,-92.5 596.31,-99.5"/>
</g>
<!-- Report -->
<g id="node5" class="node">
<title>Report</title>
<path fill="#f5f5f5" stroke="#546e7a" d="M802.5,-114C802.5,-114 738.5,-114 738.5,-114 732.5,-114 726.5,-108 726.5,-102 726.5,-102 726.5,-90 726.5,-90 726.5,-84 732.5,-78 738.5,-78 738.5,-78 802.5,-78 802.5,-78 808.5,-78 814.5,-84 814.5,-90 814.5,-90 814.5,-102 814.5,-102 814.5,-108 808.5,-114 802.5,-114"/>
<text xml:space="preserve" text-anchor="middle" x="770.5" y="-98.5" font-family="Arial" font-size="10.00">E5SearchReport</text>
<text xml:space="preserve" text-anchor="middle" x="770.5" y="-86.5" font-family="Arial" font-size="10.00">report.json</text>
</g>
<!-- Search&#45;&gt;Report -->
<g id="edge4" class="edge">
<title>Search&#45;&gt;Report</title>
<path fill="none" stroke="#455a64" d="M689.71,-96C697.75,-96 706.33,-96 714.77,-96"/>
<polygon fill="#455a64" stroke="#455a64" points="714.62,-99.5 724.62,-96 714.62,-92.5 714.62,-99.5"/>
</g>
<!-- Bundle -->
<g id="node6" class="node">
<title>Bundle</title>
<g id="a_node6"><a xlink:href="68_e5_context_bundle.svg" xlink:title="E5ContextBundle">
<path fill="#f5f5f5" stroke="#546e7a" d="M932,-168C932,-168 863.5,-168 863.5,-168 857.5,-168 851.5,-162 851.5,-156 851.5,-156 851.5,-144 851.5,-144 851.5,-138 857.5,-132 863.5,-132 863.5,-132 932,-132 932,-132 938,-132 944,-138 944,-144 944,-144 944,-156 944,-156 944,-162 938,-168 932,-168"/>
<text xml:space="preserve" text-anchor="middle" x="897.75" y="-146.5" font-family="Arial" font-size="10.00">E5ContextBundle</text>
</a>
</g>
</g>
<!-- Report&#45;&gt;Bundle -->
<g id="edge5" class="edge">
<title>Report&#45;&gt;Bundle</title>
<path fill="none" stroke="#455a64" d="M814.25,-114.43C823.73,-118.52 833.87,-122.89 843.7,-127.13"/>
<polygon fill="#455a64" stroke="#455a64" points="842.23,-130.31 852.8,-131.05 845,-123.88 842.23,-130.31"/>
</g>
<!-- Consumed -->
<g id="node7" class="node">
<title>Consumed</title>
<g id="a_node7"><a xlink:href="69_e5_context_consumer.svg" xlink:title="E5ConsumedContext">
<path fill="#f5f5f5" stroke="#546e7a" d="M1078.75,-168C1078.75,-168 993,-168 993,-168 987,-168 981,-162 981,-156 981,-156 981,-144 981,-144 981,-138 987,-132 993,-132 993,-132 1078.75,-132 1078.75,-132 1084.75,-132 1090.75,-138 1090.75,-144 1090.75,-144 1090.75,-156 1090.75,-156 1090.75,-162 1084.75,-168 1078.75,-168"/>
<text xml:space="preserve" text-anchor="middle" x="1035.88" y="-146.5" font-family="Arial" font-size="10.00">E5ConsumedContext</text>
</a>
</g>
</g>
<!-- Bundle&#45;&gt;Consumed -->
<g id="edge6" class="edge">
<title>Bundle&#45;&gt;Consumed</title>
<path fill="none" stroke="#455a64" d="M944.46,-150C952.42,-150 960.85,-150 969.22,-150"/>
<polygon fill="#455a64" stroke="#455a64" points="969.05,-153.5 979.05,-150 969.05,-146.5 969.05,-153.5"/>
</g>
<!-- Prompt -->
<g id="node8" class="node">
<title>Prompt</title>
<g id="a_node8"><a xlink:href="70_e5_answer_prompt_packet.svg" xlink:title="E5AnswerPromptPacket">
<path fill="#f5f5f5" stroke="#546e7a" d="M1246.12,-168C1246.12,-168 1146.88,-168 1146.88,-168 1140.88,-168 1134.88,-162 1134.88,-156 1134.88,-156 1134.88,-144 1134.88,-144 1134.88,-138 1140.88,-132 1146.88,-132 1146.88,-132 1246.12,-132 1246.12,-132 1252.12,-132 1258.12,-138 1258.12,-144 1258.12,-144 1258.12,-156 1258.12,-156 1258.12,-162 1252.12,-168 1246.12,-168"/>
<text xml:space="preserve" text-anchor="middle" x="1196.5" y="-146.5" font-family="Arial" font-size="10.00">E5AnswerPromptPacket</text>
</a>
</g>
</g>
<!-- Consumed&#45;&gt;Prompt -->
<g id="edge7" class="edge">
<title>Consumed&#45;&gt;Prompt</title>
<path fill="none" stroke="#455a64" d="M1091.02,-150C1101.41,-150 1112.45,-150 1123.3,-150"/>
<polygon fill="#455a64" stroke="#455a64" points="1123,-153.5 1133,-150 1123,-146.5 1123,-153.5"/>
</g>
<!-- ArtifactDir -->
<g id="node9" class="node">
<title>ArtifactDir</title>
<g id="a_node9"><a xlink:href="72_e5_dry_run_artifact_dir.svg" xlink:title="&#45;&#45;artifact&#45;dir\ndry&#45;run complet">
<path fill="#f5f5f5" stroke="#546e7a" d="M1377.5,-168C1377.5,-168 1318,-168 1318,-168 1312,-168 1306,-162 1306,-156 1306,-156 1306,-144 1306,-144 1306,-138 1312,-132 1318,-132 1318,-132 1377.5,-132 1377.5,-132 1383.5,-132 1389.5,-138 1389.5,-144 1389.5,-144 1389.5,-156 1389.5,-156 1389.5,-162 1383.5,-168 1377.5,-168"/>
<text xml:space="preserve" text-anchor="middle" x="1347.75" y="-152.5" font-family="Arial" font-size="10.00">&#45;&#45;artifact&#45;dir</text>
<text xml:space="preserve" text-anchor="middle" x="1347.75" y="-140.5" font-family="Arial" font-size="10.00">dry&#45;run complet</text>
</a>
</g>
</g>
<!-- Prompt&#45;&gt;ArtifactDir -->
<g id="edge8" class="edge">
<title>Prompt&#45;&gt;ArtifactDir</title>
<path fill="none" stroke="#455a64" d="M1258.21,-150C1270.19,-150 1282.67,-150 1294.35,-150"/>
<polygon fill="#455a64" stroke="#455a64" points="1294.21,-153.5 1304.21,-150 1294.21,-146.5 1294.21,-153.5"/>
</g>
<!-- Phase5 -->
<g id="node16" class="node">
<title>Phase5</title>
<path fill="#f5f5f5" stroke="#546e7a" d="M1593.75,-356C1593.75,-356 1505,-356 1505,-356 1499,-356 1493,-350 1493,-344 1493,-344 1493,-332 1493,-332 1493,-326 1499,-320 1505,-320 1505,-320 1593.75,-320 1593.75,-320 1599.75,-320 1605.75,-326 1605.75,-332 1605.75,-332 1605.75,-344 1605.75,-344 1605.75,-350 1599.75,-356 1593.75,-356"/>
<text xml:space="preserve" text-anchor="middle" x="1549.38" y="-340.5" font-family="Arial" font-size="10.00">Phase 5</text>
<text xml:space="preserve" text-anchor="middle" x="1549.38" y="-328.5" font-family="Arial" font-size="10.00">serveur local / runtime</text>
</g>
<!-- ArtifactDir&#45;&gt;Phase5 -->
<g id="edge15" class="edge">
<title>ArtifactDir&#45;&gt;Phase5</title>
<path fill="none" stroke="#455a64" stroke-dasharray="5,2" d="M1368.25,-168.37C1403.88,-201.92 1479.59,-273.22 1520.6,-311.84"/>
<polygon fill="#455a64" stroke="#455a64" points="1518.01,-314.21 1527.69,-318.52 1522.81,-309.12 1518.01,-314.21"/>
<text xml:space="preserve" text-anchor="middle" x="1443.12" y="-268.32" font-family="Arial" font-size="9.00">runtime handoff</text>
</g>
<!-- NoScheduler -->
<g id="node10" class="node">
<title>NoScheduler</title>
<path fill="#f5f5f5" stroke="#546e7a" d="M128,-160C128,-160 60.25,-160 60.25,-160 54.25,-160 48.25,-154 48.25,-148 48.25,-148 48.25,-136 48.25,-136 48.25,-130 54.25,-124 60.25,-124 60.25,-124 128,-124 128,-124 134,-124 140,-130 140,-136 140,-136 140,-148 140,-148 140,-154 134,-160 128,-160"/>
<text xml:space="preserve" text-anchor="middle" x="94.12" y="-144.5" font-family="Arial" font-size="10.00">pas de Scheduler</text>
<text xml:space="preserve" text-anchor="middle" x="94.12" y="-132.5" font-family="Arial" font-size="10.00">modifié ou requis</text>
</g>
<!-- NoScheduler&#45;&gt;Search -->
<g id="edge9" class="edge">
<title>NoScheduler&#45;&gt;Search</title>
<path fill="none" stroke="#455a64" stroke-dasharray="5,2" d="M140.41,-142C176.01,-142 226.85,-142 271.38,-142 271.38,-142 271.38,-142 527.12,-142 555.33,-142 584.96,-130.9 607.81,-119.61"/>
<polygon fill="#455a64" stroke="#455a64" points="609.18,-122.84 616.46,-115.14 605.97,-116.62 609.18,-122.84"/>
</g>
<!-- NoQdrant -->
<g id="node11" class="node">
<title>NoQdrant</title>
<path fill="#f5f5f5" stroke="#546e7a" d="M120.88,-106C120.88,-106 67.38,-106 67.38,-106 61.38,-106 55.38,-100 55.38,-94 55.38,-94 55.38,-82 55.38,-82 55.38,-76 61.38,-70 67.38,-70 67.38,-70 120.88,-70 120.88,-70 126.88,-70 132.88,-76 132.88,-82 132.88,-82 132.88,-94 132.88,-94 132.88,-100 126.88,-106 120.88,-106"/>
<text xml:space="preserve" text-anchor="middle" x="94.12" y="-90.5" font-family="Arial" font-size="10.00">pas de Qdrant</text>
<text xml:space="preserve" text-anchor="middle" x="94.12" y="-78.5" font-family="Arial" font-size="10.00">service futur</text>
</g>
<!-- NoQdrant&#45;&gt;Corpus -->
<g id="edge10" class="edge">
<title>NoQdrant&#45;&gt;Corpus</title>
<path fill="none" stroke="#455a64" stroke-dasharray="5,2" d="M133.37,-89.74C154.69,-90.7 181.83,-91.94 206.39,-93.05"/>
<polygon fill="#455a64" stroke="#455a64" points="206.17,-96.54 216.32,-93.5 206.49,-89.55 206.17,-96.54"/>
</g>
<!-- NoLLM -->
<g id="node12" class="node">
<title>NoLLM</title>
<path fill="#f5f5f5" stroke="#546e7a" d="M129.12,-214C129.12,-214 59.12,-214 59.12,-214 53.12,-214 47.12,-208 47.12,-202 47.12,-202 47.12,-190 47.12,-190 47.12,-184 53.12,-178 59.12,-178 59.12,-178 129.12,-178 129.12,-178 135.12,-178 141.12,-184 141.12,-190 141.12,-190 141.12,-202 141.12,-202 141.12,-208 135.12,-214 129.12,-214"/>
<text xml:space="preserve" text-anchor="middle" x="94.12" y="-198.5" font-family="Arial" font-size="10.00">pas de génération</text>
<text xml:space="preserve" text-anchor="middle" x="94.12" y="-186.5" font-family="Arial" font-size="10.00">prompt seulement</text>
</g>
<!-- NoLLM&#45;&gt;Prompt -->
<g id="edge11" class="edge">
<title>NoLLM&#45;&gt;Prompt</title>
<path fill="none" stroke="#455a64" stroke-dasharray="5,2" d="M141.51,-196C177.05,-196 227.31,-196 271.38,-196 271.38,-196 271.38,-196 1036.88,-196 1074.07,-196 1114.29,-184.19 1144.93,-172.54"/>
<polygon fill="#455a64" stroke="#455a64" points="1145.91,-175.91 1153.94,-169 1143.35,-169.4 1145.91,-175.91"/>
</g>
<!-- NoGitHubApi -->
<g id="node13" class="node">
<title>NoGitHubApi</title>
<path fill="#f5f5f5" stroke="#546e7a" d="M129.5,-322C129.5,-322 58.75,-322 58.75,-322 52.75,-322 46.75,-316 46.75,-310 46.75,-310 46.75,-298 46.75,-298 46.75,-292 52.75,-286 58.75,-286 58.75,-286 129.5,-286 129.5,-286 135.5,-286 141.5,-292 141.5,-298 141.5,-298 141.5,-310 141.5,-310 141.5,-316 135.5,-322 129.5,-322"/>
<text xml:space="preserve" text-anchor="middle" x="94.12" y="-306.5" font-family="Arial" font-size="10.00">pas d&#39;API GitHub</text>
<text xml:space="preserve" text-anchor="middle" x="94.12" y="-294.5" font-family="Arial" font-size="10.00">architecture future</text>
</g>
<!-- SourceCandidate -->
<g id="node18" class="node">
<title>SourceCandidate</title>
<g id="a_node18"><a xlink:href="../integrations/91_source_candidate_lifecycle.svg" xlink:title="SourceCandidate\nfuture intake">
<path fill="#f5f5f5" stroke="#546e7a" d="M1381.25,-356C1381.25,-356 1314.25,-356 1314.25,-356 1308.25,-356 1302.25,-350 1302.25,-344 1302.25,-344 1302.25,-332 1302.25,-332 1302.25,-326 1308.25,-320 1314.25,-320 1314.25,-320 1381.25,-320 1381.25,-320 1387.25,-320 1393.25,-326 1393.25,-332 1393.25,-332 1393.25,-344 1393.25,-344 1393.25,-350 1387.25,-356 1381.25,-356"/>
<text xml:space="preserve" text-anchor="middle" x="1347.75" y="-340.5" font-family="Arial" font-size="10.00">SourceCandidate</text>
<text xml:space="preserve" text-anchor="middle" x="1347.75" y="-328.5" font-family="Arial" font-size="10.00">future intake</text>
</a>
</g>
</g>
<!-- NoGitHubApi&#45;&gt;SourceCandidate -->
<g id="edge12" class="edge">
<title>NoGitHubApi&#45;&gt;SourceCandidate</title>
<path fill="none" stroke="#455a64" stroke-dasharray="5,2" d="M141.82,-299.08C177.31,-295.77 227.36,-292 271.38,-292 271.38,-292 271.38,-292 1197.5,-292 1232.36,-292 1269.85,-303.6 1298.54,-315.15"/>
<polygon fill="#455a64" stroke="#455a64" points="1297.11,-318.35 1307.68,-318.97 1299.8,-311.89 1297.11,-318.35"/>
</g>
<!-- Stdlib -->
<g id="node14" class="node">
<title>Stdlib</title>
<path fill="#f5f5f5" stroke="#546e7a" d="M133.62,-52C133.62,-52 54.62,-52 54.62,-52 48.62,-52 42.62,-46 42.62,-40 42.62,-40 42.62,-28 42.62,-28 42.62,-22 48.62,-16 54.62,-16 54.62,-16 133.62,-16 133.62,-16 139.62,-16 145.62,-22 145.62,-28 145.62,-28 145.62,-40 145.62,-40 145.62,-46 139.62,-52 133.62,-52"/>
<text xml:space="preserve" text-anchor="middle" x="94.12" y="-36.5" font-family="Arial" font-size="10.00">aucune dépendance</text>
<text xml:space="preserve" text-anchor="middle" x="94.12" y="-24.5" font-family="Arial" font-size="10.00">hors stdlib</text>
</g>
<!-- Stdlib&#45;&gt;Bundle -->
<g id="edge13" class="edge">
<title>Stdlib&#45;&gt;Bundle</title>
<path fill="none" stroke="#455a64" stroke-dasharray="5,2" d="M146,-37.53C181.19,-39.68 229.1,-42 271.38,-42 271.38,-42 271.38,-42 771.5,-42 820.47,-42 859.78,-89.93 880.57,-121.93"/>
<polygon fill="#455a64" stroke="#455a64" points="877.59,-123.77 885.85,-130.4 883.52,-120.06 877.59,-123.77"/>
</g>
<!-- BoundaryIO -->
<g id="node15" class="node">
<title>BoundaryIO</title>
<path fill="#f5f5f5" stroke="#546e7a" d="M129.5,-268C129.5,-268 58.75,-268 58.75,-268 52.75,-268 46.75,-262 46.75,-256 46.75,-256 46.75,-244 46.75,-244 46.75,-238 52.75,-232 58.75,-232 58.75,-232 129.5,-232 129.5,-232 135.5,-232 141.5,-238 141.5,-244 141.5,-244 141.5,-256 141.5,-256 141.5,-262 135.5,-268 129.5,-268"/>
<text xml:space="preserve" text-anchor="middle" x="94.12" y="-252.5" font-family="Arial" font-size="10.00">IO en bordure</text>
<text xml:space="preserve" text-anchor="middle" x="94.12" y="-240.5" font-family="Arial" font-size="10.00">CLI + report_io.py</text>
</g>
<!-- BoundaryIO&#45;&gt;ArtifactDir -->
<g id="edge14" class="edge">
<title>BoundaryIO&#45;&gt;ArtifactDir</title>
<path fill="none" stroke="#455a64" stroke-dasharray="5,2" d="M141.86,-246.72C177.36,-244.51 227.42,-242 271.38,-242 271.38,-242 271.38,-242 1197.5,-242 1247.98,-242 1295.69,-203.39 1323.04,-176.19"/>
<polygon fill="#455a64" stroke="#455a64" points="1325.32,-178.86 1329.79,-169.26 1320.31,-173.98 1325.32,-178.86"/>
</g>
<!-- Phase6 -->
<g id="node17" class="node">
<title>Phase6</title>
<g id="a_node17"><a xlink:href="../integrations/90_github_project_orchestrator.svg" xlink:title="Phase 6\nGitHub Project Orchestrator">
<path fill="#f5f5f5" stroke="#546e7a" d="M1253.25,-356C1253.25,-356 1139.75,-356 1139.75,-356 1133.75,-356 1127.75,-350 1127.75,-344 1127.75,-344 1127.75,-332 1127.75,-332 1127.75,-326 1133.75,-320 1139.75,-320 1139.75,-320 1253.25,-320 1253.25,-320 1259.25,-320 1265.25,-326 1265.25,-332 1265.25,-332 1265.25,-344 1265.25,-344 1265.25,-350 1259.25,-356 1253.25,-356"/>
<text xml:space="preserve" text-anchor="middle" x="1196.5" y="-340.5" font-family="Arial" font-size="10.00">Phase 6</text>
<text xml:space="preserve" text-anchor="middle" x="1196.5" y="-328.5" font-family="Arial" font-size="10.00">GitHub Project Orchestrator</text>
</a>
</g>
</g>
<!-- Phase6&#45;&gt;SourceCandidate -->
<g id="edge17" class="edge">
<title>Phase6&#45;&gt;SourceCandidate</title>
<path fill="none" stroke="#455a64" stroke-dasharray="5,2" d="M1265.57,-338C1273.93,-338 1282.41,-338 1290.56,-338"/>
<polygon fill="#455a64" stroke="#455a64" points="1290.33,-341.5 1300.33,-338 1290.33,-334.5 1290.33,-341.5"/>
</g>
<!-- SourceCandidate&#45;&gt;Phase5 -->
<g id="edge16" class="edge">
<title>SourceCandidate&#45;&gt;Phase5</title>
<path fill="none" stroke="#455a64" stroke-dasharray="5,2" d="M1393.55,-338C1419.43,-338 1452.48,-338 1481.4,-338"/>
<polygon fill="#455a64" stroke="#455a64" points="1481.15,-341.5 1491.15,-338 1481.15,-334.5 1481.15,-341.5"/>
<text xml:space="preserve" text-anchor="middle" x="1443.12" y="-339.95" font-family="Arial" font-size="9.00">context intake</text>
</g>
<!-- Global -->
<g id="node19" class="node">
<title>Global</title>
<g id="a_node19"><a xlink:href="../00_global.svg" xlink:title="← Global architecture">
<path fill="#f5f5f5" stroke="none" d="M137.38,-411C137.38,-411 50.88,-411 50.88,-411 44.88,-411 38.88,-405 38.88,-399 38.88,-399 38.88,-387 38.88,-387 38.88,-381 44.88,-375 50.88,-375 50.88,-375 137.38,-375 137.38,-375 143.38,-375 149.38,-381 149.38,-387 149.38,-387 149.38,-399 149.38,-399 149.38,-405 143.38,-411 137.38,-411"/>
<text xml:space="preserve" text-anchor="middle" x="94.12" y="-389.5" font-family="Arial" font-size="10.00">← Global architecture</text>
</a>
</g>
</g>
<!-- Parent -->
<g id="node20" class="node">
<title>Parent</title>
<g id="a_node20"><a xlink:href="../integrations/91_source_candidate_lifecycle.svg" xlink:title="← Source Candidate lifecycle">
<path fill="#f5f5f5" stroke="none" d="M155,-465C155,-465 33.25,-465 33.25,-465 27.25,-465 21.25,-459 21.25,-453 21.25,-453 21.25,-441 21.25,-441 21.25,-435 27.25,-429 33.25,-429 33.25,-429 155,-429 155,-429 161,-429 167,-435 167,-441 167,-441 167,-453 167,-453 167,-459 161,-465 155,-465"/>
<text xml:space="preserve" text-anchor="middle" x="94.12" y="-443.5" font-family="Arial" font-size="10.00">← Source Candidate lifecycle</text>
</a>
</g>
</g>
<!-- DryRun -->
<g id="node21" class="node">
<title>DryRun</title>
<g id="a_node21"><a xlink:href="72_e5_dry_run_artifact_dir.svg" xlink:title="← E5 dry&#45;run artifact dir">
<path fill="#f5f5f5" stroke="none" d="M142.25,-519C142.25,-519 46,-519 46,-519 40,-519 34,-513 34,-507 34,-507 34,-495 34,-495 34,-489 40,-483 46,-483 46,-483 142.25,-483 142.25,-483 148.25,-483 154.25,-489 154.25,-495 154.25,-495 154.25,-507 154.25,-507 154.25,-513 148.25,-519 142.25,-519"/>
<text xml:space="preserve" text-anchor="middle" x="94.12" y="-497.5" font-family="Arial" font-size="10.00">← E5 dry&#45;run artifact dir</text>
</a>
</g>
</g>
<!-- Next -->
<g id="node22" class="node">
<title>Next</title>
<g id="a_node22"><a xlink:href="74_e5_phase4_closure.svg" xlink:title="next: phase 4 closure">
<path fill="#f5f5f5" stroke="none" d="M137,-573C137,-573 51.25,-573 51.25,-573 45.25,-573 39.25,-567 39.25,-561 39.25,-561 39.25,-549 39.25,-549 39.25,-543 45.25,-537 51.25,-537 51.25,-537 137,-537 137,-537 143,-537 149,-543 149,-549 149,-549 149,-561 149,-561 149,-567 143,-573 137,-573"/>
<text xml:space="preserve" text-anchor="middle" x="94.12" y="-551.5" font-family="Arial" font-size="10.00">next: phase 4 closure</text>
</a>
</g>
</g>
</g>
</svg>
