<?xml version="1.0" encoding="UTF-8" standalone="no"?>
<!DOCTYPE svg PUBLIC "-//W3C//DTD SVG 1.1//EN"
 "http://www.w3.org/Graphics/SVG/1.1/DTD/svg11.dtd">
<!-- Generated by graphviz version 14.1.3 (20260303.0454)
 -->
<!-- Title: E5Phase4Closure Pages: 1 -->
<svg width="1074pt" height="702pt"
 viewBox="0.00 0.00 1074.00 702.00" xmlns="http://www.w3.org/2000/svg" xmlns:xlink="http://www.w3.org/1999/xlink">
<g id="graph0" class="graph" transform="scale(1 1) rotate(0) translate(4 698)">
<title>E5Phase4Closure</title>
<polygon fill="#ffffff" stroke="none" points="-4,4 -4,-698 1070,-698 1070,4 -4,4"/>
<text xml:space="preserve" text-anchor="middle" x="533" y="-672.9" font-family="Arial" font-size="18.00">Phase 4.20 — E5 Phase 4 closure</text>
<g id="clust1" class="cluster">
<title>cluster_capabilities</title>
<path fill="#e3f2fd" stroke="#bbdefb" d="M516.25,-20C516.25,-20 1028.75,-20 1028.75,-20 1034.75,-20 1040.75,-26 1040.75,-32 1040.75,-32 1040.75,-143 1040.75,-143 1040.75,-149 1034.75,-155 1028.75,-155 1028.75,-155 516.25,-155 516.25,-155 510.25,-155 504.25,-149 504.25,-143 504.25,-143 504.25,-32 504.25,-32 504.25,-26 510.25,-20 516.25,-20"/>
<text xml:space="preserve" text-anchor="middle" x="772.5" y="-133.9" font-family="Arial" font-size="18.00">Capacités livrées</text>
</g>
<g id="clust2" class="cluster">
<title>cluster_contracts</title>
<path fill="#fff8e1" stroke="#ffe0b2" d="M36.12,-325C36.12,-325 648.38,-325 648.38,-325 654.38,-325 660.38,-331 660.38,-337 660.38,-337 660.38,-394 660.38,-394 660.38,-400 654.38,-406 648.38,-406 648.38,-406 36.12,-406 36.12,-406 30.12,-406 24.12,-400 24.12,-394 24.12,-394 24.12,-337 24.12,-337 24.12,-331 30.12,-325 36.12,-325"/>
<text xml:space="preserve" text-anchor="middle" x="342.25" y="-384.9" font-family="Arial" font-size="18.00">Contrats stables</text>
</g>
<g id="clust3" class="cluster">
<title>cluster_boundaries</title>
<path fill="#e8f5e9" stroke="#c8e6c9" d="M306.75,-20C306.75,-20 471.25,-20 471.25,-20 477.25,-20 483.25,-26 483.25,-32 483.25,-32 483.25,-305 483.25,-305 483.25,-311 477.25,-317 471.25,-317 471.25,-317 306.75,-317 306.75,-317 300.75,-317 294.75,-311 294.75,-305 294.75,-305 294.75,-32 294.75,-32 294.75,-26 300.75,-20 306.75,-20"/>
<text xml:space="preserve" text-anchor="middle" x="389" y="-295.9" font-family="Arial" font-size="18.00">Frontières confirmées</text>
</g>
<g id="clust4" class="cluster">
<title>cluster_future</title>
<path fill="#ffffff" stroke="#b0bec5" stroke-dasharray="5,2" d="M526,-163C526,-163 1046,-163 1046,-163 1052,-163 1058,-169 1058,-175 1058,-175 1058,-232 1058,-232 1058,-238 1052,-244 1046,-244 1046,-244 526,-244 526,-244 520,-244 514,-238 514,-232 514,-232 514,-175 514,-175 514,-169 520,-163 526,-163"/>
<text xml:space="preserve" text-anchor="middle" x="786" y="-222.9" font-family="Arial" font-size="18.00">Portes d&#39;entrée futures</text>
</g>
<g id="clust5" class="cluster">
<title>cluster_navigation</title>
<path fill="#ffffff" stroke="#90a4ae" stroke-dasharray="5,2" d="M20,-414C20,-414 132.25,-414 132.25,-414 138.25,-414 144.25,-420 144.25,-426 144.25,-426 144.25,-645 144.25,-645 144.25,-651 138.25,-657 132.25,-657 132.25,-657 20,-657 20,-657 14,-657 8,-651 8,-645 8,-645 8,-426 8,-426 8,-420 14,-414 20,-414"/>
<text xml:space="preserve" text-anchor="middle" x="76.12" y="-635.9" font-family="Arial" font-size="18.00">Navigation</text>
</g>
<!-- Corpus -->
<g id="node1" class="node">
<title>Corpus</title>
<path fill="#f5f5f5" stroke="#546e7a" d="M632.88,-64C632.88,-64 548.62,-64 548.62,-64 542.62,-64 536.62,-58 536.62,-52 536.62,-52 536.62,-40 536.62,-40 536.62,-34 542.62,-28 548.62,-28 548.62,-28 632.88,-28 632.88,-28 638.88,-28 644.88,-34 644.88,-40 644.88,-40 644.88,-52 644.88,-52 644.88,-58 638.88,-64 632.88,-64"/>
<text xml:space="preserve" text-anchor="middle" x="590.75" y="-48.5" font-family="Arial" font-size="10.00">corpus local</text>
<text xml:space="preserve" text-anchor="middle" x="590.75" y="-36.5" font-family="Arial" font-size="10.00">missipy.e5.corpus.v1</text>
</g>
<!-- Gates -->
<g id="node2" class="node">
<title>Gates</title>
<path fill="#f5f5f5" stroke="#546e7a" d="M853.62,-64C853.62,-64 787.38,-64 787.38,-64 781.38,-64 775.38,-58 775.38,-52 775.38,-52 775.38,-40 775.38,-40 775.38,-34 781.38,-28 787.38,-28 787.38,-28 853.62,-28 853.62,-28 859.62,-28 865.62,-34 865.62,-40 865.62,-40 865.62,-52 865.62,-52 865.62,-58 859.62,-64 853.62,-64"/>
<text xml:space="preserve" text-anchor="middle" x="820.5" y="-48.5" font-family="Arial" font-size="10.00">diagnostics</text>
<text xml:space="preserve" text-anchor="middle" x="820.5" y="-36.5" font-family="Arial" font-size="10.00">gates / validation</text>
</g>
<!-- Corpus&#45;&gt;Gates -->
<g id="edge1" class="edge">
<title>Corpus&#45;&gt;Gates</title>
<path fill="none" stroke="#455a64" d="M645.15,-46C680.86,-46 727.74,-46 763.9,-46"/>
<polygon fill="#455a64" stroke="#455a64" points="763.72,-49.5 773.72,-46 763.72,-42.5 763.72,-49.5"/>
</g>
<!-- Search -->
<g id="node3" class="node">
<title>Search</title>
<path fill="#f5f5f5" stroke="#546e7a" d="M1020.75,-64C1020.75,-64 966.5,-64 966.5,-64 960.5,-64 954.5,-58 954.5,-52 954.5,-52 954.5,-40 954.5,-40 954.5,-34 960.5,-28 966.5,-28 966.5,-28 1020.75,-28 1020.75,-28 1026.75,-28 1032.75,-34 1032.75,-40 1032.75,-40 1032.75,-52 1032.75,-52 1032.75,-58 1026.75,-64 1020.75,-64"/>
<text xml:space="preserve" text-anchor="middle" x="993.62" y="-48.5" font-family="Arial" font-size="10.00">search local</text>
<text xml:space="preserve" text-anchor="middle" x="993.62" y="-36.5" font-family="Arial" font-size="10.00">hits + sources</text>
</g>
<!-- Gates&#45;&gt;Search -->
<g id="edge2" class="edge">
<title>Gates&#45;&gt;Search</title>
<path fill="none" stroke="#455a64" d="M866.01,-46C889.5,-46 918.4,-46 942.65,-46"/>
<polygon fill="#455a64" stroke="#455a64" points="942.63,-49.5 952.63,-46 942.63,-42.5 942.63,-49.5"/>
</g>
<!-- Report -->
<g id="node5" class="node">
<title>Report</title>
<path fill="#f5f5f5" stroke="#546e7a" d="M108.12,-369C108.12,-369 44.12,-369 44.12,-369 38.12,-369 32.12,-363 32.12,-357 32.12,-357 32.12,-345 32.12,-345 32.12,-339 38.12,-333 44.12,-333 44.12,-333 108.12,-333 108.12,-333 114.12,-333 120.12,-339 120.12,-345 120.12,-345 120.12,-357 120.12,-357 120.12,-363 114.12,-369 108.12,-369"/>
<text xml:space="preserve" text-anchor="middle" x="76.12" y="-347.5" font-family="Arial" font-size="10.00">E5SearchReport</text>
</g>
<!-- Search&#45;&gt;Report -->
<g id="edge3" class="edge">
<title>Search&#45;&gt;Report</title>
<path fill="none" stroke="#455a64" d="M954.33,-29.52C920.16,-16.32 868.41,0 821.5,0 218.5,0 218.5,0 218.5,0 149.4,0 98.39,-237.05 82.41,-321.53"/>
<polygon fill="#455a64" stroke="#455a64" points="79.01,-320.66 80.63,-331.13 85.89,-321.94 79.01,-320.66"/>
</g>
<!-- Artifacts -->
<g id="node4" class="node">
<title>Artifacts</title>
<path fill="#f5f5f5" stroke="#546e7a" d="M657.25,-118C657.25,-118 524.25,-118 524.25,-118 518.25,-118 512.25,-112 512.25,-106 512.25,-106 512.25,-94 512.25,-94 512.25,-88 518.25,-82 524.25,-82 524.25,-82 657.25,-82 657.25,-82 663.25,-82 669.25,-88 669.25,-94 669.25,-94 669.25,-106 669.25,-106 669.25,-112 663.25,-118 657.25,-118"/>
<text xml:space="preserve" text-anchor="middle" x="590.75" y="-102.5" font-family="Arial" font-size="10.00">artifact&#45;dir</text>
<text xml:space="preserve" text-anchor="middle" x="590.75" y="-90.5" font-family="Arial" font-size="10.00">report/context/consumed/prompt</text>
</g>
<!-- Phase5 -->
<g id="node14" class="node">
<title>Phase5</title>
<path fill="#f5f5f5" stroke="#546e7a" d="M1038,-207C1038,-207 949.25,-207 949.25,-207 943.25,-207 937.25,-201 937.25,-195 937.25,-195 937.25,-183 937.25,-183 937.25,-177 943.25,-171 949.25,-171 949.25,-171 1038,-171 1038,-171 1044,-171 1050,-177 1050,-183 1050,-183 1050,-195 1050,-195 1050,-201 1044,-207 1038,-207"/>
<text xml:space="preserve" text-anchor="middle" x="993.62" y="-191.5" font-family="Arial" font-size="10.00">Phase 5</text>
<text xml:space="preserve" text-anchor="middle" x="993.62" y="-179.5" font-family="Arial" font-size="10.00">serveur local / runtime</text>
</g>
<!-- Artifacts&#45;&gt;Phase5 -->
<g id="edge13" class="edge">
<title>Artifacts&#45;&gt;Phase5</title>
<path fill="none" stroke="#455a64" stroke-dasharray="5,2" d="M669.63,-112.44C724.77,-121.78 800.3,-135.65 866,-151.5 885.65,-156.24 906.79,-162.17 926.06,-167.9"/>
<polygon fill="#455a64" stroke="#455a64" points="924.82,-171.18 935.41,-170.71 926.84,-164.48 924.82,-171.18"/>
<text xml:space="preserve" text-anchor="middle" x="820.5" y="-153.45" font-family="Arial" font-size="9.00">handoff</text>
</g>
<!-- Bundle -->
<g id="node6" class="node">
<title>Bundle</title>
<g id="a_node6"><a xlink:href="68_e5_context_bundle.svg" xlink:title="E5ContextBundle">
<path fill="#f5f5f5" stroke="#546e7a" d="M253.75,-369C253.75,-369 185.25,-369 185.25,-369 179.25,-369 173.25,-363 173.25,-357 173.25,-357 173.25,-345 173.25,-345 173.25,-339 179.25,-333 185.25,-333 185.25,-333 253.75,-333 253.75,-333 259.75,-333 265.75,-339 265.75,-345 265.75,-345 265.75,-357 265.75,-357 265.75,-363 259.75,-369 253.75,-369"/>
<text xml:space="preserve" text-anchor="middle" x="219.5" y="-347.5" font-family="Arial" font-size="10.00">E5ContextBundle</text>
</a>
</g>
</g>
<!-- Report&#45;&gt;Bundle -->
<g id="edge4" class="edge">
<title>Report&#45;&gt;Bundle</title>
<path fill="none" stroke="#455a64" d="M120.31,-351C133.38,-351 147.93,-351 161.75,-351"/>
<polygon fill="#455a64" stroke="#455a64" points="161.62,-354.5 171.62,-351 161.62,-347.5 161.62,-354.5"/>
</g>
<!-- Consumed -->
<g id="node7" class="node">
<title>Consumed</title>
<g id="a_node7"><a xlink:href="69_e5_context_consumer.svg" xlink:title="E5ConsumedContext">
<path fill="#f5f5f5" stroke="#546e7a" d="M431.38,-369C431.38,-369 345.62,-369 345.62,-369 339.62,-369 333.62,-363 333.62,-357 333.62,-357 333.62,-345 333.62,-345 333.62,-339 339.62,-333 345.62,-333 345.62,-333 431.38,-333 431.38,-333 437.38,-333 443.38,-339 443.38,-345 443.38,-345 443.38,-357 443.38,-357 443.38,-363 437.38,-369 431.38,-369"/>
<text xml:space="preserve" text-anchor="middle" x="388.5" y="-347.5" font-family="Arial" font-size="10.00">E5ConsumedContext</text>
</a>
</g>
</g>
<!-- Bundle&#45;&gt;Consumed -->
<g id="edge5" class="edge">
<title>Bundle&#45;&gt;Consumed</title>
<path fill="none" stroke="#455a64" d="M266.13,-351C283.33,-351 303.24,-351 321.9,-351"/>
<polygon fill="#455a64" stroke="#455a64" points="321.81,-354.5 331.81,-351 321.81,-347.5 321.81,-354.5"/>
</g>
<!-- Prompt -->
<g id="node8" class="node">
<title>Prompt</title>
<g id="a_node8"><a xlink:href="70_e5_answer_prompt_packet.svg" xlink:title="E5AnswerPromptPacket">
<path fill="#f5f5f5" stroke="#546e7a" d="M640.38,-369C640.38,-369 541.12,-369 541.12,-369 535.12,-369 529.12,-363 529.12,-357 529.12,-357 529.12,-345 529.12,-345 529.12,-339 535.12,-333 541.12,-333 541.12,-333 640.38,-333 640.38,-333 646.38,-333 652.38,-339 652.38,-345 652.38,-345 652.38,-357 652.38,-357 652.38,-363 646.38,-369 640.38,-369"/>
<text xml:space="preserve" text-anchor="middle" x="590.75" y="-347.5" font-family="Arial" font-size="10.00">E5AnswerPromptPacket</text>
</a>
</g>
</g>
<!-- Consumed&#45;&gt;Prompt -->
<g id="edge6" class="edge">
<title>Consumed&#45;&gt;Prompt</title>
<path fill="none" stroke="#455a64" d="M443.69,-351C466.39,-351 493.11,-351 517.45,-351"/>
<polygon fill="#455a64" stroke="#455a64" points="517.29,-354.5 527.29,-351 517.29,-347.5 517.29,-354.5"/>
</g>
<!-- Prompt&#45;&gt;Artifacts -->
<g id="edge7" class="edge">
<title>Prompt&#45;&gt;Artifacts</title>
<path fill="none" stroke="#455a64" d="M567.01,-332.58C543.28,-312.52 508.31,-278.05 493.75,-239 482.73,-209.43 480.56,-196.67 493.75,-168 502.38,-149.24 519.16,-134.73 536.37,-124.03"/>
<polygon fill="#455a64" stroke="#455a64" points="537.74,-127.29 544.62,-119.24 534.22,-121.24 537.74,-127.29"/>
</g>
<!-- NoScheduler -->
<g id="node9" class="node">
<title>NoScheduler</title>
<path fill="#f5f5f5" stroke="#546e7a" d="M422.38,-226C422.38,-226 354.62,-226 354.62,-226 348.62,-226 342.62,-220 342.62,-214 342.62,-214 342.62,-202 342.62,-202 342.62,-196 348.62,-190 354.62,-190 354.62,-190 422.38,-190 422.38,-190 428.38,-190 434.38,-196 434.38,-202 434.38,-202 434.38,-214 434.38,-214 434.38,-220 428.38,-226 422.38,-226"/>
<text xml:space="preserve" text-anchor="middle" x="388.5" y="-204.5" font-family="Arial" font-size="10.00">pas de Scheduler</text>
</g>
<!-- NoScheduler&#45;&gt;Phase5 -->
<g id="edge8" class="edge">
<title>NoScheduler&#45;&gt;Phase5</title>
<path fill="none" stroke="#455a64" stroke-dasharray="5,2" d="M434.66,-212.4C519.47,-219.86 708.23,-232.63 866,-216 885.62,-213.93 906.67,-210.11 925.87,-205.97"/>
<polygon fill="#455a64" stroke="#455a64" points="926.45,-209.43 935.45,-203.84 924.93,-202.6 926.45,-209.43"/>
<text xml:space="preserve" text-anchor="middle" x="722.12" y="-226.1" font-family="Arial" font-size="9.00">frontière explicite</text>
</g>
<!-- NoQdrant -->
<g id="node10" class="node">
<title>NoQdrant</title>
<path fill="#f5f5f5" stroke="#546e7a" d="M415.25,-64C415.25,-64 361.75,-64 361.75,-64 355.75,-64 349.75,-58 349.75,-52 349.75,-52 349.75,-40 349.75,-40 349.75,-34 355.75,-28 361.75,-28 361.75,-28 415.25,-28 415.25,-28 421.25,-28 427.25,-34 427.25,-40 427.25,-40 427.25,-52 427.25,-52 427.25,-58 421.25,-64 415.25,-64"/>
<text xml:space="preserve" text-anchor="middle" x="388.5" y="-42.5" font-family="Arial" font-size="10.00">pas de Qdrant</text>
</g>
<!-- NoQdrant&#45;&gt;Corpus -->
<g id="edge9" class="edge">
<title>NoQdrant&#45;&gt;Corpus</title>
<path fill="none" stroke="#455a64" stroke-dasharray="5,2" d="M427.64,-46C455.15,-46 492.95,-46 525.13,-46"/>
<polygon fill="#455a64" stroke="#455a64" points="524.74,-49.5 534.74,-46 524.74,-42.5 524.74,-49.5"/>
</g>
<!-- NoLLM -->
<g id="node11" class="node">
<title>NoLLM</title>
<path fill="#f5f5f5" stroke="#546e7a" d="M435.5,-280C435.5,-280 341.5,-280 341.5,-280 335.5,-280 329.5,-274 329.5,-268 329.5,-268 329.5,-256 329.5,-256 329.5,-250 335.5,-244 341.5,-244 341.5,-244 435.5,-244 435.5,-244 441.5,-244 447.5,-250 447.5,-256 447.5,-256 447.5,-268 447.5,-268 447.5,-274 441.5,-280 435.5,-280"/>
<text xml:space="preserve" text-anchor="middle" x="388.5" y="-258.5" font-family="Arial" font-size="10.00">pas de LLM de réponse</text>
</g>
<!-- NoLLM&#45;&gt;Prompt -->
<g id="edge10" class="edge">
<title>NoLLM&#45;&gt;Prompt</title>
<path fill="none" stroke="#455a64" stroke-dasharray="5,2" d="M430.99,-280.44C462,-294.22 504.6,-313.16 537.87,-327.94"/>
<polygon fill="#455a64" stroke="#455a64" points="536.37,-331.1 546.93,-331.97 539.21,-324.71 536.37,-331.1"/>
</g>
<!-- NoGitHub -->
<g id="node12" class="node">
<title>NoGitHub</title>
<path fill="#f5f5f5" stroke="#546e7a" d="M422.75,-172C422.75,-172 354.25,-172 354.25,-172 348.25,-172 342.25,-166 342.25,-160 342.25,-160 342.25,-148 342.25,-148 342.25,-142 348.25,-136 354.25,-136 354.25,-136 422.75,-136 422.75,-136 428.75,-136 434.75,-142 434.75,-148 434.75,-148 434.75,-160 434.75,-160 434.75,-166 428.75,-172 422.75,-172"/>
<text xml:space="preserve" text-anchor="middle" x="388.5" y="-150.5" font-family="Arial" font-size="10.00">pas d&#39;API GitHub</text>
</g>
<!-- GitHubProject -->
<g id="node16" class="node">
<title>GitHubProject</title>
<g id="a_node16"><a xlink:href="../integrations/90_github_project_orchestrator.svg" xlink:title="GitHub Project Orchestrator\nfuture">
<path fill="#f5f5f5" stroke="#546e7a" d="M647.5,-207C647.5,-207 534,-207 534,-207 528,-207 522,-201 522,-195 522,-195 522,-183 522,-183 522,-177 528,-171 534,-171 534,-171 647.5,-171 647.5,-171 653.5,-171 659.5,-177 659.5,-183 659.5,-183 659.5,-195 659.5,-195 659.5,-201 653.5,-207 647.5,-207"/>
<text xml:space="preserve" text-anchor="middle" x="590.75" y="-191.5" font-family="Arial" font-size="10.00">GitHub Project Orchestrator</text>
<text xml:space="preserve" text-anchor="middle" x="590.75" y="-179.5" font-family="Arial" font-size="10.00">future</text>
</a>
</g>
</g>
<!-- NoGitHub&#45;&gt;GitHubProject -->
<g id="edge11" class="edge">
<title>NoGitHub&#45;&gt;GitHubProject</title>
<path fill="none" stroke="#455a64" stroke-dasharray="5,2" d="M435.19,-161.99C457.51,-165.89 485.02,-170.7 510.62,-175.17"/>
<polygon fill="#455a64" stroke="#455a64" points="509.88,-178.59 520.34,-176.87 511.09,-171.7 509.88,-178.59"/>
</g>
<!-- Stdlib -->
<g id="node13" class="node">
<title>Stdlib</title>
<path fill="#f5f5f5" stroke="#546e7a" d="M428,-118C428,-118 349,-118 349,-118 343,-118 337,-112 337,-106 337,-106 337,-94 337,-94 337,-88 343,-82 349,-82 349,-82 428,-82 428,-82 434,-82 440,-88 440,-94 440,-94 440,-106 440,-106 440,-112 434,-118 428,-118"/>
<text xml:space="preserve" text-anchor="middle" x="388.5" y="-102.5" font-family="Arial" font-size="10.00">aucune dépendance</text>
<text xml:space="preserve" text-anchor="middle" x="388.5" y="-90.5" font-family="Arial" font-size="10.00">hors stdlib</text>
</g>
<!-- Stdlib&#45;&gt;Artifacts -->
<g id="edge12" class="edge">
<title>Stdlib&#45;&gt;Artifacts</title>
<path fill="none" stroke="#455a64" stroke-dasharray="5,2" d="M440.29,-100C458.67,-100 480.01,-100 500.71,-100"/>
<polygon fill="#455a64" stroke="#455a64" points="500.6,-103.5 510.6,-100 500.6,-96.5 500.6,-103.5"/>
</g>
<!-- SourceCandidate -->
<g id="node15" class="node">
<title>SourceCandidate</title>
<g id="a_node15"><a xlink:href="../integrations/91_source_candidate_lifecycle.svg" xlink:title="SourceCandidate\nfutur intake">
<path fill="#f5f5f5" stroke="#546e7a" d="M854,-207C854,-207 787,-207 787,-207 781,-207 775,-201 775,-195 775,-195 775,-183 775,-183 775,-177 781,-171 787,-171 787,-171 854,-171 854,-171 860,-171 866,-177 866,-183 866,-183 866,-195 866,-195 866,-201 860,-207 854,-207"/>
<text xml:space="preserve" text-anchor="middle" x="820.5" y="-191.5" font-family="Arial" font-size="10.00">SourceCandidate</text>
<text xml:space="preserve" text-anchor="middle" x="820.5" y="-179.5" font-family="Arial" font-size="10.00">futur intake</text>
</a>
</g>
</g>
<!-- SourceCandidate&#45;&gt;Phase5 -->
<g id="edge14" class="edge">
<title>SourceCandidate&#45;&gt;Phase5</title>
<path fill="none" stroke="#455a64" stroke-dasharray="5,2" d="M866.46,-189C884.51,-189 905.69,-189 925.49,-189"/>
<polygon fill="#455a64" stroke="#455a64" points="925.44,-192.5 935.44,-189 925.44,-185.5 925.44,-192.5"/>
<text xml:space="preserve" text-anchor="middle" x="901.62" y="-190.95" font-family="Arial" font-size="9.00">plus tard</text>
</g>
<!-- GitHubProject&#45;&gt;SourceCandidate -->
<g id="edge15" class="edge">
<title>GitHubProject&#45;&gt;SourceCandidate</title>
<path fill="none" stroke="#455a64" stroke-dasharray="5,2" d="M659.77,-189C692.93,-189 732.31,-189 763.67,-189"/>
<polygon fill="#455a64" stroke="#455a64" points="763.32,-192.5 773.32,-189 763.32,-185.5 763.32,-192.5"/>
<text xml:space="preserve" text-anchor="middle" x="722.12" y="-190.95" font-family="Arial" font-size="9.00">plus tard</text>
</g>
<!-- Global -->
<g id="node17" class="node">
<title>Global</title>
<g id="a_node17"><a xlink:href="../00_global.svg" xlink:title="← Global architecture">
<path fill="#f5f5f5" stroke="none" d="M119.38,-458C119.38,-458 32.88,-458 32.88,-458 26.88,-458 20.88,-452 20.88,-446 20.88,-446 20.88,-434 20.88,-434 20.88,-428 26.88,-422 32.88,-422 32.88,-422 119.38,-422 119.38,-422 125.38,-422 131.38,-428 131.38,-434 131.38,-434 131.38,-446 131.38,-446 131.38,-452 125.38,-458 119.38,-458"/>
<text xml:space="preserve" text-anchor="middle" x="76.12" y="-436.5" font-family="Arial" font-size="10.00">← Global architecture</text>
</a>
</g>
</g>
<!-- Parent -->
<g id="node18" class="node">
<title>Parent</title>
<g id="a_node18"><a xlink:href="73_e5_phase4_final_audit.svg" xlink:title="← Phase 4 final audit">
<path fill="#f5f5f5" stroke="none" d="M119,-512C119,-512 33.25,-512 33.25,-512 27.25,-512 21.25,-506 21.25,-500 21.25,-500 21.25,-488 21.25,-488 21.25,-482 27.25,-476 33.25,-476 33.25,-476 119,-476 119,-476 125,-476 131,-482 131,-488 131,-488 131,-500 131,-500 131,-506 125,-512 119,-512"/>
<text xml:space="preserve" text-anchor="middle" x="76.12" y="-490.5" font-family="Arial" font-size="10.00">← Phase 4 final audit</text>
</a>
</g>
</g>
<!-- DryRun -->
<g id="node19" class="node">
<title>DryRun</title>
<g id="a_node19"><a xlink:href="72_e5_dry_run_artifact_dir.svg" xlink:title="← E5 dry&#45;run artifact dir">
<path fill="#f5f5f5" stroke="none" d="M124.25,-566C124.25,-566 28,-566 28,-566 22,-566 16,-560 16,-554 16,-554 16,-542 16,-542 16,-536 22,-530 28,-530 28,-530 124.25,-530 124.25,-530 130.25,-530 136.25,-536 136.25,-542 136.25,-542 136.25,-554 136.25,-554 136.25,-560 130.25,-566 124.25,-566"/>
<text xml:space="preserve" text-anchor="middle" x="76.12" y="-544.5" font-family="Arial" font-size="10.00">← E5 dry&#45;run artifact dir</text>
</a>
</g>
</g>
<!-- Next -->
<g id="node20" class="node">
<title>Next</title>
<g id="a_node20"><a xlink:href="../context/25_e5_runtime_bridge.svg" xlink:title="next: E5 runtime bridge">
<path fill="#f5f5f5" stroke="none" d="M122.75,-620C122.75,-620 29.5,-620 29.5,-620 23.5,-620 17.5,-614 17.5,-608 17.5,-608 17.5,-596 17.5,-596 17.5,-590 23.5,-584 29.5,-584 29.5,-584 122.75,-584 122.75,-584 128.75,-584 134.75,-590 134.75,-596 134.75,-596 134.75,-608 134.75,-608 134.75,-614 128.75,-620 122.75,-620"/>
<text xml:space="preserve" text-anchor="middle" x="76.12" y="-598.5" font-family="Arial" font-size="10.00">next: E5 runtime bridge</text>
</a>
</g>
</g>
</g>
</svg>
