<?xml version="1.0" encoding="UTF-8" standalone="no"?>
<!DOCTYPE svg PUBLIC "-//W3C//DTD SVG 1.1//EN"
 "http://www.w3.org/Graphics/SVG/1.1/DTD/svg11.dtd">
<!-- Generated by graphviz version 14.1.3 (20260303.0454)
 -->
<!-- Title: Dispatcher Pages: 1 -->
<svg width="398pt" height="511pt"
 viewBox="0.00 0.00 398.00 511.00" xmlns="http://www.w3.org/2000/svg" xmlns:xlink="http://www.w3.org/1999/xlink">
<g id="graph0" class="graph" transform="scale(1 1) rotate(0) translate(4 506.5)">
<title>Dispatcher</title>
<polygon fill="white" stroke="none" points="-4,4 -4,-506.5 393.88,-506.5 393.88,4 -4,4"/>
<!-- Scheduler -->
<g id="node1" class="node">
<title>Scheduler</title>
<g id="a_node1"><a xlink:href="../10_scheduler.svg" xlink:title="Scheduler">
<path fill="#ede7f6" stroke="#512da8" d="M259.38,-502.5C259.38,-502.5 223.88,-502.5 223.88,-502.5 217.88,-502.5 211.88,-496.5 211.88,-490.5 211.88,-490.5 211.88,-478.5 211.88,-478.5 211.88,-472.5 217.88,-466.5 223.88,-466.5 223.88,-466.5 259.38,-466.5 259.38,-466.5 265.38,-466.5 271.38,-472.5 271.38,-478.5 271.38,-478.5 271.38,-490.5 271.38,-490.5 271.38,-496.5 265.38,-502.5 259.38,-502.5"/>
<text xml:space="preserve" text-anchor="middle" x="241.62" y="-481" font-family="Arial" font-size="10.00">Scheduler</text>
</a>
</g>
</g>
<!-- Queue -->
<g id="node2" class="node">
<title>Queue</title>
<g id="a_node2"><a xlink:href="../priority_queue/13_priority_queue.svg" xlink:title="PriorityQueue">
<path fill="#ede7f6" stroke="#512da8" d="M267.25,-420C267.25,-420 216,-420 216,-420 210,-420 204,-414 204,-408 204,-408 204,-396 204,-396 204,-390 210,-384 216,-384 216,-384 267.25,-384 267.25,-384 273.25,-384 279.25,-390 279.25,-396 279.25,-396 279.25,-408 279.25,-408 279.25,-414 273.25,-420 267.25,-420"/>
<text xml:space="preserve" text-anchor="middle" x="241.62" y="-398.5" font-family="Arial" font-size="10.00">PriorityQueue</text>
</a>
</g>
</g>
<!-- Scheduler&#45;&gt;Queue -->
<g id="edge1" class="edge">
<title>Scheduler&#45;&gt;Queue</title>
<path fill="none" stroke="black" d="M241.62,-466.03C241.62,-456.01 241.62,-443.18 241.62,-431.71"/>
<polygon fill="black" stroke="black" points="245.13,-431.95 241.63,-421.95 238.13,-431.95 245.13,-431.95"/>
<text xml:space="preserve" text-anchor="middle" x="270.12" y="-439.95" font-family="Arial" font-size="9.00">get next event</text>
</g>
<!-- Dispatcher -->
<g id="node3" class="node">
<title>Dispatcher</title>
<path fill="#ede7f6" stroke="#512da8" d="M261.25,-337.5C261.25,-337.5 222,-337.5 222,-337.5 216,-337.5 210,-331.5 210,-325.5 210,-325.5 210,-313.5 210,-313.5 210,-307.5 216,-301.5 222,-301.5 222,-301.5 261.25,-301.5 261.25,-301.5 267.25,-301.5 273.25,-307.5 273.25,-313.5 273.25,-313.5 273.25,-325.5 273.25,-325.5 273.25,-331.5 267.25,-337.5 261.25,-337.5"/>
<text xml:space="preserve" text-anchor="middle" x="241.62" y="-316" font-family="Arial" font-size="10.00">Dispatcher</text>
</g>
<!-- Queue&#45;&gt;Dispatcher -->
<g id="edge2" class="edge">
<title>Queue&#45;&gt;Dispatcher</title>
<path fill="none" stroke="black" d="M241.62,-383.53C241.62,-373.51 241.62,-360.68 241.62,-349.21"/>
<polygon fill="black" stroke="black" points="245.13,-349.45 241.63,-339.45 238.13,-349.45 245.13,-349.45"/>
<text xml:space="preserve" text-anchor="middle" x="273.12" y="-357.45" font-family="Arial" font-size="9.00">dispatch(event)</text>
</g>
<!-- HandlerTable -->
<g id="node4" class="node">
<title>HandlerTable</title>
<path fill="#eceff1" stroke="#455a64" d="M168.25,-255C168.25,-255 39,-255 39,-255 33,-255 27,-249 27,-243 27,-243 27,-231 27,-231 27,-225 33,-219 39,-219 39,-219 168.25,-219 168.25,-219 174.25,-219 180.25,-225 180.25,-231 180.25,-231 180.25,-243 180.25,-243 180.25,-249 174.25,-255 168.25,-255"/>
<text xml:space="preserve" text-anchor="middle" x="103.62" y="-233.5" font-family="Arial" font-size="10.00">handlers: EventType &#45;&gt; callable</text>
</g>
<!-- Dispatcher&#45;&gt;HandlerTable -->
<g id="edge4" class="edge">
<title>Dispatcher&#45;&gt;HandlerTable</title>
<path fill="none" stroke="black" d="M211.68,-301.03C191.7,-289.38 165.2,-273.92 143.44,-261.23"/>
<polygon fill="black" stroke="black" points="145.22,-258.21 134.82,-256.2 141.69,-264.26 145.22,-258.21"/>
<text xml:space="preserve" text-anchor="middle" x="194.76" y="-274.95" font-family="Arial" font-size="9.00">lookup</text>
</g>
<!-- EventBus -->
<g id="node8" class="node">
<title>EventBus</title>
<g id="a_node8"><a xlink:href="../event_bus/12_event_bus.svg" xlink:title="EventBus\nobservation only">
<path fill="#f5f5f5" stroke="#666666" d="M273.25,-255C273.25,-255 210,-255 210,-255 204,-255 198,-249 198,-243 198,-243 198,-231 198,-231 198,-225 204,-219 210,-219 210,-219 273.25,-219 273.25,-219 279.25,-219 285.25,-225 285.25,-231 285.25,-231 285.25,-243 285.25,-243 285.25,-249 279.25,-255 273.25,-255"/>
<text xml:space="preserve" text-anchor="middle" x="241.62" y="-239.5" font-family="Arial" font-size="10.00">EventBus</text>
<text xml:space="preserve" text-anchor="middle" x="241.62" y="-227.5" font-family="Arial" font-size="10.00">observation only</text>
</a>
</g>
</g>
<!-- Dispatcher&#45;&gt;EventBus -->
<g id="edge3" class="edge">
<title>Dispatcher&#45;&gt;EventBus</title>
<path fill="none" stroke="black" stroke-dasharray="5,2" d="M241.62,-301.03C241.62,-291.01 241.62,-278.18 241.62,-266.71"/>
<polygon fill="black" stroke="black" points="245.13,-266.95 241.63,-256.95 238.13,-266.95 245.13,-266.95"/>
<text xml:space="preserve" text-anchor="middle" x="267.5" y="-274.95" font-family="Arial" font-size="9.00">publish copy</text>
</g>
<!-- Telemetry -->
<g id="node9" class="node">
<title>Telemetry</title>
<g id="a_node9"><a xlink:href="../../observability/70_observability.svg" xlink:title="KernelTelemetry\ndispatch timing">
<path fill="#f5f5f5" stroke="#666666" d="M377.88,-255C377.88,-255 315.38,-255 315.38,-255 309.38,-255 303.38,-249 303.38,-243 303.38,-243 303.38,-231 303.38,-231 303.38,-225 309.38,-219 315.38,-219 315.38,-219 377.88,-219 377.88,-219 383.88,-219 389.88,-225 389.88,-231 389.88,-231 389.88,-243 389.88,-243 389.88,-249 383.88,-255 377.88,-255"/>
<text xml:space="preserve" text-anchor="middle" x="346.62" y="-239.5" font-family="Arial" font-size="10.00">KernelTelemetry</text>
<text xml:space="preserve" text-anchor="middle" x="346.62" y="-227.5" font-family="Arial" font-size="10.00">dispatch timing</text>
</a>
</g>
</g>
<!-- Dispatcher&#45;&gt;Telemetry -->
<g id="edge9" class="edge">
<title>Dispatcher&#45;&gt;Telemetry</title>
<path fill="none" stroke="black" stroke-dasharray="5,2" d="M271.68,-301.17C280.29,-295.82 289.52,-289.7 297.62,-283.5 305.71,-277.31 314,-270.02 321.41,-263.12"/>
<polygon fill="black" stroke="black" points="323.73,-265.75 328.55,-256.32 318.9,-260.68 323.73,-265.75"/>
<text xml:space="preserve" text-anchor="middle" x="341.51" y="-274.95" font-family="Arial" font-size="9.00">record duration</text>
</g>
<!-- Handler -->
<g id="node5" class="node">
<title>Handler</title>
<path fill="#e8f5e9" stroke="#388e3c" d="M81.25,-172.5C81.25,-172.5 12,-172.5 12,-172.5 6,-172.5 0,-166.5 0,-160.5 0,-160.5 0,-148.5 0,-148.5 0,-142.5 6,-136.5 12,-136.5 12,-136.5 81.25,-136.5 81.25,-136.5 87.25,-136.5 93.25,-142.5 93.25,-148.5 93.25,-148.5 93.25,-160.5 93.25,-160.5 93.25,-166.5 87.25,-172.5 81.25,-172.5"/>
<text xml:space="preserve" text-anchor="middle" x="46.62" y="-151" font-family="Arial" font-size="10.00">registered handler</text>
</g>
<!-- HandlerTable&#45;&gt;Handler -->
<g id="edge5" class="edge">
<title>HandlerTable&#45;&gt;Handler</title>
<path fill="none" stroke="black" d="M91.26,-218.53C83.71,-207.88 73.92,-194.05 65.43,-182.06"/>
<polygon fill="black" stroke="black" points="68.48,-180.31 59.84,-174.17 62.77,-184.35 68.48,-180.31"/>
<text xml:space="preserve" text-anchor="middle" x="90.16" y="-192.45" font-family="Arial" font-size="9.00">found</text>
</g>
<!-- NoHandler -->
<g id="node6" class="node">
<title>NoHandler</title>
<path fill="#ffebee" stroke="#c62828" d="M200,-172.5C200,-172.5 123.25,-172.5 123.25,-172.5 117.25,-172.5 111.25,-166.5 111.25,-160.5 111.25,-160.5 111.25,-148.5 111.25,-148.5 111.25,-142.5 117.25,-136.5 123.25,-136.5 123.25,-136.5 200,-136.5 200,-136.5 206,-136.5 212,-142.5 212,-148.5 212,-148.5 212,-160.5 212,-160.5 212,-166.5 206,-172.5 200,-172.5"/>
<text xml:space="preserve" text-anchor="middle" x="161.62" y="-157" font-family="Arial" font-size="10.00">no handler</text>
<text xml:space="preserve" text-anchor="middle" x="161.62" y="-145" font-family="Arial" font-size="10.00">explicit no&#45;op result</text>
</g>
<!-- HandlerTable&#45;&gt;NoHandler -->
<g id="edge6" class="edge">
<title>HandlerTable&#45;&gt;NoHandler</title>
<path fill="none" stroke="black" d="M116.21,-218.53C123.89,-207.88 133.85,-194.05 142.49,-182.06"/>
<polygon fill="black" stroke="black" points="145.17,-184.32 148.18,-174.16 139.49,-180.23 145.17,-184.32"/>
<text xml:space="preserve" text-anchor="middle" x="151.85" y="-192.45" font-family="Arial" font-size="9.00">missing</text>
</g>
<!-- RequestReply -->
<g id="node7" class="node">
<title>RequestReply</title>
<path fill="#fff3e0" stroke="#ef6c00" d="M130,-90C130,-90 77.25,-90 77.25,-90 71.25,-90 65.25,-84 65.25,-78 65.25,-78 65.25,-66 65.25,-66 65.25,-60 71.25,-54 77.25,-54 77.25,-54 130,-54 130,-54 136,-54 142,-60 142,-66 142,-66 142,-78 142,-78 142,-84 136,-90 130,-90"/>
<text xml:space="preserve" text-anchor="middle" x="103.62" y="-68.5" font-family="Arial" font-size="10.00">Request.reply</text>
</g>
<!-- Handler&#45;&gt;RequestReply -->
<g id="edge7" class="edge">
<title>Handler&#45;&gt;RequestReply</title>
<path fill="none" stroke="black" stroke-dasharray="5,2" d="M58.99,-136.03C66.54,-125.38 76.33,-111.55 84.82,-99.56"/>
<polygon fill="black" stroke="black" points="87.48,-101.85 90.41,-91.67 81.77,-97.81 87.48,-101.85"/>
<text xml:space="preserve" text-anchor="middle" x="96.91" y="-109.95" font-family="Arial" font-size="9.00">set result</text>
</g>
<!-- NoHandler&#45;&gt;RequestReply -->
<g id="edge8" class="edge">
<title>NoHandler&#45;&gt;RequestReply</title>
<path fill="none" stroke="black" stroke-dasharray="5,2" d="M149.04,-136.03C141.36,-125.38 131.4,-111.55 122.76,-99.56"/>
<polygon fill="black" stroke="black" points="125.76,-97.73 117.07,-91.66 120.08,-101.82 125.76,-97.73"/>
<text xml:space="preserve" text-anchor="middle" x="169.85" y="-109.95" font-family="Arial" font-size="9.00">set explicit result</text>
</g>
<!-- Nav_Global -->
<g id="node10" class="node">
<title>Nav_Global</title>
<g id="a_node10"><a xlink:href="../../00_global.svg" xlink:title="Global">
<path fill="lightgrey" stroke="none" d="M118.62,-36C118.62,-36 88.62,-36 88.62,-36 82.62,-36 76.62,-30 76.62,-24 76.62,-24 76.62,-12 76.62,-12 76.62,-6 82.62,0 88.62,0 88.62,0 118.62,0 118.62,0 124.62,0 130.62,-6 130.62,-12 130.62,-12 130.62,-24 130.62,-24 130.62,-30 124.62,-36 118.62,-36"/>
<text xml:space="preserve" text-anchor="middle" x="103.62" y="-14.5" font-family="Arial" font-size="10.00">Global</text>
</a>
</g>
</g>
<!-- Nav_Up -->
<g id="node11" class="node">
<title>Nav_Up</title>
<g id="a_node11"><a xlink:href="../10_scheduler.svg" xlink:title="Up: Scheduler">
<path fill="lightgrey" stroke="none" d="M201.75,-36C201.75,-36 147.5,-36 147.5,-36 141.5,-36 135.5,-30 135.5,-24 135.5,-24 135.5,-12 135.5,-12 135.5,-6 141.5,0 147.5,0 147.5,0 201.75,0 201.75,0 207.75,0 213.75,-6 213.75,-12 213.75,-12 213.75,-24 213.75,-24 213.75,-30 207.75,-36 201.75,-36"/>
<text xml:space="preserve" text-anchor="middle" x="174.62" y="-14.5" font-family="Arial" font-size="10.00">Up: Scheduler</text>
</a>
</g>
</g>
<!-- Nav_EventBus -->
<g id="node12" class="node">
<title>Nav_EventBus</title>
<g id="a_node12"><a xlink:href="../event_bus/12_event_bus.svg" xlink:title="EventBus">
<path fill="lightgrey" stroke="none" d="M266,-36C266,-36 231.25,-36 231.25,-36 225.25,-36 219.25,-30 219.25,-24 219.25,-24 219.25,-12 219.25,-12 219.25,-6 225.25,0 231.25,0 231.25,0 266,0 266,0 272,0 278,-6 278,-12 278,-12 278,-24 278,-24 278,-30 272,-36 266,-36"/>
<text xml:space="preserve" text-anchor="middle" x="248.62" y="-14.5" font-family="Arial" font-size="10.00">EventBus</text>
</a>
</g>
</g>
</g>
</svg>
