<?xml version="1.0" encoding="UTF-8" standalone="no"?>
<!DOCTYPE svg PUBLIC "-//W3C//DTD SVG 1.1//EN"
 "http://www.w3.org/Graphics/SVG/1.1/DTD/svg11.dtd">
<!-- Generated by graphviz version 14.1.3 (20260303.0454)
 -->
<!-- Title: Validation Pages: 1 -->
<svg width="597pt" height="98pt"
 viewBox="0.00 0.00 597.00 98.00" xmlns="http://www.w3.org/2000/svg" xmlns:xlink="http://www.w3.org/1999/xlink">
<g id="graph0" class="graph" transform="scale(1 1) rotate(0) translate(4 94)">
<title>Validation</title>
<polygon fill="white" stroke="none" points="-4,4 -4,-94 593,-94 593,4 -4,4"/>
<!-- Compiler -->
<g id="node1" class="node">
<title>Compiler</title>
<path fill="#f3e5f5" stroke="#7b1fa2" d="M43,-36C43,-36 12,-36 12,-36 6,-36 0,-30 0,-24 0,-24 0,-12 0,-12 0,-6 6,0 12,0 12,0 43,0 43,0 49,0 55,-6 55,-12 55,-12 55,-24 55,-24 55,-30 49,-36 43,-36"/>
<text xml:space="preserve" text-anchor="middle" x="27.5" y="-14.5" font-family="Arial" font-size="10.00">Compiler</text>
</g>
<!-- Tests -->
<g id="node2" class="node">
<title>Tests</title>
<path fill="#f3e5f5" stroke="#7b1fa2" d="M133,-36C133,-36 103,-36 103,-36 97,-36 91,-30 91,-24 91,-24 91,-12 91,-12 91,-6 97,0 103,0 103,0 133,0 133,0 139,0 145,-6 145,-12 145,-12 145,-24 145,-24 145,-30 139,-36 133,-36"/>
<text xml:space="preserve" text-anchor="middle" x="118" y="-14.5" font-family="Arial" font-size="10.00">Tests</text>
</g>
<!-- Compiler&#45;&gt;Tests -->
<g id="edge1" class="edge">
<title>Compiler&#45;&gt;Tests</title>
<path fill="none" stroke="black" d="M55.05,-18C62.74,-18 71.27,-18 79.49,-18"/>
<polygon fill="black" stroke="black" points="79.26,-21.5 89.26,-18 79.26,-14.5 79.26,-21.5"/>
</g>
<!-- SemanticValidator -->
<g id="node3" class="node">
<title>SemanticValidator</title>
<path fill="#f3e5f5" stroke="#7b1fa2" d="M263.75,-36C263.75,-36 193,-36 193,-36 187,-36 181,-30 181,-24 181,-24 181,-12 181,-12 181,-6 187,0 193,0 193,0 263.75,0 263.75,0 269.75,0 275.75,-6 275.75,-12 275.75,-12 275.75,-24 275.75,-24 275.75,-30 269.75,-36 263.75,-36"/>
<text xml:space="preserve" text-anchor="middle" x="228.38" y="-14.5" font-family="Arial" font-size="10.00">SemanticValidator</text>
</g>
<!-- Tests&#45;&gt;SemanticValidator -->
<g id="edge2" class="edge">
<title>Tests&#45;&gt;SemanticValidator</title>
<path fill="none" stroke="black" d="M145.23,-18C152.56,-18 160.82,-18 169.2,-18"/>
<polygon fill="black" stroke="black" points="169.13,-21.5 179.13,-18 169.13,-14.5 169.13,-21.5"/>
</g>
<!-- Confidence -->
<g id="node4" class="node">
<title>Confidence</title>
<path fill="#f3e5f5" stroke="#7b1fa2" d="M365.25,-36C365.25,-36 323.75,-36 323.75,-36 317.75,-36 311.75,-30 311.75,-24 311.75,-24 311.75,-12 311.75,-12 311.75,-6 317.75,0 323.75,0 323.75,0 365.25,0 365.25,0 371.25,0 377.25,-6 377.25,-12 377.25,-12 377.25,-24 377.25,-24 377.25,-30 371.25,-36 365.25,-36"/>
<text xml:space="preserve" text-anchor="middle" x="344.5" y="-14.5" font-family="Arial" font-size="10.00">Confidence</text>
</g>
<!-- SemanticValidator&#45;&gt;Confidence -->
<g id="edge3" class="edge">
<title>SemanticValidator&#45;&gt;Confidence</title>
<path fill="none" stroke="black" d="M276.12,-18C283.97,-18 292.09,-18 299.86,-18"/>
<polygon fill="black" stroke="black" points="299.78,-21.5 309.78,-18 299.78,-14.5 299.78,-21.5"/>
</g>
<!-- Conflict -->
<g id="node5" class="node">
<title>Conflict</title>
<path fill="#f3e5f5" stroke="#7b1fa2" d="M455.25,-36C455.25,-36 425.25,-36 425.25,-36 419.25,-36 413.25,-30 413.25,-24 413.25,-24 413.25,-12 413.25,-12 413.25,-6 419.25,0 425.25,0 425.25,0 455.25,0 455.25,0 461.25,0 467.25,-6 467.25,-12 467.25,-12 467.25,-24 467.25,-24 467.25,-30 461.25,-36 455.25,-36"/>
<text xml:space="preserve" text-anchor="middle" x="440.25" y="-14.5" font-family="Arial" font-size="10.00">Conflict</text>
</g>
<!-- Confidence&#45;&gt;Conflict -->
<g id="edge4" class="edge">
<title>Confidence&#45;&gt;Conflict</title>
<path fill="none" stroke="black" d="M377.5,-18C385.27,-18 393.65,-18 401.65,-18"/>
<polygon fill="black" stroke="black" points="401.48,-21.5 411.48,-18 401.48,-14.5 401.48,-21.5"/>
</g>
<!-- VersionManager -->
<g id="node6" class="node">
<title>VersionManager</title>
<path fill="#f3e5f5" stroke="#7b1fa2" d="M577,-36C577,-36 515.25,-36 515.25,-36 509.25,-36 503.25,-30 503.25,-24 503.25,-24 503.25,-12 503.25,-12 503.25,-6 509.25,0 515.25,0 515.25,0 577,0 577,0 583,0 589,-6 589,-12 589,-12 589,-24 589,-24 589,-30 583,-36 577,-36"/>
<text xml:space="preserve" text-anchor="middle" x="546.12" y="-14.5" font-family="Arial" font-size="10.00">VersionManager</text>
</g>
<!-- Conflict&#45;&gt;VersionManager -->
<g id="edge5" class="edge">
<title>Conflict&#45;&gt;VersionManager</title>
<path fill="none" stroke="black" d="M467.73,-18C475.09,-18 483.35,-18 491.66,-18"/>
<polygon fill="black" stroke="black" points="491.44,-21.5 501.44,-18 491.44,-14.5 491.44,-21.5"/>
</g>
<!-- Nav_Global -->
<g id="node7" class="node">
<title>Nav_Global</title>
<g id="a_node7"><a xlink:href="../00_global.svg" xlink:title="Global">
<path fill="white" stroke="none" d="M42.5,-90C42.5,-90 12.5,-90 12.5,-90 6.5,-90 0.5,-84 0.5,-78 0.5,-78 0.5,-66 0.5,-66 0.5,-60 6.5,-54 12.5,-54 12.5,-54 42.5,-54 42.5,-54 48.5,-54 54.5,-60 54.5,-66 54.5,-66 54.5,-78 54.5,-78 54.5,-84 48.5,-90 42.5,-90"/>
<text xml:space="preserve" text-anchor="middle" x="27.5" y="-68.5" font-family="Arial" font-size="10.00">Global</text>
</a>
</g>
</g>
</g>
</svg>
