<?xml version="1.0" encoding="UTF-8" standalone="no"?>
<!DOCTYPE svg PUBLIC "-//W3C//DTD SVG 1.1//EN"
 "http://www.w3.org/Graphics/SVG/1.1/DTD/svg11.dtd">
<!-- Generated by graphviz version 14.1.3 (20260303.0454)
 -->
<!-- Title: Validation Pages: 1 -->
<svg width="631pt" height="191pt"
 viewBox="0.00 0.00 631.00 191.00" xmlns="http://www.w3.org/2000/svg" xmlns:xlink="http://www.w3.org/1999/xlink">
<g id="graph0" class="graph" transform="scale(1 1) rotate(0) translate(4 187)">
<title>Validation</title>
<polygon fill="white" stroke="none" points="-4,4 -4,-187 626.5,-187 626.5,4 -4,4"/>
<g id="clust1" class="cluster">
<title>cluster_validation</title>
<polygon fill="#f3e5f5" stroke="#7b1fa2" points="82,-8 82,-85 614.5,-85 614.5,-8 82,-8"/>
<text xml:space="preserve" text-anchor="middle" x="348.25" y="-67.7" font-family="Times,serif" font-size="14.00">Validation Pipeline</text>
</g>
<!-- Compiler -->
<g id="node1" class="node">
<title>Compiler</title>
<g id="a_node1"><a xlink:href="50_validation.svg" xlink:title="Compiler">
<polygon fill="#f3e5f5" stroke="#7b1fa2" points="145,-52 90,-52 90,-16 145,-16 145,-52"/>
<text xml:space="preserve" text-anchor="middle" x="117.5" y="-30.5" font-family="Arial" font-size="10.00">Compiler</text>
</a>
</g>
</g>
<!-- Tests -->
<g id="node2" class="node">
<title>Tests</title>
<g id="a_node2"><a xlink:href="50_validation.svg" xlink:title="Tests">
<polygon fill="#f3e5f5" stroke="#7b1fa2" points="235,-52 181,-52 181,-16 235,-16 235,-52"/>
<text xml:space="preserve" text-anchor="middle" x="208" y="-30.5" font-family="Arial" font-size="10.00">Tests</text>
</a>
</g>
</g>
<!-- Compiler&#45;&gt;Tests -->
<g id="edge2" class="edge">
<title>Compiler&#45;&gt;Tests</title>
<path fill="none" stroke="black" d="M145.05,-34C152.74,-34 161.27,-34 169.49,-34"/>
<polygon fill="black" stroke="black" points="169.26,-37.5 179.26,-34 169.26,-30.5 169.26,-37.5"/>
</g>
<!-- Validator -->
<g id="node3" class="node">
<title>Validator</title>
<g id="a_node3"><a xlink:href="50_validation.svg" xlink:title="Validator">
<polygon fill="#f3e5f5" stroke="#7b1fa2" points="325,-52 271,-52 271,-16 325,-16 325,-52"/>
<text xml:space="preserve" text-anchor="middle" x="298" y="-30.5" font-family="Arial" font-size="10.00">Validator</text>
</a>
</g>
</g>
<!-- Tests&#45;&gt;Validator -->
<g id="edge3" class="edge">
<title>Tests&#45;&gt;Validator</title>
<path fill="none" stroke="black" d="M235.4,-34C242.89,-34 251.18,-34 259.2,-34"/>
<polygon fill="black" stroke="black" points="259.1,-37.5 269.1,-34 259.1,-30.5 259.1,-37.5"/>
</g>
<!-- Confidence -->
<g id="node4" class="node">
<title>Confidence</title>
<g id="a_node4"><a xlink:href="50_validation.svg" xlink:title="Confidence">
<polygon fill="#f3e5f5" stroke="#7b1fa2" points="426.5,-52 361,-52 361,-16 426.5,-16 426.5,-52"/>
<text xml:space="preserve" text-anchor="middle" x="393.75" y="-30.5" font-family="Arial" font-size="10.00">Confidence</text>
</a>
</g>
</g>
<!-- Validator&#45;&gt;Confidence -->
<g id="edge4" class="edge">
<title>Validator&#45;&gt;Confidence</title>
<path fill="none" stroke="black" d="M325.11,-34C332.63,-34 341.03,-34 349.29,-34"/>
<polygon fill="black" stroke="black" points="349.26,-37.5 359.26,-34 349.26,-30.5 349.26,-37.5"/>
</g>
<!-- Conflict -->
<g id="node5" class="node">
<title>Conflict</title>
<g id="a_node5"><a xlink:href="50_validation.svg" xlink:title="Conflict">
<polygon fill="#f3e5f5" stroke="#7b1fa2" points="516.5,-52 462.5,-52 462.5,-16 516.5,-16 516.5,-52"/>
<text xml:space="preserve" text-anchor="middle" x="489.5" y="-30.5" font-family="Arial" font-size="10.00">Conflict</text>
</a>
</g>
</g>
<!-- Confidence&#45;&gt;Conflict -->
<g id="edge5" class="edge">
<title>Confidence&#45;&gt;Conflict</title>
<path fill="none" stroke="black" d="M426.75,-34C434.52,-34 442.9,-34 450.9,-34"/>
<polygon fill="black" stroke="black" points="450.73,-37.5 460.73,-34 450.73,-30.5 450.73,-37.5"/>
</g>
<!-- Version -->
<g id="node6" class="node">
<title>Version</title>
<g id="a_node6"><a xlink:href="50_validation.svg" xlink:title="Version">
<polygon fill="#f3e5f5" stroke="#7b1fa2" points="606.5,-52 552.5,-52 552.5,-16 606.5,-16 606.5,-52"/>
<text xml:space="preserve" text-anchor="middle" x="579.5" y="-30.5" font-family="Arial" font-size="10.00">Version</text>
</a>
</g>
</g>
<!-- Conflict&#45;&gt;Version -->
<g id="edge6" class="edge">
<title>Conflict&#45;&gt;Version</title>
<path fill="none" stroke="black" d="M516.9,-34C524.39,-34 532.68,-34 540.7,-34"/>
<polygon fill="black" stroke="black" points="540.6,-37.5 550.6,-34 540.6,-30.5 540.6,-37.5"/>
</g>
<!-- Proxy -->
<g id="node7" class="node">
<title>Proxy</title>
<g id="a_node7"><a xlink:href="../scheduler/component_proxy/14_component_proxy.svg" xlink:title="Proxy">
<polygon fill="#ede7f6" stroke="#512da8" points="54,-52 0,-52 0,-16 54,-16 54,-52"/>
<text xml:space="preserve" text-anchor="middle" x="27" y="-30.5" font-family="Arial" font-size="10.00">Proxy</text>
</a>
</g>
</g>
<!-- Proxy&#45;&gt;Compiler -->
<g id="edge1" class="edge">
<title>Proxy&#45;&gt;Compiler</title>
<path fill="none" stroke="black" d="M54.07,-34C61.7,-34 70.19,-34 78.4,-34"/>
<polygon fill="black" stroke="black" points="78.18,-37.5 88.18,-34 78.18,-30.5 78.18,-37.5"/>
</g>
<!-- Nav_Global -->
<g id="node8" class="node">
<title>Nav_Global</title>
<g id="a_node8"><a xlink:href="../00_global.svg" xlink:title="Global">
<polygon fill="lightgrey" stroke="none" points="235,-129 181,-129 181,-93 235,-93 235,-129"/>
<text xml:space="preserve" text-anchor="middle" x="208" y="-107.5" font-family="Arial" font-size="10.00">Global</text>
</a>
</g>
</g>
<!-- Nav_Experts -->
<g id="node9" class="node">
<title>Nav_Experts</title>
<g id="a_node9"><a xlink:href="../experts/40_experts.svg" xlink:title="Experts">
<polygon fill="lightgrey" stroke="none" points="235,-183 181,-183 181,-147 235,-147 235,-183"/>
<text xml:space="preserve" text-anchor="middle" x="208" y="-161.5" font-family="Arial" font-size="10.00">Experts</text>
</a>
</g>
</g>
</g>
</svg>
