<?xml version="1.0" encoding="UTF-8" standalone="no"?>
<!DOCTYPE svg PUBLIC "-//W3C//DTD SVG 1.1//EN"
 "http://www.w3.org/Graphics/SVG/1.1/DTD/svg11.dtd">
<!-- Generated by graphviz version 2.42.4 (0)
 -->
<!-- Title: Validation Pages: 1 -->
<svg width="599pt" height="98pt"
 viewBox="0.00 0.00 599.00 98.00" xmlns="http://www.w3.org/2000/svg" xmlns:xlink="http://www.w3.org/1999/xlink">
<g id="graph0" class="graph" transform="scale(1 1) rotate(0) translate(4 94)">
<title>Validation</title>
<polygon fill="white" stroke="transparent" points="-4,4 -4,-94 595,-94 595,4 -4,4"/>
<!-- Compiler -->
<g id="node1" class="node">
<title>Compiler</title>
<path fill="#f3e5f5" stroke="#7b1fa2" d="M44,-36C44,-36 12,-36 12,-36 6,-36 0,-30 0,-24 0,-24 0,-12 0,-12 0,-6 6,0 12,0 12,0 44,0 44,0 50,0 56,-6 56,-12 56,-12 56,-24 56,-24 56,-30 50,-36 44,-36"/>
<text text-anchor="middle" x="28" y="-15.5" font-family="Arial" font-size="10.00">Compiler</text>
</g>
<!-- Tests -->
<g id="node2" class="node">
<title>Tests</title>
<path fill="#f3e5f5" stroke="#7b1fa2" d="M134,-36C134,-36 104,-36 104,-36 98,-36 92,-30 92,-24 92,-24 92,-12 92,-12 92,-6 98,0 104,0 104,0 134,0 134,0 140,0 146,-6 146,-12 146,-12 146,-24 146,-24 146,-30 140,-36 134,-36"/>
<text text-anchor="middle" x="119" y="-15.5" font-family="Arial" font-size="10.00">Tests</text>
</g>
<!-- Compiler&#45;&gt;Tests -->
<g id="edge1" class="edge">
<title>Compiler&#45;&gt;Tests</title>
<path fill="none" stroke="black" d="M56.19,-18C64.25,-18 73.22,-18 81.77,-18"/>
<polygon fill="black" stroke="black" points="81.89,-21.5 91.89,-18 81.89,-14.5 81.89,-21.5"/>
</g>
<!-- SemanticValidator -->
<g id="node3" class="node">
<title>SemanticValidator</title>
<path fill="#f3e5f5" stroke="#7b1fa2" d="M265,-36C265,-36 194,-36 194,-36 188,-36 182,-30 182,-24 182,-24 182,-12 182,-12 182,-6 188,0 194,0 194,0 265,0 265,0 271,0 277,-6 277,-12 277,-12 277,-24 277,-24 277,-30 271,-36 265,-36"/>
<text text-anchor="middle" x="229.5" y="-15.5" font-family="Arial" font-size="10.00">SemanticValidator</text>
</g>
<!-- Tests&#45;&gt;SemanticValidator -->
<g id="edge2" class="edge">
<title>Tests&#45;&gt;SemanticValidator</title>
<path fill="none" stroke="black" d="M146.26,-18C154.01,-18 162.81,-18 171.69,-18"/>
<polygon fill="black" stroke="black" points="171.71,-21.5 181.71,-18 171.71,-14.5 171.71,-21.5"/>
</g>
<!-- Confidence -->
<g id="node4" class="node">
<title>Confidence</title>
<path fill="#f3e5f5" stroke="#7b1fa2" d="M367,-36C367,-36 325,-36 325,-36 319,-36 313,-30 313,-24 313,-24 313,-12 313,-12 313,-6 319,0 325,0 325,0 367,0 367,0 373,0 379,-6 379,-12 379,-12 379,-24 379,-24 379,-30 373,-36 367,-36"/>
<text text-anchor="middle" x="346" y="-15.5" font-family="Arial" font-size="10.00">Confidence</text>
</g>
<!-- SemanticValidator&#45;&gt;Confidence -->
<g id="edge3" class="edge">
<title>SemanticValidator&#45;&gt;Confidence</title>
<path fill="none" stroke="black" d="M277.07,-18C285.52,-18 294.28,-18 302.6,-18"/>
<polygon fill="black" stroke="black" points="302.84,-21.5 312.84,-18 302.84,-14.5 302.84,-21.5"/>
</g>
<!-- Conflict -->
<g id="node5" class="node">
<title>Conflict</title>
<path fill="#f3e5f5" stroke="#7b1fa2" d="M457,-36C457,-36 427,-36 427,-36 421,-36 415,-30 415,-24 415,-24 415,-12 415,-12 415,-6 421,0 427,0 427,0 457,0 457,0 463,0 469,-6 469,-12 469,-12 469,-24 469,-24 469,-30 463,-36 457,-36"/>
<text text-anchor="middle" x="442" y="-15.5" font-family="Arial" font-size="10.00">Conflict</text>
</g>
<!-- Confidence&#45;&gt;Conflict -->
<g id="edge4" class="edge">
<title>Confidence&#45;&gt;Conflict</title>
<path fill="none" stroke="black" d="M379.09,-18C387.41,-18 396.42,-18 404.93,-18"/>
<polygon fill="black" stroke="black" points="404.97,-21.5 414.97,-18 404.97,-14.5 404.97,-21.5"/>
</g>
<!-- VersionManager -->
<g id="node6" class="node">
<title>VersionManager</title>
<path fill="#f3e5f5" stroke="#7b1fa2" d="M579,-36C579,-36 517,-36 517,-36 511,-36 505,-30 505,-24 505,-24 505,-12 505,-12 505,-6 511,0 517,0 517,0 579,0 579,0 585,0 591,-6 591,-12 591,-12 591,-24 591,-24 591,-30 585,-36 579,-36"/>
<text text-anchor="middle" x="548" y="-15.5" font-family="Arial" font-size="10.00">VersionManager</text>
</g>
<!-- Conflict&#45;&gt;VersionManager -->
<g id="edge5" class="edge">
<title>Conflict&#45;&gt;VersionManager</title>
<path fill="none" stroke="black" d="M469.24,-18C477.11,-18 486.04,-18 494.96,-18"/>
<polygon fill="black" stroke="black" points="494.98,-21.5 504.98,-18 494.98,-14.5 494.98,-21.5"/>
</g>
<!-- Nav_Global -->
<g id="node7" class="node">
<title>Nav_Global</title>
<g id="a_node7"><a xlink:href="../00_global.svg" xlink:title="Global">
<path fill="white" stroke="transparent" d="M43,-90C43,-90 13,-90 13,-90 7,-90 1,-84 1,-78 1,-78 1,-66 1,-66 1,-60 7,-54 13,-54 13,-54 43,-54 43,-54 49,-54 55,-60 55,-66 55,-66 55,-78 55,-78 55,-84 49,-90 43,-90"/>
<text text-anchor="middle" x="28" y="-69.5" font-family="Arial" font-size="10.00">Global</text>
</a>
</g>
</g>
</g>
</svg>
