<?xml version="1.0" encoding="UTF-8" standalone="no"?>
<!DOCTYPE svg PUBLIC "-//W3C//DTD SVG 1.1//EN"
 "http://www.w3.org/Graphics/SVG/1.1/DTD/svg11.dtd">
<!-- Generated by graphviz version 2.42.4 (0)
 -->
<!-- Title: Learning Pages: 1 -->
<svg width="835pt" height="98pt"
 viewBox="0.00 0.00 835.00 98.00" xmlns="http://www.w3.org/2000/svg" xmlns:xlink="http://www.w3.org/1999/xlink">
<g id="graph0" class="graph" transform="scale(1 1) rotate(0) translate(4 94)">
<title>Learning</title>
<polygon fill="white" stroke="transparent" points="-4,4 -4,-94 831,-94 831,4 -4,4"/>
<!-- Metrics -->
<g id="node1" class="node">
<title>Metrics</title>
<path fill="#efebe9" stroke="#6d4c41" d="M42,-36C42,-36 12,-36 12,-36 6,-36 0,-30 0,-24 0,-24 0,-12 0,-12 0,-6 6,0 12,0 12,0 42,0 42,0 48,0 54,-6 54,-12 54,-12 54,-24 54,-24 54,-30 48,-36 42,-36"/>
<text text-anchor="middle" x="27" y="-15.5" font-family="Arial" font-size="10.00">Metrics</text>
</g>
<!-- Patterns -->
<g id="node2" class="node">
<title>Patterns</title>
<path fill="#efebe9" stroke="#6d4c41" d="M133,-36C133,-36 103,-36 103,-36 97,-36 91,-30 91,-24 91,-24 91,-12 91,-12 91,-6 97,0 103,0 103,0 133,0 133,0 139,0 145,-6 145,-12 145,-12 145,-24 145,-24 145,-30 139,-36 133,-36"/>
<text text-anchor="middle" x="118" y="-15.5" font-family="Arial" font-size="10.00">Patterns</text>
</g>
<!-- Metrics&#45;&gt;Patterns -->
<g id="edge1" class="edge">
<title>Metrics&#45;&gt;Patterns</title>
<path fill="none" stroke="black" d="M54.22,-18C62.55,-18 71.91,-18 80.82,-18"/>
<polygon fill="black" stroke="black" points="80.97,-21.5 90.97,-18 80.97,-14.5 80.97,-21.5"/>
</g>
<!-- Ranking -->
<g id="node3" class="node">
<title>Ranking</title>
<path fill="#efebe9" stroke="#6d4c41" d="M224,-36C224,-36 194,-36 194,-36 188,-36 182,-30 182,-24 182,-24 182,-12 182,-12 182,-6 188,0 194,0 194,0 224,0 224,0 230,0 236,-6 236,-12 236,-12 236,-24 236,-24 236,-30 230,-36 224,-36"/>
<text text-anchor="middle" x="209" y="-15.5" font-family="Arial" font-size="10.00">Ranking</text>
</g>
<!-- Patterns&#45;&gt;Ranking -->
<g id="edge2" class="edge">
<title>Patterns&#45;&gt;Ranking</title>
<path fill="none" stroke="black" d="M145.22,-18C153.55,-18 162.91,-18 171.82,-18"/>
<polygon fill="black" stroke="black" points="171.97,-21.5 181.97,-18 171.97,-14.5 171.97,-21.5"/>
</g>
<!-- NegativeKnowledge -->
<g id="node4" class="node">
<title>NegativeKnowledge</title>
<path fill="#efebe9" stroke="#6d4c41" d="M365,-36C365,-36 285,-36 285,-36 279,-36 273,-30 273,-24 273,-24 273,-12 273,-12 273,-6 279,0 285,0 285,0 365,0 365,0 371,0 377,-6 377,-12 377,-12 377,-24 377,-24 377,-30 371,-36 365,-36"/>
<text text-anchor="middle" x="325" y="-15.5" font-family="Arial" font-size="10.00">NegativeKnowledge</text>
</g>
<!-- Ranking&#45;&gt;NegativeKnowledge -->
<g id="edge3" class="edge">
<title>Ranking&#45;&gt;NegativeKnowledge</title>
<path fill="none" stroke="black" d="M236.15,-18C244.17,-18 253.35,-18 262.68,-18"/>
<polygon fill="black" stroke="black" points="262.82,-21.5 272.82,-18 262.82,-14.5 262.82,-21.5"/>
</g>
<!-- Benchmarks -->
<g id="node5" class="node">
<title>Benchmarks</title>
<path fill="#efebe9" stroke="#6d4c41" d="M473,-36C473,-36 426,-36 426,-36 420,-36 414,-30 414,-24 414,-24 414,-12 414,-12 414,-6 420,0 426,0 426,0 473,0 473,0 479,0 485,-6 485,-12 485,-12 485,-24 485,-24 485,-30 479,-36 473,-36"/>
<text text-anchor="middle" x="449.5" y="-15.5" font-family="Arial" font-size="10.00">Benchmarks</text>
</g>
<!-- NegativeKnowledge&#45;&gt;Benchmarks -->
<g id="edge4" class="edge">
<title>NegativeKnowledge&#45;&gt;Benchmarks</title>
<path fill="none" stroke="black" d="M377.24,-18C386,-18 395.05,-18 403.63,-18"/>
<polygon fill="black" stroke="black" points="403.82,-21.5 413.82,-18 403.82,-14.5 403.82,-21.5"/>
</g>
<!-- MCTS -->
<g id="node6" class="node">
<title>MCTS</title>
<path fill="#efebe9" stroke="#6d4c41" d="M564,-36C564,-36 534,-36 534,-36 528,-36 522,-30 522,-24 522,-24 522,-12 522,-12 522,-6 528,0 534,0 534,0 564,0 564,0 570,0 576,-6 576,-12 576,-12 576,-24 576,-24 576,-30 570,-36 564,-36"/>
<text text-anchor="middle" x="549" y="-15.5" font-family="Arial" font-size="10.00">MCTS</text>
</g>
<!-- Benchmarks&#45;&gt;MCTS -->
<g id="edge5" class="edge">
<title>Benchmarks&#45;&gt;MCTS</title>
<path fill="none" stroke="black" d="M485.15,-18C493.71,-18 502.91,-18 511.55,-18"/>
<polygon fill="black" stroke="black" points="511.74,-21.5 521.74,-18 511.74,-14.5 511.74,-21.5"/>
</g>
<!-- ProposalEvent -->
<g id="node7" class="node">
<title>ProposalEvent</title>
<path fill="#efebe9" stroke="#6d4c41" d="M704,-36C704,-36 648,-36 648,-36 642,-36 636,-30 636,-24 636,-24 636,-12 636,-12 636,-6 642,0 648,0 648,0 704,0 704,0 710,0 716,-6 716,-12 716,-12 716,-24 716,-24 716,-30 710,-36 704,-36"/>
<text text-anchor="middle" x="676" y="-15.5" font-family="Arial" font-size="10.00">ProposalEvent</text>
</g>
<!-- MCTS&#45;&gt;ProposalEvent -->
<g id="edge6" class="edge">
<title>MCTS&#45;&gt;ProposalEvent</title>
<path fill="none" stroke="black" d="M576.2,-18C590.43,-18 608.5,-18 625.29,-18"/>
<polygon fill="black" stroke="black" points="625.52,-21.5 635.52,-18 625.52,-14.5 625.52,-21.5"/>
<text text-anchor="middle" x="606" y="-20.8" font-family="Arial" font-size="9.00">future</text>
</g>
<!-- PolicyEngine -->
<g id="node8" class="node">
<title>PolicyEngine</title>
<path fill="#efebe9" stroke="#6d4c41" d="M815,-36C815,-36 765,-36 765,-36 759,-36 753,-30 753,-24 753,-24 753,-12 753,-12 753,-6 759,0 765,0 765,0 815,0 815,0 821,0 827,-6 827,-12 827,-12 827,-24 827,-24 827,-30 821,-36 815,-36"/>
<text text-anchor="middle" x="790" y="-15.5" font-family="Arial" font-size="10.00">PolicyEngine</text>
</g>
<!-- ProposalEvent&#45;&gt;PolicyEngine -->
<g id="edge7" class="edge">
<title>ProposalEvent&#45;&gt;PolicyEngine</title>
<path fill="none" stroke="black" stroke-dasharray="5,2" d="M716.17,-18C724.7,-18 733.79,-18 742.57,-18"/>
<polygon fill="black" stroke="black" points="742.67,-21.5 752.67,-18 742.67,-14.5 742.67,-21.5"/>
</g>
<!-- Nav_Global -->
<g id="node9" class="node">
<title>Nav_Global</title>
<g id="a_node9"><a xlink:href="../00_global.svg" xlink:title="Global">
<path fill="white" stroke="transparent" d="M42,-90C42,-90 12,-90 12,-90 6,-90 0,-84 0,-78 0,-78 0,-66 0,-66 0,-60 6,-54 12,-54 12,-54 42,-54 42,-54 48,-54 54,-60 54,-66 54,-66 54,-78 54,-78 54,-84 48,-90 42,-90"/>
<text text-anchor="middle" x="27" y="-69.5" font-family="Arial" font-size="10.00">Global</text>
</a>
</g>
</g>
</g>
</svg>
