<?xml version="1.0" encoding="UTF-8" standalone="no"?>
<!DOCTYPE svg PUBLIC "-//W3C//DTD SVG 1.1//EN"
 "http://www.w3.org/Graphics/SVG/1.1/DTD/svg11.dtd">
<!-- Generated by graphviz version 14.1.3 (20260303.0454)
 -->
<!-- Title: Learning Pages: 1 -->
<svg width="832pt" height="98pt"
 viewBox="0.00 0.00 832.00 98.00" xmlns="http://www.w3.org/2000/svg" xmlns:xlink="http://www.w3.org/1999/xlink">
<g id="graph0" class="graph" transform="scale(1 1) rotate(0) translate(4 94)">
<title>Learning</title>
<polygon fill="white" stroke="none" points="-4,4 -4,-94 827.75,-94 827.75,4 -4,4"/>
<!-- Metrics -->
<g id="node1" class="node">
<title>Metrics</title>
<path fill="#efebe9" stroke="#6d4c41" d="M42,-36C42,-36 12,-36 12,-36 6,-36 0,-30 0,-24 0,-24 0,-12 0,-12 0,-6 6,0 12,0 12,0 42,0 42,0 48,0 54,-6 54,-12 54,-12 54,-24 54,-24 54,-30 48,-36 42,-36"/>
<text xml:space="preserve" text-anchor="middle" x="27" y="-14.5" font-family="Arial" font-size="10.00">Metrics</text>
</g>
<!-- Patterns -->
<g id="node2" class="node">
<title>Patterns</title>
<path fill="#efebe9" stroke="#6d4c41" d="M133,-36C133,-36 103,-36 103,-36 97,-36 91,-30 91,-24 91,-24 91,-12 91,-12 91,-6 97,0 103,0 103,0 133,0 133,0 139,0 145,-6 145,-12 145,-12 145,-24 145,-24 145,-30 139,-36 133,-36"/>
<text xml:space="preserve" text-anchor="middle" x="118" y="-14.5" font-family="Arial" font-size="10.00">Patterns</text>
</g>
<!-- Metrics&#45;&gt;Patterns -->
<g id="edge1" class="edge">
<title>Metrics&#45;&gt;Patterns</title>
<path fill="none" stroke="black" d="M54.22,-18C62.12,-18 70.94,-18 79.43,-18"/>
<polygon fill="black" stroke="black" points="79.14,-21.5 89.14,-18 79.14,-14.5 79.14,-21.5"/>
</g>
<!-- Ranking -->
<g id="node3" class="node">
<title>Ranking</title>
<path fill="#efebe9" stroke="#6d4c41" d="M224,-36C224,-36 194,-36 194,-36 188,-36 182,-30 182,-24 182,-24 182,-12 182,-12 182,-6 188,0 194,0 194,0 224,0 224,0 230,0 236,-6 236,-12 236,-12 236,-24 236,-24 236,-30 230,-36 224,-36"/>
<text xml:space="preserve" text-anchor="middle" x="209" y="-14.5" font-family="Arial" font-size="10.00">Ranking</text>
</g>
<!-- Patterns&#45;&gt;Ranking -->
<g id="edge2" class="edge">
<title>Patterns&#45;&gt;Ranking</title>
<path fill="none" stroke="black" d="M145.22,-18C153.12,-18 161.94,-18 170.43,-18"/>
<polygon fill="black" stroke="black" points="170.14,-21.5 180.14,-18 170.14,-14.5 170.14,-21.5"/>
</g>
<!-- NegativeKnowledge -->
<g id="node4" class="node">
<title>NegativeKnowledge</title>
<path fill="#efebe9" stroke="#6d4c41" d="M364,-36C364,-36 285,-36 285,-36 279,-36 273,-30 273,-24 273,-24 273,-12 273,-12 273,-6 279,0 285,0 285,0 364,0 364,0 370,0 376,-6 376,-12 376,-12 376,-24 376,-24 376,-30 370,-36 364,-36"/>
<text xml:space="preserve" text-anchor="middle" x="324.5" y="-14.5" font-family="Arial" font-size="10.00">NegativeKnowledge</text>
</g>
<!-- Ranking&#45;&gt;NegativeKnowledge -->
<g id="edge3" class="edge">
<title>Ranking&#45;&gt;NegativeKnowledge</title>
<path fill="none" stroke="black" d="M236.32,-18C243.97,-18 252.66,-18 261.52,-18"/>
<polygon fill="black" stroke="black" points="261.25,-21.5 271.25,-18 261.25,-14.5 261.25,-21.5"/>
</g>
<!-- Benchmarks -->
<g id="node5" class="node">
<title>Benchmarks</title>
<path fill="#efebe9" stroke="#6d4c41" d="M471.75,-36C471.75,-36 425,-36 425,-36 419,-36 413,-30 413,-24 413,-24 413,-12 413,-12 413,-6 419,0 425,0 425,0 471.75,0 471.75,0 477.75,0 483.75,-6 483.75,-12 483.75,-12 483.75,-24 483.75,-24 483.75,-30 477.75,-36 471.75,-36"/>
<text xml:space="preserve" text-anchor="middle" x="448.38" y="-14.5" font-family="Arial" font-size="10.00">Benchmarks</text>
</g>
<!-- NegativeKnowledge&#45;&gt;Benchmarks -->
<g id="edge4" class="edge">
<title>NegativeKnowledge&#45;&gt;Benchmarks</title>
<path fill="none" stroke="black" d="M376.48,-18C384.63,-18 393.03,-18 401.06,-18"/>
<polygon fill="black" stroke="black" points="400.99,-21.5 410.99,-18 400.99,-14.5 400.99,-21.5"/>
</g>
<!-- MCTS -->
<g id="node6" class="node">
<title>MCTS</title>
<path fill="#efebe9" stroke="#6d4c41" d="M562.75,-36C562.75,-36 532.75,-36 532.75,-36 526.75,-36 520.75,-30 520.75,-24 520.75,-24 520.75,-12 520.75,-12 520.75,-6 526.75,0 532.75,0 532.75,0 562.75,0 562.75,0 568.75,0 574.75,-6 574.75,-12 574.75,-12 574.75,-24 574.75,-24 574.75,-30 568.75,-36 562.75,-36"/>
<text xml:space="preserve" text-anchor="middle" x="547.75" y="-14.5" font-family="Arial" font-size="10.00">MCTS</text>
</g>
<!-- Benchmarks&#45;&gt;MCTS -->
<g id="edge5" class="edge">
<title>Benchmarks&#45;&gt;MCTS</title>
<path fill="none" stroke="black" d="M483.98,-18C492.15,-18 500.91,-18 509.2,-18"/>
<polygon fill="black" stroke="black" points="509.01,-21.5 519.01,-18 509.01,-14.5 509.01,-21.5"/>
</g>
<!-- ProposalEvent -->
<g id="node7" class="node">
<title>ProposalEvent</title>
<path fill="#efebe9" stroke="#6d4c41" d="M701.75,-36C701.75,-36 646,-36 646,-36 640,-36 634,-30 634,-24 634,-24 634,-12 634,-12 634,-6 640,0 646,0 646,0 701.75,0 701.75,0 707.75,0 713.75,-6 713.75,-12 713.75,-12 713.75,-24 713.75,-24 713.75,-30 707.75,-36 701.75,-36"/>
<text xml:space="preserve" text-anchor="middle" x="673.88" y="-14.5" font-family="Arial" font-size="10.00">ProposalEvent</text>
</g>
<!-- MCTS&#45;&gt;ProposalEvent -->
<g id="edge6" class="edge">
<title>MCTS&#45;&gt;ProposalEvent</title>
<path fill="none" stroke="black" d="M575.07,-18C588.95,-18 606.44,-18 622.79,-18"/>
<polygon fill="black" stroke="black" points="622.34,-21.5 632.34,-18 622.34,-14.5 622.34,-21.5"/>
<text xml:space="preserve" text-anchor="middle" x="604.38" y="-19.95" font-family="Arial" font-size="9.00">future</text>
</g>
<!-- PolicyEngine -->
<g id="node8" class="node">
<title>PolicyEngine</title>
<path fill="#efebe9" stroke="#6d4c41" d="M811.75,-36C811.75,-36 762.75,-36 762.75,-36 756.75,-36 750.75,-30 750.75,-24 750.75,-24 750.75,-12 750.75,-12 750.75,-6 756.75,0 762.75,0 762.75,0 811.75,0 811.75,0 817.75,0 823.75,-6 823.75,-12 823.75,-12 823.75,-24 823.75,-24 823.75,-30 817.75,-36 811.75,-36"/>
<text xml:space="preserve" text-anchor="middle" x="787.25" y="-14.5" font-family="Arial" font-size="10.00">PolicyEngine</text>
</g>
<!-- ProposalEvent&#45;&gt;PolicyEngine -->
<g id="edge7" class="edge">
<title>ProposalEvent&#45;&gt;PolicyEngine</title>
<path fill="none" stroke="black" stroke-dasharray="5,2" d="M714.14,-18C722.14,-18 730.64,-18 738.89,-18"/>
<polygon fill="black" stroke="black" points="738.8,-21.5 748.8,-18 738.8,-14.5 738.8,-21.5"/>
</g>
<!-- Nav_Global -->
<g id="node9" class="node">
<title>Nav_Global</title>
<g id="a_node9"><a xlink:href="../00_global.svg" xlink:title="Global">
<path fill="white" stroke="none" d="M42,-90C42,-90 12,-90 12,-90 6,-90 0,-84 0,-78 0,-78 0,-66 0,-66 0,-60 6,-54 12,-54 12,-54 42,-54 42,-54 48,-54 54,-60 54,-66 54,-66 54,-78 54,-78 54,-84 48,-90 42,-90"/>
<text xml:space="preserve" text-anchor="middle" x="27" y="-68.5" font-family="Arial" font-size="10.00">Global</text>
</a>
</g>
</g>
</g>
</svg>
