<?xml version="1.0" encoding="UTF-8" standalone="no"?>
<!DOCTYPE svg PUBLIC "-//W3C//DTD SVG 1.1//EN"
 "http://www.w3.org/Graphics/SVG/1.1/DTD/svg11.dtd">
<!-- Generated by graphviz version 14.1.3 (20260303.0454)
 -->
<!-- Title: Learning Pages: 1 -->
<svg width="452pt" height="276pt"
 viewBox="0.00 0.00 452.00 276.00" xmlns="http://www.w3.org/2000/svg" xmlns:xlink="http://www.w3.org/1999/xlink">
<g id="graph0" class="graph" transform="scale(1 1) rotate(0) translate(4 272)">
<title>Learning</title>
<polygon fill="white" stroke="none" points="-4,4 -4,-272 447.75,-272 447.75,4 -4,4"/>
<g id="clust1" class="cluster">
<title>cluster_ai</title>
<polygon fill="#fffde7" stroke="#fbc02d" points="82.25,-8 82.25,-193 271.5,-193 271.5,-8 82.25,-8"/>
<text xml:space="preserve" text-anchor="middle" x="176.88" y="-175.7" font-family="Times,serif" font-size="14.00">AI Backends &amp; Learning</text>
</g>
<!-- OpenVINO -->
<g id="node1" class="node">
<title>OpenVINO</title>
<g id="a_node1"><a xlink:href="60_learning.svg" xlink:title="OpenVINO">
<polygon fill="#fffde7" stroke="#fbc02d" points="208.38,-160 144.38,-160 144.38,-124 208.38,-124 208.38,-160"/>
<text xml:space="preserve" text-anchor="middle" x="176.38" y="-138.5" font-family="Arial" font-size="10.00">OpenVINO</text>
</a>
</g>
</g>
<!-- GPU -->
<g id="node7" class="node">
<title>GPU</title>
<g id="a_node7"><a xlink:href="../00_global.svg" xlink:title="GPU">
<polygon fill="#ffebee" stroke="#c62828" points="353.5,-160 299.5,-160 299.5,-124 353.5,-124 353.5,-160"/>
<text xml:space="preserve" text-anchor="middle" x="326.5" y="-138.5" font-family="Arial" font-size="10.00">GPU</text>
</a>
</g>
</g>
<!-- OpenVINO&#45;&gt;GPU -->
<g id="edge5" class="edge">
<title>OpenVINO&#45;&gt;GPU</title>
<path fill="none" stroke="black" d="M208.79,-142C231.85,-142 263.28,-142 287.72,-142"/>
<polygon fill="black" stroke="black" points="287.57,-145.5 297.57,-142 287.57,-138.5 287.57,-145.5"/>
</g>
<!-- Embedding -->
<g id="node2" class="node">
<title>Embedding</title>
<g id="a_node2"><a xlink:href="60_learning.svg" xlink:title="Embedding">
<polygon fill="#fffde7" stroke="#fbc02d" points="208.75,-106 144,-106 144,-70 208.75,-70 208.75,-106"/>
<text xml:space="preserve" text-anchor="middle" x="176.38" y="-84.5" font-family="Arial" font-size="10.00">Embedding</text>
</a>
</g>
</g>
<!-- MCTS -->
<g id="node3" class="node">
<title>MCTS</title>
<g id="a_node3"><a xlink:href="60_learning.svg" xlink:title="MCTS">
<polygon fill="#fffde7" stroke="#fbc02d" points="203.38,-52 149.38,-52 149.38,-16 203.38,-16 203.38,-52"/>
<text xml:space="preserve" text-anchor="middle" x="176.38" y="-30.5" font-family="Arial" font-size="10.00">MCTS</text>
</a>
</g>
</g>
<!-- Adapter -->
<g id="node4" class="node">
<title>Adapter</title>
<g id="a_node4"><a xlink:href="../context/decision_engine/24_decision_engine.svg" xlink:title="Adapter">
<polygon fill="#fff3e0" stroke="#ef6c00" points="54.12,-160 0.12,-160 0.12,-124 54.12,-124 54.12,-160"/>
<text xml:space="preserve" text-anchor="middle" x="27.12" y="-138.5" font-family="Arial" font-size="10.00">Adapter</text>
</a>
</g>
</g>
<!-- Adapter&#45;&gt;OpenVINO -->
<g id="edge1" class="edge">
<title>Adapter&#45;&gt;OpenVINO</title>
<path fill="none" stroke="black" d="M54.45,-142C76.09,-142 107.18,-142 132.42,-142"/>
<polygon fill="black" stroke="black" points="132.39,-145.5 142.39,-142 132.39,-138.5 132.39,-145.5"/>
</g>
<!-- Adapter&#45;&gt;Embedding -->
<g id="edge2" class="edge">
<title>Adapter&#45;&gt;Embedding</title>
<path fill="none" stroke="black" d="M54.4,-127.7C63.11,-123.28 72.96,-118.63 82.25,-115 98.56,-108.63 116.98,-102.98 133.12,-98.51"/>
<polygon fill="black" stroke="black" points="133.66,-101.99 142.4,-96.01 131.84,-95.23 133.66,-101.99"/>
</g>
<!-- Decision -->
<g id="node5" class="node">
<title>Decision</title>
<g id="a_node5"><a xlink:href="../context/decision_engine/24_decision_engine.svg" xlink:title="Decision">
<polygon fill="#fff3e0" stroke="#ef6c00" points="54.25,-52 0,-52 0,-16 54.25,-16 54.25,-52"/>
<text xml:space="preserve" text-anchor="middle" x="27.12" y="-30.5" font-family="Arial" font-size="10.00">Decision</text>
</a>
</g>
</g>
<!-- Decision&#45;&gt;MCTS -->
<g id="edge4" class="edge">
<title>Decision&#45;&gt;MCTS</title>
<path fill="none" stroke="black" d="M54.45,-34C77.69,-34 111.84,-34 137.93,-34"/>
<polygon fill="black" stroke="black" points="137.76,-37.5 147.76,-34 137.76,-30.5 137.76,-37.5"/>
</g>
<!-- Qdrant -->
<g id="node6" class="node">
<title>Qdrant</title>
<g id="a_node6"><a xlink:href="../services/30_services.svg" xlink:title="Qdrant">
<polygon fill="#e1f5fe" stroke="#0288d1" points="54.12,-106 0.12,-106 0.12,-70 54.12,-70 54.12,-106"/>
<text xml:space="preserve" text-anchor="middle" x="27.12" y="-84.5" font-family="Arial" font-size="10.00">Qdrant</text>
</a>
</g>
</g>
<!-- Qdrant&#45;&gt;Embedding -->
<g id="edge3" class="edge">
<title>Qdrant&#45;&gt;Embedding</title>
<path fill="none" stroke="black" d="M54.45,-88C76.02,-88 106.97,-88 132.17,-88"/>
<polygon fill="black" stroke="black" points="132.13,-91.5 142.13,-88 132.13,-84.5 132.13,-91.5"/>
</g>
<!-- Nav_Global -->
<g id="node8" class="node">
<title>Nav_Global</title>
<g id="a_node8"><a xlink:href="../00_global.svg" xlink:title="Global">
<polygon fill="lightgrey" stroke="none" points="443.62,-160 389.62,-160 389.62,-124 443.62,-124 443.62,-160"/>
<text xml:space="preserve" text-anchor="middle" x="416.62" y="-138.5" font-family="Arial" font-size="10.00">Global</text>
</a>
</g>
</g>
<!-- Nav_Context -->
<g id="node9" class="node">
<title>Nav_Context</title>
<g id="a_node9"><a xlink:href="../context/20_context.svg" xlink:title="Context">
<polygon fill="lightgrey" stroke="none" points="443.62,-214 389.62,-214 389.62,-178 443.62,-178 443.62,-214"/>
<text xml:space="preserve" text-anchor="middle" x="416.62" y="-192.5" font-family="Arial" font-size="10.00">Context</text>
</a>
</g>
</g>
<!-- Nav_Services -->
<g id="node10" class="node">
<title>Nav_Services</title>
<g id="a_node10"><a xlink:href="../services/30_services.svg" xlink:title="Services">
<polygon fill="lightgrey" stroke="none" points="443.75,-268 389.5,-268 389.5,-232 443.75,-232 443.75,-268"/>
<text xml:space="preserve" text-anchor="middle" x="416.62" y="-246.5" font-family="Arial" font-size="10.00">Services</text>
</a>
</g>
</g>
</g>
</svg>
